<?xml version="1.0" encoding="utf-8"?>
<!-- Generator: Adobe Illustrator 25.2.1, SVG Export Plug-In . SVG Version: 6.00 Build 0)  -->
<svg version="1.1" id="Layer_2" xmlns="http://www.w3.org/2000/svg" xmlns:xlink="http://www.w3.org/1999/xlink" x="0px" y="0px"
	 viewBox="0 0 200 200" style="enable-background:new 0 0 200 200;" xml:space="preserve">
<style type="text/css">
	.st0{fill:#FFCDAB;}
	.st1{opacity:0.2;fill:#FFFFFF;enable-background:new    ;}
	.st2{fill:#E09049;}
	.st3{fill:#BC6A46;}
	.st4{fill:#F2A149;}
	.st5{fill:#A0573D;}
</style>
<ellipse transform="matrix(0.9967 -8.057643e-02 8.057643e-02 0.9967 -0.3767 12.1476)" class="st0" cx="150.3" cy="10.7" rx="4.2" ry="21.4"/>
<ellipse transform="matrix(0.9967 -8.057643e-02 8.057643e-02 0.9967 -0.3708 12.1468)" class="st1" cx="150.3" cy="10.7" rx="2.1" ry="16"/>
<ellipse transform="matrix(0.5019 -0.8649 0.8649 0.5019 -25.9067 157.0611)" class="st0" cx="123.4" cy="101" rx="2.3" ry="19.9"/>
<ellipse transform="matrix(0.5019 -0.8649 0.8649 0.5019 -25.9065 156.9927)" class="st1" cx="123.4" cy="101" rx="1.1" ry="14.9"/>
<g id="Group_779_24_" transform="translate(162.858 159.941)">
	<path class="st2" d="M-182.2-103.9c1.4-1.9,2.9-3.7,4.4-5.5c4.3-5.2,8.9-10.2,13.7-15.1c4.6-4.8,9.5-9.5,14-14.4
		c0.3-0.3,0.6-0.7,0.9-1c-1.6-0.6-3.1-1.2-4.7-1.7c-6.7-2.7-14-3.8-21.2-3.2c-13.5,1.8-32.4,21.6-20.4,34.9
		C-192.1-106.2-187.3-104.5-182.2-103.9z"/>
	<g id="Group_778_24_" transform="translate(0.234 5.211)">
		<path class="st3" d="M-182.4-109.1c1.4-1.9,2.9-3.7,4.4-5.6c0.7-0.8,1.4-1.6,2.1-2.4c-1.3-0.2-2.6-0.4-4-0.7l2.5,2
			c-6.3-0.9-12.3-3.5-17.3-7.4c0.3,2.3,1.9,4.3,4.1,5.1c-2.8-0.8-5.4-2.6-7.1-4.9c-0.6-0.8-1.1-1.7-1.8-2.6
			c-0.2,3.8,1.2,7.6,3.8,10.4C-192.4-111.4-187.5-109.7-182.4-109.1z"/>
	</g>
	<path class="st4" d="M-176.7-118.1c-1.6-1-3.1-2.2-4.5-3.5c1.1,0.5,2.3,0.8,3.6,0.8c-0.9-0.8-1.8-1.7-2.6-2.6
		c-0.1-0.1-0.2-0.2-0.2-0.4c0-0.3,0.5-0.5,0.8-0.4c4.1,0.3,8,2,11.8,3.6c0.9-0.9,1.8-1.9,2.7-2.8c-4.4-2.1-9-4-13.3-6.2
		c5.6,0,11.2,1,16.5,2.9c2.8-2.9,5.7-5.7,8.4-8.6c-2.5-0.4-5-0.7-7.5-0.9c-1.9,0.1-3.7-0.3-5.4-1.2c0.9-0.3,1.8-0.5,2.7-0.5
		c4.2-0.8,8.5-0.8,12.8-0.2c0.2-0.2,0.4-0.4,0.6-0.6c-2.8-0.9-5.7-1.5-8.6-1.8c-3.7-0.8-7.4-1.2-11.2-1.3c-3.8-0.1-7.5,1-10.7,3
		c4,0.2,7.7,1.7,10.8,4.2c-6,0.9-12.1-1-18.1-0.5c1.6,1.7,3.4,3.3,5.3,4.5c-3-0.4-6,0.1-8.6,1.6l3.7,2.1c-0.5-0.3-1.8-0.1-2.4-0.2
		c-0.8-0.1-1.6-0.3-2.4-0.5c-1-0.3-2.9-1.4-2.3,0.4c0.9,2.6,4.9,4.7,7.2,5.8C-184.1-119.8-180.5-118.8-176.7-118.1z"/>
	<path class="st1" d="M-160.1-128.7c0.5-0.5,1-1,1.5-1.5c-4.2-1.5-8.3-3-12.7-2.9c-2.4,0.1-4.8,0.6-7.1,1.3
		C-172-132-165.9-130.9-160.1-128.7z"/>
	<path id="Path_14623_14_" class="st1" d="M-188.8-128.7c2.7,0.5,5.4,0.8,8.1,0.7c0.8-0.1,1.5,0,2.3,0.1c1,0.3,2,0.7,2.9,1.3
		l4.7,2.9c-3.9-1.7-8-2.8-12.3-3.1C-185.1-127.2-187-127.8-188.8-128.7z"/>
	<path id="Path_14624_14_" class="st1" d="M-178.1-139.1c1.8-1.4,4-2.2,6.2-2.3c1.3,0.1,2.5,0.4,3.7,0.6c1.3,0.2,2.7,0.1,4.1,0.1
		c1.9,0.1,3.8,0.5,5.6,1.2c-2-0.5-4.1-0.6-6.1-0.2c-2,0.8-4.1,1-6.1,0.7c-0.7-0.2-1.3-0.7-2-0.9
		C-174.6-140.1-176.4-139.9-178.1-139.1z"/>
	<path class="st1" d="M-162-134c1.2,0,2.4-0.3,3.7-0.4c1.2,0,2.4,0.1,3.5,0.3c0.1-0.1,0.2-0.2,0.3-0.3c-1.2-0.3-2.5-0.4-3.7-0.5
		c-1.3,0-2.5,0.1-3.8,0c-2.9,0-5.8-0.6-8.5-1.8c0.5,1.2,2.6,1.4,3.7,1.7C-165.3-134.2-163.7-134-162-134z"/>
	<path id="Path_14626_14_" class="st1" d="M-193.5-126.3c2.2,0.4,4.4,1,6.6,1.5c0.5,0.1,1,0.2,1.4,0.5c1.2,0.9,2.3,2.1,3.2,3.4
		c-1.5-1.1-3.2-1.9-4.9-2.4c-0.6-0.1-1.2-0.2-1.8-0.4C-190.6-124.4-192.1-125.3-193.5-126.3z"/>
	<path class="st5" d="M-183.7-103.1c0.3,0,0.6,0,0.9,0.1c0.7-1,1.5-2,2.2-2.9c-1.7-0.2-3.4-0.5-5-0.8c-3.4-0.9-9.6-2.2-12.3-7
		c-0.7-1.5-1.2-3.1-1.3-4.7c-0.4,5.4,2.4,10.6,7.1,13.3C-189.5-104-186.6-103.3-183.7-103.1z"/>
</g>
<g id="Group_779_23_" transform="translate(162.858 159.941)">
	<path class="st2" d="M-127.3-106.7c-6.5,1.4-13,2.7-19.5,4.2c-7.6,1.7-15.2,3.6-22.6,6.1c1.4,1.1,2.9,2.2,4.4,3.1
		c18.4,11.9,39.4,18.7,60.2,25.4c-3.6-14.2-9.6-27.7-17.8-39.9C-124.1-107.4-125.7-107-127.3-106.7z"/>
	<g id="Group_778_23_" transform="translate(0.234 5.211)">
		<path class="st3" d="M-119.4-106.2l3.7,9c-1.3-2.4-3-4.4-5.2-5.9c3.9,5.6,6.5,11.9,7.7,18.6c-2.6-2.9-5.5-5.4-8.7-7.5
			c3.1,3.2,5.9,6.8,8.2,10.6c-3.8-0.6-7.4-1.9-10.6-3.9c0.3,0.4,0.7,0.8,1,1.3c-6.1-1.8-11.9-4.6-17.1-8.2l5.1,1.1
			c-7.3-3.4-13.6-8.6-18.4-15.1c-0.2,0.1-0.5,0.1-0.7,0.2c1.3,3.8,3.6,7.2,6.5,9.9c-4.2-2.5-8.2-5.3-11.9-8.5
			c-3.3,0.9-6.6,1.9-9.8,3c1.4,1.1,2.9,2.2,4.4,3.1c18.4,11.8,39.4,18.7,60.2,25.4c-2.9-11.5-7.4-22.5-13.3-32.7
			C-118.7-106-119-106.1-119.4-106.2z"/>
		<path id="Path_14620_14_" class="st3" d="M-128.1-88.2c1.5,0.7,2.8,1.6,3.8,2.9C-125.6-86.1-126.9-87.1-128.1-88.2z"/>
	</g>
	<path class="st4" d="M-122.4-104.8c-0.6-0.9-1.2-1.8-1.8-2.6c-0.2,0-0.3,0.1-0.5,0.1C-123.8-106.5-123.1-105.7-122.4-104.8z"/>
	<path class="st4" d="M-122.9-100.1c-1.6-2.2-3.4-4.4-5.4-6.3c-1,0.2-2.1,0.4-3.2,0.7L-122.9-100.1z"/>
	<path class="st4" d="M-146.8-102.6c-0.7,0.2-1.4,0.3-2,0.5c2.2,3.2,4.7,6.1,8.1,7.9c-1.2-3-2.8-5.9-4.4-8.8
		C-145.7-102.8-146.2-102.7-146.8-102.6z"/>
	<path class="st4" d="M-120.9-89.8c-1.1-2.9-2.7-5.5-4.7-7.9c-2.3-2.6-4.4-5.3-6.4-8.1c-2.8,0.6-5.7,1.2-8.5,1.8c2,3,3.8,6.1,6,9
		c2.4,3.4,5.7,6.1,9.6,7.8c-2.6-2.1-4.7-4.6-6.2-7.5c1.7,1.4,3.7,2.4,5.8,3.1c2.1,0.7,3.9,2.1,5.1,4
		C-120.4-88.3-120.7-89.1-120.9-89.8"/>
	<path class="st1" d="M-135.6-105c-0.7,0.2-1.5,0.3-2.2,0.5c0.7,1.1,1.5,2.1,2.3,3c1.2,1,2.4,2,3.8,2.9c1.9,1.4,3.6,3.2,5,5.2
		c-1.9-3.4-4.3-6.5-7.1-9.2C-134.4-103.4-135-104.2-135.6-105z"/>
	<path class="st5" d="M-110.3-71.3c-3-0.7-5.5-1.7-8.1-2.6c-14.3-4.7-28.1-10.9-41-18.6c-2.6-1.4-5.1-3-7.4-4.8
		c-1.2,0.4-2.3,0.8-3.5,1.2c2.5,1.9,5.2,3.7,7.9,5.4c9.6,5.4,19.7,9.8,30.2,13.3l26.8,9.8c0.5,0.2,1.4,0.4,1.4-0.1
		c0-1.7-1.5-3.6-2.4-6.1C-106.3-70.1-108.2-70.8-110.3-71.3z"/>
</g>
<g id="Group_779_22_" transform="translate(162.858 159.941)">
	<path class="st2" d="M6.9-166.3c-6.6-3-13.7-4.5-21-4.3c0,0,0,0-0.1,0c0.2,1.4,0.3,2.9,0.5,4.3c1.3,12.4,2.3,24.9,2.7,37.4
		c1,0.4,2,0.8,3,1.2c7.1,2.7,15.4,4.7,22.1,1.1C29.9-134.9,19-159.9,6.9-166.3z"/>
	<g id="Group_778_22_" transform="translate(0.234 5.211)">
		<path class="st3" d="M-6.5-146.6c-1.8,0.1-3.5,0-5.3-0.1c0,0.5,0.1,1,0.1,1.5C-10-145.5-8.2-146-6.5-146.6z"/>
		<path class="st3" d="M20.9-140.1c-0.9,0.6-1.8,1.3-2.6,1.8c-2.5,1.6-5.4,2.4-8.4,2.2c2.4,0,4.5-1.4,5.6-3.4
			c-6,2-12.5,2.4-18.8,1.1l3.1-1.1c-3.9-0.6-7.7-1.5-11.5-2.6c0.1,2.7,0.2,5.4,0.3,8.1c1,0.4,2,0.8,3,1.2c7.1,2.7,15.4,4.7,22.1,1.1
			C17.2-133.4,19.8-136.5,20.9-140.1z"/>
	</g>
	<path class="st4" d="M17.2-144c-0.8-0.1-1.6-0.2-2.4-0.4c-0.6-0.1-1.7-0.7-2.3-0.6l4.2-0.7c-2-2.3-4.6-3.8-7.5-4.5
		c2.3-0.5,4.5-1.3,6.6-2.4c-5.5-2.6-11.9-2.9-17.2-5.8c3.7-1.3,7.8-1.4,11.6-0.3c-2.3-3-5.4-5.3-9-6.5c-3.6-1.2-7.2-2.1-11-2.6
		c-1.4-0.3-2.8-0.6-4.1-0.8c0.1,0.5,0.1,1,0.2,1.5c2.6,0.9,5.2,2,7.6,3.4c0.8,0.4,1.6,0.8,2.4,1.4c-1.9,0.2-3.8,0-5.5-0.8
		c-1.4-0.4-2.7-0.8-4.1-1.1c0.4,3.4,0.7,6.9,1,10.3c0.1,0,0.1,0,0.2,0c5.8,0,11.6,0.9,17.1,2.9c-5.6,0.7-11.3,0.9-17,1.5
		c0.1,1.1,0.2,2.3,0.2,3.4c5.3,0,10.8-0.8,15.9,0.6c0.3,0.1,0.8,0.4,0.6,0.7c-0.1,0.1-0.2,0.2-0.3,0.3c-1.1,0.6-2.2,1.1-3.4,1.6
		c1.2,0.4,2.4,0.5,3.6,0.5c-1.7,0.7-3.6,1.3-5.4,1.7c3.7,0.6,7.5,0.9,11.3,0.7c2.6-0.2,7-0.8,8.8-3C20.5-144.3,18.2-143.9,17.2-144z
		"/>
	<path class="st1" d="M-12.7-156.3c6.2-0.1,12.3,1.1,18,3.3c-1.9-1.5-4-2.7-6.2-3.7c-3.8-1.5-7.9-1.6-12-1.6
		C-12.8-157.6-12.8-156.9-12.7-156.3z"/>
	<path id="Path_14623_13_" class="st1" d="M8.2-146.6c-4.1-1.1-8.4-1.5-12.6-1.2L1-149c1-0.3,2.1-0.4,3.2-0.3
		c0.7,0.2,1.5,0.4,2.2,0.7c2.5,1,5.2,1.7,7.9,2.2C12.2-146.2,10.1-146.3,8.2-146.6z"/>
	<path id="Path_14624_13_" class="st1" d="M2.9-162.4c-0.7,0-1.5,0.1-2.2,0.1c-2.1-0.4-4-1.4-5.5-2.7c-1.7-1.1-3.7-1.7-5.8-1.9
		c1.9-0.1,3.8,0.2,5.7,0.8c1.3,0.4,2.5,1,3.9,1.3c1.3,0.2,2.5,0.4,3.7,0.7c2.1,0.9,3.8,2.4,5.1,4.3C6.4-161.2,4.7-162,2.9-162.4z"/>
	<path class="st1" d="M-13.3-162.4c0.3,0.1,0.5,0.2,0.8,0.3c1.1,0.5,2.2,1.2,3.3,1.6c1.5,0.6,3.2,0.8,4.8,0.8
		c1.2,0.1,3.2,0.7,4.1-0.3c-2.9,0.1-5.9-0.3-8.6-1.3c-1.2-0.4-2.3-0.9-3.5-1.3c-0.3-0.1-0.6-0.2-0.9-0.3
		C-13.3-162.7-13.3-162.5-13.3-162.4z"/>
	<path id="Path_14626_13_" class="st1" d="M12.7-141.7c-0.6,0-1.2-0.2-1.8-0.3c-1.8-0.1-3.7,0.1-5.4,0.5c1.2-0.9,2.6-1.7,4.1-2.1
		c0.5,0,1,0,1.5,0.1c2.2,0.3,4.5,0.4,6.7,0.8C16.1-142.1,14.4-141.8,12.7-141.7z"/>
	<path class="st5" d="M20.5-133.2c-0.7,1.5-1.7,2.8-2.9,3.9c-4.2,3.6-10.5,2.7-14,2.4c-5.1-0.7-10.1-2.2-14.8-4.3
		c0,1.1,0.1,2.2,0.1,3.3c3.8,1.5,7.7,2.8,11.6,3.8c2.8,0.8,5.7,1.2,8.7,0.9C14.7-124,19-127.9,20.5-133.2z"/>
</g>
<g id="Group_779_21_" transform="translate(162.858 159.941)">
	<path class="st2" d="M-35.7-144.3c-6-10.5-12.5-20.8-19.3-30.8c-14.6,7.5-27.5,17.8-38.2,30.2c19.8,3,39.8,6,59.7,4.6
		C-34.2-141.7-34.9-143-35.7-144.3z"/>
	<g id="Group_778_21_" transform="translate(0.234 5.211)">
		<path class="st3" d="M-35.9-149.5c-0.5-1-1.1-1.9-1.7-2.9c-2.4,0.4-4.7,0.6-7.1,0.8c2.1-0.6,4.2-1.5,6-2.7c-0.3-0.6-0.7-1.1-1-1.7
			c-5.9,2.2-12.2,3.4-18.5,3.2l5,1.3c-6.3,0.9-12.7,0.8-19-0.3c0.5-0.3,0.9-0.5,1.4-0.7c-3.8,0.4-7.6,0-11.2-1.2
			c3.8-2.4,7.9-4.4,12.1-5.9c-3.8,0.5-7.5,1.4-11.1,2.8c4.1-5.4,9.2-10,15.2-13.2c-2.6,0.4-5.1,1.5-7.3,3l7.3-6.4
			c-0.4-0.1-0.7-0.2-1.1-0.2c-9.9,6.5-18.8,14.4-26.5,23.4c19.8,3,39.8,6,59.7,4.6C-34.4-146.9-35.2-148.2-35.9-149.5z"/>
		<path id="Path_14620_13_" class="st3" d="M-70.8-152.5c1.5-0.6,3.1-0.9,4.7-0.8C-67.6-152.9-69.2-152.6-70.8-152.5z"/>
	</g>
	<path class="st4" d="M-54-173.7c-2.4,1-4.8,2.2-7,3.5c2.5-1.1,5-2,7.7-2.6C-53.5-173-53.7-173.3-54-173.7z"/>
	<path class="st4" d="M-51.6-170.1c-3.8,1.1-7.4,2.6-10.9,4.4l11.6-1.5c-3.4,1.8-6.8,3.5-10.3,4.9c-3.5,1.5-6.7,3.7-9.3,6.6
		c1.9-1.1,4.2-1.6,6.4-1.3c2.2,0.3,4.4,0.2,6.6-0.2c-2.7,1.9-5.7,3.3-8.9,4c4.2,0.3,8.4-0.6,12-2.7c3-1.5,5.9-3.4,8.8-5.1
		C-47.6-164-49.6-167.1-51.6-170.1z"/>
	<path class="st4" d="M-43.3-157c-2.1,1.4-4.1,3-6,4.6c2.7-0.1,5.2-0.9,7.7-2C-42.2-155.3-42.7-156.1-43.3-157z"/>
	<path class="st1" d="M-48.2-164.8c-1.2,0.6-2.3,1.1-3.5,1.7c-3.7,1.2-7.3,2.9-10.5,5.1c2.1-1.1,4.4-2,6.8-2.4
		c1.6-0.2,3.1-0.5,4.6-0.9c1.3-0.5,2.5-1,3.6-1.7c0,0,0,0,0,0C-47.4-163.7-47.8-164.3-48.2-164.8z"/>
	<path class="st1" d="M-51-169.1c-1.3,0.4-2.5,0.9-3.7,1.6l3.1-1c0.3-0.1,0.5-0.2,0.8-0.3C-50.8-168.9-50.9-169-51-169.1z"/>
	<path class="st5" d="M-34.6-142.5c-14.6,1-29.2,0.4-43.7-1.7c-2.7-0.4-5.4-0.6-8.4-1.3c-2.1-0.5-4.1-0.8-2.4-4
		c-1.9,1.8-4.1,2.9-4.8,4.4c-0.2,0.5,0.7,0.7,1.2,0.8l28.4,3.1c10.3,1.5,20.8,2,31.2,1.6C-33.6-140.6-34.1-141.5-34.6-142.5z"/>
</g>
<g id="Group_779_20_" transform="translate(162.858 159.941)">
	<path class="st2" d="M-18.6-101.9c-7.1,1.5-13.7,4.6-19.4,9.1c-2.1,1.5-4.2,3.1-6.3,4.8c0,0,0.1,0.1,0.1,0.1c3.2,3,6.4,6.1,9.9,8.8
		c3,2.3,6.1,4.6,9,7c3.1,2.5,6.1,5.1,8.6,8.2c0.9,1.1,1.7,2.3,2.4,3.5c2.2-0.5,4.5-1,6.7-1.7c7.3-2.1,15.1-5.4,18.4-12.2
		C18.6-90.5-5.1-104.1-18.6-101.9z"/>
	<g id="Group_778_20_" transform="translate(0.234 5.211)">
		<path class="st3" d="M-14.6-79.4c-2.3,1.9-4.8,3.5-7.4,4.9c0.6,0.5,1.1,1,1.6,1.5C-18.1-74.7-16.1-76.9-14.6-79.4z"/>
		<path class="st3" d="M11.4-90.5c-0.3,1-0.6,2.1-1,3c-1,2.8-3,5.1-5.4,6.8c1.9-1.4,2.8-3.8,2.4-6.1C3.7-81.6-1.2-77.5-7-74.8
			l1.8-2.7c-4.4,2.4-9.1,4.3-13.9,5.8c0.8,0.8,1.5,1.7,2.2,2.5c0.9,1.1,1.7,2.3,2.4,3.6c2.2-0.5,4.5-1,6.7-1.7
			c7.3-2.1,15.1-5.4,18.4-12.2C12.4-82.9,12.6-86.9,11.4-90.5z"/>
	</g>
	<path class="st4" d="M3.1-90.2c-0.7,0.4-1.4,0.8-2.2,1.2c-0.5,0.2-1.8,0.4-2.2,0.8l2.9-3.1c-2.9-0.7-6-0.3-8.7,0.9
		c1.5-1.8,2.8-3.7,3.8-5.9c-5.9,1.2-11.3,4.8-17.2,5.6c2.2-3.3,5.4-5.8,9.1-7.1c-3.6-1.1-7.5-1-11.1,0.2c-3.6,1.2-7,2.7-10.3,4.5
		c-3.7,1.6-7.2,3.6-10.3,6.1c0.1,0.1,0.1,0.1,0.2,0.2c4.7-2.8,10-4.6,15.4-5.2c0.9-0.2,1.8-0.3,2.7-0.3c-1.4,1.3-3,2.2-4.9,2.7
		c-3.8,1.3-7.4,3.1-10.8,5.1c0.5,0.5,1.1,1,1.6,1.5l4.4-1.3c-1,0.8-2.1,1.6-3.2,2.4c1.1,1,2.3,1.9,3.5,2.9c1,0.8,2.1,1.6,3.1,2.4
		c1.5-1.3,3-2.5,4.6-3.7c4.7-3.5,9.9-6.2,15.5-7.9c-5.2,5-11.1,9.5-16.1,14.6c0.7,0.5,1.3,1,1.9,1.5c0,0,0.1,0.1,0.1,0.1
		c5.8-3.2,10.5-8.9,16.7-11.3c0.3-0.1,0.8-0.2,0.9,0.2c0,0.1,0,0.3-0.1,0.4c-0.5,1.1-1.1,2.2-1.8,3.3c1.2-0.4,2.2-1,3.2-1.8
		c-1,1.6-2.1,3.2-3.3,4.6c3.4-1.7,6.6-3.8,9.5-6.2c1.9-1.7,5.1-4.8,5.3-7.6C5.4-92.5,3.9-90.8,3.1-90.2z"/>
	<path class="st1" d="M-34.2-79.2c0.2,0.2,0.5,0.4,0.7,0.6c0,0,0.1,0,0.1,0c1.2-0.7,2.3-1.4,3.3-2.3c5.3-4.4,11.5-7.6,18.2-9.4
		c-2.4-0.1-4.8,0.2-7.2,0.7c-5.9,1.5-10.4,6-15.5,9.3c-0.2,0.1-0.4,0.2-0.6,0.3C-34.8-79.7-34.5-79.4-34.2-79.2z"/>
	<path id="Path_14623_12_" class="st1" d="M-5.8-87c-3.9,1.6-7.6,3.8-10.9,6.5l3.7-4.1c0.7-0.8,1.5-1.6,2.4-2.1
		c0.7-0.3,1.4-0.6,2.2-0.7c2.6-0.7,5.2-1.7,7.6-3C-2.4-89-4-87.9-5.8-87z"/>
	<path id="Path_14624_12_" class="st1" d="M-19.4-96.5c-0.6,0.4-1.1,1-1.7,1.4c-1.9,0.9-4,1.3-6.1,1.1c-2,0.2-4,0.8-5.8,1.9
		c1.5-1.2,3.2-2.1,5-2.8c1.3-0.4,2.6-0.7,3.9-1.3c1.1-0.6,2.2-1.2,3.4-1.7c2.2-0.5,4.5-0.4,6.6,0.4C-15.9-97.6-17.8-97.3-19.4-96.5z
		"/>
	<path id="Path_14625_8_" class="st1" d="M-28-87.7c-1.2,0.3-2.4,0.4-3.6,0.7c-1.3,0.4-2.5,0.9-3.6,1.5l-2.9,1.5
		c1.9-1.5,4-2.6,6.3-3.4c1.2-0.4,2.4-0.6,3.6-1c2.8-0.9,5.4-2.3,7.7-4.1c-0.1,1.3-2.1,2.1-3.1,2.7C-25-89-26.5-88.2-28-87.7z"/>
	<path id="Path_14626_12_" class="st1" d="M0.8-85.7c-0.5,0.3-1.1,0.6-1.6,0.9c-1.6,1-2.9,2.2-4,3.7c0.4-1.5,1.1-2.9,2.1-4.2
		c0.4-0.3,0.8-0.6,1.2-0.8c1.9-1.1,3.9-2.3,5.9-3.3C3.3-88,2.1-86.8,0.8-85.7z"/>
	<path class="st5" d="M12.1-83.5c0.3,1.6,0.3,3.3,0.1,4.9c-1.3,5.4-6.8,8.4-9.8,10.2c-4.8,2.6-10,4.5-15.4,5.5
		c-0.8,0.2-1.6,0.4-2.4,0.5c0.6,0.8,1.1,1.7,1.6,2.7c1.1-0.2,2.1-0.4,3.2-0.6c4.2-1,8.3-2.4,12.2-4c2.7-1,5.3-2.5,7.5-4.4
		C12.9-72.7,14.1-78.4,12.1-83.5z"/>
</g>
<g id="Group_779_19_" transform="translate(162.858 159.941)">
	<path class="st2" d="M-26.4-52.6c-6.1-4.3-13-7.1-19.6-10.4c-3.7-1.8-7.2-4-10.7-6.2c-8.5,10.8-15.1,23-19.7,35.9
		c18.4-4.1,37-8.3,54.2-15.9C-23.5-50.5-25.1-51.6-26.4-52.6z"/>
	<g id="Group_778_19_" transform="translate(0.234 5.211)">
		<path class="st3" d="M-26.7-57.8c-0.6-0.4-1.2-0.8-1.8-1.2c-1.1,0.6-2.2,1.1-3.3,1.6c0.9-0.7,1.7-1.4,2.5-2.2
			c-0.7-0.5-1.5-0.9-2.2-1.3c-4,3.1-8.5,5.6-13.3,7.3l5.1-0.6c-5.6,3.1-11.6,5.3-17.8,6.6c0.3-0.4,0.7-0.8,1.1-1.2
			c-3.4,1.7-7.1,2.7-10.9,2.9c2.7-3.6,5.7-6.9,9.2-9.8c-3.4,1.8-6.5,4.1-9.3,6.7c1.8-6.5,5-12.6,9.4-17.8c-2.3,1.3-4.3,3.2-5.7,5.4
			l4.5-8.7c-0.4,0-0.7,0.1-1.1,0.2c-6.9,9.6-12.3,20.2-16.3,31.4c18.4-4.1,37-8.3,54.2-15.8C-23.8-55.7-25.3-56.8-26.7-57.8z"/>
		<path id="Path_14620_12_" class="st3" d="M-56.4-48.8c1.2-1.1,2.6-2,4.1-2.5C-53.6-50.4-55-49.6-56.4-48.8z"/>
	</g>
	<path class="st4" d="M-51.3-65.9c-0.4-0.3-0.9-0.5-1.3-0.8c-1,1-1.9,1.9-2.8,3L-51.3-65.9z"/>
	<path class="st4" d="M-46.1-63c-1.1-0.5-2.1-1.1-3.2-1.7c-1.2,1.3-2.5,2.5-3.8,3.8c-2.8,2.7-4.9,5.9-6.3,9.5c1.4-1.7,3.3-3,5.5-3.5
		c2.1-0.5,4.2-1.4,6-2.6c-1.8,2.8-4.1,5.1-6.9,6.9c4-1.2,7.6-3.6,10.3-6.8c1-1.1,1.9-2.2,2.9-3.4C-43.1-61.6-44.6-62.3-46.1-63z"/>
	<path class="st4" d="M-36.8-58.6c-0.5,0.8-1,1.7-1.4,2.5c1.1-0.5,2.1-1,3-1.7C-35.7-58.1-36.3-58.3-36.8-58.6z"/>
	<path class="st1" d="M-46.1-63c-0.2-0.1-0.3-0.2-0.5-0.3c-2.1,2-4,4.2-5.7,6.6c1.6-1.8,3.4-3.4,5.5-4.7c0.6-0.3,1.3-0.7,1.9-1.1
		C-45.3-62.7-45.7-62.8-46.1-63z"/>
	<path class="st5" d="M-24-50.7c-12.3,5.5-25.2,9.8-38.3,12.8c-2.7,0.6-5.3,1.4-8.3,1.8c-2.1,0.3-4.1,0.8-3.7-2.9
		c-1.1,2.4-2.7,4.2-2.9,5.9c0,0.5,0.9,0.4,1.4,0.3l27.6-7.3c9-2.1,17.8-4.9,26.3-8.4C-22.5-49.4-23.2-50.1-24-50.7z"/>
</g>
<g id="Group_779_18_" transform="translate(162.858 159.941)">
	<path class="st2" d="M-65.7-6.1c-6.5,1.3-13,2.7-19.5,4.2c-8.5,2-16.9,4.2-25.2,7.2c-1.3,0.5-2.5,0.9-3.8,1.4
		c2.2,1.7,4.5,3.1,6.9,4.4c19.2,10.5,40.7,15.8,61.9,21C-49.9,18.3-56.8,5.4-65.7-6.1z"/>
	<g id="Group_778_18_" transform="translate(0.234 5.211)">
		<path class="st3" d="M-61.2-4.8C-61.5-4.9-61.9-5-62.3-5l4.3,8.7c-1.4-2.3-3.3-4.2-5.6-5.6c4.2,5.3,7.3,11.4,9,18
			c-2.8-2.7-5.9-5-9.2-6.9c3.3,3,6.3,6.4,8.9,10c-3.8-0.3-7.5-1.4-10.8-3.2c0.4,0.4,0.7,0.8,1,1.2c-6.2-1.4-12.2-3.7-17.7-6.9
			l5.1,0.7C-85.3,8-92.4,2.8-97.8-4c0,0-0.1,0-0.1,0c1.5,4.3,4.3,8.2,7.9,11c-5.1-2.5-10-5.6-14.5-9.1c-2,0.6-4.1,1.3-6.1,2.1
			c-1.3,0.5-2.5,0.9-3.8,1.4c2.2,1.7,4.6,3.2,6.9,4.5c19.2,10.5,40.7,15.8,61.9,21C-49.3,15.7-54.5,5-61.2-4.8z"/>
		<path id="Path_14620_11_" class="st3" d="M-69.7,13.6c1.5,0.6,2.9,1.4,4,2.6C-67.1,15.4-68.4,14.6-69.7,13.6z"/>
	</g>
	<path class="st4" d="M-75.3-4.1l9.5,5.4c-1.9-2.2-3.9-4.2-6-6.1C-72.9-4.6-74.1-4.4-75.3-4.1z"/>
	<path class="st4" d="M-65.5-3.4c-0.6-0.8-1.2-1.6-1.9-2.4c-0.2,0-0.3,0.1-0.5,0.1C-67-4.9-66.3-4.2-65.5-3.4z"/>
	<path class="st4" d="M-62.2,13.6c-1.3-3.6-3.4-6.9-6.1-9.6c-2.6-2.6-5-5.2-7.3-8c-2.9,0.6-5.8,1.2-8.7,1.9c2.5,3.1,4.7,6.5,7.4,9.5
		c2.6,3.3,6.1,5.7,10.1,7c-2.7-1.9-5-4.3-6.7-7.1c1.8,1.2,3.8,2.2,6,2.7C-65.4,10.6-63.5,11.8-62.2,13.6z"/>
	<path class="st4" d="M-88.9-1.1c-1.3,0.3-2.5,0.6-3.8,0.9c2.8,3.5,5.6,6.9,9.7,8.7C-84.8,5.2-86.8,2-88.9-1.1z"/>
	<path class="st1" d="M-79.3-3.3c-0.7,0.2-1.5,0.3-2.2,0.5c0.2,0.2,0.3,0.4,0.5,0.6c0.8,1.1,1.7,2.1,2.7,3c1.3,0.9,2.6,1.8,3.9,2.6
		c2,1.3,3.8,2.9,5.4,4.8c-2.2-3.2-4.8-6.2-7.8-8.7C-77.7-1.4-78.5-2.3-79.3-3.3z"/>
	<path class="st5" d="M-47.4,26.4c0.4,3.7-1.6,3.2-3.7,2.8c-3-0.5-5.6-1.3-8.3-2c-14.6-3.7-28.8-8.9-42.3-15.7
		c-3.5-1.6-6.9-3.5-10-5.8c-1.2,0.4-2.4,0.9-3.5,1.4c3.4,2.4,6.9,4.5,10.6,6.4c10,4.7,20.4,8.4,31,11.1l27.5,7.9
		c0.5,0.1,1.5,0.3,1.4-0.2C-44.7,30.6-46.4,28.8-47.4,26.4z"/>
</g>
<g id="Group_779_17_" transform="translate(162.858 159.941)">
	<path class="st2" d="M-128.9,6.3c1.8-2.6,3.7-5.1,5.7-7.5c8.7-10.6,18.6-20.1,28.5-29.6c-1.7-0.6-3.3-1.1-5-1.6
		c-6.8-2.4-14.1-3.1-21.3-2.2c-13.4,2.4-31.3,23-18.8,35.8C-136.8,4.1-133,5.6-128.9,6.3z"/>
	<g id="Group_778_17_" transform="translate(0.234 5.211)">
		<path class="st3" d="M-129.1,1.1c1.7-2.3,3.4-4.6,5.2-6.8c-5.5-0.9-10.8-3.1-15.3-6.4c0.4,2.3,2.1,4.2,4.3,4.9
			c-2.9-0.7-5.5-2.3-7.4-4.6c-0.6-0.7-1.2-1.6-1.9-2.5c0,3.8,1.5,7.5,4.3,10.2C-137-1.1-133.2,0.4-129.1,1.1z"/>
	</g>
	<path class="st4" d="M-132.3-10.5c3.6,1.3,7.2,2.2,11,2.7c-1.7-0.9-3.2-2-4.7-3.3c1.1,0.4,2.4,0.7,3.6,0.6c-1-0.8-1.9-1.6-2.7-2.5
		c-0.1-0.1-0.2-0.2-0.2-0.4c0-0.3,0.5-0.5,0.8-0.5c3.5,0.1,7,1.2,10.3,2.4c0.9-1,1.9-2,2.8-2.9c-4.1-1.7-8.2-3.2-12.2-5.1
		c5.2-0.2,10.4,0.4,15.4,1.8c2.9-2.9,5.8-5.8,8.8-8.7c-2.3-0.3-4.7-0.4-7-0.5c-1.9,0.2-3.8-0.1-5.5-0.9c0.9-0.3,1.8-0.5,2.7-0.6
		c4.2-0.9,8.4-1.2,12.7-0.7c0.2-0.2,0.5-0.4,0.7-0.7c-2.8-0.8-5.7-1.2-8.7-1.5c-3.7-0.6-7.5-0.9-11.2-0.8c-3.8,0.1-7.5,1.3-10.5,3.5
		c4,0,7.8,1.3,11,3.7c-5.9,1.1-12.1-0.5-18.1,0.3c1.6,1.7,3.5,3.1,5.5,4.3c-3-0.3-6,0.4-8.5,2l3.8,2c-0.5-0.2-1.8,0-2.4-0.1
		c-0.8-0.1-1.6-0.2-2.4-0.4c-1-0.2-3-1.3-2.3,0.5C-138.8-13.4-134.7-11.5-132.3-10.5z"/>
	<path class="st1" d="M-104.7-21.1c-3.9-1.2-7.8-2.3-11.8-2c-2.4,0.2-4.8,0.8-7,1.6c5.8-0.4,11.7,0.2,17.2,1.9
		C-105.7-20.1-105.2-20.6-104.7-21.1z"/>
	<path id="Path_14623_11_" class="st1" d="M-133.9-17.8c2.7,0.4,5.4,0.5,8.1,0.3c0.8-0.1,1.5-0.1,2.3,0c1,0.2,2,0.6,3,1.2l4.8,2.7
		c-4-1.5-8.1-2.4-12.4-2.6C-130.1-16.6-132-17.1-133.9-17.8z"/>
	<path id="Path_14624_11_" class="st1" d="M-123.7-28.8c1.7-1.4,3.9-2.3,6.1-2.6c1.3,0.1,2.5,0.2,3.8,0.5c1.3,0.1,2.7-0.1,4.1-0.1
		c1.9,0,3.8,0.3,5.7,1c-2-0.4-4.1-0.4-6.1,0.1c-1.9,0.8-4,1.2-6.1,1c-0.7-0.2-1.4-0.6-2.1-0.8C-120.2-29.9-122-29.6-123.7-28.8z"/>
	<path class="st1" d="M-112.2-24.9c1.6,0.5,3.2,0.7,4.8,0.6c1.2-0.1,2.4-0.4,3.6-0.6c0.9,0,1.9,0,2.8,0.1c0.1-0.1,0.2-0.2,0.4-0.3
		c-1-0.1-2.1-0.2-3.1-0.2c-1.3,0-2.5,0.2-3.8,0.2c-2.9,0.1-5.9-0.4-8.6-1.4C-115.5-25.3-113.3-25.2-112.2-24.9z"/>
	<path id="Path_14626_11_" class="st1" d="M-138.4-15.3c2.2,0.3,4.5,0.8,6.7,1.2c0.5,0.1,1,0.2,1.4,0.4c1.3,0.9,2.4,2,3.3,3.2
		c-1.5-1-3.2-1.7-5-2.2c-0.6-0.1-1.2-0.1-1.8-0.3C-135.5-13.5-137-14.3-138.4-15.3z"/>
	<path class="st5" d="M-129.6,7.4c0.7-1.1,1.5-2.1,2.3-3.1c-0.8-0.1-1.5-0.2-2.3-0.3c-3.5-0.7-9.7-1.8-12.6-6.4
		c-0.8-1.4-1.3-3-1.6-4.6c-0.2,5.5,2.8,10.5,7.7,12.9C-134.1,6.6-131.9,7.1-129.6,7.4z"/>
</g>
<g id="Group_779_16_" transform="translate(162.858 159.941)">
	<path class="st2" d="M24.8-16.7c-3.2-0.6-6.4-1.2-9.5-2c-3-0.7-6-1.5-9-2.3c-4-1-7.9-2.1-11.9-2.9C-11.2-12.4-15-0.1-16.8,12.6
		C1,4.7,19-3.3,34.8-14.6C31.5-15.4,28.1-16.1,24.8-16.7z"/>
	<g id="Group_778_16_" transform="translate(0.234 5.211)">
		<path class="st3" d="M25.7-21.7c-0.8,0.6-1.5,1.2-2.3,1.7c0.5-0.6,1-1.2,1.5-1.9c-0.1,0-0.2,0-0.3-0.1c-0.8-0.2-1.7-0.3-2.5-0.5
			c-3.1,3.4-6.7,6.3-10.7,8.7l4.9-1.6C11.4-11.2,5.9-7.8,0.1-5.4c0.2-0.5,0.5-0.9,0.8-1.4c-3,2.3-6.5,4-10.1,5
			C-7.3-5.8-5-9.6-2.2-13.2c-3,2.5-5.6,5.3-7.9,8.4c0.5-6.8,2.5-13.4,5.7-19.3c-2,1.8-3.6,4-4.6,6.4l2.8-9.4c-0.4,0.1-0.7,0.3-1,0.5
			C-12-15.8-15.3-4.4-17,7.4C0.8-0.5,18.8-8.5,34.6-19.8C31.6-20.5,28.6-21.1,25.7-21.7z"/>
		<path id="Path_14620_7_" class="st3" d="M0.9-6.7C1.8-8.1,3-9.2,4.4-10C3.3-8.8,2.1-7.7,0.9-6.7z"/>
	</g>
	<path class="st4" d="M6.2-21c-1.2-0.3-2.3-0.6-3.5-0.9c-0.6,0.9-1.2,1.9-1.9,2.8C-1.3-16-2.8-12.4-3.4-8.6c1-2,2.7-3.5,4.7-4.5
		c2-0.9,3.8-2.2,5.4-3.7c-1.2,3-3.1,5.8-5.4,8.1c3.7-2,6.7-5,8.7-8.7c0.5-0.8,0.9-1.5,1.3-2.3C9.6-20.1,7.9-20.6,6.2-21z"/>
	<path class="st1" d="M6.2-21c-0.2,0-0.4-0.1-0.6-0.1c-1.3,1.9-2.4,3.9-3.3,6c1.2-2.1,2.7-4,4.4-5.7c0,0,0,0,0.1,0
		C6.7-20.9,6.5-21,6.2-21z"/>
	<path class="st5" d="M32-15.2C20.8-7.2,8.8-0.3-3.8,5.3c-2.5,1.1-4.9,2.4-7.8,3.4c-2,0.7-3.9,1.6-4.2-2.2c-0.6,2.5-1.9,4.6-1.7,6.3
		c0.1,0.5,1,0.2,1.4,0L9.6,0.3c9.1-4.1,17.9-9,26.2-14.6C34.5-14.7,33.2-14.9,32-15.2z"/>
</g>
<g id="Group_779_15_" transform="translate(162.858 159.941)">
	<path class="st2" d="M33.6-41.6c1.7,2.5,3.5,5.1,5.3,7.6c2.1,2.8,4.4,5.5,6.6,8.3c1.9,2.4,3.7,4.9,5.6,7.4c1.5,0.1,2.9,0.2,4.4,0.2
		c7.6,0.2,16.1-0.6,21.2-6.1c12.2-13.1-6.3-33.2-19.8-35.2c-7.2-0.7-14.5,0.3-21.2,2.8c-3.4,1.1-6.8,2.4-10.1,3.8
		C28.4-49.2,31-45.4,33.6-41.6z"/>
	<g id="Group_778_15_" transform="translate(0.234 5.211)">
		<path class="st3" d="M44.2-32.3c3-1,5.7-2.6,8.1-4.6c-3.1,1.2-6.4,2.1-9.7,2.7C43.2-33.6,43.7-32.9,44.2-32.3z"/>
		<path class="st3" d="M45.3-30.9C45.3-30.9,45.3-30.9,45.3-30.9c1.9,2.4,3.8,4.9,5.6,7.4c1.5,0.1,2.9,0.2,4.4,0.2
			c7.6,0.2,16.1-0.6,21.2-6.1c2.7-2.7,4.1-6.5,4-10.3c-0.6,0.9-1.2,1.8-1.8,2.6c-1.8,2.3-4.4,4-7.2,4.8c2.2-0.8,3.8-2.8,4.2-5.1
			c-5.1,3.9-11.1,6.3-17.4,7.2l2.6-2C55.6-31.3,50.4-30.9,45.3-30.9z"/>
	</g>
	<path class="st4" d="M45.4-52.7c0.9,0.1,1.8,0.3,2.7,0.6c-1.7,0.8-3.6,1.2-5.4,1.1c-4.8,0.2-9.5,0.9-14.1,2.2
		c0.3,0.4,0.6,0.8,0.9,1.3l7,0.1c-1.8,0.7-3.7,1.3-5.6,1.9c0.9,1.3,1.8,2.7,2.8,4c0.7,1,1.4,2.1,2.2,3.1c2.4-1,4.7-2,7.1-2.9
		c5.5-2,11.3-2.9,17.1-2.9c-7,3.5-14.5,6.1-21.3,9.9c0.1,0.1,0.1,0.2,0.2,0.3c0.3,0.5,0.7,0.9,1.1,1.4c7.1-0.9,13.8-5.6,21.1-6.1
		c0.4,0,0.8,0.1,0.8,0.4c0,0.1-0.1,0.3-0.2,0.4c-0.8,0.9-1.7,1.8-2.7,2.6c1.2,0,2.4-0.3,3.6-0.8c-1.4,1.3-2.9,2.4-4.6,3.4
		c3.7-0.6,7.4-1.6,10.9-3c2.4-1,6.3-3.1,7.3-5.7c0.7-1.8-1.3-0.7-2.3-0.4c-0.8,0.2-1.6,0.4-2.4,0.4c-0.6,0.1-1.9-0.1-2.4,0.1
		l3.7-2.1c-2.6-1.5-5.6-2.1-8.6-1.7c2-1.2,3.8-2.7,5.4-4.4c-6-0.6-12.2,1.2-18.1,0.2c3.1-2.5,6.9-3.9,10.9-4
		c-3.1-2.1-6.9-3.2-10.6-3.2c-3.8,0-7.5,0.4-11.2,1.1c-4.7,0.5-9.4,1.7-13.8,3.6C32.9-53.6,39.3-53.9,45.4-52.7z"/>
	<path class="st1" d="M33.6-41.6C33.6-41.6,33.7-41.5,33.6-41.6c0.8,0.1,1.5,0,2.2-0.1c1.3-0.3,2.6-0.7,3.8-1.2
		c6.4-2.6,13.3-3.8,20.1-3.5c-2.3-0.8-4.6-1.3-7-1.4c-6.1-0.3-11.7,2.6-17.6,4.2c-0.9,0.1-1.7,0.3-2.5,0.5
		C32.9-42.6,33.3-42.1,33.6-41.6z"/>
	<path id="Path_14623_6_" class="st1" d="M64.5-41.3c-4.2,0.3-8.4,1.3-12.3,2.9l4.7-2.8c0.9-0.6,1.9-1,2.9-1.3
		c0.8-0.1,1.5-0.1,2.3,0c2.7,0.1,5.5,0,8.1-0.5C68.5-42.2,66.5-41.6,64.5-41.3z"/>
	<path id="Path_14624_6_" class="st1" d="M54.4-54.5c-0.7,0.2-1.4,0.6-2.1,0.8c-2.1,0.3-4.2,0-6.1-0.8c-2-0.5-4.1-0.4-6.1,0.1
		c1.8-0.7,3.7-1.1,5.6-1.1c1.4,0,2.7,0.1,4.1,0c1.2-0.3,2.5-0.4,3.7-0.6c2.3,0.2,4.4,1,6.2,2.4C58.1-54.5,56.2-54.7,54.4-54.5z"/>
	<path id="Path_14625_5_" class="st1" d="M43.6-48.8c-1.2,0-2.4-0.4-3.6-0.4c-1.3,0-2.6,0.1-3.9,0.3l-3.2,0.5c2.2-0.9,4.6-1.3,7-1.3
		c1.3,0,2.5,0.1,3.8,0.1c2.9,0,5.8-0.5,8.6-1.6c-0.5,1.2-2.7,1.3-3.8,1.7C46.8-49,45.2-48.7,43.6-48.8z"/>
	<path id="Path_14626_6_" class="st1" d="M70.4-38.1c-0.6,0.2-1.2,0.2-1.8,0.4c-1.8,0.5-3.5,1.2-5,2.3c0.9-1.3,2-2.4,3.2-3.3
		c0.5-0.2,0.9-0.3,1.4-0.4c2.2-0.5,4.4-1,6.6-1.4C73.5-39.6,72-38.8,70.4-38.1z"/>
	<path class="st5" d="M51.7-17.4c0.1,0,0.1,0,0.2,0c4.3,0.3,8.6,0.2,12.9-0.2c2.9-0.1,5.8-0.8,8.5-1.9c4.8-2.6,7.7-7.7,7.3-13.2
		c-0.2,1.6-0.7,3.2-1.4,4.7c-2.8,4.8-9,6-12.4,6.8c-5.4,1.1-10.9,1.3-16.3,0.7c-0.4,0-0.7-0.1-1.1-0.1
		C50.1-19.6,50.9-18.5,51.7-17.4z"/>
</g>
<ellipse transform="matrix(0.2271 -0.9739 0.9739 0.2271 -0.188 282.0999)" class="st0" cx="177.6" cy="141.2" rx="3.5" ry="21.2"/>
<ellipse transform="matrix(0.2271 -0.9739 0.9739 0.2271 -0.2267 282.0179)" class="st1" cx="177.6" cy="141.2" rx="1.7" ry="15.8"/>
<ellipse transform="matrix(0.9688 -0.2477 0.2477 0.9688 -13.9163 5.9544)" class="st0" cx="16.7" cy="58.3" rx="24.9" ry="4.5"/>
<ellipse transform="matrix(0.9688 -0.2477 0.2477 0.9688 -13.9241 5.9345)" class="st1" cx="16.6" cy="58.3" rx="18.6" ry="2.2"/>
<ellipse transform="matrix(0.8291 -0.5591 0.5591 0.8291 -35.488 134.093)" class="st0" cx="201.6" cy="125.1" rx="4.5" ry="22.6"/>
<ellipse transform="matrix(0.8291 -0.5591 0.5591 0.8291 -35.4594 134.0577)" class="st1" cx="201.5" cy="125" rx="2.2" ry="16.9"/>
<ellipse transform="matrix(0.9688 -0.2477 0.2477 0.9688 -37.4631 22.9959)" class="st0" cx="72.7" cy="160.4" rx="25.9" ry="4.5"/>
<ellipse transform="matrix(0.9688 -0.2477 0.2477 0.9688 -37.4713 22.9752)" class="st1" cx="72.6" cy="160.4" rx="19.4" ry="2.2"/>
<ellipse transform="matrix(0.8658 -0.5004 0.5004 0.8658 14.8654 59.6184)" class="st0" cx="118.6" cy="2.1" rx="4.5" ry="20.6"/>
<ellipse transform="matrix(0.8658 -0.5004 0.5004 0.8658 14.8914 59.5924)" class="st1" cx="118.5" cy="2" rx="2.2" ry="15.4"/>
</svg>
