<?xml version="1.0" encoding="utf-8"?>
<!-- Generator: Adobe Illustrator 25.2.1, SVG Export Plug-In . SVG Version: 6.00 Build 0)  -->
<svg version="1.1" id="Layer_3" xmlns="http://www.w3.org/2000/svg" xmlns:xlink="http://www.w3.org/1999/xlink" x="0px" y="0px"
	 viewBox="0 0 200 200" style="enable-background:new 0 0 200 200;" xml:space="preserve">
<style type="text/css">
	.st0{fill:#E09049;}
	.st1{fill:#BC6A46;}
	.st2{fill:#F2A149;}
	.st3{opacity:0.2;fill:#FFFFFF;enable-background:new    ;}
	.st4{fill:#A0573D;}
</style>
<g id="Group_779_2_" transform="translate(162.858 159.941)">
	<path id="Path_14618_2_" class="st0" d="M-90.3-127.4c6.3,3.5,11.7,8.4,15.8,14.4c10.4,13.6,17.9,29.2,22.1,45.8
		c-20.8-6.7-41.9-13.5-60.2-25.4c-6.4-4.1-12.9-9.6-14-17.1C-129.2-127.4-102.5-133.4-90.3-127.4z"/>
	<g id="Group_778_2_" transform="translate(0.234 5.211)">
		<path id="Path_14619_2_" class="st1" d="M-112.9-97.7c-6.4-4.1-12.9-9.6-14-17.1c-0.6-3.8,0.3-7.7,2.6-10.7c0,1.1,0,2.2,0,3.1
			c0.2,3,1.3,5.8,3.2,8.1c-1.4-1.9-1.6-4.4-0.5-6.5c2,6.1,5.5,11.5,10.2,15.8l-1-3.1c5,5,10.6,9.4,16.7,12.9
			c-3.5-3.2-6-7.3-7.2-11.9C-97.8-100-91-94.1-83-90.4l-5.1-1.1c5.3,3.6,11,6.4,17.1,8.2c-0.3-0.4-0.6-0.9-1-1.3
			c3.2,2,6.8,3.4,10.6,3.9c-2.3-3.8-5.1-7.4-8.2-10.6c3.2,2.1,6.1,4.7,8.7,7.5c-1.2-6.7-3.8-13-7.7-18.6c2.2,1.6,3.9,3.6,5.2,5.9
			l-3.7-9c0.4,0.1,0.7,0.2,1.1,0.3c5.9,10.2,10.4,21.3,13.3,32.7C-73.4-79.1-94.5-85.9-112.9-97.7z"/>
		<path id="Path_14620_2_" class="st1" d="M-75.7-87.4c1.5,0.7,2.8,1.6,3.8,2.9C-73.2-85.4-74.5-86.3-75.7-87.4z"/>
	</g>
	<path id="Path_14621_2_" class="st2" d="M-116.5-123.5c0.5-1.9,1.5,0.2,2.1,0.9c0.5,0.6,1.1,1.2,1.7,1.7c0.4,0.4,1.6,1,1.9,1.4
		l-1.9-3.8c3,0.2,5.8,1.5,8,3.5c-1-2.1-1.6-4.4-1.9-6.7c5.3,2.9,9.3,7.9,14.8,10.5c-1.1-3.8-3.5-7.1-6.6-9.5
		c3.8,0.1,7.5,1.2,10.6,3.4c3.1,2.2,5.9,4.6,8.6,7.3c3.6,3.1,6.8,6.7,9.3,10.8c-3.9-4.9-9-8.7-14.7-11.2c-0.8-0.5-1.6-0.8-2.5-1.1
		c0.9,1.6,2.2,3,3.9,4c4.9,3.7,9.2,8,12.8,12.9l-9.7-6.5c2.2,3.1,4.6,6.1,7.1,9c2.5,2.9,4.4,6.3,5.4,10c-1.2-1.9-3-3.2-5.1-4
		c-2.1-0.7-4.1-1.7-5.8-3.1c1.5,2.9,3.7,5.5,6.2,7.5c-3.9-1.6-7.2-4.3-9.6-7.8c-2.5-3.3-4.5-7-6.9-10.4c-3.4-4.7-7.6-8.8-12.5-12.1
		c4.3,7.8,9.8,15,13.2,23.3c-7.7-4.1-10.4-13.9-17.2-19.3c-0.3-0.2-0.7-0.4-0.9-0.1c-0.1,0.1-0.1,0.3,0,0.4c0.2,1.2,0.4,2.4,0.7,3.6
		c-1-0.7-1.8-1.6-2.5-2.7c0.4,1.9,1,3.7,1.8,5.4c-2.7-2.6-5.2-5.5-7.2-8.7C-115.1-116.9-117.2-120.9-116.5-123.5z"/>
	<path id="Path_14622_2_" class="st3" d="M-100.1-118.3c2.3,0.6,4.5,1.6,6.6,2.8c5.1,3.2,8.2,8.8,12.1,13.5c2.8,2.7,5.2,5.8,7.1,9.2
		c-1.4-2-3.1-3.7-5-5.2c-1.3-0.9-2.6-1.8-3.8-2.9c-0.9-1-1.7-2-2.5-3.2C-89.3-109.7-94.3-114.6-100.1-118.3z"/>
	<path id="Path_14623_2_" class="st3" d="M-110.6-121.5c1.9,1.9,4.1,3.6,6.4,5.1c0.7,0.4,1.3,0.8,1.8,1.3c0.7,0.8,1.3,1.7,1.7,2.7
		l2.3,5c-2.3-3.6-5.1-6.8-8.4-9.4C-108.3-118.2-109.6-119.8-110.6-121.5z"/>
	<path id="Path_14624_2_" class="st3" d="M-95.9-124.3c2.3-0.1,4.5,0.4,6.5,1.6c1,0.8,1.9,1.7,2.8,2.6c1,0.9,2.2,1.6,3.3,2.3
		c1.6,1.1,2.9,2.5,4,4.1c-1.4-1.5-3-2.8-4.9-3.5c-2-0.5-3.9-1.4-5.5-2.8c-0.5-0.6-0.7-1.3-1.2-1.9C-92.4-123.2-94.1-124-95.9-124.3z
		"/>
	<path id="Path_14625_2_" class="st3" d="M-89-114.4c-0.7-0.9-2.4-2.2-2.1-3.5c1.6,2.4,3.7,4.6,6.1,6.2c1,0.7,2.1,1.3,3.2,2.1
		c2,1.4,3.7,3.1,5,5.1l-2.3-2.2c-0.9-0.9-1.9-1.8-3-2.5c-1-0.6-2.2-1-3.3-1.7C-86.8-111.9-88-113.1-89-114.4z"/>
	<path id="Path_14626_2_" class="st3" d="M-115.8-122.2c1.6,1.6,3.1,3.3,4.6,4.9c0.4,0.4,0.7,0.7,0.9,1.2c0.5,1.5,0.8,3,0.7,4.6
		c-0.6-1.7-1.6-3.3-2.8-4.7c-0.4-0.4-0.9-0.8-1.3-1.3C-114.5-119-115.2-120.6-115.8-122.2z"/>
	<path id="Path_14627_2_" class="st4" d="M-126.5-114.2c0.2-1.6,0.7-3.2,1.5-4.6c-3.4,4.3-3.9,10.1-1.5,15c1.6,2.5,3.5,4.7,5.9,6.4
		c3.3,2.7,6.8,5.2,10.5,7.5c9.6,5.4,19.7,9.8,30.2,13.3l26.8,9.8c0.5,0.2,1.4,0.4,1.4-0.1c0-1.7-1.5-3.6-2.4-6.1
		c0.1,3.7-1.8,3.1-3.9,2.6c-3-0.7-5.5-1.7-8.1-2.6c-14.3-4.7-28.1-10.9-41-18.6c-4.8-2.6-9.2-5.9-13-9.8
		C-122.5-104.2-126.9-108.7-126.5-114.2z"/>
</g>
<g id="Group_779_3_" transform="translate(162.858 159.941)">
	<path id="Path_14618_3_" class="st0" d="M2.3-114.6c-4.3,6.2-12.6,8.3-20.1,9.1c-21.7,2.4-43.6-0.8-65.3-4.1
		c11.2-13,24.8-23.6,40.2-31.2c6.3-3.5,13.4-5.5,20.6-5.8C-8.7-146.6,12.5-129.3,2.3-114.6z"/>
	<g id="Group_778_3_" transform="translate(0.234 5.211)">
		<path id="Path_14619_3_" class="st1" d="M-83.3-114.8c7.7-9,16.6-16.8,26.5-23.4c0.4,0,0.7,0.1,1.1,0.2l-7.3,6.4
			c2.2-1.5,4.7-2.6,7.3-3c-5.9,3.3-11.1,7.8-15.2,13.2c3.6-1.4,7.3-2.4,11.1-2.8c-4.2,1.5-8.3,3.5-12.1,5.9
			c3.6,1.1,7.5,1.6,11.2,1.2c-0.5,0.2-1,0.4-1.4,0.7c6.3,1.1,12.7,1.2,19,0.3l-5-1.3c8.8,0.2,17.5-2,25.2-6.4
			c-3.1,3.6-7.2,6.2-11.7,7.5c7-0.4,14-1.8,20.7-4.1l-2.2,2.3c6.1-1.7,11.7-5,16.2-9.6c0,2.4-1.3,4.5-3.4,5.6c2.7-1.2,5-3.2,6.5-5.8
			c0.5-0.8,0.9-1.8,1.4-2.8c0.7,3.8-0.2,7.7-2.5,10.8c-4.3,6.2-12.6,8.3-20.1,9.1C-39.8-108.3-61.7-111.6-83.3-114.8z"/>
		<path id="Path_14620_3_" class="st1" d="M-60.6-117.2c1.5-0.6,3.1-0.9,4.7-0.8C-57.5-117.6-59-117.3-60.6-117.2z"/>
	</g>
	<path id="Path_14621_3_" class="st2" d="M-7-124.9c-3.3,1.9-6.7,3.4-10.4,4.6c1.5-1.2,2.8-2.5,4-4c-1.1,0.6-2.2,1-3.4,1.3
		c0.8-0.9,1.6-1.9,2.3-2.9c0.1-0.1,0.2-0.3,0.2-0.4c0-0.3-0.5-0.4-0.9-0.3c-8.5,1.8-15.3,9.4-24,9.7c6.7-5.9,14.8-9.9,22.1-15
		c-5.8,0.8-11.4,2.6-16.5,5.3c-3.7,1.9-7.1,4.3-10.8,6.2c-3.7,2-7.8,3-12,2.7c3.2-0.7,6.2-2.1,8.9-4c-2.2,0.5-4.4,0.5-6.6,0.2
		c-2.2-0.3-4.4,0.1-6.4,1.3c2.6-2.9,5.7-5.1,9.3-6.6c3.5-1.5,7-3.1,10.3-4.9l-11.6,1.5c5.4-2.8,11.2-4.8,17.2-5.9
		c1.9-0.2,3.7-0.8,5.2-1.9c-0.9-0.2-1.8-0.2-2.7-0.2c-6.3-0.3-12.5,0.9-18.2,3.5c4.1-2.5,8.5-4.4,13.1-5.5c3.6-1.2,7.2-2.2,10.9-2.7
		c3.7-0.6,7.6,0,11,1.6c-3.9,0.7-7.5,2.7-10.2,5.5c6.1,0.1,11.9-2.5,17.9-2.8c-1.3,1.9-2.9,3.7-4.7,5.2c2.9-0.8,6-0.6,8.7,0.5
		l-3.4,2.6c0.4-0.3,1.8-0.3,2.3-0.5c0.8-0.2,1.6-0.5,2.3-0.8c0.9-0.4,2.7-1.8,2.3,0.1C-1.1-128.8-4.8-126.3-7-124.9z"/>
	<path id="Path_14622_3_" class="st3" d="M-37-127.8c-1.2,0.7-2.4,1.3-3.6,1.7c-1.5,0.4-3.1,0.7-4.6,0.9c-2.4,0.4-4.7,1.2-6.8,2.4
		c3.2-2.2,6.8-3.9,10.5-5.1c5.6-2.4,10.8-6.1,16.8-6.7c2.4-0.2,4.8,0,7.2,0.4C-24.4-133.4-31.1-131.3-37-127.8z"/>
	<path id="Path_14623_3_" class="st3" d="M-12.2-129.8c-4.1,0.9-8.1,2.5-11.8,4.7l4.3-3.5c0.8-0.7,1.7-1.3,2.7-1.7
		c0.7-0.2,1.5-0.3,2.2-0.4c2.7-0.3,5.4-0.8,8-1.7C-8.4-131.3-10.2-130.4-12.2-129.8z"/>
	<path id="Path_14624_3_" class="st3" d="M-24.1-141.4c-0.7,0.3-1.2,0.8-1.9,1.1c-2,0.6-4.2,0.6-6.2,0.1c-2-0.2-4.1,0.2-6,0.9
		c1.7-1,3.5-1.6,5.4-1.9c1.3-0.2,2.7-0.3,4-0.6c1.2-0.4,2.4-0.8,3.6-1.1c2.3-0.1,4.5,0.4,6.5,1.5C-20.4-141.9-22.3-141.9-24.1-141.4
		z"/>
	<path id="Path_14625_3_" class="st3" d="M-33.9-134.2c-1.2,0.1-2.5,0-3.7,0.1c-1.3,0.2-2.6,0.5-3.8,0.9l-3.1,1
		c2.1-1.2,4.4-2,6.7-2.3c1.2-0.2,2.5-0.2,3.7-0.4c2.9-0.4,5.7-1.4,8.2-2.8c-0.3,1.3-2.4,1.7-3.5,2.2
		C-30.8-134.9-32.3-134.4-33.9-134.2z"/>
	<path id="Path_14626_3_" class="st3" d="M-5.9-127.5c-0.6,0.3-1.2,0.4-1.7,0.6c-1.7,0.7-3.2,1.7-4.6,3c0.7-1.4,1.6-2.7,2.7-3.8
		c0.4-0.3,0.9-0.5,1.3-0.6c2.1-0.8,4.2-1.7,6.4-2.3C-3-129.4-4.4-128.4-5.9-127.5z"/>
	<path id="Path_14627_3_" class="st4" d="M-7.1-110.2c-5.2,1.8-10.6,2.8-16.1,3c-15,1.1-30.1,0.6-45.1-1.6c-2.7-0.4-5.4-0.6-8.4-1.3
		c-2.1-0.5-4.1-0.8-2.4-4c-1.9,1.8-4.1,2.9-4.8,4.4c-0.2,0.5,0.7,0.7,1.2,0.8l28.4,3.1c10.9,1.6,21.9,2.1,32.9,1.5
		c4.3-0.3,8.5-1,12.7-2c2.9-0.5,5.6-1.6,8.1-3.1c4.4-3.2,6.5-8.7,5.4-14.1c0,1.6-0.2,3.3-0.7,4.8C2.1-113.6-3.8-111.5-7.1-110.2z"/>
</g>
<g id="Group_779" transform="translate(162.858 159.941)">
	<path id="Path_14618" class="st0" d="M-12-65.9c-3.3,6.9-11.1,10.2-18.4,12.2c-21,5.9-43.2,6.2-65.1,6.4
		c8.9-14.6,20.7-27.3,34.6-37.2c5.7-4.5,12.3-7.6,19.4-9.1C-28-95.6-4.3-82-12-65.9z"/>
	<g id="Group_778" transform="translate(0.234 5.211)">
		<path id="Path_14619" class="st1" d="M-95.7-52.4c6.2-10.1,13.7-19.3,22.4-27.3c0.4-0.1,0.7-0.1,1.1,0l-6.2,7.5
			c1.9-1.9,4.2-3.3,6.7-4.1c-5.3,4.2-9.7,9.5-12.9,15.5c3.3-2,6.8-3.5,10.5-4.6c-3.9,2.2-7.6,4.7-11,7.7c3.8,0.5,7.6,0.3,11.3-0.6
			c-0.5,0.3-0.9,0.6-1.3,0.9c6.4,0,12.7-0.9,18.8-2.8l-5.2-0.5c8.7-1.2,17-4.8,23.9-10.3c-2.5,4-6.1,7.2-10.4,9.3
			c6.9-1.6,13.5-4.1,19.8-7.4l-1.8,2.7c5.8-2.7,10.7-6.8,14.4-12.1c0.4,2.3-0.6,4.7-2.4,6.1c2.5-1.6,4.4-4,5.4-6.8
			c0.3-0.9,0.6-1.9,1-3c1.3,3.6,1,7.6-0.7,11c-3.3,6.9-11.1,10.2-18.4,12.2C-51.7-52.9-73.9-52.6-95.7-52.4z"/>
		<path id="Path_14620" class="st1" d="M-73.7-58.3c1.4-0.9,2.9-1.4,4.5-1.6C-70.7-59.3-72.2-58.7-73.7-58.3z"/>
	</g>
	<path id="Path_14621" class="st2" d="M-22.9-74.5c-2.9,2.4-6.1,4.5-9.5,6.2c1.3-1.4,2.4-3,3.3-4.6c-0.9,0.8-2,1.4-3.2,1.8
		c0.7-1,1.3-2.1,1.8-3.3c0.1-0.1,0.1-0.3,0.1-0.4c-0.1-0.3-0.6-0.3-0.9-0.2c-8.1,3.1-13.6,11.8-22.1,13.4c5.7-6.9,13-12.1,19.4-18.3
		c-5.6,1.7-10.8,4.4-15.5,7.9c-3.3,2.5-6.3,5.4-9.7,7.9c-3.3,2.6-7.3,4.2-11.4,4.6c3.1-1.2,5.8-3,8.2-5.4c-2.1,0.8-4.2,1.2-6.4,1.3
		c-2.2,0.1-4.4,0.8-6.1,2.3c2.1-3.2,4.8-6,8.1-8c3.2-2,6.4-4.2,9.4-6.5l-11.2,3.3c4.9-3.6,10.3-6.5,16.1-8.6
		c1.8-0.5,3.5-1.4,4.9-2.7c-0.9,0-1.8,0.1-2.7,0.3c-6.2,0.7-12.2,2.9-17.4,6.4c3.6-3.1,7.7-5.7,12.1-7.5c3.3-1.8,6.8-3.3,10.3-4.5
		c3.6-1.2,7.5-1.2,11.1-0.2c-3.7,1.3-6.9,3.8-9.1,7.1c6-0.9,11.3-4.4,17.2-5.6c-1,2.1-2.3,4.1-3.8,5.9c2.7-1.2,5.8-1.6,8.7-0.9
		l-2.9,3.1c0.4-0.4,1.7-0.6,2.2-0.8c0.7-0.3,1.5-0.7,2.2-1.2c0.9-0.5,2.4-2.2,2.3-0.3C-17.7-79.3-20.9-76.2-22.9-74.5z"/>
	<path id="Path_14622" class="st3" d="M-52.9-72.5c-1,0.9-2.1,1.6-3.3,2.3c-1.4,0.6-2.9,1.2-4.4,1.6c-2.3,0.8-4.4,2-6.3,3.5
		c2.8-2.7,6.1-4.9,9.5-6.7c5.1-3.3,9.6-7.8,15.5-9.3c2.3-0.6,4.7-0.8,7.2-0.7C-41.5-80.1-47.6-76.9-52.9-72.5z"/>
	<path id="Path_14623" class="st3" d="M-28.8-78.5c-3.9,1.6-7.6,3.8-10.9,6.5l3.7-4.1c0.7-0.8,1.5-1.6,2.4-2.1
		c0.7-0.3,1.4-0.6,2.2-0.7c2.6-0.7,5.2-1.7,7.6-3C-25.3-80.6-27-79.4-28.8-78.5z"/>
	<path id="Path_14624" class="st3" d="M-42.4-88c-0.6,0.4-1.1,1-1.7,1.4c-1.9,0.9-4,1.3-6.1,1.1c-2,0.2-4,0.8-5.8,1.9
		c1.5-1.2,3.2-2.1,5-2.8c1.3-0.4,2.6-0.7,3.9-1.3c1.1-0.6,2.2-1.2,3.4-1.7c2.2-0.5,4.5-0.4,6.6,0.4C-38.8-89.1-40.7-88.8-42.4-88z"
		/>
	<path id="Path_14625" class="st3" d="M-51-79.3c-1.2,0.3-2.4,0.4-3.6,0.7c-1.3,0.4-2.5,0.9-3.6,1.5l-2.9,1.5c1.9-1.5,4-2.6,6.3-3.4
		c1.2-0.4,2.4-0.6,3.6-1c2.8-0.9,5.4-2.3,7.7-4.1c-0.1,1.3-2.1,2.1-3.1,2.7C-47.9-80.5-49.4-79.8-51-79.3z"/>
	<path id="Path_14626" class="st3" d="M-22.2-77.2c-0.5,0.3-1.1,0.6-1.6,0.9c-1.6,1-2.9,2.2-4,3.7c0.4-1.5,1.1-2.9,2.1-4.2
		c0.4-0.3,0.8-0.6,1.2-0.8c1.9-1.1,3.9-2.3,5.9-3.3C-19.7-79.6-20.8-78.3-22.2-77.2z"/>
	<path id="Path_14627" class="st4" d="M-20.6-60c-4.8,2.6-10,4.5-15.4,5.5c-14.7,3.5-29.7,5.4-44.7,5.7c-2.7,0-5.5,0.3-8.5,0.1
		c-2.1-0.1-4.2-0.1-3-3.6c-1.5,2.1-3.6,3.5-4.1,5.1c-0.2,0.5,0.8,0.6,1.3,0.5l28.5-1.5c11-0.2,22-1.5,32.7-3.8c4.2-1,8.3-2.4,12.2-4
		c2.7-1,5.3-2.5,7.5-4.4c3.8-3.9,5-9.7,3-14.8c0.3,1.6,0.3,3.3,0.1,4.9C-12-64.8-17.6-61.8-20.6-60z"/>
</g>
<g id="Group_779_1_" transform="translate(162.858 159.941)">
	<path id="Path_14618_1_" class="st0" d="M-107.7-85c7.1,1.5,13.7,4.6,19.4,9.1c13.9,10,25.7,22.6,34.6,37.2
		c-21.9-0.3-44-0.5-65.1-6.4c-7.3-2.1-15.1-5.4-18.4-12.2C-144.9-73.6-121.2-87.2-107.7-85z"/>
	<g id="Group_778_1_" transform="translate(0.234 5.211)">
		<path id="Path_14619_1_" class="st1" d="M-119-50.4c-7.3-2.1-15.1-5.4-18.4-12.2c-1.7-3.4-2-7.4-0.7-11c0.3,1,0.6,2.1,1,3
			c1,2.8,3,5.1,5.4,6.8c-1.9-1.4-2.8-3.8-2.4-6.1c3.7,5.2,8.6,9.4,14.4,12.1l-1.8-2.7c6.2,3.3,12.9,5.8,19.8,7.4
			c-4.3-2-7.9-5.2-10.4-9.3c6.9,5.5,15.1,9.1,23.9,10.3l-5.2,0.5c6.1,1.9,12.4,2.8,18.8,2.8c-0.4-0.3-0.8-0.7-1.3-0.9
			c3.7,1,7.5,1.2,11.3,0.6c-3.4-3-7-5.6-11-7.7c3.7,1.1,7.2,2.6,10.5,4.6c-3.1-6-7.5-11.3-12.9-15.5c2.5,0.8,4.8,2.3,6.7,4.1
			l-6.2-7.5c0.4,0,0.7,0,1.1,0c8.7,8,16.3,17.2,22.4,27.3C-75.8-44.2-97.9-44.5-119-50.4z"/>
		<path id="Path_14620_1_" class="st1" d="M-80.4-51.5c1.6,0.2,3.2,0.7,4.5,1.6C-77.5-50.3-79-50.8-80.4-51.5z"/>
	</g>
	<path id="Path_14621_1_" class="st2" d="M-131.6-73.6c-0.1-2,1.4-0.3,2.3,0.3c0.7,0.4,1.4,0.8,2.2,1.2c0.5,0.2,1.8,0.4,2.2,0.8
		l-2.9-3.1c2.9-0.7,6-0.3,8.7,0.9c-1.5-1.8-2.8-3.7-3.8-5.9c5.9,1.2,11.3,4.8,17.2,5.6c-2.2-3.3-5.4-5.8-9.1-7.1
		c3.6-1.1,7.5-1,11.1,0.2c3.6,1.2,7,2.7,10.3,4.5c4.4,1.9,8.4,4.4,12.1,7.5c-5.2-3.5-11.2-5.7-17.4-6.4c-0.9-0.2-1.8-0.3-2.7-0.3
		c1.4,1.3,3,2.2,4.9,2.7c5.8,2.1,11.2,4.9,16.1,8.6l-11.2-3.3c3,2.3,6.2,4.5,9.4,6.5c3.3,2,6,4.7,8.1,8c-1.7-1.4-3.9-2.2-6.1-2.3
		c-2.2,0-4.4-0.5-6.4-1.3c2.3,2.3,5.1,4.1,8.2,5.4c-4.2-0.4-8.1-2-11.4-4.6c-3.4-2.4-6.4-5.3-9.7-7.9c-4.7-3.5-9.9-6.2-15.5-7.9
		c6.4,6.2,13.8,11.4,19.4,18.3c-8.5-1.6-14-10.3-22.1-13.4c-0.3-0.1-0.8-0.2-0.9,0.2c0,0.1,0,0.3,0.1,0.4c0.5,1.1,1.1,2.2,1.8,3.3
		c-1.2-0.4-2.2-1-3.2-1.8c1,1.6,2.1,3.2,3.3,4.6c-3.4-1.7-6.6-3.8-9.5-6.2C-128.3-67.7-131.5-70.9-131.6-73.6z"/>
	<path id="Path_14622_1_" class="st3" d="M-114.4-73.4c2.4-0.1,4.8,0.2,7.2,0.7c5.9,1.5,10.4,6,15.5,9.3c3.5,1.8,6.7,4,9.5,6.7
		c-1.9-1.5-4-2.6-6.3-3.5c-1.5-0.4-3-1-4.4-1.6c-1.2-0.7-2.3-1.4-3.3-2.3C-101.5-68.4-107.7-71.6-114.4-73.4z"/>
	<path id="Path_14623_1_" class="st3" d="M-125.4-73.4c2.4,1.3,5,2.3,7.6,3c0.7,0.2,1.5,0.4,2.2,0.7c0.9,0.6,1.7,1.3,2.4,2.1
		l3.7,4.1c-3.2-2.7-6.9-4.9-10.9-6.5C-122.2-71-123.9-72.1-125.4-73.4z"/>
	<path id="Path_14624_1_" class="st3" d="M-112.2-80.4c2.1-0.8,4.4-0.9,6.6-0.4c1.2,0.5,2.3,1.1,3.4,1.7c1.2,0.6,2.6,0.8,3.9,1.3
		c1.8,0.6,3.5,1.5,5,2.8C-95-76.2-97-76.9-99-77c-2.1,0.2-4.2-0.2-6.1-1.1c-0.6-0.4-1.1-1-1.7-1.4
		C-108.5-80.4-110.3-80.7-112.2-80.4z"/>
	<path id="Path_14625_1_" class="st3" d="M-102.6-73c-1-0.6-3-1.4-3.1-2.7c2.3,1.9,4.9,3.3,7.7,4.1c1.2,0.4,2.4,0.6,3.6,1
		c2.3,0.7,4.4,1.9,6.3,3.4l-2.9-1.5c-1.2-0.6-2.4-1.1-3.6-1.5c-1.2-0.3-2.4-0.3-3.6-0.7C-99.8-71.3-101.3-72.1-102.6-73z"/>
	<path id="Path_14626_1_" class="st3" d="M-130.5-72.5c2,1,4,2.2,5.9,3.3c0.4,0.2,0.8,0.5,1.2,0.8c0.9,1.3,1.6,2.7,2.1,4.2
		c-1.1-1.5-2.5-2.7-4-3.7c-0.5-0.3-1.1-0.5-1.6-0.9C-128.3-69.9-129.5-71.2-130.5-72.5z"/>
	<path id="Path_14627_1_" class="st4" d="M-138.4-61.8c-0.3-1.6-0.2-3.3,0.1-4.9c-2,5.1-0.8,10.9,3,14.8c2.2,1.9,4.8,3.4,7.5,4.4
		c4,1.6,8.1,3,12.2,4c10.8,2.3,21.7,3.6,32.7,3.8l28.5,1.5c0.5,0,1.5-0.1,1.3-0.5c-0.5-1.6-2.5-3-4.1-5.1c1.2,3.5-0.8,3.5-3,3.6
		c-3.1,0.2-5.8,0-8.5-0.1c-15.1-0.2-30.1-2.1-44.7-5.7c-5.4-1-10.6-2.9-15.4-5.5C-131.6-53.3-137.1-56.4-138.4-61.8z"/>
</g>
<g id="Group_779_4_" transform="translate(162.858 159.941)">
	<path id="Path_14618_4_" class="st0" d="M22.4-35.4C20.8-28,14-23,7.3-19.3C-11.8-8.7-33.3-3.4-54.5,1.9
		c5.3-16.3,13.9-31.3,25.2-44.2c4.5-5.7,10.2-10.2,16.8-13.3C0.1-60.7,26.3-52.9,22.4-35.4z"/>
	<g id="Group_778_4_" transform="translate(0.234 5.211)">
		<path id="Path_14619_4_" class="st1" d="M-54.8-3.3c3.7-11.2,8.9-21.9,15.6-31.7c0.3-0.1,0.7-0.2,1.1-0.3l-4.3,8.8
			c1.4-2.3,3.3-4.2,5.6-5.6c-4.2,5.3-7.3,11.5-9,18c2.8-2.7,5.9-5,9.2-6.9c-3.3,3-6.3,6.4-8.9,10c3.8-0.3,7.5-1.4,10.8-3.2
			c-0.4,0.4-0.7,0.8-1,1.2c6.2-1.4,12.2-3.8,17.7-7l-5.1,0.7c8.2-3.2,15.4-8.6,20.9-15.5c-1.5,4.5-4.3,8.5-8,11.4
			C-4-26.4,1.9-30.4,7.2-35l-1.2,3c5-3.9,8.9-9.1,11.3-15c0.9,2.2,0.5,4.7-1,6.5c2.1-2.1,3.4-4.9,3.8-7.8c0.1-0.9,0.2-2,0.3-3.1
			c2.1,3.2,2.7,7.2,1.8,10.9c-1.6,7.4-8.5,12.5-15.1,16.1C-12.1-13.9-33.6-8.6-54.8-3.3z"/>
		<path id="Path_14620_4_" class="st1" d="M-34.7-14.2c1.1-1.1,2.5-2,4-2.6C-32-15.8-33.3-14.9-34.7-14.2z"/>
	</g>
	<path id="Path_14621_4_" class="st2" d="M9.9-41.3c-2.3,3-4.9,5.7-7.8,8.2c0.9-1.7,1.6-3.4,2.2-5.2c-0.7,1-1.6,1.8-2.7,2.5
		c0.4-1.2,0.7-2.4,1-3.6c0-0.1,0-0.3,0-0.4c-0.2-0.3-0.6-0.2-0.9,0C-5.5-35-8.9-25.3-16.8-21.8c3.9-8,9.9-14.8,14.7-22.3
		c-5,2.9-9.5,6.7-13.3,11.2c-2.7,3.2-4.9,6.7-7.7,9.9c-2.6,3.3-6.1,5.7-10.1,7.1c2.7-1.9,5-4.3,6.7-7.1c-1.8,1.2-3.8,2.2-6,2.7
		c-2.1,0.6-4,1.8-5.4,3.6c1.3-3.6,3.4-6.9,6.1-9.6c2.7-2.7,5.3-5.5,7.7-8.5L-34.2-29c3.9-4.7,8.6-8.7,13.7-12
		c1.7-0.9,3.1-2.1,4.1-3.7c-0.9,0.2-1.8,0.5-2.6,0.9c-5.9,2.1-11.2,5.6-15.5,10.2c2.8-3.9,6.2-7.3,10-10.1c2.8-2.5,5.8-4.7,9-6.7
		c3.2-2,7-2.9,10.8-2.7c-3.3,2.2-5.9,5.3-7.3,9c5.6-2.2,10-6.9,15.5-9.4c-0.5,2.3-1.3,4.5-2.4,6.6c2.4-1.8,5.3-2.8,8.3-2.9l-2.2,3.7
		c0.3-0.5,1.5-1,2-1.3c0.7-0.5,1.3-1,1.8-1.6c0.7-0.7,1.8-2.7,2.2-0.8C13.8-47.2,11.4-43.4,9.9-41.3z"/>
	<path id="Path_14622_4_" class="st3" d="M-18.9-32.5c-0.8,1.1-1.7,2.1-2.7,3c-1.3,0.9-2.6,1.8-3.9,2.6c-2,1.3-3.8,2.9-5.4,4.8
		c2.2-3.3,4.8-6.2,7.7-8.7c4.2-4.3,7.6-9.8,13-12.6c2.1-1.1,4.4-1.9,6.8-2.4C-9.5-42.5-14.8-38-18.9-32.5z"/>
	<path id="Path_14623_4_" class="st3" d="M3.3-43.9c-3.5,2.4-6.6,5.4-9.1,8.8l2.6-4.8c0.5-1,1.1-1.8,1.9-2.6
		c0.6-0.5,1.2-0.9,1.9-1.2C3-45,5.3-46.5,7.3-48.3C6.2-46.7,4.8-45.2,3.3-43.9z"/>
	<path id="Path_14624_4_" class="st3" d="M-12.2-50c-0.5,0.5-0.8,1.2-1.3,1.8c-1.6,1.3-3.6,2.1-5.7,2.5c-2,0.6-3.7,1.7-5.2,3.2
		c1.2-1.5,2.6-2.8,4.3-3.8c1.2-0.7,2.4-1.3,3.5-2.1c0.9-0.9,1.9-1.7,2.9-2.4c2-1,4.3-1.4,6.6-1.1C-9-51.9-10.7-51.2-12.2-50z"/>
	<path id="Path_14625_4_" class="st3" d="M-18.5-39.6c-1.1,0.6-2.3,0.9-3.4,1.5c-1.1,0.6-2.2,1.4-3.2,2.3l-2.5,2.1
		c1.5-1.9,3.3-3.5,5.3-4.7c1.1-0.7,2.2-1.2,3.3-1.8c2.5-1.5,4.7-3.5,6.5-5.8c0.2,1.3-1.6,2.5-2.4,3.4
		C-15.9-41.5-17.1-40.4-18.5-39.6z"/>
	<path id="Path_14626_4_" class="st3" d="M10-44.2c-0.4,0.5-0.9,0.8-1.4,1.2c-1.3,1.3-2.3,2.8-3.1,4.5c0.1-1.6,0.4-3.1,1.1-4.5
		c0.3-0.4,0.6-0.8,1-1.1c1.6-1.5,3.2-3.1,5-4.6C11.9-47,11-45.5,10-44.2z"/>
	<path id="Path_14627_4_" class="st4" d="M15.4-27.7c-4.1,3.6-8.7,6.6-13.7,8.9C-11.7-12.1-25.9-6.8-40.5-3.1
		c-2.7,0.7-5.3,1.5-8.3,2c-2.1,0.3-4.1,0.9-3.7-2.8c-1,2.4-2.7,4.3-2.8,5.9c0,0.5,0.9,0.4,1.4,0.2l27.5-8c10.7-2.7,21.1-6.5,31-11.2
		c3.8-2,7.5-4.2,11-6.7c2.4-1.6,4.6-3.6,6.3-6c2.8-4.7,2.7-10.6-0.4-15.1c0.6,1.5,1,3.1,1.2,4.7C22.7-34.4,18-30.2,15.4-27.7z"/>
</g>
</svg>
