<?xml version="1.0" encoding="utf-8"?>
<!-- Generator: Adobe Illustrator 25.2.1, SVG Export Plug-In . SVG Version: 6.00 Build 0)  -->
<svg version="1.1" id="Layer_2" xmlns="http://www.w3.org/2000/svg" xmlns:xlink="http://www.w3.org/1999/xlink" x="0px" y="0px"
	 viewBox="0 0 200 200" style="enable-background:new 0 0 200 200;" xml:space="preserve">
<style type="text/css">
	.st0{fill:#713017;}
	.st1{fill:#893921;}
	.st2{fill:#D30202;}
	.st3{fill:#EBEBA8;}
	.st4{fill:#D30303;}
	.st5{opacity:0.5;}
	.st6{fill:#E0DE9B;}
	.st7{fill:#683A0E;}
</style>
<g>
	<g>
		<path class="st0" d="M177.5,96.9c0.3-6.2,6.2-10.9,14-14.9c1.6-0.8,3.7-0.8,4.8,0.5c1,1.2,2.7,2.5,0,3.7c-4.3,2-8,4.3-11.3,7
			c-1.7,1.4-3.3,2.8-4,4.6c-0.3,0.6-0.2,1.7-1.9,1.5C177.3,99.2,176.9,98.3,177.5,96.9z"/>
	</g>
	<g>
		<path class="st1" d="M177.5,96.9c0.3-6.2,6.2-10.9,14-14.9c1.6-0.8-2.4,1.6,4.5,3.3c0,1.7-5.5-0.8-8.2,0.8
			c-4.1,2.5-9.6,9.3-8.7,13.2C177.3,99.2,176.9,98.3,177.5,96.9z"/>
	</g>
	<g>
		<path class="st2" d="M175.9,93.8c13.2,6.6,16.5,7.4,20.9,13.8c9.7,14.1,6.6,35.6-4.6,48.7c-10.4,12.1-23.8,18.1-39.3,19
			c-18.6,1.1-41.1-8.3-46.9-31.1c-1.3-5-2-12.3-0.8-17.5c1.5-6.7,2.8-11.1,5.5-17.4c8.4-17.9,17.4-19.3,19.5-20.4
			c-1.8,4.9-20.3,26-21.1,30.5c-1.3,7.3-2.1,14.6,1.9,21.5c1.9,3.4,4.9,5.4,8.3,6.7c2.3,0.8,3.3,2.5,4.7,4.3
			c5.1,6.3,9.9,9.6,16.5,10.8c18.4,2.6,33.9-3.3,46.3-17c9.3-10.3,12.9-22.3,8.6-36c-1.5-4.8-8.3-10.4-13.3-10.8
			C180,98.7,177.9,95.4,175.9,93.8z"/>
	</g>
	<g>
		<path class="st3" d="M107.9,126.9c-0.6-22,16-40.1,35-44c10.7-2.2,21-2.4,29,5.7c4.9,4.9,9.9,8.6,16,12
			c12.3,6.7,15.5,19.2,9.4,33.3c-7.9,18.3-22.1,28.1-41.8,30.7c-9,1.2-17.2,0-24.7-5c-2-1.4-4.2-3-5.4-5.1c-1.9-3.4-4.7-5.4-8-7.2
			C109.1,143,108.3,135,107.9,126.9z"/>
	</g>
	<g>
		<path class="st4" d="M-2.6,57.3c-0.2-14,4.9-25.7,15.7-34.7c4.2-3.5,9-4.5,14.2-3.2c2.7,0.7,5.4,1.7,8,2.9
			c2.6,1.2,4.9,1.5,7.8,0.8c7.4-1.8,13.9,1.2,19.5,5.6c12.9,9.9,19.2,23.5,21.6,39.2c1.6,10.4,0.7,20.5-3.3,30.3
			c-1.6,3.9-3.9,7.4-7.1,10.2c-3.7,3.3-8.1,4.6-12.7,3.5c-5.2-1.2-10.1-0.6-15,0.9c-7.9,2.4-14.5-1.1-20.9-4.9
			C9.2,98.5,1.6,83.5-1.9,65.8C-2.5,62.9-2.6,60.1-2.6,57.3z M46.6,97c1.8,0.5,3.4,1.1,5.1,1.4c17.5,3.2,27.7-6.3,28.5-22.3
			c0.1-1.5-0.6-3.1-0.7-4.6c-0.6-9.1-4.6-17.1-8.4-25.1c-1.9-4-5.1-7-8.4-9.8c-2.9-2.5-4.3-6.9-9.4-6.7c-1.6,0-3.7-2-5.7-1.4
			c-5,1.3-9.3-0.7-13.9-2.1c-9.3-2.8-16.1-1.8-19.9,8.2c-3.1,8.5-3.6,17.3-1.7,26.1c1.9,8.4,6.6,15.4,12.2,21.8
			c5.5,6.2,12.1,11,20.2,13.8C45.8,96.5,45.8,96.5,46.6,97z"/>
	</g>
	<g>
		<path class="st3" d="M7.9,48.6c-0.3-6.9,1-12.8,3.5-18.5c3.3-7.7,11.9-10.7,18.5-8.8c1.3,0.4,2.6,0.6,3.7,1.2
			c3.7,2.1,7.4,2.1,11.7,1.6c9.5-1,16.3,4.7,22.1,11.3c8.7,9.8,13.9,21.2,15.5,34.2c1.7,13,0.1,25.4-9.5,35.5
			c-3.5,3.7-7.7,5.2-12.7,3.2c-1.9-0.8-4-1.5-6.1-0.6c-7.4,2.9-13.7,0-19.4-4.2C22.6,94,14.8,81.2,10.4,66.2
			C8.6,60.3,7.3,54.3,7.9,48.6z"/>
	</g>
	<g class="st5">
		<path class="st6" d="M180.5,141.6c18.4-20.9,16-31.9,7.4-41c12.3,6.7,15.5,19.2,9.4,33.3c-7.9,18.3-22.1,28.1-41.8,30.7
			c-9,1.2-17.2,0-24.7-5c-2-1.4-4.2-3-5.4-5.1c-1.9-3.4-4.7-5.4-8-7.2C131.4,153.9,162.1,162.5,180.5,141.6z"/>
	</g>
	<path class="st6" d="M159.7,112.3c0,0-7.5-2.6-11.2-1.4c-2,0.7-12.3,2.5-12.3,12.3c0,6.6,1.2,9.8,8.6,12.3s16.1,0.8,18.4-6.1
		C165.8,122,166,116.2,159.7,112.3z"/>
	<path class="st6" d="M45.9,51.7C43,52,43,54.5,40.6,56.9c-1.1,1.1-6.1,8.5-0.4,13.8c3.9,3.5,8.7,3.8,13.9,1
		c5.2-2.9,4.1-8.5,1.2-13.5C52.3,52.9,48.8,51.3,45.9,51.7z"/>
	<g>
		<path class="st7" d="M150.7,117.5c-3.1,3.8-6.8,4.3-10.6,4.4c-1.2,0-1.6-0.8-1.7-1.8c-0.1-1.3,0.6-2,1.8-2.4
			C143.4,116.8,146.7,116.5,150.7,117.5z"/>
		<path class="st7" d="M142.1,130.7c1.8-4,4.2-7.2,8.3-9C150.9,127.1,147.2,131.3,142.1,130.7z"/>
		<path class="st7" d="M149,131.8c2.1-3.6,4.7-6.2,9.6-6.3C154.8,133.3,153.2,134.3,149,131.8z"/>
	</g>
	<g>
		<path class="st7" d="M43.8,61c1.4,3.2,0.6,5.8-0.6,8.3c-0.4,0.8-1,0.8-1.7,0.5c-0.9-0.3-1.1-1-0.9-1.9C41,65.4,41.8,63.2,43.8,61z
			"/>
		<path class="st7" d="M49.5,70.8c-2-2.5-3.3-5-3.1-8.3C50.1,64,51.5,67.7,49.5,70.8z"/>
		<path class="st7" d="M52.5,66.7c-1.6-2.5-2.5-5.1-0.9-8.3C55.3,63.5,55.4,64.9,52.5,66.7z"/>
	</g>
</g>
</svg>
