<?xml version="1.0" encoding="utf-8"?>
<!-- Generator: Adobe Illustrator 25.2.1, SVG Export Plug-In . SVG Version: 6.00 Build 0)  -->
<svg version="1.1" id="Layer_3" xmlns="http://www.w3.org/2000/svg" xmlns:xlink="http://www.w3.org/1999/xlink" x="0px" y="0px"
	 viewBox="0 0 200 200" style="enable-background:new 0 0 200 200;" xml:space="preserve">
<style type="text/css">
	.st0{fill:#D20000;}
	.st1{fill:#BA2020;}
	.st2{opacity:0.8;}
	.st3{fill:#BC0A0A;}
	.st4{opacity:0.5;fill:#FF9292;}
	.st5{fill:#713017;}
	.st6{fill:#893921;}
</style>
<g>
	<g>
		<path class="st0" d="M164,108.2c-0.5,15.1-4.5,31.9-15.5,46.3c-7.4,9.6-16.7,16.3-29.4,16.5c-3.4,0-6.7-0.8-9.8-2.1
			c-2.1-0.9-4.3-1.1-6.3-0.6c-17.1,4.6-29.5-2.9-39.7-15.4c-9.7-11.8-14.6-25.7-16.2-40.8c-1.5-14.7,0-28.7,7.4-41.7
			c5.7-10,13.9-16.4,25.8-17.2c4-0.3,7.9,0.3,11.6,1.9c2.7,1.1,5.2,0.8,8,0.2c4.9-1.1,9.4-3.4,14.2-4.6c17.9-4.8,31.1,2.2,39.9,17.3
			C161.3,80.3,164,91.1,164,108.2z"/>
	</g>
	<g>
		<path class="st1" d="M88.9,62.1c4.6-5.5,16.5-6.6,20.1-2C105.3,65,93.4,66.3,88.9,62.1z"/>
	</g>
	<g class="st2">
		<path class="st3" d="M164,108.2c-0.5,15.1-4.5,31.9-15.5,46.3c-7.4,9.6-16.7,16.3-29.4,16.5c-3.4,0-6.7-0.8-9.8-2.1
			c-2.1-0.9-4.3-1.1-6.3-0.6c-17.1,4.6-29.5-2.9-39.7-15.4c-9.7-11.8-14.6-25.7-16.2-40.8c10.1,42.2,56.5,59,86.3,28.1
			s-5.8-56.3-1-57.6c31.5,20.6,12.7-29.8,21.6-14.7C161.3,80.3,164,91.1,164,108.2z"/>
	</g>
	<path class="st4" d="M71.2,72.3c-3.2-5.9-12.7,1.6-16,12.8c-3.4,11.4-1.3,19.1,4.8,19.1C69.4,104.1,74.4,78.2,71.2,72.3z"/>
	<g>
		<path class="st5" d="M97.8,57.4c0.3-11.1,6.8-19.5,15.4-26.5c1.8-1.4,4.1-1.4,5.2,1c1.1,2.1,3,4.4,0,6.6
			c-4.8,3.5-8.9,7.7-12.4,12.5c-1.9,2.5-3.6,5.1-4.4,8.2c-0.3,1.1-0.2,3.1-2.1,2.7C97.6,61.5,97.1,59.9,97.8,57.4z"/>
	</g>
	<g>
		<path class="st6" d="M97.8,57.4c0.3-11.1,6.8-19.5,15.4-26.5c1.8-1.4-2.6,2.8,4.9,5.9c0,3-6-1.5-9.1,1.5
			c-4.5,4.5-10.6,16.6-9.6,23.6C97.6,61.5,97.1,59.9,97.8,57.4z"/>
	</g>
</g>
</svg>
