<?xml version="1.0" encoding="utf-8"?>
<!-- Generator: Adobe Illustrator 25.2.1, SVG Export Plug-In . SVG Version: 6.00 Build 0)  -->
<svg version="1.1" id="Layer_3" xmlns="http://www.w3.org/2000/svg" xmlns:xlink="http://www.w3.org/1999/xlink" x="0px" y="0px"
	 viewBox="0 0 200 200" style="enable-background:new 0 0 200 200;" xml:space="preserve">
<style type="text/css">
	.st0{fill:#3C7535;}
	.st1{opacity:0.42;fill:#3C7535;}
	.st2{opacity:0.42;}
	.st3{opacity:0.5;fill:#226618;}
</style>
<g>
	<path class="st0" d="M153.1,136.2c6.6-16.6,7.6-43.8,7.6-44.9c0.7-7.2,2-14.3,2.9-21.4c0.8-6.2,5.4-29.4,1.7-46.7
		c-0.9-4-4.6-8.4-8.1-10.6c-0.2-0.1-0.4-0.3-0.6-0.4c-4.6-4.1-10.5-6.7-16.6-7.2c-10.1-2.1-21.6,1.3-28.7,8.6
		c-0.4,0.4-44.6,47.9-47.4,50.8c-3.2,3.3-18.6,15.8-21.6,42.2c-2,17.6,4.8,25.6,6.7,27.6c4.8,5.3,15.6,13.6,26.8,19
		c14.2,6.9,34.6,9.2,35.8,9.2c14.6,0.1,22.5-4.4,23.4-5.1C136.2,156.1,148.1,148.5,153.1,136.2z"/>
	<g>
		<path class="st1" d="M151.6,16.1c-0.5,1.1-3.4,0.7-6.4-0.7c-3-1.5-5-3.6-4.5-4.6c0.5-1.1,3.4-0.7,6.4,0.7
			C150.1,13,152.2,15.1,151.6,16.1z"/>
		<g class="st2">
			<path class="st0" d="M105.6,45.7c0.1-0.3,0.3-0.7,0.3-1.1c0-0.4-0.2-0.6-0.6-0.7c-0.3-0.1-0.6-0.1-0.9-0.1
				c-0.1,0-0.2-0.1-0.3-0.1c-0.4,0-0.8,0.1-1.1,0.4c0,0-0.1,0.1-0.1,0.1c0,0,0,0,0,0c-0.5,0.1-0.9,0.4-1.2,0.8
				c-0.2,0.2-0.4,0.5-0.6,0.8c0,0,0,0.1,0,0.1c0,0,0,0.1,0,0.1c-0.2,0.5-0.3,1-0.2,1.4c0.1,0.5,0.5,0.9,0.9,1.1
				c0.5,0.2,1.1,0.2,1.6,0.1c0.8-0.3,1.4-1.1,1.9-1.8C105.2,46.5,105.4,46.1,105.6,45.7z"/>
			<polygon class="st0" points="102.8,46.5 102.8,46.5 102.9,46.5 102.9,46.5 102.8,46.5 			"/>
		</g>
		<path class="st1" d="M102.6,53.8c0,0,0-0.1,0-0.1c0,0,0,0,0,0c0,0,0-0.1,0-0.1c0,0,0-0.1,0-0.1c0,0,0,0,0-0.1c0,0,0-0.1,0-0.1
			c0,0-0.1-0.1-0.1-0.1c0,0-0.1-0.1-0.1-0.1c-0.1,0-0.1-0.1-0.2-0.1c-0.1,0-0.1,0-0.2,0c-0.1,0-0.1,0-0.2,0c-0.1,0-0.1,0-0.2,0.1
			c-0.1,0-0.1,0.1-0.2,0.1l-0.1,0c-0.1,0-0.1,0.1-0.1,0.2c0,0-0.1,0.1-0.1,0.1c0,0,0,0,0,0.1c0,0.1-0.1,0.1-0.1,0.2c0,0,0,0.1,0,0.1
			c0,0.1,0,0.1,0,0.2c0,0.1,0.1,0.1,0.1,0.2c0,0,0.1,0.1,0.1,0.1c0.1,0,0.2,0.1,0.2,0.1c0.1,0,0.1,0,0.2,0c0.1,0,0.2,0,0.3-0.1
			c0.1,0,0.1-0.1,0.2-0.1c0.1-0.1,0.2-0.1,0.2-0.2c0,0,0-0.1,0.1-0.1C102.5,54,102.5,53.9,102.6,53.8z"/>
		<g class="st2">
			<path class="st0" d="M84.3,100.6c0.2-0.5,0.4-1,0.2-1.5c-0.1-0.6-0.5-1.2-1.1-1.4c-0.1,0-0.2-0.1-0.2-0.1c-0.3-0.5-1-0.6-1.5-0.5
				c-0.3,0.1-0.7,0.2-1,0.3c-0.2,0.1-0.4,0.2-0.6,0.3c-0.1,0-0.1,0.1-0.2,0.1c0,0-0.1,0.1-0.1,0.1c0,0-0.1,0.1-0.1,0.1
				c-0.6,0.5-1.2,1.1-1.6,1.8c-0.4,0.7-0.5,1.5-0.2,2.3c0.1,0.4,0.4,0.7,0.7,1c0.5,0.5,1.2,0.6,1.8,0.5c1.1-0.1,2.2-0.9,2.9-1.8
				C83.8,101.6,84.1,101.1,84.3,100.6z"/>
			<path class="st0" d="M79.7,98.1C79.7,98.1,79.6,98.2,79.7,98.1L79.7,98.1z"/>
			<path class="st0" d="M79.7,98.1C79.7,98.1,79.7,98.1,79.7,98.1C79.7,98.1,79.8,98.1,79.7,98.1C79.7,98.1,79.7,98.1,79.7,98.1z"/>
		</g>
		<path class="st1" d="M73.9,117.7c0-0.1,0-0.2,0-0.2c0-0.1-0.1-0.1-0.2-0.2c-0.1-0.1-0.1-0.1-0.2-0.1c-0.1,0-0.1,0-0.2,0
			c-0.1,0-0.3,0-0.4,0.1c-0.1,0-0.1,0.1-0.2,0.1c-0.1,0.1-0.2,0.1-0.2,0.2c0,0.1-0.1,0.2-0.1,0.2c0,0.1-0.1,0.1-0.1,0.2
			c0,0.1,0,0.1,0,0.2c0,0.1,0.1,0.1,0.2,0.2c0.1,0.1,0.1,0.1,0.2,0.1c0.1,0,0.1,0,0.2,0c0.1,0,0.3,0,0.4-0.1c0.1,0,0.1-0.1,0.2-0.1
			c0.1-0.1,0.2-0.1,0.2-0.2c0-0.1,0.1-0.1,0.1-0.2C73.8,117.8,73.9,117.8,73.9,117.7z"/>
		<path class="st1" d="M88.9,142.2L89,142c0-0.1,0-0.3-0.1-0.4c0,0,0,0,0-0.1c0,0,0-0.1,0-0.1c0-0.3,0-0.5-0.1-0.8
			c-0.1-0.3-0.3-0.5-0.7-0.6c-0.1,0-0.2,0-0.3,0c0,0,0,0,0-0.1c-0.1-0.2-0.4-0.3-0.6-0.3c-0.3,0-0.5,0.1-0.7,0.3
			c-0.5,0.4-0.8,1-0.9,1.5c-0.1,0.6,0,1.2,0.4,1.7c0.2,0.2,0.4,0.3,0.6,0.4c0.3,0,0.6,0,0.9-0.2c0.3-0.2,0.7-0.4,0.9-0.7
			C88.6,142.5,88.8,142.4,88.9,142.2z"/>
		<path class="st1" d="M85.3,73.8c0.1-0.3,0.1-0.5,0.1-0.8c0,0,0-0.1,0-0.1c0,0,0-0.1,0-0.1c0,0-0.1-0.1-0.1-0.1
			c-0.1-0.1-0.1-0.1-0.2-0.1c-0.1,0-0.2-0.1-0.4-0.1c-0.1,0-0.1,0-0.2,0c-0.1,0-0.2,0.1-0.3,0.1c-0.1,0.1-0.3,0.2-0.3,0.3
			c-0.1,0.1-0.1,0.1-0.2,0.2c0,0.1-0.1,0.2-0.1,0.3c0,0,0,0.1,0,0.1c0,0,0,0,0,0.1c0,0.1,0,0.2,0,0.2c0,0.1,0,0.1,0,0.2
			c0,0,0,0.1,0.1,0.2c0,0,0,0,0,0c0,0,0,0,0.1,0.1c0,0.1,0.1,0.1,0.2,0.2c0.1,0,0.2,0.1,0.3,0.1c0.2,0,0.3,0,0.4-0.1
			c0.1,0,0.3,0,0.4-0.1C85.2,74.1,85.3,73.9,85.3,73.8z"/>
		<path class="st1" d="M68.9,83.4C68.9,83.4,68.9,83.4,68.9,83.4C68.9,83.3,68.9,83.3,68.9,83.4c0-0.1,0-0.1,0-0.1
			c0-0.1,0-0.1,0-0.2c0-0.1,0-0.1-0.1-0.1c0,0-0.1,0-0.1-0.1c-0.1,0-0.1-0.1-0.2-0.1c0,0-0.1,0-0.1,0c-0.1,0-0.1,0-0.2,0
			c0,0,0,0,0,0c0,0,0,0,0,0c-0.1,0-0.2,0-0.3,0.1c-0.1,0-0.1,0.1-0.2,0.1c-0.1,0-0.1,0.1-0.1,0.2c0,0.1-0.1,0.1,0,0.2
			c0,0.1,0,0.1,0,0.2c0,0.1,0.1,0.1,0.2,0.2c0.1,0,0.1,0.1,0.2,0.1c0,0,0,0,0,0c0.1,0,0.1,0,0.2,0c0,0,0,0,0,0c0.1,0,0.1,0,0.2,0
			c0,0,0,0,0,0c0,0,0,0,0,0c0,0,0,0,0,0c0,0,0.1,0,0.2,0c0,0,0,0,0,0c0.1,0,0.1,0,0.1-0.1c0,0,0,0,0,0c0,0,0.1-0.1,0.1-0.1
			c0,0,0,0,0,0C68.8,83.6,68.8,83.5,68.9,83.4C68.9,83.5,68.9,83.5,68.9,83.4C68.9,83.5,68.9,83.4,68.9,83.4z"/>
	</g>
	<path class="st0" d="M116.4,23.6c-0.9-0.9-2.5-0.4-3.4,0.2c-0.5,0.4-1,0.8-1.4,1.3c-0.7,0.5-1.4,1.1-1.8,1.9
		c-0.5,1-0.5,2.5,0.6,3.1c1.1,0.6,2.4,0,3.3-0.6c1-0.6,1.9-1.5,2.5-2.5C116.8,26.1,117.3,24.5,116.4,23.6z M111.6,29
		C111.6,29,111.6,29,111.6,29C111.5,29,111.5,29,111.6,29c-0.1,0-0.1,0-0.2-0.1c0,0,0,0,0,0c0-0.1-0.1-0.1-0.1-0.2c0,0,0,0,0-0.1
		c0,0,0-0.1,0-0.1c0,0,0,0,0,0c0.2,0.2,0.5,0.2,0.7,0.3c0,0,0,0,0,0c0,0,0,0,0,0c0,0-0.1,0-0.1,0C111.8,29,111.7,29,111.6,29z"/>
	<path class="st0" d="M100.3,36.3c0-0.1,0-0.1,0-0.2c0,0,0,0,0,0c0,0,0-0.1,0.1-0.1c0-0.1,0-0.1,0-0.2c0-0.1,0-0.1-0.1-0.1
		c0,0-0.1-0.1-0.1-0.1c0,0-0.1-0.1-0.1-0.1c-0.1,0-0.2-0.1-0.3-0.1c0,0,0,0,0,0c-0.1,0-0.2,0-0.2,0c0,0-0.1,0-0.1,0c0,0-0.1,0-0.1,0
		c0,0,0,0,0,0c0,0-0.1,0-0.1,0c-0.1,0-0.2,0.1-0.3,0.1c-0.1,0.1-0.2,0.1-0.3,0.2c0,0-0.1,0.1-0.1,0.1c0,0,0,0,0,0c0,0,0,0,0,0
		c0,0-0.1,0.1-0.1,0.2c0,0.1,0,0.1,0,0.2c0,0,0,0,0,0c0,0,0.1,0.2,0.1,0.2c0,0,0,0,0,0c0,0,0,0,0,0c0,0,0.1,0.1,0.1,0.1c0,0,0,0,0,0
		c0,0,0.1,0.1,0.2,0.1c0.1,0,0.2,0.1,0.3,0.1c0.1,0,0.3,0,0.4,0c0.1,0,0.3-0.1,0.4-0.2C100.2,36.6,100.3,36.5,100.3,36.3z"/>
	<path class="st0" d="M69.3,78.3c0.1-0.6-0.1-1.1-0.6-1.4c-0.2-0.1-0.4-0.2-0.6-0.2c-0.2-0.2-0.5-0.3-0.7-0.3
		c-0.8,0-1.6,0.6-2.1,1.2c-0.4,0.7-0.5,1.7,0.2,2.2c0.4,0.4,1,0.4,1.6,0.4c0.5-0.1,1-0.3,1.4-0.7C68.9,79.2,69.2,78.8,69.3,78.3z"/>
	<g>
		<path class="st0" d="M108.3,133.3C108.3,133.3,108.3,133.3,108.3,133.3C108.4,133.3,108.4,133.3,108.3,133.3
			C108.3,133.3,108.3,133.3,108.3,133.3C108.3,133.3,108.3,133.3,108.3,133.3z"/>
		<path class="st0" d="M113.7,128.4c0.2-0.8,0.4-1.7,0.3-2.6c-0.1-0.6-0.9-0.7-1.3-0.7c-0.9,0.1-1.7,0.4-2.4,0.9
			c-0.5,0.2-1,0.5-1.4,0.8c-1.4,1.1-2.7,2.8-3.2,4.6c-0.2,0.7-0.2,1.6,0.1,2.3c0.4,0.8,1.3,1.3,2.2,1.3c2.1,0.1,3.5-1.7,4.4-3.4
			C112.9,130.6,113.4,129.5,113.7,128.4z M108.5,133.3c0,0-0.1,0-0.1,0C108.4,133.3,108.4,133.3,108.5,133.3c-0.1,0-0.1,0-0.1,0
			c0,0,0,0,0,0c0,0,0,0,0,0c0,0,0,0,0,0c0,0,0,0,0,0c0,0,0,0,0,0c0,0,0,0,0,0c0,0,0,0-0.1,0c0,0,0,0,0,0c-0.1,0-0.1-0.1-0.2-0.1
			c0,0,0,0,0,0c0,0,0,0,0,0c0,0-0.1-0.1-0.1-0.1c0,0,0,0,0,0c0,0,0,0,0,0c-0.1-0.1-0.1-0.2-0.2-0.3c0,0,0,0,0,0c0,0,0,0,0,0
			c0-0.1,0-0.1,0-0.2c0.2,0.1,0.4,0.1,0.5,0.1c0.1,0,0.2,0,0.3,0c0.1,0.1,0.3,0.3,0.5,0.3c-0.1,0-0.1,0.1-0.2,0.1c0,0,0,0,0,0
			c0,0,0,0-0.1,0C108.6,133.2,108.5,133.2,108.5,133.3z"/>
	</g>
	<path class="st3" d="M153.1,136.2c6.6-16.6,7.6-43.8,7.6-44.9c0.7-7.2,2-14.3,2.9-21.4c0.8-6.2,5.4-29.4,1.7-46.7
		c-0.9-4-4.6-8.4-8.1-10.6c-0.2-0.1-0.4-0.3-0.6-0.4c13.7,19.8-12,51-12.3,78.1c-0.3,27.1-23,64-68.6,62.9
		c14.2,6.9,34.6,9.2,35.8,9.2c14.6,0.1,22.5-4.4,23.4-5.1C136.2,156.1,148.1,148.5,153.1,136.2z"/>
</g>
</svg>
