<?xml version="1.0" encoding="utf-8"?>
<!-- Generator: Adobe Illustrator 25.2.1, SVG Export Plug-In . SVG Version: 6.00 Build 0)  -->
<svg version="1.1" id="Layer_2" xmlns="http://www.w3.org/2000/svg" xmlns:xlink="http://www.w3.org/1999/xlink" x="0px" y="0px"
	 viewBox="0 0 200 200" style="enable-background:new 0 0 200 200;" xml:space="preserve">
<style type="text/css">
	.st0{fill:#3C7535;}
	.st1{opacity:0.42;fill:#3C7535;}
	.st2{opacity:0.42;}
	.st3{opacity:0.5;fill:#226618;}
	.st4{fill:#C7D642;}
	.st5{fill:#EAE787;}
	.st6{fill:#EBE558;}
	.st7{fill:#864C36;}
	.st8{fill:#B96B4F;}
	.st9{opacity:0.7;fill:#B96B4F;}
	.st10{fill:#80BBE6;}
	.st11{fill:#CECC78;}
	.st12{opacity:0.6;fill:#CECC78;}
</style>
<g>
	<path class="st0" d="M48.6,125.4c6.3-6.6,12.3-13.6,17.8-20.9c9.9-13.2,18-27.6,25.2-42.4c7.5-15.6,14-31.7,20.5-47.8
		c5.2-12.9,9.2-24.4,14.8-37.1c-1.8-5.4-9.9-7.2-13.5-7.2c-3.6,0-18.7,3.9-26.1,11.5C86.8-18,41,31.2,38.1,34.2
		C34.8,37.6,18.8,50.6,15.7,78c-2.1,18.3,5,26.5,6.9,28.6C27.3,111.7,37.7,119.8,48.6,125.4z"/>
	<g>
		<path class="st1" d="M122.6-16.6c0.5,0.3,1.1,0.5,1.6,0.7c0.6-1.3,1.1-2.7,1.7-4c-0.4-0.2-0.8-0.5-1.3-0.7
			c-3.1-1.5-6.1-1.9-6.6-0.8C117.4-20.3,119.5-18.1,122.6-16.6z"/>
		<g class="st2">
			<path class="st0" d="M81.5,14.8c0.1-0.4,0.3-0.7,0.3-1.1c0-0.4-0.2-0.6-0.6-0.8c-0.3-0.1-0.7-0.1-1-0.1c-0.1,0-0.2-0.1-0.3-0.1
				c-0.4,0-0.8,0.1-1.1,0.4c0,0-0.1,0.1-0.1,0.1c0,0,0,0,0,0c-0.5,0.1-0.9,0.4-1.3,0.8c-0.2,0.2-0.5,0.5-0.6,0.9c0,0,0,0.1,0,0.1
				c0,0,0,0.1,0,0.1c-0.2,0.5-0.3,1-0.2,1.5c0.1,0.5,0.5,0.9,1,1.1c0.5,0.3,1.1,0.2,1.6,0.1c0.9-0.3,1.5-1.1,2-1.9
				C81.2,15.6,81.4,15.2,81.5,14.8z"/>
			<polygon class="st0" points="78.7,15.6 78.7,15.7 78.7,15.7 78.7,15.6 78.7,15.6 			"/>
		</g>
		<path class="st1" d="M78.4,23.2c0,0,0-0.1,0-0.1c0,0,0,0,0,0c0,0,0-0.1,0-0.1c0,0,0-0.1,0-0.1c0,0,0,0,0-0.1c0,0,0-0.1,0-0.1
			c0,0-0.1-0.1-0.1-0.1c0,0-0.1-0.1-0.1-0.1c-0.1,0-0.1-0.1-0.2-0.1c-0.1,0-0.1,0-0.2,0c-0.1,0-0.1,0-0.2,0c-0.1,0-0.1,0-0.2,0.1
			c-0.1,0-0.1,0.1-0.2,0.1l-0.1,0.1c-0.1,0-0.1,0.1-0.1,0.2c0,0-0.1,0.1-0.1,0.1c0,0,0,0,0,0.1c0,0.1-0.1,0.1-0.1,0.2
			c0,0,0,0.1,0,0.1c0,0.1,0,0.1,0,0.2c0,0.1,0.1,0.1,0.1,0.2c0,0,0.1,0.1,0.1,0.1c0.1,0,0.2,0.1,0.3,0.1c0.1,0,0.1,0,0.2,0
			c0.1,0,0.2,0,0.3-0.1c0.1,0,0.1-0.1,0.2-0.1c0.1-0.1,0.2-0.1,0.2-0.2c0,0,0-0.1,0.1-0.1C78.3,23.4,78.4,23.3,78.4,23.2z"/>
		<g class="st2">
			<path class="st0" d="M59.4,71.8c0.2-0.5,0.4-1,0.2-1.5c-0.1-0.6-0.5-1.2-1.1-1.5c-0.1,0-0.2-0.1-0.2-0.1c-0.3-0.5-1-0.6-1.6-0.5
				c-0.3,0.1-0.7,0.2-1,0.3c-0.2,0.1-0.4,0.2-0.6,0.3c-0.1,0-0.1,0.1-0.2,0.1c0,0-0.1,0.1-0.1,0.1c0,0-0.1,0.1-0.1,0.1
				c-0.7,0.5-1.3,1.1-1.6,1.9c-0.4,0.8-0.5,1.6-0.2,2.4c0.1,0.4,0.4,0.8,0.7,1.1c0.5,0.5,1.2,0.6,1.9,0.5c1.2-0.1,2.3-0.9,3-1.8
				C58.9,72.8,59.2,72.3,59.4,71.8z"/>
			<path class="st0" d="M54.7,69.1C54.6,69.2,54.6,69.2,54.7,69.1L54.7,69.1z"/>
			<path class="st0" d="M54.7,69.1C54.7,69.1,54.7,69.1,54.7,69.1C54.7,69.1,54.7,69.1,54.7,69.1C54.7,69.1,54.7,69.1,54.7,69.1z"/>
		</g>
		<path class="st1" d="M48.6,89.5c0-0.1,0-0.2,0-0.2c0-0.1-0.1-0.1-0.2-0.2C48.3,89,48.2,89,48.1,89c-0.1,0-0.1,0-0.2,0
			c-0.1,0-0.3,0-0.4,0.1c-0.1,0-0.1,0.1-0.2,0.1c-0.1,0.1-0.2,0.1-0.3,0.3c0,0.1-0.1,0.2-0.1,0.2c0,0.1-0.1,0.1-0.1,0.2
			c0,0.1,0,0.2,0,0.2c0,0.1,0.1,0.1,0.2,0.2c0.1,0.1,0.2,0.1,0.2,0.1c0.1,0,0.1,0,0.2,0c0.1,0,0.3,0,0.4-0.1c0.1,0,0.1-0.1,0.2-0.1
			c0.1-0.1,0.2-0.1,0.2-0.2c0-0.1,0.1-0.2,0.1-0.2C48.6,89.6,48.6,89.6,48.6,89.5z"/>
		<path class="st1" d="M60.5,44c0.1-0.3,0.1-0.6,0.1-0.9c0-0.1,0-0.1,0-0.2c0,0,0-0.1,0-0.1c0,0-0.1-0.1-0.1-0.1
			c-0.1-0.1-0.1-0.1-0.2-0.1c-0.1,0-0.2-0.1-0.4-0.1c-0.1,0-0.1,0-0.2,0c-0.1,0-0.2,0.1-0.3,0.1c-0.1,0.1-0.3,0.2-0.4,0.3
			c-0.1,0.1-0.1,0.1-0.2,0.2c0,0.1-0.1,0.2-0.1,0.3c0,0,0,0.1,0,0.1c0,0,0,0,0,0.1c0,0.1,0,0.2,0,0.2c0,0.1,0,0.1,0,0.2
			c0,0,0,0.1,0.1,0.2c0,0,0,0,0,0c0,0,0,0.1,0.1,0.1c0.1,0.1,0.1,0.1,0.2,0.2c0.1,0,0.2,0.1,0.3,0.1c0.2,0,0.3,0,0.5-0.1
			c0.1,0,0.3,0,0.4-0.1C60.3,44.2,60.5,44.1,60.5,44z"/>
		<path class="st1" d="M43.5,53.9C43.5,53.9,43.5,53.9,43.5,53.9C43.5,53.9,43.5,53.9,43.5,53.9c0-0.1,0-0.1,0-0.2
			c0-0.1,0-0.1,0-0.2c0-0.1,0-0.1-0.1-0.1c0,0-0.1,0-0.1-0.1c-0.1,0-0.1-0.1-0.2-0.1c0,0-0.1,0-0.1,0c-0.1,0-0.2,0-0.2,0
			c0,0,0,0,0,0c0,0,0,0,0,0c-0.1,0-0.2,0-0.3,0.1c-0.1,0-0.1,0.1-0.2,0.1c-0.1,0-0.1,0.1-0.1,0.2c0,0.1-0.1,0.1,0,0.2
			c0,0.1,0,0.1,0,0.2c0,0.1,0.1,0.1,0.2,0.2c0.1,0,0.1,0.1,0.2,0.1c0,0,0,0,0,0c0.1,0,0.1,0,0.2,0c0,0,0,0,0,0c0.1,0,0.1,0,0.2,0
			c0,0,0,0,0,0c0,0,0,0,0,0c0,0,0,0,0,0c0,0,0.1,0,0.2,0c0,0,0,0,0,0c0.1,0,0.1,0,0.2-0.1c0,0,0,0,0,0c0,0,0.1-0.1,0.1-0.1
			c0,0,0,0,0,0C43.4,54.1,43.4,54.1,43.5,53.9C43.4,54,43.4,54,43.5,53.9C43.4,54,43.5,54,43.5,53.9z"/>
	</g>
	<path class="st0" d="M92.7-8c-0.9-1-2.6-0.4-3.6,0.2c-0.6,0.4-1,0.8-1.4,1.3c-0.8,0.5-1.4,1.2-1.8,2c-0.5,1-0.5,2.6,0.6,3.2
		c1.1,0.6,2.5,0,3.4-0.6c1-0.7,1.9-1.6,2.6-2.6C93.1-5.5,93.6-7.2,92.7-8z"/>
	<path class="st0" d="M87.8-2.5C87.7-2.5,87.7-2.5,87.8-2.5C87.7-2.5,87.7-2.5,87.8-2.5c-0.1,0-0.1,0-0.2-0.1c0,0,0,0,0,0
		c0-0.1-0.1-0.1-0.1-0.2c0,0,0-0.1,0-0.1c0,0,0-0.1,0-0.1c0,0,0,0,0,0c0.2,0.2,0.5,0.2,0.7,0.3c0,0,0,0,0,0c0,0,0,0,0,0
		c0,0-0.1,0-0.1,0C87.9-2.5,87.8-2.5,87.8-2.5z"/>
	<path class="st0" d="M76.1,5.1c0-0.1,0-0.1,0-0.2c0,0,0,0,0,0c0,0,0-0.1,0.1-0.1c0-0.1,0-0.2,0-0.2c0-0.1,0-0.1-0.1-0.1
		c0,0-0.1-0.1-0.1-0.1c0,0-0.1-0.1-0.2-0.1c-0.1,0-0.2-0.1-0.3-0.1c0,0,0,0,0,0c-0.1,0-0.2,0-0.2,0c0,0-0.1,0-0.1,0c0,0-0.1,0-0.1,0
		c0,0,0,0,0,0c0,0-0.1,0-0.1,0c-0.1,0-0.2,0.1-0.3,0.1c-0.1,0.1-0.2,0.1-0.3,0.2c0,0-0.1,0.1-0.1,0.2c0,0,0,0,0,0c0,0,0,0,0,0
		c0,0-0.1,0.1-0.1,0.2c0,0.1,0,0.1,0,0.2c0,0,0,0,0,0c0,0,0.1,0.2,0.1,0.2c0,0,0,0,0,0c0,0,0,0,0,0c0,0,0.1,0.1,0.1,0.1c0,0,0,0,0,0
		c0.1,0,0.1,0.1,0.2,0.1c0.1,0,0.2,0.1,0.3,0.1c0.2,0,0.3,0,0.5,0c0.2,0,0.3-0.1,0.4-0.2C75.9,5.4,76,5.3,76.1,5.1z"/>
	<path class="st0" d="M43.9,48.7c0.1-0.6-0.1-1.1-0.6-1.5c-0.2-0.1-0.4-0.2-0.6-0.2c-0.2-0.2-0.5-0.3-0.7-0.3
		c-0.9,0-1.7,0.6-2.1,1.3c-0.5,0.7-0.5,1.7,0.2,2.3c0.5,0.4,1.1,0.5,1.6,0.4c0.6-0.1,1.1-0.3,1.5-0.7C43.5,49.6,43.8,49.2,43.9,48.7
		z"/>
</g>
<g>
	<path class="st0" d="M188.3,48.7c-0.9-4.2-4.7-8.7-8.5-11c-0.2-0.1-0.4-0.3-0.7-0.4c-1.3-1.2-6.6-9.9-18.3-5.4
		c-6.5,14.9,1.6,32.3-4.5,47.4c-6.5,16.1-13.1,32.1-21,47.6c-7.4,14.6-15.9,28.6-26.1,41.4c-4.3,5.4-22.7-10.3-27.4-5.3
		c7.2,32.3,49.3,30.1,50.5,30.1c15.1,0.1,23.4-4.5,24.3-5.3c1.5-1.2,13.9-9.1,19-21.8c6.9-17.2,7.9-45.5,7.9-46.6
		c0.7-7.4,2-14.8,3-22.2C187.4,90.7,192.1,66.7,188.3,48.7z"/>
	<g>
		<path class="st1" d="M172.8,38.9c-0.5,1.1-0.9,2.1-1.3,3.2c1.4,0.2,2.4,0,2.7-0.6C174.5,40.9,173.9,39.9,172.8,38.9z"/>
		<path class="st1" d="M109.1,171.5c0,0,0-0.1,0-0.1c0-0.3,0-0.5-0.1-0.8c-0.1-0.3-0.4-0.6-0.7-0.6c-0.1,0-0.2,0-0.3,0c0,0,0,0,0,0
			c-0.7,0.9-1.4,1.8-2.2,2.7c0.1,0.2,0.2,0.4,0.3,0.6c0.2,0.2,0.4,0.3,0.7,0.4c0.3,0,0.6,0,0.9-0.2c0.4-0.2,0.7-0.4,1-0.8
			c0.2-0.1,0.3-0.2,0.4-0.4l0.1-0.2C109.2,171.9,109.2,171.8,109.1,171.5C109.1,171.6,109.1,171.6,109.1,171.5z"/>
	</g>
	<g>
		<path class="st0" d="M129.2,163C129.2,163,129.3,163,129.2,163C129.3,163,129.3,163,129.2,163C129.3,163,129.2,163,129.2,163
			C129.2,163,129.2,163,129.2,163z"/>
		<path class="st0" d="M134.8,157.9c0.2-0.8,0.4-1.8,0.3-2.7c-0.1-0.6-0.9-0.8-1.4-0.7c-0.9,0.1-1.7,0.4-2.5,0.9
			c-0.5,0.2-1,0.5-1.4,0.8c-1.5,1.2-2.8,2.9-3.3,4.7c-0.2,0.8-0.2,1.6,0.1,2.3c0.4,0.8,1.4,1.3,2.3,1.4c2.1,0.1,3.7-1.8,4.6-3.5
			C134,160.2,134.5,159.1,134.8,157.9z M129.4,163c0,0-0.1,0-0.1,0C129.3,163,129.3,163,129.4,163c-0.1,0-0.1,0-0.1,0c0,0,0,0,0,0
			c0,0,0,0,0,0c0,0,0,0,0,0c0,0,0,0,0,0c0,0,0,0,0,0c0,0,0,0,0,0c0,0-0.1,0-0.1,0c0,0,0,0,0,0c-0.1,0-0.1-0.1-0.2-0.1c0,0,0,0,0,0
			c0,0,0,0,0,0c0,0-0.1-0.1-0.1-0.1c0,0,0,0,0,0c0,0,0,0,0,0c-0.1-0.1-0.1-0.2-0.2-0.3c0,0,0,0,0,0c0,0,0,0,0,0c0-0.1,0-0.1,0-0.2
			c0.2,0.1,0.4,0.1,0.5,0.1c0.1,0,0.2,0,0.3,0c0.1,0.1,0.3,0.3,0.5,0.3c-0.1,0-0.1,0.1-0.2,0.1c0,0,0,0,0,0c0,0,0,0-0.1,0
			C129.5,162.9,129.5,162.9,129.4,163z"/>
	</g>
	<path class="st3" d="M188.3,48.7c-0.9-4.2-4.7-8.7-8.5-11c-0.2-0.1-0.4-0.3-0.7-0.4c14.2,20.6-12.4,52.9-12.8,81
		c-0.3,27.9-23.6,65.9-70.4,65.3c-0.1,0.1-0.2,0.2-0.2,0.2c14.7,7,35.4,9.3,36.6,9.2c15.1,0.1,23.4-4.5,24.3-5.3
		c1.5-1.2,13.9-9.1,19-21.8c6.9-17.2,7.9-45.5,7.9-46.6c0.7-7.4,2-14.8,3-22.2C187.4,90.7,192.1,66.7,188.3,48.7z"/>
</g>
<path class="st4" d="M94.1,104.9c4.5-5.8,9.4-10.7,14.3-15.6c5-5.1,10.1-10.3,14.9-15.9c4.8-5.7,9.3-12,13.8-18.4
	c4.2-5.9,8.4-12,13.2-16.5c4.5-4.2,9.6-7.1,14.7-7.4c2.3-0.1,4.6,0.3,6.8,1.3c2.1,1.1,4.3,3,5.3,6.2c1.7,5.3,1.1,11.6,0.1,17.4
	c-0.8,4.4-2,8.6-2.8,13c-1.3,7.3-1.6,14.6-1.5,22c0.2,17.8-1.1,36.2-6.3,53.1c-2.2,7.3-5.2,14.4-8.7,20.4c-3.1,5.2-6.7,9.6-10.6,13
	c-9.1,7.9-19.7,11-29.7,10.7c-5.3-0.2-10.5-1.3-15.5-3.5c-4.4-1.9-8.7-4.5-12.4-8.4c-3.3-3.4-6.2-7.8-8.2-13.2
	c-2-5.5-3-11.9-2.7-18.5C79.5,128.7,86.3,115,94.1,104.9z"/>
<path class="st5" d="M95.2,105.3c4.2-5.4,8.9-10,13.5-14.7c4.7-4.9,9.5-9.7,14-15c4.5-5.3,8.8-11.3,13-17.3
	c4-5.6,7.9-11.3,12.5-15.6c4.3-3.9,9-6.7,13.9-7c2.2-0.1,4.4,0.2,6.4,1.2c2,1,4.1,2.8,5,5.9c1.6,5,1.1,10.9,0.1,16.4
	c-0.8,4.1-1.9,8.1-2.6,12.2c-1.2,6.9-1.5,13.8-1.4,20.7c0.2,16.8-1.1,34.1-5.9,50c-2.1,6.9-4.9,13.5-8.2,19.2
	c-2.9,4.9-6.3,9.1-10,12.3c-8.6,7.5-18.6,10.4-28,10.1c-5-0.2-9.9-1.2-14.6-3.3c-4.1-1.8-8.2-4.3-11.7-7.9
	c-3.1-3.2-5.9-7.3-7.7-12.4c-1.9-5.2-2.8-11.2-2.5-17.5C81.3,127.7,87.7,114.7,95.2,105.3z"/>
<path class="st6" d="M97.4,104.9c4-5,8.3-9.3,12.5-13.7c4.4-4.5,8.8-9,13.1-14c4.2-5,8.1-10.6,12.1-16.1c3.7-5.2,7.3-10.6,11.6-14.5
	c4-3.7,8.4-6.2,12.9-6.5c2-0.1,4.1,0.2,5.9,1.2c1.9,0.9,3.8,2.6,4.7,5.4c1.5,4.6,1,10.2,0.1,15.3c-0.7,3.8-1.8,7.5-2.4,11.4
	c-1.1,6.4-1.4,12.8-1.3,19.3c0.1,15.6-1,31.7-5.5,46.5c-2,6.4-4.5,12.6-7.7,17.9c-2.7,4.6-5.8,8.4-9.3,11.4c-8,7-17.3,9.6-26,9.4
	c-4.6-0.2-9.2-1.2-13.6-3.1c-3.8-1.7-7.6-4-10.9-7.4c-2.9-3-5.5-6.8-7.2-11.6c-1.8-4.8-2.6-10.4-2.4-16.2
	C84.6,125.8,90.5,113.7,97.4,104.9z"/>
<path class="st4" d="M107.9,66.9c1.9-6.6,3-12.8,4.2-19c1.3-6.4,2.5-12.8,4.2-19.5c1.7-6.7,4-13.8,6.3-20.9
	c2.1-6.6,4.4-13.4,5.3-19.2c0.8-5.4,0.6-10.1-1.4-12.7c-0.9-1.2-2.2-2-3.8-2.2c-1.6-0.2-3.8,0.3-6.4,2.4c-4.2,3.4-8.2,8.6-11.6,13.7
	c-2.5,3.8-4.8,7.7-7.4,11.5c-4.3,6.3-9,12.2-13.9,18c-11.9,13.9-23.5,29-32.5,44.6c-3.9,6.8-7.3,13.7-9.8,20.1
	c-2.1,5.5-3.5,10.7-4.1,15.2c-1.3,10.5,1.2,17.9,5.7,22.4c2.4,2.4,5.4,3.9,9,4.6c3.1,0.6,6.7,0.5,10.9-0.8c3.7-1.1,7.8-3.2,12.3-6.5
	c4.5-3.4,9.2-8,13.4-13.3C98.4,92.5,104.6,78.5,107.9,66.9z"/>
<path class="st5" d="M107.2,66.7c1.8-6.3,2.8-12.1,4-17.9c1.2-6,2.3-12.1,3.9-18.4c1.6-6.3,3.8-13,5.9-19.7c2-6.3,4.1-12.6,5-18.1
	c0.8-5.1,0.6-9.5-1.3-12c-0.9-1.1-2-1.9-3.6-2c-1.5-0.2-3.6,0.3-6.1,2.2c-4,3.2-7.7,8.1-10.9,12.9c-2.4,3.6-4.5,7.2-7,10.8
	c-4.1,6-8.5,11.5-13.1,16.9C72.8,34.6,61.8,48.8,53.4,63.5c-3.7,6.4-6.9,12.9-9.2,19c-2,5.2-3.3,10.1-3.8,14.3
	c-1.3,9.9,1.1,16.9,5.3,21.1c2.2,2.2,5.1,3.7,8.5,4.3c3,0.5,6.3,0.5,10.3-0.7c3.5-1.1,7.4-3,11.6-6.1c4.3-3.2,8.6-7.5,12.7-12.5
	C98.3,90.9,104.1,77.7,107.2,66.7z"/>
<path class="st6" d="M106.4,65.4c1.6-5.8,2.6-11.2,3.7-16.6c1.1-5.6,2.2-11.2,3.7-17.1c1.5-5.9,3.5-12.1,5.5-18.3
	c1.9-5.8,3.9-11.7,4.6-16.8c0.7-4.8,0.5-8.9-1.2-11.1c-0.8-1-1.9-1.7-3.3-1.9c-1.4-0.1-3.4,0.3-5.6,2.1c-3.7,3-7.2,7.5-10.2,12
	c-2.2,3.3-4.2,6.7-6.5,10.1c-3.8,5.6-7.9,10.7-12.2,15.8C74.4,35.5,64.2,48.7,56.4,62.4c-3.4,6-6.4,12-8.6,17.7
	c-1.9,4.9-3.1,9.4-3.6,13.3c-1.2,9.2,1,15.7,5,19.6c2.1,2.1,4.7,3.4,7.9,4c2.8,0.5,5.9,0.4,9.6-0.7c3.2-1,6.9-2.8,10.8-5.7
	c4-3,8-7,11.8-11.6C98.1,87.8,103.6,75.6,106.4,65.4z"/>
<path class="st5" d="M128.3,164c-2.6,1.3-5.3,2-8,2.1c-2.7,0.1-5.4-0.5-8-1.5c-2.5-1-5-2.5-7-5c-2.3-2.9-3.6-7-4.4-11.5
	c-0.8-4.8-0.9-9.9-0.2-15c0.7-4.9,2.1-9.5,3.8-13.9c3-7.5,7-14.1,11.6-19.3c4.6-5.1,9.8-8.8,15.2-10.5c2.8-0.9,5.5-1.2,8.3-1
	c2.7,0.2,5.4,0.8,7.7,2.6c2.5,1.9,4.3,5.4,5.1,9.7c0.1,0.6,0.2,1.1,0.3,1.7c0.8,7.4-0.1,15.4-1.7,22.6c-1,4.7-2.3,9.4-3.8,13.8
	c-1.3,4-2.9,7.7-4.8,11.1C138.5,156.5,133.5,161.4,128.3,164z"/>
<path class="st7" d="M145.3,137.2c0.9-2.8,1.7-5.7,2.5-8.6c1.1-4,2-8,2.5-12.2c0.3-2.1,0.4-4.3,0.6-6.4c0.2-2.1,0.3-4.3,0.2-6.4
	c-0.1-1.8-0.3-3.5-0.7-5.1c-1.3-5.7-4.5-9.3-8.3-10.5c-2.6-0.8-5.3-1-8-0.7c-5.3,0.6-10.7,3.3-15.5,7.7c-4.8,4.3-9.1,10.2-12.5,17.1
	c-3.8,7.7-6.6,16.7-6.4,26.1c0.1,4.8,0.9,9.7,2.5,13.7c1.3,3.4,3.4,5.8,5.7,7.5c2.3,1.6,5,2.5,7.6,3.1c2.6,0.5,5.2,0.4,7.9-0.3
	c5.3-1.4,10.4-5.2,14.6-10.7c2.1-2.8,4-6,5.6-9.6C144.2,140.2,144.7,138.7,145.3,137.2z"/>
<path class="st8" d="M127.2,159.3c-2.5,1.2-5.1,1.9-7.6,2c-2.6,0.1-5.1-0.5-7.6-1.5c-2.4-0.9-4.7-2.3-6.6-4.7
	c-2.2-2.7-3.4-6.6-4.2-10.8c-0.8-4.5-0.9-9.4-0.2-14.1c0.6-4.6,1.9-9,3.6-13.1c2.8-7.1,6.6-13.4,11-18.2c4.4-4.8,9.3-8.3,14.4-9.9
	c2.6-0.8,5.2-1.1,7.8-0.9c2.5,0.2,5.1,0.7,7.3,2.4c2.4,1.8,4,5.1,4.8,9.1c0.1,0.5,0.2,1.1,0.3,1.6c0.7,6.9-0.1,14.5-1.6,21.4
	c-1,4.5-2.2,8.8-3.6,13.1c-1.2,3.8-2.7,7.3-4.5,10.5C136.8,152.3,132.2,156.9,127.2,159.3z"/>
<path class="st9" d="M150.1,101.2c-0.1-0.5-0.2-1.1-0.3-1.6c-0.8-4-2.4-7.3-4.8-9.1c-2.2-1.7-4.7-2.2-7.2-2.4
	c1.6,0.8,2.9,2.2,3.9,4.4c0.9,2.2,1.3,4.8,1.4,7.5c0.1,3.5-0.3,7-1,10.4c-1.6,6.9-4.7,13-8.3,17.8c-1.4,1.9-3,3.7-4.6,5.2
	c-1.4,1.2-2.8,2.3-4.3,3.2c-3.1,1.8-6.3,3.1-9.5,3c-2.9,0-5.8-1.2-7.7-4.4c-1-1.7-1.7-3.9-2-6.2c-0.5-3-0.5-6.2-0.1-9.3
	c0.9-6.3,3.5-11.8,6.6-16.3c0.9-1.4,1.9-2.6,2.8-3.8c-4.2,4.8-7.8,10.8-10.6,17.7c-1.6,4.1-3,8.5-3.6,13.1
	c-0.6,4.8-0.6,9.6,0.2,14.1c0.7,4.2,2,8.1,4.2,10.8c1.9,2.4,4.2,3.8,6.6,4.7c2.5,1,5,1.5,7.6,1.5c2.5-0.1,5.1-0.8,7.6-2
	c4.9-2.5,9.6-7,13.2-13.2c1.8-3.2,3.3-6.7,4.5-10.5c1.4-4.2,2.6-8.6,3.6-13.1C150,115.7,150.9,108.2,150.1,101.2z"/>
<path class="st8" d="M150.1,101.2c-0.1-0.5-0.2-1.1-0.3-1.6c0-0.1-0.1-0.3-0.1-0.4c0.1,3.9-0.3,7.9-0.9,11.8
	c-0.7,4.5-1.6,8.9-2.9,13.1c-1.7,5.7-3.9,11.1-6.6,15.8c-1.3,2.3-2.8,4.5-4.4,6.4c-1.5,1.8-3.2,3.3-4.9,4.6c-3.5,2.5-7.3,4-11,4.3
	c-3.7,0.3-7.4-0.6-10.6-3.1c-1.6-1.2-3.1-2.8-4.2-4.9c-1.1-2-1.9-4.5-2.4-7.1c-1-5.6-0.7-11.6,0.6-17.4c-0.7,2.4-1.3,4.9-1.6,7.4
	c-0.6,4.8-0.6,9.6,0.2,14.1c0.7,4.2,2,8.1,4.2,10.8c1.9,2.4,4.2,3.8,6.6,4.7c2.5,1,5,1.5,7.6,1.5c2.5-0.1,5.1-0.8,7.6-2
	c4.9-2.5,9.6-7,13.2-13.2c1.8-3.2,3.3-6.7,4.5-10.5c1.4-4.2,2.6-8.6,3.6-13.1C150,115.7,150.9,108.2,150.1,101.2z"/>
<path class="st8" d="M133.3,93.5c-0.2-1.7-1.1-2.6-2.2-2.8c-1.4-0.2-2.8,0.4-4.2,1.2c-0.4,0.2-0.8,0.5-1.2,0.8
	c-0.6,0.4-1.2,0.9-1.7,1.4c-1.1,1.2-2.4,3.1-2.7,5.2c-0.4,3.4,2.7,3.6,4.1,3.4c1-0.1,1.9-0.6,2.9-1.2c1.2-0.8,2.5-1.8,3.5-3.3
	C132.8,97,133.6,95.3,133.3,93.5z"/>
<g>
	<path class="st10" d="M118.2,102.1C118.2,102.1,118.2,102.1,118.2,102.1C118.2,102.1,118.2,102.2,118.2,102.1
		C118.2,102.2,118.2,102.1,118.2,102.1z"/>
	<path class="st8" d="M118.9,99.8c-0.6-0.7-1.5-0.5-2.3,0c-0.7,0.5-1.4,1.7-1.4,3c-0.1,0.3-0.1,0.7,0,1c0.2,1,1,1,1.6,0.7
		c0.6-0.3,1.3-0.8,1.7-1.6C119.1,102.2,119.6,100.6,118.9,99.8z"/>
</g>
<path class="st11" d="M100.1,76.1c3-7.6,4.1-15.5,2.1-21.7c-2.5-7.8-9.1-12.2-17.2-10c-9,2.5-17.7,11.6-23.3,21.4
	c-9.6,16.7-9.5,39.3,6.3,40C80.5,106.4,94.3,90.9,100.1,76.1z"/>
<path class="st12" d="M95.9,74.8c2.9-7.1,4.1-14.2,2.5-19.9c-1.9-7-7.6-10.9-14.8-8.6c-8,2.6-15.8,11.1-21.1,20.3
	c-8.9,15.5-9.5,36.1,4.2,36.2C77.8,103,90.4,88.5,95.9,74.8z"/>
</svg>
