<?xml version="1.0" encoding="utf-8"?>
<!-- Generator: Adobe Illustrator 25.2.1, SVG Export Plug-In . SVG Version: 6.00 Build 0)  -->
<svg version="1.1" id="Layer_2" xmlns="http://www.w3.org/2000/svg" xmlns:xlink="http://www.w3.org/1999/xlink" x="0px" y="0px"
	 viewBox="0 0 200 200" style="enable-background:new 0 0 200 200;" xml:space="preserve">
<style type="text/css">
	.st0{fill:#C34A37;}
	.st1{fill:#DF5B3F;}
	.st2{fill:#ED7B63;}
</style>
<path class="st0" d="M110.2,85.8l-0.7,2.2c-0.2,0.6-0.2,1.2-0.1,1.8l3.2,14.4c0.1,0.6,0.6,1.2,1.1,1.4l2.1,1L110.2,85.8z"/>
<path class="st0" d="M87.4,93.3l2.4-0.8c0.4-0.1,0.8,0,1,0.3l7.2,10.9c0.3,0.4,0.4,0.9,0.3,1.4l-0.3,2.5L87.4,93.3z"/>
<path class="st0" d="M76.4,79.3l0.8-0.8c0.2-0.2,0.4-0.3,0.6-0.4l2.1-0.7c0.3-0.1,0.7-0.1,1.1,0L95.7,84c0.4,0.2,0.7,0.5,0.8,0.9
	l0.3,1L76.4,79.3z"/>
<path class="st0" d="M73.7,62.8l5.3,8.8c0.3,0.5,0.4,1,0.3,1.6l-0.3,2.2l-8.5-12.1l0.7-0.7c0.1-0.1,1.1-0.2,1.7-0.2
	C73.1,62.3,73.5,62.5,73.7,62.8z"/>
<g id="Group_803_1_" transform="translate(41.959 36.886)">
	<g>
		<g id="Group_799_1_">
			<path class="st1" d="M30.6,28.3c-0.5-0.9-1-1.7-1.5-2.6c0-0.1-0.1-0.1-0.2,0c-5.1,3.3-10.6,6.9-16.8,10.3
				c-7.4,4.1-15.5,5-19.7,7.4c-2.7,1.6-1.6,6.1-1.1,9.3c0.7,4.2,4.3,8.8,8.3,7.3c5.5-1.9,13.3-6.4,20.9-11.6
				c5.5-3.7,11.3-7.1,16.5-9.8C34.8,35.1,32.6,31.7,30.6,28.3z"/>
		</g>
	</g>
	<g>
		<g id="Group_800_1_">
			<path class="st0" d="M35.8,36.8c-7.7,4.2-16.6,9.4-25,14.8c-9.7,6.1-15.3,9.8-19.6,1.1l0,0c0.7,4.2,4.3,8.8,8.3,7.3
				c5.5-1.9,13.3-6.4,20.9-11.6c5.5-3.7,11.3-7.1,16.5-9.8C36.6,37.9,36.2,37.3,35.8,36.8z"/>
		</g>
	</g>
	<g>
		<g id="Group_801_1_">
			<path class="st2" d="M33.3,32.7c-7.5,4.5-15.7,9.6-23.2,13.7c-5.9,3.2-12.3,5.4-18.9,6.5c0.1,0.7,0.3,1.5,0.6,2.1
				c0.5,1.4,8.6-1,18.6-6.2c8.1-4.2,16.7-9.4,24.1-13.9C34.2,34.2,33.8,33.5,33.3,32.7z"/>
		</g>
	</g>
	<g>
		<g id="Group_802_1_">
			<path class="st2" d="M30.7,28.3c-7,4.3-14.5,9.1-21.4,13c-7.5,4.3-16.8,5.7-19.1,6c0.1,0.7,0.3,1.5,0.6,2.1
				c0.5,1.4,8.6-1,18.6-6.2c7.5-3.9,15.3-8.8,22.3-13.2C31.3,29.5,31,28.9,30.7,28.3z"/>
		</g>
	</g>
</g>
<g id="Group_808_1_" transform="translate(35.438 50.616)">
	<g>
		<g id="Group_804_1_">
			<path class="st1" d="M53,42.4c-12.4,6-27,14.5-37.9,16.6c-6,1-12.1,1.6-18.2,1.7c-0.2,0-0.4,0-0.6,0.1c-0.9,0.3-1.4,1.2-1.1,2.1
				l3.7,13.6c0.2,0.9,1.1,1.4,2,1.3c4-0.5,14.9-2.4,18.9-3.5C31.6,70.9,49,62.4,62.7,57C59.4,52.2,56.1,47.3,53,42.4z"/>
		</g>
	</g>
	<g>
		<g id="Group_805_1_">
			<path class="st0" d="M61.2,54.8c-15,6-25.8,14-41.7,17.9c-6.2,1.5-19.4,5-21.2,1.9l0.5,1.8c0.2,0.9,1.1,1.4,2,1.3
				c4-0.5,14.9-2.4,18.9-3.5C31.6,70.9,49,62.4,62.7,57C62.2,56.3,61.7,55.6,61.2,54.8z"/>
		</g>
	</g>
	<g>
		<g id="Group_806_1_">
			<path class="st2" d="M58.3,50.5c-0.2-0.3-0.6-0.4-0.9-0.3c-12.7,5.9-28.7,15.2-40.5,17.5c-5.3,1-16,1.8-19.1,2.1
				c-0.4,0-0.7,0.5-0.6,0.9l0.2,0.6c0.1,0.3,0.4,0.5,0.7,0.5c2.7-0.1,14.8-0.4,20.1-1.7C32.1,66.5,46.3,58,58.6,52.4
				c0.4-0.2,0.5-0.7,0.3-1C58.7,51.1,58.5,50.8,58.3,50.5z"/>
		</g>
	</g>
	<g>
		<g id="Group_807_1_">
			<path class="st2" d="M54.6,45c-12.6,6-28.2,15.4-39.9,17.7c-6.2,1.1-19.2,1.6-19.2,1.6l0.5,1.9c0,0,13.7-0.1,19.6-1.5
				c13.9-3.6,27.8-12.4,40-18.2C55.3,46,55,45.5,54.6,45z"/>
		</g>
	</g>
</g>
<g id="Group_813_1_" transform="translate(14.5 59.705)">
	<g>
		<g id="Group_809_1_">
			<path class="st1" d="M80.3,25.4c-6-2.1-11.9-4.3-17.8-6.7c-0.7,0.4-1.3,0.8-1.9,1.2C50,26.5,33.6,50,20.3,58.1
				c-5.1,3-10.4,5.5-15.9,7.6C4.3,65.8,4.1,65.9,4,66c-0.7,0.6-0.9,1.6-0.3,2.4l7.9,11c0.5,0.7,1.5,0.9,2.3,0.5
				c3.5-1.9,12.8-7.1,15.9-9.5c12.3-9,30.1-28.8,41.1-36.8c2.4-1.8,6.6-4.5,11.7-7.4C81.7,25.9,81,25.7,80.3,25.4z"/>
		</g>
	</g>
	<g>
		<g id="Group_810_1_">
			<path class="st0" d="M80.3,25.4c-0.2-0.1-0.4-0.1-0.6-0.2c-3,1.7-5.7,3.3-7.9,4.7c-19.4,12.8-26.2,27.5-43,39
				c-4.9,3.5-15.8,11.1-18.4,8.9c0.3,0.5,0.7,1.1,1.1,1.6c0.5,0.7,1.5,0.9,2.3,0.5c3.5-1.9,12.8-7.1,15.9-9.5
				c12.3-9,30.1-28.8,41.1-36.8c2.4-1.8,6.6-4.5,11.7-7.4C81.7,25.9,81,25.7,80.3,25.4z"/>
		</g>
	</g>
	<g>
		<g id="Group_811_1_">
			<path class="st2" d="M73.5,23c-3.4,1.7-6.4,3.3-8.6,4.7C54.2,34.4,38.3,57,25,65.1c-5.1,3.2-17.2,8.6-17.2,8.6l1.1,1.6
				c0,0,13.3-5.1,18-8.5c15-10.3,27.4-28.7,39.1-37c2.1-1.4,5.9-3.4,10.7-5.7C75.7,23.8,74.6,23.4,73.5,23z"/>
		</g>
	</g>
	<g>
		<g id="Group_812_1_">
			<path class="st2" d="M66.6,20.4c-2.3,1.2-4.3,2.3-5.8,3.3c-10.6,6.7-26.2,29.5-39.4,37.6C16.2,64.5,4.5,69,4.5,69l1.1,1.6
				c0,0,12.5-4.4,17.3-7.8c15-10.3,26.9-29.2,38.6-37.5c1.6-1.1,4.2-2.5,7.6-4C68.2,21,67.4,20.7,66.6,20.4z"/>
		</g>
	</g>
</g>
<g id="Group_803_2_" transform="translate(41.959 36.886)">
	<g>
		<g id="Group_799_2_">
			<path class="st1" d="M163.2,61.8l2.6-13.3c0.2-0.9-0.4-1.8-1.3-2c-0.2,0-0.3,0-0.5,0c-5.9,0.4-11.8,0.3-17.6-0.3
				c-15.5-1.9-40.1-16.4-52.6-18.1c-4.8-0.7-10.6-0.6-17.2-0.5c-0.1,2.2-0.1,4.4-0.2,6.6c0,2.9,0,5.9,0,8.8c6,0.5,11,1.2,13.9,1.8
				c13.4,2.7,37.8,13.3,52.7,16.4c3.8,0.9,14.4,1.8,18.4,2C162.3,63.2,163,62.6,163.2,61.8z"/>
		</g>
	</g>
	<g>
		<g id="Group_800_2_">
			<path class="st0" d="M163.2,61.8c0,0,0.2-1.1,0.4-1.8c-1.5,3.1-14.5,0.7-20.4-0.3c-20-3.5-32.3-14.1-55.3-17.6
				c-3.2-0.5-7.1-0.9-11.5-1.2c0,0.7,0,1.4,0,2c6,0.5,11,1.2,13.9,1.8c13.4,2.7,37.8,13.3,52.7,16.4c3.8,0.9,14.4,1.8,18.4,2
				C162.3,63.2,163,62.6,163.2,61.8z"/>
		</g>
	</g>
	<g>
		<g id="Group_801_2_">
			<path class="st2" d="M164.5,55.2c0,0-13.3,0-19.2-0.7c-15.5-1.9-39.4-15.7-51.8-17.5c-4.1-0.6-10.2-0.8-17.1-1c0,0.9,0,1.7,0,2.6
				c7.5,0.1,13.8,0.3,16.9,0.9c14.2,2.6,33,14.2,50.9,17.4c5.8,1.1,19.9,0.2,19.9,0.2L164.5,55.2z"/>
		</g>
	</g>
	<g>
		<g id="Group_802_2_">
			<path class="st2" d="M165.7,49.4c0,0-12.6,0.9-18.6,0.1c-15.5-1.9-39.2-16.1-51.6-17.9c-4.5-0.6-11.4-0.8-19.1-0.8
				c0,0.7,0,1.3-0.1,2c8.5,0,15.7-0.1,19.2,0.6c14.2,2.6,32.8,14.9,50.7,18.1c5.8,1.1,18.9-0.2,18.9-0.2L165.7,49.4z"/>
		</g>
	</g>
</g>
<g id="Group_808_2_" transform="translate(35.438 50.616)">
	<g>
		<g id="Group_804_2_">
			<path class="st1" d="M157.7,73.8L157.7,73.8c0.8-3.4,2.4-7.8-0.4-9.6c-4.2-2.9-12.4-4.7-19.7-9.7c-13.9-9.7-24.3-19.7-33.2-24.9
				c-3.1-1.8-7.7-3.4-12.9-5c-0.9,5.9-1.7,11.7-2.5,17.6c2.9,1.1,5.5,2.2,7.7,3.3c5.9,2.9,19.4,11.1,31.1,20.9
				c7.4,6,15,11.5,20.5,14.1C152.4,82.4,156.6,78.1,157.7,73.8z"/>
		</g>
	</g>
	<g>
		<g id="Group_805_2_">
			<path class="st0" d="M157.7,73.8L157.7,73.8c-5.4,8.7-10.9,4.2-20.1-3c-13.3-10.5-28-20.8-37-25.8c-3.8-2.1-7.5-3.8-11.1-5.2
				c-0.1,0.9-0.2,1.7-0.3,2.6c2.9,1.1,5.5,2.2,7.7,3.3c5.9,2.9,19.4,11.1,31.1,20.9c7.4,6,15,11.5,20.5,14.1
				C152.4,82.4,156.6,78.1,157.7,73.8z"/>
		</g>
	</g>
	<g>
		<g id="Group_806_2_">
			<path class="st2" d="M157.5,74.2L157.5,74.2c-2.4-0.7-11.7-3.6-19.1-8.5C124.5,56,107.8,42.6,99,37.4c-2.3-1.3-5.3-2.5-8.7-3.7
				c-0.1,0.9-0.2,1.7-0.3,2.6c2.8,1,5.4,2,7.7,3.2c6.8,3.5,24.5,18.2,40.4,28.6c9.9,6.4,18,9.6,18.6,8.3
				C157,75.7,157.3,74.9,157.5,74.2z"/>
		</g>
	</g>
	<g>
		<g id="Group_807_2_">
			<path class="st2" d="M158.9,69.5c0.2-0.5-0.1-1.1-0.6-1.2c-3.3-0.9-11.6-3.3-18.2-7.8c-13.9-9.7-30.5-23.7-39.3-28.8
				c-2.2-1.3-5.2-2.5-8.5-3.6c-0.5-0.2-1.1,0.2-1.2,0.7c0,0,0,0,0,0c-0.1,0.4,0.2,0.9,0.6,1c2.9,1,5.6,2,7.9,3.2
				c6.7,3.3,24.2,18.9,40.2,29.4c9.9,6.4,18,9.6,18.6,8.3C158.5,70.3,158.7,69.9,158.9,69.5z"/>
		</g>
	</g>
</g>
<g id="Group_813_2_" transform="translate(14.5 59.705)">
	<g>
		<g id="Group_809_2_">
			<path class="st1" d="M146.2,59.9L146.2,59.9c0.4-3.3,1.5-7.6-1.5-9.4c-4.3-2.3-12.3-3-19.8-7.1c-11.7-6.3-21.2-13.2-29.2-17.6
				c1.6,7,3.3,13.9,5.2,20.8c5.1,2.7,10.8,5.8,16.1,9.4c7.7,5.1,15.6,9.4,21.1,11.3C142,68.7,145.6,64.2,146.2,59.9z"/>
		</g>
	</g>
	<g>
		<g id="Group_810_2_">
			<path class="st0" d="M146.2,59.9L146.2,59.9c-4.2,8.9-9.9,5.2-19.6-1c-8.9-5.5-18.5-11-26.5-15.1c0.3,1,0.5,1.9,0.8,2.9
				c5.1,2.7,10.8,5.8,16.1,9.4c7.7,5.1,15.6,9.4,21.1,11.3C142,68.7,145.6,64.2,146.2,59.9z"/>
		</g>
	</g>
	<g>
		<g id="Group_811_2_">
			<path class="st2" d="M146.1,60.3c-2.3-0.4-11.5-2.2-18.9-6.3c-9.3-5-20-11.5-28.7-16.5c0.3,1.2,0.6,2.3,0.9,3.5
				c8.1,4.8,18.2,10.8,27.5,15.4c10.1,5.2,18.1,7.3,18.7,6C145.8,61.8,145.9,61.1,146.1,60.3L146.1,60.3z"/>
		</g>
	</g>
	<g>
		<g id="Group_812_2_">
			<path class="st2" d="M145.8,53.7c-2.2-0.4-10.2-0.6-17.7-4.9c-10.4-5.6-22.2-13.1-31.4-18.4c0.2,0.9,0.4,1.7,0.6,2.6
				c8.6,5.2,20,12.6,30.6,17.9c10.1,5.2,18.1,7.3,18.7,6c0.2-0.7-0.1-1.3,0-2L145.8,53.7z"/>
		</g>
	</g>
</g>
<path class="st0" d="M125.4,93.3c0,0-2,0-2-1s-0.1-1.4,0-2l1.9-13.1c0.1-0.6,0.4-1.1,0.9-1.4l1-0.5L125.4,93.3z"/>
<path class="st0" d="M118.5,64.4l-0.7,1.3c-0.3,0.4-0.4,0.9-0.4,1.4v12.2l0.9,0.5L118.5,64.4z"/>
</svg>
