<?xml version="1.0" encoding="utf-8"?>
<!-- Generator: Adobe Illustrator 25.2.1, SVG Export Plug-In . SVG Version: 6.00 Build 0)  -->
<svg version="1.1" id="Layer_3" xmlns="http://www.w3.org/2000/svg" xmlns:xlink="http://www.w3.org/1999/xlink" x="0px" y="0px"
	 viewBox="0 0 200 200" style="enable-background:new 0 0 200 200;" xml:space="preserve">
<style type="text/css">
	.st0{clip-path:url(#SVGID_2_);}
	.st1{fill:#DF5B3F;}
	.st2{clip-path:url(#SVGID_4_);}
	.st3{fill:#C34A37;}
	.st4{clip-path:url(#SVGID_6_);}
	.st5{fill:#ED7B63;}
	.st6{clip-path:url(#SVGID_8_);}
	.st7{clip-path:url(#SVGID_10_);}
	.st8{clip-path:url(#SVGID_12_);}
	.st9{clip-path:url(#SVGID_14_);}
	.st10{clip-path:url(#SVGID_16_);}
	.st11{clip-path:url(#SVGID_18_);}
	.st12{clip-path:url(#SVGID_20_);}
	.st13{clip-path:url(#SVGID_22_);}
	.st14{clip-path:url(#SVGID_24_);}
</style>
<g id="Group_803" transform="translate(41.959 36.886)">
	<g>
		<defs>
			<path id="SVGID_1_" d="M-6.8,51c0,4.3,3,9.3,7.2,8.4c5.7-1.1,14.1-4.5,22.3-8.5C35.9,44.5,50.3,40,56.4,38.7
				c13.4-3,39.9-3.1,54.8-6.4c3.8-0.8,13.9-4.2,17.6-5.7c0.8-0.3,1.3-1.1,1.1-2l-3-13.3c-0.2-0.9-1.1-1.5-2.1-1.3
				c-0.2,0-0.3,0.1-0.5,0.2c-5.2,2.7-10.6,5-16.2,6.8c-15,4.6-43.4,1.2-55.4,4.8c-9.3,2.7-21.5,9.8-36.7,15.6
				c-7.9,3-16,2.7-20.5,4.5C-7.3,43.1-6.9,47.7-6.8,51L-6.8,51z"/>
		</defs>
		<clipPath id="SVGID_2_">
			<use xlink:href="#SVGID_1_"  style="overflow:visible;"/>
		</clipPath>
		<g id="Group_799" class="st0">
			<path id="Path_14661" class="st1" d="M-6.8,51c0,4.3,3,9.3,7.2,8.4c5.7-1.1,14.1-4.5,22.3-8.5C35.9,44.5,50.3,40,56.4,38.7
				c13.4-3,39.9-3.1,54.8-6.4c3.8-0.8,13.9-4.2,17.6-5.7c0.8-0.3,1.3-1.1,1.1-2l-3-13.3c-0.2-0.9-1.1-1.5-2.1-1.3
				c-0.2,0-0.3,0.1-0.5,0.2c-5.2,2.7-10.6,5-16.2,6.8c-15,4.6-43.4,1.2-55.4,4.8c-9.3,2.7-21.5,9.8-36.7,15.6
				c-7.9,3-16,2.7-20.5,4.5C-7.3,43.1-6.9,47.7-6.8,51L-6.8,51z"/>
		</g>
	</g>
	<g>
		<defs>
			<path id="SVGID_3_" d="M-6.8,51c0,4.3,3,9.3,7.2,8.4c5.7-1.1,14.1-4.5,22.3-8.5C35.9,44.5,50.3,40,56.4,38.7
				c13.4-3,39.9-3.1,54.8-6.4c3.8-0.8,13.9-4.2,17.6-5.7c0.8-0.3,1.3-1.1,1.1-2l-3-13.3c-0.2-0.9-1.1-1.5-2.1-1.3
				c-0.2,0-0.3,0.1-0.5,0.2c-5.2,2.7-10.6,5-16.2,6.8c-15,4.6-43.4,1.2-55.4,4.8c-9.3,2.7-21.5,9.8-36.7,15.6
				c-7.9,3-16,2.7-20.5,4.5C-7.3,43.1-6.9,47.7-6.8,51L-6.8,51z"/>
		</defs>
		<clipPath id="SVGID_4_">
			<use xlink:href="#SVGID_3_"  style="overflow:visible;"/>
		</clipPath>
		<g id="Group_800" class="st2">
			<path id="Path_14663" class="st3" d="M-6.8,51c0,4.3,3,9.3,7.2,8.4c5.7-1.1,14.1-4.5,22.3-8.5C35.9,44.5,50.3,40,56.4,38.7
				c13.4-3,39.9-3.1,54.8-6.4c3.8-0.8,13.9-4.2,17.6-5.7c0.8-0.3,1.3-1.1,1.1-2c0,0-0.3-1.1-0.4-1.8c-0.1,3.4-13,6.5-18.8,8
				c-19.7,4.9-35.2,0.2-57.7,6.3c-9.5,2.6-25.6,8.8-40.4,15.5C2.3,57.4-3.8,60.3-6.8,51L-6.8,51z"/>
		</g>
	</g>
	<g>
		<defs>
			<path id="SVGID_5_" d="M-6.8,51c0,4.3,3,9.3,7.2,8.4c5.7-1.1,14.1-4.5,22.3-8.5C35.9,44.5,50.3,40,56.4,38.7
				c13.4-3,39.9-3.1,54.8-6.4c3.8-0.8,13.9-4.2,17.6-5.7c0.8-0.3,1.3-1.1,1.1-2l-3-13.3c-0.2-0.9-1.1-1.5-2.1-1.3
				c-0.2,0-0.3,0.1-0.5,0.2c-5.2,2.7-10.6,5-16.2,6.8c-15,4.6-43.4,1.2-55.4,4.8c-9.3,2.7-21.5,9.8-36.7,15.6
				c-7.9,3-16,2.7-20.5,4.5C-7.3,43.1-6.9,47.7-6.8,51L-6.8,51z"/>
		</defs>
		<clipPath id="SVGID_6_">
			<use xlink:href="#SVGID_5_"  style="overflow:visible;"/>
		</clipPath>
		<g id="Group_801" class="st4">
			<path id="Path_14665" class="st5" d="M-6.8,51.3c0,0.8,0.1,1.5,0.3,2.2c0.3,1.4,8.6,0.3,19.3-3.5C30,44,50,34.3,57,32.6
				c14-3.3,35.9-0.4,53.6-4.7c5.7-1.4,18.2-7.9,18.2-7.9l-0.4-1.9c0,0-12.1,5.3-17.9,7.2c-15,4.6-42.4,1.6-54.5,5
				C46.8,32.9,28,41.8,12.8,47.6C6.5,49.9-0.1,51.1-6.8,51.3z"/>
		</g>
	</g>
	<g>
		<defs>
			<path id="SVGID_7_" d="M-6.8,51c0,4.3,3,9.3,7.2,8.4c5.7-1.1,14.1-4.5,22.3-8.5C35.9,44.5,50.3,40,56.4,38.7
				c13.4-3,39.9-3.1,54.8-6.4c3.8-0.8,13.9-4.2,17.6-5.7c0.8-0.3,1.3-1.1,1.1-2l-3-13.3c-0.2-0.9-1.1-1.5-2.1-1.3
				c-0.2,0-0.3,0.1-0.5,0.2c-5.2,2.7-10.6,5-16.2,6.8c-15,4.6-43.4,1.2-55.4,4.8c-9.3,2.7-21.5,9.8-36.7,15.6
				c-7.9,3-16,2.7-20.5,4.5C-7.3,43.1-6.9,47.7-6.8,51L-6.8,51z"/>
		</defs>
		<clipPath id="SVGID_8_">
			<use xlink:href="#SVGID_7_"  style="overflow:visible;"/>
		</clipPath>
		<g id="Group_802" class="st6">
			<path id="Path_14667" class="st5" d="M-7.2,45.6c0,0.8,0.1,1.5,0.3,2.2c0.3,1.4,8.6,0.3,19.3-3.5c17.2-6,37.1-16.5,44.2-18.2
				c14-3.3,36,0.4,53.7-4c5.7-1.4,18.2-7.9,18.2-7.9l-0.4-1.9c0,0-12.2,5.9-17.9,7.6c-15,4.6-42.4,1.1-54.4,4.5
				c-9.3,2.7-28,12-43.3,17.9C4.6,45.6-4.8,45.6-7.2,45.6L-7.2,45.6z"/>
		</g>
	</g>
</g>
<g id="Group_808" transform="translate(35.438 50.616)">
	<g>
		<defs>
			<path id="SVGID_9_" d="M131.6,33.1c1.4,4.2,0.4,10.1-3.9,10.8c-6,0.9-15.4,0.6-24.9-0.4c-15.2-1.6-30.9-1-37.5-0.1
				C51.1,45.1,25.1,54.3,9.4,56.5C5.3,57-5.7,57.3-9.8,57.2c-0.9,0-1.7-0.7-1.8-1.6l-1.8-14c-0.1-0.9,0.5-1.8,1.4-2
				c0.2,0,0.4,0,0.6,0c6.1,0.8,12.2,1.1,18.3,1c16.3-0.8,42.8-14.1,55.9-14.8c10.2-0.6,24.4,2,41.4,2.3c8.8,0.1,16.7-3,21.8-2.9
				C129.3,25.2,130.4,29.8,131.6,33.1L131.6,33.1z"/>
		</defs>
		<clipPath id="SVGID_10_">
			<use xlink:href="#SVGID_9_"  style="overflow:visible;"/>
		</clipPath>
		<g id="Group_804" class="st7">
			<path id="Path_14669" class="st1" d="M131.6,33.1c1.4,4.2,0.4,10.1-3.9,10.8c-6,0.9-15.4,0.6-24.9-0.4c-15.2-1.6-30.9-1-37.5-0.1
				C51.1,45.1,25.1,54.3,9.4,56.5C5.3,57-5.7,57.3-9.8,57.2c-0.9,0-1.7-0.7-1.8-1.6l-1.8-14c-0.1-0.9,0.5-1.8,1.4-2
				c0.2,0,0.4,0,0.6,0c6.1,0.8,12.2,1.1,18.3,1c16.3-0.8,42.8-14.1,55.9-14.8c10.2-0.6,24.4,2,41.4,2.3c8.8,0.1,16.7-3,21.8-2.9
				C129.3,25.2,130.4,29.8,131.6,33.1L131.6,33.1z"/>
		</g>
	</g>
	<g>
		<defs>
			<path id="SVGID_11_" d="M131.6,33.1c1.4,4.2,0.4,10.1-3.9,10.8c-6,0.9-15.4,0.6-24.9-0.4c-15.2-1.6-30.9-1-37.5-0.1
				C51.1,45.1,25.1,54.3,9.4,56.5C5.3,57-5.7,57.3-9.8,57.2c-0.9,0-1.7-0.7-1.8-1.6l-1.8-14c-0.1-0.9,0.5-1.8,1.4-2
				c0.2,0,0.4,0,0.6,0c6.1,0.8,12.2,1.1,18.3,1c16.3-0.8,42.8-14.1,55.9-14.8c10.2-0.6,24.4,2,41.4,2.3c8.8,0.1,16.7-3,21.8-2.9
				C129.3,25.2,130.4,29.8,131.6,33.1L131.6,33.1z"/>
		</defs>
		<clipPath id="SVGID_12_">
			<use xlink:href="#SVGID_11_"  style="overflow:visible;"/>
		</clipPath>
		<g id="Group_805" class="st8">
			<path id="Path_14671" class="st3" d="M131.6,33.1c1.4,4.2,0.4,10.1-3.9,10.8c-6,0.9-15.4,0.6-24.9-0.4c-15.2-1.6-30.9-1-37.5-0.1
				C51.1,45.1,25.1,54.3,9.4,56.5C5.3,57-5.7,57.3-9.8,57.2c-0.9,0-1.7-0.7-1.8-1.6l-0.2-1.9c1.3,3.3,14.9,1.7,21.2,1.2
				c21-2.1,34.6-12.1,58.7-14.2c10.2-0.8,28.2-0.4,45,1C124.9,42.6,131.9,43.3,131.6,33.1L131.6,33.1z"/>
		</g>
	</g>
	<g>
		<defs>
			<path id="SVGID_13_" d="M131.6,33.1c1.4,4.2,0.4,10.1-3.9,10.8c-6,0.9-15.4,0.6-24.9-0.4c-15.2-1.6-30.9-1-37.5-0.1
				C51.1,45.1,25.1,54.3,9.4,56.5C5.3,57-5.7,57.3-9.8,57.2c-0.9,0-1.7-0.7-1.8-1.6l-1.8-14c-0.1-0.9,0.5-1.8,1.4-2
				c0.2,0,0.4,0,0.6,0c6.1,0.8,12.2,1.1,18.3,1c16.3-0.8,42.8-14.1,55.9-14.8c10.2-0.6,24.4,2,41.4,2.3c8.8,0.1,16.7-3,21.8-2.9
				C129.3,25.2,130.4,29.8,131.6,33.1L131.6,33.1z"/>
		</defs>
		<clipPath id="SVGID_14_">
			<use xlink:href="#SVGID_13_"  style="overflow:visible;"/>
		</clipPath>
		<g id="Group_806" class="st9">
			<path id="Path_14673" class="st5" d="M131.7,33.5c0.2,0.8,0.4,1.5,0.5,2.3c0.2,1.4-8.3,3.3-20.1,3.4C93,39.4,70.2,37,62.6,37.8
				C47.8,39.6,27.2,50.1,8.4,52.1c-6.1,0.7-20.7-1.2-20.7-1.2l-0.3-2c0,0,13.8,1,20.1,0.7c16.3-0.8,42.1-13.4,55.1-14.3
				c10.2-0.6,31.5,1.3,48.5,1.7C119.9,37,129.3,34.3,131.7,33.5L131.7,33.5z"/>
		</g>
	</g>
	<g>
		<defs>
			<path id="SVGID_15_" d="M131.6,33.1c1.4,4.2,0.4,10.1-3.9,10.8c-6,0.9-15.4,0.6-24.9-0.4c-15.2-1.6-30.9-1-37.5-0.1
				C51.1,45.1,25.1,54.3,9.4,56.5C5.3,57-5.7,57.3-9.8,57.2c-0.9,0-1.7-0.7-1.8-1.6l-1.8-14c-0.1-0.9,0.5-1.8,1.4-2
				c0.2,0,0.4,0,0.6,0c6.1,0.8,12.2,1.1,18.3,1c16.3-0.8,42.8-14.1,55.9-14.8c10.2-0.6,24.4,2,41.4,2.3c8.8,0.1,16.7-3,21.8-2.9
				C129.3,25.2,130.4,29.8,131.6,33.1L131.6,33.1z"/>
		</defs>
		<clipPath id="SVGID_16_">
			<use xlink:href="#SVGID_15_"  style="overflow:visible;"/>
		</clipPath>
		<g id="Group_807" class="st10">
			<path id="Path_14675" class="st5" d="M129.9,27.9c0.2,0.8,0.4,1.5,0.5,2.3c0.2,1.4-8.3,3.3-20.1,3.4c-19.1,0.1-42.3-3.1-49.7-2.2
				c-14.8,1.7-35,13-54,15c-6,0.5-20.6-1.4-20.6-1.4l-0.3-2c0,0,13.9,1.4,20.2,1.2c16.3-0.8,41.8-13.8,54.8-14.7
				c10.2-0.6,31.7,1.9,48.7,2.2C118.5,31.8,127.7,28.6,129.9,27.9z"/>
		</g>
	</g>
</g>
<g id="Group_813" transform="translate(14.5 59.705)">
	<g>
		<defs>
			<path id="SVGID_17_" d="M127.7,44.2c0.3,4.3-2.2,9.5-6.5,8.9c-5.8-0.8-14.4-3.3-23-6.7c-13.7-5.3-28.4-8.6-34.8-9.5
				c-13.5-1.8-40,0-55.1-1.9c-3.9-0.5-14.2-3.1-18-4.2c-0.9-0.2-1.4-1-1.3-1.9L-9,15.6c0.1-0.9,1-1.6,1.9-1.5c0.2,0,0.3,0.1,0.5,0.1
				c5.4,2.3,11,4.1,16.7,5.5c15.2,3.3,43.3-2.2,55.5,0.3c9.6,1.9,22.2,8.1,37.8,12.6c8.2,2.4,16.2,1.4,20.9,2.8
				C127.6,36.4,127.5,40.9,127.7,44.2L127.7,44.2z"/>
		</defs>
		<clipPath id="SVGID_18_">
			<use xlink:href="#SVGID_17_"  style="overflow:visible;"/>
		</clipPath>
		<g id="Group_809" class="st11">
			<path id="Path_14677" class="st1" d="M127.7,44.2c0.3,4.3-2.2,9.5-6.5,8.9c-5.8-0.8-14.4-3.3-23-6.7c-13.7-5.3-28.4-8.6-34.8-9.5
				c-13.5-1.8-40,0-55.1-1.9c-3.9-0.5-14.2-3.1-18-4.2c-0.9-0.2-1.4-1-1.3-1.9L-9,15.6c0.1-0.9,1-1.6,1.9-1.5c0.2,0,0.3,0.1,0.5,0.1
				c5.4,2.3,11,4.1,16.7,5.5c15.2,3.3,43.3-2.2,55.5,0.3c9.6,1.9,22.2,8.1,37.8,12.6c8.2,2.4,16.2,1.4,20.9,2.8
				C127.6,36.4,127.5,40.9,127.7,44.2L127.7,44.2z"/>
		</g>
	</g>
	<g>
		<defs>
			<path id="SVGID_19_" d="M127.7,44.2c0.3,4.3-2.2,9.5-6.5,8.9c-5.8-0.8-14.4-3.3-23-6.7c-13.7-5.3-28.4-8.6-34.8-9.5
				c-13.5-1.8-40,0-55.1-1.9c-3.9-0.5-14.2-3.1-18-4.2c-0.9-0.2-1.4-1-1.3-1.9L-9,15.6c0.1-0.9,1-1.6,1.9-1.5c0.2,0,0.3,0.1,0.5,0.1
				c5.4,2.3,11,4.1,16.7,5.5c15.2,3.3,43.3-2.2,55.5,0.3c9.6,1.9,22.2,8.1,37.8,12.6c8.2,2.4,16.2,1.4,20.9,2.8
				C127.6,36.4,127.5,40.9,127.7,44.2L127.7,44.2z"/>
		</defs>
		<clipPath id="SVGID_20_">
			<use xlink:href="#SVGID_19_"  style="overflow:visible;"/>
		</clipPath>
		<g id="Group_810" class="st12">
			<path id="Path_14679" class="st3" d="M127.7,44.2c0.3,4.3-2.2,9.5-6.5,8.9c-5.8-0.8-14.4-3.3-23-6.7c-13.7-5.3-28.4-8.6-34.8-9.5
				c-13.5-1.8-40,0-55.1-1.9c-3.9-0.5-14.2-3.1-18.1-4.2c-0.9-0.2-1.4-1-1.3-1.9c0.1-0.6,0.2-1.3,0.3-1.9c0.4,3.4,13.4,5.4,19.4,6.3
				c20,3.4,35.1-2.5,58,1.6c9.6,1.8,26.2,6.8,41.6,12.2C119.2,51.4,125.5,53.8,127.7,44.2L127.7,44.2z"/>
		</g>
	</g>
	<g>
		<defs>
			<path id="SVGID_21_" d="M127.7,44.2c0.3,4.3-2.2,9.5-6.5,8.9c-5.8-0.8-14.4-3.3-23-6.7c-13.7-5.3-28.4-8.6-34.8-9.5
				c-13.5-1.8-40,0-55.1-1.9c-3.9-0.5-14.2-3.1-18-4.2c-0.9-0.2-1.4-1-1.3-1.9L-9,15.6c0.1-0.9,1-1.6,1.9-1.5c0.2,0,0.3,0.1,0.5,0.1
				c5.4,2.3,11,4.1,16.7,5.5c15.2,3.3,43.3-2.2,55.5,0.3c9.6,1.9,22.2,8.1,37.8,12.6c8.2,2.4,16.2,1.4,20.9,2.8
				C127.6,36.4,127.5,40.9,127.7,44.2L127.7,44.2z"/>
		</defs>
		<clipPath id="SVGID_22_">
			<use xlink:href="#SVGID_21_"  style="overflow:visible;"/>
		</clipPath>
		<g id="Group_811" class="st13">
			<path id="Path_14681" class="st5" d="M127.7,44.7c0,0.7,0,1.5-0.1,2.2c-0.2,1.4-8.5,1-19.5-2c-17.7-4.6-38.4-12.7-45.5-13.9
				C48.4,29,26.7,33.6,8.8,30.6c-5.8-0.9-18.9-6.4-18.9-6.4l0.3-1.9c0,0,12.5,4.4,18.4,5.7c15.2,3.3,42.3-1.9,54.7,0.7
				c9.6,1.9,28.9,9.3,44.6,13.8C116,44.9,125.3,44.8,127.7,44.7L127.7,44.7z"/>
		</g>
	</g>
	<g>
		<defs>
			<path id="SVGID_23_" d="M127.7,44.2c0.3,4.3-2.2,9.5-6.5,8.9c-5.8-0.8-14.4-3.3-23-6.7c-13.7-5.3-28.4-8.6-34.8-9.5
				c-13.5-1.8-40,0-55.1-1.9c-3.9-0.5-14.2-3.1-18-4.2c-0.9-0.2-1.4-1-1.3-1.9L-9,15.6c0.1-0.9,1-1.6,1.9-1.5c0.2,0,0.3,0.1,0.5,0.1
				c5.4,2.3,11,4.1,16.7,5.5c15.2,3.3,43.3-2.2,55.5,0.3c9.6,1.9,22.2,8.1,37.8,12.6c8.2,2.4,16.2,1.4,20.9,2.8
				C127.6,36.4,127.5,40.9,127.7,44.2L127.7,44.2z"/>
		</defs>
		<clipPath id="SVGID_24_">
			<use xlink:href="#SVGID_23_"  style="overflow:visible;"/>
		</clipPath>
		<g id="Group_812" class="st14">
			<path id="Path_14683" class="st5" d="M127.6,38.9c0,0.7,0,1.5-0.1,2.2c-0.2,1.4-8.5,1-19.5-2c-17.7-4.6-38.4-13.5-45.5-14.6
				c-14.2-2.1-35.8,3.3-53.8,0.3c-5.8-0.9-18.9-6.4-18.9-6.4l0.3-1.9c0,0,12.6,4.9,18.5,6.1c15.2,3.3,42.3-2.3,54.5,0.2
				c9.6,1.9,28.9,9.7,44.5,14.2C115.9,39.7,125.3,39,127.6,38.9L127.6,38.9z"/>
		</g>
	</g>
</g>
</svg>
