<?xml version="1.0" encoding="utf-8"?>
<!-- Generator: Adobe Illustrator 25.2.1, SVG Export Plug-In . SVG Version: 6.00 Build 0)  -->
<svg version="1.1" id="Layer_2" xmlns="http://www.w3.org/2000/svg" xmlns:xlink="http://www.w3.org/1999/xlink" x="0px" y="0px"
	 viewBox="0 0 200 200" style="enable-background:new 0 0 200 200;" xml:space="preserve">
<style type="text/css">
	.st0{fill:#FEC502;}
	.st1{opacity:0.66;clip-path:url(#SVGID_2_);}
	.st2{fill:#FEE25D;}
	.st3{clip-path:url(#SVGID_4_);}
	.st4{fill:#F2B701;}
	.st5{opacity:0.6;}
	.st6{fill:#FFFFFF;}
	.st7{opacity:0.42;}
	.st8{clip-path:url(#SVGID_6_);}
	.st9{fill:#743B2A;}
	.st10{clip-path:url(#SVGID_8_);}
	.st11{opacity:0.43;fill:#743B2A;enable-background:new    ;}
	.st12{clip-path:url(#SVGID_14_);}
	.st13{opacity:0.48;fill:#FEC502;enable-background:new    ;}
	.st14{fill:#FFEDB3;}
	.st15{opacity:0.5;fill:#EFDBA5;}
	.st16{fill:#FFF1CA;}
	.st17{opacity:0.66;clip-path:url(#SVGID_16_);}
	.st18{clip-path:url(#SVGID_18_);}
	.st19{clip-path:url(#SVGID_24_);}
	.st20{opacity:0.53;clip-path:url(#SVGID_26_);}
</style>
<path class="st0" d="M126.8,149.1c-1.2,12.2-4.4,21.5-11.3,21.4c-5,0-8.5-11-7.3-23.2c1.2-12.2,8.3-23,12.8-22.2
	C128.1,126.2,128.1,136.8,126.8,149.1z"/>
<g>
	<g id="game_quiz_item_banana_2_" transform="translate(-25.726 -6.026)">
		<g id="Group_862_2_" transform="translate(25.726 6.026)">
			<path class="st0" d="M204.4,110.5c1-5.9,3.3-12,8.4-15.1c1.2-0.8,2.6-1.5,3.9-2.2c5-3.3,6.8-9.5,8.4-15.1
				c-2.3-3.4-5.8-5.8-9.8-6.7c-0.7-0.2-1.4-0.2-2.1-0.1c-1,0.3-1.8,0.9-2.4,1.7c-2.6,2.6-5.1,5.4-7.6,8.1c-1.7,1.5-2.9,3.4-3.6,5.5
				c-0.3,1.5-0.1,3.1-0.2,4.6c-0.6,4.7-5.3,7.7-9.4,9.9c-21.6,11.9-44.3,24-68.6,24.6l0,0c0,0,0,0,0,0c0,0,0,0,0,0
				c0.1,1.1,0.2,2.3,0.3,3.4c0,0,0,0,0,0c0,0,0,0,0,0c0,0.1,0,0.1,0,0.2c0,0,0,0,0,0c0,0,0,0,0,0c0.1,1.1,0.1,2.2,0.2,3.3l0,0
				c0,0,0,0,0,0c0,0,0,0.1,0,0.1c0,0,0,0,0,0c0.1,2.3,0.1,4.6,0,6.9l0,0l0,0c0,0.2,0,0.3,0,0.5c0,0,0,0,0,0c0,0,0,0,0,0
				c0,1.3-0.1,2.5-0.2,3.8c0,0,0,0,0,0c0,0.2,0,0.5,0,0.7l0,0l0,0c-0.1,1.5-0.2,3-0.4,4.6c0,0.1,0,0.2,0,0.3c0,0,0,0,0,0
				c-0.2,1.6-0.3,3.1-0.6,4.7c-1.5,5.1-3,10.3-4.5,15.4c5.7,0,11.4-0.3,17.1-0.9c22.7-2.3,45.8-10.4,60.4-27.7
				c3.4-3.8,6.1-8.3,7.7-13.1C203.4,122.3,203.3,116.3,204.4,110.5z"/>
			<g>
				<defs>
					<path id="SVGID_1_" d="M93.2,121.6c7,2.2,14.3,3.5,21.7,4.1c26.7,1.8,51.7-11.5,75.2-24.4c4.1-2.3,8.8-5.2,9.4-9.9
						c0.2-1.5-0.1-3.1,0.2-4.6c0.7-2.1,1.9-4.1,3.6-5.5c2.5-2.8,5-5.5,7.6-8.1c0.6-0.8,1.4-1.4,2.4-1.7c0.7-0.1,1.4-0.1,2.1,0.1
						c4,1,7.5,3.4,9.8,6.7c-1.7,5.6-3.4,11.8-8.4,15.1c-1.3,0.7-2.7,1.4-3.9,2.2c-5.1,3.1-7.4,9.2-8.4,15.1
						c-1.1,5.8-1,11.8-2.9,17.5c-1.7,4.8-4.3,9.3-7.7,13.1c-14.6,17.3-37.7,25.4-60.4,27.7c-32.9,3.8-64.9-3.7-90.3-24.5
						c-5.9-4.7-12.6-11.9-15.5-18.7"/>
				</defs>
				<clipPath id="SVGID_2_">
					<use xlink:href="#SVGID_1_"  style="overflow:visible;"/>
				</clipPath>
				<g id="Group_859_2_" class="st1">
					<g id="Group_858_2_" transform="translate(-2.123 -13.01)">
						<path class="st2" d="M224.8,74.6c2.5-8.9-8.6-8.5-13.7-0.9c-1.1,1.6-2.3,3-3.8,4.2c-2.2,1.8-4.8,3.1-7.1,4.7
							c-3,2-5.7,4.5-7.9,7.3c-2.1,3.1-3.8,6.4-5.2,9.9c-2.5,5.4-6.5,8.8-11.6,11.9c-6.4,3.8-12.9,7.2-19.6,10.3
							c-11,5-22.3,7.1-33.8,7.1c0,0,0,0,0,0c0,0,0,0,0,0c0,0,0,0,0,0c0,0,0,0,0,0c0.2,1.4,0.5,2.8,0.7,4.2c0,0,0,0.1,0,0.1
							c0,0,0,0,0,0c0.2,1.4,0.4,2.7,0.5,4.1l0,0c0,0,0,0,0,0c0,0,0,0,0,0c0.1,1.3,0.2,2.6,0.3,3.9c0,0,0,0,0,0c0,0,0,0,0,0
							c0,0,0,0,0,0l0,0c0.1,1.4,0.2,2.7,0.2,4.1c10.8-0.3,21.6-2.1,31.6-5.7c8-3.1,15.8-6.7,23.3-10.9c7.2-3.9,14.1-8.2,19.2-14.6
							c2.7-3.4,5-7,6.9-10.9c1.4-2.8,2.2-5,3.9-6.4C215.4,92.3,222.5,83.1,224.8,74.6z"/>
					</g>
				</g>
			</g>
			<g>
				<defs>
					<path id="SVGID_3_" d="M93.2,121.6c7,2.2,14.3,3.5,21.7,4.1c26.7,1.8,51.7-11.5,75.2-24.4c4.1-2.3,8.8-5.2,9.4-9.9
						c0.2-1.5-0.1-3.1,0.2-4.6c0.7-2.1,1.9-4.1,3.6-5.5c2.5-2.8,5-5.5,7.6-8.1c0.6-0.8,1.4-1.4,2.4-1.7c0.7-0.1,1.4-0.1,2.1,0.1
						c4,1,7.5,3.4,9.8,6.7c-1.7,5.6-3.4,11.8-8.4,15.1c-1.3,0.7-2.7,1.4-3.9,2.2c-5.1,3.1-7.4,9.2-8.4,15.1
						c-1.1,5.8-1,11.8-2.9,17.5c-1.7,4.8-4.3,9.3-7.7,13.1c-14.6,17.3-37.7,25.4-60.4,27.7c-32.9,3.8-64.9-3.7-90.3-24.5
						c-5.9-4.7-12.6-11.9-15.5-18.7"/>
				</defs>
				<clipPath id="SVGID_4_">
					<use xlink:href="#SVGID_3_"  style="overflow:visible;"/>
				</clipPath>
				<g id="Group_861_2_" class="st3">
					<g id="Group_860_2_" transform="translate(-8.269 -9.418)">
						<path class="st4" d="M241.2,95.2c2.4-6.2,3.9-11.7,1.2-18.1c-1.6-4-6.7-3.6-9.4-1.4c-4.3,3.1-5.5,7.8-7.1,12.5
							c-1.3,3.8-3.1,7.4-5.4,10.7c-2.1,3-5,4.7-7.9,7.2c-4.1,3.5-5.8,8.1-7,13.3c-1.7,8-5.3,13.2-11.8,18.4
							c-5.7,4.6-13.3,8.1-20.3,10.8c-14.1,5.5-25.3,8.1-40.3,9.2c-0.2,1.7-1.5,5.1-1.8,6.9c-1.7,5.9-5.9,10.8-7.6,16.7
							c15.9-0.1,29.8-2.8,46.2-8.2c17.8-5.9,39.3-20.5,48-38.5c1.3-2.5,2.3-5,3.1-7.7c0.6-2.2,0.6-5.1,1.7-7.2
							c0.9-1.6,3.1-2.7,4.7-4.1c2.2-1.9,4.2-3.9,6-6.3C236.8,105.3,239.4,100.4,241.2,95.2z"/>
					</g>
				</g>
			</g>
		</g>
		<g id="Group_863_2_" transform="translate(37.561 74.94)" class="st5">
			<path class="st6" d="M109.8,59.3c0.3,4.3,0.4,8.5,0.2,12.9c1.7-0.5,3.5-1.1,5.1-1.8c2.1-1.2,4-2.7,5.8-4.3c1.5-1.3,0.6-3.6-1-4.3
				C116.7,60.5,113.3,59.6,109.8,59.3L109.8,59.3C109.8,59.3,109.8,59.3,109.8,59.3z"/>
		</g>
		<g id="Group_864_1_" transform="translate(122.719 48.933)" class="st7">
			<path id="Path_14737_1_" class="st6" d="M46.7,91.3c5.2,4.1,13.2,1,18.6-1c6-2.2,14.5-5.1,18-11c1.8-3.3-0.2-7.9-4.3-7.9
				c-6,0-11.3,4.1-16.4,6.7c-2.5,1.3-5,2.5-7.5,3.8c-2.4,1.4-4.9,3.5-7.5,4.1c-1.6,0.5-2.5,2.1-2,3.7C45.7,90.3,46.1,90.9,46.7,91.3
				L46.7,91.3z"/>
		</g>
		<g id="Group_872_2_" transform="translate(25.726 6.026)">
			<g>
				<defs>
					<path id="SVGID_5_" d="M93.2,121.6c7,2.2,14.3,3.5,21.7,4.1c26.7,1.8,51.7-11.5,75.2-24.4c4.1-2.3,8.8-5.2,9.4-9.9
						c0.2-1.5-0.1-3.1,0.2-4.6c0.7-2.1,1.9-4.1,3.6-5.5c2.5-2.8,5-5.5,7.6-8.1c0.6-0.8,1.4-1.4,2.4-1.7c0.7-0.1,1.4-0.1,2.1,0.1
						c4,1,7.5,3.4,9.8,6.7c-1.7,5.6-3.4,11.8-8.4,15.1c-1.3,0.7-2.7,1.4-3.9,2.2c-5.1,3.1-7.4,9.2-8.4,15.1
						c-1.1,5.8-1,11.8-2.9,17.5c-1.7,4.8-4.3,9.3-7.7,13.1c-14.6,17.3-37.7,25.4-60.4,27.7c-32.9,3.8-64.9-3.7-90.3-24.5
						c-5.9-4.7-12.6-11.9-15.5-18.7"/>
				</defs>
				<clipPath id="SVGID_6_">
					<use xlink:href="#SVGID_5_"  style="overflow:visible;"/>
				</clipPath>
				<g id="Group_865_1_" class="st8">
					<path id="Path_14738_1_" class="st9" d="M236.4,73.1c-0.2-5.8-3.4-11.7-9-13.8c-6.3-2.3-12.1,1-15.5,6.3
						c-0.6,0.9-1.1,1.9-1.6,2.9c-0.8,1.1-1.5,2.4-1.9,3.7c-1.7,4.5-0.5,9.7,3,13c4.5,4.1,12.3,4,17.4,1.2
						C233.6,83.7,236.6,78.6,236.4,73.1z"/>
				</g>
			</g>
			<g>
				<defs>
					<path id="SVGID_7_" d="M93.2,121.6c7,2.2,14.3,3.5,21.7,4.1c26.7,1.8,51.7-11.5,75.2-24.4c4.1-2.3,8.8-5.2,9.4-9.9
						c0.2-1.5-0.1-3.1,0.2-4.6c0.7-2.1,1.9-4.1,3.6-5.5c2.5-2.8,5-5.5,7.6-8.1c0.6-0.8,1.4-1.4,2.4-1.7c0.7-0.1,1.4-0.1,2.1,0.1
						c4,1,7.5,3.4,9.8,6.7c-1.7,5.6-3.4,11.8-8.4,15.1c-1.3,0.7-2.7,1.4-3.9,2.2c-5.1,3.1-7.4,9.2-8.4,15.1
						c-1.1,5.8-1,11.8-2.9,17.5c-1.7,4.8-4.3,9.3-7.7,13.1c-14.6,17.3-37.7,25.4-60.4,27.7c-32.9,3.8-64.9-3.7-90.3-24.5
						c-5.9-4.7-12.6-11.9-15.5-18.7"/>
				</defs>
				<clipPath id="SVGID_8_">
					<use xlink:href="#SVGID_7_"  style="overflow:visible;"/>
				</clipPath>
				<g id="Group_866_1_" class="st10">
					<path id="Path_14740_1_" class="st11" d="M232.9,63.8c-0.2-5.8-3.4-11.7-9-13.8c-6.3-2.3-12.1,1-15.5,6.3
						c-0.6,0.9-1.1,1.9-1.6,2.9c-0.8,1.1-1.5,2.4-1.9,3.7c-1.7,4.5-0.5,9.7,3,13c4.5,4.1,12.3,4,17.4,1.2
						C230.1,74.4,233.1,69.3,232.9,63.8z"/>
				</g>
			</g>
			<g>
				<defs>
					<path id="SVGID_9_" d="M93.2,121.6c7,2.2,14.3,3.5,21.7,4.1c26.7,1.8,51.7-11.5,75.2-24.4c4.1-2.3,8.8-5.2,9.4-9.9
						c0.2-1.5-0.1-3.1,0.2-4.6c0.7-2.1,1.9-4.1,3.6-5.5c2.5-2.8,5-5.5,7.6-8.1c0.6-0.8,1.4-1.4,2.4-1.7c0.7-0.1,1.4-0.1,2.1,0.1
						c4,1,7.5,3.4,9.8,6.7c-1.7,5.6-3.4,11.8-8.4,15.1c-1.3,0.7-2.7,1.4-3.9,2.2c-5.1,3.1-7.4,9.2-8.4,15.1
						c-1.1,5.8-1,11.8-2.9,17.5c-1.7,4.8-4.3,9.3-7.7,13.1c-14.6,17.3-37.7,25.4-60.4,27.7c-32.9,3.8-64.9-3.7-90.3-24.5
						c-5.9-4.7-12.6-11.9-15.5-18.7"/>
				</defs>
				<clipPath id="SVGID_10_">
					<use xlink:href="#SVGID_9_"  style="overflow:visible;"/>
				</clipPath>
			</g>
			<g>
				<defs>
					<path id="SVGID_11_" d="M93.2,121.6c7,2.2,14.3,3.5,21.7,4.1c26.7,1.8,51.7-11.5,75.2-24.4c4.1-2.3,8.8-5.2,9.4-9.9
						c0.2-1.5-0.1-3.1,0.2-4.6c0.7-2.1,1.9-4.1,3.6-5.5c2.5-2.8,5-5.5,7.6-8.1c0.6-0.8,1.4-1.4,2.4-1.7c0.7-0.1,1.4-0.1,2.1,0.1
						c4,1,7.5,3.4,9.8,6.7c-1.7,5.6-3.4,11.8-8.4,15.1c-1.3,0.7-2.7,1.4-3.9,2.2c-5.1,3.1-7.4,9.2-8.4,15.1
						c-1.1,5.8-1,11.8-2.9,17.5c-1.7,4.8-4.3,9.3-7.7,13.1c-14.6,17.3-37.7,25.4-60.4,27.7c-32.9,3.8-64.9-3.7-90.3-24.5
						c-5.9-4.7-12.6-11.9-15.5-18.7"/>
				</defs>
				<clipPath id="SVGID_12_">
					<use xlink:href="#SVGID_11_"  style="overflow:visible;"/>
				</clipPath>
			</g>
			<g>
				<defs>
					<path id="SVGID_13_" d="M114.9,125.7c26.7,1.8,51.7-11.5,75.2-24.4c4.1-2.3,8.8-5.2,9.4-9.9c0.2-1.5-0.1-3.1,0.2-4.6
						c0.7-2.1,1.9-4.1,3.6-5.5c2.5-2.8,5-5.5,7.6-8.1c0.6-0.8,1.4-1.4,2.4-1.7c0.7-0.1,1.4-0.1,2.1,0.1c4,1,7.5,3.4,9.8,6.7
						c-1.7,5.6-3.4,11.8-8.4,15.1c-1.3,0.7-2.7,1.4-3.9,2.2c-5.1,3.1-7.4,9.2-8.4,15.1c-1.1,5.8-1,11.8-2.9,17.5
						c-1.7,4.8-4.3,9.3-7.7,13.1c-14.6,17.3-37.7,25.4-60.4,27.7C100.5,172.6,107.5,125.2,114.9,125.7z"/>
				</defs>
				<clipPath id="SVGID_14_">
					<use xlink:href="#SVGID_13_"  style="overflow:visible;"/>
				</clipPath>
				<g id="Group_871_1_" class="st12">
					<path id="Path_14746_1_" class="st13" d="M222.7,85.4c-1.6-3.1-5.2-4.5-8.5-3.4l-2.3-2.5c-2.3-2.2-5.5-3-8.5-2.3
						c-0.4-0.3-0.8-0.6-1.3-0.7c-4.1-2.4-9.3-1-11.7,3.1c-1.4,2.5-1.5,5.5-0.2,8.1c-2.9,2.1-4.6,5.9-2.3,9.5
						c-0.5,3.8,1.9,8.5,4.1,11.2c4,5,10.5,7.4,16.7,7.7c6.7,0.2,9.1-7.1,5.9-11.8c2.3-0.9,4.1-2.8,5-5.1
						C224,96.1,225.3,90.1,222.7,85.4z"/>
				</g>
			</g>
		</g>
	</g>
	
		<ellipse transform="matrix(0.1393 -0.9903 0.9903 0.1393 -44.3772 244.3562)" class="st14" cx="118.4" cy="147.7" rx="22.3" ry="8.8"/>
	<path class="st15" d="M114.1,161.6c6.7-0.8,6,8.9,1.2,8.2c-4.8-0.7-7.4-11.1-5.6-23.3s7-21.5,11.9-20.8
		C110.9,128.4,107.4,162.4,114.1,161.6z"/>
	<path class="st16" d="M127.1,148.9c-1.7,12.2-7,21.5-11.9,20.8c9-2.5,15-39.2,6.2-44.2C126.3,126.3,128.8,136.7,127.1,148.9z"/>
	<path class="st15" d="M114.3,148.7c-0.7,6.7,3,3.7,3,3.7s-3.5,4.6-3.7-2.8s3-7.9,3-7.9S114.7,144.5,114.3,148.7z"/>
	<path class="st15" d="M119.6,142.7c0.6-6.8-3.1-3.7-3.1-3.7s3.5-4.7,3.7,2.8c0.3,7.4-3,7.9-3,7.9S119.2,146.9,119.6,142.7z"/>
</g>
<g>
	<path class="st0" d="M62.9,104.1c8.9,8.1,15.3,16.1,11.6,19.8c-2.3,2.3-12.1-1.3-21-9.4S39.7,96.2,42,93.7
		C44.3,91.1,54,96,62.9,104.1z"/>
	<g>
		<g id="game_quiz_item_banana_1_" transform="translate(-25.726 -6.026)">
			<g id="Group_862_1_" transform="translate(25.726 6.026)">
				<path class="st0" d="M41.6,94c-1.4,1.3-2.8,2.5-4.3,3.7c-5.8,4.5-12.1,8.4-18.8,11.5c-18.3,9-37.9,15.1-58.1,18
					c-3.3,0.5-6.7,1-9.1,3.1c-3,2.9-3.5,7.6-1,11.1c5.5,7.2,13.8,11,22.1,14.7c6.8,3.1,16.6,3.9,24,3.5
					c29.8-1.5,56.3-14.7,77.3-35.7C61.2,116,50.5,106,41.6,94z"/>
				<g>
					<defs>
						<path id="SVGID_15_" d="M-49.8,141.5c-2.4-3.4-2-8.2,1-11.1c2.4-2.2,5.8-2.7,9.1-3.1c20.2-2.9,39.8-9,58.1-18
							c6.7-3.1,13-7,18.8-11.5c21-16.6,30.7-43.1,39.5-68.5c1.5-4.4,3-9.7,0.3-13.7c-0.9-1.3-2.1-2.3-2.9-3.6
							c-0.9-2-1.3-4.3-1.1-6.5c0-3.7,0-7.5,0.2-11.1c-0.1-1,0.1-2,0.6-2.9c0.4-0.6,1-1,1.6-1.3c3.6-1.9,7.8-2.5,11.8-1.5
							c2.5,5.3,5.3,11,3.8,16.8c-0.5,1.4-1.1,2.8-1.4,4.2c-1.7,5.7,0.6,11.8,3.8,16.8c3.1,5.1,7.2,9.5,9.6,14.9c2,4.7,3,9.8,3,14.9
							c0.8,22.7-11,44.1-26.4,61C58,142.2,29.2,158-3.6,159.6c-7.5,0.4-17.3-0.4-24-3.5C-36,152.5-44.3,148.7-49.8,141.5z"/>
					</defs>
					<clipPath id="SVGID_16_">
						<use xlink:href="#SVGID_15_"  style="overflow:visible;"/>
					</clipPath>
					<g id="Group_859_1_" class="st17">
						<g id="Group_858_1_" transform="translate(-2.123 -13.01)">
							<path class="st2" d="M40.2,102.1c-0.6-1.2-1.1-2.3-1.7-3.5c-13.4,12.7-30.6,21.6-47.9,28.5c-7.6,3-15.3,6-23.1,8.5
								c-3.3,1.1-6.8,1.9-10.2,2.6c-3.4,0.6-6.8,0.2-9.8,1.8c-1.4,0.2-2.4,1.5-2.2,2.9c0,0.3,0.1,0.6,0.3,0.9
								c2.8,6.7,13.2,6.9,19.4,6.3c7.5-0.9,14.9-2.5,22.1-4.8c17.2-5,33.5-12.6,48.3-22.7c4.4-3,8.6-6.4,12.6-10.1
								C45.2,109.2,42.6,105.7,40.2,102.1z"/>
						</g>
					</g>
				</g>
				<g>
					<defs>
						<path id="SVGID_17_" d="M-49.8,141.5c-2.4-3.4-2-8.2,1-11.1c2.4-2.2,5.8-2.7,9.1-3.1c20.2-2.9,39.8-9,58.1-18
							c6.7-3.1,13-7,18.8-11.5c21-16.6,30.7-43.1,39.5-68.5c1.5-4.4,3-9.7,0.3-13.7c-0.9-1.3-2.1-2.3-2.9-3.6
							c-0.9-2-1.3-4.3-1.1-6.5c0-3.7,0-7.5,0.2-11.1c-0.1-1,0.1-2,0.6-2.9c0.4-0.6,1-1,1.6-1.3c3.6-1.9,7.8-2.5,11.8-1.5
							c2.5,5.3,5.3,11,3.8,16.8c-0.5,1.4-1.1,2.8-1.4,4.2c-1.7,5.7,0.6,11.8,3.8,16.8c3.1,5.1,7.2,9.5,9.6,14.9c2,4.7,3,9.8,3,14.9
							c0.8,22.7-11,44.1-26.4,61C58,142.2,29.2,158-3.6,159.6c-7.5,0.4-17.3-0.4-24-3.5C-36,152.5-44.3,148.7-49.8,141.5z"/>
					</defs>
					<clipPath id="SVGID_18_">
						<use xlink:href="#SVGID_17_"  style="overflow:visible;"/>
					</clipPath>
					<g id="Group_861_1_" class="st18">
						<g id="Group_860_1_" transform="translate(-8.269 -9.418)">
							<path class="st4" d="M65.6,120.8c-2.7,2.8-5.6,5.6-8.6,8.2c-6.3,5.9-13.2,11.1-20.6,15.5c-7.6,4.5-18.6,9.4-27.3,11.3
								c-9.6,2.1-20,1.6-29.4,0c-5-0.8-9.9-1.9-14.8-3.2c-5.1-1.3-10.2-4-15.4-4.1c-1.3-0.1-2.3,0.9-2.4,2.1c0,0.4,0,0.7,0.2,1.1
								c2.2,4.3,6.7,7,10.7,9.4c4.3,2.7,8.9,4.8,13.6,6.4c9.8,3.4,20,5.5,30.4,6.1c21.3,0.9,49.7-12,65.8-24.6
								c6.1-4.8,11.4-9.5,16.2-14.5C77.3,130.5,71.2,126,65.6,120.8z"/>
						</g>
					</g>
				</g>
			</g>
			<g id="Group_863_1_" transform="translate(37.561 74.94)" class="st5">
				<path class="st6" d="M31.1,27c-0.4,0.3-0.8,0.6-1.1,0.9c-3.5,3-6.7,6.2-10.2,9.3C13.4,42.9,5.9,46.9-2,50.5
					c-7.2,3.2-14.5,6-22.1,8.2c-3.8,1.1-7.7,2.5-11.6,3.5c-1.9,0.5-3.8,1.1-5.7,1.7c-1.9,0.7-3.7,1.6-5.4,2.6
					c-1.3,0.4-1,2.2,0.1,2.6l0,0c2.1,0.7,3.4,1.7,5.7,2c2.1,0.4,4.3,0.6,6.5,0.7c4.5,0.2,8.9,0.1,13.4-0.5c9-1.4,17.7-3.8,26.1-7.3
					c9.1-3.6,17.4-8.7,24.8-15.2c3.7-3.4,7.1-7.2,10-11.2c0.1-0.1,0.2-0.2,0.2-0.3C36.8,34,33.9,30.6,31.1,27z"/>
			</g>
			<g id="Group_872_1_" transform="translate(25.726 6.026)">
				<g>
					<defs>
						<path id="SVGID_19_" d="M-49.8,141.5c-2.4-3.4-2-8.2,1-11.1c2.4-2.2,5.8-2.7,9.1-3.1c20.2-2.9,39.8-9,58.1-18
							c6.7-3.1,13-7,18.8-11.5c21-16.6,30.7-43.1,39.5-68.5c1.5-4.4,3-9.7,0.3-13.7c-0.9-1.3-2.1-2.3-2.9-3.6
							c-0.9-2-1.3-4.3-1.1-6.5c0-3.7,0-7.5,0.2-11.1c-0.1-1,0.1-2,0.6-2.9c0.4-0.6,1-1,1.6-1.3c3.6-1.9,7.8-2.5,11.8-1.5
							c2.5,5.3,5.3,11,3.8,16.8c-0.5,1.4-1.1,2.8-1.4,4.2c-1.7,5.7,0.6,11.8,3.8,16.8c3.1,5.1,7.2,9.5,9.6,14.9c2,4.7,3,9.8,3,14.9
							c0.8,22.7-11,44.1-26.4,61C58,142.2,29.2,158-3.6,159.6c-7.5,0.4-17.3-0.4-24-3.5C-36,152.5-44.3,148.7-49.8,141.5z"/>
					</defs>
					<clipPath id="SVGID_20_">
						<use xlink:href="#SVGID_19_"  style="overflow:visible;"/>
					</clipPath>
				</g>
				<g>
					<defs>
						<path id="SVGID_21_" d="M-49.8,141.5c-2.4-3.4-2-8.2,1-11.1c2.4-2.2,5.8-2.7,9.1-3.1c20.2-2.9,39.8-9,58.1-18
							c6.7-3.1,13-7,18.8-11.5c21-16.6,30.7-43.1,39.5-68.5c1.5-4.4,3-9.7,0.3-13.7c-0.9-1.3-2.1-2.3-2.9-3.6
							c-0.9-2-1.3-4.3-1.1-6.5c0-3.7,0-7.5,0.2-11.1c-0.1-1,0.1-2,0.6-2.9c0.4-0.6,1-1,1.6-1.3c3.6-1.9,7.8-2.5,11.8-1.5
							c2.5,5.3,5.3,11,3.8,16.8c-0.5,1.4-1.1,2.8-1.4,4.2c-1.7,5.7,0.6,11.8,3.8,16.8c3.1,5.1,7.2,9.5,9.6,14.9c2,4.7,3,9.8,3,14.9
							c0.8,22.7-11,44.1-26.4,61C58,142.2,29.2,158-3.6,159.6c-7.5,0.4-17.3-0.4-24-3.5C-36,152.5-44.3,148.7-49.8,141.5z"/>
					</defs>
					<clipPath id="SVGID_22_">
						<use xlink:href="#SVGID_21_"  style="overflow:visible;"/>
					</clipPath>
				</g>
				<g>
					<defs>
						<path id="SVGID_23_" d="M-49.8,141.5c-2.4-3.4-2-8.2,1-11.1c2.4-2.2,5.8-2.7,9.1-3.1c20.2-2.9,39.8-9,58.1-18
							c6.7-3.1,13-7,18.8-11.5c21-16.6,30.7-43.1,39.5-68.5c1.5-4.4,3-9.7,0.3-13.7c-0.9-1.3-2.1-2.3-2.9-3.6
							c-0.9-2-1.3-4.3-1.1-6.5c0-3.7,0-7.5,0.2-11.1c-0.1-1,0.1-2,0.6-2.9c0.4-0.6,1-1,1.6-1.3c3.6-1.9,7.8-2.5,11.8-1.5
							c2.5,5.3,5.3,11,3.8,16.8c-0.5,1.4-1.1,2.8-1.4,4.2c-1.7,5.7,0.6,11.8,3.8,16.8c3.1,5.1,7.2,9.5,9.6,14.9c2,4.7,3,9.8,3,14.9
							c0.8,22.7-11,44.1-26.4,61C58,142.2,29.2,158-3.6,159.6c-7.5,0.4-17.3-0.4-24-3.5C-36,152.5-44.3,148.7-49.8,141.5z"/>
					</defs>
					<clipPath id="SVGID_24_">
						<use xlink:href="#SVGID_23_"  style="overflow:visible;"/>
					</clipPath>
					<g id="Group_868_1_" class="st19">
						<g id="Group_867_1_" transform="translate(-6.062 65.553)">
							<path id="Path_14742_1_" class="st9" d="M-43,76.7c-0.1,1.5,0,1.5,0.2,0.2c0-0.3,0.2-0.8,0.2-1.2c0.1-1,0.5-1.9,0.6-2.9
								c0.6-2.4,1-4.7,1.4-7c0.7-3.2,1-6.5-1.5-9.2c-2.7-2.9-6.9-2.1-9.2,0.9c-3.2,4.2-3.6,11.8-1.7,16.6c1.4,3.4,5.1,8.4,9.2,5.2
								C-42.8,78.8-42.5,77.7-43,76.7L-43,76.7z"/>
						</g>
					</g>
				</g>
				<g>
					<defs>
						<path id="SVGID_25_" d="M-49.8,141.5c-2.4-3.4-2-8.2,1-11.1c2.4-2.2,5.8-2.7,9.1-3.1c20.2-2.9,39.8-9,58.1-18
							c6.7-3.1,13-7,18.8-11.5c21-16.6,30.7-43.1,39.5-68.5c1.5-4.4,3-9.7,0.3-13.7c-0.9-1.3-2.1-2.3-2.9-3.6
							c-0.9-2-1.3-4.3-1.1-6.5c0-3.7,0-7.5,0.2-11.1c-0.1-1,0.1-2,0.6-2.9c0.4-0.6,1-1,1.6-1.3c3.6-1.9,7.8-2.5,11.8-1.5
							c2.5,5.3,5.3,11,3.8,16.8c-0.5,1.4-1.1,2.8-1.4,4.2c-1.7,5.7,0.6,11.8,3.8,16.8c3.1,5.1,7.2,9.5,9.6,14.9c2,4.7,3,9.8,3,14.9
							c0.8,22.7-11,44.1-26.4,61C58,142.2,29.2,158-3.6,159.6c-7.5,0.4-17.3-0.4-24-3.5C-36,152.5-44.3,148.7-49.8,141.5z"/>
					</defs>
					<clipPath id="SVGID_26_">
						<use xlink:href="#SVGID_25_"  style="overflow:visible;"/>
					</clipPath>
					<g id="Group_870_1_" class="st20">
						<g id="Group_869_1_" transform="translate(-1.782 58.15)">
							<path id="Path_14744_1_" class="st9" d="M-45,73.4c-0.1,1.5,0,1.5,0.2,0.2c0-0.3,0.2-0.8,0.2-1.2c0.1-1,0.5-1.9,0.6-2.9
								c0.6-2.4,1-4.7,1.4-7c0.7-3.2,1-6.5-1.5-9.2c-2.7-2.9-6.9-2.1-9.2,0.9c-3.2,4.2-3.6,11.8-1.7,16.6c1.4,3.4,5.1,8.4,9.2,5.2
								C-44.7,75.6-44.4,74.5-45,73.4C-44.9,73.5-45,73.5-45,73.4L-45,73.4z"/>
						</g>
					</g>
				</g>
				<g>
					<defs>
						<path id="SVGID_27_" d="M-49.8,141.5c-2.4-3.4-2-8.2,1-11.1c2.4-2.2,5.8-2.7,9.1-3.1c20.2-2.9,39.8-9,58.1-18
							c6.7-3.1,13-7,18.8-11.5c21-16.6,30.7-43.1,39.5-68.5c1.5-4.4,3-9.7,0.3-13.7c-0.9-1.3-2.1-2.3-2.9-3.6
							c-0.9-2-1.3-4.3-1.1-6.5c0-3.7,0-7.5,0.2-11.1c-0.1-1,0.1-2,0.6-2.9c0.4-0.6,1-1,1.6-1.3c3.6-1.9,7.8-2.5,11.8-1.5
							c2.5,5.3,5.3,11,3.8,16.8c-0.5,1.4-1.1,2.8-1.4,4.2c-1.7,5.7,0.6,11.8,3.8,16.8c3.1,5.1,7.2,9.5,9.6,14.9c2,4.7,3,9.8,3,14.9
							c0.8,22.7-11,44.1-26.4,61C58,142.2,29.2,158-3.6,159.6c-7.5,0.4-17.3-0.4-24-3.5C-36,152.5-44.3,148.7-49.8,141.5z"/>
					</defs>
					<clipPath id="SVGID_28_">
						<use xlink:href="#SVGID_27_"  style="overflow:visible;"/>
					</clipPath>
				</g>
			</g>
		</g>
		
			<ellipse transform="matrix(0.6734 -0.7393 0.7393 0.6734 -61.5394 78.2224)" class="st14" cx="57.8" cy="108.8" rx="6.2" ry="21.8"/>
		<path class="st15" d="M67,119.4c1.8-4.6,9.2,1.5,6.9,4s-11.4-2-20.3-10.1S39.4,96.6,41.7,94.1C39.9,102.1,65.2,123.9,67,119.4z"/>
		<path class="st16" d="M61.9,104.2c8.9,8.1,14.2,16.7,11.9,19.2c1.4-6.9-25.1-31.8-32.2-29.3C44,91.6,53.1,96.1,61.9,104.2z"/>
	</g>
</g>
</svg>
