<?xml version="1.0" encoding="utf-8"?>
<!-- Generator: Adobe Illustrator 25.2.1, SVG Export Plug-In . SVG Version: 6.00 Build 0)  -->
<svg version="1.1" id="Layer_3" xmlns="http://www.w3.org/2000/svg" xmlns:xlink="http://www.w3.org/1999/xlink" x="0px" y="0px"
	 viewBox="0 0 200 200" style="enable-background:new 0 0 200 200;" xml:space="preserve">
<style type="text/css">
	.st0{fill:#FEC502;}
	.st1{opacity:0.66;clip-path:url(#SVGID_2_);}
	.st2{fill:#FEE25D;}
	.st3{clip-path:url(#SVGID_4_);}
	.st4{fill:#F2B701;}
	.st5{opacity:0.6;}
	.st6{fill:#FFFFFF;}
	.st7{opacity:0.42;}
	.st8{clip-path:url(#SVGID_6_);}
	.st9{fill:#743B2A;}
	.st10{clip-path:url(#SVGID_8_);}
	.st11{opacity:0.43;fill:#743B2A;enable-background:new    ;}
	.st12{clip-path:url(#SVGID_10_);}
	.st13{opacity:0.53;clip-path:url(#SVGID_12_);}
	.st14{clip-path:url(#SVGID_14_);}
	.st15{opacity:0.48;fill:#FEC502;enable-background:new    ;}
</style>
<g id="game_quiz_item_banana" transform="translate(-25.726 -6.026)">
	<g id="Group_862" transform="translate(25.726 6.026)">
		<path id="Path_14731" class="st0" d="M8.9,119.7c-1.2-4,0.6-8.4,4.4-10.2c3-1.3,6.4-0.7,9.6-0.1c20.1,3.5,40.6,3.9,60.8,1
			c7.3-0.9,14.5-2.6,21.5-5c25.2-9.2,42.6-31.4,58.9-52.7c2.8-3.7,5.9-8.3,4.6-12.9c-0.4-1.5-1.3-2.8-1.6-4.3
			c-0.2-2.2,0.1-4.5,1-6.5c1.2-3.6,2.4-7.1,3.7-10.5c0.2-1,0.7-1.9,1.5-2.5c0.6-0.4,1.2-0.6,1.9-0.7c4-0.7,8.2,0.1,11.7,2.2
			c0.7,5.8,1.6,12.1-1.6,17.2c-0.9,1.2-1.9,2.4-2.7,3.6c-3.4,4.9-3.1,11.4-1.6,17.2c1.3,5.8,3.8,11.3,4.4,17.2
			c0.4,5.1-0.2,10.2-1.8,15.1c-6.4,21.8-24.3,38.5-44.1,49.7c-28.6,16.7-60.8,22.8-92.5,14.1c-7.3-1.9-16.3-5.8-21.8-10.8
			C18.5,134.5,11.9,128.3,8.9,119.7z"/>
		<g>
			<defs>
				<path id="SVGID_1_" d="M8.9,119.7c-1.2-4,0.6-8.4,4.4-10.2c3-1.3,6.4-0.7,9.6-0.1c20.1,3.5,40.6,3.9,60.8,1
					c7.3-0.9,14.5-2.6,21.5-5c25.2-9.2,42.6-31.4,58.9-52.7c2.8-3.7,5.9-8.3,4.6-12.9c-0.4-1.5-1.3-2.8-1.6-4.3
					c-0.2-2.2,0.1-4.5,1-6.5c1.2-3.6,2.4-7.1,3.7-10.5c0.2-1,0.7-1.9,1.5-2.5c0.6-0.4,1.2-0.6,1.9-0.7c4-0.7,8.2,0.1,11.7,2.2
					c0.7,5.8,1.6,12.1-1.6,17.2c-0.9,1.2-1.9,2.4-2.7,3.6c-3.4,4.9-3.1,11.4-1.6,17.2c1.3,5.8,3.8,11.3,4.4,17.2
					c0.4,5.1-0.2,10.2-1.8,15.1c-6.4,21.8-24.3,38.5-44.1,49.7c-28.6,16.7-60.8,22.8-92.5,14.1c-7.3-1.9-16.3-5.8-21.8-10.8
					C18.5,134.5,11.9,128.3,8.9,119.7z"/>
			</defs>
			<clipPath id="SVGID_2_">
				<use xlink:href="#SVGID_1_"  style="overflow:visible;"/>
			</clipPath>
			<g id="Group_859" class="st1">
				<g id="Group_858" transform="translate(-2.123 -13.01)">
					<path id="Path_14732" class="st2" d="M7.9,120.4c0.6,7.3,10.4,10.7,16.4,12c7.4,1.5,14.9,2.2,22.5,2.4
						c17.9,0.7,35.8-1.5,53-6.5c15.8-4.7,31.4-12.9,43.4-24.4c6.1-6,11.7-12.5,16.9-19.4c5-6.5,9.6-13.2,11.7-21.2
						c1.1-4.2,1.7-8.4,1.9-12.7c0.1-3.1,0-5.5,1-7.4c4-7,6.8-18.2,5.5-26.9c-1.3-9.2-11.3-4.3-12.9,4.7c-0.3,1.8-0.9,3.6-1.8,5.3
						c-1.3,2.5-3.1,4.7-4.6,7.1c-2,3-3.4,6.4-4.3,9.9c-0.7,3.7-0.9,7.4-0.7,11.1c-0.1,5.9-2.4,10.7-5.8,15.5
						c-4.3,6-8.9,11.8-13.8,17.3c-20.4,22.9-51.1,29.6-80.5,31.4c-8.1,0.4-16.4,0.9-24.6,0.9c-3.5,0-7-0.3-10.5-0.7
						c-3.4-0.4-6.5-1.9-9.9-1.3c-1.4-0.3-2.7,0.7-3,2C7.9,119.8,7.9,120.1,7.9,120.4z"/>
				</g>
			</g>
		</g>
		<g>
			<defs>
				<path id="SVGID_3_" d="M8.9,119.7c-1.2-4,0.6-8.4,4.4-10.2c3-1.3,6.4-0.7,9.6-0.1c20.1,3.5,40.6,3.9,60.8,1
					c7.3-0.9,14.5-2.6,21.5-5c25.2-9.2,42.6-31.4,58.9-52.7c2.8-3.7,5.9-8.3,4.6-12.9c-0.4-1.5-1.3-2.8-1.6-4.3
					c-0.2-2.2,0.1-4.5,1-6.5c1.2-3.6,2.4-7.1,3.7-10.5c0.2-1,0.7-1.9,1.5-2.5c0.6-0.4,1.2-0.6,1.9-0.7c4-0.7,8.2,0.1,11.7,2.2
					c0.7,5.8,1.6,12.1-1.6,17.2c-0.9,1.2-1.9,2.4-2.7,3.6c-3.4,4.9-3.1,11.4-1.6,17.2c1.3,5.8,3.8,11.3,4.4,17.2
					c0.4,5.1-0.2,10.2-1.8,15.1c-6.4,21.8-24.3,38.5-44.1,49.7c-28.6,16.7-60.8,22.8-92.5,14.1c-7.3-1.9-16.3-5.8-21.8-10.8
					C18.5,134.5,11.9,128.3,8.9,119.7z"/>
			</defs>
			<clipPath id="SVGID_4_">
				<use xlink:href="#SVGID_3_"  style="overflow:visible;"/>
			</clipPath>
			<g id="Group_861" class="st3">
				<g id="Group_860" transform="translate(-8.269 -9.418)">
					<path id="Path_14734" class="st4" d="M6.2,126.5c0.7,4.7,4.1,8.7,7.3,12.3c3.2,3.9,6.9,7.3,11,10.4
						c8.2,6.3,17.3,11.5,26.9,15.2c20,7.5,50.9,4.1,70.2-2.8c20.3-7.3,34.3-16.3,50.3-30.6c13.9-12.6,27.7-34.6,28.4-54.6
						c0.2-2.8,0.1-5.5-0.3-8.3c-0.3-2.2-1.5-4.9-1.3-7.3c0.1-1.8,1.8-3.7,2.7-5.6c1.3-2.6,2.3-5.3,3-8.1c1.2-5.3,1.6-10.8,1.2-16.3
						c-0.3-6.7-1.2-12.3-6.2-17c-3.1-3-7.5-0.6-9.2,2.5c-2.7,4.6-1.9,9.3-1.5,14.4c0.4,4,0.2,8-0.6,12c-0.7,3.6-2.7,6.4-4.3,9.8
						c-2.4,4.9-2.1,9.8-1,14.9c1.6,8,0.4,14.2-3.4,21.6c-3.4,6.5-8.9,12.7-14.2,18.1c-13.7,13.7-29.8,24.6-47.5,32.3
						c-7.8,3.6-16,6.4-24.4,8.3c-8.6,1.9-20.6,3.1-29.5,2.2c-9.8-1-19.5-4.7-28-9.2c-4.5-2.3-8.8-4.9-13-7.7
						c-4.4-2.8-8.4-7-13.3-8.7c-1.2-0.5-2.5,0.1-3,1.3C6.2,125.7,6.2,126.1,6.2,126.5z"/>
				</g>
			</g>
		</g>
	</g>
	<g id="Group_863" transform="translate(37.561 74.94)" class="st5">
		<path id="Path_14736" class="st6" d="M12.3,52.1c1.8,1.3,2.7,2.7,4.7,3.7c1.9,1,3.9,1.9,5.9,2.7c4.2,1.6,8.5,2.9,12.9,3.7
			c8.9,1.5,18,1.9,27.1,1.2c9.7-0.6,19.3-2.8,28.3-6.7c4.6-2,9-4.6,13-7.5c2.1-1.5,4-3.3,5.8-5.2c1.4-2,2.6-4,3.6-6.2
			c0.9-1.8-0.9-3.6-2.7-3.6c-4.4,0.1-8.8,1.1-12.9,2.8c-4.3,1.8-8.3,3.8-12.6,5.6c-7.8,3.4-16.3,4.9-24.9,5.8
			c-7.8,0.8-15.7,1.1-23.5,0.9c-4-0.1-8.1,0-12.1-0.3c-1.9-0.1-4-0.1-5.9-0.1c-2,0.1-4,0.3-5.9,0.7C11.7,49.6,11.4,51.4,12.3,52.1
			L12.3,52.1z"/>
	</g>
	<g id="Group_864" transform="translate(122.719 48.933)" class="st7">
		<path id="Path_14737" class="st6" d="M38,58.6c6.4,1.6,12.4-4.4,16.6-8.4c4.6-4.4,11.3-10.5,12-17.3c0.3-3.7-3.4-7.1-7.1-5.5
			c-5.5,2.4-8.7,8.3-12.3,12.7c-1.8,2.2-3.6,4.3-5.3,6.5c-1.6,2.2-3.1,5.2-5.2,6.8c-1.3,1.1-1.4,2.9-0.3,4.2
			C36.8,58.1,37.4,58.5,38,58.6L38,58.6z"/>
	</g>
	<g id="Group_872" transform="translate(25.726 6.026)">
		<g>
			<defs>
				<path id="SVGID_5_" d="M8.9,119.7c-1.2-4,0.6-8.4,4.4-10.2c3-1.3,6.4-0.7,9.6-0.1c20.1,3.5,40.6,3.9,60.8,1
					c7.3-0.9,14.5-2.6,21.5-5c25.2-9.2,42.6-31.4,58.9-52.7c2.8-3.7,5.9-8.3,4.6-12.9c-0.4-1.5-1.3-2.8-1.6-4.3
					c-0.2-2.2,0.1-4.5,1-6.5c1.2-3.6,2.4-7.1,3.7-10.5c0.2-1,0.7-1.9,1.5-2.5c0.6-0.4,1.2-0.6,1.9-0.7c4-0.7,8.2,0.1,11.7,2.2
					c0.7,5.8,1.6,12.1-1.6,17.2c-0.9,1.2-1.9,2.4-2.7,3.6c-3.4,4.9-3.1,11.4-1.6,17.2c1.3,5.8,3.8,11.3,4.4,17.2
					c0.4,5.1-0.2,10.2-1.8,15.1c-6.4,21.8-24.3,38.5-44.1,49.7c-28.6,16.7-60.8,22.8-92.5,14.1c-7.3-1.9-16.3-5.8-21.8-10.8
					C18.5,134.5,11.9,128.3,8.9,119.7z"/>
			</defs>
			<clipPath id="SVGID_6_">
				<use xlink:href="#SVGID_5_"  style="overflow:visible;"/>
			</clipPath>
			<g id="Group_865" class="st8">
				<path id="Path_14738" class="st9" d="M195.3,8.3c-2.5-5.2-7.8-9.3-13.8-9c-6.7,0.4-10.7,5.8-11.7,12c-0.2,1.1-0.3,2.2-0.3,3.3
					c-0.3,1.4-0.4,2.8-0.3,4.1c0.3,4.8,3.4,9,8,10.7c5.8,1.9,12.9-1.3,16.4-5.9C197,19,197.6,13.2,195.3,8.3z"/>
			</g>
		</g>
		<g>
			<defs>
				<path id="SVGID_7_" d="M8.9,119.7c-1.2-4,0.6-8.4,4.4-10.2c3-1.3,6.4-0.7,9.6-0.1c20.1,3.5,40.6,3.9,60.8,1
					c7.3-0.9,14.5-2.6,21.5-5c25.2-9.2,42.6-31.4,58.9-52.7c2.8-3.7,5.9-8.3,4.6-12.9c-0.4-1.5-1.3-2.8-1.6-4.3
					c-0.2-2.2,0.1-4.5,1-6.5c1.2-3.6,2.4-7.1,3.7-10.5c0.2-1,0.7-1.9,1.5-2.5c0.6-0.4,1.2-0.6,1.9-0.7c4-0.7,8.2,0.1,11.7,2.2
					c0.7,5.8,1.6,12.1-1.6,17.2c-0.9,1.2-1.9,2.4-2.7,3.6c-3.4,4.9-3.1,11.4-1.6,17.2c1.3,5.8,3.8,11.3,4.4,17.2
					c0.4,5.1-0.2,10.2-1.8,15.1c-6.4,21.8-24.3,38.5-44.1,49.7c-28.6,16.7-60.8,22.8-92.5,14.1c-7.3-1.9-16.3-5.8-21.8-10.8
					C18.5,134.5,11.9,128.3,8.9,119.7z"/>
			</defs>
			<clipPath id="SVGID_8_">
				<use xlink:href="#SVGID_7_"  style="overflow:visible;"/>
			</clipPath>
			<g id="Group_866" class="st10">
				<path id="Path_14740" class="st11" d="M188.3,1.1c-2.5-5.2-7.8-9.3-13.8-9c-6.7,0.4-10.7,5.8-11.7,12c-0.2,1.1-0.3,2.2-0.3,3.3
					c-0.3,1.4-0.4,2.8-0.3,4.1c0.3,4.8,3.4,9,8,10.7c5.8,1.9,12.9-1.3,16.4-5.9C190.1,11.9,190.7,6.1,188.3,1.1z"/>
			</g>
		</g>
		<g>
			<defs>
				<path id="SVGID_9_" d="M8.9,119.7c-1.2-4,0.6-8.4,4.4-10.2c3-1.3,6.4-0.7,9.6-0.1c20.1,3.5,40.6,3.9,60.8,1
					c7.3-0.9,14.5-2.6,21.5-5c25.2-9.2,42.6-31.4,58.9-52.7c2.8-3.7,5.9-8.3,4.6-12.9c-0.4-1.5-1.3-2.8-1.6-4.3
					c-0.2-2.2,0.1-4.5,1-6.5c1.2-3.6,2.4-7.1,3.7-10.5c0.2-1,0.7-1.9,1.5-2.5c0.6-0.4,1.2-0.6,1.9-0.7c4-0.7,8.2,0.1,11.7,2.2
					c0.7,5.8,1.6,12.1-1.6,17.2c-0.9,1.2-1.9,2.4-2.7,3.6c-3.4,4.9-3.1,11.4-1.6,17.2c1.3,5.8,3.8,11.3,4.4,17.2
					c0.4,5.1-0.2,10.2-1.8,15.1c-6.4,21.8-24.3,38.5-44.1,49.7c-28.6,16.7-60.8,22.8-92.5,14.1c-7.3-1.9-16.3-5.8-21.8-10.8
					C18.5,134.5,11.9,128.3,8.9,119.7z"/>
			</defs>
			<clipPath id="SVGID_10_">
				<use xlink:href="#SVGID_9_"  style="overflow:visible;"/>
			</clipPath>
			<g id="Group_868" class="st12">
				<g id="Group_867" transform="translate(-6.062 65.553)">
					<path id="Path_14742" class="st9" d="M15.4,55.2c-0.6,1.3-0.4,1.5,0.1,0.3c0.1-0.3,0.4-0.7,0.6-1c0.4-0.9,1-1.6,1.5-2.5
						c1.3-2.1,2.4-4.1,3.6-6.2c1.6-2.8,3-5.9,1.5-9.2c-1.6-3.6-5.9-4.1-9-2.1c-4.3,3-7.1,10.1-6.8,15.2c0.3,3.7,2.2,9.6,7.1,7.8
						C14.9,57.2,15.5,56.2,15.4,55.2L15.4,55.2z"/>
				</g>
			</g>
		</g>
		<g>
			<defs>
				<path id="SVGID_11_" d="M8.9,119.7c-1.2-4,0.6-8.4,4.4-10.2c3-1.3,6.4-0.7,9.6-0.1c20.1,3.5,40.6,3.9,60.8,1
					c7.3-0.9,14.5-2.6,21.5-5c25.2-9.2,42.6-31.4,58.9-52.7c2.8-3.7,5.9-8.3,4.6-12.9c-0.4-1.5-1.3-2.8-1.6-4.3
					c-0.2-2.2,0.1-4.5,1-6.5c1.2-3.6,2.4-7.1,3.7-10.5c0.2-1,0.7-1.9,1.5-2.5c0.6-0.4,1.2-0.6,1.9-0.7c4-0.7,8.2,0.1,11.7,2.2
					c0.7,5.8,1.6,12.1-1.6,17.2c-0.9,1.2-1.9,2.4-2.7,3.6c-3.4,4.9-3.1,11.4-1.6,17.2c1.3,5.8,3.8,11.3,4.4,17.2
					c0.4,5.1-0.2,10.2-1.8,15.1c-6.4,21.8-24.3,38.5-44.1,49.7c-28.6,16.7-60.8,22.8-92.5,14.1c-7.3-1.9-16.3-5.8-21.8-10.8
					C18.5,134.5,11.9,128.3,8.9,119.7z"/>
			</defs>
			<clipPath id="SVGID_12_">
				<use xlink:href="#SVGID_11_"  style="overflow:visible;"/>
			</clipPath>
			<g id="Group_870" class="st13">
				<g id="Group_869" transform="translate(-1.782 58.15)">
					<path id="Path_14744" class="st9" d="M16.6,53.1c-0.6,1.3-0.4,1.5,0.1,0.3c0.1-0.3,0.4-0.7,0.6-1c0.4-0.9,1-1.6,1.5-2.5
						c1.3-2.1,2.4-4.1,3.6-6.2c1.6-2.8,3-5.9,1.5-9.2c-1.6-3.6-5.9-4.1-9-2.1c-4.3,3-7.1,10.1-6.8,15.2c0.3,3.7,2.2,9.6,7.1,7.8
						c1-0.2,1.7-1.2,1.5-2.3C16.6,53.2,16.6,53.2,16.6,53.1L16.6,53.1z"/>
				</g>
			</g>
		</g>
		<g>
			<defs>
				<path id="SVGID_13_" d="M8.9,119.7c-1.2-4,0.6-8.4,4.4-10.2c3-1.3,6.4-0.7,9.6-0.1c20.1,3.5,40.6,3.9,60.8,1
					c7.3-0.9,14.5-2.6,21.5-5c25.2-9.2,42.6-31.4,58.9-52.7c2.8-3.7,5.9-8.3,4.6-12.9c-0.4-1.5-1.3-2.8-1.6-4.3
					c-0.2-2.2,0.1-4.5,1-6.5c1.2-3.6,2.4-7.1,3.7-10.5c0.2-1,0.7-1.9,1.5-2.5c0.6-0.4,1.2-0.6,1.9-0.7c4-0.7,8.2,0.1,11.7,2.2
					c0.7,5.8,1.6,12.1-1.6,17.2c-0.9,1.2-1.9,2.4-2.7,3.6c-3.4,4.9-3.1,11.4-1.6,17.2c1.3,5.8,3.8,11.3,4.4,17.2
					c0.4,5.1-0.2,10.2-1.8,15.1c-6.4,21.8-24.3,38.5-44.1,49.7c-28.6,16.7-60.8,22.8-92.5,14.1c-7.3-1.9-16.3-5.8-21.8-10.8
					C18.5,134.5,11.9,128.3,8.9,119.7z"/>
			</defs>
			<clipPath id="SVGID_14_">
				<use xlink:href="#SVGID_13_"  style="overflow:visible;"/>
			</clipPath>
			<g id="Group_871" class="st14">
				<path id="Path_14746" class="st15" d="M187.7,25c-2.7-2.1-6.6-2-9.2,0.3l-3.1-1.3c-2.9-1.1-6.2-0.6-8.7,1.3
					c-0.5-0.1-1-0.2-1.5-0.1c-4.7-0.5-8.9,2.9-9.4,7.6c-0.3,2.9,0.8,5.7,3.1,7.5c-1.8,3.1-1.8,7.3,1.8,9.6c1,3.7,5.2,7,8.3,8.6
					c5.6,3,12.6,2.5,18.4,0.3c6.2-2.5,5.5-10.2,0.6-13.2c1.7-1.8,2.6-4.2,2.5-6.7C193.1,34.2,192,28.3,187.7,25z"/>
			</g>
		</g>
	</g>
</g>
</svg>
