<?xml version="1.0" encoding="utf-8"?>
<!-- Generator: Adobe Illustrator 25.2.1, SVG Export Plug-In . SVG Version: 6.00 Build 0)  -->
<svg version="1.1" id="Layer_2" xmlns="http://www.w3.org/2000/svg" xmlns:xlink="http://www.w3.org/1999/xlink" x="0px" y="0px"
	 viewBox="0 0 200 200" style="enable-background:new 0 0 200 200;" xml:space="preserve">
<style type="text/css">
	.st0{fill:#D66C5B;}
	.st1{fill:#C76950;}
	.st2{fill:#E17760;}
</style>
<path class="st0" d="M29.7,94.1L47.3,96c0.9,0.1,1.9-0.2,2.6-0.8l94-80.2c0.8-0.7,1.3-1.7,1.4-2.8l0.4-11.3l-11.1,2.2L35.7,88.1
	L29.7,94.1z"/>
<g>
	<path class="st1" d="M102.2,101.9c-2.9,1.4-5.8,2.7-8.7,4.1c-17.3,8.2-34.5,16.4-51.9,24.3c9.9,3.6,20.3,6.4,31.1,8.5
		c20,3.8,33.8,8.6,51.1,20c12.8,8.5,35.1,27.4,50.6,28.1c18.7,0.8,33.1-19.8,43-32.7c-1.9-1.9-2.1-4.9-3.2-6.6L102.2,101.9z"/>
	<path class="st1" d="M169.3,72.1c-25.6,10.5-50.8,22.1-75.8,33.9c-9.2,4.4-18.4,8.8-27.7,13.1c12.3,3.9,24.2,7.7,34.3,12.4
		c20.5,9.6,37.5,25,57.7,35.2c16.4,8.3,34.3,13.3,49.9-0.5c13.9-12.4,17.9-37.8,8.3-53.5C205.4,95.6,185,84.8,169.3,72.1z"/>
	<path class="st2" d="M172.1,70.9c-0.8,0.3-1.7,0.7-2.5,1c-1.8,0.8-3.7,1.5-5.5,2.3c25,19.1,63.6,43,39.5,76.1
		c-1.2,1.6-0.8,3.2,0.3,4.3c-15.9,22.2-68.3-21.5-84.2-29.6c-11.9-6-24.6-10.1-37.5-13.6c-3.7,1.7-7.4,3.5-11,5.2
		c3,0.8,5.9,1.5,8.8,2.3c16.5,4.5,34.1,9.7,48.3,19.7c7,4.9,14.2,9.6,21.6,13.9c14.2,8.3,33.5,18.8,50.4,14.1
		c5.2-1.4,8.9-5.4,11.4-9.9c0.8-1.5,0.5-3-0.3-4.1C235,117.6,198.9,91.4,172.1,70.9z"/>
	<path class="st2" d="M173.2,95.4c-6.7-5.4-13.1-11.1-19.6-16.7c-2.8,1.2-5.5,2.4-8.3,3.6c1.6,1.4,3.2,2.9,4.9,4.3
		c8,6.9,16.5,13.3,24.7,20c6.8,5.5,22.6,14.6,17.5,25.5c-0.1,0.2-0.2,0.4-0.2,0.7c-0.5,0.6-0.9,1.4-0.9,2.3c0,1-26-8.3-27.5-9
		c-9.3-4-18.4-8.5-27.6-12.9c-10.3-5-20.9-8.9-31.6-12.3c-3.3,1.6-6.6,3.1-9.9,4.7c13.8,4.2,27.3,9.1,40.6,15.5
		c7.5,3.6,60.1,33,63.4,15.3c0.1-0.2,0.2-0.3,0.3-0.5C207.6,117.3,185.5,105.3,173.2,95.4z"/>
	<path class="st2" d="M148.5,100.4c-0.1-1-0.7-2-1.8-2.8c-0.5-0.3-0.9-0.7-1.4-1c-3.1-3.5-6.5-6.8-10.1-9.9
		c-5.3,2.4-10.5,4.7-15.8,7.1c7.4,2.1,14.6,4.5,20.8,8.4c1.1,1.2,2.1,2.4,3.1,3.7c3,3.9,8.4-1.5,5.4-5.3
		C148.7,100.6,148.6,100.5,148.5,100.4z"/>
</g>
<g>
	<path class="st1" d="M-28.1,76.8C-7.8,86.7,13.2,92.6,35,94.7c0.3,0,0.6-0.1,0.8-0.2c17-14.3,33.6-29.1,50.3-43.7l-124-13.6
		c-2.8,9,0.6,18.6,1.5,27.9C-35.9,70.1-32.7,74.6-28.1,76.8z"/>
	<path class="st1" d="M55.5,77.5c11.3-9.9,22.6-19.8,33.9-29.7c17.6-15.4,35.5-30.5,53.9-45.1c-0.8-0.4-1.6-0.7-2.4-1.1
		C103.5-16.2,72.6-43.7,30.7-20.8C12.1-10.6-54.1,21.8-33.2,48.6C-12.9,74.5,22.4,76.5,55.5,77.5z"/>
	<path class="st2" d="M-15.6,63.9c22.2,11.8,50.1,10.8,75.4,9.9c3.1-2.7,6.2-5.4,9.3-8.1c-13.4,0.2-26.8,0.9-40,0.3
		C6.1,65.1-42.5,55.6-21.9,22.2C-15,11-1.5,3.7,9.6-2.5C21.5-9.1,33.8-15,46.8-19c32.8-9.9,57.8,9.8,86.2,22.7
		c1.8,0.8,3.8,1.7,5.8,2.5c2.3-1.8,4.5-3.6,6.8-5.4c-2.3-0.9-4.6-1.8-6.7-2.8c-29.4-12.4-52.7-31.9-86.3-26.2
		C26.1-23.6-5-6.9-23.6,12.2C-40.4,29.5-36.3,52.9-15.6,63.9z"/>
	<path class="st2" d="M53.5,56.8c8.7-0.3,17.3-0.4,25.9-0.3c2.8-2.4,5.5-4.8,8.3-7.3c-23.2-0.4-46.3,1.1-69.7-0.2
		c-6.6-0.4-29.2-1.3-22.7-14.8c3.6-7.6,13-12.7,19.9-16.9C33.1,6.5,53.1,1.4,73.8,2.7c17.9,1.1,33.6,8.7,49.4,16.3
		c2.3-1.9,4.6-3.8,6.9-5.7C113.5,5.5,96.7-1.9,78.3-4.4C55-7.6,31.4-1.1,11.4,10.8c-9.4,5.6-35.9,23.5-21.8,37
		C4.3,61.8,35.4,57.4,53.5,56.8z"/>
	<path class="st2" d="M13.1,40.9c10.9-0.1,21.5-2.8,32.3-3.7c12.3-1,24.5-0.9,36.7,0.7c5.7,0.7,11.8,0.7,17.9,0.7
		c4.8-4.2,9.7-8.3,14.6-12.4c-16.2-6.8-34.5-10.4-50.9-11.3c-17.5-1-42.3,5.1-53.4,19.6C8.4,36.9,9.4,40.9,13.1,40.9z M68.4,22.7
		c11.8,0.7,25.1,3.5,37.5,8.1c-8.9-0.2-18,0.2-26.2-0.9c-19.5-2.5-37.8,1.5-56.7,2.9C35.5,23.9,54.3,21.9,68.4,22.7z"/>
</g>
</svg>
