<?xml version="1.0" encoding="utf-8"?>
<!-- Generator: Adobe Illustrator 25.2.1, SVG Export Plug-In . SVG Version: 6.00 Build 0)  -->
<svg version="1.1" id="Layer_3" xmlns="http://www.w3.org/2000/svg" xmlns:xlink="http://www.w3.org/1999/xlink" x="0px" y="0px"
	 viewBox="0 0 200 200" style="enable-background:new 0 0 200 200;" xml:space="preserve">
<style type="text/css">
	.st0{fill:#C76950;}
	.st1{fill:#E17760;}
</style>
<g>
	<path class="st0" d="M-13.1,52.2c-4.5,8.3-3,18.5-3.9,27.8c-0.5,5.1,1.8,10,5.8,13.1c27.8,21,59,33.1,94.4,36.7
		c20.2,2.1,34.4,5.7,52.6,15.6c13.5,7.3,37.3,24.3,52.8,23.7c18.7-0.8,31.3-22.5,40.1-36.2c-2-1.7-2.5-4.7-3.8-6.3L-13.1,52.2z"/>
	<path class="st0" d="M223.8,91.7c10.9,14.8,9.1,40.5-3.7,54c-14.3,15.1-32.6,11.7-49.6,4.8c-20.9-8.5-39.2-22.4-60.4-30.2
		c-38-14-99.3-13.7-120.7-55.8C-26,34.1,45.1,15.1,65.4,8.7C110.9-5.7,136,27.2,169.2,51.9C186.6,64.8,210.7,74,223.8,91.7z"/>
	<path class="st1" d="M216.5,132.4C204.5,160,146,118.9,129,112c-26-10.5-54.9-12-82-18.5c-22.3-5.3-68.2-24-41.5-52.8
		c9-9.7,23.5-14.2,35.7-18.2c12.9-4.2,26.1-7.6,39.7-9c34.1-3.4,54.8,20.8,80.2,38.9c25.1,18,77.1,39,53.7,77.7
		c-2.5,4.2,4.3,7.4,6.9,3.3c25.3-41.8-25-66.1-53.7-85.4C141.4,30.2,122.3,6.6,88.2,5.7C61.5,5,27.7,15.4,5.8,30.6
		C-14,44.3-14.6,68.1,3.6,82.9c23,18.7,57.3,21.4,85.3,26.4c16.9,3.1,34.8,6.8,49.8,15.5c7.4,4.3,15,8.3,22.7,12
		c14.8,7,35,15.9,51.5,9.8c5-1.9,8.4-6.1,10.5-10.9C225.3,131.2,218.5,127.9,216.5,132.4L216.5,132.4z"/>
	<path class="st1" d="M201.1,116c0,1-26.6-6.1-28.2-6.6c-9.6-3.2-19.1-6.9-28.6-10.6c-34-12.9-69.8-15-104.8-24
		c-6.4-1.6-28.3-6.9-19.4-18.9c5-6.7,15.2-9.9,22.8-12.7c19.5-7.2,40.2-8.3,60.2-3.1c20.5,5.4,36.2,19,52.9,31.1
		c8.6,6.2,17.5,11.9,26.3,17.8c7.2,4.9,23.7,12.6,19.6,23.9c-1.7,4.6,5.2,7.9,6.9,3.3c7-19.2-16-29.3-29.1-38.1
		c-23.1-15.5-44.1-35-70.8-44.1c-22.2-7.6-46.6-5.8-68.5,2C30.2,39.6,0.7,52.1,11.9,68c11.7,16.6,43.1,18.3,61,21.3
		c24.5,4.1,48,8.6,71.2,17.5c7.9,3,65.2,29,64.6,8.5C208.5,110.4,200.9,111.1,201.1,116L201.1,116z"/>
	<path class="st1" d="M155.9,85.4c-16.3-17.6-42.1-29.5-65-35.4c-17-4.3-42.5-3.2-56.2,8.9c-2.4,2.1-2.1,6.2,1.5,6.9
		c10.7,2,21.6,1.4,32.4,2.6c12.2,1.4,24.2,3.8,35.9,7.7c14.5,4.8,32.7,4.9,45.8,13.2c0.1-2.3,0.2-4.7,0.4-7
		c-0.1,0.1-0.2,0.1-0.3,0.2c-4.4,2.1-1.9,9.3,2.5,7.2c0.1-0.1,0.2-0.1,0.3-0.2c3.1-1.5,3.3-5.2,0.4-7c-14.3-8.9-34.3-9.3-49.9-14.5
		c-21.9-7.3-43.9-5.5-66.1-9.6c0.5,2.3,1,4.6,1.5,6.9C53,52.9,77.3,54.3,94,58.6c19.8,5.1,43,17.5,56.9,32.5
		C154.3,94.8,159.2,89,155.9,85.4L155.9,85.4z"/>
</g>
</svg>
