<?xml version="1.0" encoding="utf-8"?>
<!-- Generator: Adobe Illustrator 25.2.1, SVG Export Plug-In . SVG Version: 6.00 Build 0)  -->
<svg version="1.1" id="Layer_2" xmlns="http://www.w3.org/2000/svg" xmlns:xlink="http://www.w3.org/1999/xlink" x="0px" y="0px"
	 viewBox="0 0 200 200" style="enable-background:new 0 0 200 200;" xml:space="preserve">
<style type="text/css">
	.st0{fill:#5B5552;}
	.st1{fill:#5A2B0C;}
	.st2{opacity:0.5;fill:#5B5552;}
	.st3{opacity:0.5;fill:#874026;}
	.st4{opacity:0.5;fill:#A34F32;}
	.st5{fill:#F3F4C6;}
	.st6{opacity:0.52;fill:#A34F32;}
	.st7{opacity:0.6;fill:#5B5552;}
	.st8{opacity:0.5;fill:#764937;}
</style>
<ellipse transform="matrix(0.8947 -0.4466 0.4466 0.8947 -36.5962 18.4741)" class="st0" cx="20.9" cy="86.9" rx="3" ry="20"/>
<g>
	<g>
		<g>
			<g>
				<g>
					<g>
						<path class="st0" d="M129.8,103.1c0.7-4.8,1.2-9.5,1.9-14.3c0.7-4.7,1.3-9.3,1.8-14c0.1-0.8,0.1-1.5,0.2-2.3
							c-2.3,1.2-4.7,2.3-7.1,3.1c-9,3.1-18.3,4.7-24.8,12.2c-4.5,5.3-5.3,13.2-1.1,19c4.6,6.3,14.3,8.6,21.5,8.8
							c2,0.1,3.9,0,5.9-0.1C128.5,111.4,129.2,107.2,129.8,103.1z"/>
						<path class="st1" d="M128,115.3c-1.9,0.2-3.9,0.2-5.9,0.1c-7.4-0.3-16.9-2.7-21.3-8.8c-1.3-1.7-2.1-3.7-2.5-5.8
							c-0.8-4.5,0.5-9.3,3.6-12.9c5.2-6.1,12.2-8.3,19.7-10.6c1.7-0.5,3.4-1,5.1-1.6c2.3-0.8,4.6-1.8,7-3.1c0-0.1,0-0.3,0-0.4
							c-2.5,1.3-4.9,2.4-7.2,3.2c-1.7,0.6-3.4,1.1-5.1,1.6c-7.5,2.3-14.5,4.5-19.8,10.7c-3.1,3.7-4.5,8.6-3.7,13.2c0,0,0,0,0,0
							c0.4,2.2,1.3,4.2,2.6,5.9c4.5,6.1,14.1,8.6,21.6,8.9c2,0.1,3.9,0,5.9-0.1C128,115.6,128,115.4,128,115.3z"/>
					</g>
				</g>
				<path class="st2" d="M128.5,111.6c-1.6,0.1-3.3,0.1-4.9-0.1c-3.3-0.4-7.8-1.8-10.5-3.9c-2.8-2.2-4.7-5.5-4.6-9.2
					c0.1-4.1,3.4-7.3,6.7-9.3c4-2.4,8.7-3.5,13.1-4.8c1.4-0.4,2.8-0.9,4.1-1.4c0.4-2.7,0.7-5.4,1-8.2c0.1-0.8,0.1-1.5,0.2-2.3
					c-2.3,1.2-4.7,2.3-7.1,3.1c-9,3.1-18.3,4.7-24.8,12.2c-4.5,5.3-5.3,13.2-1.1,19c4.6,6.3,14.3,8.6,21.5,8.8c2,0.1,3.9,0,5.9-0.1
					C128.2,114.2,128.3,112.9,128.5,111.6z"/>
				<path class="st3" d="M110.4,85.4c2.5-1.7,5.3-2.8,8.2-3.5c0.9-0.2,1.8-0.3,2.7-0.4c0.7-0.2,1.3-0.3,2-0.5
					c1.7-0.3,3.5-0.4,5.2-0.6c1.5-0.2,3-0.5,4.4-1c0.2-1.6,0.4-3.2,0.5-4.7c0.1-0.8,0.1-1.5,0.2-2.3c-2.3,1.2-4.7,2.3-7.1,3.1
					c-9,3.1-18.3,4.7-24.8,12.2c-4.5,5.3-5.3,13.2-1.1,19c3.1,4.3,8.6,6.7,14.1,7.9c-0.7-0.2-1.4-0.5-2-0.8c-2.4-1-4.6-2.4-6.3-4.3
					c-2-2.1-3.2-4.9-3.6-7.8c-0.4-3.3,0.2-6.8,1.7-9.9C105.8,89.4,107.9,87.1,110.4,85.4z"/>
				<path class="st4" d="M106.4,85.2c3-2.3,6.7-3.8,10.3-4.9c2-0.6,4-1,6-1.2c2-0.2,3.4,0.1,5.5-0.1c1.5-0.1,3.4-0.6,5-1.2
					c0.1-1,0.2-2,0.3-3.1c0.1-0.8,0.1-1.5,0.2-2.3c-2.3,1.2-4.7,2.3-7.1,3.1c-9,3.1-18.3,4.7-24.8,12.2c-4.5,5.3-5.3,13.2-1.1,19
					c2.2,3,5.6,5.1,9.4,6.5c-4.7-2.2-9-5.7-10.4-10.9C98,96.1,101.4,89.1,106.4,85.2z"/>
			</g>
		</g>
	</g>
	<g>
		<path class="st5" d="M133,79c0.2-1.4,0.3-2.8,0.5-4.2c0-0.2,0-0.4,0-0.6c-0.4,0-0.8,0.1-1.3,0.2c-1.6,0.4-3.2,1.3-4.6,1.9
			c-1.3,0.6-2.7,1.2-4,1.8c-0.5,0.3-0.9,0.7-1.1,1.2c-0.2,0.6,0.5,1,1.3,1.2C126.9,80.7,130.5,80.2,133,79z"/>
	</g>
	<path class="st6" d="M133.1,78.1c0.1-0.9,0.2-1.7,0.3-2.6c-2.1,1-3.8,3-3.3,3.1C130.8,78.8,132.1,78.5,133.1,78.1z"/>
</g>
<g>
	<g>
		<g>
			<g>
				<g>
					<g>
						<path class="st0" d="M179.8,128.5c-3.8-4.8-10.7-5.4-16.1-7.3c-0.3-0.1-0.6-0.2-0.9-0.3c-5.3,3.9-11,7.4-16.7,10.9
							c-4.1,2.6-8.1,5.2-12.2,7.8c-2.9,1.8-5.7,3.5-8.6,5.3c3.9,3.5,8.3,6.3,13.3,8.2c5.5,2.1,11.7,3.5,17.6,3.6
							c7.8,0.1,15.5-2.4,20.8-8c0.9-1,1.8-2.1,2.6-3.3C182.8,140.5,183.6,133.3,179.8,128.5z"/>
						<path class="st1" d="M180,128.4c-2.9-3.7-7.5-4.9-12-6.1c-1.5-0.4-2.8-0.8-4.2-1.2c-0.3-0.1-0.5-0.2-0.8-0.3
							c-0.1,0.1-0.2,0.2-0.3,0.2c0.3,0.1,0.7,0.2,1,0.4c1.3,0.5,2.7,0.8,4.2,1.2c4.4,1.2,9.1,2.4,11.9,6c3.8,4.9,2.8,12.1-0.2,16.7
							c-0.5,0.8-1,1.5-1.6,2.2c-0.3,0.4-0.6,0.7-1,1.1c-4.9,5.2-12.2,8-20.6,7.9c-5.5-0.1-11.6-1.3-17.5-3.5
							c-4.8-1.8-9.2-4.6-13.2-8.2c-0.1,0.1-0.2,0.1-0.3,0.2c4,3.6,8.6,6.5,13.4,8.3c6,2.3,12.1,3.5,17.7,3.6
							c8.5,0.1,15.9-2.8,20.9-8.1c0.9-1,1.8-2.1,2.6-3.3c1.6-2.5,2.6-5.6,2.7-8.6C182.6,133.6,181.8,130.7,180,128.4z"/>
					</g>
					<path class="st7" d="M175.8,141.9c-0.1,0.8-0.4,1.6-0.8,2.3c0,0,0,0,0,0c-3.3,4.6-8.4,7.6-14,8.7c-5.9,1.1-12.3-0.1-17.7-2.7
						c-3.1-1.5-6.2-3.1-8.9-5.3c-0.3-0.3-2.3-1.7-1.5-2.2c1-0.6,2.4,0.3,3.2,0.7c1.1,0.5,2.2,1.2,3.3,1.6c1.6,0.6,3.3,1,5,1.3
						c3.7,0.7,7.5,0.6,11.2,0c3.5-0.5,7-1.6,9.9-3.7c1.8-1.4,3.3-3.1,5.4-4.1c1-0.4,2.2-0.7,3.2-0.1
						C175.4,139.2,176,140.6,175.8,141.9z"/>
				</g>
				<path class="st2" d="M179.8,128.5c-3.8-4.8-10.7-5.4-16.1-7.3c-0.3-0.1-0.6-0.2-0.9-0.3c-2.9,2.1-5.9,4.1-8.9,6.1
					c2.9,1.3,6,2.3,9.3,2.9c5.9,1,16.8,2,15.1,10.7c-1.2,6-7.2,10.4-12.5,12.4c-3.9,1.5-8.8,2-12.9,1.7c-5.6-0.4-10.8-2.7-15.6-5.6
					c-3-1.8-6-3.8-8.6-6.1c-1.1,0.7-2.2,1.4-3.3,2.1c3.9,3.5,8.3,6.3,13.3,8.2c5.5,2.1,11.7,3.5,17.6,3.6c7.8,0.1,15.5-2.4,20.8-8
					c0.9-1,1.8-2.1,2.6-3.3C182.8,140.5,183.6,133.3,179.8,128.5z"/>
				<path class="st8" d="M174.2,151.3c-0.1,0.1-0.2,0.1-0.3,0.2c0.1-0.1,0.2-0.2,0.4-0.3C174.3,151.2,174.3,151.2,174.2,151.3z"/>
				<path class="st3" d="M179.8,128.5c-3.8-4.8-10.7-5.4-16.1-7.3c-0.3-0.1-0.6-0.2-0.9-0.3c-2,1.5-4,2.8-6,4.2
					c1.1,0.4,2.3,0.7,3.6,0.7c1.6,0.1,3.1,0,4.7-0.1c0.8,0,1.5,0,2.3,0c1.3,0,2.6,0,3.9,0.3c2,0.3,4,1,5.5,2.4
					c1.3,1.2,2.3,2.7,3.1,4.3c0.8,1.6,1.3,3.4,1.4,5.2c0.1,2-0.5,3.8-1.3,5.6c-0.3,0.6-0.6,1.2-0.9,1.7c-0.7,1.3-1.5,2.6-2.5,3.7
					c0,0-0.1,0.1-0.1,0.1c-0.4,0.5-0.9,1-1.4,1.5c0.7-0.6,1.4-1.3,2.1-2c0.9-1,1.8-2.1,2.6-3.3C182.8,140.5,183.6,133.3,179.8,128.5
					z"/>
				<path class="st4" d="M162.8,120.9c-1.4,1-2.7,2-4.1,2.9c0.6,0,1.2,0,1.7-0.2c0.9-0.3,1.4-1.3,2.2-1.7c1.1-0.6,2.6-0.2,3.8,0.1
					c-0.9-0.3-1.8-0.5-2.6-0.8C163.4,121.1,163.1,121,162.8,120.9z"/>
			</g>
		</g>
	</g>
</g>
<g>
	<g>
		<g>
			<g>
				<g>
					<g>
						<path class="st0" d="M25.7,95.2c-2.2-4.3-4.2-8.8-6.3-13.1c-2-4.2-3.9-8.4-6.1-12.5c-0.2-0.4-0.4-0.7-0.6-1.1
							C3.9,70-4.8,70.7-11.7,76.8c-5.2,4.7-7.1,12.3-3.7,18.6c3.7,6.8,13,10.5,20.1,11.7c7.9,1.4,16,0.9,23.6-2.1
							c0.7-0.3,1.3-0.5,2-0.8C28.7,101.3,27.2,98.2,25.7,95.2z"/>
						<path class="st1" d="M30.2,104.1c-0.7,0.3-1.3,0.6-2,0.8c-7.2,2.8-15.3,3.5-23.5,2c-7.3-1.3-16.4-5-19.9-11.6
							c-1-1.9-1.6-3.9-1.7-6.1c-0.2-4.6,1.8-9.2,5.3-12.3c6-5.4,13.3-6.5,20.9-7.8c1.1-0.2,2.2-0.4,3.4-0.6
							c-0.1-0.1-0.1-0.2-0.2-0.3c-1.1,0.2-2.2,0.4-3.2,0.5c-7.7,1.3-15,2.4-21.1,7.9c-3.6,3.2-5.6,7.9-5.4,12.6c0,0,0,0,0,0
							c0.1,2.2,0.7,4.3,1.7,6.2c3.6,6.7,12.8,10.5,20.2,11.8c8.3,1.5,16.4,0.7,23.7-2.1c0.7-0.3,1.4-0.5,2-0.8
							C30.3,104.3,30.2,104.2,30.2,104.1z"/>
					</g>
					<path class="st7" d="M26.6,97c-1,0.6-2.1,1.1-3.2,1.5c-1.1,0.4-2.3,0.7-3.5,1c-0.9,0.3-2.5,0.6-2.8,1.7
						c-0.3,0.9,2.1,0.7,2.6,0.7c2.9-0.2,5.8-0.8,8.7-1.6C27.7,99.2,27.1,98.1,26.6,97z"/>
				</g>
				<path class="st2" d="M29,101.8c-1.5,0.4-3.1,0.8-4.6,1.1c-5.8,1.1-11.9,1.9-17.7,0.3c-3.2-0.9-7.5-2.8-9.8-5.3
					c-2.5-2.6-3.9-6.1-3.3-9.7c0.7-4,4.4-6.7,7.9-8.3c4.3-1.9,9.1-2.2,13.7-2.9c0.6-0.1,1.1-0.2,1.7-0.3c-1.2-2.4-2.3-4.8-3.6-7.2
					c-0.2-0.4-0.4-0.7-0.6-1.1C3.9,70-4.8,70.7-11.7,76.8c-5.2,4.7-7.1,12.3-3.7,18.6c3.7,6.8,13,10.5,20.1,11.7
					c7.9,1.4,16,0.9,23.6-2.1c0.7-0.3,1.3-0.5,2-0.8C29.9,103.5,29.4,102.7,29,101.8z"/>
				<path class="st8" d="M53.4,79.9c0,0.1,0,0.2-0.1,0.3c0-0.2,0-0.3,0.1-0.5C53.4,79.8,53.4,79.9,53.4,79.9z"/>
				<path class="st3" d="M13.2,69.6c-0.2-0.4-0.4-0.7-0.6-1.1C3.9,70-4.8,70.7-11.7,76.8c-5.2,4.7-7.1,12.3-3.7,18.6
					c2.5,4.7,7.6,7.8,12.9,9.8c-0.7-0.3-1.3-0.7-1.9-1c-2.2-1.3-4.2-3-5.7-5.1c-1.7-2.4-2.5-5.3-2.5-8.2c0-3.4,1.2-6.7,3-9.5
					c1.6-2.5,4.1-4.5,6.7-5.8c2.7-1.3,5.6-2.1,8.6-2.3c0.9-0.1,1.8-0.1,2.7,0c0.7-0.1,1.3-0.1,2-0.2c1.5-0.1,3,0,4.5,0.1
					C14.4,72,13.8,70.8,13.2,69.6z"/>
				<path class="st4" d="M13.2,69.6c-0.2-0.4-0.4-0.7-0.6-1.1C3.9,70-4.8,70.7-11.7,76.8c-5.2,4.7-7.1,12.3-3.7,18.6
					c1.8,3.3,4.9,5.9,8.4,7.8c-4.4-2.9-8.1-6.9-8.8-12.2c-0.8-6.5,3.5-13,9-16.1C-3.5,73,0.4,72,4.1,71.5c2-0.3,4.1-0.5,6.1-0.4
					c1.5,0.1,2.7,0.4,4,0.5C13.9,70.9,13.6,70.3,13.2,69.6z"/>
			</g>
		</g>
	</g>
	<g>
		<path class="st5" d="M13.2,69.6c-0.6,0.2-1.3,0.4-1.9,0.5c-0.5,0.3-1,0.6-1.2,1.1c-0.2,0.6,0.4,1.1,1.2,1.4
			c1.2,0.2,2.4,0.4,3.7,0.4C14.4,71.9,13.8,70.7,13.2,69.6z"/>
	</g>
</g>
<g>
	<g>
		<g>
			<g>
				<g>
					<g>
						<path class="st0" d="M80.3,103.4c4.2-4,6.7-10.9,4.2-16.4C82,81.4,75.5,79.1,70.6,76c-3.1-2-6.1-4.2-8.7-6.8c-0.5,1-1,2-1.6,3
							c-2.2,4.1-4.6,8-6.9,12c-2.4,4.1-4.8,8.3-7.1,12.5c-1.2,2.3-2.5,4.6-3.8,6.8c3.9,2.3,8.2,4.1,12.5,5.3
							c7.6,1.9,15.6,1.4,22.1-2.8C78.2,105.2,79.3,104.3,80.3,103.4z"/>
						<path class="st1" d="M80.5,103.5c2.2-2.1,3.9-4.8,4.7-7.7c0.9-3.2,0.8-6.2-0.4-8.9c-1.9-4.3-6.2-6.6-10.2-8.8
							c-1.3-0.7-2.6-1.4-3.7-2.2c-3.5-2.2-6.3-4.4-8.7-6.8c-0.1,0.1-0.1,0.2-0.2,0.3c2.4,2.4,5.3,4.6,8.7,6.8
							c1.2,0.8,2.4,1.4,3.8,2.2c4,2.2,8.2,4.5,10.1,8.7c2.6,5.6-0.2,12.4-4.2,16.2c-0.6,0.6-1.3,1.2-2,1.7c-0.4,0.3-0.8,0.6-1.2,0.8
							c-6,3.9-13.8,4.9-21.9,2.8c-4.1-1.1-8.3-2.8-12.5-5.2c-0.1,0.1-0.1,0.2-0.2,0.3c4.1,2.4,8.4,4.2,12.5,5.3
							c8.3,2.1,16.1,1.1,22.2-2.9C78.3,105.3,79.4,104.4,80.5,103.5z"/>
					</g>
					<path class="st7" d="M76.1,101.1C76.1,101.1,76.1,101.1,76.1,101.1c0.6-0.6,1-1.3,1.3-2.1c0.5-1.3,0.2-2.8-0.8-3.8
						c-0.8-0.8-2-0.9-3.1-0.7c-2.2,0.4-4.1,1.8-6.2,2.7c-3.2,1.4-7,1.6-10.5,1.3c-3.5-0.3-7-1.1-10.3-2.4c-0.1,0.2-0.2,0.4-0.3,0.6
						c-0.6,1.1-1.2,2.1-1.7,3.2c4.5,3.6,10.1,6,15.9,6.4C66.1,106.5,71.8,104.8,76.1,101.1z"/>
				</g>
				<path class="st2" d="M80.3,103.4c4.2-4,6.7-10.9,4.2-16.4C82,81.4,75.5,79.1,70.6,76c-3.1-2-6.1-4.2-8.7-6.8c-0.5,1-1,2-1.6,3
					c-0.9,1.7-1.9,3.4-2.9,5.1c3.1,2.9,6.6,5.2,10.6,6.9c5.5,2.4,15.9,6,12.2,14c-2.5,5.5-9.5,8.4-15.1,9c-4.2,0.5-9-0.1-13-1.5
					c-3.1-1-5.9-2.6-8.4-4.5c-0.4,0.7-0.8,1.5-1.2,2.2c3.9,2.3,8.2,4.1,12.5,5.3c7.6,1.9,15.6,1.4,22.1-2.8
					C78.2,105.2,79.3,104.3,80.3,103.4z"/>
				<path class="st8" d="M73.7,107.7c-0.1,0-0.2,0.1-0.3,0.1c0.1-0.1,0.3-0.1,0.4-0.2C73.8,107.7,73.8,107.7,73.7,107.7z"/>
				<path class="st3" d="M77.1,105.9c1.1-0.7,2.2-1.6,3.3-2.6c4.2-4,6.7-10.9,4.2-16.4C82,81.4,75.5,79.1,70.6,76
					c-3.1-2-6.1-4.2-8.7-6.8c-0.5,1-1,2-1.6,3c-0.4,0.7-0.8,1.4-1.2,2.1c0.8,1.1,1.7,2.1,2.7,2.9c1.3,1.1,2.8,1.9,4.4,2.4
					c1.5,0.5,3,0.7,4.5,1c0.8,0.2,1.5,0.4,2.2,0.6c1.3,0.3,2.5,0.7,3.7,1.2c1.9,0.8,3.6,2,4.8,3.6c1,1.5,1.6,3.2,2,4.9
					c0.4,1.8,0.4,3.6,0.1,5.4c-0.4,1.9-1.4,3.6-2.6,5.1c-0.4,0.5-0.8,1-1.3,1.5c-1,1.2-2.1,2.2-3.4,3c0,0-0.1,0.1-0.1,0.1
					c-0.6,0.4-1.1,0.8-1.7,1.2C75.4,106.9,76.3,106.5,77.1,105.9z"/>
				<path class="st4" d="M60.3,72.2c-0.1,0.2-0.3,0.5-0.4,0.7c1.1,1.5,2.6,3.1,4.1,3.9c0.8,0.5,1.8,0.7,2.8,0.7
					c0.9,0,1.6-0.9,2.5-1.2c1.2-0.3,2.6,0.4,3.6,1c-0.8-0.5-1.6-0.9-2.4-1.4c-3.1-2-6.1-4.2-8.7-6.8C61.4,70.3,60.9,71.3,60.3,72.2z
					"/>
			</g>
		</g>
	</g>
	<g>
		<path class="st5" d="M60.3,72.2c-0.3,0.6-0.7,1.2-1,1.9c1.6,1.9,3.5,3.4,5.2,3.5c1.4,0.1,2.3-0.4,2-1.8c-0.2-0.8-0.6-1.6-1.2-2.3
			c-1.1-1.3-2.6-2.3-3.8-3.3c0,0,0,0-0.1-0.1C61.1,70.9,60.7,71.6,60.3,72.2z"/>
	</g>
	<path class="st6" d="M65.2,75.5c0,0,1.2,0.9-0.5,1.3c-1.6,0.4-3.9-1.8-4.2-3.4C60.4,73,63.5,73.7,65.2,75.5z"/>
</g>
<g>
	<g>
		<g>
			<g>
				<g>
					<g>
						<path class="st0" d="M74.6,137.4c3.9,10.7,9.1,20.7,14.7,30.7c0.8,1.4,1.6,2.8,2.4,4.3c4.7-1.2,9.1-3.1,13.3-5.7
							c6.1-3.8,13.4-10.6,14.2-18.3c0.8-7.1-3.8-13.5-10.4-15.9c-9.4-3.4-18.3-0.1-27.6,1.7c-2.4,0.5-4.9,0.7-7.4,0.8
							C74,135.7,74.3,136.5,74.6,137.4z"/>
						<path class="st1" d="M73.8,135c2.7-0.1,5.1-0.4,7.4-0.8c1.7-0.3,3.5-0.7,5.2-1.1c7.6-1.7,14.7-3.3,22.3-0.6
							c4.5,1.6,8,5.1,9.5,9.4c0.7,2,1,4.1,0.7,6.3c-0.8,7.4-7.9,14.3-14.2,18.2c-4.2,2.6-8.7,4.5-13.3,5.6c0.1,0.1,0.1,0.2,0.2,0.3
							c4.6-1.1,9-3,13.3-5.7c6.4-4,13.5-10.9,14.3-18.5c0.2-2.2,0-4.3-0.7-6.4c0,0,0,0,0,0c-1.5-4.4-5.2-8-9.7-9.7
							c-7.7-2.8-14.9-1.1-22.5,0.6c-1.7,0.4-3.4,0.8-5.2,1.1c-2.3,0.4-4.8,0.7-7.5,0.8C73.7,134.8,73.8,134.9,73.8,135z"/>
					</g>
					<path class="st7" d="M88.9,167.3c0.1,0,0.2,0,0.2-0.1c0.4-0.1,2.7-0.8,2.1-1.6c-0.7-0.9-2.3-0.6-3.3-0.5c-0.1,0-0.2,0-0.3,0
						C88.1,165.9,88.5,166.6,88.9,167.3z"/>
				</g>
				<path class="st2" d="M74.6,137.4c0.8,2.1,1.6,4.2,2.5,6.3c2.3-0.2,4.6-0.6,6.9-1.1c4.5-1.1,9.1-2.5,13.8-2.4
					c3.8,0.1,8.3,1.3,10.4,4.7c1.9,3.1,1.9,6.9,0.6,10.3c-1.3,3.2-4.5,6.6-7.1,8.6c-3.5,2.7-7.6,4.2-11.8,5.3
					c0.6,1.1,1.2,2.2,1.8,3.3c4.7-1.2,9.1-3.1,13.3-5.7c6.1-3.8,13.4-10.6,14.2-18.3c0.8-7.1-3.8-13.5-10.4-15.9
					c-9.4-3.4-18.3-0.1-27.6,1.7c-2.4,0.5-4.9,0.7-7.4,0.8C74,135.7,74.3,136.5,74.6,137.4z"/>
				<path class="st3" d="M74.6,137.4c0.4,1.2,0.9,2.3,1.3,3.5c0.1,0,0.3,0,0.4,0c1.9-0.3,3.8-0.8,5.6-1.6c1.6-0.7,3.2-1.5,4.9-2
					c0.6-0.2,1.3-0.4,1.9-0.6c0.8-0.4,1.7-0.7,2.5-1c2.8-0.9,5.9-1.3,8.8-1.1c3,0.2,6,1.1,8.4,2.8c2.7,1.9,5,4.6,6.3,7.7
					c1.1,2.7,1.4,5.7,0.8,8.5c-0.6,2.5-1.8,4.8-3.4,6.8c-0.4,0.6-0.9,1.1-1.4,1.7c4.2-3.8,7.7-8.6,8.3-13.9
					c0.8-7.1-3.8-13.5-10.4-15.9c-9.4-3.4-18.3-0.1-27.6,1.7c-2.4,0.5-4.9,0.7-7.4,0.8C74,135.7,74.3,136.5,74.6,137.4z"/>
				<path class="st4" d="M74.6,137.4c0.2,0.7,0.5,1.3,0.8,2c2,0,4.4-0.7,6.1-1.5c1.8-0.9,2.9-1.8,4.8-2.7c1.9-0.8,3.9-1.4,5.8-1.9
					c3.7-0.9,7.6-1.5,11.4-0.9c6.2,0.9,12.7,5.3,14.4,11.6c1.4,5.2-0.6,10.3-3.6,14.6c2.6-3.1,4.5-6.6,4.9-10.3
					c0.8-7.1-3.8-13.5-10.4-15.9c-9.4-3.4-18.3-0.1-27.6,1.7c-2.4,0.5-4.9,0.7-7.4,0.8C74,135.7,74.3,136.5,74.6,137.4z"/>
			</g>
		</g>
	</g>
	<g>
		<path class="st5" d="M74.6,137.4c0.3,0.9,0.7,1.9,1.1,2.8c3,0.3,7.3-1.2,10.3-3.2c0.6-0.6,1-1.3,0.6-1.7c-0.4-0.4-1-0.5-1.5-0.5
			c-1.5,0.2-2.9,0.3-4.4,0.5c-1.5,0.2-3.4,0.2-5,0.6c-0.5,0.1-0.9,0.3-1.3,0.6C74.4,136.7,74.5,137,74.6,137.4z"/>
	</g>
	<path class="st6" d="M75.4,139.4c1.4,0.3,3.4-0.2,4.2-1c0.3-0.3-2.5-1.4-5-0.9C74.9,138.1,75.1,138.7,75.4,139.4z"/>
</g>
<g>
	<g>
		<g>
			<g>
				<g>
					<g>
						<path class="st0" d="M54.2,135.7c-4-3.8-7.9-7.9-11.6-12.1c-0.4-0.4-0.7-0.8-1-1.3c-0.5,0.2-1,0.4-1.5,0.6
							c-5.4,2-12.3,2.8-16,7.6c-3.7,4.9-2.7,12.1,0.5,16.9c0.8,1.2,1.7,2.2,2.6,3.2c5.4,5.5,13.1,7.8,20.9,7.6
							c5.9-0.2,12-1.7,17.5-3.9c2.2-0.9,4.3-2,6.3-3.2C66,146.1,60,141.1,54.2,135.7z"/>
						<path class="st1" d="M72,151c-2,1.2-4.1,2.3-6.2,3.2c-5.9,2.4-11.9,3.7-17.5,3.9c-8.4,0.3-15.8-2.4-20.8-7.5
							c-0.3-0.3-0.7-0.7-1-1.1c-0.6-0.7-1.1-1.4-1.6-2.1c-3.1-4.6-4.3-11.8-0.5-16.7c2.7-3.6,7.3-5,11.7-6.3
							c1.5-0.4,2.8-0.8,4.1-1.3c0.5-0.2,1-0.4,1.5-0.6c-0.1-0.1-0.2-0.2-0.2-0.3c-0.5,0.2-0.9,0.4-1.4,0.5c-1.3,0.5-2.7,0.9-4.1,1.3
							c-4.5,1.3-9.1,2.7-11.9,6.4c-1.7,2.3-2.6,5.3-2.4,8.6c0.2,3,1.2,6,2.9,8.5c0.8,1.2,1.7,2.3,2.6,3.2c5.1,5.2,12.5,7.9,21.1,7.6
							c5.6-0.2,11.7-1.5,17.6-3.9c2.2-0.9,4.3-2,6.4-3.3C72.2,151.1,72.1,151.1,72,151z"/>
					</g>
					<path class="st7" d="M65.7,145.8c-0.3,0.1-0.5,0.3-0.8,0.4c-1.6,0.6-3.3,1.1-4.9,1.4c-3.7,0.7-7.5,0.8-11.2,0.3
						c-3.5-0.5-7.1-1.4-9.9-3.5c-1.8-1.3-3.4-3.1-5.5-3.9c-1-0.4-2.2-0.6-3.2,0c-1.2,0.7-1.8,2.1-1.6,3.5c0.1,0.8,0.4,1.6,0.8,2.3
						c0,0,0,0,0,0c3.4,4.5,8.6,7.5,14.2,8.4c6,1,12.3-0.3,17.6-3.1c2.3-1.2,4.6-2.4,6.7-3.9C67.1,147,66.4,146.4,65.7,145.8z"/>
				</g>
				<path class="st2" d="M69.3,148.7c-0.7,0.5-1.4,0.9-2.1,1.3c-4.7,3-9.9,5.3-15.4,5.9c-4.2,0.4-9,0-13-1.4
					c-5.4-1.9-11.5-6.2-12.8-12.1c-1.9-8.6,9-9.8,14.9-11c2.5-0.5,4.8-1.2,7-2.1c-1.8-1.9-3.6-3.8-5.3-5.8c-0.4-0.4-0.7-0.8-1-1.3
					c-0.5,0.2-1,0.4-1.5,0.6c-5.4,2-12.3,2.8-16,7.6c-3.7,4.9-2.7,12.1,0.5,16.9c0.8,1.2,1.7,2.2,2.6,3.2c5.4,5.5,13.1,7.8,20.9,7.6
					c5.9-0.2,12-1.7,17.5-3.9c2.2-0.9,4.3-2,6.3-3.2C71.2,150.3,70.2,149.5,69.3,148.7z"/>
				<path class="st8" d="M30.3,153.2c0.1,0.1,0.2,0.1,0.3,0.2c-0.1-0.1-0.2-0.2-0.4-0.3C30.2,153.1,30.2,153.1,30.3,153.2z"/>
				<path class="st3" d="M42.7,123.6c-0.4-0.4-0.7-0.8-1-1.3c-0.5,0.2-1,0.4-1.5,0.6c-5.4,2-12.3,2.8-16,7.6
					c-3.7,4.9-2.7,12.1,0.5,16.9c0.8,1.2,1.7,2.2,2.6,3.2c0.7,0.7,1.4,1.3,2.1,1.9c-0.5-0.5-0.9-1-1.4-1.5c0,0-0.1-0.1-0.1-0.1
					c-1-1.1-1.9-2.4-2.6-3.7c-0.3-0.6-0.6-1.1-0.9-1.7c-0.9-1.7-1.5-3.6-1.4-5.5c0.1-1.8,0.5-3.6,1.3-5.2c0.7-1.6,1.7-3.2,3-4.4
					c1.5-1.4,3.5-2.1,5.5-2.5c1.3-0.3,2.6-0.4,3.9-0.4c0.8-0.1,1.5-0.1,2.3-0.1c1.6,0,3.1,0.1,4.7,0c0.7-0.1,1.5-0.2,2.2-0.4
					C44.7,125.9,43.7,124.8,42.7,123.6z"/>
				<path class="st4" d="M42.7,123.6c-0.4-0.4-0.7-0.8-1-1.3c-0.5,0.2-1,0.4-1.5,0.6c-0.8,0.3-1.7,0.6-2.6,0.9
					c1.2-0.3,2.6-0.8,3.8-0.2c0.8,0.4,1.3,1.4,2.2,1.7c0.2,0.1,0.5,0.1,0.8,0.1C43.8,124.8,43.2,124.2,42.7,123.6z"/>
			</g>
		</g>
	</g>
</g>
<ellipse transform="matrix(0.4782 -0.8783 0.8783 0.4782 -48.8704 90.6545)" class="st0" cx="51.9" cy="86.5" rx="19.7" ry="6"/>
<ellipse transform="matrix(0.4782 -0.8783 0.8783 0.4782 -49.1181 90.6082)" class="st2" cx="51.7" cy="86.6" rx="13.8" ry="4.2"/>
<ellipse transform="matrix(0.8398 -0.5429 0.5429 0.8398 -49.0296 99.5154)" class="st0" cx="144.1" cy="132.8" rx="22.3" ry="3.6"/>
<ellipse transform="matrix(0.8398 -0.5429 0.5429 0.8398 -49.1347 99.4007)" class="st2" cx="143.8" cy="132.9" rx="15.7" ry="2.5"/>
<ellipse transform="matrix(0.6857 -0.7279 0.7279 0.6857 -81.6599 84.4779)" class="st0" cx="57" cy="136.8" rx="4.3" ry="20.9"/>
<ellipse transform="matrix(0.6857 -0.7279 0.7279 0.6857 -81.5622 84.298)" class="st2" cx="56.8" cy="136.6" rx="3" ry="14.7"/>
<g>
	<g>
		<g>
			<g>
				<g>
					<g>
						<path class="st0" d="M92.3,20.5c6.4,9.4,13.9,17.9,21.7,26.1c1.1,1.2,2.2,2.4,3.4,3.5c4.2-2.3,8.1-5.2,11.5-8.7
							c5-5.2,10.4-13.6,9.3-21.3c-1-7.1-7-12.2-13.9-12.9c-9.9-1-17.8,4.4-26.3,8.4c-2.3,1.1-4.6,1.9-7,2.6
							C91.4,19.1,91.8,19.8,92.3,20.5z"/>
						<path class="st1" d="M91,18.5c2.5-0.8,4.9-1.6,7-2.6c1.6-0.8,3.2-1.6,4.8-2.4c6.9-3.5,13.5-6.8,21.5-6c4.7,0.5,9,3,11.6,6.8
							c1.2,1.8,1.9,3.8,2.2,5.9c1,7.4-4.1,15.8-9.3,21.1c-3.4,3.6-7.3,6.5-11.5,8.7c0.1,0.1,0.2,0.2,0.2,0.3c4.1-2.2,8-5.2,11.5-8.8
							c5.2-5.4,10.4-13.9,9.4-21.4c-0.3-2.2-1.1-4.2-2.3-6.1c0,0,0,0,0,0c-2.6-3.9-7-6.5-11.8-7c-8.1-0.8-14.7,2.5-21.7,6.1
							c-1.5,0.8-3.2,1.6-4.8,2.4c-2.1,1-4.5,1.9-7,2.6C90.9,18.3,90.9,18.4,91,18.5z"/>
					</g>
					<path class="st6" d="M113.5,46.1c0.1,0,0.1-0.1,0.2-0.1c0.4-0.2,2.4-1.5,1.7-2c-0.9-0.7-2.4,0-3.3,0.3c-0.1,0-0.2,0.1-0.2,0.1
						C112.4,44.9,113,45.5,113.5,46.1z"/>
				</g>
				<path class="st2" d="M92.3,20.5c1.3,1.9,2.6,3.7,4,5.5c2.2-0.7,4.3-1.7,6.4-2.8c4.1-2.2,8.2-4.7,12.7-5.7
					c3.7-0.8,8.3-0.8,11.3,2c2.6,2.5,3.5,6.2,3.1,9.8c-0.4,3.4-2.7,7.5-4.8,10.1c-2.7,3.4-6.3,5.9-10.1,8c0.9,0.9,1.7,1.8,2.6,2.7
					c4.2-2.3,8.1-5.2,11.5-8.7c5-5.2,10.4-13.6,9.3-21.3c-1-7.1-7-12.2-13.9-12.9c-9.9-1-17.8,4.4-26.3,8.4c-2.3,1.1-4.6,1.9-7,2.6
					C91.4,19.1,91.8,19.8,92.3,20.5z"/>
				<path class="st3" d="M92.3,20.5c0.7,1,1.4,2,2.2,3.1c0.1,0,0.3-0.1,0.4-0.1c1.8-0.7,3.5-1.7,5-2.9c1.4-1.1,2.7-2.2,4.2-3.2
					c0.6-0.4,1.1-0.7,1.7-1c0.7-0.6,1.4-1.1,2.2-1.6c2.5-1.6,5.4-2.7,8.3-3.2c3-0.5,6-0.4,8.9,0.7c3.1,1.2,6,3.3,8,5.9
					c1.7,2.3,2.8,5.1,2.8,8.1c0.1,2.6-0.6,5.1-1.6,7.5c-0.3,0.7-0.6,1.3-1,2c3.1-4.7,5.4-10.2,4.7-15.5c-1-7.1-7-12.2-13.9-12.9
					c-9.9-1-17.8,4.4-26.3,8.4c-2.3,1.1-4.6,1.9-7,2.6C91.4,19.1,91.8,19.8,92.3,20.5z"/>
				<path class="st4" d="M92.3,20.5c0.4,0.6,0.8,1.1,1.2,1.7c1.9-0.5,4.1-1.7,5.6-2.9c1.6-1.3,2.4-2.5,4-3.8
					c1.6-1.3,3.4-2.3,5.2-3.3c3.3-1.7,7-3.3,10.8-3.7c6.3-0.7,13.6,2,16.8,7.7c2.6,4.7,1.9,10.2,0.1,15.1c1.7-3.6,2.7-7.5,2.2-11.2
					c-1-7.1-7-12.2-13.9-12.9c-9.9-1-17.8,4.4-26.3,8.4c-2.3,1.1-4.6,1.9-7,2.6C91.4,19.1,91.8,19.8,92.3,20.5z"/>
			</g>
		</g>
	</g>
	<g>
		<path class="st5" d="M92.3,20.5c0.6,0.8,1.1,1.6,1.7,2.4c3-0.4,6.8-2.9,9.2-5.6c0.4-0.7,0.7-1.5,0.1-1.8c-0.4-0.3-1-0.2-1.6-0.1
			c-1.4,0.6-2.8,1-4.1,1.5c-1.4,0.5-3.2,1-4.7,1.8c-0.4,0.3-0.8,0.5-1.2,0.9C92,20,92.1,20.3,92.3,20.5z"/>
	</g>
	<path class="st6" d="M93.6,22.3c1.4-0.1,3.2-1,3.8-2c0.2-0.4-2.8-0.7-5.1,0.3C92.8,21.2,93.2,21.7,93.6,22.3z"/>
</g>
<g>
	<g>
		<g>
			<g>
				<g>
					<g>
						<path class="st0" d="M72.2,23.9c-4.9-2.7-9.6-5.7-14.2-8.9c-0.4-0.3-0.9-0.6-1.3-1c-0.4,0.3-0.9,0.6-1.3,0.9
							c-4.7,3.2-11.2,5.7-13.6,11.3c-2.4,5.6,0.3,12.4,4.7,16.3c1.1,0.9,2.2,1.8,3.3,2.5c6.6,4,14.6,4.4,22.1,2.2
							c5.7-1.6,11.3-4.6,16-8.1c1.9-1.4,3.7-3,5.3-4.7C86.2,31.1,79.1,27.8,72.2,23.9z"/>
						<path class="st1" d="M93.2,34.4c-1.6,1.7-3.4,3.2-5.3,4.6c-5.1,3.8-10.7,6.5-16,8.1c-8.1,2.3-15.9,1.5-22-2.2
							c-0.4-0.3-0.8-0.5-1.2-0.8c-0.7-0.5-1.4-1.1-2.1-1.7c-4.1-3.7-7-10.4-4.6-16.1c1.8-4.2,5.9-6.6,9.8-9c1.3-0.8,2.5-1.5,3.7-2.3
							c0.5-0.3,0.9-0.6,1.4-0.9c-0.1-0.1-0.2-0.1-0.3-0.2c-0.4,0.3-0.8,0.6-1.3,0.9c-1.1,0.8-2.4,1.5-3.7,2.3c-4,2.4-8.2,4.8-10,9.1
							c-1.1,2.7-1.2,5.8-0.2,8.9c0.9,2.9,2.7,5.6,4.9,7.6c1,0.9,2.2,1.8,3.4,2.5c6.2,3.8,14.1,4.6,22.3,2.2
							c5.4-1.5,10.9-4.3,16.1-8.1c1.9-1.4,3.7-3,5.4-4.7C93.4,34.5,93.3,34.4,93.2,34.4z"/>
					</g>
					<path class="st7" d="M85.8,30.9c-0.2,0.2-0.5,0.4-0.7,0.6c-1.4,1-2.9,1.9-4.4,2.6c-3.4,1.6-7.1,2.6-10.8,3
						c-3.5,0.4-7.2,0.4-10.5-1c-2.1-0.8-4-2.1-6.3-2.5c-1.1-0.2-2.3-0.1-3.1,0.8c-1,1-1.2,2.5-0.7,3.8c0.3,0.8,0.8,1.4,1.4,2
						c0,0,0,0,0,0c4.4,3.6,10.2,5.1,15.8,4.6c6-0.5,11.8-3.3,16.3-7.3c1.9-1.7,3.8-3.5,5.5-5.4C87.5,31.7,86.6,31.3,85.8,30.9z"/>
				</g>
				<path class="st2" d="M90,32.9c-0.6,0.6-1.1,1.2-1.7,1.8c-3.8,4-8.3,7.6-13.5,9.5c-3.9,1.4-8.7,2.2-12.9,1.8
					c-5.7-0.5-12.6-3.2-15.3-8.6c-3.9-7.9,6.3-11.8,11.8-14.3c2.3-1.1,4.4-2.3,6.3-3.8C62.4,18,60.2,16.5,58,15
					c-0.4-0.3-0.9-0.6-1.3-1c-0.4,0.3-0.9,0.6-1.3,0.9c-4.7,3.2-11.2,5.7-13.6,11.3c-2.4,5.6,0.3,12.4,4.7,16.3
					c1.1,0.9,2.2,1.8,3.3,2.5c6.6,4,14.6,4.4,22.1,2.2c5.7-1.6,11.3-4.6,16-8.1c1.9-1.4,3.7-3,5.3-4.7C92.2,33.9,91.1,33.4,90,32.9z
					"/>
				<path class="st8" d="M53.3,46.8c0.1,0,0.2,0.1,0.3,0.1c-0.1-0.1-0.3-0.1-0.4-0.2C53.2,46.7,53.2,46.7,53.3,46.8z"/>
				<path class="st3" d="M58,15c-0.4-0.3-0.9-0.6-1.3-1c-0.4,0.3-0.9,0.6-1.3,0.9c-4.7,3.2-11.2,5.7-13.6,11.3
					c-2.4,5.6,0.3,12.4,4.7,16.3c1.1,0.9,2.2,1.8,3.3,2.5c0.8,0.5,1.7,1,2.5,1.3c-0.6-0.4-1.2-0.7-1.7-1.1c0,0-0.1-0.1-0.1-0.1
					c-1.3-0.8-2.4-1.8-3.4-2.9c-0.5-0.5-0.9-1-1.3-1.4c-1.3-1.5-2.3-3.1-2.8-5c-0.4-1.8-0.4-3.6,0-5.4c0.3-1.7,0.9-3.5,1.9-5
					c1.1-1.7,2.8-2.9,4.7-3.8c1.2-0.6,2.4-1,3.7-1.3c0.7-0.3,1.5-0.5,2.2-0.7c1.5-0.4,3-0.7,4.5-1.2c0.7-0.2,1.4-0.5,2-0.9
					C60.6,16.8,59.3,15.9,58,15z"/>
				<path class="st4" d="M58,15c-0.4-0.3-0.9-0.6-1.3-1c-0.4,0.3-0.9,0.6-1.3,0.9c-0.7,0.5-1.5,1-2.3,1.5c1-0.6,2.4-1.4,3.6-1.1
					c0.9,0.2,1.6,1.1,2.6,1.1c0.3,0,0.5,0,0.8-0.1C59.4,15.9,58.7,15.5,58,15z"/>
			</g>
		</g>
	</g>
</g>
<ellipse transform="matrix(0.4861 -0.8739 0.8739 0.4861 17.3584 78.162)" class="st0" cx="75.1" cy="24.3" rx="4.3" ry="20.9"/>
<ellipse transform="matrix(0.4861 -0.8739 0.8739 0.4861 17.3911 77.9024)" class="st2" cx="74.9" cy="24.2" rx="3" ry="14.7"/>
<ellipse transform="matrix(0.1443 -0.9895 0.9895 0.1443 18.9671 209.3234)" class="st0" cx="130.5" cy="93.7" rx="22" ry="2.6"/>
<ellipse transform="matrix(0.1443 -0.9895 0.9895 0.1443 18.6546 209.4869)" class="st2" cx="130.4" cy="94" rx="15.4" ry="1.8"/>
</svg>
