<?xml version="1.0" encoding="utf-8"?>
<!-- Generator: Adobe Illustrator 25.2.1, SVG Export Plug-In . SVG Version: 6.00 Build 0)  -->
<svg version="1.1" id="Layer_3" xmlns="http://www.w3.org/2000/svg" xmlns:xlink="http://www.w3.org/1999/xlink" x="0px" y="0px"
	 viewBox="0 0 200 200" style="enable-background:new 0 0 200 200;" xml:space="preserve">
<style type="text/css">
	.st0{fill:#5B5552;}
	.st1{fill:#5A2B0C;}
	.st2{opacity:0.6;fill:#5B5552;}
	.st3{opacity:0.5;fill:#5B5552;}
	.st4{opacity:0.5;fill:#764937;}
	.st5{fill:#D5D7D8;}
	.st6{opacity:0.52;fill:#A34F32;}
</style>
<g>
	<g>
		<g>
			<g>
				<g>
					<g>
						<path class="st0" d="M32.6,96.6c-0.9,7.4,2.1,14.5,7,20.2c3.7,4.3,8.5,8,13.5,10.8c6.8,3.8,14.4,5.4,22.2,5.1
							c6.9-0.2,16.3-2.4,20.6-8.5c4.1-5.5,3.3-13.1-1-18.2c-6.2-7.3-15.2-8.9-23.8-11.8c-3.5-1.2-6.8-2.9-9.9-4.8
							c-4.7-2.9-9.5-7.5-15.3-7.3c-5.9,0.2-10.7,5.2-12.3,10.6C33.1,94,32.8,95.3,32.6,96.6z"/>
						<path class="st1" d="M98.5,118.6C98.5,118.6,98.5,118.6,98.5,118.6c-0.4,2.1-1.2,4-2.5,5.7c-4.3,5.9-13.6,8.3-20.8,8.5
							c-8.1,0.3-15.8-1.5-22.3-5.1c-5.4-3-10.1-6.7-13.6-10.8c-5.3-6.2-7.8-13.4-7-20.4c0.2-1.3,0.4-2.6,0.8-3.9
							c0.9-2.8,2.5-5.4,4.6-7.3c2.3-2.1,5.1-3.3,7.8-3.4c4.5-0.1,8.3,2.5,12,5.1c1.2,0.8,2.3,1.6,3.5,2.3c3.5,2.1,6.7,3.7,9.9,4.7
							c1.6,0.6,3.3,1.1,4.9,1.6c7.2,2.2,14,4.3,19,10.3C98.1,109.4,99.4,114.2,98.5,118.6z M33,95.2c-0.1,0.5-0.2,0.9-0.2,1.4
							c-0.8,6.8,1.6,14,6.9,20.1c3.5,4,8.1,7.7,13.5,10.7c6.5,3.6,14.1,5.4,22.1,5.1c7.1-0.3,16.3-2.6,20.5-8.4
							c1.2-1.7,2-3.5,2.4-5.6c0.8-4.3-0.5-9-3.4-12.4c-5-5.9-11.7-8-18.9-10.2c-1.6-0.5-3.3-1-4.9-1.6c-3.2-1.1-6.5-2.7-10-4.8
							c-1.2-0.7-2.3-1.5-3.5-2.3c-3.6-2.5-7.4-5.2-11.8-5c-5.9,0.2-10.6,5.4-12.2,10.5C33.4,93.6,33.2,94.4,33,95.2z"/>
					</g>
					<path class="st2" d="M38.4,93.4c-0.5,0.6-0.9,1.3-1.2,2c0,0,0,0,0,0c-1.4,5.3-0.4,10.9,2.3,15.7c2.9,5,7.7,9,12.9,11.3
						c3,1.4,6.1,2.6,9.4,3.3c0.4,0.1,2.7,0.6,2.5-0.3c-0.2-1.1-1.6-1.6-2.5-2c-1.1-0.5-2.2-0.9-3.2-1.5c-1.4-0.8-2.8-1.8-4.1-2.8
						c-2.8-2.3-5.1-5.2-7-8.2c-1.7-2.9-3.2-6.2-3.4-9.6c-0.1-2.1,0.3-4.4-0.4-6.5c-0.3-1-0.9-2-1.9-2.4C40.7,92,39.3,92.4,38.4,93.4
						z"/>
				</g>
				<path class="st3" d="M45.8,82.1c-5.9,0.2-10.7,5.2-12.3,10.6c-0.4,1.3-0.7,2.6-0.8,3.9c-0.9,7.4,2.1,14.5,7,20.2
					c3.7,4.3,8.5,8,13.5,10.8c6.8,3.8,14.4,5.4,22.2,5.1c6.9-0.2,16.3-2.4,20.6-8.5c4.1-5.5,3.3-13.1-1-18.2
					c-6.2-7.3-15.2-8.9-23.8-11.8c-3.5-1.2-6.8-2.9-9.9-4.8C56.4,86.6,51.7,81.9,45.8,82.1z M55.2,95.2c4.2,3.5,9,5.9,14.2,7.4
					c4.2,1.2,8.8,2.2,12.6,4.6c3.1,1.9,6.3,5,6.4,8.9c0.1,3.5-1.7,6.7-4.4,8.8c-2.6,2-6.9,3.3-10.1,3.8c-5.7,0.8-11.4-0.8-16.8-2.6
					c-5-1.7-9.9-4.2-13.7-8c-2.8-2.9-5.4-6.7-6.8-10.5c-1.8-5.1-2.3-12.3,1.3-16.9C43.3,84,50.8,91.4,55.2,95.2z"/>
				<path class="st4" d="M32.5,100.3c0,0.1,0,0.2,0,0.3c0-0.2,0-0.3,0-0.5C32.5,100.2,32.5,100.2,32.5,100.3z"/>
				<path class="st3" d="M45.8,82.1c-5.9,0.2-10.7,5.2-12.3,10.6c-0.4,1.3-0.7,2.6-0.8,3.9c-0.1,0.9-0.2,1.8-0.2,2.8
					c0.1-0.7,0.2-1.3,0.3-2c0,0,0-0.1,0-0.1c0.2-1.4,0.6-2.9,1.2-4.2c0.2-0.6,0.5-1.2,0.7-1.7c0.8-1.7,1.8-3.3,3.3-4.4
					c1.4-1,3-1.8,4.7-2.2c1.6-0.4,3.4-0.6,5.1-0.4c2,0.3,3.7,1.3,5.2,2.6c1,0.8,1.8,1.7,2.6,2.7c0.5,0.5,1,1.1,1.5,1.7
					c0.9,1.2,1.8,2.4,2.8,3.5c1.1,1.2,2.4,2.1,4,2.8c1.7,0.7,3.6,1.1,5.4,1.3c1.7,0.2,3.4,0.3,5,0.6c0.6,0.1,1.3,0.3,1.9,0.4
					c0.9,0.1,1.7,0.2,2.6,0.4c2.8,0.6,5.5,1.7,7.9,3.3c2.4,1.6,4.4,3.8,5.7,6.4c1.4,2.9,2,6.3,1.6,9.5c-0.4,2.8-1.5,5.4-3.4,7.5
					c-1.7,1.8-3.8,3.2-6.1,4.1c-0.6,0.3-1.3,0.5-2,0.7c5.3-1.1,10.6-3.5,13.6-7.6c4.1-5.5,3.3-13.1-1-18.2
					c-6.2-7.3-15.2-8.9-23.8-11.8c-3.5-1.2-6.8-2.9-9.9-4.8C56.4,86.6,51.7,81.9,45.8,82.1z"/>
				<path class="st3" d="M61.3,90.7c0.2,0.9-0.3,1.9,0.1,2.7c0.4,0.8,1,1.6,1.8,2.1c1.7,1.2,4.4,1.9,6.4,2c2,0.2,3.3-0.1,5.3,0.1
					c2,0.2,3.9,0.7,5.8,1.2c3.5,1,7,2.4,9.9,4.7c4.8,3.7,8,10.5,6.4,16.6c-1.3,5-5.5,8.3-10,10.5c3.6-1.3,6.9-3.4,9-6.3
					c4.1-5.5,3.3-13.1-1-18.2c-6.2-7.3-15.2-8.9-23.8-11.8c-3.5-1.2-6.8-2.9-9.9-4.8C60.4,89,59.7,88.5,59,88
					C59.9,88.7,61.1,89.5,61.3,90.7z"/>
			</g>
		</g>
	</g>
	<g>
		<path class="st5" d="M63.5,93.9c-1.4,0.3-1.5,1.3-0.8,2.5c1.6,2.6,7.1,3.8,11.3,3.5c0.8-0.2,1.4-0.6,1.3-1.2
			c-0.1-0.5-0.6-0.9-1-1.2c-1.3-0.5-2.6-1.1-3.9-1.7c-1.3-0.6-2.9-1.5-4.4-1.9C65.2,93.8,64.3,93.8,63.5,93.9z"/>
	</g>
	<path class="st6" d="M64.3,95c0,0-1.3-0.6-0.9,1c0.4,1.6,3.3,2.6,4.7,2.2C68.5,98.1,66.6,95.8,64.3,95z"/>
</g>
<g>
	<g>
		<g>
			<g>
				<g>
					<g>
						<path class="st0" d="M110.9,130.6c6,4.4,13.7,5.3,21,3.9c5.6-1.1,11.2-3.5,16-6.5c6.6-4.1,11.8-10,15.3-16.8
							c3.2-6.1,5.8-15.4,2.8-22.1c-2.8-6.3-9.8-9.3-16.4-8.1c-9.4,1.8-15.2,8.9-22,15c-2.7,2.4-5.8,4.5-9,6.3
							c-4.8,2.7-11.2,4.6-13.9,9.8c-2.7,5.2-0.7,11.9,3.2,16C108.8,129,109.8,129.9,110.9,130.6z"/>
						<path class="st1" d="M162.4,84C162.4,84,162.4,84,162.4,84c1.6,1.4,2.9,3,3.8,5c3,6.7,0.6,15.9-2.8,22.3
							c-3.7,7.2-9,13-15.4,16.9c-5.2,3.2-10.8,5.5-16.1,6.5c-8,1.6-15.6,0.2-21.2-3.9c-1.1-0.8-2.1-1.7-3-2.7
							c-2-2.1-3.5-4.8-4.1-7.6c-0.7-3.1-0.4-6,0.9-8.5c2.1-4,6.3-6,10.3-7.9c1.3-0.6,2.5-1.2,3.7-1.9c3.5-2,6.5-4.1,9-6.3
							c1.3-1.1,2.5-2.3,3.7-3.5c5.5-5.2,10.6-10.1,18.3-11.5C154.2,80,158.9,81.2,162.4,84z M109.9,129.7c0.4,0.3,0.7,0.6,1.1,0.9
							c5.5,4.1,13,5.4,20.9,3.8c5.2-1,10.7-3.3,15.9-6.5c6.3-3.9,11.6-9.7,15.3-16.8c3.3-6.3,5.7-15.5,2.8-22
							c-0.9-1.9-2.1-3.5-3.7-4.8c-3.4-2.8-8-4-12.5-3.1c-7.6,1.5-12.7,6.3-18.2,11.5c-1.2,1.1-2.5,2.3-3.7,3.5
							c-2.5,2.2-5.5,4.3-9,6.3c-1.2,0.7-2.4,1.3-3.7,1.9c-4,1.9-8.1,3.9-10.1,7.8c-2.7,5.3-0.5,11.9,3.2,15.8
							C108.6,128.5,109.2,129.1,109.9,129.7z"/>
					</g>
					<path class="st2" d="M110.9,124c0.3,0.8,0.7,1.4,1.1,2c0,0,0,0,0,0c3.9,3.8,9.3,5.7,14.8,5.7c5.8,0,11.6-2.3,16.2-5.7
						c2.7-2,5.3-4.1,7.5-6.6c0.3-0.3,1.9-2,1-2.3c-1-0.4-2.2,0.7-2.9,1.2c-0.9,0.7-1.8,1.5-2.8,2.1c-1.4,0.8-2.9,1.6-4.5,2.1
						c-3.4,1.3-7,1.9-10.6,2c-3.4,0.1-6.9-0.2-10-1.8c-1.9-1-3.7-2.4-5.8-2.9c-1-0.2-2.2-0.3-3,0.5
						C110.8,121.3,110.5,122.8,110.9,124z"/>
				</g>
				<path class="st3" d="M104.7,112c-2.7,5.2-0.7,11.9,3.2,16c0.9,1,1.9,1.9,3,2.6c6,4.4,13.7,5.3,21,3.9c5.6-1.1,11.2-3.5,16-6.5
					c6.6-4.1,11.8-10,15.3-16.8c3.2-6.1,5.8-15.4,2.8-22.1c-2.8-6.3-9.8-9.3-16.4-8.1c-9.4,1.8-15.2,8.9-22,15
					c-2.7,2.4-5.8,4.5-9,6.3C113.8,105,107.4,106.8,104.7,112z M120.7,110.3c5.1-1.9,9.5-4.9,13.4-8.7c3.2-3.1,6.3-6.6,10.2-8.7
					c3.2-1.8,7.5-3,10.9-1.2c3.1,1.6,5,4.8,5.5,8.2c0.5,3.2-0.5,7.6-1.7,10.6c-2.1,5.4-6.3,9.5-10.5,13.3c-4,3.6-8.5,6.6-13.7,8
					c-3.9,1.1-8.5,1.4-12.5,0.7c-5.4-0.9-11.9-4-14-9.4C105.2,115.2,115.3,112.3,120.7,110.3z"/>
				<path class="st4" d="M114,132.6c0.1,0,0.2,0.1,0.3,0.1c-0.1-0.1-0.3-0.2-0.4-0.2C113.9,132.5,114,132.5,114,132.6z"/>
				<path class="st3" d="M104.7,112c-2.7,5.2-0.7,11.9,3.2,16c0.9,1,1.9,1.9,3,2.6c0.8,0.6,1.5,1,2.3,1.5c-0.5-0.4-1.1-0.8-1.6-1.2
					c0,0-0.1-0.1-0.1-0.1c-1.1-0.9-2.2-1.9-3.1-3.1c-0.4-0.5-0.8-1-1.2-1.5c-1.1-1.5-2-3.2-2.2-5c-0.2-1.7-0.1-3.5,0.4-5.2
					c0.4-1.6,1.1-3.3,2.2-4.6c1.2-1.6,2.9-2.6,4.8-3.2c1.2-0.4,2.4-0.8,3.6-0.9c0.7-0.2,1.4-0.3,2.2-0.5c1.5-0.2,3-0.4,4.4-0.8
					c1.6-0.4,3.1-1.1,4.4-2.1c1.5-1.2,2.7-2.6,3.8-4.1c1-1.4,1.9-2.8,3-4.1c0.4-0.5,0.9-1,1.3-1.4c0.5-0.7,1-1.4,1.6-2.1
					c1.9-2.1,4.2-4,6.8-5.2c2.6-1.3,5.5-2,8.4-1.8c3.2,0.3,6.4,1.4,9,3.3c2.2,1.7,4,4,4.8,6.6c0.8,2.4,0.9,4.9,0.6,7.3
					c-0.1,0.7-0.2,1.4-0.3,2.1c1.6-5.1,2.2-10.9,0.1-15.5c-2.8-6.3-9.8-9.3-16.4-8.1c-9.4,1.8-15.2,8.9-22,15
					c-2.7,2.4-5.8,4.5-9,6.3C113.8,105,107.4,106.8,104.7,112z"/>
				<path class="st3" d="M119.8,102.7c0.8,0.3,1.5,1.2,2.4,1.2c0.9,0.1,1.9-0.1,2.7-0.5c1.8-0.9,3.8-2.9,4.9-4.5
					c1.1-1.6,1.5-2.9,2.6-4.5c1.1-1.6,2.5-3.1,3.9-4.4c2.6-2.5,5.6-4.9,8.9-6.3c5.6-2.3,13.1-1.9,17.6,2.5c3.7,3.6,4.6,8.8,4.2,13.8
					c0.6-3.8,0.5-7.7-1-11c-2.8-6.3-9.8-9.3-16.4-8.1c-9.4,1.8-15.2,8.9-22,15c-2.7,2.4-5.8,4.5-9,6.3c-0.7,0.4-1.5,0.8-2.3,1.2
					C117.3,103,118.7,102.4,119.8,102.7z"/>
			</g>
		</g>
	</g>
	<g>
		<path class="st5" d="M123.7,102.4c-0.4,1.4,0.4,1.9,1.8,1.9c3-0.2,6.8-4.3,8.6-8.1c0.2-0.8,0.2-1.5-0.4-1.7
			c-0.5-0.1-1,0.1-1.5,0.3c-1.1,0.9-2.3,1.7-3.4,2.5c-1.2,0.9-2.7,1.8-3.8,3C124.4,101,124,101.6,123.7,102.4z"/>
	</g>
	<path class="st6" d="M125.1,102.3c0,0-1.2,0.8,0.4,1.3s3.9-1.6,4.3-3C129.8,100.1,126.9,100.7,125.1,102.3z"/>
</g>
<g>
	<g>
		<g>
			<g>
				<g>
					<g>
						<path class="st0" d="M82.4,153.8c5.3,5.2,12.8,7.3,20.3,6.9c5.7-0.3,11.5-1.9,16.8-4.1c7.2-3.1,13.1-8.2,17.6-14.4
							c4-5.6,8-14.4,5.9-21.5c-1.9-6.6-8.3-10.6-15-10.3c-9.6,0.4-16.3,6.6-23.9,11.6c-3.1,2-6.4,3.6-9.8,5
							c-5.1,2-11.8,2.9-15.2,7.7c-3.4,4.8-2.4,11.6,0.9,16.3C80.6,151.9,81.4,152.9,82.4,153.8z"/>
						<path class="st1" d="M140.1,115.1C140.1,115.1,140.1,115.1,140.1,115.1c1.4,1.6,2.4,3.4,3,5.4c2,7-1.7,15.8-5.9,21.7
							c-4.7,6.6-10.8,11.6-17.7,14.5c-5.7,2.4-11.5,3.8-16.8,4.1c-8.2,0.4-15.4-2-20.4-6.9c-1-0.9-1.8-2-2.6-3.1
							c-1.7-2.4-2.7-5.3-3-8.2c-0.3-3.2,0.5-6,2.1-8.3c2.6-3.6,7.1-5,11.3-6.4c1.4-0.4,2.7-0.8,3.9-1.3c3.8-1.5,7-3.1,9.8-4.9
							c1.4-0.9,2.8-1.9,4.2-2.9c6.2-4.3,12-8.4,19.8-8.8C132.5,109.9,137.1,111.8,140.1,115.1z M81.5,152.7c0.3,0.3,0.6,0.7,1,1
							c4.9,4.8,12.1,7.2,20.1,6.8c5.3-0.3,11.1-1.7,16.7-4.1c6.8-2.9,12.9-7.9,17.5-14.4c4.2-5.8,7.9-14.5,5.9-21.4
							c-0.6-2-1.6-3.8-2.9-5.3c-2.9-3.3-7.4-5.1-11.9-4.9c-7.7,0.4-13.5,4.4-19.6,8.7c-1.4,1-2.8,2-4.2,2.9c-2.8,1.9-6,3.5-9.9,5
							c-1.3,0.5-2.6,0.9-4,1.3c-4.2,1.3-8.6,2.7-11.2,6.3c-3.5,4.8-2.2,11.7,0.9,16.1C80.4,151.4,81,152.1,81.5,152.7z"/>
					</g>
					<path class="st2" d="M83.4,147.3c0.2,0.8,0.4,1.5,0.8,2.2c0,0,0,0,0,0c3.4,4.3,8.4,7,13.8,7.8c5.7,0.8,11.8-0.6,16.9-3.3
						c2.9-1.6,5.8-3.3,8.3-5.4c0.3-0.3,2.1-1.7,1.3-2.2c-0.9-0.5-2.3,0.3-3.1,0.8c-1,0.5-2,1.2-3.1,1.6c-1.5,0.6-3.1,1.1-4.7,1.5
						c-3.5,0.8-7.2,0.9-10.8,0.5c-3.3-0.4-6.8-1.2-9.6-3.2c-1.8-1.2-3.3-2.9-5.3-3.7c-1-0.4-2.1-0.6-3.1,0
						C83.7,144.6,83.1,146,83.4,147.3z"/>
				</g>
				<path class="st3" d="M78.9,134.5c-3.4,4.8-2.4,11.6,0.9,16.3c0.8,1.1,1.6,2.1,2.6,3c5.3,5.2,12.8,7.3,20.3,6.9
					c5.7-0.3,11.5-1.9,16.8-4.1c7.2-3.1,13.1-8.2,17.6-14.4c4-5.6,8-14.4,5.9-21.5c-1.9-6.6-8.3-10.6-15-10.3
					c-9.6,0.4-16.3,6.6-23.9,11.6c-3.1,2-6.4,3.6-9.8,5C89,128.9,82.4,129.8,78.9,134.5z M95,135.2c5.4-1.1,10.1-3.5,14.5-6.7
					c3.6-2.6,7.2-5.6,11.3-7.2c3.4-1.3,7.8-1.9,11,0.4c2.9,2,4.2,5.5,4.3,8.9c0,3.3-1.6,7.5-3.2,10.3c-2.9,5-7.6,8.5-12.3,11.7
					c-4.4,2.9-9.4,5.3-14.7,6c-4,0.5-8.7,0.2-12.5-1.1c-5.2-1.7-11.2-5.7-12.5-11.4C78.9,137.8,89.4,136.4,95,135.2z"/>
				<path class="st4" d="M85.2,156.2c0.1,0.1,0.2,0.1,0.3,0.2c-0.1-0.1-0.2-0.2-0.4-0.3C85.1,156.1,85.2,156.2,85.2,156.2z"/>
				<path class="st3" d="M78.9,134.5c-3.4,4.8-2.4,11.6,0.9,16.3c0.8,1.1,1.6,2.1,2.6,3c0.7,0.7,1.4,1.3,2.1,1.8
					c-0.5-0.5-0.9-0.9-1.4-1.4c0,0-0.1-0.1-0.1-0.1c-1-1.1-1.9-2.2-2.6-3.5c-0.3-0.5-0.6-1.1-0.9-1.6c-0.9-1.7-1.5-3.4-1.5-5.3
					c0-1.7,0.5-3.5,1.1-5c0.7-1.6,1.6-3.1,2.8-4.3c1.4-1.4,3.3-2.1,5.2-2.5c1.2-0.3,2.5-0.4,3.7-0.4c0.7-0.1,1.5-0.1,2.2-0.1
					c1.5,0,3,0,4.5-0.1c1.6-0.2,3.2-0.6,4.6-1.5c1.6-0.9,3.1-2.1,4.4-3.5c1.2-1.2,2.3-2.5,3.6-3.6c0.5-0.4,1-0.8,1.5-1.2
					c0.6-0.6,1.2-1.2,1.9-1.8c2.2-1.8,4.7-3.3,7.5-4.2c2.7-0.9,5.7-1.2,8.5-0.6c3.1,0.7,6.2,2.3,8.5,4.5c2,2,3.3,4.5,3.8,7.3
					c0.4,2.4,0.2,4.9-0.5,7.3c-0.2,0.7-0.4,1.3-0.6,2c2.3-4.9,3.7-10.5,2.3-15.4c-1.9-6.6-8.3-10.6-15-10.3
					c-9.6,0.4-16.3,6.6-23.9,11.6c-3.1,2-6.4,3.6-9.8,5C89,128.9,82.4,129.8,78.9,134.5z"/>
				<path class="st3" d="M95.2,127.5c0.8,0.4,1.3,1.4,2.2,1.6c0.9,0.2,1.9,0.2,2.7-0.1c1.9-0.6,4.1-2.3,5.5-3.8
					c1.3-1.4,1.9-2.7,3.3-4.1c1.4-1.4,2.9-2.7,4.5-3.8c2.9-2.1,6.2-4.1,9.8-5c5.9-1.5,13.2,0,17,5.1c3.1,4.1,3.2,9.4,2.2,14.3
					c1.2-3.7,1.6-7.5,0.6-11c-1.9-6.6-8.3-10.6-15-10.3c-9.6,0.4-16.3,6.6-23.9,11.6c-3.1,2-6.4,3.6-9.8,5c-0.8,0.3-1.6,0.6-2.5,0.9
					C92.7,127.5,94.2,127,95.2,127.5z"/>
			</g>
		</g>
	</g>
	<g>
		<path class="st5" d="M99.1,127.8c-0.6,1.3,0.2,2,1.5,2.1c3,0.3,7.3-3.3,9.7-6.8c0.3-0.8,0.4-1.5-0.1-1.7c-0.5-0.2-1-0.1-1.5,0.1
			c-1.2,0.7-2.5,1.4-3.7,2c-1.3,0.7-2.9,1.4-4.2,2.4C100.1,126.4,99.5,127,99.1,127.8z"/>
	</g>
	<path class="st6" d="M100.5,127.8c0,0-1.3,0.7,0.2,1.3c1.5,0.7,4.1-1,4.6-2.4C105.5,126.4,102.5,126.5,100.5,127.8z"/>
</g>
<g>
	<g>
		<g>
			<g>
				<g>
					<g>
						<path class="st0" d="M55.2,37c-3,6.8-2.3,14.5,0.8,21.4c2.3,5.2,5.8,10.1,9.8,14.2C71.1,78.2,78,82,85.5,84
							c6.7,1.8,16.3,2.4,22.2-2.1c5.5-4.1,7-11.6,4.3-17.7c-3.8-8.8-12-12.9-19.4-18.2c-3-2.1-5.7-4.7-8.1-7.4
							c-3.7-4.1-6.9-10-12.5-11.5c-5.7-1.5-11.7,1.9-14.9,6.6C56.3,34.7,55.7,35.8,55.2,37z"/>
						<path class="st1" d="M111.8,77.3C111.8,77.3,111.8,77.3,111.8,77.3c-1,1.9-2.3,3.5-4,4.7c-5.8,4.4-15.4,4-22.4,2.1
							c-7.8-2.1-14.6-6-19.8-11.4c-4.3-4.4-7.7-9.4-9.8-14.3C52.5,51,52.2,43.3,55,37c0.5-1.2,1.2-2.4,1.9-3.5
							c1.6-2.4,4-4.4,6.6-5.7c2.9-1.4,5.8-1.7,8.5-1c4.3,1.2,7.2,4.8,10,8.3c0.9,1.1,1.7,2.2,2.6,3.2c2.7,3,5.4,5.5,8.1,7.4
							c1.4,1,2.8,2,4.2,2.9c6.2,4.2,12.1,8.2,15.2,15.4C114,68.4,113.9,73.3,111.8,77.3z M55.9,35.8c-0.2,0.4-0.4,0.8-0.6,1.3
							c-2.8,6.3-2.5,13.8,0.8,21.3c2.1,4.9,5.5,9.8,9.8,14.2c5.1,5.3,11.9,9.2,19.7,11.3c6.9,1.8,16.3,2.3,22.1-2.1
							c1.7-1.2,3-2.8,3.9-4.6c2-3.9,2.2-8.7,0.4-12.9c-3.1-7.1-8.9-11.1-15.1-15.3c-1.4-0.9-2.8-1.9-4.2-2.9c-2.7-2-5.4-4.4-8.1-7.5
							c-0.9-1-1.8-2.1-2.7-3.2c-2.7-3.5-5.6-7.1-9.8-8.2c-5.7-1.5-11.7,2.1-14.7,6.5C56.8,34.3,56.3,35.1,55.9,35.8z"/>
					</g>
					<path class="st2" d="M61.6,35.6c-0.7,0.4-1.3,1-1.7,1.6c0,0,0,0,0,0c-2.8,4.7-3.6,10.3-2.4,15.6c1.3,5.7,4.7,10.8,9.1,14.6
						c2.5,2.2,5.1,4.3,8,5.9c0.4,0.2,2.4,1.4,2.5,0.5c0.1-1.1-1.1-2-1.8-2.6c-0.9-0.8-1.8-1.5-2.6-2.3c-1.1-1.2-2.2-2.5-3.1-3.9
						c-2-3-3.4-6.4-4.3-9.9c-0.8-3.3-1.3-6.8-0.4-10.1c0.5-2.1,1.5-4.1,1.6-6.3c0-1.1-0.2-2.2-1.1-2.9C64.2,35,62.8,34.9,61.6,35.6z
						"/>
				</g>
				<path class="st3" d="M72,27c-5.7-1.5-11.7,1.9-14.9,6.6c-0.8,1.1-1.4,2.3-1.9,3.5c-3,6.8-2.3,14.5,0.8,21.4
					c2.3,5.2,5.8,10.1,9.8,14.2C71.1,78.2,78,82,85.5,84c6.7,1.8,16.3,2.4,22.2-2.1c5.5-4.1,7-11.6,4.3-17.7
					c-3.8-8.8-12-12.9-19.4-18.2c-3-2.1-5.7-4.7-8.1-7.4C80.9,34.4,77.7,28.5,72,27z M77.1,42.2c3,4.6,6.8,8.3,11.4,11.2
					c3.7,2.4,7.8,4.7,10.7,8.1c2.4,2.7,4.5,6.6,3.5,10.4c-0.9,3.4-3.6,5.9-6.8,7.1c-3,1.2-7.5,1.2-10.7,0.7
					c-5.7-0.9-10.7-4.1-15.3-7.4c-4.3-3.1-8.3-6.9-10.8-11.7c-1.9-3.6-3.2-8-3.4-12.1c-0.3-5.4,1.4-12.5,6.2-15.7
					C69,28.1,74,37.4,77.1,42.2z"/>
				<path class="st4" d="M54,40.5c0,0.1-0.1,0.2-0.1,0.3c0-0.1,0.1-0.3,0.1-0.4C54,40.4,54,40.5,54,40.5z"/>
				<path class="st3" d="M72,27c-5.7-1.5-11.7,1.9-14.9,6.6c-0.8,1.1-1.4,2.3-1.9,3.5c-0.4,0.9-0.7,1.7-1,2.6
					c0.3-0.6,0.5-1.2,0.8-1.8c0,0,0-0.1,0.1-0.1c0.6-1.3,1.4-2.6,2.4-3.7c0.4-0.5,0.8-1,1.2-1.5c1.2-1.4,2.6-2.6,4.4-3.3
					c1.6-0.6,3.4-0.8,5.1-0.7c1.7,0.1,3.4,0.4,5,1.1c1.8,0.8,3.1,2.3,4.2,4c0.7,1.1,1.3,2.2,1.7,3.3c0.3,0.6,0.6,1.3,0.9,2
					c0.6,1.4,1,2.8,1.7,4.2c0.7,1.5,1.7,2.8,3,3.8c1.4,1.2,3.1,2.1,4.8,2.9c1.6,0.7,3.1,1.2,4.6,2.1c0.6,0.3,1.1,0.6,1.7,1
					c0.8,0.3,1.6,0.7,2.4,1.1c2.5,1.4,4.8,3.3,6.6,5.5c1.8,2.2,3.1,4.9,3.5,7.8c0.4,3.2,0.1,6.6-1.3,9.5c-1.1,2.5-3,4.7-5.5,6.1
					c-2.1,1.2-4.6,1.9-7,2.1c-0.7,0.1-1.4,0.1-2.1,0.1c5.4,0.4,11.1-0.2,15.2-3.3c5.5-4.1,7-11.6,4.3-17.7
					c-3.8-8.8-12-12.9-19.4-18.2c-3-2.1-5.7-4.7-8.1-7.4C80.9,34.4,77.7,28.5,72,27z"/>
				<path class="st3" d="M84.3,39.7c-0.1,0.9-0.8,1.7-0.7,2.6c0.1,0.9,0.5,1.8,1.1,2.5c1.3,1.6,3.6,3.1,5.5,3.8
					c1.8,0.7,3.2,0.8,5,1.6c1.8,0.8,3.5,1.8,5.2,2.8c3,2,6,4.4,8.1,7.4c3.5,5,4.6,12.4,1.3,17.7c-2.7,4.4-7.7,6.4-12.6,7.1
					c3.8-0.2,7.6-1.2,10.5-3.4c5.5-4.1,7-11.6,4.3-17.7c-3.8-8.8-12-12.9-19.4-18.2c-3-2.1-5.7-4.7-8.1-7.4c-0.6-0.6-1.1-1.3-1.7-2
					C83.5,37.4,84.5,38.5,84.3,39.7z"/>
			</g>
		</g>
	</g>
	<g>
		<path class="st5" d="M85.5,43.5c-1.4-0.1-1.8,0.9-1.4,2.1c0.8,2.9,5.7,5.7,9.8,6.6c0.8,0,1.5-0.1,1.6-0.7c0-0.5-0.3-1-0.6-1.4
			c-1.1-0.9-2.2-1.8-3.2-2.8c-1.1-1-2.3-2.3-3.7-3.1C87.1,43.8,86.3,43.5,85.5,43.5z"/>
	</g>
	<path class="st6" d="M85.9,44.8c0,0-1.1-0.9-1.2,0.6c-0.1,1.6,2.4,3.4,3.9,3.5C89.1,48.9,87.9,46.2,85.9,44.8z"/>
</g>
</svg>
