<?xml version="1.0" encoding="utf-8"?>
<!-- Generator: Adobe Illustrator 25.2.1, SVG Export Plug-In . SVG Version: 6.00 Build 0)  -->
<svg version="1.1" id="Layer_3" xmlns="http://www.w3.org/2000/svg" xmlns:xlink="http://www.w3.org/1999/xlink" x="0px" y="0px"
	 viewBox="0 0 200 200" style="enable-background:new 0 0 200 200;" xml:space="preserve">
<style type="text/css">
	.st0{fill:#2371B7;}
	.st1{fill:#145E96;}
	.st2{fill:#1268AC;}
	.st3{fill:#125DA1;}
	.st4{fill:#165B99;}
	.st5{fill:#3D82C1;}
	.st6{fill:#2062AC;}
	.st7{fill:#3677B2;}
</style>
<g>
	<path class="st0" d="M70.7,72.4c5.4,19.2,22.3,25.8,40.1,20.8s29.8-19.8,24.4-39s-24.2-30.7-42-25.6S65.3,53.2,70.7,72.4z"/>
	<g>
		<path class="st1" d="M110,40.2c-0.5-0.7-1.2-1.3-1.9-1.8c-1.1-0.8-2.3-1.3-3.5-1.9c-1.1-0.5-1.8-1.4-2.7-2.1c-0.4-0.3-0.5-1,0-1.2
			c1.8-0.8,2.8-1.4,4.9-1.1c2,0.4,3.8,1,5.5,2.3c0.5,0.4,1,0.9,1.5,1.3C112.5,37.2,111.3,38.7,110,40.2z"/>
		<path class="st1" d="M100.4,50.9c-0.2-0.3-0.4-0.6-0.6-1c-0.5-1.2-0.2-2.4,0.9-3.1c1-0.5,2.3-0.5,3.8-0.4
			C103.1,47.9,101.8,49.4,100.4,50.9z"/>
		<path class="st1" d="M108.1,46.5c1.7-0.1,3-0.8,3-3.2c0-0.1,0-0.1,0-0.2c1.5-1.7,2.9-3.5,4.4-5.2c1.1,1.9,1.7,4,1.6,6.3
			c-0.3,3.7-2.7,7.1-6.1,8.5c-2.3,1-5.8,1.2-8.4,0C104.4,50.6,106.2,48.6,108.1,46.5z"/>
	</g>
	<g>
		<path class="st2" d="M109.5,36.4c-6.1-1.8-11.2-2.3-13.3,2.2c-1.7,3.6,3.3,6.5,7.8,8.4c-1.6,1.7-3.1,3.4-4.7,5.2
			c-2.7-0.6-5.4-2.6-7.2-4.4c-3.2-3.3-4.6-8.2-2.4-12.4c4-7.4,17.1-8.6,22-1.7C112.8,35.2,110.9,36.8,109.5,36.4z"/>
		<path class="st2" d="M106.7,48c0.3,0.1,0.7,0.3,1,0.4c1.8,0.7-2.1,2.4-3.8,3.3c-0.3,0.1-0.6,0.2-0.8,0.3
			C104.3,50.7,105.5,49.4,106.7,48z"/>
	</g>
	<path class="st3" d="M91,38.6c-0.1,2.9,2.6,5.9,4.6,7.6c2.6,2.2,5.7,2.8,9,2.8c2.9,0,6.5,0,8.4-2.6c1.5-2.1,0.8-4.9-0.7-6.8
		c-1.8-2.3-4.8-3.8-7.4-5.1c-0.9-0.4-1.8-0.8-2.7-0.9c-1.7-0.8-3.7-1.1-5.7-0.7C93.8,33.5,91.1,35.5,91,38.6z"/>
	<path class="st4" d="M70.7,72.4c5.4,19.2,22.3,25.8,40.1,20.8c-9.3-3.6-23.8-11-29.5-23.9c-5.7-12.9-9-24.5,11.9-40.8
		C75.4,33.6,65.3,53.2,70.7,72.4z"/>
	
		<ellipse transform="matrix(7.304560e-02 -0.9973 0.9973 7.304560e-02 53.0442 177.0388)" class="st5" cx="121.8" cy="60" rx="7" ry="2.5"/>
</g>
<g>
	<path class="st6" d="M101,97.4c0,19.9-14.4,30.9-32.9,30.9S34,117.3,34,97.4s15-36.1,33.5-36.1S101,77.5,101,97.4z"/>
	<g>
		<path class="st1" d="M54.5,77.1c0.3-0.8,0.8-1.6,1.3-2.3c0.8-1.1,1.8-1.9,2.8-2.8c0.9-0.8,1.3-1.8,2.1-2.8
			c0.3-0.4,0.2-1.1-0.4-1.1c-1.9-0.3-3.1-0.6-5,0.3c-1.9,0.9-3.4,2-4.7,3.7c-0.4,0.5-0.7,1.1-1.1,1.7C51.2,74.9,52.8,76,54.5,77.1z"
			/>
		<path class="st1" d="M66.6,84.8c0.1-0.4,0.2-0.7,0.3-1.1c0.2-1.3-0.4-2.4-1.7-2.7c-1.1-0.3-2.4,0.1-3.8,0.6
			C63.2,82.6,64.9,83.7,66.6,84.8z"/>
		<path class="st1" d="M58,82.7c-1.7,0.3-3.1,0-3.8-2.3c0-0.1,0-0.1,0-0.2c-1.9-1.3-3.8-2.5-5.6-3.8c-0.6,2.1-0.6,4.4,0.2,6.4
			c1.3,3.5,4.5,6.1,8.2,6.5c2.5,0.3,6-0.4,8.1-2.3C62.7,85.6,60.3,84.1,58,82.7z"/>
	</g>
	<g>
		<path class="st2" d="M53.9,73.3c5.4-3.4,10.1-5.3,13.4-1.5c2.6,3-1.5,7.1-5.2,10.2c2,1.2,3.9,2.5,5.9,3.7c2.5-1.4,4.5-3.9,5.8-6.2
			c2.2-4,2.2-9.1-1.1-12.5c-5.8-6-18.8-3.7-21.6,4.4C50.4,73,52.6,74,53.9,73.3z"/>
		<path class="st2" d="M59.7,83.7c-0.3,0.2-0.6,0.4-0.8,0.6c-1.5,1.1,2.6,1.8,4.5,2.1c0.3,0.1,0.6,0.1,0.9,0.1
			C62.8,85.6,61.3,84.7,59.7,83.7z"/>
	</g>
	<path class="st3" d="M65.4,66.5c-2.1,0.2-3.9,1-5.3,2.3c-0.8,0.3-1.6,0.9-2.4,1.6c-2.1,1.9-4.6,4.2-5.7,6.9
		c-0.9,2.2-0.8,5.1,1.2,6.7c2.5,2,6,1,8.8,0.2c3.2-0.9,6-2.4,7.9-5.2c1.5-2.2,3.2-5.8,2.4-8.6C71.3,67.5,68.2,66.2,65.4,66.5z"/>
	<path class="st4" d="M101,97.4c0,19.9-14.4,30.9-32.9,30.9c7.9-6,19.9-17,21.9-31s2-26-22.5-36C86,61.3,101,77.5,101,97.4z"/>
	<ellipse transform="matrix(0.9401 -0.3409 0.3409 0.9401 -30.9455 22.4776)" class="st5" cx="48.5" cy="99.3" rx="2.5" ry="7"/>
</g>
<g>
	<path class="st7" d="M165.7,117.7c-7.4,19.2-25.3,24.4-43.1,17.6S94,112.1,101.3,92.9c7.4-19.2,27.7-29.1,45.5-22.3
		S173.1,98.5,165.7,117.7z"/>
	<g>
		<path class="st1" d="M128.5,80.9c0.6-0.7,1.3-1.2,2.1-1.7c1.2-0.7,2.5-1.1,3.7-1.6c1.2-0.5,2-1.3,3-1.9c0.4-0.3,0.6-1,0.1-1.2
			c-1.8-1-2.8-1.8-4.9-1.6c-2.1,0.2-4,0.7-5.9,1.8c-0.6,0.4-1.1,0.8-1.6,1.2C126.2,77.6,127.3,79.3,128.5,80.9z"/>
		<path class="st1" d="M137.3,92.9c0.3-0.3,0.5-0.6,0.7-1c0.6-1.1,0.5-2.5-0.7-3.3c-0.9-0.7-2.3-0.8-3.8-0.8
			C134.8,89.5,136.1,91.2,137.3,92.9z"/>
		<path class="st1" d="M129.9,87.6c-1.8-0.3-3-1.1-2.8-3.6c0-0.1,0-0.1,0-0.2c-1.4-1.9-2.7-3.8-4-5.8c-1.3,1.8-2.2,4-2.2,6.3
			c-0.1,3.9,2.1,7.5,5.5,9.3c2.3,1.2,5.9,1.8,8.6,0.8C133.3,92.1,131.6,89.9,129.9,87.6z"/>
	</g>
	<g>
		<path class="st2" d="M129.4,77.1c6.4-1.2,11.7-1.3,13.4,3.5c1.4,3.9-4,6.3-8.8,7.9c1.4,1.9,2.9,3.8,4.3,5.7
			c2.9-0.4,5.8-2.1,7.8-3.8c3.6-3,5.5-7.9,3.6-12.4c-3.4-7.9-16.7-10.5-22.4-3.8C126.1,75.5,127.9,77.3,129.4,77.1z"/>
		<path class="st2" d="M131.1,89.3c-0.4,0.1-0.7,0.2-1,0.3c-1.9,0.5,1.9,2.7,3.6,3.7c0.3,0.2,0.5,0.3,0.8,0.4
			C133.4,92.3,132.2,90.8,131.1,89.3z"/>
	</g>
	<path class="st3" d="M142.9,74.8c-2.1-0.6-4.1-0.5-6,0.2c-0.9,0-1.9,0.3-2.8,0.6c-2.7,1.1-6,2.3-8,4.5c-1.7,1.8-2.7,4.6-1.3,6.9
		c1.7,2.9,5.4,3.2,8.4,3.5c3.4,0.3,6.7,0,9.5-2.1c2.3-1.6,5.3-4.4,5.4-7.4C148.3,77.9,145.8,75.6,142.9,74.8z"/>
	<path class="st4" d="M165.7,117.7c-7.4,19.2-25.3,24.4-43.1,17.6c9.8-2.8,25.4-9,32.5-21.7s11.5-24.3-8.3-42.9
		C164.7,77.4,173.1,98.5,165.7,117.7z"/>
	
		<ellipse transform="matrix(1.917730e-02 -0.9998 0.9998 1.917730e-02 12.2794 212.7397)" class="st5" cx="114.6" cy="100.1" rx="7.2" ry="2.6"/>
</g>
</svg>
