<?xml version="1.0" encoding="utf-8"?>
<!-- Generator: Adobe Illustrator 25.2.1, SVG Export Plug-In . SVG Version: 6.00 Build 0)  -->
<svg version="1.1" id="Layer_2" xmlns="http://www.w3.org/2000/svg" xmlns:xlink="http://www.w3.org/1999/xlink" x="0px" y="0px"
	 viewBox="0 0 200 200" style="enable-background:new 0 0 200 200;" xml:space="preserve">
<style type="text/css">
	.st0{fill:#2371B7;}
	.st1{fill:#145E96;}
	.st2{fill:#1268AC;}
	.st3{fill:#125DA1;}
	.st4{fill:#165B99;}
	.st5{fill:#3D82C1;}
	.st6{fill:#2062AC;}
	.st7{fill:#3677B2;}
	.st8{opacity:0.5;fill:#4A91C6;}
	.st9{fill:#3C7EAF;}
	.st10{fill:#2E8CC6;}
	.st11{opacity:0.5;fill:#64AFDD;}
</style>
<g>
	<path class="st0" d="M97.3,36.6c15.4-8.2,30.8-16.5,46.1-25c-0.9-1.2-1.9-2.4-3-3.5C126.6-6.2,104.6-7.4,91.3,5.5
		C81.2,15.3,79,30.4,84.7,43.4C88.9,41.1,93.1,38.8,97.3,36.6z"/>
	<g>
		<path class="st1" d="M111.6,7.7c-0.8-0.4-1.7-0.6-2.5-0.7c-1.3-0.2-2.6-0.1-4,0c-1.2,0-2.2-0.4-3.4-0.5c-0.5-0.1-0.9-0.6-0.5-1.1
			c1.2-1.6,1.8-2.6,3.8-3.3c2-0.7,3.9-0.9,5.9-0.6c0.7,0.1,1.3,0.3,1.9,0.5C112.5,3.9,112.1,5.8,111.6,7.7z"/>
		<path class="st1" d="M108.3,21.8c-0.3-0.2-0.7-0.3-1-0.6c-1-0.8-1.4-2-0.6-3.2c0.6-0.9,1.8-1.6,3.1-2.2
			C109.3,17.8,108.8,19.8,108.3,21.8z"/>
		<path class="st1" d="M113,14.2c1.5-0.9,2.3-2.2,1.1-4.3c0-0.1-0.1-0.1-0.1-0.2c0.5-2.2,0.9-4.4,1.4-6.7c1.9,1.1,3.4,2.7,4.3,4.8
			c1.5,3.4,1,7.5-1.4,10.4c-1.6,1.9-4.6,3.8-7.4,4C111.6,19.6,112.3,16.9,113,14.2z"/>
	</g>
	<g>
		<path class="st2" d="M109.4,4.6c-6.2,1.3-10.9,3.2-10.7,8.2c0.2,4,6,4.1,10.8,3.7c-0.6,2.3-1.1,4.5-1.7,6.8
			c-2.7,0.7-6,0.3-8.4-0.4c-4.4-1.3-7.9-5-7.9-9.8c0-8.4,10.9-15.7,18.6-11.9C111.7,2,110.8,4.3,109.4,4.6z"/>
		<path class="st2" d="M112.5,16.2c0.4,0,0.7-0.1,1-0.1c1.9-0.3-0.7,3.1-1.8,4.7c-0.2,0.3-0.4,0.5-0.6,0.7
			C111.6,19.7,112,18,112.5,16.2z"/>
	</g>
	<path class="st3" d="M94.2,15.3c1.3,2.6,5,3.9,7.7,4.5c3.3,0.7,6.4-0.2,9.3-1.8c2.5-1.4,5.8-3.1,6.2-6.3c0.3-2.6-1.6-4.7-3.8-5.7
		c-2.7-1.1-6-1-8.9-1c-1,0-1.9,0.2-2.8,0.5c-1.9,0.1-3.7,0.8-5.4,2.1C94.2,9.5,92.8,12.6,94.2,15.3z"/>
	<path class="st4" d="M91.9,39.5c-6.1-7.1-8.3-16.5-0.6-34C81.2,15.3,79,30.4,84.7,43.4C87.1,42.1,89.5,40.8,91.9,39.5z"/>
	<path class="st5" d="M133.1,17.3c-1.5-2.8-3.4-4.6-4.5-4.1c-1.1,0.5-1,3.3,0.2,6.5C130.2,18.9,131.6,18.1,133.1,17.3z"/>
</g>
<g>
	<path class="st0" d="M142.2,41.2c-13.3,0-26.7,0-40-0.1c0,3.6,0.4,7.2,1.5,10.9c5.4,19.2,22.3,25.8,40.1,20.8
		c15.5-4.4,26.6-16.2,25.6-31.8C160.3,41.2,151.2,41.2,142.2,41.2z"/>
	<path class="st4" d="M114.2,49c-1.2-2.6-2.2-5.2-3-7.8c-3,0-6,0-9,0c0,3.6,0.4,7.2,1.5,10.9c5.4,19.2,22.3,25.8,40.1,20.8
		C134.4,69.2,119.9,61.9,114.2,49z"/>
	<path class="st5" d="M152.1,41.2c0.1,3,0.9,5.3,2,5.4c1.2,0.1,2.4-2.3,2.9-5.4C155.4,41.2,153.7,41.2,152.1,41.2z"/>
</g>
<g>
	<path class="st6" d="M28.9,85.6c17.8,9.7,35.8,19,54.3,27.2c0.4-1.2,0.8-2.4,1.1-3.7C88.9,89.7,78,70.5,60,66.3
		c-14.3-3.4-28.7,3.7-36.4,16.4C25.4,83.6,27.1,84.6,28.9,85.6z"/>
	<g>
		<path class="st1" d="M43.7,78.6c0.5-0.7,1.1-1.4,1.8-1.9c1.1-0.8,2.2-1.4,3.4-2c1.1-0.6,1.7-1.5,2.7-2.2c0.4-0.3,0.4-1-0.1-1.2
			c-1.8-0.8-2.9-1.3-4.9-0.9c-2,0.4-3.8,1.2-5.4,2.5c-0.5,0.4-1,0.9-1.4,1.4C41,75.7,42.3,77.2,43.7,78.6z"/>
		<path class="st1" d="M53.8,88.9c0.2-0.3,0.4-0.6,0.5-1c0.4-1.2,0.1-2.5-1.1-3.1c-1-0.5-2.4-0.4-3.8-0.3
			C50.9,86,52.3,87.5,53.8,88.9z"/>
		<path class="st1" d="M45.9,84.9c-1.7-0.1-3.1-0.7-3.2-3.1c0-0.1,0-0.1,0-0.2c-1.6-1.7-3.1-3.3-4.6-5c-1,1.9-1.6,4.1-1.3,6.3
			c0.4,3.7,3,6.9,6.5,8.2c2.4,0.9,5.9,0.9,8.4-0.4C49.7,88.8,47.8,86.8,45.9,84.9z"/>
	</g>
	<g>
		<path class="st2" d="M44,74.8c6-2,11-2.8,13.4,1.6c1.9,3.5-3.1,6.6-7.4,8.7c1.6,1.6,3.3,3.3,4.9,5c2.7-0.8,5.3-2.8,7-4.7
			C65,82,66.1,77,63.7,73c-4.3-7.2-17.4-7.9-22-0.7C40.7,73.7,42.6,75.2,44,74.8z"/>
		<path class="st2" d="M47.3,86.3c-0.3,0.1-0.7,0.3-1,0.4c-1.8,0.8,2.2,2.3,3.9,3.1c0.3,0.1,0.6,0.2,0.9,0.3
			C49.8,88.9,48.6,87.6,47.3,86.3z"/>
	</g>
	<path class="st3" d="M56.7,70.8c-2.1-0.3-4,0.1-5.7,1c-0.9,0.1-1.8,0.5-2.6,1c-2.5,1.4-5.4,3-7.1,5.4c-1.4,1.9-2,4.8-0.4,6.8
		c2,2.5,5.7,2.4,8.5,2.2c3.3-0.2,6.4-0.9,8.9-3.2c2-1.8,4.5-4.9,4.3-7.8C62.3,73.1,59.6,71.2,56.7,70.8z"/>
	<path class="st4" d="M73.6,106.5c-0.2,0.6-0.5,1.1-0.7,1.6c3.4,1.6,6.9,3.2,10.3,4.7c0.4-1.2,0.8-2.4,1.1-3.7
		C88.9,89.7,78,70.5,60,66.3C81.6,81.6,78.8,93.3,73.6,106.5z"/>
</g>
<g>
	<path class="st6" d="M83.2,126.6c-22-4.1-43.6-9.7-65.2-15.7c-0.7,2.9-1.1,6-1.1,9.1c0,19.9,15.6,30.9,34.1,30.9
		c16.3,0,29.5-8.6,32.3-24.3C83.3,126.6,83.2,126.6,83.2,126.6z"/>
	<path class="st4" d="M83.2,126.6c-3.8-0.7-7.5-1.5-11.3-2.3C68.3,136.3,58,145.6,51,150.9c16.3,0,29.5-8.6,32.3-24.3
		C83.3,126.6,83.2,126.6,83.2,126.6z"/>
	<ellipse transform="matrix(0.9401 -0.3409 0.3409 0.9401 -39.6872 18.0027)" class="st5" cx="31.4" cy="121.9" rx="2.5" ry="7"/>
</g>
<g>
	<path class="st7" d="M119.7,119.3c3.6,0.8,7.2,1.4,10.8,1.9c12.8,1.8,25.8,1.7,38.7,1c5.8-0.3,11.6-0.6,17.3-0.9
		c0.1-2.3,0-4.6-0.3-7.1c-2.8-20.3-20.3-34.7-39.2-32.2c-17.4,2.4-29.8,18.3-29.5,36.6C118.3,118.9,119,119.1,119.7,119.3z"/>
	<g>
		<path class="st1" d="M135.9,100c0.2-0.9,0.6-1.7,1-2.5c0.7-1.2,1.6-2.2,2.5-3.2c0.8-1,1.1-2.1,1.7-3.1c0.3-0.4,0-1.1-0.5-1.1
			c-2-0.1-3.3-0.2-5.1,1c-1.8,1.2-3.2,2.6-4.3,4.4c-0.3,0.6-0.6,1.2-0.8,1.9C132.3,98.2,134.1,99.1,135.9,100z"/>
		<path class="st1" d="M149.4,106.2c0.1-0.4,0.1-0.8,0.1-1.2c0-1.3-0.8-2.4-2.2-2.5c-1.1-0.1-2.4,0.4-3.7,1.1
			C145.6,104.5,147.5,105.4,149.4,106.2z"/>
		<path class="st1" d="M140.3,105.2c-1.7,0.6-3.2,0.5-4.2-1.8c0-0.1,0-0.1-0.1-0.2c-2.1-1-4.2-2.1-6.3-3.1c-0.3,2.2,0,4.5,1.1,6.6
			c1.8,3.4,5.4,5.6,9.3,5.5c2.6-0.1,6-1.3,7.9-3.4C145.5,107.5,142.9,106.4,140.3,105.2z"/>
	</g>
	<g>
		<path class="st2" d="M134.8,96.2c5-4.2,9.6-6.8,13.4-3.4c3.1,2.7-0.5,7.5-3.9,11.1c2.2,1,4.4,2,6.5,3c2.3-1.7,4.1-4.6,5-7.1
			c1.7-4.4,1-9.6-2.8-12.6c-6.8-5.3-19.7-1.1-21.5,7.4C131.3,96.4,133.6,97.2,134.8,96.2z"/>
		<path class="st2" d="M142.2,106.1c-0.3,0.3-0.5,0.5-0.8,0.8c-1.4,1.4,2.9,1.5,4.9,1.6c0.3,0,0.6,0,0.9,0
			C145.6,107.6,143.9,106.8,142.2,106.1z"/>
	</g>
	<path class="st3" d="M145.6,87.7c-2.1,0.5-3.8,1.6-5.1,3.1c-0.8,0.5-1.5,1.1-2.2,1.9c-1.9,2.2-4.1,4.9-4.9,7.8
		c-0.6,2.4-0.1,5.4,2.1,6.7c2.9,1.7,6.3,0.2,9-1c3.1-1.4,5.8-3.2,7.3-6.4c1.2-2.5,2.5-6.4,1.2-9.1C151.8,87.9,148.5,87,145.6,87.7z"
		/>
	<path class="st4" d="M175,115.7c0,2.1-0.3,4.2-0.7,6.3c4.1-0.2,8.2-0.4,12.3-0.6c0.1-2.3,0-4.6-0.3-7.1
		c-2.8-20.3-20.3-34.7-39.2-32.2C173.5,88.9,175.1,101.2,175,115.7z"/>
	<path class="st5" d="M130.5,121.2c1.5,0.2,2.9,0.4,4.4,0.5c-1.8-3.2-4.1-5.2-5.3-4.6c-0.8,0.4-0.9,1.9-0.4,3.9
		C129.7,121.1,130.1,121.2,130.5,121.2z"/>
</g>
<g>
	<path class="st7" d="M149.5,146.1c-6.4-0.8-12.7-1.9-19-3.5c-3.2-0.8-6.4-1.7-9.6-2.8c0,0.7,0,1.3,0,2c1,20.5,17.5,31.1,36.5,30.2
		c15.7-0.7,28.3-9.1,31.6-23.6C175.8,148,162.6,147.7,149.5,146.1z"/>
	<path class="st4" d="M176.4,148c-4.1,10.4-12.7,18.9-18.9,24c15.7-0.7,29.1-9.7,32.4-24.1C185.7,147.8,180.6,148.2,176.4,148z"/>
	<path class="st5" d="M133.2,143.3c0.1,0.3,0.2,0.6,0.3,0.9c1.5,3.7,3.8,6.2,5.1,5.7c1-0.4,1.1-2.6,0.4-5.3
		C137.2,144.2,135.2,143.8,133.2,143.3z"/>
</g>
<ellipse class="st5" cx="135.9" cy="41.4" rx="34" ry="4.5"/>
<ellipse transform="matrix(0.8787 -0.4774 0.4774 0.8787 0.6212 57.7761)" class="st5" cx="114" cy="27.7" rx="33.4" ry="2.9"/>
<ellipse class="st8" cx="134.4" cy="41.4" rx="23.5" ry="3.5"/>
<ellipse transform="matrix(0.1141 -0.9935 0.9935 0.1141 -5.0317 281.5923)" class="st9" cx="155.4" cy="143.6" rx="4.5" ry="34.8"/>
<ellipse transform="matrix(0.1141 -0.9935 0.9935 0.1141 -5.2525 281.5425)" class="st8" cx="155.2" cy="143.7" rx="3.5" ry="21.5"/>
<ellipse transform="matrix(0.2195 -0.9756 0.9756 0.2195 -76.5366 142.0885)" class="st10" cx="50.5" cy="118.9" rx="4.5" ry="33.6"/>
<ellipse transform="matrix(0.4454 -0.8954 0.8954 0.4454 -57.6418 102.1744)" class="st10" cx="53.6" cy="97.6" rx="2.5" ry="33.5"/>
<ellipse transform="matrix(0.2195 -0.9756 0.9756 0.2195 -76.939 141.588)" class="st11" cx="50" cy="118.9" rx="3.5" ry="21"/>
</svg>
