<?xml version="1.0" encoding="utf-8"?>
<!-- Generator: Adobe Illustrator 25.2.1, SVG Export Plug-In . SVG Version: 6.00 Build 0)  -->
<svg version="1.1" id="Layer_2" xmlns="http://www.w3.org/2000/svg" xmlns:xlink="http://www.w3.org/1999/xlink" x="0px" y="0px"
	 viewBox="0 0 200 200" style="enable-background:new 0 0 200 200;" xml:space="preserve">
<style type="text/css">
	.st0{fill:#F59F04;}
	.st1{fill:#EAD8B2;}
	.st2{fill:#F5E7C6;}
	.st3{opacity:0.68;fill:#DB8A09;enable-background:new    ;}
</style>
<path class="st0" d="M107.7,18.7l-0.6,3.6c-0.1,0.5-0.3,1-0.6,1.4l-77,97.7c-0.4,0.4-0.8,0.8-1.4,0.9l-6.4,1.8l5.2-14l47-59
	l32.8-32.8C107.2,17.9,107.8,18.2,107.7,18.7z"/>
<path class="st1" d="M105,20.1l2,2.1c0.1,0.1,0-0.2,0-0.1c-0.1,0.4-0.7,1.6-1,2l-75,94c-0.4,0.5-1,2-2,2s-1,0-2-2s-0.1-2.7,0-3
	l0-4.9c0,0,0-0.1,0.1-0.1l47-58.9c0,0,0,0,0,0l30.7-30.7C104.9,20.2,104.9,19.9,105,20.1z"/>
<g>
	<path class="st0" d="M81.2,146.5c-1.3,2.1-2.6,4.1-3.9,6.2c2.8,5.8,7.1,12.9,10.6,18.4l-2-19C84.9,150.5,82.4,148.4,81.2,146.5z"/>
	<g>
		<path class="st0" d="M207,101.5c-17.4-19-35.6-42.5-44.1-55c-0.7,0.7-1.4,1.5-2.1,2.2c8.3,12.1,25.4,34.1,41.7,52.3
			c17.7,19.7-0.4,23.5-32.5,31c-32.1,7.3-38.2,19.1-55,27c-12.8,5.8-21.8,1.3-32-16c-0.5,0.8-1.2,2.6-1.8,3.4
			c1.1,1.9,2.3,3.7,3.4,5.2c9.4,13.5,18.6,17.7,30.4,12.3c17.5-7.9,24.1-21.4,57.9-29c25.1-5.6,41.8-10.1,41.5-20.2l0-0.2
			C214.2,111.2,211.8,106.9,207,101.5z"/>
		<path id="Path_14750_1_" class="st0" d="M172.9,135.1c-33.8,7.6-40.3,20.3-57.5,28.5c-11.7,5.4-21,2.1-30.5-11.6l2.3,17.9
			c9.2,13.5,18.2,16.7,29.8,11.4c17.1-7.9,23.3-20.1,56.1-27.7c22.6-5.3,38.4-9.1,40.2-17.6l0-0.2c1.2-6.9,1.7-13.8,1.3-20.8
			C214.8,125,198,129.2,172.9,135.1z"/>
		<path class="st2" d="M161.1,48.5c-3.8,4-7.6,8.1-11.3,12.1c-16.9,18.3-33.4,37-48.6,56.7c-6.6,8.5-12.5,17.3-18.2,26.4
			c10.3,17.3,19.6,22,32.4,16.2c16.6-7.6,22.5-19.6,54.9-27.1c32.1-7.5,50.1-12.3,32.4-32C187.8,84.3,173.9,66.8,161.1,48.5z"/>
		<path id="Path_14752_1_" class="st3" d="M179,146.1c-41.6,5.1-50.2,23.6-67.5,31.5c-12,5.4-24.8-10.6-24.8-10.6l0.4,2.9
			c9.2,13.5,18.2,16.7,29.8,11.4c17.1-7.9,23.3-20.1,56.1-27.7c22.6-5.3,38.4-9.1,40.2-17.6l0-0.2c1.1-6.9,1.5-13.8,1.3-20.8
			C214.7,136.1,204.7,142.6,179,146.1z"/>
	</g>
	<path class="st3" d="M79.1,150c-0.6,1-1.3,2-1.9,3.1c2.8,5.8,7.3,12.6,10.8,18l-1-4C87,167.1,82.9,159,79.1,150z"/>
</g>
<g id="game_quiz_item_bread_2_" transform="translate(-54.8 -26.746)">
	<path class="st0" d="M71.3,125.9c3.2,7.2,6.2,13.4,9.2,18.6c0.5-0.8,1.1-1.7,1.6-2.5c-2.8-5-5.6-10.8-8.6-17.7
		C58.7,90.7,41.9,82,50.8,78.3c9.9-4.3,10.9-3.6,33.6-12.5c24.8-9.8,43-16,50.9-19.7c12.5-5.7,17.2-10.4,24.4,0.6
		c0.1,0.2,0.3,0.4,0.4,0.6c0.7-0.7,1.4-1.5,2.1-2.2c0-0.1-0.1-0.1-0.1-0.2c-7.6-11.6-12.7-6.4-25.7-0.7
		c-8.4,3.7-27.3,10.2-53.6,20.6c-23.9,9.3-25.2,8.6-35.2,13.1c-1.9,0.9-2.6,1.9-2.5,3.1l0.1,1C46.8,90.8,59.7,99.2,71.3,125.9z"/>
	<path class="st0" d="M74.1,144.5c0.8,2,1.7,4,2.6,6c1.2-2,2.5-4,3.7-5.9c-2.9-5.2-5.9-11.4-9.2-18.6C59.7,99.2,46.4,87.7,45.1,81.8
		c0.4,2.4,1.6,10.3,3.3,19C48.7,106.3,62.2,117.4,74.1,144.5z"/>
	<path class="st2" d="M81.8,142.8c1.6-2.5,3.7-6.1,5.3-8.6c6.5-9.8,13.6-19.2,21.1-28.4c15.4-19,31.8-37.2,48.6-55.1
		c1.2-1.3,2.4-2.5,3.6-3.8c-0.1-0.2-0.3-0.4-0.4-0.6c-7.3-10.9-12-6.2-24.4-0.6c-7.9,3.7-26.1,9.9-50.9,19.7
		c-22.7,9-23.8,8-33.6,12.5c-10.2,4.8,7,13.1,21.8,46.8C75.8,131.6,79,137.9,81.8,142.8z"/>
	<path class="st3" d="M73.9,144.8c0.9,2,1.7,4.1,2.7,6.1c0.7-1.1,1.3-2.1,2-3.2c-2.9-6.9-6-13.9-8-18.5
		C59.1,103,50.3,112.4,45.8,84.8c0.5,3.4,0.9,9,2.4,16.3C48.5,106.6,62,117.6,73.9,144.8z"/>
</g>
</svg>
