<?xml version="1.0" encoding="utf-8"?>
<!-- Generator: Adobe Illustrator 25.2.1, SVG Export Plug-In . SVG Version: 6.00 Build 0)  -->
<svg version="1.1" id="Layer_3" xmlns="http://www.w3.org/2000/svg" xmlns:xlink="http://www.w3.org/1999/xlink" x="0px" y="0px"
	 viewBox="0 0 200 200" style="enable-background:new 0 0 200 200;" xml:space="preserve">
<style type="text/css">
	.st0{fill:#F59F04;}
	.st1{fill:#F5E7C6;}
	.st2{opacity:0.68;fill:#DB8A09;enable-background:new    ;}
</style>
<g id="game_quiz_item_bread" transform="translate(-54.8 -26.746)">
	<path id="Path_14748" class="st0" d="M210.7,149.8c32.1-7.5,50.1-12.3,32.4-32s-36.3-44-43.6-55.2c-7.3-10.9-12-6.2-24.4-0.6
		c-7.9,3.7-26.1,9.9-50.9,19.7c-22.7,9-23.7,8.3-33.6,12.5c-8.9,3.7,7.9,12.4,22.6,46s25.7,44.1,42.6,36.5
		C172.6,169,178.6,157,210.7,149.8z M247.6,118.3c4.8,5.4,7.2,9.7,7.4,13.1l0,0.2c0.3,10.1-16.4,14.5-41.5,20.2
		c-33.8,7.6-40.3,20.3-57.8,28.2c-11.8,5.4-21.1,2-30.5-11.6l0,0c-4.6-6.4-9-15.3-14.1-26.6c-11.7-26.7-24.7-38.3-26.2-44.1l0,0
		l-0.1-1c-0.1-1.2,0.6-2.3,2.5-3.1c10.1-4.5,11.4-3.9,35.2-13.1c26.3-10.4,45.1-16.9,53.6-20.6c13-5.7,18.1-10.9,25.7,0.7
		C209.5,72.4,228.9,97.9,247.6,118.3z"/>
	<path id="Path_14749" class="st0" d="M84.9,97.8c0.4,2.4,1.6,10.3,3.3,19l0,0c0.3,5.4,13.8,16.5,25.7,43.6
		c3.8,9,8.3,17.7,13.6,25.8l-2.3-17.9l0,0c-4.6-6.4-9-15.3-14.1-26.6C99.5,115.2,86.2,103.7,84.9,97.8z"/>
	<path id="Path_14750" class="st0" d="M213.6,151.8c-33.8,7.6-40.3,20.3-57.5,28.5c-11.8,5.4-21.1,2-30.5-11.6l2.3,17.9
		c9.2,13.5,18.2,16.7,29.8,11.4c17.1-7.9,23.3-20.1,56.1-27.7c22.6-5.3,38.4-9.1,40.2-17.6l0-0.2c1.2-6.9,1.7-13.8,1.3-20.8
		C255.4,141.7,238.6,145.9,213.6,151.8z"/>
	<path id="Path_14751" class="st1" d="M199.7,62.3c-7.3-10.9-12-6.2-24.4-0.6c-7.9,3.7-26.1,9.9-50.9,19.7
		c-22.7,9-23.7,8.3-33.6,12.5c-8.9,3.7,7.9,12.4,22.6,46s25.7,44.1,42.6,36.5c16.6-7.6,22.5-19.6,54.9-27.1
		c32.1-7.5,50.1-12.3,32.4-32C227.6,100.2,213,81.7,199.7,62.3z"/>
	<path id="Path_14752" class="st2" d="M219.6,162.8c-41.6,5.1-50.2,23.6-67.5,31.5c-12,5.4-24.8-10.6-24.8-10.6l0.4,2.9
		c9.2,13.5,18.2,16.7,29.8,11.4c17.1-7.9,23.3-20.1,56.1-27.7c22.6-5.3,38.4-9.1,40.2-17.6l0-0.2c1.1-6.9,1.5-13.8,1.3-20.8
		C255.3,152.8,245.3,159.3,219.6,162.8z"/>
	<path id="Path_14753" class="st2" d="M84.7,98.1c0.4,2.4,1.6,10.3,3.3,19l0,0c0.3,5.4,13.8,16.5,25.7,43.6
		c3.8,9,8.3,17.7,13.6,25.8l-0.4-2.9c0,0-11.4-27.2-16.5-38.5C98.7,118.5,89.1,127.7,84.7,98.1z"/>
</g>
</svg>
