<?xml version="1.0" encoding="utf-8"?>
<!-- Generator: Adobe Illustrator 25.2.1, SVG Export Plug-In . SVG Version: 6.00 Build 0)  -->
<svg version="1.1" id="Layer_3" xmlns="http://www.w3.org/2000/svg" xmlns:xlink="http://www.w3.org/1999/xlink" x="0px" y="0px"
	 viewBox="0 0 200 200" style="enable-background:new 0 0 200 200;" xml:space="preserve">
<style type="text/css">
	.st0{fill:#8FCC76;}
	.st1{fill:#6FAF58;}
	.st2{fill:#236E09;}
	.st3{fill:#2E7C11;}
	.st4{fill:#379311;}
	.st5{fill:#1A5103;}
	.st6{fill:#206307;}
	.st7{fill:#30890B;}
	.st8{fill:#247F03;}
	.st9{fill:#1F6300;}
	.st10{fill:#217000;}
	.st11{fill:#2E8C07;}
	.st12{fill:#2A7F03;}
	.st13{opacity:0.47;fill:#23600A;enable-background:new    ;}
</style>
<g>
	<g id="Layer_3_1_">
		<g>
			<g>
				<path class="st0" d="M80.8,94.6l-13.3,25.1L73.8,94l-8.6-6.5L65,106l-4.8-21.5l-9.8-9.9c0,0,16.4,31.7,8.9,55.3
					c-3.8,11.6-8.9,19.3-11.3,22.3l10.8,5.3l30-61.6L80.8,94.6z"/>
			</g>
			<g>
				<path class="st1" d="M99.3,122.6l6.9-11.3l-4.1-2l-19.9,19.6l15.4-25.4l-6.8-6.2l-5.5,10.4l5.3-10.8l-1.8-0.2l-30,61.6l10.3,5.1
					c1.6-4,4.7-12.7,11.9-21.6c14.8-19.6,50.2-23.9,50.2-23.9l-13.4-2.7L99.3,122.6z"/>
			</g>
		</g>
	</g>
	<g id="Layer_2_00000057844967789567610920000011228231218298491779_">
		<g>
			<g>
				<path class="st2" d="M84.2,102l0.4-0.1c0,0-0.1-0.4-0.3-0.8L84.2,102z"/>
			</g>
			<g>
				<path class="st2" d="M85.3,87.5c-4.6,0.3-9.1-0.3-13.4-2.7c-3.6-1.8-6.1-3.9-8.3-6.6c-4.1,0.5-8.2-0.2-12.1-1.5
					c-0.2,9.5,4.9,19.3,14.1,23.9c6.2,3,12.7,3.4,18.9,1.3l0.3-0.5C83.6,96.6,83.7,91.9,85.3,87.5z"/>
			</g>
			<g>
				<path class="st3" d="M37.5,41.6c-6,12.7-0.9,27.7,11.6,34.2c0.5,0.3,1.4,0.4,2.1,1c4,1.6,8,2,12.1,1.5c-4.1-4.6-6-11.3-6-17.7
					c0.1-3.5,0.7-6.7,2.6-9.9c0.3-0.5,0.5-1,0.8-1.5c-1.4-5.5-1-11.7,2-17c0.8-1.5,1.9-3.2,2.8-4.4C54.7,25.4,42.8,30.8,37.5,41.6z"
					/>
			</g>
			<g>
				<path class="st4" d="M96.8,20.6c-10.8-5.3-24.3-2-31.4,7.2c-0.9,1.2-2,2.8-2.8,4.4c-2.8,5.7-3.4,11.4-2,17
					c3.9-7.3,11-11.9,19.3-12.6c2.8-0.5,5.9-0.3,8.7,0.5c3-6.2,8-10.4,13.8-12.4C101,23,99,22,96.8,20.6z"/>
			</g>
			<g>
				<path class="st2" d="M85.3,87.5c-1.5,4.4-1.6,9.1-0.6,13.5l6.8-13.9c-0.1-0.4-0.1-0.4-0.3-0.8C89.4,86.9,87.3,87.2,85.3,87.5z"
					/>
			</g>
			<g>
				<path class="st5" d="M134.6,92.6c0.7,4.5-0.2,9.5-2.5,14.1c-1.8,3.6-3.9,6.1-6.6,8.3c0.5,0.3,1.2,0.9,2.1,1
					c12.5,6.5,27.9,1.2,34.2-11.6c5.3-10.8,2.3-23.5-6.5-30.4c-0.2,1.8-1,3.3-1.8,4.9C149.7,86.6,142.4,91.6,134.6,92.6z"/>
			</g>
			<g>
				<path class="st6" d="M134.2,92.7c-4.8,5.9-11.9,9.2-19.4,9.6c-3.8,0-8-0.7-11.6-2.5c-3.1-1.5-5.4-3.3-7.5-5.6
					c-2.1-2.3-3.6-4.3-4.5-7l-6.7,14.3c0,0,0.1,0.4,0.3,0.8c2,7,6.5,12.8,13.3,16.5c9.3,4.6,19.9,3.1,27.2-3.2
					c2.7-2.2,4.7-5,6.6-8.3C134.4,102.1,135.4,97.4,134.2,92.7C134.6,92.6,134.6,92.6,134.2,92.7z"/>
			</g>
			<g>
				<path class="st7" d="M79.9,36.6c-7.8,0.9-15,5.1-19.3,12.6c-0.3,0.5-0.5,1-0.8,1.5c-1.5,3.1-2.4,6.8-2.6,9.9
					c-0.5,6.2,1.7,12.7,6,17.7c2.2,2.7,5.2,5.1,8.3,6.6c4.1,2,9.1,2.9,13.4,2.7c2.1-0.3,4.1-0.5,6-1.2c-0.5-1.5-1-3.1-1.6-4.6
					c-0.3-0.8-0.4-1.2-0.3-2.1c-0.4-3.7,0.1-7.3,1-11c0.5-1,0.9-2.4,1.4-3.5l0,0c-2.8-3.3-4.5-7-5.5-11c-0.7-3.2-0.9-6.5-0.3-9.8
					c0.5-2.3,1-4.6,2-6.7l0,0C85.8,36.3,82.9,36.4,79.9,36.6z"/>
			</g>
			<g>
				<path class="st8" d="M91.3,86.3c0.1,0.4,0.1,0.4,0.3,0.8l0.5-1C92.1,86,91.7,86.2,91.3,86.3z"/>
			</g>
			<g>
				<path class="st8" d="M98.9,72.1c0.4-0.1,0.8-0.3,1.2-0.4l-0.5-0.3L98.9,72.1z"/>
			</g>
			<g>
				<path class="st8" d="M94.4,67.7C93.7,67,93,66,91.9,65.5l0,0c-0.5,1-0.9,2.4-1.4,3.5c-1.4,3.5-1.4,7.3-1,11
					c0.3,0.8,0.4,1.2,0.3,2.1c0.5,1.5,1,3.1,1.6,4.6c0.4-0.1,0.8-0.3,0.8-0.3l1-2.1l5.4-11.7l0.5-1C97.3,70.1,95.7,68.9,94.4,67.7z"
					/>
			</g>
			<g>
				<path class="st9" d="M141.8,44.7c-2.1-1-4-1.6-5.8-1.9c1.4,5.5,1.1,12.1-1.7,17.7l0,0c1.7,2.4,3.4,4.9,4.3,7.5
					c2.2,6.5,2.1,13.8-0.9,20c-0.8,1.5-1.9,3.2-2.8,4.4l0,0c7.7-1.3,15.1-6,18.8-14.1c0.8-1.5,1.4-3.5,1.8-4.9
					C158.1,62.3,152.7,50,141.8,44.7z"/>
			</g>
			<g>
				<path class="st8" d="M134.6,92.6L134.6,92.6L134.6,92.6L134.6,92.6z"/>
			</g>
			<g>
				<path class="st10" d="M134.2,60.1c-1,2.1-2.5,3.9-4.1,5.7c-2.4,3-6,5-9.3,6.6c-4.6,1.6-9.9,2.5-14.6,1.1l-0.4,0.1
					c-1.4-0.4-2.8-0.8-4-1.6c-0.5-0.3-0.9-0.1-1-0.5l0,0c-0.4,0.1-0.8,0.3-1.2,0.4l-5.4,11.7l-1,2.1l-1.7,1.4c0.9,2.7,2.6,5.1,4.5,7
					c2.1,2.3,4.4,4.1,7.5,5.6c3.6,1.8,7.7,2.5,11.6,2.5c7.3,0.1,14.7-3.3,19.4-9.6c0,0,0,0,0.4-0.1c1.3-1.3,2-2.8,2.8-4.4
					c3.3-6.7,3.5-13.6,0.9-20C137.6,65,135.9,62.5,134.2,60.1z"/>
			</g>
			<g>
				<path class="st11" d="M102.8,24.5c-5.8,2-11.1,6.4-13.8,12.4l0,0c-1,2.1-1.5,4.4-2,6.7c-0.6,3.2-0.7,6.7,0.3,9.8
					c0.9,4,2.7,8.1,5.5,11c0.8,1,1.4,1.7,2.5,2.2c1.4,1.7,3.4,2.3,5.2,3.8l1.3-2.6l3.8-7.7l3-6.2l1.8-3.6l1.8-3.6l4.7-10.2l5.2-11.2
					C115.5,22.8,108.6,22.5,102.8,24.5z"/>
			</g>
			<g>
				<path class="st12" d="M122.6,25.9c0,0-0.5-0.3-1-0.5l-6.1,12.4l-4.7,10.2l-1.8,3.6l-1.8,3.6l-3,6.2l-3.8,7.7l-1.3,2.6l0.5,0.3
					l0,0c0.5,0.3,0.9,0.1,1,0.5c1.4,0.4,3,1.1,4,1.6c0,0,0.4-0.1,0.5,0.3c5.1,1.3,10,0.5,14.6-1.1c3.5-1.2,6.9-3.6,9.3-6.6
					c1.5-1.8,2.7-3.5,4.1-5.7l0,0c2.8-5.7,3.3-11.8,1.7-17.7C134,35.3,129.4,29.6,122.6,25.9z"/>
			</g>
			<g>
				<path class="st12" d="M106.1,73.1c0.5-1,1-2.1,1.1-3c-0.4,0.1-1.2,0.4-1.7,0.1C105.8,71.1,105.7,72,106.1,73.1z"/>
			</g>
		</g>
	</g>
	<g id="Layer_4_1_">
		<path class="st3" d="M56.4,97.3c-12.5,7.3-15.1-19.3-6.5-19.2c-52.9-19.3,4.5-66.2,15-50.5C64,3.4,106.8-3,102.8,24.5
			c12.9-23.7,43.4-3.6,33.1,17.9c8.6-13.7,42.2,13.1,19.7,31.4c22.9,4.2,13.6,61.4-29.6,41.4c-7.5,12-44,16.7-41.4-13.4
			C81.5,116.6,51.7,112.2,56.4,97.3z"/>
		<path class="st13" d="M155.6,73.8c22.9,4.2,13.6,61.4-29.6,41.4c-7.5,12-44,16.7-41.4-13.4c-0.1,12.4,23.5,21.2,37.1,4.5
			c0.6-0.6,1.8-1,2.7-0.9C147.2,109.7,172.7,89.9,155.6,73.8z"/>
		<path class="st13" d="M78,58.7c-3.6-3.1-6.2-14.6,7.6-20.6c10-4.7,22.6,0.9,20.1,8.6c-0.2-8.1-13.7-9.9-21-6.2
			C77.4,44.3,74.3,52.6,78,58.7z"/>
		<path class="st13" d="M55.4,57.8c-3.1-2.8-5.7-13.1,4-17.2c7-3.3,17.1,2.3,16,9.1c-0.7-7.1-11-9.6-16.5-6.8
			C53.8,45.5,52.3,52.4,55.4,57.8z"/>
		<path class="st13" d="M102.8,24.5c12.9-23.7,43.4-3.6,33.1,17.9c8.6-13.7,42.2,13.1,19.7,31.4c-1.5,0.5-11.6,6.1-11.4,5.6
			s7.7-6.5,10.1-12c5.4-14.3-7.6-31.3-23.2-17.8c-1.3,0-3,0.1-2.6-1.3C137,27.9,117.1,13.6,102.8,24.5z"/>
		<path class="st13" d="M120.4,64.8c3,3.7,3.8,15-10.5,19.4c-10.5,3.1-22.1-4.5-18.5-11.7c-1.1,8.1,11.7,11.9,19.8,9.1
			C119.2,78.9,122.9,70.8,120.4,64.8z"/>
	</g>
</g>
</svg>
