<?xml version="1.0" encoding="utf-8"?>
<!-- Generator: Adobe Illustrator 25.2.1, SVG Export Plug-In . SVG Version: 6.00 Build 0)  -->
<svg version="1.1" id="Layer_2" xmlns="http://www.w3.org/2000/svg" xmlns:xlink="http://www.w3.org/1999/xlink" x="0px" y="0px"
	 viewBox="0 0 200 200" style="enable-background:new 0 0 200 200;" xml:space="preserve">
<style type="text/css">
	.st0{fill:#8FCC76;}
	.st1{fill:#6FAF58;}
	.st2{fill:#236E09;}
	.st3{fill:#2E7C11;}
	.st4{fill:#379311;}
	.st5{fill:#1A5103;}
	.st6{fill:#206307;}
	.st7{fill:#30890B;}
	.st8{fill:#247F03;}
	.st9{fill:#1F6300;}
	.st10{fill:#217000;}
	.st11{fill:#2E8C07;}
	.st12{fill:#2A7F03;}
	.st13{fill:#368C09;}
	.st14{opacity:0.47;fill:#23600A;enable-background:new    ;}
	.st15{fill:#4B8C30;}
</style>
<g>
	<g id="Layer_3_6_">
		<g>
			<g>
				<path class="st0" d="M40.3,59.3l9.1,8.6L39,62.1l-3.4,3.2l7.8,2.2l-9.7-0.5l-5,3.1c0,0,15.3-3.3,24.6,2.7c4.5,3,7.2,6.1,8.1,7.5
					l3.5-4l-22.8-20L40.3,59.3z"/>
			</g>
			<g>
				<path class="st1" d="M54.4,54.8l-4.2-4.3l-1.2,1.2l6,10.8l-9.1-9.4l-3.6,2.4l3.7,3.7l-4-3.5l-0.3,0.5l22.8,20l3.5-3.7
					c-1.5-1.2-4.7-3.5-7.9-7.5C53.7,56.6,56,40.9,56,40.9l-2.8,5.3L54.4,54.8z"/>
			</g>
		</g>
	</g>
	<g id="Layer_2_6_">
		<g>
			<g>
				<path class="st2" d="M44,58.8C44.1,58.5,44.1,58.5,44,58.8c0-0.3-0.2-0.3-0.2-0.3L44,58.8z"/>
			</g>
			<g>
				<path class="st2" d="M37.8,56.7c-0.4,1.8-1.1,3.9-2.8,5.3c-1.2,1.2-2.5,2.2-3.9,2.9c-0.1,1.8-1.1,3.4-2,4.9
					c4.1,1.4,8.7,0.1,11.9-3.3c2-2.2,3-5.1,2.7-7.7l-0.2-0.3C41.7,58.3,39.6,57.6,37.8,56.7z"/>
			</g>
			<g>
				<path class="st3" d="M12.9,71.4c4.7,4.1,11.6,3.5,15.9-0.9c0.3-0.2,0.3-0.5,0.6-0.7c1.2-1.5,1.8-3.3,2-4.9
					c-2.5,1.1-5.4,1.2-8.2,0.4c-1.6-0.4-2.8-1.3-3.8-2.1c-0.2-0.3-0.2-0.3-0.5-0.6c-2.6-0.2-5-0.9-6.9-2.9c-0.5-0.6-1-1.1-1.5-1.7
					C8.1,62.6,8.9,68.2,12.9,71.4z"/>
			</g>
			<g>
				<path class="st4" d="M10.8,44c-3.5,4-3.7,10-0.6,14.2c0.5,0.6,1,1.1,1.5,1.7c2,1.7,4.5,2.7,6.9,2.9c-2.7-2.6-3.8-6.1-3.2-9.5
					c0.1-1.3,0.7-2.6,1.3-3.6c-2.2-2-3.4-4.5-3.7-7.4C12.5,42.3,11.7,43,10.8,44z"/>
			</g>
			<g>
				<path class="st2" d="M37.8,56.7c1.8,1.2,3.8,1.9,5.7,1.8l-5.2-4.6c-0.3,0-0.3,0-0.5,0C38.3,54.9,38.2,55.7,37.8,56.7z"/>
			</g>
			<g>
				<path class="st5" d="M45.8,36.2c2.1,0.4,3.9,1.1,5.6,2.5c1.2,1.2,2.2,2.3,2.9,3.7c0.3-0.2,0.6-0.5,0.6-0.7
					C58.9,36.9,58.7,30,54,26c-4-3.5-9.8-3.7-13.7-0.8c0.8,0.3,1.3,0.9,1.8,1.2C45,29.2,46.3,32.8,45.8,36.2z"/>
			</g>
			<g>
				<path class="st6" d="M45.8,36.4c1.9,2.8,2.4,6,1.7,9.4c-0.4,1.6-1.3,3.3-2.5,4.6c-0.9,1-2,2-3.1,2.4c-1.1,0.4-2.2,0.9-3.5,1
					l5.2,4.6l0.3,0c3.2,0,6.2-1.1,8.5-3.8c3.2-3.5,3.5-8.2,2-12c-0.7-1.4-1.6-2.8-2.9-3.7C49.9,37.3,47.9,36.6,45.8,36.4
					C45.8,36.2,45.8,36.2,45.8,36.4z"/>
			</g>
			<g>
				<path class="st7" d="M15.7,52.9c-0.5,3.4,0.5,6.9,3.2,9.5c0.2,0.3,0.2,0.3,0.5,0.6c1.2,1.2,2.5,1.8,3.8,2.1
					c2.6,0.7,5.5,0.7,8.2-0.4c1.4-0.7,2.8-1.6,3.9-2.9c1.4-1.5,2.4-3.5,2.8-5.3c0.3-0.8,0.1-1.8,0.2-2.6C37.5,54,37,54,36.2,53.9
					c-0.3,0-0.5,0-1.1-0.1c-1.6-0.1-3.1-0.8-4.6-1.7c-0.5-0.3-0.7-0.6-1.3-0.9l0,0c-1.6,0.7-3.5,1-5.4,0.9c-1.3-0.1-2.9-0.5-4.1-1.1
					c-1-0.3-1.8-0.9-2.5-1.8l0,0C16.4,50.5,16,51.8,15.7,52.9z"/>
			</g>
			<g>
				<path class="st8" d="M38,54.1c0.3,0,0.3,0,0.5,0l-0.5-0.6C38.1,53.5,38.1,53.8,38,54.1z"/>
			</g>
			<g>
				<path class="st8" d="M32.9,48.9c0-0.3,0-0.3,0-0.5l-0.3,0.2L32.9,48.9z"/>
			</g>
			<g>
				<path class="st8" d="M30.7,50.6c-0.3,0.2-0.8,0.5-1.4,0.7l0,0c0.5,0.3,1,0.6,1.3,0.9c1.5,0.9,3.1,1.6,4.6,1.7
					c0.3,0,0.5,0,1.1,0.1c0.8,0.1,1.3,0.1,2.1-0.1c0-0.3,0-0.3,0-0.5l-0.7-0.6l-4.5-3.5l-0.2-0.3C32.1,49.4,31.2,50.1,30.7,50.6z"/>
			</g>
			<g>
				<path class="st9" d="M26.3,27.8c-0.6,0.7-1.2,1.5-1.5,2.3c2.6-0.1,5.2,0.9,7.5,2.7l0,0c1.1-0.4,2.4-0.9,3.8-1
					c2.9-0.3,6,0.7,8.5,2.8c0.5,0.6,1.2,1.2,1.7,1.7l0,0c0.3-3.4-0.8-7.2-3.8-9.5c-0.5-0.6-1.3-0.9-1.8-1.2
					C35.7,22.7,29.8,23.6,26.3,27.8z"/>
			</g>
			<g>
				<path class="st8" d="M45.8,36.2L45.8,36.2C45.8,36.4,45.8,36.2,45.8,36.2L45.8,36.2z"/>
			</g>
			<g>
				<path class="st10" d="M32,32.7c0.7,0.6,1.5,1.4,1.9,2.3c0.9,1.4,1.6,3,1.8,4.6c0.1,2.1-0.1,4.5-1.3,6.5l0,0.3
					c-0.3,0.5-0.6,1-1.2,1.5c-0.3,0.2-0.3,0.2-0.3,0.5l0,0c0,0.3,0,0.3,0,0.5l4.2,3.8l0.7,0.6l0.5,0.3c1.3-0.2,2.4-0.6,3.5-1
					c1.1-0.4,2.2-1.4,3.1-2.4c1.2-1.2,2.1-3,2.5-4.6c0.8-3.1,0.2-6.6-1.7-9.4c0,0,0,0,0-0.3c-0.5-0.6-1-1.1-1.7-1.7
					c-2.5-2-5.3-3.1-8.5-2.8C34.5,31.9,33.1,32,32,32.7z"/>
			</g>
			<g>
				<path class="st11" d="M13.4,41.9c0.3,2.7,1.4,5.4,3.7,7.4l0,0c0.7,0.6,1.8,1.2,2.5,1.8c1.3,0.6,2.8,1,4.1,1.1
					c1.8,0.1,3.7-0.2,5.4-0.9c0.5-0.2,0.8-0.5,1.4-0.7c0.8-0.5,1.4-1.2,2.2-1.7l-1-0.9l-3-2.6l-2.2-2l-1.2-1.2L24,41.1l-3.7-3.2
					l-4.4-4C14,36.4,13,39.2,13.4,41.9z"/>
			</g>
			<g>
				<path class="st12" d="M16.1,33.6c0,0,0,0.3-0.3,0.2l4.7,4.1l3.7,3.2l1.2,1.2l1.2,1.2l2.2,2l3,2.6l1,0.9l0.3-0.2l0,0
					c0.3-0.2,0.3-0.2,0.3-0.5c0.3-0.5,0.9-1,1.2-1.5l0-0.3c1-2,1.4-4.4,1.3-6.5c-0.1-1.6-0.8-3.2-1.8-4.6c-0.5-0.8-1.2-1.7-1.9-2.3
					l0,0c-2.2-1.8-4.8-2.7-7.5-2.7C21.4,29.8,18.4,31.1,16.1,33.6z"/>
			</g>
			<g>
				<path class="st12" d="M34.2,46.1c-0.2-0.3-0.7-0.6-1.3-0.9c0,0.3,0,0.5-0.1,0.8C33.4,46,33.6,46.1,34.2,46.1z"/>
			</g>
		</g>
	</g>
	<g id="Layer_4_7_">
		<path class="st13" d="M38.7,70c1.6,6.2-9.8,4.3-9,0.6C15.4,90.9,2.1,61.1,10,58.5c-10.4-2.4-8.1-21.2,3.1-16.4
			C4.5,33.8,16.4,23.3,24.6,30c-4.9-5.1,10.5-16.4,15.7-4.6c4.4-9.2,27.6,1.3,14,17.2c4.4,4.6,2.1,20.5-10.5,16.1
			C49.9,61.6,44.5,73.6,38.7,70z"/>
		<path class="st14" d="M40.3,25.2c4.4-9.2,27.6,1.3,14,17.2c4.4,4.6,2.1,20.5-10.5,16.1c5.4,1.5,11.7-7.6,6.2-15.1
			c-0.2-0.3-0.2-0.8-0.2-1.3C54.7,32.9,49.2,19.8,40.3,25.2z"/>
		<path class="st14" d="M24.9,56.5c-1.7,1.2-6.9,0.8-8-5.6c-0.7-4.8,2.9-9.6,6.1-7.5c-3.4-0.8-5.9,4.6-5.1,8.3
			C18.6,55.5,21.9,57.3,24.9,56.5z"/>
		<path class="st14" d="M21.8,65.8c-1.7,0.9-6.1,0.8-6.9-3.7c-0.5-3.5,2.9-6.9,5.7-5.6c-3.1-0.5-5.3,3.6-4.7,6.2
			C16.3,65.1,19.1,66.6,21.8,65.8z"/>
		<path class="st14" d="M13.4,41.9c-8.6-8.3,3.3-18.8,11.5-12.1c-4.9-5.1,10.5-16.4,15.7-4.6c-0.1,0.8,1.2,5.6,0.9,5.6
			c-0.3,0-1.8-4.1-4.1-5.6c-5.5-3.9-14-0.3-10.4,7.7c0,0.5-0.4,1.3-0.9,1C18.7,27.7,10.5,34.5,13.4,41.9z"/>
		<path class="st14" d="M32.3,39.1c1.9-0.9,6.9,0.3,6.9,6.6c0.2,4.8-4.4,8.9-7.1,6.3c3.3,1.3,6.4-3.7,6.1-7.2
			C38,41.4,35.3,38.8,32.3,39.1z"/>
	</g>
</g>
<g>
	<g id="Layer_3_5_">
		<g>
			<g>
				<path class="st0" d="M137.3,98.8l-8.8,6l6.5-7.4l-1.8-3.6l-3.2,6.1l2.2-7.9l-1.5-4.9c0,0-0.3,13.1-6.8,19.6
					c-3.2,3.1-6.4,4.8-7.6,5.4l2.6,3.8l20.6-14.9L137.3,98.8z"/>
			</g>
			<g>
				<path class="st1" d="M138.4,111l4.3-2.5l-0.9-1.3l-10,2.9l9.6-5.6l-1.3-3.3l-3.7,2.3l3.6-2.5l-0.3-0.4L119,115.7l2.5,3.4
					c1.3-1.1,3.8-3.3,7.7-5c8.1-3.7,20.5,1,20.5,1l-4-3.1L138.4,111z"/>
			</g>
		</g>
	</g>
	<g id="Layer_2_4_">
		<g>
			<g>
				<path class="st2" d="M137.3,101.8L137.3,101.8c0.2-0.1,0.2-0.1,0.1-0.3L137.3,101.8z"/>
			</g>
			<g>
				<path class="st2" d="M140,97.2c-1.6-0.7-2.8-1.7-4-3.1c-0.8-1.1-1.2-2.4-1.6-3.7c-1.3-0.5-2.8-1.4-3.6-2.6
					c-1.8,3.1-1.7,7,0.5,10.3c1.4,2.1,3.6,3.3,5.8,3.7l0.2-0.1C137.9,100,138.8,98.5,140,97.2z"/>
			</g>
			<g>
				<path class="st3" d="M132.7,73.8c-4.2,2.9-5.1,8.8-2.1,13.2c0.1,0.2,0.3,0.4,0.5,0.8c1,1.1,2.3,2.1,3.6,2.6
					c-0.5-2.2-0.1-4.6,1.2-6.6c0.6-1.1,1.4-2.1,2.6-2.7c0.2-0.1,0.4-0.3,0.6-0.4c0.5-2,1.8-3.8,3.7-5.1c0.6-0.4,1.2-0.6,1.6-1
					C141,71.6,136,71.4,132.7,73.8z"/>
			</g>
			<g>
				<path class="st4" d="M155.6,77.5c-2.6-3.8-7.3-4.9-11.4-3.1c-0.6,0.2-1.2,0.6-1.6,1c-1.9,1.3-3.2,3.1-3.7,5.1
					c2.5-1.5,5.7-1.8,8.3-0.8c1,0.4,1.9,1,2.8,1.7c2.1-1.4,4.5-1.9,6.7-1.6C156.4,79.1,156.1,78.3,155.6,77.5z"/>
			</g>
			<g>
				<path class="st2" d="M140,97.2c-1.3,1.1-2.1,2.8-2.6,4.3l4.7-3.4c-0.1-0.2-0.1-0.2,0.1-0.3C141.6,97.7,140.8,97.5,140,97.2z"/>
			</g>
			<g>
				<path class="st5" d="M155.1,107.6c-0.7,1.6-1.8,3.1-3.4,4.1c-0.9,1-2.1,1.4-3.4,1.8c0.1,0.2,0.3,0.4,0.5,0.8
					c2.9,4.2,8.9,5.3,13,2.2c3.6-2.5,4.9-7.1,3.3-11c-0.5,0.6-0.9,1-1.5,1.2C161.1,108.2,158,108.5,155.1,107.6z"/>
			</g>
			<g>
				<path class="st6" d="M155.1,107.6c-2.7,1.1-5.5,1-8-0.3c-1.1-0.6-2.4-1.6-3.2-2.9c-0.8-0.9-1.1-2-1.4-3c-0.3-1.1-0.4-2-0.2-2.9
					l-4.7,3.4c0,0,0.1,0.2-0.1,0.3c-0.6,2.5-0.2,5.4,1.5,7.7c2.1,3,6,4.4,9.3,3.8c1.3-0.4,2.5-0.8,3.7-1.6
					C153.5,110.6,154.5,109.4,155.1,107.6L155.1,107.6z"/>
			</g>
			<g>
				<path class="st7" d="M147.3,79.9c-2.6-1-5.9-0.9-8.3,0.8c-0.2,0.1-0.4,0.3-0.6,0.4c-1.1,0.8-2,1.8-2.6,2.7
					c-1.2,2-1.6,4.5-1.2,6.6c0.2,1.3,0.8,2.5,1.6,3.7c1,1.6,2.4,2.5,4,3.1c0.6,0.3,1.3,0.5,2.1,0.7c0-0.7,0.1-1.2,0.4-1.7
					c0.1-0.3,0.1-0.5,0.2-0.8c0.5-1.3,1.3-2.5,2.2-3.3c0.4-0.3,0.7-0.7,1.1-0.8l0,0c-0.3-1.5-0.3-3.2,0.2-4.5c0.4-1,0.9-2.4,1.7-3.3
					c0.5-0.6,1.2-1.3,2-1.8l0,0C149.2,80.7,148.2,80.3,147.3,79.9z"/>
			</g>
			<g>
				<path class="st8" d="M142.1,98c0.1,0.2,0.1,0.2-0.1,0.3l0.4-0.3C142.3,97.9,142.3,97.9,142.1,98z"/>
			</g>
			<g>
				<path class="st8" d="M147.1,94.6c0.2-0.1,0.3,0.1,0.5,0.1l-0.1-0.2L147.1,94.6z"/>
			</g>
			<g>
				<path class="st8" d="M146.4,92.4c-0.1-0.4-0.3-0.8-0.4-1.3l0,0c-0.4,0.3-0.7,0.7-1.1,0.8c-1.1,1-1.9,2.2-2.2,3.3
					c-0.1,0.3-0.1,0.5-0.2,0.8c-0.3,0.6-0.3,1.3-0.4,1.7c0.2-0.1,0.3,0.1,0.3,0.1l0.8-0.5l4-2.9l0.2-0.1
					C147.1,93.9,146.6,93.1,146.4,92.4z"/>
			</g>
			<g>
				<path class="st9" d="M165.9,93.2c-0.4-0.6-1.1-1.3-1.4-1.6c-0.5,2-1.7,4-3.6,5.5l0,0c0.1,1.1,0.2,2.2,0.1,3.2
					c-0.4,2.4-1.7,4.9-3.8,6.3c-0.6,0.4-1.1,0.8-1.8,1l0,0c2.9,1,6,0.7,8.6-1.3c0.6-0.4,0.9-0.8,1.5-1.2
					C168.2,101.8,168.5,96.9,165.9,93.2z"/>
			</g>
			<g>
				<path class="st8" d="M155.1,107.6L155.1,107.6L155.1,107.6L155.1,107.6z"/>
			</g>
			<g>
				<path class="st10" d="M160.6,97c-0.8,0.5-1.6,1-2.2,1.2c-1.5,0.5-2.8,0.7-4.3,0.4c-1.7-0.2-3.6-1-5.1-2.1c0,0-0.1-0.2-0.3-0.1
					c-0.3-0.4-0.7-0.7-1.1-1.3c-0.1-0.2-0.3-0.1-0.3-0.4l0,0c-0.2,0.1-0.3-0.1-0.5-0.1l-4,2.9l-0.8,0.5l0.1,0.2
					c-0.2,1,0,2.1,0.2,2.9c0.3,1.1,0.7,2.1,1.4,3c0.9,1.3,2.1,2.1,3.2,2.9c2.5,1.3,5.4,1.6,8,0.3c0,0,0,0,0.2-0.1
					c0.6-0.2,1.2-0.6,1.8-1c2.1-1.6,3.4-3.9,3.8-6.3C161.1,99.2,161,98.1,160.6,97z"/>
			</g>
			<g>
				<path class="st11" d="M156.8,79.9c-2.2-0.2-4.6,0.1-6.7,1.6l0,0c-0.8,0.5-1.3,1.1-2,1.8c-0.9,1-1.4,2.1-1.7,3.3
					c-0.4,1.5-0.5,2.9-0.2,4.5c0.1,0.4,0.3,0.8,0.4,1.3c0.3,0.8,0.7,1.4,0.9,2l0.8-0.5l2.6-2l2.1-1.4l1.1-0.8l1.1-0.8l3.4-2.5
					l4.2-2.9C161.1,81.6,159.1,80.3,156.8,79.9z"/>
			</g>
			<g>
				<path class="st12" d="M162.9,83.7c0,0-0.3-0.1-0.3-0.4l-4.2,2.9l-3.4,2.5l-1.1,0.8l-1.1,0.8l-2.1,1.4l-2.6,2l-0.8,0.5l0.1,0.2
					l0,0c0.1,0.2,0.3,0.1,0.3,0.4c0.3,0.4,0.8,0.9,1.1,1.3c0,0,0.1,0.2,0.3,0.1c1.3,1.2,3.2,2,5.1,2.1c1.5,0.2,2.8,0,4.3-0.4
					c0.8-0.3,1.4-0.7,2.2-1.2l0,0c1.9-1.3,3.1-3.3,3.6-5.5C165,88.9,164.6,86,162.9,83.7z"/>
			</g>
			<g>
				<path class="st12" d="M149.2,96.2c0.4-0.3,0.8-0.5,0.9-0.8c-0.3-0.1-0.5-0.1-0.6-0.3C149.4,95.4,149.4,95.9,149.2,96.2z"/>
			</g>
		</g>
	</g>
	<g id="Layer_4_5_">
		<path class="st15" d="M129,95.4c-5.3,0.1-1.7-9,1.4-7.4c-14-15.5,13-20.6,13.7-13.8c4-8,18.9-2.5,12.9,5.7
			c8.3-5.4,14.8,6.5,7.6,11.5c5.1-3,11.4,11.7,0.8,13.7c6.8,5.3-6.4,22.4-16.9,8.3c-4.5,2.6-17.2-2.2-11.1-11.6
			C133.7,106,125,99.4,129,95.4z"/>
		<path class="st14" d="M165.2,105.1c6.8,5.3-6.4,22.4-16.9,8.3c-4.5,2.6-17.2-2.2-11.1-11.6c-2.2,4.2,4,11,11.1,8.1
			c0.4-0.1,0.9-0.1,1.2,0.1C156.2,115.3,168.1,113.2,165.2,105.1z"/>
		<path class="st14" d="M142.7,86.6c-0.5-1.7,0.5-5.7,6.2-5.4c4.1,0.3,7.1,4.2,5,6.3c1.4-2.8-2.7-5.6-5.7-5.6
			C144.9,81.8,142.6,84.1,142.7,86.6z"/>
		<path class="st14" d="M135.6,82.4c-0.5-1.5,0.4-5.2,4.3-4.8c2.9,0.3,5.1,3.7,3.6,5.6c0.9-2.4-1.8-5-4.2-5.2
			C137.2,78,135.6,80.1,135.6,82.4z"/>
		<path class="st14" d="M156.8,79.9c8.3-5.4,14.8,6.5,7.6,11.5c5.1-3,11.4,11.7,0.8,13.7c-0.7,0-4.9-0.1-4.7-0.1
			c0.1-0.3,3.7-0.7,5.4-2.2c4.2-3.6,2.8-11.6-4.3-10c-0.3-0.1-1.1-0.6-0.7-0.7C167.4,87,163.5,78.9,156.8,79.9z"/>
		<path class="st14" d="M155.5,96.1c0.3,1.8-1.5,5.6-6.9,4.5c-4-0.8-6.6-5.4-3.9-7.1c-1.8,2.4,1.7,6,4.8,6.4
			C152.6,100.2,155.3,98.5,155.5,96.1z"/>
	</g>
</g>
<g>
	<g id="Layer_3_4_">
		<g>
			<g>
				<path class="st0" d="M105.8,33.3l-3.3,6.6l1.4-6.6l-2.4-1.5l0.2,4.6l-1.5-5.4l-2.7-2.4c0,0,4.5,8,2.7,14c-0.7,2.9-2,5.1-2.8,5.8
					l2.9,1.4l7.8-15.8L105.8,33.3z"/>
			</g>
			<g>
				<path class="st1" d="M110.7,40.4l1.6-3.2l-0.8-0.5l-4.7,5.3l3.7-6.7l-2-1.6l-1.2,2.6l1.2-2.6l-0.3-0.2l-7.3,16.1l2.6,1.2
					c0.2-1,1.3-3.3,2.8-5.8c3.4-5,12.6-6.5,12.6-6.5l-3.4-0.6L110.7,40.4z"/>
			</g>
		</g>
	</g>
	<g id="Layer_2_3_">
		<g>
			<g>
				<path class="st2" d="M106.9,35.1L106.9,35.1L106.9,35.1L106.9,35.1z"/>
			</g>
			<g>
				<path class="st2" d="M107,31.4c-1.1,0-2.3,0.1-3.4-0.6c-0.8-0.5-1.6-1-2.3-1.8c-0.9,0.2-2,0.3-3.1-0.4c-0.1,2.6,1.4,5,3.8,6
					c1.5,0.6,3.2,0.9,4.7,0.3l0.2-0.3C106.6,33.8,106.6,32.6,107,31.4z"/>
			</g>
			<g>
				<path class="st3" d="M94.3,20.3c-1.3,3.3,0.1,7.2,3.3,8.7c0.3,0.2,0.3,0.2,0.5,0.3c1,0.2,2,0.5,3.1,0.4
					c-1.2-1.1-1.6-2.9-1.8-4.4c0.1-0.7,0.3-1.7,0.5-2.7l0.2-0.3c-0.3-1.3-0.5-2.9,0.4-4.3c0.2-0.3,0.5-0.8,0.7-1.1
					C98.6,15.8,95.7,17.4,94.3,20.3z"/>
			</g>
			<g>
				<path class="st4" d="M109.3,14.1c-2.9-1.4-6.1-0.4-8.1,2.2c-0.2,0.3-0.5,0.8-0.7,1.1c-0.6,1.5-0.7,2.9-0.4,4.3
					c1.2-1.9,2.7-3.2,4.7-3.5c0.9-0.2,1.6-0.1,2.1,0.2c0.6-1.5,1.9-2.5,3.4-3.1C110.4,14.8,109.8,14.5,109.3,14.1z"/>
			</g>
			<g>
				<path class="st2" d="M107,31.4c-0.4,1.3-0.4,2.4,0.1,3.4l1.5-3.6c0,0,0,0-0.3-0.2C108.1,31.3,107.4,31.3,107,31.4z"/>
			</g>
			<g>
				<path class="st5" d="M119.5,32.3c0,1.1,0.1,2.3-0.3,3.5c-0.5,0.8-1,1.6-1.8,2.3c0.3,0.2,0.3,0.2,0.5,0.3c3.2,1.6,7,0.2,8.7-3.3
					c1.2-2.6,0.4-6.1-1.9-7.9c-0.2,0.3-0.2,1-0.4,1.3C123.5,30.7,121.5,32.1,119.5,32.3z"/>
			</g>
			<g>
				<path class="st6" d="M119.5,32.3c-1.3,1.5-2.9,2.3-4.9,2.6c-0.9,0.2-2.1-0.2-2.9-0.7c-0.8-0.5-1.4-0.8-1.9-1.2
					c-0.4-0.6-0.9-0.9-1.1-1.8l-1.5,3.6l0,0c0.4,1.8,1.7,3.3,3.5,4c2.3,1.1,5.2,0.6,6.9-1c0.8-0.6,1.3-1.5,1.8-2.3
					C119.8,34.8,119.8,33.6,119.5,32.3L119.5,32.3z"/>
			</g>
			<g>
				<path class="st7" d="M105.1,18.6c-2,0.3-3.8,1.4-4.7,3.5l-0.2,0.3c-0.5,0.8-0.6,1.5-0.5,2.7c0.1,1.6,0.6,3.3,1.8,4.4
					c0.6,0.8,1.5,1.3,2.3,1.8c1.1,0.7,2.2,0.6,3.4,0.6c0.4-0.1,0.9-0.2,1.3-0.3c-0.1-0.4-0.2-0.9-0.3-1.3l-0.1-0.4
					c-0.2-0.9,0-1.9,0.2-2.8c0.2-0.3,0.3-0.5,0.2-1l0,0c-0.6-0.8-1.1-1.8-1.3-2.7s-0.1-1.6,0.1-2.6c0.1-0.7,0.4-1.3,0.3-1.7l0,0
					C106.6,18.5,105.9,18.4,105.1,18.6z"/>
			</g>
			<g>
				<path class="st8" d="M108.5,31.2L108.5,31.2L108.5,31.2C108.7,31,108.5,31.2,108.5,31.2z"/>
			</g>
			<g>
				<path class="st8" d="M110.2,27.4C110.4,27.5,110.6,27.3,110.2,27.4C110.6,27.3,110.6,27.3,110.2,27.4L110.2,27.4z"/>
			</g>
			<g>
				<path class="st8" d="M109,26.3c-0.3-0.2-0.5-0.3-0.6-0.8l0,0c-0.2,0.3-0.3,0.5-0.2,1c-0.2,1-0.5,2-0.2,2.8l0.1,0.4
					c0.1,0.4,0.2,0.9,0.3,1.3c0,0,0,0,0.2-0.3l0.3-0.5l1.4-2.9l0.2-0.3C110.1,26.9,109.5,26.6,109,26.3z"/>
			</g>
			<g>
				<path class="st9" d="M120.9,20.1c-0.5-0.3-1-0.2-1.5-0.6c0.6,1.5,0.3,3.2-0.3,4.7l0,0c0.4,0.6,0.8,1.2,1.1,1.8
					c0.6,1.5,0.6,3.3-0.2,5.1c-0.2,0.3-0.5,0.8-0.7,1.1l0,0c2-0.3,3.7-1.8,4.6-3.9c0.2-0.3,0.2-1,0.4-1.3
					C125.4,24.4,123.8,21.5,120.9,20.1z"/>
			</g>
			<g>
				<path class="st8" d="M119.5,32.3L119.5,32.3L119.5,32.3L119.5,32.3z"/>
			</g>
			<g>
				<path class="st10" d="M119.2,24.3c-0.3,0.5-0.7,1.1-1,1.6c-0.5,0.8-1.5,1.3-2.3,1.9c-1,0.5-2.6,0.6-3.6,0.4l0,0
					c-0.3-0.2-0.7-0.1-1-0.2l-0.3-0.2l0,0c0,0,0,0-0.4,0.1l-1.4,2.9l-0.3,0.5l-0.2,0.3c0.4,0.6,0.8,1.2,1.1,1.8
					c0.4,0.6,1.2,1.1,1.9,1.2c0.8,0.5,2,0.5,2.9,0.7c1.9,0,3.7-1.1,4.9-2.6l0,0c0.2-0.3,0.5-0.8,0.7-1.1c0.7-1.8,0.7-3.7,0.2-5.1
					C120.1,25.2,119.7,24.6,119.2,24.3z"/>
			</g>
			<g>
				<path class="st11" d="M110.8,15.4c-1.5,0.6-2.9,1.6-3.4,3.1l0,0c-0.3,0.5-0.4,1.3-0.3,1.7c-0.2,1,0,1.9-0.1,2.6
					c0.2,0.9,0.7,1.9,1.3,2.7c0.3,0.2,0.5,0.3,0.6,0.8c0.5,0.3,0.8,0.5,1.4,0.8l0.3-0.5l0.9-2.1l0.6-1.5l0.5-0.8l0.5-0.8l1.2-2.6
					l1.5-3.6C114.1,14.8,112.2,14.8,110.8,15.4z"/>
			</g>
			<g>
				<path class="st12" d="M115.9,15.6L115.9,15.6l-1.6,3.2l-1.2,2.6l-0.5,0.8l-0.5,0.8l-0.6,1.5l-0.9,2.1l-0.3,0.5c0,0,0,0,0.3,0.2
					l0,0l0.3,0.2c0.3,0.2,0.7,0.1,1,0.2c0,0,0,0,0.3,0.2c1.3,0.4,2.6,0.1,3.6-0.4c0.9-0.2,1.6-0.9,2.3-1.9c0.3-0.5,0.7-1.1,1-1.6
					l0,0c0.6-1.5,0.7-2.9,0.3-4.7C119,17.8,117.7,16.3,115.9,15.6z"/>
			</g>
			<g>
				<path class="st12" d="M112.1,27.8c0.2-0.3,0.3-0.5,0.2-1l-0.4,0.1C112.2,27.1,112,27.4,112.1,27.8z"/>
			</g>
		</g>
	</g>
	<g id="Layer_4_4_">
		<path class="st15" d="M99.7,34c-3,1.9-4.2-4.8-1.9-4.9c-13.6-4.6,0.6-16.8,3.4-12.9c-0.3-6.2,10.6-8.1,9.7-1.2c3-6,11-1.5,8.6,4.2
			c2.2-3.5,10.9,2.9,5.3,7.8c5.8,0.9,4,15.5-7.4,10.8c-1.8,3-11.1,4.8-10.7-3.2C106.2,38.7,98.6,38.2,99.7,34z"/>
		<path class="st14" d="M124.8,27.3c5.8,0.9,4,15.5-7.4,10.8c-1.8,3-11.1,4.8-10.7-3.2c0.3,3.2,6.1,5.2,9.5,1
			c0.2-0.3,0.6-0.4,0.6-0.4C122.8,36.6,129.2,31.6,124.8,27.3z"/>
		<path class="st14" d="M104.7,24c-1.1-0.7-1.6-3.6,1.7-5.3c2.5-1.1,5.6,0.1,5.1,2c-0.3-2-3.6-2.6-5.5-1.5
			C104.6,20.6,104,22.8,104.7,24z"/>
		<path class="st14" d="M99.2,24c-0.6-0.8-1.7-3.3,0.8-4.4c1.6-0.9,4.5,0.5,4.2,2.2c-0.4-1.8-2.9-2.5-4.3-1.5
			C98.7,21.1,98.4,22.8,99.2,24z"/>
		<path class="st14" d="M110.8,15.4c3-6,11-1.5,8.6,4.2c2.2-3.5,10.9,2.9,5.3,7.8c-0.4,0.1-2.9,1.6-2.9,1.6c0.2-0.3,1.9-1.8,2.3-3.1
			c1.2-3.8-2.3-7.8-5.9-4.4c-0.4,0.1-0.7-0.1-0.5-0.3C119.7,16,114.5,12.4,110.8,15.4z"/>
	</g>
</g>
<g>
	<g id="Layer_3_3_">
		<g>
			<g>
				<path class="st0" d="M90.5,89L87,95.6l1.7-6.7l-1.9-1.7l0,4.7l-1.1-5.5l-2.4-2.6c0,0,3.9,8.1,2,14.1c-0.8,2.9-2.5,4.8-3,5.7
					l2.6,1.5l8-15.4L90.5,89z"/>
			</g>
			<g>
				<path class="st1" d="M95.1,96.4l1.7-2.8l-0.9-0.5l-5,4.9l4.2-6.3L93.1,90l-1.5,2.6l1.5-2.6l-0.5,0l-8.2,15.6l2.6,1.5
					c0.3-1.1,1.3-3.3,3.2-5.5c3.8-4.8,12.9-5.7,12.9-5.7l-3.3-0.8L95.1,96.4z"/>
			</g>
		</g>
	</g>
	<g id="Layer_2_2_">
		<g>
			<g>
				<path class="st2" d="M91.5,91L91.5,91C91.5,91,91.3,90.8,91.5,91L91.5,91z"/>
			</g>
			<g>
				<path class="st2" d="M91.7,87.4c-1.1,0.2-2.3-0.1-3.3-0.8c-0.9-0.5-1.5-1.2-2.2-1.9c-1.1,0.2-2.3-0.1-3.1-0.6
					c-0.3,2.5,1.1,5,3.5,6.3c1.5,0.8,3.1,1.1,4.7,0.5l0.2-0.2C91.1,89.7,91.2,88.3,91.7,87.4z"/>
			</g>
			<g>
				<path class="st3" d="M79.9,75.3c-1.7,3.3-0.4,7.2,2.7,8.7c0.2,0.2,0.5,0,0.7,0.3c0.9,0.5,2.2,0.6,3.1,0.6
					c-1.1-1.2-1.4-3-1.4-4.4c0-0.9,0.3-1.6,0.8-2.4l0.2-0.2c-0.4-1.4-0.1-2.9,0.7-4.5c0-0.5,0.5-0.9,0.7-1.1
					C84.4,71.3,81.2,72.5,79.9,75.3z"/>
			</g>
			<g>
				<path class="st4" d="M95,70.2c-2.6-1.5-6.3-0.8-8,1.6c-0.2,0.2-0.5,0.9-0.7,1.1c-0.8,1.5-0.8,2.9-0.7,4.5c1-1.8,2.9-3,4.9-3.1
					c0.7-0.2,1.6-0.1,2.3,0.1c0.8-1.5,1.9-2.6,3.8-3C96.1,71,95.7,70.5,95,70.2z"/>
			</g>
			<g>
				<path class="st2" d="M91.7,87.4c-0.3,1.1-0.6,2.2-0.2,3.6l2-3.5c0,0,0,0-0.2-0.2C92.8,87.3,92.4,87.2,91.7,87.4z"/>
			</g>
			<g>
				<path class="st5" d="M104.3,89c0.2,1.1-0.1,2.3-0.6,3.6c-0.5,0.9-1.2,1.5-1.7,1.9c0.2,0.2,0.2,0.2,0.7,0.3
					c3.3,1.7,7,0.6,8.7-2.7c1.5-2.6,0.7-5.8-1.4-7.7c0,0.5-0.3,0.7-0.5,1.3C108.2,87.6,106.3,88.8,104.3,89z"/>
			</g>
			<g>
				<path class="st6" d="M104.3,89c-1.2,1.5-3,2.3-4.8,2.2c-0.9,0-2-0.3-2.9-0.8c-0.7-0.3-1.3-1-1.7-1.4c-0.4-0.5-0.9-0.9-1-1.6
					l-2,3.5c0,0,0,0,0.2,0.2c0.4,1.8,1.6,3.2,3.4,4.2c2.4,1.2,5.1,0.9,7-0.8c0.7-0.6,1.4-1.3,1.7-1.9
					C104.1,91.2,104.4,90.1,104.3,89L104.3,89z"/>
			</g>
			<g>
				<path class="st7" d="M90.5,74.3c-2,0.1-3.9,1.4-4.9,3.1l-0.2,0.2c-0.5,0.9-0.5,1.8-0.8,2.4c-0.3,1.6,0.3,3.2,1.4,4.4
					c0.6,0.7,1.3,1.4,2.2,1.9c1.1,0.7,2.4,0.8,3.3,0.8c0.5,0,1.1-0.2,1.6-0.1c-0.2-0.2-0.2-0.7-0.4-1.4c-0.2-0.2,0-0.5,0-0.5
					c0-0.9,0.1-1.8,0.4-2.9c0.2-0.2,0.3-0.7,0.5-0.9l0,0c-0.6-0.7-1.3-1.9-1.2-2.8c-0.2-0.7-0.1-1.6-0.1-2.5
					c0.3-0.7,0.3-1.1,0.5-1.8l0,0C92.1,74.2,91.4,74.3,90.5,74.3z"/>
			</g>
			<g>
				<path class="st8" d="M93.3,86.8C93.1,87.1,93.3,87.3,93.3,86.8L93.3,86.8L93.3,86.8z"/>
			</g>
			<g>
				<path class="st8" d="M95.3,83.3C95.3,83.3,95.5,83.6,95.3,83.3C95.5,83.1,95.5,83.1,95.3,83.3L95.3,83.3z"/>
			</g>
			<g>
				<path class="st8" d="M94.2,82.2c-0.2-0.2-0.4-0.5-0.6-0.7l0,0c-0.2,0.2-0.3,0.7-0.5,0.9c-0.5,0.9-0.5,1.8-0.4,2.9l0,0.5
					c0,0.5,0.2,0.7,0.4,1.4l0.2-0.2l0.3-0.7l1.5-3.1l0.2-0.2C94.9,82.9,94.6,82.6,94.2,82.2z"/>
			</g>
			<g>
				<path class="st9" d="M106.4,76.7c-0.7-0.3-0.9-0.5-1.3-0.5c0.4,1.4,0.3,3.2-0.7,4.5l0,0c0.4,0.5,0.8,1.4,1,2.1
					c0.6,1.6,0.5,3.4-0.5,5.2c0,0.5-0.5,0.9-0.7,1.1l0,0c2-0.1,3.9-1.4,4.9-3.6c0-0.5,0.5-0.9,0.5-1.3
					C110.5,81.2,109.1,78.2,106.4,76.7z"/>
			</g>
			<g>
				<path class="st8" d="M104.3,89L104.3,89L104.3,89L104.3,89z"/>
			</g>
			<g>
				<path class="st10" d="M104.4,80.6c-0.3,0.7-0.7,1.1-1,1.3c-0.7,0.6-1.4,1.3-2.3,1.7c-1.4,0.4-2.5,0.6-3.6,0.3l0,0
					c-0.5,0-0.7-0.3-1.1-0.3l-0.2-0.2l0,0l-0.2,0.2l-1.5,3.1l-0.9,0.4l-0.2,0.2c0.2,0.7,0.6,1.2,1,1.6c0.4,0.5,1.1,1.2,1.7,1.4
					c0.9,0.5,2,0.8,2.9,0.8c1.8,0.1,3.6-0.7,4.8-2.2l0,0c0.2-0.2,0.5-0.9,0.7-1.1c0.8-1.5,1.1-3.6,0.5-5.2
					C105.3,82,104.9,81.1,104.4,80.6z"/>
			</g>
			<g>
				<path class="st11" d="M96.6,71.4c-1.6,0.6-2.8,1.7-3.8,3l0,0c-0.3,0.7-0.3,1.1-0.5,1.8c0,0.9-0.1,1.8,0.1,2.5
					c0.2,1.1,0.6,2.1,1.2,2.8c0.2,0.2,0.4,0.5,0.6,0.7c0.4,0.5,0.9,0.5,1.3,1l0.3-0.7l1.2-2l0.8-1.5l0.5-0.9l0.5-0.9l1.2-2.4
					l1.5-3.1C100,70.9,98.2,70.8,96.6,71.4z"/>
			</g>
			<g>
				<path class="st12" d="M101.7,71.9C101.5,71.7,101.5,71.7,101.7,71.9l-2,3.1l-1.2,2.4L98,78.3l-0.5,0.9l-0.8,1.5l-1.2,2l-0.3,0.7
					c0,0,0,0,0.2,0.2l0,0l0.2,0.2c0.5,0,0.7,0.3,1.1,0.3l0,0c1.1,0.3,2.7,0.1,3.6-0.3c0.9-0.4,1.8-0.8,2.3-1.7
					c0.5-0.4,0.7-1.1,1-1.3l0,0c0.8-1.5,1.1-3.1,0.7-4.5C104.3,74.3,103.3,72.7,101.7,71.9z"/>
			</g>
			<g>
				<path class="st12" d="M97.1,83.9c0.2-0.2,0.3-0.7,0.3-0.7l-0.5,0C96.9,83.2,97.1,83.4,97.1,83.9z"/>
			</g>
		</g>
	</g>
	<g id="Layer_4_3_">
		<path class="st13" d="M84.1,89.5c-3.2,1.6-3.8-5.2-1.6-5c-13.3-5.2,1.5-16.8,4-12.7c0.3-6.3,11.2-7.6,9.9-0.4
			c3.5-6.1,11.1-0.6,8.3,4.9c2.4-3.5,10.6,3.7,4.8,8.1c5.8,1.2,3.1,15.7-7.7,10.4c-2,3.1-11.5,3.9-10.6-3.7
			C90.4,94.6,83,93.6,84.1,89.5z"/>
		<path class="st14" d="M109.9,84.3c5.8,1.2,3.1,15.7-7.7,10.4c-2,3.1-11.5,3.9-10.6-3.7c-0.2,3.2,5.8,5.5,9.4,1.4
			c0.2-0.2,0.5-0.4,0.7-0.2C107.4,93.4,114,88.3,109.9,84.3z"/>
		<path class="st14" d="M84.4,79.4C83.8,78.7,83,76,85.6,75c1.8-0.8,4.5,0.7,3.9,2.5c-0.1-1.6-2.8-2.6-4.2-1.8
			C84.1,76.2,83.6,78,84.4,79.4z"/>
		<path class="st14" d="M96.6,71.4c3.5-6.1,11.1-0.6,8.3,4.9c2.4-3.5,10.6,3.7,4.8,8.1c-0.5,0-3,1.4-3,1.4s2.1-1.5,2.6-2.8
			c1.5-3.5-1.6-8-5.6-4.8c-0.5,0-0.9,0-0.7-0.3C105.3,72.6,100.5,68.7,96.6,71.4z"/>
		<path class="st14" d="M100.8,81.8c0.9,0.9,0.9,3.9-2.9,4.8c-2.7,0.8-5.6-1.4-4.6-3.2c-0.3,2,2.8,3.1,4.8,2.5
			C100.4,85.2,101.4,83.4,100.8,81.8z"/>
	</g>
</g>
<g>
	<g id="Layer_3_2_">
		<g>
			<g>
				<path class="st0" d="M58.7,123.6l8.7,4.2l-8.8-1.8l-2.1,2.8l6.3-0.1l-7.1,1.9l-3.2,3.5c0,0,10.6-5.8,18.5-3.7
					c4,1,6.6,2.8,7.8,3.5l1.6-3.9l-21.2-9.4L58.7,123.6z"/>
			</g>
			<g>
				<path class="st1" d="M68,117.1l-4-2.1l-0.6,1.4l7,6.5l-8.8-5l-2.1,2.4L63,122l-3.7-1.6l0,0.4l21.2,9.4l1.6-3.5
					c-1.4-0.4-4.3-1.5-7.5-3.7c-6.8-4.8-8.6-16.6-8.6-16.6l-0.7,4.6L68,117.1z"/>
			</g>
		</g>
	</g>
	<g id="Layer_2_1_">
		<g>
			<g>
				<path class="st2" d="M61.3,122.2L61.3,122.2c-0.2-0.2-0.2-0.2-0.4,0L61.3,122.2z"/>
			</g>
			<g>
				<path class="st2" d="M56.4,122.1c0.2,1.5,0.1,3.1-0.7,4.6c-0.5,1.2-1.2,2.1-2.2,3c0.3,1.3,0.1,2.9-0.4,4c3.3-0.1,6.5-1.9,7.9-5
					c1-2.1,1.1-4.4,0.3-6.3l-0.2,0C59.4,122.6,57.8,122.5,56.4,122.1z"/>
			</g>
			<g>
				<path class="st3" d="M41.4,138.8c4.3,1.9,9.4,0,11.5-4.2c0-0.2,0.2-0.4,0.3-0.8c0.6-1.4,0.5-2.8,0.4-4c-1.6,1.5-3.7,2.2-5.9,2.2
					c-1.2-0.1-2.2-0.2-3.4-0.8c-0.2,0-0.4-0.2-0.6-0.3c-1.9,0.4-3.9,0.4-5.9-0.4c-0.6-0.3-1-0.5-1.5-0.8
					C35.7,133.3,37.7,137.2,41.4,138.8z"/>
			</g>
			<g>
				<path class="st4" d="M33.6,119c-1.6,3.9-0.5,8.1,2.7,10.5c0.4,0.2,0.9,0.7,1.5,0.8c1.9,0.8,4,1,5.9,0.4
					c-2.5-1.3-4.1-3.7-4.4-6.4c-0.1-1-0.2-2.1,0.1-3c-2.1-0.8-3.6-2.6-4.4-4.5C34.6,117.5,34.1,118.2,33.6,119z"/>
			</g>
			<g>
				<path class="st2" d="M56.4,122.1c1.6,0.4,3.2,0.6,4.7,0.1l-4.9-2.2c-0.2,0-0.2,0-0.2,0.2C56.2,120.9,56.3,121.5,56.4,122.1z"/>
			</g>
			<g>
				<path class="st5" d="M57.5,105.3c1.5-0.2,3.3-0.1,4.8,0.7c1.2,0.5,2.1,1.2,2.8,2.1c0-0.2,0.2-0.4,0.3-0.8
					c1.9-4.3,0-9.4-4.2-11.5c-3.7-1.6-7.9-0.5-10.2,2.5c0.6,0.1,1.2,0.3,1.6,0.6C55.4,100.4,57.1,102.9,57.5,105.3z"/>
			</g>
			<g>
				<path class="st6" d="M57.6,105.6c2.1,1.6,3.2,3.8,3.4,6.5c0.1,1.2-0.1,2.6-0.8,4c-0.5,1-1,1.9-1.7,2.5c-0.7,0.7-1.4,1.3-2.2,1.6
					l4.9,2.2c0,0,0.2,0,0.2-0.2c2.3-0.8,4.3-2.4,5.4-4.7c1.6-3.1,0.7-6.8-1.4-9.1c-0.7-0.9-1.9-1.6-2.8-2.1
					C60.7,105.3,59.1,105.1,57.6,105.6L57.6,105.6z"/>
			</g>
			<g>
				<path class="st7" d="M39.3,124.5c0.3,2.7,1.9,5.1,4.4,6.4c0.2,0,0.4,0.2,0.6,0.3c1.2,0.5,2.2,0.6,3.4,0.8c2,0,4.2-0.8,5.9-2.2
					c0.9-0.9,1.6-1.9,2.2-3c0.6-1.6,1-3.2,0.7-4.6c-0.1-0.6-0.3-1.3-0.4-2.1c-0.4,0.4-1,0.3-1.5,0.4c-0.2,0.2-0.4,0.2-0.6,0.1
					c-1.3,0.3-2.5,0.1-3.6-0.2c-0.4,0-0.8-0.3-1.2-0.5l0,0c-1.1,0.9-2.4,1.6-3.7,1.8c-1,0.3-2.3,0.4-3.3,0.3
					c-0.8-0.1-1.6-0.4-2.4-0.7l0,0C39.1,122.5,39.2,123.5,39.3,124.5z"/>
			</g>
			<g>
				<path class="st8" d="M55.8,120.2c0.2,0,0.2,0,0.2-0.2l-0.4-0.2C55.9,120,55.9,120,55.8,120.2z"/>
			</g>
			<g>
				<path class="st8" d="M51,117.7c0-0.2-0.2-0.2-0.2-0.4l0,0.2L51,117.7z"/>
			</g>
			<g>
				<path class="st8" d="M49.6,119.3c-0.2,0.4-0.5,0.6-0.7,0.9l0,0c0.4,0.2,0.8,0.3,1.2,0.5c1.2,0.3,2.4,0.5,3.6,0.2
					c0.2,0,0.4-0.2,0.6-0.1c0.6-0.1,1-0.3,1.5-0.4c0-0.2-0.2-0.2-0.2-0.2l-0.8-0.3l-4.1-1.9l-0.2,0
					C50.4,118.2,50.1,118.8,49.6,119.3z"/>
			</g>
			<g>
				<path class="st9" d="M41.2,103.6c-0.3,0.6-0.6,1.4-0.6,2c1.9-0.6,4.1-0.6,6.1,0.5l0,0c0.7-0.5,1.6-1.3,2.4-1.6
					c2.1-0.8,4.6-0.9,6.7,0.1c0.6,0.3,1.2,0.5,1.5,1l0,0c-0.5-2.7-2.3-5.1-5-6.2c-0.6-0.3-1.2-0.3-1.6-0.6
					C47.1,97.9,43,99.7,41.2,103.6z"/>
			</g>
			<g>
				<path class="st8" d="M57.5,105.3L57.5,105.3C57.4,105.5,57.6,105.6,57.5,105.3C57.6,105.6,57.6,105.6,57.5,105.3z"/>
			</g>
			<g>
				<path class="st10" d="M46.6,106c0.8,0.3,1.3,0.8,1.9,1.2c0.9,0.9,1.8,1.8,2.3,3.1c0.7,1.5,0.9,3.3,0.7,5l0,0.2
					c0,0.4-0.3,1-0.4,1.4c0,0.2,0,0.4-0.2,0.4l0,0c0,0.2,0.2,0.2,0.2,0.4l4.1,1.9l0.8,0.3l0.4,0.2c0.8-0.3,1.5-1.1,2.2-1.6
					c0.7-0.7,1.4-1.5,1.7-2.5c0.6-1.4,0.7-2.6,0.8-4c-0.1-2.5-1.3-4.8-3.4-6.5c0,0,0,0-0.2,0c-0.6-0.5-0.9-0.7-1.5-1
					c-2.1-1-4.6-0.9-6.7-0.1C48.2,104.7,47.3,105.2,46.6,106z"/>
			</g>
			<g>
				<path class="st11" d="M35,116.9c0.8,1.9,2.2,3.7,4.4,4.5l0,0c0.8,0.3,1.6,0.6,2.4,0.7c1.2,0.1,2.2,0,3.3-0.3
					c1.5-0.2,2.5-0.9,3.7-1.8c0.2-0.2,0.5-0.6,0.7-0.9c0.5-0.6,0.7-1.1,1.2-1.7l-0.8-0.3l-2.7-1.3L45,115l-1.2-0.5l-1.2-0.5
					l-3.5-1.6l-4.3-1.9C34.3,112.8,34.2,115,35,116.9z"/>
			</g>
			<g>
				<path class="st12" d="M35.2,110.2c0,0,0,0.2-0.2,0.4l4.3,1.9l3.5,1.6l1.2,0.5l1.2,0.5l2.1,0.8l2.7,1.3l0.8,0.3l0-0.2l0,0
					c0-0.2,0-0.4,0.2-0.4c0.2-0.4,0.3-1,0.4-1.4l0-0.2c0.4-1.6,0-3.5-0.7-5c-0.5-1.1-1.4-2.2-2.3-3.1c-0.6-0.5-1.3-1-1.9-1.2l0,0
					c-1.9-0.8-4.2-1.1-6.1-0.5C38.2,106.3,36.2,107.9,35.2,110.2z"/>
			</g>
			<g>
				<path class="st12" d="M51.3,115.4c-0.4-0.2-0.8-0.3-1-0.3c0,0.2,0.2,0.4,0.1,0.6C50.7,115.4,50.9,115.4,51.3,115.4z"/>
			</g>
		</g>
	</g>
	<g id="Layer_4_2_">
		<path class="st15" d="M60.1,131.7c2.6,4.1-6.3,5.4-6.4,2.4c-5.8,18.1-22.3-0.8-17.2-4.5c-8.2,0.5-10.9-13.8-1.5-12.8
			c-8.1-4.1-1.9-14.7,5.7-11.4c-4.8-2.8,4-14.4,10.3-7c1.1-7.8,20.7-5.3,14.2,9.5c4.2,2.3,6.1,14.7-4,14.2
			C66.3,123.2,65,133.2,60.1,131.7z"/>
		<path class="st14" d="M51.1,98.5c1.1-7.8,20.7-5.3,14.2,9.5c4.2,2.3,6.1,14.7-4,14.2c4.3-0.1,6.8-8.2,1.2-12.5
			c-0.4-0.2-0.3-0.6-0.3-1C63.2,101.1,56.2,92.6,51.1,98.5z"/>
		<path class="st14" d="M46.8,124.9c-1,1.3-4.9,2.3-7.1-2.4c-1.7-3.2,0-7.7,2.8-6.8c-2.7,0.1-3.2,4.7-1.8,7.1
			C41.8,125.4,44.8,126.1,46.8,124.9z"/>
		<path class="st14" d="M35,116.9c-8.1-4.1-1.9-14.7,5.7-11.4c-4.8-2.8,4-14.4,10.3-7c0.1,0.6,2.2,3.9,2,3.9c-0.2,0-2.4-2.5-4.1-3.3
			c-4.9-1.6-10.5,2.9-5.7,7.9c0,0.4,0.1,1-0.3,1C35.7,105.4,31.1,112.2,35,116.9z"/>
		<path class="st14" d="M48.3,110.6c1.1-1.1,5-1.5,6.8,3.4c1.1,3.4-1.2,7.6-3.7,6.3c2.8,0.3,3.9-4.1,3-6.8
			C53.2,110.8,50.5,109.7,48.3,110.6z"/>
	</g>
</g>
</svg>
