<?xml version="1.0" encoding="utf-8"?>
<!-- Generator: Adobe Illustrator 25.2.1, SVG Export Plug-In . SVG Version: 6.00 Build 0)  -->
<svg version="1.1" id="Layer_2" xmlns="http://www.w3.org/2000/svg" xmlns:xlink="http://www.w3.org/1999/xlink" x="0px" y="0px"
	 viewBox="0 0 200 200" style="enable-background:new 0 0 200 200;" xml:space="preserve">
<style type="text/css">
	.st0{fill:#6D6417;}
	.st1{fill:#A59629;}
	.st2{opacity:0.5;fill:#5E5513;}
	.st3{fill:#5E5513;}
	.st4{fill:#F2A525;}
	.st5{opacity:0.5;fill:#D37D0C;}
	.st6{opacity:0.2;fill:#D37D0C;}
	.st7{opacity:0.4;fill:#D37D0C;}
	.st8{fill:#D37D0C;}
	.st9{fill:#FFA131;}
	.st10{fill:#F4932A;}
</style>
<g>
	<g>
		<path class="st0" d="M54.5-83.6c0,0-4.6-4.4-7.5-3.1c-2.8,1.4-5.5,4.8-10.7,3.4c-5.2-1.3-11.9-6.5-11.9-6.5l-33.9,4.4
			c0,0-0.7,4.3,0.9,6.5c1.5,2.3,1.5,5.8,0.5,8.2c-1,2.4-0.6,5.4-0.6,5.4s23.8-8.2,29.1-3.8s3.8,8.4,4.1,11s0.9,6.5,3.8,6.1
			c3-0.4,7-8,10.2-14.4C41.8-72.8,54.5-83.6,54.5-83.6z"/>
		<path class="st1" d="M54.5-83.6c0,0-4.6-4.4-7.5-3.1c-2.8,1.4-5.5,4.8-10.7,3.4c-5.2-1.3-11.9-6.5-11.9-6.5l-33.9,4.4
			c0,0,0.1,0.6,1.6,2.8c1.5,2.3,1.5-4.2,12-0.6c5.1,1.8,12.1-3.3,17.8-2.3c6.2,1.1,11,6.2,15,7.1C48.5-75.7,54.5-83.6,54.5-83.6z"/>
		<path class="st2" d="M54.5-83.6c0,0-7.4,5-12,8.6S36.2-61,31-62.4s-5.5-11.4-5.5-11.4l-25.8,3.4c0,0-5.6,3.8-7.8-0.2
			c-1,2.4-0.6,5.4-0.6,5.4s23.8-8.2,29.1-3.8s3.8,8.4,4.1,11s0.9,6.5,3.8,6.1c3-0.4,7-8,10.2-14.4C41.8-72.8,54.5-83.6,54.5-83.6z"
			/>
		<path class="st3" d="M-6.4-75.1c0,0,19.1-4.1,23.2-3.6s12.4,2.4,16.6,3.9s8.2,0.9,8.2,0.9s-5.8,1.8-7.9,1
			c-2.1-0.7-15.8-5-18.8-4.6C12-77-6.4-75.1-6.4-75.1z"/>
	</g>
	<path class="st4" d="M126.1,98.5c2.7,7.2,5.5,14.4,9,21.4c0.4,0.8,1.5,0.8,1.9,0c1.5-3.2,3-6.5,4.5-9.7
		c12.6-27.2,25.3-54.3,37.9-81.5c11.1-24.1,22.2-48.2,32.8-72.5c-3.1-0.3-6.1-0.7-9.2-1c-25.8-3.3-23.9-8-64.4-38.4
		s-51.9-23.1-68.3-18.6S51.5-83.3,51.5-83.3s-12.3-1.3-20.3,12.8c-8.4,14.7-0.3,21.8-3.1,22.6s-15.4,4.2-9,31.5
		c5.2,22,36.6,42.9,60,60.3S114,65.5,126.1,98.5z"/>
	<path class="st5" d="M212.2-43.8c-3.1-0.3-6.1-0.7-9.2-1c3.1,0.4,6.1,0.8,9.1,1.3C212.2-43.7,212.2-43.8,212.2-43.8z"/>
	<path class="st5" d="M181.7-9c2.9,2.3,6.7,5.2,11,8.7c1.5-3.2,2.9-6.4,4.3-9.5c-3.1-2.5-5.8-4.7-8-6.4
		C163.3-36.1,58.8-93.1,52.2-84.5C63.9-83.6,155.9-28.9,181.7-9z"/>
	<path class="st5" d="M153.2,85c1.5-3.3,3.1-6.7,4.6-10c-9-6.5-18.1-13.6-27.4-21.3C105.4,32.9,28.8-49.1,28.8-49.1
		c7.4,15.6,71.5,93.5,97.3,113.3C132.1,68.9,141.6,76.4,153.2,85z"/>
	<ellipse transform="matrix(0.8273 -0.5618 0.5618 0.8273 19.5545 11.961)" class="st5" cx="29.2" cy="-25.8" rx="4.4" ry="6.2"/>
	<ellipse transform="matrix(0.7345 -0.6787 0.6787 0.7345 17.2645 14.4081)" class="st5" cx="27" cy="-14.9" rx="2.1" ry="3"/>
	<ellipse transform="matrix(0.6729 -0.7398 0.7398 0.6729 67.37 78.1886)" class="st5" cx="122.1" cy="-37.1" rx="2" ry="4.6"/>
	<path class="st6" d="M212.2-43.8c-3.1-0.3-6.1-0.7-9.2-1c2.8,1,5.5,2.2,8.2,3.4C211.6-42.3,211.9-43.1,212.2-43.8z"/>
	<path class="st7" d="M212.6-44.6c-3.1-0.2-6.3-0.3-9.5-0.3c3.1,0.4,6.1,0.7,9.2,1C212.3-44.1,212.5-44.4,212.6-44.6z"/>
</g>
<g>
	<path class="st4" d="M418.1,184.5c5.2-48-28-74.1-58-104.8c-1.5,0.7-3,1.5-4.5,2.2c-26.5,13.1-53.4,25.5-80.2,37.9
		c-27,12.5-53.9,25.1-80.9,37.5c-0.7,0.3-1.5,0.7-2.3,1c-5.2,25.7-2.7,54.9,22.3,93.6c34.6,53.6,89.6,35,89.6,35s19.1-3.2,51-17.1
		C387,256.1,412.4,237,418.1,184.5z"/>
	<path class="st5" d="M418.1,184.5c5.2-48-28-74.1-58-104.8c-0.1,0.1-0.3,0.1-0.4,0.2c39.3,47.9,39.4,98-2.9,151
		c-43,53.8-117,54.8-142.1,21c34.6,53.6,89.6,35,89.6,35s19.1-3.2,51-17.1C387,256.1,412.4,237,418.1,184.5z"/>
	<path class="st5" d="M315.7,101.2c8.2,43.5,22.2,130,21.9,145.1c9.4-2-4.5-105.3-12.4-149.6C322,98.2,318.8,99.7,315.7,101.2z"/>
	<path class="st5" d="M240.5,136.1c-3.3,1.5-6.7,3.1-10,4.6c11.2,46.9,32.5,115.9,69.6,129C285.9,255.5,258.4,208.1,240.5,136.1z"/>
	<ellipse transform="matrix(0.9757 -0.2193 0.2193 0.9757 -30.9466 84.3134)" class="st5" cx="364.3" cy="181.6" rx="8" ry="18"/>
	<ellipse transform="matrix(0.9757 -0.2193 0.2193 0.9757 -24.359 84.8796)" class="st5" cx="370.2" cy="152.2" rx="5.1" ry="6.6"/>
	<path class="st6" d="M418.1,184.5c5.2-48-28-74.1-58-104.8c-1,0.5-2,1-3.1,1.5c18,38.3,21.9,85.2-16.3,139
		c-22.4,31.5-101,65.5-126.2,31.8c34.6,53.6,89.6,35,89.6,35s19.1-3.2,51-17.1C387,256.1,412.4,237,418.1,184.5z"/>
	<path class="st7" d="M360.1,79.7c5.8,6,11.8,11.8,17.6,17.6c-5-6.1-10.6-12.1-16.7-18C360.7,79.5,360.4,79.6,360.1,79.7z"/>
	<path class="st7" d="M418.1,184.5c4.2-38.6-16.5-63.1-40.4-87.2c36.2,44.4,41.3,94.3,3.4,140.6c-56.2,68.7-141.4,47.8-166.5,14.1
		c34.6,53.6,89.6,35,89.6,35s19.1-3.2,51-17.1C387,256.1,412.4,237,418.1,184.5z"/>
</g>
<ellipse transform="matrix(0.896 -0.4441 0.4441 0.896 -25.47 135.5755)" class="st8" cx="276.7" cy="122.2" rx="94.4" ry="21.1"/>
<ellipse transform="matrix(0.896 -0.4441 0.4441 0.896 -24.8176 135.0367)" class="st9" cx="275.9" cy="120.5" rx="80.9" ry="16.3"/>
<ellipse transform="matrix(0.896 -0.4441 0.4441 0.896 -24.8176 135.0367)" class="st10" cx="275.9" cy="120.5" rx="66.6" ry="13.4"/>
<g>
	<ellipse transform="matrix(0.4104 -0.9119 0.9119 0.4104 68.312 181.5859)" class="st8" cx="174.6" cy="38" rx="91.5" ry="15.5"/>
	
		<ellipse transform="matrix(0.4104 -0.9119 0.9119 0.4104 68.5344 183.0458)" class="st9" cx="175.8" cy="38.5" rx="78.5" ry="11.9"/>
	
		<ellipse transform="matrix(0.4104 -0.9119 0.9119 0.4104 68.5344 183.0458)" class="st10" cx="175.8" cy="38.5" rx="64.6" ry="9.8"/>
</g>
</svg>
