<?xml version="1.0" encoding="utf-8"?>
<!-- Generator: Adobe Illustrator 25.2.1, SVG Export Plug-In . SVG Version: 6.00 Build 0)  -->
<svg version="1.1" id="Layer_3" xmlns="http://www.w3.org/2000/svg" xmlns:xlink="http://www.w3.org/1999/xlink" x="0px" y="0px"
	 viewBox="0 0 200 200" style="enable-background:new 0 0 200 200;" xml:space="preserve">
<style type="text/css">
	.st0{fill:#6D6417;}
	.st1{fill:#A59629;}
	.st2{opacity:0.5;fill:#5E5513;}
	.st3{fill:#5E5513;}
	.st4{fill:#F2A525;}
	.st5{opacity:0.5;fill:#D37D0C;}
	.st6{opacity:0.2;fill:#D37D0C;}
	.st7{opacity:0.4;fill:#D37D0C;}
</style>
<g>
	<path class="st0" d="M28.4-78.2c0,0-3.3-5.5-6.4-4.9c-3.1,0.6-6.5,3.1-11.2,0.5c-4.7-2.7-9.8-9.4-9.8-9.4l-33.9-4.7
		c0,0-1.8,3.9-0.9,6.5c0.9,2.6-0.1,6-1.6,8c-1.6,2.1-2,5-2,5s25.1-1.6,29.1,4c3.9,5.6,1.4,9.1,1.1,11.7C-7.5-59-8.1-55-5.1-54.6
		c3,0.4,8.9-5.8,13.7-11.2S28.4-78.2,28.4-78.2z"/>
	<path class="st1" d="M28.4-78.2c0,0-3.3-5.5-6.4-4.9c-3.1,0.6-6.5,3.1-11.2,0.5c-4.7-2.7-9.8-9.4-9.8-9.4l-33.9-4.7
		c0,0-0.1,0.6,0.8,3.1c0.9,2.6,2.5-3.7,11.8,2.6c4.4,3,12.6,0,17.8,2.5c5.7,2.7,8.9,8.9,12.6,10.8C20.5-72.3,28.4-78.2,28.4-78.2z"
		/>
	<path class="st2" d="M28.4-78.2c0,0-8.5,2.9-13.8,5.2C9.2-70.8,4.9-61.3,0.2-64s-2.3-12.4-2.3-12.4l-25.8-3.5c0,0-6.4,2.2-7.5-2.3
		c-1.6,2.1-2,5-2,5s25.1-1.6,29.1,4c3.9,5.6,1.4,9.1,1.1,11.7C-7.5-59-8.1-55-5.1-54.6c3,0.4,8.9-5.8,13.7-11.2S28.4-78.2,28.4-78.2
		z"/>
	<path class="st3" d="M-32.6-86.1c0,0,19.5,1.1,23.4,2.7s11.3,5.6,15,8.1c3.7,2.5,7.7,3.1,7.7,3.1s-6.1,0.2-7.9-1.1
		s-13.9-9-16.9-9.4C-14.3-83.1-32.6-86.1-32.6-86.1z"/>
</g>
<path class="st4" d="M25.5-78.8c0,0,6-13,23-13s30-4,61,36s28,44,52,54c43.4,18.1,91,25,108,75s2,78-21,104s-39,37-39,37
	s-42,40-96,6c-53.6-33.7-61-69-64-104s-13-42-31-65s-42.8-51.5-42-74c1-28,14-28,17-28s-3-9,9-21C14-83.3,25.5-78.8,25.5-78.8z"/>
<path class="st5" d="M161.5-1.8c43.4,18.1,91,25,108,75s2,78-21,104s-39,37-39,37s-42,40-96,6c37,20,103.7-12.1,120-79
	C250.5,71.2,225.5,24.2,161.5-1.8z"/>
<path class="st5" d="M140.5,22.2c19.7,26,90.6,134.5,82,141c-7-16-71.3-110-91-136s-94-103-105-107C35.1-86.3,120.8-3.7,140.5,22.2z
	"/>
<path class="st5" d="M65.5,74.2c54,77,111,118,133,126c-52,5-120.3-91-140-117s-61-118-64-135C-5.5-51.8,46.8,47.6,65.5,74.2z"/>
<ellipse transform="matrix(0.7922 -0.6103 0.6103 0.7922 -11.2858 153.3406)" class="st5" cx="219.5" cy="93.2" rx="8" ry="18"/>
<ellipse transform="matrix(0.9461 -0.3238 0.3238 0.9461 8.8479 -5.1927)" class="st5" cx="-11.2" cy="-29.2" rx="4.4" ry="6.2"/>
<ellipse transform="matrix(0.8874 -0.461 0.461 0.8874 7.0238 -9.6204)" class="st5" cx="-16.2" cy="-19.2" rx="2.1" ry="3"/>
<ellipse transform="matrix(0.7922 -0.6103 0.6103 0.7922 5.0082 142.9581)" class="st5" cx="212.4" cy="64.1" rx="5.1" ry="6.6"/>
<ellipse transform="matrix(0.8441 -0.5362 0.5362 0.8441 21.0276 41.1966)" class="st5" cx="81.4" cy="-15.6" rx="2" ry="4.6"/>
<path class="st6" d="M161.5-1.8c43.4,18.1,91,25,108,75s2,78-21,104s-39,37-39,37s-42,40-96,6c37,20,94-44,101-82
	C227.5,67.4,198.5,25.2,161.5-1.8z"/>
<path class="st7" d="M161.5-1.8c43.4,18.1,91,25,108,75s2,78-21,104s-39,37-39,37s-42,40-96,6c37,20,123,3,145-83
	C276.3,67.5,235.5,19.2,161.5-1.8z"/>
</svg>
