<?xml version="1.0" encoding="utf-8"?>
<!-- Generator: Adobe Illustrator 25.2.1, SVG Export Plug-In . SVG Version: 6.00 Build 0)  -->
<svg version="1.1" id="Layer_3" xmlns="http://www.w3.org/2000/svg" xmlns:xlink="http://www.w3.org/1999/xlink" x="0px" y="0px"
	 viewBox="0 0 200 200" style="enable-background:new 0 0 200 200;" xml:space="preserve">
<style type="text/css">
	.st0{fill:#5BA100;}
	.st1{opacity:0.2;}
	.st2{opacity:0.3;fill:#FFFFFF;}
	.st3{fill:#6DC200;}
	.st4{fill:#72D900;}
	.st5{fill:#FF9830;}
	.st6{opacity:0.4;fill:#7F4912;}
	.st7{opacity:0.4;fill:#B06619;}
	.st8{opacity:0.15;fill-rule:evenodd;clip-rule:evenodd;}
</style>
<g>
	<g>
		<path class="st0" d="M129.9,19.7c-0.7-0.3-4.3,0.8-5.6,0.7c0.7-2,3.4-3.4,4.2-5.5c-0.4,0.1-2.2,1.1-3.1,1.5l0-0.1
			c2.6-2.5,5.1-6.2,7.7-8.5c-0.3,0.1,0-1.3,0-1.3c-3,2.3-7.5,4.1-11,6.5c-0.6,0.4-1.2,0.8-1.7,1.3c0.1,0,1.6-3.4,1.6-3.8
			c-1.1,0.7-3.3,3.1-4.4,3.2c0.4-1.2,0.9-2.3,1.3-3.3c5.7-14.6,9.6-19.4,22.6-30c-2.1,0.4-4.7,0.9-6.5,1c1.4-1.4,4.1-2.3,4.5-4.5
			c-0.1,0-2.5,0.4-2.5,0.4c0.5-1.1,2.2-3.2,2.7-4c-5,2.4-8.8,5-11.7,9.7c-0.4,0.6-0.7,1.2-1.1,1.9c0.1-0.6,0.2-1.1,0.3-1.7
			c4.2-18.9,24.6-12.3,28.5-29.9c-3.2,1.6-7.4,2.5-10.6,4.5c3.5-3.1,6.2-7.4,9.3-10.7c-1.9,0.9-4.3,1.5-6.4,2.2
			c2.2-3.7,3.6-8.6,5.8-12.4c-1.5,1.6-4.3,3.5-5.9,5.1c0.3-1,0.5-1.9,0.7-3c0.6-3.1,1-6.4,1.8-9.5c0.2-0.6,0.4-1.3,0.6-1.9
			c-1.8,2.8-4.7,5.1-6.6,7.6c0.7-2.3,1.1-4.7,1.6-6.9c-1.7,5.3-4.8,10.3-8.5,14.6c0.5-2.2,0.8-4.5,1.5-6.9c-1.7,2-3.3,5-4.7,7.2
			c0.1-1.4,0.8-4.5,0.4-5.8c0,0.2-0.1,0.4-0.1,0.4c-1,2-2.7,5.2-3.7,7.3c0.4-2.1,0.9-5.3,1.2-7.6c-4.8,8.9-5.4,18.4-6.1,28.1
			c-1-3.9-2.4-7.6-3.1-11.6c0.3,3-0.2,6.2-0.1,9.1c-0.1-0.7-1.1-2-1.1-2.4c-0.3,1.7,0.1,4.2-0.9,5.7c-1.7-4.9-3.6-11.7-4.1-17.3
			c0.4,14.4,4,32.4,1.1,47.9c0,0,0,0.1,0,0.1c-1.3,7-3.9,13.5-8.6,18.9c0.5-6.8,2.2-13.5,4.6-20c0.9-1.6-1.7,2.6-2.4,3.7
			c1.5-4.6,1.9-9.7,3.3-14.2c-0.7,0.2-3.1,4.3-3.5,4.8c0.6-2.6,1.5-5,2.3-7.5c-1,0.1-2.5,3.7-3.2,4.4c1-3.3,1.3-6.4,1.5-9.8
			c-0.6,0.7-1.2,4-2.3,3.9c-0.2-3.3-0.7-6.7-1.3-10.2c-0.9-5.2-2-10.3-2.7-14.7c-1.2,8.1,0.1,17.8,1.9,24.9c-1-4.1-3.2-8.3-4.5-12.2
			c-0.3,0.6-0.5,1.3-0.7,2c-2.1,7.1,0.3,16.6,3,24.2c-1-0.2-2.9-2.2-4-2.8c0.5,2.6,2.2,5.1,2.9,7.6c-0.2,0.3-3.6-2.3-3.9-2
			c1.4,2.2,3,5.3,4.1,7.5c-2.4-1.6-5.4-3.1-7.8-4.9c19.5,19.4,2.1,48.2-4.7,58c0.9,0.2,1.7,0.4,2.6,0.7c0.1,0,0.2,0.1,0.4,0.1
			c0.2,0.1,0.5,0.2,0.7,0.3c0.7,0.4,1.4,0.8,2.1,1.2c2.4-4.1,4.1-11.4,6.7-15.4C110.9,35.4,124.4,30.3,129.9,19.7z"/>
		<path class="st1" d="M129.9,19.7c-0.7-0.3-4.3,0.8-5.6,0.7c0.7-2,3.4-3.4,4.2-5.5c-0.4,0.1-2.2,1.1-3.1,1.5l0-0.1
			c2.6-2.5,5.1-6.2,7.7-8.5c-0.3,0.1,0-1.3,0-1.3c-3,2.3-7.5,4.1-11,6.5c-3.4,9.8-9.3,21.1-15.1,13.5c-3.8,4.5-1.5,10.7-3.3,16.1
			c-2,6.2-7,10.8-9.6,16.9c1.1,0.4,2.2,1,3.2,1.7c2.4-4.1,4.1-11.4,6.7-15.4C110.9,35.4,124.4,30.3,129.9,19.7z"/>
		<path class="st1" d="M141.5-19.6c-2.1,0.4-4.7,0.9-6.5,1c1.4-1.4,4.1-2.3,4.5-4.5c-0.1,0-2.5,0.4-2.5,0.4c0.5-1.1,2.2-3.2,2.7-4
			c-5,2.4-8.8,5-11.7,9.7c1-0.3,2-0.7,3-1.4c-0.5,0.4-1,1.1-1.2,1.3c1.2-0.7,2.1-1.6,3.6-1.8c-7.3,7.6-13.1,19.1-14.8,29.6
			c0.1-0.1,0.1-0.2,0.2-0.4C124.6-4.2,128.5-9,141.5-19.6z"/>
		<path class="st1" d="M155.8-46.6c-3.2,1.6-7.4,2.5-10.6,4.5c3.5-3.1,6.2-7.4,9.3-10.7c-1.9,0.9-4.3,1.5-6.4,2.2
			c2.2-3.7,3.6-8.6,5.8-12.4c-1.5,1.6-4.3,3.5-5.9,5.1c0.3-1,0.5-1.9,0.7-3c-2,4.8-3.7,10-5.8,13.9c0.8,0.1,1.3-0.9,2.1-0.9
			c-2.3,2.7-4.1,6.5-6.4,9.2c1.2-0.3,2.9-0.9,4.3-1.4c-5.9,7.2-17.1,13.5-16.9,23.8c0.4-0.1,0.8-0.3,1.2-0.4
			C131.5-35.5,151.9-29,155.8-46.6z"/>
		<path class="st2" d="M107.9-28.5c-0.9-5.2-2-10.3-2.7-14.7c-1.2,8.1,0.1,17.8,1.9,24.9c-1-4.1-3.2-8.3-4.5-12.2
			c-0.3,0.6-0.5,1.3-0.7,2c0.4,4,0.9,7.3,1.2,8.4c0.2,0.1,0.4-1.3,0.7-1.2c0.7,1,1.3,2.7,2.2,3.6c-0.1-0.1-0.4-2.3-0.4-2.5
			c0.6,1.1,1.1,2.3,1.9,3.2C107.8-20.8,107.8-24.7,107.9-28.5z"/>
		<path class="st2" d="M122.1-31.5c0.6-0.4,1.7,1.4,2,1.5c0.3-1.1,0.5-2.6,1-3.4c0.3,0.9,0.7,2.1,1,3c3.3-6.1,2.9-14.9,4.4-21.7
			c0.6-0.2,0.7-1,1.7-2.3c0.2,0,0.7,1.5,0.9,1.6c0.7-0.9,1.5-2.3,2.3-3.2c-0.2,1-0.1,2.5-0.4,3.7c1.2-1.4,2.8-2.8,3.9-4.3
			c-0.1,0.2-0.2,0.6-0.3,0.7c1.3-1.7,3.1-3.3,4.3-5.2c0,0.9,0,2-0.1,2.7c2.9-4.3,5.6-7.8,7.6-12.2c0.2-0.6,0.4-1.3,0.6-1.9
			c-1.8,2.8-4.7,5.1-6.6,7.6c0.7-2.3,1.1-4.7,1.6-6.9c-1.7,5.3-4.8,10.3-8.5,14.6c0.5-2.2,0.8-4.5,1.5-6.9c-1.7,2-3.3,5-4.7,7.2
			c0.1-1.4,0.8-4.5,0.4-5.8c0,0.2-0.1,0.4-0.1,0.4c-1,2-2.7,5.2-3.7,7.3c0.4-2.1,0.9-5.3,1.2-7.6c-4.8,8.9-5.4,18.4-6.1,28.1
			c-1-3.9-2.4-7.6-3.1-11.6c0.3,3-0.2,6.2-0.1,9.1c-0.1-0.7-1.1-2-1.1-2.4c-0.3,1.7,0.1,4.2-0.9,5.7c-1.7-4.9-3.6-11.7-4.1-17.3
			c0.4,14.4,4,32.4,1.1,47.9C119.7-12.3,119.3-21.9,122.1-31.5z"/>
	</g>
	<g>
		<path class="st3" d="M115.2,48.2c1.4-1.7,3.1-2.8,4.9-3.5c6.1-2.3,14-0.3,21-1.2c-0.3-1.5-3.5-2.1-4.5-2.9c2.4-1,5.8-2.2,8-4
			c-1.5,0.2-3.8,0.5-5.3,0.9c5.9-4.5,13.7-7.9,19-12.7c-0.1-0.2-0.2-0.5-0.3-0.8c-2,0.9-5.9,1.5-8.4,2.4c1.4-2.1,2.4-4.3,3.7-6.5
			c-0.1,0-0.1-0.8-0.1-1.2c0-0.2,0-0.3-0.1-0.2c-5.5,4.4-12.2,7.3-18.8,10.4c0.3,0,0.4-1.4,0.2-1.3c-4.5,2.4-8.8,5.8-12.3,9.4
			c3.5-4.1,7.2-7.9,11.5-10.9c3.2-2.3,6.7-4.1,10.7-5.4c-2.3,0.7-4.4,1.3-6.8,1.8c5.3-2.5,9-7.3,12.6-11.5c0.2,0-1.3-2.5-1.2-2.3
			c-0.7,0.5-2.3,3-2.9,3.2c2.9-5.7,5.5-12.3,6.6-18.5c-1.7,2.9-4.1,5.3-5.9,8c1.4-5.4,0.7-11.4,1-16.6c-0.8,1.4-1.7,2.9-2.6,4.4
			c-1.9,3.1-3.9,6.4-5.9,9.5c-0.5,0.7-0.9,1.4-1.4,2.1c-0.4-1.6-1.1-4.2-1.4-5.5c-0.7,3.2-2.8,6.6-3.7,9.8c-1.1-1.4-3.3-3.6-4.2-4.8
			c-0.2,4.4-1.8,9.9-1.1,14.5c-1-1.1-1.4-2.4-2.4-3.5c1,10.4-5.4,19.9-10.7,28.1c-0.1,0.1-0.1,0.2-0.2,0.3
			c-0.3-3.8,0.4-6.3,1.3-10.3c-0.1-0.2-2.2,1.5-2.2,1.3c0.5-2.6,1.7-5,2-7.4c-0.4,0.8-2.7,2.9-3.3,3.4c1.8-6.5,0.1-6.6-0.6-11.6
			c-1.8-0.6-0.6,3.5-0.8,3.7c-0.2-0.2-0.4-0.5-0.6-0.7c-1.7-2-2.5-4.1-5.4-5c0,0-1,1.9-1.1,1.9c1,2.3,2.9,5.1,3.9,7.3
			c-2.1-0.6-4.9-1.2-6.5-1.8c1.4,1.7,3.6,4,5.2,5.7c-1.1-0.2-5-0.7-6.8-0.9c5.3,5.3,8.1,10.4,8.8,15.2c0.8,5.8-1.6,11.2-6.4,16.5
			c-0.2,0.2-0.3,0.3-0.5,0.5c-1.2,1.2-2.5,2.4-4,3.6c1.3,0.8,2.4,1.8,3.2,2.9c9.3-12.2,18.5-18,34.8-11.7c0,0-2.4-2.9-2.4-2.9
			c2.8,0.6,5.7,2,8.5,2c-0.2-0.2-0.4-0.4-0.6-0.6C133.9,45.4,123.9,45.7,115.2,48.2z"/>
		<path class="st1" d="M150.2,11c0.2,0-1.3-2.5-1.2-2.3c-0.7,0.5-2.3,3-2.9,3.2c2.9-5.7,5.5-12.3,6.6-18.5c-1.7,2.9-4.1,5.3-5.9,8
			c1.4-5.4,0.7-11.4,1-16.6c-0.8,1.4-1.7,2.9-2.6,4.4c-0.3,1.1-0.7,2.2-1.1,3.3c-0.7,7.4-2.6,13.3-6.3,20c1.5-1.3,3-2.6,4.4-4.2
			c-0.6,4.4-4.4,8-8.1,10.9c1.9-0.7,4.7-1.2,6.8-2.2c-3.5,3.1-7.6,6.2-10.2,10.1c1-0.2,2-0.5,2.9-0.8c3.2-2.3,6.7-4.1,10.7-5.4
			c-2.3,0.7-4.4,1.3-6.8,1.8C143,20,146.6,15.2,150.2,11z"/>
		<path class="st1" d="M133.5,49.1c-9.1-1.4-24.4,0.3-31.9,7.9c-0.2,0.2-0.3,0.3-0.5,0.5c-1.2,1.3-2.2,2.8-2.9,4.4
			c0.8,0.6,1.5,1.4,2.1,2.2c9.3-12.2,18.5-18,34.8-11.7c0,0-2.4-2.9-2.4-2.9c2.8,0.6,5.7,2,8.5,2c-0.2-0.2-0.4-0.4-0.6-0.6
			C138.2,50.1,135.8,49.5,133.5,49.1z"/>
		<path class="st1" d="M136.7,40.7c2.4-1,5.8-2.2,8-4c-1.5,0.2-3.8,0.5-5.3,0.9c5.9-4.5,13.7-7.9,19-12.7c-0.1-0.2-0.2-0.5-0.3-0.8
			c-2,0.9-5.9,1.5-8.4,2.4c1.4-2.1,2.4-4.3,3.7-6.5c-0.1,0-0.1-0.8-0.1-1.2c-4.2,2.8-7.9,6.8-11.8,10.3c0.6-0.2,1.7,0.1,2,0.3
			c-2.2,1.2-4.3,2.7-6.5,3.7c1.2-0.3,2.4-0.4,3.5-0.8c-1.2,0.9-6.5,3.8-9.6,4.9c1.4-0.1,3.5,0.1,4.8,0c-2.9,1-5.6,2.4-8.7,3.2
			c1.7,0.2,3.5,1,5.2,1.2c-3.9,0.7-8.2,1.9-12,3.2c0,0,0.1,0,0.1,0c6.1-2.3,14-0.3,21-1.2C140.9,42.1,137.7,41.5,136.7,40.7z"/>
		<path class="st2" d="M107.1,32.7c0.2,0.1,1.2,1.3,1.3,1.5c-0.7-1.7-0.8-5.1-1.3-6.7c0.7,0,1.3,0.8,2,0.8c-0.3-2.4-0.3-5.5-1.4-7.7
			c0.8,0.4,0.5,1,1.1,1.6c0.8-1.4,1.2-2.8,1.2-4.2c-1.7-2-2.5-4.1-5.4-5c0,0-1,1.9-1.1,1.9c1,2.3,2.9,5.1,3.9,7.3
			c-2.1-0.6-4.9-1.2-6.5-1.8c1.4,1.7,3.6,4,5.2,5.7c-1.1-0.2-5-0.7-6.8-0.9c5.3,5.3,8.1,10.4,8.8,15.2
			C109.2,37.9,108.9,35.2,107.1,32.7z"/>
		<path class="st2" d="M127.9,19.6c1.7-3.5,2.3-7.3,3.2-11c0.1,0.7,0,1.6,0.1,2.2c1.2-1.8,2.9-3.6,3.9-6c-0.3,1.2-0.6,2.6-1,3.9
			c2.5-3.3,4-6.6,5.2-10.1c-0.5,0.7-0.9,1.4-1.4,2.1c-0.4-1.6-1.1-4.2-1.4-5.5c-0.7,3.2-2.8,6.6-3.7,9.8c-1.1-1.4-3.3-3.6-4.2-4.8
			c-0.2,4.4-1.8,9.9-1.1,14.5c-1-1.1-1.4-2.4-2.4-3.5c1,10.4-5.4,19.9-10.7,28.1c-0.1,0.4-0.2,0.9-0.3,1.3
			c6.3-2.4,11.1-16.6,13.8-22.4C128,18.2,127.8,19.5,127.9,19.6z"/>
	</g>
	<g>
		<path class="st4" d="M96.3,52.6c0-0.4-0.1-0.9-0.1-1.3c-0.1-1.2-0.2-2.3-0.3-3.4c0-0.3,0-0.6-0.1-0.8c0-0.5,0-1,0-1.5
			c0-0.2,0-0.5,0-0.7c0-0.9,0.1-1.7,0.3-2.6c0,0,0,0,0,0c0.1-0.4,0.1-0.8,0.2-1.3c0.2-0.8,0.4-1.7,0.7-2.5c0.1-0.4,0.3-0.8,0.4-1.2
			c0.1-0.4,0.3-0.8,0.4-1.2c1.2-3.3,2.6-6.1,3.2-8.3c0.1-0.4,0.2-0.8,0.2-1.1c0-0.3-0.1-0.3-0.2-0.2c-0.9,0.5-4.1,5.8-4.1,4.4
			c0.5-17.1,2.9-15.9,5.2-26.5c0.3-1.2-4.6,5.6-4.2,4.2C97.7,9,97.5,9,97.5,8.9c-0.1-0.1-0.1-0.3-0.1-0.5c0,0,0,0,0,0
			c0.2-2.9,3.5-15.1,3.2-14.9c1.1-2.5,2-5.3,2.7-8.1c-1.7,2.3-3.8,4.6-5.5,6.9c0.5-5,0.5-10.8,2.3-16.2c-0.3,0.4-1.3,1.2-1.4,1.3
			c0.6-6.6-0.2-13.3-3.2-19c0,0.1-1.3,1.8-2.1,1.8c-0.6-2.6-0.9-5.3-1.2-8.2c-0.2,0.5-0.5,1.1-0.8,1.6l-0.2,0.3
			c-0.6,1.3-1.3,2.6-1.8,4.2c-0.7-2.6-2-5.1-3-7.7c-0.3-0.6-0.5-1.3-0.7-2c-0.1,6.8-0.5,14.5-0.3,21.5c-0.2-0.3-3.8-2-3.9-2
			c1.3,3.1,2,6.8,3.4,10c-1.8-0.9-3.6-2.4-5.6-3.3c3.7,7.8,13,12.2,13.6,35.1c0,1.5,0,3,0,4.7c-1.1-5.3-3-9.7-5-13.4
			c-3.1-5.6-6.5-9.7-8.4-13.3c-0.1,0.5-0.5,1.2-0.4,1.2C74.5-15,70-19.5,65.8-24.2c-0.4,3.9,0.6,7.5,2.6,10.5c1.9,3,4.6,5.5,7.8,7.4
			c-1.8-0.1-2.9-1-4.3-1.7c1.8,2.4,4.2,4.4,6,6.7c-0.5,0.1-5.2,0-5.4-0.1C87.4,8.9,96.6,16.5,92.4,36c-2.5-7.5-1.8-13.1-4-20.7
			c0,0.8-0.5,3.6-0.7,4c-0.5-0.8-1-1.8-1.5-2.8c-1-1.8-2.1-3.8-3.3-5.3c-0.4,0.4-0.1,3.7-1.5,3.5c-1.7-1.1-3.3-4.3-4.8-5.1
			c-0.2-0.1-0.5,2.4-0.8,2.4c-2.6-2.1-5.2-4.7-7.5-6.5c0.8,2.1,1.9,4.1,3.3,6c2.4,3.1,5.5,5.8,9.2,7.6c-0.1,0.3-2.8-0.9-2.9-0.7
			c0.6,1.5,4.2,3.5,5.2,4.9c-1.3,0-4.1-0.5-5.5-0.2c14.7,8,16.6,25,12.1,35.6c0.7,0,1.4,0.1,2.2,0.3c0,0,0,0,0,0
			c0.3,0,0.6,0.1,0.8,0.2c0.3,0.1,0.6,0.2,0.8,0.3c0.2,0.1,0.4,0.1,0.6,0.2c0.1,0.1,0.3,0.1,0.4,0.2c0.7,0.3,1.4,0.6,2,1l0.1,0
			c0.1-1.8,0-3.8-0.2-5.7C96.5,54.3,96.4,53.4,96.3,52.6z"/>
		<path class="st1" d="M101,27.9c0-0.4,0-0.9,0-1.3c-0.9,0.5-4.1,5.8-4.1,4.4c0.5-17.1,2.9-15.9,5.2-26.5c0.3-1.2-4.6,5.6-4.2,4.2
			C97.7,9,97.5,9,97.5,8.9c0.1,1.8,0.2,3.6-0.1,5.5c0.2,0.3,1.1-1.1,1.4-0.8c-3.4,12.1-3.6,24.2-5.2,36.6c-0.4,3.1-1.3,5.9-1.7,8.7
			c1.6,0.3,3.2,1,4.7,1.9c0.2-5.8-0.8-11.4-0.8-15.2C95.8,38.5,100,31.9,101,27.9z"/>
		<path class="st1" d="M100.7-6.6c1.1-2.5,2-5.3,2.7-8.1c-1.7,2.3-3.8,4.6-5.5,6.9c0.5-5,0.5-10.8,2.3-16.2
			c-0.3,0.4-1.3,1.2-1.4,1.3c0.6-6.6-0.2-13.3-3.2-19c0,0.1-1.3,1.8-2.1,1.8c-0.6-2.6-0.9-5.3-1.2-8.2c-0.2,0.5-0.5,1.1-0.8,1.6
			c0,0.1,0.1,0.2,0.1,0.3l-0.1-0.2l-0.1,0.3c0.1,0.1,0.2,0.2,0.4,0.3c2,6.3,1.7,13.1,0.9,19.8c0.8-1.8,1.9-3.5,2.6-5.3
			c0.3,3.7,0.6,7.7-0.3,11.6c0.5-0.2,0.6-1.6,1.1-1.8c-0.2,4.4-0.8,8.9-1.3,13.3c0.1,0.3,0.9-0.9,1.1-0.6c-0.7,5.9,1,11.4,1.6,17
			C97.7,5.5,100.9-6.7,100.7-6.6z"/>
		<path class="st2" d="M94.9,8.4c-0.8-7.8-2.6-19.4-6.7-26.1c0.9,0.6,1.9,1.2,2.7,1.8c-1.1-3-2.7-5.9-4.4-8.7c0.9,0.6,1.7,1.2,2.6,2
			c-0.8-1.7-1.3-4.8-1.8-6.2c0.4,0.3,0.5,1.4,0.9,1.6c0.8-7.3-1.3-14.9-1.7-22.4c-0.3-0.6-0.5-1.3-0.7-2c-0.1,6.8-0.5,14.5-0.3,21.5
			c-0.2-0.3-3.8-2-3.9-2c1.3,3.1,2,6.8,3.4,10c-1.8-0.9-3.6-2.4-5.6-3.3c3.7,7.8,13,12.2,13.6,35.1c0.4,1.8,0.9,3.6,1.6,5.3
			C95.2,12.8,95.1,10.6,94.9,8.4z"/>
		<path class="st2" d="M86.2,16.5c-1-1.8-2.1-3.8-3.3-5.3c-0.4,0.4-0.1,3.7-1.5,3.5c-1.7-1.1-3.3-4.3-4.8-5.1
			c-0.2-0.1-0.5,2.4-0.8,2.4c-2.6-2.1-5.2-4.7-7.5-6.5c0.8,2.1,1.9,4.1,3.3,6c3.9,2,7.8,3.6,10.8,4.1c1.1,1.5,2.6,1.9,3.4,4
			C86.1,18.6,86.2,17.5,86.2,16.5z"/>
		<path class="st2" d="M88.1,0.9c-3.1-5.6-6.5-9.7-8.4-13.3c-0.1,0.5-0.5,1.2-0.4,1.2C74.5-15,70-19.5,65.8-24.2
			c-0.4,3.9,0.6,7.5,2.6,10.5c0.3-0.5,0.5-1,0.9-1.5c0.1,0,0.2-0.1,0.4-0.1C75.8-12.8,83.1-5.3,88.1,0.9z"/>
	</g>
	<g>
		<path class="st5" d="M26.7,221.6c4-5.3,7.8-10.7,11.4-16.2c2.9-4.4,5.8-8.8,8.6-13.3c0.3-0.4,0.5-0.8,0.8-1.2
			c11.3-18.1,21.6-36.7,32.4-55.4c0.2-0.3,0.4-0.6,0.5-0.9c1.4-2.5,2.9-4.9,4.3-7.3c0.1-0.2,0.3-0.5,0.4-0.7
			c0.2-0.4,0.5-0.7,0.7-1.1c2.1-3.3,4.6-6.5,7.2-9.9l0.8-1c2.6-3.3,5.3-6.6,7.7-9.9c0.2-0.3,0.4-0.5,0.6-0.8
			c2.5-3.6,4.8-7.2,6.4-10.8c0.1-0.3,0.3-0.6,0.4-0.9c2-4.8,2.7-9.7,1.4-14.7c-0.2-0.5-0.3-1-0.5-1.5c-0.4-1.1-0.9-2.2-1.5-3.3
			c-1.6-3-4.1-6.1-7.6-9.1c-0.4-0.3-0.8-0.7-1.2-1c-3.5-2.7-7.1-4.5-10.6-5.1c-3.3-0.6-6.5-0.2-9.5,1.2c-3,1.4-5.9,3.9-8.3,7.5
			c-1.1,2.2-1.7,3-2.8,5.2c-0.3,0.5-0.5,1-0.7,1.4c-1.7,3.3-3.4,6.6-5,10l-0.4,0.9c-4.9,10-9.7,20.4-14.1,30.9
			c-0.2,0.4-0.3,0.8-0.5,1.2c-2.5,6-4.9,12.1-7.3,18.2c-0.1,0.4-0.3,0.8-0.4,1.2c-4.5,11.9-8.5,24.1-11.9,36.2
			c-0.5,1.8-1,3.7-1.5,5.6c-0.1,0.2-0.1,0.4-0.2,0.6c-1.2,4.4-2.2,8.7-3.2,13.1c-0.2,0.7-0.3,1.4-0.5,2.1
			c-1.7,7.9-3.1,15.7-4.2,23.5c-0.5,3.8-1.1,7.5-0.8,11.1c0.1,1.6,0.3,3.3,0.8,5c2.9-3.6,5.6-7.1,8.3-10.7
			C26.6,221.7,26.6,221.7,26.7,221.6z"/>
		<g>
			<path class="st6" d="M26.2,177.7c1.7,0.5,3.4,1,5.1,1.4c-1.5-0.7-3.2-1.4-5-2C26.3,177.3,26.2,177.5,26.2,177.7z"/>
			<path class="st6" d="M20.6,217.6c1.6,1.7,3.7,3.1,6,4.1c0.2,0.1,0.3,0.1,0.5,0.2c-0.1-0.1-0.3-0.2-0.4-0.3
				C24.5,219.9,23,218.8,20.6,217.6z"/>
			<path class="st6" d="M78.1,133.7c0.7,0.6,1.3,1.2,1.8,1.8c0.2-0.3,0.4-0.6,0.5-0.9C79.8,134.2,79,133.9,78.1,133.7z"/>
			<path class="st6" d="M83.8,124.2c0,0.1-0.4,0-0.4,0c0.7,0.9,1.3,1.7,1.8,2.4c0.2-0.4,0.4-0.7,0.7-1.1
				C85.2,125,84.5,124.5,83.8,124.2z"/>
			<path class="st6" d="M84.6,110.5c2.4,1.6,5.9,3.1,8.5,5.1c0.3-0.3,0.5-0.7,0.8-1C90.9,113,87.6,111.7,84.6,110.5z"/>
			<path class="st6" d="M99.5,102.2c0.7,0.8,1.4,1.6,2.1,2.5c0.2-0.2,0.4-0.5,0.6-0.7C101.4,103.2,100.5,102.6,99.5,102.2z"/>
			<path class="st6" d="M102.5,85.8c1.4,2.8,4,5.1,6,7.3c0.1-0.3,0.3-0.6,0.4-0.9C106.8,90,105,87.6,102.5,85.8z"/>
			<path class="st6" d="M93.2,88.4c-2.7-1.9-5.7-3.5-8.3-4.6C87.6,86.3,90.9,88.1,93.2,88.4z"/>
			<path class="st6" d="M94,88.4c-0.2,0-0.5,0-0.8-0.1c0.7,0.5,1.5,1,2.1,1.5L94,88.4z"/>
			<path class="st6" d="M89.8,104l2.2,0.6c-4.2-3.1-8.8-6.5-13.3-8.3C81.8,99.4,86.3,102.3,89.8,104z"/>
			<path class="st6" d="M49.9,129.5c3.1,1.9,7.1,3.5,10.2,4.5c-3.3-3.5-8.3-6.1-13.2-6.8L49.9,129.5z"/>
			<path class="st6" d="M59.8,149.1c3,2.1,5.6,3.9,9.2,4c-2.8-2.5-5.9-3.6-9.9-4.4L59.8,149.1z"/>
			<path class="st6" d="M32.3,170.3l8,5.5c1.3-0.1,1.6,1.4,2.9,0.1C40.4,173.5,36.2,171.3,32.3,170.3z"/>
			<path class="st6" d="M44.9,159.5c0.8,0.9,2.2,1.1,3.2,2l8.8,2.2C52.5,160.8,49.3,159.5,44.9,159.5z"/>
			<path class="st6" d="M69.7,115.7l-9-2.7c4,2.4,7.8,4.2,12.1,5.4C72.2,116.8,71,116.9,69.7,115.7z"/>
			<path class="st6" d="M62.1,83.8l4.6,3.3c1.4,0.5,2.8,1.2,4.5,1.7c-2.6-2.5-5.4-4.3-8.7-5.9C62.4,83.2,62.2,83.5,62.1,83.8z"/>
			<path class="st6" d="M68.3,71.5c-0.3,0.5-0.5,1-0.7,1.5c1.1,0.4,2.2,0.9,3.4,1.1C70.5,72.7,69.5,72.1,68.3,71.5z"/>
			<path class="st6" d="M88.4,68.6c1.4,0.4,5.2,2.1,6.7,2.2c-4.1-2.9-8.7-4.3-13.5-6.8L88.4,68.6z"/>
			<path class="st6" d="M104.4,73c0.4,2.3,2.2,2.6,4.2,4l1.8,0.6c-0.1-0.5-0.3-1-0.5-1.5C108,75,106.1,74,104.4,73z"/>
			<path class="st6" d="M58.2,99c1.9,0.7,4,2,5.6,2.7l7.5,2.4C67.1,100.9,62.7,98.1,58.2,99z"/>
			<path class="st6" d="M38.5,145c0.8,0.8,2.3,1.1,3,1.9l4.8,1.9C43.6,146.7,42.3,144.8,38.5,145z"/>
			<path class="st6" d="M39.5,187.7l4,2.7c1.2,0.6,2.2,1.2,3.1,1.7c0.3-0.4,0.5-0.8,0.8-1.2C44.9,189.5,42.2,188.4,39.5,187.7z"/>
			<path class="st6" d="M22.5,192.9c0.8,0.4,1.7,0.7,2.5,0.9l3.3,0c-1.8-1-3.6-2-5.4-3C22.8,191.5,22.7,192.2,22.5,192.9z"/>
			<path class="st6" d="M26,202.1l1.7,1.6c1.9,1,3.6,2.5,5.6,3.5C32.5,204,29.8,203.6,26,202.1z"/>
			<path class="st6" d="M47.5,116c1,0.3,1.9,0.5,3,0.7c0.2,0.1,0.4,0.2,0.5,0.3c-1-0.9-2-1.6-3-2.2C47.8,115.1,47.6,115.5,47.5,116z
				"/>
			<path class="st6" d="M39.8,135.3c1.7,0.4,3.4,0.8,5.1,1.1c-1.5-1.2-3-1.8-4.6-2.3C40.1,134.6,39.9,134.9,39.8,135.3z"/>
			<path class="st6" d="M67.6,128.6c2.1,0.7,4.2,1.5,6.4,1.8c-2.7-1.9-5.4-2.7-8.7-3.8L67.6,128.6z"/>
		</g>
		<path class="st7" d="M80.4,134.6c1.4-2.5,2.9-4.9,4.3-7.4c0.1-0.2,0.3-0.5,0.4-0.7c0.2-0.4,0.4-0.7,0.7-1.1
			c2.1-3.3,4.6-6.5,7.2-9.9c0.3-0.3,0.5-0.7,0.8-1c2.6-3.3,5.3-6.6,7.7-9.9c0.2-0.2,0.4-0.5,0.6-0.7c2.5-3.6,4.8-7.2,6.4-10.8
			c0.1-0.3,0.3-0.6,0.4-0.9c3.8-9.2,3.1-18.8-8.2-28.6c-0.4-0.4-0.8-0.7-1.2-1c11.4,19.4-14.4,52-76.4,157.6
			c-1.1,1.9-3.5,4.6-5.6,7.3c0.1,1.6,0.3,3.3,0.8,5c24.6-30.5,42.1-63.5,61.6-96.9C80,135.3,80.2,134.9,80.4,134.6z"/>
		<path class="st2" d="M88.9,57.6c-6.5-1.1-12.9,1.5-17.8,8.7c-17.2,32.4-32.8,68-43.2,105.3C56.2,99.6,77.1,62.2,88.9,57.6z"/>
		<path class="st8" d="M47.4,190.9c11.3-18.1,21.6-36.7,32.4-55.4c0.2-0.3,0.4-0.6,0.5-0.9c1.4-2.5,2.9-4.9,4.3-7.3
			c0.1-0.2,0.3-0.5,0.4-0.7c0.2-0.4,0.5-0.7,0.7-1.1c2.1-3.3,4.6-6.5,7.2-9.9l0.8-1c2.6-3.3,5.3-6.6,7.7-9.9
			c0.2-0.3,0.4-0.5,0.6-0.8c2.5-3.6,4.8-7.2,6.4-10.8c0.1-0.3,0.3-0.6,0.4-0.9c2-4.8,2.7-9.7,1.4-14.7c-0.2-0.5-0.3-1-0.5-1.5
			c-0.4-1.1-0.9-2.2-1.5-3.3c1.5,16.6-5.9,28-20.3,45.9C75,135,65.8,157,55.1,175c-6.2,10.3-11.7,20.3-17,30.4
			c2.9-4.4,5.8-8.8,8.6-13.3C46.9,191.7,47.1,191.3,47.4,190.9z"/>
	</g>
</g>
</svg>
