<?xml version="1.0" encoding="utf-8"?>
<!-- Generator: Adobe Illustrator 25.2.1, SVG Export Plug-In . SVG Version: 6.00 Build 0)  -->
<svg version="1.1" id="Layer_2" xmlns="http://www.w3.org/2000/svg" xmlns:xlink="http://www.w3.org/1999/xlink" x="0px" y="0px"
	 viewBox="0 0 200 200" style="enable-background:new 0 0 200 200;" xml:space="preserve">
<style type="text/css">
	.st0{fill:#FFAE64;}
	.st1{fill:#FF9830;}
	.st2{opacity:0.4;fill:#7F4912;}
	.st3{opacity:0.4;fill:#B06619;}
	.st4{opacity:0.3;fill:#FFFFFF;}
	.st5{opacity:0.15;fill-rule:evenodd;clip-rule:evenodd;}
	.st6{fill:#5BA100;}
	.st7{opacity:0.2;}
	.st8{fill:#6DC200;}
	.st9{fill:#72D900;}
	.st10{fill:#FFC866;}
</style>
<path class="st0" d="M63.7,120.6c5.8,10.9,13.6,32.1,12,33c-1.6,0.9-6-9.7-11.7-20.6c-5.8-10.9-8.3-20.4-8.3-21.4
	C55.7,109.8,57.9,109.7,63.7,120.6z"/>
<g>
	<g>
		<path class="st1" d="M72.7,147.9c-4.6-8.3-9.3-16.5-12.8-25.2c-1.5-3.6-2.8-7.3-4.1-11.1c-1.2,3.3-2.3,6.7-3.4,10.1
			c-0.1,0.4-0.2,0.8-0.4,1.2c-3.9,12.1-7.3,24.5-10.1,36.8c-0.4,1.9-0.8,3.7-1.2,5.6c-0.1,0.2-0.1,0.4-0.1,0.6
			c-0.9,4.4-1.8,8.8-2.5,13.2c-0.1,0.7-0.3,1.4-0.4,2.1c-1.3,8-2.4,15.8-3,23.7c-0.3,3.9-0.7,7.5-0.3,11.2c0.2,1.6,0.5,3.3,1,4.9
			c2.7-3.7,5.3-7.4,7.8-11.1c0,0,0.1-0.1,0.1-0.1c3.7-5.5,7.2-11.1,10.6-16.8c2.7-4.5,5.4-9.1,7.9-13.7c0.2-0.4,0.5-0.8,0.7-1.2
			c4.6-8.2,8.9-16.5,13.3-24.9C74.7,151.5,73.7,149.7,72.7,147.9z"/>
		<g>
			<path class="st2" d="M40.5,165.9c1.7,0.4,3.4,0.8,5.2,1.1c-1.5-0.7-3.2-1.2-5.1-1.7C40.6,165.5,40.6,165.7,40.5,165.9z"/>
			<path class="st2" d="M36.9,206.1c1.7,1.6,3.9,2.9,6.2,3.8c0.2,0.1,0.3,0.1,0.5,0.2c-0.1-0.1-0.3-0.2-0.4-0.3
				C40.9,208.1,39.4,207.1,36.9,206.1z"/>
			<path class="st2" d="M46.3,158.2l8.3,5.1c1.3-0.2,1.6,1.3,2.9,0C54.5,161,50.2,159.1,46.3,158.2z"/>
			<path class="st2" d="M58.3,146.8c0.8,0.8,2.2,1,3.3,1.8l8.9,1.8C66,147.7,62.7,146.6,58.3,146.8z"/>
			<path class="st2" d="M51.3,132.6c0.8,0.8,2.3,0.9,3.1,1.7l4.9,1.7C56.4,134.1,55,132.2,51.3,132.6z"/>
			<path class="st2" d="M54.3,175.2l4.1,2.5c1.2,0.6,2.2,1.1,3.2,1.5c0.2-0.4,0.5-0.8,0.7-1.2C59.9,176.8,57.1,175.8,54.3,175.2z"/>
			<path class="st2" d="M37.6,181.3c0.8,0.3,1.7,0.6,2.6,0.8l3.3-0.2c-1.9-0.9-3.7-1.8-5.5-2.7C37.9,179.9,37.7,180.6,37.6,181.3z"
				/>
			<path class="st2" d="M41.5,190.3l1.8,1.5c1.9,0.9,3.7,2.3,5.8,3.2C48.2,191.9,45.4,191.6,41.5,190.3z"/>
			<path class="st2" d="M52,122.9c1.7,0.4,3.5,0.6,5.1,0.9c-1.6-1.1-3.1-1.7-4.7-2.1C52.3,122.1,52.2,122.5,52,122.9z"/>
		</g>
		<path class="st3" d="M72.7,147.9c-0.2-0.3-0.3-0.6-0.5-0.8c-9.3,17.3-20.2,37.6-32.7,61.4c-1,2-3.3,4.7-5.2,7.5
			c0.2,1.6,0.5,3.3,1,4.9c15.8-21.8,28.3-44.5,40.3-67.8C74.7,151.5,73.7,149.7,72.7,147.9z"/>
		<path class="st4" d="M55.8,111.6c-5.4,15.7-10.1,31.8-13.9,48.1c5.5-16.1,10.6-30.6,15.5-43.4C56.9,114.8,56.3,113.2,55.8,111.6z"
			/>
		<path class="st5" d="M74.6,151.3c-1.7,3.6-3.5,7.1-5.3,10.5c-5.6,10.6-10.7,20.8-15.5,31.2c2.7-4.5,5.4-9.1,7.9-13.7
			c0.2-0.4,0.5-0.8,0.7-1.2c4.6-8.2,8.9-16.5,13.3-24.9C75.3,152.6,74.9,151.9,74.6,151.3z"/>
	</g>
</g>
<g>
	<g>
		<path class="st6" d="M237.8-7c-0.5-0.6-4.2-1.3-5.2-2c1.5-1.4,4.6-1.4,6.3-2.9c-0.4-0.1-2.4-0.1-3.4-0.1l0.1,0
			c3.4-1,7.5-3,10.8-3.9c-0.3,0,0.6-1.1,0.6-1.1c-3.7,0.6-8.6,0.1-12.8,0.5c-0.7,0.1-1.4,0.2-2.1,0.3c0.1,0,3-2.2,3.2-2.6
			c-1.3,0.1-4.3,1.2-5.4,0.8c0.9-0.8,1.8-1.6,2.7-2.4C244.3-30.6,250-33,266.5-36.2c-2-0.6-4.5-1.4-6.2-2.1c1.9-0.6,4.7,0,6.1-1.9
			c0-0.1-2.4-0.8-2.4-0.8c0.9-0.8,3.5-1.8,4.3-2.3c-5.6-0.2-10.1,0.3-14.9,3.1c-0.6,0.3-1.2,0.8-1.8,1.2c0.4-0.5,0.7-0.9,1.1-1.3
			c12.6-14.7,27.5,0.7,39.2-13c-3.6-0.1-7.7-1.3-11.4-1c4.5-1.1,9-3.6,13.2-5.1c-2.1-0.1-4.5-0.7-6.7-1.1c3.7-2.2,7.2-5.9,10.9-8.2
			c-2.1,0.7-5.5,1.1-7.6,1.7c0.7-0.7,1.4-1.5,2-2.3c2-2.4,3.9-5.2,6-7.5c0.5-0.5,0.9-1,1.4-1.4c-2.9,1.6-6.5,2.3-9.4,3.6
			c1.6-1.7,3.2-3.6,4.7-5.4c-4,3.9-9.1,6.9-14.4,8.9c1.5-1.7,2.8-3.6,4.5-5.4c-2.5,1-5.3,2.8-7.5,4.2c0.8-1.2,2.8-3.6,3.1-5
			c-0.1,0.1-0.3,0.3-0.3,0.3c-1.9,1.3-4.9,3.4-6.7,4.7c1.3-1.7,3.3-4.3,4.6-6.1c-8.5,5.6-13.4,13.7-18.6,21.9
			c0.9-3.9,1.5-7.8,2.7-11.7c-1.2,2.8-3.1,5.4-4.4,8c0.2-0.6,0-2.3,0.2-2.6c-1.1,1.4-1.9,3.7-3.5,4.6c0.8-5.2,2.4-12,4.6-17.2
			c-6.4,12.9-11.8,30.5-21.6,42.8c0,0-0.1,0.1-0.1,0.1c-4.4,5.6-9.8,10.1-16.5,12.6c3.7-5.7,8.3-10.9,13.4-15.5
			c1.5-1-2.7,1.5-3.9,2.2c3.5-3.4,6.3-7.7,9.6-11c-0.7-0.1-4.8,2.3-5.4,2.6c1.8-2,3.7-3.7,5.5-5.6c-0.9-0.3-3.9,2.1-4.9,2.4
			c2.4-2.4,4.1-5.1,6-8c-0.9,0.4-3,3-3.9,2.4c1.4-3,2.5-6.3,3.6-9.6c1.6-5,3-10,4.5-14.3c-4.9,6.6-8.3,15.8-10,22.9
			c1-4.1,1.1-8.9,1.8-12.9c-0.5,0.4-1.1,0.9-1.6,1.4c-5.2,5.3-7.5,14.8-8.8,22.8c-0.8-0.7-1.5-3.3-2.2-4.3c-0.8,2.5-0.5,5.5-1,8
			c-0.3,0.2-2-3.7-2.5-3.6c0.2,2.6,0.1,6.1,0.1,8.5c-1.3-2.6-3.2-5.3-4.6-8c8.1,26.3-20.8,43.5-31.4,48.9c0.7,0.5,1.3,1.2,1.9,1.9
			c0.1,0.1,0.2,0.2,0.2,0.3c0.2,0.2,0.3,0.4,0.5,0.6c0.5,0.7,0.9,1.3,1.3,2.1c4.1-2.5,9-8.1,13.2-10.5C213.6-2.1,228-0.3,237.8-7z"
			/>
		<path class="st7" d="M237.8-7c-0.5-0.6-4.2-1.3-5.2-2c1.5-1.4,4.6-1.4,6.3-2.9c-0.4-0.1-2.4-0.1-3.4-0.1l0.1,0
			c3.4-1,7.5-3,10.8-3.9c-0.3,0,0.6-1.1,0.6-1.1c-3.7,0.6-8.6,0.1-12.8,0.5c-7.6,7.1-18.1,14.2-19.7,4.8C208.9-9.6,208.1-3,203.9,1
			c-4.7,4.5-11.3,6.2-16.4,10.4c0.8,0.9,1.5,1.9,2,3c4.1-2.5,9-8.1,13.2-10.5C213.6-2.1,228-0.3,237.8-7z"/>
		<path class="st7" d="M266.5-36.2c-2-0.6-4.5-1.4-6.2-2.1c1.9-0.6,4.7,0,6.1-1.9c0-0.1-2.4-0.8-2.4-0.8c0.9-0.8,3.5-1.8,4.3-2.3
			c-5.6-0.2-10.1,0.3-14.9,3.1c1.1,0.2,2.1,0.3,3.3,0.2c-0.7,0.1-1.4,0.4-1.7,0.6c1.4,0,2.6-0.4,4,0.1c-10.1,3.3-20.5,10.7-27,19.1
			c0.1-0.1,0.2-0.2,0.4-0.2C244.3-30.6,250-33,266.5-36.2z"/>
		<path class="st7" d="M291.8-53.3c-3.6-0.1-7.7-1.3-11.4-1c4.5-1.1,9-3.6,13.2-5.1c-2.1-0.1-4.5-0.7-6.7-1.1
			c3.7-2.2,7.2-5.9,10.9-8.2c-2.1,0.7-5.5,1.1-7.6,1.7c0.7-0.7,1.4-1.5,2-2.3c-4,3.3-8,7.1-11.6,9.5c0.7,0.4,1.6-0.2,2.3,0.2
			c-3.3,1.3-6.6,3.8-9.9,5.1c1.2,0.2,3,0.6,4.5,0.8c-8.6,3.6-21.4,3.8-26.1,13c0.4,0.1,0.8,0.1,1.2,0.2
			C265.2-55,280.1-39.7,291.8-53.3z"/>
		<path class="st4" d="M241-59.9c1.6-5,3-10,4.5-14.3c-4.9,6.6-8.3,15.8-10,22.9c1-4.1,1.1-8.9,1.8-12.9c-0.5,0.4-1.1,0.9-1.6,1.4
			c-1.5,3.7-2.6,6.9-2.9,8c0.1,0.1,1-0.9,1.2-0.8c0.1,1.3-0.1,3,0.2,4.2c-0.1-0.1,0.8-2.2,0.9-2.4c0,1.2-0.1,2.5,0.2,3.7
			C237.4-53.2,239.2-56.6,241-59.9z"/>
		<path class="st4" d="M255-55.8c0.7-0.1,0.9,2,1,2.3c0.8-0.8,1.7-2,2.5-2.5c-0.2,1-0.3,2.2-0.6,3.1c5.8-3.9,9.6-11.8,14.1-17.1
			c0.6,0.1,1.1-0.6,2.6-1.2c0.2,0.1-0.1,1.6,0.1,1.9c1.1-0.5,2.4-1.3,3.5-1.7c-0.6,0.8-1.3,2.2-2.1,3.1c1.7-0.7,3.8-1.1,5.5-1.9
			c-0.2,0.1-0.4,0.4-0.6,0.5c1.9-0.9,4.3-1.5,6.2-2.5c-0.4,0.7-1,1.8-1.3,2.4c4.6-2.4,8.6-4.3,12.4-7.2c0.5-0.5,0.9-1,1.4-1.4
			c-2.9,1.6-6.5,2.3-9.4,3.6c1.6-1.7,3.2-3.6,4.7-5.4c-4,3.9-9.1,6.9-14.4,8.9c1.5-1.7,2.8-3.6,4.5-5.4c-2.5,1-5.3,2.8-7.5,4.2
			c0.8-1.2,2.8-3.6,3.1-5c-0.1,0.1-0.3,0.3-0.3,0.3c-1.9,1.3-4.9,3.4-6.7,4.7c1.3-1.7,3.3-4.3,4.6-6.1c-8.5,5.6-13.4,13.7-18.6,21.9
			c0.9-3.9,1.5-7.8,2.7-11.7c-1.2,2.8-3.1,5.4-4.4,8c0.2-0.6,0-2.3,0.2-2.6c-1.1,1.4-1.9,3.7-3.5,4.6c0.8-5.2,2.4-12,4.6-17.2
			c-6.4,12.9-11.8,30.5-21.6,42.8C243.9-40.1,248-48.7,255-55.8z"/>
	</g>
	<g>
		<path class="st8" d="M211.4,11.2c2.1-0.8,4-1,6-0.8c6.4,0.8,12.5,6.3,19.1,8.9c0.4-1.4-2.1-3.5-2.6-4.7c2.6,0.3,6.2,0.8,8.9,0.2
			c-1.4-0.6-3.5-1.3-5.1-1.7c7.3-1.2,15.8-0.5,22.7-2.2c0-0.3,0.1-0.5,0.1-0.8c-2.2-0.2-6-1.4-8.6-1.9c2.2-1.2,4.2-2.7,6.3-4
			c-0.1,0,0.3-0.7,0.4-1.1c0.1-0.2,0.1-0.3,0-0.3c-6.9,1.3-14.2,0.7-21.5,0.4c0.3,0.1,1-1,0.9-1.1c-5.1,0-10.5,0.9-15.3,2.5
			c5-2,10.1-3.6,15.3-4.3c3.9-0.5,7.9-0.5,12,0.3c-2.3-0.4-4.5-0.9-6.8-1.6c5.9,0.3,11.3-2.2,16.5-4.2c0.2,0.1,0.1-2.8,0-2.7
			c-0.9,0.2-3.4,1.5-4,1.4c5.3-3.6,10.6-8.3,14.5-13.2c-2.8,1.8-6.1,2.8-9,4.3c3.7-4.1,6-9.8,8.7-14.2c-1.4,0.8-2.8,1.7-4.3,2.6
			c-3.2,1.9-6.5,3.8-9.7,5.6c-0.7,0.4-1.5,0.8-2.2,1.3c0.4-1.6,1-4.2,1.3-5.5c-2.1,2.5-5.6,4.4-7.8,6.9c-0.3-1.7-1.2-4.7-1.5-6.2
			c-2.2,3.8-6.3,7.9-7.8,12.3c-0.4-1.4-0.1-2.8-0.5-4.2c-4,9.7-14.1,15-22.7,19.8c-0.1,0.1-0.2,0.1-0.4,0.2c1.5-3.5,3.3-5.4,6-8.5
			c0-0.3-2.7,0.3-2.6,0.1c1.7-2.1,3.9-3.6,5.3-5.5c-0.7,0.5-3.7,1.3-4.5,1.4c4.6-4.9,3.2-5.7,5-10.5c-1.3-1.3-2.2,2.8-2.5,2.8
			c-0.1-0.3-0.2-0.6-0.2-0.9c-0.5-2.5-0.3-4.8-2.4-7c0,0-1.8,1.2-1.8,1.1c-0.2,2.5,0.1,5.9,0,8.3c-1.6-1.5-3.8-3.4-4.9-4.7
			c0.5,2.2,1.3,5.2,1.9,7.5c-0.9-0.7-4-3-5.6-4c2.2,7.2,2.3,13,0.6,17.6c-2.1,5.4-6.7,9.2-13.4,11.5c-0.2,0.1-0.4,0.1-0.6,0.2
			c-1.6,0.5-3.4,1-5.2,1.4c0.7,1.3,1.2,2.7,1.5,4.1c13.9-6.4,24.8-7.1,36.2,6c0,0-0.8-3.7-0.8-3.7c2.2,1.8,4.1,4.4,6.6,5.8
			c-0.1-0.3-0.2-0.5-0.3-0.8C229.2,17.5,220.3,13.1,211.4,11.2z"/>
		<path class="st7" d="M259.8-5.2c0.2,0.1,0.1-2.8,0-2.7c-0.9,0.2-3.4,1.5-4,1.4c5.3-3.6,10.6-8.3,14.5-13.2c-2.8,1.8-6.1,2.8-9,4.3
			c3.7-4.1,6-9.8,8.7-14.2c-1.4,0.8-2.8,1.7-4.3,2.6c-0.8,0.8-1.6,1.6-2.5,2.4c-4.1,6.2-8.6,10.5-14.9,14.7c1.9-0.5,3.9-0.9,5.8-1.6
			c-2.6,3.6-7.7,5-12.2,5.8c2,0.3,4.7,1.1,7,1.3c-4.5,1.1-9.6,1.9-13.7,4.1c1,0.3,2,0.5,3,0.7c3.9-0.5,7.9-0.5,12,0.3
			c-2.3-0.4-4.5-0.9-6.8-1.6C249.2-0.6,254.6-3.2,259.8-5.2z"/>
		<path class="st7" d="M227.1,20.6c-7.4-5.5-21.6-11.2-31.9-8.1c-0.2,0.1-0.4,0.1-0.6,0.2c-1.7,0.6-3.2,1.4-4.6,2.6
			c0.4,1,0.7,1.9,0.9,2.9c13.9-6.4,24.8-7.1,36.2,6c0,0-0.8-3.7-0.8-3.7c2.2,1.8,4.1,4.4,6.6,5.8c-0.1-0.3-0.2-0.5-0.3-0.8
			C230.8,23.7,229,22,227.1,20.6z"/>
		<path class="st7" d="M233.9,14.7c2.6,0.3,6.2,0.8,8.9,0.2c-1.4-0.6-3.5-1.3-5.1-1.7c7.3-1.2,15.8-0.5,22.7-2.2
			c0-0.3,0.1-0.5,0.1-0.8c-2.2-0.2-6-1.4-8.6-1.9c2.2-1.2,4.2-2.7,6.3-4c-0.1,0,0.3-0.7,0.4-1.1c-5,0.4-10.2,2.2-15.2,3.6
			c0.6,0.1,1.5,0.9,1.6,1.2c-2.5,0-5,0.3-7.5,0.2c1.2,0.3,2.3,0.8,3.5,1c-1.5,0.2-7.5,0.3-10.7-0.2c1.3,0.6,3.1,1.7,4.2,2.3
			c-3.1-0.5-6.1-0.5-9.2-1.3c1.4,1,2.6,2.5,4,3.5c-3.8-1.2-8.1-2.2-12.1-2.8c0,0,0.1,0,0.1,0.1c6.4,0.8,12.5,6.3,19.1,8.9
			C236.9,17.9,234.4,15.8,233.9,14.7z"/>
		<path class="st4" d="M211.6-6.3c0.1,0.2,0.4,1.7,0.5,1.9c0.2-1.8,1.7-4.8,2-6.5c0.6,0.4,0.7,1.3,1.3,1.7c0.9-2.2,2.3-5,2.4-7.5
			c0.5,0.7,0,1.2,0.2,1.9c1.3-0.9,2.3-1.9,3-3.2c-0.5-2.5-0.3-4.8-2.4-7c0,0-1.8,1.2-1.8,1.1c-0.2,2.5,0.1,5.9,0,8.3
			c-1.6-1.5-3.8-3.4-4.9-4.7c0.5,2.2,1.3,5.2,1.9,7.5c-0.9-0.7-4-3-5.6-4c2.2,7.2,2.3,13,0.6,17.6C210.9-0.7,211.9-3.2,211.6-6.3z"
			/>
		<path class="st4" d="M236.1-8.1c3.1-2.3,5.5-5.4,8-8.2c-0.2,0.7-0.7,1.4-0.9,2c1.9-1,4.2-1.8,6.2-3.4c-0.9,0.9-1.7,2-2.7,3
			c3.7-1.7,6.7-4,9.4-6.5c-0.7,0.4-1.5,0.8-2.2,1.3c0.4-1.6,1-4.2,1.3-5.5c-2.1,2.5-5.6,4.4-7.8,6.9c-0.3-1.7-1.2-4.7-1.5-6.2
			c-2.2,3.8-6.3,7.9-7.8,12.3c-0.4-1.4-0.1-2.8-0.5-4.2c-4,9.7-14.1,15-22.7,19.8c-0.3,0.3-0.6,0.7-0.9,1
			c6.7,0.8,17.6-9.4,22.8-13.3C236.8-9.3,236-8.3,236.1-8.1z"/>
	</g>
	<g>
		<path class="st9" d="M192.6,6.2c0.2-0.4,0.4-0.8,0.5-1.2c0.5-1.1,0.9-2.1,1.4-3.1c0.1-0.3,0.2-0.5,0.3-0.8
			c0.2-0.5,0.5-0.9,0.7-1.4c0.1-0.2,0.2-0.4,0.3-0.6c0.4-0.7,0.9-1.5,1.5-2.2c0,0,0,0,0,0c0.3-0.3,0.5-0.7,0.8-1
			c0.6-0.7,1.2-1.3,1.8-1.9c0.3-0.3,0.6-0.6,0.9-0.9c0.3-0.3,0.6-0.6,0.9-0.8c2.6-2.3,5.2-4.2,6.7-5.8c0.3-0.3,0.5-0.6,0.7-0.9
			c0.1-0.2,0.1-0.3-0.1-0.3c-1,0-6.3,3.2-5.6,1.9c8.4-14.8,10.1-12.7,17.1-21c0.8-0.9-6.7,2.8-5.7,1.7c-0.4,0.2-0.5,0.2-0.5,0.1
			c0-0.1,0.1-0.3,0.2-0.5c0,0,0,0,0,0c1.5-2.4,10.2-11.7,9.9-11.7c2.2-1.7,4.2-3.7,6.2-5.9c-2.6,1.2-5.5,2.3-8.1,3.5
			c2.8-4.2,5.5-9.3,9.6-13.2c-0.4,0.2-1.7,0.5-1.8,0.5c3.6-5.5,6-11.8,6.1-18.3c0,0.1-2,1-2.7,0.6c0.6-2.6,1.7-5.1,2.8-7.8
			c-0.5,0.4-1,0.7-1.5,1.1l-0.3,0.2c-1.2,0.8-2.4,1.7-3.5,2.8c0.6-2.6,0.7-5.5,1-8.2c0.1-0.7,0.2-1.4,0.3-2.1
			c-3.3,6-7.3,12.5-10.4,18.9c0-0.4-2.4-3.5-2.5-3.6c-0.3,3.4-1.4,6.9-1.7,10.4c-1.1-1.6-2-3.8-3.4-5.5c-0.4,8.6,5.8,16.9-4.5,37.4
			c-0.7,1.3-1.4,2.7-2.2,4.1c1.5-5.2,1.9-10,1.9-14.2c-0.1-6.4-1.2-11.6-1.1-15.7c-0.3,0.4-1,0.9-1,0.9c-2.4-5.7-4.3-11.8-5.7-17.9
			c-2.2,3.3-3,6.9-2.7,10.5c0.2,3.5,1.5,7,3.4,10.2c-1.5-0.9-2.1-2.3-3-3.5c0.4,3,1.6,5.9,2.1,8.8c-0.5-0.2-4.6-2.4-4.7-2.6
			c8.4,16,12.9,27,0,42.3c1.3-7.8,4.6-12.4,6.2-20.2c-0.4,0.7-2.1,3-2.5,3.2c0-1,0-2.1,0-3.2c0-2.1-0.1-4.3-0.4-6.2
			c-0.6,0.1-1.8,3.2-2.9,2.4c-0.9-1.8-0.9-5.3-1.8-6.7c-0.1-0.2-1.6,1.9-1.9,1.8c-1.3-3-2.4-6.6-3.6-9.3c-0.3,2.3-0.3,4.5,0.1,6.8
			c0.6,3.9,2.2,7.7,4.5,11.1c-0.2,0.3-2-2.1-2.2-2c-0.2,1.6,2.1,5,2.3,6.8c-1.2-0.6-3.4-2.4-4.7-2.8c9.2,14,2.9,29.9-6.1,37.1
			c0.6,0.3,1.2,0.8,1.8,1.2c0,0,0,0,0,0c0.2,0.2,0.4,0.4,0.6,0.6c0.2,0.2,0.4,0.4,0.6,0.6c0.2,0.1,0.3,0.3,0.4,0.5
			c0.1,0.1,0.2,0.2,0.3,0.3c0.5,0.6,0.9,1.2,1.3,1.8l0,0c0.9-1.6,1.8-3.3,2.6-5.1C192,7.7,192.3,7,192.6,6.2z"/>
		<path class="st7" d="M208.4-13.4c0.2-0.4,0.4-0.8,0.6-1.2c-1,0-6.3,3.2-5.6,1.9c8.4-14.8,10.1-12.7,17.1-21
			c0.8-0.9-6.7,2.8-5.7,1.7c-0.4,0.2-0.5,0.2-0.5,0.1c-0.7,1.7-1.6,3.3-2.6,4.8c0.1,0.4,1.5-0.4,1.6,0c-8.7,9.1-14.6,19.7-21.8,29.8
			c-1.8,2.6-3.9,4.6-5.6,6.9c1.3,1,2.4,2.4,3.2,3.9c2.9-5,4.6-10.4,6.5-13.8C198.9-6.5,205.7-10.3,208.4-13.4z"/>
		<path class="st7" d="M224.3-44c2.2-1.7,4.2-3.7,6.2-5.9c-2.6,1.2-5.5,2.3-8.1,3.5c2.8-4.2,5.5-9.3,9.6-13.2
			c-0.4,0.2-1.7,0.5-1.8,0.5c3.6-5.5,6-11.8,6.1-18.3c0,0.1-2,1-2.7,0.6c0.6-2.6,1.7-5.1,2.8-7.8c-0.5,0.4-1,0.7-1.5,1.1
			c0,0.1,0,0.2-0.1,0.3l0-0.3l-0.2,0.2c0,0.2,0.1,0.3,0.2,0.5c-1.2,6.5-4.7,12.4-8.5,17.9c1.5-1.2,3.3-2.2,4.8-3.4
			c-1.4,3.4-3.1,7-5.8,10.1c0.5,0.1,1.3-1.1,1.9-1.1c-2.3,3.8-4.9,7.4-7.4,11.1c-0.1,0.4,1.2-0.4,1.2,0c-3.4,4.9-4.5,10.5-6.6,15.8
			C216-34.8,224.7-44,224.3-44z"/>
		<path class="st4" d="M212.2-33.5c3-7.2,6.8-18.4,6.3-26.2c0.5,0.9,1.1,2,1.5,2.9c0.5-3.2,0.4-6.5,0.3-9.7c0.5,1,1,1.9,1.4,3
			c0.1-1.9,1.1-4.8,1.3-6.4c0.2,0.5-0.2,1.4,0.1,1.9c4.1-6.1,5.9-13.7,9-20.6c0.1-0.7,0.2-1.4,0.3-2.1c-3.3,6-7.3,12.5-10.4,18.9
			c0-0.4-2.4-3.5-2.5-3.6c-0.3,3.4-1.4,6.9-1.7,10.4c-1.1-1.6-2-3.8-3.4-5.5c-0.4,8.6,5.8,16.9-4.5,37.4c-0.5,1.8-0.9,3.6-1.1,5.4
			C210.5-29.5,211.4-31.4,212.2-33.5z"/>
		<path class="st4" d="M200.7-30.4c0-2.1-0.1-4.3-0.4-6.2c-0.6,0.1-1.8,3.2-2.9,2.4c-0.9-1.8-0.9-5.3-1.8-6.7
			c-0.1-0.2-1.6,1.9-1.9,1.8c-1.3-3-2.4-6.6-3.6-9.3c-0.3,2.3-0.3,4.5,0.1,6.8c2.5,3.6,5.2,6.9,7.6,8.7c0.3,1.9,1.4,2.9,1.1,5.1
			C199.7-28.7,200.3-29.5,200.7-30.4z"/>
		<path class="st4" d="M209.8-43.3c-0.1-6.4-1.2-11.6-1.1-15.7c-0.3,0.4-1,0.9-1,0.9c-2.4-5.7-4.3-11.8-5.7-17.9
			c-2.2,3.3-3,6.9-2.7,10.5c0.4-0.3,0.9-0.6,1.4-0.9c0.1,0,0.3,0,0.4,0.1C205.4-61.2,208.3-51.1,209.8-43.3z"/>
	</g>
	<g>
		<path class="st1" d="M193.3,34.8c0.1-0.5,0.2-1,0.3-1.6c0.2-1.1,0.3-2.3,0.2-3.6c0-3.4-0.8-7.3-2.4-11.7c-0.2-0.5-0.4-1-0.6-1.5
			c-1.8-4.1-4.1-7.3-7-9.5c-2.6-2.1-5.6-3.2-9-3.4c-3.4-0.2-7,0.7-10.9,2.7c-2,1.4-2.9,1.9-4.9,3.3c-0.4,0.3-0.9,0.6-1.3,0.9
			c-3.1,2.1-6.1,4.2-9.1,6.5l-0.8,0.6c-9,6.5-18.1,13.4-27,20.7c-0.3,0.3-0.7,0.6-1,0.8c-1.2,0.9-2.3,1.9-3.5,2.9
			c-1.3,6-2.6,11.9-3.4,18c-1.3,9.5-1.3,19.2-1.6,28.8c0,0.1,0,0.1,0,0.2c9.2-5.7,18.4-11.5,27.8-17.3c0.3-0.2,0.6-0.4,0.9-0.6
			c2.4-1.5,4.8-3,7.3-4.5c0.2-0.1,0.5-0.3,0.7-0.4c0.4-0.2,0.7-0.4,1.1-0.6c3.4-1.9,7.1-3.6,11-5.3l1.2-0.5
			c3.8-1.7,7.7-3.3,11.5-5.1c0.3-0.1,0.6-0.3,0.9-0.4c3.9-1.9,7.6-4.1,10.7-6.5c0.3-0.2,0.5-0.4,0.7-0.6
			C189.1,43.8,192.1,39.8,193.3,34.8z"/>
		<g>
			<path class="st2" d="M138.4,69.2c0.4,0.9,0.6,1.7,0.7,2.4c0.3-0.2,0.6-0.4,0.9-0.6C139.7,70.4,139.1,69.7,138.4,69.2z"/>
			<path class="st2" d="M147.9,63.4c0,0.1-0.4-0.2-0.4-0.2c0.2,1.1,0.4,2.1,0.5,3c0.4-0.2,0.7-0.4,1.1-0.6
				C148.8,64.8,148.4,64.1,147.9,63.4z"/>
			<path class="st2" d="M155.1,51.8c1.4,2.5,3.8,5.5,5.1,8.5c0.4-0.2,0.8-0.4,1.2-0.5C159.5,56.9,157.2,54.2,155.1,51.8z"/>
			<path class="st2" d="M172.1,51.5c0.2,1,0.5,2.1,0.7,3.1c0.3-0.1,0.6-0.3,0.8-0.4C173.3,53.2,172.9,52.3,172.1,51.5z"/>
			<path class="st2" d="M182.5,38.4c-0.1,3.2,1.1,6.4,1.9,9.3c0.3-0.2,0.5-0.4,0.7-0.6C184.3,44.1,183.9,41.2,182.5,38.4z"/>
			<path class="st2" d="M173.1,36.3c-1.5-2.9-3.4-5.8-5.1-8C169.1,31.8,171.2,34.9,173.1,36.3z"/>
			<path class="st2" d="M173.8,36.7c-0.2-0.1-0.4-0.3-0.7-0.4c0.4,0.8,0.8,1.6,1.2,2.4L173.8,36.7z"/>
			<path class="st2" d="M162.7,48.5l1.6,1.6c-2.2-4.8-4.7-9.9-7.8-13.6C157.9,40.7,160.4,45.3,162.7,48.5z"/>
			<path class="st2" d="M114.6,50.1l1,2.1c1.9,3.1,4.6,6.4,6.9,8.8c-1.2-4.4-4-8.7-7.7-11.6C114.7,49.6,114.6,49.9,114.6,50.1z"/>
			<path class="st2" d="M115,74.1c1.6,3.3,3.1,6,6.2,7.9c-1.3-3.5-3.6-5.9-6.6-8.5L115,74.1z"/>
			<path class="st2" d="M139.5,49.4l-6.6-6.6c2.4,4,4.9,7.3,8.2,10.4C141.2,51.5,140.1,50.9,139.5,49.4z"/>
			<path class="st2" d="M147.8,17.6l2.5,5.1c1,1.1,1.9,2.4,3.2,3.6c-1.1-3.4-2.8-6.4-4.9-9.3C148.3,17.2,148,17.4,147.8,17.6z"/>
			<path class="st2" d="M159,9.7c-0.5,0.3-0.9,0.6-1.3,0.9c0.8,0.9,1.6,1.8,2.5,2.6C160.4,11.7,159.8,10.8,159,9.7z"/>
			<path class="st2" d="M178.1,16.6c1,1,3.6,4.2,4.9,5.1c-2.2-4.5-5.6-7.9-8.7-12.4L178.1,16.6z"/>
			<path class="st2" d="M190.2,28c-0.7,2.2,0.7,3.3,1.8,5.5l1.3,1.4c0.1-0.5,0.2-1,0.3-1.6C192.4,31.4,191.2,29.7,190.2,28z"/>
			<path class="st2" d="M137.2,29.2c1.3,1.5,2.6,3.6,3.6,5l5.5,5.6C144.2,35.1,141.6,30.5,137.2,29.2z"/>
			<path class="st2" d="M119.8,39.1c0.7,0.7,1.5,1.4,2.3,2c0.1,0.2,0.2,0.3,0.3,0.5c-0.5-1.3-1-2.3-1.6-3.3
				C120.4,38.5,120.1,38.8,119.8,39.1z"/>
			<path class="st2" d="M131.6,59.8c1.5,1.6,3,3.3,4.8,4.6c-1.5-2.9-3.5-4.9-5.9-7.4L131.6,59.8z"/>
		</g>
		<path class="st3" d="M191.4,18c-0.2-0.5-0.4-1-0.6-1.5c0.7,17.3-21.6,31.1-79.2,65.5c-0.1,2.2-0.1,4.5-0.2,6.7c0,0.1,0,0.2,0,0.2
			c9.2-5.7,18.4-11.5,27.8-17.3c0.3-0.2,0.6-0.4,0.9-0.6c2.4-1.5,4.8-3,7.3-4.5c0.2-0.1,0.5-0.3,0.7-0.4c0.4-0.2,0.7-0.4,1.1-0.6
			c3.4-1.9,7.1-3.6,11-5.3c0.4-0.2,0.8-0.4,1.2-0.5c3.8-1.7,7.8-3.3,11.5-5.1c0.3-0.1,0.6-0.3,0.8-0.4c3.9-1.9,7.6-4.1,10.7-6.5
			c0.3-0.2,0.5-0.4,0.7-0.6C192.8,40.7,196.7,32,191.4,18z"/>
		<path class="st4" d="M115.2,47.1C151.3,19,174.3,6,183.8,7.1C178.6,3,171.7,2.4,164,6.4c-16,10.8-32.1,22.6-47.7,35.5
			C115.9,43.6,115.5,45.4,115.2,47.1z"/>
		<path class="st5" d="M193.3,34.8c0.1-0.5,0.2-1,0.3-1.6c0.2-1.1,0.3-2.3,0.2-3.6c-6.5,15.3-18.4,22-39.5,31
			c-14.7,6.3-28.9,16.6-42.9,25.9c0,0.7,0,1.4-0.1,2.2c0,0.1,0,0.1,0,0.2c9.2-5.7,18.4-11.5,27.8-17.3c0.3-0.2,0.6-0.4,0.9-0.6
			c2.4-1.5,4.8-3,7.3-4.5c0.2-0.1,0.5-0.3,0.7-0.4c0.4-0.2,0.7-0.4,1.1-0.6c3.4-1.9,7.1-3.6,11-5.3l1.2-0.5
			c3.8-1.7,7.7-3.3,11.5-5.1c0.3-0.1,0.6-0.3,0.9-0.4c3.9-1.9,7.6-4.1,10.7-6.5c0.3-0.2,0.5-0.4,0.7-0.6
			C189.1,43.8,192.1,39.8,193.3,34.8z"/>
	</g>
</g>
<path class="st10" d="M67.9,138.3c4.5,10.9,4.2,5.6,4.9,7.2c0.8,2-0.6,3.8-5.1-7.1c-4.5-10.9-3.9-13.6-3.5-12.4
	C64.7,128.1,63.4,127.4,67.9,138.3z"/>
<path class="st10" d="M68,131.7c-4.9-10.7-4.4-5.4-5.2-7c-0.9-1.9,0.5-3.8,5.4,6.9c4.9,10.7,4.4,13.5,4,12.3
	C71.6,141.9,73,142.5,68,131.7z"/>
</svg>
