<?xml version="1.0" encoding="utf-8"?>
<!-- Generator: Adobe Illustrator 25.2.1, SVG Export Plug-In . SVG Version: 6.00 Build 0)  -->
<svg version="1.1" id="Layer_3" xmlns="http://www.w3.org/2000/svg" xmlns:xlink="http://www.w3.org/1999/xlink" x="0px" y="0px"
	 viewBox="0 0 200 200" style="enable-background:new 0 0 200 200;" xml:space="preserve">
<style type="text/css">
	.st0{fill:#629962;}
	.st1{fill:#F4EFC9;}
	.st2{opacity:0.5;fill:#DDD9BF;}
	.st3{fill:#67BF67;}
	.st4{fill:#4E894E;}
	.st5{opacity:0.5;fill:#4E894E;}
	.st6{fill:#F9F8F2;}
</style>
<g>
	<path class="st0" d="M165.9,14.6c2.8-6.4,5.9-13.1,5.4-20c0.3,2.6,2.7,4.6,5.1,5.6c2.4,1,5.1,1.6,7.3,3c3.3,2.1,5.1,6,8.4,8.1
		c2.4,1.5,5.4,1.9,7.9,3.3c2.5,1.4,4.4,3.6,6.3,5.8c1.2,1.4,2.3,2.7,3.1,4.4c1.1,2.2,1.3,4.8,1.2,7.3c-0.3,6-2.6,11.9-6.1,16.8
		c-3.5,4.9-8.1,9-13,12.5c-2.6,1.8-5.5,3.5-8.7,4.1c-5.1,0.9-10.5-1.4-14-5.4c-3.4-3.9-5-9.2-5-14.5c0-3,0.8-6.4,0-9.3
		c-0.5-2-2.3-3-2.5-5.1C160.6,25.7,163.8,19.3,165.9,14.6z"/>
	<path class="st0" d="M-17.9,113.8c3-2.3,6.9-3.3,9.9-5.6c4.3-3.4,6.3-9.3,11-12.2c0.9-0.6,2.1-1,3.1-0.5c0.5,0.2,0.8,0.6,1.2,1
		c9.1,10.7,17.7,21.8,25.9,33.2c2.8,4,5.7,8.4,5.4,13.2c-0.3,4.7-3.4,8.7-6.4,12.3c-1,1.2-2.1,2.5-3.7,2.8c-1.3,0.3-2.6-0.2-3.8-0.6
		c-4.3-1.7-8.3-4-11.8-6.8c-3.3-2.6-6.2-5.6-9.7-7.8c-2.5-1.6-5.3-2.7-8-4c-6.9-3.2-13.2-7.4-19.4-11.8c-4.2-2.9-4-2.8-0.5-6
		C-22.3,118.7-20.5,115.8-17.9,113.8z"/>
	<path class="st1" d="M37.3,162c-10.6-5.3-18.9-14.9-22.6-26.1c-0.7-2.2-1.3-4.5-2.7-6.4c-0.9-1.3-2.2-2.3-3.3-3.4
		c-5.7-5.6-8-13.8-8.7-21.7c-1-10.9,0.6-22.2,5.8-31.8c5.2-9.6,14.3-17.3,25-19.7c1.2-0.3,2.4-0.5,3.3-1.1c0.9-0.6,1.5-1.6,2.1-2.5
		c14-21.9,42-33.8,67.4-28.8c11-11.9,28.5-17.4,44.3-14c15.9,3.4,29.5,15.6,34.7,31c9.9-0.1,18.8,8,21.4,17.5
		c2.6,9.6-0.4,20-6.1,28.1c-5.7,8.1-13.9,14.1-22.6,19c-8.6,4.9-17.8,8.8-26.4,13.6c-12.2,6.8-23.3,15.5-34.9,23.2
		c-13.4,8.9-27.7,16-41.5,24.2C62.4,169.3,47.7,167.2,37.3,162z"/>
	<path class="st2" d="M37.3,162c-10.6-5.3-18.9-14.9-22.6-26.1c36.6,33.9,89.7-2.3,132.1-39.2s37.8-70.6,1.2-90.2
		c15.9,3.4,29.5,15.6,34.7,31c9.9-0.1,18.8,8,21.4,17.5c2.6,9.6-0.4,20-6.1,28.1c-5.7,8.1-13.9,14.1-22.6,19
		c-8.6,4.9-17.8,8.8-26.4,13.6c-12.2,6.8-23.3,15.5-34.9,23.2c-13.4,8.9-27.7,16-41.5,24.2C62.4,169.3,47.7,167.2,37.3,162z"/>
	<path class="st3" d="M87.8,164.5c-2.8,1.4-5.6,2.9-8.6,3.4c-3.1,0.5-6.5-0.1-8.7-2.2c-2.7-2.7-3-6.9-4.9-10.2
		c-1.1-2-2.8-3.6-4.3-5.3c-8.2-9.3-12-22.5-9.9-34.7c0.4-2.3,1-4.6,0.8-7c-0.2-2.2-1.1-4.3-1.7-6.4c-2-7.6,0.3-15.6,3-22.9
		c2.8-7.3,6.1-14.7,6.2-22.5c3,3.7,8.6,3.4,13.4,3.9c6.9,0.7,13.5,3.8,18.5,8.6c0.6,0.6,1.2,1.2,2.1,1.5c0.7,0.2,1.6,0.1,2.3,0
		c11.6-1.5,23.9,4.4,30,14.5c0.8,1.3,1.5,2.7,2.5,3.7c1.4,1.4,3.3,2.1,5.1,2.7c8.9,3.3,18,7.9,23.1,15.9c1.5,2.3,2.6,5,2.4,7.7
		c-0.4,5.9-6.3,9.7-11.4,12.8c-12.3,7.3-23.9,15.9-34.5,25.6c-3.8,3.5-6.9,2.4-11.1,3.7C97.3,158.6,92.4,162.1,87.8,164.5z"/>
	<path class="st4" d="M146.3,97.4c2.1,7.2-0.2,15.9-6.3,20.5c-2.9,2.1-6.8,3.4-10.1,2c-1-0.4-2-1-3-0.7c-1,0.3-1.5,1.4-1.8,2.4
		c-1.9,5.1-4.9,10.7-10.3,11.5c-4.9,0.7-9.2-3-12.5-6.7C88.2,110.7,79,91.2,70,72.1c6.9,22.4,17.7,43.5,31.7,62.2
		c2.3,3.1,4.8,6.3,5.5,10.1c0.7,3.8-1.1,8.4-4.9,9.4c-2,0.5-4.2-0.1-6.2-0.8c-2.1-0.7-4.7-1.5-6.5,0c-0.7,0.6-1.1,1.5-1.6,2.4
		c-2.6,4.9-6.7,7-11.5,9.2c-1.3,0.6-3.1,1.3-4.7,2.1c2.1,1.2,4.7,1.5,7.2,1.1c3.1-0.5,5.9-1.9,8.6-3.4c4.6-2.3,9.5-5.8,14.4-7.4
		c4.2-1.3,7.3-0.3,11.1-3.7c10.6-9.7,22.2-18.3,34.5-25.6c5.1-3,11-6.8,11.4-12.8c0.2-2.7-0.9-5.4-2.4-7.7
		C154.1,103.2,150.5,100,146.3,97.4z"/>
	<path class="st3" d="M218.1,19.1c-3.3,1.6-6.7,3.3-9.2,5.9c-4,4.4-4.2,10.5-7.3,15.4c-3.2,5-9.1,8.3-13.3,12.8
		c-7.5,8.1-8.5,18.8-9.1,28.6c-0.3,4.8-0.6,9.5-0.9,14.3c-0.1,1-0.1,2-0.6,3c-1.2,2.7-16.7,10.5-19.5,12.1
		c7.3-2.4,23.7-11.7,23.7-11.7c15.1-8.8,26.5-23.3,30.1-38.6c1.8-7.6,1.8-15.3,3.9-22.9c3.1-10.9,11-21.2,21.5-28.1
		C230.9,13,224.5,16.1,218.1,19.1z"/>
	<path class="st5" d="M234.2,11.4C226.5,16.1,220.1,23,216,31c-0.3,0.6-0.6,1.1-1.1,1.4c-1.6,0.8-2.9-1.5-3.2-3.2
		c-5,7.8-0.9,18.1-2.8,27.1c-0.3,1.6-1,3.3-2.5,3.9c-0.4-1.6-1-3.1-1.9-4.5c-1.7,1.3-1.5,3.8-1.4,5.9c0.3,8.1-2.4,16.2-7.5,22.4
		c-1.4,1.7-3.9,3.3-5.5,1.8c-1.1-1.1-1.4-3.5-2.9-3.3c-0.9,4-1.9,8.2-4.9,11c-1.1,1.1-2.5,1.9-3.9,2.5c-0.1,1-0.1,2-0.6,3
		c-1.2,2.7-16.7,10.5-19.5,12.1c7.3-2.4,23.7-11.7,23.7-11.7c15.1-8.8,26.5-23.3,30.1-38.6c1.8-7.6,1.8-15.3,3.9-22.9
		c3.1-10.9,11-21.2,21.5-28.1C236.3,10.4,235.2,10.9,234.2,11.4z"/>
	<path class="st3" d="M27.5,166.4c-11.3-3.3-21.6-9.6-30.2-17.6c-9.2-8.5-16.7-18.9-27.6-25c5.3-1.4,11-1,15.9,1.1
		c3.9,1.7,7.4,4.6,11.6,5.3c5.7,1,11.5-2,17.3-2.5c8.5-0.6,16.4,4.3,21.9,10.4c3.1,3.5,5.8,7.4,9.1,10.8c4.7,4.8,10.7,8.3,17.2,10.2
		c2.3,0.7,7.5,0.5,8.2,3.2c0.5,2.1-2.5,5.5-4.3,6.4c-4.4,2.3-11.7,0-16.4,0C42.4,168.9,35.1,168.6,27.5,166.4z"/>
	<path class="st5" d="M64,159.3c-0.2,0.2-0.5,0.5-0.7,0.7c-2.9,2.5-7.1,2.9-10.8,1.9c-3.7-1-6.9-3.3-9.8-5.7
		c-4.5-3.9-8.5-8.4-11.7-13.3c-0.3-0.5-0.6-0.9-1.2-1.1c-1.3-0.3-1.8,1.6-1.6,2.8c0.9,4.7,4.8,8.3,5.8,13c0.2,0.8,0.2,1.7-0.2,2.4
		c-0.9,1.6-3.3,1.1-5,0.3c-4.5-2.3-8.5-5.6-11.6-9.6c1.3,3,2.6,5.9,3.9,8.9c-2.8,1.5-6.2,0.5-9.1-0.6c-1.1-0.4-2.2-0.9-3.2-1.4
		c5.8,3.8,12.2,6.8,18.9,8.8c7.5,2.2,14.9,2.5,22.7,2.4c4.7-0.1,12,2.3,16.4,0c1.7-0.9,4.8-4.3,4.3-6.4
		C70.6,159.9,66.6,159.7,64,159.3z"/>
	<g>
		<g>
			<path class="st6" d="M70.2,35.9c2-1.5,4-3.1,6.6-3.5c2.5-0.4,4.6,0.9,6.3,2.5c0.5,0.4,1.2-0.3,0.7-0.7c-1.9-1.8-4.3-3.1-7-2.8
				c-2.8,0.4-5.1,2.1-7.3,3.8C69,35.6,69.7,36.3,70.2,35.9L70.2,35.9z"/>
		</g>
	</g>
	<g>
		<g>
			<path class="st6" d="M118.8,33.7c0.6-2.3,2-4.7,4.5-5.4c2.7-0.8,5.5,0.4,7.7,1.9c0.5,0.4,1-0.5,0.5-0.9c-2.5-1.7-5.7-2.9-8.7-1.9
				c-2.7,0.9-4.2,3.5-5,6.1C117.7,34,118.6,34.3,118.8,33.7L118.8,33.7z"/>
		</g>
	</g>
	<g>
		<g>
			<path class="st6" d="M153.8,36c-4.9-0.2-9.2,2.8-10.8,7.4c-0.5,1.3,1.6,1.9,2.1,0.6c1.3-3.6,4.9-5.9,8.7-5.7
				C155.2,38.2,155.2,36,153.8,36L153.8,36z"/>
		</g>
	</g>
	<g>
		<g>
			<path class="st6" d="M20.8,95.4c-0.6-3.1,0.5-6.1,2.6-8.4c1.8-2,4.6-4.2,7.4-3.1c1.3,0.5,1.9-1.6,0.6-2.1
				c-3.6-1.3-7.2,1.1-9.6,3.7C19.1,88.4,18,92,18.7,96C18.9,97.4,21,96.8,20.8,95.4L20.8,95.4z"/>
		</g>
	</g>
	<g>
		<g>
			<path class="st6" d="M38.1,93c2.1-3.2,5.5-5.1,9.3-5.4c1.4-0.1,1.4-2.3,0-2.2c-4.6,0.3-8.6,2.6-11.2,6.4
				C35.4,93,37.3,94.1,38.1,93L38.1,93z"/>
		</g>
	</g>
	<g>
		<g>
			<path class="st6" d="M39.3,63c0.2-2.3,0.4-5,2.1-6.7c1.8-1.9,4.9-2.5,7.4-2c1.4,0.3,2-1.9,0.6-2.1c-3.1-0.6-6.6,0-9.1,2.2
				c-2.5,2.2-3,5.6-3.2,8.7C37,64.5,39.2,64.4,39.3,63L39.3,63z"/>
		</g>
	</g>
	<g>
		<g>
			<path class="st6" d="M26.1,121.7c1.8-2.9,8.4-9.7,11.9-5.6c0.9,1.1,2.5-0.5,1.6-1.6c-4.6-5.5-12.8,1.9-15.4,6
				C23.5,121.8,25.4,122.9,26.1,121.7L26.1,121.7z"/>
		</g>
	</g>
	<g>
		<g>
			<path class="st6" d="M96.4,57.3c1.9-1.6,3.3-3.6,5.3-5.1c2.8-2.1,5.6-2.2,8.9-1.7c1.4,0.2,2-1.9,0.6-2.1c-3.1-0.5-6-0.6-8.8,0.8
				c-3.1,1.6-4.9,4.4-7.6,6.6C93.7,56.7,95.3,58.2,96.4,57.3L96.4,57.3z"/>
		</g>
	</g>
	<g>
		<g>
			<path class="st6" d="M103.5,35.9c0.5-1.6,1.2-3.3,2.8-4.1c1.5-0.7,3.2-0.6,4.8-0.3c1.4,0.3,2-1.9,0.6-2.1
				c-2.2-0.4-4.6-0.6-6.6,0.5c-2.1,1.1-3,3.3-3.7,5.4C100.9,36.7,103,37.3,103.5,35.9L103.5,35.9z"/>
		</g>
	</g>
	<g>
		<g>
			<path class="st6" d="M134.9,71.7c1.8-4.9,6.5-7.4,11.6-7.4c1.4,0,1.4-2.2,0-2.2c-6.1,0.1-11.6,3.1-13.7,9
				C132.2,72.4,134.4,73,134.9,71.7L134.9,71.7z"/>
		</g>
	</g>
	<g>
		<g>
			<path class="st6" d="M166,58.4c-1-2.7-2-6.5-0.5-9.2c1.4-2.6,4.2-4.7,6.5-6.3c1.2-0.8,0.1-2.7-1.1-1.9c-2.9,2-6.3,4.6-7.7,8
				c-1.3,2.9-0.4,7.2,0.8,10C164.4,60.3,166.5,59.7,166,58.4L166,58.4z"/>
		</g>
	</g>
	<g>
		<g>
			<path class="st6" d="M144,26c0.1-2,0.2-4.1,1.2-5.9c1.2-2.1,3.5-2.6,5.7-2.8c1.4-0.1,1.4-2.3,0-2.2c-2.7,0.2-5.4,0.8-7.1,3.1
				c-1.7,2.2-1.9,5.1-2.1,7.8C141.7,27.4,143.9,27.4,144,26L144,26z"/>
		</g>
	</g>
	<g>
		<g>
			<path class="st6" d="M137,44.3c-4.8,0.3-12.9,2-14.2,7.5c-0.3,1.4,1.8,2,2.1,0.6c1-4.4,8.4-5.7,12.1-5.9
				C138.4,46.4,138.4,44.2,137,44.3L137,44.3z"/>
		</g>
	</g>
	<g>
		<g>
			<path class="st6" d="M115.1,64.8c-3.8-2.7-8.7-2.9-12.7-0.7c-1.3,0.7-0.1,2.6,1.1,1.9c3.4-1.8,7.4-1.5,10.5,0.7
				C115.2,67.5,116.3,65.6,115.1,64.8L115.1,64.8z"/>
		</g>
	</g>
	<g>
		<g>
			<path class="st6" d="M73.4,50.2c-0.5-6.7,6.6-9.1,12-9.4c1.4-0.1,1.4-2.3,0-2.2c-6.6,0.5-14.8,3.7-14.2,11.7
				C71.3,51.6,73.5,51.6,73.4,50.2L73.4,50.2z"/>
		</g>
	</g>
	<g>
		<g>
			<path class="st6" d="M14.9,74.8c1.1-4.3,4.6-7.7,9.1-8.3c1.4-0.2,1.4-2.4,0-2.2c-5.4,0.7-9.9,4.6-11.2,9.9
				C12.4,75.6,14.5,76.1,14.9,74.8L14.9,74.8z"/>
		</g>
	</g>
	<g>
		<g>
			<path class="st6" d="M9.7,118.7c1.7-5,5.5-9.1,10.5-10.9c1.3-0.5,0.7-2.6-0.6-2.1c-5.7,2.1-10.1,6.6-12,12.5
				C7.1,119.5,9.3,120.1,9.7,118.7L9.7,118.7z"/>
		</g>
	</g>
	<g>
		<g>
			<path class="st6" d="M54,59.1c0.4-3.1,2.8-5.6,5.8-6.3c1.4-0.3,0.8-2.5-0.6-2.1c-4,0.9-6.9,4.3-7.4,8.4
				C51.6,60.5,53.9,60.5,54,59.1L54,59.1z"/>
		</g>
	</g>
	<g>
		<g>
			<path class="st6" d="M46.3,136.5c-2.2-2.9-1.9-5.7-0.7-9.2c0.5-1.4,1.2-2,1.2-3.5c0.2-4.8-4.3-11.7,1.9-14.7
				c1.3-0.6,0.2-2.5-1.1-1.9c-5.2,2.5-4.5,8-3.6,12.8c0.7,3.6,0.4,3.5-1.3,7.4c-0.7,1.5-1.1,1.2-1.3,3c-0.4,2.8,1.4,5.2,3,7.3
				C45.2,138.7,47.2,137.6,46.3,136.5L46.3,136.5z"/>
		</g>
	</g>
	<g>
		<g>
			<path class="st6" d="M93.1,29.7c1.3-3.5,7.6-2,10.3-3.3c3.7-1.7,7.3-7.4,11.7-4.3c1.2,0.8,2.3-1.1,1.1-1.9
				c-5-3.5-8.6,1.2-12.7,3.5c-4.8,2.7-10.2-1.2-12.7,5.4C90.5,30.4,92.6,31,93.1,29.7L93.1,29.7z"/>
		</g>
	</g>
</g>
</svg>
