<?xml version="1.0" encoding="utf-8"?>
<!-- Generator: Adobe Illustrator 25.2.1, SVG Export Plug-In . SVG Version: 6.00 Build 0)  -->
<svg version="1.1" id="Layer_2" xmlns="http://www.w3.org/2000/svg" xmlns:xlink="http://www.w3.org/1999/xlink" x="0px" y="0px"
	 viewBox="0 0 200 200" style="enable-background:new 0 0 200 200;" xml:space="preserve">
<style type="text/css">
	.st0{fill:#F4EFC9;}
	.st1{opacity:0.5;fill:#DDD9BF;}
	.st2{fill:#D3CFBE;}
	.st3{fill:#E5E0BE;}
	.st4{fill:#F9F5DC;}
	.st5{fill:#FFFEF0;}
	.st6{fill:#CEC9AE;}
</style>
<g>
	<path class="st0" d="M167.9,79.2c2.7,3.4,8.2,3.7,11.6,1c3.4-2.7,4.3-7.8,2.6-11.7c-1.7-4-5.7-6.7-10-7.3c-0.7-0.1-1.5-0.2-2-0.7
		c-0.5-0.5-0.6-1.2-0.8-1.8c-0.8-2.4-3.8-3.7-6.3-3.2c-2.5,0.4-4.7,2.1-6.3,4.1c-2.9,3.5-6.5,9.9-3.5,14.3
		C156.5,78.7,162.1,81.9,167.9,79.2z"/>
	<path class="st1" d="M178.1,74.5c-1.4-2.6-4-4.5-6.8-5.3c1-1.7,2.3-3.5,4.4-3.7c2.1-0.1,4.3,1.5,5.7,3.4c0.5,0.7,1,1.4,1.3,2.2
		c0.3,0.9,0.2,1.7,0,2.6c-0.2,2-0.6,3.1-1.5,4.7c-0.9,1.5-3.4,3.3-4.7,3.5c0.4-0.4,1-0.4,1.4-1c0.4-0.5,0.7-1.2,0.8-2
		C179.1,77.5,178.8,75.9,178.1,74.5z"/>
	<path class="st2" d="M155.4,80.8c-0.7,2.5-1.4,5.5-3.7,6.6c-2,0.9-4.3,0.1-6.3-0.7c-7.5-3.1-15.1-6.1-22.6-9.2
		c-1.2-0.5-2.4-1-3.3-1.8c-1.1-1-1.6-2.5-1.8-3.9c-0.5-4,2.1-7.9,5.3-10.4c3.2-2.5,7.2-3.8,10.9-5.3c5-2,10.3-4.5,15.5-3.2
		c2.5,0.7,4.7,2.2,6.8,3.9c2.5,2.1,10.5,7.8,7,11.5c-1.6,1.7-3.1,2.3-4.3,4.4C157.3,75.2,156.2,78,155.4,80.8z"/>
	<path class="st3" d="M150.4,64.6c0.2-2.3,0.3-5.1-1.4-6.6c-0.4-0.3-0.8-0.6-1.3-0.4c-0.7,0.2-0.9,1.1-0.9,1.9
		c-0.3,5.4-0.5,10.8-0.8,16.2c-0.1,1.6-0.6,3.7-2.2,3.7c-0.6,0-1.1-0.3-1.5-0.6c-4.4-2.8-7.7-7.1-11.9-10.2c-1-0.8-2.4-1.5-3.5-0.8
		c-1.1,0.7-1.1,2.4-0.4,3.5c0.8,1.1,2,1.7,3.2,2.3c3.3,1.9,6.1,4.7,7.9,8c1.7,3,2.7,6.4,4.9,9c2.2,2.6,6.3,4.2,9.1,2.1
		c4.2-3.1,1.7-8.4,0.2-12.2C149.9,75.8,150.1,69.6,150.4,64.6z"/>
	<path class="st0" d="M161.6,100.2c0.2-2.4-0.8-4.6-1.9-6.8c-2.1-4.4-4.1-8.9-4.9-13.7c-0.9-4.8-0.5-9.9,1.9-14.2
		c1-1.8,2.4-3.4,3.2-5.4c0.1-0.3,0.2-0.7,0.1-1.1c-0.4-0.9-1.7-0.5-2.5,0.2c-5.1,4.2-8.2,10.7-8.3,17.3c0,2.2,0.2,4.6-0.5,6.7
		c-2.2-1.7-3.4-4.4-4.5-7c-3.1-7.6-6.8-15.5-13.5-20.1c-0.3-0.2-0.7-0.4-1-0.3c-0.7,0.2-0.6,1.2-0.3,1.9c1.3,3,3.1,5.6,4.8,8.4
		c3,5,5.2,10.4,6.6,16.1c-3.7-2.7-8.1-4.6-12.6-5.3c-0.9-0.1-2.1,0-2.2,0.9c-0.1,0.5,0.3,0.9,0.6,1.3c1.4,1.3,3.1,2,4.8,2.8
		c3.2,1.6,6.1,3.9,7.8,7.1c0.9,1.8,1.4,3.8,1.9,5.7c1.2,4.3,3.6,11.5,8.7,12.5C154.6,107.8,161.1,105.8,161.6,100.2z"/>
	<path class="st0" d="M169.4,75.6c3.4-0.9,6-4,6.6-7.5c3.9-1,6-5.7,5.2-9.6c-0.8-3.9-3.8-7.1-7.2-9.3c-3.6-2.4-8.4-4-12.3-2.2
		c-0.2-3.9-2.3-7.4-4.9-10.3c-3.8-4.1-8.8-7.3-14.4-7.7c-5.6-0.4-11.5,2.4-13.8,7.5c-2.5-0.9-5.3,0-7.7,1.2
		c-2.9,1.5-5.7,3.8-6.2,6.9c-0.4,2.3,0.4,4.6,1.3,6.8c-4.8,0.7-8.7,5-9.3,9.9c-0.6,4.8,1.7,9.8,5.5,12.8c-1.1,2.1-0.3,4.9,1.3,6.6
		c1.7,1.7,4,2.6,6.4,2.9c1.7,0.2,3.4,0.2,5-0.4c1.6-0.6,3-1.8,3.5-3.5c0.7-2.4-0.7-4.9-2-7c1.5,0,3.1-0.2,4.4-1.2
		c1.2-0.9,2-2.6,1.4-4c2.7,0.7,5.8,0,8-1.8c2.2-1.8,3.4-4.7,3.1-7.5c1.9,2.8,4.1,5.5,7,7.2c2.9,1.7,6.6,2.3,9.7,0.9
		c-2.8,1.2-0.8,5.6,0.7,6.9C163.1,75.1,166.4,76.4,169.4,75.6z"/>
	<path class="st1" d="M116.1,51.2c-4.8,0.7-8.7,5-9.3,9.9c-0.1,0.8-0.1,1.6-0.1,2.4c1.3-2.4,4.2-4.1,6.8-3.4c-0.2-1.8,1.4-3.5,3.2-4
		c1.8-0.5,3.7-0.2,5.5,0.1c-2.1-1.6-3.8-3.8-4.7-6.3c-0.5-1.3-0.7-2.8-0.2-4.1c0.7-1.9,2.7-3,4.7-3.1c2-0.1,3.9,0.6,5.7,1.4
		c-0.1-2.7,1.8-5.3,4.4-6.1c2.6-0.8,5.6,0.3,7.1,2.6c3.5-3,8.9-3.5,13-1.3c4,2.2,6.5,7,5.9,11.6c2.8-0.8,6.1,1.8,5.9,4.8
		c3.4-1.9,7.5-2.7,11.3-1.7c2,0.5,3.8,1.6,5.2,3.1c0.3,0.3,0.6,0.8,0.9,1.2c0,0,0-0.1,0-0.1c-0.8-3.9-3.8-7.1-7.2-9.3
		c-3.6-2.4-8.4-4-12.3-2.2c-0.2-3.9-2.3-7.4-4.9-10.3c-3.8-4.1-8.8-7.3-14.4-7.7c-5.6-0.4-11.5,2.4-13.8,7.5c-2.5-0.9-5.3,0-7.7,1.2
		c-2.9,1.5-5.7,3.8-6.2,6.9C114.5,46.7,115.3,49,116.1,51.2z"/>
	<path class="st4" d="M178.5,64c0.6-2-0.8-4.3-2.9-4.6c-0.4-0.1-0.8-0.1-1.1,0.1c-0.6,0.2-1,0.8-1.5,1.3c-0.5,0.4-1.3,0.7-1.8,0.2
		c-0.2-0.2-0.2-0.4-0.4-0.6c-0.4-0.7-1.5-1.1-2.3-0.7c-0.9,0.4-1.4,1.5-2.4,1.6c-1.1,0.1-1.8-1.2-2.6-1.8c-1.3-1-3.2-0.7-4.6,0.1
		c-0.9,0.5-1.7,1.4-1.4,2.3c0.3,1,1.6,1.1,2.7,1.2c1.1,0.1,2.3,0.3,3.1,1c0.8,0.8,1,2.2,0.2,2.9c-0.4,0.3-1,0.5-1.4,0.8
		c-0.7,0.6-0.7,1.8-0.1,2.6c0.6,0.8,1.5,1.2,2.4,1.5c0.9,0.3,1.8,0.6,2.6,1.2c0.3,0.2,0.5,0.5,0.9,0.6c0.6,0.2,1.2,0,1.7-0.3
		c0.7-0.3,1.4-0.6,1.9-1.1c0.5-0.5,0.9-1.3,0.6-2c0.1,0.2,1.9-0.7,2.1-0.9c0.8-0.8,0.4-1.6,0.9-2.4C176,65.7,177.9,65.8,178.5,64z"
		/>
	<path class="st4" d="M154.5,63.2c0.2-0.8-0.5-1.7-1.3-1.5c1.2-1.1,2.3-2.1,3.5-3.2c0.3-0.3,0.6-0.6,0.8-1c0.2-0.8-0.5-1.7-1.3-2
		c-0.8-0.3-1.7-0.2-2.6-0.3c-0.9-0.1-1.8-0.6-2-1.5c-0.3-1.7,2.2-2.6,2.4-4.3c0.1-1-0.8-1.9-1.7-2.4c-0.9-0.5-2-0.8-2.7-1.5
		c-0.6-0.5-1-1.2-1.5-1.7c-1.4-1.3-4.1-0.8-5,0.9c-0.4,0.8-0.5,1.7-1.1,2.4c-0.3,0.4-0.8,0.7-1,1.2c-0.2,0.6,0.1,1.3,0.6,1.7
		c0.5,0.4,1.2,0.6,1.8,0.8c-0.7,1.3-0.5,3,0.5,4.2c0.4,0.5,0.9,0.9,1.4,1.3c0.4,0.5,0.8,1,1.2,1.5C148.2,60.5,150.9,67,154.5,63.2z"
		/>
	<path class="st4" d="M137.8,64.5c1.1-0.8,1.4-2.7,0.2-3.5c1.5-0.4,2.4-2.1,2.2-3.6c-0.2-1.5-1.3-2.8-2.8-3.3
		c-0.2-0.1-0.4-0.2-0.6-0.1c-0.4,0.1-0.6,0.5-0.9,0.9c-0.5,0.8-1.3,1.3-2.3,1.3c-0.9,0-1.8-0.7-1.9-1.6c-0.1-0.5,0.1-0.9-0.1-1.4
		c-0.5-1-2-0.5-3-1.1c-0.8-0.5-0.9-1.5-1.1-2.4c-0.2-0.9-0.8-1.9-1.7-1.9c-1,0.1-1.7,1.4-2.6,1.1c-0.5-0.1-0.8-0.8-1.3-1
		c-0.8-0.3-1.7,0.5-1.7,1.4c0,0.9,0.6,1.6,1.3,2.2c0.9,0.8,2,1.4,3.2,1.8c-0.9,1.2-1.6,2.6-1.5,4c0.1,1.5,1.2,2.9,2.7,3
		c-0.6,1.1,0.2,2.7,1.4,3.1c1.2,0.4,2.6-0.3,3.4-1.3c0.6,0,1,0.6,1.2,1.1C133,65.7,135.5,66.3,137.8,64.5z"/>
	<path class="st4" d="M125.5,78.1c-0.2-0.3-0.5-0.6-0.5-1c0-0.3,0.1-0.6,0.2-0.9c0.2-0.9-0.1-1.9-0.8-2.5c-0.7-0.6-1.8-0.8-2.6-0.4
		c0.6-1,1.1-2,1.3-3.1c0.2-1.1-0.1-2.3-0.9-3.1c-0.8-0.8-2.2-1-3.1-0.2c-0.6,0.5-0.8,1.3-1.3,1.9c-0.5,0.6-1.6,0.8-1.9,0.1
		c-0.2-0.3,0-0.7,0-1.1c0.1-1.3-1.6-2.4-2.8-1.7c0.4-0.8-0.8-1.7-1.7-1.4c-0.9,0.4-1.3,1.4-1.4,2.3c-0.1,0.6-0.1,1.2,0.1,1.8
		c0.5,1,1.7,1.2,2.7,1.6c1,0.3,2.1,1.2,1.9,2.2c-0.1,0.6-0.7,1.1-0.8,1.7c-0.2,0.9,0.7,1.7,1.5,2.3c-1.4,0.3-1.7,2.4-0.7,3.4
		c1,1,2.6,1.1,3.9,0.5c0.2-0.1,0.4-0.2,0.6-0.1c1.7,0.7,1.8,4.1,4.5,2.7C125.2,82.3,126.5,79.7,125.5,78.1z"/>
	<path class="st5" d="M171.1,71.1c0.7-0.7,0.7-2-0.1-2.5c1.6-0.9,3.4-2,4-3.8c0.1-0.2,0.1-0.4,0.2-0.6c0.1-0.2,0.3-0.3,0.5-0.4
		c0.6-0.3,1.2-0.9,0.9-1.5c-0.2-0.4-0.7-0.6-1.1-0.6c-1.2,0-2.3,0.8-2.7,1.9c-0.2,0.4-0.2,0.9-0.4,1.3c-0.4,1-1.6,1.6-2.6,1.4
		c0.2-1-0.6-2.2-1.6-2.4c-0.3,0-0.6,0-0.8,0.1c-0.4,0.3-0.5,0.9-0.3,1.4c0.2,0.5,0.6,0.8,1.1,1.1c-0.5,0.7-1.5,0.6-2,0.1
		c-1.4,1.1-2,3.3-0.3,4.3c0.9,0.6,1.8,0.3,2.8,0.4C169.5,71.5,170.3,71.9,171.1,71.1z"/>
	<path class="st5" d="M136.9,63.6c0.2-0.5-0.2-1.1-0.7-1.2c0.9-0.6,1.6-1.6,1.9-2.6c0.2-0.6,0.3-1.2,0-1.7c-0.3-0.5-1-0.9-1.5-0.6
		c-0.3,0.2-0.4,0.5-0.6,0.8c-0.2,0.4-0.5,0.9-0.9,1.1c-0.4,0.2-1.1,0-1.1-0.5c0-0.1,0-0.3-0.1-0.4c0-0.1-0.1-0.1-0.2-0.2
		c-0.5-0.2-1.1,0.1-1.7,0.2c-0.6,0.1-1.4-0.2-1.3-0.7c0-0.1,0.1-0.2,0.1-0.3c0.2-0.5,0-1.1-0.4-1.4c-0.4-0.3-1-0.3-1.4,0
		c-0.3,0.2-0.5,0.6-0.8,0.9c-0.3,0.3-0.8,0.4-1.1,0.1c-0.3-0.4,0.1-1-0.1-1.5c-0.2-0.4-0.9-0.4-1.3,0c-0.9,0.8-0.6,2.5,0.5,2.9
		c0.3,0.1,0.6,0.2,0.8,0.4c0.1,0.2,0.2,0.4,0.2,0.7c0,0.5-0.3,1.1-0.3,1.6c0,0.5,0.4,1.1,1,1.1c0.4-0.1,0.7-0.5,1-0.8
		c0.9-0.8,2.6-0.5,3,0.6c0.3-0.2,0.6-0.5,1-0.6c0.4-0.1,0.8,0,1,0.3c0.3,0.4,0.1,1,0.3,1.5C134.5,64,136.5,64.6,136.9,63.6z"/>
	<path class="st5" d="M124.2,80.8c0.3-0.7-0.5-1.4-1.2-1.8c0.4-0.5,0.9-1,1-1.6c0.1-0.5,0.1-1-0.1-1.5c-0.2-0.6-0.6-1.1-1.2-1.3
		c-0.6-0.2-1.3,0.2-1.4,0.8c0,0.3,0.1,0.7,0,1c-0.2,0.6-1.1,0.6-1.7,0.3c-0.2-0.1-0.5-0.2-0.6-0.4c-0.4-0.5-0.1-1.3,0.3-1.7
		c0.4-0.5,1-0.9,1.2-1.5c0.3-0.7-0.1-1.6-0.9-1.9c-0.7-0.3-1.6,0.1-1.9,0.8c-0.2,0.2-0.5-0.1-0.5-0.4c0-0.3,0.1-0.6,0-0.9
		c-0.1-0.2-0.3-0.3-0.5-0.4c-0.5-0.1-1,0.1-1.3,0.4c-0.3,0.4-0.3,0.9,0,1.3c0.3,0.5,0.9,0.7,1.1,1.2c0.2,0.6-0.3,1.1-0.7,1.5
		c0.3,0.5,0.7,1,1,1.5c0.1,0.1,0.2,0.3,0.2,0.5c0,0.7-1,0.8-1.4,1.2c-0.5,0.5-0.2,1.5,0.5,1.6c1.1,0.2,2-1.5,3-1.1
		c0.5,0.2,0.7,0.7,1,1c0.3,0.3,0.9,0.4,1.2,0.1c0.2,0.5,0.3,1.6,0.8,1.9C122.9,81.8,124,81.4,124.2,80.8z"/>
</g>
<g>
	<path class="st3" d="M68.5,104.1c-2-1.8-4.3-3.8-7-3.6c-3.2,0.2-5.3,3.4-6.1,6.5c-1.1,4.3-0.5,9,1.7,12.9c2.2,3.9,6,6.8,10.3,7.9
		c5.8,1.5,11.9-0.4,17.9,0c7.6,0.5,7.8-7.1,2.2-10.3C80.6,113.6,74.3,109.4,68.5,104.1z"/>
	<path class="st0" d="M81.3,93.9c0.5-3.2-1.2-6.6-4-8.2c-0.3-4.7-3.3-9.2-7.6-11.2c-4.3-2-9.7-1.4-13.5,1.4c-2.2,1.6-4,4.7-2.6,7.1
		c-6.6-0.4-13,4.6-14.3,11.1c-1.3,6.4,2.7,13.5,8.8,15.8c-5,2.5-7.2,9-5.7,14.4c1.5,5.4,5.9,9.6,10.9,12c3,1.4,6.4,2.4,9.7,1.7
		c1.7,4.7,7.7,7.2,12.3,5.3c4.6-2,6.9-8.1,4.7-12.5c-1.7-3.4-5.3-5.5-9-6.5c0.7-2.2-0.1-4.6-1.5-6.4c-1.4-1.8-3.3-3.2-5.1-4.5
		c2.5,1.7,8.8-9.4,9.6-10.7C76.1,99.4,80.6,98.4,81.3,93.9z"/>
	<path class="st0" d="M91.3,114.5c-5.8-1.8-11.1-5-15.2-9.4c-3.4-3.6-6.6-8.3-11.5-9c-0.5-0.1-1.2-0.1-1.5,0.3
		c-0.3,0.3-0.3,0.7-0.3,1.2c-0.3,6.1,4,11.5,9,15c4.9,3.6,10.7,5.9,15.5,9.5c0.9,0.7,1.9,1.8,1.4,2.8c-0.5,1-1.8,1-2.9,0.8
		c-6.7-1-13.4-2-20.2-2.9c-2.5-0.4-5.9-0.2-6.6,2.2c-0.4,1.5,0.6,3.1,1.8,4.2c4.3,3.7,10.5,3.2,16.1,4c7.7,1.1,14.7,5.1,22.1,7.6
		c2.1,0.7,4.2,1.3,6.3,1.2c7.3-0.2,14-9.2,10-16C110.2,117.5,99.6,117.1,91.3,114.5z"/>
	<path class="st4" d="M59.1,78.9c-0.1,1.6,1.6,3.1,3.2,2.6c0.3-0.1,0.8-0.3,1,0c0.1,0.2,0.1,0.4,0.1,0.7c0.1,1.1,1.6,1.1,2.7,1.4
		c1.6,0.6,2.2,3,1,4.2c-0.8-0.2-1.6-0.6-2.4-0.9c-0.8-0.3-1.8-0.3-2.5,0.2c-0.7,0.5-0.7,1.8,0.2,2.1c-2.7-0.6-5.4,0.7-7.8,2.1
		c-1.3,0.7-2.7,1.7-3.1,3.1c-0.3,1.1,0.1,2.4,1.1,3.1c0.9,0.7,2.3,0.8,3.3,0.2c0.4-0.2,0.9-0.6,1.4-0.4c0.3,0.1,0.4,0.4,0.6,0.6
		c0.6,0.7,1.6,0.9,2.4,1.3c0.8,0.4,1.7,1.1,1.6,2c-0.1,1-1.3,1.6-1.9,2.4c-1,1.6,0.8,3.9,2.7,3.8c1.9-0.1,3.4-1.9,4-3.7
		c0.4,0.7,1.4,0.9,2.2,0.6s1.2-1.1,1.5-1.9c1-2.4,0.6-5.3-0.9-7.4c1.3,0.2,2.3,1.2,3.6,1.5c1.3,0.3,2.8-0.4,3.4-1.6
		c0.6-1.2,0.4-2.8-0.6-3.7c-0.4-0.4-0.8-0.6-1.1-1.1c-0.2-0.3-0.3-0.6-0.3-1c-0.7-3.3-1.8-6.5-3.1-9.6c-0.5-1-1.2-2.2-2.3-2.2
		c-0.8,0-1.4,0.6-2.1,0.9c-0.7,0.3-1.7,0.3-2-0.4c-0.2-0.7,0.4-1.4,0.2-2C63.5,75.6,59.3,76.9,59.1,78.9z"/>
	<path class="st4" d="M55.9,116.4c-1.3,0.7-2.2,2.1-2.1,3.6c0.1,1.5,1.3,2.9,2.7,2.9c1,0,2-0.5,3-0.9c1-0.3,2.3-0.4,2.9,0.4
		c0.2,0.2,0.3,0.5,0.3,0.7c0,0.4-0.3,0.7-0.4,1c-0.5,1.1,0.2,2.7,1.4,3c0.7,0.2,1.7,0.2,2,0.9c0.1,0.4,0,0.8,0,1.2
		c0,1.5,2.2,1.8,3,3.1c0.5,0.8,0.4,1.8,1,2.5c0.5,0.7,1.4,0.9,2.2,0.8c0.8-0.1,1.6-0.5,2.3-0.9c0.7-0.4,1.4-0.8,1.9-1.5
		c0.5-0.6,0.7-1.5,0.4-2.3c-0.7-1.3-2.6-1.2-4-1.4c-1.8-0.3-3.6-1.6-3.9-3.5c-0.1-0.9,0-1.8,0.1-2.6c0.1-0.9,0-1.8-0.5-2.5
		c-0.5-0.7-1.7-1-2.3-0.4c0.5-1.2,1.1-2.6,0.3-3.6c-0.6-0.8-1.7-1.1-2.7-1.1C61.1,115.8,58,115.2,55.9,116.4z"/>
	<path class="st4" d="M94.4,121c-0.7,0-1.1,0.7-1.2,1.4c-0.1,0.7,0,1.3-0.1,2c-0.3,1.9-2.5,2.8-4.3,3c-1.9,0.2-3.9,0.2-5.5,1.2
		c0.4,1.3,2.1,1.4,3.4,1.2c3.6-0.5,7-1.9,10.6-2.7c3.6-0.8,7.5-1,10.7,0.7c1.3,0.7,2.4,1.6,3.8,2c1.4,0.3,3.2-0.4,3.4-1.8
		c0.1-0.6-0.2-1.2-0.5-1.7c-1.9-3.5-5.7-5.4-9.5-6.5c-5.7-1.8-11.7-2.4-17.1-4.6c-3.7-1.5-7-3.7-10.2-6.1c-0.8-0.6-3.1-3.1-4.3-2.5
		c-1.7,0.9,1.3,2.9,2.1,3.5c2.9,2.2,6.2,3.8,9.5,5.4c1.7,0.9,3.4,1.7,5,2.7C91,118.5,93.6,121,94.4,121z"/>
	<path class="st6" d="M70.8,104.8c0.2,2.9-1.6,5.6-3.7,7.6c2.4-1,4.3-3.2,5-5.6c0-0.1,0.1-0.2,0.1-0.3c0.1-0.1,0.2-0.1,0.3-0.1
		c1.1-0.4,2.1-1,2.9-1.8c0,0-1.5-1.9-2-1.8c-0.3,0.1-0.9,0.8-1.1,1C71.8,104.1,71.3,104.5,70.8,104.8z"/>
	<path class="st6" d="M79.2,133.7c1.5,0.4,3.1,0.7,4.6,1.1c-0.8-1.6-1.9-2.9-3.1-4.2c-1.1-1.3-2.2-2.6-3.8-3.2c-1-0.4-2-0.4-3-0.1
		c0.4-0.1,1.9,0.9,2.3,1.1c0.7,0.4,1.5,0.7,2.1,1.2C79.4,130.5,79.3,132.4,79.2,133.7z"/>
	<path class="st3" d="M79.9,130.8c0-0.1-0.1-0.2-0.2-0.3c-0.7-0.7-1.6-1.2-2.5-1.7c2.1,1.4,1.5,4.8,0.2,7c-1.5,2.5-4,4.8-6.8,4.4
		c-2.9-0.4-4.7-3.4-5.2-6.2c-1.9,0.4-3.9,0.4-5.5-0.7c-1.6-1.1-2.2-3.6-0.9-5c-4.2,0.5-8.4-3.1-8.6-7.3c-0.2-4.2,3.7-8.1,7.9-8
		c-3.3-1.6-4.5-6.3-2.4-9.4c-1.5,0.8-3.1,1.6-4.8,1.3c-1.7-0.3-3.1-2.3-2.1-3.7c-2.7,0.3-4.7-3.1-4.1-5.7c0.6-2.7,3-4.6,5.3-6
		c3-1.8,6.3-3.2,9.7-4.2c-1.6-1.6-3.2-3.3-3.9-5.5c-0.4-1.3-0.4-2.6-0.2-3.8c-2.1,1.7-3.6,4.6-2.3,6.9c-6.6-0.4-13,4.6-14.3,11.1
		c-1.3,6.4,2.7,13.5,8.8,15.8c-5,2.5-7.2,9-5.7,14.4c1.5,5.4,5.9,9.6,10.9,12c3,1.4,6.4,2.4,9.7,1.7c1.7,4.7,7.7,7.2,12.3,5.3
		C79.8,141.4,82.1,135.3,79.9,130.8z"/>
	<g>
		<path class="st6" d="M72.7,144c-3.9-0.9-7.3-3.6-9-7.2c-5.3,0.2-8.5-0.6-12.7-2.9c-2.6-1.4-6-4.1-7.8-7.2c2,4.2,5.8,7.6,10,9.6
			c3,1.4,6.4,2.4,9.7,1.7C64.4,141.9,68.7,144.3,72.7,144z"/>
		<path class="st6" d="M48,109.9c-0.1,0-0.1,0.1-0.2,0.1c1.2-0.5,2.3-1.1,3.1-2c-5.7-1.4-10.4-6.2-12-11.9
			C38.7,102,42.5,107.9,48,109.9z"/>
	</g>
	<path class="st5" d="M70.6,85.3c0.5,1.2,0.7,2.9-0.3,3.7c-0.7,0.6-1.6,0.6-2.5,0.6c-1.7,0-3.4,0-5,0.6c-1.5,0.7-2.8,2.2-2.6,3.9
		c-0.4,0.6-0.4,1.5,0.1,2.1c0.5,0.6,1.4,0.7,2.1,0.4c0.9-0.5,1.3-1.6,2.2-1.8c0.6-0.1,1.3,0.3,1.6,0.9c0.3,0.6,0.3,1.3,0,1.9
		c-0.1,0.4-0.4,0.7-0.4,1.1c0,1.1,1.4,1.6,2.5,1.7c0.2,0,0.4,0,0.6-0.1c0.2-0.2,0.2-0.5,0.2-0.7c-0.1-1.1-0.8-2.1-1.4-3.1
		c-0.6-1-1.1-2.1-0.8-3.2c0.3-1.1,1.8-1.9,2.6-1.1c0.6,0.6,0.7,1.7,1.4,2c0.8,0.3,1.6-0.7,1.6-1.6c0-0.9-0.5-1.7-0.6-2.6
		c-0.1-1.2,0.4-2.4,0.4-3.6c0.1-2.5-1.9-4.5-3.8-6.2c-1.1,0.1-2.3-0.3-3.1-1c-0.7-0.6-1.9-1.9-2.9-0.8c-1.1,1.3,0.8,1.5,1.7,1.8
		C67.2,81,69.5,82.8,70.6,85.3z"/>
	<path class="st5" d="M63.1,119.3c0.2,0.2,0.4,0.4,0.5,0.7c0.1,0.5-0.2,1,0,1.5c0.3,0.8,1.4,0.9,1.7,1.6c0.3,0.7-0.3,1.3-0.4,2.1
		c-0.1,0.9,0.7,1.7,1.4,2.2c0.5,0.3,1.2,0.6,1.6,0.1c0.4-0.5,0-1.2-0.5-1.7c-0.5-0.4-1-1-0.8-1.6c0.1-0.3,0.4-0.5,0.5-0.7
		c0.3-0.5,0.2-1.1-0.2-1.6c-0.3-0.5-0.8-0.8-1.2-1.2c-0.5-0.5-1-1.1-1.1-1.7c-0.1-0.3-0.1-0.6-0.2-0.9c-0.2-0.6-0.7-1-1.3-1.2
		c-1.6-0.6-6.3-1.2-5.2,1.9c0.5,1.3,0.4,0.7,1.3,0.3C61,118.3,61.5,117.5,63.1,119.3z"/>
</g>
<g>
	<path class="st3" d="M98.7,61.5c0.4-1.3,0.9-2.8,0.3-4c-0.8-1.5-2.7-1.8-4.3-1.5c-2.2,0.4-4.3,1.6-5.7,3.5c-1.4,1.8-2,4.2-1.6,6.5
		c0.5,3,2.6,5.5,3.7,8.4c1.3,3.7,4.9,2.2,5.3-1.1C96.7,69.2,97.4,65.4,98.7,61.5z"/>
	<path class="st0" d="M106.1,65.5c1.6-0.4,2.9-1.9,3-3.6c2.2-1.1,3.6-3.5,3.7-5.9c0.1-2.4-1.3-4.9-3.4-6.1c-1.2-0.7-3-0.9-3.9,0.3
		c-1.2-3.2-4.9-5.2-8.2-4.5c-3.3,0.7-5.8,4-5.6,7.4c-2.2-1.8-5.7-1.5-7.9,0.3c-2.2,1.8-3.3,4.7-3.4,7.6c-0.1,1.7,0.2,3.5,1.2,4.9
		c-1.8,1.8-1.8,5.1,0.1,6.9c1.9,1.8,5.2,1.6,6.9-0.4c1.3-1.5,1.5-3.6,1.2-5.6c1.2-0.1,2.1-1,2.7-2c0.6-1,0.8-2.2,1-3.3
		c-0.3,1.5,6.2,2.2,7,2.3C102.5,64.1,103.9,66,106.1,65.5z"/>
	<path class="st0" d="M98.5,74.4c-0.4-3.1,0.1-6.2,1.3-9.1c1-2.3,2.5-4.8,1.9-7.2c-0.1-0.3-0.2-0.6-0.5-0.7c-0.2-0.1-0.4,0-0.6,0.1
		c-2.9,1.1-4.6,4.3-5.2,7.3c-0.7,3.1-0.6,6.2-1.3,9.3c-0.1,0.6-0.5,1.3-1,1.2c-0.6,0-0.8-0.7-1-1.2c-0.9-3.4-1.8-6.7-2.8-10.1
		c-0.3-1.3-1.1-2.8-2.4-2.6c-0.8,0.1-1.3,0.9-1.6,1.7c-0.9,2.8,0.7,5.6,1.4,8.4c1.1,3.9,0.7,8,1,11.9c0.1,1.1,0.3,2.2,0.7,3.2
		C90,90,95.7,91.3,98,88C101,83.9,99,78.8,98.5,74.4z"/>
	<path class="st4" d="M108.6,51.9c-0.8,0.3-1.1,1.4-0.6,2c0.1,0.1,0.3,0.3,0.2,0.5c-0.1,0.1-0.2,0.1-0.3,0.2c-0.5,0.3-0.2,1-0.1,1.5
		c0.1,0.9-0.9,1.6-1.8,1.3c-0.1-0.4,0-0.9-0.1-1.3c0-0.4-0.2-0.9-0.6-1.1c-0.4-0.2-1,0.1-1,0.5c-0.3-1.4-1.5-2.4-2.6-3.2
		c-0.6-0.5-1.3-0.9-2.1-0.8c-0.6,0.1-1.1,0.6-1.2,1.1c-0.1,0.6,0.1,1.2,0.6,1.6c0.2,0.2,0.5,0.3,0.5,0.6c0,0.2-0.1,0.3-0.2,0.4
		c-0.2,0.4-0.1,0.9-0.1,1.4c0,0.5-0.2,1-0.6,1.2c-0.5,0.2-1-0.3-1.5-0.4c-1-0.2-1.7,1.2-1.2,2.1c0.5,0.9,1.6,1.2,2.6,1.1
		c-0.3,0.3-0.1,0.9,0.2,1.1C99,62,99.4,62,99.9,62c1.3,0,2.6-0.8,3.3-2c0.2,0.6-0.1,1.3,0.1,2c0.1,0.7,0.8,1.2,1.5,1.3
		c0.7,0,1.4-0.4,1.6-1.1c0.1-0.2,0.1-0.5,0.3-0.7c0.1-0.1,0.3-0.3,0.4-0.4c1.4-1,2.7-2.2,3.9-3.4c0.4-0.4,0.8-1,0.6-1.5
		c-0.2-0.4-0.5-0.5-0.8-0.8c-0.3-0.3-0.5-0.7-0.2-1c0.3-0.2,0.7-0.1,1-0.3C111.1,53.3,109.6,51.6,108.6,51.9z"/>
	<path class="st4" d="M90.3,58.2c-0.6-0.5-1.4-0.6-2.1-0.3c-0.7,0.3-1.1,1.2-0.8,1.9c0.2,0.5,0.7,0.8,1,1.2c0.4,0.4,0.7,1,0.4,1.5
		c-0.1,0.1-0.2,0.2-0.3,0.3c-0.2,0.1-0.4,0-0.6,0c-0.6,0-1.2,0.6-1.1,1.3c0.1,0.4,0.3,0.8,0,1.1c-0.2,0.1-0.4,0.2-0.6,0.2
		c-0.7,0.3-0.4,1.4-0.8,2.1c-0.3,0.4-0.7,0.6-1,1c-0.2,0.4-0.1,0.9,0.1,1.2c0.2,0.4,0.6,0.6,0.9,0.9c0.3,0.2,0.7,0.5,1.1,0.6
		c0.4,0.1,0.9,0,1.1-0.3c0.5-0.6,0-1.4-0.2-2.2c-0.2-0.9,0-2,0.8-2.5c0.4-0.2,0.8-0.3,1.3-0.5c0.4-0.1,0.9-0.4,1.1-0.8
		c0.2-0.4,0.1-1-0.3-1.2c0.7,0,1.4,0,1.8-0.6c0.3-0.4,0.2-1-0.1-1.5C91.6,60.5,91.3,58.9,90.3,58.2z"/>
	<path class="st4" d="M96.1,77.2c-0.1-0.3-0.6-0.4-0.9-0.3c-0.3,0.1-0.6,0.3-1,0.4c-0.9,0.2-1.8-0.6-2.3-1.4
		c-0.5-0.8-0.9-1.8-1.7-2.3c-0.5,0.4-0.2,1.3,0.1,1.8c1,1.6,2.4,2.9,3.5,4.4c1.1,1.5,2,3.3,1.9,5.2c-0.1,0.7-0.3,1.5-0.1,2.2
		c0.1,0.7,0.9,1.4,1.6,1.2c0.3-0.1,0.5-0.3,0.7-0.6c1.2-1.6,1.3-3.8,1.1-5.8c-0.3-3-1.3-6-1.3-9c0-2,0.3-4.1,0.8-6
		c0.1-0.5,0.8-2.1,0.3-2.5c-0.8-0.6-1.1,1.2-1.2,1.7c-0.4,1.8-0.5,3.7-0.6,5.6c-0.1,1-0.1,1.9-0.2,2.9
		C96.5,75.1,95.9,76.8,96.1,77.2z"/>
	<path class="st6" d="M98.8,62.8c-1.3,0.7-3,0.4-4.3-0.2c1,0.9,2.4,1.3,3.7,1.2c0.1,0,0.1,0,0.2,0c0,0,0.1,0.1,0.1,0.1
		c0.4,0.4,0.9,0.8,1.4,1c0,0,0.6-1.1,0.4-1.3c-0.1-0.1-0.5-0.2-0.7-0.3C99.3,63.1,99.1,63,98.8,62.8z"/>
	<path class="st6" d="M87,72.7c0.1,0.8,0.3,1.6,0.4,2.4c0.6-0.7,1-1.5,1.3-2.3c0.4-0.8,0.8-1.6,0.7-2.4c0-0.5-0.2-1-0.6-1.4
		c0.1,0.2,0,1.1-0.1,1.3c0,0.4,0,0.9-0.1,1.2C88.5,72.1,87.6,72.5,87,72.7z"/>
	<path class="st3" d="M88.5,72.4c0,0,0.1-0.1,0.1-0.1c0.2-0.5,0.2-1,0.3-1.5c-0.2,1.3-1.9,1.7-3.2,1.6c-1.5-0.2-3.1-0.9-3.5-2.3
		c-0.4-1.4,0.6-2.9,1.9-3.7c-0.6-0.8-1-1.8-0.8-2.7c0.2-1,1.2-1.8,2.1-1.5c-1.1-1.9-0.3-4.6,1.6-5.5c1.9-1,4.6,0.1,5.4,2.1
		c0.1-1.9,2.1-3.4,3.9-3.1c-0.7-0.5-1.4-1.1-1.6-2c-0.2-0.8,0.5-1.9,1.3-1.8c-0.7-1.2,0.5-2.9,1.9-3.1c1.4-0.3,2.8,0.4,3.9,1.2
		c1.5,1,2.8,2.3,3.9,3.7c0.4-1.1,0.9-2.2,1.8-3c0.5-0.5,1.1-0.7,1.7-0.8c-1.2-0.6-2.9-0.7-3.7,0.3c-1.2-3.2-4.9-5.2-8.2-4.5
		c-3.3,0.7-5.8,4-5.6,7.4c-2.2-1.8-5.7-1.5-7.9,0.3c-2.2,1.8-3.3,4.7-3.4,7.6c-0.1,1.7,0.2,3.5,1.2,4.9c-1.8,1.8-1.8,5.1,0.1,6.9
		C83.5,74.5,86.8,74.3,88.5,72.4z"/>
	<g>
		<path class="st6" d="M80.8,71.7c-0.4-2,0.2-4.2,1.6-5.7c-1.2-2.5-1.5-4.1-1.3-6.6c0.1-1.5,0.7-3.7,1.8-5.2
			c-1.6,1.8-2.4,4.3-2.5,6.7c-0.1,1.7,0.2,3.5,1.2,4.9C80,67.4,79.8,69.9,80.8,71.7z"/>
		<path class="st6" d="M91.7,53.1C91.7,53.1,91.7,53.1,91.7,53.1c0.4,0.4,0.9,0.8,1.5,1c-0.5-3,0.8-6.2,3.1-8.1
			C93.5,47.1,91.5,50.1,91.7,53.1z"/>
	</g>
	<path class="st5" d="M107.9,58.7c-0.5,0.5-1.2,0.9-1.8,0.6c-0.4-0.2-0.6-0.6-0.8-1.1c-0.3-0.8-0.7-1.6-1.3-2.2
		c-0.6-0.6-1.6-0.9-2.4-0.4c-0.4-0.1-0.8,0.1-1,0.5c-0.2,0.4-0.1,0.8,0.3,1.1c0.4,0.3,1,0.3,1.3,0.7c0.2,0.3,0.2,0.7-0.1,0.9
		c-0.2,0.3-0.6,0.4-0.9,0.4c-0.2,0-0.4,0-0.6,0c-0.5,0.2-0.5,1-0.3,1.5c0,0.1,0.1,0.2,0.2,0.3c0.1,0.1,0.3,0,0.4,0
		c0.5-0.3,0.8-0.8,1.2-1.3c0.3-0.5,0.8-0.9,1.4-1c0.6-0.1,1.2,0.5,1.1,1c-0.1,0.4-0.6,0.7-0.6,1.1c0,0.5,0.7,0.6,1.1,0.4
		c0.4-0.2,0.7-0.6,1.1-0.8c0.5-0.3,1.2-0.3,1.8-0.5c1.2-0.5,1.7-1.8,2.1-3.1c-0.3-0.5-0.3-1.1-0.2-1.7c0.2-0.5,0.5-1.3-0.2-1.5
		c-0.8-0.3-0.5,0.7-0.5,1.2C109.3,56.2,108.9,57.6,107.9,58.7z"/>
	<path class="st5" d="M90.4,62.1c-0.1,0.1-0.1,0.3-0.2,0.4c-0.2,0.2-0.5,0.1-0.7,0.3c-0.3,0.3-0.1,0.9-0.4,1.2
		c-0.3,0.3-0.7,0.1-1,0.3c-0.4,0.2-0.6,0.7-0.7,1.1c-0.1,0.3,0,0.7,0.3,0.8c0.3,0.1,0.6-0.3,0.7-0.6c0.1-0.3,0.3-0.7,0.6-0.7
		c0.2,0,0.3,0.1,0.5,0.1c0.3,0,0.6-0.2,0.7-0.4c0.2-0.2,0.2-0.5,0.3-0.8c0.1-0.3,0.3-0.7,0.6-0.9c0.1-0.1,0.3-0.2,0.4-0.3
		c0.2-0.2,0.3-0.6,0.3-0.9c0-0.9-0.7-3.2-2-2c-0.5,0.5-0.3,0.3,0.1,0.7C90.4,61,90.9,61,90.4,62.1z"/>
</g>
<g>
	<path class="st3" d="M67.1,40.9c-3.2,1.3-7.1,0.1-9.6-2.2c-2,1.9-4.9,2.6-7.8,3c-5.6,0.8-11.4,0.3-16.5-2.1
		c-5-2.4-9.2-6.9-10.2-12.1c-2.4,1.9-5.3,3.5-8.4,3.7C11.4,31.3,8,29.6,7,26.8c-2.9,1.2-6.4,0.4-8.9-1.5c-2.4-1.9-3.9-4.8-4.3-7.8
		C-6.8,12.7-4.8,7.6-1,4.4C2.8,1.2,8,0,13.1-0.3c3-0.2,6-0.1,8.9,0.7c4.9,1.3,9,4.4,13.5,6.5C41,9.5,47,10.6,52.9,12
		c5.9,1.5,11.9,3.4,16.4,7.2c1.5,1.3,2.9,2.8,3.3,4.6c0.8,3.4-2,6-2,9.2C70.7,36.2,70.6,39.4,67.1,40.9z"/>
	<path class="st1" d="M-1,4.4c-3.8,3.2-5.9,8.3-5.2,13.2c0.4,3,1.8,5.9,4.3,7.8c0.4,0.3,0.9,0.6,1.4,0.9c-0.5-0.9-0.7-1.9-0.7-2.9
		c0-3.1,2.8-6,5.9-5.7c-2.6-2.4-2.7-6.8-0.5-9.6C6,5.8,9.4,4.3,12.3,4.7c1.1,0.1,2,0.8,3.1,0.5c1.4-0.4,2.4-2.2,2.7-3.5
		c0.2-0.7,0.2-1.3,0.2-2c-1.7-0.2-3.4-0.2-5.1-0.1C8,0,2.8,1.2-1,4.4z"/>
	<path class="st2" d="M39.9,39c-2.2,0.5-4.4,1-6.6,0.6c-2.7-0.6-4.9-2.6-6.8-4.6c-0.8-0.8-1.7-1.7-2-2.7c-0.3-0.9-0.3-1.9-0.2-2.9
		c0.4-5.3,1.4-10.5,3.1-15.6c0.6-1.9,1.4-3.9,2.7-5.4c2.6-2.8,6.9-3.1,10.6-2.8c3.7,0.3,7.4,1.2,11.1,1.2C55.2,7,58.7,6.4,62,7.2
		c3.7,0.9,6.9,3.5,8.5,6.9c1.1,2.2,1.5,4.8,1.9,7.2c0.8,5-1,8.5-5.8,10.4c-5.1,2-10.8,3.1-16.2,4.5C47,37.3,43.4,38.2,39.9,39z"/>
	<path class="st3" d="M66.5,27.1c0.9-0.2,1.9-0.6,2.1-1.6c0.1-0.7-0.3-1.4-0.8-1.8c-0.5-0.3-1.2-0.3-1.8-0.3
		c-7.4,0.4-14.3,5.9-21.7,6.1c-0.9,0-1.9-0.1-2.6-0.7c-1.5-1.3-1.1-4.1-0.3-6.1c1.3-3.4,3.2-6.5,5.1-9.5c0.5-0.9,1.1-1.8,1.3-2.8
		c0.2-1,0-2.3-0.8-2.8c-1.2-0.9-2.9,0.4-4,1.6c-2.3,2.7-4.6,5.5-7.4,7.4c-2.5,1.7-5.6,2.5-7.4,5.1c-1,1.4-1.6,3.2-2,5
		c-0.5,2.4-0.8,4.9,0,7.1c0.9,2.4,3,3.9,5.1,4.7c2.7,1.1,5.6,1.4,8.5,1c2.6-0.4,5.4-1.3,7.9-2.4c1.7-0.8,3-2.5,4.6-3.7
		C56.6,30.2,61.6,28.1,66.5,27.1z"/>
	<path class="st0" d="M43.6,42.2c8.7-5.5,19.5-7.8,29.7-6.3c1.2,0.2,2.9,0.1,3.1-1.1c0.1-0.9-0.8-1.5-1.6-1.9
		c-5.1-2.4-11-2.3-16.5-1.3c-5.5,1-10.9,2.7-16.4,3.5c-0.5,0.1-1.1,0.1-1.5-0.1c-0.7-0.4-1-1.3-0.8-2.1c0.2-0.8,0.7-1.5,1.3-2.1
		c4.7-5.5,10.4-10.2,15.6-15.3c0.5-0.5,1.1-1.3,0.8-1.9c-0.2-0.3-0.5-0.5-0.8-0.7c-1.9-0.8-4.1,0.2-5.8,1.3c-6,4-9.9,10.7-16.4,14
		c-1.3,0.6-3,1-3.9-0.1c-0.5-0.6-0.4-1.5-0.4-2.3c0.6-5.6,2.7-10.9,3.7-16.5c0.3-1.4,0.4-2.8,0.1-4.1c-0.4-1.3-1.5-2.5-2.9-2.6
		c-2.1-0.1-3.5,2.2-4.3,4.1c-5.3,13-9.3,26.5-16.2,38.8c-1.8,3.2-3.8,6.4-5.1,9.8c-0.3,0.8-2,3.4-1.8,4.2c0.3,1.4,2.9,0.7,4.1,1.4
		c4.1,2.5,8.4,4.4,13,5.8c3.4,1,3.7,1.5,4.5,0c1.5-2.8,3.6-8.8,5.4-11.4C33.9,50,38.4,45.5,43.6,42.2z"/>
	<path class="st4" d="M25.2,65c-0.2-0.8-0.9-1.4-1.5-2c-4.8-4.1-11.3-5.5-17.6-5.7c-0.5,0-1.1,0-1.6,0.3c-0.6,0.4-0.9,1.1-0.9,1.8
		c0.1,0.7,0.4,1.4,0.8,2c1.2,1.8,3,3,5,3.9c2,0.8,4.1,1.3,6.2,1.7C17.4,67.3,26.5,69.3,25.2,65z"/>
	<path class="st0" d="M75.4,44.5c3.3,1.7,7.3,2.4,10.6,0.6c3.3-1.7,5-6.3,2.9-9.3c3.9-3,4.3-9.2,1.5-13.3c-2.8-4-8-5.9-12.9-5.5
		c1.5-1.8,2-4.3,1.6-6.6c-0.4-2.3-1.5-4.5-2.9-6.3c-3.5-4.7-8.9-7.8-14.7-8.6S49.6-3.6,45,0.1c-1-3-3.3-5.4-6-7
		c-2.7-1.6-5.8-2.4-8.9-2.8c-3.2-0.4-6.4-0.5-9.5,0.5c-3,1-5.8,3-7.2,5.9c-0.3,0.7-0.5,1.3-0.9,1.9c-0.5,0.8-1.3,1.3-2,2
		C7.8,3.3,7.2,7.9,9,11.3c1.7,3.5,5.4,5.7,9.3,6.1c3.8,0.4,7.7-1,10.8-3.3c5.1,3.5,12.5,3.1,17.2-1c3.2,6.3,11.1,9.9,17.9,8
		c-1.4,2.2-2.9,4.5-3.2,7.1c-0.6,4.6,3.3,9.2,7.9,9.5c-0.4,1,0.3,2.2,1.3,2.7c0.9,0.5,2.1,0.6,3.2,0.6c0.9-0.2,1.3-1.4,0.7-2.1
		c-1.3-1.6-2.6,0.5-1.9,1.9C72.6,42.1,74,43.8,75.4,44.5z"/>
	<path class="st4" d="M12.5,15.4c1.6,1.1,3.6,1.8,5.5,2c3.8,0.4,7.7-1,10.8-3.3c5.1,3.5,12.5,3.1,17.2-1c3.2,6.3,11.1,9.9,17.9,8
		c-1.4,2.2-2.9,4.5-3.2,7.1c-0.6,4.6,3.3,9.2,7.9,9.5c-0.4,1,0.3,2.2,1.3,2.7c0.6,0.3,1.3,0.5,2,0.5c0.7,1.3,2,3,3.3,3.6
		c3.3,1.7,7.3,2.4,10.6,0.6c2.7-1.5,4.4-4.9,3.6-7.8c-0.5,2.5-2.9,3.7-5.4,3.8c-1.8,0-3.3-0.6-3.8-2.4c-0.3-1.3-0.1-2.7-0.1-4
		c-1.3,1-4.1,1-5.4-0.2c-0.8-0.8-0.9-2.2-0.8-3.3c-0.4,0-0.9,0.4-1.4,0.5c-0.9,0.2-1.9,0.2-2.8,0.1c-1.7-0.2-3.5-1.1-4.5-2.5
		c-1.3-1.8-0.9-4.3-0.4-6.3c0.5-2,1.6-3.9,3.1-5.3c-1.2,0.4-2.4,0.9-3.8,1c-2.1,0.2-4.4-0.4-6.4-1.3c-2.2-1-4-2.9-5.1-5
		c-0.6-1.1-1-2.4-1.8-3.4c-0.4,1.6-2.3,1.6-3.4,0.9c-0.2-0.1-0.8-0.8-1.2-0.7c-0.2,0.1-0.6,0.9-0.8,1.1c-2.2,2.4-6,3.1-9.1,2.8
		c-3.2-0.3-5.7-1.3-7.9-3.7c-0.7,1.1-1.2,2.1-2.3,2.8c-1.3,0.8-2.8,1.4-4.2,1.9c-2,0.8-4.2,1.5-6.4,1.6
		C14.6,15.6,13.6,15.5,12.5,15.4z"/>
	<path class="st4" d="M90.6,30.1c0.2-1.1,0.2-2.4-0.6-3.2c-0.8-0.9-2.1-1-3.2-0.6c-1.1,0.5-1.8,1.4-2.4,2.4c-0.2-0.8-1.1-1.2-2-1.4
		c-0.9-0.2-1.9-0.3-2.8,0c-0.9,0.2-1.8,0.7-2.3,1.5c-0.2,0.4-0.4,0.9-0.4,1.3c0,0.5,0.3,0.9,0.8,1.1c-0.3,0.9,0.6,1.6,1.5,1.9
		c1.1,0.3,2.2,0.1,3.2-0.4c-0.4,0.8,0,1.8,0.7,2.3c1.3,0.9,3.8,1.1,4.9-0.2C89.3,33.3,90.3,32,90.6,30.1z"/>
	<path class="st4" d="M71.4,12.5c0-0.6-0.1-1.2-0.3-1.7c-0.4-0.9-1.4-1.6-2.5-1.7c-1-0.1-2.1,0.5-2.7,1.4c-0.1-0.8-1.2-1.2-2-1.1
		c-0.8,0.1-1.7,0.5-2.5,0.4c-0.1,0-0.3-0.1-0.4-0.2c-0.1-0.1-0.1-0.3-0.1-0.4c-0.1-0.9-1.1-1.5-2.1-1.6c-1.4-0.2-2.9,0.2-3.8,1.3
		c-0.9,1.1-0.8,2.9,0.4,3.7c0.2,0.1,0.4,0.2,0.5,0.4c0.1,0.1,0.1,0.3,0.1,0.4c0.2,1.1,1.1,2,2.2,2.5c1.1,0.4,2.3,0.4,3.3,0.1
		c0.2-0.1,0.4-0.1,0.6,0c0.1,0.1,0.1,0.2,0.2,0.3c0.3,0.7,1.3,0.9,2.1,1C67.6,17.6,71.3,16,71.4,12.5z"/>
	<path class="st4" d="M26.1,10.2c0.7-1.1,1.3-2.3,1.7-3.6c0.5-1.6,0.6-3.3-0.1-4.7c-0.7-1.4-2.7-2.3-4.1-1.6
		c-0.2,0.1-0.4,0.3-0.6,0.3c-0.2,0-0.4,0-0.6,0c-0.9,0.1-1.5,0.7-2,1.5c-0.7,1.2-1,2.7-0.3,3.9c-1.4-0.2-2.9,0.4-3.6,1.6
		c-0.1,0.1-0.2,0.3-0.3,0.4c-0.3,0.2-0.6,0-0.9,0c-0.9-0.2-1.8,0.3-2.2,1c-0.4,0.8-0.2,1.8,0.4,2.4c0.6,0.6,1.7,0.7,2.4,0.3
		c0.3,0.6,1,0.8,1.6,0.9C20.5,13.5,24.2,13,26.1,10.2z"/>
	<path class="st0" d="M17.7,26.9c0-0.7-0.4-1.4-1.1-1.7c-0.6-0.3-1.5-0.2-2,0.2c1.1-1,2.2-2.2,2.1-3.6c-0.1-1.4-1.4-2.5-2.8-2.7
		c-1.4-0.3-2.8,0.1-4.1,0.6c0.6-0.5,0.7-1.5,0.2-2.1C9.6,17,8.6,16.9,8,17.4c-0.6,0.5-0.7,1.3-1.3,1.7c-0.5,0.4-1.2,0.4-1.9,0.6
		c-1,0.3-1.8,1.1-2.1,2.1c-0.1,0.2-0.1,0.5-0.1,0.7c0.1,0.2,0.3,0.4,0.5,0.6c1.2,0.9,2.8,1.1,4.3,0.9c0.2,0,0.4-0.1,0.6,0
		c0.3,0.1,0.5,0.5,0.5,0.8s0,0.7,0,1c0.1,1.4,1.4,2.4,2.7,3c1.2,0.6,3,1.4,4.4,1.1C16.7,29.6,17.7,28,17.7,26.9z"/>
	<path class="st5" d="M85.4,42.4c-0.6-0.1-1.1,0.2-1.7,0.4c-0.9,0.3-1.8,0.5-2.7,0.2c-0.9-0.2-1.7-0.9-1.9-1.8c0-0.2,0-0.3-0.1-0.5
		c-0.3-0.4-0.9-0.3-1.2-0.6c-0.4-0.4,0.1-1.2-0.2-1.8c-0.2-0.3-0.5-0.4-0.8-0.5c-0.5-0.1-1-0.1-1.5,0c-0.7,0.2-1.5,0.5-2.1,0.1
		c-0.4-0.3-0.5-0.8-0.6-1.2c-0.2-0.6-0.6-1.1-1.1-1.4c-0.5-0.3-1.3-0.4-1.8,0c-0.5,0.3-0.8,1.1-0.6,1.6c0.5,1.1,2.2,0.9,2.9,1.9
		c0.4,0.6,0.4,1.4,1,1.7c0.6,0.2,1.4-0.3,1.9,0.2c0.2,0.2,0.2,0.4,0.3,0.7c0.2,1,0.7,2.1,1.6,2.4c0.6,0.2,1.2,0.1,1.7,0.3
		c0.4,0.2,0.8,0.5,1.2,0.8c1.2,0.7,2.6,0.7,4,0.6c1.2-0.1,1.4-0.5,2.1-1.3c0.3-0.3,0.7-0.5,0.6-1C86.2,42.8,85.8,42.4,85.4,42.4z"/>
	<path class="st5" d="M88.1,32.7c0-0.1,0.1-0.3,0.1-0.4c0-0.1-0.1-0.2-0.1-0.3c-0.1-0.3,0.1-0.7,0.2-1c0.2-0.5,0.4-0.9,0.5-1.4
		c0-0.5-0.1-1.1-0.5-1.4c-0.2-0.2-0.5-0.3-0.8-0.3c-0.2,0-0.4-0.1-0.6,0c-0.3,0.1-0.4,0.4-0.5,0.7c-0.1,0.3,0,0.6-0.1,0.8
		c-0.1,0.4-0.3,0.9-0.6,1.1c-0.3,0.3-0.8,0.4-1.3,0.2c-0.6-0.2-0.9-0.8-1.5-1c-0.4-0.1-0.9,0.1-1.1,0.4c-0.2,0.4-0.2,0.9,0,1.2
		c0.4,0.6,1.3,0.5,2,0.7c0.1,0,0.1,0,0.2,0.1c0.1,0.1,0.1,0.3,0,0.5c-0.1,0.1-0.2,0.2-0.3,0.4c-0.6,1.1,1.4,1.3,2.1,1.3
		C86.9,34.3,87.7,33.7,88.1,32.7z"/>
	<path class="st5" d="M69,11.6c-0.3-0.2-0.8-0.3-1.1-0.1c-0.4,0.2-0.5,0.6-0.8,0.9c-0.4,0.3-1,0.4-1.4,0.2c-0.1-0.6-0.9-1-1.5-0.9
		c-0.6,0.1-1.3,0.4-1.9,0.4c-0.4,0-0.9-0.1-1.3,0.1c-0.6,0.3-0.6,1.1-0.2,1.6c0.4,0.5,1.1,0.6,1.7,0.4c0.3-0.1,0.6-0.3,0.9-0.1
		c0.2,0.1,0.3,0.5,0.4,0.7C64.9,17.9,72.7,13.7,69,11.6z"/>
	<path class="st5" d="M25.3,8.8c0-0.3-0.1-0.6,0-0.9c0.1-0.3,0.3-0.5,0.5-0.8c0.6-0.7,0.7-1.7,0.9-2.6c0.1-0.9,0.3-1.8-0.1-2.6
		c-0.3-0.8-1.2-1.4-2-1.2c-0.7,0.2-1.1,1-1.1,1.8c0,0.7,0.2,1.5,0.3,2.2C24,5.5,24,6.3,23.5,6.9c-0.6,0.7-1.6,0.9-2.3,1.5
		c-0.3,0.3-0.4,0.6-0.8,0.8c-0.9,0.4-2-0.8-2.8-0.3c-0.5,0.3-0.4,1.1,0,1.5c0.4,0.4,1,0.4,1.6,0.4c0.3,0,0.7-0.1,1-0.1
		c1.4,0.2,1.6,0.8,3.1,0.2C24.4,10.5,25.3,9.9,25.3,8.8z"/>
	<path class="st5" d="M22.6,66.7c0.4-0.2,0.7-0.5,0.9-0.9c0.2-0.4,0.1-0.8-0.1-1.2c-0.3-0.9-1.1-1.6-2-2c-0.9-0.4-1.8-0.7-2.7-0.9
		c-1.5-0.4-3.1-1-4.6-1.6c-1.1-0.4-2.1-0.9-3.2-1.2c-1.1-0.3-2.3-0.4-3.4-0.1c-0.4,0.1-0.9,0.4-1,0.8c0,0.3,0.1,0.6,0.4,0.8
		c0.3,0.2,0.6,0.3,0.9,0.3c2.5,0.5,5.2,0.4,7.6,1.2c0.9,0.3,1.8,0.8,2.1,1.6c0.2,0.4,0.2,0.9-0.2,1.2c-0.2,0.2-0.5,0.3-0.9,0.3
		c-1.3,0.1-2.7-0.7-4-0.2c-0.1,0-0.1,0.1-0.1,0.1c0,0,0,0.1,0,0.2c0.1,0.4,0.5,0.6,0.8,0.7c1,0.4,2.2,0.4,3.3,0.7
		c1.2,0.3,2.3,0.8,3.5,0.8C20.8,67.5,21.8,67.1,22.6,66.7z"/>
</g>
</svg>
