<?xml version="1.0" encoding="utf-8"?>
<!-- Generator: Adobe Illustrator 25.2.1, SVG Export Plug-In . SVG Version: 6.00 Build 0)  -->
<svg version="1.1" id="Layer_2" xmlns="http://www.w3.org/2000/svg" xmlns:xlink="http://www.w3.org/1999/xlink" x="0px" y="0px"
	 viewBox="0 0 200 200" style="enable-background:new 0 0 200 200;" xml:space="preserve">
<style type="text/css">
	.st0{fill:#FFD97B;}
	.st1{fill:#F7C24B;}
	.st2{fill:#FFD561;}
	.st3{fill:#E0A43B;}
	.st4{fill:#FFCD50;}
</style>
<path class="st0" d="M115.5,20.6l-2.1,2.8c-0.9,1.2-1,2.9-0.1,4.2l34.1,50.8c2.1,3.1,4.8,5.6,8,7.5l18.2,10.4l-43.2-67.9L115.5,20.6
	z"/>
<g>
	<g>
		<path class="st1" d="M130.2,35.9c9.8,10.9,18.6,22.6,26.9,34.6c5.8,8.5,11.3,17.3,16.5,26.1l31,0.9l5.8-3.9l0.4-10.6
			c0-0.6-0.4-1.5-1-1.8c-0.6-0.3-1-1.2-1-3.4c-0.1-2.8,0.8-3.8,1.5-4.1c0.6-0.3,0.9-0.6,0.9-1.3l0.6-25.5c0,0-0.6,0-1-2.5
			c-0.4-2.8,0.9-2.8,0.9-2.8l0.2-4.7l-86.8-6.9C126.6,32.1,128.4,34,130.2,35.9z"/>
		<path class="st2" d="M130.2,35.9c0.4,0.5,0.9,1,1.3,1.5l71.6,4.6l8.6-4.6l-86.9-17.1c-1.6-0.3-3.4-0.5-5-0.2l-4.4,0.6
			C120.5,25.6,125.4,30.7,130.2,35.9z"/>
	</g>
	<path class="st3" d="M201.3,92.1c0,1.6,0.4,3.1-1.8,3.2c-1.2,0-3.1-1.5-3.2-3s1.5-3.1,2.7-3.2C200.2,89,201.2,90.6,201.3,92.1z"/>
	<path class="st3" d="M169.3,46.3c2.2,0.3,4.3-0.4,4.1,3.3c-0.3,2.2-2.7,5.4-4.8,5.1c-2.2-0.3-4.1-3-3.9-5.2
		C165,47.3,167.1,46.3,169.3,46.3z"/>
	<path class="st3" d="M164.2,53.2c0.9,0,1.6,0,1.6,1.2c0,0.9-0.9,1.9-1.8,1.9c-0.9,0-1.6-1.2-1.6-2.1
		C162.6,53.6,163.2,53.3,164.2,53.2z"/>
	<path class="st4" d="M123.8,29.1c2.4,0.1,4.9-1.4,4.9-2.6c0.3-1.9-2.5-1.8-5-2.1c-1.6-0.2-3.1,0.1-4,0.5
		C121,26.2,122.4,27.6,123.8,29.1z"/>
	<path class="st4" d="M203.6,36.7c0.9,0,1.9,0,1.6,0.9c0,0.6-0.9,1.3-1.8,1c-0.9,0-1.6-0.9-1.6-1.2S202.7,36.7,203.6,36.7z"/>
	<path class="st4" d="M191.8,37.3c1.9,0.3,3.7,0.2,3.8,1.5c0,0.9-2.1,1.9-3.7,1.6c-1.6-0.3-3.5-1.2-3.5-2.1
		C188.4,37.4,190.2,37,191.8,37.3z"/>
</g>
<g>
	<g>
		<path class="st1" d="M105.5,77.3c-12.9-6.7-26.1-12.7-39.8-17.6c-1.8-0.6-3.6-1.3-5.5-1.9l-20.5,8.7L-3.1,93.1l11.4,19.3
			c0.2,0.3,0.6,0.4,0.8,0.2c0.7-0.7,2.3-1.6,4.9,3c1.7,3,0.3,3.7-0.7,3.9c-0.3,0.2-0.4,0.6-0.2,0.8l15.1,25.4L135,94.2
			C125.4,88.2,115.6,82.6,105.5,77.3z"/>
		<path class="st2" d="M65.8,59.7c-5.7-2-11.5-3.8-17.4-5.4L-3.5,91.2c-1.1,0.6,0,2.5,1.3,1.8l71.9-31.7
			C68.4,60.7,67.1,60.2,65.8,59.7z"/>
	</g>
	<path class="st3" d="M43.3,109.7c1.2,2.2,3.1,4.3-0.2,6.1c-1.9,1.1-6.1,0.5-7.5-1.9c-1.2-2.2-0.1-6,1.8-7
		C39.8,105.9,42.1,107.5,43.3,109.7z"/>
	<path class="st4" d="M59.3,57.5c-0.4-0.1-0.8-0.2-1.1-0.4c-0.3,0.1-0.6,0.3-0.9,0.5c-0.8,0.5-1.6,0.9-1.3,1.4
		c0.2,0.3,1.4,0.6,2.2,0.2C59.1,59.1,59.6,58.1,59.3,57.5C59.3,57.5,59.3,57.5,59.3,57.5z"/>
</g>
</svg>
