<?xml version="1.0" encoding="utf-8"?>
<!-- Generator: Adobe Illustrator 25.2.1, SVG Export Plug-In . SVG Version: 6.00 Build 0)  -->
<svg version="1.1" id="Layer_3" xmlns="http://www.w3.org/2000/svg" xmlns:xlink="http://www.w3.org/1999/xlink" x="0px" y="0px"
	 viewBox="0 0 200 200" style="enable-background:new 0 0 200 200;" xml:space="preserve">
<style type="text/css">
	.st0{fill:#F7C24B;}
	.st1{fill:#FFD561;}
	.st2{fill:#E0A43B;}
	.st3{fill:#FFCD50;}
</style>
<g>
	<g>
		<path class="st0" d="M22.2,53.1l0.6,22.4c0,0.3,0.3,0.6,0.6,0.6c0.9-0.3,2.8-0.3,2.8,5c0,3.4-1.6,3.4-2.5,3.1
			c-0.3,0-0.6,0.3-0.6,0.6l0.9,29.5l152.7,8.4l5.9-3.7l0.6-10.6c0-0.6-0.3-1.6-0.9-1.9c-0.6-0.3-0.9-1.2-0.9-3.4
			c0-2.8,0.9-3.7,1.6-4c0.6-0.3,0.9-0.6,0.9-1.2l1.2-25.5c0,0-0.6,0-0.9-2.5c-0.3-2.8,0.9-2.8,0.9-2.8l0.3-4.7L72.6,50.6L22.2,53.1z
			"/>
		<path class="st1" d="M22.8,51.2l71.2-8.1c1.6-0.3,3.4,0,5,0.3l86.5,19.3l-8.7,4.4L23.2,53.4C21.6,53.4,21.6,51.2,22.8,51.2z"/>
	</g>
	<path class="st2" d="M54.9,90.1c0,2.5,0.6,5.3-3.1,5.3c-2.2,0-5.6-2.5-5.6-5.3c0-2.5,2.8-5.3,5-5.3C53.6,85.1,54.9,87.6,54.9,90.1z
		"/>
	<path class="st2" d="M173.7,117.2c0,1.6,0.3,3.1-1.9,3.1c-1.2,0-3.1-1.6-3.1-3.1s1.6-3.1,2.8-3.1
		C172.8,114.1,173.7,115.6,173.7,117.2z"/>
	<path class="st2" d="M142.9,70.5c2.2,0.3,4.4-0.3,4,3.4c-0.3,2.2-2.8,5.3-5,5c-2.2-0.3-4-3.1-3.7-5.3
		C138.5,71.4,140.7,70.5,142.9,70.5z"/>
	<path class="st2" d="M137.6,77.4c0.9,0,1.6,0,1.6,1.2c0,0.9-0.9,1.9-1.9,1.9s-1.6-1.2-1.6-2.2C136.1,77.7,136.7,77.4,137.6,77.4z"
		/>
	<path class="st3" d="M97.8,47.5c2.5,0.3,5.3,0.3,5,2.2c0,1.2-2.8,2.8-5.3,2.5c-2.5-0.3-4.7-2.2-4.7-3.4
		C92.8,47.8,95.3,47.2,97.8,47.5z"/>
	<path class="st3" d="M92.2,51.2c0.9,0,1.9,0,1.9,0.9c0,0.6-0.9,1.2-1.9,0.9c-0.9,0-1.9-0.9-1.9-1.2C90.3,51.2,91.3,51.2,92.2,51.2z
		"/>
	<path class="st3" d="M177.4,61.8c0.9,0,1.9,0,1.6,0.9c0,0.6-0.9,1.2-1.9,0.9c-0.9,0-1.6-0.9-1.6-1.2S176.5,61.8,177.4,61.8z"/>
	<path class="st3" d="M165.6,62.1c1.9,0.3,3.7,0.3,3.7,1.6c0,0.9-2.2,1.9-3.7,1.6s-3.4-1.2-3.4-2.2C162.2,62.1,164,61.8,165.6,62.1z
		"/>
</g>
</svg>
