<?xml version="1.0" encoding="utf-8"?>
<!-- Generator: Adobe Illustrator 25.2.1, SVG Export Plug-In . SVG Version: 6.00 Build 0)  -->
<svg version="1.1" id="Layer_2" xmlns="http://www.w3.org/2000/svg" xmlns:xlink="http://www.w3.org/1999/xlink" x="0px" y="0px"
	 viewBox="0 0 200 200" style="enable-background:new 0 0 200 200;" xml:space="preserve">
<style type="text/css">
	.st0{fill:#9E2626;}
	.st1{fill:#B52730;}
	.st2{fill:#D82E2E;}
	.st3{opacity:0.58;fill:#A31A1A;enable-background:new    ;}
	.st4{fill:#87AB4D;}
	.st5{fill:#75913D;}
	.st6{fill:#832626;}
	.st7{fill:#5E3407;}
	.st8{opacity:0.5;fill:#994F0D;}
	.st9{fill:#CC3930;}
	.st10{fill:#CC2730;}
</style>
<path class="st0" d="M115.9,134.5c11.7,13.1,23.3,21.8,25.9,19.5c2.6-2.3-4.8-14.8-16.5-27.8s-23.4-20.9-25.9-18.6
	C96.7,109.8,104.2,121.4,115.9,134.5z"/>
<g>
	<g>
		<path class="st1" d="M123.9,134.6c-8.5-8.6-17.3-17.1-24.7-26.7c-8.9,4.3-13.8,16.1-11.8,26.5c3.1,16.4,7.6,33.1,38.7,23
			c6.7-0.4,11.9-1.7,16-3.6C136.1,147.2,130.1,140.8,123.9,134.6z"/>
		<path class="st2" d="M101.2,110.4c-2.7,1.5-5.7,4.2-7.2,6.7c-4.1,6.9-1,13,3.7,12.4c2.8-0.5,5.7-5.3,7.2-9.4
			c0.5-1.2,1-2.6,1.4-3.8C104.5,114.3,102.9,112.4,101.2,110.4z"/>
		<path class="st3" d="M139.1,150.4c-3.3,1.5-7,2.1-11.2,1.4c-2-0.3-3.8,0.4-5.1,1.6c-4.8,5.1-16.3,6.7-21.7,5.4
			c5.5,2.1,13.2,2,24.4-1.5l1.2-0.2c6.4-0.5,11.4-1.7,15.4-3.6C141.1,152.6,140.1,151.5,139.1,150.4z"/>
	</g>
</g>
<g>
	<g>
		<path class="st4" d="M156.6,91.7c0,0-2.6-21,7.4-36.2s25.8-33.4,27.2-33.4c1.4-0.1,5.9,0.5,7.5,1.6c1.7,0.7,2.4,2.4,2.4,2.4
			s-1.4,2.5-2.4,2.4c-1-0.1-4.9-3.8-5.8-3.2c-1,0.6-19.8,18.8-26.3,30.7c-11.4,20.1-6,37.5-6,37.5s-2.9,1.1-3.2,1
			C157.2,94.3,156.6,91.7,156.6,91.7z"/>
		<path class="st5" d="M159.2,92.8c0.7-2.4-5.8-17.6,6.4-37.7c9-12.9,25.2-30.5,26.7-30.9c1.4-0.1,3.5,2.2,5.2,2.9s3.7-1.5,3.7-1.5
			s-1.4,2.5-2.4,2.4c-1-0.1-4.9-3.8-5.8-3.2c-1,0.6-19.8,18.8-26.3,30.7c-11.4,20.1-6,37.5-6,37.5s-2.9,1.1-3.2,1
			C157.2,94.3,158.4,95.5,159.2,92.8z"/>
	</g>
	<g>
		<path class="st1" d="M148.9,98.2c1.1,6.9,2.4,13.7,3.7,20.6c1.3,7.1,2.3,14.2,3.4,21.3c0.2,1.1,0.3,2.1,0.5,3.2
			c15.6,0.9,23.2-13.1,28.1-24.4c6.6-15.3-6.7-35.1-25.9-26.3c-3.1-6.1-7.2-9.5-11.8-11C147.3,87.1,148,92.7,148.9,98.2z"/>
		<path class="st2" d="M147.6,89.3c1-1.3,1.4-2.6,0.6-3.6c-0.2-0.4-0.6-0.7-1.1-0.9C147.3,86.3,147.4,87.8,147.6,89.3z"/>
		<path class="st3" d="M156,140c0.2,1.1,0.3,2.1,0.5,3.2c15.6,1,23.2-12.9,28.1-24.3c-4.5,10.4-17,20.3-28.8,19.9
			C155.8,139.2,155.9,139.6,156,140z"/>
	</g>
</g>
<path class="st0" d="M157,111.8c-2.8-17.3-7.9-30.9-11.3-30.4c-3.4,0.6-3.9,15-1.1,32.4s8.4,30.2,11.8,29.7S159.8,129.2,157,111.8z"
	/>
<ellipse transform="matrix(0.761 -0.6487 0.6487 0.761 -54.2668 111.3589)" class="st6" cx="124" cy="129.3" rx="2.1" ry="11"/>
<ellipse transform="matrix(0.9894 -0.1455 0.1455 0.9894 -15.377 23.2566)" class="st6" cx="151.2" cy="116.7" rx="3.3" ry="14"/>
<g>
	
		<ellipse transform="matrix(0.9763 -0.2162 0.2162 0.9763 -22.2691 35.4178)" class="st7" cx="150.7" cy="119.5" rx="3.9" ry="8.1"/>
	<path class="st8" d="M149,111.6c5.5,1.2,4.4,15,3.5,15.8c2.1-0.5,3-4.4,2-8.7C153.5,114.3,151.1,111.1,149,111.6z"/>
</g>
<path class="st0" d="M91.4,196.5c-11.7,13.1-23.3,21.8-25.9,19.5c-2.6-2.3,4.8-14.8,16.5-27.8s23.4-20.9,25.9-18.6
	C110.6,171.8,103.1,183.4,91.4,196.5z"/>
<g>
	<g>
		<path class="st9" d="M83.3,196.6c8.5-8.6,17.3-17.1,24.7-26.7c8.9,4.3,13.8,16.1,11.8,26.5c-3.1,16.4-7.6,33.1-38.7,23
			c-6.7-0.4-11.9-1.7-16-3.6C71.1,209.2,77.2,202.8,83.3,196.6z"/>
		<path class="st2" d="M106,172.4c2.7,1.5,5.7,4.2,7.2,6.7c4.1,6.9,1,13-3.7,12.4c-2.8-0.5-5.7-5.3-7.2-9.4c-0.5-1.2-1-2.6-1.4-3.8
			C102.7,176.3,104.4,174.4,106,172.4z"/>
		<path class="st3" d="M68.2,212.4c3.3,1.5,7,2.1,11.2,1.4c2-0.3,3.8,0.4,5.1,1.6c4.8,5.1,16.3,6.7,21.7,5.4
			c-5.5,2.1-13.2,2-24.4-1.5l-1.2-0.2c-6.4-0.5-11.4-1.7-15.4-3.6C66.2,214.6,67.2,213.5,68.2,212.4z"/>
	</g>
</g>
<g>
	<g>
		<path class="st4" d="M50.6,153.7c0,0,2.6-21-7.4-36.2S17.5,84.2,16.1,84.1c-1.4-0.1-5.9,0.5-7.5,1.6C6.8,86.4,6.1,88,6.1,88
			s1.4,2.5,2.4,2.4c1-0.1,4.9-3.8,5.8-3.2s19.8,18.8,26.3,30.7c11.4,20.1,6,37.5,6,37.5s2.9,1.1,3.2,1
			C50.1,156.3,50.6,153.7,50.6,153.7z"/>
		<path class="st5" d="M48.1,154.8c-0.7-2.4,5.8-17.6-6.4-37.7c-9-12.9-25.2-30.5-26.7-30.9c-1.4-0.1-3.5,2.2-5.2,2.9S6,87.8,6,87.8
			s1.4,2.5,2.4,2.4s4.9-3.8,5.8-3.2s19.8,18.8,26.3,30.7c11.4,20.1,6,37.5,6,37.5s2.9,1.1,3.2,1C50.1,156.3,48.9,157.5,48.1,154.8z"
			/>
	</g>
	<g>
		<path class="st9" d="M58.4,160.2c-1.1,6.9-2.4,13.7-3.7,20.6c-1.3,7.1-2.3,14.2-3.4,21.3c-0.2,1.1-0.3,2.1-0.5,3.2
			c-15.6,0.9-23.2-13.1-28.1-24.4c-6.6-15.3,6.7-35.1,25.9-26.3c3.1-6.1,7.2-9.5,11.8-11C60,149.1,59.3,154.7,58.4,160.2z"/>
		<path class="st2" d="M59.6,151.3c-1-1.3-1.4-2.6-0.6-3.6c0.2-0.4,0.6-0.7,1.1-0.9C60,148.3,59.8,149.8,59.6,151.3z"/>
		<path class="st3" d="M51.3,202c-0.2,1.1-0.3,2.1-0.5,3.2c-15.6,1-23.2-12.9-28.1-24.3c4.5,10.4,17,20.3,28.8,19.9
			C51.4,201.2,51.4,201.6,51.3,202z"/>
	</g>
</g>
<path class="st0" d="M50.3,173.8c2.8-17.3,7.9-30.9,11.3-30.4c3.4,0.6,3.9,15,1.1,32.4c-2.8,17.3-8.4,30.2-11.8,29.7
	S47.5,191.2,50.3,173.8z"/>
<ellipse transform="matrix(0.6487 -0.761 0.761 0.6487 -116.3645 130.5704)" class="st6" cx="83.3" cy="191.3" rx="11" ry="2.1"/>
<ellipse transform="matrix(0.1455 -0.9894 0.9894 0.1455 -128.9455 208.1277)" class="st6" cx="56" cy="178.7" rx="14" ry="3.3"/>
<g>
	
		<ellipse transform="matrix(0.2162 -0.9763 0.9763 0.2162 -132.8938 197.4394)" class="st7" cx="56.5" cy="181.5" rx="8.1" ry="3.9"/>
	<path class="st8" d="M58.3,173.6c-5.5,1.2-4.4,15-3.5,15.8c-2.1-0.5-3-4.4-2-8.7C53.7,176.3,56.2,173.1,58.3,173.6z"/>
</g>
<path class="st0" d="M49.9,44.5C61.6,57.6,73.2,66.3,75.8,64c2.6-2.3-4.8-14.8-16.5-27.8S35.9,15.2,33.3,17.5
	C30.7,19.8,38.2,31.4,49.9,44.5z"/>
<g>
	<g>
		<path class="st10" d="M57.9,44.6C49.4,36,40.6,27.5,33.3,17.8c-8.9,4.3-13.8,16.1-11.8,26.5c3.1,16.4,7.6,33.1,38.7,23
			c6.7-0.4,11.9-1.7,16-3.6C70.1,57.2,64.1,50.8,57.9,44.6z"/>
		<path class="st2" d="M35.2,20.4c-2.7,1.5-5.7,4.2-7.2,6.7c-4.1,6.9-1,13,3.7,12.4c2.8-0.5,5.7-5.3,7.2-9.4c0.5-1.2,1-2.6,1.4-3.8
			C38.5,24.3,36.9,22.4,35.2,20.4z"/>
		<path class="st3" d="M73.1,60.4c-3.3,1.5-7,2.1-11.2,1.4c-2-0.3-3.8,0.4-5.1,1.6c-4.8,5.1-16.3,6.7-21.7,5.4
			c5.5,2.1,13.2,2,24.4-1.5l1.2-0.2c6.4-0.5,11.4-1.7,15.4-3.6C75.1,62.6,74.1,61.5,73.1,60.4z"/>
	</g>
</g>
<g>
	<g>
		<path class="st4" d="M90.6,1.7c0,0-2.6-21,7.4-36.2s25.8-33.4,27.2-33.4c1.4-0.1,5.9,0.5,7.5,1.6c1.7,0.7,2.4,2.4,2.4,2.4
			s-1.4,2.5-2.4,2.4c-1-0.1-4.9-3.8-5.8-3.2c-1,0.6-19.8,18.8-26.3,30.7c-11.4,20.1-6,37.5-6,37.5s-2.9,1.1-3.2,1
			C91.2,4.3,90.6,1.7,90.6,1.7z"/>
		<path class="st5" d="M93.2,2.8c0.7-2.4-5.8-17.6,6.4-37.7c9-12.9,25.2-30.5,26.7-30.9c1.4-0.1,3.5,2.2,5.2,2.9
			c1.7,0.7,3.7-1.5,3.7-1.5s-1.4,2.5-2.4,2.4c-1-0.1-4.9-3.8-5.8-3.2s-19.8,18.8-26.3,30.7c-11.4,20.1-6,37.5-6,37.5s-2.9,1.1-3.2,1
			C91.2,4.3,92.4,5.5,93.2,2.8z"/>
	</g>
	<g>
		<path class="st10" d="M82.9,8.2c1.1,6.9,2.4,13.7,3.7,20.6c1.3,7.1,2.3,14.2,3.4,21.3c0.2,1.1,0.3,2.1,0.5,3.2
			c15.6,0.9,23.2-13.1,28.1-24.4c6.6-15.3-6.7-35.1-25.9-26.3c-3.1-6.1-7.2-9.5-11.8-11C81.3-2.9,82,2.7,82.9,8.2z"/>
		<path class="st2" d="M81.6-0.7c1-1.3,1.4-2.6,0.6-3.6C82-4.7,81.7-5,81.1-5.2C81.3-3.7,81.4-2.2,81.6-0.7z"/>
		<path class="st3" d="M90,50c0.2,1.1,0.3,2.1,0.5,3.2c15.6,1,23.2-12.9,28.1-24.3c-4.5,10.4-17,20.3-28.8,19.9
			C89.8,49.2,89.9,49.6,90,50z"/>
	</g>
</g>
<path class="st0" d="M91,21.8C88.2,4.5,83.1-9.1,79.7-8.5c-3.4,0.6-3.9,15-1.1,32.4s8.4,30.2,11.8,29.7C93.9,53,93.8,39.2,91,21.8z"
	/>
<ellipse transform="matrix(0.761 -0.6487 0.6487 0.761 -11.654 47.0348)" class="st6" cx="58" cy="39.3" rx="2.1" ry="11"/>
<ellipse transform="matrix(0.9894 -0.1455 0.1455 0.9894 -2.9806 12.6922)" class="st6" cx="85.2" cy="26.7" rx="3.3" ry="14"/>
<g>
	<ellipse transform="matrix(0.9763 -0.2162 0.2162 0.9763 -4.3716 19.0196)" class="st7" cx="84.7" cy="29.5" rx="3.9" ry="8.1"/>
	<path class="st8" d="M83,21.6c5.5,1.2,4.4,15,3.5,15.8c2.1-0.5,3-4.4,2-8.7S85.1,21.1,83,21.6z"/>
</g>
</svg>
