<?xml version="1.0" encoding="utf-8"?>
<!-- Generator: Adobe Illustrator 25.2.1, SVG Export Plug-In . SVG Version: 6.00 Build 0)  -->
<svg version="1.1" id="Layer_3" xmlns="http://www.w3.org/2000/svg" xmlns:xlink="http://www.w3.org/1999/xlink" x="0px" y="0px"
	 viewBox="0 0 200 200" style="enable-background:new 0 0 200 200;" xml:space="preserve">
<style type="text/css">
	.st0{fill:#FDC093;}
	.st1{fill:#F9A872;}
	.st2{fill:#FCCBA2;}
	.st3{fill:#FEDABB;}
	.st4{fill:#FDF1D9;}
</style>
<g>
	<path class="st0" d="M22.1,108.2c4.2,0.6,19.4,2.5,28.4,4.8c9,2.3,54.3,17.3,71.8,17.3s42.9-3.2,43.3-9c0.4-5.7-5.3-8-9-10.3
		c-3.8-2.3-14.5-9-18.5-13.3c-4-4.2-11.2-18.3-23.8-31.4C99.6,51.2,72.8,30,51.4,32.1c-16.6,1.7-24.8,7.6-30.9,17
		C11.8,62.6,7.4,72.9,9.9,88C12.7,103.8,17.9,107.6,22.1,108.2z"/>
	<path class="st1" d="M22.1,108.2c4.2,0.6,19.4,2.5,28.4,4.8c9,2.3,54.3,17.3,71.8,17.3s42.9-3.2,43.3-9c0.4-5.7-5.3-8-9-10.3
		c11.6,11.2-12.6,16.4-39.1,12c-19.4-3.2-40.8-12.6-61-18.3C33.9,98.4,15,104.9,9.9,88C12.7,103.8,17.9,107.6,22.1,108.2z"/>
	<path class="st2" d="M28.4,85.7c3.2,1.1,48.6,1.7,86.9,25.5c14.9,9.3,32.8,4.8,33.2,0.4c0.2-4.4-4.6-5.1-7.4-7.2
		c-14.7-11.8-21.9-25.5-32.8-34.7S74.1,40.9,58.9,39.9C46.1,39,32.6,42.6,26.5,53.3S17.7,82.4,28.4,85.7z"/>
	<path class="st3" d="M41.7,75c2.1,0.6,33.2,1.1,59.6,18.1c10.3,6.5,21.3,5.5,22.7,2.7c1.9-3.6-3.2-5.9-5.1-7.6
		c-10.1-8.2-15.2-18.1-22.5-24.6S72.2,44.9,61.9,44.3c-8.8-0.6-21.3,0.2-25.5,7.8S34.3,72.7,41.7,75z"/>
	<path class="st3" d="M66.3,99.6c-0.4,2.3-10.9,2.9-17.9,1.7c-6.9-1.3-16-5.9-15.6-8.2s9,2.5,16,3.8C55.8,98.4,66.7,97.5,66.3,99.6z
		"/>
	<path class="st4" d="M53.1,52.3c0.8-2.1,11.4-1.1,17.9,1.5c6.5,2.5,14.7,8.6,13.9,10.7c-0.8,2.1-8.4-4-14.9-6.5
		C63.4,55.6,52.4,54.4,53.1,52.3z"/>
</g>
</svg>
