<?xml version="1.0" encoding="utf-8"?>
<!-- Generator: Adobe Illustrator 25.2.1, SVG Export Plug-In . SVG Version: 6.00 Build 0)  -->
<svg version="1.1" id="Layer_2" xmlns="http://www.w3.org/2000/svg" xmlns:xlink="http://www.w3.org/1999/xlink" x="0px" y="0px"
	 viewBox="0 0 200 200" style="enable-background:new 0 0 200 200;" xml:space="preserve">
<style type="text/css">
	.st0{fill:#F2CBB1;}
	.st1{fill:#FDC093;}
	.st2{fill:#F9A872;}
	.st3{fill:#FCCBA2;}
	.st4{fill:#FEDABB;}
	.st5{fill:#FDF1D9;}
	.st6{opacity:0.5;fill:#FDF1D9;}
</style>
<ellipse transform="matrix(0.568 -0.823 0.823 0.568 -24.9758 143.3493)" class="st0" cx="124.1" cy="95.5" rx="35.4" ry="7"/>
<path class="st0" d="M70.2,43.8c0,0,1.3-7,6.3,0c5.8,8,7.2,33.7,5.8,52.5c-1.5,20.6-11.8,17.4-13.5,14.1
	C67.1,107.1,70.2,43.8,70.2,43.8z"/>
<path class="st1" d="M76,112.1c-0.7-10.9-1.5-21.8-2.1-32.7c-0.7-12.9-1.2-25.9-1.1-38.9c-19.6-2.7-43.6-2.4-56.9,8.2
	C3,59.2-0.7,68.7-0.7,79.9c0.1,16,2,27,12.4,38.4c10.9,11.7,17.4,12,21.2,10.3c3.9-1.8,17.6-8.4,26.4-11.4
	C62.2,116.2,68.4,114.4,76,112.1z"/>
<path class="st2" d="M76,112.1c-0.2-3.2-0.4-6.4-0.6-9.7c-5.3,1.4-10.6,2.8-15.6,4.4c-22.3,7-34.6,22.8-48,11.4
	c10.9,11.7,17.4,12,21.2,10.3c3.9-1.8,17.6-8.4,26.4-11.4C62.2,116.2,68.4,114.4,76,112.1z"/>
<path class="st3" d="M74.3,86.2c-0.1-2.2-0.3-4.5-0.4-6.7c-0.6-10.5-1-21-1.1-31.6c-15.3-1.5-35.9-2.5-46.3,3.3
	C15.4,57.5,6,67.8,6.8,80.1s8.4,29.2,19.3,26.1C28.3,105.7,47.6,93.7,74.3,86.2z"/>
<path class="st4" d="M31.3,90c1.7-0.5,19.2-11.4,42.4-15.7C73.3,66.6,73,58.8,72.9,51c-0.6-0.1-1.3-0.2-1.9-0.3
	c-9.7-1.4-30.5-2.5-39.5,2.6C23.7,57.5,13.8,65,14.4,73.7C15,82.3,23.8,92.1,31.3,90z"/>
<path class="st4" d="M65.3,97.2c0.9,2.2-7.6,8.4-14.1,11.2s-16.6,3.8-17.5,1.6s9-2.8,15.5-5.6C55.8,101.9,64.5,95.2,65.3,97.2z"/>
<path class="st5" d="M28.4,64.8c-0.4-2.2,8.9-7.1,15.8-8.5s17.1-0.8,17.5,1.4s-9.2,1.2-16.1,2.7C38.9,62,29,66.9,28.4,64.8z"/>
<path class="st6" d="M77.6,60.5C79.1,61,81,71.4,81,78.1c0,6.7-1.9,15.6-3.4,15.2c-1.5-0.5,0.5-8.8,0.5-15.5
	C78,71,76.1,60.2,77.6,60.5z"/>
<path class="st6" d="M111.5,109.6c-0.2-1,4.7-10.3,8.2-15.9s8.7-12.2,8.8-11.1c0.2,1-4.7,7.1-8.2,12.6
	C116.9,100.8,111.8,110.4,111.5,109.6z"/>
<g>
	<path class="st1" d="M191.5,122c-3.6-2.5-13.9-9.9-17.7-14.4c-3.7-4.4-10-18.9-21.8-32.7c-2.4-2.8-5.2-5.8-8.2-8.8
		c-1.7,2.3-3.4,4.6-5.1,6.9c-12.1,16.7-23,34.3-34.3,51.6c17,6.1,40.2,14,51.7,14.7c17.4,1.1,43-0.6,43.8-6.4
		C200.7,127.2,195.1,124.5,191.5,122z"/>
	<path class="st2" d="M191.5,122c10.9,11.8-13.6,15.6-39.8,9.6c-13.5-3-27.8-9.3-42.1-15.1c-1.7,2.7-3.5,5.4-5.2,8
		c17,6.1,40.2,14,51.7,14.7c17.4,1.1,43-0.6,43.8-6.4C200.7,127.2,195.1,124.5,191.5,122z"/>
	<path class="st3" d="M176.6,114.5c-14-12.7-20.3-26.7-30.7-36.6c-1.8-1.7-4-3.8-6.4-6c-0.3,0.4-0.5,0.7-0.8,1.1
		c-7,9.7-13.6,19.7-20.2,29.8c10.5,4.2,21.5,9.7,31.8,17c14.4,10.1,32.5,6.8,33.2,2.4C184,117.7,179.2,116.8,176.6,114.5z"/>
	<path class="st4" d="M155.3,97c-8-7.4-12.5-15.7-17.8-22.3c-4.3,6-8.5,12.2-12.6,18.4c4.2,2.2,8.4,4.8,12.5,7.8
		c9.9,7.1,20.9,6.7,22.5,4.1C162,101.4,157.1,98.8,155.3,97z"/>
</g>
</svg>
