<?xml version="1.0" encoding="utf-8"?>
<!-- Generator: Adobe Illustrator 25.2.1, SVG Export Plug-In . SVG Version: 6.00 Build 0)  -->
<svg version="1.1" id="Layer_3" xmlns="http://www.w3.org/2000/svg" xmlns:xlink="http://www.w3.org/1999/xlink" x="0px" y="0px"
	 viewBox="0 0 200 200" style="enable-background:new 0 0 200 200;" xml:space="preserve">
<style type="text/css">
	.st0{fill:#A780D8;}
	.st1{fill:#C780D8;}
	.st2{fill:#E097F2;}
	.st3{fill:#F4F4F4;}
	.st4{opacity:0.3;fill:#DDDDDD;}
	.st5{fill:#EAEAEA;}
</style>
<g>
	<path class="st0" d="M172.1,69.2c0,2.4-0.7,5.6-2.7,8.1c-2.9,20-37.7,38.5-68,38.5s-47-14.5-62.4-36.3l-2-3c-2-2.7-0.7-4.7-0.7-7.1
		c0-13.9,30.1-26.3,67.1-26.3C140.7,43.2,172.1,55.4,172.1,69.2z"/>
	<path class="st1" d="M118.8,133.7L118.8,133.7c-4.2,1.5-9.3,2.2-15.1,2.2s-10.9-0.9-15.1-2.2C63.9,128,32.1,99.2,32,70.2
		c0,13.5,27.5,33.4,71.5,33.4c46.5,0,71.5-20.2,71.7-33.4C175.1,99.2,143.4,128,118.8,133.7z"/>
	<path class="st0" d="M59.5,118.6c9.3,7.5,19.5,13,28.8,15.1c4.4,1.5,9.5,2.2,15.1,2.2c5.8,0,10.9-0.9,15.3-2.2l0,0
		c9.5-2.2,19.9-7.7,29.2-15.3C132.6,130.2,88,139,59.5,118.6z"/>
	<path class="st2" d="M175.3,70C175.3,70,175.3,70.2,175.3,70c-0.2,13.3-25.4,33.6-71.7,33.6c-44.1,0-71.7-19.9-71.9-33.4V70
		c0-15.5,32.1-29.5,71.7-29.5C143.2,40.5,175.3,54.5,175.3,70z M167.9,77.3c1.8-2.7,2.9-5.3,2.9-7.7c0-13.9-30.1-26.3-67.1-26.3
		S36.5,55.8,36.5,69.7c0,2.4,0.9,4.9,2.9,7.7c7.8,10.8,31,22.3,64.2,22.3C138.3,99.4,160.4,87.9,167.9,77.3z"/>
</g>
<ellipse class="st3" cx="103.8" cy="72.1" rx="64.5" ry="27.5"/>
<g>
	<path class="st3" d="M39.3,69.1c0.8,3.1,4,4.9,6.9,6.4c2.5,1.2,5,2.5,7.7,3.3c3.8,1.2,7.9,1.6,11.9,1.9c20,1.7,40.1,2.8,60.1,2.3
		c10.5-0.2,21.1-0.9,31.3-3.5c4-1,8.4-2.7,10.2-6.5c1.2-2.7,0.8-6-1.2-8.3c-0.6-0.6-1.2-1.2-1.6-1.9c-1.2-2.2,0.3-5.2-0.8-7.5
		c-1.1-2.1-4-2.6-6.3-2.2s-4.7,1.4-7.1,1c-0.6-0.1-1.2-0.3-1.6-0.7c-0.4-0.5-0.6-1.1-0.8-1.7c-1.4-3.1-5.4-4-8.9-4
		c-3.4,0-7.2,0.5-10-1.5c-0.9-0.6-1.6-1.5-2.5-2.2c-3-2.5-7.7-2.9-11.1-0.8c-1.3-2.3-4.4-3.2-7-2.7s-4.9,2.1-7.1,3.6
		c-0.3-2.4-0.8-5.2-2.9-6.4c-1.8-1-4.1-0.5-5.7,0.8c-1.6,1.2-2.6,3-3.5,4.8c-0.6,1.2-1.5,2.7-2.9,2.7c-0.6,0-1.1-0.3-1.7-0.4
		c-4.2-1.5-8.6,1-12.7,2.6c-1,0.4-2.2,0.7-3.2,0.3c-0.8-0.3-1.3-1-2.1-1.3c-1.2-0.5-2.7,0-3.7,0.8s-1.8,1.9-2.7,2.9
		c-0.2,0.2-0.4,0.4-0.7,0.3c-0.2-0.1-0.3-0.3-0.5-0.5c-1.1-1.7-3.8-1.9-5.6-1c-1.9,0.9-3.2,2.6-4.4,4.3c-0.3-1.3-1.9-1.9-3.2-1.6
		s-2.3,1.4-2.9,2.5C40.9,58.8,39.3,69.1,39.3,69.1z"/>
	<g>
		<path class="st3" d="M38.8,69.2c0.8,2.9,3.3,4.7,5.8,6c3.1,1.7,6.4,3.3,9.8,4.3c3.6,1,7.4,1.4,11.1,1.7c4,0.3,8,0.7,12.1,1
			c16.1,1.1,32.2,1.7,48.3,1.4c7.7-0.2,15.4-0.6,23-1.8c3.6-0.6,7.2-1.3,10.6-2.4c2.7-0.9,5.5-2.2,7.3-4.5c1.8-2.3,2.3-5.4,1.2-8.2
			c-0.3-0.6-0.6-1.2-1-1.8c-0.5-0.7-1.2-1.3-1.8-2c-0.9-1.3-0.6-2.9-0.6-4.4c0.1-1.4,0-2.9-0.9-4.1c-0.8-1-1.9-1.5-3.1-1.7
			c-1.4-0.3-2.9-0.1-4.3,0.2c-1.9,0.4-3.9,1.1-5.9,0.8c-0.9-0.1-1.5-0.5-1.8-1.3c-0.3-0.6-0.5-1.3-0.9-1.8c-0.8-1-1.8-1.8-3-2.3
			c-2.7-1.1-5.6-0.9-8.4-0.9c-1.6,0-3.3,0-4.9-0.5c-0.7-0.2-1.4-0.5-2-0.9c-0.8-0.6-1.5-1.3-2.2-2c-2.2-2-5.2-2.9-8.1-2.5
			c-1.4,0.2-2.7,0.6-4,1.4c0.2,0.1,0.5,0.1,0.7,0.2c-1.3-2.2-3.9-3.2-6.4-3.1c-3.2,0.2-5.9,2-8.4,3.8c0.3,0.1,0.5,0.3,0.8,0.4
			c-0.2-1.9-0.5-4-1.7-5.6c-1.3-1.7-3.4-2.2-5.4-1.6c-2.2,0.6-3.7,2.3-4.9,4.2c-0.6,0.9-1,1.9-1.6,2.9c-0.6,1-1.4,1.8-2.6,1.4
			c-1.2-0.4-2.2-0.7-3.4-0.8c-1.2,0-2.4,0.2-3.5,0.5c-2.5,0.7-4.8,1.9-7.3,2.7c-0.6,0.2-1.2,0.4-1.8,0.3c-0.7,0-1.2-0.4-1.7-0.8
			c-0.9-0.7-1.8-1-2.8-0.9c-1.1,0.2-2.1,0.8-2.9,1.6c-0.4,0.4-0.8,0.9-1.2,1.3c-0.2,0.3-1,1.4-1.3,1.2c-0.1-0.1-0.3-0.4-0.4-0.6
			c-0.2-0.2-0.4-0.4-0.6-0.5c-0.4-0.3-0.9-0.5-1.4-0.6c-1-0.3-2.1-0.2-3,0.1c-2.4,0.7-4.1,2.9-5.5,4.8c0.3,0,0.6,0.1,0.9,0.1
			c-0.6-1.9-3-2.5-4.7-1.6c-1.6,0.8-2.6,2.5-3.2,4.2c-1.3,3.1-1.9,6.6-2.6,9.9c-0.2,0.9-0.3,1.7-0.4,2.6c-0.1,0.6,0.9,0.9,1,0.3
			c0.3-1.9,0.6-3.8,1-5.6c0.3-1.6,0.7-3.1,1.2-4.6c0.4-1.3,0.8-2.6,1.6-3.8c0.6-1,1.5-1.9,2.6-2.2c1-0.2,2.3,0.2,2.6,1.2
			c0.1,0.4,0.7,0.5,0.9,0.1c1.3-1.7,2.7-3.7,4.8-4.4c0.9-0.3,1.8-0.3,2.7-0.1c0.4,0.1,0.9,0.3,1.2,0.6c0.3,0.3,0.5,0.7,0.9,1
			c0.9,0.7,1.7-0.4,2.2-1c0.7-0.9,1.4-1.8,2.4-2.4c1-0.6,2.2-0.8,3.2-0.1c0.9,0.6,1.6,1.2,2.7,1.3c1.2,0,2.3-0.5,3.3-0.9
			c1.1-0.5,2.2-0.9,3.3-1.4c2.2-0.8,4.6-1.6,7-1.2c1,0.2,2.1,0.8,3.1,0.8c0.9-0.1,1.6-0.6,2.1-1.3c0.6-0.8,1-1.6,1.4-2.5
			c0.5-1,1.1-1.9,1.8-2.8c1.5-1.8,4.3-3.1,6.5-1.7c1.9,1.2,2.2,3.8,2.5,5.8c0,0.3,0.4,0.7,0.8,0.4c2.3-1.6,4.7-3.3,7.5-3.6
			c2.2-0.2,4.7,0.5,5.9,2.5c0.1,0.2,0.5,0.3,0.7,0.2c2.5-1.5,5.8-1.7,8.5-0.5c1.5,0.7,2.5,1.7,3.7,2.8c1.1,1,2.4,1.7,3.9,2
			c3,0.7,6,0.1,9,0.4c2.5,0.2,5.4,1,6.6,3.3c0.3,0.6,0.4,1.3,0.9,1.8c0.4,0.6,1.1,0.9,1.8,1c1.7,0.3,3.4,0,5.1-0.4
			c2.4-0.6,6.2-1.5,8,1c0.9,1.2,0.6,2.9,0.5,4.3c-0.1,1.4-0.1,2.8,0.8,3.9c0.4,0.6,1,1.1,1.5,1.7c0.5,0.6,0.9,1.3,1.2,2.1
			c0.5,1.4,0.6,3,0.3,4.4c-0.7,2.8-3.1,4.6-5.6,5.8c-3,1.4-6.3,2-9.5,2.7c-7.3,1.5-14.7,2-22.2,2.3c-15.4,0.6-30.9,0.1-46.3-0.8
			c-3.9-0.2-7.7-0.5-11.6-0.8c-3.8-0.3-7.5-0.5-11.3-1c-3.7-0.5-7.2-1.4-10.6-2.9c-1.6-0.7-3.2-1.5-4.7-2.3
			c-1.3-0.7-2.6-1.4-3.7-2.3c-1-0.9-1.8-2-2.2-3.3C39.6,68.4,38.7,68.6,38.8,69.2z"/>
	</g>
</g>
<path class="st4" d="M168.3,72.1c0,15.2-28.9,27.5-64.5,27.5S39.3,87.3,39.3,72.1C75.3,113.6,166.3,93.6,168.3,72.1z"/>
<g>
	<g>
		<path class="st5" d="M61.8,57.9c0.4-0.9,1.3-1.4,2.3-1.5c1.1,0,2.2,0.5,3,1.3c0.2,0.2,0.6-0.1,0.4-0.4c-0.9-0.9-2.2-1.5-3.5-1.4
			c-1.1,0.1-2.2,0.8-2.6,1.8C61.1,58,61.6,58.1,61.8,57.9L61.8,57.9z"/>
	</g>
</g>
<g>
	<g>
		<path class="st5" d="M128.8,52.9c0.4-0.9,1.3-1.4,2.3-1.5c1.1,0,2.2,0.5,3,1.3c0.2,0.2,0.6-0.1,0.4-0.4c-0.9-0.9-2.2-1.5-3.5-1.4
			c-1.1,0.1-2.2,0.8-2.6,1.8C128.1,53,128.6,53.1,128.8,52.9L128.8,52.9z"/>
	</g>
</g>
<g>
	<g>
		<path class="st5" d="M110.4,64.7c-0.1-0.7-1.2-1-1.8-1.2c-0.9-0.3-1.9-0.4-2.8-0.4c-1.8,0-3.6,0.5-4.6,2.1
			c-0.2,0.3,0.3,0.5,0.4,0.3c0.8-1.4,2.4-1.8,3.9-1.9c0.8,0,1.5,0,2.3,0.2c0.3,0.1,0.7,0.2,1,0.3c0.2,0.1,1,0.3,1.1,0.6
			C109.9,65,110.4,65,110.4,64.7L110.4,64.7z"/>
	</g>
</g>
<g>
	<g>
		<path class="st5" d="M83.4,76.7c-0.1-0.7-1.2-1-1.8-1.2c-0.9-0.3-1.9-0.4-2.8-0.4c-1.8,0-3.6,0.5-4.6,2.1
			c-0.2,0.3,0.3,0.5,0.4,0.3c0.8-1.4,2.4-1.8,3.9-1.9c0.8,0,1.5,0,2.3,0.2c0.3,0.1,0.7,0.2,1,0.3c0.2,0.1,1,0.3,1.1,0.6
			C82.9,77,83.4,77,83.4,76.7L83.4,76.7z"/>
	</g>
</g>
<g>
	<g>
		<path class="st5" d="M156.4,65.7c-0.1-0.7-1.2-1-1.8-1.2c-0.9-0.3-1.9-0.4-2.8-0.4c-1.8,0-3.6,0.5-4.6,2.1
			c-0.2,0.3,0.3,0.5,0.4,0.3c0.8-1.4,2.4-1.8,3.9-1.9c0.8,0,1.5,0,2.3,0.2c0.3,0.1,0.7,0.2,1,0.3c0.2,0.1,1,0.3,1.1,0.6
			C155.9,66,156.4,66,156.4,65.7L156.4,65.7z"/>
	</g>
</g>
<g>
	<g>
		<path class="st5" d="M135.3,75.7c0.3-1.1,1.1-1.8,2.2-2.1c1-0.3,2.1-0.2,3.1,0.1c0.7,0.2,1.8,0.7,2,1.5c0.1,0.3,0.6,0.2,0.5-0.1
			c-0.3-0.9-1.2-1.4-2-1.8c-1.1-0.4-2.4-0.5-3.5-0.3c-1.3,0.3-2.3,1.2-2.7,2.5C134.7,75.8,135.2,76,135.3,75.7L135.3,75.7z"/>
	</g>
</g>
<g>
	<g>
		<path class="st5" d="M110.3,89.7c0.3-1.1,1.1-1.8,2.2-2.1c1-0.3,2.1-0.2,3.1,0.1c0.7,0.2,1.8,0.7,2,1.5c0.1,0.3,0.6,0.2,0.5-0.1
			c-0.3-0.9-1.2-1.4-2-1.8c-1.1-0.4-2.4-0.5-3.5-0.3c-1.3,0.3-2.3,1.2-2.7,2.5C109.7,89.8,110.2,90,110.3,89.7L110.3,89.7z"/>
	</g>
</g>
<g>
	<g>
		<path class="st5" d="M50.3,75.7c0.3-1.1,1.1-1.8,2.2-2.1c1-0.3,2.1-0.2,3.1,0.1c0.7,0.2,1.8,0.7,2,1.5c0.1,0.3,0.6,0.2,0.5-0.1
			c-0.3-0.9-1.2-1.4-2-1.8c-1.1-0.4-2.4-0.5-3.5-0.3c-1.3,0.3-2.3,1.2-2.7,2.5C49.7,75.8,50.2,76,50.3,75.7L50.3,75.7z"/>
	</g>
</g>
<g>
	<g>
		<path class="st5" d="M89.3,57.7c0.3-1.1,1.1-1.8,2.2-2.1c1-0.3,2.1-0.2,3.1,0.1c0.7,0.2,1.8,0.7,2,1.5c0.1,0.3,0.6,0.2,0.5-0.1
			c-0.3-0.9-1.2-1.4-2-1.8c-1.1-0.4-2.4-0.5-3.5-0.3c-1.3,0.3-2.3,1.2-2.7,2.5C88.7,57.8,89.2,58,89.3,57.7L89.3,57.7z"/>
	</g>
</g>
<g>
	<g>
		<path class="st5" d="M123.3,69.7c0.3-1.1,1.1-1.8,2.2-2.1c1-0.3,2.1-0.2,3.1,0.1c0.7,0.2,1.8,0.7,2,1.5c0.1,0.3,0.6,0.2,0.5-0.1
			c-0.3-0.9-1.2-1.4-2-1.8c-1.1-0.4-2.4-0.5-3.5-0.3c-1.3,0.3-2.3,1.2-2.7,2.5C122.7,69.8,123.2,70,123.3,69.7L123.3,69.7z"/>
	</g>
</g>
<g>
	<g>
		<path class="st5" d="M89.3,90.7c0.3-1.1,1.1-1.8,2.2-2.1c1-0.3,2.1-0.2,3.1,0.1c0.7,0.2,1.8,0.7,2,1.5c0.1,0.3,0.6,0.2,0.5-0.1
			c-0.3-0.9-1.2-1.4-2-1.8c-1.1-0.4-2.4-0.5-3.5-0.3c-1.3,0.3-2.3,1.2-2.7,2.5C88.7,90.8,89.2,91,89.3,90.7L89.3,90.7z"/>
	</g>
</g>
<g>
	<g>
		<path class="st5" d="M97.3,76.7c0.3-1.1,1.1-1.8,2.2-2.1c1-0.3,2.1-0.2,3.1,0.1c0.7,0.2,1.8,0.7,2,1.5c0.1,0.3,0.6,0.2,0.5-0.1
			c-0.3-0.9-1.2-1.4-2-1.8c-1.1-0.4-2.4-0.5-3.5-0.3c-1.3,0.3-2.3,1.2-2.7,2.5C96.7,76.8,97.2,77,97.3,76.7L97.3,76.7z"/>
	</g>
</g>
<g>
	<g>
		<path class="st5" d="M75.3,67.7c0.3-1.1,1.1-1.8,2.2-2.1c1-0.3,2.1-0.2,3.1,0.1c0.7,0.2,1.8,0.7,2,1.5c0.1,0.3,0.6,0.2,0.5-0.1
			c-0.3-0.9-1.2-1.4-2-1.8c-1.1-0.4-2.4-0.5-3.5-0.3c-1.3,0.3-2.3,1.2-2.7,2.5C74.7,67.8,75.2,68,75.3,67.7L75.3,67.7z"/>
	</g>
</g>
<g>
	<g>
		<path class="st5" d="M108.3,53.7c0.3-1.1,1.1-1.8,2.2-2.1c1-0.3,2.1-0.2,3.1,0.1c0.7,0.2,1.8,0.7,2,1.5c0.1,0.3,0.6,0.2,0.5-0.1
			c-0.3-0.9-1.2-1.4-2-1.8c-1.1-0.4-2.4-0.5-3.5-0.3c-1.3,0.3-2.3,1.2-2.7,2.5C107.7,53.8,108.2,54,108.3,53.7L108.3,53.7z"/>
	</g>
</g>
<g>
	<g>
		<path class="st5" d="M136.3,62.7c0.3-1.1,1.1-1.8,2.2-2.1c1-0.3,2.1-0.2,3.1,0.1c0.7,0.2,1.8,0.7,2,1.5c0.1,0.3,0.6,0.2,0.5-0.1
			c-0.3-0.9-1.2-1.4-2-1.8c-1.1-0.4-2.4-0.5-3.5-0.3c-1.3,0.3-2.3,1.2-2.7,2.5C135.7,62.8,136.2,63,136.3,62.7L136.3,62.7z"/>
	</g>
</g>
<g>
	<g>
		<path class="st5" d="M129.3,87.7c0.3-1.1,1.1-1.8,2.2-2.1c1-0.3,2.1-0.2,3.1,0.1c0.7,0.2,1.8,0.7,2,1.5c0.1,0.3,0.6,0.2,0.5-0.1
			c-0.3-0.9-1.2-1.4-2-1.8c-1.1-0.4-2.4-0.5-3.5-0.3c-1.3,0.3-2.3,1.2-2.7,2.5C128.7,87.8,129.2,88,129.3,87.7L129.3,87.7z"/>
	</g>
</g>
<g>
	<g>
		<path class="st5" d="M151.3,83.7c0.3-1.1,1.1-1.8,2.2-2.1c1-0.3,2.1-0.2,3.1,0.1c0.7,0.2,1.8,0.7,2,1.5c0.1,0.3,0.6,0.2,0.5-0.1
			c-0.3-0.9-1.2-1.4-2-1.8c-1.1-0.4-2.4-0.5-3.5-0.3c-1.3,0.3-2.3,1.2-2.7,2.5C150.7,83.8,151.2,84,151.3,83.7L151.3,83.7z"/>
	</g>
</g>
<g>
	<g>
		<path class="st5" d="M118.3,79.7c0.3-1.1,1.1-1.8,2.2-2.1c1-0.3,2.1-0.2,3.1,0.1c0.7,0.2,1.8,0.7,2,1.5c0.1,0.3,0.6,0.2,0.5-0.1
			c-0.3-0.9-1.2-1.4-2-1.8c-1.1-0.4-2.4-0.5-3.5-0.3c-1.3,0.3-2.3,1.2-2.7,2.5C117.7,79.8,118.2,80,118.3,79.7L118.3,79.7z"/>
	</g>
</g>
</svg>
