<?xml version="1.0" encoding="utf-8"?>
<!-- Generator: Adobe Illustrator 25.2.1, SVG Export Plug-In . SVG Version: 6.00 Build 0)  -->
<svg version="1.1" id="Layer_2" xmlns="http://www.w3.org/2000/svg" xmlns:xlink="http://www.w3.org/1999/xlink" x="0px" y="0px"
	 viewBox="0 0 200 200" style="enable-background:new 0 0 200 200;" xml:space="preserve">
<style type="text/css">
	.st0{fill:#A780D8;}
	.st1{fill:#C780D8;}
	.st2{fill:#E097F2;}
	.st3{fill:#F4F4F4;}
	.st4{opacity:0.3;fill:#DDDDDD;}
	.st5{fill:#EAEAEA;}
	.st6{fill:#EFEFEF;}
	.st7{fill:#E5E5E5;}
</style>
<g>
	<path class="st0" d="M172.8,58.8c1.8,1.6,3.6,4.3,4.2,7.5c12.9,15.6,3.1,53.8-17.3,76.2s-42.3,25-68.9,21.8l-3.5-0.5
		c-3.4-0.4-3.9-2.6-5.7-4.2c-10.3-9.3,0.8-39.9,25.7-67.3C132.4,64.6,162.5,49.5,172.8,58.8z"/>
	<path class="st1" d="M184.6,141.7L184.6,141.7c-1.7,4.1-4.6,8.4-8.6,12.7s-8,7.5-11.8,9.7c-20.8,14.4-63.4,18.5-85-0.9
		c10,9.1,43.2,2.1,72.8-30.4c31.3-34.4,33.1-66.5,23.6-75.5C197,76.8,197,119.7,184.6,141.7z"/>
	<path class="st0" d="M133.5,175.3c11.8-1.8,22.7-5.7,30.6-11.1c4-2.3,8-5.5,11.8-9.7c3.9-4.3,6.7-8.7,8.7-12.8l0,0
		c4.8-8.5,7.7-19.9,8.3-31.9C191.3,129.1,167.7,168,133.5,175.3z"/>
	<path class="st2" d="M175.5,57C175.5,57,175.7,57.1,175.5,57c9.7,9.1,7.8,41.3-23.4,75.6c-29.7,32.7-62.9,39.6-73.1,30.7l-0.1-0.1
		c-11.5-10.4-0.3-43.6,26.4-72.9C132.1,60.9,164.1,46.6,175.5,57z M175.9,67.5c-0.8-3.2-1.9-5.7-3.7-7.3c-10.3-9.3-39.7,4.6-64.6,32
		s-36,58-25.7,67.3c1.8,1.6,4.3,2.6,7.6,3c13.2,1.4,37.3-8,59.7-32.5C172.3,104.2,178.7,80.1,175.9,67.5z"/>
</g>
<g>
	<path class="st3" d="M118.3,111.7c-3.8-3.8-7.9-7.4-12-10.9c-13.7-11.7-27.6-23-42.1-33.6c-27.9,16.2-50.8,36-43.2,49.9
		c8.1,14.8,55,27.6,85.3,10.9c6-3.3,11.1-7.5,15.4-12.3C120.6,114.3,119.5,112.9,118.3,111.7z"/>
	<g>
		<path class="st3" d="M61.8,65.5c-0.8-0.6-1.7-1.2-2.6-1.8C31.4,80.3,14.7,102.5,21.4,115c7.2,13.4,38.5,10.6,69.8-6.3
			c5.1-2.7,9.8-5.6,14.2-8.7C91.3,88,76.9,76.4,61.8,65.5z"/>
		<g>
			<path class="st3" d="M61.8,65.5c-2.9-2.1-5.8-4.1-8.7-6.2c-0.2,0.3-0.3,0.5-0.4,0.8C51.8,62,51.8,64,51.8,66c0,1.4,0,3.1-1.3,3.7
				c-0.5,0.3-1.1,0.3-1.7,0.4c-4.4,0.7-7.1,4.9-10,8.3c-0.7,0.8-1.6,1.7-2.6,1.8c-0.8,0.1-1.6-0.3-2.4-0.2c-1.3,0.1-2.4,1.2-2.9,2.4
				c-0.5,1.2-0.6,2.6-1,3.8c-0.1,0.3-0.2,0.5-0.5,0.6c-0.2,0.1-0.4-0.1-0.6-0.2c-1.8-1-4.2,0.1-5.4,1.8c-1.2,1.7-1.5,3.8-1.8,5.9
				c-0.9-1-2.6-0.8-3.6,0.1c-1,0.9-1.3,2.3-1.4,3.6c-0.2,4.4,3.4,14.2,3.4,14.2c2.2,2.4,5.8,2.5,9.1,2.3c2.8-0.1,5.6-0.2,8.4-0.7
				c3.9-0.7,7.7-2.3,11.4-3.9c14.8-6.4,29.5-13.2,43.7-20.8C82.6,81.1,72.4,73.1,61.8,65.5z"/>
			<g>
				<path class="st3" d="M62.1,65.1c-2.9-2.1-5.8-4.1-8.7-6.2c-0.2-0.2-0.5,0-0.7,0.2c-1.1,1.7-1.3,3.8-1.3,5.7
					c0,1.4,0.5,4.1-1.3,4.7c-0.9,0.3-1.8,0.3-2.7,0.6c-0.7,0.3-1.4,0.6-2.1,1c-1.4,0.9-2.6,2.1-3.6,3.3c-1.1,1.3-2.1,2.7-3.3,3.9
					c-0.6,0.7-1.3,1.4-2.3,1.4c-1,0-1.9-0.4-2.9-0.1c-1.6,0.5-2.6,2.1-3,3.6c-0.1,0.5-0.2,0.9-0.3,1.4c-0.1,0.5-0.1,1.1-0.3,1.5
					c-0.1,0.3-0.2,0.2-0.4,0.1c-0.2-0.1-0.3-0.2-0.5-0.2c-0.4-0.1-0.7-0.2-1.1-0.2c-1.7,0-3.4,1-4.4,2.3c-1.3,1.7-1.6,4-1.9,6.1
					c0.3-0.1,0.6-0.1,0.8-0.2c-1-1-2.6-1-3.8-0.2c-1.3,0.8-1.9,2.4-2,3.9c-0.2,2.4,0.4,4.9,1,7.1c0.6,2.2,1.2,4.4,2,6.5
					c0.1,0.4,0.2,0.8,0.4,1.2c0.3,0.6,0.9,1,1.5,1.3c0.6,0.4,1.3,0.7,2.1,0.9c1.5,0.4,3.2,0.5,4.8,0.5c1.9,0,3.8-0.1,5.7-0.3
					c4-0.3,7.8-1.3,11.6-2.8c3.8-1.5,7.5-3.2,11.2-4.8c3.8-1.7,7.6-3.4,11.4-5.2c7.5-3.5,15-7.2,22.4-11c0.9-0.5,1.9-1,2.8-1.5
					c0.3-0.1,0.3-0.6,0.1-0.8c-7.8-6.4-15.7-12.7-23.8-18.7C66.8,68.5,64.4,66.8,62.1,65.1c-0.5-0.4-1,0.5-0.5,0.9
					c8.2,5.9,16.1,12,24,18.3c2.2,1.8,4.4,3.6,6.7,5.4c0-0.3,0.1-0.5,0.1-0.8c-13.8,7.3-27.9,13.9-42.2,20.1
					c-3.5,1.5-7.1,3.1-10.8,4.1c-3.6,0.9-7.4,1.1-11.2,1.2c-1.5,0-3,0-4.5-0.4c-0.7-0.2-1.4-0.4-2-0.8c-0.3-0.2-0.5-0.3-0.8-0.5
					c-0.1-0.1-0.3-0.2-0.4-0.4c0,0,0,0.1,0,0.1c-0.2-0.3-0.3-0.9-0.4-1.3c-0.3-0.9-0.6-1.8-0.9-2.7c-0.8-2.6-1.5-5.2-1.9-7.8
					c-0.2-1.3-0.3-2.7,0.1-3.9c0.3-0.8,0.8-1.6,1.6-2c0.7-0.3,1.7-0.3,2.3,0.3c0.2,0.2,0.8,0.2,0.8-0.2c0.3-1.9,0.5-3.8,1.6-5.4
					c0.9-1.4,2.6-2.5,4.2-2.2c0.7,0.1,1.4,0.8,2,0.4c0.7-0.4,0.7-1.6,0.9-2.2c0.3-1.6,0.9-4.1,2.8-4.5c1-0.2,1.9,0.3,2.9,0.1
					c0.8-0.1,1.5-0.6,2.1-1.2c1.2-1.2,2.2-2.6,3.3-3.9c1.1-1.3,2.2-2.6,3.6-3.5c0.7-0.5,1.4-0.9,2.1-1.1c0.8-0.3,1.7-0.3,2.6-0.6
					c1.8-0.5,2.1-2.4,2.1-4.1c0-2.3-0.1-4.7,1.2-6.8c-0.2,0.1-0.5,0.1-0.7,0.2c2.9,2,5.9,4.1,8.7,6.2C62.1,66.3,62.6,65.4,62.1,65.1
					z"/>
			</g>
		</g>
		<path class="st4" d="M102.8,97.8c-23.3,16-54.9,27.3-81.4,17.2c7.2,13.4,38.5,10.6,69.8-6.3c5.1-2.7,9.8-5.6,14.2-8.7
			C104.6,99.3,103.7,98.6,102.8,97.8z"/>
		<g>
			<g>
				<path class="st5" d="M34.4,91.9c-0.1-1,0.5-1.9,1.3-2.4c1-0.6,2.2-0.5,3.2-0.3c0.3,0.1,0.4-0.4,0.1-0.5
					c-1.2-0.3-2.6-0.3-3.7,0.4c-0.9,0.6-1.6,1.7-1.5,2.8C34,92.2,34.5,92.2,34.4,91.9L34.4,91.9z"/>
			</g>
		</g>
		<g>
			<g>
				<path class="st5" d="M74.9,76.2c-1.2,0.8-2.2,2.1-2.3,3.6c0,0.3,0.5,0.3,0.5,0c0.1-1.3,0.9-2.5,2-3.2
					C75.5,76.4,75.2,76,74.9,76.2L74.9,76.2z"/>
			</g>
		</g>
		<g>
			<g>
				<path class="st5" d="M62.4,98.2c-0.2-0.3-0.5-0.3-0.9-0.3c-0.5,0-0.9,0.1-1.4,0.2c-0.9,0.2-1.8,0.6-2.7,1.1
					c-1.5,0.8-2.9,2.2-2.9,4c0,0.3,0.5,0.3,0.5,0c0-1.6,1.2-2.7,2.5-3.5c0.7-0.4,1.3-0.7,2.1-0.9c0.4-0.1,0.8-0.2,1.1-0.3
					c0.2,0,1.1-0.2,1.2,0C62.2,98.7,62.6,98.5,62.4,98.2L62.4,98.2z"/>
			</g>
		</g>
		<g>
			<g>
				<path class="st5" d="M92.2,96.9c-0.4-1.8,1-3.3,2.6-3.9c0.3-0.1,0.2-0.6-0.1-0.5c-0.9,0.4-1.7,0.9-2.3,1.7
					c-0.6,0.8-0.8,1.8-0.6,2.8C91.8,97.3,92.3,97.2,92.2,96.9L92.2,96.9z"/>
			</g>
		</g>
		<g>
			<g>
				<path class="st5" d="M32.7,113c-0.2-1.1,0.2-2.2,1-3c0.8-0.7,1.8-1.2,2.9-1.3c0.7-0.1,1.8-0.1,2.3,0.4c0.2,0.2,0.6-0.1,0.4-0.4
					c-0.5-0.5-1.2-0.6-1.8-0.6c-0.9,0-1.8,0.2-2.6,0.5c-1.3,0.6-2.5,1.6-2.7,3.1c-0.1,0.4,0,0.9,0.1,1.3
					C32.3,113.4,32.8,113.3,32.7,113L32.7,113z"/>
			</g>
		</g>
		<g>
			<g>
				<path class="st5" d="M58.6,78.6c-0.2-1.1,0.2-2.2,1-3c0.8-0.7,1.8-1.2,2.9-1.3c0.7-0.1,1.8-0.1,2.3,0.4c0.2,0.2,0.6-0.1,0.4-0.4
					c-0.5-0.5-1.2-0.6-1.8-0.6c-0.9,0-1.8,0.2-2.6,0.5c-1.3,0.6-2.5,1.6-2.7,3.1c-0.1,0.4,0,0.9,0.1,1.3
					C58.2,79.1,58.6,79,58.6,78.6L58.6,78.6z"/>
			</g>
		</g>
		<g>
			<g>
				<path class="st5" d="M74.2,107.7c-0.2-1.1,0.2-2.2,1-3c0.8-0.7,1.8-1.2,2.9-1.3c0.7-0.1,1.8-0.1,2.3,0.4
					c0.2,0.2,0.6-0.1,0.4-0.4c-0.5-0.5-1.2-0.6-1.8-0.6c-0.9,0-1.8,0.2-2.6,0.5c-1.3,0.6-2.5,1.6-2.7,3.1c-0.1,0.4,0,0.9,0.1,1.3
					C73.8,108.2,74.3,108,74.2,107.7L74.2,107.7z"/>
			</g>
		</g>
		<g>
			<g>
				<path class="st5" d="M74.6,91.6c-0.2-1.1,0.2-2.2,1-3c0.8-0.7,1.8-1.2,2.9-1.3c0.7-0.1,1.8-0.1,2.3,0.4c0.2,0.2,0.6-0.1,0.4-0.4
					c-0.5-0.5-1.2-0.6-1.8-0.6c-0.9,0-1.8,0.2-2.6,0.5c-1.3,0.6-2.5,1.6-2.7,3.1c-0.1,0.4,0,0.9,0.1,1.3
					C74.2,92,74.7,91.9,74.6,91.6L74.6,91.6z"/>
			</g>
		</g>
		<g>
			<g>
				<path class="st5" d="M51,94.1c-0.2-1.1,0.2-2.2,1-3c0.8-0.7,1.8-1.2,2.9-1.3c0.7-0.1,1.8-0.1,2.3,0.4c0.2,0.2,0.6-0.1,0.4-0.4
					c-0.5-0.5-1.2-0.6-1.8-0.6c-0.9,0-1.8,0.2-2.6,0.5c-1.3,0.6-2.5,1.6-2.7,3.1c-0.1,0.4,0,0.9,0.1,1.3C50.6,94.5,51,94.4,51,94.1
					L51,94.1z"/>
			</g>
		</g>
	</g>
	<g>
		<path class="st3" d="M136.4,86.5c0.2-0.4,0.8-0.5,1.2-0.2c0.4,0.3,0.5,0.8,0.5,1.3c0.1,0.8-0.1,1.7-0.7,2.2
			c-0.4,0.3-1,0.4-1.4,0.7"/>
	</g>
	<g>
		<path class="st3" d="M35.6,128.6c-0.9-0.2-1.8-0.5-2.6-0.7c-1.1-0.3-2.2-0.6-3.3-0.5s-2.3,0.4-3,1.3c-0.4,0.5-0.7,1.2-0.3,1.8
			c0.3,0.4,0.8,0.5,1.3,0.6c1.9,0.2,3.9-0.7,5.7,0c-0.1,0.6-0.8,0.9-1.3,1.2c-0.7,0.4-1.4,1-1.3,1.8c0.1,0.6,0.6,1.1,1.2,1.4
			c0.1,0.1,0.3,0.1,0.4,0.1c0.3,0,0.5-0.3,0.6-0.6c1-2,2-4,3.1-6"/>
	</g>
	<g>
		<path class="st3" d="M48.4,135.7c-1.1,0.3-2.1,0.7-3.2,1.2c-0.3,0.1-0.6,0.3-0.7,0.6c-0.2,0.5,0.2,1,0.7,1.1s1-0.1,1.4-0.3
			c0.5-0.3,1-0.5,1.4-1c0.4-0.4,0.7-1,0.6-1.5"/>
	</g>
	<g>
		<path class="st3" d="M17,110.1c-2-1-3.7-2.8-5.9-3.2c-0.1,0-0.3,0-0.4,0c-0.2,0.1-0.4,0.4-0.4,0.6c-0.1,0.9,0.5,1.8,1.3,2.2
			c0.8,0.5,1.7,0.5,2.6,0.5c0.9,0,1.8-0.1,2.7-0.1"/>
	</g>
	<g>
		<path class="st3" d="M14.1,105.4c-1.4-1-2.3-2.8-2.2-4.5c0-0.4,0.1-0.8,0.5-0.9c0.4-0.1,0.7,0.3,0.8,0.7c0.5,1.3,0.1,2.8,0.7,4"/>
	</g>
	<g>
		<path class="st3" d="M33.2,64.2c-0.8,0.3-1.6,0.6-2.1,1.2s-0.8,1.6-0.3,2.3c0.6,0.8,1.8,0.7,2.6,1.3c0.8,0.5,1.2,1.7,2.2,1.8
			c0.9,0.1,1.6-0.8,2-1.6c0.5-1.1,1-2.2,1-3.4s-0.3-2.4-1.1-3.3c-0.5-0.5-1.2-0.9-1.8-0.6c-0.2,0.1-0.4,0.2-0.5,0.4
			c-0.7,0.7-1.5,1.4-2.2,2.1"/>
	</g>
	<g>
		<path class="st3" d="M14.5,65.8c-0.9-0.2-1.9,0.3-2.5,1c-1,1-1.6,2.3-1.8,3.7c0,0.3,0,0.7,0.1,1c0.2,0.3,0.5,0.5,0.9,0.7
			c0.6,0.4,1.1,1,1.8,1.1c0.7,0.1,1.5-0.4,1.9-1c0.4-0.6,0.5-1.4,0.7-2.1c0.2-1.2,0.4-2.4,0.7-3.7c0.1-0.4,0.1-0.9-0.1-1.2
			s-0.8-0.4-1,0"/>
	</g>
	<g>
		<path class="st3" d="M114.2,123.6c1-1.6,2.5-3,4.3-3.9c0.3-0.2,0.7-0.3,1.1-0.3c0.5,0.1,0.9,0.5,1.1,0.9s0.1,1,0.1,1.5
			c-0.1,0.9-0.4,1.9-1.1,2.6c-0.3,0.3-0.7,0.5-1,0.7c-0.7,0.4-1.4,0.9-2.1,1.3c-0.5,0.3-1.1,0.6-1.7,0.7c-0.6,0.1-1.3-0.1-1.6-0.7
			c-0.2-0.3-0.2-0.8-0.1-1.2c0.2-1.4,1.1-2.6,2.3-3.3"/>
	</g>
	<g>
		<path class="st3" d="M109.9,128.4c-1.7,0.2-3.4,0.9-4.7,2c-0.5,0.5-1,1.2-0.7,1.8c0.2,0.4,0.6,0.6,1,0.7c1.1,0.2,2.2-0.2,2.9-1
			s1.1-1.9,1.2-2.9"/>
	</g>
	<g>
		<path class="st3" d="M41,48c0.4-1,0.7-2,1-3l-0.8-0.2c-0.4-0.6-1.1-1-1.7-1.3c-1-0.4-2.2-0.7-3.2-0.2c-0.5,0.2-0.9,0.6-1.2,1.1
			C37.1,45.5,39.1,46.7,41,48z"/>
	</g>
	<g>
		<path class="st3" d="M34.9,47.3c0.4,1,1.1,1.9,2,2.6c0.8,0.6,1.8,1.1,2.7,0.6c0.1,0,0.1-0.1,0.2-0.1
			C38.1,49.4,36.5,48.4,34.9,47.3z"/>
	</g>
</g>
<g>
	<path class="st3" d="M108.9,44.4c4.2,8.7,8.3,17.4,12.2,26.2c1.9,4.4,1.8,8,3.4,12.5c0.3,1-0.2,3,0,4c22.5-10.8,39.8-34,39-47
		c-1.1-16.8-29.6-23-64.1-20.8c-1.1,0.1-2.2,0.1-3.3,0.2C100.6,27.7,104.8,36,108.9,44.4z"/>
	<g>
		<path class="st3" d="M162.9,38c-0.8-15.2-30.3-25.9-65.9-24c-1.3,0.1-2.6,0.2-3.8,0.3c5.5,9.9,10.7,20,15.7,30.2
			c3.6,7.3,7.1,14.7,10.4,22.2C145.2,61.7,163.6,50.3,162.9,38z"/>
		<g>
			<path class="st3" d="M160.4,30.7c-0.6-0.6-1.3-1.1-1.7-1.8c-1.3-2.2,0.1-5.2-1.2-7.4c-1.2-2.1-4.1-2.3-6.4-1.8
				c-2.3,0.5-4.6,1.6-7,1.4c-0.6-0.1-1.2-0.2-1.6-0.6c-0.5-0.4-0.6-1.1-0.9-1.6c-1.5-3.1-5.6-3.7-9.1-3.5c-3.4,0.2-7.2,0.8-10.1-1
				c-0.9-0.6-1.7-1.4-2.6-2.1c-3.2-2.4-7.9-2.5-11.1-0.2c-1.4-2.3-4.5-2.9-7.1-2.3s-4.8,2.3-6.9,4c-0.4-2.4-1.1-5.1-3.3-6.2
				C90.6,7.1,89.8,7,89.1,7c7.1,12.2,13.6,24.7,19.8,37.4c1.2,2.4,2.3,4.9,3.5,7.3c2.9-0.2,5.8-0.3,8.8-0.6
				c10.5-0.8,21-2.1,31.1-5.2c4-1.3,8.3-3.2,9.8-7C163.1,36.2,162.5,32.8,160.4,30.7z"/>
			<g>
				<path class="st3" d="M160.8,30.4c-0.9-0.9-1.8-1.6-2.1-2.8c-0.3-1.1-0.1-2.2-0.1-3.3c0-1.9-0.5-3.8-2.3-4.7
					c-1.7-0.9-3.7-0.8-5.6-0.4c-1.2,0.3-2.4,0.7-3.6,1c-1.2,0.3-2.5,0.5-3.7,0.2c-1.1-0.4-1.3-1.7-1.9-2.6c-0.5-0.7-1.2-1.3-1.9-1.7
					c-1.6-0.9-3.5-1.3-5.4-1.3c-2.2-0.1-4.4,0.3-6.5,0.3c-1.1,0-2.3-0.1-3.3-0.4c-1.2-0.4-2.2-1.1-3.1-1.9c-1.8-1.6-3.8-2.6-6.3-2.9
					c-2.3-0.2-4.7,0.4-6.6,1.7c0.2,0.1,0.5,0.1,0.7,0.2c-1.4-2.2-4.2-3-6.7-2.7c-3.1,0.4-5.7,2.4-8.1,4.3c0.3,0.1,0.6,0.1,0.8,0.2
					c-0.3-1.6-0.6-3.4-1.6-4.8c-1-1.5-2.6-2.3-4.4-2.2c-0.4,0-0.6,0.4-0.4,0.8c6.5,11.3,12.7,22.8,18.4,34.6
					c1.7,3.4,3.3,6.7,4.9,10.1c0.1,0.1,0.3,0.3,0.4,0.2c9.2-0.5,18.4-1.2,27.4-2.8c4.4-0.8,8.8-1.8,13.1-3.2c3.2-1,6.5-2.5,8.6-5.3
					C163.8,37.8,163.5,33.2,160.8,30.4c-0.4-0.5-1.1,0.2-0.7,0.7c2.4,2.5,2.6,6.4,0.6,9.2c-1.9,2.7-5.3,4.1-8.3,5
					c-8.2,2.6-16.7,3.9-25.3,4.8c-4.9,0.5-9.8,0.8-14.7,1.1c0.1,0.1,0.3,0.2,0.4,0.2c-5.6-11.8-11.5-23.5-17.8-35
					c-1.8-3.2-3.6-6.5-5.5-9.7c-0.1,0.3-0.3,0.5-0.4,0.8c3.6-0.2,4.5,3.5,5,6.3c0.1,0.4,0.6,0.4,0.8,0.2c2.1-1.7,4.4-3.5,7.2-3.9
					c2.2-0.4,4.8,0.2,6.1,2.2c0.1,0.2,0.5,0.3,0.7,0.2c1.7-1.2,3.8-1.7,5.9-1.6c2.2,0.2,4,1.1,5.6,2.5c0.9,0.7,1.7,1.4,2.8,1.9
					c1,0.4,2,0.6,3.1,0.7c2.2,0.2,4.4-0.2,6.6-0.3c1.8-0.1,3.8,0.1,5.5,0.8c0.8,0.3,1.5,0.8,2.1,1.5c0.6,0.7,0.8,1.7,1.4,2.5
					c1.4,1.7,4.5,0.9,6.3,0.4c2-0.6,4.1-1.4,6.3-1c1,0.2,2,0.7,2.6,1.5c0.6,1,0.6,2.2,0.6,3.3c0,1.1-0.1,2.2,0.3,3.3
					c0.4,1.2,1.4,2,2.2,2.9C160.5,31.5,161.2,30.8,160.8,30.4z"/>
			</g>
		</g>
		<path class="st4" d="M162.9,38c-0.4,10.1-20.2,20.9-45,25.5c0.5,1,0.9,2.1,1.4,3.1C145.2,61.7,163.6,50.3,162.9,38z"/>
		<g>
			<g>
				<path class="st5" d="M122.3,20.9c0.3-0.9,1.2-1.5,2.2-1.6c1.1-0.1,2.2,0.4,3,1.1c0.2,0.2,0.6-0.1,0.4-0.4
					c-1-0.8-2.2-1.4-3.6-1.2c-1.1,0.1-2.1,0.9-2.5,1.9C121.8,21,122.2,21.2,122.3,20.9L122.3,20.9z"/>
			</g>
		</g>
		<g>
			<g>
				<path class="st5" d="M150.6,32.1c-0.1-0.4-0.4-0.5-0.7-0.6c-0.4-0.2-0.8-0.3-1.3-0.4c-0.9-0.2-1.9-0.2-2.9-0.2
					c-1.7,0.1-3.5,0.7-4.3,2.4c-0.1,0.3,0.3,0.5,0.4,0.3c0.7-1.4,2.2-2,3.7-2.1c0.8-0.1,1.6-0.1,2.4,0c0.3,0.1,0.7,0.1,1,0.2
					c0.3,0.1,1.1,0.2,1.1,0.6C150.2,32.6,150.7,32.5,150.6,32.1L150.6,32.1z"/>
			</g>
		</g>
		<g>
			<g>
				<path class="st5" d="M130.1,43.3c0.2-1.1,1-1.8,2-2.2c1-0.3,2.1-0.4,3.2-0.1c0.7,0.2,1.9,0.6,2.1,1.4c0.1,0.3,0.6,0.2,0.5-0.1
					c-0.3-0.9-1.3-1.4-2.1-1.6c-1.2-0.4-2.5-0.4-3.6-0.1c-1.3,0.4-2.2,1.3-2.5,2.6C129.5,43.5,130,43.6,130.1,43.3L130.1,43.3z"/>
			</g>
		</g>
		<g>
			<g>
				<path class="st5" d="M117.8,37.9c0.2-1.1,1-1.8,2-2.2c1-0.3,2.1-0.4,3.2-0.1c0.7,0.2,1.9,0.6,2.1,1.4c0.1,0.3,0.6,0.2,0.5-0.1
					c-0.3-0.9-1.3-1.4-2.1-1.6c-1.2-0.4-2.5-0.4-3.6-0.1c-1.3,0.4-2.2,1.3-2.5,2.6C117.2,38.1,117.7,38.2,117.8,37.9L117.8,37.9z"/>
			</g>
		</g>
		<g>
			<g>
				<path class="st5" d="M101.9,22.8c0.2-1.1,1-1.8,2-2.2c1-0.3,2.1-0.4,3.2-0.1c0.7,0.2,1.9,0.6,2.1,1.4c0.1,0.3,0.6,0.2,0.5-0.1
					c-0.3-0.9-1.3-1.4-2.1-1.6c-1.2-0.4-2.5-0.4-3.6-0.1c-1.3,0.4-2.2,1.3-2.5,2.6C101.4,22.9,101.8,23.1,101.9,22.8L101.9,22.8z"/>
			</g>
		</g>
		<g>
			<g>
				<path class="st5" d="M130.4,30.2c0.2-1.1,1-1.8,2-2.2c1-0.3,2.1-0.4,3.2-0.1c0.7,0.2,1.9,0.6,2.1,1.4c0.1,0.3,0.6,0.2,0.5-0.1
					c-0.3-0.9-1.3-1.4-2.1-1.6c-1.2-0.4-2.5-0.4-3.6-0.1c-1.3,0.4-2.2,1.3-2.5,2.6C129.8,30.4,130.3,30.6,130.4,30.2L130.4,30.2z"/>
			</g>
		</g>
		<g>
			<g>
				<path class="st5" d="M124.7,55.6c0.2-1.1,1-1.8,2-2.2c1-0.3,2.1-0.4,3.2-0.1c0.7,0.2,1.9,0.6,2.1,1.4c0.1,0.3,0.6,0.2,0.5-0.1
					c-0.3-0.9-1.3-1.4-2.1-1.6c-1.2-0.4-2.5-0.4-3.6-0.1c-1.3,0.4-2.2,1.3-2.5,2.6C124.2,55.8,124.6,55.9,124.7,55.6L124.7,55.6z"/>
			</g>
		</g>
		<g>
			<g>
				<path class="st5" d="M146.5,50.4c0.2-1.1,1-1.8,2-2.2c1-0.3,2.1-0.4,3.2-0.1c0.7,0.2,1.9,0.6,2.1,1.4c0.1,0.3,0.6,0.2,0.5-0.1
					c-0.3-0.9-1.3-1.4-2.1-1.6c-1.2-0.4-2.5-0.4-3.6-0.1c-1.3,0.4-2.2,1.3-2.5,2.6C145.9,50.6,146.4,50.7,146.5,50.4L146.5,50.4z"/>
			</g>
		</g>
		<g>
			<g>
				<path class="st5" d="M113.3,48.2c0.2-1.1,1-1.8,2-2.2c1-0.3,2.1-0.4,3.2-0.1c0.7,0.2,1.9,0.6,2.1,1.4c0.1,0.3,0.6,0.2,0.5-0.1
					c-0.3-0.9-1.3-1.4-2.1-1.6c-1.2-0.4-2.5-0.4-3.6-0.1c-1.3,0.4-2.2,1.3-2.5,2.6C112.7,48.4,113.2,48.5,113.3,48.2L113.3,48.2z"/>
			</g>
		</g>
	</g>
	<g>
		<path class="st3" d="M150.2,68c0.3-0.3,1-0.1,1.1,0.4c0.2,0.4,0.1,0.9-0.1,1.4c-0.3,0.8-0.8,1.5-1.6,1.7c-0.5,0.1-1.1-0.1-1.6,0"
			/>
	</g>
	<g>
		<path class="st3" d="M130.9,2.8c-0.2-0.2-0.1-0.5,0.1-0.7c0.3-0.5,0.7-1.1,1-1.6c0.2-0.3,0.4-0.5,0.7-0.6c0.5-0.1,0.8,0.5,0.9,1
			c0.3,1.3,0,2.7-0.7,3.9c-0.1,0.2-0.2,0.3-0.4,0.4c-0.1,0-0.3,0-0.4-0.1c-0.5-0.2-0.9-0.5-1.1-1c-0.2-0.5-0.1-1.1,0.3-1.3"/>
	</g>
	<g>
		<path class="st3" d="M119.6-6.6c-0.6-0.2-1.2,0-1.7,0.3s-0.8,0.8-1.1,1.3c-0.1,0.2-0.3,0.4-0.3,0.7c-0.1,0.4,0.2,0.9,0.4,1.2
			c0.3,0.4,0.7,0.7,1.1,1c0.5,0.3,1,0.6,1.5,0.5c0.6-0.1,1.2-0.6,1.5-1.1c0.4-0.5,0.7-1.2,0.7-1.9c0-0.7-0.5-1.4-1.2-1.4"/>
	</g>
	<g>
		<path class="st3" d="M168.2,40.9c0.2-0.1,0.3-0.5,0.3-0.7c0.1-0.8,0.3-1.5,0.7-2.2c0.1-0.1,0.1-0.2,0.2-0.2c0.2-0.1,0.3,0,0.5,0.1
			c0.6,0.3,1.2,0.6,1.4,1.1c0.3,0.7-0.2,1.5-0.7,2.1c-0.1,0.1-0.2,0.3-0.4,0.4c-0.2,0.1-0.4,0-0.6,0c-0.4-0.1-0.7-0.2-1-0.4
			c-0.3-0.3-0.4-0.7-0.1-1"/>
	</g>
	<g>
		<path class="st3" d="M165.8,28.3c-0.1-0.9,0.4-1.8,1.1-2.3c0.7-0.5,1.8-0.5,2.5,0.1c0.7,0.5,1,1.6,0.6,2.4c-0.5,1-1.8,1.3-3,1.5
			c-0.1,0-0.3,0-0.4,0c-0.2,0-0.3-0.2-0.4-0.3c-0.3-0.4-0.4-0.9-0.3-1.4"/>
	</g>
	<g>
		<path class="st3" d="M161.4,23.4c1.3-1.5,2.6-3,3.5-4.7c0.9-1.7,1.3-3.8,0.9-5.7c0-0.1-0.1-0.3-0.2-0.3c-0.1-0.1-0.3,0-0.5,0.1
			c-1.1,0.6-2.2,1.2-3.2,2.1c-0.9,0.8-1.7,2-1.8,3.2c-0.1,0.8,0.1,1.6,0.3,2.4c0.2,0.8,0.3,1.6,0.5,2.4"/>
	</g>
	<g>
		<path class="st3" d="M172.2,32.8c0.8-1.7,2.6-2.7,4.3-3.5c0.1-0.1,0.3-0.1,0.4-0.1c0.5,0,0.8,0.5,0.8,1c0,0.5-0.1,1.1-0.3,1.6
			c-0.3,0.5-0.6,1-1.1,1.2c-0.7,0.3-1.4,0.2-2.1,0.2c-0.7,0-1.5,0.1-2,0.6"/>
	</g>
</g>
<ellipse transform="matrix(0.625 -0.7806 0.7806 0.625 -35.5901 100.8455)" class="st6" cx="87.2" cy="87.5" rx="5.3" ry="44.8"/>
<ellipse transform="matrix(0.9082 -0.4186 0.4186 0.9082 -9.9854 48.931)" class="st7" cx="106.5" cy="47.2" rx="5.3" ry="44"/>
<path class="st3" d="M111.3,45c10.2,22.1,16.3,40.9,13.6,42.2c0.5-6.1-5.3-20-15.5-42.1s-19-37-21.4-37.8
	C90.8,6,101.2,22.9,111.3,45z"/>
</svg>
