<?xml version="1.0" encoding="utf-8"?>
<!-- Generator: Adobe Illustrator 25.2.1, SVG Export Plug-In . SVG Version: 6.00 Build 0)  -->
<svg version="1.1" id="Layer_2" xmlns="http://www.w3.org/2000/svg" xmlns:xlink="http://www.w3.org/1999/xlink" x="0px" y="0px"
	 viewBox="0 0 200 200" style="enable-background:new 0 0 200 200;" xml:space="preserve">
<style type="text/css">
	.st0{clip-path:url(#SVGID_2_);fill:#154B0D;}
	.st1{opacity:9.000000e-02;clip-path:url(#SVGID_2_);}
	.st2{fill:#CAE98B;}
	.st3{clip-path:url(#SVGID_2_);}
	.st4{fill:#1D3C1C;}
	.st5{opacity:0.17;clip-path:url(#SVGID_2_);}
	.st6{opacity:8.000000e-02;clip-path:url(#SVGID_2_);}
	.st7{opacity:6.000000e-02;clip-path:url(#SVGID_2_);}
	.st8{fill:#154B0D;}
	.st9{fill:#DEF7A1;}
	.st10{clip-path:url(#SVGID_4_);}
	.st11{fill:#C1E083;}
	.st12{fill:#4D9623;}
	.st13{fill:#EBF9BB;}
	.st14{fill:#BBD073;}
	.st15{opacity:0.26;}
	.st16{fill:#FFFFFF;}
	.st17{opacity:0.17;}
	.st18{opacity:9.000000e-02;clip-path:url(#SVGID_6_);}
	.st19{opacity:0.26;clip-path:url(#SVGID_6_);}
	.st20{clip-path:url(#SVGID_6_);}
	.st21{opacity:0.17;clip-path:url(#SVGID_6_);}
	.st22{opacity:8.000000e-02;clip-path:url(#SVGID_6_);}
	.st23{opacity:6.000000e-02;clip-path:url(#SVGID_6_);}
	.st24{clip-path:url(#SVGID_8_);}
	.st25{fill:none;}
</style>
<g>
	<g>
		<defs>
			<path id="SVGID_1_" d="M53.4,1c8.1-2.1,61.8-18.7,83.1-15c7.4,1.3,19,2.5,24.7,8.4c10.1,10.4,2.9,23.6-6.8,32.1
				C134.7,43.7,112,51.5,88,61.9C61.4,73.6,33.4,81.9,5,88c-10.7,2.3-21.9,4.3-32.5,1.5c-10.6-2.7-20.5-11.4-21-22.4
				c-0.4-7.7,6-16.6,11.6-21.8C-22.8,32.5,30.6,6.8,53.4,1z"/>
		</defs>
		<clipPath id="SVGID_2_">
			<use xlink:href="#SVGID_1_"  style="overflow:visible;"/>
		</clipPath>
		<path class="st0" d="M56.6,74c-0.3-5.1-0.5-10.1-0.9-15.2c-0.9-13.3-1.9-26.7-2.8-40C52.6,13,52.1,7.2,51.7,1.5
			C28,8.1-23.1,32.8-36.9,45.4c-5.7,5.2-12,14.1-11.6,21.8c0.5,10.9,10.4,19.7,21,22.4C-17,92.3-5.8,90.3,5,88
			C22.4,84.3,39.7,79.7,56.6,74z"/>
		<g class="st1">
			<path class="st2" d="M0.6,46c15.1-8.9,32.7-14.3,49-20.7c1.2-0.5,2.4-0.9,3.7-1.3c-0.1-1.7-0.2-3.4-0.4-5.1
				c-0.3-3.9-0.6-7.9-0.9-11.8c-0.8,0.2-1.6,0.5-2.4,0.7C33.7,12.2,17.4,19.7,2.9,27.7c-16.2,8.9-28.8,21.6-42.3,33.7
				c-1.2,1-0.5,3.4,1.3,3C-24.9,61.3-11,52.8,0.6,46z"/>
		</g>
		<g class="st3">
			<path class="st4" d="M47.3,55c1.9-3-2.8-5.9-4.7-2.9C40.7,55.1,45.4,58,47.3,55L47.3,55z"/>
		</g>
		<g class="st3">
			<path class="st4" d="M54.7,63.1c-1.2-2.6-5.3-1-4.7,1.8C50.8,68.4,56.2,66.5,54.7,63.1L54.7,63.1z"/>
		</g>
		<g class="st3">
			<path class="st4" d="M27.5,67.5c0.1-0.1,0.2-0.1,0.2-0.2c0.7-0.4,1.1-1.3,0.6-2.1c-0.6-0.9-1.4-0.9-2.4-0.5
				C24.1,65.6,25.8,68.6,27.5,67.5L27.5,67.5z"/>
		</g>
		<g class="st3">
			<path class="st4" d="M10.2,63.8c0.1-0.1-0.1-0.3-0.2-0.1C9.9,63.8,10.2,63.9,10.2,63.8L10.2,63.8z"/>
		</g>
		<g class="st3">
			<path class="st4" d="M10.8,64.8c0.9-1.4-1.3-2.7-2.2-1.3C7.8,64.9,9.9,66.2,10.8,64.8L10.8,64.8z"/>
		</g>
		<g class="st3">
			<path class="st4" d="M9.5,35.7c0.9-1.5-1.4-2.9-2.3-1.4C6.3,35.8,8.6,37.2,9.5,35.7L9.5,35.7z"/>
		</g>
		<g class="st3">
			<path class="st4" d="M21.3,24.1c-1.5-1.6-4.2,0.2-3.1,2.2C19.5,28.9,23.2,26.2,21.3,24.1L21.3,24.1z"/>
		</g>
		<g class="st3">
			<path class="st4" d="M44.1,25.5c1.2-1.9-1.8-3.7-2.9-1.8C40,25.6,42.9,27.4,44.1,25.5L44.1,25.5z"/>
		</g>
		<g class="st3">
			<path class="st4" d="M-14.1,45c0,0.1,0.1,0.2,0.1,0.3c0.4,0.8,1.2,0.9,1.9,0.6c0.1,0,0.2-0.1,0.4-0.1c1.5-0.6,1.1-2.9-0.3-3.3
				C-13.5,42-14.8,43.6-14.1,45L-14.1,45z"/>
		</g>
		<g class="st3">
			<path class="st4" d="M-28.6,50.4c1.3-2-1.9-4-3.1-2C-33,50.5-29.8,52.4-28.6,50.4L-28.6,50.4z"/>
		</g>
		<g class="st3">
			<path class="st4" d="M-18.2,61.4c0,0,0.1,0.1,0.1,0.1c1.4,1.4,3.9,1,4.5-1.1c0.7-2.2-1.8-4.2-3.8-3.1c0,0-0.1,0.1-0.1,0.1
				C-18.9,58.2-19.4,60.2-18.2,61.4L-18.2,61.4z"/>
		</g>
		<g class="st3">
			<path class="st4" d="M-38.6,59.4c0.1-0.1,0.1-0.1,0.2-0.2c0.7-0.6,0.7-1.7,0.1-2.3c-0.5-0.5-1.2-0.6-1.8-0.4
				C-42.7,57.3-40.7,61-38.6,59.4L-38.6,59.4z"/>
		</g>
		<g class="st3">
			<path class="st4" d="M-33.9,74.8c1.3-2.1-2-4.2-3.3-2C-38.5,74.9-35.2,76.9-33.9,74.8L-33.9,74.8z"/>
		</g>
		<g class="st3">
			<path class="st4" d="M-23.1,72.8c0.5-0.9-0.8-1.7-1.3-0.8S-23.6,73.7-23.1,72.8L-23.1,72.8z"/>
		</g>
		<g class="st3">
			<path class="st4" d="M-16.9,85.3c1-1.6-1.5-3.2-2.5-1.6C-20.5,85.4-17.9,87-16.9,85.3L-16.9,85.3z"/>
		</g>
		<g class="st3">
			<path class="st4" d="M-8.4,73.3c1-1.7-1.6-3.3-2.6-1.6C-12,73.3-9.5,75-8.4,73.3L-8.4,73.3z"/>
		</g>
		<g class="st3">
			<path class="st4" d="M2.7,80.1C2.7,80,2.8,80,2.9,79.9c1.4-1.2,0.1-3.7-1.7-3.2c-0.1,0-0.2,0.1-0.3,0.1
				C-2.1,77.7,0.3,82.1,2.7,80.1L2.7,80.1z"/>
		</g>
		<g class="st3">
			<path class="st4" d="M10.2,75.5c0.1,0.1,0.2,0.2,0.3,0.3c1.2,1.3,3.1-0.2,2.4-1.7c-0.1-0.1-0.1-0.2-0.2-0.4
				C11.8,71.7,8.6,73.8,10.2,75.5L10.2,75.5z"/>
		</g>
		<g class="st3">
			<path class="st4" d="M23,78.9c1.5-2.4-2.2-4.7-3.7-2.3S21.5,81.3,23,78.9L23,78.9z"/>
		</g>
		<g class="st5">
			<path class="st2" d="M47,53c1.1-1.7-1.6-3.4-2.7-1.7C43.3,53.1,45.9,54.7,47,53L47,53z"/>
		</g>
		<g class="st5">
			<path class="st2" d="M49.2,35c0.3-0.4-0.4-0.8-0.6-0.4C48.3,35.1,49,35.4,49.2,35L49.2,35z"/>
		</g>
		<g class="st5">
			<path class="st2" d="M50.1,35.6c0.8-1.3-1.2-2.6-2-1.3C47.3,35.6,49.3,36.9,50.1,35.6L50.1,35.6z"/>
		</g>
		<g class="st5">
			<path class="st2" d="M17.1,43.8c1.1-1.7-1.6-3.4-2.7-1.6C13.4,43.9,16,45.5,17.1,43.8L17.1,43.8z"/>
		</g>
		<g class="st5">
			<path class="st2" d="M23.1,58.9c1.4-2.3-2.1-4.4-3.5-2.2C18.2,59,21.7,61.2,23.1,58.9L23.1,58.9z"/>
		</g>
		<g class="st6">
			<path class="st4" d="M56,63.5C38.8,70,21.5,76.2,4.1,82c-19,6.3-40.8,7.9-58.5,17.3c-3.9,2.1-6.1,6.5-4.2,10.8
				c8.7,19.8,35.5,17.9,53.4,17.3c21.5-0.8,42.5-4.4,63.4-9C57.8,100.1,57.2,81.8,56,63.5z"/>
		</g>
		<g class="st6">
			<path class="st4" d="M55.7,58.8c-0.1-1.5-0.2-2.9-0.3-4.4C37.3,61.3,19.1,67.9,0.6,74c-19,6.3-40.8,7.9-58.5,17.3
				c-3.9,2.1-6.1,6.5-4.2,10.8c8.7,19.8,35.5,17.9,53.4,17.3c22.6-0.8,44.7-4.8,66.7-9.7C57.5,92.7,56.9,75.8,55.7,58.8z"/>
		</g>
		<g class="st6">
			<path class="st4" d="M55.7,58.8c-0.3-4.3-0.6-8.5-0.9-12.8C36.1,53.1,17.3,60-1.8,66.3c-19,6.3-40.8,7.9-58.5,17.3
				c-3.9,2.1-6.1,6.5-4.2,10.8c8.7,19.8,35.5,17.9,53.4,17.3c23.3-0.9,46.2-5.1,68.8-10.2C57.3,87.2,56.7,73,55.7,58.8z"/>
		</g>
		<g class="st7">
			<path class="st2" d="M37.9-44.1c-25.3,6.4-49.8,16.1-74.1,25.4c-25,9.6-52.1,24.5-55.7,53.5c-1.1,9.3,5,18.2,13.5,21.5
				c23,8.9,37.8-5,57.1-14.9C-0.1,30.5,22,20.7,44.1,11.9c2.8-1.1,5.5-2.2,8.1-3.2c0-0.1,0-0.3,0-0.4C52.1,8.2,52,8.1,51.9,8
				c-0.5-0.9-0.5-1.7-0.3-2.7c0,0,0,0,0,0c0.1-0.7,0.1-1.5,0.1-2.2c-0.1-1.4-0.2-2.9-0.3-4.3c-0.3-3.6-0.9-7.3-1.3-11
				c-2.1-2.9-2.5-6.7-2.7-10.4c-0.3-5.1-0.4-10.3-0.4-15.4c0-2.8,0-5.6,0.1-8.4C44.1-45.7,41-44.9,37.9-44.1z"/>
		</g>
		<g class="st7">
			<path class="st2" d="M46.9-39.9C21.6-33.5-2.9-23.9-27.2-14.5C-52.3-4.9-79.4,10-82.9,39c-1.1,9.3,5,18.2,13.5,21.5
				c23,8.9,37.8-5,57.1-14.9c21.1-10.8,43-20.5,65-29.3c-0.2-2.6-0.4-5.3-0.6-7.9C52.1,8.2,52,8.1,51.9,8c-0.5-0.9-0.5-1.7-0.3-2.7
				c0,0,0,0,0,0c0.1-0.7,0.1-1.5,0.1-2.2c-0.1-1.4-0.2-2.9-0.3-4.3c-0.3-3.6-0.9-7.3-1.3-11c-2.1-2.9-2.5-6.7-2.7-10.4
				c-0.3-5.1-0.4-10.3-0.4-15.4c0-0.6,0-1.3,0-1.9C47.1-40,47-40,46.9-39.9z"/>
		</g>
		<g class="st7">
			<path class="st2" d="M-26.1-7.8c-25,9.6-52.1,24.5-55.7,53.5c-1.1,9.3,5,18.2,13.5,21.5c23,8.9,37.8-5,57.1-14.9
				C9.7,41.6,31.5,32,53.3,23.3c-0.1-1.5-0.2-3-0.3-4.5c-0.2-3.5-0.5-7-0.8-10.4C52.1,8.2,52,8.1,51.9,8c-0.5-0.9-0.5-1.7-0.3-2.7
				c0,0,0,0,0,0c0.1-0.7,0.1-1.5,0.1-2.2c-0.1-1.4-0.2-2.9-0.3-4.3c-0.3-3.6-0.9-7.3-1.3-11c-2.1-2.9-2.5-6.7-2.7-10.4
				c-0.2-3.4-0.3-6.9-0.3-10.3C22.2-26.6-2.1-17-26.1-7.8z"/>
		</g>
	</g>
	<g>
		<path class="st8" d="M56.4,1.2c-0.9-1-3.2-1.2-4.4,0c-0.4,0.4-1,0.5-1.4,1.2c-0.6,1.1-1,3.3-1.3,5.4c-1.2,7.9-1.7,13.5-1.6,24.9
			c0,5,0.9,16.6,1.6,21.2c1.6,10,2.5,13.8,4.9,18.7c1.8,3.7,3,2.8,3.9,2.4c1.8-0.7,3.8-3.2,5.3-6.4c-2.3-3-5.1-9.7-6-17.1
			C55.5,35.1,56.3,18.2,56.4,1.2z"/>
		<path class="st2" d="M62.9,18.3c1.1,6.4,2.2,13.4,2.7,20.2c0.6,6.9,0.8,16.3-0.2,22.5c-0.7,4.3-1.3,6.9-2.9,9
			c-0.5,0.7-1.1,1-1.7,1.1c-2.6,0.4-5.2-2.5-7-7.6c-0.7-2-1.3-4.1-1.8-6.5c-2.7-14.6-3.4-31.9-2.4-40.8c0.6-5.7,1.9-13.8,4.1-15.5
			C55.8-0.8,60,2.5,62.9,18.3z"/>
		<g>
			<path class="st9" d="M63,41.8c2-10.7-2.5-25.5-6.4-28.7c-6.1-5-5.4,19-4.6,28c1.2,11.9,6,28.1,10.6,17c3.4-8.2,0.2-26.7-1.7-35.4
				c-0.7-3-2.2-0.8-1.9,2.3c0.8,7.1,1.6,14.8,1.7,22.2c0,4-0.8,7.2-2.4,5.3c-1.5-1.8-2.3-7.2-2.8-11c-0.4-2.8-2.1-21.4,0.5-20.3
				c2.9,1.2,5.4,12.9,5.8,19.8C61.9,42.6,62.7,43.4,63,41.8L63,41.8z"/>
		</g>
		<g>
			<defs>
				<path id="SVGID_3_" d="M62.9,18.3c1.1,6.4,2.2,13.4,2.7,20.2c0.6,6.9,0.8,16.3-0.2,22.5c-0.7,4.3-1.3,6.9-2.9,9
					c-0.5,0.7-1.1,1-1.7,1.1c-2.6,0.4-5.2-2.5-7-7.6c-0.7-2-1.3-4.1-1.8-6.5c-2.7-14.6-3.4-31.9-2.4-40.8c0.6-5.7,1.9-13.8,4.1-15.5
					C55.8-0.8,60,2.5,62.9,18.3z"/>
			</defs>
			<clipPath id="SVGID_4_">
				<use xlink:href="#SVGID_3_"  style="overflow:visible;"/>
			</clipPath>
			<g class="st10">
				<path class="st11" d="M61.3,18.5c0.2-7-1.7-15-4-17.5c-2.9-3.1-6.2-1.1-7.4,4.6c-3.6,16.5,0.1,52.4,5.8,63
					c5.2,9.8,11-4.5,11-19.5c0-13.9-3.1-40.5-9.2-43.7c-1.2-0.6-3.2,9.5-2,9.2c3.2-0.8,4.4,9.9,5.7,18.3c0.9,5.6,2.8,22.1-0.2,24.8
					c-3.2,2.9-6.4-13.6-7.1-19c-1.7-12.5,0.7-35.5,6.3-19.3C60.5,20.3,61.3,19.8,61.3,18.5L61.3,18.5z"/>
			</g>
			<g class="st10">
				<path class="st12" d="M55.1,1.8c7.8,5.7,10.5,30.8,10.6,49.3C65.7,73,58.9,73,55.2,64.8c-2.1-4.6-4-14.3-4.7-22
					C48.9,27,50.4,4.3,54.8,1.6c0.7-0.4,3-1,2.2-1.4c-6.7-2.9-10.7,12.8-10.1,27.3c0.7,17.5,7,49.2,14.1,47.8
					C73.8,72.8,64.9-9,53.5-4c-0.3,0.1,0.4,4.8,0.6,5.1L55.1,1.8z"/>
			</g>
		</g>
		<g>
			<path class="st13" d="M58.5,37.1c1.4-0.5,2.8-0.5,4.1-1.5c0.4-0.3,0.3-1.7,0-2c-1.4-1.3-3.2-0.6-4.3,1.9
				C58,36.1,58.2,37.2,58.5,37.1L58.5,37.1z"/>
		</g>
		<g>
			<path class="st13" d="M57.7,34.8c-0.5-4.9-1.8-10.6-3.4-13.5c-0.5-1-1.3,0.7-1,2.2c0.7,4.7,2.1,9.9,3.7,12.9
				C57.4,37.1,57.8,35.8,57.7,34.8L57.7,34.8z"/>
		</g>
		<g>
			<path class="st13" d="M56.9,40.1c-0.6,4.3-1.1,9.2-0.7,13.9c0.1,1.4,1,1.7,1.2,0.4c0.6-4.5,1.6-9.3,1.1-14.4
				C58.3,37.6,57.2,38.2,56.9,40.1L56.9,40.1z"/>
		</g>
		<g>
			<path class="st14" d="M61.1,25.4c-0.6-0.1-1.3,0-1.9,0.4c-0.6,0.4-0.8,2.3-0.5,3.6c0.2,0.7,0.5,1.3,0.8,1.2
				c0.8-0.3,1.5-1.3,2-2.9C61.8,26.8,61.5,25.5,61.1,25.4L61.1,25.4z"/>
		</g>
		<g>
			<path class="st14" d="M56.1,19.9c0.2,2.4,0.5,4.5,1.3,6c0.5,0.9,0.9-0.8,0.7-1.9c-0.3-1.8-0.9-3.2-1.3-4.8
				C56.5,18.2,56,18.8,56.1,19.9L56.1,19.9z"/>
		</g>
		<g>
			<path class="st14" d="M58.7,18.2c-0.6,0.9-0.6,2.6-0.5,4.3c0.1,1.7,0.9,2.3,1.2,0.8c0.3-1.4,0.6-3.1,0.1-4.5
				C59.3,18.1,59,17.8,58.7,18.2L58.7,18.2z"/>
		</g>
		<g>
			<path class="st14" d="M59.6,42.2c0.1,1.1,0.2,2.6,0.4,3.5c0.3,1,0.7,1.7,1.1,2.4c0.5,0.8,1.2-0.9,0.8-2.3
				c-0.3-1.1-0.5-2.3-0.9-3.1c-0.4-0.7-0.7-1.1-1.1-1.5C59.7,41.1,59.5,41.6,59.6,42.2L59.6,42.2z"/>
		</g>
		<g>
			<path class="st14" d="M61.2,41.9c0.2,0.5,0.4,1,0.6,1.6c0.2,0.6,0.4,0.9,0.7,0.7c0,0,0.1,0,0.1,0c0.2-0.1,0.3-0.7,0.3-1.2
				c0-0.1,0-0.2,0-0.3c0-0.5-0.2-1.2-0.3-1.4c-0.3-0.4-0.7-0.7-1-0.9C61.2,40.1,60.9,41.2,61.2,41.9L61.2,41.9z"/>
		</g>
		<g>
			<path class="st14" d="M58.8,48.8c-0.2,1.9-0.7,4.1,0,5.8c0.2,0.4,0.5,0.6,0.7,0.2c0.7-1.2,0.6-3.6,0.4-5.6
				C59.8,47.5,58.9,47,58.8,48.8L58.8,48.8z"/>
		</g>
		<g>
			<path class="st14" d="M61.6,50c-0.6,0.9-1.2,2.7-1.1,4.6c0.1,1.4,0.6,2.2,1.1,1.5c0.6-0.8,0.7-2.9,0.9-4.4
				C62.6,50.4,62,49.3,61.6,50L61.6,50z"/>
		</g>
		<g>
			<path class="st14" d="M55.3,36.2c-0.6,0.8-1.1,1.6-1,3.7c0,0.9,0.3,1.7,0.7,1.7c0.8-0.1,1.1-1.3,1.3-3
				C56.5,36.9,55.9,35.5,55.3,36.2L55.3,36.2z"/>
		</g>
		<g>
			<path class="st14" d="M53.2,32.6c-0.6,1.4-1.1,3.1-0.8,5.4c0.2,1.4,0.8,1.8,1.2,0.8c0.5-1.2,0.5-2.9,0.7-4.5
				C54.5,32.5,53.6,31.6,53.2,32.6L53.2,32.6z"/>
		</g>
		<g>
			<path class="st14" d="M55.4,44.7c-0.6-1-1.5-1.8-2-0.6c-0.3,0.6-0.4,1.6-0.2,2.5c0.5,2.3,1.6,2,2.3,0.8
				C55.8,46.8,55.8,45.4,55.4,44.7L55.4,44.7z"/>
		</g>
	</g>
</g>
<g>
	<line class="st4" x1="133" y1="26.2" x2="133" y2="26.2"/>
</g>
<g>
	<path class="st8" d="M245.1,124.4c-7.1-17.5-40.3-47.8-52.6-59.1c-5.2,3.9-10.5,7.7-15.8,11.5c-10.9,7.8-21.7,15.6-32.5,23.5
		c-3.4,2.5-6.8,4.8-10.3,7.2c6.9,5.5,13.9,10.7,21.1,15.7c21.5,14.9,40.1,30,65.1,37.7c12.4,3.8,27.4,2.9,30.9-11.1
		C253,141.8,248,131.3,245.1,124.4z"/>
	<g class="st15">
		<path class="st16" d="M186.8,76.8c3.4,2.6,6.7,5.9,10.5,7.9c1.4,0.8,2.5-0.9,1.6-2.1c-2.7-3.5-7.3-5.5-11-7.7
			C186.7,74.3,185.8,76,186.8,76.8L186.8,76.8z"/>
	</g>
	<g>
		<path class="st4" d="M195.1,132.8c0,0,0.1,0,0.1,0.1c0.4,0.2,0.9,0.2,1.3-0.2c0,0,0.1-0.1,0.1-0.1c0.8-0.8,0.2-2.2-0.9-2.2
			C194.5,130.4,193.9,132.2,195.1,132.8L195.1,132.8z"/>
	</g>
	<g>
		<path class="st4" d="M194.1,111.7c3.2,0,3.2-5,0-5S190.9,111.7,194.1,111.7L194.1,111.7z"/>
	</g>
	<g>
		<path class="st4" d="M183.1,121c3,0,3-4.6,0-4.6S180.1,121,183.1,121L183.1,121z"/>
	</g>
	<g>
		<path class="st4" d="M169.1,120.5c1.2-0.8,0.5-2.9-1-2.5C166.1,118.6,167.4,121.6,169.1,120.5L169.1,120.5z"/>
	</g>
	<g>
		<path class="st4" d="M173.7,107.5c2.4,0,2.4-3.8,0-3.8C171.3,103.7,171.3,107.5,173.7,107.5L173.7,107.5z"/>
	</g>
	<g>
		<path class="st4" d="M151.9,103.6c3.1,0,3.1-4.9,0-4.9C148.8,98.8,148.8,103.6,151.9,103.6L151.9,103.6z"/>
	</g>
	<g>
		<path class="st4" d="M159.6,113.8c2.2,0,2.2-3.5,0-3.5C157.4,110.3,157.4,113.8,159.6,113.8L159.6,113.8z"/>
	</g>
	<g class="st17">
		<path class="st2" d="M184.1,119.9c1.9,0,1.9-2.9,0-2.9C182.2,117,182.2,119.9,184.1,119.9L184.1,119.9z"/>
	</g>
	<g class="st17">
		<path class="st2" d="M199.8,126c0.3,0,0.3-0.5,0-0.5C199.4,125.5,199.4,126,199.8,126L199.8,126z"/>
	</g>
	<g class="st17">
		<path class="st2" d="M153.1,100.4c-0.1,0-0.1,0-0.2-0.1c-0.7-0.2-1.1,0.6-0.9,1.1c0,0.1,0.1,0.1,0.1,0.2c0.2,0.5,0.9,0.4,1.1,0
			c0.1-0.1,0.2-0.3,0.2-0.5C153.7,100.8,153.4,100.5,153.1,100.4L153.1,100.4z"/>
	</g>
	<g class="st17">
		<path class="st2" d="M185.5,95.3c0.1,0,0.1,0.1,0.2,0.1c0.4,0.3,1.1,0.3,1.4-0.2c0-0.1,0.1-0.1,0.1-0.2
			C188.5,92.7,183.6,93.7,185.5,95.3L185.5,95.3z"/>
	</g>
	<g class="st17">
		<path class="st2" d="M192.9,108.1c1.6,0,1.6-2.5,0-2.5S191.3,108.1,192.9,108.1L192.9,108.1z"/>
	</g>
	<g class="st17">
		<path class="st2" d="M170.8,88c2.8,0,2.8-4.3,0-4.3C168.1,83.8,168.1,88,170.8,88L170.8,88z"/>
	</g>
	<g>
		<defs>
			<path id="SVGID_5_" d="M188.6,61.6c6.1,5.8,48.4,42.6,56.6,62.7c2.8,7,7.9,17.5,5.9,25.4c-3.5,14.1-18.5,15-30.9,11.1
				c-25-7.7-43.6-22.8-65.1-37.7c-23.9-16.5-45.8-35.9-66-56.8C81.4,58.4,73.8,50,70.6,39.5c-3.3-10.5-1.1-23.4,8-29.7
				c6.3-4.4,17.2-3.7,24.6-1.6C121.6,13.5,171.6,45.3,188.6,61.6z"/>
		</defs>
		<clipPath id="SVGID_6_">
			<use xlink:href="#SVGID_5_"  style="overflow:visible;"/>
		</clipPath>
		<g class="st18">
			<path class="st2" d="M241.9,132.2c-3.4-13.5-15.2-24.8-24.2-34.9c-9.1-10.2-19.4-19.6-29.6-28.9c-3.8,2.8-7.6,5.5-11.4,8.2
				c-0.7,0.5-1.5,1.1-2.2,1.6c9.5,8.4,18.5,18.2,27,27c10.1,10.4,19.2,25.1,31.8,32.5C237.2,140.2,243.2,137.3,241.9,132.2z"/>
		</g>
		<g class="st19">
			<path class="st16" d="M208.4,94.6c5.7,6.1,10.9,12.9,15.5,19.9c4.3,6.5,6.9,13.8,10.9,20.3c1.1,1.8,3.8,1,3.9-1.1
				c0.5-16-17.1-32.4-29-40.8C208.7,92.2,207.6,93.8,208.4,94.6L208.4,94.6z"/>
		</g>
		<g class="st20">
			<path class="st4" d="M224.8,141.4c-0.1,0-0.1,0-0.2,0c-3.8,0.2-1.2,6,1.4,3.4c0,0,0.1-0.1,0.1-0.1
				C227.3,143.6,226.5,141.3,224.8,141.4L224.8,141.4z"/>
		</g>
		<g class="st20">
			<path class="st4" d="M213.8,136.3c0,0,0.1,0.1,0.1,0.1c0.8,0.8,2.4,0.3,2.3-1c0-0.1,0-0.1,0-0.2
				C216.2,132.5,211.9,134.4,213.8,136.3L213.8,136.3z"/>
		</g>
		<g class="st20">
			<path class="st4" d="M205,105.2c-0.1,0.1-0.1,0.2-0.2,0.2c-1.7,2.3,2.6,4.8,3.8,2.2c0-0.1,0.1-0.2,0.1-0.3
				C209.8,104.8,206.7,103,205,105.2L205,105.2z"/>
		</g>
		<g class="st21">
			<path class="st2" d="M207.5,136.1c2,0,2-3.1,0-3.1S205.5,136.1,207.5,136.1L207.5,136.1z"/>
		</g>
		<g class="st21">
			<path class="st2" d="M213.9,143.8c0.1,0,0.1-0.1,0.2-0.1c0.5-0.3,0.5-1.2-0.2-1.3c-0.1,0-0.2,0-0.2,0
				C212.2,142.2,212.7,144.5,213.9,143.8L213.9,143.8z"/>
		</g>
		<g class="st22">
			<path class="st4" d="M249.5,187.6c-4.3-24.3-23.7-29.8-42.2-41.2c-20.2-12.5-40-26.4-58.9-40.8c-1.9-1.4-3.8-2.9-5.6-4.3
				c-15.2,10.9-30.7,21.3-46.3,31.5c2.4,2.4,4.7,4.8,7.1,7.1c18.6,18.4,39.5,34.4,60,50.4c21.2,16.5,47.9,32,74.5,20.1
				C246.6,206.5,251,196.6,249.5,187.6z"/>
		</g>
		<g class="st22">
			<path class="st4" d="M254.4,180.5c-4.3-24.3-23.7-29.8-42.2-41.2c-20.2-12.5-40-26.4-58.9-40.8c-1.1-0.8-2.1-1.6-3.2-2.5
				c-2,1.4-3.9,2.8-5.9,4.2c-13.3,9.6-26.8,18.7-40.5,27.7c1.6,1.6,3.2,3.2,4.8,4.8c18.6,18.4,39.5,34.4,60,50.4
				c21.2,16.5,47.9,32,74.5,20.1C251.6,199.3,256,189.4,254.4,180.5z"/>
		</g>
		<g class="st22">
			<path class="st4" d="M259.7,174.4c-4.3-24.3-23.7-29.8-42.2-41.2c-20.2-12.5-40-26.4-58.9-40.8c-0.6-0.4-1.1-0.9-1.7-1.3
				c-4.2,3.1-8.5,6.1-12.7,9.1c-11.1,8-22.3,15.7-33.6,23.2c1.1,1.1,2.1,2.1,3.2,3.2c18.6,18.4,39.5,34.4,60,50.4
				c21.2,16.5,47.9,32,74.5,20.1C256.8,193.2,261.3,183.3,259.7,174.4z"/>
		</g>
		<g class="st23">
			<path class="st2" d="M272.8,85.3c-12.1-17.5-26.4-33.2-41.4-48.2c-1.2,0.8-2.4,1.6-3.5,2.5c-6.3,4.9-11.7,12.5-19.7,14.5
				c-0.3,0.1-0.7,0.1-1,0.1c-0.2,0.2-0.5,0.4-0.7,0.5c-4.8,2.6-9.1,6.8-13.5,10.1c-1.9,1.4-3.9,2.8-5.9,4.3
				c12.8,9.9,23.8,19.5,36.2,32c16.8,16.9,18.7,29.2,25,41.3c2.1,4,36,1.2,38.6-2.7C298.9,121.7,283,100.1,272.8,85.3z"/>
		</g>
		<g class="st23">
			<path class="st2" d="M274,95.2c-14.3-20.7-31.6-38.8-49.5-56.2c-1.9,1.4-3.9,2.7-5.7,4.1c-4.2,3.1-7.8,7.5-11.4,11.6
				c-0.5,0.6-1.3,0.9-2.1,1c-4.3,2.6-8.2,6.4-12.2,9.4c-3.9,2.9-7.9,5.8-11.9,8.6c15.9,12,28.7,22.7,43.4,37.5
				c16.8,16.9,18.7,29.2,25,41.3c2.1,4,36,1.2,38.6-2.7C300.1,131.5,284.1,109.9,274,95.2z"/>
		</g>
		<g class="st23">
			<path class="st2" d="M268.8,99.7c-14.3-20.6-31.5-38.7-49.4-56.2c-1.8,1.5-3.7,2.9-5.8,4.2c-0.7,0.5-1.5,1-2.2,1.5
				c-0.2,0.1-0.3,0.2-0.5,0.3c-0.3,0.3-0.7,0.6-1,0.9c-0.3,0.3-0.6,0.6-0.9,0.9c-0.1,0.2-0.3,0.3-0.4,0.5c0,0.1-0.1,0.2-0.1,0.2
				c-0.1,0.1-0.1,0.2-0.2,0.3c-0.1,0.8-0.5,1.6-1.3,2.2c-0.3,0.5-0.6,0.9-1.2,1.2c-0.5,0.3-1,0.4-1.5,0.5c-3.9,2.6-7.5,6-11.3,8.8
				c-5.4,4-10.8,7.9-16.3,11.8c-0.4,0.3-0.8,0.6-1.3,0.9c16.2,12.2,29.1,22.9,43.9,37.9c16.8,16.9,18.7,29.2,25,41.3
				c2.1,4,36,1.2,38.6-2.7C295,136,279,114.4,268.8,99.7z"/>
		</g>
	</g>
	<g>
		<path class="st8" d="M134.1,105.9c-0.3,1.3,0.9,3.4,2.6,3.9c0.5,0.1,1,0.6,1.8,0.6c1.3-0.1,3.2-0.9,5.1-1.7
			c7-3.2,11.8-5.7,20.7-11.9c4-2.7,12.7-9.6,15.9-12.7c7-6.7,9.5-9.6,12-14.2c1.9-3.5,0.4-4.1-0.4-4.7c-1.6-1.2-4.8-1.6-8.2-1.2
			c-1.1,3.6-4.7,9.7-10.1,14.3C161.5,88.5,147.7,96.9,134.1,105.9z"/>
		<path class="st2" d="M143.9,91.1c4.4-4.4,9.4-9,14.5-13.2c5.1-4.2,12.5-9.4,18.1-11.8c3.9-1.7,6.3-2.5,8.9-2.3
			c0.9,0.1,1.5,0.4,1.9,0.9c1.9,2,1.1,5.9-1.9,10.2c-1.2,1.7-2.5,3.4-4.1,5c-10,10.2-23.4,19.9-31.1,23.8
			c-4.9,2.5-12.1,5.7-14.7,4.7C132.9,107.5,133,102,143.9,91.1z"/>
		<g>
			<path class="st9" d="M162.5,78.4c-9.7,3.9-18.8,15.8-19.1,20.9c-0.4,7.9,18.4-5.4,25-11c8.8-7.4,18.9-20.2,7.3-18.3
				c-8.6,1.4-21.3,14.1-27.2,20.4c-2,2.2,0.7,2.4,2.9,0.5c5.2-4.5,10.8-9.3,16.6-13.3c3.1-2.2,6.2-3.1,5.6-0.7
				c-0.5,2.3-4.3,5.8-7.1,8.3c-2,1.8-15.8,13.2-16.5,10.4c-0.8-3.2,7.1-11.5,12.4-15.6C163.8,79,164,77.8,162.5,78.4L162.5,78.4z"/>
		</g>
		<g>
			<defs>
				<path id="SVGID_7_" d="M143.9,91.1c4.4-4.4,9.4-9,14.5-13.2c5.1-4.2,12.5-9.4,18.1-11.8c3.9-1.7,6.3-2.5,8.9-2.3
					c0.9,0.1,1.5,0.4,1.9,0.9c1.9,2,1.1,5.9-1.9,10.2c-1.2,1.7-2.5,3.4-4.1,5c-10,10.2-23.4,19.9-31.1,23.8
					c-4.9,2.5-12.1,5.7-14.7,4.7C132.9,107.5,133,102,143.9,91.1z"/>
			</defs>
			<clipPath id="SVGID_8_">
				<use xlink:href="#SVGID_7_"  style="overflow:visible;"/>
			</clipPath>
			<g class="st24">
				<path class="st25" d="M144.9,92.4c-5.7,3.6-10.9,9.5-11.5,12.8c-0.7,4.2,2.7,6,8.1,4c15.2-5.7,41.6-28.1,46.7-38.7
					c4.7-9.8-10-7.2-22,0.8c-11.1,7.4-30.4,24.3-29.4,31.3c0.2,1.4,9.4-2.3,8.5-3.2c-2.5-2.4,5.3-9.2,11.2-14.7
					c3.9-3.8,15.9-14.2,19.9-13.1c4.2,1.3-7.1,12.8-11,16.3c-9,8.2-28.7,18.3-19.1,4.8C146.9,92.1,146,91.7,144.9,92.4L144.9,92.4z"
					/>
			</g>
			<g class="st24">
				<path class="st25" d="M135.3,106.7c0-9.8,18.3-25.5,33-35.5c17.4-11.8,21.4-5.8,17.1,1.8c-2.4,4.3-9.1,11.1-14.7,15.9
					c-11.6,9.8-30.6,20.6-35.3,18.2c-0.8-0.4-2.6-2.1-2.4-1.2c1.7,7.4,16.4,2.5,27.7-5.8c13.5-9.9,35-32.3,29.7-37.8
					c-9.5-9.8-69.3,41.6-58.6,48.9c0.3,0.2,3.6-2.9,3.7-3.3L135.3,106.7z"/>
			</g>
		</g>
		<g>
			<path class="st13" d="M161.4,84.9c-1.2-0.9-2.1-2.1-3.6-2.8c-0.4-0.2-1.5,0.6-1.5,1.1c-0.2,1.9,1.4,3.1,4.1,2.8
				C160.9,85.9,161.7,85.1,161.4,84.9L161.4,84.9z"/>
		</g>
		<g>
			<path class="st13" d="M160,86.8c-3.6,3.1-7.3,7.2-8.8,10.2c-0.5,1,1.3,0.7,2.4-0.3c3.3-3.1,6.7-7.2,8-10.1
				C162.1,85.8,160.8,86.1,160,86.8L160,86.8z"/>
		</g>
		<g>
			<path class="st13" d="M164.7,84.6c3.8-1.8,8-4,11.5-6.8c1-0.9,0.8-1.8-0.4-1.2c-3.9,1.8-8.4,3.5-12.1,6.7
				C161.9,84.8,163.1,85.4,164.7,84.6L164.7,84.6z"/>
		</g>
		<g>
			<path class="st14" d="M150.6,88.9c0.3,0.6,0.8,1.1,1.5,1.4c0.6,0.3,2.3-0.5,3.2-1.5c0.4-0.5,0.7-1.1,0.5-1.4
				c-0.7-0.5-1.9-0.6-3.5-0.2C151.3,87.5,150.4,88.5,150.6,88.9L150.6,88.9z"/>
		</g>
		<g>
			<path class="st14" d="M149.1,96.1c1.8-1.5,3.3-2.8,4-4.3c0.4-0.9-1.1-0.3-1.9,0.4c-1.2,1.3-2,2.5-3.1,3.7
				C147.5,96.7,148.3,96.8,149.1,96.1L149.1,96.1z"/>
		</g>
		<g>
			<path class="st14" d="M146.3,94.8c1,0,2.4-0.9,3.7-1.8c1.3-1,1.3-2,0-1.5c-1.3,0.5-2.8,1.1-3.7,2.3
				C145.8,94.3,145.7,94.7,146.3,94.8L146.3,94.8z"/>
		</g>
		<g>
			<path class="st14" d="M164.8,81.3c0.8-0.7,1.9-1.5,2.5-2.2c0.6-0.8,1-1.5,1.3-2.3c0.3-0.9-1.4-0.5-2.3,0.5
				c-0.7,0.8-1.6,1.7-1.9,2.4c-0.3,0.7-0.5,1.2-0.5,1.8C163.9,81.8,164.4,81.6,164.8,81.3L164.8,81.3z"/>
		</g>
		<g>
			<path class="st14" d="M163.6,80c0.3-0.5,0.6-0.9,1-1.4c0.4-0.5,0.5-0.8,0.2-1c0,0-0.1,0-0.1-0.1c-0.2-0.1-0.7,0.1-1.2,0.4
				c-0.1,0.1-0.2,0.1-0.3,0.2c-0.4,0.3-0.9,0.8-0.9,1c-0.1,0.5-0.2,1-0.1,1.4C162.2,81,163.2,80.6,163.6,80L163.6,80z"/>
		</g>
		<g>
			<path class="st14" d="M170.6,78.4c1.6-0.9,3.6-1.6,4.6-3.1c0.2-0.4,0.2-0.7-0.2-0.7c-1.4,0.1-3.2,1.4-4.7,2.6
				C168.9,78.2,169.1,79.2,170.6,78.4L170.6,78.4z"/>
		</g>
		<g>
			<path class="st14" d="M169.8,75.3c1,0,2.8-0.4,4.3-1.5c1-0.8,1.4-1.7,0.6-1.7c-1,0-2.7,0.9-4.1,1.6
				C169.5,74.2,169.1,75.3,169.8,75.3L169.8,75.3z"/>
		</g>
		<g>
			<path class="st14" d="M162.6,88.1c1,0.1,1.9,0,3.5-1.1c0.7-0.5,1.2-1.2,0.9-1.5c-0.5-0.6-1.6-0.2-3.2,0.5
				C162.5,86.7,161.7,88,162.6,88.1L162.6,88.1z"/>
		</g>
		<g>
			<path class="st14" d="M160.9,91.9c1.4-0.2,3.1-0.7,4.7-2.2c1-0.9,1-1.7-0.1-1.5c-1.2,0.2-2.6,1.1-4,1.8
				C160,90.8,159.9,92.1,160.9,91.9L160.9,91.9z"/>
		</g>
		<g>
			<path class="st14" d="M169.3,83.5c-0.4,1-0.6,2.2,0.7,2.1c0.7-0.1,1.5-0.5,2.1-1.2c1.6-1.6,0.7-2.5-0.7-2.4
				C170.7,82.1,169.6,82.8,169.3,83.5L169.3,83.5z"/>
		</g>
	</g>
</g>
</svg>
