<?xml version="1.0" encoding="utf-8"?>
<!-- Generator: Adobe Illustrator 25.2.1, SVG Export Plug-In . SVG Version: 6.00 Build 0)  -->
<svg version="1.1" id="Layer_3" xmlns="http://www.w3.org/2000/svg" xmlns:xlink="http://www.w3.org/1999/xlink" x="0px" y="0px"
	 viewBox="0 0 200 200" style="enable-background:new 0 0 200 200;" xml:space="preserve">
<style type="text/css">
	.st0{clip-path:url(#SVGID_2_);fill:#154B0D;}
	.st1{opacity:9.000000e-02;clip-path:url(#SVGID_2_);}
	.st2{fill:#CAE98B;}
	.st3{clip-path:url(#SVGID_2_);}
	.st4{fill:#1D3C1C;}
	.st5{opacity:0.17;clip-path:url(#SVGID_2_);}
	.st6{opacity:8.000000e-02;clip-path:url(#SVGID_2_);}
	.st7{opacity:6.000000e-02;clip-path:url(#SVGID_2_);}
	.st8{opacity:0.26;}
	.st9{fill:#FFFFFF;}
	.st10{opacity:0.17;}
</style>
<g>
	<g>
		<defs>
			<path id="SVGID_1_" d="M131.4,65.2c6.4,6.2,51.5,45.3,60.1,66.6c3,7.4,8.4,18.6,6.3,27c-3.7,15-19.7,15.9-32.9,11.8
				c-26.6-8.2-46.3-24.3-69.2-40.1c-25.4-17.6-48.7-38.1-70.1-60.4C17.6,61.8,9.5,52.8,6.1,41.7c-3.5-11.1-1.1-24.9,8.5-31.5
				c6.7-4.6,18.3-3.9,26.2-1.7C60.3,14.1,113.4,47.9,131.4,65.2z"/>
		</defs>
		<clipPath id="SVGID_2_">
			<use xlink:href="#SVGID_1_"  style="overflow:visible;"/>
		</clipPath>
		<path class="st0" d="M131.4,65.2c6.4,6.2,51.5,45.3,60.1,66.6c3,7.4,8.4,18.6,6.3,27c-3.7,15-19.7,15.9-32.9,11.8
			c-26.6-8.2-46.3-24.3-69.2-40.1c-25.4-17.6-48.7-38.1-70.1-60.4C17.6,61.8,9.5,52.8,6.1,41.7c-3.5-11.1-1.1-24.9,8.5-31.5
			c6.7-4.6,18.3-3.9,26.2-1.7C60.3,14.1,113.4,47.9,131.4,65.2z"/>
		<g class="st1">
			<path class="st2" d="M23,18.2c10.2,10.1,25.6,17.9,38.3,24.5c16.6,8.7,31.2,21.5,46.1,32.7c13.5,10.1,26.1,24.1,37.8,36.3
				c10.7,11.1,20.4,26.7,33.8,34.6c4.1,2.4,10.6-0.6,9.2-6c-3.6-14.4-16.2-26.3-25.8-37.1c-12-13.4-25.9-25.6-39.1-37.6
				c-13-11.9-29-22.4-44.3-31C61.8,25,43.4,20.7,24.9,15.3C23.3,14.8,21.6,16.8,23,18.2L23,18.2z"/>
		</g>
		<g class="st3">
			<path class="st4" d="M125.6,128.3c3.2,0,3.2-4.9,0-4.9C122.4,123.4,122.4,128.3,125.6,128.3L125.6,128.3z"/>
		</g>
		<g class="st3">
			<path class="st4" d="M110.7,127.8c1.3-0.9,0.5-3.1-1.1-2.6C107.5,125.8,109,129,110.7,127.8L110.7,127.8z"/>
		</g>
		<g class="st3">
			<path class="st4" d="M115.7,113.9c2.6,0,2.6-4,0-4C113.1,109.9,113.1,113.9,115.7,113.9L115.7,113.9z"/>
		</g>
		<g class="st3">
			<path class="st4" d="M92.5,109.9c3.3,0,3.3-5.2,0-5.2C89.2,104.7,89.2,109.9,92.5,109.9L92.5,109.9z"/>
		</g>
		<g class="st3">
			<path class="st4" d="M100.7,120.6c2.4,0,2.4-3.7,0-3.7C98.3,117,98.3,120.6,100.7,120.6L100.7,120.6z"/>
		</g>
		<g class="st3">
			<path class="st4" d="M110,91.2c3.6,0,3.6-5.7,0-5.7C106.3,85.5,106.3,91.2,110,91.2L110,91.2z"/>
		</g>
		<g class="st3">
			<path class="st4" d="M79.2,89.9c3.8,0,3.8-5.8,0-5.8C75.5,84.1,75.5,89.9,79.2,89.9L79.2,89.9z"/>
		</g>
		<g class="st3">
			<path class="st4" d="M76.1,101.1c1.7-2.5-2.1-5.4-4.2-3.2C69.1,100.6,73.9,104.4,76.1,101.1L76.1,101.1z"/>
		</g>
		<g class="st3">
			<path class="st4" d="M88.1,97c2.5,0,2.5-3.9,0-3.9C85.6,93.1,85.6,97,88.1,97L88.1,97z"/>
		</g>
		<g class="st3">
			<path class="st4" d="M56.8,79.1c0.1,0,0.2,0.1,0.3,0.1c0.8,0.4,1.8,0.3,2.2-0.6c0.5-1,0.1-1.8-0.8-2.4
				C56.7,75,54.9,78.2,56.8,79.1L56.8,79.1z"/>
		</g>
		<g class="st3">
			<path class="st4" d="M50.5,61.4c0.2,0,0.2-0.3,0-0.3C50.3,61.2,50.3,61.4,50.5,61.4L50.5,61.4z"/>
		</g>
		<g class="st3">
			<path class="st4" d="M49.9,62.5c1.7,0,1.7-2.7,0-2.7C48.2,59.8,48.2,62.5,49.9,62.5L49.9,62.5z"/>
		</g>
		<g class="st3">
			<path class="st4" d="M75.5,45c1.9,0,1.9-2.9,0-2.9C73.6,42.1,73.6,45,75.5,45L75.5,45z"/>
		</g>
		<g class="st3">
			<path class="st4" d="M92.5,49.2c0.6-2.2-2.6-3.6-3.8-1.6C87.3,50.2,91.8,52.1,92.5,49.2L92.5,49.2z"/>
		</g>
		<g class="st3">
			<path class="st4" d="M104.1,70.5c2.4,0,2.4-3.7,0-3.7C101.7,66.9,101.7,70.5,104.1,70.5L104.1,70.5z"/>
		</g>
		<g class="st3">
			<path class="st4" d="M119.7,72.5c2,0,2-3.2,0-3.2S117.7,72.5,119.7,72.5L119.7,72.5z"/>
		</g>
		<g class="st3">
			<path class="st4" d="M53.9,28.9c-0.1,0.1-0.1,0.2-0.2,0.3c-0.5,0.8-0.1,1.6,0.5,2.1c0.1,0.1,0.2,0.2,0.3,0.2
				c1.4,1.1,3.2-0.7,2.8-2.2C56.9,27.8,54.7,27.6,53.9,28.9L53.9,28.9z"/>
		</g>
		<g class="st3">
			<path class="st4" d="M40.9,18.9c2.5,0,2.5-3.9,0-3.9S38.3,18.9,40.9,18.9L40.9,18.9z"/>
		</g>
		<g class="st3">
			<path class="st4" d="M36.8,34.4c0,0.1,0,0.1,0,0.2c-0.5,2.1,1.3,4.1,3.5,3.5c2.4-0.6,2.8-4,0.7-5.2c-0.1,0-0.1-0.1-0.2-0.1
				C39.3,31.9,37.2,32.6,36.8,34.4L36.8,34.4z"/>
		</g>
		<g class="st3">
			<path class="st4" d="M27.2,14.8c0.1,0,0.2,0.1,0.3,0.1c0.9,0.3,1.9-0.4,2.1-1.2c0.2-0.7-0.1-1.4-0.7-1.9
				C26.7,10,24.5,13.8,27.2,14.8L27.2,14.8z"/>
		</g>
		<g class="st3">
			<path class="st4" d="M15.9,27.7c2.7,0,2.7-4.1,0-4.1S13.2,27.7,15.9,27.7L15.9,27.7z"/>
		</g>
		<g class="st3">
			<path class="st4" d="M23.7,36.4c1.1,0,1.1-1.7,0-1.7S22.6,36.4,23.7,36.4L23.7,36.4z"/>
		</g>
		<g class="st3">
			<path class="st4" d="M15.9,49c2,0,2-3.2,0-3.2S13.8,49,15.9,49L15.9,49z"/>
		</g>
		<g class="st3">
			<path class="st4" d="M31.5,49.9c2.1,0,2.1-3.2,0-3.2S29.4,49.9,31.5,49.9L31.5,49.9z"/>
		</g>
		<g class="st3">
			<path class="st4" d="M31.6,63.7c0.1,0,0.2,0.1,0.3,0.1c1.9,0.6,3.4-2,1.9-3.3c-0.1-0.1-0.1-0.1-0.2-0.2
				C31.1,58,28.4,62.7,31.6,63.7L31.6,63.7z"/>
		</g>
		<g class="st3">
			<path class="st4" d="M39.9,68c0,0.1-0.1,0.3-0.1,0.4c-0.5,1.8,2,2.7,2.9,1.2c0.1-0.1,0.2-0.2,0.2-0.4
				C44.3,67.2,40.6,65.6,39.9,68L39.9,68z"/>
		</g>
		<g class="st3">
			<path class="st4" d="M44.1,81.4c3,0,3-4.6,0-4.6S41.1,81.4,44.1,81.4L44.1,81.4z"/>
		</g>
		<g class="st5">
			<path class="st2" d="M126.7,127.2c2,0,2-3.1,0-3.1C124.7,124.1,124.7,127.2,126.7,127.2L126.7,127.2z"/>
		</g>
		<g class="st5">
			<path class="st2" d="M93.7,106.4c-0.1,0-0.1,0-0.2-0.1c-0.7-0.3-1.2,0.6-0.9,1.2c0,0.1,0.1,0.1,0.1,0.2c0.2,0.5,0.9,0.4,1.2,0
				c0.1-0.2,0.2-0.3,0.2-0.5C94.4,106.9,94,106.6,93.7,106.4L93.7,106.4z"/>
		</g>
		<g class="st5">
			<path class="st2" d="M80.8,88.6c2.1,0,2.1-3.3,0-3.3C78.7,85.2,78.7,88.6,80.8,88.6L80.8,88.6z"/>
		</g>
		<g class="st5">
			<path class="st2" d="M118.2,78.4c1.2,0,1.2-1.8,0-1.8C117,76.6,117,78.4,118.2,78.4L118.2,78.4z"/>
		</g>
		<g class="st5">
			<path class="st2" d="M128.2,101c0.1,0,0.1,0.1,0.2,0.1c0.5,0.4,1.1,0.4,1.4-0.2c0-0.1,0.1-0.1,0.1-0.2
				C131.4,98.2,126.1,99.3,128.2,101L128.2,101z"/>
		</g>
		<g class="st5">
			<path class="st2" d="M98.3,80.5c0.5,0,0.5-0.8,0-0.8C97.8,79.7,97.8,80.5,98.3,80.5L98.3,80.5z"/>
		</g>
		<g class="st5">
			<path class="st2" d="M98.4,81.6c1.6,0,1.6-2.5,0-2.5S96.7,81.6,98.4,81.6L98.4,81.6z"/>
		</g>
		<g class="st5">
			<path class="st2" d="M112.6,93.3c2.9,0,2.9-4.6,0-4.6C109.7,88.8,109.7,93.3,112.6,93.3L112.6,93.3z"/>
		</g>
		<g class="st5">
			<path class="st2" d="M72.4,56.4c2.1,0,2.1-3.3,0-3.3C70.3,53.1,70.3,56.4,72.4,56.4L72.4,56.4z"/>
		</g>
		<g class="st5">
			<path class="st2" d="M62.1,70.3c2.8,0,2.8-4.4,0-4.4S59.3,70.3,62.1,70.3L62.1,70.3z"/>
		</g>
		<g class="st6">
			<path class="st4" d="M-29.9,25.2c-13,18.9,3.7,42.1,14.3,57.9c16.2,24,36.1,44.9,56.6,65.2c19.7,19.5,41.9,36.5,63.8,53.5
				c22.5,17.5,50.9,34,79.2,21.3c9.1-4.1,13.8-14.6,12.1-24.1c-4.5-25.8-25.2-31.7-44.9-43.8c-21.5-13.3-42.5-28-62.6-43.3
				C69,97,49.6,81.9,30.6,66.1c-16.3-13.6-30-32.4-48.4-43.2C-21.9,20.5-27.1,21.1-29.9,25.2L-29.9,25.2z"/>
		</g>
		<g class="st6">
			<path class="st4" d="M-24.6,17.6c-13,18.9,3.7,42.1,14.3,57.9c16.2,24,36.1,44.9,56.6,65.2c19.7,19.5,41.9,36.5,63.8,53.5
				c22.5,17.5,50.9,34,79.2,21.3c9.1-4.1,13.8-14.6,12.1-24.1c-4.5-25.8-25.2-31.7-44.9-43.8c-21.5-13.3-42.5-28-62.6-43.3
				c-19.6-14.9-39.1-30.1-58-45.9c-16.3-13.6-30-32.4-48.4-43.2C-16.6,12.9-21.8,13.4-24.6,17.6L-24.6,17.6z"/>
		</g>
		<g class="st6">
			<path class="st4" d="M-19,11.1C-32,30-15.3,53.2-4.7,69c16.2,24,36.1,44.9,56.6,65.2c19.7,19.5,41.9,36.5,63.8,53.5
				c22.5,17.5,50.9,34,79.2,21.3c9.1-4.1,13.8-14.6,12.1-24.1c-4.5-25.8-25.2-31.7-44.9-43.8c-21.5-13.3-42.5-28-62.6-43.3
				C79.9,82.9,60.5,67.8,41.5,52C25.2,38.4,11.5,19.6-6.9,8.8C-11,6.4-16.2,7-19,11.1L-19,11.1z"/>
		</g>
		<g class="st7">
			<path class="st2" d="M236,148.1c12.7-19.1-4.3-42.1-15.1-57.7c-16.5-23.8-36.7-44.5-57.4-64.5c-20-19.2-42.4-36-64.5-52.7
				C76.3-44,47.7-60.1,19.5-47c-9,4.2-13.6,14.7-11.8,24.2C12.6,2.9,33.4,8.5,53.1,20.4c21.7,13,42.9,27.5,63.2,42.5
				c19.8,14.7,34.7,26.8,52.1,44.3c17.8,17.9,19.9,31.1,26.5,43.8C197.1,155.3,233.2,152.3,236,148.1L236,148.1z"/>
		</g>
		<g class="st7">
			<path class="st2" d="M237.2,158.6c12.7-19.1-4.3-42.1-15.1-57.7c-16.5-23.8-36.7-44.5-57.4-64.5c-20-19.2-42.4-36-64.5-52.7
				C77.5-33.5,48.9-49.6,20.8-36.6C11.8-32.4,7.2-21.8,9-12.3C13.8,13.4,34.6,19,54.4,30.9c21.7,13,42.9,27.5,63.2,42.5
				c19.8,14.7,34.7,26.8,52.1,44.3c17.8,17.9,19.9,31.1,26.5,43.8C198.4,165.8,234.5,162.8,237.2,158.6L237.2,158.6z"/>
		</g>
		<g class="st7">
			<path class="st2" d="M231.8,163.4c12.7-19.1-4.3-42.1-15.1-57.7c-16.5-23.8-36.7-44.5-57.4-64.5c-20-19.2-42.4-36-64.5-52.7
				C72.1-28.7,43.5-44.8,15.3-31.8C6.3-27.6,1.7-17,3.5-7.5c4.9,25.7,25.6,31.3,45.4,43.2c21.7,13,42.9,27.5,63.2,42.5
				c19.8,14.7,34.7,26.8,52.1,44.3c17.8,17.9,19.9,31.1,26.5,43.8C192.9,170.5,229,167.6,231.8,163.4L231.8,163.4z"/>
		</g>
	</g>
	<g class="st8">
		<path class="st9" d="M152.2,101.9c2.5,2,5,4.4,7.8,5.9c1,0.6,1.8-0.7,1.2-1.5c-2-2.6-5.5-4.1-8.2-5.8
			C152.1,100,151.4,101.3,152.2,101.9L152.2,101.9z"/>
	</g>
	<g class="st8">
		<path class="st9" d="M168.2,115.1c4.3,4.5,8.1,9.6,11.5,14.8c3.2,4.8,5.1,10.3,8.1,15.1c0.8,1.3,2.9,0.8,2.9-0.8
			c0.4-11.9-12.7-24.1-21.6-30.4C168.4,113.3,167.6,114.5,168.2,115.1L168.2,115.1z"/>
	</g>
	<g>
		<path class="st4" d="M180.4,150c0,0-0.1,0-0.1,0c-2.9,0.1-0.9,4.5,1.1,2.6c0,0,0.1-0.1,0.1-0.1C182.3,151.6,181.7,149.9,180.4,150
			L180.4,150z"/>
	</g>
	<g>
		<path class="st4" d="M172.2,146.1c0,0,0.1,0.1,0.1,0.1c0.6,0.6,1.8,0.2,1.7-0.7c0,0,0-0.1,0-0.1
			C174,143.3,170.8,144.8,172.2,146.1L172.2,146.1z"/>
	</g>
	<g>
		<path class="st4" d="M158.3,143.5c0,0,0.1,0,0.1,0.1c0.3,0.2,0.7,0.1,1-0.1c0,0,0-0.1,0.1-0.1c0.6-0.6,0.2-1.6-0.7-1.6
			C157.9,141.8,157.4,143.1,158.3,143.5L158.3,143.5z"/>
	</g>
	<g>
		<path class="st4" d="M165.7,123c0,0.1-0.1,0.1-0.1,0.2c-1.3,1.7,2,3.6,2.8,1.6c0-0.1,0.1-0.1,0.1-0.2
			C169.3,122.7,166.9,121.4,165.7,123L165.7,123z"/>
	</g>
	<g>
		<path class="st4" d="M157.6,127.9c2.4,0,2.4-3.7,0-3.7S155.2,127.9,157.6,127.9L157.6,127.9z"/>
	</g>
	<g class="st10">
		<path class="st2" d="M161.8,138.5c0.2,0,0.2-0.4,0-0.4C161.5,138.2,161.5,138.5,161.8,138.5L161.8,138.5z"/>
	</g>
	<g class="st10">
		<path class="st2" d="M167.6,146c1.5,0,1.5-2.3,0-2.3C166.1,143.7,166.1,146,167.6,146L167.6,146z"/>
	</g>
	<g class="st10">
		<path class="st2" d="M172.3,151.8c0.1,0,0.1-0.1,0.2-0.1c0.4-0.2,0.3-0.9-0.1-1c-0.1,0-0.1,0-0.2,0
			C171,150.6,171.4,152.3,172.3,151.8L172.3,151.8z"/>
	</g>
	<g class="st10">
		<path class="st2" d="M156.7,125.2c1.2,0,1.2-1.8,0-1.8C155.5,123.3,155.5,125.2,156.7,125.2L156.7,125.2z"/>
	</g>
</g>
</svg>
