<?xml version="1.0" encoding="utf-8"?>
<!-- Generator: Adobe Illustrator 25.2.1, SVG Export Plug-In . SVG Version: 6.00 Build 0)  -->
<svg version="1.1" id="Layer_1" xmlns="http://www.w3.org/2000/svg" xmlns:xlink="http://www.w3.org/1999/xlink" x="0px" y="0px"
	 viewBox="0 0 227.5 169.4" style="enable-background:new 0 0 227.5 169.4;" xml:space="preserve">
<style type="text/css">
	.st0{clip-path:url(#SVGID_2_);}
	.st1{fill:#7F3706;}
	.st2{clip-path:url(#SVGID_4_);}
	.st3{fill:#8E430C;}
	.st4{fill:#B76400;}
	.st5{fill:#A85C09;}
	.st6{fill:#9B520A;}
	.st7{fill:#934B0A;}
	.st8{fill:#632B04;}
	.st9{opacity:0.2;enable-background:new    ;}
	.st10{fill:#4E6B00;}
	.st11{fill:#5D8E07;}
	.st12{fill:#77A004;}
	.st13{fill:#88B709;}
</style>
<g>
	<defs>
		<rect id="SVGID_1_" x="-42.5" y="-30.1" width="270" height="205.2"/>
	</defs>
	<clipPath id="SVGID_2_">
		<use xlink:href="#SVGID_1_"  style="overflow:visible;"/>
	</clipPath>
	<g class="st0">
		<g>
			<path class="st1" d="M840.5,163.5H45.7c-21.9,0-40.8-6.6-41.7-39.7C3.8,114.4,6,41,6,41C6,19.2,24.3,7.6,46.2,7.6h795
				c21.9,0,41,11.6,41,33.5c0,0,1.7,71.6,1,82.8C881.6,149.4,863.1,163.5,840.5,163.5z"/>
			<g>
				<g>
					<defs>
						<path id="SVGID_3_" d="M840.5,152H45.7C23.8,152,6,134.2,6,112.3V45.5C6,23.6,23.8,5.9,45.7,5.9h794.8
							c21.9,0,39.7,17.8,39.7,39.7v66.8C880.2,134.2,862.4,152,840.5,152z"/>
					</defs>
					<clipPath id="SVGID_4_">
						<use xlink:href="#SVGID_3_"  style="overflow:visible;"/>
					</clipPath>
					<g class="st2">
						<path class="st3" d="M902.4,60.8V571c0,52.2-42.3,94.6-94.6,94.6H98.6C46.3,665.6,4,623.2,4,571V60.8
							C4,8.5,46.3-33.8,98.6-33.8h709.3C860.1-33.8,902.4,8.5,902.4,60.8z"/>
						<path class="st4" d="M50.4,443.3c0-5.9,28.3-19.2,59-21.1c30.8-1.9,656.4-1.9,676-0.7c19.6,1.2,49.3,13.7,50.9,31.5
							c-5,3.6-68.3,4.5-68.3,4.5s65.8,0.6,69.4,3.1c6.6,4.6,4.5,29.5,0.3,30.5s-781.3-4-787.3-6s-5.7-35.8,0-36.1
							c5.7-0.3,76.3-3.5,76.3-3.5S50.4,445.6,50.4,443.3z"/>
						<path class="st4" d="M893.7,435.6c6.3,2.1,7.3,31.8,4.5,34.1c-2.9,2.4-10.1,7.2-10.1,7.2s10.6,2.7,11.3,4.4
							c0.7,1.7,2.5,6.1-1.2,7.2c-3.7,1-47.5,3-47.5,3s46.3-0.6,48.2,1.1s3.2,25.2,1.3,28c-1.9,2.7-91.1,0.7-93.6,2.1
							c-2.5,1.4,89.5,4.1,92.2,5.5s3,53.9,0.3,56.7c-2.7,2.7-884.7,2.3-889.2-0.7c-4.6-3.1-3.7-25.6,0-27.3s77.8-4.4,77.8-4.4
							s-75.3,0.4-79.6-1.6c-4.3-2.1-2.8-16.1-0.3-17.8c1.5-1,196.2-3.8,196.2-3.8s-191.9-0.1-196-3.8c-4.1-3.8-2.3-51.2,1.4-54.6
							s58.9-9.5,58.9-9.5S12,464.3,9.1,462c-2.9-2.4-4.8-29.2,0-32.8C13.7,425.4,883.4,432.2,893.7,435.6z"/>
						<path class="st4" d="M10.7,588c3.4-4.7,861.8,1.6,868.9,4c7.1,2.4,14.4,24.7-5.6,45.7c-4.8,5.1-92.8,6.5-92.8,6.5
							s76.1,0.3,78.8,3s-31.3,12.5-62.4,13c-31.1,0.5-682.2,4.6-703,3s-54.5-13.4-58.8-23s108.2-5.3,101.1-8.1
							c-7.1-2.8-102,0.1-107.3-2.4C12.2,621.7,8.4,591.2,10.7,588z"/>
						<path class="st3" d="M139.8,631.5c-11.2,0-9.8,6.6,0.9,8.4C151.4,641.6,158.2,631.5,139.8,631.5z"/>
						<path class="st3" d="M110.2,624c12.7,3.9,29.5,2.8,30.5-0.2C141.7,620.7,101.3,621.2,110.2,624z"/>
						<path class="st5" d="M40.3,416.7c-4-3.9,14.1-14.7,37.1-16.2c23.1-1.4,457.1,0.9,462.5,3.4s8.9,31.1,8.9,31.1
							s3-28.1,12.9-30.1s187.6,2.8,204.3,3s32.9,14,27.4,18s-231.7,4-231.7,4s227.3,7,232.8,11s3.3,19.9-9.9,23.5
							s-753.2-0.7-765.5-3.2c-12.4-2.5-14.5-27.4-8.2-29.8s328.5-7.1,328.5-7.1S44.7,420.9,40.3,416.7z"/>
						<path class="st5" d="M56.6,492.4c7.4-3.5,273-2.9,274.4,0s-57.5,20.9-70.1,22.9s-191.5,4.6-194,2.6
							C64.4,515.9,49.8,495.6,56.6,492.4z"/>
						<path class="st5" d="M11.4,472.8c5.9-7.6,109.1-12.3,121.9-13.4c12.8-1,717.7,9.6,724.1,10c12.2,0.8,41.8,13,36.8,17.1
							S718.1,487,718.1,487s175.9,4.4,178.6,9c2.7,4.6,4.6,18.8-0.7,22.6c-5.3,3.9-872.1,9.7-882.5,5.6
							C3.2,520.2,6.2,479.5,11.4,472.8z"/>
						<path class="st5" d="M776.8,526.4C793,527,886.6,529,891.9,531c5.2,2,7.7,46.6,0,49.2c-7.7,2.6-872.2,3.6-876.9,1
							c-4.7-2.6-8.8-18.9-3.2-21.5s190.9-9.2,190.9-9.2S8.8,553.2,7.8,549c-2.6-11.2-0.9-15,10.7-14.9
							C27.1,534.2,739.7,525,776.8,526.4z"/>
						<path class="st5" d="M17.2,589.4c6.9-1.7,530.8,4.3,536.4,5.7c5.6,1.4,15.9,25.9,15.1,27.7c-0.8,1.7-135.4,5.1-133.3,4.8
							s58.5,2.4,60.1,4.4s6.4,15-1.6,16.7s-380.9,0.3-399.2,0s-39.1-12.6-33.1-14.8s172.3-3.2,172.3-3.2S34.8,631,28.6,625.9
							C22.5,620.8,6.4,592.2,17.2,589.4z"/>
						<path class="st5" d="M579.8,600.5c12.4-0.5,286.2,3.1,289.1,5.5c2.8,2.4,4,26.3-5.4,31.1s-92.2,3.4-92.2,3.4
							s62.7,3.8,65.6,8.2c2.9,4.4-28.6,7.1-46.3,6c-17.8-1.2-272.6,2.5-275.7-0.2c-3.1-2.7-4.4-20.2,10.9-20
							c15.3,0.2,53.9-3.2,53.9-3.2S570.5,600.9,579.8,600.5z"/>
						<path class="st6" d="M717.6,628.5c6.7,7.8,40.1,4.4,28.9-5C735.2,614.1,711.2,621.1,717.6,628.5z"/>
						<path class="st6" d="M379.3,629.2c6.8,11.6,37.8,1.7,29.9-4C401.5,619.5,373.4,619.1,379.3,629.2z"/>
						<path class="st6" d="M421.7,575.4c4.7,2.5,109.3,5.6,138.8,1.3c29.4-4.2,5.8-4.5,78.3-5.4c72.6-0.9,95.5-3,98.9-7.8
							s-133.3-9.8-143.7-8.3s92.3,4.5,94.6,7.5s-88.7,2-131.8,2.4c-43.1,0.3-25,6.1-54.6,6.6C472.5,572.3,415.8,572.2,421.7,575.4z"
							/>
						<path class="st6" d="M187.6,636.9c9.9,1.8,11.2-3.7,4.7-4.3C185.7,631.9,182.2,635.9,187.6,636.9z"/>
						<path class="st6" d="M692.5,634.8c-7.5,3.6-16.2-1.7-9.9-4.8C688.9,626.9,700,631.2,692.5,634.8z"/>
						<path class="st6" d="M768.1,611.9c1.2,2.3,12.9-0.4,8.1-2.1C771.3,608,766.5,608.7,768.1,611.9z"/>
						<path class="st6" d="M99.4,604.6c-12.5-1.7-16-11.5,4.5-10S124,607.9,99.4,604.6z"/>
						<path class="st6" d="M671.4,488.9c12-6.8,178.2-1.5,186.9,0.8C866.9,491.9,688.8,494.4,671.4,488.9z"/>
						<path class="st6" d="M178.7,475.8c9.5,1.4,62.5,2.2,75.1,1.2c12.5-1,12.1-4.4,32.6-5.7c20.5-1.3,80.3-0.5,85.6-4
							s-111.8-3.3-132.2-3.8s-125.2-1.8-126.4,2.7c-1.2,4.5,26.7,2.5,41.3,4.3C169.2,472.4,169.8,474.5,178.7,475.8z"/>
						<path class="st7" d="M214.6,472.1c-7.2,3.3-57.3,0-55-3.6C161.9,464.9,230.8,464.6,214.6,472.1z"/>
						<path class="st6" d="M599.1,503.1c3,2.5,38.8,1.1,79,1.6s60.7,6.7,115.8,7.5c14.4,0.2,58.4-8,50.7-10.9
							c-14.8-5.6-92.8-1.7-137.8-2.1C661.7,498.9,594.4,499.3,599.1,503.1z"/>
						<path class="st7" d="M740.9,504.2c9.1,0.5,25.4,5.4,44.4,4.9c18.9-0.5,43.3-4.4,37.9-6.4c-6.7-2.5-60.8-0.7-90.1-0.5
							C703.8,502.3,702.1,502,740.9,504.2z"/>
						<path class="st6" d="M480,449.4c-19.2-2-10.5-14.3,13.2-11C517,441.8,514.3,453,480,449.4z"/>
						<path class="st6" d="M124.3,484c-12.3-2.2-5.8-9,5-6.6C140.1,479.9,136.6,486.3,124.3,484z"/>
						<path class="st6" d="M814,538.7c-18.4-1.1-16.2-8.4,0-7.3C830.1,532.4,832.4,539.8,814,538.7z"/>
						<path class="st6" d="M849.3,535c-8.3,0-10-5.6,0-4.8C859.3,530.9,857.6,535,849.3,535z"/>
						<path class="st6" d="M704.4,517.7c27.5,4.5,46-9,17.6-11.5C693.7,503.7,687.3,514.9,704.4,517.7z"/>
						<path class="st6" d="M126.7,512c-17.9-5,1.5-13.7,24.2-7.7C173.6,510.4,144.6,517,126.7,512z"/>
						<path class="st6" d="M175.7,507.6c-10.6-0.6-13.8-3.1-1.5-3.1S181.3,507.9,175.7,507.6z"/>
						<path class="st6" d="M58.4,487.9c-6.4-6.2-38.6-3.5-27.8,4S64.6,493.8,58.4,487.9z"/>
						<path class="st6" d="M649.8,474.3c-6.5-9.2-36.3-1.4-28.8,3.2C628.5,482,655.5,482.4,649.8,474.3z"/>
						<path class="st6" d="M614.5,451.9c9-1.3,49.2-2.4,61.4-1.7c12.1,0.7,12,3.7,31.8,4.6c19.8,1,90.2-0.3,95.6,2.6
							c5.4,2.9-120.2,3.8-139.8,4.4s-109.5,2.7-111-1.2c-1.5-3.9,25.5-2.3,39.4-4.1C605.7,454.9,606.1,453.1,614.5,451.9z"/>
						<path class="st7" d="M682.7,456.5c-10.3,1.1-75-1.3-73.6,1.8C602,442.4,707.8,453.9,682.7,456.5z"/>
						<path class="st6" d="M348.1,505.1c-4.5-2-100.8-4.5-129.1-1.1s-32.6,3.6-102.4,4.3c-69.8,0.7-91.9,2.4-95.2,6.2
							c-3.2,3.8,128.3,7.8,138.3,6.6s-88.9-3.6-91-6c-2.2-2.4,85.4-1.6,126.9-1.9c41.5-0.3,59.7-4.9,88.2-5.3
							C312.2,507.6,353.8,507.6,348.1,505.1z"/>
						<path class="st6" d="M335.2,490c2.9-2.1,37.4-0.9,76.1-1.3s68.8-5.7,121.8-6.4c13.9-0.2,56.2,6.8,48.8,9.3
							c-14.2,4.8-89.3,1.5-132.6,1.8C405.9,493.6,330.7,493.3,335.2,490z"/>
						<path class="st7" d="M482.1,489.1c8.8-0.4,24.5-4.7,42.7-4.2c18.2,0.4,41.7,3.8,36.5,5.5c-6.5,2.1-58.5,0.6-86.7,0.5
							C446.3,490.7,444.7,491,482.1,489.1z"/>
						<path class="st6" d="M751.9,371.8c-9.5-1.4-10.7,2.9-4.5,3.5C753.7,375.8,757.1,372.6,751.9,371.8z"/>
						<path class="st6" d="M255.8,553.1c7.2-2.9,15.6,1.3,9.6,3.8C259.3,559.4,248.6,556,255.8,553.1z"/>
						<path class="st6" d="M818.8,404c12,1.3,15.4,9.2-4.3,8S795.1,401.4,818.8,404z"/>
						<path class="st4" d="M24.2,10.1c0-9.3,24-33.7,58-36.7c34-3.1,724.9-3,746.5-1.1S883.1-6,884.9,22.2
							c-5.5,5.7-75.4,7.2-75.4,7.2s81.2-1.3,85.1,2.6c7.3,7.2,8.1,50,3.5,51.5c-4.7,1.5-881.3-7.8-887.9-11s0.5-56.3,6.8-56.8
							s84.3-5.5,84.3-5.5S24.2,13.7,24.2,10.1z"/>
						<path class="st4" d="M897.3,89.5c4.7,3.2,5.3,49,2.4,52.7c-2.9,3.7-12.9,10.7-12.9,10.7s10.7,4.2,11.4,6.9
							c0.7,2.6,2.5,9.5-1.2,11.1s-30.8,4.6-30.8,4.6s28.9-0.9,30.8,1.7c1.9,2.6,3.3,39,1.3,43.3c-2,4.2-74.2,1.1-76.7,3.2
							c-2.5,2.1,72.7,4.2,75.4,6.3s5.7,85.6,3,89.8c-2.7,4.2-884.4,3.4-889-1.4c-4.6-4.8-3.7-39.6,0-42.3c3.7-2.6,83.5-6.6,83.5-6.6
							s-78.6-1-83-4.2s-4.3-25.1-4.2-27.9c0-2.8,204.8-3.8,204.8-3.8S11.7,233.8,7.6,228s-3.7-85.9,0-91.1
							c3.7-5.3,67.3-8.3,67.3-8.3s-64.5,3.7-67.5,0s-2.1-44.3,2.8-49.9C15,73.2,887.6,83,897.3,89.5z"/>
						<path class="st4" d="M6.1,321.9c3.6-7.3,881.8,4.7,889.2,8.4c7.4,3.7,4.7,64,0,72.2s-102.9,8.6-102.9,8.6s82.5,1.6,85.4,5.8
							c2.9,4.2-35.7,18.2-68.2,19c-32.6,0.8-713.5,7.1-735.2,4.6c-21.8-2.5-63.1-20.9-67.6-35.8s119.3-8.1,111.8-12.4
							c-7.6-4.3-109.8,2.4-112-4.8S3.7,326.8,6.1,321.9z"/>
						<path class="st3" d="M121.5,391.4c-11.7,0-10.2,10.2,0.9,12.9C133.7,407,140.8,391.4,121.5,391.4z"/>
						<path class="st3" d="M90.6,379.8c13.3,6.1,30.9,4.3,31.9-0.4C123.6,374.7,81.3,375.5,90.6,379.8z"/>
						<path class="st5" d="M46.1-0.4c-4.4-6.1,15.6-23.3,41-25.5c25.5-2.3,504.8,1.4,510.7,5.3c6,4,9.8,49.1,9.8,49.1
							S611-15.9,622-19.1s207.1,4.5,225.6,4.8C866-14,884,7.9,877.9,14.2c-6.1,6.3-255.9,6.3-255.9,6.3s265.7,9.3,271.8,15.7
							c6.1,6.3,11,38.9-3.5,44.7c-14.6,5.7-859-8.5-872.7-12.5s-5.2-45.3,1.7-49.1c7-3.8,357.2-7.5,357.2-7.5S51,6.3,46.1-0.4z"/>
						<path class="st5" d="M13.2,82.5c8.2-5.6,881.6,3.7,883.1,8.2c1.6,4.5,10.1,39-3.8,42.2c-13.9,3.2-875.6-3.9-878.5-7.1
							C11.3,122.7,5.7,87.7,13.2,82.5z"/>
						<path class="st5" d="M12.8,141.9c5.9-11.7,108.9-12.1,121.9-13.7c12.9-1.6,739.2,6.3,743.4,13.6c4.2,7.4,12.2,18.1,7.2,24.4
							c-5,6.3-160.3,4.8-160.3,4.8s166.3,4.1,169.1,11.3c2.7,7.1,7.3,29.6,1.9,35.6c-5.3,6-869.2,10.7-879.7,4.4
							C5.8,216,7.5,152.4,12.8,141.9z"/>
						<path class="st5" d="M792.2,228.9c15.9,1,95.1,0,100.2,3.2c5.2,3.2,7.3,79.8-0.3,83.8S20.7,319.9,16,316
							c-4.6-4-3.5-31.1,2-35.1s208.7-14.8,208.7-14.8S14.5,268,16,261.6c1.5-6.3,2.2-20.6,10.6-23
							C34.9,236.3,755.6,226.6,792.2,228.9z"/>
						<path class="st5" d="M9.5,322.5c5.8-5.1,875.5,7.2,881.3,9.3c5.8,2.1,11.6,40.2,0,68.5c-1.1,2.6-472.1-15.9-468.2-6.9
							s288.9,8.4,290.5,11.6c1.7,3.2,6.7,23.2-1.7,25.9c-8.3,2.6-623.6,2.4-642.7,1.9c-19.1-0.5-55.1-27.6-48.7-31
							c6.3-3.5,200.1-11.5,200.1-11.5s-204.1,4-210.6-4C3,378.3,4.6,326.7,9.5,322.5z"/>
						<g>
							<path class="st6" d="M725.8,386.7c7,12,41.9,6.8,30.2-7.7S719.2,375.3,725.8,386.7z"/>
							<path class="st6" d="M372.1,387.9c7.1,17.9,39.5,2.7,31.3-6.2C395.2,372.9,365.9,372.2,372.1,387.9z"/>
							<path class="st6" d="M416.3,304.6c4.9,3.9,114.4,8.6,145.1,2.1c30.8-6.6,6-7,81.9-8.4s99.9-4.7,103.4-12.1
								s-139.4-15.1-150.2-12.8c-10.9,2.4,96.6,7,98.9,11.6c2.4,4.7-92.8,3.2-137.9,3.7s-26.1,9.5-57.1,10.3
								C469.5,299.8,410.2,299.7,416.3,304.6z"/>
							<path class="st6" d="M171.5,399.7c10.4,2.8,11.7-5.7,4.9-6.7C169.6,392,165.9,398.2,171.5,399.7z"/>
							<path class="st6" d="M699.6,396.5c-7.8,5.6-17-2.6-10.4-7.4C695.8,384.2,707.4,390.9,699.6,396.5z"/>
							<path class="st6" d="M778.6,361c1.2,3.6,13.4-0.6,8.4-3.3C782,355.1,777,356.1,778.6,361z"/>
							<path class="st6" d="M79.3,349.8c-13-2.6-16.8-17.8,4.7-15.5C105.4,336.7,105.1,354.9,79.3,349.8z"/>
							<path class="st6" d="M677.5,170.7c12.6-10.5,186.4-2.3,195.4,1.2C882,175.4,695.7,179.3,677.5,170.7z"/>
							<path class="st6" d="M162.2,150.6c9.9,2.1,65.4,3.4,78.5,1.9c13.1-1.5,12.6-6.8,34.1-8.9c21.4-2.1,84-0.8,89.5-6.1
								s-116.9-5.1-138.3-5.8c-21.3-0.8-130.9-2.8-132.2,4.1c-1.2,7,27.9,3.8,43.2,6.7C152.4,145.3,153,148.6,162.2,150.6z"/>
							<path class="st7" d="M199.8,144.8c-7.5,5.1-60-0.1-57.5-5.6C144.7,133.7,216.8,133.2,199.8,144.8z"/>
							<path class="st6" d="M601.9,192.8c3.1,3.8,40.6,1.7,82.6,2.4c42.1,0.8,63.4,10.3,121.1,11.6c15.1,0.3,61-12.3,53-16.8
								c-15.5-8.7-97.1-2.7-144.1-3.2C667.4,186.3,597,186.9,601.9,192.8z"/>
							<path class="st7" d="M750.2,194.4c9.5,0.8,26.6,8.4,46.4,7.6c19.8-0.8,45.3-6.8,39.6-9.9c-7-3.8-63.6-1.1-94.2-0.8
								C711.4,191.6,709.6,191.1,750.2,194.4z"/>
							<path class="st6" d="M477.4,109.8c-20.1-3.1-11-22.2,13.8-17C516.1,98,513.2,115.2,477.4,109.8z"/>
							<path class="st6" d="M105.4,163.3c-12.8-3.5-6-14,5.2-10.1C121.9,156.9,118.2,166.7,105.4,163.3z"/>
							<path class="st6" d="M826.6,247.8c-19.2-1.7-16.9-12.9,0-11.4C843.5,238,845.9,249.6,826.6,247.8z"/>
							<path class="st6" d="M863.6,242.2c-8.7,0-10.5-8.7,0-7.5C874.1,235.8,872.3,242.2,863.6,242.2z"/>
							<path class="st6" d="M712.1,215.3c28.7,7,48.1-13.9,18.4-17.8C700.8,193.6,694.2,211,712.1,215.3z"/>
							<path class="st6" d="M107.9,206.6c-18.7-7.7,1.6-21.2,25.3-11.8C156.9,204.1,126.6,214.3,107.9,206.6z"/>
							<path class="st6" d="M159.2,199.7c-11.1-1-14.4-4.7-1.6-4.8C170.5,194.9,165,200.3,159.2,199.7z"/>
							<path class="st6" d="M189.6,0c-6.7-9.6-40.3-5.4-29,6.1C171.8,17.7,196,9.1,189.6,0z"/>
							<path class="st6" d="M748.2,7.3c-6.8-14.3-38-2.1-30.1,4.9C725.9,19.2,754.2,19.8,748.2,7.3z"/>
							<path class="st6" d="M645.4,56.8c9.4-2,51.5-3.7,64.2-2.6c12.7,1.1,12.5,5.7,33.3,7.2c20.7,1.5,94.3-0.5,100,4.1
								c5.6,4.5-125.7,5.9-146.2,6.9c-20.5,0.9-114.5,4.1-116.1-1.9s26.6-3.6,41.2-6.3C636.2,61.5,636.6,58.6,645.4,56.8z"/>
							<path class="st7" d="M716.8,63.9c-10.8,1.6-78.4-2.1-77,2.8C632.4,42.1,743,59.9,716.8,63.9z"/>
							<path class="st6" d="M392.5,27.9c-4.7-3.1-105.5-6.9-135.1-1.7s-34.1,5.6-107.1,6.7s-96.2,3.7-99.5,9.6
								C47.4,48.4,185,54.6,195.4,52.7c10.4-1.9-93-5.5-95.2-9.3c-2.3-3.7,89.3-2.5,132.7-2.9s62.4-7.6,92.3-8.2
								C355,31.8,398.4,31.8,392.5,27.9z"/>
							<path class="st6" d="M395.2,28.6c3-3.3,39.1-1.4,79.6-2.1c40.5-0.6,71.9-8.9,127.4-9.9c14.5-0.3,58.7,10.6,51,14.5
								c-14.9,7.5-93.4,2.3-138.7,2.7C469.1,34.2,390.5,33.8,395.2,28.6z"/>
							<path class="st7" d="M548.8,27.3c9.2-0.7,25.6-7.2,44.7-6.5c19,0.6,43.6,5.8,38.1,8.5c-6.8,3.3-61.2,0.9-90.7,0.7
								C511.4,29.7,509.7,30.1,548.8,27.3z"/>
							<path class="st6" d="M761.7-10.4c-10-2.2-11.2,4.5-4.7,5.3C763.6-4.2,767.1-9.2,761.7-10.4z"/>
							<path class="st6" d="M214.8-7.8c7.5-4.4,16.3,2.1,10,5.9C218.5,2,207.3-3.3,214.8-7.8z"/>
							<path class="st6" d="M138.8,20.5c-1.2-2.9-12.9,0.5-8.1,2.6C135.5,25.2,140.4,24.4,138.8,20.5z"/>
							<path class="st6" d="M831.7,39.5c12.6,2.1,16.1,14.2-4.5,12.3C806.6,49.9,806.9,35.4,831.7,39.5z"/>
						</g>
					</g>
				</g>
			</g>
		</g>
		<g>
			<path class="st4" d="M840,138.4c-1.5,6.2,4.8,10.9,14.5,10s9.2-13.2,2.9-19.9"/>
			<path class="st3" d="M837,139.6c2.1,4,16.7,9.7,21,3c4.5-7-0.5-19.3-9.4-21C836.5,119.2,835,135.6,837,139.6z"/>
			<path class="st8" d="M836.9,136.5c1.6,3.2,14.7,6.9,17.4,1.9c2.7-4.9-2.8-14.3-7.3-14.3C838.6,124.1,835.3,133.3,836.9,136.5z"/>
			<path class="st9" d="M846.7,135.5c1.7,15-38.5,38.2-54.9,29.9c-13.7-7-18.7-13.8-13.7-24.4c6-12.8,23.6-4,18.9,1.7
				c-3,3.6-7,2.1-6.2-0.7c0.4-1.6,0.6-4.7-2.1-4.7c-7,0.1-10.1,12.5-6.1,18.3c9.4,13.6,53.7,4.5,58.4-17.8"/>
			<path class="st10" d="M846.8,131.6c1.7,15-38.5,38.2-54.9,29.9c-13.7-7-18.7-13.8-13.7-24.4c6-12.8,23.6-4,18.9,1.7
				c-3,3.6-7,2.1-6.2-0.7c0.4-1.6,0.6-4.7-2.1-4.7c-7,0.1-10.1,12.5-6.1,18.3c9.4,13.6,53.7,4.5,58.4-17.8"/>
			<path class="st11" d="M784,155.8c16.2,16.5,56-3.3,58.6-16.7C831.2,154.8,795.3,166.3,784,155.8z"/>
			<path class="st12" d="M768.6,149.5c1.3-7.3,12.3-1.6,10.6,0.7C776.7,153.5,767.6,155.3,768.6,149.5z"/>
			<path class="st13" d="M774.9,149.6c2.3-2.5-4.1-5.3-5.7-2C767.1,151.9,772.6,152.1,774.9,149.6z"/>
			<path class="st11" d="M795.1,136.3c-1.7-2-5,1.4-3.4,4C793.3,142.9,796.8,138.3,795.1,136.3z"/>
			<path class="st12" d="M780.4,164.2c-0.6-6.8,12-5.6,10.9-3C789.7,164.9,780.9,169.5,780.4,164.2z"/>
			<path class="st13" d="M787.3,161.7c2-3.1-5.8-3-6.9,0.6C779.1,167,785.3,164.8,787.3,161.7z"/>
			<path class="st12" d="M815.7,171.9c6.9-0.4,3.1-13.5,0.8-11.8C813,162.7,810.2,172.2,815.7,171.9z"/>
			<path class="st13" d="M816.9,163.1c2.8-2.9,4,6.6,0.6,8.4C813,173.9,814.1,166,816.9,163.1z"/>
			<path class="st9" d="M849.4,151.5c-7.6-1-0.8-7.7-2.1-15.2c-3.7,4-13,5.4-10.9-1.7c2.1-7.1,10.7-6.7,11.8-0.9
				c4.1-2.5,1.6-14,5.7-12.1c6,2.8,7.9,19-5.1,13.8C856.8,139,857.8,152.6,849.4,151.5z"/>
			<path class="st12" d="M848.7,147.7c-7.6-1-0.8-7.7-2.1-15.2c-3.7,4.1-13,5.4-10.8-1.6c2.1-7.1,10.7-6.7,11.9-0.9
				c4.1-2.4,1.6-14,5.7-12.1c6,2.8,7.9,19-5.1,13.8C856.1,135.2,857.1,148.8,848.7,147.7z"/>
			<path class="st13" d="M852,129.6c2.1,4,6.8-0.4,5-5.7C853.5,113.5,849.9,125.6,852,129.6z"/>
			<path class="st13" d="M850.4,145.8c5.3,0.9,4.1-5.6,0.4-10.6C847.5,136.4,845.1,144.9,850.4,145.8z"/>
			<path class="st13" d="M836.3,132.4c0.1,2.8,5,2.7,5.5-2.9C842.1,125.4,836.2,129.6,836.3,132.4z"/>
		</g>
	</g>
</g>
</svg>
