<?xml version="1.0" encoding="utf-8"?>
<!-- Generator: Adobe Illustrator 25.2.1, SVG Export Plug-In . SVG Version: 6.00 Build 0)  -->
<svg version="1.1" id="Layer_3" xmlns="http://www.w3.org/2000/svg" xmlns:xlink="http://www.w3.org/1999/xlink" x="0px" y="0px"
	 viewBox="0 0 200 200" style="enable-background:new 0 0 200 200;" xml:space="preserve">
<style type="text/css">
	.st0{fill-rule:evenodd;clip-rule:evenodd;fill:#F1AE78;}
	.st1{opacity:0.5;fill-rule:evenodd;clip-rule:evenodd;fill:#C58B5C;}
	.st2{fill-rule:evenodd;clip-rule:evenodd;fill:#FACAA1;}
</style>
<g>
	<path class="st0" d="M102.7,25.7c34.2,0,62,64,62,98.2c0,34.2-27.7,62-62,62c-34.2,0-62-27.7-62-62C40.7,89.7,68.4,25.7,102.7,25.7
		z"/>
	<path class="st1" d="M150,68.9c0.5,0.9,14.2,27.9,14.6,55c0,34.2-27.7,62-62,62c-31.2,0-57-23.1-61.3-53.1
		c8.3,42.4,67.1,67.1,101.6,26.6C176.4,120.3,150,68.9,150,68.9z"/>
	<path class="st2" d="M73.5,51.7c0,0,10.7-23.4,22-22.7c11.2,0.6-4,15.1-10,23.4C79.6,60.6,66.9,67.1,73.5,51.7z"/>
	<path class="st2" d="M68.1,66.5c-2,0-10.4,11.5-5.8,15.6C67,86.1,77.3,63.4,68.1,66.5z"/>
</g>
</svg>
