<?xml version="1.0" encoding="utf-8"?>
<!-- Generator: Adobe Illustrator 25.2.1, SVG Export Plug-In . SVG Version: 6.00 Build 0)  -->
<svg version="1.1" id="Layer_2" xmlns="http://www.w3.org/2000/svg" xmlns:xlink="http://www.w3.org/1999/xlink" x="0px" y="0px"
	 viewBox="0 0 200 200" style="enable-background:new 0 0 200 200;" xml:space="preserve">
<style type="text/css">
	.st0{fill-rule:evenodd;clip-rule:evenodd;fill:#DB9463;}
	.st1{fill-rule:evenodd;clip-rule:evenodd;fill:#F1AE78;}
	.st2{opacity:0.5;fill-rule:evenodd;clip-rule:evenodd;fill:#C58B5C;}
	.st3{fill-rule:evenodd;clip-rule:evenodd;fill:#FACAA1;}
	.st4{fill-rule:evenodd;clip-rule:evenodd;fill:#F8F4F2;}
	.st5{fill-rule:evenodd;clip-rule:evenodd;fill:#F0ECE7;}
	.st6{fill-rule:evenodd;clip-rule:evenodd;fill:#FACEA8;}
	.st7{fill-rule:evenodd;clip-rule:evenodd;fill:#FFF6F0;}
	.st8{fill-rule:evenodd;clip-rule:evenodd;fill:#F49A00;}
	.st9{fill-rule:evenodd;clip-rule:evenodd;fill:#FFFFFF;}
	.st10{fill-rule:evenodd;clip-rule:evenodd;fill:#F7A900;}
</style>
<g>
	<path class="st0" d="M111.7-7.3l9.2,7.7l-1,7.9l1.4,2.4l8.8,5.3l0.2,11.3l3.3,2.9c0,0,2.8,5.8,3.8,9.1c0.4,1.2-0.7,1.6-0.5,1.9
		c0.7,1.2,3.1,3.9,4.3,3.1c0,0,1.9,4.6,1.2,7.4c-0.7,2.9,0.5,3.5,1.4,5.3c2.1,0.7,3.1,1,3.8,2.2c1.3,2.2,1.1,12.5,2.3,19
		c3.3,2.9,3.5,3,4.1,4.1c3.1-0.2,2.5-0.3,4.6,3.9c2.2,4.3,6,11.8,6,11.8s1.1,0.8,1.4,0.5c0.5-0.4,1.8-0.7,2.5,0.5
		c25.8-22.5,54.6-83.8,33.5-109.5c-16.7-20.3-87.8-1.4-89-0.6C111.4-10,111.7-7.3,111.7-7.3z"/>
	<path class="st1" d="M114.7-8.8l9.3,7.8l-1,8l1.4,2.4l8.9,5.4l0.2,11.4l3.4,2.9c0,0,2.8,5.9,3.8,9.2c0.4,1.2-0.7,1.6-0.5,1.9
		c0.7,1.2,3.1,3.9,4.4,3.2c0,0,1.9,4.6,1.2,7.5c-0.7,2.9,0.5,3.5,1.5,5.3c2.1,0.8,3.1,1,3.8,2.2c1.3,2.2,1.1,12.6,2.3,19.2
		c3.4,2.9,3.5,3,4.1,4.1c3.2-0.2,2.6-0.3,4.7,3.9c2.2,4.4,4.4,8.8,6.5,13.2c0.3-0.2,0.6-0.5,0.9-0.7C196,76.5,227.8,14.4,206.1-12
		c-16.9-20.5-61.1-13.5-92.4,0.9C114-10.3,114.7-8.8,114.7-8.8z"/>
	<path class="st2" d="M166.2,93.9c0.8,1.7,1.7,3.4,2.5,5.1c0.3-0.2,0.6-0.5,0.9-0.7c20.7-17.6,32.8-45.4,33.2-46.3
		C202.8,52,191.3,78.7,166.2,93.9z"/>
	<path class="st3" d="M167.5-17.9c0,0,24.9-6.6,31.5,2.5c6.6,9-14.2,6.5-24.4,7.2C164.5-7.6,151.3-13.3,167.5-17.9z"/>
	<path class="st3" d="M152.6-12.7c-1.3-1.6-15.5-0.7-15.7,5.4C136.8-1.1,160.9-7.6,152.6-12.7z"/>
</g>
<g>
	<g>
		<path class="st4" d="M125.6,111.9c-5.4,24.3-14.5,40.7-25,54C78.9,193.4,39,198,11.5,176.3C-16,154.6-20.7,114.7,1,87.2
			c11-13.9,23.2-25.4,46.6-36.3C47.7,51,83,71.3,89.9,77.6C96.8,83.9,121.6,90.9,125.6,111.9z"/>
		<path class="st5" d="M124.6,113.9c-4,16.5-8.4,26.2-15.4,38.8c-9.3-1.8-18.8-5.1-24.4-8.1c-8.7-4.7-47.1-27.2-54.3-31.3
			c-6.1-3.4-25.6-14.4-31.9-22.8c0.8-1.1,1.6-2.2,2.5-3.3c10.9-13.8,23.3-25.4,46.6-36.3c-0.7,0.4-9.6,5.1-15.4,10.8
			c-5.9,5.9-5.8,8.3-5.4,8.6c0.5,0.4,7.1,5.9,7.4,6.9c0.4,1,2.2,8.8,4,9.8c1.9,0.9,7.5-1.4,8.6,0.8c1.1,2.3,2.3,4.1,3.7,4.6
			c1.4,0.4,7.7,4.1,8.1,5.5c0.4,1.4,1.3,9,3,11.2c1.7,2.2,3.9,4.2,5.4,4c1.5-0.2,9.5,0.4,11.7,1.5c2.2,1.1,4.8,3.8,5.5,4.9
			c0.8,1.1,2.2,4.9,3.2,5.7c1,0.8,3.6,0,5.7-1.4c2.1-1.4,7.6-5.3,9.1-4.5c1.5,0.8,3.3,3.4,4.7,3.9c1.4,0.4,6,1.4,6.9,0.7
			C114.9,123.1,121.3,125,124.6,113.9z"/>
		<path class="st1" d="M117.8,134.6c-5.2,12.6-11.2,23.7-17.2,31.2C78.9,193.4,39,198,11.5,176.3C-16,154.6-20.7,114.7,1,87.2
			c3.7-4.7,8.7-9.7,14.7-14.8l2.6,1.3l6.8-3l7,6c0,0,2.1,12.3,3.7,14.1c1.5,1.8,4.6-0.5,4.6-0.5s3.8-0.8,4.7,0
			c0.9,0.7,0,2.2,0.7,2.9c0.7,0.7,9.2,4.4,9.8,6.2c0.5,1.8,2.3,7.5,2.3,7.5s1,5.2,3.5,7.5c2.5,2.3,4.6,3.8,5.5,3.8
			c0.8,0,6.5-1.9,7.3-1.9c0.8,0,4,0.4,4,0.4l3.8,3.5c0,0,1.7,5,2.2,5.7c0.5,0.7,4.9,3.9,5.4,3.8c0.5-0.1,12.6-7.2,12.6-7.2
			s5.1,5,6.1,4.5c1-0.4,5.5-0.3,6.4,0.4c0.9,0.7,0.7,4,0.7,4L117.8,134.6z"/>
		<path class="st2" d="M115.9,139.1c-4.7,10.8-10,20.2-15.3,26.8C78.9,193.4,39,198,11.5,176.3c-24-19-30.6-51.8-17.5-78.1
			C-6.3,99-19.2,136,8.1,166.9C35.7,198.1,91.8,190.7,115.9,139.1z"/>
		<path class="st6" d="M117.8,134.6l-0.3,0.8c-0.7-0.8-1.6-1.8-2-2.2c-1-0.9-1.4-2-1.2-2.7c0.2-0.7-0.1-2-0.8-2.5
			c-0.7-0.5-3.5,0.2-4.4,0.3c-0.9,0.1-6.1-3.2-7.2-4.1c-1.1-0.9-11.1,5.8-11.8,6.1c-0.7,0.4-3.9-2.4-5.7-3.4
			c-1.8-1.1-2.9-4.7-2.9-5.9c0-1.2-2.4-2.7-3.3-3.5c-0.9-0.8-2.9-0.7-3.8-0.8c-0.9-0.1-6.4,2-7.2,2.2c-0.8,0.2-4.7-2.4-7.4-5.6
			c-2.7-3.2-4.4-12.3-4.8-13.4c-0.4-1.1-8.1-5.5-9-5.7c-0.9-0.2-0.8-2.3-0.7-3c0.1-0.7-1.9-0.4-2.9-0.4c-1,0-1.7,0.1-2.4,0.7
			c-0.7,0.5-2.1,1.7-4.3,0c-2.2-1.7-4.1-13.5-4.2-14.1c-0.2-0.7-5.9-5.5-5.9-5.5l-6.5,2.9L15,73l0.7-0.6l2.6,1.3l6.8-3l7,6
			c0,0,2.1,12.3,3.7,14.1c1.5,1.8,4.6-0.5,4.6-0.5s3.8-0.8,4.7,0c0.9,0.7,0,2.2,0.7,2.9c0.7,0.7,9.2,4.4,9.8,6.2
			c0.5,1.8,2.3,7.5,2.3,7.5s1,5.2,3.5,7.5c2.5,2.3,4.6,3.8,5.5,3.8c0.8,0,6.5-1.9,7.3-1.9c0.8,0,4,0.4,4,0.4l3.8,3.5
			c0,0,1.7,5,2.2,5.7c0.5,0.7,4.9,3.9,5.4,3.8c0.5-0.1,12.6-7.2,12.6-7.2s5.1,5,6.1,4.5c1-0.4,5.5-0.3,6.4,0.4c0.9,0.7,0.7,4,0.7,4
			L117.8,134.6z"/>
		<path class="st7" d="M49.4,55.1c0,0-11.6,8.1-13.4,10.5c-1.8,2.5,0.1,5.1,2.3,10.7c2.2,5.6,9.5,7.4,12.2,10.2
			c2.6,2.8,12.6,14.7,18.5,16.8c5.9,2.2,16.7-4.5,13.8-8.3C81,92.7,43.8,59,49.4,55.1z"/>
		<g>
			<path class="st5" d="M48.3,51.1C53.1,56,76.1,79.5,83,85.7c7.7,6.9,40.2,27.1,40.8,28.5c0.1,0.1,0.2,0.3,0.5,0.4
				c-0.2,0.5-0.5,1-0.8,1.5c-5.4,6.8-27.5-1.7-49.4-19C52.1,79.7,38.7,60.2,44,53.3C45,52.1,46.4,51.4,48.3,51.1z"/>
			<path class="st7" d="M75.5,95.1c21.9,17.3,43.7,26.3,48.7,20c4.9-6.3-8.9-25.5-30.7-42.7c-21.9-17.3-43.7-26.3-48.7-20
				S53.7,77.8,75.5,95.1z"/>
			<path class="st8" d="M80.7,88.6c12.6,9.9,25.2,15.1,28,11.5c2.8-3.6-5.1-14.7-17.7-24.6C78.4,65.6,65.8,60.4,63,64
				C60.1,67.6,68.1,78.6,80.7,88.6z"/>
			<path class="st9" d="M86.2,69.8c0,0-15.9-9.8-21.8-9.1c-20,2.5,22.5,31.6,22.6,37.1c0.1,3.5-10.5-1.5-25.4-17.5
				c-14.9-16-17.3-24.7-10.9-26.7C57.2,51.5,66,56,86.2,69.8z"/>
		</g>
	</g>
</g>
<path class="st10" d="M81.9,87.1c9.6,7.6,19.3,11.6,21.5,8.8c2.2-2.8-3.9-11.2-13.5-18.8c-9.6-7.6-19.3-11.6-21.5-8.8
	C66.2,71,72.3,79.4,81.9,87.1z"/>
</svg>
