<?xml version="1.0" encoding="utf-8"?>
<!-- Generator: Adobe Illustrator 25.2.1, SVG Export Plug-In . SVG Version: 6.00 Build 0)  -->
<svg version="1.1" id="Layer_3" xmlns="http://www.w3.org/2000/svg" xmlns:xlink="http://www.w3.org/1999/xlink" x="0px" y="0px"
	 viewBox="0 0 200 200" style="enable-background:new 0 0 200 200;" xml:space="preserve">
<style type="text/css">
	.st0{fill:#F9C41C;}
	.st1{fill:#FBD544;}
	.st2{fill:#FFEB31;}
	.st3{fill:#F7AB14;}
	.st4{fill:#FF5B40;}
	.st5{fill:#EA412A;}
	.st6{fill:#FFFF3E;}
</style>
<g>
	<g>
		<path class="st0" d="M52.4,58.1l5.2,0.1c0,0,10.2,19,14.5,31.2c4.6,13,8.6,30.8,8.6,30.8l-2.4,3.1l-2-4.4L52.4,58.1z"/>
		<path class="st1" d="M49.5,63.6c0.2,0.6,12.4,21.3,16.8,34.2s6.8,23.6,6.8,23.6l5,2c0,0-5.2-21.2-8.2-29.4
			c-3-8.2-17.6-35.8-17.6-35.8L49.5,63.6z"/>
	</g>
	<g>
		<path class="st0" d="M92.8,37l4.7,2c0,0,2.4,21.4,1.8,34.4c-0.6,13.8-3.5,31.8-3.5,31.8l-3.4,1.9l-0.2-4.9L92.8,37z"/>
		<path class="st1" d="M88.1,41c0,0.6,3.6,24.4,2.9,38c-0.7,13.6-2.5,24.4-2.5,24.4l3.9,3.7c0,0,3.1-21.6,3.3-30.3
			c0.3-8.7-3-39.8-3-39.8L88.1,41z"/>
	</g>
	<g>
		<path class="st0" d="M139.8,45.7l3.7,3.6c0,0-5.5,20.9-10.7,32.7c-5.5,12.7-14.7,28.4-14.7,28.4l-3.9,0.6l1.6-4.6L139.8,45.7z"/>
		<path class="st1" d="M134,47.8c-0.2,0.6-5.4,24-10.9,36.5c-5.5,12.5-11.1,21.9-11.1,21.9l2.3,4.9c0,0,10.6-19.1,14-27.1
			c3.4-8,11.5-38.2,11.5-38.2L134,47.8z"/>
	</g>
	<g>
		<path class="st0" d="M110.2,41.6l4.7,2c0,0,2.4,21.4,1.8,34.4c-0.6,13.8-3.5,31.8-3.5,31.8l-3.4,1.9l-0.2-4.9L110.2,41.6z"/>
		<path class="st1" d="M105.5,45.7c0,0.6,3.6,24.4,2.9,38c-0.7,13.6-2.5,24.4-2.5,24.4l3.9,3.7c0,0,3.1-21.6,3.3-30.3
			c0.3-8.7-3-39.8-3-39.8L105.5,45.7z"/>
	</g>
	<g>
		<path class="st0" d="M78.2,50.9l-4.6,2.4c0,0-0.6,21.6,0.9,34.4c1.7,13.7,6.1,31.4,6.1,31.4l3.5,1.7l-0.2-4.9L78.2,50.9z"/>
		<path class="st1" d="M83.2,54.6c0,0.6-1.6,24.6,0.1,38.1c1.8,13.5,4.4,24.1,4.4,24.1l-3.6,4c0,0-4.8-21.3-5.8-30
			c-1-8.7-0.2-39.9-0.2-39.9L83.2,54.6z"/>
	</g>
	<g>
		<path class="st0" d="M160,58.1l-0.7,6.3c0,0-14.3,12.9-19.2,22.7c-5.6,11.3-5.4,22.7-4.6,29.4c0.4,3.6-0.8,5.8-0.8,5.8l-4.2,0
			l-2.8-1.7l7.1-34.9l16.6-24.5L160,58.1z"/>
		<path class="st1" d="M152,56.4c0,0-11.4,11.6-19,29s-5.3,35.1-5.3,35.1l5.1-0.6c0,0-2.3-21.7,4.5-35c8.2-15.9,22.6-26.9,22.6-26.9
			L152,56.4z"/>
	</g>
	<g>
		<polygon class="st2" points="59.7,43.2 65.5,37.2 72.1,40.4 69.1,46.9 64.6,49.9 		"/>
		<path class="st0" d="M66.1,45.7l6-5.3c0,0,4.4,29.9,5.5,45c1.1,15.2,3.1,42.6,3.1,42.6l-4.3,3.6l-3.8-30.8l-8.4-50.3L66.1,45.7z"
			/>
		<path class="st1" d="M59.7,43.2c0,0,8.5,35.8,9,53.8c0.5,18,1.5,30.5,1.5,30.5l6.3,4.2c0,0-4.7-58.3-6.2-68.1s-4.1-17.9-4.1-17.9
			L59.7,43.2z"/>
	</g>
	<g>
		<polygon class="st2" points="150.3,75.6 148.9,67.3 141.6,66.3 140.4,73.4 142.6,78.4 		"/>
		<path class="st0" d="M143.6,74l-2.1-7.7c0,0-20.2,22.4-29.5,34.4s-26.2,33.8-26.2,33.8l1.6,5.4l20.2-23.5l34.9-37.2L143.6,74z"/>
		<path class="st1" d="M150.3,75.6c0,0-26.9,25.1-37.2,39.8C102.7,130,95,139.9,95,139.9l-7.5,0c0,0,36.2-45.9,42.9-53.2
			C137,79.4,143.6,74,143.6,74L150.3,75.6z"/>
	</g>
	<g>
		<polygon class="st2" points="78.9,62.5 84.7,56.4 91.3,59.6 88.4,66.2 83.8,69.1 		"/>
		<path class="st0" d="M85.3,64.9l6-5.3c0,0,4.4,29.9,5.5,45s3.1,42.6,3.1,42.6l-4.3,3.6l-3.8-30.8l-8.4-50.3L85.3,64.9z"/>
		<path class="st1" d="M78.9,62.5c0,0,8.5,35.8,9,53.8s1.5,30.5,1.5,30.5l6.3,4.2c0,0-4.7-58.3-6.2-68.1s-4.1-17.9-4.1-17.9
			L78.9,62.5z"/>
	</g>
	<g>
		<polygon class="st2" points="97.1,52.4 103.9,47.5 109.8,51.8 105.7,57.7 100.6,59.8 		"/>
		<path class="st0" d="M102.9,55.9l6.9-4.1c0,0-1.1,30.2-2.9,45.3c-1.7,15.1-4.8,42.5-4.8,42.5l-4.9,2.7l2-31l0.9-51L102.9,55.9z"/>
		<path class="st1" d="M97.1,52.4c0,0,1.8,36.7-1.1,54.5c-2.8,17.8-4.2,30.2-4.2,30.2l5.4,5.3c0,0,6.1-58.2,6.4-68.1
			c0.3-9.9-0.7-18.3-0.7-18.3L97.1,52.4z"/>
	</g>
	<g>
		<polygon class="st2" points="113.8,52.4 120.5,47.5 126.5,51.8 122.4,57.7 117.3,59.8 		"/>
		<path class="st0" d="M119.6,55.9l6.9-4.1c0,0-1.1,30.2-2.9,45.3c-1.7,15.1-4.8,42.5-4.8,42.5l-4.9,2.7l2-31l0.9-51L119.6,55.9z"/>
		<path class="st1" d="M113.8,52.4c0,0,1.8,36.7-1.1,54.5c-2.8,17.8-4.2,30.2-4.2,30.2l5.4,5.3c0,0,6.1-58.2,6.4-68.1
			c0.3-9.9-0.7-18.3-0.7-18.3L113.8,52.4z"/>
	</g>
	<g>
		<polygon class="st2" points="72.5,83.6 77.6,77.9 84.5,79.4 82.3,85.1 78.1,88.1 		"/>
		<path class="st0" d="M79.1,84.5l5.4-5.2c0,0,7.6,23.1,10.3,35.1c2.7,11.9,7.7,33.5,7.7,33.5l-3.9,3.5l-7.1-24L77.8,88.7L79.1,84.5
			z"/>
		<path class="st1" d="M72.5,83.6c0,0,12.3,27.2,14.7,41.5c2.4,14.3,4.7,24.1,4.7,24.1l6.6,2.4c0,0-11-45.8-13.5-53.3
			c-2.6-7.6-6-13.6-6-13.6L72.5,83.6z"/>
	</g>
	<g>
		<path class="st2" d="M89.8,74.4c0-0.2,6.8-4,6.8-4l4.9,4L97,80.8l-4.6-1.6L89.8,74.4z"/>
		<path class="st0" d="M96.4,77.8l5.1-3.4c0,0-3.4,13.6-1.6,29.8c1.8,16.2,10.3,38.5,10.3,38.5l-1.6,3.5L99,129.1l-6.8-36.1
			L96.4,77.8z"/>
		<path class="st1" d="M103.2,146.9c1.6,1.1,3.7,0.2,5.4-0.6c-3.7-5.9-12.4-25.5-13.4-48.3c-0.3-7.3-0.1-13.2,1.3-20.1
			c-2.5-0.5-4.8-1.7-6.7-3.4c-0.4,3.8-0.4,14.3-0.2,17.3C91.7,135.2,102.5,146.4,103.2,146.9z"/>
	</g>
	<g>
		<path class="st2" d="M62.2,74c-0.1-0.2-7.8-0.8-7.8-0.8l-2.9,5.6l6.6,4l3.5-3.3L62.2,74z"/>
		<path class="st0" d="M57.5,79.7l-6-1c0,0,8.7,11,13.6,26.6c4.9,15.6,6.2,39.4,6.2,39.4l2.9,2.6l1.8-19.5L67.6,92L57.5,79.7z"/>
		<path class="st1" d="M79.3,145.6c-1,1.6-3.3,1.7-5.2,1.6c1-6.9,1-28.3-7.3-49.6c-2.7-6.8-5.3-12.1-9.3-17.9
			c2.1-1.4,3.7-3.5,4.7-5.8c1.9,3.3,6.1,12.9,7.2,15.7C85,130.3,79.7,145,79.3,145.6z"/>
	</g>
	<g>
		<polygon class="st2" points="106.4,73.7 113.7,69.6 119.1,74.5 114.4,79.9 109.1,81.4 		"/>
		<path class="st0" d="M111.8,77.9l7.3-3.3c0,0-4.4,29.9-7.8,44.7s-9.5,41.7-9.5,41.7l-5.2,2.2l5.4-30.6l6.6-50.5L111.8,77.9z"/>
		<path class="st1" d="M106.4,73.7c0,0-2.3,36.7-7.1,54c-4.8,17.3-7.5,29.6-7.5,29.6l4.8,5.8c0,0,12.5-57.2,13.9-67
			c1.4-9.8,1.3-18.3,1.3-18.3L106.4,73.7z"/>
	</g>
	<g>
		<path class="st0" d="M124.1,76.1l5,2.2c0,0,2.5,22.8,1.9,36.5c-0.6,14.7-3.7,33.8-3.7,33.8l-3.6,2.1l-0.2-5.2L124.1,76.1z"/>
		<path class="st1" d="M119.1,80.4c0,0.6,3.8,25.9,3.1,40.3c-0.7,14.4-2.6,25.9-2.6,25.9l4.2,3.9c0,0,3.3-22.9,3.6-32.2
			c0.3-9.3-3.2-42.3-3.2-42.3L119.1,80.4z"/>
	</g>
	<polygon class="st3" points="84.2,79.6 79.1,84.5 82.8,92.3 80.5,84.5 	"/>
	<path class="st3" d="M96.4,77.8c0,0-1.3,7.1-1.4,11.7c0,4.6,0.1,8.4,0.1,8.4s0.5-13.2,1.3-16.1c0.8-2.9,3-6.1,3-6.1L96.4,77.8z"/>
	<polygon class="st3" points="73.9,53.1 75.9,76.7 77.2,51.4 	"/>
	<path class="st3" d="M100.5,110c0.1,0.4,1.3,5.4,1.3,5.4l2.8-20.7c0,0,1.5-16.8,1.5-16.9c0-0.1-1.5,18-2.8,21.3
		C102,102.5,100.5,110,100.5,110z"/>
	<path class="st3" d="M107.9,118.4c0.4-0.4,11.2-43.8,11.2-43.8l-7.3,44.3L107.9,118.4z"/>
	<polygon class="st3" points="120.3,90.5 120.1,116.9 124.2,115.4 120.4,90.1 	"/>
	<path class="st3" d="M79.1,99.3l1.5,19.8l3.4,0.6c0,0-1.6-9.8-2.4-13.1C80.7,103.4,79.1,99.3,79.1,99.3z"/>
	<polygon class="st3" points="129.4,80.1 131.2,105 132.6,76.7 	"/>
	<g>
		<path class="st4" d="M125.7,100.8c0,0-1.5,8.7-6.9,12.3c-5.5,3.6-19.6,3-19.6,3s-14.1,0.6-19.6-3c-5.5-3.6-6.9-12.3-6.9-12.3h-7.1
			l7.9,62.5h25.7h25.7l7.9-62.5H125.7z"/>
		<polygon class="st5" points="73.5,163.3 66.9,153.5 57.2,87.4 65.6,100.8 		"/>
		<polygon class="st5" points="124.9,163.3 131.5,153.5 140.2,86.8 132.8,100.8 		"/>
	</g>
	<path class="st6" d="M72.5,83.6l6.6,0.9l5.1-4.9c0,0-1.4,1.1-4.8,2.4C76,83.5,72.5,83.6,72.5,83.6z"/>
	<path class="st6" d="M89.8,74.4c0,0,0.9,1.6,2.7,2.6c1.8,0.9,3.8,1.4,3.8,1.4l5.2-4c0,0,0.5,0.7-4.8,0.7
		C91.3,75.2,89.8,74.4,89.8,74.4z"/>
	<path class="st6" d="M111.1,73.2c0.4-1.5,1.5-2.9,2.9-3.6c-0.3-0.3-0.8,0-1.2,0.2c-2.1,1.3-4.2,2.6-6.4,3.9c1.5,1.8,3.8,3,5.5,4.6
		c-0.2-0.8-0.7-1.5-0.8-2.3C110.8,75,111.1,74.2,111.1,73.2z"/>
</g>
</svg>
