<?xml version="1.0" encoding="utf-8"?>
<!-- Generator: Adobe Illustrator 25.2.1, SVG Export Plug-In . SVG Version: 6.00 Build 0)  -->
<svg version="1.1" id="Layer_2" xmlns="http://www.w3.org/2000/svg" xmlns:xlink="http://www.w3.org/1999/xlink" x="0px" y="0px"
	 viewBox="0 0 200 200" style="enable-background:new 0 0 200 200;" xml:space="preserve">
<style type="text/css">
	.st0{fill:#FFEB31;}
	.st1{fill:#F9C41C;}
	.st2{fill:#FBD544;}
	.st3{fill:#F9E638;}
</style>
<g>
	<polygon class="st0" points="70.5,107.5 70,113.3 64.9,114.4 63.7,109.6 65,105.9 	"/>
	<path class="st1" d="M66,108.9l-1,5.5c0,0-15.1-14.5-22.1-22.3S22.8,70.1,22.8,70.1l0.9-3.7l15.2,15.1l26,24L66,108.9z"/>
	<path class="st2" d="M70.5,107.5c0,0-19.9-15.9-27.8-25.6c-8-9.6-13.8-16.1-13.8-16.1l-5.3,0.4c0,0,27.4,29.9,32.5,34.6
		c5.1,4.7,9.9,8.1,9.9,8.1L70.5,107.5z"/>
</g>
<g>
	<polygon class="st0" points="129.9,65.9 127.6,71 122.5,73 122.8,69 125,65.7 	"/>
	<path class="st1" d="M125.1,68l-2.6,5c0,0-10.3-9.4-14.8-14.7S95.1,43.3,95.1,43.3l1.9-3.4L107.2,50l17.9,15.2L125.1,68z"/>
	<path class="st2" d="M129.9,65.9c0,0-14.4-9.8-19.1-16.5c-4.7-6.7-8.5-11.1-8.5-11.1l-5.1,1.3c0,0,17.5,20.3,21,23.4
		s7.1,4.9,7.1,4.9L129.9,65.9z"/>
</g>
<g>
	<path class="st1" d="M46.3,42.3l-2.3,3.3c0,0,7.5,15.6,13.5,24.2c6.3,9.1,16,20.1,16,20.1l3.1,0l-2-3.3L46.3,42.3z"/>
	<path class="st2" d="M51.2,43.1c0.2,0.4,8,18.1,14.2,27.1c6.3,8.9,12.1,15.5,12.1,15.5l-1,4.2c0,0-11.4-13.4-15.2-19.2
		S46.3,42.3,46.3,42.3L51.2,43.1z"/>
</g>
<g>
	<path class="st0" d="M155.5,16.6c0.1-0.1-2.5-5.9-2.5-5.9l-5,0.2l-0.4,6.2l3.8,1.1L155.5,16.6z"/>
	<path class="st1" d="M149.6,15.5l-1.6-4.6c0,0-4.4,10.3-13.5,19.8S109,50.2,109,50.2l-0.7,3.1l14.4-6.2l22-19.7L149.6,15.5z"/>
	<path class="st2" d="M111.5,56.2c-1.6-0.1-2.5-1.6-3.1-3.1c5.3-2,20.4-10.2,32.3-24.2c3.8-4.5,6.5-8.4,9-13.4
		c1.8,0.9,3.9,1.2,5.9,1.1c-1.7,2.6-6.8,9.3-8.3,11.1C124.6,54.3,112.1,56.2,111.5,56.2z"/>
</g>
<g>
	<path class="st0" d="M55.4,14.4c0-0.1,5.7-2.9,5.7-2.9l3.8,3.3L61,19.8l-3.6-1.5L55.4,14.4z"/>
	<path class="st1" d="M60.6,17.4l4.2-2.6c0,0-3.2,10.8-2.4,23.8c0.8,13.1,6.9,31.2,6.9,31.2l-1.5,2.8l-7.1-14.1l-4.1-29.2L60.6,17.4
		z"/>
	<path class="st3" d="M63.5,73.1c1.2,1,3,0.3,4.3-0.4c-2.8-4.9-9-21-9-39.2c0-6,0.4-10.6,1.8-16.1c-1.9-0.5-3.7-1.5-5.2-3
		c-0.5,3-0.9,11.5-0.8,13.9C54.8,63.3,63.1,72.7,63.5,73.1z"/>
</g>
<g>
	<path class="st0" d="M144.7,149.4c-0.1,0.1-6.1-1.8-6.1-1.8l-0.4-5l6.2-0.9l1.6,3.6L144.7,149.4z"/>
	<path class="st1" d="M143,143.7l-4.8-1.1c0,0,9.8-5.6,18.2-15.5c8.5-10.1,16.7-27.3,16.7-27.3l3-1l-4.7,15.1l-17.3,23.9L143,143.7z
		"/>
	<path class="st3" d="M179.6,101.6c-0.2-1.5-1.9-2.3-3.4-2.7c-1.4,5.4-8.1,21.3-20.7,34.5c-4.1,4.3-7.7,7.4-12.4,10.4
		c1.1,1.7,1.7,3.7,1.7,5.7c2.4-1.8,8.6-7.7,10.3-9.5C179.1,114.7,179.7,102.3,179.6,101.6z"/>
</g>
<g>
	<path class="st1" d="M37.8,102.7l-3.2,2.6c0,0-16-6.5-25-11.9c-9.5-5.6-21.1-14.6-21.1-14.6l-0.2-3.1l3.4,1.7L37.8,102.7z"/>
	<path class="st2" d="M36.7,97.8c-0.5-0.1-18.6-6.8-28-12.4C-0.7,79.7-7.6,74.3-7.6,74.3l-4.1,1.3c0,0,14.1,10.4,20.1,13.9
		c6.1,3.5,29.3,13.1,29.3,13.1L36.7,97.8z"/>
</g>
<g>
	<polygon class="st0" points="89.9,132.7 92.3,138.9 87.7,142.6 84,138.2 83.3,133.8 	"/>
	<path class="st1" d="M86,136.4l1.8,6.3c0,0-23.2-7.1-34.6-11.5c-11.4-4.4-32-12.5-32-12.5l-1.1-4.3l23.7,7.9l39.4,11.2L86,136.4z"
		/>
	<path class="st2" d="M89.9,132.7c0,0-28.9-6.2-42.2-12c-13.3-6-22.6-9.6-22.6-9.6l-5.2,3.1c0,0,44,16.7,51.6,19s14.3,3.2,14.3,3.2
		L89.9,132.7z"/>
</g>
<g>
	<polygon class="st0" points="115,120.2 115.3,126 110.6,128 108.7,123.4 109.3,119.7 	"/>
	<path class="st1" d="M110.7,122.3l-0.1,5.6c0,0-17.3-11.8-25.6-18.4S61.8,91.1,61.8,91.1l0.2-3.9l17.5,12.6l29.6,19.3L110.7,122.3z
		"/>
	<path class="st2" d="M115,120.2c0,0-22.2-12.5-31.6-20.8c-9.3-8.2-16.3-13.7-16.3-13.7L62,87c0,0,31.9,25.1,37.7,28.8
		c5.8,3.7,11,6.4,11,6.4L115,120.2z"/>
</g>
<g>
	<path class="st1" d="M25.7,38.5l-2.4,3.3c0,0,7,15.8,12.8,24.6c6,9.3,15.4,20.6,15.4,20.6l3.1,0.1l-1.9-3.3L25.7,38.5z"/>
	<path class="st2" d="M30.5,39.5C30.7,40,38,57.8,43.9,67.1c6,9.1,11.7,15.8,11.7,15.8L54.4,87c0,0-10.9-13.7-14.6-19.6
		c-3.7-5.9-14.2-28.8-14.2-28.8L30.5,39.5z"/>
</g>
<g>
	<path class="st0" d="M140.1,101.4c-0.1,0.1-5.3-3.4-5.3-3.4l1.1-5l6.2,0.9l0.6,3.9L140.1,101.4z"/>
	<path class="st1" d="M140.1,95.5l-4.2-2.4c0,0,11-2.5,22-9.7c11-7.3,23.9-21.4,23.9-21.4l3.1-0.1l-8.7,13l-23.4,18L140.1,95.5z"/>
	<path class="st2" d="M187.1,65.5c0.1-1.6-1.2-2.8-2.4-3.5c-3,4.8-13.7,18.1-29.7,27.1c-5.1,3-9.4,4.9-14.9,6.4c0.5,1.9,0.5,4.1,0,6
		c2.8-1.1,10.4-4.9,12.5-6.1C183,78,187,66,187.1,65.5z"/>
</g>
<g>
	<polygon class="st0" points="133.5,48.7 138.4,45.7 137.1,40.7 132.2,41.8 129.5,44.6 	"/>
	<path class="st1" d="M132.7,44.1l4.4-3.4c0,0-19.7-7-30-9.9C97,28.1,78.5,23,78.5,23l-3,2.5l20.5,6.7L129,44.7L132.7,44.1z"/>
	<path class="st2" d="M133.5,48.7c0,0-23.2-10.6-35.4-13.4c-12.1-2.7-20.5-5-20.5-5l-2-4.8c0,0,39.2,11,45.5,13.4
		c6.4,2.4,11.6,5.1,11.6,5.1L133.5,48.7z"/>
</g>
<g>
	<polygon class="st0" points="170.4,31.7 176.1,31.3 178.1,35.9 173.6,38 169.8,37.5 	"/>
	<path class="st1" d="M172.5,35.9l5.5,0c0,0-11.3,17.6-17.7,26.1c-6.4,8.4-17.9,23.8-17.9,23.8l-3.9-0.1l12.2-17.8l18.5-30.2
		L172.5,35.9z"/>
	<path class="st2" d="M170.4,31.7c0,0-11.9,22.6-19.8,32.2s-13.2,16.5-13.2,16.5l1.3,5.1c0,0,24.3-32.7,27.8-38.5
		c3.6-5.8,6-11.2,6-11.2L170.4,31.7z"/>
</g>
<g>
	<polygon class="st0" points="118.4,76.4 124.2,75.8 126.3,80.4 121.8,82.6 118,82.1 	"/>
	<path class="st1" d="M120.7,80.6l5.6-0.2c0,0-11,17.9-17,26.4C103,115.4,92,130.9,92,130.9l-3.9,0l11.5-18.1l17.9-30.6L120.7,80.6z
		"/>
	<path class="st3" d="M118.4,76.4c0,0-11.4,22.8-19.1,32.7c-7.8,9.8-12.7,16.9-12.7,16.9l1.4,5c0,0,23.4-33.2,26.9-39
		c3.5-5.9,5.8-11.4,5.8-11.4L118.4,76.4z"/>
</g>
<g>
	<path class="st1" d="M94.9,57.5l4.2,3.2c0,0,3.3,15.9,8.5,23.6c9.1,13.6,24.2,17.3,24.2,17.3l-2.6,4.4l-2.4,1.4l-22.5-19.9
		L93.4,64.9L94.9,57.5z"/>
	<path class="st2" d="M90.3,62.6c0,0,3.6,13.2,13.2,26.2s23.4,18.7,23.4,18.7l1.8-4c0,0-16.9-7.5-23.7-18.1
		c-8.2-12.8-10.1-27.9-10.1-27.9L90.3,62.6z"/>
</g>
<g>
	<path class="st1" d="M109.8,137l4,2.4c0,0,16.6-9.7,25.6-16.9c9.6-7.6,21-19.4,21-19.4l-0.3-3.4l-3.6,2.5L109.8,137z"/>
	<path class="st2" d="M110.3,131.6c0.5-0.3,19.5-10.3,28.9-18s16.3-14.7,16.3-14.7l4.7,0.8c0,0-13.9,13.7-20,18.4
		c-6.1,4.7-30.3,18.9-30.3,18.9L110.3,131.6z"/>
</g>
</svg>
