<?xml version="1.0" encoding="utf-8"?>
<!-- Generator: Adobe Illustrator 25.2.1, SVG Export Plug-In . SVG Version: 6.00 Build 0)  -->
<svg version="1.1" id="Layer_1" xmlns="http://www.w3.org/2000/svg" xmlns:xlink="http://www.w3.org/1999/xlink" x="0px" y="0px"
	 viewBox="0 0 200 200" style="enable-background:new 0 0 200 200;" xml:space="preserve">
<style type="text/css">
	.st0{fill:#F1BE45;}
	.st1{opacity:0.14;clip-path:url(#SVGID_2_);}
	.st2{fill:#FAB93B;}
	.st3{opacity:0.2;clip-path:url(#SVGID_4_);}
	.st4{fill:#EB7013;}
	.st5{clip-path:url(#SVGID_6_);}
	.st6{opacity:0.25;fill:#F1BE45;enable-background:new    ;}
	.st7{clip-path:url(#SVGID_8_);}
	.st8{opacity:0.14;fill:#EB7013;enable-background:new    ;}
	.st9{clip-path:url(#SVGID_10_);}
	.st10{opacity:5.000000e-02;fill:#FFFFFF;enable-background:new    ;}
	.st11{opacity:0.5;fill:#D64613;enable-background:new    ;}
	.st12{fill:#659C36;}
	.st13{fill:#61893B;}
</style>
<g id="Group_876_1_" transform="translate(47.593 15.799)">
	<path id="Path_14759_1_" class="st0" d="M-6.8,113c6.8,19.8,26.4,33.2,47.1,39c8,2.1,16.6,3.5,24.9,2.1c5.3-1.2,10.6-2.8,15.6-5
		c7.1-2.9,14.3-5.9,20.2-10.7c5-4.6,9.1-10.1,11.8-16.2c7.9-16.2,10.2-35,5-52.3c-5.2-17.3-18.1-32.7-34.9-39.8
		c-20.8-8.9-45.8-4.8-65.1,6.9C5.2,44.5-5.6,55.7-10.2,69.3c-3.3,10.2-3.7,21.2-1,31.6C-10,106.2-8.6,107.8-6.8,113z"/>
	<g>
		<defs>
			<path id="SVGID_1_" d="M-6.8,113c6.8,19.8,26.4,33.2,47.1,39c8,2.1,16.6,3.5,24.9,2.1c5.3-1.2,10.6-2.8,15.6-5
				c7.1-2.9,14.3-5.9,20.2-10.7c5-4.6,9.1-10.1,11.8-16.2c7.9-16.2,10.2-35,5-52.3c-5.2-17.3-18.1-32.7-34.9-39.8
				c-20.8-8.9-45.8-4.8-65.1,6.9C5.2,44.5-5.6,55.7-10.2,69.3c-3.3,10.2-3.7,21.2-1,31.6C-10,106.2-8.6,107.8-6.8,113z"/>
		</defs>
		<clipPath id="SVGID_2_">
			<use xlink:href="#SVGID_1_"  style="overflow:visible;"/>
		</clipPath>
		<g id="Group_874_1_" class="st1">
			<path id="Path_14760_1_" class="st2" d="M58.1,23.2c1.4,2,4.1,3.3,6,4.7c2.7,1.9,5.7,3.2,8.3,5.3c4.7,4.1,9,8.5,12.8,13.4
				c2.2,2.5,3.9,5.3,5.9,7.9c0.4,0.6,1.2,2.3,0,0c0.2,0.5,0.6,1,0.8,1.5c0.8,1.5,1.3,3.2,2.1,4.7c0.9,2.6,1.7,5.1,2.4,7.7
				c1,2.8-0.3-0.3-0.1-0.7c-0.1,0.2,0.4,1.8,0.5,2.2c0.3,1.6,0.5,3,0.9,4.6c0.4,2.8,0.6,5.7,0.8,8.6c0,2.2,0.2-3.3,0-1l-0.2,1.7
				c-0.2,1.7-0.2,3.3-0.4,5.1l-0.5,4c-0.5,1.6-0.8,3.2-1.1,4.8c0,0,1.2-3.5,0.5-1.6c-0.3,0.7-0.5,1.6-0.8,2.3
				c-0.6,1.8-1.3,3.5-2.1,5.2c-0.6,1.4-1.2,2.7-2,4c-0.2,0.5-0.7,1.1-0.9,1.6c-1.9,3.2,0.5-1.2,0.7-1.1s-5.4,7.4-5.9,8.2
				c-0.9,1.2-1.9,2.3-3,3.4c-0.5,0.6-1.2,1.3-1.7,1.9c-0.5,0.6-2.5,2.4-0.5,0.6c2-1.8,0.3-0.3,0,0c-1.6,1.3-2.9,2.8-4.6,4.1
				c0.3-0.3,3.3-2.8,0.7-0.7l-2,1.6c-5.8,4.7-12,8.9-18.5,12.6c-1.4,0.8,0.3-0.1,0.3-0.3c-1.7,0.9-3.2,1.7-4.7,2.7s-3.2,2.1-4.7,3.1
				c-3.1,1.9-6,4.1-9.1,6.3c-3.2,2.4-3.7,6.8-1.3,9.9c1.1,1.4,2.8,2.4,4.7,2.6c8.1,1.8,16.5,2.3,24.8,1.5c8.2-1,16.7-2.3,24.1-6
				c9.1-4.4,17.3-10.4,24-17.8c5.6-6.3,10.1-13.5,13.2-21.3c6.6-15,8.1-31.6,4.3-47.5c-3.9-15.8-12.6-30.2-24.9-41.2
				c-7.1-6.5-15.4-11.6-24.6-14.9c-4.3-1.6-9.7-3.4-14.3-2.5c-3.8,0.6-8.3,2.2-10,5.5C57.2,20.8,57.3,22.2,58.1,23.2L58.1,23.2z"/>
		</g>
	</g>
	<g>
		<defs>
			<path id="SVGID_3_" d="M-6.8,113c6.8,19.8,26.4,33.2,47.1,39c8,2.1,16.6,3.5,24.9,2.1c5.3-1.2,10.6-2.8,15.6-5
				c7.1-2.9,14.3-5.9,20.2-10.7c5-4.6,9.1-10.1,11.8-16.2c7.9-16.2,10.2-35,5-52.3c-5.2-17.3-18.1-32.7-34.9-39.8
				c-20.8-8.9-45.8-4.8-65.1,6.9C5.2,44.5-5.6,55.7-10.2,69.3c-3.3,10.2-3.7,21.2-1,31.6C-10,106.2-8.6,107.8-6.8,113z"/>
		</defs>
		<clipPath id="SVGID_4_">
			<use xlink:href="#SVGID_3_"  style="overflow:visible;"/>
		</clipPath>
		<g id="Group_875_1_" class="st3">
			<path id="Path_14762_1_" class="st4" d="M59.4,17.9c-2.5-7.1-13.4-5.8-19.4-5.1c-6.6,1-13,3-19,5.8C7.6,24.7-4,34-12.6,45.7
				c-18.3,26.2-16.3,63.1-0.8,90.1C-9,143.6-3,150.5,4.2,156c3.7,2.8,7.8,5.1,12.1,6.9c2.6,1.1,5.5,1.5,8.4,1.3
				c1.2-0.1,2.3-0.4,3.5-0.8l0.8-0.3c2.5-1.4,2.7-1.5,0.7-0.5c3.3-0.4,5.7-3.3,5.3-6.5c-0.1-0.5-0.2-1-0.4-1.5
				c0.1,0.2,0,0.4,0.1,0.7c0.2,1.5,0.1,1.1,0.1-1.6l-0.1-1.2c-0.4-2.4-1.3-4.7-2.6-6.7c-1.6-2.5-3.5-4.9-5.1-7.2
				c-1.7-2.3-3.1-4.7-4.6-7c-1.2-1.9,0.9,2.2,0.2,0.1c-0.2-0.5-0.6-1-0.9-1.8c-0.8-1.5-1.5-3.1-2.1-4.7c-2.5-5.5-4.5-11.2-6.1-17.1
				c-0.5-1.6-1.4-3.4-0.3-0.7c-0.4-1.4-0.8-2.9-0.9-4.4C11.5,100,11,97,10.6,94c-0.3-3-0.6-6.1-0.9-9.2c-0.1-1.2-0.1-2.6-0.1-3.9
				c-0.1-2.5-0.2,2.7,0,0.4c0-1,0.2-1.7,0.1-2.6c0.3-3.1,0.7-6.1,1.4-9.1c0.1-0.6,0.2-1.2,0.4-1.8c0,0-1,2.8-0.2,0.9
				c0.5-1.2,0.8-2.7,1.3-3.9c0.6-2.4,0.8-2.7,0.4-1.3c-0.2,0.9-0.2,0.9-0.1,0.2c1.1-2.5,2-5.4,3.3-7.9c0.7-1.4,1.4-2.8,2.2-4.1
				c0.8-1.3,0,0-0.2,0.3l1.9-2.8c1.6-2.2,3.4-4.2,5.4-6c-1.5,1.4,1.3-1.1,1.6-1.3c1.2-0.9,2.5-2,3.8-2.9c4.5-3.2,9.6-5.8,14.9-7.7
				C51.3,28.6,62.3,26.4,59.4,17.9L59.4,17.9z"/>
		</g>
	</g>
</g>
<g id="Group_880_1_" transform="translate(47.593 15.799)">
	<g>
		<defs>
			<path id="SVGID_5_" d="M-6.8,113c6.8,19.8,26.4,33.2,47.1,39c8,2.1,16.6,3.5,24.9,2.1c5.3-1.2,10.6-2.8,15.6-5
				c7.1-2.9,14.3-5.9,20.2-10.7c5-4.6,9.1-10.1,11.8-16.2c7.9-16.2,10.2-35,5-52.3c-5.2-17.3-18.1-32.7-34.9-39.8
				c-20.8-8.9-45.8-4.8-65.1,6.9C5.2,44.5-5.6,55.7-10.2,69.3c-3.3,10.2-3.7,21.2-1,31.6C-10,106.2-8.6,107.8-6.8,113z"/>
		</defs>
		<clipPath id="SVGID_6_">
			<use xlink:href="#SVGID_5_"  style="overflow:visible;"/>
		</clipPath>
		<g id="Group_877_1_" class="st5">
			<path id="Path_14764_1_" class="st6" d="M127.5,117.7c0.1-1.3,0.1-2.5,0-3.8c-0.1-1.2,0.4-1.8-0.1-0.7c0.6-1.7,0.7-3.5,0.3-5.3
				c1.2-2.5,1-5.4-0.3-7.8c-2.4-4-6.5-4.9-11-3.8c-7.3,2-14.5,3.6-22,4.9c-6.4,1.2-13.1,2.4-19.7,1.7c-12.2-1.5-24.1-8.5-32.8-16.5
				C33.4,78.6,28.1,68,27.1,56.6c-0.1-2.5,0-5.1,0.1-7.6c1-3.2,1.8-6.4,2.4-9.7c0.1-0.6,0.2-1.3,0.2-1.9c0.6-1.7,1.4-3.3,2.4-4.9
				c0.6-0.8,3.8-6.3,4.4-6.2c4.6,0.5,6.9-6.2,2.2-7.7c-2.8-0.9-5.9-0.4-8.3,1.4c-3.9-2.9-8.8-1.8-12.1,1.4l-1.2,1.3
				c-2.6,3-5,6-7.2,9.1C6.2,30,1.6,30.9-1.2,34.2C-12,47.5-18.6,63.6-20,80.5c-0.8,8.8-0.2,17.6,1.6,26.2c-0.5,1.7-0.5,3.5,0,5.2
				c4.1,11.8,7.5,25.7,18.4,33.5c10.1,7.2,23.7,10.7,35.8,13.1c23.6,4.4,49.4,0.9,68.7-14c5.7-4.3,10.6-9.4,14.7-15.2
				c1.7-1.1,3.3-2.4,4.7-3.9C125.8,123.2,127.1,120.5,127.5,117.7z"/>
		</g>
	</g>
	<g>
		<defs>
			<path id="SVGID_7_" d="M-6.8,113c6.8,19.8,26.4,33.2,47.1,39c8,2.1,16.6,3.5,24.9,2.1c5.3-1.2,10.6-2.8,15.6-5
				c7.1-2.9,14.3-5.9,20.2-10.7c5-4.6,9.1-10.1,11.8-16.2c7.9-16.2,10.2-35,5-52.3c-5.2-17.3-18.1-32.7-34.9-39.8
				c-20.8-8.9-45.8-4.8-65.1,6.9C5.2,44.5-5.6,55.7-10.2,69.3c-3.3,10.2-3.7,21.2-1,31.6C-10,106.2-8.6,107.8-6.8,113z"/>
		</defs>
		<clipPath id="SVGID_8_">
			<use xlink:href="#SVGID_7_"  style="overflow:visible;"/>
		</clipPath>
		<g id="Group_878_1_" class="st7">
			<path id="Path_14766_1_" class="st8" d="M124.5,146c0.1-1.4,0.1-2.8-0.2-4.1c-0.1-1.2,0.5-2-0.3-0.7c0.5-1.9,0.5-3.9,0.1-5.8
				c1.3-2.7,1-6-0.8-8.4c-3-4.1-8.3-6-13.3-4.7c-8.5,1.7-17,3.2-25.8,4.1c-7.5,0.9-15.4,1.8-23.2,0.6c-14.4-2.4-29.1-10.3-39.8-19.6
				c-10.4-9-17.6-20.7-19.2-33c-0.4-2.7-0.5-5.5-0.3-8.2c1-3.4,1.7-6.8,2.3-10.3c0.1-0.8,0.2-1.3,0.2-1.9c0.7-1.8,1.5-3.5,2.5-5.2
				c0.6-0.8,4.4-6.6,4.9-6.4c2.4,0.5,4.8-0.9,5.3-3.2c0.5-2.2-0.8-4.4-3.1-5.1c-3.3-1.1-6.8-0.7-9.8,1c-4.3-3.1-10.3-2.7-14.2,0.9
				l-1.2,1.3c-2.8,3.1-5.5,6.2-7.9,9.4c-4.4-2.3-9.8-1.5-13.3,1.9c-12,13.7-18.9,30.9-19.5,48.8c-0.4,9.6,0.7,19.2,3.4,28.4
				c-0.6,1.9-0.4,3.9,0.4,5.6c5.5,13,10.4,28.1,23.7,37.1c12.4,8.2,28.8,13,43.2,16c28.3,6.2,58.6,3.5,80.6-11.3
				c6.3-4.3,11.9-9.6,16.6-15.6c2-1.1,3.7-2.5,5.3-4C123.1,151.4,124.3,148.8,124.5,146z"/>
		</g>
	</g>
	<g>
		<defs>
			<path id="SVGID_9_" d="M-6.8,113c6.8,19.8,26.4,33.2,47.1,39c8,2.1,16.6,3.5,24.9,2.1c5.3-1.2,10.6-2.8,15.6-5
				c7.1-2.9,14.3-5.9,20.2-10.7c5-4.6,9.1-10.1,11.8-16.2c7.9-16.2,10.2-35,5-52.3c-5.2-17.3-18.1-32.7-34.9-39.8
				c-20.8-8.9-45.8-4.8-65.1,6.9C5.2,44.5-5.6,55.7-10.2,69.3c-3.3,10.2-3.7,21.2-1,31.6C-10,106.2-8.6,107.8-6.8,113z"/>
		</defs>
		<clipPath id="SVGID_10_">
			<use xlink:href="#SVGID_9_"  style="overflow:visible;"/>
		</clipPath>
		<g id="Group_879_1_" class="st9">
			<path id="Path_14768_1_" class="st8" d="M129,155.5c-0.1-1.4-0.3-2.8-0.7-4.1c-0.2-1.3,0.1-2-0.3-0.7c0.3-1.9,0.1-3.9-0.6-5.7
				c1-2.8,0.3-6-1.8-8.2c-3.4-4-8.7-4.8-13.7-3.3c-8.2,2.6-16.6,5-25.2,7c-7.4,1.6-15.1,3.6-22.9,3.1c-14.7-0.7-30-7.1-41.8-15
				C10.5,120.8-2,106.5-5,94.4c-0.7-2.7-6.2-44.5-9-40.6c-10.3,14.6-39.4,55.2-38,73c0.7,9.6,3,18.9,6.8,27.8c-0.4,1.9,0,4,1,5.7
				c7,12.2,13.5,26.8,27.9,34.2c13.2,6.7,30,9.7,44.8,11.2c28.9,3,58.8-2.9,78.7-20.1c5.8-4.9,10.7-10.8,14.4-17.3
				c1.8-1.3,3.5-2.9,4.8-4.6C128.3,161.3,129.2,158.4,129,155.5z"/>
		</g>
	</g>
</g>
<path id="Path_14770_1_" class="st10" d="M154.9,129.7c8.4-21.2,7.6-47-8.1-65c-2.9-3.3-6.2-6.2-9.8-8.7c-2-1.7-4.5-3-7.1-3.8
	c-1.9-0.6-3.9-0.7-5.8-0.4c-3.9,0.3-7.4,2.1-9.9,4.9c-4.4,4.8-4.9,11.4-3,17.5c0.8,2.5,1.9,5,3.2,7.4c0.9,5.8,1.7,11.6,2,17.4
	c0.3,4.9-0.9,9.8-3.4,14.1c-2.9,5.5-6,11-6.4,17.1c-1.2,11.5,7.5,21.7,19.4,22.8c1.5,0.1,2.9,0.1,4.4,0
	C143.7,152.2,150.7,140.6,154.9,129.7z"/>
<path class="st11" d="M71.8,55.4c3.8-2,7.9-1.8,9.1,0.4c1.2,2.2-0.7,6-4.6,7.9S68.2,65,67,62.9C65.8,60.7,68,57.4,71.8,55.4z"/>
<path class="st11" d="M57.7,101.6c0.3-1.5,1.4-2.6,2.5-2.4c1.1,0.2,1.9,1.7,1.6,3.2c-0.3,1.5-1.6,2.6-2.7,2.4S57.4,103.1,57.7,101.6
	z"/>
<path class="st11" d="M47.8,89c0.2-1.1,0.9-1.8,1.4-1.7c0.6,0.1,1,1.1,0.8,2.1c-0.2,1.1-1,1.8-1.6,1.7C47.9,91,47.6,90,47.8,89z"/>
<path class="st11" d="M58.8,129.6c-0.4-1-0.3-2,0.2-2.2c0.6-0.2,1.5,0.4,1.9,1.4c0.4,1,0.2,2-0.4,2.2S59.2,130.6,58.8,129.6z"/>
<path class="st11" d="M78.2,147.2c-0.6-0.9-0.6-1.9-0.1-2.2s1.5,0.2,2.1,1.1c0.6,0.9,0.5,2,0,2.3C79.7,148.6,78.8,148.1,78.2,147.2z
	"/>
<path class="st11" d="M86.8,162c-0.7-0.4-1.1-1-0.9-1.4c0.2-0.3,1-0.3,1.7,0.1c0.7,0.4,1.1,1.1,0.9,1.4
	C88.2,162.5,87.5,162.4,86.8,162z"/>
<path class="st11" d="M89.6,128.9c-0.6-0.6-0.8-1.3-0.6-1.5s1.1-0.1,1.6,0.5c0.6,0.6,0.8,1.3,0.5,1.6
	C90.9,129.7,90.2,129.5,89.6,128.9z"/>
<path class="st11" d="M96.9,141.4c-0.6-0.6-0.8-1.3-0.6-1.5c0.3-0.3,1.1-0.1,1.6,0.5c0.6,0.6,0.8,1.3,0.5,1.6
	C98.2,142.3,97.5,142,96.9,141.4z"/>
<path class="st11" d="M41.5,121.5c-0.3-0.8-0.3-1.5,0-1.6c0.3-0.1,0.9,0.4,1.2,1.1c0.3,0.8,0.2,1.5-0.1,1.6
	C42.3,122.8,41.8,122.3,41.5,121.5z"/>
<path class="st11" d="M50.4,123.8c-0.3-0.8-0.3-1.5,0-1.6c0.3-0.1,0.9,0.4,1.2,1.1c0.3,0.8,0.2,1.5-0.1,1.6
	C51.2,125.1,50.7,124.6,50.4,123.8z"/>
<path class="st11" d="M79.1,116.3c-0.3-0.8-0.3-1.5,0-1.6c0.3-0.1,0.9,0.4,1.2,1.1c0.3,0.8,0.2,1.5-0.1,1.6
	C80,117.6,79.4,117,79.1,116.3z"/>
<path class="st11" d="M86.7,82.4c-0.3-0.8-0.3-1.5,0-1.6c0.3-0.1,0.9,0.4,1.2,1.1c0.3,0.8,0.2,1.5-0.1,1.6
	C87.6,83.7,87,83.2,86.7,82.4z"/>
<path class="st11" d="M71,92.5c-0.3-0.8-0.3-1.5,0-1.6c0.3-0.1,0.9,0.4,1.2,1.1c0.3,0.8,0.2,1.5-0.1,1.6
	C71.9,93.8,71.3,93.2,71,92.5z"/>
<path class="st11" d="M59.8,82.3c-0.1-0.8,0.1-1.5,0.4-1.6c0.4,0,0.8,0.6,0.9,1.4c0.1,0.8-0.2,1.5-0.5,1.6
	C60.2,83.7,59.9,83.1,59.8,82.3z"/>
<path class="st11" d="M66.1,113.7c-0.3-0.8-0.3-1.5,0-1.6c0.3-0.1,0.9,0.4,1.2,1.1c0.3,0.8,0.2,1.5-0.1,1.6
	C66.9,115,66.4,114.5,66.1,113.7z"/>
<path class="st11" d="M63.8,148.4c-0.3-0.8-0.3-1.5,0-1.6c0.3-0.1,0.9,0.4,1.2,1.1c0.3,0.8,0.2,1.5-0.1,1.6S64.1,149.1,63.8,148.4z"
	/>
<path class="st11" d="M70.7,134.1c-0.5-1.2-0.3-2.5,0.5-2.8c0.8-0.3,2,0.4,2.5,1.6c0.5,1.2,0.1,2.5-0.6,2.8
	C72.3,136,71.2,135.3,70.7,134.1z"/>
<path class="st11" d="M41,106.3c-0.3-0.8-0.3-1.5,0-1.6s0.9,0.4,1.2,1.1c0.3,0.8,0.2,1.5-0.1,1.6C41.8,107.6,41.3,107.1,41,106.3z"
	/>
<path class="st11" d="M49.7,138.5c-0.3-0.8-0.3-1.5,0-1.6s0.9,0.4,1.2,1.1c0.3,0.8,0.2,1.5-0.1,1.6S50,139.3,49.7,138.5z"/>
<path class="st11" d="M49.1,115.7c-0.1-0.3,0-0.7,0.3-0.8c0.3-0.1,0.7-0.1,0.9,0.2s0,0.7-0.4,0.8C49.6,116.1,49.2,116,49.1,115.7z"
	/>
<g>
	<g>
		<path class="st12" d="M117.5,32.7c-3.8,1.9-5.3,5.6-8,8.2c-7.9,7.4-16.7,13.3-27.6,15.9c-1.3,0.3-2.7,0.4-4,0.5
			c-6.2,0.5-1.8,1.1-3.1,3.1c-0.2,0.3-5.8,0.4-12.2-4.4c-1.1-0.9-1.8-2.1-0.3-3.3c1.2-1,2.3-1.1,3.4,0.4c1.3,1.9,2.9,3.4,5.6,3.4
			c0.4-2.1-0.6-3.8-0.5-5.7C71.8,42,77.8,37,85.2,33.1c6.9-3.6,14.4-5,22.3-3.6c2.7,0.5,5.4,0.4,8,1.1
			C116.6,31,117.5,31.2,117.5,32.7z"/>
	</g>
	<g>
		<path class="st13" d="M110.4,39.1c-7.6-5.4-13.8-1.5-20.5,1.5c1,2,3.1,1.1,4.3,2.8c-4.2,0.9-8.6-0.5-12.4,1.7
			c-3.7,2.2-6.2,5.5-8.8,9.1c-0.7-3.1,3.8-12.5,6.5-14.1c1.1,0.8-0.3,1.9,0.6,3.1c7.7-2.8,14.4-7.5,20.8-12.4
			c1.2,1.4-0.2,2.3,0.8,3.2c3.1,0,6.3-1.2,9.7-0.8c0,1.9-2.1,1.2-2.8,3.2C108.6,36.8,110.3,36.9,110.4,39.1z"/>
	</g>
</g>
</svg>
