<?xml version="1.0" encoding="utf-8"?>
<!-- Generator: Adobe Illustrator 25.2.1, SVG Export Plug-In . SVG Version: 6.00 Build 0)  -->
<svg version="1.1" id="Layer_2" xmlns="http://www.w3.org/2000/svg" xmlns:xlink="http://www.w3.org/1999/xlink" x="0px" y="0px"
	 viewBox="0 0 200 200" style="enable-background:new 0 0 200 200;" xml:space="preserve">
<style type="text/css">
	.st0{fill:#659C36;}
	.st1{fill:#61893B;}
	.st2{fill:#F1BE45;}
	.st3{opacity:0.5;fill:#E5A82E;}
	.st4{fill:#FFEAE6;}
	.st5{fill:#BF2D19;}
	.st6{clip-path:url(#SVGID_2_);}
	.st7{fill:#E97866;}
	.st8{clip-path:url(#SVGID_4_);}
	.st9{clip-path:url(#SVGID_6_);}
	.st10{clip-path:url(#SVGID_8_);}
	.st11{clip-path:url(#SVGID_10_);}
	.st12{clip-path:url(#SVGID_12_);}
	.st13{clip-path:url(#SVGID_14_);}
	.st14{clip-path:url(#SVGID_16_);}
	.st15{opacity:0.32;}
	.st16{fill:#FFFFFF;}
	.st17{opacity:0.34;}
	.st18{opacity:0.43;}
	.st19{clip-path:url(#SVGID_18_);}
	.st20{clip-path:url(#SVGID_20_);}
	.st21{clip-path:url(#SVGID_22_);}
	.st22{clip-path:url(#SVGID_24_);}
	.st23{clip-path:url(#SVGID_26_);}
	.st24{clip-path:url(#SVGID_28_);}
	.st25{clip-path:url(#SVGID_30_);}
	.st26{clip-path:url(#SVGID_32_);}
</style>
<g>
	<g>
		<path class="st0" d="M12,46.7c3,1.9,6.4,1.4,9.4,2.3C30.3,51.4,38.4,55.3,45,62c0.8,0.8,1.4,1.8,2.1,2.7c3.1,4.3,1.6,0.8,3.6,0.9
			c0.3,0,2.8,4.1,2.1,10.7c-0.2,1.2-0.7,2.2-2.3,1.6c-1.2-0.5-1.8-1.2-1.1-2.6c0.8-1.7,1.2-3.5,0.1-5.5c-1.7,0.6-2.5,2.1-4,2.8
			c-6.8,3.3-13.1,1.1-19.1-2.6c-5.7-3.4-9.9-8.3-12.3-14.6c-0.8-2.1-2-4.1-2.7-6.3C11.1,48.1,11,47.4,12,46.7z"/>
	</g>
	<g>
		<path class="st1" d="M19.7,49.1c-0.6,7.8,4.9,10.7,10,14.2c1.1-1.6-0.5-2.8,0.1-4.4c2.5,2.7,3.4,6.5,6.7,8.2
			c3.2,1.7,6.7,2.1,10.4,2.4c-1.9,1.9-10.7,2.7-13,1.4c0.1-1.2,1.5-0.6,2-1.8c-5.4-4.4-11.7-7.2-18.1-9.7c0.4-1.5,1.7-0.8,2-2
			c-1.4-2.2-3.6-4-4.8-6.6c1.4-0.8,1.8,1,3.5,0.7C18.9,51.4,18.2,50.1,19.7,49.1z"/>
	</g>
</g>
<g>
	<g>
		<path class="st2" d="M120.5,113.8c0-15.3,6.7-27.8,16.1-39.2c7.6-9.1,16.5-16.5,27.9-20.5c12.2-4.3,22.8-2.1,32.5,6.4
			c13.4,11.7,20.9,26.2,21.1,44c0.2,25.4-17.7,45.8-41.2,49.3c-16.9,2.5-32-2.1-44.8-13C124.7,134.4,120.6,128.4,120.5,113.8z
			 M198.5,81c0-1.2,0-2.5,0-3.7c-0.5-13-10-22.1-23-22c-7.1,0.1-13.4,2.7-19.3,6.3c-19.5,11.9-30.5,29.5-33.6,51.7
			c-2.5,17.8,11,30.7,29.1,26.4c12-2.9,21.5-9.7,29.3-18.8C190.9,109.5,197.6,96.4,198.5,81z"/>
	</g>
	<g>
		<path class="st3" d="M120.5,113.8c0-15.3,6.7-27.8,16.1-39.2c7.6-9.1,16.5-16.5,27.9-20.5c12.2-4.3,22.8-2.1,32.5,6.4
			c13.4,11.7,20.9,26.2,21.1,44c0.2,25.4-17.7,45.8-41.2,49.3c-16.9,2.5-32-2.1-44.8-13C124.7,134.4,120.6,128.4,120.5,113.8z
			 M207.8,84.7c-3.4-24.1-19.3-29.6-32.3-29.5c-7.1,0.1-13.4,2.7-19.3,6.3c-19.5,11.9-30.5,29.5-33.6,51.7
			c-2.5,17.8,12.7,31.8,30,35.2s35.3-4.7,43.1-13.8C205.6,123.3,211.2,108.9,207.8,84.7z"/>
	</g>
	<g>
		<path class="st4" d="M121.3,116.1c0.4-10.3,3.1-20.1,8.2-29c7.7-13.4,18-24.3,32.5-30.5c8.9-3.8,17.9-4.9,26.9-0.3
			c9.7,4.8,13.2,18.5,12.3,27.5c-1.2,12.3-5.9,23.4-13.1,33.4c-9.6,13.4-22.1,23.1-38.8,25.6c-14.2,2.2-26.6-7.2-28.1-23.3
			C121.2,118.3,121.3,117.2,121.3,116.1z"/>
	</g>
	<g>
		<path id="Path_14786_6_" class="st5" d="M158.7,91.7c3.7-0.1,5.6-7.8,6.3-10.2c2.3-7.2,6.4-14.2,9.3-21.3c0.3-0.9,0.7-1.8,0.5-2.4
			c-0.2-1.1-1.4-1.4-2.5-1.5c-7.7-1-17,2.7-24.4,9.1c-0.3,0.2-1,1-1.2,1.5c-0.1,0.4,0,0.6,0.2,1c2.4,5.5,5.4,10.5,7.8,16
			C155.3,85.6,156.7,91.9,158.7,91.7z"/>
		<path id="Path_14787_6_" class="st5" d="M164.2,89.6c0.8,3.3,6.4-1.2,8.2-2.6c5.2-3.9,10.8-5.9,16.3-9.1c0.6-0.2,1.1-0.7,1.6-1.4
			c0.5-1,0.7-2.4,0.5-3.6c-0.9-7.9-5.3-13.6-11.1-15.1c-0.2-0.1-0.5,0-0.7,0.2c-0.3,0.2-0.5,0.6-0.6,1c-3.2,6.9-6.4,13.8-9.6,20.7
			C167.9,81.5,163.9,87.9,164.2,89.6z"/>
		<path id="Path_14788_6_" class="st5" d="M167,95.4c-1.9,4.4,4.5,4.9,6.4,5.1c5.6,1,10.2,4.4,15.5,6c0.7,0.2,1.3,0.2,2,0
			c1.1-0.7,2-1.8,2.6-3.2c4.6-9.4,5.8-19.5,3.3-26.7c-0.2-0.2-0.2-0.6-0.5-0.6c-0.4-0.1-0.8,0-1.1,0.3c-6.4,4.2-12.8,8.2-19.2,12.5
			C174.4,89.8,167.8,93,167,95.4z"/>
		<path id="Path_14789_6_" class="st5" d="M153.2,102c1.9-4.6-4.1-5.1-5.8-5.6c-5.1-1.2-8.7-4.9-13.5-7c-1.1-0.4-2.1-0.6-3.2-0.5
			c-1,0.5-1.7,2.3-2.4,3.6c-4.8,9.8-5.6,20.9-3.5,28.8c0,0.2,0,0.6,0.3,0.6c0.4,0.1,0.8,0,1.1-0.3c6.1-4.2,12.2-8.6,18.3-12.8
			C145.9,107.8,152.2,104.6,153.2,102z"/>
		<path id="Path_14790_6_" class="st5" d="M156.9,105.3c-1.4-3.1-8,2.7-10.1,4.4c-6.4,5.1-13.1,8.1-19.7,12.5
			c-0.7,0.5-1.4,1.1-1.9,1.9c-0.6,1-0.7,2.5-0.3,3.6c2.2,7.4,8.2,12,15.9,12.1c0.3,0,0.6-0.1,0.9-0.3c0.3-0.3,0.6-0.7,0.7-1.1
			c3.3-7.3,6.5-14.6,9.9-22C153.2,114.3,157.4,107.1,156.9,105.3z"/>
		<path id="Path_14791_6_" class="st5" d="M160.8,106.2c-3.8-0.1-5.3,7.5-6,9.7c-2,7-5.9,13.7-8.5,20.6c-0.3,0.6-0.5,1.4-0.4,2.2
			c0.4,1,1.6,1.3,2.7,1.5c8.7,0.7,17.3-2.2,24.8-8.5c0.3-0.3,0.5-0.6,0.7-0.9c0.1-0.4,0-0.8-0.2-1c-2.7-5.3-5.6-10.7-8.4-16
			C164.6,112.2,162.9,106.2,160.8,106.2z"/>
		<path id="Path_14793_6_" class="st5" d="M152.2,96.4c4.2,0.9,4.3-0.5,4.3-4c-0.8-4.2-11-22.8-12-23.3c-0.9-0.5-12.1,13.5-12,16
			C132.6,87.8,148,95.5,152.2,96.4z"/>
		<path id="Path_14794_6_" class="st5" d="M189.4,111.1c0.4-2.2-6-4.5-10.3-6.3c-4.4-1.9-7.7-1.6-10.9-3.6c-3.2-2-4.2,2.3-4.7,3.6
			c-0.6,1.3,11.6,24.6,12.8,24.3C178.7,128.5,188.8,113.3,189.4,111.1z"/>
		<g id="Group_891_6_" transform="translate(26.954 5.466)">
			<g>
				<defs>
					<path id="SVGID_1_" d="M131.1,86.8c3.3-0.1,5.1-7.2,5.7-9.4c2-6.7,5.8-13.1,8.4-19.7c0.2-0.8,0.6-1.6,0.5-2.2
						c-0.2-1-1.3-1.3-2.3-1.4c-7-0.9-15.4,2.4-22.1,8.4c-0.3,0.2-0.5,0.5-0.7,0.9c-0.1,0.4,0,0.6,0.2,1c2.2,5.1,4.5,10.2,6.7,15.3
						C128,81.2,129.3,87,131.1,86.8z"/>
				</defs>
				<clipPath id="SVGID_2_">
					<use xlink:href="#SVGID_1_"  style="overflow:visible;"/>
				</clipPath>
				<g id="Group_890_6_" class="st6">
					<path id="Path_14795_6_" class="st7" d="M134.1,85.1c0.4,0.2,0.6,0.9,0.6,1.3c-3.9,7.7-9.1-9.6-10.2-12.4
						c-1.3-3.2-4.6-9.2-3.8-13.2c0.7-3.6,4.1-4.5,6.3-5.5c3.6-1.7,7.4-2.9,11.2-3.4c2.8-0.5,6.5-1.2,8.5,2.4
						c1.5,2.8,0.8,5.8-0.7,8.1c-2.5,3.6-4.8,7.5-6.8,11.7c-0.4,0.8-4.6,11.5-4.6,10.5c-0.1-5.1,4.8-18.6,7.1-22.5
						c0.3-0.4,1.7-2.7,1.7-3.3c-0.1-1.8-2-1.2-2.8-1.1c-2.3,0.1-4.6,0.5-6.9,1.2c-2.1,0.6-4.1,1.4-6.1,2.4c-0.7,0.2-1.3,0.6-1.9,1
						c-1.1,0.3-1.1,0.7-0.2,1.6c0.4,1.8,1,3.5,1.8,5.1c1,2.9,1.8,5.7,2.8,8.6C130.8,80.5,131.4,84.4,134.1,85.1L134.1,85.1z"/>
				</g>
			</g>
		</g>
		<g id="Group_893_6_" transform="translate(12.784 6.734)">
			<g>
				<defs>
					<path id="SVGID_3_" d="M149.9,85c1.4,3.1,8-2.5,10.1-4.1c6.2-4.8,13.1-7.8,19.7-12.1c0.7-0.3,1.4-0.9,1.9-1.7
						c0.5-1.1,0.6-2.4,0.3-3.6c-1.9-7.5-7.9-12.2-15.5-12.6c-0.3,0-0.6,0.1-0.9,0.3c-0.3,0.3-0.6,0.7-0.7,1.1
						c-3.3,7.3-6.8,14.7-10.2,22C153.8,76.4,149.3,83.4,149.9,85z"/>
				</defs>
				<clipPath id="SVGID_4_">
					<use xlink:href="#SVGID_3_"  style="overflow:visible;"/>
				</clipPath>
				<g id="Group_892_6_" class="st8">
					<path id="Path_14797_6_" class="st7" d="M150.3,85.8c-0.4,0.7-0.7-1-0.6-2.1c0.6-4.5,2.8-7.9,5-11.3c2.5-4.4,4.8-9.1,6.7-14
						c1.2-3.1,3-8.1,5.9-8.8c2.6-0.7,5.6,1.8,7.7,3.5c3.5,3.3,10.5,10.9,6,17.3c-2.2,3.2-6.6,3.8-9.4,5.4c-4,2.1-14.7,9.7-19,10.5
						c-1.5,0.1-3.5,1-2.5-0.6c3.3-5,15.9-13.2,20.4-15.5c1.6-0.9,3.1-1.9,4.6-3c1.8-1.2,2.7-1.1,1.8-3.6s-4.2-5.1-5.8-6.5
						c-1.3-0.9-2.2-2.1-3.6-1.1c-0.9,0.5-2.1,4-2.7,5.1c-1.2,3.1-2.5,6.2-4,9.1c-2.8,5.3-6,10.1-9.6,14.3L150.3,85.8z"/>
				</g>
			</g>
		</g>
		<g id="Group_895_6_" transform="translate(10.867 17.208)">
			<g>
				<defs>
					<path id="SVGID_5_" d="M154.7,78.5c-1.8,4.1,4.1,4.5,5.8,4.8c5,0.9,9.2,4,14,5.6c0.6,0.2,1.2,0.2,1.8,0c1-0.7,1.8-1.7,2.4-3
						c4.2-8.7,5.3-18,3-24.7c-0.1-0.2-0.2-0.6-0.4-0.5c-0.3-0.1-0.7,0-1,0.3c-5.8,3.9-11.6,7.6-17.4,11.5
						C161.4,73.3,155.4,76.2,154.7,78.5z"/>
				</defs>
				<clipPath id="SVGID_6_">
					<use xlink:href="#SVGID_5_"  style="overflow:visible;"/>
				</clipPath>
				<g id="Group_894_6_" class="st9">
					<path id="Path_14799_6_" class="st7" d="M159.2,77.5c0,0.4-0.1,0.4-0.2,0.6c0.1,2.2,2.9,2.9,4.3,3.5c3,1.6,5.8,3.4,8.8,4.8
						c2,1.2,4.4,0.2,5.6-2.4c1.1-1.7,1.9-3.8,2.4-6c0.9-3.6,0.6-12.9,2-16.2c0.8-1.8,2.6,3.9,3,5.7c1.4,5.1-0.8,13.9-2.8,18.2
						c-2.2,4.7-5.8,8.6-9.9,6.9c-2.6-1.3-5.2-2.8-7.8-4.5c-2.2-1.5-4.8-2.5-6.7-4.4c-1.8-1.9-2.8-6.6,0.2-7.3c0.4-0.1,0.8,0.2,1,0.7
						C159.1,77.2,159.2,77.4,159.2,77.5L159.2,77.5z"/>
				</g>
			</g>
		</g>
		<g id="Group_897_6_" transform="translate(43.876 20.706)">
			<g>
				<defs>
					<path id="SVGID_7_" d="M109.2,81.1c1.7-4.3-3.7-4.8-5.2-5.2c-4.6-1.1-7.9-4.6-12.3-6.5c-1-0.4-1.9-0.6-2.9-0.5
						c-0.9,0.5-1.6,2.1-2.2,3.4c-4.3,9.1-5.1,19.4-3.2,26.7c0,0.2,0,0.6,0.3,0.6c0.3,0.1,0.7,0,1-0.3c5.5-3.9,11-7.9,16.5-11.8
						C102.6,86.4,108.3,83.5,109.2,81.1z"/>
				</defs>
				<clipPath id="SVGID_8_">
					<use xlink:href="#SVGID_7_"  style="overflow:visible;"/>
				</clipPath>
				<g id="Group_896_6_" class="st10">
					<path id="Path_14801_6_" class="st7" d="M88.3,68.9c0.1,0,0.4,0.2,0.3,0.4c-0.4,4.4-2.4,7.9-3.2,12.1
						c-0.4,2.4-1.8,12.6,0.5,13.3c1,0.5,4.6-2.6,5.4-3.3c1.7-1.5,3.5-2.9,5.4-4.1c3.1-1.9,9.8-3.7,9.8-9.6c0-0.3,0.1-0.7,0.2-1
						c0.4-1.2,1.5-1.7,2.3-1c2,1.6,2.3,4.5,1.5,7.3c-1.1,3.5-3.8,4.7-6.1,5.9c-3.6,1.7-7.1,3.7-10.4,6.1c-2.4,2-5.6,5.1-8.4,5.3
						c-4.7,0.4-4.1-11.2-3.8-15.4C82.3,79.3,84,70.7,88.3,68.9L88.3,68.9z"/>
				</g>
			</g>
		</g>
		<g id="Group_899_6_" transform="translate(41.613 30.142)">
			<g>
				<defs>
					<path id="SVGID_9_" d="M114.8,75.6c-1.2-2.7-7.2,2.4-9.1,3.9c-5.8,4.6-11.9,7.2-17.8,11.2c-0.6,0.4-1.2,1-1.7,1.7
						c-0.5,0.9-0.6,2.2-0.3,3.3c2,6.7,7.4,10.8,14.4,10.9c0.3,0,0.6-0.1,0.8-0.3c0.3-0.2,0.5-0.6,0.6-1c3-6.6,5.9-13.2,8.9-19.7
						C111.4,83.7,115.3,77.3,114.8,75.6z"/>
				</defs>
				<clipPath id="SVGID_10_">
					<use xlink:href="#SVGID_9_"  style="overflow:visible;"/>
				</clipPath>
				<g id="Group_898_6_" class="st11">
					<path id="Path_14803_6_" class="st7" d="M88.1,90c0.4-0.2,1.8-1.1,1.6-0.5c-0.2,1.4-2.1,2.5-2.5,3.7s-0.4,1.2,0.3,2.6
						c0.6,1,1.2,1.9,1.9,2.7c2.7,3.4,6.9,7.6,10,3.4c2.7-3.7,5-8.7,7.3-12.9c2-3.8,6-8.2,4.7-13.2c-0.3-1.1-0.4-1.9,0.5-1.8
						c1.9,0.2,3.4,2.4,3.3,5c0.2,4-1.9,7.1-3.4,10.1c-2,4-4.1,8-6.2,11.9c-1.7,3-3.6,6.5-6.1,8c-4.6,2.7-10.4-3.6-13.2-8.1
						c-1.1-1.8-2.9-4.7-2.3-7.2C84.6,90.9,86.7,91.1,88.1,90L88.1,90z"/>
				</g>
			</g>
		</g>
		<g id="Group_901_6_" transform="translate(29.952 31.346)">
			<g>
				<defs>
					<path id="SVGID_11_" d="M130,75.5c-3.5,0-4.8,6.7-5.4,8.6c-1.8,6.2-5.4,12.2-7.8,18.3c-0.3,0.6-0.4,1.2-0.3,1.9
						c0.3,0.9,1.4,1.2,2.4,1.3c7.9,0.6,15.7-2,22.4-7.6c0.2-0.2,0.5-0.5,0.7-0.8c0.1-0.3,0-0.7-0.2-0.9c-2.5-4.7-5-9.5-7.6-14.2
						C133.5,80.9,132,75.6,130,75.5z"/>
				</defs>
				<clipPath id="SVGID_12_">
					<use xlink:href="#SVGID_11_"  style="overflow:visible;"/>
				</clipPath>
				<g id="Group_900_6_" class="st12">
					<path id="Path_14805_6_" class="st7" d="M129.8,78.4c-0.7,0.6-1.7-0.8-1.2-1.6c2.2-4.2,5.2-1.2,6.9,1.8c2.1,3.8,4,7.9,5.8,11.9
						c0.9,2.2,3,5,2.6,7.9c-0.8,6.1-7.5,5.6-10.7,6.5c-2.7,0.8-5.2,2.4-7.8,3c-2.4,0.4-4.8,0.3-7.1-0.3c0,0-0.1,0-0.1,0
						c-1.1-0.4-1.6-2-1.3-3.4c0-0.2,0.1-0.2,0.1-0.4c0,0,0,0,0,0c0.3-1.4,1.4-2.3,2.4-1.9l0.1,0c3,1,6.2,0.7,9.1-1.1
						c2.3-0.9,4.7-1.6,7.1-2c0.8-0.1,1.7-0.3,2.5-0.6c0.9-1.4,0.9-2.5,0-3.6c-0.5-1.5-1.4-3.1-2-4.5
						C135.6,88.4,131.7,76.9,129.8,78.4L129.8,78.4z"/>
				</g>
			</g>
		</g>
		<g id="Group_903_6_" transform="translate(41.525 10.975)">
			<g>
				<defs>
					<path id="SVGID_13_" d="M110.6,85.6c3.8,0.8,3.8-1.7,3.9-3.7c-0.1-1.4-10-21.1-10.9-21.6S92.6,72.7,92.7,75.1
						C92.9,77.6,106.8,84.8,110.6,85.6z"/>
				</defs>
				<clipPath id="SVGID_14_">
					<use xlink:href="#SVGID_13_"  style="overflow:visible;"/>
				</clipPath>
				<g id="Group_902_6_" class="st13">
					<path id="Path_14807_6_" class="st7" d="M95.3,66C95.2,66,95.2,66,95.3,66c0.5-4.2,4.2-8.1,6.9-9.3c2.3-1,3.8,0.8,5,3.5
						c1.2,2.6,2.3,5.7,3.6,8.5c1.2,2.6,3,5.2,3.9,8.3c1,3.3,0,7.1-2.2,8.7c-1.3,0.9-1.6-1.8-1-3.6c1.3-4.7-1.3-6.6-3-10
						c-1.2-2.4-2.6-4.5-3.7-7.1c-0.3-0.8-0.7-3.1-1.3-3.4c-1.2-0.9-3,0.9-4,1.6C98.2,64.2,97,65.7,95.3,66L95.3,66z"/>
				</g>
			</g>
		</g>
		<g id="Group_905_6_" transform="translate(18.118 28.754)">
			<g>
				<defs>
					<path id="SVGID_15_" d="M167.8,82.1c0.3-1.9-5.2-4.1-8.8-5.6c-3.8-1.7-6.6-1.5-9.4-3.3c-2.7-1.8-3.6,2-4.1,3.2
						c-0.5,1.2,10,22,11,21.7C158.6,97.6,167.3,84,167.8,82.1z"/>
				</defs>
				<clipPath id="SVGID_16_">
					<use xlink:href="#SVGID_15_"  style="overflow:visible;"/>
				</clipPath>
				<g id="Group_904_6_" class="st14">
					<path id="Path_14809_6_" class="st7" d="M147.9,70.9c0.3,0.4,0.3,0.9-0.1,0.8c-1.8,1.3,6.3,18.4,8.3,19c2,0.8,5.1-5.8,6.1-7.6
						c1.3-2.4,2-4.4,4-5.3c0.9-0.5,1.5,0.8,1.5,1.8c0.4,5.3-5.2,12.8-7.9,15.6c-2.9,2.9-5.5,1.3-7.7-2.1c-3.3-4.7-5.6-10.6-6.8-17
						C144.8,73.2,145.4,68.2,147.9,70.9L147.9,70.9z"/>
				</g>
			</g>
		</g>
	</g>
	<g id="Group_908_7_" transform="translate(44.077 40.775)" class="st15">
		<path id="Path_14812_7_" class="st16" d="M123,86.7c-0.8-3.5-1.4-7-1.7-10.6c0-0.5,0.6-0.6,0.7-0.2c1.4,3.4,1.9,7.1,1.5,10.8
			C123.4,86.8,123,86.9,123,86.7z"/>
	</g>
	<g id="Group_909_7_" transform="translate(43.204 41.418)" class="st17">
		<path id="Path_14813_7_" class="st16" d="M125.8,79.5c-0.8-1.3-1.5-2.8-1.8-4.3c-0.1-0.4,0.3-0.5,0.5-0.2c1,1.2,1.8,2.6,2.3,4.1
			c0.6,1.4,1,2.9,1.2,4.4C127.1,82.3,126.3,81,125.8,79.5z"/>
	</g>
	<g id="Group_910_6_" transform="translate(37.031 37.762)" class="st18">
		<path id="Path_14814_6_" class="st16" d="M131.4,70.2c-0.1-0.1,0-0.2,0.1-0.1c2.6,1.6,5.5,2.6,8,4.3c0.4,0.1,0,0.7-0.4,0.6
			C136.1,74.2,133.8,72.2,131.4,70.2L131.4,70.2z"/>
	</g>
	<g id="Group_911_6_" transform="translate(25.142 34.153)">
		<path id="Path_14815_6_" class="st16" d="M150.1,60.2c3,0,6-0.8,9-0.7c0.2,0,0.5,0.5,0.1,0.6c-2.7,1.1-6,0.8-9,0.5
			C149.9,60.6,150,60.3,150.1,60.2z"/>
	</g>
	<g id="Group_912_6_" transform="translate(24.132 33.208)" class="st15">
		<path id="Path_14816_6_" class="st16" d="M158.7,56.6c0.2,0,0.2,0.3,0.1,0.4c-2.2,1-4.6,1.6-7.1,1.8
			C154,58.1,156.4,57.1,158.7,56.6z"/>
	</g>
	<g id="Group_913_6_" transform="translate(18.285 26.319)" class="st17">
		<path id="Path_14817_6_" class="st16" d="M155.3,53.5c2.6-1.4,5.4-3.4,8.3-4.2c0.1-0.1,0.5,0.3,0.2,0.5c-2.4,1.9-5.6,3-8.3,4.2
			C155.3,54,155.1,53.7,155.3,53.5z"/>
	</g>
	<g id="Group_914_6_" transform="translate(17.006 24.081)" class="st15">
		<path id="Path_14818_6_" class="st16" d="M156.8,52.1C156.7,52.2,156.6,52.1,156.8,52.1c1.7-2.1,3.6-4.2,5.5-6.1
			c0.3-0.2,0.6-0.1,0.5,0.3C161.3,48.7,159.2,50.7,156.8,52.1L156.8,52.1z"/>
	</g>
	<g id="Group_915_6_" transform="translate(17.492 22.178)">
		<path id="Path_14819_6_" class="st16" d="M156.6,49.4c0.9-1.2,1.9-2.3,3-3.3c0.1-0.1,0.4,0.1,0.2,0.3c-0.8,1.2-1.8,2.4-2.7,3.6
			C156.8,50.2,156.4,49.8,156.6,49.4z"/>
	</g>
	<g id="Group_918_6_" transform="translate(37.608 12.096)">
		<path id="Path_14822_6_" class="st16" d="M110.6,71.7c-1.8-1.6-4.1-3.6-4.4-6.2c-0.1-0.4,0.3-0.5,0.5-0.2c0.7,1,1.4,2,2,3
			c0.7,1.1,1.4,2.1,2.2,3C111.3,71.8,110.9,72.1,110.6,71.7z"/>
	</g>
	<g id="Group_919_6_" transform="translate(50.164 16.981)" class="st15">
		<path id="Path_14823_6_" class="st16" d="M79.6,83.1c1.5-0.2,2.6-0.9,3.8-1.1c1.2-0.5,2.6-0.6,3.9-0.3c0.5,0,0.8,0.9,0.2,1
			c-1.3,0.3-2.8,0.4-4.3,0.6C82,83.6,80.8,83.5,79.6,83.1L79.6,83.1z"/>
	</g>
	<g id="Group_920_6_" transform="translate(53.314 24.976)">
		<path id="Path_14824_6_" class="st16" d="M79.2,88.9c2.4-2,5.2-3.5,8.2-4.4c0.2,0,0.5,0.3,0.2,0.5c-2.5,1.9-5.3,3.3-8.3,4.2
			C79.2,89.4,79.1,89.2,79.2,88.9z"/>
	</g>
	<g id="Group_921_6_" transform="translate(50.461 27.389)" class="st17">
		<path id="Path_14825_6_" class="st16" d="M95.3,81.3c0.4-0.1,0.5,0.3,0.3,0.4c-1.8,2.6-5.3,4.1-8.2,5.1
			C90,85.1,92.4,82.7,95.3,81.3z"/>
	</g>
	<g id="Group_922_7_" transform="translate(53.246 37.817)" class="st17">
		<path id="Path_14826_7_" class="st16" d="M96.9,96C96.9,96,96.9,96,96.9,96c-0.1,0.2-0.2,0.2-0.3,0.1c-0.1-0.1-0.1-0.2-0.1-0.3
			c0.2-2,0.8-3.9,1.2-5.8c0.3-1.7,0.6-3.4,1.1-5.1c0-0.1,0.1-0.2,0.3-0.2c0.2,0,0.4,0.1,0.4,0.3C99.6,88.7,98.7,92.6,96.9,96
			L96.9,96z"/>
	</g>
	<g id="Group_923_7_" transform="translate(54.365 40.949)">
		<path id="Path_14827_7_" class="st16" d="M99,93.1c-0.1,0.4-0.5,0.2-0.5,0c0.3-1.2,0.6-2.4,0.7-3.6c0.1-1.1,0.3-2.2,0.5-3.2
			c0-0.2,0.5-0.2,0.5,0C100.4,88.6,99.9,91,99,93.1L99,93.1z"/>
	</g>
	<ellipse class="st3" cx="201.6" cy="107.1" rx="1.2" ry="2.4"/>
	<ellipse class="st3" cx="197" cy="110.7" rx="2.2" ry="3.5"/>
	<ellipse class="st3" cx="192.3" cy="133.1" rx="1" ry="1.2"/>
	<ellipse transform="matrix(0.5348 -0.845 0.845 0.5348 -30.4849 215.5138)" class="st3" cx="180.5" cy="135.4" rx="2.4" ry="1"/>
	
		<ellipse transform="matrix(0.9966 -8.229684e-02 8.229684e-02 0.9966 -11.3474 14.7647)" class="st3" cx="173.4" cy="145" rx="0.6" ry="0.8"/>
	
		<ellipse transform="matrix(0.9966 -8.229684e-02 8.229684e-02 0.9966 -10.6348 14.9766)" class="st3" cx="176.4" cy="136.5" rx="0.6" ry="0.8"/>
	
		<ellipse transform="matrix(0.9966 -8.229684e-02 8.229684e-02 0.9966 -11.2785 13.5418)" class="st3" cx="158.6" cy="143.6" rx="0.6" ry="0.8"/>
	<ellipse class="st3" cx="201.9" cy="98.2" rx="1" ry="1.2"/>
	<ellipse class="st3" cx="204.8" cy="89.6" rx="0.3" ry="0.3"/>
</g>
<g>
	<g>
		<path class="st2" d="M84.8,101.4c-5,16.1-15.3,28.1-30.9,35c-21.7,9.6-47.7,1.9-61.1-19.6C-16.7,101.7-18,85.4-13,68.3
			C-9.3,56-1.6,48.5,11,45.6c11.8-2.7,23.3-1.3,34.5,2.4c14,4.6,26.4,11.6,34.6,24.5C87.9,84.8,87.7,92.1,84.8,101.4z M32.9,110.8
			c11.5,3.5,23.2,4.2,34.8,0.2c17.5-6,22-24.2,10.4-37.9C63.7,56.1,44.9,47,22.1,47.4c-6.9,0.1-13.7,1.2-19.7,5
			c-11,6.8-14.1,19.6-7.6,30.9c0.6,1.1,1.3,2.1,2,3.1C5.8,99,18.4,106.5,32.9,110.8z"/>
	</g>
	<g>
		<path class="st3" d="M84.8,101.4c-5,16.1-15.3,28.1-30.9,35c-21.7,9.6-47.7,1.9-61.1-19.6C-16.7,101.7-18,85.4-13,68.3
			C-9.3,56-1.6,48.5,11,45.6c11.8-2.7,23.3-1.3,34.5,2.4c14,4.6,26.4,11.6,34.6,24.5C87.9,84.8,87.7,92.1,84.8,101.4z M27.9,130.3
			c11.5,3.5,31.1,0.7,43.8-11.4s18.1-32.1,6.5-45.8C63.7,56.1,44.9,47,22.1,47.4c-6.9,0.1-13.7,1.2-19.7,5
			c-11,6.8-21.5,19.9-11.5,42.2S13.4,126,27.9,130.3z"/>
	</g>
	<g>
		<path class="st4" d="M80.8,74.8c-5.9-8.5-13.4-15.3-22.5-20.1c-13.7-7.2-28.2-10.9-43.8-8.4C5,47.8-3.2,51.8-8.4,60.4
			c-5.6,9.2-1.2,22.7,4.3,29.8c7.6,9.8,17.5,16.6,28.9,21.2c15.3,6.2,31,7.7,46.5,0.9c13.2-5.8,18.6-20.3,11.3-34.7
			C82,76.6,81.4,75.7,80.8,74.8z"/>
	</g>
	<g>
		<path id="Path_14786_5_" class="st5" d="M35.4,65.5c-0.9-5.9-1-11.8-1.9-17.7c-0.1-0.4,0-0.7-0.4-1c-0.4-0.3-1.4-0.6-1.8-0.6
			c-9.7-1.5-19.5,0.4-25.5,5.4c-0.9,0.7-1.7,1.6-1.3,2.6c0.2,0.6,1,1.1,1.7,1.7c6.2,4.4,13.4,8.1,19.2,13c1.8,1.7,7.6,7.1,10.7,5.2
			C37.9,73.3,35.7,67.3,35.4,65.5z"/>
		<path id="Path_14787_5_" class="st5" d="M21.2,69.3C14.9,65.2,8.4,61.1,2,57c-0.4-0.3-0.8-0.5-1.1-0.5c-0.3,0-0.5,0.1-0.7,0.3
			c-4.1,4.4-4.7,11.6-1.3,18.7c0.5,1.2,1.4,2.2,2.4,2.8c0.8,0.3,1.5,0.4,2.1,0.3c6.3-0.2,12.1-1.5,18.6-1c2.2,0.2,9.4,1.1,8.3-2.2
			C29.7,73.7,22.9,70.5,21.2,69.3z"/>
		<path id="Path_14788_5_" class="st5" d="M19.9,81C12.3,80.9,4.7,80.9-3,80.8c-0.4-0.1-0.8,0-1.1,0.3c-0.3,0.1-0.1,0.5-0.1,0.8
			c1.8,7.4,8.2,15.3,17.1,20.7c1.3,0.8,2.6,1.3,3.9,1.3c0.7-0.2,1.2-0.5,1.7-1.1c3.6-4.2,5.7-9.5,9.9-13.3c1.4-1.2,6.7-5,2.6-7.8
			C29.1,80.1,21.8,81,19.9,81z"/>
		<path id="Path_14789_5_" class="st5" d="M57.4,80.9c7.4,0.3,14.9,0.7,22.3,1c0.4,0.1,0.8,0,1.1-0.3c0.3-0.1,0.1-0.5,0-0.7
			c-2.5-7.8-9.2-16.7-18.4-22.5c-1.3-0.8-2.8-1.9-4-1.8c-1,0.5-1.8,1.3-2.5,2.2c-3,4.4-4,9.4-7.7,13.2c-1.2,1.3-6,5-1.9,7.8
			C48.5,81.7,55.5,81,57.4,80.9z"/>
		<path id="Path_14790_5_" class="st5" d="M54.7,91.6c6.7,4.4,13.3,8.9,20.1,13.3c0.4,0.3,0.8,0.5,1.2,0.6c0.3,0,0.7-0.1,0.9-0.2
			c6.4-4.2,9.1-11.3,7-18.7c-0.3-1.2-1.1-2.4-2.2-2.9c-0.9-0.4-1.8-0.6-2.6-0.6c-7.9-0.3-15.2,0.8-23.3,0
			c-2.6-0.3-11.3-1.6-10.8,1.7C45.5,86.5,52.9,90.3,54.7,91.6z"/>
		<path id="Path_14791_5_" class="st5" d="M42.2,96.3c0.4,6,0.9,12.1,1.4,18c-0.1,0.3,0.1,0.7,0.4,1c0.4,0.2,0.7,0.3,1.1,0.4
			c9.6,1.3,18.5-0.8,25.5-6.1c0.9-0.7,1.7-1.6,1.5-2.7c-0.3-0.7-0.8-1.3-1.5-1.6c-5.8-4.4-12.8-8-18.2-12.8c-1.7-1.5-7-7.1-10.2-5
			C40.3,88.7,42.1,94.6,42.2,96.3z"/>
		<path id="Path_14793_5_" class="st5" d="M54.7,54.5c-1.3-2.2-18.2-8.1-18.7-7.1c-0.5,1,0.8,22.2,2.3,26.1c1.8,3,2.7,4.1,5.7,1.1
			C47.2,71.6,56.1,56.9,54.7,54.5z"/>
		<path id="Path_14794_5_" class="st5" d="M41.3,115.2c1.2-0.4-1-26.5-2.2-27.4c-1.2-0.8-4.4-4-5.9-0.5c-1.6,3.4-4.6,4.9-7.3,8.9
			c-2.6,3.7-6.8,9.1-5.3,10.8C22.2,108.6,38.9,116,41.3,115.2z"/>
		<g id="Group_891_5_" transform="translate(26.954 5.466)">
			<g>
				<defs>
					<path id="SVGID_17_" d="M9.3,60.9c-0.9-5.5-1.6-11-2.5-16.5c-0.1-0.4,0-0.6-0.4-0.9c-0.3-0.2-0.7-0.4-1-0.4
						c-8.8-1.5-17.8,0.2-23.2,4.7c-0.8,0.6-1.6,1.5-1.2,2.4c0.2,0.6,0.9,1.1,1.6,1.6c5.7,4.1,12.3,7.6,17.6,12.2
						c1.7,1.6,6.9,6.6,9.8,4.9C11.6,68,9.6,62.5,9.3,60.9z"/>
				</defs>
				<clipPath id="SVGID_18_">
					<use xlink:href="#SVGID_17_"  style="overflow:visible;"/>
				</clipPath>
				<g id="Group_890_5_" class="st19">
					<path id="Path_14795_5_" class="st7" d="M6.6,69c1.9-2,0.3-5.7-0.5-8.8c-0.7-2.9-1.5-5.8-2.3-8.7c-0.2-1.8-0.7-3.5-1.3-5.3
						c0.3-1.2,0.1-1.6-1-1.2c-0.7,0-1.4,0-2.1,0.2c-2.2,0.3-4.4,0.7-6.4,1.3c-2.3,0.6-4.5,1.5-6.5,2.6c-0.7,0.4-2.7,0.9-1.8,2.5
						c0.3,0.5,2.7,1.7,3.2,1.9c4.1,2.1,15.4,10.8,18.1,15.2c0.5,0.9-8.8-5.9-9.5-6.4c-3.9-2.5-8-4.6-12-6.2c-2.6-1.1-4.8-3.3-5-6.5
						c-0.2-4.1,3.3-5.4,5.9-6.5c3.5-1.6,7.3-2.6,11.3-3.1c2.4-0.3,5.8-1.4,8.3,1.3c2.8,3,3.2,9.8,3.8,13.2c0.6,3,5.5,20.3-2,15.9
						C6.6,70.2,6.3,69.4,6.6,69L6.6,69z"/>
				</g>
			</g>
		</g>
		<g id="Group_893_5_" transform="translate(12.784 6.734)">
			<g>
				<defs>
					<path id="SVGID_19_" d="M10.3,63.2C3.6,58.7-3.3,54.4-10,50c-0.4-0.3-0.8-0.5-1.2-0.6c-0.3,0-0.7,0.1-0.9,0.2
						c-6.2,4.3-8.8,11.6-6.4,18.9c0.3,1.2,1.2,2.3,2.2,2.9c0.9,0.3,1.7,0.5,2.5,0.4c7.8,0.1,15.2-1.1,23.1-0.3
						c2.6,0.3,11.2,1.4,10.7-1.9C19.6,67.9,12.1,64.4,10.3,63.2z"/>
				</defs>
				<clipPath id="SVGID_20_">
					<use xlink:href="#SVGID_19_"  style="overflow:visible;"/>
				</clipPath>
				<g id="Group_892_5_" class="st20">
					<path id="Path_14797_5_" class="st7" d="M18.6,69.9c-5.3-1.7-10.6-4-15.8-6.9c-2.8-1.7-5.6-3.5-8.3-5.5c-1.1-0.6-4-3-5-2.9
						c-1.6-0.1-1.8,1.4-2.4,2.9c-0.6,2-2,6-1.5,8.6c0.6,2.6,1.3,2,3.5,2c1.9,0.1,3.7,0.2,5.5,0.1c5-0.4,20.1-0.3,25.6,2.2
						c1.7,0.8-0.4,1.2-1.8,1.8c-4,1.6-17.1,0.9-21.7,1.3c-3.2,0.2-7.3,2-10.8,0.5c-7.2-3-5.4-13.2-4.1-17.8c0.8-2.6,2.1-6.3,4.6-7.1
						c2.8-1,7,2.4,9.7,4.3c4.3,3.2,8.7,5.9,13.2,8.3c3.6,1.7,7.4,3.4,10.3,6.9c0.7,0.9,1.3,2.4,0.6,2.1L18.6,69.9z"/>
				</g>
			</g>
		</g>
		<g id="Group_895_5_" transform="translate(10.867 17.208)">
			<g>
				<defs>
					<path id="SVGID_21_" d="M11.4,63.3c-7-0.2-13.9-0.2-20.8-0.4c-0.4-0.1-0.7,0-1,0.3c-0.2,0.1-0.1,0.5-0.1,0.7
						C-8.8,70.7-2.9,78,5.3,83.1c1.2,0.8,2.4,1.2,3.6,1.3c0.6-0.2,1.1-0.5,1.5-1c3.2-3.8,5.1-8.7,8.9-12.2c1.3-1.1,6-4.6,2.3-7.1
						C19.8,62.5,13.1,63.2,11.4,63.3z"/>
				</defs>
				<clipPath id="SVGID_22_">
					<use xlink:href="#SVGID_21_"  style="overflow:visible;"/>
				</clipPath>
				<g id="Group_894_5_" class="st21">
					<path id="Path_14799_5_" class="st7" d="M17.3,65.7c-0.1-0.2-0.1-0.4-0.2-0.5c-0.1-0.5,0.1-0.9,0.5-1.1
						c2.9-1.1,4.6,3.5,4.1,6.1c-0.6,2.6-2.2,4.9-3.3,7.3c-1.2,2.8-2.6,5.4-4.2,7.9c-2.5,3.6-7.7,2.2-12-0.6C-1.9,82.3-8.5,76-10,71
						c-0.6-1.8-2.1-7.5-0.5-6.4c3,2,7.7,10,10.4,12.6c1.6,1.6,3.4,2.9,5.2,3.8c2.4,1.6,4.9,1.2,6-1c1.8-2.8,3.2-5.8,4.9-8.7
						c0.8-1.2,2.8-3.3,1.7-5.2C17.6,65.9,17.4,66,17.3,65.7L17.3,65.7z"/>
				</g>
			</g>
		</g>
		<g id="Group_897_5_" transform="translate(43.876 20.706)">
			<g>
				<defs>
					<path id="SVGID_23_" d="M12.5,60c6.7,0.3,13.6,0.8,20.3,1.1c0.4,0.1,0.7,0,1-0.3c0.2-0.1,0.1-0.5,0-0.6
						c-2.3-7.2-8.5-15.5-17-20.8c-1.2-0.7-2.6-1.8-3.7-1.7c-0.9,0.5-1.6,1.2-2.2,2c-2.7,4-3.6,8.6-6.9,12.1C3,53-1.4,56.3,2.4,59
						C4.4,60.6,10.8,60,12.5,60z"/>
				</defs>
				<clipPath id="SVGID_24_">
					<use xlink:href="#SVGID_23_"  style="overflow:visible;"/>
				</clipPath>
				<g id="Group_896_5_" class="st22">
					<path id="Path_14801_5_" class="st7" d="M13.5,37.5c4.6-0.8,10.7,5.6,14.1,10.2c2.5,3.3,9.3,12.9,5,15c-2.5,1.3-6.8,0.4-9.9,0
						c-4.1-0.2-8.2-0.1-12.1,0.4c-2.6,0.2-5.6,0.6-8.3-1.7c-2.2-1.9-3.6-4.6-2.7-7c0.4-1,1.5-1.2,2.5-0.4c0.3,0.2,0.5,0.4,0.7,0.7
						c3.2,5,9.8,2.9,13.4,2.8c2.2,0,4.4,0.2,6.7,0.6c1,0.1,5.7,0.8,6.3-0.1c1.5-1.9-5.1-9.7-6.7-11.5c-2.9-3.1-6.5-5-9.2-8.5
						C13.2,37.9,13.4,37.6,13.5,37.5L13.5,37.5z"/>
				</g>
			</g>
		</g>
		<g id="Group_899_5_" transform="translate(41.613 30.142)">
			<g>
				<defs>
					<path id="SVGID_25_" d="M12.7,60.9c6.1,3.9,12,8,18.1,11.9c0.3,0.3,0.7,0.5,1.1,0.5c0.3,0,0.6-0.1,0.8-0.2
						c5.8-3.8,8.3-10.2,6.4-16.9c-0.2-1.1-1-2.1-2-2.6c-0.8-0.3-1.6-0.5-2.4-0.5c-7.1-0.2-13.7,0.8-21.1,0
						c-2.4-0.3-10.2-1.4-9.8,1.6C4.4,56.4,11.1,59.8,12.7,60.9z"/>
				</defs>
				<clipPath id="SVGID_26_">
					<use xlink:href="#SVGID_25_"  style="overflow:visible;"/>
				</clipPath>
				<g id="Group_898_5_" class="st23">
					<path id="Path_14803_5_" class="st7" d="M34.2,52.6c1.8,0.1,3.5-1.1,5.4,0.9c1.8,1.8,1.9,5.2,1.9,7.3
						c0.1,5.3-1.4,13.7-6.8,13.9c-3,0-6.5-1.8-9.5-3.5c-3.9-2.1-7.8-4.4-11.6-6.7c-2.9-1.7-6.3-3.2-8.3-6.7c-1.5-2.2-1.4-4.8,0.1-6
						c0.6-0.5,1,0.1,1.3,1.2c1.5,5,7.2,6.6,11,8.7c4.2,2.3,8.8,5.3,13.1,7c4.9,1.8,6.2-4,6.6-8.3c0.2-1.1,0.2-2.2,0.2-3.3
						c-0.3-1.6-0.3-1.6-1.2-2.4c-0.9-0.8-3.1-0.8-4-1.8C32.1,52.6,33.7,52.6,34.2,52.6L34.2,52.6z"/>
				</g>
			</g>
		</g>
		<g id="Group_901_5_" transform="translate(29.952 31.346)">
			<g>
				<defs>
					<path id="SVGID_27_" d="M13.2,64.2c0.3,5.3,0.7,10.8,1.2,16.1c0,0.3,0.1,0.7,0.3,0.9c0.3,0.2,0.7,0.3,1,0.3
						c8.7,1.1,16.7-0.8,23-5.6c0.8-0.6,1.6-1.4,1.4-2.4c-0.3-0.6-0.8-1.1-1.3-1.4c-5.2-3.9-11.5-7-16.3-11.3
						c-1.6-1.3-6.3-6.3-9.2-4.4C11.6,57.4,13.2,62.7,13.2,64.2z"/>
				</defs>
				<clipPath id="SVGID_28_">
					<use xlink:href="#SVGID_27_"  style="overflow:visible;"/>
				</clipPath>
				<g id="Group_900_5_" class="st24">
					<path id="Path_14805_5_" class="st7" d="M14.9,58.7c-2.4-0.3,0.5,11.6,0.7,13.3c0.3,1.6,0.3,3.4,0.7,4.9
						c-0.2,1.4,0.4,2.3,1.9,3c0.8-0.2,1.7-0.5,2.4-0.8c2.2-1,4.6-1.7,7.1-2.1c3.4-0.1,6.3-1.5,8.3-4l0.1-0.1
						c0.7-0.9,2.1-0.7,3.1,0.3c0,0,0,0,0,0c0.1,0.2,0.2,0.1,0.3,0.3c1.1,1,1.4,2.6,0.7,3.6c0,0,0,0.1-0.1,0.1
						c-1.7,1.7-3.7,3.1-5.9,4c-2.5,0.9-5.4,0.9-8.2,1.6c-3.1,1-8.5,5-12.5,0.2c-1.9-2.2-1.6-5.7-2-8c-0.6-4.4-1.2-8.9-1.4-13.2
						c-0.2-3.5,0.8-7.6,4.9-5.2C15.9,57.1,15.8,58.9,14.9,58.7L14.9,58.7z"/>
				</g>
			</g>
		</g>
		<g id="Group_903_5_" transform="translate(41.525 10.975)">
			<g>
				<defs>
					<path id="SVGID_29_" d="M12.2,45.4c-1.2-2-16.6-7.6-17.1-6.7c-0.5,0.9,1.7,22.9,2.4,24.1c1.1,1.6,2.5,3.8,5.2,1.1
						S13.5,47.6,12.2,45.4z"/>
				</defs>
				<clipPath id="SVGID_30_">
					<use xlink:href="#SVGID_29_"  style="overflow:visible;"/>
				</clipPath>
				<g id="Group_902_5_" class="st25">
					<path id="Path_14807_5_" class="st7" d="M5.2,39.1c-1.6,0.6-3.4-0.1-5.2-0.2c-1.2-0.1-3.7-0.6-4.2,0.8
						c-0.3,0.6,0.6,2.8,0.7,3.6c0.5,2.8,0.4,5.3,0.7,8c0.4,3.8-0.8,6.8,2.8,10c1.5,1.2,2.7,3.7,1.1,3.6c-2.8-0.1-5.7-2.8-6.5-6.1
						c-0.9-3-0.8-6.2-1.2-9.1C-7,46.6-7.7,43.5-8,40.6c-0.4-2.9-0.1-5.2,2.4-5.6C-2.7,34.5,2.5,35.9,5.2,39.1
						C5.3,39.1,5.3,39.1,5.2,39.1L5.2,39.1z"/>
				</g>
			</g>
		</g>
		<g id="Group_905_5_" transform="translate(18.118 28.754)">
			<g>
				<defs>
					<path id="SVGID_31_" d="M23.3,83.7c1-0.3-1.3-23.5-2.3-24.3s-3.8-3.6-5.2-0.6s-3.9,4.3-6.1,7.8c-2.2,3.3-5.7,8-4.4,9.5
						C6.7,77.6,21.3,84.4,23.3,83.7z"/>
				</defs>
				<clipPath id="SVGID_32_">
					<use xlink:href="#SVGID_31_"  style="overflow:visible;"/>
				</clipPath>
				<g id="Group_904_5_" class="st26">
					<path id="Path_14809_5_" class="st7" d="M16,56.1c0.7-3.5,4,0.3,5,2.7c2.4,6.1,3.5,12.3,3.3,18c-0.1,4.1-1.4,6.9-5.4,5.9
						c-3.8-0.8-12.5-4.2-15-8.9c-0.5-0.8-0.7-2.2,0.4-2.3c2.1-0.2,3.8,1.1,6.2,2.4c1.8,1,7.9,4.9,9.2,3.2c1.4-1.6-1-20.3-3.2-20.4
						C16.3,57,16,56.5,16,56.1L16,56.1z"/>
				</g>
			</g>
		</g>
	</g>
	<g id="Group_908_6_" transform="translate(44.077 40.775)" class="st15">
		<path id="Path_14812_6_" class="st16" d="M3.7,68.4c-2.4-2.8-3.9-6.3-4.6-9.9c-0.1-0.4,0.4-0.6,0.7-0.2c1.6,3.2,3.1,6.5,4.2,9.9
			C4.2,68.3,3.8,68.5,3.7,68.4z"/>
	</g>
	<g id="Group_909_6_" transform="translate(43.204 41.418)" class="st17">
		<path id="Path_14813_6_" class="st16" d="M0.1,67.6c-0.6-1.4-1.1-2.9-1.3-4.4c-0.3-1.5-0.4-3.1-0.2-4.7c0.1-0.3,0.4-0.4,0.5-0.1
			c0.5,1.5,0.8,3,0.8,4.6C0.2,64.5,0.3,66,0.1,67.6z"/>
	</g>
	<g id="Group_910_5_" transform="translate(37.031 37.762)" class="st18">
		<path id="Path_14814_5_" class="st16" d="M-0.4,55.4c-1,2.9-1.9,5.9-4,8.1c-0.2,0.3-0.9,0-0.6-0.3c1.2-2.7,3.1-5.2,4.4-7.9
			C-0.6,55.2-0.4,55.2-0.4,55.4L-0.4,55.4z"/>
	</g>
	<g id="Group_911_5_" transform="translate(25.142 34.153)">
		<path id="Path_14815_5_" class="st16" d="M-1.4,51.5c-2.4,1.8-5,3.8-7.8,4.4c-0.4,0.1-0.4-0.4-0.3-0.6c2.5-1.7,5.4-2.5,8-4.2
			C-1.4,51.2-1.2,51.4-1.4,51.5z"/>
	</g>
	<g id="Group_912_5_" transform="translate(24.132 33.208)" class="st15">
		<path id="Path_14816_5_" class="st16" d="M-2.3,50.4c-2.2,1.2-4.5,2-6.9,2.3c-0.2,0-0.3-0.2-0.1-0.4C-7.2,51.5-4.7,51-2.3,50.4z"
			/>
	</g>
	<g id="Group_913_5_" transform="translate(18.285 26.319)" class="st17">
		<path id="Path_14817_5_" class="st16" d="M-1,46.3c-3,0.4-6.2,1.2-9.3,0.9c-0.3-0.1-0.3-0.6-0.1-0.5c2.9-0.9,6.3-0.7,9.3-0.9
			C-0.8,45.9-0.9,46.2-1,46.3z"/>
	</g>
	<g id="Group_914_5_" transform="translate(17.006 24.081)" class="st15">
		<path id="Path_14818_5_" class="st16" d="M-1.9,45.1c-2.8,0.1-5.6-0.5-8.2-1.7c-0.3-0.2-0.1-0.5,0.2-0.5
			C-7.2,43.5-4.5,44.2-1.9,45.1C-1.8,45-1.8,45.1-1.9,45.1L-1.9,45.1z"/>
	</g>
	<g id="Group_915_5_" transform="translate(17.492 22.178)">
		<path id="Path_14819_5_" class="st16" d="M-5.2,43.9c-1.4-0.4-2.8-1-4.2-1.6c-0.2,0-0.1-0.4,0.1-0.3c1.5,0.3,2.9,0.7,4.3,1.2
			C-4.8,43.5-4.9,44-5.2,43.9z"/>
	</g>
	<g id="Group_918_5_" transform="translate(37.608 12.096)">
		<path id="Path_14822_5_" class="st16" d="M2.7,49.7C2.9,48.5,3,47.2,3,46c-0.1-1.2,0-2.4,0.1-3.6c0.1-0.3,0.4-0.4,0.5-0.1
			c1.2,2.3,0.3,5.2-0.4,7.5C3.1,50.3,2.6,50.2,2.7,49.7z"/>
	</g>
	<g id="Group_919_5_" transform="translate(50.164 16.981)" class="st15">
		<path id="Path_14823_5_" class="st16" d="M14.9,48.8c-0.7,1-1.8,1.7-2.9,2.1c-1.3,0.6-2.6,1.3-3.9,1.8c-0.6,0.3-0.8-0.6-0.4-0.9
			c0.9-0.9,2.1-1.6,3.4-1.8C12.2,49.4,13.6,49.5,14.9,48.8L14.9,48.8z"/>
	</g>
	<g id="Group_920_5_" transform="translate(53.314 24.976)">
		<path id="Path_14824_5_" class="st16" d="M16.9,54.3c-3,0.8-6.2,1.1-9.3,0.9c-0.3-0.1-0.3-0.4-0.1-0.5c3-0.8,6.2-1.1,9.3-0.7
			C17.1,54.2,17.1,54.3,16.9,54.3z"/>
	</g>
	<g id="Group_921_5_" transform="translate(50.461 27.389)" class="st17">
		<path id="Path_14825_5_" class="st16" d="M15.3,54.6c-3.1,0.7-6.8,1.3-9.7,0.1c-0.2,0-0.3-0.4,0.1-0.5
			C8.9,53.9,12.2,54.6,15.3,54.6z"/>
	</g>
	<g id="Group_922_6_" transform="translate(53.246 37.817)" class="st17">
		<path id="Path_14826_6_" class="st16" d="M12.6,67.3c-3.4-1.9-6.2-4.6-8.2-7.9c-0.1-0.2,0-0.4,0.2-0.5c0.1,0,0.3,0,0.4,0.1
			c1.3,1.2,2.6,2.4,3.7,3.7c1.3,1.4,2.8,2.7,4.1,4.3c0.1,0,0.1,0.2,0.1,0.3C12.9,67.4,12.8,67.4,12.6,67.3
			C12.7,67.4,12.6,67.4,12.6,67.3L12.6,67.3z"/>
	</g>
	<g id="Group_923_6_" transform="translate(54.365 40.949)">
		<path id="Path_14827_6_" class="st16" d="M8.9,66.2c-1.9-1.3-3.5-3.1-4.7-5.1c-0.1-0.2,0.3-0.5,0.4-0.3c0.8,0.8,1.5,1.6,2.2,2.4
			c0.7,1,1.6,1.9,2.5,2.7C9.5,66.1,9.2,66.4,8.9,66.2L8.9,66.2z"/>
	</g>
	<ellipse transform="matrix(0.8449 -0.5349 0.5349 0.8449 -57.6493 21.4135)" class="st3" cx="8.1" cy="110.1" rx="1.2" ry="2.4"/>
	<ellipse transform="matrix(0.8449 -0.5349 0.5349 0.8449 -57.0744 24.5982)" class="st3" cx="13.9" cy="110.7" rx="2.2" ry="3.5"/>
	<ellipse transform="matrix(0.8449 -0.5349 0.5349 0.8449 -63.3681 35.686)" class="st3" cx="29.9" cy="127.1" rx="1" ry="1.2"/>
	<ellipse transform="matrix(0.4279 -0.9038 0.9038 0.4279 -87.475 107.4131)" class="st3" cx="41.1" cy="122.8" rx="1" ry="2.4"/>
	<ellipse transform="matrix(0.8861 -0.4635 0.4635 0.8861 -52.9846 38.679)" class="st3" cx="52.2" cy="127.1" rx="0.6" ry="0.8"/>
	<ellipse transform="matrix(0.8861 -0.4635 0.4635 0.8861 -51.1682 34.772)" class="st3" cx="45.2" cy="121.5" rx="0.6" ry="0.8"/>
	<ellipse transform="matrix(0.8861 -0.4635 0.4635 0.8861 -47.4119 43.0752)" class="st3" cx="63.9" cy="118" rx="0.6" ry="0.8"/>
	<ellipse transform="matrix(0.8449 -0.5349 0.5349 0.8449 -54.5154 17.5903)" class="st3" cx="3.1" cy="102.8" rx="1" ry="1.2"/>
	<ellipse transform="matrix(0.8449 -0.5349 0.5349 0.8449 -52.5524 12.9588)" class="st3" cx="-3.9" cy="97.1" rx="0.3" ry="0.3"/>
</g>
</svg>
