<?xml version="1.0" encoding="utf-8"?>
<!-- Generator: Adobe Illustrator 25.2.1, SVG Export Plug-In . SVG Version: 6.00 Build 0)  -->
<svg version="1.1" id="Layer_2" xmlns="http://www.w3.org/2000/svg" xmlns:xlink="http://www.w3.org/1999/xlink" x="0px" y="0px"
	 viewBox="0 0 200 200" style="enable-background:new 0 0 200 200;" xml:space="preserve">
<style type="text/css">
	.st0{fill:#642D80;}
	.st1{fill:#F4F4F4;}
	.st2{fill:#863F8F;}
	.st3{opacity:0.6;}
	.st4{fill:#8557A0;}
	.st5{fill-rule:evenodd;clip-rule:evenodd;fill:#722D80;}
	.st6{fill-rule:evenodd;clip-rule:evenodd;fill:#522D6E;}
	.st7{fill-rule:evenodd;clip-rule:evenodd;fill:#983F8F;}
	.st8{fill-rule:evenodd;clip-rule:evenodd;fill:#642D80;}
	.st9{fill-rule:evenodd;clip-rule:evenodd;fill:#4B235F;}
	.st10{fill-rule:evenodd;clip-rule:evenodd;fill:#8557A0;}
	.st11{fill-rule:evenodd;clip-rule:evenodd;fill:#522D58;}
	.st12{opacity:0.5;fill-rule:evenodd;clip-rule:evenodd;fill:#8557A0;}
	.st13{fill-rule:evenodd;clip-rule:evenodd;fill:#863F8F;}
	.st14{opacity:0.5;fill-rule:evenodd;clip-rule:evenodd;fill:#4B235F;}
	.st15{opacity:0.6;fill-rule:evenodd;clip-rule:evenodd;fill:#8557A0;}
	.st16{fill:#4E6B2C;}
	.st17{fill-rule:evenodd;clip-rule:evenodd;fill:#659326;}
	.st18{fill-rule:evenodd;clip-rule:evenodd;fill:#AFF781;}
	.st19{fill-rule:evenodd;clip-rule:evenodd;fill:#5E8238;}
	.st20{fill-rule:evenodd;clip-rule:evenodd;fill:#4E6B2C;}
	.st21{opacity:0.5;fill-rule:evenodd;clip-rule:evenodd;fill:#B87DE2;}
</style>
<g>
	<path class="st0" d="M24.2,123.3c-0.4-0.6-1.8,1.3-1.6,1.9c-0.2-0.6,0.8-2.1,1.4-2.4c-0.3-0.3-0.6-0.8-0.2-1.1
		c0.1-0.1,0.4-0.1,0.5-0.1c0.9,0.2,1.6,1,1.7,1.9c0.1,0.6,1.4,1.4,1.6,1.9c0.3,0.6,0.7,1.1,1.1,1.7c0.6,0.8-0.9,1.4-1.4,2.3
		c-0.5,0.9-0.9,2-0.4,2.8c0.2,0.3,0.5,0.5,0.7,0.8c0.5,0.7,0.1,1.6-0.2,2.4c-0.7,1.5-1.2,3.1-1.5,4.7c0,0.1,0,0.2,0,0.3
		c0.1,0.3,0.4,0.3,0.6,0.5c0.3,0.3,0.3,0.8,0.1,1.2c-0.2,0.4-0.6,0.6-0.9,0.9c-0.9,0.8-1.3,2-1.8,3.1c-0.1,0.1-0.1,0.3-0.1,0.4
		c0,0.2,0.2,0.3,0.4,0.3c0.4,0.2,0.9,0.4,1,0.9c0,0.4-0.3,0.7-0.6,0.8c-0.3,0.1-0.7,0-1.1,0c-0.3-0.1-0.6-0.1-0.8,0
		c-0.3,0.1-0.5,0.5-0.3,0.7c0,0.1,0.1,0.1,0.2,0.2c0.3,0.3,0.5,0.7,0.5,1.1c-0.1,0.4-0.4,0.8-0.8,0.9c-0.5,0.1-1-0.4-1.2-0.9
		c-0.2-0.5-0.1-1.1-0.1-1.6c0-0.5-1.9-1.7-1.9-2.4s2.1,1.9,3.5,0.6c1.7-1.7,3.2-11.7,2.8-15.4C25.1,127.9,24.9,124.3,24.2,123.3z"/>
	<g>
		<path class="st1" d="M24.6,123c-1-1.1-2.7,1.4-2.5,2.4c0.3-0.1,0.6-0.2,1-0.3c-0.2-0.6,0.7-1.6,1.1-1.9c0.3-0.2,0.3-0.5,0.1-0.8
			c-0.2-0.2-0.4-0.3,0-0.3c0.2,0,0.4,0.1,0.5,0.2c0.3,0.2,0.5,0.4,0.6,0.7c0.1,0.2,0.1,0.5,0.2,0.7c0.1,0.3,0.3,0.5,0.5,0.7
			c0.3,0.3,0.8,0.6,1,1c0.2,0.3,0.4,0.7,0.6,1c0.1,0.2,0.6,0.7,0.6,0.9c0,0.4-0.7,0.8-0.9,1.1c-0.4,0.5-0.7,1-0.9,1.6
			c-0.2,0.6-0.3,1.3-0.1,1.9c0.2,0.6,1,1,1.1,1.7c0.1,0.7-0.4,1.6-0.7,2.2c-0.3,0.8-0.6,1.7-0.9,2.6c-0.2,0.6-0.5,1.4-0.4,2
			c0.2,0.7,1.2,0.7,0.6,1.5c-0.4,0.5-0.9,0.8-1.3,1.3c-0.5,0.6-0.8,1.3-1.1,2.1c-0.2,0.6-0.5,1.2,0,1.7c0.2,0.2,0.5,0.2,0.7,0.4
			c0.2,0.1,0.5,0.3,0.1,0.6c-0.2,0.1-0.6,0-0.8,0c-0.6-0.1-1.2-0.1-1.6,0.4c-0.3,0.5-0.2,0.9,0.2,1.3c0.2,0.3,0.6,0.9,0,1.1
			c-0.4,0.2-0.7-0.4-0.8-0.7c-0.1-0.6,0.2-1.3-0.2-1.9c-0.2-0.4-0.6-0.6-0.9-0.9c-0.2-0.2-0.4-0.4-0.6-0.6c0,0-0.1-0.2-0.1-0.2
			c0,0,0-0.1-0.1-0.1c-0.1,0.3-0.3,0.4-0.5,0.4c0.1,0.2,0.7,0.4,0.8,0.5c0.4,0.2,0.8,0.5,1.2,0.6c1.8,0.4,2.5-1.4,3-2.8
			c0.7-2,1.1-4.2,1.3-6.3c0.3-2.2,0.6-4.6,0.4-6.8c-0.1-1.8-0.3-3.6-0.5-5.3c-0.1-1.1-0.2-2.5-0.8-3.5c-0.3-0.5-1.2,0-0.9,0.5
			c0.2,0.4,0.3,0.9,0.4,1.3c0.2,0.8,0.2,1.7,0.3,2.5c0.2,1.6,0.4,3.3,0.4,4.9c0.1,2.3-0.2,4.7-0.5,6.9c-0.3,2.2-0.7,4.5-1.6,6.5
			c-0.3,0.7-0.7,1.4-1.6,1.1c-0.4-0.1-0.8-0.4-1.2-0.7c-0.3-0.2-0.6-0.5-1-0.4c-1.1,0.3,0,1.6,0.4,2c0.3,0.3,0.9,0.7,1,1.1
			c-0.1-0.2,0,0.4,0,0.4c0,0.2,0,0.5,0,0.7c0,0.4,0.2,0.8,0.4,1.2c0.9,1.2,2.7,0.6,2.7-0.9c0-0.3-0.1-0.7-0.3-0.9
			c-0.1-0.1-0.3-0.3-0.3-0.4c0,0-0.1-0.1-0.1-0.1c0.2,0,0.4,0,0.6,0c0.7,0.1,1.5,0.2,2-0.4c0.4-0.5,0.4-1.1,0-1.6
			c-0.2-0.2-0.5-0.3-0.8-0.5c-0.2-0.2-0.2-0.1-0.1-0.4c0.1-0.3,0.2-0.6,0.3-0.8c0.3-0.8,0.8-1.4,1.4-2c0.5-0.5,1.1-1,1.1-1.8
			c0-0.3-0.1-0.6-0.3-0.8c-0.1-0.1-0.5-0.3-0.6-0.4c-0.1-0.1,0.2-1,0.3-1.1c0.1-0.5,0.3-1.1,0.5-1.6c0.3-0.9,0.7-1.7,1-2.5
			c0.3-0.7,0.4-1.5,0-2.2c-0.2-0.4-0.6-0.6-0.8-0.9c-0.2-0.4-0.1-1,0.1-1.4c0.3-0.8,0.8-1.3,1.4-1.9c0.4-0.4,0.6-0.9,0.4-1.4
			c-0.1-0.4-0.5-0.7-0.7-1.1c-0.2-0.3-0.4-0.7-0.6-1.1c-0.4-0.5-1.1-0.9-1.4-1.5c-0.1-0.3-0.1-0.6-0.3-0.9c-0.2-0.3-0.4-0.6-0.7-0.9
			c-0.5-0.4-1.5-0.9-2.1-0.4c-0.7,0.5-0.3,1.3,0.1,1.8c0-0.3,0.1-0.5,0.1-0.8c-0.8,0.6-1.9,1.9-1.6,3c0.2,0.6,1.1,0.4,1-0.3
			c-0.1-0.2,0.3-0.6,0.4-0.8c0.1-0.1,0.2-0.3,0.4-0.4c0,0,0.1-0.1,0.1-0.1c0.1-0.2,0.2,0.3-0.1-0.1C24.3,124.2,25,123.5,24.6,123z"
			/>
	</g>
</g>
<g>
	<g>
		<path class="st2" d="M49.2,135.6c-2.2,2.5,9.9,6.4,12.5,4.5c-2.7,1.9-12.1-0.4-14.9-2.5c-1,1.7-3,3.7-5,2.7
			c-0.9-0.5-1.3-1.4-1.5-2.3c-0.8-4.2,1.9-8.7,6.3-10.5c2.9-1.2,6.5-1.3,8.7-3.3c2.7-2.4,2.1-6.5,4.3-9.3c3-3.8,9.6-3.4,14.9-2.6
			c5.3,0.8,11.9,1.2,14.9-2.6c1.1-1.4,1.5-3.1,2.7-4.4c2.7-3.1,8.1-2.9,12.6-2.5c9,0.7,18,0.5,26.9-0.3c0.5,0,1-0.1,1.4-0.3
			c1.2-0.7,0.9-2.3,1.4-3.5c0.7-1.9,3.5-2.6,5.8-2.2c2.3,0.4,4.3,1.7,6.3,2.6c5.8,2.6,12.6,3,19.1,3.3c0.8,0,1.6,0.1,2.2-0.3
			c0.7-0.5,0.9-1.3,1-2.1c0.2-2.2,0.4-4.9,2.8-5.8c1.8-0.7,4,0.2,5.2,1.6c1.2,1.4,1.6,3.1,1.9,4.8c0.3,1.3,0.5,2.8,1.6,3.8
			c1,1,3.1,1.4,4.1,0.3c0.3-0.3,0.4-0.7,0.6-1.1c0.9-1.9,2.7-3.4,5-3.8c2.3-0.4,4.9,0.6,6,2.4c1.3,2.3-0.2,5.1-2.5,6.6
			c-2.3,1.5-5.3,2-8,2.8c-2.8,0.7-5.6,1.8-7.1,4c0,0,7.3-7.5-5.1-8.5c-12.4-1-66.2,9.8-84.3,17C70.9,131.2,52.9,131.4,49.2,135.6z"
			/>
	</g>
	<g>
		<path class="st2" d="M14.7,105.7c-3-0.2,2.7-10.5,5.7-10.9c-2.9,0.5-7.8,8.1-8.5,11.2c-1.7-0.4-4.2-0.4-4.9,1.5
			c-0.3,0.9,0,1.8,0.4,2.4c2,3.2,6.5,4.3,10.6,2.5c2.6-1.2,5.1-3.4,7.8-3.6c3.3-0.2,5.3,2.8,8.5,3.1c4.3,0.4,8.4-4.1,11.5-8
			c3.1-4,7.2-8.4,11.5-8c1.6,0.2,2.9,1,4.4,1.1c3.7,0.2,7.1-3.4,9.9-6.6c5.6-6.2,11.6-12,18.1-17.2c0.3-0.3,0.7-0.6,1.1-0.7
			c1.2-0.4,2,0.8,3,1.3c1.6,0.7,3.9-0.7,5.2-2.4s1.8-3.8,2.7-5.8c2.3-5.5,6.6-10.1,10.8-14.5c0.5-0.5,1-1.1,1.7-1.2
			c0.8-0.2,1.4,0.2,1.9,0.7c1.5,1.2,3.3,2.8,5.3,1.9c1.6-0.7,2.5-2.7,2.5-4.4s-0.9-3-1.7-4.3c-0.6-1-1.3-2.1-1.2-3.4
			c0.1-1.3,1.3-2.9,2.5-2.9c0.4,0,0.7,0.2,1.1,0.3c1.7,0.6,3.9,0.4,5.6-0.8s2.9-3.5,2.5-5.4c-0.5-2.3-3.2-3.1-5.7-2.5
			c-2.4,0.6-4.7,2.1-7,3.5c-2.3,1.3-4.9,2.5-7.2,2.1c0,0-11.2-0.2-18.8,8.5S63.4,79.8,47,87S19.8,105.9,14.7,105.7z"/>
	</g>
	<g class="st3">
		<path class="st4" d="M190.1,100.8c-2.5-0.2-5.3,3.9-5.5,3.9c0.3-0.3,0.4-0.7,0.6-1.1c0.9-1.9,2.7-3.4,5-3.8c2.3-0.4,4.9,0.6,6,2.4
			c1.3,2.3-0.2,5.1-2.5,6.6C197.4,103.5,192.6,101,190.1,100.8z"/>
	</g>
	<g class="st3">
		<path class="st4" d="M168,102.1c0.7-0.5,0.9-1.3,1-2.1c0.2-2.2,0.4-4.9,2.8-5.8c1.8-0.7,4,0.2,5.2,1.6c1.2,1.4,1.6,3.1,1.9,4.8
			c-1-2.9-3.3-5.3-5.8-5.5C170.5,94.9,168,102.1,168,102.1z"/>
	</g>
	<g class="st3">
		<path class="st4" d="M129.7,102.7c0,0,2.7-0.1,4.1,0c1.5,0,1.2-2,4.2-3.6c3-1.6,7.1,0.2,11.9,2.8c4.8,2.5,15.8,0.5,15.8,0.5
			c-6.5-0.3-13.3-0.6-19.1-3.3c-2.1-0.9-3.9-2.5-6.3-2.6c-7.4-0.3-5.1,2-7.7,3.9C129.9,102.4,129.7,102.7,129.7,102.7z"/>
	</g>
</g>
<ellipse transform="matrix(0.4017 -0.9157 0.9157 0.4017 50.4726 163.9466)" class="st5" cx="150.7" cy="43.3" rx="18.5" ry="3.8"/>
<ellipse transform="matrix(0.7589 -0.6512 0.6512 0.7589 -60.3921 44.8795)" class="st6" cx="30.4" cy="104" rx="20.9" ry="7.8"/>
<ellipse transform="matrix(0.7589 -0.6512 0.6512 0.7589 -34.2114 58.9166)" class="st5" cx="62.5" cy="75.7" rx="22.8" ry="7.2"/>
<ellipse transform="matrix(0.7964 -0.6047 0.6047 0.7964 -8.0094 69.0711)" class="st7" cx="98.6" cy="46.4" rx="24.1" ry="5.7"/>
<g>
	<g>
		
			<ellipse transform="matrix(6.125821e-02 -0.9981 0.9981 6.125821e-02 0.8464 287.036)" class="st8" cx="153" cy="143.1" rx="22.1" ry="28.6"/>
		<path class="st9" d="M181.5,144.8c-6.7-21.3-46.2-26.4-57.1-3.5c0.7-12.2,14.1-21.3,29.9-20.3
			C170.1,121.9,182.3,132.6,181.5,144.8z"/>
		
			<ellipse transform="matrix(6.125821e-02 -0.9981 0.9981 6.125821e-02 -13.3552 286.3407)" class="st10" cx="145.5" cy="150.3" rx="9.7" ry="13.8"/>
	</g>
	<g>
		<path class="st11" d="M95.3,120.3c-2.3,0.5-4.5,1.1-6.8,1.6c1.4,0.3,2.9,0.4,4.3,0.5c8.7,0.5,16.6-2,22.2-6.4
			C108.4,117.3,101.8,118.8,95.3,120.3z"/>
	</g>
	<g>
		
			<ellipse transform="matrix(6.125821e-02 -0.9981 0.9981 6.125821e-02 -57.0774 229.7804)" class="st11" cx="93.6" cy="145.2" rx="22.1" ry="28.6"/>
		<path class="st9" d="M122.1,147c-6.7-21.3-46.2-26.4-57.1-3.5c0.7-12.2,14.1-21.3,29.9-20.3C110.7,124.1,122.9,134.8,122.1,147z"
			/>
		
			<ellipse transform="matrix(6.125821e-02 -0.9981 0.9981 6.125821e-02 -71.279 229.085)" class="st12" cx="86.1" cy="152.4" rx="9.7" ry="13.8"/>
	</g>
	<g>
		<path class="st13" d="M103.9,118.3c4.8,10.3,14.1,16.7,23.6,15.2c9.8-1.6,16.7-11.3,17.6-23.1
			C131.3,112.7,117.5,115.3,103.9,118.3z"/>
		<path class="st14" d="M139.6,111.3c-0.7,9.2-4.7,17.9-12.1,22.2c9.8-1.6,16.7-11.3,17.6-23.1C143.2,110.7,141.4,111,139.6,111.3z"
			/>
	</g>
	<g>
		
			<ellipse transform="matrix(0.5622 -0.827 0.827 0.5622 -61.2482 236.178)" class="st8" cx="192.4" cy="175.9" rx="20.2" ry="22.8"/>
		<path class="st9" d="M211.3,188.8c5.4-19.3-19.5-39.1-37.8-25.7c6.3-9.2,19.8-11,30.2-3.9S217.6,179.5,211.3,188.8z"/>
		
			<ellipse transform="matrix(0.5622 -0.827 0.827 0.5622 -67.1586 230.2498)" class="st10" cx="183.9" cy="178.6" rx="8.8" ry="11"/>
	</g>
	<g>
		
			<ellipse transform="matrix(6.125820e-02 -0.9981 0.9981 6.125820e-02 14.4543 320.896)" class="st13" cx="177.8" cy="152.8" rx="19.9" ry="26.4"/>
		<path class="st14" d="M204.2,154.4c-6.2-19.2-42.7-23.8-52.7-3.2c0.7-11,13-19.2,27.6-18.3C193.6,133.7,204.8,143.4,204.2,154.4z"
			/>
		
			<ellipse transform="matrix(6.125820e-02 -0.9981 0.9981 6.125820e-02 1.5215 320.1039)" class="st15" cx="170.9" cy="159.2" rx="8.7" ry="12.7"/>
	</g>
	<g>
		
			<ellipse transform="matrix(0.6992 -0.7149 0.7149 0.6992 -54.2451 138.8648)" class="st8" cx="137.9" cy="133.9" rx="19" ry="21.3"/>
		<path class="st9" d="M153.1,148.8c8.3-16.9-11.3-39.3-30.4-29.8c7.3-7.5,20.1-6.9,28.5,1.3C159.6,128.5,160.5,141.3,153.1,148.8z"
			/>
		
			<ellipse transform="matrix(0.6992 -0.7149 0.7149 0.6992 -57.5005 133.2248)" class="st10" cx="129.6" cy="134.9" rx="8.3" ry="10.3"/>
	</g>
	<g>
		<path class="st11" d="M41.6,135.8c4.9,7,13,10.9,21.3,9.6c10.2-1.7,17.5-10.8,18.1-21.6C67.7,127.2,54.5,131.2,41.6,135.8z"/>
		<path class="st9" d="M75.5,125.2c-0.6,8.3-4.8,16.1-12.6,20.2c10.2-1.7,17.5-10.8,18.1-21.6C79.1,124.3,77.3,124.7,75.5,125.2z"/>
	</g>
	<g>
		
			<ellipse transform="matrix(0.8903 -0.4553 0.4553 0.8903 -63.5345 90.4422)" class="st11" cx="156" cy="177.1" rx="20.9" ry="24.4"/>
		<path class="st9" d="M167.1,198.8c14.4-15,1.3-46.3-22.2-43.4c10.3-5.3,23.6,0.2,29.7,12.1C180.7,179.6,177.4,193.5,167.1,198.8z"
			/>
		
			<ellipse transform="matrix(0.8903 -0.4553 0.4553 0.8903 -63.6151 86.0497)" class="st12" cx="146.8" cy="175.1" rx="9.2" ry="11.8"/>
	</g>
	<g>
		<path class="st13" d="M166,107.1c-13.5,1.9-26.9,4.1-40.2,6.7c4.5,2.8,10,4.6,16,4.9c11.9,0.7,22.4-4.3,27.2-12
			C168,106.9,167,107,166,107.1z"/>
		<path class="st15" d="M131,112.9c1.3,0.4,2.6,0.6,4.1,0.7c4.7,0.3,8.9-1.1,11.5-3.4C141.4,111,136.2,111.9,131,112.9z"/>
	</g>
	<g>
		<ellipse transform="matrix(0.9946 -0.1033 0.1033 0.9946 -15.6144 9.1445)" class="st13" cx="80.5" cy="155.3" rx="23" ry="27"/>
		<path class="st14" d="M83.3,182.1c20.7-9.7,19.7-47.3-5.6-53.6c12.6-1.3,24.1,9.6,25.7,24.4S95.9,180.8,83.3,182.1z"/>
		
			<ellipse transform="matrix(0.9946 -0.1033 0.1033 0.9946 -15.0654 8.2262)" class="st15" cx="71.9" cy="149.5" rx="10.1" ry="13"/>
	</g>
	<g>
		<path class="st8" d="M123.8,114.2c-9.5,1.9-19,3.9-28.5,6c-5.3,1.2-10.7,2.5-16,3.9c3,12.1,14.3,20.2,26,18.3
			c12.4-2,20.7-14.5,18.6-27.8C123.9,114.5,123.8,114.4,123.8,114.2z"/>
		<path class="st9" d="M123.8,114.2c-1.9,0.4-3.7,0.7-5.6,1.1c1.7,10.5-2.6,21.9-12.9,27.1c12.4-2,20.7-14.5,18.6-27.8
			C123.9,114.5,123.8,114.4,123.8,114.2z"/>
		<path class="st10" d="M95.3,120.3c-3,0.7-6,1.4-9,2.2c2.2,2.3,5.2,3.5,8.3,3c3.4-0.6,6.1-3.2,7.4-6.6
			C99.7,119.3,97.5,119.8,95.3,120.3z"/>
	</g>
	<g>
		
			<ellipse transform="matrix(0.8903 -0.4553 0.4553 0.8903 -60.421 72.8513)" class="st8" cx="121" cy="161.9" rx="19.4" ry="22.6"/>
		<path class="st9" d="M131.3,181.9c13.4-13.9,1.2-42.9-20.5-40.2c9.5-4.9,21.9,0.2,27.5,11.3C144,164.1,140.8,177.1,131.3,181.9z"
			/>
		
			<ellipse transform="matrix(0.8903 -0.4553 0.4553 0.8903 -60.4956 68.7817)" class="st10" cx="112.5" cy="160" rx="8.5" ry="10.9"/>
	</g>
	<g>
		<path class="st9" d="M188.5,104.3c-2.2,0.2-4.4,0.5-6.5,0.8c6.9,4.8,11.8,12.3,11.3,20.6C196.3,118.6,194.2,110.4,188.5,104.3z"/>
		<path class="st11" d="M188.5,104.3c-7.5,0.8-15,1.8-22.5,2.8c-6.2,0.9-12.4,1.8-18.6,2.8c-1.9,9.6,4.4,20.2,15.5,24.9
			c12.4,5.2,26,1.1,30.3-9.2C196.3,118.6,194.2,110.4,188.5,104.3z"/>
		
			<ellipse transform="matrix(0.3898 -0.9209 0.9209 0.3898 -11.5344 223.1951)" class="st12" cx="162.7" cy="120.3" rx="8.9" ry="11.8"/>
	</g>
</g>
<g>
	<path class="st11" d="M48.9,86.7c4.9-4.2,9.8-8.3,14.8-12.3c4-3.2,7.9-6.3,12-9.5c1.1-4.1,1-8.4-0.7-12.3
		c-4.8-11.2-20.5-15.3-35-9.1c-14.5,6.2-22.4,20.4-17.6,31.6C26.3,84.2,37.2,88.6,48.9,86.7z"/>
	<path class="st9" d="M75,52.6c-15.5-16-53.1-2.9-52.6,22.5C17.6,63.9,25.5,49.7,40,43.5S70.1,41.4,75,52.6z"/>
	
		<ellipse transform="matrix(0.9194 -0.3932 0.3932 0.9194 -25.3211 23.7212)" class="st12" cx="45.2" cy="73.7" rx="13.8" ry="9.7"/>
</g>
<g>
	<path class="st13" d="M63.8,74.2c11.1-9,22.5-17.7,34-26.2c-0.9-1.9-2-3.8-3.4-5.6c-9.3-12.8-24.8-17.3-34.7-10.1
		c-9.9,7.2-10.4,23.4-1.1,36.1C60.2,70.6,62,72.6,63.8,74.2z"/>
	<path class="st14" d="M93.3,51.4c1.5-1.1,3-2.2,4.5-3.3c-0.9-1.9-2-3.8-3.4-5.6c-9.3-12.8-24.8-17.3-34.7-10.1
		C74.1,28.8,87.3,38.7,93.3,51.4z"/>
	
		<ellipse transform="matrix(0.8091 -0.5877 0.5877 0.8091 -19.2597 49.2931)" class="st15" cx="66.2" cy="54.3" rx="9.7" ry="13.8"/>
</g>
<g>
	<g>
		<path class="st16" d="M16.2,11.7c-0.3,0.8-1.3,1.4-2,1.8c-1.1,0.7-2.3,1.3-3.5,1.8c-2.5,1-5.1,1.9-7.8,2.3
			c-8.5,1.4-17-2.2-25.6-2.3c-1.5,0-1.5,2.3,0,2.3c9,0.2,17.9,3.9,26.9,2.1c2.9-0.6,5.8-1.6,8.6-2.8c2.1-1,4.8-2.2,5.7-4.6
			C18.9,11,16.7,10.4,16.2,11.7L16.2,11.7z"/>
	</g>
</g>
<g>
	<path class="st17" d="M-29.6-21.3c0.2,0.4,1,0.4,1.3,0c0.5-0.6,1-1.8,1.3-1.9c0.2,0,1.4,0.9,1.6,0.7c0.3-0.2,0.6-1.3,1.5-2
		c0.2-0.1,0.6,0.4,0.7,0.2c0.3-0.6,1-1.9,1.4-1.8c0.7,0.2,1.8,2.1,2.8,3c0.2,0.1,0.5-0.2,0.6,0c0.6,0.8,0.9,1.8,1.2,2.2
		c0.1,0.1,0.9-0.2,1.1-0.1c1.4,1.4,1.7,5,2.3,5.9c0.1,0.2,2.6-0.4,3.2-0.1c0.3,0.2,0.2,1.9,0.3,2.2c0,0.1,0.6,0.2,0.9,0.3
		c0,0,0,0.6,0,1.3c0,0.8-0.2,1.2-0.2,1.3c0.1,0.1,1.2,0,1.2,0.2c0.1,1-0.1,1.9-0.4,2.8c-0.3,1-1,1.8-1.5,2.7c-0.3,0.5-0.6,1.4,0.5,1
		c0.8-0.3,2.5-1,3-0.7c0.5,0.3,0,2.7,0.1,2.8C-6.5-0.9-5.9-1-5.9-0.8c-0.1,1.2-0.7,1.8-0.7,2.2c0,0.1,1,0.5,0.9,0.9
		c-0.5,1.5-2,2.5-2.6,4c-0.1,0.3,0.9,0,0.9,0.3C-7.6,7.5-8,8.4-8.7,9.1c-3.1,2.9-6.4,4.8-10.2,6.8c-1.5,0.8-1.4,1.6,0.2,2.2
		c2.7,1,5.5,1.6,8.1,2.7c0.3,0.1,0.2,0.7,0.4,0.9c0.2,0.3,0.9,0.4,0.9,0.7c-0.1,0.7-1.3,1.1-1.3,1.4c0,0.2,0.3,0.6,0.7,1.1
		c1.7,2.1,2.6,5.7,2.6,8.2c0,0.5-1.3-0.9-1.4-0.5c-0.7,2.7,0.9,5.9-1,10.3c-0.1,0.3-0.9-0.7-1-0.4c-0.5,1.7,0,4.9-0.4,5.2
		c-0.6,0.4-3.2,0.2-3.3,0.6c-0.2,0.3,0,2.9-0.7,4.1c-0.6,1.2-2.1,2.4-3.1,2.9c-0.3,0.1-0.7-0.8-0.8-0.5c-0.1,0.2-0.3,0.6-0.6,1.1
		c-1,2-3.5,3.9-5.8,4.3c-0.3,0-0.2-0.5-0.4-0.7c-0.4-0.2-1.2-0.1-1.3-0.3c-0.4-0.8-0.1-2.4-0.4-2.5c-0.3-0.1-2.2,0.7-3.1,0.5
		c-0.2,0-0.3-0.8-0.4-1.2c-0.2-0.5-0.6-0.2-0.7-0.4c-0.2-0.4-0.1-1.6-0.5-2.3c-0.2-0.4-1.3-0.6-1.8,0.2c-0.9,1.5-1.5,4.2-3.8,4.8
		c-0.6,0.1-1.2-1.6-1.5-1.1c-0.5,0.6-1,3.3-2.2,4.2c-0.2,0.2-1.7-1-1.9-1c-0.6,0.1-2.6,2.4-4,2.4c-0.4,0-1.1-1.6-1.4-2
		c-0.1-0.1-0.9,0.3-1,0.2c-0.3-0.2-0.5-1.6-0.8-2.4c-0.2-0.5-0.5-0.2-0.8,0c-0.8,0.8-1.5,2.2-2.4,2.4c-0.3,0-0.8-1.1-1-1.2
		c-0.3-0.1-0.9,1.3-1.3,1.4c-0.2,0-0.6-0.5-1-0.6c-0.3,0-1.4,0.4-1.7,0.2c-0.3-0.2-1.4-2.1-1.7-2.1c-0.5-0.1-2.9,0.9-4.4,0.9
		c-0.5,0-0.9-0.8-1.2-0.9c-0.2-0.1-0.9,0.4-1,0.4c-0.2-0.1-0.7-0.3-1.1-0.5c-0.2-0.1-1.3,0.5-1.5,0c-0.7-1.3,0.5-3.6,0.4-3.9
		c0-0.3-0.8-0.5-0.7-0.8c0.3-1.3,1.6-2.7,1.8-3.5c0.1-0.3-1.4-1.5-1.6-1.9c-0.1-0.3,0.8-0.9,1-1.5c0.1-0.3-0.4-0.7-0.4-0.8
		c-0.1-0.1,1.3-0.9,1.6-1.1c0.2-0.2-0.5-0.8-0.3-1c0.8-1,2-1.5,3-2.3c0.1-0.1,0.1-0.2,0.1-0.3c-0.4-0.9-1.4-2.1-1.4-2.6
		c0.1-0.8,1.5-2,2.1-3.1c0.1-0.1-0.1-0.4,0-0.5c0.8-0.9,2-1.4,2.7-2.4c0.2-0.2-0.2-0.6-0.1-0.9c0.1-0.3,0.5-0.3,0.6-0.6
		c0.3-0.5-0.2-0.7-0.6-0.6c-0.4,0.1-1.2,0.4-1.4,0.3c-0.1-0.1,0-0.8-0.3-0.8c-0.8,0-1.7,0.7-2.2,0.6c-0.2,0-0.3-0.9-0.7-1.1
		c-0.5-0.3-3.4,0-3.8-0.5c-0.1-0.1,0.8-1.8,0-1.7c-0.9,0.2-1.6,1-2.6,1c-0.4,0-0.4-0.8-0.8-0.8c-0.8,0.1-2.7,0.3-3,0
		c-0.2-0.1,0.2-0.9,0.1-1.4c0-0.2-0.3-0.4-0.5-0.4c-1.1-0.1-2.2,0.5-3.2,0.1c-0.4-0.1,0.3-1,0-1.3c-0.9-0.7-2.9-0.8-3.1-1.1
		c-0.2-0.3,0.8-1.4,1-2.1c0-0.2-0.5-0.4-0.4-0.7c0.4-1.3,1.5-1.7,2.1-2.4c0.1-0.1,0.1-0.3,0-0.5c-0.1-0.1-0.3-0.1-0.5-0.1
		c-1.2-0.1-2.5,0.1-3.6-0.3c-0.4-0.2,0.8-1,0.4-1.2c-0.5-0.2-1.5-0.3-1.7-0.5c-0.2-0.2,0.1-0.9,0-0.9c-0.4-0.2-1.8-0.3-1.9-0.6
		c-0.1-0.3,0.9-1.2,1.3-1.8c0.1-0.2,0.2-0.4,0-0.6c-0.8-0.6-1.9-0.8-2.6-1.5c-0.2-0.3,0.7-0.7,0.4-1c-1-0.9-2.8-1.4-3-1.9
		c-0.1-0.5,1.4-0.5,2.4-0.8c0.2-0.1-0.3-0.5-0.1-0.6c0.8-0.3,2-0.5,2.6-0.6c0.5-0.1-0.3-1.2-0.2-1.4c0.3-0.4,1.8-0.2,2.3-0.2
		c0.2,0,0-0.4,0.2-0.5c0.7-0.2,1.8,0,2.1-0.3c0.2-0.3-0.4-1.8-0.1-2.1c0.3-0.3,1.6-0.4,2.1-0.4c0.2,0-0.1-0.4,0.1-0.4
		c0.7-0.1,1.6,0.1,2.1,0.2c0.3,0-0.2-0.7,0.1-0.8c1.1-0.1,2.2,0.4,3.3,0.6c0.4,0.1,0.8,0,0.7-0.5c0-0.5-0.3-1.2-0.3-1.5
		c0-0.2,0.6-0.5,0.7-0.6c0.1-0.4-0.2-1.1,0-1.4c0.3-0.3,1.6,0.1,2.4,0c0.4-0.1,0.5-0.6,0.9-0.7c0.5-0.1,1.8,0.5,2.7,0.3
		c0.5-0.1,0.5-1.1,0.8-1.1c0.5,0,2,0.4,2.9,0.7c0.2,0.1,0.5-0.2,0.7-0.1c0.8,0.2,2,0.9,2.6,1.1c0.2,0.1,0-0.8,0.4-0.7
		c1,0.1,2.2,1,3.3,1.3c5.8,1.9,3.8-0.1,3.2-1.1c-0.7-1.1-1.9-1.8-2.6-2.9C-57-6.8-56.3-7-56.5-7.3c-0.7-1.2-2-2.1-2.6-3.4
		c-0.1-0.3,0.8-0.4,0.6-0.6c-0.7-1-1.7-3.1-1.7-3.9c0-0.4,1.9-0.3,1.9-1.1c0-2.5-1.9-5.1-1.7-6.5c0.1-0.3,1.5-0.3,1.4-0.8
		c-0.1-0.4-1.2-2.1-1.3-3.3c0-0.4,0.9-0.3,0.9-0.4c0-0.5-0.2-0.9-0.3-1.5c-0.1-1.1-0.1-2.3,0.3-2.4c0.2,0,1.5,0.9,2.3,1.1
		c0.3,0.1,0.4-0.8,0.7-0.6c1.9,0.7,2.7,1.5,3.4,1.8c0.3,0.1,1.6-1.5,1.9-1.5c0.5,0,2.3,2.1,2.8,2.3c0.2,0.1,1.5-1.1,1.7-1
		c0.7,0.5,1.7,2.5,2,2.4c0.8-0.2,3.1-3.1,3.7-3.1c0.8,0,3.1,1.9,4,2.4c0.2,0.1,1.2-1.1,1.4-0.8c1,1.3,1.7,2.6,2,4
		c0,0.1,1.8-0.6,2.2-0.3C-30.4-24.1-30.1-22.3-29.6-21.3L-29.6-21.3z"/>
	<path class="st18" d="M-21.5-21.6c0.6,6.1,0.5,14.4,0.4,20.6c-0.1,6-0.3,11.9-0.6,17.8c0.7,12.1,0.5,29.6-2.9,41.2
		c2.1-13.2,2.3-25.2,2-38.1c0-0.2-0.1-0.4-0.4-0.5c-0.2-0.1-0.5,0-0.6,0.1c-0.1,0.1-0.3,0.3-0.4,0.4c-1.8,1.7-3.7,3.4-5.6,5.2
		c-0.1,0.6-0.1,1.3-0.2,2.3c-0.2,4.4-0.3,8.4-0.2,12.8c0,1.5,0,0.8,0,2.3c-0.9-4.9-0.8-11.3-0.4-16.7c-2.4,2.2-4.9,4.5-7.4,6.8
		c0,0.6-0.1,1.5-0.2,3.1c-0.2,5.4,0.3,9.8,0.5,15.1c-1-4.9-1.4-12.1-1.2-17.4c-2.5,2.2-4.9,4.4-7.5,6.6c0,0.5-0.2,1.4-0.2,2.6
		c-0.3,5.3,0.1,9.4,0.3,14.6c-1-4.7-1.3-11.3-1-16.4c-2.6,2.2-5.2,4.4-7.8,6.6c0.1,0.4-0.2,1.4-0.4,3.5c-0.2,1.9-0.2,3.8-0.3,5.7
		c-0.5-2.9-0.4-5.6-0.2-8.5c-3.1,2.5-6.2,4.9-9.3,7.1c-1.9,1.3-1.3,1-3.2,2.2c2-1.7,1-0.9,3-2.5c2.9-2.4,5.7-4.7,8.5-7.1
		c-2.7-0.1-5.3-0.3-8-1.3c3.1,0.4,5.1,0.7,8.3,0.6c0.2,0,0.4,0,0.6,0c2.9-2.5,5.6-5,8.4-7.5c-4.5-0.4-8.6-1-13-2.4
		c4.3,0.7,7.9,1.3,12.3,1.6c0.7,0,1.2,0.1,1.5,0.1c2.3-2.1,4.6-4.2,6.8-6.3c-4.5,0.3-8.7,0.1-13.2-0.5c4.4,0,8.8,0.3,13.2-0.1
		c0.4,0,0.7-0.1,0.9-0.1c2.7-2.5,5.5-5.1,8.2-7.7c-2.5,0.2-3.7,0.1-6.5-0.4c2,0.1,3.6,0.1,5.6,0c0.8-0.1,1.3-0.1,1.6-0.2
		c1.2-1.1,2.4-2.3,3.6-3.4c0.8-0.8,1.5-1.3,2-1.7c0.3-0.2,0.4-0.6,0.3-0.9c-0.1-0.3-0.4-0.6-0.7-0.6c-2.5-0.4-5.1-0.7-7.7-0.9
		c-0.4,0.5-1.2,1-1.2,1c-6.1,5.6-16.1,11.6-23.9,14.5c1.2-0.6,0.6-0.4,1.8-1c8.9-4.5,14.9-8.1,22.2-14.6c-3.6-0.3-7.3-0.6-10.9-0.9
		c-1.3,1.9-9,6.9-10,7.5c-2.9,1.8-5.9,3.4-9,4.6c7.2-4.2,11.9-6.7,18.1-12.2c-2.5-0.2-4.9-0.4-7.4-0.7c-1.1-0.1-2.2-0.3-3.3-0.4
		c-1,1.2-3.6,3.4-4.1,3.8c-3.2,2.7-7.2,5.4-11,7.3c5.8-4.1,9.3-6.2,14.1-11.2c-3.4-0.4-6.8-0.9-10.2-1.4c-0.2,0.4-1,1-2.4,2.5
		c-2.5,2.6-4.9,4.8-7.8,6.9c3.4-3.3,6.1-6,9.2-9.5c-5.6-0.9-11.1-1.9-16.5-3c-1.5-0.3-1-0.2-2.5-0.6c1.6,0.2,1,0.1,2.6,0.4
		c5.3,0.8,10.4,1.6,15.6,2.4c-3.1-2.5-6-5-8.6-8.1c3.1,2.6,5.7,5,9,7.4c0.5,0.4,0.9,0.6,1.1,0.8c3.6,0.5,7.1,1,10.7,1.4
		c-0.3-0.5-0.5-0.8-1-1.5C-61.6,6.3-64.7,3-68.5-1.5C-65.2,1.3-58.2,9.2-56.2,13c1,0.1,2.1,0.2,3.1,0.3c2.4,0.2,4.9,0.4,7.3,0.6
		C-48.9,9.1-52.2,6.2-56.1,2c2.9,2.1,9.3,8.6,11.3,11.9c3.7,0.2,7.3,0.5,11,0.8l-0.1-0.1c-4.1-5-8.4-8.6-12.6-13.2
		c3,2.4,11.2,10.1,13.7,13.4c2.3,0.2,4.6,0.4,6.9,0.7c0.4,0,0.7-0.1,0.9-0.4c0.2-0.3,0.2-0.7-0.1-1c-3.2-4.2-6.5-8.3-9.7-12.5
		C-37.3,1.7-45,0-46.1-0.3c3.8,0.5,7.1,1.1,10.9,1.4c-1.3-1.7-2.5-3.4-3.8-5c-0.7-1-1.5-2.1-2.3-3.1c-0.3,0-0.9-0.1-1.8-0.2
		c-4.5-0.6-8.6-1.4-12.9-2.8c5.2,1.1,9,1.9,14.2,2.4c-2-2.7-4.2-5.6-6.2-8.6c-1.9-0.3-6.7-2-7.5-2.3c2.4,0.5,4.6,1.1,7,1.6
		c-2.5-3.6-4.9-7.2-6.7-10.5c2.6,3.2,5,6.7,7.5,10.2c0.5-2.4,0.9-4.7,1.4-7.2c0,1-0.5,6.4-0.9,7.8c1,1.4,2,2.8,3,4.1
		c1,1.3,2,2.6,3,3.9c1.2-5.6,1.5-9.1,1.9-15.1c0.4,4.6-0.3,9.9-1.1,14.4c-0.1,0.6-0.2,1.1-0.2,1.4c2.1,2.8,4.3,5.5,6.4,8.2
		c0.9-5.5,1.5-10.1,2.1-15.7l0.1-1.1c0.1,3.8-0.7,13.3-1.7,17.5c3.4,4.3,6.8,8.6,10.2,12.9c0.2,0.2,0.4,0.3,0.6,0.2
		c0.2-0.1,0.4-0.3,0.4-0.5c0.4-5.9,0.6-12.2,0.7-18C-21.7-10.1-21.9-16.3-21.5-21.6L-21.5-21.6z"/>
</g>
<path class="st19" d="M6.5,6.2c2.4,12,16,23.4,20.7,16.8S15.6,20,11.1-7.7C2.9-57.5-29.1-55.5-27.3-48.1
	C-25.4-40.2-6.4-57.8,6.5,6.2z"/>
<path class="st20" d="M6.5,6.2c2.4,12,16,23.4,20.7,16.8S9.4,21.6,4.9-6.1c-11.3-51-30.9-41.8-32.2-42C-25.4-40.2-6.4-57.8,6.5,6.2z
	"/>
<g>
	
		<ellipse transform="matrix(0.9979 -6.497853e-02 6.497853e-02 0.9979 -4.8221 1.4859)" class="st8" cx="20.4" cy="74.9" rx="22.8" ry="27.1"/>
	<path class="st9" d="M22.2,101.9c20.9-9,21.2-46.7-3.5-54.1C31.2,47,42.2,58.4,43.2,73.4S34.8,101.1,22.2,101.9z"/>
	
		<ellipse transform="matrix(0.9979 -6.497856e-02 6.497856e-02 0.9979 -4.4413 0.9339)" class="st10" cx="12.1" cy="68.7" rx="10" ry="13.1"/>
</g>
<g>
	
		<ellipse transform="matrix(0.5638 -0.8259 0.8259 0.5638 -17.5046 47.1067)" class="st13" cx="35.8" cy="40.1" rx="22.9" ry="25.5"/>
	<path class="st14" d="M56.9,54.5c6.2-21.8-21.4-44-42.1-28.7c7.1-10.4,22.3-12.5,33.9-4.5S64,44,56.9,54.5z"/>
	<ellipse transform="matrix(0.5638 -0.8259 0.8259 0.5638 -24.1825 40.4701)" class="st21" cx="26.2" cy="43.1" rx="10" ry="12.3"/>
</g>
<g>
	<g>
		<path class="st16" d="M20.8,17.6c-1.2-1.3-1.1-3.8-1.1-5.5c0-2,0.2-4.1,0.9-6C22.5,0.3,28.5-3,31.7-8c0.7-1-1-2-1.7-1
			c-3.4,5.4-9.7,8.8-11.5,15.2c-0.6,2.2-0.8,4.6-0.7,6.8c0.1,2,0.3,4.3,1.7,5.9C20.3,19.9,21.6,18.5,20.8,17.6L20.8,17.6z"/>
	</g>
</g>
<g>
	<path class="st11" d="M15.8,118.1c9.7-10.3,20-20,30.7-29.3c-0.6-1.1-1.3-2.2-2-3.2c-7.9-10.9-22.3-13.9-32.1-6.8
		C2.5,86,0.9,100.6,8.8,111.5C10.8,114.2,13.2,116.4,15.8,118.1z"/>
	<path class="st9" d="M42.2,92.5c1.4-1.2,2.8-2.5,4.2-3.7c-0.6-1.1-1.3-2.2-2-3.2c-7.9-10.9-22.3-13.9-32.1-6.8
		C25.6,74.8,37,82.1,42.2,92.5z"/>
	<ellipse transform="matrix(0.8091 -0.5877 0.5877 0.8091 -54.4572 28.7089)" class="st12" cx="17" cy="98.2" rx="9.6" ry="11.8"/>
</g>
<g>
	<ellipse transform="matrix(0.9194 -0.3932 0.3932 0.9194 -5.8238 25.563)" class="st11" cx="59.5" cy="27" rx="28.6" ry="22.1"/>
	<path class="st9" d="M85.8,15.8c-15.5-16-53.1-2.9-52.6,22.5C28.4,27,36.3,12.8,50.8,6.6S80.9,4.5,85.8,15.8z"/>
	<ellipse transform="matrix(0.9194 -0.3932 0.3932 0.9194 -9.9508 24.9977)" class="st12" cx="56" cy="36.8" rx="13.8" ry="9.7"/>
</g>
<g>
	<path class="st13" d="M80.2,61.4c12.5-9.7,25.2-19,38.3-27.9c-0.1-2.1-0.5-4.1-1.4-6.1c-4.8-11.2-20.5-15.3-35-9.1
		c-14.5,6.2-22.4,20.4-17.6,31.6C67.2,56,73,60,80.2,61.4z"/>
	<path class="st14" d="M117.1,27.4c-15.5-16-53.1-2.9-52.6,22.5c-4.8-11.2,3.1-25.4,17.6-31.6S112.3,16.1,117.1,27.4z"/>
	<path class="st15" d="M83.5,58.8c5.7-4.3,11.4-8.6,17.1-12.8c0-1.1-0.1-2.1-0.5-3.1c-2.1-4.9-9.5-6.5-16.5-3.5
		c-7,3-11,9.4-8.9,14.3C76,56.9,79.4,58.7,83.5,58.8z"/>
</g>
<g>
	<ellipse transform="matrix(0.9194 -0.3932 0.3932 0.9194 2.4603 36.0935)" class="st8" cx="89.3" cy="12" rx="28.6" ry="22.1"/>
	<path class="st9" d="M115.6,0.8C100.1-15.2,62.5-2,63,23.3C58.2,12,66.1-2.1,80.6-8.3S110.8-10.4,115.6,0.8z"/>
	<ellipse transform="matrix(0.9194 -0.3932 0.3932 0.9194 -1.6667 35.5282)" class="st10" cx="85.9" cy="21.8" rx="13.8" ry="9.7"/>
</g>
<g>
	<path class="st8" d="M170.9,53.5c-1.1-1.8-2.4-3.5-3.8-5c-7.7,9.7-15.5,19.2-23,29.1c6.9,7,16.4,9.4,23.4,5.2
		C176.1,77.7,177.6,64.5,170.9,53.5z"/>
	<path class="st9" d="M170.9,53.5c-1.1-1.8-2.4-3.5-3.8-5c-0.9,1.1-1.8,2.3-2.8,3.4c7.3,9,9.7,22.4,3.2,30.9
		C176.1,77.7,177.6,64.5,170.9,53.5z"/>
	<path class="st10" d="M148.8,71.6c1.5,0.2,3,0,4.2-0.7c2.5-1.5,3.5-4.8,2.9-8.4C153.5,65.5,151.1,68.6,148.8,71.6z"/>
</g>
<g>
	<path class="st8" d="M146.3,53.8c4.1-9.1,8.4-18.1,12.6-27.1c-8.1-4.6-17.4-4.5-23,1c-7.1,7-5.5,20.2,3.6,29.3
		c1.2,1.2,2.5,2.3,3.9,3.3C144.4,58.1,145.3,56,146.3,53.8z"/>
	<path class="st9" d="M158.9,26.7c-8.1-4.6-17.4-4.5-23,1c7.3-3.1,14.9-1.4,21.1,2.8C157.7,29.3,158.3,28,158.9,26.7z"/>
	<path class="st10" d="M146.3,53.8c1.8-4,3.6-7.9,5.5-11.9c-0.6-1-1.3-1.9-2.2-2.8c-4.4-4.4-10.5-5.5-13.6-2.4
		c-3.1,3.1-2.1,9.2,2.3,13.6c2.3,2.4,5.2,3.8,7.8,4.1C146.2,54.1,146.2,54,146.3,53.8z"/>
</g>
<g>
	<path class="st8" d="M44.8,90.2c6.2-5.4,12.5-10.7,18.9-15.9c5.4-4.4,10.9-8.7,16.4-13c-8.2-9.2-21.7-11.3-31.2-4.4
		C38.7,64.5,36.9,79.3,44.8,90.2C44.8,90.2,44.8,90.2,44.8,90.2z"/>
	<path class="st9" d="M75.7,64.9c1.5-1.2,3-2.3,4.4-3.4c-8.2-9.2-21.7-11.3-31.2-4.4C60,53.6,69.7,57.7,75.7,64.9z"/>
	<path class="st10" d="M49.4,86.2c4.6-3.9,9.2-7.8,13.9-11.6c-0.4-1.3-1.1-2.7-2-3.9c-3.8-5.3-10.5-6.9-15-3.7
		c-4.5,3.2-5,10.1-1.2,15.4C46.4,84.1,47.9,85.3,49.4,86.2z"/>
</g>
<g>
	<path class="st17" d="M53.7-7.9c-0.3,0.1-0.4,0.6-0.2,0.8c0.3,0.4,1,0.8,1,1c0,0.1-0.7,0.7-0.7,0.9c0.1,0.2,0.7,0.5,1,1.2
		c0.1,0.1-0.3,0.3-0.2,0.4c0.3,0.3,1,0.9,0.9,1.1c-0.2,0.4-1.5,0.8-2.2,1.3c-0.1,0.1,0.1,0.3-0.1,0.4c-0.5,0.2-1.2,0.3-1.5,0.4
		c-0.1,0,0,0.6-0.1,0.6c-1,0.6-3.2,0.3-3.9,0.5c-0.2,0.1-0.1,1.6-0.4,2c-0.1,0.2-1.2-0.1-1.3-0.1c-0.1,0-0.2,0.4-0.3,0.5
		c0,0-0.4-0.1-0.8-0.2c-0.5-0.1-0.7-0.3-0.8-0.3c-0.1,0-0.2,0.7-0.3,0.7c-0.6,0-1.1-0.3-1.6-0.6c-0.5-0.3-1-0.8-1.4-1.3
		c-0.3-0.3-0.8-0.5-0.7,0.2c0.1,0.5,0.2,1.7,0,1.9c-0.3,0.3-1.6-0.4-1.7-0.4c-0.1,0-0.2,0.4-0.3,0.3c-0.7-0.2-1-0.7-1.2-0.8
		c-0.1,0-0.5,0.5-0.7,0.4c-0.8-0.5-1.2-1.6-2-2.1C34,0.9,34,1.5,33.8,1.5c-0.5-0.2-1-0.6-1.3-1.1c-1.3-2.3-2-4.6-2.7-7.1
		c-0.3-1-0.8-1.1-1.4-0.2c-1,1.5-1.7,3.1-2.8,4.5c-0.1,0.2-0.4,0-0.6,0.1c-0.2,0.1-0.4,0.5-0.5,0.4c-0.4-0.2-0.5-0.9-0.7-1
		c-0.1,0-0.4,0.1-0.8,0.3c-1.5,0.7-3.8,0.7-5.3,0.4c-0.3-0.1,0.7-0.6,0.5-0.8c-1.5-0.8-3.7-0.3-6.1-2c-0.2-0.1,0.6-0.4,0.4-0.5
		c-0.9-0.5-3-0.7-3.1-1C9.3-7,9.8-8.5,9.5-8.7c-0.2-0.1-1.7-0.4-2.4-1c-0.6-0.5-1.2-1.6-1.3-2.3c0-0.2,0.6-0.3,0.4-0.4
		c-0.1-0.1-0.3-0.3-0.6-0.5c-1-0.9-1.9-2.7-1.8-4.1c0-0.2,0.3,0,0.5-0.2c0.2-0.2,0.2-0.7,0.3-0.7c0.5-0.1,1.4,0.3,1.6,0.1
		c0.1-0.2-0.1-1.4,0.1-1.9c0-0.1,0.5,0,0.8-0.1c0.3-0.1,0.2-0.3,0.3-0.3c0.3-0.1,1,0.2,1.5,0c0.3-0.1,0.5-0.7,0.2-1.1
		c-0.8-0.8-2.3-1.5-2.3-3c0-0.4,1.1-0.5,0.9-0.8c-0.3-0.4-1.9-1.1-2.2-1.9c-0.1-0.2,0.9-0.9,0.9-1c0-0.4-1.1-1.9-0.9-2.8
		c0.1-0.2,1.1-0.4,1.4-0.6c0.1-0.1,0-0.6,0-0.6C7.1-32,8-31.9,8.5-32c0.3-0.1,0.2-0.3,0.1-0.5c-0.3-0.6-1.1-1.2-1.1-1.8
		c0-0.2,0.8-0.3,0.9-0.5c0.1-0.2-0.7-0.7-0.6-1c0-0.1,0.4-0.3,0.5-0.5c0.1-0.2,0-0.9,0.1-1.1c0.2-0.2,1.5-0.6,1.5-0.7
		C10-38.4,9.8-40,10-40.9c0.1-0.3,0.6-0.4,0.7-0.6c0.1-0.1-0.1-0.6-0.1-0.7c0.1-0.1,0.3-0.4,0.4-0.6c0.1-0.1-0.1-0.8,0.2-0.9
		c0.9-0.2,2.1,0.8,2.3,0.8c0.2,0,0.4-0.4,0.6-0.3c0.7,0.4,1.4,1.4,1.8,1.6c0.2,0.1,1.1-0.7,1.4-0.7c0.2,0,0.4,0.6,0.7,0.8
		c0.2,0.1,0.5-0.1,0.5-0.2c0.1,0,0.3,0.9,0.4,1.1c0.1,0.1,0.5-0.2,0.7,0c0.5,0.6,0.6,1.4,1,2.1c0,0.1,0.1,0.1,0.1,0.1
		c0.6-0.1,1.5-0.6,1.8-0.5c0.5,0.2,1,1.2,1.5,1.7c0.1,0.1,0.2,0,0.3,0.1c0.4,0.6,0.6,1.4,1,2c0.1,0.1,0.4-0.1,0.5,0
		c0.2,0.1,0.1,0.3,0.3,0.5c0.2,0.2,0.4,0,0.4-0.3c0-0.3-0.1-0.8,0-0.9c0.1-0.1,0.5,0.1,0.5,0c0.1-0.5-0.2-1.1-0.1-1.4
		c0.1-0.1,0.6,0,0.8-0.3c0.2-0.3,0.5-2,0.9-2.2c0.1,0,1,0.7,1,0.2c0-0.6-0.4-1.1-0.3-1.7c0-0.2,0.6-0.1,0.6-0.3
		c0-0.5,0.2-1.7,0.4-1.8c0.1-0.1,0.5,0.2,0.8,0.3c0.1,0,0.3-0.1,0.3-0.2c0.2-0.6,0-1.4,0.4-1.9c0.1-0.2,0.5,0.3,0.8,0.2
		c0.5-0.4,0.9-1.6,1.1-1.7c0.2-0.1,0.7,0.7,1.1,0.9c0.1,0.1,0.3-0.2,0.5-0.2c0.7,0.4,0.8,1.2,1.1,1.6c0.1,0.1,0.2,0.1,0.3,0
		c0.1,0,0.1-0.2,0.2-0.3c0.3-0.7,0.3-1.5,0.7-2.2c0.2-0.2,0.5,0.6,0.7,0.4c0.2-0.3,0.4-0.9,0.5-0.9c0.2-0.1,0.5,0.2,0.6,0.1
		c0.2-0.2,0.5-1,0.6-1.1c0.2,0,0.6,0.7,0.9,1c0.1,0.1,0.2,0.2,0.3,0.1c0.5-0.4,0.7-1,1.3-1.3c0.2-0.1,0.3,0.5,0.5,0.4
		c0.7-0.5,1.2-1.5,1.6-1.5c0.3,0,0.1,0.9,0.2,1.6c0,0.1,0.4-0.1,0.4,0c0.1,0.5,0,1.3,0,1.6c0,0.3,0.8,0,0.9,0.1
		c0.2,0.2-0.2,1.1-0.2,1.4c0,0.1,0.3,0.1,0.3,0.2c0,0.4-0.3,1.1-0.1,1.3c0.1,0.2,1.2,0,1.3,0.2c0.1,0.2,0,1,0,1.3
		c0,0.1,0.3,0,0.3,0.1c-0.1,0.4-0.3,0.9-0.4,1.2c-0.1,0.2,0.5,0,0.4,0.2c-0.1,0.7-0.6,1.3-0.8,1.9c-0.1,0.3-0.1,0.5,0.2,0.5
		c0.3,0.1,0.7,0,0.9,0c0.1,0,0.2,0.5,0.3,0.5c0.2,0.1,0.7,0,0.8,0.2c0.1,0.2-0.3,1-0.3,1.5c0,0.3,0.3,0.4,0.3,0.7
		c0,0.3-0.5,1-0.5,1.6c0,0.3,0.6,0.4,0.5,0.6c0,0.3-0.6,1.2-0.8,1.6c-0.1,0.1,0,0.3,0,0.5c-0.3,0.5-0.8,1.1-1,1.4
		c-0.1,0.1,0.5,0.1,0.4,0.3c-0.2,0.6-0.9,1.2-1.2,1.8c-2,3.2-0.5,2.3,0.2,2.1c0.8-0.2,1.4-0.9,2.1-1.2c0.2-0.1,0.2,0.4,0.4,0.3
		c0.8-0.2,1.6-0.9,2.4-1.1c0.2,0,0.1,0.6,0.3,0.5c0.7-0.3,2.1-0.6,2.6-0.5c0.2,0.1-0.1,1.2,0.4,1.3c1.5,0.3,3.4-0.4,4.1-0.1
		c0.2,0.1,0,1,0.3,0.9c0.3,0,1.4-0.4,2.1-0.3c0.2,0,0.1,0.6,0.1,0.6c0.3,0.1,0.6,0,0.9,0c0.7,0.1,1.4,0.3,1.4,0.5
		c0,0.1-0.7,0.8-1,1.2c-0.1,0.2,0.4,0.3,0.3,0.5c-0.7,1.1-1.3,1.4-1.5,1.8c-0.1,0.2,0.7,1.2,0.6,1.4c-0.1,0.3-1.6,1.1-1.8,1.4
		c-0.1,0.1,0.5,1,0.4,1.2c-0.4,0.4-1.7,0.7-1.7,0.8c0,0.5,1.4,2.3,1.4,2.6c-0.1,0.5-1.6,1.6-2,2c-0.1,0.1,0.5,0.9,0.3,1
		c-0.9,0.4-1.8,0.7-2.7,0.6c-0.1,0,0.1,1.2-0.1,1.3C55.5-8,54.4-8.1,53.7-7.9L53.7-7.9z"/>
	<path class="st18" d="M52.8-3C49-3.5,44.1-4.8,40.3-5.7c-3.6-0.9-7.1-1.8-10.7-2.9c-7.4-1.3-17.9-3.9-24.4-7.6
		c7.7,3.2,14.9,4.9,22.7,6.6c0.1,0,0.3,0,0.4-0.1c0.1-0.1,0.1-0.3,0-0.4c-0.1-0.1-0.1-0.2-0.2-0.3c-0.8-1.3-1.5-2.7-2.3-4.1
		c-0.3-0.1-0.8-0.3-1.3-0.4c-2.6-0.7-5-1.4-7.7-1.9c-0.9-0.2-0.5-0.1-1.4-0.3c3.1,0.2,6.9,1.1,10.1,2.1c-1-1.8-2-3.6-3-5.4
		c-0.3-0.1-0.9-0.3-1.8-0.6c-3.2-0.9-6-1.2-9.2-1.8c3.1,0.1,7.5,0.9,10.7,1.8c-1-1.8-2-3.6-2.9-5.4c-0.3-0.1-0.8-0.3-1.5-0.5
		c-3.2-0.9-5.7-1.2-8.8-1.9c3,0,7,0.8,10,1.7c-1-1.9-1.9-3.8-2.9-5.6c-0.3,0-0.8-0.3-2-0.7c-1.1-0.4-2.3-0.6-3.4-1
		c1.8,0.1,3.4,0.6,5.1,1.1c-1.1-2.2-2.1-4.4-3-6.6c-0.5-1.3-0.4-0.9-0.9-2.3c0.8,1.4,0.4,0.7,1.1,2.2c1,2.1,2,4.1,3.1,6.1
		c0.4-1.6,1-3.2,1.9-4.6c-0.7,1.8-1.1,2.9-1.5,4.9c0,0.1-0.1,0.2-0.1,0.4c1.1,2.1,2.2,4.1,3.3,6.1c0.9-2.7,1.8-5.1,3.3-7.5
		c-1,2.5-1.9,4.6-2.7,7.2c-0.1,0.4-0.2,0.7-0.3,0.9c0.9,1.7,1.9,3.3,2.8,5c0.4-2.7,1.2-5.3,2.2-7.9c-0.6,2.6-1.4,5.2-1.8,7.9
		c0,0.2,0,0.4-0.1,0.6c1.1,2,2.3,4,3.5,6c0.3-1.5,0.4-2.2,1.2-3.9c-0.3,1.2-0.6,2.1-0.8,3.4c-0.1,0.5-0.1,0.8-0.1,1
		c0.5,0.9,1,1.8,1.5,2.7c0.3,0.6,0.6,1.1,0.8,1.4c0.1,0.2,0.3,0.3,0.5,0.3c0.2,0,0.4-0.1,0.5-0.3c0.6-1.5,1.1-3,1.6-4.5
		c-0.2-0.3-0.4-0.8-0.4-0.9c-2.5-4.5-4.7-11.3-5.3-16.4c0.2,0.8,0.1,0.4,0.3,1.2c1.4,6,2.8,10.1,5.7,15.5c0.7-2.1,1.4-4.3,2.1-6.5
		c-1-1.1-2.9-6.4-3.1-7.1c-0.6-2-1.2-4-1.5-6.1c1.5,4.9,2.3,8.1,4.8,12.6c0.5-1.5,1-2.9,1.5-4.4c0.2-0.6,0.5-1.3,0.7-1.9
		c-0.6-0.8-1.5-2.7-1.7-3c-1.2-2.3-2.3-5.1-2.8-7.7c1.6,4.1,2.4,6.5,4.7,10.1c0.7-2,1.5-4,2.3-5.9c-0.2-0.2-0.5-0.8-1.2-1.8
		c-1.2-1.9-2.2-3.6-3-5.7c1.5,2.5,2.7,4.5,4.4,6.9c1.3-3.2,2.7-6.4,4.1-9.5c0.4-0.9,0.3-0.6,0.7-1.4c-0.3,0.9-0.2,0.6-0.6,1.5
		c-1.2,3.1-2.5,6.1-3.7,9.1c1.9-1.5,3.8-2.9,6.1-4.1c-2,1.5-3.8,2.7-5.8,4.4c-0.3,0.3-0.5,0.4-0.7,0.6c-0.8,2.1-1.6,4.2-2.4,6.3
		c0.4-0.1,0.6-0.2,1-0.4c3.6-1.3,5.9-2.8,9.2-4.4c-2.2,1.6-7.9,4.7-10.5,5.4c-0.2,0.6-0.4,1.2-0.6,1.8c-0.5,1.4-1,2.9-1.4,4.3
		c3.3-1.3,5.5-2.8,8.6-4.6c-1.7,1.4-6.5,4.4-8.8,5.1c-0.7,2.2-1.3,4.4-2,6.5l0.1,0c3.6-1.8,6.4-3.8,9.7-5.7c-1.9,1.5-7.7,5.3-10,6.3
		c-0.4,1.4-0.9,2.7-1.4,4c-0.1,0.2,0,0.4,0.1,0.6c0.2,0.2,0.4,0.2,0.6,0.1c3-1.4,5.9-2.7,8.9-4c0.3-1.5,2.5-5.9,2.8-6.5
		c-0.9,2.2-1.6,4.1-2.4,6.4c1.2-0.5,2.4-1.1,3.6-1.6c0.7-0.3,1.5-0.6,2.2-1c0-0.2,0.2-0.5,0.4-1c1-2.6,2.1-5,3.5-7.4
		c-1.4,3-2.4,5.2-3.5,8.2c1.9-0.8,4-1.7,6.1-2.5c0.4-1.1,2.2-3.8,2.5-4.2c-0.7,1.4-1.3,2.6-2,4c2.5-1,5.1-1.9,7.3-2.5
		c-2.3,1.1-4.8,2.1-7.2,3.1c1.4,0.7,2.7,1.2,4.1,1.8c-0.6-0.1-3.8-1.2-4.6-1.6c-1,0.4-1.9,0.8-2.9,1.2c-0.9,0.4-1.8,0.8-2.8,1.2
		c3.2,1.5,5.2,2.2,8.8,3.3c-2.8-0.4-5.9-1.6-8.5-2.7c-0.4-0.2-0.6-0.3-0.8-0.3c-2,0.9-3.9,1.8-5.9,2.7c3.2,1.3,5.9,2.4,9.2,3.5
		l0.7,0.2c-2.3-0.4-7.9-2.3-10.3-3.5c-3.1,1.4-6.1,2.9-9.2,4.4c-0.1,0.1-0.2,0.2-0.2,0.4c0,0.2,0.1,0.3,0.3,0.3
		c3.5,1.1,7.3,2.1,10.7,3C45.9-4.8,49.6-4,52.8-3L52.8-3z"/>
</g>
<ellipse transform="matrix(0.6156 -0.7881 0.7881 0.6156 9.8893 147.1106)" class="st5" cx="155.7" cy="63.4" rx="18.5" ry="3.8"/>
<ellipse transform="matrix(0.9382 -0.346 0.346 0.9382 -47.2539 23.2197)" class="st5" cx="41.4" cy="144" rx="13.5" ry="2.8"/>
<g>
	<path class="st13" d="M17,147.8c1.4,0.8,2.8,1.4,4.2,1.8c1.5-8.9,3-17.8,4.2-26.8c-6.9-2-13.8-0.1-16.7,5.1
		C5,134.3,8.8,143.2,17,147.8z"/>
	<path class="st14" d="M17,147.8c1.4,0.8,2.8,1.4,4.2,1.8c0.2-1.1,0.3-2.1,0.5-3.2c-7.9-3.1-14.2-10.8-13.1-18.5
		C5,134.3,8.8,143.2,17,147.8z"/>
	<path class="st10" d="M24.6,128.3c-1,0.4-1.9,1.1-2.4,2c-1,1.9-0.5,4.3,1.1,6.4C23.8,133.9,24.2,131.1,24.6,128.3z"/>
</g>
<g>
	<path class="st13" d="M49.1,141c-6.8,2.5-13.8,4.7-20.6,7.1c1.7,6.6,6.4,11.4,12.2,11.6c7.3,0.2,13.4-7.3,13.6-16.7
		c0-1.3-0.1-2.5-0.2-3.7C52.4,139.8,50.8,140.4,49.1,141z"/>
	<path class="st14" d="M28.5,148.1c1.7,6.6,6.4,11.4,12.2,11.6c-5.3-2.3-8.3-7.2-9.2-12.6C30.5,147.4,29.5,147.8,28.5,148.1z"/>
	<path class="st10" d="M49.1,141c-3,1.1-6,2.1-9,3.1c-0.2,0.8-0.3,1.7-0.4,2.6c-0.1,4.5,2.4,8.3,5.6,8.4c3.2,0.1,5.9-3.6,6-8.1
		c0.1-2.4-0.6-4.6-1.8-6.2C49.4,140.9,49.3,141,49.1,141z"/>
</g>
<ellipse transform="matrix(0.1493 -0.9888 0.9888 0.1493 -114.8463 138.5723)" class="st7" cx="23.1" cy="136" rx="13.5" ry="2.8"/>
<ellipse transform="matrix(0.9561 -0.2929 0.2929 0.9561 -35.2837 23.5058)" class="st6" cx="60.8" cy="129.6" rx="20.2" ry="2.6"/>
<ellipse transform="matrix(0.9878 -0.1558 0.1558 0.9878 -15.4323 24.1672)" class="st7" cx="146.4" cy="110.5" rx="22.8" ry="3.5"/>
<ellipse transform="matrix(0.9784 -0.2066 0.2066 0.9784 -22.5638 23.4658)" class="st5" cx="101" cy="119.7" rx="22.7" ry="3.5"/>
<ellipse transform="matrix(0.9784 -0.2066 0.2066 0.9784 -19.1188 37.4513)" class="st6" cx="169.7" cy="110.2" rx="20.4" ry="7.8"/>
<g>
	<g>
		<path class="st2" d="M21.2,116.6c-0.9,2.1,9.7-2.5,11.2-4.6c-1.4,2.1-9.5,6-12.4,6.7c-0.2,1.2-1.1,3-3,3.6
			c-0.9,0.3-1.5,0.1-1.9-0.2c-2-1.3-1.4-4.5,1.5-7.4c1.9-1.9,4.6-3.8,5.7-5.8c1.3-2.3-0.5-3.7,0.3-5.9c1.1-3.1,6.3-6.3,10.7-8.7
			c4.4-2.4,9.6-5.6,10.7-8.7c0.4-1.1,0.2-2,0.6-3.1c1.1-2.6,5.3-5.3,8.9-7.5c7.1-4.3,14.1-9,20.7-13.9c0.4-0.3,0.7-0.5,1-0.8
			c0.7-0.9,0-1.4,0-2.1c0-1.1,1.9-2.8,3.8-3.8c1.9-1,3.8-1.5,5.8-2.2c5.4-1.9,10.7-5.3,15.9-8.5c0.6-0.4,1.3-0.8,1.6-1.3
			c0.4-0.6,0.3-1,0.1-1.4c-0.5-1-1.3-2.2,0.2-3.7c1.2-1.2,3.2-2,4.5-2c1.4,0,2.2,0.5,3,1c0.6,0.4,1.3,0.8,2.5,0.7s2.9-1.1,3.3-2
			c0.1-0.3,0.1-0.5,0.1-0.8c0.1-1.2,1-2.8,2.6-4.1s4-2.3,5.4-2.1c1.8,0.3,1.5,2.1,0.2,3.9c-1.3,1.8-3.4,3.5-5.3,5.2
			c-1.9,1.7-7.3,5-7.8,6.6c0,0,6.7-8.1-3.2-2.1S56.2,79.5,44.5,91.6S22.7,113.1,21.2,116.6z"/>
	</g>
	<g class="st3">
		<path class="st4" d="M118.8,30.6c-2,1.2-2.8,4.3-3,4.4c0.1-0.3,0.1-0.5,0.1-0.8c0.1-1.2,1-2.8,2.6-4.1s4-2.3,5.4-2.1
			c1.8,0.3,1.5,2.1,0.2,3.9C125.3,28,120.8,29.4,118.8,30.6z"/>
	</g>
	<g class="st3">
		<path class="st4" d="M102.1,42.4c0.4-0.6,0.3-1,0.1-1.4c-0.5-1-1.3-2.2,0.2-3.7c1.2-1.2,3.2-2,4.5-2c1.4,0,2.2,0.5,3,1
			c-1.7-0.7-4.3-0.4-6.3,0.8C101.7,38.3,102.1,42.4,102.1,42.4z"/>
	</g>
	<g class="st3">
		<path class="st4" d="M72.7,62.3c0,0,2-1.4,3.2-2.1s0.3-1.4,2.1-3.6c1.8-2.2,5.6-3.5,10.1-5c4.5-1.4,12.4-7.9,12.4-7.9
			c-5.1,3.2-10.5,6.6-15.9,8.5c-1.9,0.7-3.8,1-5.8,2.2c-5.8,3.6-3.3,3.4-4.7,5.5C72.7,62.1,72.7,62.3,72.7,62.3z"/>
	</g>
</g>
<path class="st2" d="M182,97.7c-0.4,0.6-1.2,0.6-1.6,0c-1.6-2.9-2.3-13.5,0.8-9C182,89.8,183.6,95,182,97.7z"/>
<path class="st0" d="M185.5,95.5c-1-0.2-1.8-0.8-1.5-1.7c1.5-4.3,15.5-16.3,16.7-9.2C201.9,91.7,191.5,96.4,185.5,95.5z"/>
<path class="st2" d="M162.8,40.2c-0.2,0.4-0.6,0.4-0.8,0c-0.8-1.9-1.1-8.9,0.4-5.9C162.9,35,163.6,38.4,162.8,40.2z"/>
<path class="st0" d="M164.6,38.8c-0.5-0.1-0.9-0.5-0.7-1.1c0.7-2.8,7.6-10.7,8.1-6S167.5,39.4,164.6,38.8z"/>
<path class="st2" d="M144.3,71.5c0.4,0,0.6,0.4,0.3,0.7c-1.4,1.5-7.7,4.5-5.6,2C139.5,73.6,142.4,71.5,144.3,71.5z"/>
<path class="st2" d="M142.4,67.4c0.3,0.3,0.1,0.7-0.4,0.7c-2-0.2-8.4-3.2-5.1-3.1C137.9,65,141.3,65.9,142.4,67.4z"/>
<path class="st0" d="M140.4,70.7c0.1,0.1,0,0.3-0.5,0.4c-2.3,0.2-10.8-0.3-7.7-1.2C135.3,69,139.6,69.9,140.4,70.7z"/>
<path class="st2" d="M75.2,109.2c1.2,0.5,1.4-1.5,0.4-2.3c-5.9-5.2-12.4-5.1-13.2-0.8C61.1,114.2,68.4,106.3,75.2,109.2z"/>
<path class="st0" d="M30,140.7c-0.8,0.9,1,1.8,2,1.1c6.8-4,8.4-14.8,4.9-12.2C33.5,132.2,34.9,135.2,30,140.7z"/>
<path class="st0" d="M30.2,132.6c-0.2,0.6,0.8,0.7,1.1,0.2c2.1-3.2,0.4-8.8-0.5-6.9C29.9,127.8,31.1,129,30.2,132.6z"/>
<g>
	<path class="st2" d="M144.7,78.4c-1,0.2-1-3.1-0.1-3.5c-0.9,0.4-1.1,3-0.8,3.9c-0.6,0-1.5,0.3-1.4,0.9c0,0.3,0.3,0.5,0.6,0.6
		c1.2,0.7,2.9,0.6,3.9-0.3c0.7-0.6,1.1-1.4,1.9-1.7c1-0.4,2.2,0.3,3.3,0.1c1.5-0.3,2-1.9,2.3-3.3c0.3-1.4,0.9-3,2.3-3.3
		c0.5-0.1,1.1,0,1.6-0.1c1.2-0.3,1.7-1.6,2.1-2.7c0.7-2.2,1.7-4.4,2.9-6.4c0.1-0.1,0.1-0.2,0.2-0.3c0.3-0.2,0.8,0,1.2,0.1
		c0.7,0,1.2-0.5,1.3-1.1c0.1-0.6-0.1-1.2-0.2-1.8c-0.2-1.7,0.4-3.4,1-5c0.1-0.2,0.1-0.4,0.3-0.5c0.2-0.1,0.5-0.1,0.8,0
		c0.7,0.2,1.6,0.5,2.1,0c0.4-0.3,0.3-1,0-1.4c-0.3-0.4-0.8-0.7-1.3-1c-0.4-0.2-0.8-0.5-1-0.8s-0.1-0.9,0.3-1c0.1,0,0.3,0,0.4,0
		c0.7,0,1.3-0.2,1.7-0.7c0.4-0.5,0.3-1.2-0.1-1.7c-0.6-0.6-1.6-0.6-2.3-0.2c-0.7,0.4-1.2,1-1.7,1.6c-0.5,0.6-1.2,1.1-2,1.2
		c0,0,3.1-0.9,2.1,2.2c-1,3.1-7.9,15.4-12,18.8C150.3,74.3,146.3,78,144.7,78.4z"/>
</g>
<g>
	<path class="st0" d="M29.1,148.1c-0.5-0.1,1.3-1.7,1.8-1.7c-0.5,0-2,1.2-2.3,1.7c-0.3-0.1-0.7-0.1-1,0.1c-0.1,0.1-0.1,0.3-0.1,0.4
		c0.1,0.6,0.8,0.8,1.6,0.6c0.5-0.1,1.1-0.4,1.6-0.4c0.6,0,0.7,0.6,1.2,0.7c0.7,0.2,1.8-0.5,2.6-1.1s1.9-1.2,2.6-1.1
		c0.3,0.1,0.4,0.2,0.7,0.3c0.6,0.1,1.5-0.4,2.2-0.9c1.4-0.9,2.9-1.7,4.4-2.4c0.1,0,0.2-0.1,0.2-0.1c0.2,0,0.3,0.2,0.4,0.3
		c0.2,0.2,0.7,0,1.1-0.3s0.6-0.6,0.9-0.9c0.8-0.8,1.9-1.5,3-2.1c0.1-0.1,0.3-0.2,0.4-0.2c0.1,0,0.2,0.1,0.3,0.2
		c0.2,0.2,0.3,0.5,0.8,0.4c0.3-0.1,0.6-0.4,0.8-0.7s0.1-0.5,0-0.7c0-0.2-0.1-0.4,0.1-0.6s0.4-0.4,0.7-0.4c0.1,0,0.1,0,0.2,0.1
		c0.2,0.1,0.6,0.1,1,0c0.4-0.2,0.8-0.5,0.8-0.8c0.1-0.4-0.3-0.6-0.8-0.5s-1,0.2-1.5,0.4c-0.5,0.2-1,0.3-1.4,0.2c0,0,1.8,0.6-0.4,1.5
		c-2,0.8-10.9,4.6-14.3,5.4C33.5,146.2,30,148.2,29.1,148.1z"/>
</g>
<g>
	<path class="st0" d="M21.6,149c0.3,0.5,1.4-1.7,1.3-2.3c0.2,0.6-0.7,2.4-1.1,2.8c0.2,0.2,0.4,0.7,0.2,1c-0.1,0.2-0.3,0.2-0.4,0.2
		c-0.7,0-1.2-0.6-1.2-1.5c0-0.6-1-1.2-1.2-1.6c-0.2-0.6-0.5-1-0.8-1.5c-0.4-0.7,0.7-1.7,1.1-2.7s0.7-2.3,0.3-3
		c-0.1-0.3-0.4-0.4-0.5-0.6c-0.3-0.6,0-1.7,0.2-2.5c0.5-1.7,1-3.5,1.3-5.3c0-0.1,0-0.2,0-0.3c0-0.3-0.3-0.2-0.4-0.4
		c-0.2-0.2-0.2-0.8,0-1.2c0.2-0.4,0.4-0.8,0.7-1.2c0.7-1.1,1-2.4,1.4-3.6c0-0.1,0.1-0.3,0.1-0.4c0-0.2-0.1-0.2-0.3-0.3
		c-0.3-0.1-0.7-0.2-0.7-0.7c0-0.4,0.2-0.8,0.5-1c0.3-0.2,0.5-0.2,0.8-0.2c0.2,0,0.4,0,0.6-0.2c0.2-0.2,0.4-0.6,0.2-0.8
		c0-0.1-0.1-0.1-0.1-0.2c-0.2-0.2-0.4-0.6-0.3-1.1s0.3-0.9,0.6-1.1c0.4-0.2,0.7,0.2,0.8,0.7c0.1,0.5,0,1.1,0,1.6
		c0,0.6,1.3,1.3,1.3,2.1s-1.5-1.5-2.6,0.2c-1.3,2.1-2.7,13-2.5,16.7C21.1,144.4,21.2,148.2,21.6,149z"/>
</g>
<g>
	<path class="st2" d="M159.3,28.7c0.6-0.4,0.2-0.6-0.4-0.1c0.5-0.5,1,0.4,0.9-0.4c0.4-0.1,0.9-0.5,0.8-1c0-0.3-0.2-0.4-0.3-0.5
		c-0.7-0.5-1.7-0.1-2.3,0.9c-0.4,0.6-0.7,1.5-1.2,1.9c-0.6,0.5-1.3,0.1-2,0.5c-0.9,0.5-1.3,2.1-1.6,3.5c-0.3,1.4-0.7,3-1.6,3.5
		c-0.3,0.2-0.7,0.2-1,0.4c-0.7,0.5-1.1,1.8-1.4,2.9c-0.6,2.2-1.3,4.4-2.1,6.6c0,0.1-0.1,0.2-0.2,0.3c-0.2,0.3-0.5,0.1-0.7,0.1
		c-0.4,0.1-0.7,0.7-0.8,1.3s0,1.1,0,1.7c0,1.6-0.4,3.3-0.9,4.9c-0.1,0.2-0.1,0.4-0.2,0.5c-0.1,0.2-0.3,0.1-0.4,0.1
		c-0.4-0.1-0.9-0.2-1.2,0.3c-0.3,0.4-0.3,1-0.1,1.4c0.2,0.4,0.4,0.6,0.7,0.8c0.2,0.1,0.4,0.3,0.5,0.6c0.1,0.3,0,0.9-0.3,1
		c-0.1,0.1-0.2,0.1-0.2,0.1c-0.4,0.1-0.8,0.4-1,1s-0.3,1.2,0,1.6c0.3,0.5,0.9,0.3,1.3-0.2c0.4-0.5,0.8-1.2,1.1-1.8
		c0.3-0.6,0.7-1.3,1.2-1.5c0,0-2.6,1.1-1.1-1.8c1.7-3.3,6.8-16.2,9.4-20.2C157,33.1,158.3,29.3,159.3,28.7z"/>
</g>
</svg>
