<?xml version="1.0" encoding="utf-8"?>
<!-- Generator: Adobe Illustrator 25.2.1, SVG Export Plug-In . SVG Version: 6.00 Build 0)  -->
<svg version="1.1" id="Layer_3" xmlns="http://www.w3.org/2000/svg" xmlns:xlink="http://www.w3.org/1999/xlink" x="0px" y="0px"
	 viewBox="0 0 200 200" style="enable-background:new 0 0 200 200;" xml:space="preserve">
<style type="text/css">
	.st0{fill-rule:evenodd;clip-rule:evenodd;fill:#642D80;}
	.st1{fill-rule:evenodd;clip-rule:evenodd;fill:#4B235F;}
	.st2{fill-rule:evenodd;clip-rule:evenodd;fill:#8557A0;}
	.st3{fill-rule:evenodd;clip-rule:evenodd;fill:#522D58;}
	.st4{opacity:0.5;fill-rule:evenodd;clip-rule:evenodd;fill:#8557A0;}
	.st5{fill-rule:evenodd;clip-rule:evenodd;fill:#863F8F;}
	.st6{opacity:0.5;fill-rule:evenodd;clip-rule:evenodd;fill:#4B235F;}
	.st7{opacity:0.6;fill-rule:evenodd;clip-rule:evenodd;fill:#8557A0;}
	.st8{fill:#4E6B2C;}
	.st9{fill-rule:evenodd;clip-rule:evenodd;fill:#659326;}
	.st10{fill-rule:evenodd;clip-rule:evenodd;fill:#AFF781;}
	.st11{fill-rule:evenodd;clip-rule:evenodd;fill:#5E8238;}
	.st12{fill-rule:evenodd;clip-rule:evenodd;fill:#4E6B2C;}
	.st13{opacity:0.5;fill-rule:evenodd;clip-rule:evenodd;fill:#B87DE2;}
</style>
<g>
	<g>
		
			<ellipse transform="matrix(0.9904 -0.1385 0.1385 0.9904 -17.0839 21.5206)" class="st0" cx="146.1" cy="133.5" rx="28.6" ry="22.1"/>
		<path class="st1" d="M174.4,129.6c-10.8-19.5-50.5-16.7-56.6,7.9c-1.7-12.1,9.6-23.7,25.2-25.9
			C158.7,109.4,172.7,117.5,174.4,129.6z"/>
		
			<ellipse transform="matrix(0.9904 -0.1385 0.1385 0.9904 -18.3238 20.7875)" class="st2" cx="140.2" cy="142.1" rx="13.8" ry="9.7"/>
	</g>
	<g>
		
			<ellipse transform="matrix(0.9904 -0.1385 0.1385 0.9904 -13.5411 12.0655)" class="st3" cx="79.9" cy="103.4" rx="28.6" ry="22.1"/>
		<path class="st1" d="M108.2,99.4c-10.8-19.5-50.5-16.7-56.6,7.9c-1.7-12.1,9.6-23.7,25.2-25.9S106.6,87.3,108.2,99.4z"/>
		
			<ellipse transform="matrix(0.9904 -0.1385 0.1385 0.9904 -14.781 11.3324)" class="st4" cx="74.1" cy="111.9" rx="13.8" ry="9.7"/>
	</g>
	<g>
		
			<ellipse transform="matrix(0.9904 -0.1385 0.1385 0.9904 -19.5704 13.6534)" class="st3" cx="88.3" cy="147.5" rx="28.6" ry="22.1"/>
		<path class="st1" d="M116.6,143.5c-10.8-19.5-50.5-16.7-56.6,7.9c-1.7-12.1,9.6-23.7,25.2-25.9C100.9,123.4,115,131.4,116.6,143.5
			z"/>
		<ellipse transform="matrix(0.9904 -0.1385 0.1385 0.9904 -20.8103 12.9203)" class="st4" cx="82.5" cy="156" rx="13.8" ry="9.7"/>
	</g>
	<g>
		
			<ellipse transform="matrix(0.9348 -0.3551 0.3551 0.9348 -29.3084 45.3991)" class="st5" cx="109" cy="102.6" rx="22.1" ry="28.6"/>
		<path class="st6" d="M119.2,129.3c16.6-14.9,5-52.9-20.3-53.4c11.4-4.3,25.2,4.1,30.8,18.9C135.3,109.4,130.6,124.9,119.2,129.3z"
			/>
		
			<ellipse transform="matrix(0.9348 -0.3551 0.3551 0.9348 -28.5719 41.7262)" class="st7" cx="99.4" cy="98.7" rx="9.7" ry="13.8"/>
	</g>
	<g>
		<g>
			<path class="st8" d="M62.2,44.5c-0.5,0.7-1.6,1-2.3,1.2c-1.3,0.4-2.7,0.7-4.1,0.8c-2.7,0.3-5.4,0.5-8.1,0.2
				c-8.6-1-15.8-6.6-23.9-8.9c-1.4-0.4-2,1.8-0.6,2.2c8.6,2.5,16.1,8.4,25.2,9.1c3,0.2,6,0,9-0.5c2.3-0.4,5.4-0.9,6.8-2.9
				C65.1,44.5,63.1,43.3,62.2,44.5L62.2,44.5z"/>
		</g>
	</g>
	<g>
		<path class="st9" d="M26.8,0.6C26.9,1.1,27.7,1.3,28,1c0.6-0.4,1.4-1.5,1.7-1.5c0.2,0,1.1,1.2,1.3,1.1c0.3-0.1,0.9-1.2,2-1.5
			c0.2-0.1,0.4,0.6,0.6,0.4c0.4-0.5,1.5-1.5,1.8-1.3c0.6,0.3,1.2,2.5,2,3.6C37.5,2,37.9,1.8,38,1.9c0.3,0.9,0.4,1.9,0.6,2.5
			c0.1,0.2,0.9,0,1,0.2c1,1.7,0.3,5.2,0.7,6.3c0.1,0.2,2.6,0.3,3.1,0.8c0.2,0.2-0.3,1.9-0.2,2.2c0,0.1,0.6,0.3,0.8,0.5
			c0,0-0.1,0.6-0.3,1.2c-0.3,0.8-0.5,1.1-0.5,1.2c0,0.1,1.2,0.3,1.2,0.5c-0.1,1-0.6,1.8-1.1,2.6c-0.6,0.9-1.4,1.5-2.1,2.3
			c-0.4,0.5-0.9,1.2,0.3,1.1c0.8-0.1,2.7-0.3,3.1,0.1c0.4,0.5-0.7,2.6-0.7,2.8c0,0.2,0.6,0.3,0.5,0.5c-0.4,1.1-1.2,1.6-1.3,2
			c0,0.1,0.8,0.8,0.6,1.1C42.7,31,41,31.6,40,32.8c-0.2,0.2,0.9,0.2,0.8,0.5c-0.4,0.9-1,1.7-1.8,2.1c-3.7,2-7.5,2.9-11.7,3.9
			c-1.6,0.4-1.7,1.2-0.4,2.2c2.3,1.7,4.9,3,7.1,4.7c0.3,0.2,0,0.7,0.1,1c0.1,0.3,0.8,0.6,0.6,0.9c-0.3,0.6-1.5,0.7-1.6,1
			c-0.1,0.2,0.2,0.7,0.4,1.3c1.1,2.5,1,6.2,0.4,8.6c-0.1,0.4-1-1.2-1.2-0.8c-1.4,2.4-0.6,5.9-3.6,9.7c-0.2,0.2-0.7-0.9-0.8-0.6
			c-0.9,1.5-1.3,4.7-1.8,4.9c-0.6,0.2-3.1-0.6-3.4-0.3c-0.2,0.3-0.8,2.8-1.7,3.8c-0.9,1-2.6,1.8-3.7,2c-0.3,0-0.5-0.9-0.7-0.7
			c-0.1,0.1-0.4,0.5-0.8,0.9c-1.5,1.6-4.4,2.8-6.7,2.6c-0.3,0,0-0.6-0.2-0.8C8.8,79.5,8,79.4,8,79.2c-0.2-0.9,0.5-2.3,0.3-2.5
			c-0.2-0.2-2.3,0.1-3.1-0.3C5,76.2,5.1,75.4,5,75c-0.1-0.5-0.5-0.3-0.5-0.6c-0.1-0.5,0.3-1.6,0.1-2.3c-0.1-0.4-1.1-0.9-1.8-0.3
			c-1.3,1.2-2.6,3.7-5,3.6c-0.6,0-0.7-1.8-1.2-1.5c-0.6,0.5-1.8,2.9-3.3,3.4C-6.9,77.5-8,76-8.2,76c-0.6,0-3.1,1.7-4.5,1.2
			c-0.3-0.1-0.6-1.9-0.8-2.3c-0.1-0.1-0.9,0-1-0.1c-0.2-0.3,0-1.7-0.2-2.5c-0.1-0.5-0.5-0.3-0.7-0.2c-1,0.5-2,1.8-3,1.6
			c-0.3,0-0.4-1.3-0.7-1.4c-0.2-0.1-1.2,1-1.7,1c-0.2,0-0.5-0.7-0.8-0.8c-0.3-0.1-1.5,0-1.7-0.3c-0.3-0.3-0.8-2.4-1.1-2.5
			c-0.4-0.2-3,0.1-4.5-0.3c-0.5-0.2-0.6-1-0.9-1.2c-0.2-0.1-0.9,0.2-1.1,0.1c-0.2-0.1-0.6-0.5-0.9-0.7c-0.2-0.1-1.3,0.1-1.4-0.4
			c-0.3-1.5,1.4-3.4,1.4-3.7c0-0.3-0.6-0.6-0.5-0.9c0.6-1.1,2.3-2.2,2.6-2.9c0.1-0.3-1-1.8-1-2.2c0-0.3,1.1-0.6,1.3-1.2
			c0.1-0.3-0.2-0.7-0.2-0.9c0-0.1,1.5-0.5,1.8-0.7c0.2-0.1-0.3-0.9,0-1.1c1-0.7,2.3-0.9,3.5-1.5c0.1,0,0.2-0.1,0.2-0.2
			c-0.1-1-0.8-2.4-0.6-2.9c0.3-0.7,1.9-1.6,2.8-2.4c0.1-0.1,0-0.4,0.2-0.4c1-0.6,2.3-0.9,3.2-1.6c0.2-0.2-0.1-0.6,0.1-0.9
			c0.2-0.3,0.5-0.2,0.8-0.4c0.4-0.4,0-0.7-0.4-0.7c-0.5,0-1.3,0-1.4-0.1c-0.1-0.1,0.2-0.7,0-0.8c-0.7-0.3-1.8,0.2-2.3,0
			c-0.2-0.1,0-0.9-0.4-1.2c-0.4-0.4-3.3-0.9-3.5-1.5c0-0.1,1.2-1.5,0.5-1.6c-0.9-0.1-1.8,0.5-2.8,0.3c-0.4-0.1-0.2-0.9-0.5-1
			c-0.8-0.1-2.7-0.4-2.9-0.7c-0.1-0.2,0.4-0.8,0.5-1.3c0-0.2-0.2-0.4-0.4-0.5c-1-0.4-2.2-0.1-3.1-0.7c-0.4-0.3,0.6-0.9,0.3-1.2
			c-0.7-0.9-2.6-1.5-2.7-1.9c-0.1-0.3,1.2-1.1,1.5-1.8c0.1-0.2-0.4-0.6-0.2-0.8c0.7-1.2,1.9-1.2,2.6-1.8c0.1-0.1,0.1-0.3,0.1-0.5
			c-0.1-0.1-0.3-0.2-0.4-0.3c-1.1-0.5-2.4-0.5-3.4-1.3c-0.4-0.3,1-0.8,0.7-1c-0.5-0.4-1.4-0.7-1.5-0.9c-0.2-0.3,0.3-0.8,0.2-0.9
			c-0.3-0.3-1.7-0.8-1.7-1.1c0-0.3,1.2-0.9,1.7-1.4c0.1-0.1,0.3-0.4,0.1-0.5c-0.6-0.8-1.6-1.3-2.1-2.1c-0.2-0.3,0.8-0.5,0.6-0.8
			c-0.8-1.2-2.4-2.1-2.4-2.6c0-0.5,1.5-0.1,2.5-0.2c0.2,0-0.1-0.6,0.1-0.6c0.9-0.1,2.1,0.1,2.6,0c0.5,0,0-1.2,0.2-1.4
			c0.4-0.3,1.8,0.3,2.2,0.4c0.2,0,0.1-0.4,0.3-0.4c0.7,0,1.8,0.5,2.1,0.3c0.3-0.2,0.1-1.9,0.4-2.1c0.4-0.2,1.6,0,2.1,0.1
			c0.2,0,0-0.4,0.2-0.4c0.7,0.1,1.5,0.5,2,0.7c0.3,0.1,0-0.8,0.3-0.7c1.1,0.2,2,1,3,1.4c0.4,0.2,0.7,0.2,0.8-0.3
			c0.1-0.5,0-1.2,0.1-1.5c0-0.2,0.7-0.3,0.8-0.4c0.2-0.4,0.1-1.2,0.3-1.3c0.3-0.2,1.6,0.6,2.3,0.6c0.4,0,0.7-0.5,1.1-0.4
			c0.5,0.1,1.6,0.9,2.5,1c0.5,0,0.7-0.9,1-0.9c0.5,0.1,1.9,1,2.6,1.4c0.2,0.1,0.5-0.1,0.7,0.1c0.7,0.5,1.7,1.4,2.2,1.7
			c0.2,0.1,0.2-0.7,0.6-0.6c1,0.3,1.9,1.5,2.8,2.1c5.1,3.4,3.7,0.9,3.4-0.3C-2,10-3,8.9-3.4,7.7c-0.1-0.3,0.6-0.3,0.5-0.6
			c-0.3-1.4-1.4-2.6-1.7-3.9C-4.6,2.9-3.6,3-3.7,2.7c-0.5-1.2-0.9-3.5-0.6-4.2c0.1-0.4,2,0.2,2.2-0.5c0.6-2.4-0.5-5.4,0.1-6.7
			C-2-8.9-0.5-8.5-0.6-9.1c0-0.4-0.6-2.3-0.4-3.5c0.1-0.3,1-0.1,1-0.2c0.1-0.5,0-1,0.1-1.5c0.2-1.1,0.5-2.2,0.9-2.2
			c0.2,0,1.2,1.2,2,1.7c0.3,0.2,0.6-0.6,0.9-0.4C5.5-14,6-13.1,6.7-12.6c0.3,0.2,1.9-1,2.3-0.9c0.5,0.1,1.6,2.7,2.1,2.9
			c0.2,0.1,1.7-0.7,1.9-0.5c0.6,0.6,1,2.9,1.3,2.8c0.8,0,3.8-2.2,4.4-2.1c0.8,0.2,2.5,2.7,3.2,3.3c0.1,0.1,1.4-0.8,1.6-0.4
			c0.6,1.5,1,3,0.9,4.4c0,0.1,1.9-0.1,2.2,0.3C26.7-2.3,26.5-0.5,26.8,0.6L26.8,0.6z"/>
		<path class="st10" d="M34.6,2.5c-1,6-3.3,14-5,19.9c-1.6,5.7-3.4,11.4-5.3,17c-2.5,11.9-7.3,28.7-13.6,39
			c5.5-12.2,8.8-23.7,11.9-36.3c0.1-0.2,0-0.5-0.2-0.6c-0.2-0.1-0.4-0.2-0.6-0.1c-0.2,0.1-0.3,0.2-0.5,0.3c-2.2,1.2-4.5,2.3-6.7,3.5
			c-0.2,0.5-0.5,1.2-0.7,2.2c-1.3,4.2-2.5,8-3.5,12.3c-0.4,1.5-0.2,0.7-0.6,2.2c0.4-5,2.2-11.1,4-16.2c-2.9,1.5-5.9,3.1-8.9,4.6
			c-0.2,0.6-0.5,1.4-1,2.9c-1.6,5.2-2.3,9.6-3.5,14.7C0.5,63,2,56,3.6,51c-3,1.5-5.9,3-8.9,4.4c-0.2,0.5-0.5,1.3-0.9,2.5
			c-1.6,5.1-2.3,9.1-3.5,14.1c0.2-4.8,1.7-11.2,3.4-16.1c-3.1,1.5-6.2,2.9-9.3,4.3c0,0.4-0.6,1.3-1.3,3.2c-0.7,1.8-1.2,3.6-1.8,5.4
			c0.2-2.9,1.1-5.5,2.1-8.2c-3.6,1.6-7.2,3.1-10.8,4.5c-2.1,0.8-1.5,0.6-3.7,1.3c2.3-1.1,1.2-0.6,3.5-1.7c3.4-1.5,6.7-3.1,10-4.6
			c-2.6-0.8-5.1-1.7-7.4-3.4c2.9,1.2,4.7,2,7.8,2.8c0.2,0.1,0.4,0.1,0.6,0.1c3.4-1.6,6.7-3.3,10.1-5c-4.2-1.6-8.1-3.2-11.9-5.7
			c3.9,1.8,7.3,3.3,11.4,4.8c0.7,0.2,1.1,0.4,1.4,0.5c2.8-1.4,5.5-2.8,8.2-4.3c-4.4-0.9-8.5-2.2-12.6-4c4.2,1.1,8.4,2.6,12.7,3.3
			c0.4,0.1,0.7,0.1,0.9,0.1c3.3-1.7,6.6-3.5,9.9-5.3c-2.5-0.5-3.6-0.8-6.2-2.1c1.9,0.6,3.4,1.1,5.4,1.4c0.7,0.1,1.3,0.2,1.6,0.3
			c1.5-0.8,2.9-1.6,4.4-2.3c1-0.5,1.8-0.9,2.3-1.2c0.3-0.1,0.5-0.4,0.5-0.8c0-0.3-0.2-0.6-0.5-0.8c-2.4-1-4.7-2-7.2-2.9
			c-0.5,0.4-1.4,0.6-1.4,0.7c-7.4,3.8-18.5,7-26.9,7.7c1.3-0.3,0.7-0.2,2-0.5c9.8-2,16.5-3.9,25.3-8.3c-3.4-1.3-6.9-2.5-10.3-3.7
			C0.8,33.1-7.9,36-9,36.3c-3.2,0.9-6.6,1.7-9.9,2.1c8.1-2.1,13.2-3.3,20.7-7.1c-2.3-0.8-4.7-1.7-7-2.6c-1-0.4-2.1-0.8-3.1-1.3
			c-1.2,0.9-4.4,2.3-5,2.6c-3.8,1.8-8.4,3.4-12.5,4.1c6.6-2.4,10.6-3.5,16.6-7.1c-3.1-1.3-6.3-2.6-9.4-4c-0.3,0.4-1.2,0.7-3,1.8
			c-3.1,1.8-6,3.3-9.4,4.6c4.1-2.3,7.5-4.2,11.4-6.7c-5.1-2.3-10.2-4.7-15.1-7.2c-1.4-0.7-0.9-0.5-2.3-1.2c1.5,0.6,0.9,0.3,2.4,1
			c4.9,2.2,9.7,4.3,14.5,6.4c-2.4-3.2-4.5-6.4-6.2-10c2.3,3.3,4.2,6.4,6.7,9.5c0.4,0.5,0.7,0.8,0.9,1.1c3.3,1.4,6.6,2.8,10,4.1
			c-0.2-0.6-0.3-0.9-0.5-1.7c-2-5.8-4.1-9.8-6.6-15.2c2.5,3.6,7.2,13.1,8.1,17.2c1,0.4,1.9,0.8,2.9,1.1c2.3,0.9,4.6,1.7,6.9,2.5
			C0.1,24.9-2.3,21.3-5,16.2C-2.7,19,1.8,27,2.8,30.7c3.5,1.2,7,2.4,10.4,3.6l0-0.1c-2.6-5.8-5.8-10.5-8.7-16
			c2.2,3.1,8.2,12.7,9.7,16.5c2.2,0.8,4.3,1.6,6.4,2.5c0.3,0.1,0.7,0.1,0.9-0.2c0.3-0.3,0.3-0.6,0.2-0.9c-2-4.9-4.1-9.7-6-14.6
			c-2.4-0.6-9.5-4.3-10.4-4.8c3.5,1.5,6.5,2.9,10.1,4.2c-0.8-2-1.6-3.9-2.4-5.9c-0.5-1.2-0.9-2.4-1.4-3.6c-0.3-0.1-0.8-0.3-1.6-0.7
			C5.8,8.9,2,7-1.8,4.5c4.7,2.4,8.2,4.2,13.1,6C10.1,7.3,8.8,4,7.6,0.6C5.9-0.2,1.6-3.1,1-3.6c2.1,1.1,4.2,2.3,6.3,3.4
			C5.8-4.4,4.5-8.5,3.6-12.1C5.2-8.3,6.7-4.3,8.2-0.3c1.2-2.2,2.1-4.3,3.2-6.5c-0.3,1-2.1,6-2.9,7.3c0.6,1.6,1.2,3.2,1.8,4.8
			c0.6,1.5,1.2,3,1.8,4.5c2.6-5.1,3.9-8.3,5.8-14.1c-0.8,4.5-2.8,9.5-4.9,13.6c-0.3,0.6-0.5,1-0.6,1.3c1.3,3.2,2.7,6.4,4.1,9.6
			c2.3-5,4.1-9.3,6.1-14.7l0.4-1c-0.9,3.7-4.2,12.7-6.2,16.4c2.2,5,4.3,10.1,6.5,15.1c0.1,0.2,0.3,0.4,0.6,0.4
			c0.2,0,0.5-0.2,0.5-0.4c1.9-5.6,3.7-11.7,5.4-17.2C31.4,13.5,32.9,7.5,34.6,2.5L34.6,2.5z"/>
	</g>
	<path class="st11" d="M54.4,36.6C53.6,48.9,63.7,63.4,70,58.2c6.3-5.2-10.5-5.9-7.6-33.8C67.6-25.7,36.2-32.3,36-24.7
		C35.7-16.5,58.6-28.5,54.4,36.6z"/>
	<path class="st12" d="M54.4,36.6C53.6,48.9,63.7,63.4,70,58.2c6.3-5.2-16.9-6-14-33.9c2.5-52.2-18.8-48.5-20-49
		C35.7-16.5,58.6-28.5,54.4,36.6z"/>
	<g>
		
			<ellipse transform="matrix(0.3864 -0.9223 0.9223 0.3864 -28.2801 273.3094)" class="st0" cx="191.3" cy="157.9" rx="20.2" ry="22.8"/>
		<path class="st1" d="M212.3,166.7c1.5-20-26.8-34.5-42.1-17.6c4.3-10.3,17.2-14.7,28.9-9.8C210.7,144.2,216.6,156.4,212.3,166.7z"
			/>
		
			<ellipse transform="matrix(0.3864 -0.9223 0.9223 0.3864 -37.0396 268.6757)" class="st2" cx="183.4" cy="162.2" rx="8.8" ry="11"/>
	</g>
	<g>
		
			<ellipse transform="matrix(0.9904 -0.1385 0.1385 0.9904 -17.4638 25.1978)" class="st5" cx="172.4" cy="138.1" rx="26.4" ry="19.9"/>
		<path class="st6" d="M198.5,134.5c-9.9-17.5-46.5-14.9-52.3,7.3c-1.5-10.9,8.9-21.4,23.4-23.4C184,116.3,197,123.5,198.5,134.5z"
			/>
		
			<ellipse transform="matrix(0.9904 -0.1385 0.1385 0.9904 -18.5854 24.516)" class="st7" cx="166.9" cy="145.8" rx="12.7" ry="8.7"/>
	</g>
	<g>
		<ellipse transform="matrix(0.1989 -0.98 0.98 0.1989 -64.543 134.1818)" class="st0" cx="49.8" cy="106.6" rx="27.1" ry="22.8"/>
		<path class="st1" d="M44.4,133.1C66.9,130,77.1,93.6,55.2,80c12.3,2.5,19.9,16.4,17,31.1S56.8,135.6,44.4,133.1z"/>
		<ellipse transform="matrix(0.1989 -0.98 0.98 0.1989 -61.7407 121.4305)" class="st2" cx="43.4" cy="98.5" rx="13.1" ry="10"/>
	</g>
	<g>
		<ellipse transform="matrix(0.7606 -0.6493 0.6493 0.7606 -32.3747 66.36)" class="st5" cx="73.8" cy="77.1" rx="22.9" ry="25.5"/>
		<path class="st6" d="M90.3,96.5c11.7-19.4-9.1-48.1-33.1-38.8c9.6-8.2,24.8-6.2,33.9,4.5S99.9,88.2,90.3,96.5z"/>
		
			<ellipse transform="matrix(0.7606 -0.6493 0.6493 0.7606 -35.0306 59.9103)" class="st13" cx="63.7" cy="77.4" rx="10" ry="12.3"/>
	</g>
	<g>
		<g>
			<path class="st8" d="M65.2,51.4c-0.8-1.7,0-4.2,0.5-5.9c0.6-1.9,1.3-3.9,2.5-5.5c3.5-4.9,9.9-6.5,14.3-10.5
				c0.9-0.8-0.4-2.2-1.4-1.4c-4.6,4.2-11.5,5.9-14.9,11.4c-1.2,1.9-2,4.2-2.6,6.4c-0.5,2-0.9,4.4,0,6.3
				C64.1,53.5,65.7,52.5,65.2,51.4L65.2,51.4z"/>
		</g>
	</g>
	<g>
		
			<ellipse transform="matrix(0.543 -0.8397 0.8397 0.543 -47.9433 167.0133)" class="st0" cx="129.5" cy="127.6" rx="19" ry="21.3"/>
		<path class="st1" d="M147.3,139.1c4.7-18.2-18.8-36.2-35.7-23.1c5.7-8.8,18.3-10.8,28.2-4.4C149.7,118,153.1,130.3,147.3,139.1z"
			/>
		
			<ellipse transform="matrix(0.543 -0.8397 0.8397 0.543 -53.8325 161.5599)" class="st2" cx="121.5" cy="130.2" rx="8.3" ry="10.3"/>
	</g>
	<g>
		<ellipse transform="matrix(0.9348 -0.3551 0.3551 0.9348 -43.2916 26.1408)" class="st3" cx="49.6" cy="131" rx="22" ry="24.4"/>
		<path class="st1" d="M58.2,153.8c16.9-13.7,7.4-46.3-17.3-45.5c11.4-4.3,24.5,2.4,29.2,14.9S69.6,149.5,58.2,153.8z"/>
		
			<ellipse transform="matrix(0.9348 -0.3551 0.3551 0.9348 -42.8688 22.6737)" class="st4" cx="40.3" cy="128.1" rx="9.6" ry="11.8"/>
	</g>
	<g>
		
			<ellipse transform="matrix(0.782 -0.6233 0.6233 0.782 -69.6965 133.3634)" class="st3" cx="155.8" cy="166.3" rx="20.9" ry="24.4"/>
		<path class="st1" d="M171,185.4c11.1-17.6-7.9-45.6-30.4-38.1c9-7.2,23.2-4.5,31.5,6C180.6,163.8,180,178.2,171,185.4z"/>
		
			<ellipse transform="matrix(0.782 -0.6233 0.6233 0.782 -71.6372 127.481)" class="st4" cx="146.4" cy="166.2" rx="9.2" ry="11.8"/>
	</g>
	<g>
		<ellipse transform="matrix(0.1989 -0.98 0.98 0.1989 25.2387 238.1544)" class="st3" cx="158.3" cy="103.6" rx="20.3" ry="24.4"/>
		<path class="st1" d="M182.2,108.5c-2.9-20-35.5-29.2-47.7-9.7c2.2-11,14.7-17.7,27.9-15S184.4,97.5,182.2,108.5z"/>
		<ellipse transform="matrix(0.1989 -0.98 0.98 0.1989 13.8734 235.5931)" class="st4" cx="151" cy="109.3" rx="8.9" ry="11.8"/>
	</g>
	<g>
		<ellipse transform="matrix(0.9904 -0.1385 0.1385 0.9904 -8.8122 14.5317)" class="st3" cx="100" cy="70.6" rx="28.6" ry="22.1"/>
		<path class="st1" d="M128.3,66.6C117.5,47.1,77.8,50,71.7,74.6C70,62.4,81.3,50.9,97,48.7C112.6,46.5,126.6,54.5,128.3,66.6z"/>
		
			<ellipse transform="matrix(0.9904 -0.1385 0.1385 0.9904 -10.0521 13.7986)" class="st4" cx="94.1" cy="79.1" rx="13.8" ry="9.7"/>
	</g>
	<g>
		
			<ellipse transform="matrix(0.9904 -0.1385 0.1385 0.9904 -11.2418 18.4834)" class="st5" cx="127.2" cy="90" rx="28.6" ry="22.1"/>
		<path class="st6" d="M155.5,86.1C144.7,66.6,105,69.4,98.9,94c-1.7-12.1,9.6-23.7,25.2-25.9C139.8,65.9,153.8,74,155.5,86.1z"/>
		
			<ellipse transform="matrix(0.9904 -0.1385 0.1385 0.9904 -12.4816 17.7502)" class="st7" cx="121.3" cy="98.6" rx="13.8" ry="9.7"/>
	</g>
	<g>
		<ellipse transform="matrix(0.9542 -0.2991 0.2991 0.9542 -44.2944 30.4856)" class="st5" cx="77.5" cy="160" rx="23" ry="27"/>
		<path class="st6" d="M85.5,185.7c18.4-13.7,9.9-50.2-16.1-51.4c12.1-3.8,25.6,4.6,30,18.8C103.9,167.3,97.6,181.9,85.5,185.7z"/>
		<ellipse transform="matrix(0.9542 -0.2991 0.2991 0.9542 -43.555 27.4453)" class="st7" cx="67.9" cy="156" rx="10.1" ry="13"/>
	</g>
	<g>
		<ellipse transform="matrix(0.9904 -0.1385 0.1385 0.9904 -7.5822 18.9986)" class="st0" cx="132.7" cy="64" rx="28.6" ry="22.1"/>
		<path class="st1" d="M161.1,60c-10.8-19.5-50.5-16.7-56.6,7.9c-1.7-12.1,9.6-23.7,25.2-25.9S159.4,47.9,161.1,60z"/>
		
			<ellipse transform="matrix(0.9904 -0.1385 0.1385 0.9904 -8.8221 18.2654)" class="st2" cx="126.9" cy="72.5" rx="13.8" ry="9.7"/>
	</g>
	<g>
		
			<ellipse transform="matrix(0.9348 -0.3551 0.3551 0.9348 -36.576 39.9661)" class="st0" cx="90.6" cy="119.6" rx="22.8" ry="24.4"/>
		<path class="st1" d="M99.3,142.4c17.6-14,8.2-46.6-17.3-45.6c11.8-4.5,25.2,2.1,30,14.7S111,138,99.3,142.4z"/>
		
			<ellipse transform="matrix(0.9348 -0.3551 0.3551 0.9348 -36.2016 36.4141)" class="st2" cx="81.1" cy="116.8" rx="10" ry="11.8"/>
	</g>
	<g>
		
			<ellipse transform="matrix(0.782 -0.6233 0.6233 0.782 -72.8404 108.3727)" class="st0" cx="118.5" cy="158.3" rx="19.4" ry="22.6"/>
		<path class="st1" d="M132.6,176c10.3-16.3-7.4-42.3-28.1-35.3c8.4-6.7,21.5-4.2,29.2,5.6C141.4,156,140.9,169.3,132.6,176z"/>
		
			<ellipse transform="matrix(0.782 -0.6233 0.6233 0.782 -74.6382 102.9228)" class="st2" cx="109.8" cy="158.2" rx="8.5" ry="10.9"/>
	</g>
	<g>
		<path class="st9" d="M103.6,35.4c-0.3,0-0.5,0.5-0.4,0.7c0.2,0.4,0.7,1.1,0.7,1.2c0,0.1-0.9,0.5-0.9,0.6c0,0.2,0.6,0.7,0.6,1.4
			c0,0.1-0.4,0.2-0.3,0.3c0.2,0.3,0.7,1.1,0.5,1.3c-0.3,0.3-1.7,0.4-2.4,0.7c-0.1,0,0,0.3-0.2,0.3c-0.6,0.1-1.2,0-1.6,0
			c-0.1,0-0.1,0.6-0.3,0.6c-1.2,0.3-3.2-0.6-3.9-0.5c-0.2,0-0.5,1.6-0.9,1.8c-0.2,0.1-1.1-0.4-1.3-0.5c-0.1,0-0.3,0.3-0.4,0.4
			c0,0-0.4-0.2-0.7-0.4c-0.4-0.3-0.6-0.5-0.7-0.5c-0.1,0-0.4,0.7-0.5,0.6c-0.6-0.2-1-0.6-1.4-1.1c-0.4-0.5-0.7-1.1-1.1-1.6
			c-0.2-0.3-0.6-0.7-0.7,0c-0.1,0.5-0.2,1.7-0.5,1.8C87.1,43,86,42.1,85.9,42c-0.1,0-0.3,0.3-0.4,0.2c-0.6-0.4-0.8-0.9-1-1.1
			c-0.1,0-0.6,0.4-0.7,0.2c-0.7-0.7-0.8-1.8-1.4-2.6c-0.1-0.1-0.3,0.5-0.4,0.4c-0.5-0.3-0.9-0.8-1-1.4c-0.7-2.5-0.7-4.9-0.7-7.6
			c0-1-0.5-1.2-1.2-0.6c-1.3,1.2-2.5,2.5-3.9,3.6c-0.2,0.1-0.4-0.1-0.6-0.1c-0.2,0-0.5,0.4-0.6,0.3c-0.3-0.3-0.2-1-0.4-1.1
			c-0.1-0.1-0.5,0-0.8,0.1c-1.7,0.3-3.9-0.3-5.2-1c-0.3-0.1,0.9-0.4,0.7-0.6c-1.3-1.2-3.5-1.2-5.3-3.6c-0.1-0.2,0.6-0.3,0.5-0.4
			c-0.8-0.7-2.7-1.5-2.7-1.8c-0.1-0.4,0.8-1.8,0.6-2c-0.1-0.2-1.6-0.9-2-1.6c-0.5-0.7-0.7-1.8-0.6-2.5c0-0.2,0.6-0.1,0.5-0.3
			c-0.1-0.1-0.2-0.3-0.4-0.6c-0.8-1.1-1.1-3.1-0.6-4.4c0.1-0.2,0.3,0.1,0.5,0c0.2-0.1,0.4-0.6,0.5-0.6c0.5,0,1.3,0.7,1.5,0.5
			c0.2-0.1,0.3-1.4,0.6-1.8c0.1-0.1,0.5,0.1,0.8,0.1c0.3,0,0.3-0.3,0.4-0.2c0.3,0,0.9,0.4,1.4,0.4c0.3,0,0.7-0.6,0.4-1
			c-0.6-1-1.9-2.1-1.5-3.5c0.1-0.4,1.2-0.2,1.1-0.5c-0.2-0.4-1.5-1.5-1.6-2.4c0-0.2,1.1-0.6,1.1-0.7c0.1-0.4-0.6-2.1-0.1-2.9
			c0.1-0.2,1.2-0.1,1.5-0.2c0.1,0,0.1-0.6,0.2-0.6c0.2-0.1,1,0.2,1.5,0.3c0.3,0,0.3-0.2,0.2-0.4c-0.2-0.7-0.8-1.5-0.6-2
			c0.1-0.2,0.8-0.1,1-0.2c0.1-0.1-0.4-0.9-0.4-1.1c0-0.1,0.5-0.2,0.6-0.4c0.1-0.1,0.2-0.9,0.4-1c0.2-0.1,1.6-0.2,1.7-0.3
			c0.2-0.2,0.3-1.8,0.8-2.7c0.2-0.3,0.7-0.3,0.8-0.4c0.1-0.1,0-0.6,0.1-0.7c0.1-0.1,0.4-0.3,0.6-0.5c0.1-0.1,0.1-0.8,0.4-0.8
			c0.9,0,1.8,1.3,2,1.4c0.2,0.1,0.5-0.3,0.6-0.1c0.6,0.5,1,1.7,1.4,2c0.1,0.1,1.2-0.3,1.5-0.3c0.2,0,0.2,0.7,0.5,1
			c0.1,0.1,0.5,0,0.6,0c0.1,0,0.1,1,0.1,1.2c0,0.1,0.6-0.1,0.7,0.1c0.3,0.7,0.2,1.5,0.4,2.3c0,0.1,0.1,0.1,0.1,0.1
			c0.6,0,1.6-0.2,1.8,0c0.4,0.3,0.7,1.4,1,2c0,0.1,0.2,0.1,0.2,0.2c0.2,0.7,0.2,1.5,0.5,2.2C83.6,2,83.9,1.9,84,2
			c0.1,0.2,0,0.4,0.1,0.5c0.2,0.3,0.4,0.1,0.5-0.2c0.1-0.3,0.2-0.8,0.3-0.8c0.1,0,0.4,0.2,0.5,0.1c0.3-0.4,0.1-1.1,0.3-1.4
			c0.1-0.1,0.6,0.1,0.8-0.1c0.3-0.2,1-1.8,1.4-1.9c0.1,0,0.8,1,0.9,0.5c0.2-0.6,0-1.2,0.2-1.7c0.1-0.2,0.6,0,0.7-0.2
			c0.2-0.5,0.6-1.6,0.9-1.7c0.1-0.1,0.4,0.4,0.7,0.5c0.1,0,0.3,0,0.4-0.1C92-5,92-5.7,92.5-6.2c0.2-0.2,0.4,0.5,0.7,0.3
			c0.6-0.3,1.3-1.3,1.5-1.4c0.2,0,0.5,0.9,0.9,1.2c0.1,0.1,0.4-0.2,0.5,0c0.6,0.6,0.4,1.3,0.7,1.8c0,0.1,0.2,0.1,0.3,0.1
			c0.1,0,0.2-0.1,0.2-0.2c0.4-0.6,0.7-1.4,1.2-1.9c0.2-0.2,0.3,0.7,0.5,0.6c0.3-0.2,0.6-0.7,0.8-0.8c0.2-0.1,0.4,0.3,0.5,0.3
			c0.2-0.2,0.7-0.9,0.9-0.8c0.2,0,0.4,0.8,0.6,1.2c0.1,0.1,0.2,0.2,0.3,0.2c0.6-0.2,1-0.8,1.6-0.9c0.2-0.1,0.2,0.6,0.4,0.5
			c0.8-0.3,1.6-1.1,1.9-1.1c0.3,0.1-0.1,0.9-0.3,1.5c0,0.1,0.4,0,0.3,0.1c0,0.5-0.3,1.2-0.4,1.6c-0.1,0.3,0.7,0.2,0.8,0.3
			c0.1,0.3-0.4,1-0.6,1.3c0,0.1,0.2,0.1,0.2,0.2c-0.1,0.4-0.5,1-0.5,1.2c0.1,0.2,1.1,0.3,1.2,0.6c0.1,0.2-0.2,1-0.4,1.3
			c0,0.1,0.3,0.1,0.2,0.2c-0.2,0.4-0.5,0.8-0.7,1.1c-0.1,0.2,0.4,0.1,0.4,0.3c-0.3,0.6-0.9,1.1-1.3,1.6c-0.2,0.2-0.2,0.4,0.1,0.5
			c0.3,0.1,0.7,0.2,0.9,0.3c0.1,0.1,0.1,0.5,0.1,0.6c0.2,0.2,0.7,0.2,0.7,0.4c0.1,0.2-0.6,0.9-0.7,1.3c-0.1,0.2,0.2,0.5,0.1,0.7
			c-0.1,0.3-0.8,0.9-0.9,1.4c-0.1,0.3,0.4,0.6,0.4,0.7c-0.1,0.3-0.8,1-1.2,1.4c-0.1,0.1,0,0.3-0.2,0.4c-0.4,0.4-1.1,0.8-1.4,1.1
			c-0.1,0.1,0.4,0.2,0.3,0.4c-0.3,0.5-1.2,0.9-1.7,1.4c-2.8,2.6-1.1,2.1-0.3,2.1c0.8,0,1.5-0.5,2.3-0.6c0.2,0,0.1,0.4,0.3,0.4
			c0.9,0,1.7-0.5,2.6-0.4c0.2,0,0,0.6,0.2,0.5c0.8-0.1,2.2,0,2.6,0.2c0.2,0.1-0.4,1.2,0,1.4c1.3,0.7,3.3,0.5,4,1
			c0.2,0.1-0.3,0.9,0.1,1c0.2,0,1.5,0,2.2,0.3c0.2,0.1-0.1,0.6,0,0.6c0.3,0.1,0.6,0.2,0.9,0.3c0.6,0.2,1.3,0.6,1.2,0.8
			c0,0.1-0.9,0.5-1.3,0.9c-0.1,0.2,0.3,0.4,0.1,0.6c-1,0.8-1.6,1-2,1.3c-0.2,0.1,0.4,1.3,0.2,1.5c-0.2,0.3-1.8,0.6-2.1,0.8
			c-0.1,0.1,0.2,1.1,0,1.2c-0.5,0.2-1.9,0.2-1.9,0.4c-0.1,0.5,0.8,2.6,0.6,2.9c-0.2,0.4-2,1.1-2.5,1.5c-0.1,0.1,0.3,1,0,1
			c-1,0.2-2,0.2-2.8-0.1c-0.1,0-0.2,1.2-0.5,1.3C105.4,35.8,104.4,35.4,103.6,35.4L103.6,35.4z"/>
		<path class="st10" d="M101.4,39.9c-3.5-1.5-8-4-11.3-5.8c-3.2-1.8-6.4-3.6-9.5-5.6C73.8,25.3,64.4,20,59,14.7
			c6.6,5.1,13,8.7,20.2,12.3c0.1,0.1,0.3,0.1,0.4,0c0.1-0.1,0.2-0.2,0.1-0.4c0-0.1-0.1-0.2-0.1-0.3c-0.4-1.5-0.8-3-1.2-4.6
			c-0.3-0.2-0.7-0.4-1.2-0.8c-2.3-1.4-4.5-2.6-6.9-3.9c-0.8-0.4-0.4-0.2-1.2-0.7c2.9,1,6.4,2.9,9.2,4.7c-0.5-2-1-4-1.5-6
			c-0.3-0.2-0.8-0.5-1.6-1c-2.9-1.7-5.4-2.7-8.4-4.2c3,0.9,7,2.8,9.8,4.5c-0.5-2-1-4-1.4-6c-0.3-0.2-0.7-0.5-1.4-0.9
			c-2.8-1.7-5.1-2.7-8-4.1C68.7,4.2,72.3,6,75,7.7c-0.5-2.1-0.9-4.1-1.3-6.2c-0.3-0.1-0.7-0.5-1.8-1.3c-1-0.7-2-1.2-3-1.8
			c1.7,0.6,3.2,1.4,4.7,2.4c-0.4-2.4-0.8-4.8-1.2-7.1c-0.2-1.4-0.1-1-0.2-2.4c0.4,1.6,0.2,0.8,0.5,2.4c0.4,2.3,0.9,4.5,1.4,6.7
			c0.8-1.5,1.8-2.8,3.1-4c-1.1,1.6-1.9,2.6-2.8,4.3c-0.1,0.1-0.1,0.2-0.2,0.3c0.5,2.3,1,4.5,1.6,6.8c1.6-2.3,3.1-4.4,5.1-6.4
			c-1.6,2.1-3,3.9-4.5,6.2c-0.2,0.4-0.4,0.6-0.5,0.8c0.5,1.9,0.9,3.7,1.4,5.6c1.1-2.5,2.5-4.8,4.2-7c-1.3,2.4-2.8,4.7-3.8,7.2
			c-0.1,0.2-0.2,0.4-0.2,0.5c0.6,2.2,1.2,4.5,1.8,6.7c0.7-1.4,1-2,2.2-3.4c-0.6,1.1-1.1,1.9-1.6,3c-0.2,0.4-0.3,0.7-0.4,0.9
			c0.3,1,0.5,2,0.8,3c0.2,0.7,0.3,1.2,0.4,1.6c0,0.2,0.2,0.4,0.4,0.4c0.2,0,0.4,0,0.5-0.2c1-1.3,1.9-2.6,2.8-3.9
			c-0.2-0.4-0.2-0.9-0.2-0.9c-1.2-5-1.6-12.2-0.8-17.3c0,0.8,0,0.4,0,1.3c-0.2,6.2,0,10.5,1.4,16.4c1.2-1.9,2.5-3.8,3.7-5.7
			c-0.6-1.3-1.1-6.9-1.1-7.7c-0.1-2.1-0.1-4.2,0.1-6.3c0.1,5.2,0.1,8.4,1.3,13.4c0.8-1.3,1.7-2.6,2.6-3.8c0.4-0.6,0.8-1.1,1.2-1.7
			c-0.4-0.9-0.8-3-0.9-3.4c-0.5-2.6-0.8-5.5-0.7-8.1c0.5,4.3,0.6,6.9,1.9,11c1.2-1.7,2.5-3.4,3.8-5.1c-0.2-0.2-0.3-0.9-0.6-2
			c-0.7-2.1-1.2-4.1-1.4-6.3C95.3-0.7,96,1.6,97,4.3c2.1-2.8,4.3-5.5,6.5-8.1c0.6-0.7,0.4-0.5,1.1-1.2c-0.6,0.8-0.3,0.5-0.9,1.3
			c-2,2.6-4,5.2-5.9,7.8c2.3-1,4.5-1.8,6.9-2.3c-2.3,0.9-4.4,1.6-6.7,2.7c-0.4,0.2-0.6,0.3-0.8,0.4c-1.3,1.8-2.6,3.6-3.9,5.4
			c0.4,0,0.6,0,1.1-0.1c3.8-0.4,6.5-1.1,10.1-1.9c-2.5,1-8.9,2.5-11.5,2.5c-0.4,0.5-0.7,1.1-1.1,1.6c-0.9,1.3-1.7,2.5-2.5,3.8
			c3.5-0.3,6.1-1.2,9.5-2.2c-2,0.9-7.4,2.5-9.8,2.6c-1.2,1.9-2.4,3.9-3.6,5.8l0.1,0c3.9-0.8,7.2-2,10.9-3c-2.2,0.9-8.8,3.1-11.3,3.5
			c-0.8,1.2-1.6,2.4-2.4,3.5c-0.1,0.2-0.1,0.4,0,0.6c0.1,0.2,0.3,0.3,0.5,0.2c3.2-0.5,6.4-1.1,9.7-1.6c0.7-1.4,3.9-5.1,4.4-5.6
			c-1.4,1.9-2.7,3.5-3.9,5.5c1.3-0.2,2.6-0.4,3.9-0.6c0.8-0.1,1.6-0.2,2.4-0.4c0.1-0.2,0.3-0.4,0.6-0.9c1.6-2.3,3.3-4.3,5.4-6.2
			c-2.1,2.5-3.7,4.4-5.5,7c2.1-0.3,4.3-0.6,6.5-0.9c0.7-0.9,3.1-3.1,3.5-3.4c-1,1.1-2,2.2-2.9,3.3c2.7-0.3,5.4-0.5,7.7-0.6
			c-2.5,0.4-5.2,0.8-7.8,1.1c1.2,1,2.3,1.9,3.5,2.8c-0.6-0.3-3.3-2.1-4-2.8c-1.1,0.1-2.1,0.3-3.1,0.4c-1,0.2-2,0.3-3,0.5
			c2.7,2.3,4.5,3.5,7.7,5.5c-2.6-1.1-5.3-3-7.5-4.8c-0.3-0.2-0.5-0.4-0.7-0.5c-2.1,0.3-4.3,0.7-6.4,1.1c2.7,2.1,5,3.8,8,5.8l0.6,0.4
			c-2.1-1-7.1-4.3-9-6.1c-3.3,0.6-6.7,1.2-10,1.8c-0.2,0-0.3,0.1-0.3,0.3c0,0.2,0,0.3,0.2,0.4c3.1,1.9,6.5,3.9,9.6,5.7
			C95.2,36.4,98.6,38.1,101.4,39.9L101.4,39.9z"/>
	</g>
</g>
</svg>
