<?xml version="1.0" encoding="utf-8"?>
<!-- Generator: Adobe Illustrator 25.2.1, SVG Export Plug-In . SVG Version: 6.00 Build 0)  -->
<svg version="1.1" id="Layer_2" xmlns="http://www.w3.org/2000/svg" xmlns:xlink="http://www.w3.org/1999/xlink" x="0px" y="0px"
	 viewBox="0 0 200 200" style="enable-background:new 0 0 200 200;" xml:space="preserve">
<style type="text/css">
	.st0{fill:#F4C77F;}
	.st1{fill:#AF523C;enable-background:new    ;}
	.st2{fill:#BE5B2A;}
	.st3{opacity:0.28;fill:#953E25;enable-background:new    ;}
	.st4{fill:#F89945;}
	.st5{fill:#D77124;}
	.st6{fill:#7BB027;}
	.st7{fill:#9FCC29;}
	.st8{fill:#F9DB5A;}
	.st9{fill:#FFCF08;}
	.st10{fill:#EFA708;}
	.st11{fill:#E72124;}
	.st12{opacity:0.55;fill:#C42124;enable-background:new    ;}
	.st13{fill:#E8761F;}
	.st14{opacity:0.32;fill:#FDE5C1;enable-background:new    ;}
	.st15{opacity:0.35;fill:#D48745;enable-background:new    ;}
	.st16{fill:#FF404A;}
</style>
<path class="st0" d="M95.8,121.9c6.4,5.8,9.5,17.7,7.2,14.2c-2.1-3.1-8.9-1.2-15.1-9.4c-5.3-6.9-6.9-10-4.4-12.8
	C86.1,111.3,89.5,116.1,95.8,121.9z"/>
<path class="st1" d="M66.9,74.7c0,0-0.4-2.6,1.3,0c1.7,2.6,15.5,24.9,14.9,26.8c-0.6,1.9-1.5,3.5-2.3,3.3
	c-0.8-0.1-12.6-5.3-13.9-11.9C65.6,86.4,65.6,74.7,66.9,74.7z"/>
<path class="st0" d="M57.7,118.8c16.1-4.9,31.1-9.9,28.7-2.6c-2.1,6.3-11.4,12.3-30.9,15c-16.7,2.4-24.1,10.4-24.3,4.3
	C31,130.2,41.6,123.7,57.7,118.8z"/>
<g>
	<path class="st2" d="M67.3,73.2c-12.7-0.9-27.2-1.3-28.9,1.1c-3.1,4.4-4.1,14.4-1.2,17.7c2.1,2.6,27.6,8.9,43.5,12.8
		C76.4,94.3,71.9,83.7,67.3,73.2z"/>
	<path class="st3" d="M67.3,73.2c-12.8-0.9-27.5-1.4-29.2,1.1c-0.8,1.1-1.4,2.6-1.9,4c11.9-1.1,22.8,0.5,34.3,2.9
		c0.1,0,0.2,0,0.3,0.1C69.6,78.5,68.5,75.8,67.3,73.2z"/>
</g>
<g>
	<path class="st4" d="M101.7,134.2c-3.7-4.7-7.3-9.4-10.9-14.2c-14.8,5.6-34.3,11.5-60.3,16.7c0,0,6,12.7,10.1,14.6
		c3,1.3,34.2-3.4,63.1-14.5C103,135.9,102.4,135,101.7,134.2z"/>
	<path class="st5" d="M90.8,120c-14.8,5.6-34.4,11.6-60.5,16.8c0,0,2.6,5.6,5.7,9.9c5,1.7,9-5.6,13.6-5.3c5.4,0.4,7.9-4.7,12.8-4.1
		c4.9,0.6,6,1,8.7-2.6c0.5-0.8,1.6-0.5,2.2-0.5c5.4-0.3,8.3-0.5,13.3-4.3c1.2-1,1.9-1.4,3.4-1.5c2.1-0.2,4.1-0.9,5.8-1.9
		C94.1,124.4,92.4,122.2,90.8,120z"/>
	<path class="st6" d="M90.4,119.6c-0.9-1.2-1.8-2.4-2.8-3.6c-2.3,0.4-5,1.2-8.5,3.2c-9.8,5.5-11-0.2-19.5,4.3
		c-8.5,4.5-18.7,4.4-21.9,6.2c-3,1.7-7.6,6.2-7.6,6.2c0.6,1.2,7.6,4,9.6,2c1.4-1.6,9-2.9,11.8-1.6c2.7,1.1,10.9-2.7,13.1-5
		c2.2-2.3,11.7-2.6,17.5-5.8c4.5-2.5,7-2.5,10.1-3.4C91.7,121.2,91.1,120.4,90.4,119.6z"/>
	<path class="st7" d="M90.4,119.6c-0.1-0.1-0.2-0.2-0.3-0.3c-0.2,0-0.4,0-0.6-0.1c-0.4,0.1-0.6,0-1-0.1c-0.1-0.2-0.2-0.5-0.2-0.5
		c0.1-0.4,0.3-0.7,0.5-1c-1-1.4-2.1-2.7-3.2-4.1c-2.5,0.4-5.1,1.5-7,2.5c-1.3,0.8-3.3,2.4-1.3,3.3c0.6,0.2,4.1,0.5,2.7,1.7l0.1,0.2
		c-0.2,0.1-0.2,0.1-0.4,0.1l0.1,0.2c-0.5,0.2-1.2,0.6-1.8,0.6c-0.1,0.2-0.6,0.6-1,0.5c-2.1,1.3-4.9,1.2-7.3,2.2
		c-0.2-0.1-0.4-0.1-0.6,0c-0.6-0.2-1.2-0.6-1.5-1.1c0.2-0.6,0.4-1.1,0.8-1.8c0.4-0.5,1.1-0.9,1.3-1.6c0-1.2-1.2-2-1.9-2.3
		c-0.6-0.2-1.5-0.3-2.3-0.4c-0.9,0.1-2.2,0.3-3.3,0.7c-1,0.5-2.3,1.3-3.4,1.5c-0.7,0.4-1.6,1.1-2.5,1.4c-0.4,0.5-0.9,1.5-0.4,2.3
		c0.2,0.7,1.4,0.7,1.5,1.5c0.6,2.4-2.8,3.6-4.3,4.3c-1.9,0.8-4.6,1.7-6.5,1.7c-0.6-0.2-1.8-0.6-2.2-1.4c-0.3-1.1,0.5-1.5,0.8-2.4
		c0.6-1.9-1.8-2.6-3.4-2c-1.1,0.8-3,1.7-4.4,2.2l0.1,0.2c-0.5,0.3-1,1.1-1.7,1.5l0.1,0.2c-0.2,0.1-0.4,0.4-0.6,0.7
		c1.1,0.9,2.9,0.1,3.2,2c0.4,2.4-3,2.3-4.4,2c-1.9-0.4-4.1-1.2-6.1-0.6c-5.4,1.5-1.8,7.8,2.7,6.7c0.8-0.5,3.3-1.4,4.3-0.8
		c1,1.2,2.1,3.6,3.7,4.1c1.9,0.6,4.4-0.2,6-1.3c0.9-2.6,0.3-3.8-1.6-5.7c-0.9-0.9-1.2-1.4-0.6-2.4c0.4-0.5,1.2-1,2.1-0.9
		c0.5-0.2,2.4,0,2.9,0.6c0.8,0.7,0.3,2.1,1,3c1.5,2.3,5.5,2,7.6,0.7c0.1,0,0.4-0.1,0.4-0.1c1-2.3-2.2-2.4-1.6-4.4
		c0.4-1.3,2.9-2.5,4.2-2.7c4.1-0.5,4.1,7.9,8.7,4.6c-0.1-0.2-0.1-0.2-0.1-0.2c0.7-0.8,0.6-1.8,0.3-2.8c-0.5-1.6-1.7-1.8-2.6-3.1
		c-1.6-2.6,2.7-3,4.2-1.5c0.8,0.7,0.7,2.1,1.7,2.8c0.6,0.6,2,0.7,2.8,0.9c3.1,0.6,5.5-0.4,8.4-1.1c0.2-0.1,0.3-0.3,0.5-0.3
		c0.5-0.8,1.1-1.5,1.1-2.5c0.2-0.6-0.2-1.7,0.2-2.4c-0.3-0.5-0.4-1.2-0.7-1.7c-0.3-0.5-1.1-0.8-1.2-1.4c-1.2-1.4,1.9-2,2.7-1.9
		c1,0.1,2.3,0.6,2.6,1.9c0.2,1.1-0.9,2.1-0.6,3.1c0.6,2.4,5.5,0.8,7,0.1C92.9,122.8,91.7,121.2,90.4,119.6z"/>
</g>
<g>
	<polygon class="st8" points="66.9,58.3 61.9,60.1 45.9,50.3 49.1,48.1 50.9,48.4 	"/>
	<g>
		<path class="st9" d="M48.4,47.7C39,56.2,30.2,65.8,24.7,76c0,0-8.6,13.8-7.4,22.5l2.8,0.8c0,0,15.1-21.4,31.9-32.1
			c4.5-2.9,9.2-5.7,13.7-8.3C60,55.1,54.2,51.4,48.4,47.7z"/>
		<path class="st10" d="M62.7,56.9c-6,3.4-11.4,6.9-16.2,10.9C28.3,83.2,17.1,98.2,17.2,98.3l2.8,0.8c0,0,15.1-21.4,31.9-32.1
			c4.5-2.8,9.1-5.6,13.7-8.2C64.6,58.1,63.7,57.5,62.7,56.9z"/>
	</g>
</g>
<path class="st11" d="M44.7,39.8c-0.5-3.5-1-6.9-1.6-10.4c-3.8-0.6-5.9,0-8.6,1.1c-7.2,2.9-1.9,9.2-1.9,9.2
	c4.2,2.6,8.6,5.1,13.1,7.5C45.4,44.8,45.1,42.3,44.7,39.8z"/>
<path class="st12" d="M44.9,40.8c-8.8-5.2-11.4-7.9-11.4-7.9c-2.5,0.9-3.8,0.8-1.4,6c4.5,3,9,5.6,13.7,8.1
	C45.4,44.9,45.2,42.9,44.9,40.8z"/>
<g>
	<g>
		<path class="st4" d="M37-7c-1.9,0.4-3.8,0.8-5.7,1.3C21.9-3.3,12.8,0.5,4.4,5.3c-5.7,3.2-11.1,7-15.7,11.8
			c-4.2,4.7-6.4,9.7-7.4,15.9c0,0-1,8.5,6.7,14.6c4.1,3.4,31-2.4,56.3-10.2C42.2,22.5,39.8,7.7,37-7z"/>
		<path class="st13" d="M42.6,25.9c-2.7,0.7-5.4,1.3-8.2,2C21.7,31.3,8.8,36-4.6,36.7c-5.9,0.3-10.6-0.2-14.1-3.4
			c-0.1,1.9,0.3,8.8,6.6,14.1C-8,50.8,19,45,44.3,37.1C43.8,33.4,43.2,29.6,42.6,25.9z"/>
		<path class="st14" d="M38-1.5c-1-0.5-2.3-0.8-3.6-0.9C31.4-2.6,23.7-1.5,24,2.9c0.2,3.8,7,2.7,9.4,2.3c1.8-0.3,4.1-1.1,5.3-2.5
			C38.5,1.2,38.2-0.1,38-1.5z"/>
		<path class="st14" d="M39.9,9.1c-1.5,2.3-0.8,3.6,0.8,4.4C40.4,12.1,40.1,10.6,39.9,9.1z"/>
	</g>
	<path class="st15" d="M42.3,24c-6.8,2.1-13.8,3.9-20.8,3.7c-9.3-0.4-17.1-4.8-18.4-14.6c-0.3-2.6,0.1-5,1-7.4
		c-5.6,3.1-11,6.8-15.2,11.5c-4.2,4.7-6.4,9.7-7.4,15.9c0,0-1,8.5,6.7,14.6c4.1,3.4,30.8-2.3,56.1-10.1C43.7,33,43.1,28.5,42.3,24z"
		/>
</g>
<g>
	<path class="st0" d="M150.7,139.7c12.9,3.2,25.2,5.8,20.3,11c-4.3,4.5-13.1,5.5-27.4-1.2c-12.2-5.7-20.8-2-18.1-7.5
		C127.8,137.3,137.7,136.5,150.7,139.7z"/>
	<g>
		<path class="st16" d="M183.7,70.6c0,0-8.3-7.8-37.1-18.9c-22.8-8.9-32.3-12.3-37.7-13.1c1.8,5,3.4,10,4.9,15
			c30.5,14.7,65.3,25.5,67.5,25.2c1.2-0.3,3.2-3.1,3.6-4.8C185.3,72.5,183.7,70.6,183.7,70.6z"/>
		<polygon class="st8" points="113.6,66 118.6,67.3 121,88.3 117.2,87.3 116.3,85.7 		"/>
		<path class="st0" d="M104.6,19.1c6.3,11.1,8.8,21.6,5.5,23.4c-3.2,1.8-9.4-8.5-15.1-22.2C90.1,8.5,88.7,3.7,92,1.8
			C95.2,0,98.3,8,104.6,19.1z"/>
		<path class="st0" d="M133.3,151c2.2,7.2,0.5,11.2-1.6,14.1c-1.1,1.6-6.8-4.7-7.6-13.6c-0.7-7.6-0.4-10.7,3.2-11.8
			C130.9,138.6,131.1,143.8,133.3,151z"/>
		<path class="st1" d="M118.7,91.7c1.7-0.5,4.2,9.3,3.5,11.8c-0.7,2.5,2.6,23.9,2.6,23.9c-2.4-1.2-4.7-1.4-6.9-3.4
			c-1.4-1.2-5-16.3-2.6-25.1C117.5,91.4,117.1,92.2,118.7,91.7z"/>
		<g>
			<path class="st11" d="M193.3,73.6c0,0-9.5-9.6-42.9-22.9c-26.5-10.6-37.6-14.7-43.9-15.5c2,6.2,3.8,12.6,5.4,18.9
				c35.3,17.7,75.9,30.4,78.4,30c1.4-0.4,3.8-4,4.4-6.2C195.1,75.9,193.3,73.6,193.3,73.6z"/>
			<g>
				<path class="st2" d="M185.8,127.8c-2.7-9.5-44.5-25.8-51.7-30.1c0,0-7-2.8-15.7-5.9c0.3,2.7,0.6,5.5,0.9,8.2
					c0.7,6.3,1.4,12.6,2.4,18.9c0.4,2.5,0.9,5,1.4,7.5c3.4,1.9,6,3.3,7.2,4.1c24.7,15.4,44.8,14.6,45.9,15
					C177.3,145.9,188.6,138.2,185.8,127.8z"/>
				<path class="st3" d="M185.5,127.9c-2.7-9.5-44.5-25.8-51.8-30.4c0,0-6.9-2.7-15.4-5.8c0.3,2.8,0.6,5.5,0.9,8.3
					c0,0.3,0.1,0.6,0.1,0.8c5.2,3.2,9.5,7.3,14.5,11.1c4.8,3.6,9.6,7.3,13.7,11.8c3.4,3.5,8.7,14.4,14,11.3c4-2.3,8.6-1.9,13.1-2.3
					c2.7-0.3,7.6-0.4,11.2,0.8C186.2,131.8,186.1,129.9,185.5,127.9z"/>
			</g>
			<g>
				<path class="st4" d="M170.5,148.7c0.1-3.8-11.8,0.6-43.8-4.4c0.9,4.6,1.8,9.3,2.8,13.9c0.5,2.4,1,4.9,1.7,7.3
					c9.7,1.3,19.3,1.8,28,1c1.2-0.1,2.2-0.6,2.9-1.6C164.5,161.6,170.4,153.3,170.5,148.7z"/>
				<path class="st5" d="M170.3,148.6c0.1-3.8-11.8,0.6-43.6-4.4c0.4,2.3,0.9,4.7,1.4,7c0.2,0,0.4-0.1,0.6-0.1
					c0.2-0.1,0.6-0.1,0.8,0c2.9,0.7,3.6,2.7,6.5,4c4.3,1.9,8.3,3.6,12.1-0.5c0.5-0.6,1.5-0.8,2.3-0.8c4.6-0.3,5.2,5,10.6,1.5
					c2.9-1.8,4.2,0.8,6.1,1.6C168.8,153.8,170.2,150.9,170.3,148.6z"/>
				<path class="st6" d="M174.5,144.6c-0.7-1.9-5.5,0.8-9.5-1c-4-1.9-17.5,2.9-19.5,1.8s-12.1-4.1-15.8-3.8c-1.3,0.2-2.4-0.3-3.7-1
					c0.4,2.1,0.8,4.1,1.2,6.2c5.1,0.5,10.3,1.6,11.5,4.1c1.3,2.8,17.3-2,19.6-0.3c2.3,1.9,5.5,0.3,11.6,0.4
					C175.9,151.1,175,146.7,174.5,144.6z"/>
				<path class="st7" d="M173.6,143.5c-0.9,0.7-1,1.9-2.1,2.4c-0.9,0.4-2.1,0.1-2.5-0.9c-0.3-1,0.3-2-0.1-3.1
					c-0.3-1-1.4-1.5-2.6-1.2c-4,1-7.3,8.5-11.8,6.5c-1.7,0-1.8-2-2.4-3c-0.8-1.5-1.8-2-3.4-2.9c-1,0.2-1.9-0.2-2.9,0.3
					c-1.1,0.5-1.8,1.3-2.8,2c-1.2,1.2-3.6,4-5.4,2.6c-0.6,0.2-2.3-0.7-2.7-1.4l0,0.2c0,0-0.2,0-0.1-0.2c0.1-0.4,0.1-0.5,0.2-0.7
					c0.2,0,0.2-0.1,0.2-0.1c1.8-1.3,4-1.8,2.9-4.3c-1-0.6-2-0.5-3.2-0.3c-1.5,1.4-3.5,0.2-5.1-0.2c-2.9-0.5-1.1,2.4-2.3,3.5
					c-0.1,0.5-0.6,0.7-1.1,0.8c0.3,1.6,0.6,3.3,0.9,4.9c0.5-0.4,0.9-0.8,1.3-1.5c0.9-1.5,1-4.5,3.4-4c0.6-0.2,2,0.5,2.2,1.3
					c0.2,0.8-0.6,1.8-0.9,2.5c-1,2.1,0.3,2.9,1.9,4.3c1.9,1.6,4.1,3,6.7,3.4c2.4,0.4,4,0.1,5.5-1.6c0-0.9,0.6-2,0.8-2.9
					c0.2-0.9,0.3-2,0.7-2.9c1.4-2.7,2.5,0,3.4,1.2c0.4,3.3,3,6,6.2,5.4c0.2-0.1,0.2-0.1,0.4-0.3c0.8-0.8,1.5-1.7,2-2.8
					c0.5-1.2,0.8-2.7,1.6-3.5c0.3-1.3,2.4-2.1,3.6-1.5c1.3,0.9,0.5,3,0.3,4.5c-0.2,1.7,0.7,3.4,2.7,3.3c0.9,0,3.5-1.3,3.9-2.2
					c1.7,0,4.9-3.1,5.3-4.7C178.9,143.6,176,141.5,173.6,143.5z"/>
			</g>
			<g>
				<path class="st9" d="M118,87.5c12.3,4.3,22.8,8.8,26.6,11.1c0,0,15.9-14.3,33.9-10.8l0.5-2.9c0,0-6-5.4-13.8-7
					c-4.9-1-26.5-8.3-50.3-11.5C116.2,73.3,117.2,80.4,118,87.5z"/>
				<path class="st10" d="M117.9,87.3c12.3,4.3,22.8,8.8,26.7,11.1c0,0,15.9-14.3,33.9-10.8l0.5-2.9c-14.7-1.3-24.3,4.9-28.6,7.1
					c-3.3,1.6-6.1,3-6.1,3c-10-4.1-18.6-7.8-26.7-10.8C117.7,85.1,117.8,86.2,117.9,87.3z"/>
			</g>
			<path class="st12" d="M192.2,76c-2.8-0.7-9.9,2.5-43.3-10.7c-18.6-7.5-30.8-13.4-38.8-17.8c0.6,2.1,1.1,4.3,1.7,6.4
				c10.7,5.2,21.6,9.6,32.5,14.3c8.6,3.6,38.2,16.3,46,14.7C192.6,81,195,76.7,192.2,76z"/>
			<g>
				<g>
					<path class="st4" d="M94.1,5.3c3.3,6.3,6.3,12.7,8.8,19.4c2.1,5.6,3.9,11.4,5.6,17.1c0.2,0.6,0.8,0.9,1.3,0.7
						c20.2-6.9,39-14.9,43.4-20.2c0.1-0.1,0.1-0.2,0.2-0.3c0.4-1.1,2.3-6.9-2.3-13.7c-2.8-3.9-8.2-6.8-12.5-8.3
						c-7-2.3-14.4-3.2-21.7-3.1c-7.9,0.2-15.5,1.3-23,3.6c-0.3,0.1-0.6,0.2-0.9,0.3c-0.6,0.2-0.9,0.9-0.6,1.5
						C93,3.2,93.6,4.3,94.1,5.3z"/>
					<path class="st13" d="M108.8,42.7c20.7-7,40-15.3,44.4-20.6c0,0,2.8-6-1.9-13.2c-4.8,5.2-11.3,8.1-17.7,12.4
						c-8.8,5.5-18.4,8-28.2,10.6C106.6,35.5,107.7,39.1,108.8,42.7z"/>
					<path class="st14" d="M94.1,5.3c1,1.9,2,3.8,2.9,5.7c2.5-0.6,5.6-2.2,5.3-4.8c-0.5-2-2.8-2.5-5.2-2.6c-0.9,0-2.3,0-3.7,0.3
						C93.6,4.4,93.9,4.9,94.1,5.3z"/>
					<path class="st14" d="M119.8,6.1c-6.4,1.2-13.3,3.5-16.7,8.6c-2.9,4.3,1.3,5.4,5,5.6c5.5,0.2,11.6-0.7,16.8-2.7
						c3.5-1.3,9.8-3.8,7.7-8.5c-0.6-1.4-1.9-2.2-3.4-2.7C127,5.7,122,5.7,119.8,6.1z"/>
				</g>
				<path class="st15" d="M108.9,43.1c20.8-7,40.4-15.4,44.7-20.7c0,0,2.9-6.4-2.3-13.9c-0.7-0.4-1-0.9-1.3-1.4
					c-10.4,9.4-25.3,15.6-37.3,20.3c-2.6,0.9-5.2,1.9-7.9,2.8C106.3,34.4,107.6,38.7,108.9,43.1z"/>
			</g>
		</g>
	</g>
</g>
</svg>
