<?xml version="1.0" encoding="utf-8"?>
<!-- Generator: Adobe Illustrator 25.2.1, SVG Export Plug-In . SVG Version: 6.00 Build 0)  -->
<svg version="1.1" id="Layer_3" xmlns="http://www.w3.org/2000/svg" xmlns:xlink="http://www.w3.org/1999/xlink" x="0px" y="0px"
	 viewBox="0 0 200 200" style="enable-background:new 0 0 200 200;" xml:space="preserve">
<style type="text/css">
	.st0{fill:#F89945;}
	.st1{fill:#D77124;}
	.st2{fill:#BE5B2A;}
	.st3{opacity:0.28;fill:#953E25;enable-background:new    ;}
	.st4{fill:#7BB027;}
	.st5{fill:#9FCC29;}
	.st6{fill:#FFCF08;}
	.st7{fill:#EFA708;}
	.st8{fill:#E72124;}
	.st9{opacity:0.55;fill:#C42124;enable-background:new    ;}
	.st10{fill:#E8761F;}
	.st11{opacity:0.32;fill:#FDE5C1;enable-background:new    ;}
	.st12{opacity:0.35;fill:#D48745;enable-background:new    ;}
</style>
<g>
	<path class="st0" d="M30.6,130.8c0,0,2.4,18.2,6.8,22.1c4.4,3.9,80.5,15,128-0.5c1.5-0.5,2.7-1.5,3.2-2.9c2.2-4.8,7.3-17.2,6.1-23
		C173.2,119.2,142.7,143.4,30.6,130.8z"/>
	<path class="st1" d="M52.5,144.1c6.5,2.7,11.6-2.7,17.5,0c5.8,2.7,7,3.6,11.9,0.2c1-0.7,2.2,0,2.9,0.2c6.8,1.7,10.4,2.7,18.2,0
		c1.9-0.7,2.9-1,4.8-0.5c5.1,1.2,10.2-0.2,14.5-2.4c0.2-0.2,0.7-0.2,1-0.2c3.9,0,5.3,2.4,9.5,3.2c6.1,1.2,11.6,2.2,15.3-4.1
		c0.5-1,1.7-1.5,2.7-1.7c5.8-1.7,8,4.8,13.8-1.2c3.2-3.2,5.6-0.2,8.2,0.2c1.2-4.4,2.2-8.5,1.7-11.4c-1.5-7.3-32.2,17-144,4.4
		c0,0,1,8,3.2,14.5C39.1,149.5,46.9,141.9,52.5,144.1z"/>
	<path class="st2" d="M92.7,93.9c0,0-59.4,6.8-62.1,13.3s-1,19.4,3.6,22.8c4.6,3.6,64.7,3.4,74.4,3.9c37.8,2.4,60.4-10.9,61.8-11.2
		c1.5-0.2,9.7-16,0-26.2C161.6,87.4,103.6,94.4,92.7,93.9z"/>
	<path class="st3" d="M73.3,106.5c9.7-0.2,18.4,2.4,27.9,3.9c7.8,1.2,15.5,2.4,23,5.1c6.1,1.9,18.9,11.2,23,4.4
		c3.2-5.1,8.7-7.5,13.6-10.7c2.9-1.9,8.5-5.1,13.3-6.1c-0.7-2.2-1.9-4.4-3.9-6.3c-9-9.2-66.9-2.2-78.1-2.9c0,0-59.4,6.8-62.1,13.3
		c-0.7,1.7-1,3.6-1.2,5.6C43.7,108,58,106.8,73.3,106.5z"/>
	<path class="st4" d="M30.6,129.6c0,0,7.5-3.6,11.9-4.6c4.6-1,17.2,3.2,29.6,1c12.4-2.2,11.6,5.3,25.9,2.4c14.3-2.9,18.2,2.7,22.8,1
		c4.6-1.5,18.2-0.5,21.1,0.2c2.9,0.7,18.7-9.2,24.2-8c5.6,1.2,10.9-3.6,12.4-1.5c1.2,2.4,3.6,7.8-4.1,9.5
		c-7.8,1.7-11.4,4.6-14.8,2.9c-3.4-1.5-22.3,9.2-24.7,6.1s-10.4-2.7-17.5-1.7c-7,1-9.7-1.2-18.2,0.5s-20.4-1.7-24,0.2
		c-3.6,1.9-15.3,3.4-18.2,1c-2.9-2.7-12.9-4.1-15.3-2.7C38.4,137.6,30.9,131.3,30.6,129.6z"/>
	<path class="st5" d="M38.2,124.7c0-0.2-0.2-0.2,0.2-0.2c0.5-0.2,1.5-1,1.9-1.2V123c1-0.2,1.9-1,2.7-1.2v-0.2c1.9,0,4.6-0.5,6.3-1
		c2.2,0,4.8,1.7,3.4,3.9c-0.7,1-1.9,1.2-1.9,2.7c0.2,1.2,1.5,2.2,2.2,2.7c2.4,0.7,6.1,0.7,8.7,0.5c2.2-0.2,6.8-0.5,7-3.6
		c0.2-1-1.2-1.5-1.2-2.4c-0.2-1.2,0.7-2.2,1.5-2.7c1.2,0,2.7-0.5,3.6-0.7c1.5,0.2,3.4-0.2,4.8-0.5c1.5,0,3.2,0.2,4.4,0.5
		c1,0.5,1.9,1,2.7,1.5c0.7,0.7,1.9,2.2,1.5,3.6c-0.5,0.7-1.5,1-2.2,1.5c-0.7,0.7-1.2,1.2-1.7,1.9c0.2,0.7,0.7,1.5,1.5,1.9
		c0.2,0,0.5,0,0.7,0.2c3.4-0.2,6.8,1,9.9,0.2c0.5,0.2,1.2,0,1.5-0.2c0.7,0.2,1.7,0,2.4,0v-0.2c0.2,0,0.2,0,0.5,0V131
		c2.2-1-1.9-2.7-2.7-3.2c-2.2-1.9,1-3.2,2.9-3.6c4.4-0.7,10.9-1.2,15,1.7c0.5,1.5-0.7,3.4-2.4,3.6c-0.2,0.5-1.2,1-1.7,1.7
		c0,0,0,0.5,0,0.7c0.5,0.2,0.7,0.5,1.2,0.5c1,0.7,2.7,0.2,3.6,0.2c0.2,0,0.5,0,0.5,0c0.5,0,1,0,1.5,0v-0.2c0.7,0,1.9-0.5,1.9-1.5
		c1.2-1.7-1.9-4.8,1.9-5.1c2.2,0,5.1,1,6.5-1.2c1.5-0.5,2.7-1,4.1-0.5c2.2,2.9-0.5,4.1-2.4,6.3c0,0,0,0.2-0.2,0.2c0,0.2,0,0.5,0,1
		c0,0.2,0.2,0.2,0.2,0.2v-0.2c0.7,0.7,3.2,1.5,3.9,1c2.7,1.2,4.8-2.9,6.1-4.8c1-1.2,1.7-2.4,2.9-3.4c1.2-1,2.4-0.7,3.6-1.2
		c2.2,0.7,3.6,1,5.1,2.7c1,1.2,1.7,3.6,3.9,3.2c6.3,1.2,8.2-9.2,13.1-11.6c1.5-0.7,2.9-0.5,3.6,0.7s0.2,2.7,1,3.9s2.4,1.2,3.4,0.5
		c1.2-1,1-2.4,1.9-3.6c2.4-3.2,6.8-1.5,6.8,2.2c0,2.2-3.2,7-5.3,7.5c-0.2,1.2-3.2,3.6-4.4,3.9c-2.4,0.7-4.1-1.2-4.4-3.4
		c-0.2-1.9,0.2-4.8-1.7-5.6c-1.7-0.5-4.1,1.2-4.1,2.9c-0.7,1.2-0.7,3.2-1,4.8c-0.2,1.5-1,2.9-1.7,4.1c-0.2,0.2-0.2,0.2-0.5,0.5
		c-3.9,1.7-8-1-9.5-5.1c-1.5-1.2-3.6-4.4-4.6-0.5c-0.2,1.2,0,2.7,0,3.9c0,1.2-0.5,2.7-0.2,3.9c-1.5,2.7-3.4,3.4-6.5,3.6
		c-3.4,0.2-6.5-1-9.5-2.4c-2.4-1.2-4.4-1.9-3.6-4.8c0.2-1,1-2.4,0.5-3.4c-0.5-1-2.4-1.5-3.2-1c-3.2,0-2.4,3.9-3.2,6.1
		c-1,3.2-3.6,4.4-6.5,4.6c-2.2,0.2-9,0.2-8.7-2.9c0-1.5,1.7-2.2,1.9-3.6c0.2-1.7-1.2-2.9-2.4-3.4c-1-0.5-5.1-1-4.1,1.2
		c0,0.7,0.7,1.5,1,2.2c0.2,0.7,0,1.7,0.2,2.4c-0.7,0.7-0.7,2.2-1.2,2.9c-0.5,1.2-1.5,1.9-2.4,2.7c-0.2,0-0.5,0.2-0.7,0.2
		c-3.9-0.2-7.3,0-10.9-1.9c-1-0.5-2.7-1.2-3.2-2.2c-1-1.2-0.2-2.9-1-4.1c-1.2-2.4-6.8-3.6-5.8,0.2c0.5,1.9,1.9,2.7,1.9,4.8
		c0,1.5-0.2,2.7-1.5,3.4c0,0,0,0,0,0.2c-7,2.2-3.6-8.2-9-9.2c-1.7-0.2-5.3,0.2-6.3,1.7c-1.5,2.2,2.4,3.6,0.2,6.1c0,0-0.7,0-0.5,0
		c-3.2,0.7-8.2-0.5-9.2-3.9c-0.5-1.5,0.7-2.9,0-4.1c-0.5-1-2.7-1.9-3.4-1.9c-1-0.5-2.2-0.2-2.9,0.2c-1.2,1-1,1.7-0.2,3.2
		c1.7,3.2,1.9,4.8-0.2,7.8c-2.4,0.7-5.8,0.7-8-0.7c-1.7-1.2-2.2-4.6-2.9-6.5c-1-1.2-4.4-1-5.6-0.7c-6.1-0.5-8-9.7-0.7-9.5
		c2.7,0,5.1,1.9,7.3,3.2c1.7,1,5.8,2.4,6.3-0.7c0.5-2.7-2.7-2.2-3.4-4.1C38.2,124.2,37.9,125,38.2,124.7z"/>
	<path class="st6" d="M47.1,89.6c0,0-20.1,6.5-26.2,16.2l2.2,3.2c0,0,33-8.7,58.7-5.3c25.7,3.4,53.3,9.7,61.3,13.1
		c0,0,17.7-21.6,41.5-20.6v-3.9c0,0-8.7-5.8-19.2-6.3C155.3,85.5,86.4,95.9,47.1,89.6z"/>
	<path class="st7" d="M149.2,106.8c-3.9,2.7-7.3,5.1-7.3,5.1c-26.9-6.5-47-12.1-66.2-12.1c-31,0-54.8,5.6-54.8,5.8l2.2,3.2
		c0,0,33-8.7,58.7-5.3c25.5,3.4,53.3,9.7,61.3,13.1c0,0,17.7-21.6,41.5-20.6V92C165.5,93.2,154.3,103.2,149.2,106.8z"/>
	<path class="st8" d="M166.2,76c0,0,3.4,1.7,3.9,4.4c0.5,2.9-0.5,8.5-1.9,9.7c-3.2,2.2-75.4,10.2-131.9,4.1c0,0-1.9-1-2.9-11.9
		c0,0,16.5,6.1,75.6,3.9C155.8,84.2,166.2,76,166.2,76z"/>
	<path class="st9" d="M105.1,92c12.1-0.2,24.2-1.9,36.4-3.4c10.7-1.2,19.9-2.4,28.4-8.5c-0.5-2.7-3.6-4.1-3.6-4.1
		s-10.4,8.2-57.2,10.2c-59.2,2.2-75.6-3.9-75.6-3.9c0.5,4.1,1,6.8,1.5,8.5C57.6,95.9,81.8,92.2,105.1,92z"/>
	<path class="st0" d="M101.9,30.7c-12.6,0-25.2,1.9-37.3,5.3c-8.2,2.2-16.2,5.3-23.5,9.9c-6.8,4.6-11.2,10.2-14.3,17.7
		c0,0-3.9,10.4,3.9,20.6c7.5,10.2,122.2,5.8,138.4-5.8c0,0,5.8-7,1.9-18.2c-2.2-5.8-8-11.4-12.9-14.8c-8-5.3-17-9-26.2-11.4
		C122.1,31.6,112.1,30.4,101.9,30.7z"/>
	<path class="st10" d="M144.6,70.4c-16.2,4.8-32.2,3.4-49.2,3.6c-17.2,0.2-34.9,2.2-52.1-1.2c-7.5-1.5-13.3-3.6-16.7-8.7
		c-0.7,2.4-2.4,11.2,3.9,19.9c7.5,10.2,122.2,5.8,138.4-5.8c0,0,5.6-6.5,2.2-17.2C163.3,65.8,154.1,67.3,144.6,70.4z"/>
	<path class="st11" d="M104.8,35.8c-3.6-1.2-13.8-2.2-14.8,3.4c-1,4.8,8,5.6,11.2,5.8c3.4,0.2,8.7-0.5,9.2-4.1
		C110.4,38.2,107.7,36.7,104.8,35.8z"/>
	<path class="st11" d="M132.5,46.7c-8.5-0.7-17.9-0.2-24,5.1c-5.1,4.4-0.2,7.3,4.4,8.7c6.8,2.2,14.8,3.2,22.1,2.4
		c4.8-0.5,13.6-1.5,12.6-8c-0.2-1.9-1.7-3.4-3.4-4.6C141.7,48.6,135.4,46.9,132.5,46.7z"/>
	<path class="st12" d="M170.1,58.3c-16.2,8.2-37.1,10.9-53.8,12.6c-12.1,1-25.2,2.2-37.1-1.2C67.5,66.3,59,58.3,60.5,45.4
		c0.5-3.4,1.7-6.3,3.6-9c-8,2.2-16,5.1-22.8,9.7C34.5,50.8,30.2,56.4,27,63.9c0,0-3.9,10.4,3.9,20.6c7.5,10.2,122.2,5.8,138.4-5.8
		c0,0,5.8-7,1.9-18.2C170.5,59.8,170.3,59,170.1,58.3z"/>
</g>
</svg>
