<?xml version="1.0" encoding="utf-8"?>
<!-- Generator: Adobe Illustrator 25.2.1, SVG Export Plug-In . SVG Version: 6.00 Build 0)  -->
<svg version="1.1" id="Layer_3" xmlns="http://www.w3.org/2000/svg" xmlns:xlink="http://www.w3.org/1999/xlink" x="0px" y="0px"
	 viewBox="0 0 200 200" style="enable-background:new 0 0 200 200;" xml:space="preserve">
<style type="text/css">
	.st0{clip-path:url(#SVGID_2_);fill:#FFFEEB;}
	.st1{opacity:0.61;clip-path:url(#SVGID_4_);fill:#F2F1E7;enable-background:new    ;}
	.st2{opacity:0.61;clip-path:url(#SVGID_6_);fill:#F2F1E7;enable-background:new    ;}
	.st3{opacity:0.61;clip-path:url(#SVGID_8_);fill:#F2F1E7;enable-background:new    ;}
	.st4{opacity:0.61;clip-path:url(#SVGID_10_);fill:#F2F1E7;enable-background:new    ;}
	.st5{opacity:0.74;clip-path:url(#SVGID_12_);fill:#F2F1E7;enable-background:new    ;}
	.st6{opacity:0.61;clip-path:url(#SVGID_14_);fill:#F2F1E7;enable-background:new    ;}
	.st7{opacity:0.9;clip-path:url(#SVGID_16_);fill:#F2F1E7;enable-background:new    ;}
	.st8{clip-path:url(#SVGID_18_);fill:#FFFEEB;}
	.st9{opacity:0.61;clip-path:url(#SVGID_20_);fill:#F2F1E7;enable-background:new    ;}
	.st10{opacity:0.61;clip-path:url(#SVGID_22_);fill:#F2F1E7;enable-background:new    ;}
	.st11{opacity:0.61;clip-path:url(#SVGID_24_);fill:#F2F1E7;enable-background:new    ;}
	.st12{opacity:0.61;clip-path:url(#SVGID_26_);fill:#F2F1E7;enable-background:new    ;}
	.st13{opacity:0.74;clip-path:url(#SVGID_28_);fill:#F2F1E7;enable-background:new    ;}
	.st14{opacity:0.61;clip-path:url(#SVGID_30_);fill:#F2F1E7;enable-background:new    ;}
	.st15{opacity:0.9;clip-path:url(#SVGID_32_);fill:#F2F1E7;enable-background:new    ;}
	.st16{fill:none;}
	.st17{fill:#FFFEEB;}
	.st18{opacity:0.61;clip-path:url(#SVGID_34_);fill:#F2F1E7;enable-background:new    ;}
	.st19{opacity:0.61;clip-path:url(#SVGID_36_);fill:#F2F1E7;enable-background:new    ;}
	.st20{opacity:0.61;clip-path:url(#SVGID_38_);fill:#F2F1E7;enable-background:new    ;}
	.st21{opacity:0.61;clip-path:url(#SVGID_40_);fill:#F2F1E7;enable-background:new    ;}
	.st22{opacity:0.74;clip-path:url(#SVGID_42_);fill:#F2F1E7;enable-background:new    ;}
	.st23{opacity:0.61;clip-path:url(#SVGID_44_);fill:#F2F1E7;enable-background:new    ;}
	.st24{opacity:0.9;clip-path:url(#SVGID_46_);fill:#F2F1E7;enable-background:new    ;}
	.st25{fill:#D4FCF9;}
	.st26{opacity:0.32;fill:#5FCCCE;enable-background:new    ;}
	.st27{fill:#FFBBEC;}
	.st28{fill:#7CF4F7;}
	.st29{fill:#F4EB7D;}
	.st30{fill:#F2406E;}
	.st31{fill:#E2F97D;}
	.st32{fill:#632908;}
</style>
<g>
	<g>
		<g>
			<defs>
				<circle id="SVGID_1_" cx="76.5" cy="89.2" r="25.4"/>
			</defs>
			<clipPath id="SVGID_2_">
				<use xlink:href="#SVGID_1_"  style="overflow:visible;"/>
			</clipPath>
			<circle class="st0" cx="76.5" cy="89.9" r="25.4"/>
		</g>
	</g>
	<g>
		<g>
			<defs>
				<circle id="SVGID_3_" cx="76.5" cy="89.2" r="25.4"/>
			</defs>
			<clipPath id="SVGID_4_">
				<use xlink:href="#SVGID_3_"  style="overflow:visible;"/>
			</clipPath>
			<path class="st1" d="M101.9,89.9c0,14-11.4,25.4-25.4,25.4s-25.4-11.4-25.4-25.4C55.2,109.6,92.4,119.6,101.9,89.9z"/>
		</g>
	</g>
	<g>
		<g>
			<defs>
				<circle id="SVGID_5_" cx="76.5" cy="89.2" r="25.4"/>
			</defs>
			<clipPath id="SVGID_6_">
				<use xlink:href="#SVGID_5_"  style="overflow:visible;"/>
			</clipPath>
			<path class="st2" d="M44.5,89.9c0.7-0.7,3.8-10.2,27.1-16.6c23.3-6.4,29.2-5.5,29.2-5.5s-21.6,3.8-29.2,6.4
				c-7.6,2.6-17.1,8.5-15.7,7.4c3.1-2.6-3.8,0.2-6.6,4.5C46.1,90.2,44.5,89.9,44.5,89.9z"/>
		</g>
	</g>
	<g>
		<g>
			<defs>
				<circle id="SVGID_7_" cx="76.5" cy="89.2" r="25.4"/>
			</defs>
			<clipPath id="SVGID_8_">
				<use xlink:href="#SVGID_7_"  style="overflow:visible;"/>
			</clipPath>
			<path class="st3" d="M53.5,76.9c0.7-0.7,3.8-10.2,27.1-16.6s29.2-5.5,29.2-5.5s-21.6,3.8-29.2,6.4c-7.6,2.6-17.1,8.5-15.7,7.4
				c3.1-2.6-3.8,0.2-6.6,4.5C55.2,77.1,53.5,76.9,53.5,76.9z"/>
		</g>
	</g>
	<g>
		<g>
			<defs>
				<circle id="SVGID_9_" cx="76.5" cy="89.2" r="25.4"/>
			</defs>
			<clipPath id="SVGID_10_">
				<use xlink:href="#SVGID_9_"  style="overflow:visible;"/>
			</clipPath>
			<path class="st4" d="M40.9,100.4c0.7-0.7,3.8-10.2,27.1-16.6c23.3-6.4,29.2-5.5,29.2-5.5S75.6,82.1,68,84.7
				c-7.6,2.6-17.1,8.5-15.7,7.4c3.1-2.6-3.8,0.2-6.6,4.5C42.6,100.6,40.9,100.4,40.9,100.4z"/>
		</g>
	</g>
	<g>
		<g>
			<defs>
				<circle id="SVGID_11_" cx="76.5" cy="89.2" r="25.4"/>
			</defs>
			<clipPath id="SVGID_12_">
				<use xlink:href="#SVGID_11_"  style="overflow:visible;"/>
			</clipPath>
			<path class="st5" d="M126.6,97.3c-0.9-0.5-7.1-8.1-29.4-5.7s-26.8,5.2-26.8,5.2s19.9-4.3,27.3-4.5c7.4-0.2,17.8,1.7,16.1,1.2
				c-3.8-1.4,3.3-1.2,7.4,1.7C125.4,98.2,126.6,97.3,126.6,97.3z"/>
		</g>
	</g>
	<g>
		<g>
			<defs>
				<circle id="SVGID_13_" cx="76.5" cy="89.2" r="25.4"/>
			</defs>
			<clipPath id="SVGID_14_">
				<use xlink:href="#SVGID_13_"  style="overflow:visible;"/>
			</clipPath>
			<path class="st6" d="M50.4,102.5c0.7-0.5,11.4-15.2,38.2-16.1c24.2-0.7,29.7,1.2,29.7,1.2s-21.8-1.2-29.9-0.2s-18.5,4.3-16.9,3.6
				c9.3-4.5-3.8-0.5-7.6,2.8C64.9,90.9,50.4,102.5,50.4,102.5z"/>
		</g>
	</g>
	<g>
		<g>
			<defs>
				<circle id="SVGID_15_" cx="76.5" cy="89.2" r="25.4"/>
			</defs>
			<clipPath id="SVGID_16_">
				<use xlink:href="#SVGID_15_"  style="overflow:visible;"/>
			</clipPath>
			<path class="st7" d="M105.3,93.3c-0.9,0.5-12.6,14.2-39.4,12.6c-24.2-1.4-29.4-3.8-29.4-3.8s21.8,3.3,29.7,3.1s19-2.6,17.1-1.9
				c-9.5,3.8,3.8,0.9,7.8-2.1C89.8,103.7,105.3,93.3,105.3,93.3z"/>
		</g>
	</g>
</g>
<g>
	<g>
		<g>
			<defs>
				<circle id="SVGID_17_" cx="125.9" cy="89.5" r="27.3"/>
			</defs>
			<clipPath id="SVGID_18_">
				<use xlink:href="#SVGID_17_"  style="overflow:visible;"/>
			</clipPath>
			<circle class="st8" cx="125.7" cy="89.9" r="27.3"/>
		</g>
	</g>
	<g>
		<g>
			<defs>
				<circle id="SVGID_19_" cx="125.9" cy="89.5" r="27.3"/>
			</defs>
			<clipPath id="SVGID_20_">
				<use xlink:href="#SVGID_19_"  style="overflow:visible;"/>
			</clipPath>
			<path class="st9" d="M148,105.4c-8.5,12.3-25.6,15.7-38,7.1s-15.7-25.6-7.1-38C94.8,94.4,121.6,126,148,105.4z"/>
		</g>
	</g>
	<g>
		<g>
			<defs>
				<circle id="SVGID_21_" cx="125.9" cy="89.5" r="27.3"/>
			</defs>
			<clipPath id="SVGID_22_">
				<use xlink:href="#SVGID_21_"  style="overflow:visible;"/>
			</clipPath>
			<path class="st10" d="M97.2,70.5c0.9-0.2,9.5-6.6,33.9,1.7s29,12.8,29,12.8s-21.4-9.7-29.7-12.1c-8.3-2.1-20.2-2.8-18.3-3.1
				c4.5-0.5-3.6-2.1-8.8,0C98.6,71.9,97.2,70.5,97.2,70.5z"/>
		</g>
	</g>
	<g>
		<g>
			<defs>
				<circle id="SVGID_23_" cx="125.9" cy="89.5" r="27.3"/>
			</defs>
			<clipPath id="SVGID_24_">
				<use xlink:href="#SVGID_23_"  style="overflow:visible;"/>
			</clipPath>
			<path class="st11" d="M113.3,64.5c0.9-0.2,9.5-6.6,33.9,1.7s29,12.8,29,12.8s-21.4-9.7-29.7-12.1c-8.3-2.1-20.2-2.8-18.3-3.1
				c4.5-0.5-3.6-2.1-8.8,0C114.5,65.7,113.3,64.5,113.3,64.5z"/>
		</g>
	</g>
	<g>
		<g>
			<defs>
				<circle id="SVGID_25_" cx="125.9" cy="89.5" r="27.3"/>
			</defs>
			<clipPath id="SVGID_26_">
				<use xlink:href="#SVGID_25_"  style="overflow:visible;"/>
			</clipPath>
			<path class="st12" d="M87.9,77.8c0.9-0.2,9.5-6.6,33.9,1.7s29,12.8,29,12.8s-21.4-9.7-29.7-12.1c-8.3-2.1-20.2-2.8-18.3-3.1
				c4.5-0.5-3.6-2.1-8.8,0C89.1,79,87.9,77.8,87.9,77.8z"/>
		</g>
	</g>
	<g>
		<g>
			<defs>
				<circle id="SVGID_27_" cx="125.9" cy="89.5" r="27.3"/>
			</defs>
			<clipPath id="SVGID_28_">
				<use xlink:href="#SVGID_27_"  style="overflow:visible;"/>
			</clipPath>
			<path class="st13" d="M165.3,127.2c-0.5-0.9-1.4-11.4-22.6-22.8s-27.1-11.6-27.1-11.6s20.2,8.3,26.8,12.6
				c6.6,4.3,14.7,12.3,13.5,10.7c-2.6-3.6,3.6,1.2,5.5,6.2C163.6,127.2,165.3,127.2,165.3,127.2z"/>
		</g>
	</g>
	<g>
		<g>
			<defs>
				<circle id="SVGID_29_" cx="125.9" cy="89.5" r="27.3"/>
			</defs>
			<clipPath id="SVGID_30_">
				<use xlink:href="#SVGID_29_"  style="overflow:visible;"/>
			</clipPath>
			<path class="st14" d="M94.8,85.4c0.9,0,19.2-6.6,43.4,9c21.8,14,25.4,19,25.4,19S145.1,99,137.5,94.9c-7.6-4-19-7.4-17.1-7.1
				c10.9,1.4-3.1-2.8-8.5-2.1C114.7,83.8,94.8,85.4,94.8,85.4z"/>
		</g>
	</g>
	<g>
		<g>
			<defs>
				<circle id="SVGID_31_" cx="125.9" cy="89.5" r="27.3"/>
			</defs>
			<clipPath id="SVGID_32_">
				<use xlink:href="#SVGID_31_"  style="overflow:visible;"/>
			</clipPath>
			<path class="st15" d="M148.9,110.6c-0.9-0.2-19.7,4.7-42.5-12.8C85.8,81.9,82.9,76.4,82.9,76.4s17.3,16.1,24.4,20.7
				c7.1,4.7,18.3,9.3,16.4,8.8c-10.7-2.4,2.8,3.1,8.3,2.8C129,110.3,148.9,110.6,148.9,110.6z"/>
		</g>
	</g>
</g>
<circle class="st16" cx="104.1" cy="59.1" r="27.3"/>
<circle class="st17" cx="104.1" cy="59.1" r="27.3"/>
<g>
	<g>
		<defs>
			<circle id="SVGID_33_" cx="104.1" cy="59.1" r="27.3"/>
		</defs>
		<clipPath id="SVGID_34_">
			<use xlink:href="#SVGID_33_"  style="overflow:visible;"/>
		</clipPath>
		<path class="st18" d="M128.8,70.9c-6.2,13.8-22.6,19.9-36.1,13.5c-13.8-6.2-19.9-22.6-13.5-36.1C74.4,69.5,106.2,95.9,128.8,70.9z
			"/>
	</g>
</g>
<g>
	<g>
		<defs>
			<circle id="SVGID_35_" cx="104.1" cy="59.1" r="27.3"/>
		</defs>
		<clipPath id="SVGID_36_">
			<use xlink:href="#SVGID_35_"  style="overflow:visible;"/>
		</clipPath>
		<path class="st19" d="M72.5,45.5c0.9-0.5,8.1-8.3,33.7-4.3s30.9,7.4,30.9,7.4s-22.8-5.9-31.3-6.6c-8.5-0.7-20.4,0.7-18.5,0.2
			c4.3-1.2-4-1.4-8.5,1.4C73.9,46.7,72.5,45.5,72.5,45.5z"/>
	</g>
</g>
<g>
	<g>
		<defs>
			<circle id="SVGID_37_" cx="104.1" cy="59.1" r="27.3"/>
		</defs>
		<clipPath id="SVGID_38_">
			<use xlink:href="#SVGID_37_"  style="overflow:visible;"/>
		</clipPath>
		<path class="st20" d="M87.2,36.8c0.9-0.5,8.1-8.3,33.7-4.3s30.9,7.4,30.9,7.4s-22.8-5.9-31.3-6.6s-20.4,0.7-18.5,0.2
			c4.3-1.2-4-1.4-8.5,1.4C88.6,37.9,87.2,36.8,87.2,36.8z"/>
	</g>
</g>
<g>
	<g>
		<defs>
			<circle id="SVGID_39_" cx="104.1" cy="59.1" r="27.3"/>
		</defs>
		<clipPath id="SVGID_40_">
			<use xlink:href="#SVGID_39_"  style="overflow:visible;"/>
		</clipPath>
		<path class="st21" d="M64.4,54.3c0.9-0.5,8.1-8.3,33.7-4.3s30.9,7.4,30.9,7.4s-22.8-5.9-31.3-6.6S77.2,51.5,79.1,51
			c4.3-1.2-4-1.4-8.5,1.4C66.1,55.5,64.4,54.3,64.4,54.3z"/>
	</g>
</g>
<g>
	<g>
		<defs>
			<circle id="SVGID_41_" cx="104.1" cy="59.1" r="27.3"/>
		</defs>
		<clipPath id="SVGID_42_">
			<use xlink:href="#SVGID_41_"  style="overflow:visible;"/>
		</clipPath>
		<path class="st22" d="M149.4,89.2c-0.7-0.7-3.3-10.9-26.3-18.5c-22.8-7.6-28.5-6.6-28.5-6.6s21.1,4.5,28.7,7.6
			c7.4,3.1,16.6,9.5,15.2,8.3c-3.1-3.1,3.8,0.5,6.4,5C147.5,89.5,149.4,89.2,149.4,89.2z"/>
	</g>
</g>
<g>
	<g>
		<defs>
			<circle id="SVGID_43_" cx="104.1" cy="59.1" r="27.3"/>
		</defs>
		<clipPath id="SVGID_44_">
			<use xlink:href="#SVGID_43_"  style="overflow:visible;"/>
		</clipPath>
		<path class="st23" d="M72.7,60.7c0.9-0.2,17.8-10,44.4,1.2c24,10,28.2,14.2,28.2,14.2s-20.9-10.9-29-13.5c-8.3-2.6-19.9-4-18-4
			c10.9-0.5-3.6-2.1-8.8-0.5C92,55.5,72.7,60.7,72.7,60.7z"/>
	</g>
</g>
<g>
	<g>
		<defs>
			<circle id="SVGID_45_" cx="104.1" cy="59.1" r="27.3"/>
		</defs>
		<clipPath id="SVGID_46_">
			<use xlink:href="#SVGID_45_"  style="overflow:visible;"/>
		</clipPath>
		<path class="st24" d="M130.4,75.9c-0.9,0-18.8,8.3-44.2-5.2c-23-12.1-27.1-16.9-27.1-16.9S78.9,66.7,87,70
			c7.8,3.3,19.7,5.7,17.6,5.7c-10.9-0.5,3.3,2.6,8.5,1.4C110.7,79.2,130.4,75.9,130.4,75.9z"/>
	</g>
</g>
<g>
	<path class="st25" d="M141.1,161.9H66.8c-17.1,0-30.9-13.8-30.9-30.9v-29.2c0-3.3,2.6-6.2,6.2-6.2H166c3.3,0,6.2,2.6,6.2,6.2v29
		C172,147.9,158.2,161.9,141.1,161.9z"/>
	<path class="st26" d="M141.1,161.9H66.8c-17.1,0-30.9-13.8-30.9-30.9c0,0-2.6,30.9,94,24c37.5-2.6,42-24.2,42-24.2
		C172,147.9,158.2,161.9,141.1,161.9z"/>
</g>
<path class="st27" d="M97.1,52.9L97.1,52.9c-0.1-0.4,0.1-0.9,0.6-1l6.3-1.7c0.4-0.1,0.9,0.1,1,0.6l0,0c0.1,0.4-0.1,0.9-0.6,1
	l-6.3,1.7C97.7,53.6,97.3,53.3,97.1,52.9z"/>
<path class="st27" d="M101.1,80.9L101.1,80.9c-0.1-0.4,0.1-0.9,0.6-1l6.3-1.7c0.4-0.1,0.9,0.1,1,0.6l0,0c0.1,0.4-0.1,0.9-0.6,1
	l-6.3,1.7C101.7,81.6,101.3,81.3,101.1,80.9z"/>
<path class="st28" d="M118.4,50.2L118.4,50.2c-0.4,0.3-0.9,0.2-1.2-0.2l-3.7-5.4c-0.3-0.4-0.2-0.9,0.2-1.2v0
	c0.4-0.3,0.9-0.2,1.2,0.2l3.7,5.4C118.9,49.4,118.8,49.9,118.4,50.2z"/>
<path class="st29" d="M93,68.5L93,68.5c0.1,0.4-0.1,0.9-0.5,1.1l-6.2,2.1c-0.4,0.1-0.9-0.1-1.1-0.5l0,0c-0.1-0.4,0.1-0.9,0.5-1.1
	l6.2-2.1C92.4,67.8,92.8,68,93,68.5z"/>
<path class="st29" d="M139,91.5L139,91.5c0.1,0.4-0.1,0.9-0.5,1.1l-6.2,2.1c-0.4,0.1-0.9-0.1-1.1-0.5l0,0c-0.1-0.4,0.1-0.9,0.5-1.1
	l6.2-2.1C138.4,90.8,138.8,91,139,91.5z"/>
<path class="st29" d="M55.4,82.7L55.4,82.7c0.5,0,0.8,0.4,0.8,0.9l-0.5,6.5c0,0.5-0.4,0.8-0.9,0.8l0,0c-0.5,0-0.8-0.4-0.8-0.9
	l0.5-6.5C54.5,83,54.9,82.7,55.4,82.7z"/>
<path class="st30" d="M119,64.7L119,64.7c-0.3,0.3-0.9,0.3-1.2,0l-4.6-4.6c-0.3-0.3-0.3-0.9,0-1.2v0c0.3-0.3,0.9-0.3,1.2,0l4.6,4.6
	C119.3,63.8,119.3,64.4,119,64.7z"/>
<path class="st30" d="M107.7,35.8L107.7,35.8c0.2,0.4,0.1,0.9-0.3,1.1l-5.6,3.3c-0.4,0.2-0.9,0.1-1.1-0.3l0,0
	c-0.2-0.4-0.1-0.9,0.3-1.1l5.6-3.3C106.9,35.2,107.4,35.3,107.7,35.8z"/>
<path class="st30" d="M66.7,70.8L66.7,70.8c0.2,0.4,0.1,0.9-0.3,1.1l-5.6,3.3c-0.4,0.2-0.9,0.1-1.1-0.3v0c-0.2-0.4-0.1-0.9,0.3-1.1
	l5.6-3.3C65.9,70.2,66.4,70.3,66.7,70.8z"/>
<path class="st31" d="M88.2,93.5L88.2,93.5c-0.3,0.4-0.8,0.4-1.2,0.1l-4.9-4.2c-0.4-0.3-0.4-0.8-0.1-1.2l0,0
	c0.3-0.4,0.8-0.4,1.2-0.1l4.9,4.2C88.5,92.6,88.5,93.1,88.2,93.5z"/>
<path class="st31" d="M89.2,54.5L89.2,54.5c-0.3,0.4-0.8,0.4-1.2,0.1l-4.9-4.2c-0.4-0.3-0.4-0.8-0.1-1.2v0c0.3-0.4,0.8-0.4,1.2-0.1
	l4.9,4.2C89.5,53.6,89.5,54.1,89.2,54.5z"/>
<path class="st28" d="M71.9,86.2L71.9,86.2c0.2,0.4,0,0.9-0.4,1.1l-6,2.6c-0.4,0.2-0.9,0-1.1-0.4l0,0c-0.2-0.4,0-0.9,0.4-1.1l6-2.6
	C71.2,85.5,71.7,85.7,71.9,86.2z"/>
<path class="st32" d="M80.1,77.8L80.1,77.8c-0.1,0.5-0.6,0.7-1,0.6l-6.3-1.5c-0.5-0.1-0.7-0.6-0.6-1l0,0c0.1-0.5,0.6-0.7,1-0.6
	l6.3,1.5C79.9,76.9,80.2,77.3,80.1,77.8z"/>
<path class="st28" d="M134.1,85.6L134.1,85.6c-0.3,0.3-0.8,0.4-1.2,0l-4.8-4.4c-0.3-0.3-0.4-0.8,0-1.2l0,0c0.3-0.3,0.8-0.4,1.2,0
	l4.8,4.4C134.4,84.7,134.4,85.3,134.1,85.6z"/>
<path class="st27" d="M122.2,91.7L122.2,91.7c0,0.5-0.3,0.9-0.8,0.9l-6.5,0.2c-0.5,0-0.9-0.3-0.9-0.8v0c0-0.5,0.3-0.9,0.8-0.9
	l6.5-0.2C121.8,90.8,122.2,91.2,122.2,91.7z"/>
<path class="st30" d="M148.5,89.5L148.5,89.5c0.3,0.4,0.2,0.9-0.2,1.2l-5.4,3.7c-0.4,0.3-0.9,0.2-1.2-0.2l0,0
	c-0.3-0.4-0.2-0.9,0.2-1.2l5.4-3.7C147.7,89,148.2,89.1,148.5,89.5z"/>
<path class="st32" d="M140.2,71.7L140.2,71.7c0,0.5-0.3,0.9-0.8,0.9l-6.5,0.2c-0.5,0-0.9-0.3-0.9-0.8l0,0c0-0.5,0.3-0.9,0.8-0.9
	l6.5-0.2C139.8,70.8,140.2,71.2,140.2,71.7z"/>
<path class="st27" d="M148.2,82.7L148.2,82.7c0,0.5-0.3,0.9-0.8,0.9l-6.5,0.2c-0.5,0-0.9-0.3-0.9-0.8l0,0c0-0.5,0.3-0.9,0.8-0.9
	l6.5-0.2C147.8,81.8,148.2,82.2,148.2,82.7z"/>
</svg>
