<svg xmlns="http://www.w3.org/2000/svg" xmlns:xlink="http://www.w3.org/1999/xlink" width="63" height="63" viewBox="0 0 63 63"><defs><style>.a{fill:#02a8ec;stroke:#fff;stroke-width:2px;}.b{fill:#1ad4ff;}.c{fill:#0bb9f3;}.d{fill:#fff;}.e{stroke:none;}.f{fill:none;}.g{filter:url(#a);}</style><filter id="a" x="0" y="0" width="63" height="63" filterUnits="userSpaceOnUse"><feOffset input="SourceAlpha"/><feGaussianBlur stdDeviation="5" result="b"/><feFlood flood-opacity="0.161"/><feComposite operator="in" in2="b"/><feComposite in="SourceGraphic"/></filter></defs><g transform="translate(-136.944 -560)"><g transform="translate(154 577)"><g class="g" transform="matrix(1, 0, 0, 1, -17.06, -17)"><g class="a" transform="translate(17 17)"><circle class="e" cx="14.5" cy="14.5" r="14.5"/><circle class="f" cx="14.5" cy="14.5" r="15.5"/></g></g><circle class="b" cx="12.5" cy="12.5" r="12.5" transform="translate(1.944 2)"/><path class="c" d="M0,2.177A11.123,11.123,0,0,1,4.918.435,8.762,8.762,0,0,1,8.959,1.754a9.422,9.422,0,0,0,4.585,1.319C16.459,2.95,22.873.637,24.587,0q.026.4.026.811A12.345,12.345,0,0,1,0,2.177Z" transform="translate(2.203 13.662)"/></g><ellipse class="d" cx="1.277" cy="1.915" rx="1.277" ry="1.915" transform="translate(161.473 582.292) rotate(43)"/><ellipse class="d" cx="0.851" cy="1.064" rx="0.851" ry="1.064" transform="translate(164.569 580.983) rotate(43)"/><path class="d" d="M18.07,16.772l3.918-3.918a.918.918,0,1,0-1.3-1.3l-3.918,3.918-3.918-3.918a.918.918,0,1,0-1.3,1.3l3.918,3.918L11.555,20.69a.918.918,0,1,0,1.3,1.3l3.918-3.918,3.918,3.918a.918.918,0,1,0,1.3-1.3Z" transform="translate(152 574.455)"/></g></svg>