<?xml version="1.0" encoding="utf-8"?>
<!-- Generator: Adobe Illustrator 25.2.1, SVG Export Plug-In . SVG Version: 6.00 Build 0)  -->
<svg version="1.1" id="Layer_2" xmlns="http://www.w3.org/2000/svg" xmlns:xlink="http://www.w3.org/1999/xlink" x="0px" y="0px"
	 viewBox="0 0 200 200" style="enable-background:new 0 0 200 200;" xml:space="preserve">
<style type="text/css">
	.st0{fill:#A33131;}
	.st1{fill:#7B2926;}
	.st2{fill:#5A2B0C;}
	.st3{opacity:0.5;fill:#874026;}
	.st4{opacity:0.5;fill:#A34F32;}
	.st5{fill:#F3F4C6;}
	.st6{opacity:0.52;fill:#A34F32;}
	.st7{opacity:0.5;fill:#764937;}
	.st8{opacity:0.5;fill:#7B2926;}
</style>
<ellipse transform="matrix(0.8947 -0.4466 0.4466 0.8947 -22.1133 15.853)" class="st0" cx="22.6" cy="54.8" rx="3.5" ry="24.1"/>
<g>
	<g>
		<g>
			<g>
				<g>
					<g>
						<path class="st1" d="M145.6,67.1c2.6-5.1,5.1-10.3,7.8-15.5c2.6-5,5.2-10,7.6-15.2c0.4-0.8,0.8-1.7,1.1-2.5
							c-3.1,0.5-6.2,0.8-9.3,0.7c-11.4-0.1-22.6-2-32.9,4.1c-7.2,4.3-11.2,12.9-8.7,21.1c2.7,8.9,12.8,15.3,20.9,18.5
							c2.2,0.9,4.4,1.6,6.7,2.2C141,76,143.4,71.5,145.6,67.1z"/>
						<path class="st2" d="M138.8,80.3c-2.3-0.6-4.5-1.3-6.7-2.2c-8.3-3.2-18.1-9.8-20.7-18.3c-0.8-2.5-0.9-5-0.5-7.6
							c0.8-5.4,4.3-10.4,9.2-13.3c8.3-4.9,17.1-4.6,26.5-4.2c2.1,0.1,4.2,0.2,6.4,0.2c2.9,0,6-0.2,9.2-0.7c0.1-0.1,0.1-0.3,0.2-0.4
							c-3.3,0.5-6.4,0.8-9.4,0.7c-2.1,0-4.3-0.1-6.4-0.2c-9.4-0.3-18.2-0.7-26.7,4.3c-5,2.9-8.5,8-9.3,13.5c0,0,0,0,0,0
							c-0.4,2.6-0.2,5.2,0.6,7.7c2.7,8.7,12.6,15.3,21,18.6c2.2,0.9,4.5,1.6,6.7,2.1C138.7,80.5,138.8,80.4,138.8,80.3z"/>
					</g>
				</g>
				<path class="st3" d="M140.9,76.3c-1.9-0.5-3.8-1.2-5.5-2.1c-3.6-1.8-8.1-5.1-10.3-8.6c-2.3-3.6-3.2-8.1-1.6-12.2
					c1.8-4.6,6.8-6.9,11.2-7.9c5.5-1.2,11.2-0.5,16.8-0.2c1.8,0.1,3.5,0.1,5.2,0c1.5-2.9,3-5.9,4.3-8.9c0.4-0.8,0.8-1.7,1.1-2.5
					c-3.1,0.5-6.2,0.8-9.3,0.7c-11.4-0.1-22.6-2-32.9,4.1c-7.2,4.3-11.2,12.9-8.7,21.1c2.7,8.9,12.8,15.3,20.9,18.5
					c2.2,0.9,4.4,1.6,6.7,2.2C139.4,79.1,140.1,77.7,140.9,76.3z"/>
				<path class="st3" d="M130.6,39.4c3.5-0.9,7.1-1.1,10.7-0.7c1.1,0.1,2.2,0.3,3.2,0.6c0.8,0.1,1.6,0.1,2.4,0.3
					c2.1,0.3,4.1,0.9,6.2,1.3c1.8,0.4,3.6,0.6,5.4,0.7c0.8-1.7,1.7-3.4,2.5-5.2c0.4-0.8,0.8-1.7,1.1-2.5c-3.1,0.5-6.2,0.8-9.3,0.7
					c-11.4-0.1-22.6-2-32.9,4.1c-7.2,4.3-11.2,12.9-8.7,21.1c1.8,6.1,7.1,11,12.9,14.5c-0.7-0.5-1.4-1.1-2-1.7
					c-2.3-2-4.2-4.5-5.5-7.3c-1.4-3.2-1.7-6.8-1-10.2c0.8-3.9,3-7.6,5.8-10.5C123.8,42,127.1,40.4,130.6,39.4z"/>
				<path class="st4" d="M126.1,37.6c4.3-1.5,9.1-1.7,13.6-1.4c2.4,0.1,4.9,0.4,7.3,1c2.4,0.6,3.9,1.5,6.2,2.1
					c1.8,0.4,4.1,0.7,6.1,0.6c0.5-1.1,1.1-2.2,1.6-3.3c0.4-0.8,0.8-1.7,1.1-2.5c-3.1,0.5-6.2,0.8-9.3,0.7c-11.4-0.1-22.6-2-32.9,4.1
					c-7.2,4.3-11.2,12.9-8.7,21.1c1.3,4.3,4.4,8.1,8.1,11.1c-4.5-4.4-7.9-10-7.5-16.4C112.3,46.6,119,40,126.1,37.6z"/>
			</g>
		</g>
	</g>
	<g>
		<path class="st5" d="M158.8,41c0.7-1.5,1.5-3,2.2-4.6c0.1-0.2,0.2-0.4,0.3-0.6c-0.5-0.1-1-0.2-1.5-0.3c-2-0.2-4.2,0.2-6,0.4
			c-1.8,0.2-3.5,0.3-5.3,0.4c-0.7,0.2-1.3,0.4-1.7,1c-0.4,0.7,0.2,1.3,1,1.9C151.1,40.6,155.5,41.4,158.8,41z"/>
	</g>
	<path class="st6" d="M159.3,40c0.5-0.9,0.9-1.9,1.3-2.8c-2.8,0.3-5.4,1.9-5,2.2C156.4,39.9,157.9,40.2,159.3,40z"/>
</g>
<g>
	<g>
		<g>
			<g>
				<g>
					<g>
						<path class="st1" d="M201.3,83.2c-4.5-5.8-12.8-6.5-19.4-8.8c-0.4-0.1-0.7-0.3-1.1-0.4c-6.4,4.7-13.3,8.9-20,13.1
							c-4.9,3.1-9.7,6.3-14.6,9.3c-3.4,2.1-6.9,4.2-10.3,6.4c4.7,4.2,10,7.6,16,9.9c6.6,2.5,14,4.2,21.1,4.3
							c9.4,0.1,18.6-2.9,24.9-9.6c1.1-1.2,2.1-2.5,3.1-3.9C204.9,97.6,205.9,89,201.3,83.2z"/>
						<path class="st2" d="M201.5,83.1c-3.5-4.4-9.1-5.9-14.5-7.4c-1.7-0.5-3.4-0.9-5-1.5c-0.3-0.1-0.6-0.2-0.9-0.3
							c-0.1,0.1-0.3,0.2-0.4,0.3c0.4,0.1,0.8,0.3,1.2,0.4c1.6,0.5,3.3,1,5,1.5c5.3,1.4,10.9,2.9,14.2,7.2c4.6,5.8,3.3,14.5-0.2,20.1
							c-0.6,0.9-1.2,1.8-1.9,2.6c-0.4,0.4-0.8,0.9-1.1,1.3c-5.9,6.3-14.7,9.7-24.8,9.5c-6.6-0.1-13.9-1.5-21.1-4.3
							c-5.7-2.2-11.1-5.5-15.9-9.8c-0.1,0.1-0.2,0.2-0.4,0.2c4.8,4.4,10.3,7.8,16.1,10c7.2,2.7,14.5,4.2,21.2,4.3
							c10.2,0.1,19.1-3.3,25.1-9.7c1.1-1.2,2.2-2.5,3.1-4c2-3.1,3.1-6.7,3.3-10.3C204.7,89.4,203.7,85.8,201.5,83.1z"/>
					</g>
					<path class="st6" d="M196.5,99.3c-0.1,1-0.5,1.9-0.9,2.8c0,0,0,0,0,0c-4,5.5-10.1,9.2-16.8,10.4c-7.1,1.3-14.7-0.1-21.2-3.3
						c-3.7-1.8-7.4-3.8-10.7-6.3c-0.4-0.3-2.7-2.1-1.7-2.6c1.1-0.7,2.8,0.3,3.9,0.8c1.3,0.6,2.6,1.4,4,1.9c1.9,0.7,4,1.2,6,1.6
						c4.4,0.8,9,0.7,13.5,0c4.1-0.6,8.5-1.9,11.8-4.5c2.1-1.6,4-3.8,6.5-4.9c1.2-0.5,2.6-0.8,3.8-0.1C196,96,196.7,97.7,196.5,99.3z
						"/>
				</g>
				<path class="st3" d="M201.3,83.2c-4.5-5.8-12.8-6.5-19.4-8.8c-0.4-0.1-0.7-0.3-1.1-0.4c-3.5,2.6-7.1,5-10.7,7.3
					c3.5,1.6,7.2,2.8,11.1,3.5c7.1,1.2,20.2,2.4,18.2,12.8c-1.4,7.1-8.6,12.5-15,14.8c-4.7,1.8-10.5,2.4-15.5,2
					c-6.7-0.5-13-3.2-18.7-6.7c-3.6-2.2-7.2-4.5-10.3-7.3c-1.3,0.8-2.6,1.7-4,2.5c4.7,4.2,10,7.6,16,9.9c6.6,2.5,14,4.2,21.1,4.3
					c9.4,0.1,18.6-2.9,24.9-9.6c1.1-1.2,2.1-2.5,3.1-3.9C204.9,97.6,205.9,89,201.3,83.2z"/>
				<path class="st7" d="M194.6,110.5c-0.1,0.1-0.2,0.2-0.3,0.2c0.1-0.1,0.3-0.3,0.4-0.4C194.7,110.4,194.7,110.5,194.6,110.5z"/>
				<path class="st3" d="M201.3,83.2c-4.5-5.8-12.8-6.5-19.4-8.8c-0.4-0.1-0.7-0.3-1.1-0.4c-2.4,1.7-4.8,3.4-7.2,5
					c1.4,0.5,2.8,0.8,4.3,0.9c1.9,0.1,3.7,0,5.6-0.1c0.9,0,1.8,0,2.8,0.1c1.6-0.1,3.1,0.1,4.7,0.3c2.4,0.4,4.8,1.3,6.6,2.9
					c1.6,1.4,2.8,3.3,3.7,5.2c0.9,1.9,1.5,4.1,1.7,6.2c0.1,2.4-0.6,4.6-1.6,6.7c-0.3,0.7-0.7,1.4-1.1,2.1c-0.8,1.6-1.8,3.1-3.1,4.5
					c0,0-0.1,0.1-0.1,0.1c-0.5,0.6-1.1,1.2-1.7,1.8c0.9-0.7,1.7-1.5,2.5-2.4c1.1-1.2,2.1-2.5,3.1-3.9
					C204.9,97.6,205.9,89,201.3,83.2z"/>
				<path class="st4" d="M180.9,74c-1.6,1.2-3.3,2.4-5,3.5c0.7,0,1.4,0,2.1-0.2c1.1-0.3,1.6-1.5,2.6-2.1c1.3-0.7,3.1-0.2,4.5,0.1
					c-1.1-0.3-2.1-0.6-3.2-1C181.6,74.3,181.3,74.2,180.9,74z"/>
			</g>
		</g>
	</g>
</g>
<g>
	<g>
		<g>
			<g>
				<g>
					<g>
						<path class="st1" d="M28.3,64.9c-2.7-5.2-5.1-10.5-7.6-15.8c-2.4-5-4.7-10.1-7.4-15c-0.2-0.4-0.5-0.9-0.7-1.3
							c-10.4,1.8-20.9,2.6-29.2,10c-6.3,5.6-8.5,14.8-4.4,22.4c4.4,8.2,15.6,12.5,24.1,14c9.5,1.7,19.2,1,28.3-2.5
							c0.8-0.3,1.6-0.6,2.4-1C32,72.1,30.1,68.5,28.3,64.9z"/>
						<path class="st2" d="M33.7,75.6c-0.8,0.3-1.6,0.7-2.4,1C22.7,79.9,13,80.7,3.1,79c-8.8-1.5-19.7-6-23.9-13.9
							c-1.2-2.3-1.9-4.7-2-7.3c-0.2-5.5,2.1-11,6.4-14.8c7.2-6.4,15.9-7.8,25.1-9.3c1.3-0.2,2.7-0.4,4-0.7c-0.1-0.1-0.1-0.3-0.2-0.4
							c-1.3,0.2-2.6,0.4-3.9,0.7c-9.3,1.5-18,2.9-25.3,9.4c-4.3,3.9-6.8,9.5-6.5,15.1c0,0,0,0,0,0c0.1,2.6,0.8,5.2,2.1,7.5
							c4.3,8,15.3,12.6,24.2,14.1c9.9,1.7,19.7,0.9,28.4-2.5c0.8-0.3,1.6-0.7,2.4-1C33.9,75.8,33.8,75.7,33.7,75.6z"/>
					</g>
					<path class="st6" d="M29.4,67c-1.2,0.7-2.5,1.3-3.8,1.8c-1.4,0.5-2.8,0.8-4.2,1.2c-1.1,0.3-3,0.7-3.4,2
						c-0.3,1.1,2.5,0.8,3.1,0.8c3.5-0.2,7-1,10.4-1.9C30.7,69.6,30,68.3,29.4,67z"/>
				</g>
				<path class="st3" d="M32.3,72.8c-1.8,0.5-3.7,1-5.6,1.3c-7,1.3-14.3,2.3-21.2,0.4c-3.9-1.1-9-3.4-11.8-6.4
					c-3-3.1-4.7-7.4-4-11.7c0.8-4.8,5.3-8.1,9.5-9.9c5.1-2.2,10.9-2.7,16.4-3.5c0.7-0.1,1.3-0.2,2-0.3c-1.4-2.9-2.8-5.8-4.3-8.6
					c-0.2-0.4-0.5-0.9-0.7-1.3c-10.4,1.8-20.9,2.6-29.2,10c-6.3,5.6-8.5,14.8-4.4,22.4c4.4,8.2,15.6,12.5,24.1,14
					c9.5,1.7,19.2,1,28.3-2.5c0.8-0.3,1.6-0.6,2.4-1C33.3,74.8,32.8,73.8,32.3,72.8z"/>
				<path class="st7" d="M61.6,46.5c0,0.1,0,0.3-0.1,0.4c0-0.2,0-0.4,0.1-0.6C61.6,46.4,61.6,46.5,61.6,46.5z"/>
				<path class="st3" d="M13.4,34.1c-0.2-0.4-0.5-0.9-0.7-1.3c-10.4,1.8-20.9,2.6-29.2,10c-6.3,5.6-8.5,14.8-4.4,22.4
					c3,5.6,9.2,9.4,15.5,11.7c-0.8-0.4-1.6-0.8-2.3-1.2c-2.6-1.6-5-3.6-6.8-6.1c-2-2.9-3-6.3-2.9-9.8c0-4,1.4-8.1,3.6-11.4
					c2-3,4.9-5.4,8.1-6.9c3.2-1.6,6.8-2.5,10.3-2.8c1.1-0.1,2.2-0.1,3.3-0.1c0.8-0.1,1.6-0.2,2.4-0.2c1.8-0.1,3.6,0,5.4,0.1
					C14.8,36.9,14.1,35.5,13.4,34.1z"/>
				<path class="st4" d="M13.4,34.1c-0.2-0.4-0.5-0.9-0.7-1.3c-10.4,1.8-20.9,2.6-29.2,10c-6.3,5.6-8.5,14.8-4.4,22.4
					c2.1,4,5.9,7,10.1,9.3c-5.2-3.4-9.8-8.3-10.5-14.7c-1-7.8,4.2-15.6,10.8-19.4C-6.7,38.1-2,37,2.4,36.4c2.4-0.4,4.9-0.6,7.4-0.5
					c1.8,0.1,3.2,0.4,4.8,0.7C14.2,35.7,13.8,34.9,13.4,34.1z"/>
			</g>
		</g>
	</g>
	<g>
		<path class="st5" d="M13.4,34.1c-0.8,0.2-1.5,0.4-2.3,0.6c-0.6,0.3-1.2,0.7-1.5,1.3c-0.3,0.7,0.4,1.3,1.4,1.7
			c1.4,0.3,2.9,0.4,4.5,0.5C14.8,36.8,14.1,35.5,13.4,34.1z"/>
	</g>
</g>
<g>
	<g>
		<g>
			<g>
				<g>
					<g>
						<path class="st1" d="M92.3,95.9c3.7-6,4.6-14.6,0-20.3c-4.6-5.7-12.9-6.4-19.4-8.6c-4.2-1.4-8.3-3.1-12.2-5.3
							c-0.3,1.3-0.6,2.7-0.9,3.9c-1.3,5.4-3,10.7-4.5,16c-1.6,5.5-3.2,11-4.6,16.6c-0.8,3-1.6,6-2.3,9.1c5.2,1.5,10.8,2.4,16.1,2.4
							c9.4,0,18.6-3,24.8-9.8C90.4,98.7,91.4,97.4,92.3,95.9z"/>
						<path class="st2" d="M92.5,96c1.9-3.1,3.1-6.7,3.2-10.4c0.1-4-1-7.5-3.1-10.2c-3.5-4.4-9.1-5.8-14.5-7.2
							c-1.8-0.5-3.4-0.9-5-1.4c-4.7-1.5-8.7-3.3-12.2-5.3c0,0.1-0.1,0.3-0.1,0.4c3.5,2,7.5,3.8,12.1,5.3c1.6,0.5,3.3,1,5,1.4
							c5.4,1.4,10.9,2.8,14.3,7.1c4.6,5.8,3.5,14.5,0,20.1c-0.6,0.9-1.2,1.8-1.9,2.6c-0.4,0.4-0.7,0.9-1.1,1.3
							c-5.8,6.3-14.6,9.8-24.7,9.8c-5.1,0-10.5-0.8-16-2.4c0,0.1-0.1,0.3-0.1,0.4c5.5,1.6,11,2.4,16.1,2.4c10.2,0,19.1-3.5,25-9.9
							C90.6,98.8,91.6,97.5,92.5,96z"/>
					</g>
					<path class="st6" d="M86.7,94.6C86.7,94.6,86.7,94.6,86.7,94.6c0.5-0.9,0.8-1.8,0.9-2.8c0.2-1.7-0.6-3.3-2-4.2
						c-1.2-0.7-2.6-0.4-3.8,0.1c-2.5,1.1-4.3,3.3-6.4,4.9c-3.4,2.6-7.7,3.9-11.8,4.6c-4.2,0.7-8.5,0.8-12.7,0.2
						c-0.1,0.3-0.1,0.5-0.2,0.8c-0.4,1.4-0.7,2.8-1.1,4.2c6.3,2.8,13.6,4,20.4,2.7C76.7,103.9,82.8,100.2,86.7,94.6z"/>
				</g>
				<path class="st3" d="M92.3,95.9c3.7-6,4.6-14.6,0-20.3c-4.6-5.7-12.9-6.4-19.4-8.6c-4.2-1.4-8.3-3.1-12.2-5.3
					c-0.3,1.3-0.6,2.7-0.9,3.9c-0.6,2.3-1.2,4.5-1.9,6.8c4.5,2.4,9.2,4.1,14.4,4.9c7.1,1.1,20.2,2.2,18.3,12.6
					c-1.3,7.2-8.5,12.5-14.9,15c-4.7,1.8-10.5,2.5-15.5,2.1c-3.9-0.3-7.6-1.3-11.1-2.7c-0.2,1-0.5,1.9-0.7,2.9
					c5.2,1.5,10.8,2.4,16.1,2.4c9.4,0,18.6-3,24.8-9.8C90.4,98.7,91.4,97.4,92.3,95.9z"/>
				<path class="st7" d="M85.9,103c-0.1,0.1-0.2,0.2-0.3,0.2c0.1-0.1,0.3-0.3,0.4-0.4C86,102.9,86,102.9,85.9,103z"/>
				<path class="st3" d="M89.3,99.9c1.1-1.2,2.1-2.5,3-4c3.7-6,4.6-14.6,0-20.3c-4.6-5.7-12.9-6.4-19.4-8.6
					c-4.2-1.4-8.3-3.1-12.2-5.3c-0.3,1.3-0.6,2.7-0.9,3.9c-0.2,0.9-0.5,1.9-0.7,2.8c1.2,1,2.6,1.9,4,2.6c1.8,0.9,3.8,1.4,5.9,1.5
					c1.9,0.1,3.7-0.1,5.6-0.1c0.9,0,1.8,0,2.8,0c1.6-0.1,3.1,0,4.7,0.3c2.4,0.4,4.8,1.2,6.6,2.8c1.6,1.4,2.8,3.2,3.8,5.1
					c0.9,1.9,1.6,4.1,1.7,6.2c0.2,2.4-0.5,4.6-1.5,6.7c-0.3,0.7-0.7,1.4-1.1,2.1c-0.8,1.6-1.8,3.1-3,4.5c0,0-0.1,0.1-0.1,0.1
					c-0.5,0.6-1.1,1.2-1.6,1.8C87.7,101.5,88.5,100.7,89.3,99.9z"/>
				<path class="st4" d="M59.8,65.7c-0.1,0.3-0.2,0.7-0.3,1c1.7,1.4,4,2.8,6,3.4c1.1,0.3,2.3,0.3,3.4,0c1.1-0.3,1.6-1.6,2.6-2.1
					c1.3-0.7,3.1-0.2,4.5,0.1c-1.1-0.3-2.1-0.6-3.2-0.9c-4.2-1.4-8.3-3.1-12.2-5.3C60.5,63,60.2,64.4,59.8,65.7z"/>
			</g>
		</g>
	</g>
	<g>
		<path class="st5" d="M59.8,65.7c-0.2,0.8-0.4,1.7-0.7,2.5c2.4,1.8,5,2.9,7.1,2.6c1.7-0.2,2.6-1.2,1.7-2.7
			c-0.5-0.9-1.2-1.7-2.1-2.3c-1.6-1.2-3.7-1.9-5.4-2.7c0,0-0.1,0-0.1,0C60.3,63.9,60.1,64.8,59.8,65.7z"/>
	</g>
	<path class="st6" d="M66.5,67.9c0,0,1.6,0.8-0.1,1.7c-1.8,0.9-5.1-1-5.9-2.7C60.2,66.5,63.9,66.4,66.5,67.9z"/>
</g>
<g>
	<g>
		<g>
			<g>
				<g>
					<g>
						<path class="st1" d="M96.6,144.2c4.7,12.8,10.9,24.9,17.6,36.8c1,1.7,1.9,3.4,2.9,5.1c5.6-1.4,10.9-3.7,15.9-6.8
							c7.3-4.6,16.1-12.8,17.1-22c0.9-8.5-4.5-16.2-12.4-19.1c-11.3-4.1-22-0.1-33.1,2c-2.9,0.6-5.9,0.9-8.9,1
							C95.9,142.2,96.3,143.2,96.6,144.2z"/>
						<path class="st2" d="M95.7,141.5c3.2-0.1,6.1-0.4,8.9-1c2.1-0.4,4.2-0.9,6.2-1.3c9.1-2,17.7-4,26.8-0.7
							c5.3,1.9,9.6,6.2,11.4,11.3c0.9,2.4,1.1,5,0.9,7.5c-1,8.9-9.4,17.1-17,21.9c-5.1,3.1-10.4,5.4-15.9,6.8
							c0.1,0.1,0.1,0.2,0.2,0.4c5.5-1.4,10.9-3.7,15.9-6.8c7.7-4.8,16.2-13.1,17.2-22.2c0.3-2.6,0-5.2-0.9-7.7c0,0,0,0,0,0
							c-1.9-5.3-6.2-9.6-11.7-11.6c-9.2-3.3-17.9-1.4-27,0.7c-2,0.5-4.1,0.9-6.2,1.3c-2.8,0.5-5.8,0.9-9,1
							C95.6,141.2,95.6,141.3,95.7,141.5z"/>
					</g>
					<path class="st6" d="M113.8,180.2c0.1,0,0.2,0,0.3-0.1c0.5-0.2,3.3-1,2.5-1.9c-0.8-1-2.8-0.7-3.9-0.6c-0.1,0-0.2,0-0.3,0
						C112.8,178.5,113.3,179.4,113.8,180.2z"/>
				</g>
				<path class="st3" d="M96.6,144.2c0.9,2.6,2,5.1,3,7.6c2.8-0.2,5.5-0.7,8.2-1.3c5.4-1.3,10.9-3.1,16.5-2.9
					c4.6,0.1,9.9,1.5,12.5,5.7c2.3,3.7,2.3,8.3,0.7,12.3c-1.5,3.8-5.4,7.9-8.6,10.3c-4.2,3.2-9.1,5-14.1,6.3
					c0.7,1.3,1.5,2.6,2.2,3.9c5.6-1.4,10.9-3.7,15.9-6.8c7.3-4.6,16.1-12.8,17.1-22c0.9-8.5-4.5-16.2-12.4-19.1
					c-11.3-4.1-22-0.1-33.1,2c-2.9,0.6-5.9,0.9-8.9,1C95.9,142.2,96.3,143.2,96.6,144.2z"/>
				<path class="st3" d="M96.6,144.2c0.5,1.4,1.1,2.8,1.6,4.2c0.2,0,0.3,0,0.5,0c2.3-0.3,4.5-1,6.7-1.9c1.9-0.8,3.8-1.8,5.8-2.5
					c0.8-0.3,1.5-0.5,2.3-0.7c1-0.4,2-0.8,3-1.2c3.4-1.1,7-1.6,10.6-1.3c3.6,0.3,7.1,1.3,10.1,3.4c3.3,2.3,6,5.6,7.6,9.3
					c1.3,3.2,1.7,6.8,0.9,10.2c-0.7,3-2.2,5.8-4,8.2c-0.5,0.7-1.1,1.4-1.7,2c5-4.5,9.3-10.3,10-16.6c0.9-8.5-4.5-16.2-12.4-19.1
					c-11.3-4.1-22-0.1-33.1,2c-2.9,0.6-5.9,0.9-8.9,1C95.9,142.2,96.3,143.2,96.6,144.2z"/>
				<path class="st4" d="M96.6,144.2c0.3,0.8,0.6,1.6,0.9,2.4c2.4,0,5.3-0.8,7.4-1.8c2.2-1,3.5-2.2,5.7-3.2c2.2-1,4.6-1.7,7-2.3
					c4.4-1,9.1-1.7,13.6-1.1c7.5,1.1,15.2,6.3,17.2,14c1.6,6.2-0.7,12.4-4.3,17.5c3.1-3.7,5.4-7.9,5.9-12.4
					c0.9-8.5-4.5-16.2-12.4-19.1c-11.3-4.1-22-0.1-33.1,2c-2.9,0.6-5.9,0.9-8.9,1C95.9,142.2,96.3,143.2,96.6,144.2z"/>
			</g>
		</g>
	</g>
	<g>
		<path class="st5" d="M96.6,144.2c0.4,1.1,0.9,2.2,1.3,3.4c3.6,0.4,8.7-1.4,12.3-3.8c0.7-0.7,1.2-1.5,0.7-2.1
			c-0.4-0.4-1.1-0.6-1.8-0.6c-1.7,0.2-3.5,0.4-5.3,0.6c-1.8,0.2-4,0.2-6,0.8c-0.6,0.2-1.1,0.4-1.6,0.7
			C96.4,143.5,96.5,143.8,96.6,144.2z"/>
	</g>
	<path class="st6" d="M97.6,146.7c1.7,0.4,4.1-0.3,5.1-1.2c0.4-0.4-3.1-1.7-6-1.1C96.9,145.1,97.3,145.9,97.6,146.7z"/>
</g>
<g>
	<g>
		<g>
			<g>
				<g>
					<g>
						<path class="st1" d="M72.2,142.2c-4.8-4.6-9.5-9.4-13.9-14.5c-0.4-0.5-0.8-1-1.2-1.5c-0.6,0.2-1.2,0.5-1.8,0.7
							c-6.5,2.4-14.8,3.3-19.2,9.2c-4.4,5.8-3.3,14.5,0.6,20.3c0.9,1.4,2,2.7,3.1,3.9c6.5,6.6,15.7,9.4,25.1,9.1
							c7.1-0.2,14.5-2.1,21-4.7c2.7-1.1,5.2-2.4,7.6-3.9C86.4,154.7,79.1,148.7,72.2,142.2z"/>
						<path class="st2" d="M93.5,160.6c-2.4,1.5-4.9,2.8-7.5,3.8c-7.1,2.9-14.3,4.5-21,4.7c-10.1,0.3-19-2.9-25-9
							c-0.4-0.4-0.8-0.8-1.2-1.3c-0.7-0.8-1.3-1.7-1.9-2.6c-3.7-5.5-5.1-14.2-0.7-20.1c3.3-4.4,8.8-6,14.1-7.5c1.7-0.5,3.4-1,5-1.6
							c0.6-0.2,1.2-0.5,1.8-0.7c-0.1-0.1-0.2-0.2-0.3-0.3c-0.6,0.2-1.1,0.4-1.7,0.6c-1.6,0.6-3.2,1.1-5,1.6
							c-5.4,1.6-10.9,3.2-14.3,7.7c-2.1,2.8-3.1,6.3-2.8,10.3c0.2,3.6,1.5,7.2,3.5,10.3c0.9,1.4,2,2.7,3.2,3.9
							c6.1,6.2,15.1,9.5,25.3,9.2c6.7-0.2,14-1.8,21.1-4.7c2.6-1.1,5.2-2.4,7.7-3.9C93.7,160.8,93.6,160.7,93.5,160.6z"/>
					</g>
					<path class="st6" d="M86,154.4c-0.3,0.2-0.7,0.3-1,0.4c-1.9,0.8-3.9,1.3-5.9,1.7c-4.4,0.9-9,0.9-13.5,0.3
						c-4.2-0.6-8.5-1.7-11.9-4.2c-2.2-1.6-4-3.7-6.6-4.7c-1.2-0.5-2.6-0.8-3.8,0c-1.4,0.9-2.2,2.5-1.9,4.2c0.2,1,0.5,1.9,1,2.7
						c0,0,0,0,0,0c4.1,5.5,10.3,9,17,10.1c7.2,1.2,14.7-0.4,21.1-3.7c2.8-1.4,5.5-2.9,8.1-4.7C87.7,155.8,86.8,155.1,86,154.4z"/>
				</g>
				<path class="st3" d="M90.2,157.9c-0.8,0.6-1.7,1.1-2.5,1.6c-5.6,3.6-11.8,6.4-18.5,7.1c-5,0.5-10.8,0-15.6-1.7
					c-6.4-2.2-13.8-7.4-15.3-14.5c-2.2-10.3,10.8-11.8,17.9-13.2c2.9-0.6,5.8-1.4,8.5-2.5c-2.2-2.3-4.3-4.6-6.3-7
					c-0.4-0.5-0.8-1-1.2-1.5c-0.6,0.2-1.2,0.5-1.8,0.7c-6.5,2.4-14.8,3.3-19.2,9.2c-4.4,5.8-3.3,14.5,0.6,20.3
					c0.9,1.4,2,2.7,3.1,3.9c6.5,6.6,15.7,9.4,25.1,9.1c7.1-0.2,14.5-2.1,21-4.7c2.7-1.1,5.2-2.4,7.6-3.9
					C92.5,159.8,91.4,158.8,90.2,157.9z"/>
				<path class="st7" d="M43.4,163.2c0.1,0.1,0.2,0.2,0.3,0.2c-0.2-0.1-0.3-0.2-0.4-0.4C43.3,163.1,43.4,163.2,43.4,163.2z"/>
				<path class="st3" d="M58.3,127.7c-0.4-0.5-0.8-1-1.2-1.5c-0.6,0.2-1.2,0.5-1.8,0.7c-6.5,2.4-14.8,3.3-19.2,9.2
					c-4.4,5.8-3.3,14.5,0.6,20.3c0.9,1.4,2,2.7,3.1,3.9c0.8,0.8,1.7,1.6,2.6,2.3c-0.6-0.6-1.1-1.2-1.7-1.8c0,0-0.1-0.1-0.1-0.1
					c-1.2-1.4-2.3-2.8-3.1-4.4c-0.4-0.7-0.8-1.4-1.1-2.1c-1.1-2.1-1.8-4.3-1.7-6.7c0.1-2.2,0.7-4.3,1.5-6.3c0.9-1.9,2.1-3.8,3.6-5.2
					c1.8-1.7,4.2-2.6,6.5-3c1.6-0.3,3.1-0.5,4.7-0.4c0.9-0.1,1.8-0.1,2.8-0.1c1.9,0,3.7,0.1,5.6,0c0.9-0.1,1.8-0.2,2.6-0.4
					C60.8,130.5,59.6,129.1,58.3,127.7z"/>
				<path class="st4" d="M58.3,127.7c-0.4-0.5-0.8-1-1.2-1.5c-0.6,0.2-1.2,0.5-1.8,0.7c-1,0.4-2.1,0.7-3.1,1
					c1.4-0.4,3.2-0.9,4.5-0.2c1,0.5,1.6,1.7,2.6,2c0.3,0.1,0.6,0.1,0.9,0.2C59.6,129.2,59,128.4,58.3,127.7z"/>
			</g>
		</g>
	</g>
</g>
<ellipse transform="matrix(0.2467 -0.9691 0.9691 0.2467 -41.2678 116.3141)" class="st0" cx="54.2" cy="84.7" rx="23.6" ry="7.2"/>
<ellipse transform="matrix(0.2467 -0.9691 0.9691 0.2467 -41.6247 116.3825)" class="st8" cx="54.1" cy="85" rx="16.6" ry="5.1"/>
<ellipse transform="matrix(0.8398 -0.5429 0.5429 0.8398 -22.6052 100.1848)" class="st0" cx="158.4" cy="88.4" rx="26.8" ry="4.4"/>
<ellipse transform="matrix(0.8398 -0.5429 0.5429 0.8398 -22.7312 100.0472)" class="st8" cx="158.1" cy="88.5" rx="18.8" ry="3"/>
<ellipse transform="matrix(0.6857 -0.7279 0.7279 0.6857 -80.7687 100.0789)" class="st0" cx="75.5" cy="143.6" rx="5.1" ry="25.1"/>
<ellipse transform="matrix(0.6857 -0.7279 0.7279 0.6857 -80.6515 99.863)" class="st8" cx="75.3" cy="143.3" rx="3.6" ry="17.6"/>
<ellipse transform="matrix(0.4612 -0.8873 0.8873 0.4612 30.5872 163.8207)" class="st0" cx="150.2" cy="56.7" rx="26.4" ry="3.1"/>
<ellipse transform="matrix(0.4612 -0.8873 0.8873 0.4612 30.2514 163.814)" class="st8" cx="150" cy="57" rx="18.5" ry="2.2"/>
</svg>
