<?xml version="1.0" encoding="utf-8"?>
<!-- Generator: Adobe Illustrator 25.2.1, SVG Export Plug-In . SVG Version: 6.00 Build 0)  -->
<svg version="1.1" id="Layer_3" xmlns="http://www.w3.org/2000/svg" xmlns:xlink="http://www.w3.org/1999/xlink" x="0px" y="0px"
	 viewBox="0 0 200 200" style="enable-background:new 0 0 200 200;" xml:space="preserve">
<style type="text/css">
	.st0{fill:#7B2926;}
	.st1{fill:#5A2B0C;}
	.st2{opacity:0.52;fill:#A34F32;}
	.st3{opacity:0.5;fill:#874026;}
	.st4{opacity:0.5;fill:#764937;}
	.st5{opacity:0.5;fill:#A34F32;}
	.st6{fill:#F3F4C6;}
</style>
<g>
	<g>
		<g>
			<g>
				<g>
					<g>
						<path class="st0" d="M170.9,88.5c-1.2-6.9-6.4-13.9-13.6-15.1c-7.2-1.2-13.9,3.9-20.2,6.7c-4.2,1.9-8.6,3.4-13,4.3
							c-11.1,2.3-22.5,2.8-31.4,10.9c-6.2,5.7-8.3,14.9-4.1,22.4c4.5,8.1,15.7,12.3,24.3,13.7c9.5,1.5,19.3,0.8,28.3-2.8
							c6.6-2.7,13.1-6.5,18.4-11.2c7-6.3,11.7-14.7,11.8-24C171.3,91.8,171.2,90.2,170.9,88.5z"/>
						<path class="st1" d="M92.6,95.2c7.2-6.6,15.9-8.1,25.2-9.8c2.1-0.4,4.2-0.7,6.3-1.2c4.1-0.9,8.4-2.3,13-4.3
							c1.5-0.7,3-1.5,4.6-2.3c5-2.6,10.1-5.3,15.6-4.4c3.4,0.5,6.6,2.4,9.2,5.4c2.3,2.7,4,6.2,4.6,9.8c0.3,1.7,0.4,3.3,0.4,5
							c-0.1,8.7-4.3,17.3-11.8,24.1c-5,4.5-11.3,8.4-18.5,11.3c-8.6,3.5-18.5,4.5-28.4,2.9c-8.9-1.4-20-5.8-24.4-13.8
							c-1.3-2.3-2-4.8-2.2-7.5c0,0,0,0,0,0C85.9,104.8,88.3,99.1,92.6,95.2z M170.7,88.5c-1.2-6.5-6.2-13.7-13.5-14.9
							c-5.4-0.9-10.5,1.8-15.4,4.4c-1.6,0.8-3.1,1.6-4.7,2.3c-4.7,2.1-9,3.5-13.1,4.4c-2.1,0.4-4.2,0.8-6.3,1.2
							c-9.2,1.6-17.9,3.2-25,9.7c-4.2,3.8-6.5,9.4-6.2,14.9c0.1,2.6,0.9,5,2.1,7.3c4.4,7.9,15.3,12.2,24.1,13.6
							c9.9,1.6,19.6,0.6,28.2-2.8c7.1-2.9,13.4-6.7,18.3-11.2c7.5-6.8,11.7-15.2,11.7-23.8c0-0.6,0-1.2,0-1.7
							C171,90.6,170.9,89.6,170.7,88.5z"/>
					</g>
					<path class="st2" d="M164.7,88.5c0.6,0.8,0.9,1.7,1.2,2.7c0,0,0,0,0,0c0.9,6.8-1.2,13.6-5.3,19c-4.3,5.8-10.9,9.9-17.8,12
						c-4,1.2-8,2.3-12.2,2.6c-0.5,0-3.4,0.4-3.1-0.8c0.4-1.3,2.3-1.7,3.4-2.1c1.4-0.4,2.8-0.7,4.2-1.3c1.9-0.8,3.7-1.8,5.5-2.9
						c3.8-2.4,7.1-5.6,9.9-9.1c2.6-3.3,4.9-7.1,5.7-11.3c0.5-2.6,0.4-5.5,1.4-8c0.5-1.2,1.4-2.4,2.8-2.7
						C162,86.5,163.7,87.2,164.7,88.5z"/>
				</g>
				<path class="st3" d="M137.1,80.1c-4.2,1.9-8.6,3.4-13,4.3c-11.1,2.3-22.5,2.8-31.4,10.9c-6.2,5.7-8.3,14.9-4.1,22.4
					c4.5,8.1,15.7,12.3,24.3,13.7c9.5,1.5,19.3,0.8,28.3-2.8c6.6-2.7,13.1-6.5,18.4-11.2c7-6.3,11.7-14.7,11.8-24
					c0-1.6-0.1-3.3-0.4-5c-1.2-6.9-6.4-13.9-13.6-15.1C150,72.3,143.4,77.3,137.1,80.1z M165.7,85.2c3.8,6.2,2.1,15-1,21.1
					c-2.3,4.5-6.1,8.9-10,12c-5.3,4.2-11.7,6.4-18.2,7.8c-6.9,1.4-14.2,2.5-21.2,0.6c-3.9-1-9-3.3-11.9-6.2c-3-3.1-4.8-7.3-4.1-11.6
					c0.8-4.8,5.2-8.2,9.3-10.1c5.1-2.3,10.9-2.8,16.3-3.7c6.7-1.1,13-3.2,18.7-7C149.7,84.2,160.1,76.2,165.7,85.2z"/>
				<path class="st4" d="M170.9,98c0,0.1,0,0.3-0.1,0.4c0-0.2,0-0.4,0.1-0.6C170.9,97.9,170.9,98,170.9,98z"/>
				<path class="st3" d="M157.3,73.4c7.2,1.2,12.4,8.1,13.6,15.1c0.3,1.7,0.4,3.3,0.4,5c0,1.2-0.1,2.3-0.2,3.4c0-0.8,0-1.6,0-2.5
					c0-0.1,0-0.1,0-0.2c-0.1-1.8-0.3-3.6-0.8-5.4c-0.2-0.8-0.4-1.5-0.6-2.3c-0.7-2.2-1.7-4.4-3.4-6c-1.6-1.5-3.5-2.6-5.5-3.4
					c-2-0.8-4.1-1.3-6.3-1.3c-2.5,0.1-4.8,1-6.8,2.4c-1.3,0.9-2.5,1.8-3.6,2.9c-0.7,0.6-1.4,1.2-2.1,1.8c-1.3,1.3-2.6,2.7-4.1,3.9
					c-1.6,1.3-3.4,2.3-5.4,2.8c-2.3,0.6-4.6,0.8-6.9,0.8c-2.1,0-4.2-0.2-6.3,0c-0.8,0.1-1.6,0.1-2.4,0.3c-1.1,0-2.2,0-3.3,0.1
					c-3.6,0.3-7.1,1.3-10.3,2.9c-3.2,1.6-6.1,4-8,7.1c-2.1,3.4-3.4,7.5-3.4,11.5c0,3.5,1,6.9,3.1,9.8c1.8,2.5,4.2,4.5,6.9,6
					c0.8,0.4,1.5,0.8,2.3,1.2c-6.3-2.2-12.5-6-15.6-11.5c-4.2-7.5-2.1-16.7,4.1-22.4c8.8-8.1,20.2-8.6,31.4-10.9
					c4.5-0.9,8.9-2.5,13-4.3C143.4,77.3,150,72.3,157.3,73.4z"/>
				<path class="st5" d="M136.7,81.7c-0.3,1,0.1,2.3-0.5,3.3c-0.6,1-1.5,1.8-2.5,2.3c-2.3,1.2-5.7,1.6-8.2,1.5
					c-2.4-0.1-4.1-0.7-6.5-0.7c-2.5-0.1-4.9,0.2-7.4,0.6c-4.4,0.7-9.1,1.9-13,4.2c-6.5,3.9-11.6,11.7-10.5,19.5
					c0.9,6.4,5.5,11.2,10.7,14.5c-4.3-2.2-8-5.2-10.2-9.2c-4.2-7.5-2.1-16.7,4.1-22.4c8.8-8.1,20.2-8.6,31.4-10.9
					c4.5-0.9,8.9-2.5,13-4.3c1-0.4,2-0.9,3-1.4C138.8,79.4,137.2,80.2,136.7,81.7z"/>
			</g>
		</g>
	</g>
	<g>
		<path class="st6" d="M134.1,84.1c1.7,0.6,1.6,1.9,0.6,3.2c-2.4,2.9-9.4,3.6-14.5,2.6c-1-0.4-1.7-0.9-1.4-1.7
			c0.2-0.6,0.8-1,1.4-1.3c1.7-0.5,3.4-1,5.1-1.5c1.8-0.5,3.8-1.4,5.8-1.6C132.1,83.7,133.2,83.8,134.1,84.1z"/>
	</g>
	<path class="st2" d="M133,85.1c0,0,1.7-0.5,1,1.3c-0.7,1.9-4.5,2.7-6.2,2C127.3,88.3,130,85.7,133,85.1z"/>
</g>
<g>
	<g>
		<g>
			<g>
				<g>
					<g>
						<path class="st0" d="M99.5,78.1c3.4-6.2,3.8-14.9-1.1-20.3c-4.9-5.4-13.2-5.7-19.9-7.4c-4.4-1.2-8.8-2.7-12.9-4.8
							c-10.1-5.2-19.3-12-31.2-11.2c-8.4,0.5-15.8,6.4-17.3,14.8c-1.6,9.2,4.5,19.5,10.3,25.9c6.5,7.2,14.5,12.7,23.8,15.6
							c6.8,2.1,14.3,3.2,21.4,2.8c9.4-0.5,18.4-4.1,24.2-11.3C97.8,80.9,98.7,79.5,99.5,78.1z"/>
						<path class="st1" d="M34.4,34.1c9.8-0.6,17.5,3.7,25.7,8.2c1.8,1,3.7,2.1,5.6,3c3.7,1.9,7.9,3.5,12.8,4.8
							c1.6,0.4,3.3,0.8,5.1,1.1c5.5,1.1,11.2,2.2,14.9,6.4c2.3,2.6,3.6,6.1,3.7,10c0.1,3.6-0.8,7.3-2.6,10.5
							c-0.8,1.5-1.8,2.9-2.8,4.2C91.4,89,82.7,93.1,72.5,93.6C65.8,94,58.4,93,51.1,90.8c-8.9-2.7-17.2-8.1-23.9-15.6
							c-6-6.7-11.9-17.1-10.3-26.1c0.5-2.6,1.5-5,3-7.2c0,0,0,0,0,0C23.2,37.4,28.6,34.4,34.4,34.1z M99.3,78
							c3.2-5.8,3.9-14.6-1.1-20.1c-3.7-4.1-9.3-5.2-14.7-6.3c-1.8-0.4-3.5-0.7-5.1-1.1c-4.9-1.3-9.2-2.9-12.9-4.8
							c-1.9-1-3.8-2-5.6-3c-8.2-4.5-15.9-8.8-25.5-8.2c-5.7,0.4-11,3.2-14.2,7.7c-1.5,2.1-2.5,4.5-2.9,7
							c-1.6,8.9,4.2,19.1,10.2,25.7c6.7,7.4,14.9,12.8,23.7,15.5c7.3,2.2,14.7,3.2,21.3,2.8c10.1-0.6,18.6-4.5,24.1-11.2
							c0.4-0.4,0.7-0.9,1.1-1.4C98.2,79.8,98.8,78.9,99.3,78z"/>
					</g>
					<path class="st2" d="M94.6,74.2c-0.1,1-0.4,1.9-0.7,2.8c0,0,0,0,0,0c-3.6,5.8-9.5,9.8-16,11.5c-7,1.8-14.7,0.9-21.4-1.8
						c-3.8-1.6-7.7-3.3-11.1-5.6c-0.4-0.3-2.9-1.9-1.9-2.5c1.1-0.8,2.8,0.1,3.9,0.5c1.4,0.5,2.7,1.2,4.1,1.6c2,0.6,4,1,6.1,1.2
						c4.5,0.5,9.1,0.1,13.4-0.9c4.1-0.9,8.3-2.4,11.5-5.3c2-1.8,3.7-4,6.1-5.3c1.2-0.6,2.6-1,3.8-0.4C93.9,70.9,94.8,72.5,94.6,74.2
						z"/>
				</g>
				<path class="st3" d="M78.5,50.3c-4.4-1.2-8.8-2.7-12.9-4.8c-10.1-5.2-19.3-12-31.2-11.2c-8.4,0.5-15.8,6.4-17.3,14.8
					c-1.6,9.2,4.5,19.5,10.3,25.9c6.5,7.2,14.5,12.7,23.8,15.6c6.8,2.1,14.3,3.2,21.4,2.8c9.4-0.5,18.4-4.1,24.2-11.3
					c1-1.3,2-2.6,2.8-4.1c3.4-6.2,3.8-14.9-1.1-20.3C93.5,52.3,85.1,52.1,78.5,50.3z M97.5,72.2c-0.9,7.2-7.8,13-14,15.8
					c-4.6,2.1-10.3,3.1-15.3,3C61.4,91,55,88.7,49.1,85.7c-6.3-3.2-12.6-7-16.9-12.8c-2.4-3.2-4.9-8.2-5.3-12.3
					c-0.4-4.3,0.8-8.7,4.1-11.6c3.6-3.3,9.2-3.1,13.6-2c5.4,1.4,10.3,4.6,15,7.4c5.9,3.4,12.2,5.7,19,6.3
					C85.7,61.4,98.8,61.8,97.5,72.2z"/>
				<path class="st4" d="M93.5,85.5c-0.1,0.1-0.2,0.2-0.3,0.3c0.1-0.1,0.3-0.3,0.4-0.4C93.6,85.4,93.6,85.4,93.5,85.5z"/>
				<path class="st3" d="M98.4,57.8c4.9,5.4,4.5,14.1,1.1,20.3c-0.8,1.5-1.8,2.9-2.8,4.1c-0.7,0.9-1.5,1.7-2.4,2.5
					c0.5-0.6,1-1.3,1.5-1.9c0,0,0.1-0.1,0.1-0.1c1.1-1.5,2-3,2.7-4.7c0.3-0.7,0.6-1.4,0.9-2.2c0.9-2.2,1.4-4.4,1.1-6.8
					c-0.3-2.1-1-4.2-2.1-6.1c-1-1.9-2.4-3.6-4.1-4.9c-2-1.5-4.4-2.2-6.8-2.4c-1.6-0.2-3.1-0.2-4.7,0c-0.9,0-1.8,0-2.8,0.1
					c-1.9,0.2-3.7,0.4-5.6,0.4c-2.1,0-4-0.3-5.9-1.2c-2.1-0.9-4.1-2.2-5.9-3.7c-1.6-1.3-3.2-2.8-4.9-4c-0.7-0.5-1.3-0.9-2-1.3
					c-0.8-0.7-1.7-1.4-2.6-2c-3-2-6.3-3.5-9.8-4.2C40.2,39,36.4,39,33,40.2c-3.8,1.3-7.4,3.6-9.9,6.8c-2.2,2.7-3.5,6-3.7,9.5
					c-0.2,3.1,0.5,6.2,1.6,9c0.3,0.8,0.7,1.6,1.1,2.4c-3.5-5.7-6-12.5-4.9-18.8c1.5-8.4,8.9-14.3,17.3-14.8
					c11.9-0.7,21.1,6,31.2,11.2c4.1,2.1,8.5,3.6,12.9,4.8C85.1,52.1,93.5,52.3,98.4,57.8z"/>
				<path class="st5" d="M77.2,51.3c-0.9,0.6-1.4,1.9-2.5,2.2c-1.1,0.4-2.3,0.5-3.4,0.2c-2.5-0.5-5.4-2.3-7.3-4
					c-1.8-1.6-2.7-3.1-4.6-4.7c-1.9-1.6-4-2.9-6.1-4.2c-3.9-2.2-8.3-4.2-12.8-4.9C33,35,24.1,37.9,20,44.6
					c-3.3,5.5-2.8,12.1-0.8,18.1c-1.9-4.4-3-9.1-2.2-13.6c1.5-8.4,8.9-14.3,17.3-14.8c11.9-0.7,21.1,6,31.2,11.2
					c4.1,2.1,8.5,3.6,12.9,4.8c1,0.3,2.1,0.5,3.2,0.7C80.3,50.8,78.5,50.4,77.2,51.3z"/>
			</g>
		</g>
	</g>
	<g>
		<path class="st6" d="M73.7,51.6c0.9,1.5,0.1,2.5-1.6,2.8c-3.7,0.8-9.5-3.1-12.9-7.1c-0.5-0.9-0.7-1.8-0.1-2.2
			c0.5-0.3,1.3-0.2,1.9-0.1c1.6,0.7,3.3,1.4,4.9,2c1.7,0.7,3.8,1.3,5.5,2.4C72.3,50,73.1,50.7,73.7,51.6z"/>
	</g>
	<path class="st2" d="M72.1,51.6c0,0,1.7,0.7-0.1,1.7c-1.7,1-5.2-0.7-6.1-2.3C65.7,50.5,69.5,50.2,72.1,51.6z"/>
</g>
<g>
	<g>
		<g>
			<g>
				<g>
					<g>
						<path class="st0" d="M33.8,115.4c0.1,9.2,4.8,17.7,11.8,24c5.3,4.8,11.8,8.6,18.4,11.2c9,3.6,18.7,4.4,28.3,2.8
							c8.5-1.4,19.7-5.6,24.3-13.7c4.2-7.5,2.1-16.7-4.1-22.4c-8.8-8.1-20.2-8.6-31.4-10.9c-4.5-0.9-8.9-2.5-13-4.3
							c-6.3-2.8-12.9-7.9-20.2-6.7c-7.2,1.2-12.4,8.1-13.6,15.1C33.9,112.2,33.8,113.8,33.8,115.4z"/>
						<path class="st1" d="M118.9,132.4C118.9,132.4,118.9,132.4,118.9,132.4c-0.2,2.6-0.9,5.2-2.2,7.5c-4.4,8-15.5,12.4-24.4,13.8
							c-9.9,1.6-19.8,0.6-28.4-2.9c-7.1-2.9-13.5-6.8-18.5-11.3c-7.6-6.9-11.8-15.4-11.8-24.1c0-1.7,0.1-3.3,0.4-5
							c0.6-3.6,2.3-7.1,4.6-9.8c2.6-3,5.7-4.9,9.2-5.4c5.5-0.9,10.7,1.8,15.6,4.4c1.6,0.8,3.1,1.6,4.6,2.3c4.6,2.1,8.9,3.5,13,4.3
							c2.1,0.4,4.2,0.8,6.3,1.2c9.2,1.6,18,3.2,25.2,9.8C116.8,121.1,119.2,126.8,118.9,132.4z M34.1,113.7c0,0.6,0,1.2,0,1.7
							c0.1,8.6,4.2,17,11.7,23.8c4.9,4.5,11.3,8.3,18.3,11.2c8.6,3.5,18.3,4.4,28.2,2.8c8.8-1.4,19.8-5.7,24.1-13.6
							c1.2-2.3,2-4.7,2.1-7.3c0.3-5.5-2-11-6.2-14.9c-7.1-6.5-15.8-8.1-25-9.7c-2.1-0.4-4.2-0.7-6.3-1.2c-4.1-0.9-8.4-2.3-13.1-4.4
							c-1.5-0.7-3.1-1.5-4.7-2.3c-4.9-2.6-10-5.2-15.4-4.4c-7.3,1.2-12.3,8.4-13.5,14.9C34.2,111.6,34.1,112.6,34.1,113.7z"/>
					</g>
					<path class="st2" d="M40.5,110.5c-0.6,0.8-0.9,1.7-1.2,2.7c0,0,0,0,0,0c-0.9,6.8,1.2,13.6,5.3,19c4.3,5.8,10.9,9.9,17.8,12
						c4,1.2,8,2.3,12.2,2.6c0.5,0,3.4,0.4,3.1-0.8c-0.4-1.3-2.3-1.7-3.4-2.1c-1.4-0.4-2.8-0.7-4.2-1.3c-1.9-0.8-3.7-1.8-5.5-2.9
						c-3.8-2.4-7.1-5.6-9.9-9.1c-2.6-3.3-4.9-7.1-5.7-11.3c-0.5-2.6-0.4-5.5-1.4-8c-0.5-1.2-1.4-2.4-2.8-2.7
						C43.1,108.5,41.4,109.2,40.5,110.5z"/>
				</g>
				<path class="st3" d="M47.9,95.4c-7.2,1.2-12.4,8.1-13.6,15.1c-0.3,1.7-0.4,3.3-0.4,5c0.1,9.2,4.8,17.7,11.8,24
					c5.3,4.8,11.8,8.6,18.4,11.2c9,3.6,18.7,4.4,28.3,2.8c8.5-1.4,19.7-5.6,24.3-13.7c4.2-7.5,2.1-16.7-4.1-22.4
					c-8.8-8.1-20.2-8.6-31.4-10.9c-4.5-0.9-8.9-2.5-13-4.3C61.7,99.3,55.1,94.3,47.9,95.4z M61.5,110.2c5.7,3.7,12,5.9,18.7,7
					c5.5,0.9,11.3,1.4,16.3,3.7c4.2,1.9,8.6,5.2,9.3,10.1c0.7,4.3-1.1,8.5-4.1,11.6c-2.9,2.9-8,5.2-11.9,6.2
					c-7,1.8-14.3,0.8-21.2-0.6c-6.5-1.3-13-3.6-18.2-7.8c-3.9-3.1-7.8-7.5-10-12c-3.1-6.1-4.8-14.9-1-21.1
					C45,98.2,55.4,106.2,61.5,110.2z"/>
				<path class="st4" d="M34.2,120c0,0.1,0,0.3,0.1,0.4c0-0.2,0-0.4-0.1-0.6C34.2,119.9,34.2,120,34.2,120z"/>
				<path class="st3" d="M47.9,95.4c-7.2,1.2-12.4,8.1-13.6,15.1c-0.3,1.7-0.4,3.3-0.4,5c0,1.2,0.1,2.3,0.2,3.4c0-0.8,0-1.6,0-2.5
					c0-0.1,0-0.1,0-0.2c0.1-1.8,0.3-3.6,0.8-5.4c0.2-0.8,0.4-1.5,0.6-2.3c0.7-2.2,1.7-4.4,3.4-6c1.6-1.5,3.5-2.6,5.5-3.4
					c2-0.8,4.1-1.3,6.3-1.3c2.5,0.1,4.8,1,6.8,2.4c1.3,0.9,2.5,1.8,3.6,2.9c0.7,0.6,1.4,1.2,2.1,1.8c1.3,1.3,2.6,2.7,4.1,3.9
					c1.6,1.3,3.4,2.3,5.4,2.8c2.3,0.6,4.6,0.8,6.9,0.8c2.1,0,4.2-0.2,6.3,0c0.8,0.1,1.6,0.1,2.4,0.3c1.1,0,2.2,0,3.3,0.1
					c3.6,0.3,7.1,1.3,10.3,2.9c3.2,1.6,6.1,4,8,7.1c2.1,3.4,3.4,7.5,3.4,11.5c0,3.5-1,6.9-3.1,9.8c-1.8,2.5-4.2,4.5-6.9,6
					c-0.8,0.4-1.5,0.8-2.3,1.2c6.3-2.2,12.5-6,15.6-11.5c4.2-7.5,2.1-16.7-4.1-22.4c-8.8-8.1-20.2-8.6-31.4-10.9
					c-4.5-0.9-8.9-2.5-13-4.3C61.7,99.3,55.1,94.3,47.9,95.4z"/>
				<path class="st5" d="M68.4,103.7c0.3,1-0.1,2.3,0.5,3.3c0.6,1,1.5,1.8,2.5,2.3c2.3,1.2,5.7,1.6,8.2,1.5c2.4-0.1,4.1-0.7,6.5-0.7
					c2.5-0.1,4.9,0.2,7.4,0.6c4.4,0.7,9.1,1.9,13,4.2c6.5,3.9,11.6,11.7,10.5,19.5c-0.9,6.4-5.5,11.2-10.7,14.5
					c4.3-2.2,8-5.2,10.2-9.2c4.2-7.5,2.1-16.7-4.1-22.4c-8.8-8.1-20.2-8.6-31.4-10.9c-4.5-0.9-8.9-2.5-13-4.3c-1-0.4-2-0.9-3-1.4
					C66.3,101.4,68,102.2,68.4,103.7z"/>
			</g>
		</g>
	</g>
	<g>
		<path class="st6" d="M71,106.1c-1.7,0.6-1.6,1.9-0.6,3.2c2.4,2.9,9.4,3.6,14.5,2.6c1-0.4,1.7-0.9,1.4-1.7c-0.2-0.6-0.8-1-1.4-1.3
			c-1.7-0.5-3.4-1-5.1-1.5c-1.8-0.5-3.8-1.4-5.8-1.6C73,105.7,72,105.8,71,106.1z"/>
	</g>
	<path class="st2" d="M72.2,107.1c0,0-1.7-0.5-1,1.3c0.7,1.9,4.5,2.7,6.2,2C77.8,110.3,75.1,107.7,72.2,107.1z"/>
</g>
</svg>
