<?xml version="1.0" encoding="utf-8"?>
<!-- Generator: Adobe Illustrator 25.2.1, SVG Export Plug-In . SVG Version: 6.00 Build 0)  -->
<svg version="1.1" id="Layer_2" xmlns="http://www.w3.org/2000/svg" xmlns:xlink="http://www.w3.org/1999/xlink" x="0px" y="0px"
	 viewBox="0 0 200 200" style="enable-background:new 0 0 200 200;" xml:space="preserve">
<style type="text/css">
	.st0{fill:#87601B;}
	.st1{clip-path:url(#SVGID_2_);fill:#6D480D;}
	.st2{clip-path:url(#SVGID_4_);fill:#936721;}
	.st3{opacity:0.18;fill:#4F2E00;enable-background:new    ;}
	.st4{fill:#A36D1D;}
	.st5{fill:#98C101;}
	.st6{fill:#93B914;}
	.st7{fill:#7FAE00;}
	.st8{fill:#FFFE97;}
	.st9{opacity:0.24;fill:#FFFE97;enable-background:new    ;}
	.st10{opacity:0.25;clip-path:url(#SVGID_8_);}
	.st11{opacity:0.22;clip-path:url(#SVGID_10_);}
	.st12{fill:#190B02;}
	.st13{clip-path:url(#SVGID_12_);fill:#6D480D;}
	.st14{clip-path:url(#SVGID_14_);fill:#936721;}
	.st15{opacity:0.25;clip-path:url(#SVGID_16_);}
	.st16{opacity:0.22;clip-path:url(#SVGID_18_);}
</style>
<g>
	<g>
		<g>
			<path id="SVGID_7_" class="st0" d="M122.2,102.4c0,0,11.4,13.1,25,16.9c10,2.8,30,1,39-7.2c8.9-8,18.8-18,19.1-33.9
				c0.3-16-16.6-46.6-24.4-44.8C173.1,35.2,122.2,102.4,122.2,102.4z"/>
		</g>
		<g>
			<defs>
				<path id="SVGID_1_" d="M122.2,102.4c0,0,11.4,13.1,25,16.9c10,2.8,30,1,39-7.2c8.9-8,18.8-18,19.1-33.9
					c0.3-16-16.6-46.6-24.4-44.8C173.1,35.2,122.2,102.4,122.2,102.4z"/>
			</defs>
			<clipPath id="SVGID_2_">
				<use xlink:href="#SVGID_1_"  style="overflow:visible;"/>
			</clipPath>
			<path class="st1" d="M156.6,90.5c1.2,1.5,11.3,13.2,17.8,17.3c6.7,3.9,23.6,3.7,23.6,3.7s-35.8,37.4-37.1,38
				c-1.3,0.3-30.1-13.5-32.7-15.9c-2.8-2.3-18.6-26.3-18.6-26.3l4.6-12.4L156.6,90.5z"/>
		</g>
		<g>
			<defs>
				<path id="SVGID_3_" d="M122.2,102.4c0,0,11.4,13.1,25,16.9c10,2.8,30,1,39-7.2c8.9-8,18.8-18,19.1-33.9
					c0.3-16-16.6-46.6-24.4-44.8C173.1,35.2,122.2,102.4,122.2,102.4z"/>
			</defs>
			<clipPath id="SVGID_4_">
				<use xlink:href="#SVGID_3_"  style="overflow:visible;"/>
			</clipPath>
			<path class="st2" d="M186.2,59.3c0,0,11.5,18.6,15.9,27.3c4.5,8.5,4,15.7,4,15.7s19.9-17,15.9-23.7c-4.1-6.7-24.8-36.1-24.8-36.1
				L186,33L186.2,59.3z"/>
		</g>
	</g>
	<path class="st3" d="M189.2,46.4c0.9,1.6,8.6,5.2,7.7,20.5c-0.8,15.6-20.4,36.1-27,40.3c-6.7,4.4-28.5,12.4-37.1,3.3
		S189.2,46.4,189.2,46.4z"/>
	<path class="st4" d="M183.8,33.6c10.4,5.4,14,16.6,13.1,29.9c-0.3,4.4-1.6,8.6-3.8,12.8c-2.9,5.8-7.6,12.1-12.1,16.9
		c-5.1,5.4-10.9,10.5-18.2,14.9c-15.4,9.2-28.2,4.4-35.7-1.1c-5.6-4.1-13.1-11.4-8.2-30.8c2.6-10.5,7.4-19.8,16.3-28.8
		c8.4-8.7,18.9-15.1,28.3-16.4C169.7,30.1,178.8,31.1,183.8,33.6z"/>
	<path class="st5" d="M181.7,34.1c7.5,2.9,11.4,6.8,13.4,18c0.5,3.7,0.6,8.5-0.3,12.7c-0.9,3.7-1.9,6.9-3.5,10.5
		c-4.7,11-14.6,21.2-24.5,28.4c-5.8,4.3-11.5,6.2-15.1,6.9c-5,1.1-8,1-12.6,0.3c-2.9-0.5-7.5-2.6-9.8-4.1
		c-10.9-7.1-12.8-18.4-9.7-32c2.7-11.5,10.3-22.3,19.7-30.7c3.1-2.7,15.2-11.3,24.9-12.1C170.1,32.2,176.6,32.3,181.7,34.1z"/>
	<g>
		<path class="st6" d="M143.5,76.4c-4.1-0.7-8.5,0.3-12.7,1c-2.7,0.5-6.3,1.6-8.1,3.4c-0.4,0.5-0.2,1.2,0.2,1.8c2,2.2,5.9-1.1,8-1.6
			c4.3-0.8,8.6-1.1,12.8-3.1C144.4,77.7,144.5,76.6,143.5,76.4L143.5,76.4z"/>
	</g>
	<g>
		<path class="st6" d="M143.2,80.5c-1.9,0.3-3.4,0.8-5.1,1.5c-1.9,0.9-3.6,2-5.3,2.7c-2.7,1.3-7,2.1-8.6,4.7
			c-1.3,1.9,0.2,4.3,2.6,3.5c3.1-0.7,6.3-3,9.3-4.6c1.6-0.9,3.1-1.8,4.7-3c1.5-1.2,2.2-2.3,3.5-3.9
			C144.2,80.8,143.9,80.3,143.2,80.5L143.2,80.5z"/>
	</g>
	<g>
		<path class="st6" d="M146.4,83.2c-3.7,1.1-4.9,4.2-7.2,7c-2.2,2.6-5.6,5-6.9,8.3c-1,2.5,2.2,4.3,4,2.5c2.3-2.5,4.9-5.3,6.9-8
			c2.1-2.9,3.1-5.7,3.8-9.2C147.3,83.4,146.7,83.2,146.4,83.2L146.4,83.2z"/>
	</g>
	<g>
		<path class="st6" d="M149.6,85c-2.5,3.4-3.7,7.4-4.8,11.4c-0.9,3.1-3.2,7.5-0.8,10.6c0.5,0.7,1.6,0.8,2.1,0.1
			c2-2.4,2.4-6.8,3.2-9.8c1.1-4,2-7.7,1.6-11.9C150.9,84.7,150,84.5,149.6,85L149.6,85z"/>
	</g>
	<g>
		<path class="st6" d="M152,88.4c0,3.6,0.5,7.3,1.3,11c0.7,2.5,1,5.8,3.4,7.2c0.6,0.2,1.2-0.1,1.3-0.6c1.4-2.4-0.2-5.7-0.7-8
			c-1.1-3.4-2.1-6.7-3.4-9.8C153.5,86.9,152,87.3,152,88.4L152,88.4z"/>
	</g>
	<g>
		<path class="st6" d="M155.6,88.1c0.5,5.1,3.6,9.3,6,13.3c1.9,3,6.6-0.3,4.5-3.1c-2.9-3.8-5.7-8.3-10.3-10.5
			C155.8,87.7,155.5,87.8,155.6,88.1L155.6,88.1z"/>
	</g>
	<g>
		<path class="st6" d="M161.5,83.9c0.5,5.1,3.6,9.3,6,13.3c1.9,3,6.6-0.3,4.5-3.1c-2.9-3.8-5.7-8.3-10.3-10.5
			C161.8,83.6,161.5,83.6,161.5,83.9L161.5,83.9z"/>
	</g>
	<g>
		<path class="st6" d="M161.9,81.8c1,2.8,4.3,4.4,6.6,6.3c2.1,1.8,4.4,5,7.5,4.6c0.6-0.1,1.3-0.6,1.4-1.3c0.3-3.3-3.2-5.4-5.6-7.2
			c-2.4-1.7-5.8-4.3-9.1-3.7C162,80.7,161.6,81.2,161.9,81.8L161.9,81.8z"/>
	</g>
	<g>
		<path class="st6" d="M143.8,72.5c-2.3-2.5-4.9-4.1-8.1-5.1c-2.3-0.8-5.8-2.3-8.3-1.6c-0.6,0.1-1.1,1-1.1,1.6
			c0.6,3,3.7,3.1,6.4,3.9c3.7,0.9,6.7,2.2,10.6,2.2C143.7,73.5,144,72.9,143.8,72.5L143.8,72.5z"/>
	</g>
	<g>
		<path class="st6" d="M143.3,67.1c-0.1-2.5-1.8-4.8-3.3-6.6c-1.5-2.1-3.9-4.9-6.8-5.1c-1.1-0.1-2.2,0.7-2,1.7
			c0.4,3.1,3.5,5.4,5.6,7.4c1.5,1.5,3.5,3.7,5.9,3.2C143.2,67.9,143.3,67.4,143.3,67.1L143.3,67.1z"/>
	</g>
	<g>
		<path class="st6" d="M149.4,62.6c0.2-2.3-0.3-4.9-1-7.1c-0.7-2.8-1.3-5.7-2.9-8.2c-1.4-2.3-4.9-0.8-4.7,1.6c0.3,3,1.8,6.2,3.2,8.7
			c1.1,2,2.1,4.5,4.4,5.3C149,63.1,149.3,63.1,149.4,62.6L149.4,62.6z"/>
	</g>
	<g>
		<path class="st6" d="M155.2,58c1.8-2.1,1.5-5.4,1.4-7.9c0-3.3,0.2-6.5-1-9.7c-0.4-1.5-3.2-1.8-3.8-0.1c-1.1,3.3-0.8,6.5-0.3,9.9
			c0.2,2.7,0.6,6.3,2.7,8C154.6,58.4,155,58.2,155.2,58L155.2,58z"/>
	</g>
	<g>
		<path class="st6" d="M162.3,55.7c2.5-2.3,3-6.6,4.1-9.8c0.9-2.8,4-7.1,2.5-10c-0.4-0.6-0.8-1-1.4-0.9c-3.8,0.7-5,6-6.1,9.3
			c-1.1,3.3-2.6,8.1-0.6,11.3C161,55.7,161.7,56.1,162.3,55.7L162.3,55.7z"/>
	</g>
	<g>
		<path class="st6" d="M167.6,57.6c3.7-1.1,6.1-5.4,8.4-8.1c1.5-1.8,2.8-3.4,4.3-5.2c1.2-1.5,2.3-2.5,2-4.7
			c-0.1-1.2-1.1-1.7-2.1-1.8c-2.1-0.1-2.9,1.2-4.3,2.8c-1.6,2-3,3.9-4.4,6c-2,3-5.1,6.8-4.6,10.5C166.8,57.6,167.2,57.8,167.6,57.6
			L167.6,57.6z"/>
	</g>
	<g>
		<path class="st6" d="M171.2,59c4.1-1,7.7-2.7,11.6-4.4c2.9-1.5,7.6-2.8,8.9-6.1c0.4-1.1-0.1-2.2-1.4-2.6
			c-3.5-0.7-7.6,2.5-10.3,4.4c-3.5,2.3-6.8,4.5-9.7,7.4C169.6,58.2,170.5,59.2,171.2,59L171.2,59z"/>
	</g>
	<g>
		<path class="st6" d="M173.1,68c3.7-0.2,7.3-0.2,11.1-0.7c3-0.3,6.9-0.3,8.3-3.3c0.4-0.8,0.1-1.8-0.5-2.4c-2.6-2.2-6.2-0.5-9,0.2
			c-3.7,1.1-6.8,2.6-10.3,4.1C171.6,66.5,171.9,68.1,173.1,68L173.1,68z"/>
	</g>
	<g>
		<path class="st6" d="M173.9,61.3c3.8-0.7,7.4-1,11.4-1.8c3.1-0.7,6.8-0.9,8.8-4.3c0.4-0.8,0.1-1.8-0.2-2.4c-2.3-1.9-6.3,0-9.1,1
			c-3.8,1.5-7.2,3.4-10.9,5.2C172.6,59.6,172.8,61.4,173.9,61.3L173.9,61.3z"/>
	</g>
	<g>
		<path class="st6" d="M170.4,70.6c5.7,1.7,12.4,2.9,18.1,0.7c2.3-0.8,1.9-3.9-0.4-4.5c-6-1.4-11.6,1.4-17.5,2.2
			C170.1,69.3,169.7,70.4,170.4,70.6L170.4,70.6z"/>
	</g>
	<g>
		<path class="st6" d="M167.7,77.2c5.7,1.7,12.4,2.9,18.1,0.7c2.3-0.8,1.9-3.9-0.4-4.5c-6-1.4-11.6,1.4-17.5,2.2
			C167.4,75.9,167,77,167.7,77.2L167.7,77.2z"/>
	</g>
	<g>
		<path class="st6" d="M167.2,79.3c0.7,2.5,3.1,3.2,5.2,4c2.8,1.2,5.5,3,8.7,2.8c2.4,0.1,2.4-2.9,1.4-4.3
			c-3.3-3.6-10.2-4.3-14.7-3.5C167.5,78.7,167.4,78.9,167.2,79.3L167.2,79.3z"/>
	</g>
	<g>
		<path class="st7" d="M148.7,71.6c-2.3-4.1-7-9.4-11.8-10.6c-0.8-0.1-1.4,0.7-1.1,1.3c1.9,4.6,8,8.3,12.6,9.7
			C148.7,72.2,148.8,72,148.7,71.6L148.7,71.6z"/>
	</g>
	<g>
		<path class="st7" d="M152.4,67c-0.8-1-1.5-2.9-2-4.2c-0.7-1.4-1.4-2.6-2.3-3.8c-1.4-2-2.3-4.1-4.8-4.5c-0.8-0.1-1.3,0.3-1.4,1
			c-0.5,2.9,2.2,5.7,4,7.7c1.8,2.1,3.5,4,6.3,4.7C152.5,67.9,152.8,67.3,152.4,67L152.4,67z"/>
	</g>
	<g>
		<path class="st7" d="M155.4,64.8c0.8-2.9,0-6.3-0.5-9c-0.6-3-1-5.8-2.7-8.3c-0.7-0.8-1.8-0.4-2.1,0.5c-0.8,2.9,0,6.3,0.5,9.3
			c0.5,2.7,1.1,5.9,3.1,8.1C154.3,65.8,155.2,65.7,155.4,64.8L155.4,64.8z"/>
	</g>
	<g>
		<path class="st7" d="M145,74.3c-1-2.2-3.9-3-5.9-3.8c-2.7-1.1-5.3-2.5-8.4-2.8c-0.8-0.1-1.4,0.7-0.9,1.4c1.9,2.4,4.9,4.1,7.5,5.2
			c2.2,1,5.2,2.4,7.5,1C144.9,75.1,145,74.6,145,74.3L145,74.3z"/>
	</g>
	<g>
		<path class="st7" d="M141.4,74.9c-1.4-2-4.4-2-6.5-2.4c-2.9-0.5-5.8-1.3-8.8-1c-0.6,0.1-1.1,1-0.5,1.5c2.4,2,5.7,2.8,8.6,3.3
			c2.4,0.4,5.5,1,7.5-0.7C141.7,75.7,141.6,75.1,141.4,74.9L141.4,74.9z"/>
	</g>
	<g>
		<path class="st7" d="M144.1,77.7c-2.4-1.4-5.5-1.3-8.2-1.3c-2.5,0.1-5.9-0.8-8.4,0.5c-0.6,0.4-0.5,1.2-0.1,1.8
			c2,1.9,6,1.4,8.4,1.5c2.7,0.1,5.9,0.2,8.1-1.5C144.5,78.3,144.3,77.8,144.1,77.7L144.1,77.7z"/>
	</g>
	<g>
		<path class="st7" d="M142.7,82.6c-2.3-0.5-4.7,0.7-6.8,1.5c-1.3,0.6-2.8,1-4.1,1.3c-1,0.2-1.8,0.2-2.6,1.1
			c-0.3,0.3-0.2,0.9,0.1,1.2c1.8,1.5,4.7,0,6.5-0.9c2.3-1.1,5.1-2.1,7-3.8C143.1,83.2,142.9,82.8,142.7,82.6L142.7,82.6z"/>
	</g>
	<g>
		<path class="st7" d="M152.5,85.5c-1.4,2.4-1.1,4.6-0.8,7.3c0.2,2.1,0.5,5.4,2.9,6.5c0.3,0.3,0.8,0.1,1-0.2
			c1.5-1.8,0.8-4.9,0.3-6.9c-0.4-2.5-0.7-4.7-2.6-6.5C153.1,85.1,152.6,85,152.5,85.5L152.5,85.5z"/>
	</g>
	<g>
		<path class="st7" d="M153.9,84.8c-0.8,2.6,2,5.8,3.3,8c1.4,2.3,3.2,5.1,6.2,5.1c0.6-0.1,1-0.5,1.2-1.2c0.6-2.8-1.8-5.4-3.4-7.5
			c-1.4-2-3.3-5.3-5.9-5.5C154.6,83.7,154.2,84.1,153.9,84.8L153.9,84.8z"/>
	</g>
	<g>
		<path class="st7" d="M160.9,80.4c0.5,2.7,2.6,4.1,4.4,5.9c2,1.9,3.9,4.3,6.8,4.8c0.9,0.2,1.9-0.6,1.7-1.7c-0.6-3-2.7-4.7-5-6.6
			c-2-1.6-4.3-3.8-7.1-3.7C161.2,79.3,160.8,79.8,160.9,80.4L160.9,80.4z"/>
	</g>
	<g>
		<path class="st7" d="M160.5,81.5c0.1,2.2,1.5,4.5,2.6,6.8c1.3,2.4,2.4,5,4.7,6.9c0.7,0.5,1.4,0.3,1.5-0.4c0.1-2.7-1.5-5.1-3-7.7
			c-1.4-2.3-2.7-5-4.8-6.2C161.1,80.8,160.6,81,160.5,81.5L160.5,81.5z"/>
	</g>
	<g>
		<path class="st7" d="M167.8,75.7c2.1,1.2,4.6,1.4,7.2,1.6c2.9,0.2,5.6,0.8,8.3,0c0.7-0.2,1.1-1,0.5-1.5c-2.4-1.4-5.1-1.5-8-1.7
			c-2.6-0.2-5.7-0.4-7.8,0.7C167.3,75,167.4,75.6,167.8,75.7L167.8,75.7z"/>
	</g>
	<g>
		<path class="st7" d="M168.9,59c2.2-0.7,4-2.8,5.7-4.6c1.9-2,4.3-3.9,5.1-6.5c0.4-0.8-0.1-1.5-0.9-1.3c-2.6,0.8-4.4,3-6.4,5.1
			c-1.6,2-4,4.1-4.4,6.6C168.3,58.8,168.5,59.2,168.9,59L168.9,59z"/>
	</g>
	<g>
		<path class="st7" d="M162.7,75.5c1.4,2.6,4.6,3.8,6.9,4.9c2.8,1.2,5.5,2.7,8.7,1.8c0.9-0.4,1.1-1.3,0.6-2c-1.6-2.7-5-3.6-7.8-4.5
			c-2.5-1-5.4-2.1-8.1-1.2C162.7,74.5,162.5,75.1,162.7,75.5L162.7,75.5z"/>
	</g>
	<g>
		<path class="st7" d="M165.4,72c2.4,2,6.4,2.3,9.4,2.6c2.1,0.1,7.2,0.2,7.4-2.9c0.2-2.9-4.4-2.6-6.2-2.4c-3.3,0.3-7.2,0.1-10.1,1.2
			C165.1,70.7,164.9,71.6,165.4,72L165.4,72z"/>
	</g>
	<g>
		<path class="st7" d="M165.2,66.9c2.4,1.4,6,1.4,8.8,1c3.1-0.4,7.3-0.8,9.5-3.4c1.1-1.3,0.3-3.3-1.4-3.6c-2.9-0.8-6.4,1-9.1,2
			c-2.6,0.8-5.6,1.4-7.7,3.3C164.9,66.3,164.9,66.6,165.2,66.9L165.2,66.9z"/>
	</g>
	<g>
		<path class="st7" d="M168.3,60.7c2.7,0.1,5.3-0.8,7.9-1.9c1.4-0.7,4.9-2.3,4-4.4c-0.9-1.9-3.7-0.6-4.8,0.1c-2.4,1.6-5,3.3-7.4,4.9
			C167.4,59.9,167.7,60.8,168.3,60.7L168.3,60.7z"/>
	</g>
	<g>
		<path class="st7" d="M163.8,60.2c2.9,0.2,4.8-1.8,6.4-3.7c2-2.7,4.7-5.7,4.4-9.3c-0.1-0.9-1-1.4-1.8-1.2c-2.8,1-4,3.5-5.5,5.9
			c-1.4,2.4-3,4.6-4,7.1C162.8,59.4,163,60.2,163.8,60.2L163.8,60.2z"/>
	</g>
	<g>
		<path class="st7" d="M162.6,60.1c1.1-3.3,1.4-6.6,1.8-9.8c0.6-3.1,2.1-6.2,0.5-9.2c-0.4-0.6-1.4-0.9-2-0.6c-3.3,1.7-3.7,6-4,9.4
			c-0.1,3.5-0.1,7.4,1.9,10.4C161.4,60.8,162.3,60.7,162.6,60.1L162.6,60.1z"/>
	</g>
	<g>
		<path class="st7" d="M144.2,85.2c-3.1,2.1-6,4.6-8.6,7.4c-1.9,2,1.5,4.5,3.3,2.7c1.2-1.2,1.5-2.8,2.6-4.4c1-1.9,2.2-3.4,3.8-4.9
			C145.6,85.5,144.8,84.9,144.2,85.2L144.2,85.2z"/>
	</g>
	<g>
		<path class="st7" d="M145.4,100.6c1.2-1.8,1.6-3.9,2-5.7c0.6-2,1-4.1,0.1-6c-0.2-0.7-1.1-0.6-1.5-0.2c-1.5,1.5-1.9,3.6-2.3,5.8
			c-0.3,2-0.7,4.1-0.2,6.2C143.7,101,144.9,101.2,145.4,100.6L145.4,100.6z"/>
	</g>
	<g>
		<path class="st7" d="M152.1,102.2c0.6-2,0.1-4.1-0.4-6.1c-0.3-1.9-0.7-4.1-2.2-5.7c-0.7-0.5-1.2-0.2-1.6,0.3
			c-0.9,2-0.5,4.3,0.1,6.2c0.5,2.1,1,4.1,2.2,5.7C150.7,103.3,151.8,103.1,152.1,102.2L152.1,102.2z"/>
	</g>
	<path class="st8" d="M147.6,84.7c-4.9-1.1-6.6-6.6-1.6-14.3c4.8-7.8,10.4-12.8,15.4-10.6c5,2.2,10.8,6.2,7.2,12.6
		C164.8,78.7,155,86.5,147.6,84.7z"/>
	<path class="st9" d="M146.1,85.2c-5.6-1.4-7.5-7.3-2.3-15.8s11.1-13.8,16.9-11.2c5.7,2.6,12.3,7,8.3,14
		C165,79.2,154.2,87.3,146.1,85.2z"/>
	<g>
		<g>
			<defs>
				<path id="SVGID_5_" d="M181.7,34.1c7.5,2.9,11.4,6.8,13.4,18c0.5,3.7,0.6,8.5-0.3,12.7c-0.9,3.7-1.9,6.9-3.5,10.5
					c-4.7,11-14.6,21.2-24.5,28.4c-5.8,4.3-11.5,6.2-15.1,6.9c-5,1.1-8,1-12.6,0.3c-2.9-0.5-7.5-2.6-9.8-4.1
					c-10.9-7.1-12.8-18.4-9.7-32c2.7-11.5,10.3-22.3,19.7-30.7c3.1-2.7,15.2-11.3,24.9-12.1C170.1,32.2,176.6,32.3,181.7,34.1z"/>
			</defs>
			<clipPath id="SVGID_8_">
				<use xlink:href="#SVGID_5_"  style="overflow:visible;"/>
			</clipPath>
			<g class="st10">
				<path class="st5" d="M140.3,44.8c10.8-5.6,15.4-7,24.7-7.8c8.3-0.8,17.8,3.8,22.6,10.6c4.5,6.2,6.4,14.1,5.3,21.5
					c-1.2,9.4-6.7,17.6-9.1,26.5c-0.6,2,2.1,3.1,3.7,2.2c7.7-4.6,12.5-13.3,14.8-21.8c2.3-8,2.6-16.3,0.5-24.4
					c-4.4-17.2-23.1-28.8-40.3-25c-4.7,1-9.2,3.1-13.6,5.5c-4.4,2.4-9,5.5-11.9,9.7c-0.9,1.4-4.5,6.7-2.6,6.4L140.3,44.8z"/>
			</g>
		</g>
		<g>
			<defs>
				<path id="SVGID_9_" d="M181.7,34.1c7.5,2.9,11.4,6.8,13.4,18c0.5,3.7,0.6,8.5-0.3,12.7c-0.9,3.7-1.9,6.9-3.5,10.5
					c-4.7,11-14.6,21.2-24.5,28.4c-5.8,4.3-11.5,6.2-15.1,6.9c-5,1.1-8,1-12.6,0.3c-2.9-0.5-7.5-2.6-9.8-4.1
					c-10.9-7.1-12.8-18.4-9.7-32c2.7-11.5,10.3-22.3,19.7-30.7c3.1-2.7,15.2-11.3,24.9-12.1C170.1,32.2,176.6,32.3,181.7,34.1z"/>
			</defs>
			<clipPath id="SVGID_10_">
				<use xlink:href="#SVGID_9_"  style="overflow:visible;"/>
			</clipPath>
			<g class="st11">
				<path class="st7" d="M134.5,47.2c-4.5,1.8-11.9,11-13.8,15.2c-1.9,4.2-3.1,9-3.9,13.6c-1.5,9.5-1.8,19.7,2.9,28.3
					c5.2,9.3,16,13.6,26.1,14c9.2,0.5,21.9-0.2,26.8-9.4c1.3-2.5-1.7-5.9-4.3-4.7c-6.6,3-15,4.1-22.2,3.8
					c-7.5-0.2-15.7-2.9-18.8-10.4c-2.9-6.5-3.3-14.9-2.3-21.7c0.6-3.7,1.4-7.3,2.9-10.8c1.3-3.6,3-7.9,4.2-11.7
					C132.9,51.1,134.5,47.2,134.5,47.2z"/>
			</g>
		</g>
	</g>
	
		<ellipse transform="matrix(0.8742 -0.4856 0.4856 0.8742 -27.4529 92.7029)" class="st12" cx="165.2" cy="99.3" rx="0.6" ry="1.3"/>
	<ellipse transform="matrix(0.8742 -0.4856 0.4856 0.8742 -21.2387 87.9704)" class="st12" cx="159.1" cy="85" rx="0.6" ry="1.3"/>
	
		<ellipse transform="matrix(0.8742 -0.4856 0.4856 0.8742 -24.4826 87.3624)" class="st12" cx="156.3" cy="90.9" rx="0.6" ry="1.3"/>
	<ellipse transform="matrix(0.8742 -0.4856 0.4856 0.8742 -21.102 92.0862)" class="st12" cx="167.2" cy="86.8" rx="0.6" ry="1.3"/>
	
		<ellipse transform="matrix(0.8742 -0.4856 0.4856 0.8742 -23.7444 92.2422)" class="st12" cx="166.1" cy="91.9" rx="0.6" ry="1.3"/>
	
		<ellipse transform="matrix(0.8742 -0.4856 0.4856 0.8742 -28.9057 89.2686)" class="st12" cx="157.8" cy="100.4" rx="0.6" ry="1.3"/>
	
		<ellipse transform="matrix(0.9832 -0.1828 0.1828 0.9832 -16.9073 29.492)" class="st12" cx="151.5" cy="106.5" rx="0.6" ry="1.3"/>
	<ellipse transform="matrix(0.9832 -0.1828 0.1828 0.9832 -15.2396 29.4174)" class="st12" cx="152" cy="97.4" rx="0.6" ry="1.3"/>
	
		<ellipse transform="matrix(6.852450e-02 -0.9976 0.9976 6.852450e-02 33.0024 235.9343)" class="st12" cx="142.8" cy="100.3" rx="1.3" ry="0.6"/>
	<ellipse transform="matrix(0.6066 -0.795 0.795 0.6066 -16.074 148.2942)" class="st12" cx="141.8" cy="90.4" rx="1.3" ry="0.6"/>
	<ellipse transform="matrix(0.6066 -0.795 0.795 0.6066 -30.3217 140.059)" class="st12" cx="126.4" cy="100.7" rx="1.3" ry="0.6"/>
	<ellipse transform="matrix(0.2128 -0.9771 0.9771 0.2128 25.3654 217.4324)" class="st12" cx="147.6" cy="93" rx="1.1" ry="0.6"/>
	
		<ellipse transform="matrix(0.5993 -0.8005 0.8005 0.5993 -28.6017 149.0133)" class="st12" cx="134.6" cy="103.1" rx="1.1" ry="0.6"/>
	
		<ellipse transform="matrix(0.6714 -0.7411 0.7411 0.6714 -23.6951 127.9438)" class="st12" cx="132.4" cy="90.7" rx="1.1" ry="0.6"/>
	
		<ellipse transform="matrix(0.9998 -1.801574e-02 1.801574e-02 0.9998 -1.3008 2.3954)" class="st12" cx="132.3" cy="73.4" rx="1.3" ry="0.6"/>
	<ellipse transform="matrix(0.5535 -0.8329 0.8329 0.5535 4.6289 149.2057)" class="st12" cx="141.5" cy="70.3" rx="0.6" ry="1.3"/>
	<ellipse transform="matrix(0.5535 -0.8329 0.8329 0.5535 11.5806 147.0899)" class="st12" cx="143" cy="62.7" rx="0.6" ry="1.3"/>
	<ellipse transform="matrix(0.1336 -0.991 0.991 0.1336 37.84 201.4729)" class="st12" cx="134.1" cy="79.1" rx="0.6" ry="1.3"/>
	<ellipse transform="matrix(0.5535 -0.8329 0.8329 0.5535 2.9164 140.6752)" class="st12" cx="132.7" cy="67.6" rx="0.6" ry="1.3"/>
	<ellipse transform="matrix(0.5535 -0.8329 0.8329 0.5535 15.5019 138.9092)" class="st12" cx="137.3" cy="55" rx="0.6" ry="1.3"/>
	<ellipse transform="matrix(0.7893 -0.614 0.614 0.7893 0.7561 95.8283)" class="st12" cx="140" cy="46.8" rx="0.6" ry="1.3"/>
	<ellipse transform="matrix(0.7893 -0.614 0.614 0.7893 -3.4887 99.8987)" class="st12" cx="143.8" cy="55" rx="0.6" ry="1.3"/>
	<ellipse transform="matrix(0.9176 -0.3975 0.3975 0.9176 -6.7387 63.8468)" class="st12" cx="150.6" cy="48.2" rx="0.6" ry="1.3"/>
	<ellipse transform="matrix(0.9857 -0.1683 0.1683 0.9857 -6.966 27.4718)" class="st12" cx="158.6" cy="54.8" rx="0.6" ry="1.3"/>
	<ellipse transform="matrix(0.1736 -0.9848 0.9848 0.1736 96.5973 195.8018)" class="st12" cx="165" cy="40.3" rx="1.3" ry="0.6"/>
	<ellipse transform="matrix(0.8197 -0.5728 0.5728 0.8197 -4.6151 97.0914)" class="st12" cx="151.9" cy="55.9" rx="0.6" ry="1.1"/>
	
		<ellipse transform="matrix(0.1646 -0.9864 0.9864 0.1646 89.2225 189.6766)" class="st12" cx="156.6" cy="42.2" rx="1.1" ry="0.6"/>
	
		<ellipse transform="matrix(0.2559 -0.9667 0.9667 0.2559 71.9001 197.5111)" class="st12" cx="164.2" cy="52.1" rx="1.1" ry="0.6"/>
	<ellipse transform="matrix(0.9721 -0.2344 0.2344 0.9721 -15.444 35.1903)" class="st12" cx="140.3" cy="82.6" rx="1.3" ry="0.6"/>
	
		<ellipse transform="matrix(0.9721 -0.2344 0.2344 0.9721 -16.2309 31.7999)" class="st12" cx="125.7" cy="84.2" rx="1.3" ry="0.6"/>
	<ellipse transform="matrix(0.5147 -0.8574 0.8574 0.5147 0.8232 141.1062)" class="st12" cx="125.1" cy="69.8" rx="0.6" ry="1.3"/>
	<ellipse transform="matrix(0.922 -0.3872 0.3872 0.922 -6.2814 70.2732)" class="st12" cx="171.3" cy="50.7" rx="1.3" ry="0.6"/>
	<ellipse transform="matrix(0.922 -0.3872 0.3872 0.922 -7.1519 72.8295)" class="st12" cx="177.2" cy="54.2" rx="1.3" ry="0.6"/>
	
		<ellipse transform="matrix(0.4843 -0.8749 0.8749 0.4843 53.7123 172.0695)" class="st12" cx="172.8" cy="40.5" rx="1.3" ry="0.6"/>
	<ellipse transform="matrix(0.6666 -0.7454 0.7454 0.6666 29.5953 150.4262)" class="st12" cx="183" cy="42.1" rx="1.3" ry="0.6"/>
	<ellipse transform="matrix(0.922 -0.3872 0.3872 0.922 -6.2318 76.4516)" class="st12" cx="186.6" cy="53.7" rx="1.3" ry="0.6"/>
	
		<ellipse transform="matrix(0.9972 -7.444036e-02 7.444036e-02 0.9972 -3.9733 14.4508)" class="st12" cx="191.9" cy="60.5" rx="1.3" ry="0.6"/>
	
		<ellipse transform="matrix(0.9972 -7.444036e-02 7.444036e-02 0.9972 -3.9073 13.7744)" class="st12" cx="182.8" cy="59.3" rx="1.3" ry="0.6"/>
	<ellipse transform="matrix(0.177 -0.9842 0.9842 0.177 82.4156 238.2959)" class="st12" cx="183.7" cy="69.9" rx="0.6" ry="1.3"/>
	<ellipse transform="matrix(0.6898 -0.724 0.724 0.6898 3.4892 147.3081)" class="st12" cx="173.6" cy="69.6" rx="0.6" ry="1.3"/>
	<ellipse transform="matrix(0.6898 -0.724 0.724 0.6898 -7.8318 156.8649)" class="st12" cx="179.1" cy="87.6" rx="0.6" ry="1.3"/>
	<ellipse transform="matrix(0.3182 -0.948 0.948 0.3182 51.4035 220.7417)" class="st12" cx="179.2" cy="74.6" rx="0.6" ry="1.1"/>
	<ellipse transform="matrix(0.2659 -0.964 0.964 0.2659 58.6923 236.7272)" class="st12" cx="184.8" cy="79.8" rx="0.6" ry="1.1"/>
	<ellipse transform="matrix(0.7483 -0.6634 0.6634 0.7483 -8.7574 134.6051)" class="st12" cx="173" cy="78.8" rx="0.6" ry="1.1"/>
	<ellipse transform="matrix(0.915 -0.4035 0.4035 0.915 -9.756 74.8496)" class="st12" cx="172.7" cy="60.6" rx="1.3" ry="0.6"/>
</g>
<g>
	<g>
		<path id="SVGID_6_" class="st0" d="M13.6,91.1c0,0-13.6,10.8-18.1,24.2c-3.3,9.9-2.3,29.9,5.4,39.3c7.6,9.2,17.1,19.6,33,20.6
			c15.9,1.1,47.3-14.5,45.9-22.4C78.5,145,13.6,91.1,13.6,91.1z"/>
	</g>
	<g>
		<defs>
			<path id="SVGID_11_" d="M13.6,91.1c0,0-13.6,10.8-18.1,24.2c-3.3,9.9-2.3,29.9,5.4,39.3c7.6,9.2,17.1,19.6,33,20.6
				c15.9,1.1,47.3-14.5,45.9-22.4C78.5,145,13.6,91.1,13.6,91.1z"/>
		</defs>
		<clipPath id="SVGID_12_">
			<use xlink:href="#SVGID_11_"  style="overflow:visible;"/>
		</clipPath>
		<path class="st13" d="M23.9,126c-1.6,1.1-13.7,10.7-18.1,17c-4.2,6.5-4.8,23.4-4.8,23.4s-35.8-37.4-36.3-38.8
			c-0.2-1.3,14.8-29.5,17.4-32c2.4-2.7,27.1-17.4,27.1-17.4l12.2,5.1L23.9,126z"/>
	</g>
	<g>
		<defs>
			<path id="SVGID_13_" d="M13.6,91.1c0,0-13.6,10.8-18.1,24.2c-3.3,9.9-2.3,29.9,5.4,39.3c7.6,9.2,17.1,19.6,33,20.6
				c15.9,1.1,47.3-14.5,45.9-22.4C78.5,145,13.6,91.1,13.6,91.1z"/>
		</defs>
		<clipPath id="SVGID_14_">
			<use xlink:href="#SVGID_13_"  style="overflow:visible;"/>
		</clipPath>
		<path class="st14" d="M53.8,157c0,0-19.1,10.6-27.9,14.6c-8.6,4.1-15.9,3.3-15.9,3.3s16.1,20.7,23,16.9
			c6.9-3.8,37.1-23.2,37.1-23.2l10-10.7L53.8,157z"/>
	</g>
</g>
<path class="st3" d="M66.6,160.6c-1.6,0.8-5.6,8.4-20.8,6.8c-15.5-1.5-35.2-22-39.1-28.7c-4.1-6.9-11.1-29-1.6-37.2
	S66.6,160.6,66.6,160.6z"/>
<path class="st4" d="M79.6,155.8c-5.8,10.2-17.2,13.2-30.5,11.8c-4.4-0.5-8.5-2-12.6-4.4c-5.7-3.2-11.8-8.1-16.3-12.9
	c-5.2-5.3-10-11.4-14.1-18.8c-8.5-15.8-3.1-28.3,2.7-35.6c4.4-5.4,12-12.5,31.1-6.8c10.3,3.1,19.4,8.2,28.1,17.6
	c8.4,8.8,14.2,19.6,15.1,29C83.7,141.8,82.3,150.8,79.6,155.8z"/>
<path class="st5" d="M79.2,153.7c-3.3,7.3-7.3,11.1-18.6,12.6c-3.7,0.3-8.5,0.2-12.6-0.9c-3.6-1-6.8-2.2-10.4-4
	c-10.7-5.2-20.5-15.5-27.3-25.7c-4-6-5.6-11.7-6.3-15.4c-0.8-5.1-0.7-8.1,0.3-12.6c0.6-2.9,3-7.3,4.5-9.7c7.6-10.5,18.9-12,32.4-8.3
	c11.4,3.2,21.8,11.3,29.8,21.1c2.5,3.2,10.6,15.7,10.9,25.4C81.6,142.2,81.2,148.6,79.2,153.7z"/>
<g>
	<path class="st6" d="M38.6,113.6c0.9-4.1,0.1-8.5-0.4-12.7c-0.4-2.7-1.3-6.4-3.1-8.2c-0.5-0.4-1.2-0.2-1.8,0.1
		c-2.3,1.9,0.9,6,1.3,8c0.7,4.3,0.7,8.7,2.6,12.9C37.3,114.4,38.4,114.5,38.6,113.6L38.6,113.6z"/>
</g>
<g>
	<path class="st6" d="M34.6,113.1c-0.2-1.9-0.6-3.4-1.3-5.2c-0.8-1.9-1.8-3.7-2.5-5.4c-1.2-2.8-1.8-7.1-4.3-8.8
		c-1.9-1.4-4.3,0.1-3.6,2.4c0.6,3.1,2.7,6.5,4.2,9.5c0.8,1.6,1.6,3.2,2.8,4.8c1.1,1.6,2.2,2.3,3.8,3.7
		C34.2,114.1,34.7,113.8,34.6,113.1L34.6,113.1z"/>
</g>
<g>
	<path class="st6" d="M31.7,116.2c-0.9-3.7-4-5.1-6.6-7.5c-2.5-2.3-4.8-5.8-8-7.3c-2.4-1.1-4.4,2-2.7,3.9c2.4,2.4,5,5.2,7.7,7.3
		c2.8,2.3,5.6,3.3,9,4.2C31.4,117.1,31.7,116.5,31.7,116.2L31.7,116.2z"/>
</g>
<g>
	<path class="st6" d="M29.7,119.3c-3.3-2.7-7.2-4-11.2-5.3c-3-1.1-7.4-3.6-10.6-1.3c-0.7,0.5-0.8,1.5-0.2,2.1
		c2.3,2.1,6.7,2.7,9.6,3.6c4,1.3,7.6,2.3,11.8,2.1C30,120.6,30.2,119.7,29.7,119.3L29.7,119.3z"/>
</g>
<g>
	<path class="st6" d="M26.3,121.5c-3.6-0.1-7.3,0.2-11.1,0.8c-2.5,0.6-5.8,0.7-7.4,3c-0.3,0.6,0.1,1.2,0.5,1.3
		c2.3,1.5,5.7,0,8.1-0.4c3.4-0.9,6.8-1.8,9.9-3C27.7,123.1,27.3,121.6,26.3,121.5L26.3,121.5z"/>
</g>
<g>
	<path class="st6" d="M26.4,125.1c-5.1,0.2-9.4,3.1-13.5,5.4c-3.1,1.8,0,6.6,2.9,4.7c3.9-2.7,8.6-5.3,10.9-9.8
		C26.7,125.4,26.7,125.1,26.4,125.1L26.4,125.1z"/>
</g>
<g>
	<path class="st6" d="M30.3,131.2c-5.1,0.2-9.4,3.1-13.5,5.4c-3.1,1.8,0,6.6,2.9,4.7c3.9-2.7,8.6-5.3,10.9-9.8
		C30.6,131.5,30.6,131.2,30.3,131.2L30.3,131.2z"/>
</g>
<g>
	<path class="st6" d="M32.4,131.7c-2.8,0.9-4.6,4.1-6.6,6.3c-1.9,2-5.2,4.1-4.9,7.3c0,0.6,0.5,1.3,1.3,1.4c3.3,0.4,5.6-3,7.4-5.3
		c1.8-2.3,4.5-5.6,4.1-8.9C33.5,131.8,33,131.4,32.4,131.7L32.4,131.7z"/>
</g>
<g>
	<path class="st6" d="M42.5,114c2.6-2.2,4.3-4.7,5.5-7.9c0.9-2.3,2.6-5.7,2-8.2c0-0.6-1-1.2-1.6-1.1c-3,0.4-3.3,3.6-4.2,6.2
		c-1,3.6-2.5,6.6-2.7,10.5C41.5,113.9,42.1,114.2,42.5,114L42.5,114z"/>
</g>
<g>
	<path class="st6" d="M47.9,113.8c2.5,0,4.9-1.6,6.8-3c2.2-1.5,5.1-3.7,5.4-6.5c0.1-1.1-0.6-2.2-1.6-2c-3.1,0.3-5.5,3.3-7.7,5.3
		c-1.6,1.4-3.9,3.3-3.5,5.7C47.2,113.7,47.6,113.8,47.9,113.8L47.9,113.8z"/>
</g>
<g>
	<path class="st6" d="M51,118.9c2.3,0.3,4.9-0.1,7.2-0.6c2.8-0.6,5.8-1,8.3-2.5c2.3-1.3,1-4.8-1.4-4.7c-3,0.1-6.2,1.5-8.9,2.8
		c-2.1,1-4.6,1.9-5.5,4.2C50.5,118.5,50.6,118.8,51,118.9L51,118.9z"/>
</g>
<g>
	<path class="st6" d="M55.3,124.8c2,1.9,5.3,1.7,7.9,1.7c3.3,0.1,6.5,0.4,9.7-0.6c1.5-0.4,2-3.1,0.3-3.8c-3.2-1.2-6.5-1-9.9-0.7
		c-2.7,0.1-6.3,0.3-8.1,2.3C55,124.2,55.2,124.7,55.3,124.8L55.3,124.8z"/>
</g>
<g>
	<path class="st6" d="M57.3,132.1c2.2,2.6,6.4,3.3,9.7,4.5c2.7,1.1,6.9,4.3,9.9,3c0.6-0.3,1-0.8,1-1.4c-0.5-3.9-5.8-5.3-9-6.5
		c-3.2-1.2-7.9-2.9-11.3-1.1C57.4,130.7,57,131.5,57.3,132.1L57.3,132.1z"/>
</g>
<g>
	<path class="st6" d="M55.2,137.3c0.9,3.7,5.1,6.4,7.8,8.8c1.7,1.6,3.3,3,5,4.6c1.4,1.3,2.4,2.4,4.6,2.2c1.2-0.1,1.8-1,1.9-2
		c0.2-2.1-1-2.9-2.6-4.4c-1.9-1.7-3.7-3.1-5.8-4.7c-2.9-2.1-6.5-5.4-10.3-5.1C55.3,136.5,55,136.8,55.2,137.3L55.2,137.3z"/>
</g>
<g>
	<path class="st6" d="M53.7,140.8c0.8,4.2,2.3,7.8,3.8,11.8c1.3,2.9,2.5,7.7,5.7,9.2c1.1,0.4,2.2,0,2.6-1.3
		c0.9-3.5-2.2-7.7-3.9-10.5c-2.1-3.6-4.2-7-6.9-10C54.5,139.2,53.5,140,53.7,140.8L53.7,140.8z"/>
</g>
<g>
	<path class="st6" d="M45.7,143.6c0,3.7-0.1,7.3,0.2,11.1c0.1,3,0,6.9,2.9,8.4c0.8,0.4,1.8,0.2,2.4-0.4c2.3-2.5,0.8-6.2,0.2-9
		c-0.9-3.7-2.3-6.9-3.6-10.5C47.3,142.1,45.7,142.4,45.7,143.6L45.7,143.6z"/>
</g>
<g>
	<path class="st6" d="M51.3,143.4c0.5,3.9,0.6,7.5,1.3,11.5c0.6,3.1,0.6,6.9,3.9,9c0.8,0.4,1.8,0.2,2.4-0.1c2-2.2,0.3-6.3-0.6-9.1
		c-1.4-3.8-3-7.4-4.7-11.2C53,142.2,51.2,142.3,51.3,143.4L51.3,143.4z"/>
</g>
<g>
	<path class="st6" d="M43.2,140.7c-2,5.6-3.5,12.3-1.6,18.1c0.7,2.4,3.8,2.1,4.5-0.2c1.7-5.9-0.8-11.6-1.4-17.6
		C44.5,140.5,43.5,140.1,43.2,140.7L43.2,140.7z"/>
</g>
<g>
	<path class="st6" d="M36.8,137.7c-2,5.6-3.5,12.3-1.6,18.1c0.7,2.4,3.8,2.1,4.5-0.2c1.7-5.9-0.8-11.6-1.4-17.6
		C38.1,137.5,37,137.1,36.8,137.7L36.8,137.7z"/>
</g>
<g>
	<path class="st6" d="M34.6,137.2c-2.5,0.6-3.3,3-4.3,5c-1.4,2.8-3.2,5.4-3.2,8.5c-0.2,2.4,2.8,2.6,4.3,1.6c3.7-3.2,4.8-10,4.1-14.6
		C35.2,137.5,35.1,137.3,34.6,137.2L34.6,137.2z"/>
</g>
<g>
	<path class="st7" d="M43.2,118.9c4.2-2.1,9.7-6.6,11.2-11.3c0.1-0.8-0.7-1.5-1.3-1.1c-4.7,1.7-8.6,7.6-10.2,12.2
		C42.6,119,42.8,119.1,43.2,118.9L43.2,118.9z"/>
</g>
<g>
	<path class="st7" d="M47.6,122.9c1-0.8,2.9-1.3,4.3-1.8c1.5-0.7,2.6-1.3,3.9-2.1c2-1.3,4.2-2.1,4.7-4.6c0.1-0.8-0.2-1.3-1-1.5
		c-2.9-0.6-5.8,1.9-7.9,3.7c-2.2,1.7-4.2,3.3-5,6.1C46.7,123,47.3,123.3,47.6,122.9L47.6,122.9z"/>
</g>
<g>
	<path class="st7" d="M49.7,126c2.9,0.9,6.3,0.3,9-0.1c3-0.4,5.8-0.7,8.4-2.3c0.9-0.6,0.5-1.8-0.4-2.1c-2.9-0.9-6.3-0.3-9.3,0.1
		c-2.7,0.4-6,0.9-8.3,2.8C48.7,124.8,48.8,125.7,49.7,126L49.7,126z"/>
</g>
<g>
	<path class="st7" d="M40.6,115.2c2.2-0.9,3.1-3.7,4.1-5.7c1.2-2.6,2.8-5.2,3.2-8.2c0.1-0.8-0.7-1.5-1.4-1c-2.5,1.8-4.3,4.7-5.5,7.3
		c-1.1,2.1-2.6,5.1-1.3,7.4C39.9,115.1,40.3,115.2,40.6,115.2L40.6,115.2z"/>
</g>
<g>
	<path class="st7" d="M40.2,111.6c2-1.3,2.2-4.3,2.7-6.4c0.6-2.9,1.5-5.8,1.4-8.8c0-0.6-1-1.2-1.5-0.5c-2.1,2.3-3,5.5-3.7,8.4
		c-0.5,2.4-1.2,5.5,0.3,7.5C39.4,111.8,40,111.8,40.2,111.6L40.2,111.6z"/>
</g>
<g>
	<path class="st7" d="M37.3,114.1c1.5-2.3,1.5-5.5,1.7-8.2c0-2.5,1.1-5.9-0.1-8.4c-0.3-0.6-1.2-0.5-1.8-0.2c-2,1.9-1.7,5.9-1.9,8.3
		c-0.2,2.7-0.5,5.9,1.1,8.2C36.7,114.5,37.2,114.3,37.3,114.1L37.3,114.1z"/>
</g>
<g>
	<path class="st7" d="M32.4,112.6c0.6-2.3-0.5-4.8-1.2-6.8c-0.5-1.3-0.9-2.8-1.1-4.1c-0.2-1-0.1-1.8-1-2.6c-0.3-0.3-0.9-0.3-1.2,0.1
		c-1.6,1.7-0.2,4.7,0.6,6.6c1,2.4,1.9,5.2,3.5,7.2C31.8,112.9,32.3,112.7,32.4,112.6L32.4,112.6z"/>
</g>
<g>
	<path class="st7" d="M29.1,122.2c-2.3-1.5-4.6-1.3-7.2-1.2c-2.1,0.1-5.4,0.3-6.6,2.6c-0.3,0.3-0.1,0.8,0.2,1c1.7,1.6,4.8,1,6.9,0.6
		c2.5-0.3,4.8-0.5,6.6-2.3C29.5,122.7,29.6,122.3,29.1,122.2L29.1,122.2z"/>
</g>
<g>
	<path class="st7" d="M29.8,123.6c-2.6-0.9-5.9,1.8-8.1,2.9c-2.3,1.3-5.3,2.9-5.4,5.9c0,0.6,0.5,1,1.1,1.3c2.7,0.8,5.5-1.6,7.6-3.1
		c2-1.3,5.4-3.1,5.7-5.7C30.9,124.3,30.4,123.9,29.8,123.6L29.8,123.6z"/>
</g>
<g>
	<path class="st7" d="M33.9,130.8c-2.7,0.4-4.2,2.4-6.1,4.2c-2,1.9-4.5,3.7-5.1,6.5c-0.3,0.9,0.5,1.9,1.6,1.7c3-0.4,4.8-2.5,6.8-4.7
		c1.7-1.9,4-4.1,4-6.9C34.9,131.2,34.5,130.7,33.9,130.8L33.9,130.8z"/>
</g>
<g>
	<path class="st7" d="M32.8,130.4c-2.2,0-4.6,1.3-6.9,2.3c-2.5,1.2-5.1,2.2-7.1,4.4c-0.6,0.6-0.4,1.4,0.4,1.5
		c2.7,0.2,5.2-1.3,7.8-2.6c2.3-1.3,5.1-2.5,6.4-4.5C33.4,130.9,33.3,130.5,32.8,130.4L32.8,130.4z"/>
</g>
<g>
	<path class="st7" d="M38.3,137.9c-1.3,2-1.6,4.6-1.9,7.1c-0.3,2.9-1.1,5.6-0.4,8.3c0.2,0.7,1,1.2,1.5,0.5c1.5-2.3,1.7-5,2-7.9
		c0.3-2.6,0.6-5.7-0.4-7.8C39,137.4,38.4,137.5,38.3,137.9L38.3,137.9z"/>
</g>
<g>
	<path class="st7" d="M53.7,138.5c0.6,2.2,2.6,4.1,4.3,5.9c1.9,2,3.7,4.5,6.2,5.4c0.8,0.4,1.5-0.1,1.3-0.8c-0.7-2.7-2.8-4.5-4.8-6.7
		c-1.9-1.7-3.9-4.2-6.4-4.6C54,137.9,53.6,138.1,53.7,138.5L53.7,138.5z"/>
</g>
<g>
	<path class="st7" d="M38.6,132.8c-2.6,1.3-4,4.4-5.2,6.7c-1.4,2.8-2.9,5.4-2.1,8.6c0.3,0.9,1.3,1.1,2,0.7c2.8-1.5,3.8-4.8,4.9-7.6
		c1.1-2.4,2.3-5.4,1.6-8C39.7,132.9,39.1,132.6,38.6,132.8L38.6,132.8z"/>
</g>
<g>
	<path class="st7" d="M42.1,135.6c-2.1,2.3-2.6,6.3-3,9.3c-0.2,2.1-0.6,7.2,2.6,7.5c2.9,0.3,2.8-4.3,2.7-6.1
		c-0.2-3.3,0.3-7.2-0.8-10.2C43.4,135.4,42.5,135.2,42.1,135.6L42.1,135.6z"/>
</g>
<g>
	<path class="st7" d="M47.1,135.7c-1.5,2.3-1.7,5.9-1.4,8.8c0.3,3.1,0.5,7.3,3,9.6c1.3,1.1,3.3,0.4,3.7-1.2c0.9-2.9-0.7-6.4-1.6-9.2
		c-0.7-2.7-1.2-5.6-2.9-7.8C47.7,135.4,47.4,135.4,47.1,135.7L47.1,135.7z"/>
</g>
<g>
	<path class="st7" d="M52,137.9c-0.2,2.7,0.6,5.4,1.6,8c0.7,1.5,2,5,4.2,4.1c1.9-0.8,0.7-3.6,0.1-4.8c-1.5-2.5-3.1-5.1-4.5-7.6
		C52.9,136.9,52,137.3,52,137.9L52,137.9z"/>
</g>
<g>
	<path class="st7" d="M52.7,133.3c-0.3,2.9,1.6,4.9,3.5,6.6c2.6,2.1,5.5,5,9.1,4.8c0.9,0,1.5-1,1.3-1.7c-0.9-2.8-3.3-4.2-5.7-5.7
		c-2.3-1.5-4.5-3.2-6.9-4.3C53.6,132.4,52.8,132.6,52.7,133.3L52.7,133.3z"/>
</g>
<g>
	<path class="st7" d="M53,132.1c3.2,1.2,6.5,1.6,9.7,2.2c3,0.8,6.1,2.4,9.2,0.9c0.6-0.3,1-1.4,0.7-2c-1.5-3.4-5.9-3.9-9.2-4.4
		c-3.5-0.3-7.4-0.4-10.4,1.4C52.3,131,52.4,131.9,53,132.1L53,132.1z"/>
</g>
<g>
	<path class="st7" d="M29.8,113.9c-1.9-3.2-4.3-6.2-7-9c-1.9-2-4.6,1.3-2.9,3.1c1.1,1.3,2.8,1.7,4.3,2.8c1.9,1.1,3.3,2.4,4.7,4
		C29.4,115.2,30.1,114.5,29.8,113.9L29.8,113.9z"/>
</g>
<g>
	<path class="st7" d="M14.4,114.4c1.7,1.3,3.8,1.8,5.7,2.3c2,0.7,4.1,1.2,6,0.3c0.7-0.2,0.7-1.1,0.2-1.5c-1.4-1.6-3.5-2.1-5.7-2.6
		c-2-0.4-4.1-0.9-6.2-0.5C14,112.7,13.8,113.9,14.4,114.4L14.4,114.4z"/>
</g>
<g>
	<path class="st7" d="M12.4,121c2,0.7,4.1,0.3,6.1-0.1c1.9-0.2,4.2-0.5,5.8-1.9c0.6-0.6,0.2-1.2-0.2-1.6c-2-1-4.2-0.7-6.2-0.2
		c-2.1,0.4-4.2,0.8-5.8,1.9C11.5,119.5,11.5,120.7,12.4,121L12.4,121z"/>
</g>
<path class="st8" d="M30.1,117.3c1.3-4.9,6.9-6.3,14.3-1c7.6,5.2,12.3,11,9.9,15.9c-2.5,4.9-6.7,10.5-12.9,6.6
	C35.4,134.7,28.1,124.6,30.1,117.3z"/>
<path class="st9" d="M29.7,118.4c1.8-5.4,7.6-7.2,15.3-2c7.8,5.1,12.5,11,9.5,16.5c-2.9,5.5-7.6,11.8-14.1,7.8
	S27.1,126.2,29.7,118.4z"/>
<g>
	<g>
		<defs>
			<path id="SVGID_15_" d="M79.2,153.7c-3.3,7.3-7.3,11.1-18.6,12.6c-3.7,0.3-8.5,0.2-12.6-0.9c-3.6-1-6.8-2.2-10.4-4
				c-10.7-5.2-20.5-15.5-27.3-25.7c-4-6-5.6-11.7-6.3-15.4c-0.8-5.1-0.7-8.1,0.3-12.6c0.6-2.9,3-7.3,4.5-9.7
				c7.6-10.5,18.9-12,32.4-8.3c11.4,3.2,21.8,11.3,29.8,21.1c2.5,3.2,10.6,15.7,10.9,25.4C81.6,142.2,81.2,148.6,79.2,153.7z"/>
		</defs>
		<clipPath id="SVGID_16_">
			<use xlink:href="#SVGID_15_"  style="overflow:visible;"/>
		</clipPath>
		<g class="st15">
			<path class="st5" d="M70.3,111.8c5.2,11,6.3,15.7,6.7,25c0.4,8.4-4.6,17.6-11.6,22.1c-6.4,4.2-14.4,5.8-21.7,4.3
				c-9.4-1.7-17.3-7.4-26.1-10.3c-2-0.7-3.2,1.9-2.4,3.6c4.3,7.9,12.7,13,21.1,15.8c7.9,2.6,16.2,3.3,24.3,1.6
				c17.4-3.7,29.9-21.8,26.8-39.2c-0.8-4.8-2.7-9.3-4.8-13.9c-2.2-4.5-5.1-9.2-9.1-12.3c-1.4-1-6.5-4.8-6.3-2.9L70.3,111.8z"/>
		</g>
	</g>
	<g>
		<defs>
			<path id="SVGID_17_" d="M79.2,153.7c-3.3,7.3-7.3,11.1-18.6,12.6c-3.7,0.3-8.5,0.2-12.6-0.9c-3.6-1-6.8-2.2-10.4-4
				c-10.7-5.2-20.5-15.5-27.3-25.7c-4-6-5.6-11.7-6.3-15.4c-0.8-5.1-0.7-8.1,0.3-12.6c0.6-2.9,3-7.3,4.5-9.7
				c7.6-10.5,18.9-12,32.4-8.3c11.4,3.2,21.8,11.3,29.8,21.1c2.5,3.2,10.6,15.7,10.9,25.4C81.6,142.2,81.2,148.6,79.2,153.7z"/>
		</defs>
		<clipPath id="SVGID_18_">
			<use xlink:href="#SVGID_17_"  style="overflow:visible;"/>
		</clipPath>
		<g class="st16">
			<path class="st7" d="M68.2,105.9c-1.6-4.6-10.5-12.4-14.6-14.5c-4.1-2.1-8.9-3.5-13.4-4.5c-9.4-2-19.6-2.7-28.4,1.6
				C2.3,93.4-2.4,104-3.3,114.1c-0.9,9.2-0.8,21.9,8.2,27.2c2.5,1.4,5.9-1.5,4.9-4.1C7,130.4,6.4,122,6.9,114.8
				c0.5-7.5,3.6-15.6,11.3-18.4c6.6-2.6,15-2.6,21.8-1.3c3.6,0.7,7.3,1.8,10.6,3.4c3.5,1.5,7.8,3.4,11.5,4.7
				C64.4,104.2,68.2,105.9,68.2,105.9z"/>
		</g>
	</g>
</g>
<ellipse transform="matrix(0.895 -0.446 0.446 0.895 -58.3118 20.6713)" class="st12" cx="14.8" cy="134.2" rx="1.3" ry="0.6"/>
<ellipse transform="matrix(0.895 -0.446 0.446 0.895 -54.3791 26.6246)" class="st12" cx="29.4" cy="128.8" rx="1.3" ry="0.6"/>
<ellipse transform="matrix(0.895 -0.446 0.446 0.895 -53.6264 23.7054)" class="st12" cx="23.5" cy="125.8" rx="1.3" ry="0.6"/>
<ellipse transform="matrix(0.895 -0.446 0.446 0.895 -58.1387 26.4973)" class="st12" cx="27.2" cy="136.7" rx="1.3" ry="0.6"/>
<ellipse transform="matrix(0.895 -0.446 0.446 0.895 -58.119 24.0794)" class="st12" cx="22.1" cy="135.5" rx="1.3" ry="0.6"/>
<ellipse transform="matrix(0.895 -0.446 0.446 0.895 -55.0929 19.5574)" class="st12" cx="14" cy="126.8" rx="1.3" ry="0.6"/>
<ellipse transform="matrix(0.9903 -0.1387 0.1387 0.9903 -14.2572 6.3279)" class="st12" cx="38.3" cy="105.5" rx="1.1" ry="0.5"/>
<ellipse transform="matrix(0.9903 -0.1387 0.1387 0.9903 -16.6244 3.5669)" class="st12" cx="17.3" cy="121.1" rx="1.3" ry="0.6"/>
<ellipse transform="matrix(0.1131 -0.9936 0.9936 0.1131 -98.0347 113.9134)" class="st12" cx="14.8" cy="111.9" rx="0.6" ry="1.3"/>
<ellipse transform="matrix(0.6415 -0.7671 0.7671 0.6415 -76.4877 58.8551)" class="st12" cx="24.7" cy="111.3" rx="0.6" ry="1.3"/>
<ellipse transform="matrix(0.6415 -0.7671 0.7671 0.6415 -67.7328 45.8121)" class="st12" cx="15.2" cy="95.4" rx="0.6" ry="1.3"/>
<ellipse transform="matrix(0.2563 -0.9666 0.9666 0.2563 -96.7879 108.1465)" class="st12" cx="21.9" cy="117" rx="0.6" ry="1.1"/>
<ellipse transform="matrix(0.6345 -0.7729 0.7729 0.6345 -75.4408 47.3788)" class="st12" cx="12.4" cy="103.5" rx="0.6" ry="1.1"/>
<ellipse transform="matrix(0.7038 -0.7104 0.7104 0.7038 -65.0121 47.8252)" class="st12" cx="24.8" cy="101.9" rx="0.6" ry="1.1"/>
<ellipse transform="matrix(2.669761e-02 -0.9996 0.9996 2.669761e-02 -61.4906 141.9142)" class="st12" cx="42.1" cy="102.5" rx="1.3" ry="0.6"/>
<ellipse transform="matrix(0.5902 -0.8073 0.8073 0.5902 -71.9061 82.0194)" class="st12" cx="44.8" cy="111.8" rx="1.3" ry="0.6"/>
<ellipse transform="matrix(0.5902 -0.8073 0.8073 0.5902 -69.7964 87.3845)" class="st12" cx="51.2" cy="112.4" rx="1.3" ry="0.6"/>
<ellipse transform="matrix(0.1778 -0.9841 0.9841 0.1778 -72.5748 121.3885)" class="st12" cx="36.4" cy="104.1" rx="1.3" ry="0.6"/>
<ellipse transform="matrix(0.5902 -0.8073 0.8073 0.5902 -63.6418 80.9303)" class="st12" cx="47.9" cy="103.1" rx="1.3" ry="0.6"/>
<ellipse transform="matrix(0.5902 -0.8073 0.8073 0.5902 -62.2284 91.6581)" class="st12" cx="59.2" cy="107.1" rx="1.3" ry="0.6"/>
<ellipse transform="matrix(0.816 -0.5781 0.5781 0.816 -51.3342 59.1307)" class="st12" cx="67.2" cy="110.2" rx="1.3" ry="0.6"/>
<ellipse transform="matrix(0.816 -0.5781 0.5781 0.816 -54.8639 54.9175)" class="st12" cx="58.8" cy="113.6" rx="1.3" ry="0.6"/>
<ellipse transform="matrix(0.9345 -0.356 0.356 0.9345 -38.7109 31.1894)" class="st12" cx="65.4" cy="120.8" rx="1.3" ry="0.6"/>
<ellipse transform="matrix(0.9923 -0.1241 0.1241 0.9923 -15.4774 8.2368)" class="st12" cx="58.4" cy="128.4" rx="1.3" ry="0.6"/>
<ellipse transform="matrix(0.2174 -0.9761 0.9761 0.2174 -75.3861 176.7897)" class="st12" cx="72.6" cy="135.4" rx="0.6" ry="1.3"/>
<ellipse transform="matrix(0.8444 -0.5356 0.5356 0.8444 -56.2013 49.7924)" class="st12" cx="57.6" cy="121.7" rx="1.1" ry="0.6"/>
<ellipse transform="matrix(0.2086 -0.978 0.978 0.2086 -67.8843 170.0354)" class="st12" cx="71.1" cy="127" rx="0.6" ry="1.1"/>
<ellipse transform="matrix(0.2988 -0.9543 0.9543 0.2988 -85.3382 152.1867)" class="st12" cx="60.9" cy="134.2" rx="0.6" ry="1.1"/>
<ellipse transform="matrix(0.9816 -0.1907 0.1907 0.9816 -20.4042 8.2401)" class="st12" cx="32.6" cy="110.1" rx="0.6" ry="1.3"/>
<ellipse transform="matrix(0.9816 -0.1907 0.1907 0.9816 -17.6159 7.7873)" class="st12" cx="31.7" cy="95.4" rx="0.6" ry="1.3"/>
<ellipse transform="matrix(0.5525 -0.8335 0.8335 0.5525 -58.9693 81.0727)" class="st12" cx="46" cy="95.5" rx="1.3" ry="0.6"/>
<ellipse transform="matrix(0.9384 -0.3456 0.3456 0.9384 -44.998 30.1002)" class="st12" cx="61.9" cy="141.2" rx="0.6" ry="1.3"/>
<ellipse transform="matrix(0.9384 -0.3456 0.3456 0.9384 -47.213 29.176)" class="st12" cx="58.2" cy="147" rx="0.6" ry="1.3"/>
<ellipse transform="matrix(0.5229 -0.8524 0.8524 0.5229 -87.7101 129.7805)" class="st12" cx="72.1" cy="143.2" rx="0.6" ry="1.3"/>
<ellipse transform="matrix(0.6992 -0.7149 0.7149 0.6992 -88.5451 96.1302)" class="st12" cx="70" cy="153.3" rx="0.6" ry="1.3"/>
<ellipse transform="matrix(0.9384 -0.3456 0.3456 0.9384 -50.4798 29.7761)" class="st12" cx="58.3" cy="156.4" rx="0.6" ry="1.3"/>
<ellipse transform="matrix(0.9996 -2.978738e-02 2.978738e-02 0.9996 -4.7845 1.5966)" class="st12" cx="51.2" cy="161.4" rx="0.6" ry="1.3"/>
<ellipse transform="matrix(0.9996 -2.978738e-02 2.978738e-02 0.9996 -4.5164 1.6411)" class="st12" cx="52.8" cy="152.4" rx="0.6" ry="1.3"/>
<ellipse transform="matrix(0.2208 -0.9753 0.9753 0.2208 -116.4463 162.3056)" class="st12" cx="43.4" cy="154" rx="1.3" ry="0.6"/>
<ellipse transform="matrix(0.7214 -0.6925 0.6925 0.7214 -87.4333 70.6462)" class="st12" cx="44.1" cy="144" rx="1.3" ry="0.6"/>
<ellipse transform="matrix(0.7214 -0.6925 0.6925 0.7214 -95.7497 59.3359)" class="st12" cx="25.9" cy="148.7" rx="1.3" ry="0.6"/>
<ellipse transform="matrix(0.3603 -0.9328 0.9328 0.3603 -114.4579 131.7047)" class="st12" cx="38.8" cy="149.3" rx="1.1" ry="0.6"/>
<ellipse transform="matrix(0.3087 -0.9512 0.9512 0.3087 -124.0498 138.6493)" class="st12" cx="33.4" cy="154.7" rx="1.1" ry="0.6"/>
<ellipse transform="matrix(0.7772 -0.6293 0.6293 0.7772 -82.174 53.7939)" class="st12" cx="34.9" cy="142.9" rx="1.1" ry="0.6"/>
<ellipse transform="matrix(0.9321 -0.3622 0.3622 0.9321 -47.9985 28.4933)" class="st12" cx="52" cy="142.3" rx="0.6" ry="1.3"/>
</svg>
