<?xml version="1.0" encoding="utf-8"?>
<!-- Generator: Adobe Illustrator 25.2.1, SVG Export Plug-In . SVG Version: 6.00 Build 0)  -->
<svg version="1.1" id="Layer_3" xmlns="http://www.w3.org/2000/svg" xmlns:xlink="http://www.w3.org/1999/xlink" x="0px" y="0px"
	 viewBox="0 0 200 200" style="enable-background:new 0 0 200 200;" xml:space="preserve">
<style type="text/css">
	.st0{fill:#87601B;}
	.st1{clip-path:url(#SVGID_3_);}
	.st2{fill:#916724;}
	.st3{clip-path:url(#SVGID_5_);}
	.st4{fill:#664C12;}
	.st5{fill:#543C11;}
	.st6{fill:#623900;}
	.st7{fill:#4F2E00;}
</style>
<g>
	<g>
		<g>
			<path id="SVGID_1_" class="st0" d="M63.7,61.2c8.4-8.7,21.4-11,33.7-11.4c16.5-0.3,33.8,2.1,47.5,11.1
				c16.6,10.6,26.7,30.5,25.9,50c-0.4,9.8-4,20.1-11.6,26.3c-4.1,3.1-13.5,11.5-27.8,13.1c-23,2.6-48-4.2-64.8-20.4
				c-2.5-2.6-5.1-5.2-7-8.3C47.4,103.7,48.6,77.2,63.7,61.2z"/>
		</g>
		<g>
			<defs>
				<path id="SVGID_2_" d="M63.7,61.2c8.4-8.7,21.4-11,33.7-11.4c16.5-0.3,33.8,2.1,47.5,11.1c16.6,10.6,26.7,30.5,25.9,50
					c-0.4,9.8-4,20.1-11.6,26.3c-4.1,3.1-13.5,11.5-27.8,13.1c-23,2.6-48-4.2-64.8-20.4c-2.5-2.6-5.1-5.2-7-8.3
					C47.4,103.7,48.6,77.2,63.7,61.2z"/>
			</defs>
			<clipPath id="SVGID_3_">
				<use xlink:href="#SVGID_2_"  style="overflow:visible;"/>
			</clipPath>
			<g class="st1">
				<path class="st2" d="M150.4,64c0.3,2.5,1.6,5.2,2.3,7.6c0.9,2.5,2.1,4.4,3,6.9c2.2,5.2,4.9,10.4,5.9,16.2
					c2,10-2.3,20.5-8.5,28.4c-6.7,8.8-15.2,15.6-26.3,17.4c-5.4,0.9-11.1,1.4-16.6,1.4c-5.8,0.1-12.5-1.1-18.2,0.8
					c-1.8,0.7-3,3.2-1.4,4.9c3.9,3.7,9.8,5.3,14.8,6.7c5.3,1.3,11.2,3,16.8,2.7c11.1,0.1,22.2-4.2,30.7-11.1
					c17.5-14.1,30.6-37.5,22.8-60c-2.1-6.4-5.2-11.5-9.3-16.8c-3.1-4.1-8.1-9.8-14.1-8.4C151.4,61.2,150.3,62.5,150.4,64L150.4,64z"
					/>
			</g>
		</g>
		<g>
			<defs>
				<path id="SVGID_4_" d="M63.7,61.2c8.4-8.7,21.4-11,33.7-11.4c16.5-0.3,33.8,2.1,47.5,11.1c16.6,10.6,26.7,30.5,25.9,50
					c-0.4,9.8-4,20.1-11.6,26.3c-4.1,3.1-13.5,11.5-27.8,13.1c-23,2.6-48-4.2-64.8-20.4c-2.5-2.6-5.1-5.2-7-8.3
					C47.4,103.7,48.6,77.2,63.7,61.2z"/>
			</defs>
			<clipPath id="SVGID_5_">
				<use xlink:href="#SVGID_4_"  style="overflow:visible;"/>
			</clipPath>
			<g class="st3">
				<path class="st4" d="M153.4,63.7c-0.8-7.1-13.9-16.8-19.9-19.4c-6.5-2.6-13-4.3-19.9-5.3c-13.5-2-27.5-0.5-39.8,5.9
					c-12.7,6.8-20.5,18.9-25.5,32.1c-4.7,12.2-6.3,26.5-1.6,38.9c2.7,7.3,7,13.8,12.9,19.1c2.9,2.5,6.1,4.9,9.2,7.5
					c3.4,2.5,7.4,5.1,11.9,4.8c-1-0.3-2-0.6-3-0.8c1.6,0.6,3.1,1.2,4.8,1c3.5,0,6.8-1.3,6.5-4.3c-0.2-1.2-7.5-6.9-8.1-7.8
					c0.3,1-13.7-15.6-16.3-20.2c-4.9-8.5-4.9-18.5-2.5-27.8c2.7-9.7,7.8-20.7,16.5-26.4c8.8-5.9,20.1-6.6,30.4-6.1
					c6.1,0.3,11,0.8,16.9,1.9c6.2,1.2,17.6,4.9,27.4,8.8c1.2,0.4,0.1-2.2,0-3.5L153.4,63.7z"/>
			</g>
		</g>
	</g>
	<path class="st5" d="M58.6,88.7c0.8-3,1.7-7,1.4-9.5c-0.5-3.1-2.9-3.9-5.3-1.3C52,81.2,49.9,87.9,50.4,92c-0.4,1.2-0.5,2.3-0.5,3.4
		c0.1,3.8,2.9,4.5,4.9,1.4C56.6,94.7,57.9,91.4,58.6,88.7z"/>
	<path class="st6" d="M55.8,87.6c0.8-3,1.7-7,1.4-9.5c-0.5-3.1-2.9-3.9-5.3-1.3c-2.7,3.3-4.9,10.1-4.4,14.1c-0.3,1-0.5,2.3-0.4,3.2
		c0.1,3.8,2.9,4.5,4.9,1.4C53.8,93.6,55.1,90.4,55.8,87.6z"/>
	<path class="st7" d="M54.7,87.5c0.6-2,1.3-4.7,0.9-6.6c-0.4-2.3-1.9-2.8-3.5-0.9c-1.9,2.3-3.4,6.9-3,9.8c-0.2,0.8-0.3,1.5-0.3,2.1
		c0,2.6,1.9,3.1,3.4,1.1C53.2,91.6,54.1,89.5,54.7,87.5z"/>
</g>
</svg>
