<?xml version="1.0" encoding="utf-8"?>
<!-- Generator: Adobe Illustrator 25.2.1, SVG Export Plug-In . SVG Version: 6.00 Build 0)  -->
<svg version="1.1" id="Layer_3" xmlns="http://www.w3.org/2000/svg" xmlns:xlink="http://www.w3.org/1999/xlink" x="0px" y="0px"
	 viewBox="0 0 200 200" style="enable-background:new 0 0 200 200;" xml:space="preserve">
<style type="text/css">
	.st0{fill:url(#SVGID_1_);}
	.st1{fill:url(#SVGID_2_);}
	.st2{fill:#ECECEC;}
	.st3{fill:#C5C5C5;}
	.st4{fill:#EFF4F6;}
	.st5{fill:#36B9FC;}
	.st6{fill:#229ECF;}
	.st7{opacity:0.5;}
	.st8{enable-background:new    ;}
	.st9{fill:url(#SVGID_3_);}
	.st10{fill:url(#SVGID_4_);}
	.st11{fill:url(#SVGID_5_);}
	.st12{fill:url(#SVGID_6_);}
	.st13{font-family:'Roboto-Medium';}
	.st14{font-size:32.0858px;}
</style>
<g>
	<g>
		<g>
			<linearGradient id="SVGID_1_" gradientUnits="userSpaceOnUse" x1="4.5384" y1="33.7104" x2="238.2532" y2="267.4253">
				<stop  offset="0" style="stop-color:#FFFFFF"/>
				<stop  offset="1" style="stop-color:#D8D8D8"/>
			</linearGradient>
			<polygon class="st0" points="114.9,211.3 52.5,197.9 52.5,19 114.9,27.8 			"/>
			<linearGradient id="SVGID_2_" gradientUnits="userSpaceOnUse" x1="269.1687" y1="114.0608" x2="126.3589" y2="114.0608">
				<stop  offset="0" style="stop-color:#FFFFFF"/>
				<stop  offset="1" style="stop-color:#D8D8D8"/>
			</linearGradient>
			<polygon class="st1" points="114.9,27.8 163.8,16.8 163.8,189.4 114.9,211.3 			"/>
			<polygon class="st2" points="52.5,19 114.9,27.8 141.6,-6.7 78.3,-13.3 			"/>
			<polygon class="st3" points="141.6,-6.7 163.8,16.8 114.9,27.8 			"/>
			<path class="st4" d="M78.3-13.3V-22c0-2.8,2.5-5.1,5.3-4.8l54.3,5.6c2.5,0.3,4.4,2.5,4.3,5l-0.5,9.4L78.3-13.3z"/>
			<path class="st5" d="M52.5,19v54.2c4.5-1.9,10.7-3,16.6,1c18.1,12,18.2-7.9,30.6,8.3c5.5,7.2,13,4.5,15.2,0.1l0,0V27.8L52.5,19z"
				/>
			<path class="st5" d="M114.9,211.3v-58.8c-4.5,1.9-10.7,3-16.6-1c-18.1-12-18.2,7.9-30.6-8.3c-5.5-7.2-13-4.5-15.2-0.1l0,0v54.7
				L114.9,211.3z"/>
			<path class="st6" d="M114.9,27.8v54.7c1.2-2.7,5.6-11.3,13.5-7.2c9.4,4.8,12.6-1.6,17.4-7.8c4.8-6.1,9-4.2,13.2,0.6
				c1.3,1.5,3,1.6,4.7,1V16.8L114.9,27.8z"/>
			<path class="st6" d="M163.8,189.4v-52c-1.2,2.7-5.8,12.7-13.7,8.7c-9.4-4.8-12.6,1.7-17.4,7.9c-4.8,6.2-9,4.3-13.3-0.5
				c-1.3-1.5-3-1.6-4.7-1l0.2,58.8L163.8,189.4z"/>
		</g>
		<g class="st7">
			<path class="st3" d="M95.7-3.8c8.9-0.7,16.4,2.8,16.7,7.9c0.3,5.1-6.8,9.8-15.7,10.5c-8.9,0.7-16.4-2.8-16.7-7.9
				C79.7,1.6,86.7-3.1,95.7-3.8z"/>
		</g>
		<g>
			<g class="st8">
				<g>
					
						<linearGradient id="SVGID_3_" gradientUnits="userSpaceOnUse" x1="80.1435" y1="15.8422" x2="193.8562" y2="129.5549" gradientTransform="matrix(0.9968 -8.030000e-02 8.030000e-02 0.9968 3.4538 -8.5175)">
						<stop  offset="0" style="stop-color:#FFFFFF"/>
						<stop  offset="1" style="stop-color:#D8D8D8"/>
					</linearGradient>
					<path class="st9" d="M92-0.5c7.7-0.6,14.2,2.4,14.4,6.8c0.2,4.4-5.8,8.5-13.6,9.1c-7.7,0.6-14.2-2.4-14.4-6.8
						C78.2,4.2,84.3,0.2,92-0.5z"/>
				</g>
				<g>
					<linearGradient id="SVGID_4_" gradientUnits="userSpaceOnUse" x1="84.3978" y1="-1.5065" x2="110.8293" y2="1.2699">
						<stop  offset="0" style="stop-color:#FFFFFF"/>
						<stop  offset="1" style="stop-color:#D8D8D8"/>
					</linearGradient>
					<path class="st10" d="M91.2-7.8c6.8-0.5,12.5,2.1,12.7,6c0.2,3.9-5.1,7.4-11.9,8c-6.8,0.5-12.5-2.1-12.7-6
						C79-3.6,84.4-7.2,91.2-7.8z"/>
					
						<linearGradient id="SVGID_5_" gradientUnits="userSpaceOnUse" x1="81.1973" y1="8.8217" x2="175.1971" y2="102.8215" gradientTransform="matrix(0.9968 -8.030000e-02 8.030000e-02 0.9968 3.4538 -8.5175)">
						<stop  offset="0" style="stop-color:#FFFFFF"/>
						<stop  offset="1" style="stop-color:#D8D8D8"/>
					</linearGradient>
					<path class="st11" d="M90.2,5.7c-5.7,0-10.2-2.4-10.3-5.5c-0.2-3.5,5-6.8,11.4-7.3c0.6,0,1.1-0.1,1.7-0.1
						c5.7,0,10.2,2.4,10.3,5.5c0.2,3.5-4.9,6.8-11.4,7.3C91.3,5.7,90.7,5.7,90.2,5.7z"/>
				</g>
				<g>
					
						<linearGradient id="SVGID_6_" gradientUnits="userSpaceOnUse" x1="74.8292" y1="22.0104" x2="99.6369" y2="22.0104" gradientTransform="matrix(0.9968 -8.030000e-02 8.030000e-02 0.9968 3.4538 -8.5175)">
						<stop  offset="0" style="stop-color:#D8D8D8"/>
						<stop  offset="0.1525" style="stop-color:#DEDEDE"/>
						<stop  offset="0.4449" style="stop-color:#E5E5E5"/>
						<stop  offset="0.8773" style="stop-color:#DCDCDC"/>
						<stop  offset="1" style="stop-color:#D8D8D8"/>
					</linearGradient>
					<path class="st12" d="M103.9-1.9l0.7,7.5c0,0.1,0,0.1,0,0.2c0.2,3.9-5.1,7.4-11.9,8c-6.7,0.5-12.3-2.1-12.7-5.9l-0.7-7.5
						c0.4,3.8,6,6.4,12.7,5.9c6.8-0.5,12.2-4.1,11.9-8C103.9-1.8,103.9-1.9,103.9-1.9z"/>
				</g>
			</g>
		</g>
	</g>
</g>
<text transform="matrix(0.6422 0.5988 -0.6464 0.763 52.4194 99.6807)" class="st5 st13 st14">MILK</text>
</svg>
