<?xml version="1.0" encoding="utf-8"?>
<!-- Generator: Adobe Illustrator 25.2.1, SVG Export Plug-In . SVG Version: 6.00 Build 0)  -->
<svg version="1.1" id="Layer_2" xmlns="http://www.w3.org/2000/svg" xmlns:xlink="http://www.w3.org/1999/xlink" x="0px" y="0px"
	 viewBox="0 0 200 200" style="enable-background:new 0 0 200 200;" xml:space="preserve">
<style type="text/css">
	.st0{fill:#F4F4F4;}
	.st1{fill:#FFFFFF;}
	.st2{fill:url(#SVGID_1_);}
	.st3{fill:url(#SVGID_2_);}
	.st4{fill:url(#SVGID_3_);}
	.st5{fill:url(#SVGID_4_);}
	.st6{fill:#EFF3F4;}
	.st7{opacity:0.5;fill:#F0F1F2;}
	.st8{fill:url(#SVGID_5_);}
	.st9{fill:url(#SVGID_6_);}
	.st10{fill:url(#SVGID_7_);}
	.st11{fill:url(#SVGID_8_);}
	.st12{opacity:0.8;fill:url(#SVGID_9_);}
	.st13{fill:url(#SVGID_10_);}
	.st14{fill:url(#SVGID_11_);}
	.st15{fill:url(#SVGID_12_);}
	.st16{fill:url(#SVGID_13_);}
	.st17{fill:url(#SVGID_14_);}
	.st18{fill:url(#SVGID_15_);}
	.st19{opacity:0.8;fill:url(#SVGID_16_);}
	.st20{fill:url(#SVGID_17_);}
	.st21{fill:url(#SVGID_18_);}
	.st22{fill:#C8CCCE;}
	.st23{fill:url(#SVGID_19_);}
	.st24{fill:url(#SVGID_20_);}
	.st25{fill:#ECECEC;}
	.st26{fill:#C5C5C5;}
	.st27{fill:#EFF4F6;}
	.st28{fill:#36B9FC;}
	.st29{fill:#229ECF;}
	.st30{opacity:0.5;}
	.st31{enable-background:new    ;}
	.st32{fill:url(#SVGID_21_);}
	.st33{fill:url(#SVGID_22_);}
	.st34{fill:url(#SVGID_23_);}
	.st35{fill:url(#SVGID_24_);}
	.st36{clip-path:url(#SVGID_26_);}
	.st37{font-family:'Roboto-Medium';}
	.st38{font-size:32.0858px;}
	.st39{fill:url(#SVGID_27_);}
	.st40{fill:#EDEEEF;}
	.st41{fill:#F2F7F9;}
	.st42{fill:url(#SVGID_28_);}
	.st43{fill:url(#SVGID_29_);}
	.st44{fill:url(#SVGID_30_);}
	.st45{fill:url(#SVGID_31_);}
	.st46{fill:url(#SVGID_32_);}
	.st47{fill:url(#SVGID_33_);}
	.st48{fill:url(#SVGID_34_);}
</style>
<g>
	<g>
		<path class="st0" d="M45.6,32.4c-0.3,2.3-0.7,4.7-1.8,6.8c-0.5,1.1-1,2-1.7,3c-1.1,1.6-2.1,4-2.8,5.9c-1,2.5-1.8,5-2.5,7.7
			c-1.1,4.1-2.1,8.4-2.2,12.6c0,2.7-0.1,5.6,0.3,8c0.2,1.6,0.5,3.2,1.1,4.4c0.3,0.6,0.5,1.3,0.8,1.9c0.3,0.6,0.7,1,0.8,1.7
			c0.7,3.1-0.4,7.4-0.5,10.7c0,1.3,0.5,2.1,0.9,3c0.5,1.2,1.1,2.7,2.1,3.3c2.4,0.1,3.5,0.8,5.2,1.8c-2.7,2.7-5.9,0.8-8.6,3.4
			c-0.9,0.3-1.7,0.4-2.2,0c-0.8-0.6-1.1-2-1.7-2.9c-0.6-0.7-2.1-2-3.3-0.4c-0.8,1.1-0.2,2.6,0.2,3.2c0.5,0.9,1.4,1.5,2.4,1.9
			c1,0.3,2.3,0.4,3.5,0.1c9-2.4,25-8.3,29.9,4.3c1.3,1.1,3.7,1.1,5.7,0.6c1.4-0.2,2.8-0.5,4.3-0.8c1.6-0.4,2.9-0.5,4.4-0.5
			c1.1,0,2-0.1,3.2-0.3c0.6-0.1,1.1-0.3,1.7-0.4c1-0.2,2.4-0.2,3.4-0.2c1.9,0,3.6,0.1,5.4-0.2c0.3-0.1,0.6-0.1,0.9-0.2
			c1.8-0.5,2.9-1.2,4.1-2c0.7-0.5,1.3-1,2.3-1.2c1.4-0.4,2.9-0.6,4.3-0.9c1.4-0.4,2.8-0.6,4.1-1c1-0.2,1.7-0.8,2.5-1.3
			c0.3-0.2,0.6-0.3,0.8-0.5c0.2-0.2,0.4-0.5,0.5-0.7c0.5-0.5,0.9-1.2,1.3-1.9c0.3-0.6,0.8-1,1.1-1.6c0.4-0.6,0.5-1.2,0.3-2.2
			c-0.1-0.5-0.2-0.9-0.3-1.4c-0.1-0.5-0.4-0.9-0.3-1.4c0-0.4,0.2-0.9,0.2-1.3c0.1-0.5,0.2-1,0.5-1.3c0.3-0.4,0.4-0.7,0.5-1.2
			c0.3-0.9,0.8-1.9,0.3-3c-0.2-0.4-0.6-1.2-1-1.1c-0.6,0.1-0.9,1-1,1.5c-0.5,1.4-1.1,2.8-0.8,4.4c0.3,1.9,1.3,3.5,1.3,5.2
			c-0.1,1.4-0.3,2.5-1,3.5c-0.4,0.6-0.9,1.1-1.4,1.6c-0.7,0.7-1.3,1.4-2.3,1.9c-1.5,0.8-4.7,0.2-6.6-0.1c-0.6-0.1-2.8-0.5-2.4-1.2
			c0.4-0.7,1.9-0.7,2.8-0.7c1.1,0,2.2,0.1,3-0.4c0.9-0.6,0.8-1.4-0.4-1.8c-0.9-0.3-1.6-0.3-2.4,0c-1,0.3-1.8,0.9-2.9,1.2
			c-1.1,0.4-2.2,0.6-3.4,0.8c-0.8,0.1-1.7,0.4-2.5,0.5c-0.9,0.1-1.5-0.1-2.5-0.3c-0.6,0.7-1.4,1.1-2.1,1.5c-0.9,0.5-1.3,0.5-2.4,0.7
			c-1.4,0.2-3.4,0.9-4.7,0.7c-3-1.4-2-4.1,0.2-6.2c1.1-1.1,2.8-1.8,4.9-2.3c0.7-0.3,1.5-0.7,2.3-1c0.8-0.3,1.6-0.5,2.4-0.6
			c1.6-0.1,3.3,0.4,4.9,0.1c1.3-0.2,2.6-1.3,2.4-2.5c-1.8-0.3-3.7,0.5-5.4,1c-1.2,0.3-2.4,0.7-3.5,1.1c-1.2,0.4-2.3,0.9-3.5,1.4
			c-6.6,3-12.2,13.4-19.2,11.2c-6.1-1.9-14.2-5.6-21.1-6.5c-2.2-0.3-1.7-3.2-1.5-5.1c-0.1-1,0-2.1,0.2-3.2c0.2-1.1,0.5-2.3,0.8-3.5
			c0.8-2.9,2.3-5.1,3.7-7.7c0.9-1.8,1.5-3.6,2.1-5.5c1.5-4.8,4.2-7.5,7.5-9.5c1.1-0.6,2.3-1.2,3.5-1.7c6.1,0.6,7.4-8.1,12.7-9.8
			c3,0.1,5,4.4,8.5,2.6c2.3-1.6,0.9-5.4,0.7-8.1c7.8,0.5,13.5,6.1,20.8,8.1c1.1,0.3,2.1,0.5,3.1,0.6c2,0.2,3.7,0,5-0.9
			c9.9-5.6-7-22.2-6.1-30.1c2-17.7,19.2,0.2,24,15.9c0.6-0.6,1.7-1.7,2.2-2.3c-3.9-10.7-16.9-16.1-18.8-27.6
			c-0.3-0.9-0.9-1.5-1.2-2.3c-0.8-1.8-1.4-3.6-2.7-5.1c-2.4-2.7-5-3.6-8-4c-3.6-0.4-7.5,0-11,1C92.3,3.7,91.1,4,90,4.4
			c-3.4,2.8-8,3.1-10.3,1.7C69.2,2.5,58.5,7.3,55,18.2c-4.2-2.1-6.2,4.1-7.8,7.6c-0.5,1.1-0.8,2.2-1.1,3.3
			C45.9,30.1,45.7,31.3,45.6,32.4z"/>
		<path class="st1" d="M63.8,104.6c-3.7-1.5-7.8-1.7-12.8-0.4c-3.9,1-8.8-1.8-6.3-7.1c0.7-0.8,0.6-2.1,0.6-2.9
			c0-0.8,0.2-1.6,0.2-2.4c0-0.6,0-1.4,0.2-2c0.1-0.5,0.3-1.2,0.6-1.7c0.3-0.5,0.8-1,1.2-1.4c0.4-0.4,0.7-0.9,1-1.4
			c0.4-0.6,0.8-1,1.2-1.5c0.3-0.4,0.6-1.1,0.8-1.5c0.1-0.2,0.1-0.3,0.2-0.5c0.2-0.4,0.5-0.8,0.7-1.1c0.4-0.6,0.9-1.2,1.2-1.8
			c0.7-6,4.4-9.2,8.2-12.2c-5,3.4-6.8,10.4-8.1,15.5c-0.3,1.2-0.9,2.1-1.4,3.3c-0.5,1-0.9,2.1-1.1,3.1c-0.2,1.2-0.5,2.5-1,3.6
			c-4.6,10,7.9,10.2,13.7,11.2C63.2,103.8,64,103.8,63.8,104.6z"/>
		<path class="st1" d="M80.3,6.6c1.8,4.2,6.5,0.7,9.1-0.7c1.4-0.7,3.2-0.9,4.8-0.3c1,0.4,1.5,0.2,2.5,0c0.6-0.1,1.3-0.2,1.9,0.2
			c0.6,0.4,1.3,0.8,1.9,1.3c0.9,0.7,1.5,1.6,2.3,2.4c0.8,0.8,1.8,1.9,2.9,1.7c1.1-0.2,1.5-1.8,2.9-1.4c1.4,0.4,2.3,1.1,2.9,2.7
			c0.3,0.8,0.3,1.6,0.6,2.4c-0.6,10-13.5,9.1-5.6,18c2.7,4.4,4.6,6.8,5.9,12.7c0.1,2.9,2.3,0.3,2.9,1.1c0,2.9,2.7,8.1-1.1,8.3
			c-2.7,0.2-5.1-2-7.6-3.5c-0.8-0.5-1.6-0.9-2.5-1c-5.5,4.1-10.2-0.4-16-2.6c-2.4-0.9-3.2,5.8-3.2,5.8c-9.1-2.1-12.2,6.6-18.9,9.3
			c-1.1,0.7-2.2,1.3-3.3,1.9c-1.1,0.6-2.3,1.2-3.5,1.6c-1.1,0.4-2.1,3.2-3.1,4.8c1.3-1,2.5-1.9,3.8-2.8c1.3-0.8,2.7-1.6,4-2.3
			c4.9-2.8,11.3-5,15.1-10.3c0.9,4.5,6.4,8.2,9.7,3.9c1.6-3.4-4.5-6.9-0.5-9.3c5.7-3.4,8.2,7.9,15.1,8.2c1.7-0.7,3.3-0.4,4.8,0.2
			s3,1.5,4.3,1.9c8,2.3,11.4-9.8,7.9-15.5c-3.6-5.9-11.3-10.9-11.2-17.6c-0.8-2.3,3.8-6.6,6.4-4.9c9.3,2.4,13.9,12.5,16,21
			c1,1.9,2.1,2.3,2.6,0.9c1.2-0.8,1.7-2.5,1.4-4.7c-0.4-2.4-0.9-4.3-2.3-6c-5.9-4.9-13.3-11.8-15.6-18.8c-0.2-0.6-0.4-1-0.4-1.7
			c0-0.6-0.2-1-0.3-1.6c-0.1-0.7,0-1.7,0-2.4c0.1-0.8,0.6-1.2,1.2-1.2c0.4,0,1,0.2,1.3-0.2c0.2-0.4,0.2-1.5,0.1-2
			c-0.1-0.8-0.5-1.7-0.9-2.4c-0.2-0.4-0.4-0.9-0.8-1.2c-0.5-0.5-1.3-0.8-1.9-1.1c-0.6-0.4-1.3-0.7-1.9-0.5c-0.4,0.1-0.5,0-0.9,0
			c-0.2,0-0.3,0.2-0.5,0.2c-0.4,0-0.7-0.2-1.1-0.3c-1.4-0.3-2.5-1-3.8-1.8c-0.3-0.2-0.8-0.6-1.1-0.6c-0.4-0.1-1.1,0.2-1.5,0.2
			c-1.3,0.2-2.5,0.8-3.7,1.3c-1.6,0.7-3.3,1.1-4.9,1.8c-0.9,0.4-1.9,0.8-2.8,1.3c-0.4,0.2-0.7,0.4-1.1,0.6C91.9,3.8,91.4,4,91,4.1
			c-0.8,0.2-1.7,0.3-2.5,0.5c-2.9,0.6-4.3,1.2-6.9,1.7C81.2,6.4,80.6,6.5,80.3,6.6z"/>
		<path class="st1" d="M74.1,5.1c-11-1.4-17.1,8.1-17.9,17.8c-3-2.7-6.4,0.8-7.8,3.6c-0.4,0.8-0.7,1.6-1.1,2.3
			c-0.2,0.4-0.4,0.8-0.6,1.3c-0.2,0.5-0.2,0.9-0.4,1.3c-0.3,0.9-0.6,1.8-0.9,2.8c-0.1,0.6-0.3,1.2-0.4,1.8c-0.1,0.6-0.2,1.4-0.3,1.9
			c-0.2,0.7-0.7,1.4-1,2c0.7-1.4,0.6-3,0.9-4.4c0.3-1.3,0.6-2.6,0.9-3.9c0.3-1.3,0.6-2.6,0.6-3.8c0-0.5-0.1-0.9,0-1.4
			c0.1-0.8,0.5-1.6,1.1-2.2c6-7.2,12.2-19.8,21.6-20.1C70.1,4.1,72,4.5,74.1,5.1z"/>
		<path class="st1" d="M71.4,108.4c4,1.2,7.3-1.9,10.8-1.5c0.2,0.1,0.2,0.2,0.3,0.3c0.3,0.2,0.7,0.3,1.2,0.2c0.7,0,1.5-0.1,2.2-0.3
			c0.8-0.3,1.5-0.7,2.2-1c0.6-0.3,1.1-0.5,1.7-0.8c0.4-0.2,0.7-0.4,1.1-0.6c0.8-0.4,1.3-0.5,2.1-0.4c0.5,0,1,0.1,1.5,0
			c0.6-0.1,1.2-0.4,1.8-0.4c1.1,0,2.1,0.5,3,0.9c0.6,0.2,1.2,0.3,1.9,0.3c0.7,0,1.3-0.2,1.9-0.1c0.4,0.1,0.8,0.3,0.9,0.6
			c0.1,0.4-0.6,0.5-1.1,0.6c-1,0.3-1.9,0.6-2.9,0.8c-0.7,0.2-1.3,0.3-1.8,0.7c-0.4,0.3-0.3,0.8-0.5,1.1c-0.2,0.3-0.5,0.5-0.8,0.7
			c-1,0.7-2.2,0.9-3.7,1.2c0.1,0,0.2,0,0.3,0.1c0.3-0.1,0.6-0.1,0.9-0.2c1.8-0.5,2.9-1.2,4.1-2c0.7-0.5,1.3-1,2.3-1.2
			c1.4-0.4,2.9-0.6,4.3-0.9c1.4-0.4,2.8-0.6,4.1-1c1-0.2,1.7-0.8,2.5-1.3c0.3-0.2,0.6-0.3,0.8-0.5c0.2-0.2,0.4-0.5,0.5-0.7
			c0.5-0.5,0.9-1.2,1.3-1.9c0.3-0.6,0.8-1,1.1-1.6c0.4-0.6,0.5-1.2,0.3-2.2c-0.1-0.5-0.2-0.9-0.3-1.4c-0.1-0.5-0.4-0.9-0.3-1.4
			c0-0.4,0.2-0.9,0.2-1.3c0.1-0.5,0.2-1,0.5-1.3c0.3-0.4,0.4-0.7,0.5-1.2c0.3-0.9,0.8-1.9,0.3-3c-0.2-0.4-0.6-1.2-1-1.1
			c-0.6,0.1-0.9,1-1,1.5c-0.5,1.4-1.1,2.8-0.8,4.4c0.3,1.9,1.3,3.5,1.3,5.2c-0.1,1.4-0.3,2.5-1,3.5c-0.4,0.6-0.9,1.1-1.4,1.6
			c-0.7,0.7-1.3,1.4-2.3,1.9c-1.5,0.8-4.7,0.2-6.6-0.1c-0.6-0.1-2.8-0.5-2.4-1.2c0.4-0.7,1.9-0.7,2.8-0.7c1.1,0,2.2,0.1,3-0.4
			c0.9-0.6,0.8-1.4-0.4-1.8c-0.9-0.3-1.6-0.3-2.4,0c-1,0.3-1.8,0.9-2.9,1.2c-1.1,0.4-2.2,0.6-3.4,0.8c-0.8,0.1-1.7,0.4-2.5,0.5
			c-0.9,0.1-1.5-0.1-2.5-0.3c-0.6,0.7-1.4,1.1-2.1,1.5c-0.9,0.5-1.3,0.5-2.4,0.7c-1.4,0.2-3.4,0.9-4.7,0.7c-3-1.4-2-4.1,0.2-6.2
			c1.1-1.1,2.8-1.8,4.9-2.3c0.7-0.3,1.5-0.7,2.3-1c0.8-0.3,1.6-0.5,2.4-0.6c1.6-0.1,3.3,0.4,4.9,0.1c1.3-0.2,2.6-1.3,2.4-2.5
			c-1.8-0.3-3.7,0.5-5.4,1c-1.2,0.3-2.4,0.7-3.5,1.1c-1.2,0.4-2.3,0.9-3.5,1.4c-6.7,2-8.2,8-14.3,11
			C73.2,108.1,72.2,108.3,71.4,108.4z"/>
		<path class="st1" d="M109.2,26c1.6,7.5,8.7,12.8,12.1,16.5c3.8,7.2,0.2,17.1-6.8,20c-1.8,0.7-3.7-1.1-5.7-2.6
			c-1-0.8-2-1.5-3.2-1.8c-1.1-0.3-2.3-0.2-3.6,0.7c1.1-0.6,2.4-0.9,3.8-1.1c1.4-0.1,2.9-0.1,4.4-0.1c6,0.2,11.4,0.9,7.7-8.4
			c-2.7-6.8-6.6-13.7-10.7-19.8C106.9,28.1,106.9,25.5,109.2,26z"/>
		<path class="st1" d="M126.7,54.1c-0.6,0.8-0.6,0.8-1.1,1.4c0-1.4-0.9-4.7,2-3.1L126.7,54.1z"/>
		<path class="st1" d="M137.2,51c0.2,0.8,0.4,1.1,0.4,1.8c0,0.5,0,1,0,1.5c0,1.4,0,2.7-0.1,4c-0.1,1-0.1,2-0.3,2.9
			c-0.1,0.5-0.2,1.2-0.4,1.5c-0.1,0.1-0.2,0.2-0.3,0.3c-0.1,0.1-0.1,0.3-0.2,0.5c-0.2,0.2-0.5,0.3-0.8,0.3c-1.5-2.6,0.1-4,0.7-6.2
			c0.2-0.3,0.5-0.4,0.6-0.9c0.4-1.1,0-2.5-0.3-3.8C136.5,52,136.3,50.3,137.2,51z"/>
		<path class="st1" d="M119.3,91.4c0.8,0.2,1.8,0.6,2.6,0.7c0.6,0.1,1,0,1.5-0.4c0.5-0.5,0.8-2.1-0.2-2.5c-0.9-0.5-1.7,0.2-2.5,0.5
			c-0.3,0.1-0.6,0.2-0.9,0.4C119.5,90.5,119.6,90.8,119.3,91.4z"/>
		<path class="st1" d="M124.3,87.1c-0.2-0.3-0.4-0.6-0.4-1c0.1-0.1,0.1-0.2,0.3-0.3c0.2-0.1,0.2,0,0.4,0.2c0.3,0.2,0.4,0.4,0.4,0.8
			L124.3,87.1z"/>
		<path class="st1" d="M130,48.9c0.1-0.9,2.4-3.2-0.9-4.3c0.5,0.9,0,1.5,0.6,2.9L130,48.9z"/>
		<path class="st1" d="M108.2,97.6c0.2,0.1,1.2,0.5,1.3,0c0-0.2-0.3-0.7-0.4-0.8c-0.4-0.3-0.9,0.3-1,0.6L108.2,97.6z"/>
		<path class="st1" d="M105.8-1.3c-0.5-0.2-1.1-0.4-1.6-0.4c-0.3,0-0.6,0.1-0.9,0.2c-0.6,0-1.1,0.2-1.7,0.3c-1,0.2-2,0.7-2.9,1.2
			c-0.8,0.4-1.9,0.6-2.9,0.4c-0.5-0.1-1.1-0.2-1.6-0.3c-0.6-0.1-1.2-0.2-1.7-0.2c-1.4,0.1-2.4,0.9-3.3,2c-0.6,0.7-0.4,1.7-1,2.4
			c-1.6-0.6-2.9-0.3-3.1,1.9c1.3-0.3,1.3-0.3,2.9-0.8c0.5-0.2,0.9-0.3,1.4-0.5c0.4-0.2,0.8-0.2,1.2-0.2c0.9-0.1,1.8-0.3,2.8-0.5
			c0.5-0.1,1-0.2,1.5-0.4c0.8-0.2,1.4-0.7,2.1-1c1.1-0.5,2.3-0.9,3.4-1.4c1-0.4,2.1-0.6,3.1-1.1c0.4-0.2,0.7-0.4,1-0.8
			C104.6-0.8,104.8-0.9,105.8-1.3z"/>
	</g>
	<path class="st1" d="M42.9,106.7c-0.5,0-1,0.1-1.5,0.2c-0.5,0.1-1,0.4-1.6,0.4c-0.4,0-0.8,0-1.2,0c-0.2,0-0.4,0-0.6,0
		c-0.2,0-0.4-0.1-0.7-0.1c-0.3,0-0.7,0-1,0.1c-0.3,0.1-0.6,0.4-0.9,0.6c-0.2,0.1-0.3,0.2-0.5,0.3c-0.2,0.1-0.4,0.1-0.6,0.1
		c-0.5,0.1-0.9,0-1.4-0.2c-0.2-0.1-0.5-0.2-0.7-0.3c-0.1-0.1-0.3-0.4-0.3-0.6c-0.2-0.4-0.2-0.9-0.5-1.2c-0.2-0.3-0.3-0.6-0.3-0.9
		c0-0.2,0.3-0.6,0.4-0.7c0.4-0.3,1.1,0.3,1.4,0.6c0,0,0,0.1,0,0.1c0,0.1,0.1,0.1,0.2,0.1c0.1,0.1,0.2,0.2,0.3,0.4
		c0.2,0.2,0.4,0.5,0.6,0.8c0.2,0.2,0.6,0.5,0.8,0.5c0.2,0.1,0.6,0,0.8,0.1c0.3,0,0.6-0.1,0.9-0.1c0.3-0.1,0.7,0,0.7-0.3
		c-0.6,0.1-1.3,0.4-2,0.1c-0.3-0.1-0.6-0.3-0.8-0.5c-0.2-0.2-0.4-0.5-0.5-0.7c-0.1-0.2-0.2-0.2-0.2-0.4c0-0.2-0.1-0.3-0.2-0.5
		c0-0.2,0-0.3,0-0.5c-0.1-0.2-0.3-0.5-0.4-0.6c-0.3-0.4-0.7-0.9-1.1-1.2c-0.3-0.2-0.6-0.2-1-0.1c-0.5,0.2-0.9,0.5-1.1,0.9
		c-0.1,0.1-0.1,0.3-0.1,0.4c-0.1,0.2-0.2,0.4-0.4,0.6c-0.3,0.4-0.7,0.6-0.9,1c-0.4,0.6-0.4,1.4-0.2,2c0.2,0.8,0.8,1.3,1.6,1.5
		c0.4,0.1,0.7,0,1.1,0c0.5,0,1,0.1,1.5,0.1c0.6,0.1,1.2,0.2,1.9,0.3c0.7,0.1,1.3,0,2,0c0.5,0,0.8-0.1,1.3-0.2
		c0.4-0.1,0.8-0.3,1.2-0.5c0.3-0.1,0.6-0.2,0.9-0.3c0.2-0.1,0.5-0.2,0.7-0.3c0.2-0.1,0.4-0.3,0.6-0.4c0.2-0.1,0.3-0.1,0.5-0.2
		c0.1,0,0.2-0.1,0.4-0.2C42.2,106.9,42.4,106.9,42.9,106.7z"/>
	<path class="st1" d="M54.4,103.7c0.5-0.1,1-0.2,1.6-0.3c0.2,0,0.4,0,0.6-0.1c0.1,0,0.4-0.1,0.4-0.2c0.2-0.2,0-0.5-0.2-0.6
		c-0.2-0.2-0.4-0.2-0.7-0.4c0.1,0.1,0.4,0.1,0.6,0.1c0.4,0.1,0.8,0.1,1.2,0.2c0.5,0.1,1,0,1.4,0c0.6,0,1.2-0.1,1.8-0.1
		c0.9,0,1.8,0.1,2.6,0.6c0.6,0.4,1.2,0.6,1.3,1.4c0,0.2,0.1,0.6-0.2,0.7c-0.1,0.1-0.4,0-0.5,0c-0.8,0-1.4-0.2-2.1-0.5
		c-0.6-0.3-1.3-0.6-2-0.7c-0.7,0-1.4-0.2-2.1-0.4c-0.4-0.1-0.8-0.1-1.2-0.1C56,103.6,55.1,103.5,54.4,103.7z"/>
	<path class="st1" d="M66.6,104.6c0.3,0.2,1.2,0.6,1,1.1c-0.2,0.5-0.8,0.1-1.1-0.1c-0.3-0.2-0.6-0.2-0.7-0.6
		c-0.1-0.4,0.1-0.4,0.5-0.4L66.6,104.6z"/>
	<path class="st1" d="M29.5,101.8c0.3-0.8,0.8-1.4,1.2-2.2c0.3-0.6,0.1-1.1-0.2-1.6c-0.3-0.4-0.9-0.7-1.4-0.6
		c-0.5,0.1-1,0.3-1.4,0.7c-0.4,0.3-0.9,0.6-1.1,1c-0.3,0.6-0.3,1.2,0,1.8c0.3,0.5,0.5,0.9,1,1.2C28.2,102.3,29,101.9,29.5,101.8z"/>
	<path class="st1" d="M30.4,94.8c0.3-0.3,0.9-0.7,0.7-1.3c-0.1-0.2-0.3-0.3-0.5-0.3c-0.2,0.1-0.3,0.3-0.5,0.5
		C30,93.9,30,93.9,30,94.1c0,0.1,0.1,0.2,0.2,0.3L30.4,94.8z"/>
	<path class="st1" d="M33.8,59.9c0.6-1.4,1.6-3.1,1-4.7c-0.2-0.5-0.5-2.6-1.5-1.8c-0.3,0.2-0.1,0.5-0.1,0.8c0.1,0.6,0.2,1.3,0.2,1.9
		c0,0.4-0.2,0.8-0.2,1.2c0,0.3,0.2,0.6,0.3,0.9C33.7,58.6,33.9,59.3,33.8,59.9z"/>
	<path class="st1" d="M36.5,48.7c-0.7-0.4-1-0.4-1.2-1.1c-0.1-0.4-0.2-0.7-0.1-1.2c0-0.4,0-0.8,0.5-0.9c0.3,0,0.6,0.3,0.9,0.5
		c0.1,0.1,0.3,0.2,0.4,0.3c0.1,0.2,0,0.4,0.1,0.7L36.5,48.7z"/>
	<path class="st1" d="M46.3,28.5c0.4-1,0.6-1.9,1-2.9c0.2-0.4,0.3-0.7,0.6-1c0.3-0.4,0.4-0.8,0.7-1.2c0.3-0.4,0.5-0.9,0.9-1.4
		c0.4-0.6,0.8-1.1,1.1-1.7c0.6-0.9,1.4-1.6,2.2-2.3c0.9-0.8,1.4-1.7,2-2.7c0.3-0.5,0.5-0.9,0.9-1.4c0.3-0.4,0.5-0.8,0.7-1.3
		c0.2-0.4,0.4-0.8,0.7-1.1c0.1-0.1,0.3-0.3,0.3-0.4c0-0.1,0-0.2,0.1-0.3c0.2-0.5,0.8-0.9,1-1.4c-0.5-0.2-1.4,1.4-1.7,1.7
		c-0.4,0.5-0.7,0.9-1.1,1.4c-0.4,0.6-1,1-1.5,1.4c-0.4,0.4-0.6,0.8-1.1,1.1c-0.5,0.3-0.9,0.3-1.5,0.4c-1.4,0.3-2.6,1-2.6,2.6
		c0,0.6,0.1,1.2,0.1,1.7c-0.1,0.6-0.6,1-0.9,1.5c-0.4,0.5-0.8,1-1.2,1.5c-0.4,0.5-0.6,1-0.9,1.6c-0.4,0.9-0.8,1.7-0.6,2.7
		c0,0.2,0.1,0.5,0.2,0.6c0.1,0.1,0.2,0.2,0.3,0.4C46.2,28.7,45.8,29.7,46.3,28.5z"/>
	
		<linearGradient id="SVGID_1_" gradientUnits="userSpaceOnUse" x1="-733.8676" y1="52.106" x2="-733.8676" y2="36.8189" gradientTransform="matrix(-0.7891 -0.6143 -0.6143 0.7891 -448.5055 -430.6529)">
		<stop  offset="0" style="stop-color:#D7D6E2"/>
		<stop  offset="0.3348" style="stop-color:#DDDBE3"/>
		<stop  offset="1" style="stop-color:#E0DDE3"/>
	</linearGradient>
	<path class="st2" d="M119.8,58.4c-3.7,3.9-4.9,5.3-9.7,1.9c-4.8-3.4-6.6-1.7-9.6-3.1c-3-1.5-4.3-4.3-8.4-6.2c-4-1.9-5.3,1-5.3,1
		s3.3-2.6,6-0.1c2.7,2.4,5.9,6.1,8.8,7.1c2.9,1,2.8-1,5.2,0c2.4,1.1,4,3.2,6.8,3.9C116.3,63.8,119.8,58.4,119.8,58.4z"/>
	
		<linearGradient id="SVGID_2_" gradientUnits="userSpaceOnUse" x1="-716.7123" y1="79.4069" x2="-716.7123" y2="58.9768" gradientTransform="matrix(-0.7891 -0.6143 -0.6143 0.7891 -448.5055 -430.6529)">
		<stop  offset="0" style="stop-color:#D7D6E2"/>
		<stop  offset="0.3348" style="stop-color:#DDDBE3"/>
		<stop  offset="1" style="stop-color:#E0DDE3"/>
	</linearGradient>
	<path class="st3" d="M87.2,61.1c-3.9,2.5-7.6-4.3-8.1-5.7c-0.5-1.4-4.9,5.2-9.3,7.4c-4.4,2.2-8,4.5-8,4.5s2.8-1.7,7.3-3.2
		c4.5-1.6,8.2-6.7,9.1-7.1C79.1,56.5,81.9,64.6,87.2,61.1z"/>
	
		<linearGradient id="SVGID_3_" gradientUnits="userSpaceOnUse" x1="-736.2255" y1="19.4013" x2="-736.2255" y2="9.5723" gradientTransform="matrix(-0.7891 -0.6143 -0.6143 0.7891 -448.5055 -430.6529)">
		<stop  offset="0" style="stop-color:#D7D6E2"/>
		<stop  offset="0.3348" style="stop-color:#DDDBE3"/>
		<stop  offset="1" style="stop-color:#E0DDE3"/>
	</linearGradient>
	<path class="st4" d="M135,43.4c-1.1,2.2-3.1,1.3-5.6-6.7c-2.5-8-8.1-12.5-12.4-13.9c-4.3-1.4-6.5,1.4-6.5,1.4s3.1-3.1,7.9-0.2
		c4.8,2.9,8.7,7,10.7,14C131.1,45,132.2,49.2,135,43.4z"/>
	
		<linearGradient id="SVGID_4_" gradientUnits="userSpaceOnUse" x1="-673.6702" y1="71.7398" x2="-673.6702" y2="51.6088" gradientTransform="matrix(-0.7891 -0.6143 -0.6143 0.7891 -448.5055 -430.6529)">
		<stop  offset="0" style="stop-color:#D7D6E2"/>
		<stop  offset="0.3348" style="stop-color:#DDDBE3"/>
		<stop  offset="1" style="stop-color:#E0DDE3"/>
	</linearGradient>
	<path class="st5" d="M42.5,41.7c-1.4,2.2,2.6-2.7,3-5.2c0.3-2.4,0-5.7,0.7-7.5c0.6-1.9-0.3-2.1,0-3.7c0.3-1.6,2-3.9,2-3.9
		s-1.1,0.8-2.1,3.1s-0.9,3.2-0.4,4c0.5,0.8-0.7,2.4-1,5.5C44.4,37,44.2,38.9,42.5,41.7z"/>
</g>
<g>
	<path class="st1" d="M58.3,63.3c-1.1,1.3-1.9,2.2-2.7,3.8c-0.3,0.7-0.6,1.5-1,2.2c-1,1.6-2.6,2.7-4,3.9c-0.7,0.6-1.5,1.2-2.1,1.9
		c-0.2,0.3-0.3,0.6-0.7,0.9c-0.4,0.3-0.8,0.7-1.2,1.1c-0.7,0.6-1.3,1.2-2.1,1.3c-0.8,0.2-1.7,0.1-2.5,0.3c-1.2,0.3-2.4,0.9-3.5,0.5
		c-0.2-0.1-0.6-0.3-0.7-0.5c-0.2-0.2-0.5-0.5-0.7-0.7c-0.1-0.2-0.1-0.5-0.2-0.6c-0.1-0.1-0.3-0.1-0.3-0.2c-0.3-0.5-0.2-0.6-0.3-1.2
		c0-0.9-0.3-1.9-0.5-2.7c-0.3-1.1-0.6-2.1-1-3.1c-0.2-0.4-0.3-1-0.5-1.3c-0.2-0.3-0.4-0.4-0.7-0.8c-0.4-0.6-1-1.8-1.1-2.6
		c-0.1-0.4-0.1-0.9-0.2-1.4c-0.1-0.6,0-1,0-1.6c0.1-1.4,0-2.8,0-4.3c0-2.5,0.7-5,0.3-7.4c-0.2-0.9-0.2-1.9-0.4-2.8
		c-0.2-0.7-0.3-2.1-0.8-2.5c-0.7,1-0.8,3-1.1,4.3c-0.3,1-0.8,1.9-1.2,2.9c-0.3,1-0.7,1.8-1.2,2.6c-0.7,1.2-1.5,2.7-2.1,4
		c-1,2.3-1.1,5.4-0.9,7.8c0.1,1.6,0.3,3.3,0.8,4.8c0.3,1,0.4,2.1,0.6,3.2c0.3,1.7,1,3.2,1.4,4.9c0.7,2.7,1.7,5.3,2.3,8
		c0.5,2.2,0.7,4.4,1.3,6.6c0.4,1.5,0.5,3.3,1.8,3.9c0.7,0.3,1.3,0.2,2-0.5c2-2,3.8-4.6,5.5-6.8c0.8-1,1.6-1.8,2.4-2.9
		c1-1.4,2-2.8,3.1-4c1-1.1,2-2.1,2.9-3.3c0.6-0.8,1-1.7,1.5-2.6c0.4-0.9,1.1-1.6,1.5-2.5c0.4-0.9,0.6-1.8,0.9-2.7
		c0.3-0.9,0.4-1.8,0.7-2.6C54.2,69.2,55.1,68.1,58.3,63.3z"/>
	<path class="st6" d="M93.4,6.7c-1.3-0.6-2.4-1.2-3.8-0.9c-0.8,0.2-1.6,0.8-2.4,1c-0.6,0.1-1.3,0.5-1.9,0.5c-0.9,0-1.4-0.2-2.3,0.6
		c-1.7,1.3-2.6,2.7-3.6,4.8c-1.2,1.6-2.4,3.5-3.7,3.8C61.7,19,51,32.6,44.4,49.4c-0.6,1.1-0.8,2.3-1.2,3.5c-0.4,1-1.2,2-1.9,2.8
		c-1.5,1.9-3.1,3.7-4.4,5.8c-1.9,3.1-4.1,7-4.3,10.9c-0.1,2.8-0.1,5.6-0.1,8.4c0,2-0.2,3.8-0.1,5.7c0.2,1.9,0.9,4.7,2.2,5.7
		c1.4,1.1,3.1,0.9,4.6-0.5c0.5-0.4,0.7-0.9,1.1-1.4c0.4-0.5,0.9-0.7,1.2-1.2c0.7-0.9,1.3-2.2,1.9-3.1c0.7-1.1,1.3-2.4,2.2-3.1
		c0.9-0.8,1.9-1.6,2.8-2.4c2-1.8,2.7-5.2,4.4-7.5c1.8-2.4,2.8-5.1,4.2-7.7c0.7-1.4,1.6-2.2,2.6-3.4c0.6-0.7,1-1.6,1.8-1.9
		c0.1,1-1.3,2-1.8,2.7c-0.3,0.4-0.5,0.8-0.9,1.2c-0.7,0.6-0.7,0.8-1.1,1.5c-1.2,1.9-3.6,4.1-3.9,6.7c-0.3,2.5,1.2,3.7,1.6,5.7
		c0.4,2-2.1,4.8-3.3,5.9c-1.2,1.1-2.2,2.2-3.6,2.5c-1.7,0.5-2.4,2.6-4,3.5c-1.2,0.6-1.4,0.8-2.2,2.4c-0.7,1.3-1.3,2.5-1.9,3.8
		c-2.4,4.7-6.2,11.1-10.5,7.9c-3-2.2,0.1-8.3-1-11.9c-0.4-1.1-1-2.2-1.4-3.3c-0.5-1.3-1.3-2.1-1.9-3.4c-0.5-1.2-1.2-2.4-1.4-3.8
		c-0.6-2.9-3-4-4.6-5.9c-2.5-3.1-3.6-7.7-4.1-12.3c-0.2-2-0.3-4.2,0.3-6.4c0.9-3.1,2.4-6,3.8-8.7c2.2-4.1,4.7-7.9,6.7-12
		c0.7-1.4,1.3-2.8,1.9-4.3C33.5,11,47.2-0.3,62-9.3c7.3-4,11.1,5,15.7,9.2C78.4,0.1,79.4-0.8,80-1c1.3-0.2,2.2,0.8,3,1.8
		c1.4,1.8,2.4,0.7,3.9-1.1C88-1.6,90.1-3,90-5.3c-0.1-2-2-2.4-3.3-2.5c-0.9,0-2.7-0.1-2.3-1.9c0.2-0.8,0.7-1.1,1.3-1.4
		c1.8-1,3.4-0.9,5.1-2.4c1.2-1.1,2.1-1.9,3.5-1.5c1.2,0.4,2.1,1.7,3,2.7c2.3,2.3,5.1,2.7,8,3c4,0.5,8.7-1.1,12,2
		c1.2,1.1,1.7,1.3,2,3.5c0.1,1.5,0,3.6-0.5,5.1c-0.5,1.2-1.1,2.4-1.6,3.6C116.9,6,116.4,7,115.7,8c-0.6,1-3.4,5.1-3.5,2.2
		c0-1,0.6-2.5,0.4-3.4c-0.2-1.2-1.4-1.6-2.2-2.1c-1.1-0.7-2.3-1.7-3.7-1.1c-1.2,0.6-2.4,1.2-3.7,1.7c-1.1,0.5-2.2,1.1-3.3,1.6
		c-1,0.5-1.6,1.3-2.5,1.9C95.3,10,94.1,9.1,93.4,6.7z"/>
	<path class="st1" d="M64.5,55.5c-0.6-0.5-1.3-0.7-2-0.7c-0.5,0.8-1.5,2.1-0.6,2.9c0.2,0.2,0.6,0.2,0.9,0.2c0.6,0,0.9-0.3,1.3-1.1
		L64.5,55.5z"/>
	<path class="st1" d="M69.5,48.7c1.5-0.4,2.5-0.6,3.6-2.3c0.5-0.8,1.1-1.6,1.5-2.4c0.2-0.4,0.2-0.9,0.4-1.3c0.1-0.3,0.2-0.6,0.3-0.9
		c0.3-0.7,0.4-1.3,0.6-2c-0.7-1.1-2.9,2.6-3.4,3.1c-0.7,0.9-1.5,1.4-2.2,2.4c-0.5,0.8-1,2.4-0.5,3.2L69.5,48.7z"/>
	<path class="st1" d="M60.4,60.4c-1.7,1.9-2.9,3.9-4.3,6.3c-0.9,1.5-1.8,3.2-2.7,4.5c-0.4,0.6-0.9,1-1.1,1.8
		c-0.3,0.8-0.2,1.8-0.2,2.6c0,0.6,0.1,1.2,0.2,1.8c0.1,0.8,0.6,1.2,0.5,2.1c-0.1,1.3-1,2.1-1.8,2.7c-0.6,0.4-1,0.5-1.6,1
		c-0.2,0.2-0.5,0.4-0.7,0.6c-0.3,0.3-0.5,0.6-0.7,0.9c-0.5,0.6-0.7,0.5-1.3,0.6c-0.6,0.1-0.8,0.3-1.3,0.6c-0.2,0.1-0.4,0.1-0.6,0.2
		c-0.3,0.2-0.5,0.4-0.7,0.7c-0.5,0.7-1,1.1-1.5,1.7c0,0.1-0.1,0.4-0.2,0.5c-0.2,0.2-0.5,0.4-0.7,0.6c-0.5,0.4-1,0.8-1.4,1.3
		c-0.7,0.8-1.2,2.1-1.7,3c-0.2,0.4-0.5,1.1-0.8,1.4c-0.2,0.2-0.5,0.4-0.7,0.6c-0.2,0.3-0.1,0.5-0.3,0.7c-0.4,0.5-0.8,0.7-1.2,1.3
		c-0.4,0.7-0.3,1-0.5,1.7c-0.1,0.7-0.6,2.2-1.2,2.6c-0.8,0.7-2,0.7-2.7,0.1c-0.8-0.7-0.6-1.8-0.3-3.1c0.2-0.7,0.4-1,0.7-1.6
		c0.1-0.3,0.1-0.6,0.3-0.8c0.1-0.2,0.3-0.5,0.4-0.7c0.1-0.2,0.1-0.5,0.1-0.7c0.1-0.3,0.4-0.6,0.4-1c0-0.1-0.1-0.5-0.1-0.6
		c0-0.7,0-1.3,0-2c0-0.7,0-1.5,0.1-2.2c0.3-1.3,0.9-2.6,1.3-3.9c0.3-0.9,0.3-1.6,0.5-2.4c0.1-0.4,0.2-0.6,0.3-1
		c0.1-0.5-0.1-1-0.1-1.6c-0.1-1.7-0.4-3.3-0.5-5c-0.2-1.7-0.7-3.2-0.6-5c0-1.9,0.7-4.1,1.4-5.8c0.8-2,2.2-3.6,3.4-5
		c0.5-0.6,0.8-1.1,1.4-1.6c0.6-0.6,1.3-1.1,1.9-1.7c1.1-1,2-2.8,2.7-4.3c0.4-0.9,0.8-1.8,1.2-2.7c5.9-19.2,20.2-29.3,33.8-35.8
		c0.9-1.8,1.9-3.4,3-5.1c0.3-0.5,0.8-1.2,1.4-1.6c0.6-0.3,1.5-0.4,2.1-0.4c0.7,0,1.3,0.1,2.1-0.3c0.9-0.4,1.7-0.8,2.6-1
		c1-0.2,1.8-0.3,2.4,0.5c0.6,0.7,1,1.5,1.4,2.4c0.3,0.6,0.5,1.4,1.2,1.4c0.3,0,0.3-0.1,0.6-0.3c0.4-0.2,0.9-0.5,1.3-0.8
		c0.8-0.5,1.8-2.9,2.8-2.5c-0.7,0.7-1.3,0.2-2.1,0.5c-0.9,0.3-1.9,0.6-2.4-0.4c-0.3-0.4-0.3-1.1-0.6-1.5c-0.4-0.5-0.8-0.6-1.3-0.8
		c-0.8-0.3-1.9-0.4-2.5-1.2C90.9,2.2,91,1,89.9,1c-1.3,0-2.6,1.3-3.4,2.8c-0.5,0.9-1,2.1-1.8,2.6c-0.7,0.4-1.5,0.6-2.1,0.6
		c-0.7-0.1-1.4,0-2.1,0.6c-3,5-8.3,10.4-11.6,7.6c-5.3-4.4-11.3,2.6-13.5,7c-4.2,9.5-9.7,17.6-12.2,27.4c-0.1,0.6-0.3,1-0.5,1.5
		c-0.1,0.5-0.1,0.9-0.2,1.4c-0.2,1.4-1.3,2.4-2,3.4c-1.1,1.5-2.2,2.7-3.5,3.9c-1.6,1.4-2.8,2.7-3.7,4.8c-0.5,1.2-0.8,2.3-1.2,3.5
		c-0.5,1.5-1.3,2.7-1.8,4.1c-0.6,1.7-1,3.3-1.2,5.1c-0.1,1.4-0.3,2.8-0.5,4.2c-0.4,2.3,0.5,4.1,0.7,6.2c0.2,1.5,0.3,2.9,0.6,4.3
		c0.3,1.2,0.8,2.3,0.3,3.7c-0.4,1-1,1.8-1.6,2.6c-0.5,0.7-0.6,1.3-0.7,2.2c-0.3,2.5,0.6,4.7,2.3,5.4c1.5,0.6,2.9,0.9,4.5-0.1
		c1.5-0.9,2.1-2.6,2.5-4.5c0.6-2.5,2.4-3.7,4-5.1c0.8-0.8,1.1-1.5,1.6-2.6c0.5-1.1,1.2-2.2,2-3.1c1.1-1.2,2.3-1.7,3.6-2.2
		c1.5-0.6,2.9-1.6,4.2-3c1.3-1.5,3.8-4.8,3.6-7.2c-0.1-1.4-1.5-1.8-1.6-3.1c-0.1-0.7,0.3-1.5,0.4-2.3c0.2-0.9,0.3-1.7,0.5-2.7
		c0.4-1.3,1-2.5,1.4-3.8c0.2-0.8,0.4-1.2,0.8-1.9c0.6-0.9,1.1-1.8,1.7-2.7C60,61,60.5,60.4,60.4,60.4z"/>
	<path class="st1" d="M100.2,27.8c-0.3-1,1.2-1.4,1.6-1.4c0.9,0,1.1,0.1,2-0.7c0.7-0.6,1.7-1.2,2.3-2.1c0.5-0.7,0.8-2,1.3-2.9
		c0.7-1.4,1.7-2.9,2.6-4.1c1-1.3,2.3-3.5,2.8-5.5c0.2-0.8,0.3-1.6,0.1-2.4c-0.3-1.3-1.5-2.6-2.3-3.3c-0.8-0.7-1.7-1.1-2.7-1.1
		c-2-0.1-4.5,1.8-6.4,2.8c-0.9,0.4-1.6,0.7-2.6,0.8c-0.4,0-0.8,0.2-1.2,0.1c-0.4,0-0.9-0.2-1-0.3c1.7-0.8,3.1-1.6,4.6-2.9
		c0.7-0.6,1.5-1.6,2.3-2c0.5-0.3,1.3-0.3,1.8-0.4c0.9-0.2,2-0.8,2.9-0.7c0.4,0,0.7,0.4,1.1,0.4c0.3,0,0.6-0.2,0.9-0.2
		c0.7,0,1.4,0.1,2.1,0.1c1.5,0,3.2-1,4.4-2.6c0.2-0.3,0.3-0.7,0.6-1.1c0.3-0.4,0.8-0.6,1.1-0.9c0.8-0.7,1.5-1.3,2.4-1.1
		c1,0.2,3.2,1.3,2.9,3c-0.2,0.9-1.2,1.7-1.5,2.6c-0.3,0.9-0.3,1.7-0.3,2.5c0,1.6-0.4,3.9-1.6,5c-0.6,0.6-1.2,0.3-1.8,0.4
		c-0.6,0.1-1.4,0.2-2,0.5c-0.5,0.3-1.2,1.5-1.6,2.1c-0.7,1.1-0.9,2.7-1.2,4c-0.7,2.4-1.6,7-3.6,8.5c-0.6,0.5-1.3,0.7-1.9,1
		c-0.6,0.3-1.3,0.5-2,0.6c-0.6,0.1-1.2,0.2-1.8,0.4c-0.9,0.3-1.8,1-2.7,1.3C101.6,28.3,100.4,28.3,100.2,27.8z"/>
	<path class="st1" d="M30,83c-0.8,2.4-1.2,5.2-2.9,3.9c-0.7-0.5-0.9-1.2-1.2-2.2c-0.2-0.5-0.3-1.2-0.5-1.6c-0.2-0.3-0.5-0.2-0.7-0.6
		c-0.5-0.9-0.5-2.4-1-3.3c-0.3-0.5-1-0.9-1.3-1.4c-0.6-1.1-0.4-1.7-0.5-2.8c-0.2-2.1-2-2.2-3.3-2.5c-1.6-0.4-2.6-1.1-2.4-3.5
		c0.1-2,0.1-3.7,0-5.7c-0.1-1.8-0.4-3.6-0.4-5.4c0-1,0.1-1.7,0.4-2.7c0.2-0.8,0.9-1.6,1-2.4c-0.6,2-1.6,3.6-2.2,5.5
		c-0.3,1-0.5,1.7-0.6,2.8c-0.1,1.2,0.2,2.2,0.3,3.2c0.1,2.1,1.4-0.1,1.1,2.1c-0.4,3.2,2.1,9.6,4,11c1.7,1.2,0.1,1.8,1.5,3.3
		c0.7,0.8,0.9,1.5,1.4,2.7c0.5,1.2,1.4,2.1,2.2,2.9c0.8,0.7,1.5,2,2.1,3c0.6,1.1,0.1,3,0.1,4.3c0,1.5,0.2,2.9,0.4,4.4
		c0.1,0.7,0.3,1.2,0.3,1.9c0,0.8-0.2,1.7,0.2,2.2c0.7-0.3,0.7-2.3,0.8-3c0.3-1.5,2.5-2.2,2.7-3.7C31.8,92,31.2,86.4,30,83z"/>
	<path class="st1" d="M71.7-7C54.4-12.4,36,13.7,27.3,34.1c-0.8,1.3-1.4,2.7-2.2,4c-0.4,0.7-0.5,1.5-0.9,2.2
		c-0.3,0.6-0.7,1.3-1.1,1.9c-0.3,0.7-0.7,1.4-1.1,2c-0.3,0.3-0.7,1.2-1,1.3c0.6-0.3,1-1.4,1.3-2.1c0.6-1.1,1-2.3,1.6-3.4
		c0.8-1.5,1.4-3.1,2.2-4.5C34,13.9,49.7-7.4,67.3-9.6C68.4-9.2,69.8-8.4,71.7-7z"/>
	<path class="st1" d="M100.2,30.2c-0.3,1.2-0.5,2.4-1.5,2.8c-0.6,0.3-1.1-0.1-1.3-0.7c-0.3-0.7,0.1-1.2,0.5-1.8c0.3-0.4,2-1.7,2.2-1
		L100.2,30.2z"/>
	<path class="st1" d="M96.5,38.6c0,0.4,0.1,1,0,1.4c0,0.1-0.1,0.2-0.1,0.3c-0.2,0.5-0.3,0.8-0.6,1.2c-0.4,0.4-1,1.3-1.5,1.3
		c-0.3,0-0.4-0.4-0.2-0.8c0.2-0.4,0.5-0.7,0.7-1c0.4-0.5,0.9-1.1,1.3-1.6L96.5,38.6z"/>
	<path class="st1" d="M70.6,15.6c-5.9,0.7-12.5-1.7-14.9,7.1c-2.7,9.8-9.7,16-12.4,25.8c5.4-13,10-36.1,24.1-36
		C68.6,13.2,69.5,14.3,70.6,15.6z"/>
	<path class="st7" d="M78.9,9.9c-5,7.5-7.9,5.7-10,1.7s-9.3,0.8-14.8,9.8S48.1,40,44,46.3c-4.1,6.3-4.1,8.1-9.2,11.5
		c-5.1,3.4-5.6,11.7-3.8,16.6c1.7,4.9,3.4,5.3,0.5,11.4c-3,6.1-3.4,14.4-3.4,14.4s-1-4.1-0.9-7.2c0.1-3.1,1-3.6-2.2-7s-2.1-4.5-4-6
		c-1.9-1.5-4.8-3.3-5.8-5.7c-1-2.5-1.7-9.1,0.6-16.7c2.3-7.6,5.7-9.5,14.5-27.2C39,12.9,55.4-10.9,64.6-7.3
		c9.1,3.6,9.6,11.7,13.1,11.7c3.5,0,2.8,3.1,2.8,3.1L78.9,9.9z"/>
	
		<linearGradient id="SVGID_5_" gradientUnits="userSpaceOnUse" x1="-457.5775" y1="-116.8329" x2="-457.5775" y2="-143.7282" gradientTransform="matrix(-0.8447 0.5353 -0.5353 -0.8447 -403.6935 169.7057)">
		<stop  offset="0" style="stop-color:#D7D6E2"/>
		<stop  offset="0.3348" style="stop-color:#DDDBE3"/>
		<stop  offset="1" style="stop-color:#E0DDE3"/>
	</linearGradient>
	<path class="st8" d="M78.3,10.7c-5.7,6.3-7.5,5.5-9.4,2.9c-2-2.5-6.3-2.6-12.7,3.8c-6.4,6.4-6.3,17.1-11.2,26.3
		c-5,9.2-5.3,10.1-9.8,13.1c-4.4,3-4.6,7.8-4.6,7.8s1.1-3.1,3.9-6c2.8-2.9,4.2-2,7.2-7.9c3-5.9,5.4-10.1,6.6-14.1
		c1.2-4.1,2.8-14.8,11.7-21.6c5.5-4.2,5.5-2,9.9,0.5C74.2,18.1,78.3,10.7,78.3,10.7z"/>
	
		<linearGradient id="SVGID_6_" gradientUnits="userSpaceOnUse" x1="-519.065" y1="-129.5441" x2="-519.065" y2="-135.2999" gradientTransform="matrix(-0.8447 0.5353 -0.5353 -0.8447 -403.6935 169.7057)">
		<stop  offset="0" style="stop-color:#D7D6E2"/>
		<stop  offset="0.3348" style="stop-color:#DDDBE3"/>
		<stop  offset="1" style="stop-color:#E0DDE3"/>
	</linearGradient>
	<path class="st9" d="M114.9,1.2c-3.4,1.8-4.7-0.5-9.1-0.3c-4.3,0.2-4.6,5-8.8,6.2c4.7-1.4,6.5-4.3,9.2-4.9
		C109,1.6,111.2,3.5,114.9,1.2z"/>
	
		<linearGradient id="SVGID_7_" gradientUnits="userSpaceOnUse" x1="-511.3795" y1="-142.6785" x2="-511.3795" y2="-151.0495" gradientTransform="matrix(-0.8447 0.5353 -0.5353 -0.8447 -403.6935 169.7057)">
		<stop  offset="0" style="stop-color:#D7D6E2"/>
		<stop  offset="0.3348" style="stop-color:#DDDBE3"/>
		<stop  offset="1" style="stop-color:#E0DDE3"/>
	</linearGradient>
	<path class="st10" d="M100.2,27.8c-0.3-1,1.2-1.4,1.6-1.4c0.9,0,1.1,0.1,2-0.7c0.7-0.6,1.7-1.2,2.3-2.1c0.5-0.7,0.8-2,1.3-2.9
		c0.7-1.4,1.7-2.9,2.6-4.1c1-1.3,2.3-3.5,2.8-5.5c-0.7,4.6-2.1,5.3-3.9,7.9c-2,2.9-2.1,4.5-3.3,6.1c-1.2,1.6-2.1,1.7-3.1,1.4
		C101.5,26.5,100.2,27.8,100.2,27.8z"/>
	
		<linearGradient id="SVGID_8_" gradientUnits="userSpaceOnUse" x1="-426.2127" y1="-160.603" x2="-426.2127" y2="-171.6185" gradientTransform="matrix(-0.8447 0.5353 -0.5353 -0.8447 -403.6935 169.7057)">
		<stop  offset="0" style="stop-color:#D7D6E2"/>
		<stop  offset="0.3348" style="stop-color:#DDDBE3"/>
		<stop  offset="1" style="stop-color:#E0DDE3"/>
	</linearGradient>
	<path class="st11" d="M54.7,69.4c-5.1,5.6-2.6,6.9-5.2,10.9c-2.6,4-4,3.3-6.6,7.2c-2.7,4-2.5,4-4.8,5.4c-2.3,1.4-4.1-1.4-4.1-1.4
		s2.3,2.6,5.4-0.4c3.1-3,2.5-5.1,5.1-7.9c2.6-2.8,4.7-3.1,5.6-5.1S49.5,74.8,54.7,69.4z"/>
	
		<radialGradient id="SVGID_9_" cx="114.0711" cy="-397.5161" r="8.9596" gradientTransform="matrix(1.5224 -2.1995 0.5819 0.6824 97.2714 546.3344)" gradientUnits="userSpaceOnUse">
		<stop  offset="0" style="stop-color:#E0DDE3"/>
		<stop  offset="9.874189e-02" style="stop-color:#E4E2E7"/>
		<stop  offset="0.6447" style="stop-color:#F8F7F9"/>
		<stop  offset="1" style="stop-color:#FFFFFF"/>
	</radialGradient>
	<path class="st12" d="M53.3,4.5c2.9,3.4-0.9,14.9-8.4,25.8c-7.5,10.9-16,17-18.9,13.6c-2.9-3.4,0.9-14.9,8.4-25.8
		C41.9,7.2,50.4,1.1,53.3,4.5z"/>
	
		<linearGradient id="SVGID_10_" gradientUnits="userSpaceOnUse" x1="-417.9921" y1="-164.2291" x2="-400.2818" y2="-164.2291" gradientTransform="matrix(-0.8447 0.5353 -0.5353 -0.8447 -403.6935 169.7057)">
		<stop  offset="0" style="stop-color:#D7D6E2"/>
		<stop  offset="0.3348" style="stop-color:#DDDBE3"/>
		<stop  offset="1" style="stop-color:#E0DDE3"/>
	</linearGradient>
	<path class="st13" d="M24.9,86.2c-2-3.1,2.5,4.7,4.3,2.1c1.8-2.6,3-4.1,3.2-6.9c0.2-2.8-1.3-6.5-1.3-6.5s2.1,4.9,2.2,7.1
		c0.1,2.3-1.3,4.1-3.6,10c-2.2,5.9-1.2,11.9-1.2,11.9s-0.7-1-0.9-4.1c-0.2-3.1-0.1-5.1-1.2-8C25.2,88.9,26.4,88.3,24.9,86.2z"/>
	
		<linearGradient id="SVGID_11_" gradientUnits="userSpaceOnUse" x1="-496.8332" y1="-110.0734" x2="-424.5818" y2="-110.0734" gradientTransform="matrix(-0.8447 0.5353 -0.5353 -0.8447 -403.6935 169.7057)">
		<stop  offset="0" style="stop-color:#D7D6E2"/>
		<stop  offset="0.3348" style="stop-color:#DDDBE3"/>
		<stop  offset="1" style="stop-color:#E0DDE3"/>
	</linearGradient>
	<path class="st14" d="M75.4-2.5c-5.5-5-8.5-9.5-15.6-4.5c-7.2,5-13.5,9.3-21.6,19.1c-8.1,9.8-8.4,17.1-12.4,24.2s-5.4,9.6-5.4,9.6
		s3.9-6.7,5.6-11.2c1.6-4.5,5-15.2,12.7-25.1C46.5-0.4,56.2-6.6,63.1-9.6C69.9-12.6,70.5-8.8,75.4-2.5z"/>
</g>
<g>
	<path class="st1" d="M64,3.4c1-1.1,1.6-1.8,2.2-3.2c0.3-0.6,0.5-1.3,0.9-1.8c0.8-1.3,2.2-2.2,3.3-3.2c0.6-0.5,1.2-1,1.7-1.6
		c0.2-0.2,0.3-0.5,0.6-0.7c0.3-0.3,0.7-0.6,1-0.9c0.6-0.5,1.1-1,1.7-1.1c0.7-0.2,1.4-0.1,2.1-0.3c1-0.2,2-0.8,2.9-0.4
		c0.2,0.1,0.5,0.3,0.6,0.4c0.2,0.2,0.4,0.4,0.6,0.6c0.1,0.1,0.1,0.4,0.2,0.5C81.9-8.1,82-8.1,82.1-8c0.2,0.4,0.2,0.5,0.2,1
		c0,0.7,0.2,1.6,0.4,2.2c0.2,0.9,0.4,1.7,0.8,2.6c0.1,0.3,0.3,0.8,0.4,1.1c0.2,0.3,0.4,0.3,0.6,0.6C84.8,0,85.3,1,85.4,1.7
		c0.1,0.4,0.1,0.8,0.1,1.2c0.1,0.5,0,0.8,0,1.3c-0.1,1.2,0,2.3-0.1,3.5c0,2.1-0.6,4.1-0.3,6.2c0.1,0.8,0.2,1.6,0.3,2.3
		c0.1,0.6,0.2,1.7,0.6,2.1c0.6-0.8,0.7-2.5,1-3.5c0.2-0.8,0.7-1.6,1-2.4c0.3-0.8,0.6-1.5,1-2.2c0.6-1,1.3-2.2,1.8-3.3
		c0.8-1.9,0.9-4.5,0.8-6.5c-0.1-1.4-0.2-2.7-0.6-4c-0.3-0.9-0.3-1.8-0.5-2.7c-0.2-1.4-0.8-2.7-1.1-4.1c-0.5-2.3-1.4-4.4-1.9-6.7
		c-0.4-1.8-0.6-3.7-1-5.5c-0.3-1.3-0.4-2.7-1.5-3.2c-0.6-0.3-1.1-0.2-1.7,0.4c-1.6,1.6-3.1,3.8-4.6,5.6c-0.7,0.8-1.4,1.5-2,2.4
		c-0.9,1.1-1.7,2.3-2.6,3.3c-0.8,0.9-1.6,1.8-2.4,2.7c-0.5,0.7-0.9,1.4-1.2,2.2c-0.4,0.7-0.9,1.3-1.3,2.1c-0.3,0.7-0.5,1.5-0.8,2.2
		c-0.3,0.7-0.3,1.5-0.6,2.2C67.5-1.4,66.7-0.5,64,3.4z"/>
	<path class="st6" d="M34.6,50.3c1.1,0.5,2,1,3.1,0.8c0.7-0.2,1.3-0.7,2-0.8c0.5-0.1,1.1-0.4,1.6-0.4c0.8,0,1.2,0.1,1.9-0.5
		c1.4-1.1,2.1-2.2,3-3.9c1-1.3,2-2.9,3.1-3.1C61,40.2,70,29,75.6,15.1c0.5-0.9,0.7-1.9,1-2.9c0.3-0.8,1-1.7,1.6-2.3
		c1.2-1.6,2.6-3,3.7-4.8c1.6-2.5,3.4-5.8,3.6-9c0.1-2.3,0.1-4.6,0.2-6.9c0-1.6,0.2-3.2,0.1-4.8c-0.1-1.6-0.8-3.9-1.8-4.7
		c-1.1-0.9-2.6-0.7-3.8,0.4c-0.4,0.4-0.6,0.8-0.9,1.1c-0.3,0.4-0.7,0.6-1,1c-0.5,0.7-1.1,1.8-1.6,2.6c-0.6,0.9-1.1,2-1.8,2.6
		c-0.8,0.7-1.5,1.3-2.3,2c-1.7,1.5-2.3,4.3-3.7,6.2c-1.5,2-2.3,4.2-3.5,6.4C64.7,3,64,3.7,63.2,4.7c-0.5,0.6-0.8,1.3-1.5,1.5
		c-0.1-0.8,1.1-1.7,1.5-2.2c0.2-0.3,0.4-0.7,0.8-1c0.6-0.5,0.6-0.7,0.9-1.3c1-1.6,3-3.4,3.3-5.6c0.2-2.1-1-3.1-1.3-4.7
		c-0.3-1.6,1.7-4,2.8-4.9c1-0.9,1.9-1.8,3-2.1c1.4-0.4,2-2.2,3.3-2.9c1-0.5,1.2-0.7,1.9-1.9c0.6-1.1,1.1-2.1,1.6-3.2
		c2-3.9,5.2-9.2,8.8-6.5c2.5,1.9-0.1,6.9,0.8,9.9c0.3,1,0.8,1.8,1.2,2.7c0.4,1.1,1.1,1.7,1.6,2.8c0.4,1,0.9,2,1.2,3.2
		c0.5,2.4,2.5,3.4,3.8,4.9c2.1,2.6,3,6.4,3.4,10.2c0.2,1.7,0.2,3.5-0.3,5.3c-0.8,2.5-2,4.9-3.2,7.2c-1.8,3.4-3.9,6.5-5.6,10
		c-0.6,1.1-1.1,2.3-1.6,3.6c-4.9,17.3-16.4,26.6-28.7,34c-6,3.2-9.2-4.2-12.9-7.7c-0.6-0.1-1.5,0.6-2,0.7c-1.1,0.1-1.8-0.7-2.5-1.5
		c-1.1-1.5-2-0.6-3.2,0.9c-0.9,1.1-2.7,2.3-2.6,4.2c0.1,1.6,1.6,2,2.7,2.1c0.7,0,2.2,0.1,1.9,1.6c-0.2,0.6-0.6,0.9-1.1,1.2
		c-1.5,0.8-2.8,0.7-4.2,2c-1,0.9-1.8,1.6-2.9,1.2c-1-0.3-1.7-1.4-2.5-2.2c-1.9-2-4.2-2.3-6.7-2.6c-3.3-0.4-7.2,0.8-10-1.7
		c-1-0.9-1.4-1.1-1.6-2.9c-0.1-1.2,0-2.9,0.5-4.2c0.4-1,0.9-2,1.3-3c0.3-0.9,0.8-1.8,1.3-2.6c0.5-0.8,2.9-4.2,2.9-1.8
		c0,0.8-0.5,2.1-0.3,2.9c0.2,1,1.1,1.4,1.8,1.8c1,0.6,1.9,1.5,3.1,0.9c1-0.5,2-1,3.1-1.4c0.9-0.4,1.9-0.9,2.8-1.3
		c0.8-0.4,1.4-1,2.1-1.5C33,47.5,34,48.3,34.6,50.3z"/>
	<path class="st1" d="M58.9,9.9c0.5,0.4,1.1,0.6,1.7,0.6c0.4-0.7,1.3-1.8,0.5-2.4C60.9,8,60.6,8,60.3,8c-0.5,0-0.7,0.2-1.1,0.9
		L58.9,9.9z"/>
	<path class="st1" d="M54.7,15.5c-1.2,0.3-2.1,0.4-3,1.9c-0.4,0.6-1,1.3-1.2,2c-0.1,0.3-0.2,0.7-0.3,1.1c-0.1,0.2-0.2,0.5-0.3,0.7
		c-0.2,0.6-0.4,1-0.5,1.7c0.6,0.9,2.5-2.1,2.9-2.6c0.6-0.7,1.3-1.2,1.8-2c0.5-0.7,0.9-2,0.4-2.6L54.7,15.5z"/>
	<path class="st1" d="M62.4,5.9c1.4-1.6,2.4-3.3,3.6-5.2c0.7-1.2,1.5-2.6,2.2-3.7c0.4-0.5,0.7-0.8,0.9-1.5c0.2-0.7,0.2-1.5,0.2-2.1
		c0-0.5-0.1-1-0.1-1.5c-0.1-0.7-0.5-1-0.4-1.7c0.1-1,0.8-1.8,1.5-2.2c0.5-0.3,0.8-0.4,1.3-0.8c0.2-0.2,0.4-0.4,0.6-0.5
		c0.3-0.2,0.4-0.5,0.6-0.7c0.4-0.5,0.6-0.4,1.1-0.5c0.5,0,0.6-0.2,1.1-0.5c0.1-0.1,0.3-0.1,0.5-0.2c0.2-0.1,0.4-0.4,0.6-0.6
		c0.4-0.5,0.8-0.9,1.3-1.4c0,0,0.1-0.3,0.2-0.4c0.1-0.2,0.4-0.4,0.6-0.5c0.4-0.3,0.8-0.7,1.2-1c0.6-0.6,1-1.7,1.4-2.5
		c0.2-0.4,0.4-0.9,0.7-1.2c0.2-0.2,0.4-0.3,0.5-0.5c0.2-0.2,0.1-0.4,0.3-0.6c0.3-0.5,0.7-0.6,1-1.1c0.3-0.6,0.3-0.8,0.4-1.4
		c0.1-0.6,0.5-1.8,1-2.2c0.7-0.6,1.7-0.5,2.2-0.1c0.7,0.6,0.5,1.5,0.3,2.5c-0.1,0.6-0.4,0.8-0.6,1.3c-0.1,0.2-0.1,0.5-0.2,0.7
		c-0.1,0.2-0.2,0.4-0.3,0.6c-0.1,0.2-0.1,0.4-0.1,0.6c-0.1,0.3-0.3,0.5-0.4,0.8c0,0.1,0.1,0.4,0.1,0.5c0,0.6,0,1,0,1.6
		c0,0.6,0,1.2-0.1,1.8c-0.2,1.1-0.8,2.1-1.1,3.2c-0.2,0.7-0.3,1.3-0.4,2c-0.1,0.3-0.2,0.5-0.3,0.8c-0.1,0.4,0.1,0.9,0.1,1.3
		c0.1,1.4,0.3,2.8,0.4,4.2c0.1,1.4,0.5,2.7,0.5,4.1c0,1.6-0.6,3.4-1.2,4.8c-0.6,1.6-1.9,2.9-2.8,4.2c-0.4,0.5-0.7,0.9-1.1,1.3
		C78.9,8,78.4,8.5,77.8,9c-0.9,0.8-1.7,2.4-2.2,3.6c-0.3,0.8-0.7,1.5-1,2.3c-5,15.9-16.9,24.2-28.2,29.5c-0.7,1.5-1.6,2.8-2.5,4.2
		c-0.3,0.4-0.7,1-1.2,1.3c-0.5,0.3-1.3,0.3-1.8,0.3c-0.6,0-1.1-0.1-1.7,0.2c-0.7,0.4-1.4,0.7-2.2,0.9c-0.8,0.2-1.5,0.3-2-0.4
		c-0.5-0.6-0.9-1.2-1.2-2c-0.2-0.5-0.4-1.2-1-1.2c-0.3,0-0.2,0.1-0.5,0.2c-0.4,0.2-0.8,0.4-1.1,0.6c-0.7,0.4-1.5,2.4-2.3,2
		c0.6-0.6,1.1-0.2,1.7-0.4c0.8-0.3,1.5-0.5,2,0.4c0.2,0.4,0.3,0.9,0.5,1.2c0.3,0.4,0.7,0.5,1.1,0.7c0.6,0.3,1.6,0.4,2,1
		c0.5,0.7,0.4,1.6,1.3,1.6c1.1,0,2.1-1.1,2.8-2.3c0.4-0.8,0.9-1.7,1.5-2.1c0.6-0.3,1.2-0.5,1.8-0.4c0.6,0,1.2,0,1.7-0.5
		c2.5-4.1,6.9-8.6,9.6-6.2c4.4,3.6,9.4-2.1,11.3-5.8c3.5-7.8,8.1-14.6,10.3-22.7c0.1-0.5,0.3-0.8,0.4-1.2C77,13.3,77,13,77,12.6
		c0.2-1.1,1.1-2,1.7-2.8c1-1.2,1.8-2.2,2.9-3.2c1.3-1.1,2.4-2.2,3.1-4c0.4-1,0.7-1.9,1-2.9c0.4-1.2,1.1-2.2,1.5-3.4
		c0.5-1.4,0.9-2.7,1-4.2c0.1-1.2,0.3-2.3,0.4-3.5c0.3-1.9-0.4-3.4-0.5-5.2c-0.1-1.2-0.2-2.4-0.5-3.6c-0.3-1-0.6-1.9-0.2-3.1
		c0.3-0.8,0.9-1.5,1.3-2.2c0.4-0.6,0.5-1.1,0.6-1.8c0.3-2.1-0.5-3.9-1.9-4.5c-1.2-0.5-2.4-0.7-3.8,0.1c-1.2,0.7-1.7,2.1-2.1,3.7
		c-0.5,2.1-2,3-3.3,4.2c-0.7,0.6-0.9,1.3-1.3,2.1c-0.4,1-1,1.8-1.7,2.5c-0.9,1-1.9,1.4-3,1.8c-1.3,0.5-2.4,1.3-3.5,2.5
		c-1.1,1.2-3.2,3.9-3,5.9c0.1,1.2,1.2,1.5,1.3,2.6c0,0.6-0.3,1.3-0.4,1.9c-0.1,0.8-0.2,1.4-0.5,2.2c-0.3,1.1-0.8,2-1.1,3.1
		c-0.2,0.7-0.3,1-0.7,1.6c-0.5,0.7-0.9,1.5-1.4,2.2C62.6,5.4,62.2,5.8,62.4,5.9z"/>
	<path class="st1" d="M29.1,32.7c0.3,0.8-1,1.1-1.4,1.1c-0.7,0-0.9-0.1-1.7,0.5c-0.6,0.5-1.5,1-1.9,1.7c-0.4,0.6-0.7,1.7-1.1,2.4
		c-0.6,1.2-1.4,2.4-2.2,3.4c-0.8,1.1-1.9,2.9-2.4,4.6c-0.2,0.7-0.2,1.4-0.1,2c0.2,1.1,1.2,2.2,1.9,2.8c0.7,0.6,1.4,0.9,2.2,1
		c1.6,0.1,3.7-1.5,5.3-2.3c0.8-0.4,1.4-0.6,2.2-0.6c0.3,0,0.7-0.1,1-0.1c0.4,0,0.7,0.2,0.9,0.2c-1.4,0.7-2.6,1.3-3.8,2.4
		c-0.6,0.5-1.3,1.3-1.9,1.6c-0.4,0.2-1.1,0.2-1.5,0.3c-0.7,0.2-1.7,0.6-2.4,0.6c-0.3,0-0.6-0.3-0.9-0.3c-0.3,0-0.5,0.2-0.8,0.2
		c-0.6,0-1.2-0.1-1.8-0.1c-1.2,0-2.7,0.8-3.7,2.1c-0.2,0.3-0.2,0.6-0.5,0.9c-0.2,0.3-0.6,0.5-0.9,0.8c-0.7,0.6-1.2,1.1-2,0.9
		c-0.8-0.2-2.6-1.1-2.4-2.5c0.1-0.8,1-1.4,1.2-2.1c0.3-0.7,0.3-1.4,0.2-2.1c0-1.3,0.4-3.3,1.3-4.1c0.5-0.5,1-0.3,1.5-0.3
		c0.5-0.1,1.2-0.1,1.6-0.4c0.4-0.3,1-1.2,1.3-1.7c0.6-0.9,0.7-2.2,1-3.3c0.6-2,1.4-5.8,3-7c0.5-0.4,1.1-0.5,1.6-0.8
		c0.5-0.2,1.1-0.4,1.7-0.5c0.5-0.1,1-0.2,1.5-0.4c0.8-0.2,1.5-0.8,2.2-1.1C28,32.3,28.9,32.3,29.1,32.7z"/>
	<path class="st1" d="M87.6-12.7c0.7-2,1-4.3,2.4-3.2c0.6,0.4,0.7,1,1,1.9c0.1,0.4,0.2,1,0.4,1.4c0.2,0.3,0.4,0.2,0.6,0.5
		c0.4,0.7,0.4,2,0.8,2.7c0.3,0.4,0.8,0.7,1.1,1.2C94.5-7.4,94.3-7,94.4-6c0.2,1.7,1.7,1.8,2.7,2.1c1.3,0.4,2.1,1,2,2.9
		c-0.1,1.6-0.1,3.1,0,4.7c0,1.5,0.3,3,0.3,4.5c0,0.8-0.1,1.4-0.4,2.2c-0.2,0.7-0.8,1.3-0.9,2c0.5-1.6,1.4-3,1.8-4.6
		c0.3-0.8,0.5-1.4,0.5-2.3c0.1-1-0.2-1.8-0.2-2.7c-0.1-1.7-1.2,0.1-0.9-1.7c0.4-2.7-1.7-8-3.3-9.2c-1.4-1,0-1.5-1.3-2.8
		c-0.6-0.6-0.8-1.3-1.1-2.2c-0.4-1-1.1-1.8-1.8-2.4c-0.7-0.6-1.2-1.6-1.7-2.5c-0.5-0.9-0.1-2.5-0.1-3.6c0-1.3-0.1-2.4-0.3-3.6
		c-0.1-0.6-0.2-1-0.2-1.6c0-0.7,0.2-1.4-0.1-1.8c-0.6,0.2-0.6,1.9-0.7,2.5c-0.2,1.2-2.1,1.8-2.2,3.1C86.3-20.2,86.7-15.6,87.6-12.7z
		"/>
	<path class="st1" d="M52.6,61.8c14.3,4.6,29.7-17,37-33.9c0.7-1.1,1.2-2.2,1.8-3.3c0.3-0.6,0.4-1.2,0.7-1.8c0.3-0.5,0.6-1,0.9-1.6
		c0.3-0.6,0.6-1.2,0.9-1.6c0.2-0.3,0.6-1,0.8-1.1c-0.5,0.3-0.8,1.2-1.1,1.7c-0.5,0.9-0.9,1.9-1.4,2.8c-0.6,1.2-1.2,2.5-1.8,3.7
		c-6.6,18-19.7,35.5-34.4,37.2C55.3,63.6,54.2,62.9,52.6,61.8z"/>
	<path class="st1" d="M29.1,30.7c0.3-1,0.5-2,1.3-2.3c0.5-0.2,0.9,0.1,1.1,0.6c0.2,0.6-0.1,1-0.4,1.5c-0.3,0.4-1.6,1.4-1.9,0.8
		L29.1,30.7z"/>
	<path class="st1" d="M32.2,23.8c0-0.3-0.1-0.8,0-1.1c0-0.1,0.1-0.2,0.1-0.2c0.1-0.4,0.3-0.7,0.5-1c0.3-0.4,0.8-1.1,1.2-1
		c0.3,0,0.3,0.4,0.2,0.7c-0.2,0.3-0.4,0.6-0.6,0.9c-0.4,0.4-0.7,0.9-1.1,1.3L32.2,23.8z"/>
	<path class="st1" d="M53.6,43c4.9-0.6,10.4,1.5,12.4-5.8c2.3-8.1,8.1-13.2,10.4-21.3c-4.6,10.8-8.5,29.9-20.2,29.7
		C55.3,45,54.5,44,53.6,43z"/>
	<path class="st7" d="M46.7,47.7c4.2-6.2,6.6-4.7,8.3-1.4c1.7,3.3,7.7-0.7,12.4-8s5-15.5,8.5-20.7c3.5-5.2,3.4-6.7,7.7-9.5
		c4.3-2.8,4.7-9.7,3.3-13.8c-1.4-4.1-2.8-4.4-0.3-9.5c2.5-5.1,2.9-12,2.9-12s0.8,3.4,0.7,6c-0.1,2.6-0.8,3,1.8,5.8s1.8,3.7,3.3,5
		c1.6,1.2,3.9,2.7,4.8,4.8c0.8,2.1,1.4,7.6-0.6,13.8c-2,6.3-4.8,7.9-12.2,22.5C79.8,45.4,66.1,65,58.5,62c-7.6-3-7.9-9.7-10.8-9.8
		c-2.9,0-2.3-2.6-2.3-2.6L46.7,47.7z"/>
	
		<linearGradient id="SVGID_12_" gradientUnits="userSpaceOnUse" x1="-11.3028" y1="121.8242" x2="-11.3028" y2="99.4978" gradientTransform="matrix(0.848 -0.53 0.53 0.848 19.6397 -72.6807)">
		<stop  offset="0" style="stop-color:#D7D6E2"/>
		<stop  offset="0.3348" style="stop-color:#DDDBE3"/>
		<stop  offset="1" style="stop-color:#E0DDE3"/>
	</linearGradient>
	<path class="st15" d="M47.2,47c4.8-5.2,6.2-4.5,7.8-2.4c1.6,2.1,5.2,2.2,10.6-3.1c5.4-5.3,5.3-14.2,9.5-21.8
		c4.2-7.6,4.5-8.4,8.2-10.8c3.7-2.5,3.9-6.5,3.9-6.5s-0.9,2.6-3.2,5c-2.3,2.4-3.5,1.6-6.1,6.5s-4.5,8.3-5.6,11.7
		c-1,3.4-2.4,12.3-9.9,17.9c-4.6,3.5-4.6,1.6-8.2-0.5C50.6,40.9,47.2,47,47.2,47z"/>
	
		<linearGradient id="SVGID_13_" gradientUnits="userSpaceOnUse" x1="-62.3451" y1="111.2723" x2="-62.3451" y2="106.4943" gradientTransform="matrix(0.848 -0.53 0.53 0.848 19.6397 -72.6807)">
		<stop  offset="0" style="stop-color:#D7D6E2"/>
		<stop  offset="0.3348" style="stop-color:#DDDBE3"/>
		<stop  offset="1" style="stop-color:#E0DDE3"/>
	</linearGradient>
	<path class="st16" d="M16.8,54.7c2.8-1.4,3.9,0.4,7.5,0.3c3.6-0.1,3.9-4.1,7.3-5.1c-3.9,1.1-5.4,3.5-7.7,4
		C21.7,54.4,19.9,52.8,16.8,54.7z"/>
	
		<linearGradient id="SVGID_14_" gradientUnits="userSpaceOnUse" x1="-55.9652" y1="100.3691" x2="-55.9652" y2="93.4201" gradientTransform="matrix(0.848 -0.53 0.53 0.848 19.6397 -72.6807)">
		<stop  offset="0" style="stop-color:#D7D6E2"/>
		<stop  offset="0.3348" style="stop-color:#DDDBE3"/>
		<stop  offset="1" style="stop-color:#E0DDE3"/>
	</linearGradient>
	<path class="st17" d="M29.1,32.7c0.3,0.8-1,1.1-1.4,1.1c-0.7,0-0.9-0.1-1.7,0.5c-0.6,0.5-1.5,1-1.9,1.7c-0.4,0.6-0.7,1.7-1.1,2.4
		c-0.6,1.2-1.4,2.4-2.2,3.4c-0.8,1.1-1.9,2.9-2.4,4.6c0.6-3.8,1.8-4.4,3.3-6.6c1.7-2.4,1.8-3.7,2.8-5.1c1-1.3,1.7-1.4,2.6-1.2
		C28,33.8,29.1,32.7,29.1,32.7z"/>
	
		<linearGradient id="SVGID_15_" gradientUnits="userSpaceOnUse" x1="14.734" y1="85.4895" x2="14.734" y2="76.3453" gradientTransform="matrix(0.848 -0.53 0.53 0.848 19.6397 -72.6807)">
		<stop  offset="0" style="stop-color:#D7D6E2"/>
		<stop  offset="0.3348" style="stop-color:#DDDBE3"/>
		<stop  offset="1" style="stop-color:#E0DDE3"/>
	</linearGradient>
	<path class="st18" d="M67.1-1.5c4.2-4.6,2.2-5.7,4.4-9s3.3-2.7,5.5-6s2.1-3.3,4-4.5c1.9-1.2,3.4,1.2,3.4,1.2s-1.9-2.2-4.5,0.3
		c-2.6,2.5-2.1,4.2-4.2,6.5c-2.1,2.3-3.9,2.6-4.7,4.2C70.2-7.1,71.4-6,67.1-1.5z"/>
	
		<radialGradient id="SVGID_16_" cx="-43.5023" cy="-850.9063" r="7.4376" gradientTransform="matrix(-1.5363 2.1898 -0.5776 -0.686 -478.9443 -452.4554)" gradientUnits="userSpaceOnUse">
		<stop  offset="0" style="stop-color:#E0DDE3"/>
		<stop  offset="9.874189e-02" style="stop-color:#E4E2E7"/>
		<stop  offset="0.6447" style="stop-color:#F8F7F9"/>
		<stop  offset="1" style="stop-color:#FFFFFF"/>
	</radialGradient>
	<path class="st19" d="M67.9,52.3c-2.4-2.8,0.8-12.4,7.1-21.4c6.3-9,13.3-14,15.7-11.2c2.4,2.8-0.8,12.4-7.1,21.4
		C77.4,50.1,70.3,55.1,67.9,52.3z"/>
	
		<linearGradient id="SVGID_17_" gradientUnits="userSpaceOnUse" x1="21.5582" y1="82.4794" x2="36.26" y2="82.4794" gradientTransform="matrix(0.848 -0.53 0.53 0.848 19.6397 -72.6807)">
		<stop  offset="0" style="stop-color:#D7D6E2"/>
		<stop  offset="0.3348" style="stop-color:#DDDBE3"/>
		<stop  offset="1" style="stop-color:#E0DDE3"/>
	</linearGradient>
	<path class="st20" d="M91.9-15.4c1.7,2.6-2-3.9-3.5-1.8c-1.5,2.2-2.5,3.4-2.7,5.7S86.7-6,86.7-6s-1.7-4-1.8-5.9
		c-0.1-1.9,1.1-3.4,3-8.3c1.9-4.9,1.1-9.9,1.1-9.9s0.6,0.8,0.7,3.4s0,4.3,1,6.7C91.6-17.6,90.7-17.2,91.9-15.4z"/>
	
		<linearGradient id="SVGID_18_" gradientUnits="userSpaceOnUse" x1="-43.89" y1="127.4355" x2="16.0879" y2="127.4355" gradientTransform="matrix(0.848 -0.53 0.53 0.848 19.6397 -72.6807)">
		<stop  offset="0" style="stop-color:#D7D6E2"/>
		<stop  offset="0.3348" style="stop-color:#DDDBE3"/>
		<stop  offset="1" style="stop-color:#E0DDE3"/>
	</linearGradient>
	<path class="st21" d="M49.6,58c4.6,4.2,7,7.9,13,3.8c6-4.1,11.2-7.7,18-15.7c6.8-8.1,7-14.1,10.4-20c3.3-5.9,4.5-7.9,4.5-7.9
		s-3.3,5.6-4.7,9.3c-1.4,3.7-4.2,12.6-10.7,20.8C73.6,56.4,65.5,61.5,59.7,64C54,66.4,53.6,63.3,49.6,58z"/>
</g>
<polygon class="st22" points="69.9,148.4 67.2,145.6 149.3,133.7 197.7,149.8 141.3,185 "/>
<g>
	<g>
		<g>
			
				<linearGradient id="SVGID_19_" gradientUnits="userSpaceOnUse" x1="-55.8953" y1="67.1133" x2="177.8196" y2="300.8282" gradientTransform="matrix(0.9145 -0.4046 0.4046 0.9145 -29.1898 -80.1861)">
				<stop  offset="0" style="stop-color:#FFFFFF"/>
				<stop  offset="1" style="stop-color:#D8D8D8"/>
			</linearGradient>
			<path class="st23" d="M53.6,63.4c5.1-7.3,10.3-14.6,15.5-21.8L38.3-28l-60.7,17.2l50,113C36.2,89.2,44.7,76.2,53.6,63.4z"/>
			
				<linearGradient id="SVGID_20_" gradientUnits="userSpaceOnUse" x1="194.9172" y1="107.6014" x2="52.1074" y2="107.6014" gradientTransform="matrix(0.9145 -0.4046 0.4046 0.9145 -29.1898 -80.1861)">
				<stop  offset="0" style="stop-color:#FFFFFF"/>
				<stop  offset="1" style="stop-color:#D8D8D8"/>
			</linearGradient>
			<path class="st24" d="M87.4,16.1c4.9-7,9.6-14.1,14.5-21.2L78.6-57.9L38.3-28l30.8,69.6C75.3,33.2,81.4,24.7,87.4,16.1z"/>
			<polygon class="st25" points="-22.3,-10.8 38.3,-28 48.8,-70.4 -11.8,-50.8 			"/>
			<polygon class="st26" points="48.8,-70.4 78.6,-57.9 38.3,-28 			"/>
			<path class="st27" d="M-11.8-50.8l-3.5-7.9c-1.2-2.6,0.2-5.6,2.9-6.5l51.9-16.8c2.4-0.8,5.1,0.5,6,2.9l3.4,8.8L-11.8-50.8z"/>
			<path class="st28" d="M-22.3-10.8l21.9,49.6c3.3-3.5,8.6-7,15.6-5.8c21.4,3.7,13.5-14.5,31.3-4.8c8,4.3,13.7-1.1,14-6l0,0
				L38.3-28L-22.3-10.8z"/>
			<path class="st28" d="M31.3,96.7c-1.7,1.3-2.9,3.1-3.2,5C29.1,100,30.2,98.4,31.3,96.7z"/>
			<path class="st29" d="M38.3-28l22.1,50.1c0-2.9,0.5-12.6,9.4-12c10.5,0.6,10.9-6.6,12.8-14.2c1.9-7.6,6.6-7.5,12.4-4.8
				c1.8,0.8,3.4,0.3,4.7-0.9l-21.2-48L38.3-28z"/>
		</g>
		<g class="st30">
			<path class="st26" d="M8-49.1c7.9-4.3,16.1-4.1,18.4,0.5c2.3,4.5-2.2,11.7-10.1,16c-7.9,4.3-16.1,4.1-18.4-0.5
				C-4.4-37.7,0.1-44.9,8-49.1z"/>
		</g>
		<g>
			<g class="st31">
				<g>
					
						<linearGradient id="SVGID_21_" gradientUnits="userSpaceOnUse" x1="2.3422" y1="56.9471" x2="116.055" y2="170.6598" gradientTransform="matrix(0.8791 -0.4767 0.4767 0.8791 -29.4772 -89.3727)">
						<stop  offset="0" style="stop-color:#FFFFFF"/>
						<stop  offset="1" style="stop-color:#D8D8D8"/>
					</linearGradient>
					<path class="st32" d="M6-44.6c6.8-3.7,13.9-3.5,15.9,0.4c2,3.9-1.9,10.1-8.7,13.8c-6.8,3.7-13.9,3.5-15.9-0.4
						C-4.8-34.7-0.8-40.9,6-44.6z"/>
				</g>
				<g>
					
						<linearGradient id="SVGID_22_" gradientUnits="userSpaceOnUse" x1="10.1463" y1="45.7143" x2="36.5777" y2="48.4907" gradientTransform="matrix(0.9145 -0.4046 0.4046 0.9145 -29.1898 -80.1861)">
						<stop  offset="0" style="stop-color:#FFFFFF"/>
						<stop  offset="1" style="stop-color:#D8D8D8"/>
					</linearGradient>
					<path class="st33" d="M2.3-50.9c6-3.3,12.3-3.1,14,0.4c1.8,3.5-1.7,8.9-7.7,12.1c-6,3.3-12.3,3.1-14-0.4
						C-7.2-42.3-3.7-47.7,2.3-50.9z"/>
					
						<linearGradient id="SVGID_23_" gradientUnits="userSpaceOnUse" x1="3.396" y1="49.9266" x2="97.3959" y2="143.9264" gradientTransform="matrix(0.8791 -0.4767 0.4767 0.8791 -29.4772 -89.3727)">
						<stop  offset="0" style="stop-color:#FFFFFF"/>
						<stop  offset="1" style="stop-color:#D8D8D8"/>
					</linearGradient>
					<path class="st34" d="M6.8-38.2c-5.2,2.3-10.3,2-11.7-0.8c-1.6-3.1,1.8-8.3,7.4-11.3c0.5-0.3,1-0.5,1.5-0.7
						c5.2-2.3,10.3-2,11.7,0.8c1.6,3.2-1.7,8.2-7.4,11.3C7.8-38.7,7.3-38.5,6.8-38.2z"/>
				</g>
				<g>
					
						<linearGradient id="SVGID_24_" gradientUnits="userSpaceOnUse" x1="-2.9721" y1="63.1153" x2="21.8357" y2="63.1153" gradientTransform="matrix(0.8791 -0.4767 0.4767 0.8791 -29.4772 -89.3727)">
						<stop  offset="0" style="stop-color:#D8D8D8"/>
						<stop  offset="0.1525" style="stop-color:#DEDEDE"/>
						<stop  offset="0.4449" style="stop-color:#E5E5E5"/>
						<stop  offset="0.8773" style="stop-color:#DCDCDC"/>
						<stop  offset="1" style="stop-color:#D8D8D8"/>
					</linearGradient>
					<path class="st35" d="M16.2-50.7l3.7,6.6c0,0,0.1,0.1,0.1,0.1c1.8,3.5-1.7,8.9-7.7,12.1c-5.9,3.2-12.1,3.1-14-0.2l-3.7-6.6
						c1.9,3.3,8,3.4,14,0.2c6-3.3,9.4-8.7,7.7-12.1C16.3-50.6,16.2-50.7,16.2-50.7z"/>
				</g>
			</g>
		</g>
	</g>
</g>
<g>
	<defs>
		<path id="SVGID_25_" d="M53.6,63.4c5.1-7.3,10.3-14.6,15.5-21.8L38.3-28l-60.7,17.2l50,113C36.2,89.2,44.7,76.2,53.6,63.4z"/>
	</defs>
	<clipPath id="SVGID_26_">
		<use xlink:href="#SVGID_25_"  style="overflow:visible;"/>
	</clipPath>
	<g class="st36">
		<text transform="matrix(0.8295 0.2878 -0.2825 0.9593 10.2654 62.96)" class="st28 st37 st38">MILK</text>
	</g>
</g>
<g>
	
		<radialGradient id="SVGID_27_" cx="183.6833" cy="141.5329" r="83.6178" gradientTransform="matrix(0.9051 6.836651e-02 -2.723670e-02 0.3573 -28.2151 93.9359)" gradientUnits="userSpaceOnUse">
		<stop  offset="0" style="stop-color:#FFFFFF"/>
		<stop  offset="0.5528" style="stop-color:#FDFDFD"/>
		<stop  offset="0.8364" style="stop-color:#F5F5F8"/>
		<stop  offset="1" style="stop-color:#ECECF2"/>
	</radialGradient>
	<path class="st39" d="M197.9,148.2c0-1-2.2-2-3-2.4c-2.7-1.3-5.6-2.4-8.6-3.1c-0.8-0.2-1.4-0.4-2.2-0.7c-0.8-0.3-1.5-0.3-2.4-0.5
		c-0.9-0.1-1.8-0.5-2.7-0.7c-1.1-0.3-2.2-0.7-3.3-1c-0.7-0.2-1.3-0.4-2-0.6c-0.7-0.2-1.3-0.2-2-0.5c-1.4-0.6-2.8-1.5-4.3-1.9
		c-2-0.6-4.1-0.7-4-1c-1.6-0.4-3-0.8-4.6-1c-1.2-0.1-2.4-0.3-3.6-0.1c-1.6,0.2-3.1,0.5-4.6,0.7c-1.9,0.2-4-0.1-5.8-0.6
		c-1.2-0.3-2.4-0.5-3.6-0.8c-1-0.2-1.9-0.6-2.9-0.7c-4.9-0.4-9.9,0-14.8,0.1c-2.7,0-5,1.2-7.6,1.7c-3.9,0.7-7.5,0.1-11.5,0.1
		c-3.6-0.1-7.2-0.8-10.8-0.9c-1.7,0-3.3,0.1-5,0.2c-1.9,0.1-3.6,0.5-5.5,0.8c-2,0.4-4,0.9-5.8,1.5c-1.5,0.5-9.5,4.5-9.5,7.5
		s5.5,0.9,6,1c1.2,0.3,2.3-0.9,3.5-0.5c0.5,0.2,1,0.1,1.6,0.3c0.9,0.2,1.7,0.4,2.6,0.4c0.6,0.1,1.3,0.1,1.9,0.2
		c0.4,0.1,0.7,0.1,1.1,0.2c1.4,0.2,2.8,0.3,4.3,0.4c1.1,0.2,2.2,0.4,3.3,0.8c3.2,1.1,6.7,1.9,10,2.4c3.6,0.6,7.3,1.6,11,1.4
		c1.8-0.1,3.7,0.3,5.5,0.7c2,0.4,4.1,0.8,6.2,1c2.1,0.2,4.2,0.7,6.3,0.8c1.2,0.1,2.5,0.3,3.7,0.4c1.2,0.1,2.5,0,3.7,0.1
		c1.9,0.2,3.8,0.1,5.6,0.3c0.9,0.1,1.9,0,2.8,0c1.2,0,2.3,0.3,3.5,0.2c1.5-0.1,3,0.1,4.5,0.1c1.7,0,3.3-0.1,4.9-0.1
		c3.1-0.1,6.2-0.3,9.3-0.1c0.7,0,1.4-0.1,2.1,0c0.7,0.1,1.3,0.1,2,0.1c1.5,0,3,0,4.5-0.1c2.1-0.1,4.2-0.5,6.3-1.1
		c1.4-0.5,2.9-0.9,4.4-1.3c1.7-0.2,3.4-0.7,4.9-1.1c1.2-0.3,2.3-0.9,3.3-1.4C197.2,149.1,197.9,148.8,197.9,148.2z"/>
	<path class="st6" d="M151.1,142.4c0,0.6-0.3,1-0.8,1.4c-0.7,0.7-1.1,0.7-2,0.7c-2,0.2-3.9,0.9-5.9,1.2c-1.9,0.3-3.7,0.5-5.6,0.6
		c-2.1,0.1-4.4-0.8-6.3-1.4c-1.7-0.5-3.4-1.1-5.2-1.2c-2-0.1-4.2,0.5-7.7,0.3c-0.3,0-0.6,0-0.9-0.1c0.3-0.2,0.6-0.4,1-0.6
		c1.3-0.8,2.6-1.7,3.8-2.6c1.3-0.9,2.6-1.9,3.9-2.9c1.9-1.6,3-3.3,3.8-5.8c0.5-1.5,0.7-2.9,1.1-4.4c0.5-1.8,1.8-3.3,2.3-5.1
		c0.2-0.7,0.4-1.4,0.5-2.1c0.3-1.5,0.3-3,0.1-4.4c-0.2-0.9-0.2-1.8-0.5-2.7c-0.3-1.1-0.8-1.5-1.4-2.3c-0.4-0.5-0.7-0.9-1.2-1.4
		c-0.6-0.5-0.8-1-1.3-1.6c-0.3-0.4-0.5-0.4-0.7-0.9c-0.1-0.3-0.3-0.7-0.4-1c-0.4-1-0.7-2-1.1-3c-0.5-1.4-0.8-3.4,0-4.7
		c1-1.5,3-2.1,4.2-0.5c0.8,1.1,0.6,2.9,0.8,4.3c0.1,0.8,0.3,1.7,0.4,2.5c0.1,0.8,0.3,1.7,0.6,2.4c0.5,1.2,0.6,6.1,2,5.9
		c0.9-0.2,3-1.4,3.9-2.2c0.1-0.1,0.2-0.1,0.2-0.2c0.1-0.2,0.3-0.4,0.4-0.7c0.6-1.5,0.8-4.6,0.9-5.8c0.1-1,0-1.8-0.1-2.8
		c-0.1-0.5,0-0.9,0-1.5c0-0.8-0.2-1.6-0.2-2.4c0.1-1.9,0.8-4.1,1.2-6c0.4-2.2,0.9-4.1,1-6.3c0.1-1.8,0.1-3.7-0.6-5.3
		c-0.3-0.9-0.9-1.6-1.3-2.5c-0.6-1.1-1-2.4-1.4-3.6c-0.6-1.7-1-3.7-1.5-5.5c-0.4-1.7-0.1-3.4,0-5.2c0.2-3.1,2.6-5.1,4.3-7.2
		c0.6-0.7,1.1-1.6,1.7-2.3c0.8-1,1.6-1.5,2.7-2c1.7-0.7,4-0.6,4.3,1.7c0.4,3.1-0.8,6.1-1.7,8.9c-0.4,1.4-0.9,2.3-1.5,3.6
		c-0.5,1-0.8,1.7-1.5,2.5c-0.6,0.6-1.3,1.3-1.8,1.9c-0.6,0.7-1.4,2.1-1.7,3c-0.2,0.7-0.1,1.5-0.1,2.2c-0.1,1.4,0.5,2.6,0.7,3.9
		c0.1,0.8,0,1.5,0.3,2.4c0.2,0.5,0.3,1,0.5,1.6c0.1,0.3,0.3,0.5,0.4,0.8c0.1,0.3,0.2,0.9,0.2,1.1c0.2,1.3,0.3,2.6,0.2,3.9
		c-0.1,1.1-0.2,2.2-0.4,3.2c-0.2,1.1-0.4,2.3-0.7,3.4c-0.2,1-0.5,2.1-0.6,3.1c-0.2,1.2-0.1,2.4-0.4,3.6c-0.6,2.1-0.7,4.4-1.5,6.3
		c-1.2,2.6-2.5,5.1-2.3,8.2c0.1,1.9,0.7,4.1,1.9,5.4c0.8,0.9,1.5,1.3,2.6,1.6c2.1,0.6,4.6,0.7,6.1,2.8c0.7,1.1,1.1,2.2,1.5,3.5
		c0.3,1.1,0.2,2.2,0.6,3.3c0.6,2.1,0.3,4.3,0.1,6.6c0,0.4-0.1,0.9-0.1,1.2C150.9,141.5,151.1,142.4,151.1,142.4z"/>
	<path class="st40" d="M118.5,143.4c-0.3,0.3-0.7,0.5-1,0.6c-0.9,0.5-1.7,0.5-2.3,0.5c-0.3,0-0.9,0.1-1.1-0.4
		c-0.2-0.6,0.4-0.4,0.6-0.7c0.5-0.8-0.7-2.3-1-2.9c-0.4-1.1-0.9-2.3-1.3-3.4c-0.9-2.2-2.3-3.9-3.4-5.9c-0.8-1.4-1.9-2.6-2.9-3.8
		c0,0-0.1-0.1-0.1-0.1c-0.7-0.8-1.6-1.4-2.5-1.9c-0.9-0.4-1.7-1-2.5-1.8c-1.2-1.1-2.3-2.7-2.9-4.3c-0.3-0.9-0.4-2.1-0.2-3
		c0.2-0.8,0.5-2,0.9-2.7c1.2-2,5.1-2,5.6,0.6c0.1,0.7-0.2,1.5-0.4,2.1c-0.1,0.4-0.2,0.7-0.3,1c-0.1,0.5-0.2,1-0.3,1.5
		c-0.2,2.6,1,5,2.3,7.1c1.3,2,3.3,3.2,4.7,5.2c0.4,0.6,0.7,1.4,1.1,2c0.4,0.6,0.7,1.3,1,2c0.5,1.7,1,3.6,1.8,5.1
		c0.5,0.9,1.1,1.8,1.8,2.4c0.5,0.5,0.9,0.6,1.5,0.6C117.9,143.4,118.1,143.4,118.5,143.4z"/>
	<path class="st1" d="M105.1,109.8c-0.4-0.9-0.8-1.7-1.3-2.6c-0.3-0.6-0.6-1.3-0.7-2c-0.1-1.3,0.8-1.3,1.7-1.2c1,0.1,2,1.8,2.3,2.8
		c0.1,0.5,0.5,1.5,0.4,2c-0.1,0.8-1.2,1.3-1.8,1.8L105.1,109.8z"/>
	<path class="st1" d="M171.9,119.9c0.2-0.7,0.4-1.4,0.7-2.1c0.4,0,0.8-0.3,1.2-0.5c0.4-0.1,0.8-0.1,1.2-0.1c0.7,0,1.2,0.1,1.7,0.4
		c0.7,0.5,2.1,1.2,1.9,2.4c-0.2,1.2-1.6,1.6-2.5,1.7c-0.9,0-1.8,0.4-2.7,0.4c-0.4,0-0.8-0.1-1.1-0.3c-0.7-0.3-0.6-0.6-0.6-1.4
		L171.9,119.9z"/>
	<path class="st41" d="M147.9,144.4c0.3,0.1,1,0.3,1.3,0.2c0.2,0,0.4-0.1,0.6-0.2c0.7-0.1,1.4-0.4,2.1-0.5c0.7-0.1,1.4-0.4,2.1-0.6
		c0.6-0.1,1.2-0.3,1.7-0.6c1.5-0.7,3.1-1.4,4.7-1.7c0.7-0.1,1.6-0.4,2.2-0.8c0.8-0.6,0.9-1.8,1.2-2.7c0.3-0.8,0.5-1.6,0.8-2.4
		c0.2-0.4,0.5-0.7,0.6-1.1c0.1-0.3,0.1-0.7,0.1-1.1c0-0.6,0.1-1.3,0.1-1.9c0.1-0.9,0.3-1.6,0.5-2.5c0.2-0.7,0.3-1.5,0.9-2
		c0.5-0.5,1-0.9,1.6-1c1.3-0.3,2.3,0.6,2.3,2.1c0,1.5-1.3,3.3-2.2,4.2c-1,1-1.9,2.2-2.5,3.4c-0.4,0.9-0.8,1.7-1.3,2.5
		c-0.2,0.4-0.5,0.6-0.6,0.9c-0.2,0.4-0.3,0.7-0.4,1.1c-0.1,0.7-0.3,1.7-0.9,2.2c-0.5,0.4-1,0.5-1.5,0.6c-0.9,0.2-1.7,0.8-2.5,1.4
		c-0.3,0.2-0.7,0.4-1,0.7c-0.4,0.3-0.2,0.6,0,1c0.3,0.6,0,0.6-0.4,0.7c-0.5,0.1-0.9,0.1-1.4,0.1c-0.9-0.1-1.9-0.1-2.8-0.2
		c-0.9-0.1-1.7-0.3-2.5-0.4c-0.7,0-1.4-0.1-2,0c-0.8,0.1-1.7,0.1-2.5,0.2c-0.9,0.1-1.8,0.2-2.7,0.2c-0.5,0-1-0.1-1.5-0.1
		C144,145.3,146.3,144.3,147.9,144.4z"/>
	<path class="st1" d="M176.2,105.9c-0.4,0.3-2.1,1.3-1.7,2.2c0.3,0.6,1.3,0,1.7-0.1c0.5-0.2,1.2-0.6,1.3-1.2
		c0.2-0.7-0.4-1.2-0.8-1.6L176.2,105.9z"/>
	<path class="st1" d="M97.4,96.3c-1-0.6-2.3-1.4-2.8-2.7c-0.5-1.4,0.7-1.8,1.7-1.7c0.6,0,0.8,0.1,1.2,0.6c0.4,0.4,0.4,0.9,0.6,1.4
		c0.1,0.4,0.2,0.7,0.2,1.1c-0.1,0.6-0.2,0.7-0.6,1L97.4,96.3z"/>
	<path class="st1" d="M89.7,120.9c0.3,0.7,0.3,1.3,0.9,1.6c0.4,0.2,0.8,0.5,1.2,0.4c0.6-0.2,0.9-1.4,1-2.1c0.1-0.6,0.1-1.2-0.4-1.7
		c-0.8-0.6-2.1-0.1-3,0.4L89.7,120.9z"/>
	<path class="st1" d="M172.8,125.3c-0.2-0.5-0.2-1-0.1-1.5c0.3,0,0.3-0.3,0.6-0.2c0.4,0,0.8,0.4,1,0.8c0.4,0.7-0.5,2-1,1.2
		L172.8,125.3z"/>
	<path class="st1" d="M134.6,113c0.9-0.2,3-1.4,3.9-2.2c0,0,0,0.1-0.1,0.1c-0.8,1.4-1.5,3.6-2.8,4.3c-0.6,0.3-0.9-0.3-1.2-0.9
		c-0.3-0.6-0.6-1-1-1.6c-0.4-0.5-0.7-1.3-0.9-2c-0.1-0.2,0-0.6-0.3-0.7c-0.5-0.3-0.5,0.3-0.5,0.7c0,0.6,0.4,0.7,0.6,1.1
		c0.2,0.3,0.3,0.7,0.4,1.1c0.3,0.6,0.6,1.2,0.7,1.9c0.2,0.8,0.4,1.5,0.4,2.3c0,0.4-0.2,0.6-0.2,0.8c-0.1,0.3,0,0.8-0.3,0.9
		c-0.1,0.7-0.2,1.4-0.2,2.1c0-0.2,0-0.3-0.1-0.5c0.3-1.5,0.3-3,0.1-4.4c-0.2-0.9-0.2-1.8-0.5-2.7c-0.3-1.1-0.8-1.5-1.4-2.3
		c-0.4-0.5-0.7-0.9-1.2-1.4c-0.6-0.5-0.8-1-1.3-1.6c-0.3-0.4-0.5-0.4-0.7-0.9c-0.1-0.3-0.3-0.7-0.4-1c-0.4-1-0.7-2-1.1-3
		c-0.5-1.4-0.8-3.4,0-4.7c1-1.5,3-2.1,4.2-0.5c0.8,1.1,0.6,2.9,0.8,4.3c0.1,0.8,0.3,1.7,0.4,2.5c0.1,0.8,0.3,1.7,0.6,2.4
		C133.2,108.3,133.2,113.3,134.6,113z"/>
	<path class="st1" d="M148.6,62.2c-0.4,1.4-0.9,2.3-1.5,3.6c-0.5,1-0.8,1.7-1.5,2.5c-0.6,0.6-1.3,1.3-1.8,1.9
		c-0.6,0.7-1.4,2.1-1.7,3c-0.2,0.7-0.1,1.5-0.1,2.2c-0.1,1.4,0.5,2.6,0.7,3.9c0.1,0.8,0,1.5,0.3,2.4c0.2,0.5,0.3,1,0.5,1.6
		c0.1,0.3,0.3,0.5,0.4,0.8c0.1,0.3,0.2,0.9,0.2,1.1c0.2,1.3,0.3,2.6,0.2,3.9c-0.1,1.1-0.2,2.2-0.4,3.2c-0.9,0.3-1.9-1.3-2.6,0.1
		c-1,2.2-0.3,4.6-0.2,6.9c0.1,1.4,0.1,2.7,0,4.2c0,0.6-0.3,1-0.4,1.6c-0.1,0.6,0,1.2-0.2,1.8c-0.2,0.9-0.5,1.7-1,2.5
		c-0.1,0.2-0.2,0.3-0.4,0.5c0.6-1.5,0.8-4.6,0.9-5.8c0.1-1,0-1.8-0.1-2.8c-0.1-0.5,0-0.9,0-1.5c0-0.8-0.2-1.6-0.2-2.4
		c0.1-1.9,0.8-4.1,1.2-6c0.4-2.2,0.9-4.1,1-6.3c0.1-1.8,0.1-3.7-0.6-5.3c-0.3-0.9-0.9-1.6-1.3-2.5c-0.6-1.1-1-2.4-1.4-3.6
		c-0.6-1.7-1-3.7-1.5-5.5c-0.4-1.7-0.1-3.4,0-5.2c0.2-3.1,2.6-5.1,4.3-7.2c0.6-0.7,1.1-1.6,1.7-2.3c0.8-1,1.6-1.5,2.7-2
		c1.7-0.7,4-0.6,4.3,1.7C150.7,56.3,149.5,59.4,148.6,62.2z"/>
	<path class="st1" d="M106.2,127.3C106.1,127.3,106.1,127.2,106.2,127.3c-0.8-0.9-1.6-1.5-2.5-2c-0.9-0.4-1.7-1-2.5-1.8
		c-1.2-1.1-2.3-2.7-2.9-4.3c-0.3-0.9-0.4-2.1-0.2-3c0.2-0.8,0.5-2,0.9-2.7c1.2-2,5.1-2,5.6,0.6c0.1,0.7-0.2,1.5-0.4,2.1
		c-0.1,0.4-0.2,0.7-0.3,1c-0.1,0-0.2,0.1-0.2,0.1c-0.4,0.2-0.8,0.4-1.2,0.5c-0.5,0.1-0.8,0-1.2,0.4c-0.5,0.5-0.5,0.9-0.2,1.5
		c0.3,0.8,0.5,1,1.1,1.5c0.8,0.8,1.5,1.8,2.1,2.9c0.4,0.8,1.2,1.3,1.7,1.9C106.2,126.4,106.4,126.9,106.2,127.3z"/>
	<path class="st1" d="M150.9,44.4c0.6,0.7,1.3,1.1,2.1,1.3c0.9-1.1,1.8-2.2,2.6-3.5c0.8-1.3,0.9-2.6,1-4.1c0.1-2.1-1.1-3.3-2.9-3.8
		c-0.5-0.1-1.6,0.1-2.1,0.3c-0.7,0.3-1.6,1.1-2.1,1.7c-0.5,0.8-1.2,1.7-1.3,2.7c-0.2,1.8,0.7,3.3,1.4,4.8L150.9,44.4z"/>
	<path class="st1" d="M152.9,50.4c0.2-1.1,0.6-2.1,1.3-2.8c0.4,0.1,0.7-0.3,1.1-0.1c0.5,0.2,0.5,0.7,0.5,1.2c0,0.8-0.6,2.2-1.5,1.9
		L152.9,50.4z"/>
	<path class="st1" d="M165.1,134.5c0.5-1,0.6-2.2,1-3.3c0.1-0.2,0.1-0.4,0.2-0.7c0.1-0.3,0.6-0.9,0.9-1c0.9-0.4,0.5,1.4,1.8,1
		c0.7-0.2,1.3-1.5,1.5-2.2c0.1-0.5,0.1-1.4,0-1.9c0-0.1-0.2-0.3-0.3-0.5c0-0.3,0.2-0.6,0.1-1c-0.7-2.4-3.1-1.4-3.6,0.5
		c-0.4,1.1-0.6,2.3-0.9,3.4c-0.4,1.3-0.4,2.7-0.4,4.1L165.1,134.5z"/>
	
		<linearGradient id="SVGID_28_" gradientUnits="userSpaceOnUse" x1="70.891" y1="131.4526" x2="193.4895" y2="131.4526" gradientTransform="matrix(0.9978 6.601895e-02 -6.601895e-02 0.9978 11.1512 10.9398)">
		<stop  offset="0" style="stop-color:#D7D6E2"/>
		<stop  offset="0.3348" style="stop-color:#DDDBE3"/>
		<stop  offset="1" style="stop-color:#E0DDE3"/>
	</linearGradient>
	<path class="st42" d="M75.7,144c0.9,0.7,1.2,1.2,2.1,1.2c0.3,0,0.7,0,1,0.1c0.4,0.2,0.6,0.3,1.1,0.3c0.5,0,0.9,0.3,1.4,0.4
		c0.4,0.1,0.8,0,1.1,0.1c0.4,0.1,0.8,0.2,1.2,0.3c1.1,0.3,2.2,0.7,3.3,1c1.1,0.3,2.1,0.5,3.2,0.7c0.5,0.1,1,0.3,1.5,0.4
		c0.5,0.1,1.1,0,1.6,0.1c0.6,0.2,1.2,0.2,1.8,0.4c0.6,0.2,1.2,0.4,1.8,0.6c1.2,0.3,2.4,0.4,3.6,0.5c0.6,0,1,0.3,1.6,0.4
		c0.5,0.1,1.1,0.1,1.6,0.1c1.1,0.1,2.3,0.2,3.4,0.2c0.7,0,1.3,0.3,1.9,0.4c0.8,0.1,1.6,0.1,2.4,0.2c0.3,0,0.6,0,0.9,0
		c0.3,0.1,0.5,0.3,0.9,0.3c0.4,0,0.6,0.2,1,0.3c0.4,0.1,0.8,0.1,1.2,0.2c1.1,0.4,2.1,0.5,3.2,0.8c0.6,0.2,1.2,0.1,1.8,0.2
		c0.7,0,1.3,0.3,2,0.4c1.1,0.2,2,0.8,3,1.3c1.2,0.6,2.3,0.5,3.6,0.4c1.2-0.1,2.5-0.3,3.7-0.3c1.2,0,2.4-0.4,3.5-0.3
		c2.2,0.1,4.5,0.3,6.7,0.4c1.1,0.1,2.2,0,3.3,0c0.6,0,1.2-0.2,1.8-0.2c0.6,0.1,1-0.1,1.6-0.2c0.9-0.1,1.9,0.1,2.9,0.2
		c1.1,0.1,2.1-0.1,3.1-0.1c1,0.1,2,0.2,3,0.1c0.6-0.1,1-0.1,1.6,0c0.6,0.1,1.1-0.2,1.8-0.2c1.2,0,2.3-0.1,3.5,0
		c1,0.1,2.1,0.1,3.1,0.2c0.9,0.1,1.9,0.1,2.8,0.2c0.5,0,0.8,0.2,1.2,0.4c0.2,0.1,0.5,0,0.6,0c0.4,0,0.6,0.2,1,0.3
		c0.6,0.2,1.2,0.1,1.8,0.2c0.6,0,1.2-0.2,1.7-0.1c0.9,0.2,1.8,1.1,2.7,0.9c1-0.1,1.9-0.8,2.8-1.4c1-0.6,2-1.5,3.1-1.8
		c1.1-0.3,2.3-0.4,3.4-0.8c0.9-0.3,1.7-0.7,2.5-1.1c0.6-0.4,1.1-0.8,1.8-1.1c0.3-0.1,0.5-0.2,0.8-0.3c0.3-0.1,0.6-0.4,0.9-0.4
		c-2.6,1.5-5.7,1.4-8.5,1.9c-0.7,0.1-1.3,0.2-2,0.3c-0.7,0.1-1.4,0.4-2.1,0.4c-0.9,0-1.8,0.2-2.7,0.1c-1.2-0.1-2.4-0.2-3.6,0
		c-0.7,0.1-1.2,0-1.9,0.2c-1,0.3-2.4,0.3-3.4,0.3c-2.6-0.1-5.3,0.2-7.9,0.5c-1.1,0.1-2.3-0.2-3.4-0.2c-0.7,0-1.4,0.2-2.1,0.1
		c-1.1-0.1-2.1,0-3.2,0.1c-1.8,0.1-3.5,0.1-5.2,0.2c-2.9,0.2-5.9,0.1-8.8-0.1c-0.9-0.1-1.8-0.1-2.8-0.2c-1.2-0.1-2.4,0.1-3.7,0
		c-2.6-0.2-5.1-0.6-7.6-1.3c-1.1-0.3-2.2-0.8-3.1-1.5c-1.3-1-2.4-1.5-4-1.5c-1.4,0-2.7,0.6-4.1,0.5c-1,0-1.8-0.3-2.8-0.5
		c-0.9-0.1-1.9-0.2-2.8,0c-0.3,0.1-0.6,0.2-0.9,0.2c-0.6,0.1-1.2-0.1-1.8,0c-0.5,0.1-0.6,0.2-1.1,0.1c-0.5-0.1-0.9-0.4-1.3-0.5
		c-1.1-0.3-2.2-0.5-3.4-0.5c-1.1-0.1-2.1-0.4-3.3-0.5c-0.7,0-1.4-0.2-2.1-0.3c-0.9-0.2-1.8-0.2-2.7-0.4c-0.5-0.2-1-0.1-1.6-0.2
		c-0.6-0.1-1-0.2-1.5-0.4c-1.8-0.8-3.8-1.1-5.7-1.5c-2.7-0.6-5.6-0.2-8.3-0.3c-0.6,0-1.2,0-1.7-0.2c-0.5-0.2-0.8-0.6-1.2-1.1
		C73.4,143.3,72.9,142.6,75.7,144z"/>
	
		<linearGradient id="SVGID_29_" gradientUnits="userSpaceOnUse" x1="100.8659" y1="117.2012" x2="100.8659" y2="97.9542" gradientTransform="matrix(0.9978 6.601895e-02 -6.601895e-02 0.9978 11.1512 10.9398)">
		<stop  offset="0" style="stop-color:#D7D6E2"/>
		<stop  offset="0.3348" style="stop-color:#DDDBE3"/>
		<stop  offset="1" style="stop-color:#E0DDE3"/>
	</linearGradient>
	<path class="st43" d="M98.4,114.9c-1.1,5.2,3,8.7,6.3,10.8c3.3,2.2,6.8,9.3,6.8,9.3s-3.9-7.1-6.9-8.8
		C101.6,124.5,95.8,120.6,98.4,114.9z"/>
	
		<linearGradient id="SVGID_30_" gradientUnits="userSpaceOnUse" x1="100.2213" y1="93.2323" x2="100.2213" y2="86.8705" gradientTransform="matrix(0.9978 6.601895e-02 -6.601895e-02 0.9978 11.1512 10.9398)">
		<stop  offset="0" style="stop-color:#D7D6E2"/>
		<stop  offset="0.3348" style="stop-color:#DDDBE3"/>
		<stop  offset="1" style="stop-color:#E0DDE3"/>
	</linearGradient>
	<path class="st44" d="M103.6,104.1c-0.9,1.2,1.7,5.4,2.6,5.6c0.9,0.2,1.3-1.1,1.3-1.1s-0.2,2.9-2.2,1.8
		C103.5,109.4,102,105,103.6,104.1z"/>
	
		<linearGradient id="SVGID_31_" gradientUnits="userSpaceOnUse" x1="124.7119" y1="109.2672" x2="124.7119" y2="79.8417" gradientTransform="matrix(0.9978 6.601895e-02 -6.601895e-02 0.9978 11.1512 10.9398)">
		<stop  offset="0" style="stop-color:#D7D6E2"/>
		<stop  offset="0.3348" style="stop-color:#DDDBE3"/>
		<stop  offset="1" style="stop-color:#E0DDE3"/>
	</linearGradient>
	<path class="st45" d="M126.6,98.6c-0.4,3.5-0.3,6.7,3.1,10.4c3.4,3.7,4.3,5.3,3.8,10.3c-0.5,5-2.3,6.3-3.4,9c0.7-3.5,2.6-4,2.9-9
		c0.3-5-0.6-7.7-4.1-10.3C125.3,106.3,125,100.3,126.6,98.6z"/>
	
		<linearGradient id="SVGID_32_" gradientUnits="userSpaceOnUse" x1="133.8455" y1="92.3848" x2="133.8455" y2="55.1006" gradientTransform="matrix(0.9978 6.601895e-02 -6.601895e-02 0.9978 11.1512 10.9398)">
		<stop  offset="0" style="stop-color:#D7D6E2"/>
		<stop  offset="0.3348" style="stop-color:#DDDBE3"/>
		<stop  offset="1" style="stop-color:#E0DDE3"/>
	</linearGradient>
	<path class="st46" d="M137,111.9c3-2,2.8-2.7,3-7.1c0.2-4.5-0.6-4.4,0.5-9.5c1.1-5.1,1.5-7.2,1.9-10.5c0.4-3.3-1.4-6.1-3.4-10.1
		c1.4,3.9,3,6.1,2.9,10.1c-0.1,4-2.6,10.3-2.6,13.1c0,2.8,0.6,6,0.3,9.7C139.3,111.2,137,111.9,137,111.9z"/>
	<path class="st7" d="M135.9,120.6c2-1.9,0.7,9.6,8.3,5.8c2.5-1.2,1.4,1.4,2.5,3.6c1.1,2.2,2.5,3.9,2.6,7.6c0.1,3.6-0.5,6.9-0.5,6.9
		s-2.3,0-7.9,1.5c-5.6,1.5-4.5-3.4-11.2-4.2c-6.7-0.8-3.8-1.2,0.6-8.4C134.8,126.1,135.5,121,135.9,120.6z"/>
</g>
<g>
	<g>
		<g>
			<g>
				
					<linearGradient id="SVGID_33_" gradientUnits="userSpaceOnUse" x1="-35.2431" y1="-91.7397" x2="198.4717" y2="141.9751" gradientTransform="matrix(0.8319 0.5549 -0.5549 0.8319 40.6038 126.6725)">
					<stop  offset="0" style="stop-color:#FFFFFF"/>
					<stop  offset="1" style="stop-color:#D8D8D8"/>
				</linearGradient>
				<path class="st47" d="M107.9,146c-13.5-0.4-27-0.6-40.5-0.8l-28.9,43.3l44.5,45.9l57.8-86.7C129.8,147,118.8,146.3,107.9,146z"
					/>
				
					<linearGradient id="SVGID_34_" gradientUnits="userSpaceOnUse" x1="249.2165" y1="-0.7761" x2="106.4067" y2="-0.7761" gradientTransform="matrix(0.8319 0.5549 -0.5549 0.8319 40.6038 126.6725)">
					<stop  offset="0" style="stop-color:#FFFFFF"/>
					<stop  offset="1" style="stop-color:#D8D8D8"/>
				</linearGradient>
				<path class="st48" d="M194.9,150.1c-9.7-0.4-19.5-0.5-29.2-1c-8.3-0.4-16.6-0.9-25-1.5l-57.8,86.7l52.8,8.8l62-92.9
					C196.8,150.2,195.9,150.1,194.9,150.1z"/>
				<path class="st28" d="M102.3,175.3c-8.4-20.1-19.5-3.6-20.9-23.8c-0.2-2.6-0.9-4.6-2.1-6.1c-4-0.1-8-0.1-12-0.2l-28.9,43.3
					l44.5,45.8l32.6-48.9C110.8,184.5,105,182,102.3,175.3z"/>
				<path class="st29" d="M135.8,243.1l28.8-43.2c-2.5,1.6-11.9,7.4-16.2-0.3c-5.2-9.2-11.4-5.6-18.8-3.1c-7.4,2.5-9.9-1.4-10.7-7.8
					c-0.3-2-1.6-3-3.4-3.5l-32.5,49L135.8,243.1z"/>
			</g>
		</g>
	</g>
	<text transform="matrix(0.202 0.8545 -0.9611 0.2761 98.8908 151.9506)" class="st28 st37 st38">K</text>
</g>
</svg>
