<?xml version="1.0" encoding="utf-8"?>
<!-- Generator: Adobe Illustrator 25.2.1, SVG Export Plug-In . SVG Version: 6.00 Build 0)  -->
<svg version="1.1" id="Layer_3" xmlns="http://www.w3.org/2000/svg" xmlns:xlink="http://www.w3.org/1999/xlink" x="0px" y="0px"
	 viewBox="0 0 200 200" style="enable-background:new 0 0 200 200;" xml:space="preserve">
<style type="text/css">
	.st0{fill:#EB7013;}
	.st1{opacity:0.14;clip-path:url(#SVGID_2_);}
	.st2{fill:#FAB93B;}
	.st3{opacity:0.2;clip-path:url(#SVGID_4_);}
	.st4{clip-path:url(#SVGID_6_);}
	.st5{opacity:0.25;fill:#EB7013;enable-background:new    ;}
	.st6{clip-path:url(#SVGID_8_);}
	.st7{opacity:0.14;fill:#EB7013;enable-background:new    ;}
	.st8{clip-path:url(#SVGID_10_);}
	.st9{opacity:5.000000e-02;fill:#FFFFFF;enable-background:new    ;}
	.st10{opacity:0.5;fill:#D64613;enable-background:new    ;}
	.st11{fill:#659C36;}
	.st12{fill:#61893B;}
</style>
<g>
	<g id="Group_876" transform="translate(47.593 15.799)">
		<path id="Path_14759" class="st0" d="M20.3,24.2C5.7,37,0.9,58.3,3.1,77.7c1,7.5,2.8,15.1,6.9,21.5c2.9,4,6.1,7.8,9.7,11.2
			c5,4.9,10.1,9.8,16.3,13c5.7,2.5,11.9,3.9,18.1,4c16.8,0.7,33.8-4.1,46.9-14.7s21.9-26.9,22.1-43.6c0.4-20.6-11.9-40-28.7-51.9
			C83.7,9.5,70.2,4.5,56.9,5.5c-10,0.9-19.6,4.6-27.6,10.6C25.1,19.1,24.2,20.8,20.3,24.2z"/>
		<g>
			<defs>
				<path id="SVGID_1_" d="M20.3,24.2C5.7,37,0.9,58.3,3.1,77.7c1,7.5,2.8,15.1,6.9,21.5c2.9,4,6.1,7.8,9.7,11.2
					c5,4.9,10.1,9.8,16.3,13c5.7,2.5,11.9,3.9,18.1,4c16.8,0.7,33.8-4.1,46.9-14.7s21.9-26.9,22.1-43.6c0.4-20.6-11.9-40-28.7-51.9
					C83.7,9.5,70.2,4.5,56.9,5.5c-10,0.9-19.6,4.6-27.6,10.6C25.1,19.1,24.2,20.8,20.3,24.2z"/>
			</defs>
			<clipPath id="SVGID_2_">
				<use xlink:href="#SVGID_1_"  style="overflow:visible;"/>
			</clipPath>
			<g id="Group_874" class="st1">
				<path id="Path_14760" class="st2" d="M120.5,45.9c-1.2,1.9-1.4,4.7-2,6.7c-0.7,2.9-0.8,5.9-1.7,8.8c-1.9,5.4-4.2,10.6-7.1,15.5
					c-1.4,2.8-3.2,5.2-4.8,7.7c-0.4,0.5-1.6,1.9,0,0c-0.4,0.3-0.7,0.9-1.1,1.2c-1.1,1.2-2.3,2.2-3.3,3.4c-1.9,1.7-3.8,3.2-5.8,4.8
					c-2.1,1.9,0.2-0.3,0.5-0.3c-0.2,0-1.4,1-1.7,1.2c-1.2,0.9-2.4,1.5-3.7,2.4c-2.3,1.4-4.7,2.5-7.1,3.7c-1.9,0.8,3-1,0.9-0.3
					l-1.6,0.5c-1.6,0.5-3,1-4.5,1.5l-3.6,1c-1.5,0.2-3,0.4-4.5,0.8c0,0,3.5-0.3,1.6-0.2c-0.7,0-1.6,0.2-2.3,0.1
					c-1.7,0.2-3.5,0.1-5.2,0.1c-1.4,0-2.8-0.1-4.2-0.2c-0.5,0-1.2-0.2-1.7-0.2c-3.5-0.4,1.2,0,1.2,0.2s-8.3-1.8-9.2-2
					c-1.3-0.3-2.7-0.8-4-1.3c-0.7-0.2-1.6-0.5-2.2-0.7c-0.7-0.2-2.9-1.2-0.7-0.2c2.2,1.1,0.3,0.2,0,0c-1.7-0.9-3.4-1.4-5.2-2.3
					c0.3,0.2,3.6,1.8,0.9,0.4l-2.1-1.1c-6.1-3.2-11.9-6.8-17.4-10.9c-1.2-0.9,0.2,0.2,0.3,0.2c-1.4-1.1-2.6-2.1-4-3
					c-1.4-0.9-2.9-1.9-4.3-2.8c-2.8-1.9-5.7-3.5-8.6-5.3c-3.2-1.8-7.2-0.7-9,2.5c-0.8,1.5-1.1,3.2-0.6,4.8
					c1.3,7.4,3.8,14.6,7.4,21.2c3.7,6.4,7.8,13.1,13.7,18c7,6,15,10.6,23.7,13.6c7.4,2.4,15.2,3.5,23,3.4c15.3,0,30.1-4.7,42.6-13.6
					c12.3-9,21.7-21.4,26.9-35.7c3.1-8.3,4.6-17.1,4.3-25.9c-0.1-4.2-0.4-9.4-2.8-12.8c-1.9-3-4.8-6.1-8.2-6.3
					C122.3,44.3,121.2,44.9,120.5,45.9L120.5,45.9z"/>
			</g>
		</g>
		<g>
			<defs>
				<path id="SVGID_3_" d="M20.3,24.2C5.7,37,0.9,58.3,3.1,77.7c1,7.5,2.8,15.1,6.9,21.5c2.9,4,6.1,7.8,9.7,11.2
					c5,4.9,10.1,9.8,16.3,13c5.7,2.5,11.9,3.9,18.1,4c16.8,0.7,33.8-4.1,46.9-14.7s21.9-26.9,22.1-43.6c0.4-20.6-11.9-40-28.7-51.9
					C83.7,9.5,70.2,4.5,56.9,5.5c-10,0.9-19.6,4.6-27.6,10.6C25.1,19.1,24.2,20.8,20.3,24.2z"/>
			</defs>
			<clipPath id="SVGID_4_">
				<use xlink:href="#SVGID_3_"  style="overflow:visible;"/>
			</clipPath>
			<g id="Group_875" class="st3">
				<path id="Path_14762" class="st0" d="M125.6,45.1c5.2-4.6,0.3-13.3-2.4-18c-3.2-5.1-7.1-9.8-11.6-13.8C101.6,4.2,89.5-2,76.4-5
					c-29-5.8-60.2,9.2-78.1,31.9c-5.2,6.5-9.1,14-11.3,22c-1.2,4.1-1.7,8.4-1.7,12.6c0,2.6,0.6,5.2,1.8,7.5c0.5,0.9,1.2,1.8,1.9,2.6
					l0.5,0.5c2.1,1.6,2.2,1.8,0.7,0.4c1.5,2.6,4.9,3.5,7.5,2c0.4-0.2,0.8-0.5,1.2-0.9c-0.2,0.2-0.3,0.2-0.5,0.3
					c-1.2,0.7-0.9,0.5,1.4-0.5l1-0.5c1.9-1.2,3.6-2.8,4.9-4.6c1.6-2.2,3-4.6,4.4-6.9s3-4.3,4.4-6.4c1.2-1.7-1.6,1.5,0,0.2
					c0.4-0.3,0.7-0.9,1.2-1.4c1-1.2,2.1-2.4,3.3-3.4c3.9-4.1,8.1-7.9,12.6-11.3c1.2-1,2.5-2.4,0.5-0.5c1.1-0.9,2.3-1.7,3.5-2.4
					c2.3-1.5,4.7-3.1,7.1-4.4c2.4-1.4,5-2.7,7.7-4.1c1-0.5,2.3-1,3.3-1.5c2.1-1-2.4,0.8-0.3,0.2c0.9-0.3,1.6-0.5,2.3-0.8
					c2.7-0.9,5.5-1.6,8.3-2.2c0.6-0.2,1.1-0.3,1.7-0.3c0,0-2.8,0.1-0.9,0.2c1.2,0,2.6-0.3,3.8-0.3c2.3-0.3,2.6-0.3,1.2-0.2
					C69,23,69,23,69.7,22.8c2.6,0,5.4-0.3,8-0.1c1.4,0.1,2.9,0.2,4.3,0.4c1.4,0.2,0,0-0.3,0l3.1,0.6c2.4,0.5,4.8,1.3,7.1,2.3
					c-1.7-0.7,1.4,0.7,1.7,0.9c1.2,0.7,2.6,1.4,3.8,2.1c4.4,2.6,8.4,5.9,11.8,9.7C113.5,42.2,119.3,50.5,125.6,45.1L125.6,45.1z"/>
			</g>
		</g>
	</g>
	<g id="Group_880" transform="translate(47.593 15.799)">
		<g>
			<defs>
				<path id="SVGID_5_" d="M20.3,24.2C5.7,37,0.9,58.3,3.1,77.7c1,7.5,2.8,15.1,6.9,21.5c2.9,4,6.1,7.8,9.7,11.2
					c5,4.9,10.1,9.8,16.3,13c5.7,2.5,11.9,3.9,18.1,4c16.8,0.7,33.8-4.1,46.9-14.7s21.9-26.9,22.1-43.6c0.4-20.6-11.9-40-28.7-51.9
					C83.7,9.5,70.2,4.5,56.9,5.5c-10,0.9-19.6,4.6-27.6,10.6C25.1,19.1,24.2,20.8,20.3,24.2z"/>
			</defs>
			<clipPath id="SVGID_6_">
				<use xlink:href="#SVGID_5_"  style="overflow:visible;"/>
			</clipPath>
			<g id="Group_877" class="st4">
				<path id="Path_14764" class="st5" d="M63.3,138.1c1.1-0.3,2.2-0.8,3.3-1.4c1-0.5,1.7-0.3,0.5-0.3c1.7-0.2,3.3-0.7,4.7-1.7
					c2.6,0.1,5-1.1,6.6-3c2.6-3.4,2-7.3-0.6-10.6c-4.3-5.4-8.2-10.8-11.9-16.6c-3.2-4.9-6.6-10.1-8.3-15.8
					c-3-10.8-1.1-23.2,2.8-33.4c3.8-10,11.1-18.2,20.5-23.1c2.1-1,4.4-1.9,6.6-2.7c3.1-0.3,6.2-0.8,9.2-1.5c0.5-0.2,1.2-0.3,1.7-0.5
					c1.7-0.1,3.4,0,5,0.2c0.9,0.2,6.7,0.9,6.9,1.5c1.2,4,7.8,3.5,7.5-1c-0.2-2.7-1.8-5.1-4.1-6.5c1.1-4.3-1.5-8-5.4-9.6l-1.6-0.5
					c-3.5-1.1-6.9-2-10.4-2.7c0.2-3.9-2.2-7.4-6-8.5C75.1-3.9,58.9-3.5,43.8,1.4c-7.9,2.5-15.3,6.2-22.1,10.8
					c-1.7,0.2-3.2,0.8-4.5,1.9C8.4,21.8-2.4,29.7-5.3,41.6C-8,52.6-6.2,65.3-4.1,76.2c4.4,21.3,16.5,41.6,36.1,52.3
					c5.7,3.2,11.9,5.5,18.3,6.8c1.5,1.1,3.2,1.9,5,2.5C57.9,138.7,60.6,138.8,63.3,138.1z"/>
			</g>
		</g>
		<g>
			<defs>
				<path id="SVGID_7_" d="M20.3,24.2C5.7,37,0.9,58.3,3.1,77.7c1,7.5,2.8,15.1,6.9,21.5c2.9,4,6.1,7.8,9.7,11.2
					c5,4.9,10.1,9.8,16.3,13c5.7,2.5,11.9,3.9,18.1,4c16.8,0.7,33.8-4.1,46.9-14.7s21.9-26.9,22.1-43.6c0.4-20.6-11.9-40-28.7-51.9
					C83.7,9.5,70.2,4.5,56.9,5.5c-10,0.9-19.6,4.6-27.6,10.6C25.1,19.1,24.2,20.8,20.3,24.2z"/>
			</defs>
			<clipPath id="SVGID_8_">
				<use xlink:href="#SVGID_7_"  style="overflow:visible;"/>
			</clipPath>
			<g id="Group_878" class="st6">
				<path id="Path_14766" class="st7" d="M37.7,145.8c1.2-0.4,2.4-1,3.5-1.7c1-0.5,1.9-0.3,0.5-0.5c1.8-0.3,3.5-1,5-2
					c2.8,0.1,5.5-1.3,7-3.7c2.5-4,2.3-9.1-0.6-12.8c-4.4-6.5-8.7-13.1-12.6-20c-3.4-5.9-7-12.2-8.6-19.1c-3-12.8-1.3-28.1,3-40.3
					c4.1-11.9,11.7-22.2,21.8-28c2.2-1.3,4.6-2.4,7-3.2c3.3-0.4,6.5-1,9.7-1.8c0.7-0.2,1.2-0.3,1.7-0.5c1.8-0.1,3.6,0,5.4,0.2
					c0.9,0.2,7.3,1.3,7.3,1.8c0.4,2.2,2.5,3.7,4.7,3.3c2.1-0.4,3.5-2.3,3.3-4.4c-0.2-3.1-1.8-6-4.2-7.8c1.2-4.7-1.3-9.6-5.8-11.5
					L84.2-7c-3.6-1.3-7.2-2.3-10.9-3.2c0.5-4.5-2.1-8.8-6.3-10.5c-16-5.1-33.3-4.6-49,1.4C9.6-16.2,1.7-11.8-5.3-6.2
					C-7.1-6-8.8-5.2-10-3.8C-19.3,5.4-30.6,15-33.7,29.3c-2.7,13.3-1.2,28.7,1.3,41.9c4.6,25.8,17.5,50.2,37.9,63.3
					c6,3.7,12.5,6.5,19.3,8.2c1.6,1.2,3.4,2.2,5.3,3C32.6,146.6,35.3,146.6,37.7,145.8z"/>
			</g>
		</g>
		<g>
			<defs>
				<path id="SVGID_9_" d="M20.3,24.2C5.7,37,0.9,58.3,3.1,77.7c1,7.5,2.8,15.1,6.9,21.5c2.9,4,6.1,7.8,9.7,11.2
					c5,4.9,10.1,9.8,16.3,13c5.7,2.5,11.9,3.9,18.1,4c16.8,0.7,33.8-4.1,46.9-14.7s21.9-26.9,22.1-43.6c0.4-20.6-11.9-40-28.7-51.9
					C83.7,9.5,70.2,4.5,56.9,5.5c-10,0.9-19.6,4.6-27.6,10.6C25.1,19.1,24.2,20.8,20.3,24.2z"/>
			</defs>
			<clipPath id="SVGID_10_">
				<use xlink:href="#SVGID_9_"  style="overflow:visible;"/>
			</clipPath>
			<g id="Group_879" class="st8">
				<path id="Path_14768" class="st7" d="M31.1,153c1.2-0.6,2.3-1.3,3.3-2c1-0.7,1.7-0.7,0.5-0.5c1.7-0.5,3.4-1.3,4.7-2.5
					c2.8-0.2,5.3-1.9,6.5-4.4c2.3-4.3,1.1-9-1.9-12.7c-5.1-5.9-10.1-12.1-14.9-18.5c-3.9-5.6-8.4-11.3-10.7-17.9
					c-4.5-12.5-4.4-27.6-1.6-40.4C19.6,41.5,27.6,25.8,37,19c2.1-1.5,36.2-21.3,31.9-22.2C52.7-6.5,7.4-16.1-7.4-8.5
					c-8,4-15.3,9.3-21.6,15.7c-1.8,0.4-3.4,1.4-4.5,2.9C-41.6,20.4-51.9,31-53.3,45.7c-1.2,13.5,2.1,28.6,6,41.4
					c7.5,25.2,23,48,44.9,58.5c6.3,3.1,13.1,5,20,5.8c1.8,1.1,3.7,1.8,5.7,2.3C25.9,154.5,28.7,154.2,31.1,153z"/>
			</g>
		</g>
	</g>
	<path id="Path_14770" class="st9" d="M107.1,135.7c21.3-0.6,43.2-10.6,53.3-30.2c1.8-3.6,3.2-7.5,4.1-11.4c0.8-2.3,1-4.8,0.8-7.3
		c-0.2-1.8-0.7-3.5-1.7-5c-1.6-3.1-4.4-5.5-7.7-6.5c-5.7-2-11.6,0-16.1,3.8c-1.9,1.6-3.7,3.4-5.3,5.3c-4.7,2.9-9.4,5.6-14.3,8
		c-4.1,2-8.8,2.8-13.4,2.3c-5.7-0.4-11.6-1-17,0.9c-10.3,3.2-16.1,14.1-12.9,24.5c0.4,1.3,0.9,2.5,1.5,3.6
		C83.7,134.4,96.2,136.1,107.1,135.7z"/>
	<path class="st10" d="M142.1,39.3c3,2.5,4.3,5.9,2.9,7.7c-1.4,1.8-5.4,1.5-8.4-1s-4-6.3-2.5-8C135.4,36.3,139.1,36.9,142.1,39.3z"
		/>
	<path class="st10" d="M97.3,44.3c1.4-0.3,2.8,0.2,3,1.2c0.2,1-0.8,2.2-2.2,2.5s-2.8-0.4-3-1.4C94.9,45.6,95.9,44.6,97.3,44.3z"/>
	<path class="st10" d="M104.8,31.4c1-0.2,1.9,0.1,2,0.6s-0.6,1.2-1.6,1.4c-1,0.2-1.9-0.2-2-0.7C103.1,32.2,103.8,31.6,104.8,31.4z"
		/>
	<path class="st10" d="M73.5,55.3c0.7-0.7,1.6-1,2-0.6c0.4,0.4,0.2,1.4-0.5,2.1c-0.7,0.7-1.7,0.9-2.1,0.5
		C72.5,56.9,72.8,56.1,73.5,55.3z"/>
	<path class="st10" d="M65.1,77.9c0.6-0.8,1.4-1.2,1.9-0.9c0.4,0.3,0.4,1.3-0.2,2.1c-0.6,0.8-1.5,1.1-2,0.8S64.5,78.7,65.1,77.9z"/>
	<path class="st10" d="M55.3,90.4c0.1-0.8,0.5-1.3,0.8-1.3s0.6,0.7,0.5,1.5c-0.1,0.8-0.6,1.3-0.9,1.3C55.4,91.8,55.2,91.2,55.3,90.4
		z"/>
	<path class="st10" d="M84.9,80.8c0.3-0.7,0.8-1.2,1.1-1c0.3,0.1,0.4,0.9,0.1,1.6s-0.9,1.1-1.2,1C84.6,82.2,84.6,81.5,84.9,80.8z"/>
	<path class="st10" d="M76.6,91.4c0.3-0.7,0.8-1.2,1.1-1c0.3,0.1,0.4,0.9,0.1,1.6s-0.9,1.1-1.2,1C76.3,92.8,76.3,92.1,76.6,91.4z"/>
	<path class="st10" d="M74.4,37.9c0.5-0.5,1.2-0.8,1.4-0.6c0.2,0.2,0,0.9-0.5,1.4c-0.5,0.5-1.2,0.7-1.4,0.5
		C73.6,39.1,73.8,38.5,74.4,37.9z"/>
	<path class="st10" d="M75.6,46.2c0.5-0.5,1.2-0.8,1.4-0.6c0.2,0.2,0,0.9-0.5,1.4c-0.5,0.5-1.2,0.7-1.4,0.5S75,46.7,75.6,46.2z"/>
	<path class="st10" d="M92.1,67.5c0.5-0.5,1.2-0.8,1.4-0.6s0,0.9-0.5,1.4c-0.5,0.5-1.2,0.7-1.4,0.5C91.3,68.6,91.6,68,92.1,67.5z"/>
	<path class="st10" d="M124,61.6c0.5-0.5,1.2-0.8,1.4-0.6c0.2,0.2,0,0.9-0.5,1.4c-0.5,0.5-1.2,0.7-1.4,0.5
		C123.2,62.7,123.5,62.1,124,61.6z"/>
	<path class="st10" d="M109.8,52.1c0.5-0.5,1.2-0.8,1.4-0.6s0,0.9-0.5,1.4c-0.5,0.5-1.2,0.7-1.4,0.5C109,53.3,109.3,52.6,109.8,52.1
		z"/>
	<path class="st10" d="M114.7,39c0.7-0.4,1.3-0.5,1.5-0.2c0.2,0.3-0.2,0.9-0.9,1.3c-0.7,0.4-1.4,0.4-1.5,0.1
		C113.6,39.9,114,39.4,114.7,39z"/>
	<path class="st10" d="M89.8,55.6c0.5-0.5,1.2-0.8,1.4-0.6c0.2,0.2,0,0.9-0.5,1.4s-1.2,0.7-1.4,0.5S89.2,56.2,89.8,55.6z"/>
	<path class="st10" d="M59,66.3c0.5-0.5,1.2-0.8,1.4-0.6s0,0.9-0.5,1.4c-0.5,0.5-1.2,0.7-1.4,0.5S58.5,66.8,59,66.3z"/>
	<path class="st10" d="M73.8,66.9c0.9-0.9,2-1.1,2.5-0.6c0.5,0.5,0.4,1.8-0.5,2.7c-0.9,0.9-2.1,1-2.7,0.5
		C72.7,68.9,72.9,67.7,73.8,66.9z"/>
	<path class="st10" d="M87.4,32c0.5-0.5,1.2-0.8,1.4-0.6c0.2,0.2,0,0.9-0.5,1.4c-0.5,0.5-1.2,0.7-1.4,0.5S86.8,32.6,87.4,32z"/>
	<path class="st10" d="M62.6,50.9c0.5-0.5,1.2-0.8,1.4-0.6c0.2,0.2,0,0.9-0.5,1.4c-0.5,0.5-1.2,0.7-1.4,0.5
		C61.8,52.1,62,51.5,62.6,50.9z"/>
	<path class="st10" d="M82.1,42.2c0.2-0.2,0.6-0.3,0.8,0c0.2,0.2,0.3,0.6,0.1,0.8c-0.2,0.2-0.6,0.2-0.8,0
		C81.9,42.8,81.9,42.4,82.1,42.2z"/>
	<g>
		<g>
			<path class="st11" d="M177.7,69.3c-3-2.5-6.7-2.4-9.9-3.8c-9.2-3.9-17.3-9.1-23.3-17.3c-0.7-1-1.2-2.1-1.9-3.1
				c-2.6-5-1.6-1.1-3.8-1.4c-0.3,0-2.4-4.7-0.5-11.8c0.4-1.3,1.2-2.3,2.7-1.4c1.3,0.7,1.8,1.5,0.8,3c-1.2,1.7-1.9,3.6-1,5.9
				c1.9-0.4,3.1-1.9,4.8-2.5c8-2.5,14.5,0.7,20.4,5.5c5.6,4.5,9.4,10.3,10.9,17.4c0.5,2.4,1.5,4.6,1.8,7.1
				C178.9,67.9,179,68.8,177.7,69.3z"/>
		</g>
		<g>
			<path class="st12" d="M169.8,65.6c2-8.3-3.5-12.1-8.4-16.6c-1.4,1.5,0.1,3-0.9,4.6c-2.2-3.2-2.6-7.4-5.8-9.7
				c-3.2-2.3-6.9-3.2-10.9-4.1c2.4-1.7,12.2-1.4,14.4,0.3c-0.3,1.2-1.8,0.4-2.5,1.7c5.1,5.4,11.5,9.4,18,12.9
				c-0.7,1.5-2,0.7-2.5,1.8c1.1,2.6,3.3,4.8,4.1,7.8c-1.6,0.7-1.8-1.3-3.7-1.2C171.1,63.3,171.6,64.8,169.8,65.6z"/>
		</g>
	</g>
</g>
</svg>
