<?xml version="1.0" encoding="utf-8"?>
<!-- Generator: Adobe Illustrator 25.2.1, SVG Export Plug-In . SVG Version: 6.00 Build 0)  -->
<svg version="1.1" id="Layer_2" xmlns="http://www.w3.org/2000/svg" xmlns:xlink="http://www.w3.org/1999/xlink" x="0px" y="0px"
	 viewBox="0 0 200 200" style="enable-background:new 0 0 200 200;" xml:space="preserve">
<style type="text/css">
	.st0{fill:#659C36;}
	.st1{fill:#61893B;}
	.st2{opacity:0.11;}
	.st3{fill:#FFFFFF;}
	.st4{fill:#FF7917;}
	.st5{clip-path:url(#SVGID_2_);}
	.st6{fill:#FF6300;}
	.st7{clip-path:url(#SVGID_4_);}
	.st8{fill:#FF991A;}
	.st9{opacity:0.36;fill:#FF6A0B;enable-background:new    ;}
	.st10{fill:#FF8F27;}
	.st11{fill:#FC9D1A;}
	.st12{fill:#FFF5F2;}
	.st13{clip-path:url(#SVGID_6_);}
	.st14{clip-path:url(#SVGID_8_);}
	.st15{clip-path:url(#SVGID_10_);}
	.st16{clip-path:url(#SVGID_12_);}
	.st17{clip-path:url(#SVGID_14_);}
	.st18{clip-path:url(#SVGID_16_);}
	.st19{clip-path:url(#SVGID_18_);}
	.st20{clip-path:url(#SVGID_20_);}
	.st21{opacity:0.41;}
	.st22{opacity:0.32;}
	.st23{opacity:0.34;}
	.st24{opacity:0.43;}
	.st25{clip-path:url(#SVGID_22_);}
	.st26{clip-path:url(#SVGID_24_);}
	.st27{clip-path:url(#SVGID_26_);}
	.st28{clip-path:url(#SVGID_28_);}
	.st29{clip-path:url(#SVGID_30_);}
	.st30{clip-path:url(#SVGID_32_);}
	.st31{clip-path:url(#SVGID_34_);}
	.st32{clip-path:url(#SVGID_36_);}
	.st33{clip-path:url(#SVGID_38_);}
	.st34{clip-path:url(#SVGID_40_);}
</style>
<g>
	<g>
		<path class="st0" d="M220.9,64.4c-2.6,2.8-6.3,3.2-9.3,4.9c-8.6,5-16.1,11.2-21.1,20c-0.6,1.1-1,2.2-1.5,3.4
			c-2,5.3-1.4,1.3-3.6,1.9c-0.3,0.1-1.8,5,1,11.7c0.5,1.2,1.5,2.1,2.9,1.1c1.2-0.8,1.6-1.7,0.4-3c-1.4-1.6-2.3-3.3-1.7-5.7
			c1.9,0.2,3.3,1.5,5.1,1.9c8.2,1.5,14.3-2.5,19.5-7.9c5-5.1,8-11.3,8.7-18.6c0.2-2.4,0.9-4.8,0.9-7.3
			C222.3,65.7,222.3,64.8,220.9,64.4z"/>
	</g>
	<g>
		<path class="st1" d="M213.5,69.1c3,8-2,12.4-6.3,17.5c-1.6-1.3-0.2-3-1.5-4.5c-1.8,3.5-1.6,7.6-4.6,10.3c-2.9,2.6-6.5,4-10.3,5.4
			c2.6,1.4,12.2-0.1,14.3-2.1c-0.5-1.2-1.8-0.2-2.7-1.3c4.4-6,10.3-10.7,16.3-15c-0.9-1.4-2.1-0.4-2.7-1.5c0.8-2.7,2.6-5.2,3.1-8.2
			c-1.7-0.5-1.6,1.5-3.6,1.7C215.1,71.2,215.4,69.7,213.5,69.1z"/>
	</g>
</g>
<g id="Group_885_3_" transform="translate(104.229 63.939)" class="st2">
	<path id="Path_14775_3_" class="st3" d="M-108.5,0.4c-0.2,0-0.2,0.2-0.3,0.2c-0.4,0.2-0.8,0.6-1,1c-0.3,0.5-0.4,1-0.3,1.5
		c0,0.8,0.3,1.6,0.9,2.2c0.6,0.6,1.4,0.9,2.2,0.9c0.5,0,1-0.1,1.5-0.3c0.4-0.2,0.8-0.6,1-1c0-0.2,0.2-0.2,0.2-0.3
		c0.2-0.2,0.2-0.5,0.3-0.7c0.2-0.4,0.2-0.8,0-1.2c0-0.7-0.3-1.3-0.9-1.7c-0.4-0.3-0.9-0.6-1.4-0.7C-107-0.1-107.7,0.2-108.5,0.4
		L-108.5,0.4z"/>
</g>
<g id="Group_886_3_" transform="translate(111.463 68.176)" class="st2">
	<path id="Path_14776_3_" class="st3" d="M-106.4,6.2c0,0.3,0.2,0.5,0.2,0.7c0.3,0.6,0.8,1.2,1.4,1.5c0.9,0.5,2,0.5,2.9,0
		c0.5-0.4,1-0.9,1.4-1.5c0.1-0.2,0.2-0.4,0.2-0.7c0.2-1.1-0.1-2.2-0.9-3.1c-0.6-0.5-1.4-0.8-2.2-0.9c-0.8,0-1.6,0.3-2.2,0.9
		C-106.3,4-106.6,5.1-106.4,6.2L-106.4,6.2z"/>
</g>
<g id="Group_889_3_" transform="translate(0 7.853)">
	<path id="Path_14777_3_" class="st4" d="M-26.6,40.3c0,0-11.1,16.9-10.7,33.1c0.2,12.1,9.2,34.1,21.5,41.7s27.1,15.7,45.3,11.2
		c18.4-4.4,47.4-32.7,42.8-41.1C67.6,77.1-26.6,40.3-26.6,40.3z"/>
	<g>
		<defs>
			<path id="SVGID_1_" d="M-26.6,40.3c0,0-11.1,16.9-10.7,33.1c0.2,12.1,9.2,34.1,21.5,41.7s27.1,15.7,45.3,11.2
				c18.4-4.4,47.4-32.7,42.8-41.1C67.6,77.1-26.6,40.3-26.6,40.3z"/>
		</defs>
		<clipPath id="SVGID_2_">
			<use xlink:href="#SVGID_1_"  style="overflow:visible;"/>
		</clipPath>
		<g id="Group_887_3_" class="st5">
			<path id="Path_14778_3_" class="st6" d="M-1.2,75.2c-1.4,1.7-11.2,16.7-13.6,25.4c-2.2,8.7,4.1,27.6,4.1,27.6S-66,99.4-66.8,98.1
				c-0.9-1.4,5.1-38,7-41.7c1.9-3.7,23.5-29,23.5-29l15.8,1.4L-1.2,75.2z"/>
		</g>
	</g>
	<g>
		<defs>
			<path id="SVGID_3_" d="M-26.6,40.3c0,0-11.1,16.9-10.7,33.1c0.2,12.1,9.2,34.1,21.5,41.7s27.1,15.7,45.3,11.2
				c18.4-4.4,47.4-32.7,42.8-41.1C67.6,77.1-26.6,40.3-26.6,40.3z"/>
		</defs>
		<clipPath id="SVGID_4_">
			<use xlink:href="#SVGID_3_"  style="overflow:visible;"/>
		</clipPath>
		<g id="Group_888_3_" class="st7">
			<path id="Path_14780_3_" class="st8" d="M44.5,99.2c0,0-17.4,18.6-25.7,26.2c-4.6,4.5-10.3,7.6-16.5,9.2c0,0,26.2,17.2,32.5,10.6
				c6.1-6.5,32.5-38.9,32.5-38.9l7-15.3L44.5,99.2z"/>
		</g>
	</g>
</g>
<path id="Path_14782_3_" class="st9" d="M60.3,106.6c-1.5,1.4-2.9,11.2-20.8,14.8c-17.9,3.7-48.2-11.9-55.4-18.1s-24-28.1-16.4-40.9
	C-24.7,50,60.3,106.6,60.3,106.6z"/>
<path id="Path_14783_3_" class="st10" d="M72.9,96.4c-2.6,13.3-14.1,20.8-29.7,23.7c-5.3,1-10.8,0.9-16-0.3
	c-8.2-1.8-16-4.6-23.5-8.4c-8.4-4.3-16.2-9.6-23.2-16C-35.1,80.9-34.1,65-30.5,54.8c2.7-7.5,8.5-18.1,32.2-18.6
	c13.5-0.4,26.9,2.9,38.7,9.5C53.1,52.6,64,62.5,68.8,72.7C72.2,79.7,74.1,90.1,72.9,96.4z"/>
<path id="Path_14784_3_" class="st11" d="M70.2,94.5c-0.5,9-3.6,14.5-15.7,19.8c-4.5,2-9.4,3.1-14.3,3.4c-4.4,0.2-8.8,0-13.1-0.7
	c-14-2-27.6-9.7-39-18.6c-5.1-4-9.4-9.1-12.4-14.8c-2.6-4.8-4.3-10.2-4.8-15.7c-0.5-3.3-0.7-6.6-0.3-9.9
	C-28,45.8-11.8,39.1,4.4,38.6C18.2,38.1,31.2,43,43.9,51c4.1,2.6,17.9,13.3,22,23.7C68.7,81.2,70.7,88.4,70.2,94.5z"/>
<path id="Path_14785_3_" class="st12" d="M68.3,94c-0.5,8.5-3.2,13.6-14.8,18.6c-4.3,1.8-9,2.8-13.6,3.1c-4.2,0.1-8.4-0.2-12.6-0.9
	c-13.3-2-26.6-9.4-37.5-17.7c-4.8-3.9-9-8.6-12.1-14c-2.6-4.6-4.2-9.6-4.8-14.8c-0.5-3.1-0.7-6.2-0.3-9.4
	c1.4-11.6,16.7-17.7,32.4-18.2c13.3-0.3,25.7,4.4,38,11.9c4.1,2.6,17.2,12.6,21.3,22.7C66.8,81.4,68.7,88.2,68.3,94z"/>
<path id="Path_14786_8_" class="st11" d="M27,64.8c2.6-5,6.1-9.5,8.7-14.5c0.2-0.4,0.4-0.6,0.2-0.9c-0.2-0.3-1.2-1-1.5-1.2
	c-9.4-5-21.1-7.4-30.5-5.9c-1.3,0.2-2.8,0.6-3,1.5c-0.2,0.6,0.4,1.3,0.8,2c3.9,5.9,9.4,11.6,12.6,17.7c0.9,2,3.8,8.5,8.3,8.3
	C25,71.7,26.3,66.2,27,64.8z"/>
<path id="Path_14787_8_" class="st11" d="M9.6,62.1C5.3,56.4,0.9,50.7-3.4,45c-0.2-0.4-0.5-0.7-0.8-0.8C-4.6,44-4.9,44-5.2,44.1
	c-7.1,1.8-12.1,7.1-12.8,14c-0.1,1.1,0.2,2.3,0.8,3.1c0.6,0.5,1.3,0.9,2.1,1.1c6.9,2.4,13.9,3.6,20.5,6.6c2.2,1,9.4,4.5,10.2,1.6
	C15.9,68.9,10.6,63.6,9.6,62.1z"/>
<path id="Path_14788_8_" class="st11" d="M1.1,70.6c-8.1-3.1-16.2-6.1-24.3-9.2c-0.4-0.2-0.9-0.3-1.3-0.2c-0.4,0-0.4,0.4-0.6,0.6
	c-2.6,6.4-0.6,15.1,5.6,22.8c0.9,1.2,2,2.1,3.4,2.6c0.8,0.1,1.7,0.1,2.5-0.2c6.4-1.8,11.8-5.2,18.6-6.4c2.3-0.4,10.2-1.3,7.5-5
	C11.4,73.6,3.1,71.4,1.1,70.6z"/>
<path id="Path_14789_8_" class="st11" d="M41.1,85.4c7.7,3.1,15.4,6.4,23.1,9.6c0.4,0.2,0.9,0.3,1.3,0.2c0.4,0,0.4-0.4,0.4-0.6
	c2.1-7,0.4-16.6-6-24.7c-0.9-1.1-1.9-2.6-3.2-2.9c-1.3,0-2.7,0.3-3.9,0.7c-5.8,2.2-10,5.7-16.2,7.2c-2.1,0.6-9.4,1.5-6.8,5.3
	C31.2,82.4,39.1,84.6,41.1,85.4z"/>
<path id="Path_14790_8_" class="st11" d="M31.7,92.5c4.5,6.1,8.8,12.1,13.4,18.2c0.2,0.4,0.5,0.7,0.9,0.9c0.4,0.1,0.7,0.2,1.1,0.2
	c9.4-0.7,16.5-5.2,18.8-11.8c0.5-1.1,0.2-2.3-0.6-3.1c-0.7-0.6-1.5-1.1-2.4-1.5c-8.3-3.3-16.7-5.3-24.8-9.2
	C35.5,85,27,80.6,25.5,83.3C25,85,30.6,90.9,31.7,92.5z"/>
<path id="Path_14791_8_" class="st11" d="M15.6,91.2c-3.2,4.8-6.4,9.7-9.4,14.5c-0.3,0.2-0.3,0.6-0.2,0.9c0.3,0.3,0.6,0.5,0.9,0.7
	c9.5,4.8,20.2,6.7,30.8,5.3c1.3-0.2,2.8-0.6,3.2-1.5c0.1-0.7-0.1-1.3-0.6-1.8c-3.6-5.7-8.8-11.2-11.7-17.1c-0.9-1.8-3.2-8.3-7.9-7.9
	C18.2,84.6,16.5,90,15.6,91.2z"/>
<path id="Path_14792_3_" class="st3" d="M27.6,80.2c1-1-2.2-5.8-6-6.6c-3.7-0.9-5.1,1.4-4.1,4.1C18.6,80.3,24.2,83.4,27.6,80.2z"/>
<path id="Path_14793_8_" class="st11" d="M54.3,63.8c0-2.2-14.5-13.4-15.6-12.9c-1.1,0.6-12.6,17.5-13.4,21.2c0.2,3,0.4,4.2,5.5,3.1
	S54.3,66.2,54.3,63.8z"/>
<path id="Path_14794_8_" class="st11" d="M3.1,105.6c1.5,0.2,15-21,14.3-22.1c-0.8-1.1-2.3-4.8-6-2.8c-3.8,2-7.9,2-13.2,4
	c-5.1,1.8-12.8,4.4-12.2,6.3C-13.2,92.9,0.1,105.2,3.1,105.6z"/>
<g id="Group_891_8_" transform="translate(26.954 5.466)">
	<g>
		<defs>
			<path id="SVGID_5_" d="M0.5,60.2c2.4-4.6,4.9-9.2,7.3-13.8C8,46.1,8.1,45.9,8,45.6c-0.2-0.3-0.5-0.6-0.9-0.7
				c-8.5-4.6-19.1-6.8-27.6-5.5c-1.2,0.2-2.6,0.5-2.7,1.4c-0.2,0.5,0.3,1.2,0.7,1.9C-19,48.1-14,53.4-11.1,59
				c0.9,1.9,3.4,7.8,7.5,7.7C-1.4,66.7-0.2,61.6,0.5,60.2z"/>
		</defs>
		<clipPath id="SVGID_6_">
			<use xlink:href="#SVGID_5_"  style="overflow:visible;"/>
		</clipPath>
		<g id="Group_890_8_" class="st13">
			<path id="Path_14795_8_" class="st10" d="M-7.4,65.5c3.2-0.9,3.7-4.3,4.8-7c1-2.6,1.9-5.1,2.9-7.7c0.8-1.5,1.4-3,1.9-4.6
				c1-0.9,1-1.2-0.3-1.4c-0.8-0.3-1.6-0.5-2.4-0.7c-2.5-0.7-5.1-1.2-7.7-1.5c-2.8-0.4-5.7-0.6-8.5-0.5c-1,0-3.4-0.3-3.4,1.2
				c0,0.5,1.9,2.4,2.2,2.7c3.1,3.2,9.9,14.5,10,18.9c0,0.9-5.8-8-6.3-8.7c-2.7-3.5-5.7-6.7-9-9.5c-2-1.9-3.1-4.4-1.4-7
				c2.2-3.2,6.8-2.9,10.2-2.7c4.7,0.2,9.4,0.9,14,2c2.7,0.7,7,1.2,8,4.3c1.2,3.4-2.6,8.9-3.9,11.8C2.5,57.7-2.8,73-8.1,66.7
				C-8.1,66.4-7.9,65.7-7.4,65.5L-7.4,65.5z"/>
		</g>
	</g>
</g>
<g id="Group_893_8_" transform="translate(12.784 6.734)">
	<g>
		<defs>
			<path id="SVGID_7_" d="M-1.6,56.5c-4.5-6.1-9.2-12.1-13.7-18.2c-0.2-0.4-0.5-0.7-0.9-0.9c-0.4-0.1-0.7-0.2-1.1-0.2
				c-9.2,0.9-16.4,5.5-18.2,12.1c-0.4,1.1-0.1,2.2,0.6,3.1c0.7,0.6,1.5,1,2.4,1.3c8.3,3.1,16.9,5.2,24.8,8.8
				c2.6,1.3,11.1,5.5,12.6,2.8C5.4,63.9-0.4,58.2-1.6,56.5z"/>
		</defs>
		<clipPath id="SVGID_8_">
			<use xlink:href="#SVGID_7_"  style="overflow:visible;"/>
		</clipPath>
		<g id="Group_892_8_" class="st14">
			<path id="Path_14797_8_" class="st10" d="M3.1,65c-4.6-3.4-8.9-7.3-12.6-11.6c-2-2.4-3.8-4.9-5.5-7.5c-0.8-0.9-2.4-3.9-3.6-4.2
				c-1.7-0.7-2.8,0.4-4.3,1.3c-1.9,1.3-5.8,3.9-6.8,6.1s0.2,2,2.4,2.9c1.9,0.8,3.8,1.6,5.8,2.2c5.6,1.7,21.6,7.7,26,11.8
				c1.3,1.3-1.1,0.7-3,0.7c-5.3-0.4-18.8-6.1-23.9-7.5c-3.6-1.1-9-1.3-11.8-3.9c-5.8-5.2,2.3-12.3,6.4-15.4c2.4-1.7,6-4,9.2-3.7
				c3.6,0.4,6,4.6,7.7,7.2c2.6,4.1,5.7,8,9,11.6c2.8,2.8,5.8,5.5,6.8,9.4c0.2,0.9,0,2.4-0.6,1.8L3.1,65z"/>
		</g>
	</g>
</g>
<g id="Group_895_8_" transform="translate(10.867 17.208)">
	<g>
		<defs>
			<path id="SVGID_9_" d="M-7,53.9c-7.3-2.9-14.7-5.6-22-8.5c-0.4-0.2-0.8-0.3-1.2-0.2c-0.3,0-0.3,0.3-0.5,0.5
				c-2.4,6-0.5,14,5.1,21.1c0.8,1.1,1.8,1.9,3.1,2.4c0.7,0.1,1.5,0.1,2.2-0.2c5.8-1.7,10.7-4.8,16.9-6c2-0.3,9.2-1.2,6.8-4.6
				C2.4,56.7-5.1,54.6-7,53.9z"/>
		</defs>
		<clipPath id="SVGID_10_">
			<use xlink:href="#SVGID_9_"  style="overflow:visible;"/>
		</clipPath>
		<g id="Group_894_8_" class="st15">
			<path id="Path_14799_8_" class="st10" d="M-2.2,58.1c0-0.2,0.2-0.3,0.2-0.5c0.2-0.4,0.7-0.7,1.1-0.6c3.7,0.3,2.8,4.5,0.6,6.3
				c-2.3,1.8-5.4,2.9-8,4.4c-3,1.7-6.1,3.2-9.2,4.5c-4.9,1.8-9.6-1.3-12.5-5.2c-2.8-3.5-6-11-4.5-15.5c0.5-1.6,2.3-6.6,3.4-5.2
				c1.9,2.7,2.1,10.8,3.4,13.9c0.7,1.9,1.8,3.6,3.2,5c1.6,2.2,4.6,2.8,7,1.6c3.6-1.5,7-3.2,10.5-4.8c1.6-0.6,5-1.5,5-3.4
				C-2,58.4-2.2,58.4-2.2,58.1L-2.2,58.1z"/>
		</g>
	</g>
</g>
<g id="Group_897_8_" transform="translate(43.876 20.706)">
	<g>
		<defs>
			<path id="SVGID_11_" d="M-3.7,64.1c7,2.9,14,6,21,8.9c0.4,0.2,0.8,0.3,1.2,0.2c0.3,0,0.3-0.3,0.3-0.5c1.9-6.5,0.3-15.3-5.5-22.8
				c-0.9-1-1.7-2.4-2.9-2.7c-1.2,0-2.4,0.3-3.6,0.7c-5.3,2-9,5.3-14.7,6.6c-1.9,0.5-8.5,1.4-6.1,4.9C-12.7,61.3-5.6,63.4-3.7,64.1z"
				/>
		</defs>
		<clipPath id="SVGID_12_">
			<use xlink:href="#SVGID_11_"  style="overflow:visible;"/>
		</clipPath>
		<g id="Group_896_8_" class="st16">
			<path id="Path_14801_8_" class="st10" d="M11,47c5.5,1.2,8,8.5,8.9,13.5c0.7,3.6,2,13.6-3.7,13.6c-3.4,0-7.5-2.4-10.6-3.9
				c-4.3-1.8-8.6-3.3-13.1-4.4c-2.9-0.9-6.3-1.7-7.8-4.6c-1.2-2.4-1-4.9,1.4-6.5c1-0.6,2.3-0.3,2.9,0.7c0.2,0.3,0.3,0.5,0.3,0.8
				c0.3,5.1,8.7,6.1,12.6,7.5c2.3,0.8,4.6,1.9,6.8,3.1c1,0.5,5.6,2.9,6.8,2.4c2.7-0.9,0.5-9.5-0.2-11.6c-1.2-3.6-3.9-6.5-4.6-10.2
				C10.5,47.2,10.8,47,11,47L11,47z"/>
		</g>
	</g>
</g>
<g id="Group_899_8_" transform="translate(41.613 30.142)">
	<g>
		<defs>
			<path id="SVGID_13_" d="M-9.9,61.8c4.1,5.5,8,10.9,12.1,16.4C2.4,78.5,2.7,78.8,3,79c0.3,0.1,0.7,0.2,1,0.2
				c8.5-0.7,15-4.6,17-10.6c0.4-1,0.2-2-0.5-2.8c-0.6-0.6-1.4-1-2.2-1.3c-7.5-3-15.2-4.8-22.5-8.3c-2.4-1.2-10-5.1-11.4-2.6
				C-16,55-10.9,60.3-9.9,61.8z"/>
		</defs>
		<clipPath id="SVGID_14_">
			<use xlink:href="#SVGID_13_"  style="overflow:visible;"/>
		</clipPath>
		<g id="Group_898_8_" class="st17">
			<path id="Path_14803_8_" class="st10" d="M18,63.8c1.9,0.8,4.4,0.5,5.3,2.8c0.9,2.1-1.2,4.8-2.4,6.4c-3.1,4.1-9.9,10.1-15.7,8.1
				c-3.2-1.2-5.8-4-8-6.4c-2.9-3.1-5.6-6.4-8.3-9.7c-2-2.5-4.8-5-4.8-8.4c-0.2-2.3,1.4-4.3,3.7-4.6c1-0.2,1,0.5,0.7,1.5
				c-1.4,4.5,3.7,7.9,6.5,11.1c3.1,3.5,6.1,7.6,9.7,10.6c4.1,3.3,9-0.7,12.1-3.8c0.8-0.7,1.6-1.6,2.2-2.5c0.7-1.3,0.7-1.3,0.2-2.3
				s-2.9-1.8-3.2-3C15.8,63,17.5,63.6,18,63.8L18,63.8z"/>
		</g>
	</g>
</g>
<g id="Group_901_8_" transform="translate(29.952 31.346)">
	<g>
		<defs>
			<path id="SVGID_15_" d="M-12.9,59.7c-2.9,4.3-5.8,8.7-8.5,12.9c-0.2,0.2-0.3,0.5-0.2,0.8c0.2,0.3,0.5,0.5,0.9,0.7
				c8.6,4.3,18.3,5.9,27.9,4.7c1.2-0.2,2.6-0.5,2.9-1.3c0.1-0.6-0.1-1.2-0.5-1.6c-3.2-5.1-8-10-10.6-15.2c-0.9-1.6-2.9-7.4-7.2-7
				C-10.5,53.8-12.1,58.6-12.9,59.7z"/>
		</defs>
		<clipPath id="SVGID_16_">
			<use xlink:href="#SVGID_15_"  style="overflow:visible;"/>
		</clipPath>
		<g id="Group_900_8_" class="st18">
			<path id="Path_14805_8_" class="st10" d="M-7.8,56.1c-2.4-1.1-6.5,9.2-7.3,10.6c-0.7,1.3-1.7,2.8-2.2,4.1c-1,1-1,2,0.2,3.1
				c1,0.2,2,0.3,3.1,0.3c3,0.1,5.9,0.5,8.9,1.1c3.6,1.3,7.6,1.3,11.2,0.2h0.2c1.3-0.4,2.6,0.2,3.1,1.5c0,0,0,0,0,0
				c0,0.2,0.2,0.2,0.2,0.3C9.9,78.6,9.3,80,8,80.4c0,0-0.1,0-0.1,0c-2.8,0.7-5.8,1-8.7,0.8c-3.2-0.3-6.3-1.5-9.7-2
				c-3.9-0.5-12.1,0.5-13.5-4.7c-0.7-2.5,1.7-5.1,2.7-7c2-3.6,4.1-7.4,6.5-10.8c1.9-2.8,5.5-5.6,8.4-2.1
				C-5.7,55.3-6.9,56.6-7.8,56.1L-7.8,56.1z"/>
		</g>
	</g>
</g>
<g id="Group_903_8_" transform="translate(41.525 10.975)">
	<g>
		<defs>
			<path id="SVGID_17_" d="M10.6,53.9c0-2-13.1-12.4-14.1-11.9s-12.1,18.4-12.1,19.6c0.2,1.7,0.3,3.9,4.9,2.9
				C-6.1,63.4,10.6,56.1,10.6,53.9z"/>
		</defs>
		<clipPath id="SVGID_18_">
			<use xlink:href="#SVGID_17_"  style="overflow:visible;"/>
		</clipPath>
		<g id="Group_902_8_" class="st19">
			<path id="Path_14807_8_" class="st10" d="M6.9,46.3c-2-0.2-3.6-1.4-5.5-2.2c-1.2-0.5-3.6-1.9-4.9-1c-0.7,0.3-1,2.4-1.4,3.1
				c-1.2,2.4-2.7,4.3-4.1,6.5c-1.9,3.1-4.9,4.9-3.1,8.9c0.9,1.5,0.7,3.9-1,3.2c-2.9-1.2-4.3-4.4-3.2-7.3c0.9-2.7,2.9-5.1,4.3-7.5
				c1.4-2.6,2.6-5.3,3.9-7.7c1.4-2.4,3.1-4.1,6-3.4C1.3,39.6,6,42.7,6.9,46.3C7.1,46.3,7.1,46.3,6.9,46.3L6.9,46.3z"/>
		</g>
	</g>
</g>
<g id="Group_905_8_" transform="translate(18.118 28.754)">
	<g>
		<defs>
			<path id="SVGID_19_" d="M-13.2,74.8C-11.9,74.9-0.3,56-0.9,55c-0.6-1-1.9-4.3-5.2-2.5s-6.8,1.8-11.3,3.6
				c-4.4,1.6-11,3.9-10.5,5.6C-27.2,63.4-15.8,74.4-13.2,74.8z"/>
		</defs>
		<clipPath id="SVGID_20_">
			<use xlink:href="#SVGID_19_"  style="overflow:visible;"/>
		</clipPath>
		<g id="Group_904_8_" class="st20">
			<path id="Path_14809_8_" class="st10" d="M-4.2,50.4c2.9-2.5,4,1.8,3.7,4.1c-1.1,5.7-3.7,10.9-7.4,15.3c-2.6,3.1-5.6,4.8-9.3,2.5
				c-3.5-2.1-10.8-8.2-10.6-12.8c0-0.8,0.6-2,1.8-1.6c2.4,0.7,3.4,2.3,5.2,4.3c1.3,1.5,5.5,6.9,7.9,6.1c2.4-0.7,11.3-16.1,9-17.1
				C-4.5,51.3-4.5,50.8-4.2,50.4L-4.2,50.4z"/>
		</g>
	</g>
</g>
<g id="Group_907_3_" transform="translate(31.307 10.021)" class="st21">
	<g id="Group_906_3_">
		<path id="Path_14811_3_" class="st3" d="M-32.3,46.2C-28.1,34-9.9,34.4-0.2,38.7c11.5,5.2,23.5,18.6,18.7,32
			c-1.1,3.3-3.7,6.9-7.4,7.6c-3.4,0.7-6.8-1-8.3-4.1c-1.1-2.5-0.6-5.4-1.1-8c-0.3-2.4-1.1-4.6-2.5-6.5c-3.1-4.1-7.4-7.2-12.4-8.7
			c-5.4-1.7-11.1-0.3-16.7-1.2c-1.4,0-2.6-1.2-2.6-2.7C-32.5,46.9-32.5,46.5-32.3,46.2L-32.3,46.2z"/>
	</g>
</g>
<g id="Group_908_9_" transform="translate(44.077 40.775)" class="st22">
	<path id="Path_14812_9_" class="st3" d="M-8.1,67c-2.8-2.4-4.9-5.5-6.1-9c-0.2-0.3,0.3-0.7,0.7-0.3c2.1,2.9,4.1,5.9,5.8,9
		C-7.6,66.8-8,67-8.1,67z"/>
</g>
<g id="Group_909_9_" transform="translate(43.204 41.418)" class="st23">
	<path id="Path_14813_9_" class="st3" d="M-11.7,66.9c-0.8-1.3-1.5-2.6-2-4.1c-0.6-1.5-0.9-3-1-4.6c0-0.3,0.3-0.5,0.5-0.2
		c0.8,1.4,1.3,2.9,1.5,4.4C-12.1,63.9-11.8,65.4-11.7,66.9z"/>
</g>
<g id="Group_910_8_" transform="translate(37.031 37.762)" class="st24">
	<path id="Path_14814_8_" class="st3" d="M-14.7,56c-0.5,3.1-0.9,6.1-2.6,8.7c-0.2,0.3-0.9,0.2-0.7-0.2c0.7-2.9,2.2-5.6,3.1-8.5
		C-14.9,55.9-14.7,55.9-14.7,56L-14.7,56z"/>
</g>
<g id="Group_911_8_" transform="translate(25.142 34.153)">
	<path id="Path_14815_8_" class="st3" d="M-16.8,54.4c-2,2.2-4.3,4.6-7,5.6c-0.3,0.2-0.5-0.3-0.3-0.5c2.2-2,4.9-3.4,7.2-5.5
		C-16.8,54-16.6,54.2-16.8,54.4z"/>
</g>
<g id="Group_912_8_" transform="translate(24.132 33.208)" class="st22">
	<path id="Path_14816_8_" class="st3" d="M-18,53.6c-1.9,1.5-4.1,2.7-6.5,3.4c-0.2,0-0.3-0.2-0.2-0.3C-22.6,55.5-20.2,54.6-18,53.6z
		"/>
</g>
<g id="Group_913_8_" transform="translate(18.285 26.319)" class="st23">
	<path id="Path_14817_8_" class="st3" d="M-18.5,50.5c-2.9,0.9-6,2.2-9,2.4c-0.3,0-0.3-0.5-0.2-0.5c2.7-1.4,6.1-1.7,9-2.4
		C-18.3,49.9-18.3,50.3-18.5,50.5z"/>
</g>
<g id="Group_914_8_" transform="translate(17.006 24.081)" class="st22">
	<path id="Path_14818_8_" class="st3" d="M-19.9,49.6c-2.8,0.6-5.6,0.5-8.4-0.3c-0.3-0.2-0.2-0.5,0.2-0.5
		C-25.4,48.9-22.6,49.2-19.9,49.6C-19.8,49.5-19.8,49.6-19.9,49.6L-19.9,49.6z"/>
</g>
<g id="Group_918_8_" transform="translate(37.608 12.096)">
	<path id="Path_14822_8_" class="st3" d="M-16.8,50.2c0-1.3-0.2-2.5-0.3-3.7c-0.3-1.2-0.4-2.4-0.5-3.6c0-0.3,0.3-0.5,0.5-0.2
		c1.5,2,1.2,5.1,0.9,7.5C-16.3,50.7-16.8,50.7-16.8,50.2z"/>
</g>
<g id="Group_919_8_" transform="translate(50.164 16.981)" class="st22">
	<path id="Path_14823_8_" class="st3" d="M-4.3,45.1c-0.6,1.1-1.5,2-2.6,2.6c-1.2,0.9-2.4,1.7-3.6,2.4c-0.5,0.3-0.9-0.5-0.5-0.9
		c0.8-1.1,1.8-1.9,3.1-2.4C-6.9,46.2-5.5,46-4.3,45.1L-4.3,45.1z"/>
</g>
<g id="Group_920_8_" transform="translate(53.314 24.976)">
	<path id="Path_14824_8_" class="st3" d="M-0.2,49.6c-2.9,1.3-5.9,2.1-9,2.4c-0.3,0-0.3-0.3-0.2-0.5c2.8-1.3,5.9-2.1,9-2.2
		C0,49.4,0,49.6-0.2,49.6z"/>
</g>
<g id="Group_921_8_" transform="translate(50.461 27.389)" class="st23">
	<path id="Path_14825_8_" class="st3" d="M-1.2,50.6c-2.9,1.2-6.5,2.4-9.5,1.7c-0.2,0-0.3-0.3,0-0.5C-7.7,50.9-4.3,51.1-1.2,50.6z"
		/>
</g>
<g id="Group_922_9_" transform="translate(53.246 37.817)" class="st23">
	<path id="Path_14826_9_" class="st3" d="M-0.1,63c-3.6-1.3-6.9-3.6-9.4-6.5c-0.1-0.2,0-0.4,0.1-0.5c0.1-0.1,0.3-0.1,0.4,0
		c1.5,0.9,2.9,1.9,4.3,3.1c1.5,1.2,3.2,2.2,4.8,3.6c0.1,0,0.2,0.1,0.1,0.2C0.2,63,0.1,63-0.1,63C-0.1,63-0.1,63-0.1,63L-0.1,63z"/>
</g>
<g id="Group_923_9_" transform="translate(54.365 40.949)">
	<path id="Path_14827_9_" class="st3" d="M-3.4,62.2c-2.1-1-4-2.4-5.5-4.3c-0.2-0.2,0.2-0.5,0.3-0.3c0.9,0.6,1.7,1.3,2.6,2
		c0.9,0.8,1.9,1.6,2.9,2.2C-2.9,62.1-3.1,62.4-3.4,62.2L-3.4,62.2z"/>
</g>
<g id="Group_885_2_" transform="translate(104.229 63.939)" class="st2">
	<path id="Path_14775_2_" class="st3" d="M73.1-32.2c-0.9-0.1-1.6-0.4-2.2,0c-0.5,0.2-0.9,0.4-1.3,0.8c-0.5,0.5-0.7,1.1-0.7,1.8
		c-0.1,0.4-0.1,0.8,0.1,1.2c0.2,0.2,0.2,0.5,0.4,0.7c0,0.2,0.2,0.2,0.2,0.3c0.3,0.4,0.7,0.7,1.1,1c0.5,0.2,1,0.2,1.6,0.2
		c0.8,0,1.6-0.4,2.2-1c0.5-0.7,0.7-1.5,0.7-2.3c0-0.5-0.1-1.1-0.4-1.5c-0.3-0.4-0.7-0.7-1.1-1C73.2-32,73.2-32.2,73.1-32.2
		L73.1-32.2z"/>
</g>
<g id="Group_886_2_" transform="translate(111.463 68.176)" class="st2">
	<path id="Path_14776_2_" class="st3" d="M57.1-25.8c0.2-1.1-0.2-2.2-0.9-3c-0.6-0.5-1.4-0.8-2.3-0.7c-0.8,0.1-1.6,0.4-2.2,1
		c-0.7,0.9-0.9,2-0.6,3.1c0,0.2,0.1,0.5,0.2,0.7c0.4,0.6,0.9,1,1.5,1.4c0.9,0.4,2,0.4,2.9-0.2c0.6-0.4,1-1,1.3-1.6
		C57-25.2,57.2-25.4,57.1-25.8L57.1-25.8z"/>
</g>
<g id="Group_889_2_" transform="translate(0 7.853)">
	<path id="Path_14777_2_" class="st4" d="M102.9,57.7c-4,8.6,26.8,34.9,45.4,38.1c18.5,3.2,32.5-2.4,44.2-10.9
		c11.7-8.5,19.5-34.4,18.9-46.4c-0.7-16.2-12.9-32.3-12.9-32.3S106.9,49.3,102.9,57.7z"/>
	<g>
		<defs>
			<path id="SVGID_21_" d="M102.9,57.7c-4,8.6,26.8,34.9,45.4,38.1c18.5,3.2,32.5-2.4,44.2-10.9c11.7-8.5,19.5-34.4,18.9-46.4
				c-0.7-16.2-12.9-32.3-12.9-32.3S106.9,49.3,102.9,57.7z"/>
		</defs>
		<clipPath id="SVGID_22_">
			<use xlink:href="#SVGID_21_"  style="overflow:visible;"/>
		</clipPath>
		<g id="Group_887_2_" class="st25">
			<path id="Path_14778_2_" class="st6" d="M191.6-4.9l15.7-2.4c0,0,23.3,23.7,25.4,27.3s10.5,39.8,9.8,41.2
				c-0.8,1.4-53.9,33.8-53.9,33.8s6.8-19.8,4-28.4c-3-8.5-15.5-22.3-17-23.9L191.6-4.9z"/>
		</g>
	</g>
	<g>
		<defs>
			<path id="SVGID_23_" d="M102.9,57.7c-4,8.6,26.8,34.9,45.4,38.1c18.5,3.2,34-3.9,45.7-12.4c11.7-8.5,18-32.8,17.4-44.9
				c-0.7-16.2-12.9-32.3-12.9-32.3S106.9,49.3,102.9,57.7z"/>
		</defs>
		<clipPath id="SVGID_24_">
			<use xlink:href="#SVGID_23_"  style="overflow:visible;"/>
		</clipPath>
		<g id="Group_888_2_" class="st26">
			<path id="Path_14780_2_" class="st8" d="M101.2,63.7l8,14.8c0,0,28.5,30.5,35.1,36.6c6.7,6.2,31.8-12.7,31.8-12.7
				c-6.3-1.1-12.2-3.9-17.1-8.1c-8.8-7.1-27.4-24.5-27.4-24.5L101.2,63.7z"/>
		</g>
	</g>
</g>
<path id="Path_14782_2_" class="st9" d="M205.1,28c8.5,12.2-6.9,35.3-13.6,41.9c-6.7,6.6-35.9,24.3-54.1,21.7
	c-18.1-2.4-20.1-12.1-21.7-13.4C115.7,78.2,196.7,16.1,205.1,28z"/>
<path id="Path_14783_2_" class="st10" d="M104.9,45c4.1-10.5,14.3-21.1,26.6-28.8c11.3-7.4,24.4-11.6,38-12.1
	c23.7-1.1,30.2,9.1,33.4,16.4c4.3,10,6.3,25.7-8.3,41.2c-6.5,6.8-13.9,12.7-22.1,17.5c-7.2,4.2-14.9,7.5-22.9,9.9
	c-5.2,1.6-10.6,2-16,1.4c-15.7-1.9-27.7-8.6-31.2-21.7C100.8,62.7,102,52.2,104.9,45z"/>
<path id="Path_14784_2_" class="st11" d="M107.9,46.8c3.4-10.6,16.4-22.3,20.4-25.1c12.2-8.8,24.8-14.6,38.6-15
	c16.2-0.6,32.8,5,35.1,17.1c0.5,3.3,0.6,6.6,0.3,9.9c-0.1,5.5-1.4,11-3.7,16c-2.7,5.9-6.6,11.3-11.4,15.6
	c-10.8,9.6-23.9,18.2-37.7,21.1c-4.3,0.9-8.7,1.5-13,1.6c-4.9,0-9.9-0.8-14.5-2.4c-12.4-4.5-15.9-9.7-17-18.7
	C104.1,60.7,105.6,53.5,107.9,46.8z"/>
<path id="Path_14785_2_" class="st12" d="M109.7,47.2c3.4-10.3,15.8-21.2,19.7-24c11.7-8.3,23.8-13.9,37.1-14.4
	c15.7-0.5,31.4,4.6,33.5,16c0.5,3.1,0.6,6.3,0.3,9.4c-0.2,5.2-1.5,10.4-3.8,15.1c-2.8,5.6-6.6,10.6-11.1,14.7
	c-10.3,9.1-23.1,17.3-36.2,20.2c-4.1,1-8.3,1.5-12.5,1.7c-4.7,0-9.4-0.7-13.8-2.2c-11.9-4.2-15-9.1-16-17.5
	C106.1,60.4,107.5,53.5,109.7,47.2z"/>
<path id="Path_14786_7_" class="st11" d="M151.1,41c4.5-0.1,6.9-6.7,7.7-8.8c2.8-6.3,7.9-12.3,11.4-18.5c0.3-0.8,0.8-1.5,0.6-2.1
	c-0.2-0.9-1.8-1.2-3.1-1.3c-9.5-0.8-20.9,2.3-30,7.9c-0.4,0.2-1.3,0.9-1.5,1.3c-0.2,0.4,0,0.6,0.2,0.9c3,4.8,6.7,9.1,9.6,13.9
	C146.9,35.7,148.6,41.1,151.1,41z"/>
<path id="Path_14787_7_" class="st11" d="M157.8,39.1c1,2.9,7.9-1.1,10.1-2.3c6.4-3.4,13.3-5.1,20-7.9c0.7-0.2,1.4-0.6,2-1.2
	c0.6-0.9,0.8-2,0.6-3.1c-1.1-6.8-6.5-11.8-13.7-13.1c-0.3,0-0.6,0-0.9,0.1c-0.3,0.2-0.6,0.5-0.8,0.9c-3.9,6-7.9,11.9-11.8,17.9
	C162.4,32.1,157.5,37.6,157.8,39.1z"/>
<path id="Path_14788_7_" class="st11" d="M161.3,44.1c-2.4,3.8,5.6,4.2,7.8,4.5c6.8,0.8,12.5,3.8,19,5.2c0.8,0.2,1.6,0.2,2.5,0
	c1.3-0.6,2.4-1.6,3.2-2.8c5.7-8.1,7.2-16.9,4.1-23.1c-0.2-0.2-0.2-0.5-0.6-0.5c-0.5-0.1-0.9,0-1.3,0.3c-7.9,3.7-15.7,7.1-23.6,10.8
	C170.4,39.3,162.3,42,161.3,44.1z"/>
<path id="Path_14789_7_" class="st11" d="M144.3,49.9c2.4-4-5-4.5-7.1-4.9c-6.3-1.1-10.7-4.3-16.6-6.1c-1.3-0.4-2.6-0.5-4-0.5
	c-1.3,0.5-2.1,2-3,3.1c-5.8,8.5-6.9,18.2-4.4,25c0,0.2,0,0.6,0.4,0.5c0.5,0.1,0.9,0,1.3-0.3c7.5-3.6,15-7.5,22.4-11.1
	C135.4,54.9,143.1,52.2,144.3,49.9z"/>
<path id="Path_14790_7_" class="st11" d="M148.8,52.7c-1.7-2.7-9.8,2.3-12.4,3.8c-7.8,4.4-16.1,7-24.2,10.8c-0.9,0.4-1.7,1-2.3,1.6
	c-0.7,0.9-0.9,2.1-0.4,3.2c2.7,6.5,10.1,10.4,19.5,10.5c0.4,0,0.8-0.1,1.1-0.3c0.4-0.2,0.7-0.6,0.9-1c4.1-6.4,8-12.7,12.1-19.1
	C144.3,60.6,149.5,54.3,148.8,52.7z"/>
<path id="Path_14791_7_" class="st11" d="M153.6,53.5c-4.7-0.1-6.5,6.5-7.4,8.4c-2.4,6.1-7.3,11.9-10.5,17.8
	c-0.4,0.5-0.6,1.2-0.4,1.9c0.4,0.9,2,1.2,3.3,1.3c10.7,0.6,21.3-1.9,30.4-7.4c0.3-0.2,0.6-0.5,0.9-0.8c0.1-0.3,0-0.7-0.2-0.9
	c-3.3-4.6-6.9-9.3-10.4-13.9C158.3,58.7,156.2,53.5,153.6,53.5z"/>
<path id="Path_14792_2_" class="st3" d="M156.4,46.5c0.8-2.8-0.7-4.9-4.4-3.8c-3.7,1.1-6.6,6.1-5.5,7
	C150.2,52.7,155.6,49.3,156.4,46.5z"/>
<path id="Path_14793_7_" class="st11" d="M143,45c5.1,0.8,5.3-0.5,5.2-3.5c-1-3.6-13.6-19.7-14.7-20.2c-1.2-0.5-14.9,11.7-14.7,13.9
	C119,37.6,137.9,44.2,143,45z"/>
<path id="Path_14794_7_" class="st11" d="M188.7,57.8c0.4-1.9-7.4-3.9-12.6-5.4c-5.4-1.7-9.5-1.4-13.4-3.2c-3.9-1.8-5.1,2-5.8,3.2
	c-0.7,1.2,14.2,21.4,15.7,21.1C175.6,72.9,188.1,59.7,188.7,57.8z"/>
<g id="Group_891_7_" transform="translate(26.954 5.466)">
	<g>
		<defs>
			<path id="SVGID_25_" d="M123.3,36c4.1-0.1,6.2-6.2,7-8.2c2.5-5.8,7.1-11.4,10.3-17.1c0.3-0.7,0.8-1.4,0.6-1.9
				c-0.2-0.8-1.6-1.1-2.8-1.2c-8.6-0.8-19,2.1-27.2,7.3c-0.3,0.2-0.6,0.4-0.8,0.7c-0.1,0.4,0,0.5,0.2,0.8c2.7,4.4,5.5,8.9,8.2,13.3
				C119.6,31.1,121.1,36.1,123.3,36z"/>
		</defs>
		<clipPath id="SVGID_26_">
			<use xlink:href="#SVGID_25_"  style="overflow:visible;"/>
		</clipPath>
		<g id="Group_890_7_" class="st27">
			<path id="Path_14795_7_" class="st10" d="M127,34.5c0.5,0.1,0.7,0.8,0.8,1.1c-4.8,6.6-11.1-8.3-12.5-10.8
				c-1.6-2.8-5.7-8-4.7-11.5c0.8-3.1,5-3.9,7.7-4.8c4.5-1.5,9.1-2.5,13.8-3c3.4-0.4,8-1,10.4,2c1.9,2.4,1,5.1-0.9,7.1
				c-3.1,3.1-5.9,6.5-8.4,10.1c-0.5,0.7-5.7,9.9-5.7,9.1c-0.1-4.4,5.9-16.1,8.8-19.5c0.3-0.4,2.1-2.4,2-2.9c-0.1-1.5-2.5-1-3.5-1
				c-2.9,0.1-5.7,0.5-8.5,1.1c-2.6,0.5-5.1,1.2-7.6,2c-0.8,0.2-1.6,0.5-2.3,0.8c-1.3,0.3-1.3,0.6-0.2,1.4c0.6,1.6,1.3,3.1,2.2,4.5
				c1.2,2.5,2.2,5,3.4,7.5C123,30.5,123.7,33.9,127,34.5L127,34.5z"/>
		</g>
	</g>
</g>
<g id="Group_893_7_" transform="translate(12.784 6.734)">
	<g>
		<defs>
			<path id="SVGID_27_" d="M143.2,34.2c1.7,2.7,9.8-2.1,12.4-3.6c7.6-4.2,16.1-6.8,24.2-10.5c0.9-0.3,1.7-0.8,2.4-1.4
				c0.6-0.9,0.8-2.1,0.4-3.2c-2.3-6.5-9.8-10.6-19-10.9c-0.4,0-0.8,0.1-1.1,0.3c-0.4,0.2-0.7,0.6-0.9,1c-4.1,6.4-8.4,12.7-12.5,19.1
				C148,26.7,142.5,32.8,143.2,34.2z"/>
		</defs>
		<clipPath id="SVGID_28_">
			<use xlink:href="#SVGID_27_"  style="overflow:visible;"/>
		</clipPath>
		<g id="Group_892_7_" class="st28">
			<path id="Path_14797_7_" class="st10" d="M143.6,35c-0.5,0.6-0.9-0.9-0.7-1.8c0.7-3.9,3.5-6.9,6.1-9.8c3.1-3.8,5.9-7.9,8.2-12.2
				c1.5-2.7,3.7-7.1,7.2-7.7c3.2-0.6,6.9,1.6,9.4,3.1c4.3,2.8,12.9,9.5,7.4,15c-2.6,2.8-8.1,3.3-11.6,4.6c-5,1.8-18.1,8.4-23.3,9.1
				c-1.9,0.1-4.3,0.8-3.1-0.5c4-4.3,19.6-11.4,25.1-13.5c1.9-0.8,3.8-1.6,5.7-2.6c2.2-1.1,3.3-1,2.2-3.1c-1.1-2.1-5.2-4.4-7.2-5.6
				c-1.6-0.8-2.8-1.8-4.4-1c-1.1,0.4-2.6,3.5-3.3,4.5c-1.5,2.7-3.1,5.4-4.9,7.9c-3.4,4.6-7.4,8.7-11.8,12.4L143.6,35z"/>
		</g>
	</g>
</g>
<g id="Group_895_7_" transform="translate(10.867 17.208)">
	<g>
		<defs>
			<path id="SVGID_29_" d="M148.6,27.2c-2.2,3.6,5,3.9,7.1,4.1c6.2,0.8,11.3,3.5,17.2,4.8c0.7,0.2,1.5,0.2,2.2,0
				c1.2-0.6,2.2-1.5,2.9-2.6c5.1-7.5,6.5-15.6,3.7-21.4c-0.2-0.2-0.2-0.5-0.5-0.5c-0.4-0.1-0.8,0-1.2,0.2c-7.1,3.4-14.2,6.6-21.4,10
				C156.9,22.7,149.5,25.2,148.6,27.2z"/>
		</defs>
		<clipPath id="SVGID_30_">
			<use xlink:href="#SVGID_29_"  style="overflow:visible;"/>
		</clipPath>
		<g id="Group_894_7_" class="st29">
			<path id="Path_14799_7_" class="st10" d="M154.2,26.4c0,0.3-0.1,0.3-0.3,0.5c0.1,1.9,3.6,2.5,5.2,3c3.7,1.4,7.2,2.9,10.8,4.1
				c2.5,1.1,5.4,0.2,6.9-2.1c1.3-1.5,2.3-3.3,2.9-5.2c1.1-3.1,0.7-11.2,2.5-14.1c1-1.5,3.1,3.3,3.7,4.9c1.8,4.4-1,12-3.5,15.7
				c-2.7,4-7.1,7.4-12.1,6c-3.2-1.1-6.4-2.4-9.5-3.9c-2.7-1.3-5.8-2.2-8.2-3.8c-2.2-1.6-3.5-5.7,0.2-6.3c0.5-0.1,1,0.1,1.2,0.6
				C154,26.1,154.2,26.2,154.2,26.4L154.2,26.4z"/>
		</g>
	</g>
</g>
<g id="Group_897_7_" transform="translate(43.876 20.706)">
	<g>
		<defs>
			<path id="SVGID_31_" d="M100.3,29c2.1-3.7-4.5-4.1-6.5-4.5c-5.7-1-9.7-4-15.1-5.7c-1.2-0.3-2.4-0.5-3.6-0.4
				c-1.2,0.4-1.9,1.8-2.7,2.9c-5.3,7.9-6.2,16.8-3.9,23.2c0,0.2,0,0.5,0.4,0.5c0.4,0.1,0.8,0,1.2-0.2c6.8-3.4,13.5-6.9,20.3-10.2
				C92.2,33.6,99.2,31.1,100.3,29z"/>
		</defs>
		<clipPath id="SVGID_32_">
			<use xlink:href="#SVGID_31_"  style="overflow:visible;"/>
		</clipPath>
		<g id="Group_896_7_" class="st30">
			<path id="Path_14801_7_" class="st10" d="M74.6,18.4c0.2,0,0.5,0.1,0.4,0.3c-0.4,3.8-3,6.9-3.9,10.5c-0.5,2.1-2.2,10.9,0.6,11.6
				c1.2,0.4,5.7-2.3,6.6-2.8c2.1-1.3,4.3-2.5,6.6-3.5c3.8-1.6,12.1-3.2,12.1-8.3c0-0.3,0.1-0.6,0.2-0.9c0.6-1,1.8-1.4,2.9-0.9
				c2.5,1.4,2.8,3.9,1.8,6.4c-1.3,3-4.7,4.1-7.5,5.1c-4.4,1.4-8.7,3.2-12.8,5.3c-3,1.7-6.9,4.4-10.3,4.6c-5.8,0.4-5.1-9.7-4.6-13.4
				C67.2,27.4,69.3,20,74.6,18.4L74.6,18.4z"/>
		</g>
	</g>
</g>
<g id="Group_899_7_" transform="translate(41.613 30.142)">
	<g>
		<defs>
			<path id="SVGID_33_" d="M106.7,23c-1.5-2.4-8.9,2.1-11.2,3.4c-7.1,4-14.6,6.3-21.9,9.7c-0.8,0.4-1.5,0.9-2.1,1.5
				c-0.7,0.8-0.8,1.9-0.3,2.8c2.4,5.8,9.1,9.3,17.7,9.4c0.3,0,0.7-0.1,1-0.2c0.3-0.2,0.6-0.5,0.8-0.9c3.7-5.7,7.3-11.4,11-17.1
				C102.5,30,107.3,24.4,106.7,23z"/>
		</defs>
		<clipPath id="SVGID_34_">
			<use xlink:href="#SVGID_33_"  style="overflow:visible;"/>
		</clipPath>
		<g id="Group_898_7_" class="st31">
			<path id="Path_14803_7_" class="st10" d="M73.9,35.4c0.5-0.2,2.2-1,2-0.5c-0.3,1.2-2.6,2.2-3,3.2c-0.4,1-0.4,1,0.3,2.3
				c0.7,0.9,1.5,1.6,2.4,2.3c3.3,2.9,8.5,6.6,12.3,3c3.4-3.2,6.2-7.5,9-11.2c2.5-3.3,7.4-7.1,5.7-11.5c-0.4-1-0.4-1.6,0.6-1.5
				c2.3,0.2,4.1,2.1,4,4.4c0.2,3.5-2.3,6.1-4.2,8.7c-2.5,3.5-5,7-7.7,10.3c-2,2.6-4.4,5.6-7.6,7c-5.6,2.4-12.8-3.1-16.2-7
				c-1.3-1.6-3.5-4.1-2.8-6.3C69.5,36.2,72.1,36.4,73.9,35.4L73.9,35.4z"/>
		</g>
	</g>
</g>
<g id="Group_901_7_" transform="translate(29.952 31.346)">
	<g>
		<defs>
			<path id="SVGID_35_" d="M122.7,22.8c-4.3,0-5.9,5.8-6.7,7.5c-2.2,5.4-6.6,10.6-9.5,15.9c-0.4,0.5-0.5,1.1-0.4,1.7
				c0.4,0.8,1.8,1,3,1.1c9.7,0.6,19.3-1.8,27.6-6.6c0.3-0.2,0.6-0.4,0.8-0.7c0.1-0.3,0-0.6-0.2-0.8c-3-4.1-6.2-8.3-9.4-12.3
				C126.9,27.4,125.1,22.8,122.7,22.8z"/>
		</defs>
		<clipPath id="SVGID_36_">
			<use xlink:href="#SVGID_35_"  style="overflow:visible;"/>
		</clipPath>
		<g id="Group_900_7_" class="st32">
			<path id="Path_14805_7_" class="st10" d="M122.5,25.3c-0.8,0.5-2.1-0.7-1.5-1.4c2.7-3.6,6.4-1.1,8.5,1.6
				c2.6,3.3,4.9,6.9,7.2,10.3c1.2,1.9,3.7,4.3,3.2,6.8c-1,5.3-9.2,4.9-13.1,5.6c-3.4,0.7-6.4,2.1-9.6,2.6c-2.9,0.3-5.8,0.2-8.7-0.2
				c0,0-0.1,0-0.1,0c-1.3-0.4-2-1.7-1.6-3c0-0.2,0.2-0.2,0.1-0.3c0,0,0,0,0,0c0.3-1.2,1.7-2,3-1.7l0.2,0c3.7,0.9,7.7,0.6,11.2-0.9
				c2.9-0.8,5.8-1.4,8.8-1.7c1-0.1,2-0.3,3-0.5c1.1-1.2,1-2.2,0-3.1c-0.6-1.3-1.7-2.7-2.5-3.9C129.5,34,124.8,23.9,122.5,25.3
				L122.5,25.3z"/>
		</g>
	</g>
</g>
<g id="Group_903_7_" transform="translate(41.525 10.975)">
	<g>
		<defs>
			<path id="SVGID_37_" d="M101.5,34.2c4.7,0.7,4.7-1.5,4.7-3.2c-0.1-1.2-12.3-18.3-13.4-18.7S79.4,23,79.5,25.1
				C79.7,27.3,96.8,33.5,101.5,34.2z"/>
		</defs>
		<clipPath id="SVGID_38_">
			<use xlink:href="#SVGID_37_"  style="overflow:visible;"/>
		</clipPath>
		<g id="Group_902_7_" class="st33">
			<path id="Path_14807_7_" class="st10" d="M82.7,17.2C82.5,17.2,82.5,17.2,82.7,17.2c0.6-3.6,5.2-7,8.5-8.1c2.8-0.9,4.7,0.7,6.2,3
				c1.5,2.3,2.9,4.9,4.4,7.4c1.5,2.3,3.7,4.5,4.8,7.2c1.3,2.8,0.1,6.2-2.7,7.5c-1.7,0.8-2-1.6-1.2-3.2c1.6-4-1.6-5.7-3.7-8.6
				c-1.5-2.1-3.2-3.9-4.5-6.2c-0.4-0.7-0.9-2.7-1.6-3c-1.4-0.8-3.7,0.8-4.9,1.3C86.2,15.6,84.7,16.9,82.7,17.2L82.7,17.2z"/>
		</g>
	</g>
</g>
<g id="Group_905_7_" transform="translate(18.118 28.754)">
	<g>
		<defs>
			<path id="SVGID_39_" d="M166.4,28.8c0.4-1.7-6.4-3.5-10.8-4.9c-4.6-1.5-8.2-1.3-11.5-2.9c-3.3-1.6-4.4,1.8-5,2.8
				c-0.6,1,12.3,19.1,13.5,18.9C155.1,42.2,165.8,30.5,166.4,28.8z"/>
		</defs>
		<clipPath id="SVGID_40_">
			<use xlink:href="#SVGID_39_"  style="overflow:visible;"/>
		</clipPath>
		<g id="Group_904_7_" class="st34">
			<path id="Path_14809_7_" class="st10" d="M142,19.1c0.3,0.3,0.4,0.8-0.1,0.7c-2.2,1.1,7.7,16,10.1,16.5c2.5,0.7,6.3-5,7.5-6.6
				c1.6-2.1,2.5-3.8,4.9-4.6c1.1-0.4,1.8,0.7,1.9,1.5c0.5,4.6-6.4,11.1-9.8,13.5c-3.5,2.5-6.7,1.1-9.5-1.8c-4-4.1-6.9-9.2-8.4-14.8
				C138.1,21.1,138.9,16.8,142,19.1L142,19.1z"/>
		</g>
	</g>
</g>
<g id="Group_907_2_" transform="translate(31.307 10.021)" class="st21">
	<g id="Group_906_2_">
		<path id="Path_14811_2_" class="st3" d="M155.3,41.4c-0.2,0.3-0.4,0.5-0.7,0.6c-1.1,0.6-2.6,0.2-3.2-1c-3-4.4-4.1-9.7-7.7-13.6
			c-3.2-3.5-7.4-5.9-12-6.7c-2.1-0.4-4.3-0.2-6.2,0.6c-2.2,0.7-4.4,2.3-6.8,2.4c-3.1,0-5.8-2.2-6.7-5.3c-0.9-3.4,0.9-7.1,3.1-9.4
			c8.8-9.7,24.4-5.2,33.3,2.3C155.6,17.6,163.4,32.8,155.3,41.4L155.3,41.4z"/>
	</g>
</g>
<g id="Group_908_8_" transform="translate(44.077 40.775)" class="st22">
	<path id="Path_14812_8_" class="st3" d="M95.6,36.7c1.5-3.3,3.2-6.4,5.2-9.4c0.3-0.4,0.9-0.1,0.7,0.3c-1,3.6-2.9,6.8-5.5,9.4
		C95.8,37,95.5,36.9,95.6,36.7z"/>
</g>
<g id="Group_909_8_" transform="translate(43.204 41.418)" class="st23">
	<path id="Path_14813_8_" class="st3" d="M102,32.1c0.1-1.6,0.6-3.1,1.2-4.5c0.1-0.4,0.5-0.2,0.5,0.1c0,1.6-0.2,3.2-0.7,4.7
		c-0.4,1.5-1,2.9-1.8,4.2C101.3,35.1,101.5,33.6,102,32.1z"/>
</g>
<g id="Group_910_7_" transform="translate(37.031 37.762)" class="st24">
	<path id="Path_14814_7_" class="st3" d="M115.7,25.2c0-0.2,0.2-0.2,0.2,0c1,2.8,2.8,5.5,3.6,8.3c0.2,0.3-0.5,0.5-0.7,0.2
		C117,31.3,116.4,28.2,115.7,25.2L115.7,25.2z"/>
</g>
<g id="Group_911_7_" transform="translate(25.142 34.153)">
	<path id="Path_14815_7_" class="st3" d="M141.3,22.2c2.3,1.9,5.2,3.1,7.5,5c0.2,0.2,0,0.7-0.3,0.5c-2.8-0.8-5.2-3.1-7.3-5.1
		C141,22.4,141.2,22.3,141.3,22.2z"/>
</g>
<g id="Group_912_7_" transform="translate(24.132 33.208)" class="st22">
	<path id="Path_14816_7_" class="st3" d="M151.1,24.3c0.2,0.2,0,0.3-0.1,0.4c-2.4-0.6-4.7-1.6-6.7-3C146.6,22.6,149,23.3,151.1,24.3
		z"/>
</g>
<g id="Group_913_7_" transform="translate(18.285 26.319)" class="st23">
	<path id="Path_14817_7_" class="st3" d="M155.9,17.6c2.9,0.5,6.4,0.6,9.2,1.8c0.2,0,0.2,0.5-0.1,0.5c-3.1,0-6.2-1.1-9.2-1.8
		C155.6,18,155.6,17.6,155.9,17.6z"/>
</g>
<g id="Group_914_7_" transform="translate(17.006 24.081)" class="st22">
	<path id="Path_14818_7_" class="st3" d="M159.6,17.1C159.4,17.1,159.4,17,159.6,17.1c2.7-0.6,5.4-1.1,8.1-1.4
		c0.3,0,0.5,0.3,0.2,0.5C165.2,17.2,162.3,17.5,159.6,17.1L159.6,17.1z"/>
</g>
<g id="Group_915_7_" transform="translate(17.492 22.178)">
	<path id="Path_14819_7_" class="st3" d="M162.1,15.6c1.4-0.4,2.9-0.6,4.4-0.8c0.2,0,0.2,0.3,0,0.3c-1.4,0.5-2.9,0.8-4.4,1.1
		C161.8,16.3,161.8,15.8,162.1,15.6z"/>
</g>
<g id="Group_918_7_" transform="translate(37.608 12.096)">
	<path id="Path_14822_7_" class="st3" d="M114,19.3c-0.5-2.4-1-5.4,0.4-7.5c0.1-0.4,0.5-0.2,0.5,0.1c0,1.2-0.1,2.4-0.3,3.6
		c-0.1,1.3-0.1,2.5-0.1,3.8C114.6,19.8,114.1,19.8,114,19.3z"/>
</g>
<g id="Group_919_7_" transform="translate(50.164 16.981)" class="st22">
	<path id="Path_14823_7_" class="st3" d="M77,15.9c1.2,0.8,2.6,0.8,3.7,1.5c1.3,0.4,2.4,1.2,3.2,2.2c0.4,0.3,0.1,1.2-0.5,0.9
		c-1.2-0.6-2.5-1.4-3.7-2.1C78.6,17.8,77.6,17,77,15.9L77,15.9z"/>
</g>
<g id="Group_920_7_" transform="translate(53.314 24.976)">
	<path id="Path_14824_7_" class="st3" d="M67.5,20.5c3.1-0.1,6.2,0.5,9.2,1.6c0.2,0.2,0.2,0.5-0.1,0.5c-3.1-0.1-6.2-0.7-9.2-1.8
		C67.2,20.8,67.2,20.7,67.5,20.5z"/>
</g>
<g id="Group_921_7_" transform="translate(50.461 27.389)" class="st23">
	<path id="Path_14825_7_" class="st3" d="M84,22.1c0.4,0.1,0.2,0.5,0,0.5c-3,0.9-6.7-0.1-9.6-1.1C77.4,21.8,80.8,21.5,84,22.1z"/>
</g>
<g id="Group_922_8_" transform="translate(53.246 37.817)" class="st23">
	<path id="Path_14826_8_" class="st3" d="M69.2,34.2C69.2,34.2,69.1,34.2,69.2,34.2c-0.2,0.1-0.3,0-0.3-0.1c0-0.1,0-0.2,0.1-0.2
		c1.4-1.5,3.1-2.6,4.5-3.9c1.3-1.2,2.6-2.3,4-3.3c0.1-0.1,0.2-0.1,0.4,0c0.2,0.1,0.3,0.3,0.2,0.5C75.8,30.2,72.7,32.6,69.2,34.2
		L69.2,34.2z"/>
</g>
<g id="Group_923_8_" transform="translate(54.365 40.949)">
	<path id="Path_14827_8_" class="st3" d="M70.4,33.3c-0.3,0.2-0.5-0.1-0.4-0.3c1-0.7,1.9-1.5,2.7-2.4c0.8-0.8,1.6-1.5,2.4-2.2
		c0.2-0.2,0.5,0.1,0.4,0.3C74.3,30.6,72.5,32.2,70.4,33.3L70.4,33.3z"/>
</g>
</svg>
