<?xml version="1.0" encoding="utf-8"?>
<!-- Generator: Adobe Illustrator 25.2.1, SVG Export Plug-In . SVG Version: 6.00 Build 0)  -->
<svg version="1.1" id="Layer_3" xmlns="http://www.w3.org/2000/svg" xmlns:xlink="http://www.w3.org/1999/xlink" x="0px" y="0px"
	 viewBox="0 0 200 200" style="enable-background:new 0 0 200 200;" xml:space="preserve">
<style type="text/css">
	.st0{fill:#DADADA;}
	.st1{fill:#F4F4F4;}
	.st2{fill:#EBEAEA;}
	.st3{fill:#FFE98A;}
	.st4{fill:#FDDD93;}
	.st5{fill:#FFECAE;}
	.st6{fill:#FFF9B6;}
	.st7{fill:#898E00;}
	.st8{fill:#FFFBDC;}
</style>
<g>
	<g>
		<path class="st0" d="M199.5,102.2c0,24.4-50,44.3-111.7,44.3c-61.7,0-111.7-19.8-111.7-44.3c0-24.5,50-44.3,111.7-44.3
			C149.5,58,199.5,77.8,199.5,102.2z"/>
		<path class="st1" d="M199.5,100c0,24.5-50,44.3-111.7,44.3c-61.7,0-111.7-19.8-111.7-44.3s50-44.3,111.7-44.3
			C149.5,55.8,199.5,75.6,199.5,100z"/>
		<path class="st2" d="M163.9,95.5c0,16.7-34.1,30.2-76.2,30.2c-42.1,0-76.2-13.5-76.2-30.2c0-16.7,34.1-30.2,76.2-30.2
			C129.8,65.3,163.9,78.8,163.9,95.5z"/>
		<path class="st1" d="M161.3,96c0,15.8-32.9,28.6-73.5,28.6c-40.6,0-73.5-12.8-73.5-28.6s32.9-28.6,73.5-28.6
			C128.4,67.4,161.3,80.2,161.3,96z"/>
	</g>
</g>
<path class="st2" d="M27.7,82.5C27.7,82.5,27.7,82.5,27.7,82.5C27.7,82.5,27.7,82.5,27.7,82.5C27.7,82.5,27.7,82.5,27.7,82.5z"/>
<path class="st2" d="M176,86.3l-0.9-0.6l-1.6,1.7l0.5,0.3C174.6,87.2,175.3,86.8,176,86.3z"/>
<g>
	<g>
		<path class="st3" d="M131.2,32.8c0,0,14.9-3.5,20.8-7.9c5.8-4.3,6.4-2.8,6.4-0.2c0,2.6-12.4,9-22,9.8
			C126.8,35.3,131.2,32.8,131.2,32.8z"/>
		<path class="st3" d="M147.3,57.1c0,0,16,2,19.8,13.1c3.8,11.2,3,14.8,3,14.8s1,1.7,2.5,1c1.6-0.7,1.7-1.8,1.6-5.9
			c-0.1-4.1-3.7-25.4-27.1-25.9L147.3,57.1z"/>
		<path class="st3" d="M137,53.7c0,0,17.2-2.1,26.7,4.9c9.5,7,10.9,10.5,10.9,10.5s1.8,0.8,2.7-0.6c0.9-1.5,0.3-2.5-2.1-5.8
			c-2.5-3.3-21.4-22.5-40.9-9.5L137,53.7z"/>
	</g>
	<g>
		<path class="st4" d="M157.9,22.4c0.2,0.9-0.6,2-1.7,2.8c-1.2,0.9-2.6,1.5-3.9,2.2c-2.2,1-4.4,2-6.7,2.9c-1.8,0.8-3.7,1.6-5.6,2.1
			c-0.8,0.2-2.1,0.5-2.6-0.4c-0.2-0.4-0.1-0.7,0.2-1.1c-3.6,1.1-6.3,1.7-6.3,1.7s-4.5,2.5,5.1,1.8c9.6-0.8,22-7.2,22-9.8
			C158.4,23.7,158.3,22.8,157.9,22.4z"/>
		<path class="st4" d="M174.2,80.1c-0.1-4.1-3.7-25.4-27.1-25.9l0.3,2.8c0,0,16,2,19.8,13.1c3.8,11.2,3,14.8,3,14.8s1,1.7,2.5,1
			C174.2,85.4,174.3,84.2,174.2,80.1z M172.4,83.5c-0.6,0.6-1.3-0.1-1.6-0.8c-0.7-1.9-0.6-4-0.9-5.9c-0.2-1.5-0.5-3-0.9-4.4
			c-0.8-2.1-1.8-4.2-3.3-5.9c-3.2-3.8-7.4-6.4-12-8.1c-0.7-0.2-1.7-0.2-2.3-0.6c-0.6-0.4,0.2-1.2,0.6-1.2c1.3-0.2,2.7,0.1,3.9,0.4
			c1,0.2,2.2,0.5,3.1,0.9c2,1,3.7,2.3,5.2,3.8c5,4.3,7.6,11.6,8.5,17.8C173.2,80.7,173.4,82.6,172.4,83.5z"/>
		<path class="st4" d="M175.1,62.8c-2.5-3.3-21.4-22.5-40.9-9.5l2.8,0.4c0,0,17.2-2.1,26.7,4.9c9.5,7,10.9,10.5,10.9,10.5
			s1.8,0.8,2.7-0.6C178.1,67,177.6,66,175.1,62.8z M174.5,67.3c-1-0.8-1.6-2-2.4-2.9c-1-1.1-2.1-2.1-3.2-3c-2.5-2-5.1-4-8-5.4
			c-2.2-1.1-4.5-1.9-6.9-2.5c-0.7-0.2-1.5-0.4-2.2-0.8c-1.1-0.4-2.1-1-1.3-1.7c0.8-0.7,2.2-0.3,3.1,0c1.9,0.5,3.7,1.2,5.5,2
			c3.7,1.7,7.5,3.7,10.6,6.4c2.2,2,5,4.6,5.4,7.7C175.1,67.4,174.7,67.5,174.5,67.3z"/>
	</g>
	<g>
		<g>
			<path class="st3" d="M22.7,102.8c0.8,5.9,8.2,9.6,19.6,7.9c6.4-1,12.4-3.4,16.5-5.4l-3.9-1.2c-3.3,1.8-7.5,3.7-11.9,4.4
				c-9.6,1.4-17.7-1.4-16.9-7.9c0.2-1.9,1-3.4,1.8-4.7l-1.9-0.6C24.4,96.6,22.2,99.1,22.7,102.8z"/>
			<path class="st3" d="M145.5,112.8c-8.6,12.8-40,11.5-53.6,6.6c-14.1-5.1-12.1-7.3-23.4-9.3c-11.4-2.1-24,5.2-34.2,6.6
				c-10.2,1.4-15.4-2.3-16.1-9.7c-0.5-5.4,4-10,6.5-12.1L21.8,94c0,0-7.9,3.1-7.9,11.9c0,8.8,7.5,14.4,19.2,14
				c11.7-0.4,23.7-9.6,34.3-6.9s17,12.1,40.5,13.4c23.6,1.3,42.2-8.1,44.1-13.6L145.5,112.8z"/>
		</g>
		<path class="st3" d="M17.5,92.2c0,0-5.4,0.1-12.8,2.4c-7.3,2.3-8.1,4.8-7.5,5.8c0,0,0.3,1,1.1,0.8c0.8-0.1,14.2-6.1,21.4-5.7
			c0,0,1.8,0.3,1.8-0.8S17.5,92.2,17.5,92.2z"/>
	</g>
	<g>
		<g>
			<path class="st4" d="M54.9,104.1c-3.3,1.8-7.5,3.7-11.9,4.4c-9.6,1.4-17.7-1.4-16.9-7.9c0.2-1.9,1-3.4,1.8-4.7l-1.9-0.6
				c-1.7,1.4-3.8,3.8-3.3,7.5c0.8,5.9,8.2,9.6,19.6,7.9c6.4-1,12.4-3.4,16.5-5.4L54.9,104.1z M32.3,110.1c-2,0-4-0.9-5.5-2.2
				c-0.9-0.5-1.6-1.2-2.3-2c-1.3-1.6-2-4.6-1.1-6.5c0.3-0.6,0.8-0.7,1.3-0.2c0.6,0.6,0.6,2,0.7,2.8c0.8,3.6,4.2,5.8,7,7.6
				C32.7,109.8,32.6,110.1,32.3,110.1z"/>
			<path class="st4" d="M145.5,112.8c-8.6,12.8-40,11.5-53.6,6.6c-14.1-5.1-12.1-7.3-23.4-9.3c-11.4-2.1-24,5.2-34.2,6.6
				c-10.2,1.4-15.4-2.3-16.1-9.7c-0.5-5.4,4-10,6.5-12.1L21.8,94c0,0-7.9,3.1-7.9,11.9c0,8.8,7.5,14.4,19.2,14
				c11.7-0.4,23.7-9.6,34.3-6.9s17,12.1,40.5,13.4c23.6,1.3,42.2-8.1,44.1-13.6L145.5,112.8z M42,116.6c0,0.1-0.1,0.2-0.2,0.4
				c-0.6,0.8-2.3,1-3.1,1.3c-2.9,0.9-6,1.2-9.1,1c-5.4-0.3-12.3-3.3-14-8.9c-0.5-1.6-0.8-3.7-0.6-5.4c0.2-1.7,0.5-3.5,1.2-5.1
				c0.2-0.6,2.5-4.8,3.6-2.8c0.3,0.7,0,1.4-0.4,2c-1.8,2.4-2.5,6.3-2.1,9.2c0.5,3.4,2.7,6.3,5.8,7.7c1.8,0.8,3.8,1.2,5.7,1.5
				c2.6,0.4,5.2-0.1,7.8-0.5c1.3-0.3,2.7-0.5,4-0.7C41.2,116.2,42.1,116.1,42,116.6z M124.8,124.7c-1.4,1-3.2,0.9-4.8,1
				c-2.5,0-4.9,0.3-7.4,0.3c-5.9,0-11.9-0.6-17.6-2.1c-4.2-1.1-8.4-2.4-12.4-4.1c-1.4-0.6-4.3-1.5-5.6-3c-0.6-0.4-1.2-0.8-1.6-1.3
				c-0.6-1,1.2-1.2,1.8-1.1c2.3,0.3,4.3,1.9,6.3,3c3,1.8,6.5,2.9,9.9,3.9c3.6,1.1,7.4,2,11.2,2.4c3.7,0.4,7.5,0.3,11.2,0.4
				c2.9,0,6.1-0.6,8.9,0.2C125,124.2,125,124.6,124.8,124.7z"/>
		</g>
		<path class="st4" d="M17.5,92.2c0,0-1.4,0-3.7,0.3c1,0.1,2,0.3,2.6,0.8c0.8,0.7-0.5,1.3-1,1.5c-1.5,0.4-3,0.5-4.5,0.7
			c-2.2,0.2-4.1,0.9-6.1,1.9c-1.2,0.6-2.4,1.2-3.6,1.6c-0.9,0.4-1.8,0.8-2.8,0.8c-1.2-0.1-0.8-1.2,0-2.3c-1.5,1.2-1.6,2.3-1.2,2.8
			c0,0,0.3,1,1.1,0.8c0.8-0.1,14.2-6.1,21.4-5.7c0,0,1.8,0.3,1.8-0.8S17.5,92.2,17.5,92.2z"/>
	</g>
	<path class="st5" d="M164.6,83.5c0,0,1.1-1.4,0-3.8c0,0,0.4-2.4-0.1-2.8c0,0,0.6-3.1-0.6-3.5c0,0,2.8-3.1,2-7.2
		c-0.8-4.1-8.1-8.8-20.9-2.7c0,0,0.2-0.1,0.5-0.4c-14.1,6.2-23.7,18.5-23.7,18.5C88,95.5,47.1,72.2,40.3,65.4
		c-6.8-6.8-14.9-6.6-14.9-6.6s-5.9,0-6.2,6.6c-0.3,6.6,7.8,16,7.8,16s-2-0.8-4.7-3.8c-2.7-3-3.8-4.8-5.4-2.4c0,0-2.4-0.6-2.8,3.3
		c-0.4,3.8,1,6.6,1,6.6s-1.7-1.7-2.3,0.8c-0.6,2.5,2.5,6.2,3.5,7.2c1,1,23.7,16.2,44.8,17.8c0,0,28.5,7.1,42.9,6.4
		c0,0,1.4,2.5,5.4,2.1c0,0,0,2.3,8.3,1.7c8.3-0.6,12.3-2.7,12.3-2.7s23-3,30.2-8.8c7.2-5.8,1.1-13.4,1.1-13.4S167.3,88.5,164.6,83.5
		z"/>
	<path class="st4" d="M164.6,83.5c0,0,1.1-1.4,0-3.8c0,0,0.4-2.4-0.1-2.8c0,0,0.6-3.1-0.6-3.5c0,0,2.8-3.1,2-7.2
		c-0.5-2.2-2.7-4.5-6.7-5.3c2.5,0.9,6,3,4.1,5.9c-0.1,0.2-0.4,0.2-0.5-0.1c-1.3-3.8-7.1-3.3-10.1-2.6c-3.4,0.8-6.6,2.2-9.7,3.9
		c-6.1,3.3-11.5,7.8-15.8,13.2c-1.3,1.6-2.1,3.5-3.3,5.2c-0.6,0.8-1.7,2.6-2.8,1.7c-1.1-0.8-0.4-3.3-0.1-4.3c0.3-1,0.8-1.9,1.2-2.8
		c-0.3,0.4-0.5,0.6-0.5,0.6c-4.4,1.8-8.9,3-13.5,3.7c-0.3,0-0.6,0.1-0.9,0.1c-0.2,0-0.4,0-0.5,0.1c-0.3,0-0.6,0.1-0.9,0.1
		c-0.2,0-0.4,0-0.6,0.1c-0.3,0-0.5,0.1-0.8,0.1c-0.2,0-0.4,0-0.7,0.1c-0.2,0-0.5,0-0.7,0.1c-0.2,0-0.5,0-0.7,0c-0.2,0-0.4,0-0.7,0
		c-0.3,0-0.5,0-0.8,0c-0.2,0-0.4,0-0.6,0c-0.3,0-0.6,0-0.8,0c-27.4,0.4-53.9-15.2-59.2-20.5c-6.8-6.8-14.9-6.6-14.9-6.6
		s-5.9,0-6.2,6.6c-0.2,4,2.7,8.9,5,12.2c0,0,0,0,0,0c0,0,0,0,0,0c0.6,0.8,1.1,1.5,1.5,2.1c0,0,0,0,0,0c0.1,0.1,0.1,0.2,0.2,0.2
		c0,0,0,0.1,0.1,0.1c0,0.1,0.1,0.1,0.1,0.2c0,0,0.1,0.1,0.1,0.1c0,0,0.1,0.1,0.1,0.1c0,0,0.1,0.1,0.1,0.1c0,0,0,0,0.1,0.1
		c0.3,0.4,0.5,0.6,0.5,0.6s-2-0.8-4.7-3.8c-2.7-3-3.8-4.8-5.4-2.4c0,0-2.4-0.6-2.8,3.3c-0.4,3.8,1,6.6,1,6.6s-1.7-1.7-2.3,0.8
		c-0.6,2.5,2.5,6.2,3.5,7.2c1,1,23.7,16.2,44.8,17.8c0,0,28.5,7.1,42.9,6.4c0,0,1.4,2.5,5.4,2.1c0,0,0,2.3,8.3,1.7
		c8.3-0.6,12.3-2.7,12.3-2.7s23-3,30.2-8.8c7.2-5.8,1.1-13.4,1.1-13.4S167.3,88.5,164.6,83.5z M148.9,68.5c2.7-2.2,13.2-3.6,11,2.5
		c-0.1,0.2-0.3,0.3-0.5,0.1c-2.4-2.3-5.5-2.3-8.5-2.3c-0.6,0-1.2,0.1-1.8,0.1C148.9,69,148.7,68.7,148.9,68.5z M134.2,81.1
		c3.3-5.1,8.1-10.1,14.4-11c0,0,0,0,0.1,0c2.1-0.5,4.4-0.5,6.4,0.3c2.1,0.9,3.4,3.5,1.9,5.4c-0.1,0.1-0.3,0.1-0.4,0
		c-3.2-3.2-7.8-2.7-11.7-1.2c-3.8,1.5-7.4,3.8-10.2,6.7C134.5,81.6,134.1,81.3,134.2,81.1z M134,84.8c1.8-3.7,5.9-7,9.8-8.2
		c0.1,0,0.1,0,0.2,0c1.5-0.6,3.1-1.1,4.7-1.1c1.8,0,4.3,0.1,5,2c0.1,0.2,0,0.4-0.2,0.4c-3.5,0.6-7.1,0.7-10.5,2.1
		c-3.1,1.3-6,3.1-8.6,5.1C134.1,85.4,133.9,85.1,134,84.8z M91.6,87.7c1.2-0.3,6,0.2,6.4,0.2c2.5-0.1,5-0.4,7.4-0.8
		c2.1-0.3,4-0.8,6-1.5c1.1-0.3,3.8-1.8,4.9-0.7c1.2,1.3-1.5,2.7-2.5,3.2c-3.4,1.6-7.1,2.3-10.7,2.4c-3.3,0.1-7.7,0.7-10.8-1.1
		C92.3,89.3,90.6,88,91.6,87.7z M80,90.5c2.5,0.1,5,0.9,7.5,1.3c3,0.5,6,0.9,9,0.9c5.7,0,13.5-0.8,19.7-2c0.3-0.1-2.3,1.2-2.6,1.3
		c-0.1,0-0.3,0.1-0.4,0.1c5.1-1.2,10.1-2.5,15.1-4c9.5-2.7,19.5-4.8,27.7-10.6c1.1-0.8,4.2-3.6,5.6-2c3.2,3.5-14.4,9.8-16.8,10.6
		c-4.1,1.5-8.3,2.8-12.6,4c-6.8,1.9-13.6,3.4-20.6,4.6c-3.4,0.6-6.8,1.1-10.1,1.6c-2.8,0.4-10.4,1-8.7-0.5c1.4-0.4,5.6-0.7,7.5-1
		c2.8-0.5,5.7-1.1,8.5-1.8c-8.3,1.4-19.3,2.7-27.2-1.1c-0.1-0.1-0.2-0.2-0.1-0.3c-0.5-0.2-1-0.5-1.6-0.8
		C79.6,90.9,79.7,90.5,80,90.5z M35.9,74.3c-1.3-1.3-2.4-2.6-3.3-4.1c-0.8-1.4-1.3-2.9,0.8-2.1c2.1,0.7,4.1,2.5,5.7,3.9
		c5.1,4.7,9.7,10,15.2,14.3c1.3,1.1,2.7,2.1,4.2,2.9c1.3,0.7,5.7,3,3.9,2.6c-0.4,0.3-1.5-0.2-2.2-0.4c-1-0.3-2-0.8-3-1.3
		C49.3,86.2,42,80.5,35.9,74.3z M54.1,92.3c-2,0-5.3-1.1-7.2-1.7c-2.3-0.7-4.6-1.8-6.9-2.8c-2.1-0.9-4.5-1.6-6.3-3.1
		c-1.2-1-2.4-3.3,0.2-3.1c2.7,0.2,4.9,1.9,7,3.5c2,1.5,4.2,2.6,6.5,3.6c0.9,0.4,1.9,0.8,2.8,1.3c0.8,0.4,2.4,1.6,3.2,1.6
		C53.4,91.7,54.1,92.3,54.1,92.3z M57.7,84.9c-0.2-0.2,0.2-0.5,0.4-0.4c8.6,6.1,19.4,7.4,29.3,10.2c0.3,0.1,0.3,0.5,0,0.5
		c-4.5,0.7-9.7,0.1-14.1-1.1c-2.1-0.6-4.1-1.5-6-2.5C63.7,90.5,59.9,88.1,57.7,84.9z M87.2,100c2.5-0.2,5,0.1,7.5,0
		c2.7,0,5.4-0.3,8.1-0.6c5.6-0.6,11.3-1.2,16.9-2.1c5.4-0.9,10.8-2.1,16.1-3.4c4.4-1.2,8.6-3.3,13.3-3.7c0.3,0,0.4,0.3,0.2,0.5
		c-1.7,1.6-4.2,2.5-6.3,3.5c-2.5,1.1-4.9,2.1-7.5,2.9c-5.5,1.7-11,3-16.6,3.9c-5,0.8-10.1,1.8-15.2,2.2c-4.6,0.4-9.2,0.3-13.6-1.2
		c-1.1-0.3-2.1-0.7-3-1.5C86.8,100.3,87,100,87.2,100z M24.6,65.4c-1.2,2.3,0.6,4.7-0.2,7c-3.5-2.2-4.8-8.2-1.4-11.2
		c4.1-3.6,10.7,0,14.1,2.7c5.6,4.3,10.2,9,16.4,12.4c3.6,2,7.3,3.6,11.1,5.1c1.9,0.7,3.8,1.4,5.7,2.2c1.2,0.5,4.5,1.3,4.9,2.5
		c0.1,0.3-7-0.2-7.6-0.4c-2.8-0.6-5.5-1.5-8.1-2.7c-5.2-2.4-9.9-5.6-14.4-9.1c-2.3-1.8-4.5-3.6-6.7-5.5c-2.2-1.9-4.6-3.9-7.5-4.7
		C28.7,63,25.8,62.9,24.6,65.4z M26.8,67.3C26.8,67.3,26.8,67.3,26.8,67.3c1.5-0.6,4.2,3.9,4.9,4.9c3.2,4,6.8,8,11.1,11.1
		c1.4,0.8,2.7,1.7,4.1,2.5c0.3,0.2,0,0.7-0.3,0.5c-2.4-1.2-5.2-2.2-7.5-3.6c-4.4-2.7-9-5.9-11.7-10.6C26.9,71.3,25.3,67.9,26.8,67.3
		z M19.5,76.9c1.2,0.4,2.1,1.8,3,2.8c3.4,2.8,7.1,5.2,11.1,7.2c4.9,2.4,10.1,4,15.3,5.5c5.7,1.7,11.4,3.4,17.4,4.1
		c5.4,0.6,10.8,1,16.2,1c0.4,0,0.4,0.5,0,0.6c-9.1,1.6-15.9,0.3-23.7-1c-1.3-0.2-2.7-0.5-4-0.7c0,0-0.1,0-0.1,0
		c-9.1-1.6-18.8-3.5-26.6-8.7c-2.6-1.7-5.2-3.6-7.4-5.8c-0.8-0.8-2.4-2.5-2-3.8c0,0,0-0.1,0-0.1C18.3,77.3,18.8,76.7,19.5,76.9z
		 M39.6,96.3c2.3,1.6,4.9,2.7,7.3,4.2c0.3,0.2,0.1,0.6-0.2,0.5c-3-1-6.1-2.2-8.8-3.9c-0.1,0-0.1,0-0.2,0c-1.5-0.9-3.7-2.2-3.8-4.2
		c0-0.2,0.2-0.3,0.4-0.3C36.3,93.5,37.8,95.1,39.6,96.3z M37.2,103.5c-1.9-0.5-3.7-1.2-5.4-2.1c-3.5-1.5-6.9-3.2-10.1-5.3
		c-2.7-1.8-7.2-4.6-7.2-8.2c0-0.2,0.2-0.3,0.4-0.3c0.1,0,0.1,0,0.1,0c0.1-0.1,0.2-0.1,0.3,0c0.8,0.6,1.3,1.4,1.9,2.1
		c0.7,0.8,1.5,1.6,2.3,2.3c1.7,1.5,3.6,2.9,5.5,4.2c2.3,1.6,4.6,3.3,7.1,4.5c1.8,0.7,3.5,1.4,5.3,2.1
		C37.7,103.1,37.6,103.6,37.2,103.5z M65.9,110.7c-3.9-0.5-7.8-1.8-11.6-3.1c-3.4-1.1-6.1-1.6-9.4-3c-5.9-2.4-10.2-5.1-14.9-7.8
		c-3.1-2.1-6.1-4.6-8.7-7c-2.6-2.3-5.4-5-6.1-8.5c-0.1-0.6-0.2-2.5,0.8-2.4c1,0.1,1.8,1.6,2.2,2.2c0.8,1.2,1.5,2.5,2.4,3.7
		c1.9,2.6,4.2,5.1,6.6,7.3c2.7,2.4,5.5,4.5,8.6,6.4c2.3,1,4.5,2.4,6.8,3.4c6.6,2.8,13.4,4.7,20.2,6.9c1,0.3,3.7,0.7,4.3,1.6
		c0.1,0.1,0.1,0.2,0.1,0.3C67.2,111,66.3,110.8,65.9,110.7z M62.5,104c-3-0.7-6-1.6-8.9-2.7c0,0.1-0.2,0.2-0.3,0.2
		c-3.8-1.5-7.6-2.8-11-5.1c-0.3-0.2-0.1-0.6,0.2-0.5c3.3,1.1,6.4,2.2,9.8,2.8c6.2,1.1,12.2,2.7,18.2,4.4c2.3,0.6,4.6,0.9,6.9,1.6
		c1.1,0.3,6.6,2.2,2.7,2.5c-2.5,0.2-4.9-0.4-7.4-0.9C69.3,105.6,65.9,104.8,62.5,104z M103.1,114.8c-1.9,0.4-3.7,0.6-5.6,0.5
		c-3.5,0.2-7.2-0.3-10.6-0.8c-3.2-0.4-6.4-1-9.5-2.1c-0.9-0.3-1.9-0.6-2.7-1c0,0,0,0,0,0c0,0-0.1,0-0.1-0.1
		c-0.3-0.1-0.1-0.5,0.1-0.5c4.8,0.2,9.4,1.5,14.2,2.1c4.7,0.6,9.5,0.7,14.3,1.3C103.3,114.3,103.4,114.8,103.1,114.8z M91,111.2
		c-3.8-0.2-8-0.3-11.3-2.3c-0.3-0.2-0.1-0.6,0.2-0.5c4.4,0.8,9.1,0.1,13.5-0.2c4.4-0.3,8.8-0.7,13.2-1.1c5.2-0.6,10.3-1.1,15.5-1.9
		c4.1-0.8,8.3-1.7,12.4-2.6c0.3-0.1,0.5,0.4,0.2,0.5c-4.1,2.3-8.4,4.2-12.9,5.6c-4.7,1.4-9.4,2.1-14.2,2.4
		C102,111.4,96.5,111.5,91,111.2z M126.7,116.7c-2.4,0.7-4.8,1.4-7.2,2c-0.9,0.2-2,0.5-3.1,0.5c-1.5,0.3-3,0.4-4.3-0.5
		c-0.2-0.1-0.2-0.4,0.1-0.5c9-2.6,18-6,26.2-10.6c3.9-2.2,7.5-4.9,11.1-7.5c2.6-1.9,5.2-3.8,7.4-6.1c0-0.1,0-0.2,0.1-0.3
		c1.1-1.1,2-2.4,3.2-3.5c0.2-0.2,0.6,0.1,0.4,0.3c0,0,0,0,0,0.1c0,0,0,0,0,0c0.6,1.3-0.2,2.9-0.9,4c-1,1.6-2.2,3.2-3.5,4.6
		c-3.9,4.1-8.5,7.6-13.4,10.4C137.7,112.6,132.3,114.9,126.7,116.7z M157.1,109.2c-2.9,1.7-6,2.7-9.2,3.6c-1.9,0.5-4.6,1.7-6.6,0.8
		c-0.2-0.1-0.1-0.4,0.1-0.5c4.2-1.7,8.7-2.9,12.6-5.2c1.3-0.8,2.8-1.5,3.9-2.6c0.5-0.6,1-1.2,1.1-2c0.2-0.9-0.3-1.9-0.1-2.8
		c0.1-0.7,0.5-1.1,0.9-1.7c0.1-0.1,0.3-0.2,0.4-0.1C164.5,101.8,160.3,107.3,157.1,109.2z M162.7,85.6c-1.3,3.3-4.6,5.2-7,7.7
		c-1.7,1.7-4.4,3.4-6.2,5c-4.6,3.8-9.6,7.1-14.9,9.8c-5.6,2.8-11.2,5.4-17.2,7.3c-2.1,0.6-4.1,1.4-6.2,1.9c-1.6,0.4-3.5,0.7-5-0.1
		c-0.2-0.1-0.2-0.5,0.1-0.5c5.1-1.4,10.4-2.3,15.4-4.4c4.8-2,9.3-4.5,13.7-7.2c6.1-3.6,12.6-7.5,17.9-12.3c2.5-2.3,4.9-5.2,7-7.9
		c0.5-0.7,1.5-2.7,2.5-2.6c0.2,0,0.3,0.1,0.3,0.3C163.2,83.7,163,84.6,162.7,85.6z"/>
	<path class="st3" d="M40.3,65.4c6.8,6.8,47.7,30.1,81.4,16.2c0,0,9.6-12.4,23.7-18.5c1.4-1.2,5.4-5.1,3.9-8.9
		c-1.6-4.2-3.3-4.4-3.6-4.4c0,0-0.1,0-0.1,0s0,0,0.1,0c0.7,0,7.4-0.4,9-1.7c1.7-1.4,0.7-3.3-0.1-4c0,0,3.5-1,2.7-2.5
		c-0.8-1.6-5.1-3.2-13.8-2.4c0,0,1.6-0.1,1.6-3.3c0-3.1-4.4-1.6-6.9-1.8c-11.7,0.1-22.3,9.3-25.6,13c-3.2,3.7-5.2,8.8-14.1,9
		c-8.9,0.3-13.1-5.4-13.1-5.4c-8.1-0.1-15.3-2.5-26.6-5.1c-11.3-2.5-24.3,0.8-24.3,0.8c-1,0.2-1.9,0.3-2.7,0.4
		c-3.2,1-9.9,3.5-14.3,7.2c-5.9,5.1-4.5,11.2-2.3,10c2.3-1.1,7.3-9.5,11.6-10.6c0,0-1.6,2.3,0.4,3c0,0-1.7,1-1.7,2.3
		C25.4,58.8,33.5,58.6,40.3,65.4z"/>
	<path class="st4" d="M157.2,41.6c-0.8-1.6-5.1-3.2-13.8-2.4c0,0,1.6-0.1,1.6-3.3c0-2-1.9-2.1-3.9-1.9c0,0.1-0.1,0.1-0.2,0.1
		c0,0,0,0-0.1,0c0.4,0.2,0.8,0.4,1.1,0.7c0.8,0.8-0.1,1.8-0.9,2.2c-1.6,0.6-3.5,0.7-5.2,0.9c-3.3,0.4-6.7,0.5-10,1.2
		c-0.3,0.1-0.5-0.3-0.2-0.5c3.5-2.4,7.5-3.7,11.6-4.5c-11.4,0.6-21.5,9.4-24.7,13c-3.2,3.7-5.2,8.8-14.1,9
		c-8.9,0.3-13.1-5.4-13.1-5.4c-8.1-0.1-15.3-2.5-26.6-5.1c-11.3-2.5-24.3,0.8-24.3,0.8c-0.8,0.2-1.5,0.3-2.1,0.3
		c0.6,0,1.3,0,1.8,0.3c0.2,0.1,0.2,0.4,0,0.5c-4,2.4-8.4,3.8-12.1,6.5c-3.5,2.5-6.7,5.6-8,9.8c0.3,0.3,0.8,0.4,1.2,0.2
		c2.3-1.1,7.3-9.5,11.6-10.6c0,0-1.6,2.3,0.4,3c0,0-1.7,1-1.7,2.3c0,0,8.1-0.2,14.9,6.6c6.8,6.8,47.7,30.1,81.4,16.2
		c0,0,9.6-12.4,23.7-18.5c1.4-1.2,5.4-5.1,3.9-8.9c-1.6-4.2-3.3-4.4-3.6-4.4c0,0-0.1,0-0.1,0s0,0,0.1,0c0.7,0,7.4-0.4,9-1.7
		c1.7-1.4,0.7-3.3-0.1-4C154.5,44.1,158.1,43.1,157.2,41.6z M119.1,43c0.5-0.5,1-0.9,1.5-1.2c0,0,0-0.1,0.1-0.1
		c1.3-0.7,2.9-1.2,4.3-0.6c0.1,0.1,0.1,0.3,0,0.3c-1.7,1.1-3.8,1.3-5.7,1.8C119.1,43.4,118.9,43.1,119.1,43z M114.5,46.8
		c3.2-2.7,7.8-3.2,11.7-3.9c4.8-0.9,9.5-2.1,14.4-2.9c0,0,0.1-0.1,0.1-0.1c0.6-0.1,1.1-0.2,1.7-0.2c0.3,0,0.6-0.1,0.9-0.1
		c0.1,0,0.1,0,0.2,0c1.2-0.1,2.4-0.2,3.6-0.1c1.6,0.1,3.8,0.2,4.7,1.8c0.1,0.2,0,0.4-0.2,0.4c-3,0.7-6.1,0.6-9.2,0.9
		c-3.5,0.4-7,0.9-10.5,1.7c-3.1,0.7-6,1.6-9,2.4c-2.7,0.7-5.4,1.2-8.2,0.6C114.4,47.3,114.4,47,114.5,46.8z M113.9,57.5
		c0,0,0.1-0.1,0.1-0.1c3.9,0.4,7.4-0.4,11.2-1.5c1.9-0.5,4-1.7,6.2-2.9c0.6-0.3,1.5-0.1,1.4,1.1c-0.2,1.6-1.8,2.6-2.6,3.1
		c-1.5,0.9-3,1.5-4.6,1.8c-2.1,0.4-4.3,0.5-6.5,0.2c-1.7-0.2-3.5-0.3-5.1-1.2C113.7,58,113.7,57.5,113.9,57.5z M101.1,60.3
		c2.3,0.3,4.6,0.9,6.9,1.1c2,0.2,4,0.2,6,0.1c3.4-0.1,6.8-0.2,10.1-0.6c5.1-0.6,11-2.2,13.7-6.8c0.3-1,0.8-1.8,1.6-0.6
		c0.8,1.2-0.5,3.5-1.2,4.4c-2.1,2.8-6.2,3.9-9.5,4.6c-5.4,1.1-10.9,1.2-16.4,0.9c-2.7-0.2-5.4-0.4-8-0.9c-1.3-0.3-2.8-0.5-3.6-1.7
		C100.6,60.5,100.9,60.3,101.1,60.3z M88.9,55.7c1.1-0.1,2.5-0.2,3.4,0.5c0.2,0.2,0.2,0.4-0.1,0.5c-3.4,1.4-7,1.6-10.5,2.4
		c-2.6,0.5-5.6,1.1-7.9-0.5c-0.2-0.1-0.2-0.4,0.1-0.5c3.8-1.5,7.9-1.7,12-1.9C86.8,56,87.8,55.8,88.9,55.7z M76.7,51.1
		c2.3,0.1,9.2,0.8,8.2,2.2c-0.7,1-4.6,1.2-5.8,1.5c-2.1,0.4-4.2,0.9-6.3,1.3c-1.3,0.2-8.4,1.7-5.9-1.8c1.9-2.8,6-3.2,9.1-3.2
		C76.1,51,76.4,51,76.7,51.1z M41.6,47.1c1.2-1.3,3.3-1.5,5-1.7c2.7-0.4,5.5-0.4,8.2,0c4.8,0.7,9.8,2.3,13.6,5.3
		c0.2,0.2,0.2,0.5-0.1,0.5c-4.4,0.2-8.4-1.3-12.6-2.3c-4.4-1-8.8-1.4-13.3-1.3c-0.1,0.1-0.2,0.1-0.3,0.1c-0.1,0-0.3-0.1-0.4-0.1
		C41.5,47.5,41.5,47.3,41.6,47.1z M28.2,55C28.2,55,28.2,55,28.2,55c-0.1,0.1-0.2,0.1-0.3,0.2c-0.1,0.1-0.3,0-0.3-0.1
		c-0.2,0-0.3-0.2-0.3-0.4c1.3-3.5,6.1-4.3,9.3-4.5c5.1-0.4,10.7,0.7,15.3,3c0.3,0.1,0.1,0.5-0.1,0.5C43.9,53.1,35.7,51.1,28.2,55
		C28.3,55,28.3,55,28.2,55z M28.6,57.7c-0.1-0.1-0.2-0.3-0.1-0.4c0,0,0-0.1,0.1-0.1c0-0.1,0-0.1,0.1-0.1c0.2-0.3,0.4-0.4,0.7-0.6
		c0.1-0.1,0.3,0,0.3,0.1c6.2-2.9,13.1-2.7,19.8-1.6c3.9,0.7,7.8,1.6,11.6,2.6c2.6,0.6,5.4,1,8,1.9c5.1,1.2,10.1,3.3,14.6,5.8
		c3,1.7,6,3.6,9.1,5.2c2.4,1.2,4.7,2.4,7.1,3.6c1.6,0.6,3.3,1.2,5,1.6c1.9,0.5,3.7,0.9,5.5,1.5c0.2,0.1,0.3,0.5,0,0.5
		c-8.3,1.2-16.5-2.8-22.7-7.8c-1.4-1.1-2.8-2.3-4.3-3.2c-3.3-2-7-3.3-10.7-4.4c-4-1.2-8.2-2.1-12.3-2.8c-7.9-1.3-15.4-2.1-23.3-1
		C34.2,58.7,31.2,59.1,28.6,57.7z M110.1,80.6c-5.7,1-14.8,0.9-17.9-5c-0.1-0.3,0.1-0.5,0.4-0.4c3.1,1.4,6.3,2.8,9.7,3.4
		c2.6,0.4,5.3,0.7,7.9,1.5C110.3,80.2,110.4,80.6,110.1,80.6z M73.1,78.9c-5.4-0.9-14.5-1.2-16.6-7.5c-0.1-0.3,0.2-0.4,0.4-0.3
		c2.1,1,4.2,2.3,6.4,3.1c0.2,0.1,0.2,0.2,0.2,0.4c3.2,1.4,6.5,2.5,9.7,3.9l0,0c0,0,0,0,0.1,0C73.6,78.6,73.4,79,73.1,78.9z
		 M61.1,71.3c3.7-1.5,8.6,0.4,10.7,3.7c0.1,0.2-0.1,0.5-0.3,0.4c-1.3-0.5-2.6-0.9-4-1.4c-0.1,0.1-0.2,0.1-0.4,0.1
		c-2-0.9-4-1.5-6.1-2.2C60.9,71.8,60.9,71.4,61.1,71.3z M78.2,81.4c-0.2,0.2-0.5,0-0.5-0.2c-0.6-8.7-9-11.2-16.4-12.2
		c-4.1-0.3-8.2,0.4-12.2-0.1c-0.2,0-0.3-0.4-0.1-0.5c3.8-1.7,8.1-2.1,12.2-1.7c3.5,0.3,7.1,0.9,10.2,2.4
		C75.8,71.1,82.9,76.3,78.2,81.4z M89.2,81.4c-0.4,1.3-0.1,2.5-1.7,2.3c-2.2-0.2-2.1-4.5-2.5-6.2c-1.4-5.7-4.5-8-9.9-10.2
		c-5.5-2.2-12-3.2-17.9-3.8c-3.7-0.4-7.5-0.4-11.2-0.2c-0.8,0-9.5,0.3-6.9-1.2c2.5-1.4,5.2-1.4,8.8-1.4c4,0,7.8,0.8,11.7,1
		c3.7,0.2,7.4,0.7,11,1.4c4.2,0.8,8.5,2.6,12.1,5C87,70.9,90.8,75.8,89.2,81.4z M116.3,81.8c0,0.2,0,0.4-0.2,0.6
		c-0.9,1.3-4.5,1.5-5.9,1.7c-2.4,0.4-4.8,0.5-7.1,0.7c-3.6,0.2-8.4,0.9-11.4-1.6c-0.1-0.1-0.1-0.2-0.1-0.3c1-2.3,5.4-1.1,7.3-0.9
		c3.7,0.5,7.4,0.4,11.1,0c1.3-0.1,2.7-0.2,4-0.3C114.8,81.6,116.2,81.2,116.3,81.8z M131.6,69.6c-1.5,1.1-2.9,2.2-4.6,3
		c-1.6,0.7-3.2,0.9-4.9,1.1c-4.2,0.4-8.4,0.3-12.5-0.5c-4.2-0.8-8.2-2.2-12.2-3.7c-2.5-1-5.7-1.6-7.6-3.6c-0.2-0.2,0-0.5,0.3-0.5
		c2.4,0.5,4.6,1.4,6.9,2.2c0.2,0.1,0.2,0.2,0.2,0.4c4.8,1.5,9.7,2.5,14.7,3c6.5,0.8,13.4,0.7,19.6-1.8
		C131.7,69,131.9,69.4,131.6,69.6z M145.8,57c-0.7,2.2-2.2,3.8-4,5.3c-2.1,1.6-4.2,2.9-6.6,3.8c-2.2,0.9-4.5,1.9-6.9,2
		c-0.3,0.1-0.7,0.1-1,0.2c-6.1,1-12.8,0.9-18.9-0.2c-5.4-0.9-11.9-1.8-16.4-5.1c-0.8-0.6-3.2-2.3-1.8-3.3c1-0.8,2.7,0.4,3.6,0.9
		c1.3,0.8,2.6,1.4,4.1,1.9c1.5,0.4,2.8,1.2,4.3,1.6c4.4,1.3,9.2,1.7,13.7,2c4.2,0.3,8.4,0.2,12.5-0.9c3.3-0.9,6.4-2.1,9.5-3.6
		c0.4-0.3,0.9-0.7,1.3-1c1.5-1.3,3-2.8,4-4.5c0,0,0-0.1,0-0.1c0.4-1.2,0.5-2.5,1.1-3.7c0.1-0.1,0.3-0.2,0.4-0.1
		C146.1,53.2,146.3,55.4,145.8,57z M144.7,48c-3,0.5-6,1.2-9,1.8c-3,0.6-5.9,1.2-8.9,1.7c-3.1,0.6-6.3,1.1-9.4,1.8
		c-2.6,0.5-5.3,1-8,1.2c-0.3,0-0.4-0.2-0.2-0.4c2-1.1,4.3-1.9,6.7-2.6c2.6-0.8,5.2-1.5,7.9-2.1c3-0.7,6-1.2,8.9-1.9
		c1.4-0.3,2.7-0.6,4.1-0.9c0,0,0.1,0,0.1,0c3.1-0.5,6.1-1.1,9.3-1.4c1.3-0.1,2.7-0.2,4-0.1c0.6,0,1.3,0.1,1.6,0.4
		C153.3,46.8,145.5,47.9,144.7,48z"/>
	<path class="st5" d="M58.6,45.7c11.3,2.5,18.5,4.9,26.6,5.1c0,0,4.2,5.7,13.1,5.4c8.9-0.3,10.9-5.4,14.1-9
		c3.2-3.7,13.8-12.9,25.6-13c0,0-1.7-3.1-7.5-3.1c0,0,1.7-1.7-0.8-4.7c-2.5-3-10.5-3.7-17-0.6c0,0,3.4-5.9,13.7-6.8
		c10.3-0.8,11.6,1.7,13.1,0.1c1.6-1.6-1.8-4.4-8.1-4c-6.2,0.4-20.3,4-28.3,13.4c0,0-8.1-6.4-24.5-3.7c0,0-13.7-9.2-23.2-10.2
		c-9.4-0.9-10.5,1.9-9,3c0,0,0.4,0.4,3.1,0.1c2.7-0.3,14.5,0.3,19.5,9.3c0,0-5.7-5.2-12.9-4.1C49,24.2,44.4,28,40.8,33.7
		c0,0-7.5-0.8-10.3,1.8c-2.8,2.7-1,4.4,1.1,4.5c0,0-2.4,1.8-2.5,3.5c-0.1,1.7,1,2.8,4.4,2.8c0,0-0.7,0.2-1.8,0.5
		c0.8-0.1,1.7-0.2,2.7-0.4C34.3,46.5,47.3,43.1,58.6,45.7z"/>
	<path class="st4" d="M136.8,15.7c0.1,0.2,0.1,0.4,0.1,0.7c0,1.7-2.4,1.1-3.4,1c-3.6-0.3-7.3-0.2-10.9,0.9c-5.7,1.7-10,5.6-14.8,8.9
		c-1,0.7-2.5,1.9-3.8,1.8c-0.4,0-0.6-0.2-0.7-0.5c0,0,0,0-0.1,0.1c0,0-8.1-6.4-24.5-3.7c0,0-7.7-5.2-15.6-8.2c0.7,0.4,1.3,0.7,2,1.1
		c2.9,1.7,5.5,3.9,8.2,6c1.6,1.3,3.4,2.3,5.1,3.4c1,0.7,2.2,1.2,3.1,2.1c0.2,0.2,0.1,0.5-0.2,0.5c-3.7-0.1-7-2.3-9.8-4.5
		c-3.2-2.5-6.2-5.4-10-7.1c-2.3-1-4.6-1.6-7.1-1.6c-1.8,0-3.8,0.4-5.5,0.1c-0.8-0.1-1.8-0.5-2.3-1.1c-0.9,0.7-0.8,1.5-0.1,2.1
		c0,0,0.4,0.4,3.1,0.1c2.7-0.3,14.5,0.3,19.5,9.3c0,0-5.7-5.2-12.9-4.1C49,24.2,44.4,28,40.8,33.7c0,0-7.5-0.8-10.3,1.8
		c-2.8,2.7-1,4.4,1.1,4.5c0,0-2.4,1.8-2.5,3.5c-0.1,1.7,1,2.8,4.4,2.8c0,0-0.7,0.2-1.8,0.5c0.8-0.1,1.7-0.2,2.7-0.4
		c0,0,13-3.4,24.3-0.8c11.3,2.5,18.5,4.9,26.6,5.1c0,0,4.2,5.7,13.1,5.4c8.9-0.3,10.9-5.4,14.1-9c3.2-3.7,13.8-12.9,25.6-13
		c0,0-1.7-3.1-7.5-3.1c0,0,1.7-1.7-0.8-4.7c-2.5-3-10.5-3.7-17-0.6c0,0,3.4-5.9,13.7-6.8c10.3-0.8,11.6,1.7,13.1,0.1
		C140.6,18.1,139.5,16.5,136.8,15.7z M85.5,25.1c2.8-0.9,5.8-0.4,8.6,0.3c2.6,0.6,5.4,1.2,7.7,2.8c0.1,0.1,0.2,0.2,0.1,0.4
		c-1.1,2.1-4,1.4-5.8,0.9c-3.5-1.1-6.9-2.7-10.5-3.8c-0.1,0-0.1-0.1-0.1-0.1C85.3,25.5,85.3,25.2,85.5,25.1z M110,35.9
		c-2.6,1.1-5.6,2.1-8.4,1.3c-0.2-0.1-0.3-0.4-0.1-0.5c0.8-0.6,1.7-1,2.6-1.4c0.9-0.5,1.8-1.1,2.8-1.7c2.4-1.4,4.9-2.8,7.4-3.9
		c3.1-1.3,9.2-3.7,11.2,0.6c0.1,0.2-0.1,0.5-0.3,0.4c-3.7-0.7-7.4,2-10.7,3.2c-0.2,0.1-0.4,0.1-0.6,0.2
		C112.5,34.7,111.3,35.3,110,35.9z M113.7,36.8c-0.3,1.2-1.1,2-1.9,2.9c-1,1.2-2.2,3-4,2.9c-1-0.1-3.6-0.6-3.5-2
		c-0.1-0.7,1.4-1.4,1.8-1.6c2.2-1.2,4.8-2.3,7.3-2.6C113.6,36.5,113.7,36.7,113.7,36.8z M105.7,47.5c-1.2,0.3-2-0.9-2.7-1.9
		c-1-1.4-1.7-2.9-2.7-4.2c-1.6-2.2-3.2-4.6-5.3-6.5c-2.7-2.4-6.3-3.7-9.1-5.9c-0.2-0.2,0-0.6,0.3-0.5c1.9,0.7,4,1,5.9,2
		c2.9,1.5,5.4,4,7.5,6.4C100.4,37.8,108.4,46.9,105.7,47.5z M85.5,42.5c2.7-0.1,5.3,1.1,7.9,1.6c1.7,0.3,3.4,0.1,5.1,0.5
		c0.9,0.2,3.7,2.3,1.4,2.7c-1.4,0.2-3.2-0.5-4.6-0.6c-2.9-0.2-5.3-0.6-7.8-2.1c-0.5-0.3-2.6-1.1-2.5-1.8
		C85.1,42.6,85.3,42.5,85.5,42.5z M80.6,37.3c-0.1-0.2,0.1-0.4,0.3-0.3c0.5-1,4.8,0.6,5.2,0.8c2.4,0.8,4.9,1.6,7.3,2.5
		c1.3,0.5,3,0.8,3.8,2c0.1,0.2-0.1,0.5-0.3,0.4c-3.7-0.6-7.6-1.1-11.2-2.1C83.8,40.1,81.3,39.4,80.6,37.3z M90.2,47.6
		c0.9-0.4,1.9,0.1,2.8,0.4c1.1,0.3,2.3,0.4,3.5,0.4c1.9-0.1,3.8-0.3,5.7,0c0.2,0,0.4,0.3,0.2,0.5c-2.8,2.4-6.7,2.1-9.8,0.6
		C92.5,49.3,89.7,47.8,90.2,47.6C90.2,47.6,90.2,47.6,90.2,47.6z M96.5,32c-1.5-0.3-2.9-1.5-4.2-2.4c-0.2-0.1-0.1-0.3-0.1-0.4
		c0-0.2,0.1-0.3,0.4-0.3c1.2,0.2,2.4,0.5,3.6,0.8c0.6,0.2,2,0.6,2,1.4C98.3,32.1,97.1,32.1,96.5,32z M74.4,30.1
		c0-0.1,0.1-0.2,0.1-0.3c0.8-1.1,3.6,0.4,4.5,0.7c2.2,0.8,4.4,1.6,6.7,2.2c1.5,0.4,3,0.6,4.4,1.3c0.7,0.3,1.4,0.8,1.9,1.4
		c0.5,0.6,0.6,1.2-0.3,1.6c-0.9,0.4-1.8-0.2-2.6-0.4c-4.2-1.5-8.8-1.1-12.5-4C76.1,32.1,74.2,31,74.4,30.1z M72.8,41
		c0.2,0.2,0,0.6-0.3,0.5c-1.6-0.5-3-1.5-4.5-2.3c-1.7-0.9-3.6-1.6-5.5-2.2c-1.9-0.7-3.9-1.3-6-1.6c-1-0.2-2.1,0-3.1-0.2
		c-0.1,0-0.2-0.1-0.2-0.2c-0.1-0.1-0.1-0.3,0-0.4c2.3-2.1,6.8-1.2,9.5-0.5C67.1,35,70.1,37.5,72.8,41z M52.9,32.2
		c-1.6,0.9-3.3,2.1-5.1,1.2c-0.2,0.2-0.6-0.1-0.4-0.4c3.8-4.6,10.5-4.5,15.6-2.3c0.3,0.1,0.2,0.6-0.2,0.5
		C59.5,30.6,55.9,30.5,52.9,32.2z M44.1,30c2.1-2.8,5.6-4.4,9-5.2c4.8-1.1,12.7-1,15.5,4c0.1,0.2-0.1,0.5-0.3,0.4
		c-4.4-1.8-9.1-3.3-13.8-2c-3.9,1.1-6.9,3.7-10.1,6c0,0.1,0,0.3-0.2,0.3C41.6,33.8,43.4,30.9,44.1,30z M30.5,38.7
		c-0.7-0.9-0.3-1.9,0.4-2.6c2-2.5,6.2-1.7,9-1.6c4.4,0.2,9.5,0.1,13.2,2.8c0.2,0.2,0.2,0.5-0.1,0.5c-5.8,0.3-12.1-0.9-17.7,1
		C33.9,39.2,31.5,40.1,30.5,38.7z M75,47.9c-4.5-0.7-8.5-2.4-12.9-3.7c-3-0.9-6-1.3-9.1-1.7c-5.1-0.3-10.1,0-15,1.5
		c-1.8,0.6-5.2,1.9-6.9,0.5c-2.1-1.7,0.4-3.5,2-4.3c0.1,0,0.1,0,0.2,0c3.7-2.2,8.8-2,12.9-1.8c1.8,0.1,3.7,0.4,5.5,0.7
		c8.3,1,16.2,4.4,23.5,8.3C75.5,47.5,75.3,47.9,75,47.9z M131.2,32.8c0.2,0.1,0.1,0.5-0.1,0.5c-3.7,1.1-7.6,2-10.8,4.3
		c-3.4,2.4-6.2,5.7-8.9,8.8c-1.9,2.1-3.8,4.2-6.1,5.9c-1.7,1.2-3.7,2.4-5.9,2.3c-11.7,1.8-20.3-14.2-26.5-22c0,0,0,0,0,0
		c0,0,0,0,0,0c-0.3-0.2,0-0.7,0.3-0.5c2.5,1.4,4.3,3.7,6.1,5.9c2,2.4,4.2,4.6,6.5,6.8c2.3,2.2,4.4,4.8,7.1,6.5
		c1.8,1.2,3.7,1.7,5.7,1.5c1.3-0.4,2.6-0.8,3.7-1.6c1.7-1.3,3.3-2.7,4.8-4.2c2.7-2.8,5.1-5.9,8-8.5c2.4-2.2,5.2-4.1,8.3-5.1
		C125.8,32.4,128.7,31.7,131.2,32.8z M113.9,25.7c3.9-1.4,8.8-2.3,12.5,0.1c0.3,0.2,0.1,0.6-0.2,0.5c-6.7-1.5-12.8,1.8-18.4,5.1
		c-2.3,1.4-7.2,5.7-9.5,2.5c-0.3-0.1-0.3-0.5,0-0.5c2.9-0.5,5.3-2.3,7.8-3.8C108.5,28,111.2,26.6,113.9,25.7z"/>
	<path class="st6" d="M145.7,49.8C145.7,49.8,145.6,49.8,145.7,49.8C145.6,49.8,145.7,49.8,145.7,49.8z"/>
</g>
<g>
	<g>
		<g>
			<polygon class="st7" points="45.1,57.1 43.5,58.8 44.8,59.6 46.2,57.8 			"/>
			<polygon class="st7" points="24.4,66.7 22.4,67.3 22.6,68.4 24.4,67.8 			"/>
			<polygon class="st7" points="40.8,79.8 40.9,77.8 39.8,77.6 39.8,79.5 			"/>
		</g>
		<g>
			<polygon class="st7" points="114.1,72.6 112.5,74.3 113.9,75.1 115.2,73.3 			"/>
			<polygon class="st7" points="93.4,82.3 91.4,82.8 91.6,84 93.4,83.4 			"/>
			<polygon class="st7" points="109.9,95.4 109.9,93.3 108.8,93.2 108.8,95 			"/>
		</g>
		<g>
			<polygon class="st7" points="77.2,88.7 75.6,90.4 76.9,91.1 78.3,89.3 			"/>
			<polygon class="st7" points="56.5,98.3 54.5,98.8 54.7,100 56.5,99.4 			"/>
			<polygon class="st7" points="72.9,111.4 73,109.3 71.9,109.2 71.9,111 			"/>
		</g>
		<g>
			<polygon class="st7" points="44.7,89.3 43.1,91 44.5,91.8 45.8,90 			"/>
			<polygon class="st7" points="24,98.9 22,99.5 22.2,100.6 24,100.1 			"/>
			<polygon class="st7" points="40.5,112 40.5,110 39.4,109.8 39.4,111.7 			"/>
		</g>
		<g>
			<polygon class="st7" points="133.8,96.9 132.2,98.6 133.5,99.3 134.8,97.5 			"/>
			<polygon class="st7" points="113.1,106.5 111.1,107.1 111.3,108.2 113.1,107.6 			"/>
			<polygon class="st7" points="129.5,119.6 129.6,117.5 128.4,117.4 128.5,119.3 			"/>
		</g>
		<g>
			<polygon class="st7" points="174.3,84.6 172.7,86.3 174,87.1 175.4,85.3 			"/>
			<polygon class="st7" points="153.6,94.2 151.6,94.8 151.8,95.9 153.6,95.3 			"/>
			<polygon class="st7" points="170,107.3 170.1,105.3 169,105.1 169,107 			"/>
		</g>
		<g>
			<polygon class="st7" points="152.5,53.3 151.1,54.8 152.3,55.5 153.5,53.9 			"/>
			<polygon class="st7" points="133.6,62.1 131.8,62.6 132,63.6 133.6,63.1 			"/>
			<polygon class="st7" points="148.6,74 148.7,72.1 147.6,72 147.7,73.7 			"/>
		</g>
		<g>
			<polygon class="st7" points="92.1,47 90.6,48.5 91.8,49.2 93,47.6 			"/>
			<polygon class="st7" points="73.2,55.8 71.3,56.3 71.5,57.3 73.1,56.8 			"/>
			<polygon class="st7" points="88.2,67.7 88.2,65.8 87.2,65.7 87.2,67.4 			"/>
		</g>
		<g>
			<polygon class="st7" points="114.6,28.3 113,30 114.3,30.8 115.6,29 			"/>
			<polygon class="st7" points="93.9,37.9 91.9,38.5 92.1,39.6 93.8,39.1 			"/>
			<polygon class="st7" points="110.3,51.1 110.4,49 109.2,48.8 109.3,50.7 			"/>
		</g>
		<g>
			<polygon class="st7" points="65.4,24.9 63.8,26.6 65.2,27.4 66.5,25.6 			"/>
			<polygon class="st7" points="44.7,34.6 42.7,35.1 42.9,36.3 44.7,35.7 			"/>
			<polygon class="st7" points="61.2,47.7 61.2,45.6 60.1,45.4 60.1,47.3 			"/>
		</g>
	</g>
</g>
<g>
	<g>
		<path class="st8" d="M48.6,49c-1.1,0-2.1,0.5-2.8,1.3c-0.1,0.1-0.1,0.2,0,0.2c0,0.1-0.1,0.2,0,0.4c0.1,0.4,0.6,0.4,0.9,0.3
			c0.2-0.1,0.4-0.2,0.6-0.4c0.3-0.2,0.7-0.2,1-0.3c0.5-0.1,1-0.1,1.2-0.7C49.6,49.3,49.1,49,48.6,49z"/>
		<path class="st8" d="M56.1,55.7c1.1-0.1,2-0.8,2.6-1.7c0-0.1,0-0.2,0-0.2c0-0.1,0-0.2,0-0.4c-0.1-0.4-0.6-0.3-0.9-0.2
			c-0.2,0.1-0.4,0.3-0.6,0.5c-0.2,0.3-0.6,0.3-0.9,0.4c-0.5,0.2-1,0.3-1.1,0.9C55.1,55.6,55.6,55.7,56.1,55.7z"/>
		<path class="st8" d="M56.4,47.1c-0.1,0.9,0.3,1.6,0.8,2.3c0,0,0.1,0.1,0.2,0c0.1,0,0.2,0.1,0.3,0.1c0.3,0,0.4-0.4,0.3-0.7
			c-0.1-0.2-0.2-0.3-0.3-0.5c-0.1-0.2-0.1-0.5-0.2-0.8c0-0.4-0.1-0.8-0.5-1C56.7,46.4,56.5,46.8,56.4,47.1z"/>
		<path class="st8" d="M49.9,59.3c0.9-0.1,1.5-0.6,2-1.3c0-0.1,0-0.1,0-0.2c0-0.1,0-0.2,0-0.3c-0.1-0.3-0.5-0.3-0.7-0.1
			c-0.2,0.1-0.3,0.2-0.4,0.4C50.6,58,50.3,58,50,58.1c-0.4,0.1-0.7,0.2-0.8,0.7C49.1,59.3,49.5,59.4,49.9,59.3z"/>
	</g>
	<g>
		<path class="st8" d="M36.4,35.9c-1.1,0-2.1,0.5-2.8,1.3c-0.1,0.1-0.1,0.2,0,0.2c0,0.1-0.1,0.2,0,0.4c0.1,0.4,0.6,0.4,0.9,0.3
			c0.2-0.1,0.4-0.2,0.6-0.4c0.3-0.2,0.7-0.2,1-0.3c0.5-0.1,1-0.1,1.2-0.7C37.4,36.2,36.9,35.9,36.4,35.9z"/>
		<path class="st8" d="M43.9,42.6c1.1-0.1,2-0.8,2.6-1.7c0-0.1,0-0.2,0-0.2c0-0.1,0-0.2,0-0.4c-0.1-0.4-0.6-0.3-0.9-0.2
			c-0.2,0.1-0.4,0.3-0.6,0.5c-0.2,0.2-0.6,0.3-0.9,0.4c-0.5,0.2-1,0.3-1.1,0.9C42.9,42.5,43.4,42.6,43.9,42.6z"/>
		<path class="st8" d="M44.2,34c-0.1,0.9,0.3,1.6,0.8,2.3c0,0,0.1,0.1,0.2,0c0.1,0,0.2,0.1,0.3,0.1c0.3,0,0.4-0.4,0.3-0.7
			c-0.1-0.2-0.2-0.3-0.3-0.5c-0.1-0.2-0.1-0.5-0.2-0.8c0-0.4-0.1-0.8-0.5-1C44.4,33.3,44.2,33.7,44.2,34z"/>
		<path class="st8" d="M37.7,46.2c0.9-0.1,1.5-0.6,2-1.3c0-0.1,0-0.1,0-0.2c0-0.1,0-0.2,0-0.3c-0.1-0.3-0.5-0.2-0.7-0.1
			c-0.2,0.1-0.3,0.2-0.4,0.4c-0.2,0.2-0.5,0.3-0.7,0.3c-0.4,0.1-0.7,0.2-0.8,0.7C36.9,46.2,37.3,46.3,37.7,46.2z"/>
	</g>
	<g>
		<path class="st8" d="M23.7,72.4c-1.1,0-2.1,0.5-2.8,1.3c-0.1,0.1-0.1,0.2,0,0.2c0,0.1-0.1,0.2,0,0.4c0.1,0.4,0.6,0.4,0.9,0.3
			c0.2-0.1,0.4-0.2,0.6-0.4c0.3-0.2,0.7-0.2,1-0.3c0.5-0.1,1-0.1,1.2-0.7C24.7,72.6,24.2,72.4,23.7,72.4z"/>
		<path class="st8" d="M31.2,79c1.1-0.1,2-0.8,2.6-1.7c0-0.1,0-0.2,0-0.2c0-0.1,0-0.2,0-0.4c-0.1-0.4-0.6-0.3-0.9-0.2
			c-0.2,0.1-0.4,0.3-0.6,0.5c-0.2,0.2-0.6,0.3-0.9,0.4c-0.5,0.2-1,0.3-1.1,0.9C30.2,78.9,30.7,79.1,31.2,79z"/>
		<path class="st8" d="M31.5,70.5c-0.1,0.9,0.3,1.6,0.8,2.3c0,0,0.1,0.1,0.2,0c0.1,0,0.2,0.1,0.3,0.1c0.3,0,0.4-0.4,0.3-0.7
			c-0.1-0.2-0.2-0.4-0.3-0.5c-0.1-0.2-0.1-0.5-0.2-0.8c0-0.4-0.1-0.8-0.5-1C31.7,69.7,31.5,70.1,31.5,70.5z"/>
		<path class="st8" d="M25,82.7c0.9-0.1,1.5-0.6,2-1.3c0-0.1,0-0.1,0-0.2c0-0.1,0-0.2,0-0.3c-0.1-0.3-0.5-0.3-0.7-0.1
			c-0.2,0.1-0.3,0.2-0.4,0.4c-0.2,0.2-0.5,0.3-0.7,0.3c-0.4,0.1-0.7,0.2-0.8,0.7C24.2,82.6,24.6,82.7,25,82.7z"/>
	</g>
	<g>
		<path class="st8" d="M58,58.9c-0.8,0-1.4,0.4-1.9,0.9c0,0,0,0.1,0,0.1c0,0.1,0,0.2,0,0.3c0,0.3,0.4,0.3,0.6,0.2
			c0.2-0.1,0.3-0.2,0.4-0.3c0.2-0.1,0.4-0.2,0.7-0.2c0.3-0.1,0.7-0.1,0.8-0.5C58.7,59.1,58.4,59,58,58.9z"/>
		<path class="st8" d="M63.1,63.4c0.8-0.1,1.3-0.6,1.8-1.2c0,0,0-0.1,0-0.1c0-0.1,0-0.2,0-0.3c-0.1-0.3-0.4-0.2-0.6-0.1
			c-0.1,0.1-0.3,0.2-0.4,0.3c-0.2,0.2-0.4,0.2-0.6,0.3c-0.3,0.1-0.7,0.2-0.7,0.6C62.4,63.4,62.8,63.5,63.1,63.4z"/>
		<path class="st8" d="M63.3,57.7c-0.1,0.6,0.2,1.1,0.6,1.5c0,0,0.1,0,0.1,0c0.1,0,0.1,0,0.2,0c0.2,0,0.2-0.3,0.2-0.4
			c0-0.1-0.1-0.2-0.2-0.3c-0.1-0.2-0.1-0.3-0.1-0.5c0-0.3,0-0.5-0.3-0.7C63.5,57.2,63.4,57.4,63.3,57.7z"/>
		<path class="st8" d="M58.9,65.9c0.6-0.1,1-0.4,1.4-0.9c0,0,0-0.1,0-0.1c0-0.1,0-0.1,0-0.2c-0.1-0.2-0.3-0.2-0.5-0.1
			c-0.1,0.1-0.2,0.2-0.3,0.2c-0.1,0.1-0.3,0.2-0.5,0.2c-0.2,0.1-0.5,0.2-0.6,0.5C58.4,65.9,58.7,66,58.9,65.9z"/>
	</g>
	<g>
		<path class="st8" d="M108.5,80.5c-1.1,0-2.1,0.5-2.8,1.3c-0.1,0.1-0.1,0.2,0,0.2c0,0.1-0.1,0.2,0,0.4c0.1,0.4,0.6,0.4,0.9,0.3
			c0.2-0.1,0.4-0.2,0.6-0.4c0.3-0.2,0.6-0.2,1-0.3c0.5-0.1,1-0.1,1.2-0.7C109.5,80.8,109,80.5,108.5,80.5z"/>
		<path class="st8" d="M116,87.2c1.1-0.1,2-0.8,2.6-1.7c0-0.1,0-0.2,0-0.2c0-0.1,0-0.2,0-0.4c-0.1-0.4-0.6-0.3-0.9-0.2
			c-0.2,0.1-0.4,0.3-0.6,0.5c-0.2,0.2-0.6,0.3-0.9,0.4c-0.5,0.2-1,0.3-1.1,0.9C115,87.1,115.6,87.2,116,87.2z"/>
		<path class="st8" d="M116.3,78.6c-0.1,0.9,0.3,1.6,0.8,2.3c0,0,0.1,0.1,0.2,0c0.1,0,0.2,0.1,0.3,0.1c0.3,0,0.4-0.4,0.3-0.7
			c-0.1-0.2-0.2-0.3-0.3-0.5c-0.1-0.2-0.1-0.5-0.2-0.8c0-0.4-0.1-0.8-0.5-1C116.6,77.9,116.4,78.3,116.3,78.6z"/>
		<path class="st8" d="M109.8,90.9c0.9-0.1,1.5-0.6,2-1.3c0-0.1,0-0.1,0-0.2c0-0.1,0-0.2,0-0.3c-0.1-0.3-0.5-0.3-0.7-0.1
			c-0.2,0.1-0.3,0.2-0.4,0.4c-0.2,0.2-0.5,0.3-0.7,0.3c-0.4,0.1-0.7,0.2-0.8,0.7C109,90.8,109.5,90.9,109.8,90.9z"/>
	</g>
	<g>
		<path class="st8" d="M78.3,92.9c-1.2,0-2.3,0.6-3.1,1.4c-0.1,0.1-0.1,0.2,0,0.2c0,0.1-0.1,0.3,0,0.4c0.1,0.4,0.6,0.5,1,0.3
			c0.3-0.1,0.5-0.3,0.7-0.4c0.3-0.2,0.7-0.3,1.1-0.3c0.5-0.1,1.1-0.2,1.3-0.8C79.4,93.1,78.9,92.9,78.3,92.9z"/>
		<path class="st8" d="M86.5,100.1c1.2-0.1,2.2-0.9,2.9-1.9c0.1-0.1,0.1-0.2,0-0.2c0-0.1,0-0.3,0-0.4c-0.1-0.4-0.7-0.4-1-0.2
			c-0.2,0.1-0.4,0.3-0.6,0.5c-0.3,0.3-0.7,0.4-1,0.5c-0.5,0.2-1.1,0.3-1.2,0.9C85.4,100,86,100.2,86.5,100.1z"/>
		<path class="st8" d="M86.8,90.8c-0.1,1,0.3,1.8,0.9,2.5c0,0.1,0.1,0.1,0.2,0c0.1,0,0.2,0.1,0.3,0.1c0.3,0,0.4-0.5,0.3-0.7
			c-0.1-0.2-0.2-0.4-0.3-0.6c-0.2-0.2-0.2-0.6-0.2-0.8c0-0.4-0.1-0.8-0.5-1.1C87.1,90,86.9,90.4,86.8,90.8z"/>
		<path class="st8" d="M79.7,104.1c1-0.1,1.7-0.7,2.2-1.5c0-0.1,0-0.1,0-0.2c0-0.1,0-0.2,0-0.3c-0.1-0.3-0.5-0.3-0.8-0.1
			c-0.2,0.1-0.3,0.3-0.5,0.4c-0.2,0.2-0.5,0.3-0.8,0.4c-0.4,0.1-0.8,0.2-0.9,0.7C78.9,104,79.3,104.2,79.7,104.1z"/>
	</g>
	<g>
		<path class="st8" d="M45.8,100.1c-1.1,0-2.1,0.5-2.8,1.3c-0.1,0.1-0.1,0.2,0,0.2c0,0.1-0.1,0.2,0,0.4c0.1,0.4,0.6,0.4,0.9,0.3
			c0.2-0.1,0.4-0.2,0.6-0.4c0.3-0.2,0.7-0.2,1-0.3c0.5-0.1,1-0.1,1.2-0.7C46.8,100.3,46.3,100.1,45.8,100.1z"/>
		<path class="st8" d="M53.3,106.7c1.1-0.1,2-0.8,2.6-1.7c0-0.1,0-0.2,0-0.2c0-0.1,0-0.2,0-0.4c-0.1-0.4-0.6-0.3-0.9-0.2
			c-0.2,0.1-0.4,0.3-0.6,0.5c-0.2,0.2-0.6,0.3-0.9,0.4c-0.5,0.2-1,0.3-1.1,0.9C52.3,106.6,52.8,106.7,53.3,106.7z"/>
		<path class="st8" d="M53.6,98.2c-0.1,0.9,0.3,1.6,0.8,2.3c0,0,0.1,0.1,0.2,0c0.1,0,0.2,0.1,0.3,0.1c0.3,0,0.4-0.4,0.3-0.7
			c-0.1-0.2-0.2-0.4-0.3-0.5c-0.1-0.2-0.1-0.5-0.2-0.8c0-0.4-0.1-0.8-0.5-1C53.9,97.4,53.6,97.8,53.6,98.2z"/>
		<path class="st8" d="M47.1,110.4c0.9-0.1,1.5-0.6,2-1.3c0-0.1,0-0.1,0-0.2c0-0.1,0-0.2,0-0.3c-0.1-0.3-0.5-0.3-0.7-0.1
			c-0.2,0.1-0.3,0.2-0.4,0.4c-0.2,0.2-0.5,0.3-0.7,0.3c-0.4,0.1-0.7,0.2-0.8,0.7C46.3,110.3,46.7,110.4,47.1,110.4z"/>
	</g>
	<g>
		<path class="st8" d="M124.7,51.9c-1,0-1.8,0.5-2.5,1.1c-0.1,0.1-0.1,0.1,0,0.2c0,0.1,0,0.2,0,0.3c0,0.3,0.5,0.4,0.8,0.3
			c0.2-0.1,0.4-0.2,0.6-0.3c0.2-0.2,0.6-0.2,0.9-0.3c0.4-0.1,0.9-0.1,1-0.6C125.6,52.1,125.1,51.9,124.7,51.9z"/>
		<path class="st8" d="M131.2,57.7c1-0.1,1.7-0.7,2.3-1.5c0-0.1,0-0.1,0-0.2c0-0.1,0-0.2,0-0.3c-0.1-0.3-0.6-0.3-0.8-0.1
			c-0.2,0.1-0.3,0.3-0.5,0.4c-0.2,0.2-0.5,0.3-0.8,0.4c-0.4,0.1-0.8,0.3-0.9,0.7C130.3,57.6,130.8,57.7,131.2,57.7z"/>
		<path class="st8" d="M131.5,50.3c-0.1,0.8,0.2,1.4,0.7,2c0,0,0.1,0.1,0.1,0c0.1,0,0.2,0.1,0.3,0c0.3,0,0.3-0.4,0.2-0.6
			c-0.1-0.2-0.1-0.3-0.2-0.4c-0.1-0.2-0.1-0.4-0.2-0.7c0-0.3,0-0.7-0.4-0.8C131.7,49.6,131.5,50,131.5,50.3z"/>
		<path class="st8" d="M125.8,60.8c0.8-0.1,1.3-0.6,1.8-1.2c0,0,0-0.1,0-0.1c0-0.1,0-0.2,0-0.3c-0.1-0.3-0.4-0.2-0.6-0.1
			c-0.1,0.1-0.3,0.2-0.4,0.3c-0.2,0.2-0.4,0.2-0.6,0.3c-0.3,0.1-0.6,0.2-0.7,0.6C125.1,60.8,125.5,60.9,125.8,60.8z"/>
	</g>
	<g>
		<path class="st8" d="M94.3,61.9c-1.1,0-2.1,0.5-2.8,1.3c-0.1,0.1-0.1,0.2,0,0.2c0,0.1-0.1,0.2,0,0.4c0.1,0.4,0.6,0.4,0.9,0.3
			c0.2-0.1,0.4-0.2,0.6-0.4c0.3-0.2,0.7-0.2,1-0.3c0.5-0.1,1-0.1,1.2-0.7C95.3,62.2,94.8,61.9,94.3,61.9z"/>
		<path class="st8" d="M101.8,68.6c1.1-0.1,2-0.8,2.6-1.7c0-0.1,0-0.2,0-0.2c0-0.1,0-0.2,0-0.4c-0.1-0.4-0.6-0.3-0.9-0.2
			c-0.2,0.1-0.4,0.3-0.6,0.5c-0.2,0.2-0.6,0.3-0.9,0.4c-0.5,0.2-1,0.3-1.1,0.9C100.8,68.5,101.3,68.6,101.8,68.6z"/>
		<path class="st8" d="M102.1,60c-0.1,0.9,0.3,1.6,0.8,2.3c0,0,0.1,0.1,0.2,0c0.1,0,0.2,0.1,0.3,0.1c0.3,0,0.4-0.4,0.3-0.7
			c-0.1-0.2-0.2-0.3-0.3-0.5c-0.1-0.2-0.1-0.5-0.2-0.8c0-0.4-0.1-0.8-0.5-1C102.4,59.3,102.1,59.7,102.1,60z"/>
		<path class="st8" d="M95.6,72.2c0.9-0.1,1.5-0.6,2-1.3c0-0.1,0-0.1,0-0.2c0-0.1,0-0.2,0-0.3c-0.1-0.3-0.5-0.3-0.7-0.1
			c-0.2,0.1-0.3,0.2-0.4,0.4c-0.2,0.2-0.5,0.3-0.7,0.3c-0.4,0.1-0.7,0.2-0.8,0.7C94.8,72.2,95.2,72.3,95.6,72.2z"/>
	</g>
	<g>
		<path class="st8" d="M76.2,51.7c-1.1,0-2.1,0.5-2.8,1.3c-0.1,0.1-0.1,0.2,0,0.2c0,0.1-0.1,0.2,0,0.4c0.1,0.4,0.6,0.4,0.9,0.3
			c0.2-0.1,0.4-0.2,0.6-0.4c0.3-0.2,0.6-0.2,1-0.3c0.5-0.1,1-0.1,1.2-0.7C77.2,52,76.7,51.8,76.2,51.7z"/>
		<path class="st8" d="M83.7,58.4c1.1-0.1,2-0.8,2.6-1.7c0-0.1,0-0.2,0-0.2c0-0.1,0-0.2,0-0.4c-0.1-0.4-0.6-0.3-0.9-0.2
			c-0.2,0.1-0.4,0.3-0.6,0.5c-0.2,0.2-0.6,0.3-0.9,0.4c-0.5,0.2-1,0.3-1.1,0.9C82.7,58.3,83.3,58.4,83.7,58.4z"/>
		<path class="st8" d="M84,49.9c-0.1,0.9,0.3,1.6,0.8,2.3c0,0.1,0.1,0.1,0.2,0c0.1,0,0.2,0.1,0.3,0.1c0.3,0,0.4-0.4,0.3-0.7
			c-0.1-0.2-0.2-0.3-0.3-0.5c-0.1-0.2-0.1-0.5-0.2-0.8c0-0.4-0.1-0.8-0.5-1C84.3,49.1,84.1,49.5,84,49.9z"/>
		<path class="st8" d="M77.5,62.1c0.9-0.1,1.5-0.6,2-1.3c0-0.1,0-0.1,0-0.2c0-0.1,0-0.2,0-0.3C79.4,60,79,60,78.8,60.1
			c-0.2,0.1-0.3,0.2-0.4,0.4c-0.2,0.2-0.5,0.3-0.7,0.3c-0.4,0.1-0.7,0.2-0.8,0.7C76.7,62,77.1,62.1,77.5,62.1z"/>
	</g>
	<g>
		<path class="st8" d="M114.4,36.2c-1.1,0-2.1,0.5-2.8,1.3c-0.1,0.1-0.1,0.2,0,0.2c0,0.1-0.1,0.2,0,0.4c0.1,0.4,0.6,0.4,0.9,0.3
			c0.2-0.1,0.4-0.2,0.6-0.4c0.3-0.2,0.7-0.2,1-0.3c0.5-0.1,1-0.1,1.2-0.7C115.4,36.4,114.8,36.2,114.4,36.2z"/>
		<path class="st8" d="M121.9,42.8c1.1-0.1,2-0.8,2.6-1.7c0-0.1,0-0.2,0-0.2c0-0.1,0-0.2,0-0.4c-0.1-0.4-0.6-0.3-0.9-0.2
			c-0.2,0.1-0.4,0.3-0.6,0.5c-0.2,0.2-0.6,0.3-0.9,0.4c-0.5,0.2-1,0.3-1.1,0.9C120.9,42.7,121.4,42.9,121.9,42.8z"/>
		<path class="st8" d="M122.2,34.3c-0.1,0.9,0.3,1.6,0.8,2.3c0,0,0.1,0.1,0.2,0c0.1,0,0.2,0.1,0.3,0.1c0.3,0,0.4-0.4,0.3-0.7
			c-0.1-0.2-0.2-0.4-0.3-0.5c-0.1-0.2-0.1-0.5-0.2-0.8c0-0.4-0.1-0.8-0.5-1C122.4,33.6,122.2,34,122.2,34.3z"/>
		<path class="st8" d="M115.6,46.5c0.9-0.1,1.5-0.6,2-1.3c0-0.1,0-0.1,0-0.2c0-0.1,0-0.2,0-0.3c-0.1-0.3-0.5-0.3-0.7-0.1
			c-0.2,0.1-0.3,0.2-0.4,0.4c-0.2,0.2-0.5,0.3-0.7,0.3c-0.4,0.1-0.7,0.2-0.8,0.7C114.9,46.4,115.3,46.6,115.6,46.5z"/>
	</g>
	<g>
		<path class="st8" d="M130.5,69.3c-1.1,0-2.1,0.5-2.8,1.3c-0.1,0.1-0.1,0.2,0,0.2c0,0.1-0.1,0.2,0,0.4c0.1,0.4,0.6,0.4,0.9,0.3
			c0.2-0.1,0.4-0.2,0.6-0.4c0.3-0.2,0.7-0.2,1-0.3c0.5-0.1,1-0.1,1.2-0.7C131.5,69.5,130.9,69.3,130.5,69.3z"/>
		<path class="st8" d="M138,75.9c1.1-0.1,2-0.8,2.6-1.7c0-0.1,0-0.2,0-0.2c0-0.1,0-0.2,0-0.4c-0.1-0.4-0.6-0.3-0.9-0.2
			c-0.2,0.1-0.4,0.3-0.6,0.5c-0.2,0.2-0.6,0.3-0.9,0.4c-0.5,0.2-1,0.3-1.1,0.9C137,75.8,137.5,76,138,75.9z"/>
		<path class="st8" d="M138.3,67.4c-0.1,0.9,0.3,1.6,0.8,2.3c0,0,0.1,0.1,0.2,0c0.1,0,0.2,0.1,0.3,0.1c0.3,0,0.4-0.4,0.3-0.7
			c-0.1-0.2-0.2-0.4-0.3-0.5c-0.1-0.2-0.1-0.5-0.2-0.8c0-0.4-0.1-0.8-0.5-1C138.5,66.6,138.3,67,138.3,67.4z"/>
		<path class="st8" d="M131.7,79.6c0.9-0.1,1.5-0.6,2-1.3c0-0.1,0-0.1,0-0.2c0-0.1,0-0.2,0-0.3c-0.1-0.3-0.5-0.3-0.7-0.1
			c-0.2,0.1-0.3,0.2-0.4,0.4c-0.2,0.2-0.5,0.3-0.7,0.3c-0.4,0.1-0.7,0.2-0.8,0.7C131,79.5,131.4,79.6,131.7,79.6z"/>
	</g>
	<g>
		<path class="st8" d="M114.6,107.8c-1.1,0-2.1,0.5-2.8,1.3c-0.1,0.1-0.1,0.2,0,0.2c0,0.1-0.1,0.2,0,0.4c0.1,0.4,0.6,0.4,0.9,0.3
			c0.2-0.1,0.4-0.2,0.6-0.4c0.3-0.2,0.6-0.2,1-0.3c0.5-0.1,1-0.1,1.2-0.7C115.6,108,115,107.8,114.6,107.8z"/>
		<path class="st8" d="M122.1,114.4c1.1-0.1,2-0.8,2.6-1.7c0-0.1,0-0.2,0-0.2c0-0.1,0-0.2,0-0.4c-0.1-0.4-0.6-0.3-0.9-0.2
			c-0.2,0.1-0.4,0.3-0.6,0.5c-0.2,0.2-0.6,0.3-0.9,0.4c-0.5,0.2-1,0.3-1.1,0.9C121.1,114.3,121.6,114.5,122.1,114.4z"/>
		<path class="st8" d="M122.4,105.9c-0.1,0.9,0.3,1.6,0.8,2.3c0,0,0.1,0.1,0.2,0c0.1,0,0.2,0.1,0.3,0.1c0.3,0,0.4-0.4,0.3-0.7
			c-0.1-0.2-0.2-0.4-0.3-0.5c-0.1-0.2-0.1-0.5-0.2-0.8c0-0.4-0.1-0.8-0.5-1C122.6,105.1,122.4,105.5,122.4,105.9z"/>
		<path class="st8" d="M115.8,118.1c0.9-0.1,1.5-0.6,2-1.3c0-0.1,0-0.1,0-0.2c0-0.1,0-0.2,0-0.3c-0.1-0.3-0.5-0.2-0.7-0.1
			c-0.2,0.1-0.3,0.2-0.4,0.4c-0.2,0.2-0.5,0.3-0.7,0.3c-0.4,0.1-0.7,0.2-0.8,0.7C115.1,118,115.5,118.1,115.8,118.1z"/>
	</g>
	<g>
		<path class="st8" d="M140.3,89c-1.1,0-2.1,0.5-2.8,1.3c-0.1,0.1-0.1,0.2,0,0.2c0,0.1-0.1,0.2,0,0.4c0.1,0.4,0.6,0.4,0.9,0.3
			c0.2-0.1,0.4-0.2,0.6-0.4c0.3-0.2,0.6-0.2,1-0.3c0.5-0.1,1-0.1,1.2-0.7C141.3,89.3,140.8,89,140.3,89z"/>
		<path class="st8" d="M147.8,95.7c1.1-0.1,2-0.8,2.6-1.7c0-0.1,0-0.2,0-0.2c0-0.1,0-0.2,0-0.4c-0.1-0.4-0.6-0.3-0.9-0.2
			c-0.2,0.1-0.4,0.3-0.6,0.5c-0.2,0.2-0.6,0.3-0.9,0.4c-0.5,0.2-1,0.3-1.1,0.9C146.8,95.6,147.3,95.7,147.8,95.7z"/>
		<path class="st8" d="M148.1,87.1c-0.1,0.9,0.3,1.6,0.8,2.3c0,0,0.1,0.1,0.2,0c0.1,0,0.2,0.1,0.3,0.1c0.3,0,0.4-0.4,0.3-0.7
			c-0.1-0.2-0.2-0.4-0.3-0.5c-0.1-0.2-0.1-0.5-0.2-0.8c0-0.4-0.1-0.8-0.5-1C148.4,86.4,148.1,86.8,148.1,87.1z"/>
		<path class="st8" d="M141.6,99.3c0.9-0.1,1.5-0.6,2-1.3c0-0.1,0-0.1,0-0.2c0-0.1,0-0.2,0-0.3c-0.1-0.3-0.5-0.2-0.7-0.1
			c-0.2,0.1-0.3,0.2-0.4,0.4c-0.2,0.2-0.5,0.3-0.7,0.3c-0.4,0.1-0.7,0.2-0.8,0.7C140.8,99.3,141.2,99.4,141.6,99.3z"/>
	</g>
</g>
<path class="st2" d="M27.7,82.5C27.7,82.5,27.7,82.5,27.7,82.5C27.7,82.5,27.7,82.5,27.7,82.5C27.7,82.5,27.7,82.5,27.7,82.5z"/>
<path class="st2" d="M176,86.3l-0.9-0.6l-1.6,1.7l0.5,0.3C174.6,87.2,175.3,86.8,176,86.3z"/>
<g>
	<g>
		<path class="st3" d="M131.2,32.8c0,0,14.9-3.5,20.8-7.9c5.8-4.3,6.4-2.8,6.4-0.2c0,2.6-12.4,9-22,9.8
			C126.8,35.3,131.2,32.8,131.2,32.8z"/>
		<path class="st3" d="M147.3,57.1c0,0,16,2,19.8,13.1c3.8,11.2,3,14.8,3,14.8s1,1.7,2.5,1c1.6-0.7,1.7-1.8,1.6-5.9
			c-0.1-4.1-3.7-25.4-27.1-25.9L147.3,57.1z"/>
		<path class="st3" d="M137,53.7c0,0,17.2-2.1,26.7,4.9c9.5,7,10.9,10.5,10.9,10.5s1.8,0.8,2.7-0.6c0.9-1.5,0.3-2.5-2.1-5.8
			c-2.5-3.3-21.4-22.5-40.9-9.5L137,53.7z"/>
	</g>
	<g>
		<path class="st4" d="M157.9,22.4c0.2,0.9-0.6,2-1.7,2.8c-1.2,0.9-2.6,1.5-3.9,2.2c-2.2,1-4.4,2-6.7,2.9c-1.8,0.8-3.7,1.6-5.6,2.1
			c-0.8,0.2-2.1,0.5-2.6-0.4c-0.2-0.4-0.1-0.7,0.2-1.1c-3.6,1.1-6.3,1.7-6.3,1.7s-4.5,2.5,5.1,1.8c9.6-0.8,22-7.2,22-9.8
			C158.4,23.7,158.3,22.8,157.9,22.4z"/>
		<path class="st4" d="M174.2,80.1c-0.1-4.1-3.7-25.4-27.1-25.9l0.3,2.8c0,0,16,2,19.8,13.1c3.8,11.2,3,14.8,3,14.8s1,1.7,2.5,1
			C174.2,85.4,174.3,84.2,174.2,80.1z M172.4,83.5c-0.6,0.6-1.3-0.1-1.6-0.8c-0.7-1.9-0.6-4-0.9-5.9c-0.2-1.5-0.5-3-0.9-4.4
			c-0.8-2.1-1.8-4.2-3.3-5.9c-3.2-3.8-7.4-6.4-12-8.1c-0.7-0.2-1.7-0.2-2.3-0.6c-0.6-0.4,0.2-1.2,0.6-1.2c1.3-0.2,2.7,0.1,3.9,0.4
			c1,0.2,2.2,0.5,3.1,0.9c2,1,3.7,2.3,5.2,3.8c5,4.3,7.6,11.6,8.5,17.8C173.2,80.7,173.4,82.6,172.4,83.5z"/>
		<path class="st4" d="M175.1,62.8c-2.5-3.3-21.4-22.5-40.9-9.5l2.8,0.4c0,0,17.2-2.1,26.7,4.9c9.5,7,10.9,10.5,10.9,10.5
			s1.8,0.8,2.7-0.6C178.1,67,177.6,66,175.1,62.8z M174.5,67.3c-1-0.8-1.6-2-2.4-2.9c-1-1.1-2.1-2.1-3.2-3c-2.5-2-5.1-4-8-5.4
			c-2.2-1.1-4.5-1.9-6.9-2.5c-0.7-0.2-1.5-0.4-2.2-0.8c-1.1-0.4-2.1-1-1.3-1.7c0.8-0.7,2.2-0.3,3.1,0c1.9,0.5,3.7,1.2,5.5,2
			c3.7,1.7,7.5,3.7,10.6,6.4c2.2,2,5,4.6,5.4,7.7C175.1,67.4,174.7,67.5,174.5,67.3z"/>
	</g>
	<g>
		<g>
			<path class="st3" d="M22.7,102.8c0.8,5.9,8.2,9.6,19.6,7.9c6.4-1,12.4-3.4,16.5-5.4l-3.9-1.2c-3.3,1.8-7.5,3.7-11.9,4.4
				c-9.6,1.4-17.7-1.4-16.9-7.9c0.2-1.9,1-3.4,1.8-4.7l-1.9-0.6C24.4,96.6,22.2,99.1,22.7,102.8z"/>
			<path class="st3" d="M145.5,112.8c-8.6,12.8-40,11.5-53.6,6.6c-14.1-5.1-12.1-7.3-23.4-9.3c-11.4-2.1-24,5.2-34.2,6.6
				c-10.2,1.4-15.4-2.3-16.1-9.7c-0.5-5.4,4-10,6.5-12.1L21.8,94c0,0-7.9,3.1-7.9,11.9c0,8.8,7.5,14.4,19.2,14
				c11.7-0.4,23.7-9.6,34.3-6.9s17,12.1,40.5,13.4c23.6,1.3,42.2-8.1,44.1-13.6L145.5,112.8z"/>
		</g>
		<path class="st3" d="M17.5,92.2c0,0-5.4,0.1-12.8,2.4c-7.3,2.3-8.1,4.8-7.5,5.8c0,0,0.3,1,1.1,0.8c0.8-0.1,14.2-6.1,21.4-5.7
			c0,0,1.8,0.3,1.8-0.8S17.5,92.2,17.5,92.2z"/>
	</g>
	<g>
		<g>
			<path class="st4" d="M54.9,104.1c-3.3,1.8-7.5,3.7-11.9,4.4c-9.6,1.4-17.7-1.4-16.9-7.9c0.2-1.9,1-3.4,1.8-4.7l-1.9-0.6
				c-1.7,1.4-3.8,3.8-3.3,7.5c0.8,5.9,8.2,9.6,19.6,7.9c6.4-1,12.4-3.4,16.5-5.4L54.9,104.1z M32.3,110.1c-2,0-4-0.9-5.5-2.2
				c-0.9-0.5-1.6-1.2-2.3-2c-1.3-1.6-2-4.6-1.1-6.5c0.3-0.6,0.8-0.7,1.3-0.2c0.6,0.6,0.6,2,0.7,2.8c0.8,3.6,4.2,5.8,7,7.6
				C32.7,109.8,32.6,110.1,32.3,110.1z"/>
			<path class="st4" d="M145.5,112.8c-8.6,12.8-40,11.5-53.6,6.6c-14.1-5.1-12.1-7.3-23.4-9.3c-11.4-2.1-24,5.2-34.2,6.6
				c-10.2,1.4-15.4-2.3-16.1-9.7c-0.5-5.4,4-10,6.5-12.1L21.8,94c0,0-7.9,3.1-7.9,11.9c0,8.8,7.5,14.4,19.2,14
				c11.7-0.4,23.7-9.6,34.3-6.9s17,12.1,40.5,13.4c23.6,1.3,42.2-8.1,44.1-13.6L145.5,112.8z M42,116.6c0,0.1-0.1,0.2-0.2,0.4
				c-0.6,0.8-2.3,1-3.1,1.3c-2.9,0.9-6,1.2-9.1,1c-5.4-0.3-12.3-3.3-14-8.9c-0.5-1.6-0.8-3.7-0.6-5.4c0.2-1.7,0.5-3.5,1.2-5.1
				c0.2-0.6,2.5-4.8,3.6-2.8c0.3,0.7,0,1.4-0.4,2c-1.8,2.4-2.5,6.3-2.1,9.2c0.5,3.4,2.7,6.3,5.8,7.7c1.8,0.8,3.8,1.2,5.7,1.5
				c2.6,0.4,5.2-0.1,7.8-0.5c1.3-0.3,2.7-0.5,4-0.7C41.2,116.2,42.1,116.1,42,116.6z M124.8,124.7c-1.4,1-3.2,0.9-4.8,1
				c-2.5,0-4.9,0.3-7.4,0.3c-5.9,0-11.9-0.6-17.6-2.1c-4.2-1.1-8.4-2.4-12.4-4.1c-1.4-0.6-4.3-1.5-5.6-3c-0.6-0.4-1.2-0.8-1.6-1.3
				c-0.6-1,1.2-1.2,1.8-1.1c2.3,0.3,4.3,1.9,6.3,3c3,1.8,6.5,2.9,9.9,3.9c3.6,1.1,7.4,2,11.2,2.4c3.7,0.4,7.5,0.3,11.2,0.4
				c2.9,0,6.1-0.6,8.9,0.2C125,124.2,125,124.6,124.8,124.7z"/>
		</g>
		<path class="st4" d="M17.5,92.2c0,0-1.4,0-3.7,0.3c1,0.1,2,0.3,2.6,0.8c0.8,0.7-0.5,1.3-1,1.5c-1.5,0.4-3,0.5-4.5,0.7
			c-2.2,0.2-4.1,0.9-6.1,1.9c-1.2,0.6-2.4,1.2-3.6,1.6c-0.9,0.4-1.8,0.8-2.8,0.8c-1.2-0.1-0.8-1.2,0-2.3c-1.5,1.2-1.6,2.3-1.2,2.8
			c0,0,0.3,1,1.1,0.8c0.8-0.1,14.2-6.1,21.4-5.7c0,0,1.8,0.3,1.8-0.8S17.5,92.2,17.5,92.2z"/>
	</g>
	<path class="st5" d="M164.6,83.5c0,0,1.1-1.4,0-3.8c0,0,0.4-2.4-0.1-2.8c0,0,0.6-3.1-0.6-3.5c0,0,2.8-3.1,2-7.2
		c-0.8-4.1-8.1-8.8-20.9-2.7c0,0,0.2-0.1,0.5-0.4c-14.1,6.2-23.7,18.5-23.7,18.5C88,95.5,47.1,72.2,40.3,65.4
		c-6.8-6.8-14.9-6.6-14.9-6.6s-5.9,0-6.2,6.6c-0.3,6.6,7.8,16,7.8,16s-2-0.8-4.7-3.8c-2.7-3-3.8-4.8-5.4-2.4c0,0-2.4-0.6-2.8,3.3
		c-0.4,3.8,1,6.6,1,6.6s-1.7-1.7-2.3,0.8c-0.6,2.5,2.5,6.2,3.5,7.2c1,1,23.7,16.2,44.8,17.8c0,0,28.5,7.1,42.9,6.4
		c0,0,1.4,2.5,5.4,2.1c0,0,0,2.3,8.3,1.7c8.3-0.6,12.3-2.7,12.3-2.7s23-3,30.2-8.8c7.2-5.8,1.1-13.4,1.1-13.4S167.3,88.5,164.6,83.5
		z"/>
	<path class="st4" d="M164.6,83.5c0,0,1.1-1.4,0-3.8c0,0,0.4-2.4-0.1-2.8c0,0,0.6-3.1-0.6-3.5c0,0,2.8-3.1,2-7.2
		c-0.5-2.2-2.7-4.5-6.7-5.3c2.5,0.9,6,3,4.1,5.9c-0.1,0.2-0.4,0.2-0.5-0.1c-1.3-3.8-7.1-3.3-10.1-2.6c-3.4,0.8-6.6,2.2-9.7,3.9
		c-6.1,3.3-11.5,7.8-15.8,13.2c-1.3,1.6-2.1,3.5-3.3,5.2c-0.6,0.8-1.7,2.6-2.8,1.7c-1.1-0.8-0.4-3.3-0.1-4.3c0.3-1,0.8-1.9,1.2-2.8
		c-0.3,0.4-0.5,0.6-0.5,0.6c-4.4,1.8-8.9,3-13.5,3.7c-0.3,0-0.6,0.1-0.9,0.1c-0.2,0-0.4,0-0.5,0.1c-0.3,0-0.6,0.1-0.9,0.1
		c-0.2,0-0.4,0-0.6,0.1c-0.3,0-0.5,0.1-0.8,0.1c-0.2,0-0.4,0-0.7,0.1c-0.2,0-0.5,0-0.7,0.1c-0.2,0-0.5,0-0.7,0c-0.2,0-0.4,0-0.7,0
		c-0.3,0-0.5,0-0.8,0c-0.2,0-0.4,0-0.6,0c-0.3,0-0.6,0-0.8,0c-27.4,0.4-53.9-15.2-59.2-20.5c-6.8-6.8-14.9-6.6-14.9-6.6
		s-5.9,0-6.2,6.6c-0.2,4,2.7,8.9,5,12.2c0,0,0,0,0,0c0,0,0,0,0,0c0.6,0.8,1.1,1.5,1.5,2.1c0,0,0,0,0,0c0.1,0.1,0.1,0.2,0.2,0.2
		c0,0,0,0.1,0.1,0.1c0,0.1,0.1,0.1,0.1,0.2c0,0,0.1,0.1,0.1,0.1c0,0,0.1,0.1,0.1,0.1c0,0,0.1,0.1,0.1,0.1c0,0,0,0,0.1,0.1
		c0.3,0.4,0.5,0.6,0.5,0.6s-2-0.8-4.7-3.8c-2.7-3-3.8-4.8-5.4-2.4c0,0-2.4-0.6-2.8,3.3c-0.4,3.8,1,6.6,1,6.6s-1.7-1.7-2.3,0.8
		c-0.6,2.5,2.5,6.2,3.5,7.2c1,1,23.7,16.2,44.8,17.8c0,0,28.5,7.1,42.9,6.4c0,0,1.4,2.5,5.4,2.1c0,0,0,2.3,8.3,1.7
		c8.3-0.6,12.3-2.7,12.3-2.7s23-3,30.2-8.8c7.2-5.8,1.1-13.4,1.1-13.4S167.3,88.5,164.6,83.5z M148.9,68.5c2.7-2.2,13.2-3.6,11,2.5
		c-0.1,0.2-0.3,0.3-0.5,0.1c-2.4-2.3-5.5-2.3-8.5-2.3c-0.6,0-1.2,0.1-1.8,0.1C148.9,69,148.7,68.7,148.9,68.5z M134.2,81.1
		c3.3-5.1,8.1-10.1,14.4-11c0,0,0,0,0.1,0c2.1-0.5,4.4-0.5,6.4,0.3c2.1,0.9,3.4,3.5,1.9,5.4c-0.1,0.1-0.3,0.1-0.4,0
		c-3.2-3.2-7.8-2.7-11.7-1.2c-3.8,1.5-7.4,3.8-10.2,6.7C134.5,81.6,134.1,81.3,134.2,81.1z M134,84.8c1.8-3.7,5.9-7,9.8-8.2
		c0.1,0,0.1,0,0.2,0c1.5-0.6,3.1-1.1,4.7-1.1c1.8,0,4.3,0.1,5,2c0.1,0.2,0,0.4-0.2,0.4c-3.5,0.6-7.1,0.7-10.5,2.1
		c-3.1,1.3-6,3.1-8.6,5.1C134.1,85.4,133.9,85.1,134,84.8z M91.6,87.7c1.2-0.3,6,0.2,6.4,0.2c2.5-0.1,5-0.4,7.4-0.8
		c2.1-0.3,4-0.8,6-1.5c1.1-0.3,3.8-1.8,4.9-0.7c1.2,1.3-1.5,2.7-2.5,3.2c-3.4,1.6-7.1,2.3-10.7,2.4c-3.3,0.1-7.7,0.7-10.8-1.1
		C92.3,89.3,90.6,88,91.6,87.7z M80,90.5c2.5,0.1,5,0.9,7.5,1.3c3,0.5,6,0.9,9,0.9c5.7,0,13.5-0.8,19.7-2c0.3-0.1-2.3,1.2-2.6,1.3
		c-0.1,0-0.3,0.1-0.4,0.1c5.1-1.2,10.1-2.5,15.1-4c9.5-2.7,19.5-4.8,27.7-10.6c1.1-0.8,4.2-3.6,5.6-2c3.2,3.5-14.4,9.8-16.8,10.6
		c-4.1,1.5-8.3,2.8-12.6,4c-6.8,1.9-13.6,3.4-20.6,4.6c-3.4,0.6-6.8,1.1-10.1,1.6c-2.8,0.4-10.4,1-8.7-0.5c1.4-0.4,5.6-0.7,7.5-1
		c2.8-0.5,5.7-1.1,8.5-1.8c-8.3,1.4-19.3,2.7-27.2-1.1c-0.1-0.1-0.2-0.2-0.1-0.3c-0.5-0.2-1-0.5-1.6-0.8
		C79.6,90.9,79.7,90.5,80,90.5z M35.9,74.3c-1.3-1.3-2.4-2.6-3.3-4.1c-0.8-1.4-1.3-2.9,0.8-2.1c2.1,0.7,4.1,2.5,5.7,3.9
		c5.1,4.7,9.7,10,15.2,14.3c1.3,1.1,2.7,2.1,4.2,2.9c1.3,0.7,5.7,3,3.9,2.6c-0.4,0.3-1.5-0.2-2.2-0.4c-1-0.3-2-0.8-3-1.3
		C49.3,86.2,42,80.5,35.9,74.3z M54.1,92.3c-2,0-5.3-1.1-7.2-1.7c-2.3-0.7-4.6-1.8-6.9-2.8c-2.1-0.9-4.5-1.6-6.3-3.1
		c-1.2-1-2.4-3.3,0.2-3.1c2.7,0.2,4.9,1.9,7,3.5c2,1.5,4.2,2.6,6.5,3.6c0.9,0.4,1.9,0.8,2.8,1.3c0.8,0.4,2.4,1.6,3.2,1.6
		C53.4,91.7,54.1,92.3,54.1,92.3z M57.7,84.9c-0.2-0.2,0.2-0.5,0.4-0.4c8.6,6.1,19.4,7.4,29.3,10.2c0.3,0.1,0.3,0.5,0,0.5
		c-4.5,0.7-9.7,0.1-14.1-1.1c-2.1-0.6-4.1-1.5-6-2.5C63.7,90.5,59.9,88.1,57.7,84.9z M87.2,100c2.5-0.2,5,0.1,7.5,0
		c2.7,0,5.4-0.3,8.1-0.6c5.6-0.6,11.3-1.2,16.9-2.1c5.4-0.9,10.8-2.1,16.1-3.4c4.4-1.2,8.6-3.3,13.3-3.7c0.3,0,0.4,0.3,0.2,0.5
		c-1.7,1.6-4.2,2.5-6.3,3.5c-2.5,1.1-4.9,2.1-7.5,2.9c-5.5,1.7-11,3-16.6,3.9c-5,0.8-10.1,1.8-15.2,2.2c-4.6,0.4-9.2,0.3-13.6-1.2
		c-1.1-0.3-2.1-0.7-3-1.5C86.8,100.3,87,100,87.2,100z M24.6,65.4c-1.2,2.3,0.6,4.7-0.2,7c-3.5-2.2-4.8-8.2-1.4-11.2
		c4.1-3.6,10.7,0,14.1,2.7c5.6,4.3,10.2,9,16.4,12.4c3.6,2,7.3,3.6,11.1,5.1c1.9,0.7,3.8,1.4,5.7,2.2c1.2,0.5,4.5,1.3,4.9,2.5
		c0.1,0.3-7-0.2-7.6-0.4c-2.8-0.6-5.5-1.5-8.1-2.7c-5.2-2.4-9.9-5.6-14.4-9.1c-2.3-1.8-4.5-3.6-6.7-5.5c-2.2-1.9-4.6-3.9-7.5-4.7
		C28.7,63,25.8,62.9,24.6,65.4z M26.8,67.3C26.8,67.3,26.8,67.3,26.8,67.3c1.5-0.6,4.2,3.9,4.9,4.9c3.2,4,6.8,8,11.1,11.1
		c1.4,0.8,2.7,1.7,4.1,2.5c0.3,0.2,0,0.7-0.3,0.5c-2.4-1.2-5.2-2.2-7.5-3.6c-4.4-2.7-9-5.9-11.7-10.6C26.9,71.3,25.3,67.9,26.8,67.3
		z M19.5,76.9c1.2,0.4,2.1,1.8,3,2.8c3.4,2.8,7.1,5.2,11.1,7.2c4.9,2.4,10.1,4,15.3,5.5c5.7,1.7,11.4,3.4,17.4,4.1
		c5.4,0.6,10.8,1,16.2,1c0.4,0,0.4,0.5,0,0.6c-9.1,1.6-15.9,0.3-23.7-1c-1.3-0.2-2.7-0.5-4-0.7c0,0-0.1,0-0.1,0
		c-9.1-1.6-18.8-3.5-26.6-8.7c-2.6-1.7-5.2-3.6-7.4-5.8c-0.8-0.8-2.4-2.5-2-3.8c0,0,0-0.1,0-0.1C18.3,77.3,18.8,76.7,19.5,76.9z
		 M39.6,96.3c2.3,1.6,4.9,2.7,7.3,4.2c0.3,0.2,0.1,0.6-0.2,0.5c-3-1-6.1-2.2-8.8-3.9c-0.1,0-0.1,0-0.2,0c-1.5-0.9-3.7-2.2-3.8-4.2
		c0-0.2,0.2-0.3,0.4-0.3C36.3,93.5,37.8,95.1,39.6,96.3z M37.2,103.5c-1.9-0.5-3.7-1.2-5.4-2.1c-3.5-1.5-6.9-3.2-10.1-5.3
		c-2.7-1.8-7.2-4.6-7.2-8.2c0-0.2,0.2-0.3,0.4-0.3c0.1,0,0.1,0,0.1,0c0.1-0.1,0.2-0.1,0.3,0c0.8,0.6,1.3,1.4,1.9,2.1
		c0.7,0.8,1.5,1.6,2.3,2.3c1.7,1.5,3.6,2.9,5.5,4.2c2.3,1.6,4.6,3.3,7.1,4.5c1.8,0.7,3.5,1.4,5.3,2.1
		C37.7,103.1,37.6,103.6,37.2,103.5z M65.9,110.7c-3.9-0.5-7.8-1.8-11.6-3.1c-3.4-1.1-6.1-1.6-9.4-3c-5.9-2.4-10.2-5.1-14.9-7.8
		c-3.1-2.1-6.1-4.6-8.7-7c-2.6-2.3-5.4-5-6.1-8.5c-0.1-0.6-0.2-2.5,0.8-2.4c1,0.1,1.8,1.6,2.2,2.2c0.8,1.2,1.5,2.5,2.4,3.7
		c1.9,2.6,4.2,5.1,6.6,7.3c2.7,2.4,5.5,4.5,8.6,6.4c2.3,1,4.5,2.4,6.8,3.4c6.6,2.8,13.4,4.7,20.2,6.9c1,0.3,3.7,0.7,4.3,1.6
		c0.1,0.1,0.1,0.2,0.1,0.3C67.2,111,66.3,110.8,65.9,110.7z M62.5,104c-3-0.7-6-1.6-8.9-2.7c0,0.1-0.2,0.2-0.3,0.2
		c-3.8-1.5-7.6-2.8-11-5.1c-0.3-0.2-0.1-0.6,0.2-0.5c3.3,1.1,6.4,2.2,9.8,2.8c6.2,1.1,12.2,2.7,18.2,4.4c2.3,0.6,4.6,0.9,6.9,1.6
		c1.1,0.3,6.6,2.2,2.7,2.5c-2.5,0.2-4.9-0.4-7.4-0.9C69.3,105.6,65.9,104.8,62.5,104z M103.1,114.8c-1.9,0.4-3.7,0.6-5.6,0.5
		c-3.5,0.2-7.2-0.3-10.6-0.8c-3.2-0.4-6.4-1-9.5-2.1c-0.9-0.3-1.9-0.6-2.7-1c0,0,0,0,0,0c0,0-0.1,0-0.1-0.1
		c-0.3-0.1-0.1-0.5,0.1-0.5c4.8,0.2,9.4,1.5,14.2,2.1c4.7,0.6,9.5,0.7,14.3,1.3C103.3,114.3,103.4,114.8,103.1,114.8z M91,111.2
		c-3.8-0.2-8-0.3-11.3-2.3c-0.3-0.2-0.1-0.6,0.2-0.5c4.4,0.8,9.1,0.1,13.5-0.2c4.4-0.3,8.8-0.7,13.2-1.1c5.2-0.6,10.3-1.1,15.5-1.9
		c4.1-0.8,8.3-1.7,12.4-2.6c0.3-0.1,0.5,0.4,0.2,0.5c-4.1,2.3-8.4,4.2-12.9,5.6c-4.7,1.4-9.4,2.1-14.2,2.4
		C102,111.4,96.5,111.5,91,111.2z M126.7,116.7c-2.4,0.7-4.8,1.4-7.2,2c-0.9,0.2-2,0.5-3.1,0.5c-1.5,0.3-3,0.4-4.3-0.5
		c-0.2-0.1-0.2-0.4,0.1-0.5c9-2.6,18-6,26.2-10.6c3.9-2.2,7.5-4.9,11.1-7.5c2.6-1.9,5.2-3.8,7.4-6.1c0-0.1,0-0.2,0.1-0.3
		c1.1-1.1,2-2.4,3.2-3.5c0.2-0.2,0.6,0.1,0.4,0.3c0,0,0,0,0,0.1c0,0,0,0,0,0c0.6,1.3-0.2,2.9-0.9,4c-1,1.6-2.2,3.2-3.5,4.6
		c-3.9,4.1-8.5,7.6-13.4,10.4C137.7,112.6,132.3,114.9,126.7,116.7z M157.1,109.2c-2.9,1.7-6,2.7-9.2,3.6c-1.9,0.5-4.6,1.7-6.6,0.8
		c-0.2-0.1-0.1-0.4,0.1-0.5c4.2-1.7,8.7-2.9,12.6-5.2c1.3-0.8,2.8-1.5,3.9-2.6c0.5-0.6,1-1.2,1.1-2c0.2-0.9-0.3-1.9-0.1-2.8
		c0.1-0.7,0.5-1.1,0.9-1.7c0.1-0.1,0.3-0.2,0.4-0.1C164.5,101.8,160.3,107.3,157.1,109.2z M162.7,85.6c-1.3,3.3-4.6,5.2-7,7.7
		c-1.7,1.7-4.4,3.4-6.2,5c-4.6,3.8-9.6,7.1-14.9,9.8c-5.6,2.8-11.2,5.4-17.2,7.3c-2.1,0.6-4.1,1.4-6.2,1.9c-1.6,0.4-3.5,0.7-5-0.1
		c-0.2-0.1-0.2-0.5,0.1-0.5c5.1-1.4,10.4-2.3,15.4-4.4c4.8-2,9.3-4.5,13.7-7.2c6.1-3.6,12.6-7.5,17.9-12.3c2.5-2.3,4.9-5.2,7-7.9
		c0.5-0.7,1.5-2.7,2.5-2.6c0.2,0,0.3,0.1,0.3,0.3C163.2,83.7,163,84.6,162.7,85.6z"/>
	<path class="st3" d="M40.3,65.4c6.8,6.8,47.7,30.1,81.4,16.2c0,0,9.6-12.4,23.7-18.5c1.4-1.2,5.4-5.1,3.9-8.9
		c-1.6-4.2-3.3-4.4-3.6-4.4c0,0-0.1,0-0.1,0s0,0,0.1,0c0.7,0,7.4-0.4,9-1.7c1.7-1.4,0.7-3.3-0.1-4c0,0,3.5-1,2.7-2.5
		c-0.8-1.6-5.1-3.2-13.8-2.4c0,0,1.6-0.1,1.6-3.3c0-3.1-4.4-1.6-6.9-1.8c-11.7,0.1-22.3,9.3-25.6,13c-3.2,3.7-5.2,8.8-14.1,9
		c-8.9,0.3-13.1-5.4-13.1-5.4c-8.1-0.1-15.3-2.5-26.6-5.1c-11.3-2.5-24.3,0.8-24.3,0.8c-1,0.2-1.9,0.3-2.7,0.4
		c-3.2,1-9.9,3.5-14.3,7.2c-5.9,5.1-4.5,11.2-2.3,10c2.3-1.1,7.3-9.5,11.6-10.6c0,0-1.6,2.3,0.4,3c0,0-1.7,1-1.7,2.3
		C25.4,58.8,33.5,58.6,40.3,65.4z"/>
	<path class="st4" d="M157.2,41.6c-0.8-1.6-5.1-3.2-13.8-2.4c0,0,1.6-0.1,1.6-3.3c0-2-1.9-2.1-3.9-1.9c0,0.1-0.1,0.1-0.2,0.1
		c0,0,0,0-0.1,0c0.4,0.2,0.8,0.4,1.1,0.7c0.8,0.8-0.1,1.8-0.9,2.2c-1.6,0.6-3.5,0.7-5.2,0.9c-3.3,0.4-6.7,0.5-10,1.2
		c-0.3,0.1-0.5-0.3-0.2-0.5c3.5-2.4,7.5-3.7,11.6-4.5c-11.4,0.6-21.5,9.4-24.7,13c-3.2,3.7-5.2,8.8-14.1,9
		c-8.9,0.3-13.1-5.4-13.1-5.4c-8.1-0.1-15.3-2.5-26.6-5.1c-11.3-2.5-24.3,0.8-24.3,0.8c-0.8,0.2-1.5,0.3-2.1,0.3
		c0.6,0,1.3,0,1.8,0.3c0.2,0.1,0.2,0.4,0,0.5c-4,2.4-8.4,3.8-12.1,6.5c-3.5,2.5-6.7,5.6-8,9.8c0.3,0.3,0.8,0.4,1.2,0.2
		c2.3-1.1,7.3-9.5,11.6-10.6c0,0-1.6,2.3,0.4,3c0,0-1.7,1-1.7,2.3c0,0,8.1-0.2,14.9,6.6c6.8,6.8,47.7,30.1,81.4,16.2
		c0,0,9.6-12.4,23.7-18.5c1.4-1.2,5.4-5.1,3.9-8.9c-1.6-4.2-3.3-4.4-3.6-4.4c0,0-0.1,0-0.1,0s0,0,0.1,0c0.7,0,7.4-0.4,9-1.7
		c1.7-1.4,0.7-3.3-0.1-4C154.5,44.1,158.1,43.1,157.2,41.6z M119.1,43c0.5-0.5,1-0.9,1.5-1.2c0,0,0-0.1,0.1-0.1
		c1.3-0.7,2.9-1.2,4.3-0.6c0.1,0.1,0.1,0.3,0,0.3c-1.7,1.1-3.8,1.3-5.7,1.8C119.1,43.4,118.9,43.1,119.1,43z M114.5,46.8
		c3.2-2.7,7.8-3.2,11.7-3.9c4.8-0.9,9.5-2.1,14.4-2.9c0,0,0.1-0.1,0.1-0.1c0.6-0.1,1.1-0.2,1.7-0.2c0.3,0,0.6-0.1,0.9-0.1
		c0.1,0,0.1,0,0.2,0c1.2-0.1,2.4-0.2,3.6-0.1c1.6,0.1,3.8,0.2,4.7,1.8c0.1,0.2,0,0.4-0.2,0.4c-3,0.7-6.1,0.6-9.2,0.9
		c-3.5,0.4-7,0.9-10.5,1.7c-3.1,0.7-6,1.6-9,2.4c-2.7,0.7-5.4,1.2-8.2,0.6C114.4,47.3,114.4,47,114.5,46.8z M113.9,57.5
		c0,0,0.1-0.1,0.1-0.1c3.9,0.4,7.4-0.4,11.2-1.5c1.9-0.5,4-1.7,6.2-2.9c0.6-0.3,1.5-0.1,1.4,1.1c-0.2,1.6-1.8,2.6-2.6,3.1
		c-1.5,0.9-3,1.5-4.6,1.8c-2.1,0.4-4.3,0.5-6.5,0.2c-1.7-0.2-3.5-0.3-5.1-1.2C113.7,58,113.7,57.5,113.9,57.5z M101.1,60.3
		c2.3,0.3,4.6,0.9,6.9,1.1c2,0.2,4,0.2,6,0.1c3.4-0.1,6.8-0.2,10.1-0.6c5.1-0.6,11-2.2,13.7-6.8c0.3-1,0.8-1.8,1.6-0.6
		c0.8,1.2-0.5,3.5-1.2,4.4c-2.1,2.8-6.2,3.9-9.5,4.6c-5.4,1.1-10.9,1.2-16.4,0.9c-2.7-0.2-5.4-0.4-8-0.9c-1.3-0.3-2.8-0.5-3.6-1.7
		C100.6,60.5,100.9,60.3,101.1,60.3z M88.9,55.7c1.1-0.1,2.5-0.2,3.4,0.5c0.2,0.2,0.2,0.4-0.1,0.5c-3.4,1.4-7,1.6-10.5,2.4
		c-2.6,0.5-5.6,1.1-7.9-0.5c-0.2-0.1-0.2-0.4,0.1-0.5c3.8-1.5,7.9-1.7,12-1.9C86.8,56,87.8,55.8,88.9,55.7z M76.7,51.1
		c2.3,0.1,9.2,0.8,8.2,2.2c-0.7,1-4.6,1.2-5.8,1.5c-2.1,0.4-4.2,0.9-6.3,1.3c-1.3,0.2-8.4,1.7-5.9-1.8c1.9-2.8,6-3.2,9.1-3.2
		C76.1,51,76.4,51,76.7,51.1z M41.6,47.1c1.2-1.3,3.3-1.5,5-1.7c2.7-0.4,5.5-0.4,8.2,0c4.8,0.7,9.8,2.3,13.6,5.3
		c0.2,0.2,0.2,0.5-0.1,0.5c-4.4,0.2-8.4-1.3-12.6-2.3c-4.4-1-8.8-1.4-13.3-1.3c-0.1,0.1-0.2,0.1-0.3,0.1c-0.1,0-0.3-0.1-0.4-0.1
		C41.5,47.5,41.5,47.3,41.6,47.1z M28.2,55C28.2,55,28.2,55,28.2,55c-0.1,0.1-0.2,0.1-0.3,0.2c-0.1,0.1-0.3,0-0.3-0.1
		c-0.2,0-0.3-0.2-0.3-0.4c1.3-3.5,6.1-4.3,9.3-4.5c5.1-0.4,10.7,0.7,15.3,3c0.3,0.1,0.1,0.5-0.1,0.5C43.9,53.1,35.7,51.1,28.2,55
		C28.3,55,28.3,55,28.2,55z M28.6,57.7c-0.1-0.1-0.2-0.3-0.1-0.4c0,0,0-0.1,0.1-0.1c0-0.1,0-0.1,0.1-0.1c0.2-0.3,0.4-0.4,0.7-0.6
		c0.1-0.1,0.3,0,0.3,0.1c6.2-2.9,13.1-2.7,19.8-1.6c3.9,0.7,7.8,1.6,11.6,2.6c2.6,0.6,5.4,1,8,1.9c5.1,1.2,10.1,3.3,14.6,5.8
		c3,1.7,6,3.6,9.1,5.2c2.4,1.2,4.7,2.4,7.1,3.6c1.6,0.6,3.3,1.2,5,1.6c1.9,0.5,3.7,0.9,5.5,1.5c0.2,0.1,0.3,0.5,0,0.5
		c-8.3,1.2-16.5-2.8-22.7-7.8c-1.4-1.1-2.8-2.3-4.3-3.2c-3.3-2-7-3.3-10.7-4.4c-4-1.2-8.2-2.1-12.3-2.8c-7.9-1.3-15.4-2.1-23.3-1
		C34.2,58.7,31.2,59.1,28.6,57.7z M110.1,80.6c-5.7,1-14.8,0.9-17.9-5c-0.1-0.3,0.1-0.5,0.4-0.4c3.1,1.4,6.3,2.8,9.7,3.4
		c2.6,0.4,5.3,0.7,7.9,1.5C110.3,80.2,110.4,80.6,110.1,80.6z M73.1,78.9c-5.4-0.9-14.5-1.2-16.6-7.5c-0.1-0.3,0.2-0.4,0.4-0.3
		c2.1,1,4.2,2.3,6.4,3.1c0.2,0.1,0.2,0.2,0.2,0.4c3.2,1.4,6.5,2.5,9.7,3.9l0,0c0,0,0,0,0.1,0C73.6,78.6,73.4,79,73.1,78.9z
		 M61.1,71.3c3.7-1.5,8.6,0.4,10.7,3.7c0.1,0.2-0.1,0.5-0.3,0.4c-1.3-0.5-2.6-0.9-4-1.4c-0.1,0.1-0.2,0.1-0.4,0.1
		c-2-0.9-4-1.5-6.1-2.2C60.9,71.8,60.9,71.4,61.1,71.3z M78.2,81.4c-0.2,0.2-0.5,0-0.5-0.2c-0.6-8.7-9-11.2-16.4-12.2
		c-4.1-0.3-8.2,0.4-12.2-0.1c-0.2,0-0.3-0.4-0.1-0.5c3.8-1.7,8.1-2.1,12.2-1.7c3.5,0.3,7.1,0.9,10.2,2.4
		C75.8,71.1,82.9,76.3,78.2,81.4z M89.2,81.4c-0.4,1.3-0.1,2.5-1.7,2.3c-2.2-0.2-2.1-4.5-2.5-6.2c-1.4-5.7-4.5-8-9.9-10.2
		c-5.5-2.2-12-3.2-17.9-3.8c-3.7-0.4-7.5-0.4-11.2-0.2c-0.8,0-9.5,0.3-6.9-1.2c2.5-1.4,5.2-1.4,8.8-1.4c4,0,7.8,0.8,11.7,1
		c3.7,0.2,7.4,0.7,11,1.4c4.2,0.8,8.5,2.6,12.1,5C87,70.9,90.8,75.8,89.2,81.4z M116.3,81.8c0,0.2,0,0.4-0.2,0.6
		c-0.9,1.3-4.5,1.5-5.9,1.7c-2.4,0.4-4.8,0.5-7.1,0.7c-3.6,0.2-8.4,0.9-11.4-1.6c-0.1-0.1-0.1-0.2-0.1-0.3c1-2.3,5.4-1.1,7.3-0.9
		c3.7,0.5,7.4,0.4,11.1,0c1.3-0.1,2.7-0.2,4-0.3C114.8,81.6,116.2,81.2,116.3,81.8z M131.6,69.6c-1.5,1.1-2.9,2.2-4.6,3
		c-1.6,0.7-3.2,0.9-4.9,1.1c-4.2,0.4-8.4,0.3-12.5-0.5c-4.2-0.8-8.2-2.2-12.2-3.7c-2.5-1-5.7-1.6-7.6-3.6c-0.2-0.2,0-0.5,0.3-0.5
		c2.4,0.5,4.6,1.4,6.9,2.2c0.2,0.1,0.2,0.2,0.2,0.4c4.8,1.5,9.7,2.5,14.7,3c6.5,0.8,13.4,0.7,19.6-1.8
		C131.7,69,131.9,69.4,131.6,69.6z M145.8,57c-0.7,2.2-2.2,3.8-4,5.3c-2.1,1.6-4.2,2.9-6.6,3.8c-2.2,0.9-4.5,1.9-6.9,2
		c-0.3,0.1-0.7,0.1-1,0.2c-6.1,1-12.8,0.9-18.9-0.2c-5.4-0.9-11.9-1.8-16.4-5.1c-0.8-0.6-3.2-2.3-1.8-3.3c1-0.8,2.7,0.4,3.6,0.9
		c1.3,0.8,2.6,1.4,4.1,1.9c1.5,0.4,2.8,1.2,4.3,1.6c4.4,1.3,9.2,1.7,13.7,2c4.2,0.3,8.4,0.2,12.5-0.9c3.3-0.9,6.4-2.1,9.5-3.6
		c0.4-0.3,0.9-0.7,1.3-1c1.5-1.3,3-2.8,4-4.5c0,0,0-0.1,0-0.1c0.4-1.2,0.5-2.5,1.1-3.7c0.1-0.1,0.3-0.2,0.4-0.1
		C146.1,53.2,146.3,55.4,145.8,57z M144.7,48c-3,0.5-6,1.2-9,1.8c-3,0.6-5.9,1.2-8.9,1.7c-3.1,0.6-6.3,1.1-9.4,1.8
		c-2.6,0.5-5.3,1-8,1.2c-0.3,0-0.4-0.2-0.2-0.4c2-1.1,4.3-1.9,6.7-2.6c2.6-0.8,5.2-1.5,7.9-2.1c3-0.7,6-1.2,8.9-1.9
		c1.4-0.3,2.7-0.6,4.1-0.9c0,0,0.1,0,0.1,0c3.1-0.5,6.1-1.1,9.3-1.4c1.3-0.1,2.7-0.2,4-0.1c0.6,0,1.3,0.1,1.6,0.4
		C153.3,46.8,145.5,47.9,144.7,48z"/>
	<path class="st5" d="M58.6,45.7c11.3,2.5,18.5,4.9,26.6,5.1c0,0,4.2,5.7,13.1,5.4c8.9-0.3,10.9-5.4,14.1-9
		c3.2-3.7,13.8-12.9,25.6-13c0,0-1.7-3.1-7.5-3.1c0,0,1.7-1.7-0.8-4.7c-2.5-3-10.5-3.7-17-0.6c0,0,3.4-5.9,13.7-6.8
		c10.3-0.8,11.6,1.7,13.1,0.1c1.6-1.6-1.8-4.4-8.1-4c-6.2,0.4-20.3,4-28.3,13.4c0,0-8.1-6.4-24.5-3.7c0,0-13.7-9.2-23.2-10.2
		c-9.4-0.9-10.5,1.9-9,3c0,0,0.4,0.4,3.1,0.1c2.7-0.3,14.5,0.3,19.5,9.3c0,0-5.7-5.2-12.9-4.1C49,24.2,44.4,28,40.8,33.7
		c0,0-7.5-0.8-10.3,1.8c-2.8,2.7-1,4.4,1.1,4.5c0,0-2.4,1.8-2.5,3.5c-0.1,1.7,1,2.8,4.4,2.8c0,0-0.7,0.2-1.8,0.5
		c0.8-0.1,1.7-0.2,2.7-0.4C34.3,46.5,47.3,43.1,58.6,45.7z"/>
	<path class="st4" d="M136.8,15.7c0.1,0.2,0.1,0.4,0.1,0.7c0,1.7-2.4,1.1-3.4,1c-3.6-0.3-7.3-0.2-10.9,0.9c-5.7,1.7-10,5.6-14.8,8.9
		c-1,0.7-2.5,1.9-3.8,1.8c-0.4,0-0.6-0.2-0.7-0.5c0,0,0,0-0.1,0.1c0,0-8.1-6.4-24.5-3.7c0,0-7.7-5.2-15.6-8.2c0.7,0.4,1.3,0.7,2,1.1
		c2.9,1.7,5.5,3.9,8.2,6c1.6,1.3,3.4,2.3,5.1,3.4c1,0.7,2.2,1.2,3.1,2.1c0.2,0.2,0.1,0.5-0.2,0.5c-3.7-0.1-7-2.3-9.8-4.5
		c-3.2-2.5-6.2-5.4-10-7.1c-2.3-1-4.6-1.6-7.1-1.6c-1.8,0-3.8,0.4-5.5,0.1c-0.8-0.1-1.8-0.5-2.3-1.1c-0.9,0.7-0.8,1.5-0.1,2.1
		c0,0,0.4,0.4,3.1,0.1c2.7-0.3,14.5,0.3,19.5,9.3c0,0-5.7-5.2-12.9-4.1C49,24.2,44.4,28,40.8,33.7c0,0-7.5-0.8-10.3,1.8
		c-2.8,2.7-1,4.4,1.1,4.5c0,0-2.4,1.8-2.5,3.5c-0.1,1.7,1,2.8,4.4,2.8c0,0-0.7,0.2-1.8,0.5c0.8-0.1,1.7-0.2,2.7-0.4
		c0,0,13-3.4,24.3-0.8c11.3,2.5,18.5,4.9,26.6,5.1c0,0,4.2,5.7,13.1,5.4c8.9-0.3,10.9-5.4,14.1-9c3.2-3.7,13.8-12.9,25.6-13
		c0,0-1.7-3.1-7.5-3.1c0,0,1.7-1.7-0.8-4.7c-2.5-3-10.5-3.7-17-0.6c0,0,3.4-5.9,13.7-6.8c10.3-0.8,11.6,1.7,13.1,0.1
		C140.6,18.1,139.5,16.5,136.8,15.7z M85.5,25.1c2.8-0.9,5.8-0.4,8.6,0.3c2.6,0.6,5.4,1.2,7.7,2.8c0.1,0.1,0.2,0.2,0.1,0.4
		c-1.1,2.1-4,1.4-5.8,0.9c-3.5-1.1-6.9-2.7-10.5-3.8c-0.1,0-0.1-0.1-0.1-0.1C85.3,25.5,85.3,25.2,85.5,25.1z M110,35.9
		c-2.6,1.1-5.6,2.1-8.4,1.3c-0.2-0.1-0.3-0.4-0.1-0.5c0.8-0.6,1.7-1,2.6-1.4c0.9-0.5,1.8-1.1,2.8-1.7c2.4-1.4,4.9-2.8,7.4-3.9
		c3.1-1.3,9.2-3.7,11.2,0.6c0.1,0.2-0.1,0.5-0.3,0.4c-3.7-0.7-7.4,2-10.7,3.2c-0.2,0.1-0.4,0.1-0.6,0.2
		C112.5,34.7,111.3,35.3,110,35.9z M113.7,36.8c-0.3,1.2-1.1,2-1.9,2.9c-1,1.2-2.2,3-4,2.9c-1-0.1-3.6-0.6-3.5-2
		c-0.1-0.7,1.4-1.4,1.8-1.6c2.2-1.2,4.8-2.3,7.3-2.6C113.6,36.5,113.7,36.7,113.7,36.8z M105.7,47.5c-1.2,0.3-2-0.9-2.7-1.9
		c-1-1.4-1.7-2.9-2.7-4.2c-1.6-2.2-3.2-4.6-5.3-6.5c-2.7-2.4-6.3-3.7-9.1-5.9c-0.2-0.2,0-0.6,0.3-0.5c1.9,0.7,4,1,5.9,2
		c2.9,1.5,5.4,4,7.5,6.4C100.4,37.8,108.4,46.9,105.7,47.5z M85.5,42.5c2.7-0.1,5.3,1.1,7.9,1.6c1.7,0.3,3.4,0.1,5.1,0.5
		c0.9,0.2,3.7,2.3,1.4,2.7c-1.4,0.2-3.2-0.5-4.6-0.6c-2.9-0.2-5.3-0.6-7.8-2.1c-0.5-0.3-2.6-1.1-2.5-1.8
		C85.1,42.6,85.3,42.5,85.5,42.5z M80.6,37.3c-0.1-0.2,0.1-0.4,0.3-0.3c0.5-1,4.8,0.6,5.2,0.8c2.4,0.8,4.9,1.6,7.3,2.5
		c1.3,0.5,3,0.8,3.8,2c0.1,0.2-0.1,0.5-0.3,0.4c-3.7-0.6-7.6-1.1-11.2-2.1C83.8,40.1,81.3,39.4,80.6,37.3z M90.2,47.6
		c0.9-0.4,1.9,0.1,2.8,0.4c1.1,0.3,2.3,0.4,3.5,0.4c1.9-0.1,3.8-0.3,5.7,0c0.2,0,0.4,0.3,0.2,0.5c-2.8,2.4-6.7,2.1-9.8,0.6
		C92.5,49.3,89.7,47.8,90.2,47.6C90.2,47.6,90.2,47.6,90.2,47.6z M96.5,32c-1.5-0.3-2.9-1.5-4.2-2.4c-0.2-0.1-0.1-0.3-0.1-0.4
		c0-0.2,0.1-0.3,0.4-0.3c1.2,0.2,2.4,0.5,3.6,0.8c0.6,0.2,2,0.6,2,1.4C98.3,32.1,97.1,32.1,96.5,32z M74.4,30.1
		c0-0.1,0.1-0.2,0.1-0.3c0.8-1.1,3.6,0.4,4.5,0.7c2.2,0.8,4.4,1.6,6.7,2.2c1.5,0.4,3,0.6,4.4,1.3c0.7,0.3,1.4,0.8,1.9,1.4
		c0.5,0.6,0.6,1.2-0.3,1.6c-0.9,0.4-1.8-0.2-2.6-0.4c-4.2-1.5-8.8-1.1-12.5-4C76.1,32.1,74.2,31,74.4,30.1z M72.8,41
		c0.2,0.2,0,0.6-0.3,0.5c-1.6-0.5-3-1.5-4.5-2.3c-1.7-0.9-3.6-1.6-5.5-2.2c-1.9-0.7-3.9-1.3-6-1.6c-1-0.2-2.1,0-3.1-0.2
		c-0.1,0-0.2-0.1-0.2-0.2c-0.1-0.1-0.1-0.3,0-0.4c2.3-2.1,6.8-1.2,9.5-0.5C67.1,35,70.1,37.5,72.8,41z M52.9,32.2
		c-1.6,0.9-3.3,2.1-5.1,1.2c-0.2,0.2-0.6-0.1-0.4-0.4c3.8-4.6,10.5-4.5,15.6-2.3c0.3,0.1,0.2,0.6-0.2,0.5
		C59.5,30.6,55.9,30.5,52.9,32.2z M44.1,30c2.1-2.8,5.6-4.4,9-5.2c4.8-1.1,12.7-1,15.5,4c0.1,0.2-0.1,0.5-0.3,0.4
		c-4.4-1.8-9.1-3.3-13.8-2c-3.9,1.1-6.9,3.7-10.1,6c0,0.1,0,0.3-0.2,0.3C41.6,33.8,43.4,30.9,44.1,30z M30.5,38.7
		c-0.7-0.9-0.3-1.9,0.4-2.6c2-2.5,6.2-1.7,9-1.6c4.4,0.2,9.5,0.1,13.2,2.8c0.2,0.2,0.2,0.5-0.1,0.5c-5.8,0.3-12.1-0.9-17.7,1
		C33.9,39.2,31.5,40.1,30.5,38.7z M75,47.9c-4.5-0.7-8.5-2.4-12.9-3.7c-3-0.9-6-1.3-9.1-1.7c-5.1-0.3-10.1,0-15,1.5
		c-1.8,0.6-5.2,1.9-6.9,0.5c-2.1-1.7,0.4-3.5,2-4.3c0.1,0,0.1,0,0.2,0c3.7-2.2,8.8-2,12.9-1.8c1.8,0.1,3.7,0.4,5.5,0.7
		c8.3,1,16.2,4.4,23.5,8.3C75.5,47.5,75.3,47.9,75,47.9z M131.2,32.8c0.2,0.1,0.1,0.5-0.1,0.5c-3.7,1.1-7.6,2-10.8,4.3
		c-3.4,2.4-6.2,5.7-8.9,8.8c-1.9,2.1-3.8,4.2-6.1,5.9c-1.7,1.2-3.7,2.4-5.9,2.3c-11.7,1.8-20.3-14.2-26.5-22c0,0,0,0,0,0
		c0,0,0,0,0,0c-0.3-0.2,0-0.7,0.3-0.5c2.5,1.4,4.3,3.7,6.1,5.9c2,2.4,4.2,4.6,6.5,6.8c2.3,2.2,4.4,4.8,7.1,6.5
		c1.8,1.2,3.7,1.7,5.7,1.5c1.3-0.4,2.6-0.8,3.7-1.6c1.7-1.3,3.3-2.7,4.8-4.2c2.7-2.8,5.1-5.9,8-8.5c2.4-2.2,5.2-4.1,8.3-5.1
		C125.8,32.4,128.7,31.7,131.2,32.8z M113.9,25.7c3.9-1.4,8.8-2.3,12.5,0.1c0.3,0.2,0.1,0.6-0.2,0.5c-6.7-1.5-12.8,1.8-18.4,5.1
		c-2.3,1.4-7.2,5.7-9.5,2.5c-0.3-0.1-0.3-0.5,0-0.5c2.9-0.5,5.3-2.3,7.8-3.8C108.5,28,111.2,26.6,113.9,25.7z"/>
	<path class="st6" d="M145.7,49.8C145.7,49.8,145.6,49.8,145.7,49.8C145.6,49.8,145.7,49.8,145.7,49.8z"/>
</g>
<g>
	<g>
		<g>
			<polygon class="st7" points="45.1,57.1 43.5,58.8 44.8,59.6 46.2,57.8 			"/>
			<polygon class="st7" points="24.4,66.7 22.4,67.3 22.6,68.4 24.4,67.8 			"/>
			<polygon class="st7" points="40.8,79.8 40.9,77.8 39.8,77.6 39.8,79.5 			"/>
		</g>
		<g>
			<polygon class="st7" points="114.1,72.6 112.5,74.3 113.9,75.1 115.2,73.3 			"/>
			<polygon class="st7" points="93.4,82.3 91.4,82.8 91.6,84 93.4,83.4 			"/>
			<polygon class="st7" points="109.9,95.4 109.9,93.3 108.8,93.2 108.8,95 			"/>
		</g>
		<g>
			<polygon class="st7" points="77.2,88.7 75.6,90.4 76.9,91.1 78.3,89.3 			"/>
			<polygon class="st7" points="56.5,98.3 54.5,98.8 54.7,100 56.5,99.4 			"/>
			<polygon class="st7" points="72.9,111.4 73,109.3 71.9,109.2 71.9,111 			"/>
		</g>
		<g>
			<polygon class="st7" points="44.7,89.3 43.1,91 44.5,91.8 45.8,90 			"/>
			<polygon class="st7" points="24,98.9 22,99.5 22.2,100.6 24,100.1 			"/>
			<polygon class="st7" points="40.5,112 40.5,110 39.4,109.8 39.4,111.7 			"/>
		</g>
		<g>
			<polygon class="st7" points="133.8,96.9 132.2,98.6 133.5,99.3 134.8,97.5 			"/>
			<polygon class="st7" points="113.1,106.5 111.1,107.1 111.3,108.2 113.1,107.6 			"/>
			<polygon class="st7" points="129.5,119.6 129.6,117.5 128.4,117.4 128.5,119.3 			"/>
		</g>
		<g>
			<polygon class="st7" points="174.3,84.6 172.7,86.3 174,87.1 175.4,85.3 			"/>
			<polygon class="st7" points="153.6,94.2 151.6,94.8 151.8,95.9 153.6,95.3 			"/>
			<polygon class="st7" points="170,107.3 170.1,105.3 169,105.1 169,107 			"/>
		</g>
		<g>
			<polygon class="st7" points="152.5,53.3 151.1,54.8 152.3,55.5 153.5,53.9 			"/>
			<polygon class="st7" points="133.6,62.1 131.8,62.6 132,63.6 133.6,63.1 			"/>
			<polygon class="st7" points="148.6,74 148.7,72.1 147.6,72 147.7,73.7 			"/>
		</g>
		<g>
			<polygon class="st7" points="92.1,47 90.6,48.5 91.8,49.2 93,47.6 			"/>
			<polygon class="st7" points="73.2,55.8 71.3,56.3 71.5,57.3 73.1,56.8 			"/>
			<polygon class="st7" points="88.2,67.7 88.2,65.8 87.2,65.7 87.2,67.4 			"/>
		</g>
		<g>
			<polygon class="st7" points="114.6,28.3 113,30 114.3,30.8 115.6,29 			"/>
			<polygon class="st7" points="93.9,37.9 91.9,38.5 92.1,39.6 93.8,39.1 			"/>
			<polygon class="st7" points="110.3,51.1 110.4,49 109.2,48.8 109.3,50.7 			"/>
		</g>
		<g>
			<polygon class="st7" points="65.4,24.9 63.8,26.6 65.2,27.4 66.5,25.6 			"/>
			<polygon class="st7" points="44.7,34.6 42.7,35.1 42.9,36.3 44.7,35.7 			"/>
			<polygon class="st7" points="61.2,47.7 61.2,45.6 60.1,45.4 60.1,47.3 			"/>
		</g>
	</g>
</g>
<g>
	<g>
		<path class="st8" d="M48.6,49c-1.1,0-2.1,0.5-2.8,1.3c-0.1,0.1-0.1,0.2,0,0.2c0,0.1-0.1,0.2,0,0.4c0.1,0.4,0.6,0.4,0.9,0.3
			c0.2-0.1,0.4-0.2,0.6-0.4c0.3-0.2,0.7-0.2,1-0.3c0.5-0.1,1-0.1,1.2-0.7C49.6,49.3,49.1,49,48.6,49z"/>
		<path class="st8" d="M56.1,55.7c1.1-0.1,2-0.8,2.6-1.7c0-0.1,0-0.2,0-0.2c0-0.1,0-0.2,0-0.4c-0.1-0.4-0.6-0.3-0.9-0.2
			c-0.2,0.1-0.4,0.3-0.6,0.5c-0.2,0.3-0.6,0.3-0.9,0.4c-0.5,0.2-1,0.3-1.1,0.9C55.1,55.6,55.6,55.7,56.1,55.7z"/>
		<path class="st8" d="M56.4,47.1c-0.1,0.9,0.3,1.6,0.8,2.3c0,0,0.1,0.1,0.2,0c0.1,0,0.2,0.1,0.3,0.1c0.3,0,0.4-0.4,0.3-0.7
			c-0.1-0.2-0.2-0.3-0.3-0.5c-0.1-0.2-0.1-0.5-0.2-0.8c0-0.4-0.1-0.8-0.5-1C56.7,46.4,56.5,46.8,56.4,47.1z"/>
		<path class="st8" d="M49.9,59.3c0.9-0.1,1.5-0.6,2-1.3c0-0.1,0-0.1,0-0.2c0-0.1,0-0.2,0-0.3c-0.1-0.3-0.5-0.3-0.7-0.1
			c-0.2,0.1-0.3,0.2-0.4,0.4C50.6,58,50.3,58,50,58.1c-0.4,0.1-0.7,0.2-0.8,0.7C49.1,59.3,49.5,59.4,49.9,59.3z"/>
	</g>
	<g>
		<path class="st8" d="M36.4,35.9c-1.1,0-2.1,0.5-2.8,1.3c-0.1,0.1-0.1,0.2,0,0.2c0,0.1-0.1,0.2,0,0.4c0.1,0.4,0.6,0.4,0.9,0.3
			c0.2-0.1,0.4-0.2,0.6-0.4c0.3-0.2,0.7-0.2,1-0.3c0.5-0.1,1-0.1,1.2-0.7C37.4,36.2,36.9,35.9,36.4,35.9z"/>
		<path class="st8" d="M43.9,42.6c1.1-0.1,2-0.8,2.6-1.7c0-0.1,0-0.2,0-0.2c0-0.1,0-0.2,0-0.4c-0.1-0.4-0.6-0.3-0.9-0.2
			c-0.2,0.1-0.4,0.3-0.6,0.5c-0.2,0.2-0.6,0.3-0.9,0.4c-0.5,0.2-1,0.3-1.1,0.9C42.9,42.5,43.4,42.6,43.9,42.6z"/>
		<path class="st8" d="M44.2,34c-0.1,0.9,0.3,1.6,0.8,2.3c0,0,0.1,0.1,0.2,0c0.1,0,0.2,0.1,0.3,0.1c0.3,0,0.4-0.4,0.3-0.7
			c-0.1-0.2-0.2-0.3-0.3-0.5c-0.1-0.2-0.1-0.5-0.2-0.8c0-0.4-0.1-0.8-0.5-1C44.4,33.3,44.2,33.7,44.2,34z"/>
		<path class="st8" d="M37.7,46.2c0.9-0.1,1.5-0.6,2-1.3c0-0.1,0-0.1,0-0.2c0-0.1,0-0.2,0-0.3c-0.1-0.3-0.5-0.2-0.7-0.1
			c-0.2,0.1-0.3,0.2-0.4,0.4c-0.2,0.2-0.5,0.3-0.7,0.3c-0.4,0.1-0.7,0.2-0.8,0.7C36.9,46.2,37.3,46.3,37.7,46.2z"/>
	</g>
	<g>
		<path class="st8" d="M23.7,72.4c-1.1,0-2.1,0.5-2.8,1.3c-0.1,0.1-0.1,0.2,0,0.2c0,0.1-0.1,0.2,0,0.4c0.1,0.4,0.6,0.4,0.9,0.3
			c0.2-0.1,0.4-0.2,0.6-0.4c0.3-0.2,0.7-0.2,1-0.3c0.5-0.1,1-0.1,1.2-0.7C24.7,72.6,24.2,72.4,23.7,72.4z"/>
		<path class="st8" d="M31.2,79c1.1-0.1,2-0.8,2.6-1.7c0-0.1,0-0.2,0-0.2c0-0.1,0-0.2,0-0.4c-0.1-0.4-0.6-0.3-0.9-0.2
			c-0.2,0.1-0.4,0.3-0.6,0.5c-0.2,0.2-0.6,0.3-0.9,0.4c-0.5,0.2-1,0.3-1.1,0.9C30.2,78.9,30.7,79.1,31.2,79z"/>
		<path class="st8" d="M31.5,70.5c-0.1,0.9,0.3,1.6,0.8,2.3c0,0,0.1,0.1,0.2,0c0.1,0,0.2,0.1,0.3,0.1c0.3,0,0.4-0.4,0.3-0.7
			c-0.1-0.2-0.2-0.4-0.3-0.5c-0.1-0.2-0.1-0.5-0.2-0.8c0-0.4-0.1-0.8-0.5-1C31.7,69.7,31.5,70.1,31.5,70.5z"/>
		<path class="st8" d="M25,82.7c0.9-0.1,1.5-0.6,2-1.3c0-0.1,0-0.1,0-0.2c0-0.1,0-0.2,0-0.3c-0.1-0.3-0.5-0.3-0.7-0.1
			c-0.2,0.1-0.3,0.2-0.4,0.4c-0.2,0.2-0.5,0.3-0.7,0.3c-0.4,0.1-0.7,0.2-0.8,0.7C24.2,82.6,24.6,82.7,25,82.7z"/>
	</g>
	<g>
		<path class="st8" d="M58,58.9c-0.8,0-1.4,0.4-1.9,0.9c0,0,0,0.1,0,0.1c0,0.1,0,0.2,0,0.3c0,0.3,0.4,0.3,0.6,0.2
			c0.2-0.1,0.3-0.2,0.4-0.3c0.2-0.1,0.4-0.2,0.7-0.2c0.3-0.1,0.7-0.1,0.8-0.5C58.7,59.1,58.4,59,58,58.9z"/>
		<path class="st8" d="M63.1,63.4c0.8-0.1,1.3-0.6,1.8-1.2c0,0,0-0.1,0-0.1c0-0.1,0-0.2,0-0.3c-0.1-0.3-0.4-0.2-0.6-0.1
			c-0.1,0.1-0.3,0.2-0.4,0.3c-0.2,0.2-0.4,0.2-0.6,0.3c-0.3,0.1-0.7,0.2-0.7,0.6C62.4,63.4,62.8,63.5,63.1,63.4z"/>
		<path class="st8" d="M63.3,57.7c-0.1,0.6,0.2,1.1,0.6,1.5c0,0,0.1,0,0.1,0c0.1,0,0.1,0,0.2,0c0.2,0,0.2-0.3,0.2-0.4
			c0-0.1-0.1-0.2-0.2-0.3c-0.1-0.2-0.1-0.3-0.1-0.5c0-0.3,0-0.5-0.3-0.7C63.5,57.2,63.4,57.4,63.3,57.7z"/>
		<path class="st8" d="M58.9,65.9c0.6-0.1,1-0.4,1.4-0.9c0,0,0-0.1,0-0.1c0-0.1,0-0.1,0-0.2c-0.1-0.2-0.3-0.2-0.5-0.1
			c-0.1,0.1-0.2,0.2-0.3,0.2c-0.1,0.1-0.3,0.2-0.5,0.2c-0.2,0.1-0.5,0.2-0.6,0.5C58.4,65.9,58.7,66,58.9,65.9z"/>
	</g>
	<g>
		<path class="st8" d="M108.5,80.5c-1.1,0-2.1,0.5-2.8,1.3c-0.1,0.1-0.1,0.2,0,0.2c0,0.1-0.1,0.2,0,0.4c0.1,0.4,0.6,0.4,0.9,0.3
			c0.2-0.1,0.4-0.2,0.6-0.4c0.3-0.2,0.6-0.2,1-0.3c0.5-0.1,1-0.1,1.2-0.7C109.5,80.8,109,80.5,108.5,80.5z"/>
		<path class="st8" d="M116,87.2c1.1-0.1,2-0.8,2.6-1.7c0-0.1,0-0.2,0-0.2c0-0.1,0-0.2,0-0.4c-0.1-0.4-0.6-0.3-0.9-0.2
			c-0.2,0.1-0.4,0.3-0.6,0.5c-0.2,0.2-0.6,0.3-0.9,0.4c-0.5,0.2-1,0.3-1.1,0.9C115,87.1,115.6,87.2,116,87.2z"/>
		<path class="st8" d="M116.3,78.6c-0.1,0.9,0.3,1.6,0.8,2.3c0,0,0.1,0.1,0.2,0c0.1,0,0.2,0.1,0.3,0.1c0.3,0,0.4-0.4,0.3-0.7
			c-0.1-0.2-0.2-0.3-0.3-0.5c-0.1-0.2-0.1-0.5-0.2-0.8c0-0.4-0.1-0.8-0.5-1C116.6,77.9,116.4,78.3,116.3,78.6z"/>
		<path class="st8" d="M109.8,90.9c0.9-0.1,1.5-0.6,2-1.3c0-0.1,0-0.1,0-0.2c0-0.1,0-0.2,0-0.3c-0.1-0.3-0.5-0.3-0.7-0.1
			c-0.2,0.1-0.3,0.2-0.4,0.4c-0.2,0.2-0.5,0.3-0.7,0.3c-0.4,0.1-0.7,0.2-0.8,0.7C109,90.8,109.5,90.9,109.8,90.9z"/>
	</g>
	<g>
		<path class="st8" d="M78.3,92.9c-1.2,0-2.3,0.6-3.1,1.4c-0.1,0.1-0.1,0.2,0,0.2c0,0.1-0.1,0.3,0,0.4c0.1,0.4,0.6,0.5,1,0.3
			c0.3-0.1,0.5-0.3,0.7-0.4c0.3-0.2,0.7-0.3,1.1-0.3c0.5-0.1,1.1-0.2,1.3-0.8C79.4,93.1,78.9,92.9,78.3,92.9z"/>
		<path class="st8" d="M86.5,100.1c1.2-0.1,2.2-0.9,2.9-1.9c0.1-0.1,0.1-0.2,0-0.2c0-0.1,0-0.3,0-0.4c-0.1-0.4-0.7-0.4-1-0.2
			c-0.2,0.1-0.4,0.3-0.6,0.5c-0.3,0.3-0.7,0.4-1,0.5c-0.5,0.2-1.1,0.3-1.2,0.9C85.4,100,86,100.2,86.5,100.1z"/>
		<path class="st8" d="M86.8,90.8c-0.1,1,0.3,1.8,0.9,2.5c0,0.1,0.1,0.1,0.2,0c0.1,0,0.2,0.1,0.3,0.1c0.3,0,0.4-0.5,0.3-0.7
			c-0.1-0.2-0.2-0.4-0.3-0.6c-0.2-0.2-0.2-0.6-0.2-0.8c0-0.4-0.1-0.8-0.5-1.1C87.1,90,86.9,90.4,86.8,90.8z"/>
		<path class="st8" d="M79.7,104.1c1-0.1,1.7-0.7,2.2-1.5c0-0.1,0-0.1,0-0.2c0-0.1,0-0.2,0-0.3c-0.1-0.3-0.5-0.3-0.8-0.1
			c-0.2,0.1-0.3,0.3-0.5,0.4c-0.2,0.2-0.5,0.3-0.8,0.4c-0.4,0.1-0.8,0.2-0.9,0.7C78.9,104,79.3,104.2,79.7,104.1z"/>
	</g>
	<g>
		<path class="st8" d="M45.8,100.1c-1.1,0-2.1,0.5-2.8,1.3c-0.1,0.1-0.1,0.2,0,0.2c0,0.1-0.1,0.2,0,0.4c0.1,0.4,0.6,0.4,0.9,0.3
			c0.2-0.1,0.4-0.2,0.6-0.4c0.3-0.2,0.7-0.2,1-0.3c0.5-0.1,1-0.1,1.2-0.7C46.8,100.3,46.3,100.1,45.8,100.1z"/>
		<path class="st8" d="M53.3,106.7c1.1-0.1,2-0.8,2.6-1.7c0-0.1,0-0.2,0-0.2c0-0.1,0-0.2,0-0.4c-0.1-0.4-0.6-0.3-0.9-0.2
			c-0.2,0.1-0.4,0.3-0.6,0.5c-0.2,0.2-0.6,0.3-0.9,0.4c-0.5,0.2-1,0.3-1.1,0.9C52.3,106.6,52.8,106.7,53.3,106.7z"/>
		<path class="st8" d="M53.6,98.2c-0.1,0.9,0.3,1.6,0.8,2.3c0,0,0.1,0.1,0.2,0c0.1,0,0.2,0.1,0.3,0.1c0.3,0,0.4-0.4,0.3-0.7
			c-0.1-0.2-0.2-0.4-0.3-0.5c-0.1-0.2-0.1-0.5-0.2-0.8c0-0.4-0.1-0.8-0.5-1C53.9,97.4,53.6,97.8,53.6,98.2z"/>
		<path class="st8" d="M47.1,110.4c0.9-0.1,1.5-0.6,2-1.3c0-0.1,0-0.1,0-0.2c0-0.1,0-0.2,0-0.3c-0.1-0.3-0.5-0.3-0.7-0.1
			c-0.2,0.1-0.3,0.2-0.4,0.4c-0.2,0.2-0.5,0.3-0.7,0.3c-0.4,0.1-0.7,0.2-0.8,0.7C46.3,110.3,46.7,110.4,47.1,110.4z"/>
	</g>
	<g>
		<path class="st8" d="M124.7,51.9c-1,0-1.8,0.5-2.5,1.1c-0.1,0.1-0.1,0.1,0,0.2c0,0.1,0,0.2,0,0.3c0,0.3,0.5,0.4,0.8,0.3
			c0.2-0.1,0.4-0.2,0.6-0.3c0.2-0.2,0.6-0.2,0.9-0.3c0.4-0.1,0.9-0.1,1-0.6C125.6,52.1,125.1,51.9,124.7,51.9z"/>
		<path class="st8" d="M131.2,57.7c1-0.1,1.7-0.7,2.3-1.5c0-0.1,0-0.1,0-0.2c0-0.1,0-0.2,0-0.3c-0.1-0.3-0.6-0.3-0.8-0.1
			c-0.2,0.1-0.3,0.3-0.5,0.4c-0.2,0.2-0.5,0.3-0.8,0.4c-0.4,0.1-0.8,0.3-0.9,0.7C130.3,57.6,130.8,57.7,131.2,57.7z"/>
		<path class="st8" d="M131.5,50.3c-0.1,0.8,0.2,1.4,0.7,2c0,0,0.1,0.1,0.1,0c0.1,0,0.2,0.1,0.3,0c0.3,0,0.3-0.4,0.2-0.6
			c-0.1-0.2-0.1-0.3-0.2-0.4c-0.1-0.2-0.1-0.4-0.2-0.7c0-0.3,0-0.7-0.4-0.8C131.7,49.6,131.5,50,131.5,50.3z"/>
		<path class="st8" d="M125.8,60.8c0.8-0.1,1.3-0.6,1.8-1.2c0,0,0-0.1,0-0.1c0-0.1,0-0.2,0-0.3c-0.1-0.3-0.4-0.2-0.6-0.1
			c-0.1,0.1-0.3,0.2-0.4,0.3c-0.2,0.2-0.4,0.2-0.6,0.3c-0.3,0.1-0.6,0.2-0.7,0.6C125.1,60.8,125.5,60.9,125.8,60.8z"/>
	</g>
	<g>
		<path class="st8" d="M94.3,61.9c-1.1,0-2.1,0.5-2.8,1.3c-0.1,0.1-0.1,0.2,0,0.2c0,0.1-0.1,0.2,0,0.4c0.1,0.4,0.6,0.4,0.9,0.3
			c0.2-0.1,0.4-0.2,0.6-0.4c0.3-0.2,0.7-0.2,1-0.3c0.5-0.1,1-0.1,1.2-0.7C95.3,62.2,94.8,61.9,94.3,61.9z"/>
		<path class="st8" d="M101.8,68.6c1.1-0.1,2-0.8,2.6-1.7c0-0.1,0-0.2,0-0.2c0-0.1,0-0.2,0-0.4c-0.1-0.4-0.6-0.3-0.9-0.2
			c-0.2,0.1-0.4,0.3-0.6,0.5c-0.2,0.2-0.6,0.3-0.9,0.4c-0.5,0.2-1,0.3-1.1,0.9C100.8,68.5,101.3,68.6,101.8,68.6z"/>
		<path class="st8" d="M102.1,60c-0.1,0.9,0.3,1.6,0.8,2.3c0,0,0.1,0.1,0.2,0c0.1,0,0.2,0.1,0.3,0.1c0.3,0,0.4-0.4,0.3-0.7
			c-0.1-0.2-0.2-0.3-0.3-0.5c-0.1-0.2-0.1-0.5-0.2-0.8c0-0.4-0.1-0.8-0.5-1C102.4,59.3,102.1,59.7,102.1,60z"/>
		<path class="st8" d="M95.6,72.2c0.9-0.1,1.5-0.6,2-1.3c0-0.1,0-0.1,0-0.2c0-0.1,0-0.2,0-0.3c-0.1-0.3-0.5-0.3-0.7-0.1
			c-0.2,0.1-0.3,0.2-0.4,0.4c-0.2,0.2-0.5,0.3-0.7,0.3c-0.4,0.1-0.7,0.2-0.8,0.7C94.8,72.2,95.2,72.3,95.6,72.2z"/>
	</g>
	<g>
		<path class="st8" d="M76.2,51.7c-1.1,0-2.1,0.5-2.8,1.3c-0.1,0.1-0.1,0.2,0,0.2c0,0.1-0.1,0.2,0,0.4c0.1,0.4,0.6,0.4,0.9,0.3
			c0.2-0.1,0.4-0.2,0.6-0.4c0.3-0.2,0.6-0.2,1-0.3c0.5-0.1,1-0.1,1.2-0.7C77.2,52,76.7,51.8,76.2,51.7z"/>
		<path class="st8" d="M83.7,58.4c1.1-0.1,2-0.8,2.6-1.7c0-0.1,0-0.2,0-0.2c0-0.1,0-0.2,0-0.4c-0.1-0.4-0.6-0.3-0.9-0.2
			c-0.2,0.1-0.4,0.3-0.6,0.5c-0.2,0.2-0.6,0.3-0.9,0.4c-0.5,0.2-1,0.3-1.1,0.9C82.7,58.3,83.3,58.4,83.7,58.4z"/>
		<path class="st8" d="M84,49.9c-0.1,0.9,0.3,1.6,0.8,2.3c0,0.1,0.1,0.1,0.2,0c0.1,0,0.2,0.1,0.3,0.1c0.3,0,0.4-0.4,0.3-0.7
			c-0.1-0.2-0.2-0.3-0.3-0.5c-0.1-0.2-0.1-0.5-0.2-0.8c0-0.4-0.1-0.8-0.5-1C84.3,49.1,84.1,49.5,84,49.9z"/>
		<path class="st8" d="M77.5,62.1c0.9-0.1,1.5-0.6,2-1.3c0-0.1,0-0.1,0-0.2c0-0.1,0-0.2,0-0.3C79.4,60,79,60,78.8,60.1
			c-0.2,0.1-0.3,0.2-0.4,0.4c-0.2,0.2-0.5,0.3-0.7,0.3c-0.4,0.1-0.7,0.2-0.8,0.7C76.7,62,77.1,62.1,77.5,62.1z"/>
	</g>
	<g>
		<path class="st8" d="M114.4,36.2c-1.1,0-2.1,0.5-2.8,1.3c-0.1,0.1-0.1,0.2,0,0.2c0,0.1-0.1,0.2,0,0.4c0.1,0.4,0.6,0.4,0.9,0.3
			c0.2-0.1,0.4-0.2,0.6-0.4c0.3-0.2,0.7-0.2,1-0.3c0.5-0.1,1-0.1,1.2-0.7C115.4,36.4,114.8,36.2,114.4,36.2z"/>
		<path class="st8" d="M121.9,42.8c1.1-0.1,2-0.8,2.6-1.7c0-0.1,0-0.2,0-0.2c0-0.1,0-0.2,0-0.4c-0.1-0.4-0.6-0.3-0.9-0.2
			c-0.2,0.1-0.4,0.3-0.6,0.5c-0.2,0.2-0.6,0.3-0.9,0.4c-0.5,0.2-1,0.3-1.1,0.9C120.9,42.7,121.4,42.9,121.9,42.8z"/>
		<path class="st8" d="M122.2,34.3c-0.1,0.9,0.3,1.6,0.8,2.3c0,0,0.1,0.1,0.2,0c0.1,0,0.2,0.1,0.3,0.1c0.3,0,0.4-0.4,0.3-0.7
			c-0.1-0.2-0.2-0.4-0.3-0.5c-0.1-0.2-0.1-0.5-0.2-0.8c0-0.4-0.1-0.8-0.5-1C122.4,33.6,122.2,34,122.2,34.3z"/>
		<path class="st8" d="M115.6,46.5c0.9-0.1,1.5-0.6,2-1.3c0-0.1,0-0.1,0-0.2c0-0.1,0-0.2,0-0.3c-0.1-0.3-0.5-0.3-0.7-0.1
			c-0.2,0.1-0.3,0.2-0.4,0.4c-0.2,0.2-0.5,0.3-0.7,0.3c-0.4,0.1-0.7,0.2-0.8,0.7C114.9,46.4,115.3,46.6,115.6,46.5z"/>
	</g>
	<g>
		<path class="st8" d="M130.5,69.3c-1.1,0-2.1,0.5-2.8,1.3c-0.1,0.1-0.1,0.2,0,0.2c0,0.1-0.1,0.2,0,0.4c0.1,0.4,0.6,0.4,0.9,0.3
			c0.2-0.1,0.4-0.2,0.6-0.4c0.3-0.2,0.7-0.2,1-0.3c0.5-0.1,1-0.1,1.2-0.7C131.5,69.5,130.9,69.3,130.5,69.3z"/>
		<path class="st8" d="M138,75.9c1.1-0.1,2-0.8,2.6-1.7c0-0.1,0-0.2,0-0.2c0-0.1,0-0.2,0-0.4c-0.1-0.4-0.6-0.3-0.9-0.2
			c-0.2,0.1-0.4,0.3-0.6,0.5c-0.2,0.2-0.6,0.3-0.9,0.4c-0.5,0.2-1,0.3-1.1,0.9C137,75.8,137.5,76,138,75.9z"/>
		<path class="st8" d="M138.3,67.4c-0.1,0.9,0.3,1.6,0.8,2.3c0,0,0.1,0.1,0.2,0c0.1,0,0.2,0.1,0.3,0.1c0.3,0,0.4-0.4,0.3-0.7
			c-0.1-0.2-0.2-0.4-0.3-0.5c-0.1-0.2-0.1-0.5-0.2-0.8c0-0.4-0.1-0.8-0.5-1C138.5,66.6,138.3,67,138.3,67.4z"/>
		<path class="st8" d="M131.7,79.6c0.9-0.1,1.5-0.6,2-1.3c0-0.1,0-0.1,0-0.2c0-0.1,0-0.2,0-0.3c-0.1-0.3-0.5-0.3-0.7-0.1
			c-0.2,0.1-0.3,0.2-0.4,0.4c-0.2,0.2-0.5,0.3-0.7,0.3c-0.4,0.1-0.7,0.2-0.8,0.7C131,79.5,131.4,79.6,131.7,79.6z"/>
	</g>
	<g>
		<path class="st8" d="M114.6,107.8c-1.1,0-2.1,0.5-2.8,1.3c-0.1,0.1-0.1,0.2,0,0.2c0,0.1-0.1,0.2,0,0.4c0.1,0.4,0.6,0.4,0.9,0.3
			c0.2-0.1,0.4-0.2,0.6-0.4c0.3-0.2,0.6-0.2,1-0.3c0.5-0.1,1-0.1,1.2-0.7C115.6,108,115,107.8,114.6,107.8z"/>
		<path class="st8" d="M122.1,114.4c1.1-0.1,2-0.8,2.6-1.7c0-0.1,0-0.2,0-0.2c0-0.1,0-0.2,0-0.4c-0.1-0.4-0.6-0.3-0.9-0.2
			c-0.2,0.1-0.4,0.3-0.6,0.5c-0.2,0.2-0.6,0.3-0.9,0.4c-0.5,0.2-1,0.3-1.1,0.9C121.1,114.3,121.6,114.5,122.1,114.4z"/>
		<path class="st8" d="M122.4,105.9c-0.1,0.9,0.3,1.6,0.8,2.3c0,0,0.1,0.1,0.2,0c0.1,0,0.2,0.1,0.3,0.1c0.3,0,0.4-0.4,0.3-0.7
			c-0.1-0.2-0.2-0.4-0.3-0.5c-0.1-0.2-0.1-0.5-0.2-0.8c0-0.4-0.1-0.8-0.5-1C122.6,105.1,122.4,105.5,122.4,105.9z"/>
		<path class="st8" d="M115.8,118.1c0.9-0.1,1.5-0.6,2-1.3c0-0.1,0-0.1,0-0.2c0-0.1,0-0.2,0-0.3c-0.1-0.3-0.5-0.2-0.7-0.1
			c-0.2,0.1-0.3,0.2-0.4,0.4c-0.2,0.2-0.5,0.3-0.7,0.3c-0.4,0.1-0.7,0.2-0.8,0.7C115.1,118,115.5,118.1,115.8,118.1z"/>
	</g>
	<g>
		<path class="st8" d="M140.3,89c-1.1,0-2.1,0.5-2.8,1.3c-0.1,0.1-0.1,0.2,0,0.2c0,0.1-0.1,0.2,0,0.4c0.1,0.4,0.6,0.4,0.9,0.3
			c0.2-0.1,0.4-0.2,0.6-0.4c0.3-0.2,0.6-0.2,1-0.3c0.5-0.1,1-0.1,1.2-0.7C141.3,89.3,140.8,89,140.3,89z"/>
		<path class="st8" d="M147.8,95.7c1.1-0.1,2-0.8,2.6-1.7c0-0.1,0-0.2,0-0.2c0-0.1,0-0.2,0-0.4c-0.1-0.4-0.6-0.3-0.9-0.2
			c-0.2,0.1-0.4,0.3-0.6,0.5c-0.2,0.2-0.6,0.3-0.9,0.4c-0.5,0.2-1,0.3-1.1,0.9C146.8,95.6,147.3,95.7,147.8,95.7z"/>
		<path class="st8" d="M148.1,87.1c-0.1,0.9,0.3,1.6,0.8,2.3c0,0,0.1,0.1,0.2,0c0.1,0,0.2,0.1,0.3,0.1c0.3,0,0.4-0.4,0.3-0.7
			c-0.1-0.2-0.2-0.4-0.3-0.5c-0.1-0.2-0.1-0.5-0.2-0.8c0-0.4-0.1-0.8-0.5-1C148.4,86.4,148.1,86.8,148.1,87.1z"/>
		<path class="st8" d="M141.6,99.3c0.9-0.1,1.5-0.6,2-1.3c0-0.1,0-0.1,0-0.2c0-0.1,0-0.2,0-0.3c-0.1-0.3-0.5-0.2-0.7-0.1
			c-0.2,0.1-0.3,0.2-0.4,0.4c-0.2,0.2-0.5,0.3-0.7,0.3c-0.4,0.1-0.7,0.2-0.8,0.7C140.8,99.3,141.2,99.4,141.6,99.3z"/>
	</g>
</g>
</svg>
