<?xml version="1.0" encoding="utf-8"?>
<!-- Generator: Adobe Illustrator 25.2.1, SVG Export Plug-In . SVG Version: 6.00 Build 0)  -->
<svg version="1.1" id="Layer_2" xmlns="http://www.w3.org/2000/svg" xmlns:xlink="http://www.w3.org/1999/xlink" x="0px" y="0px"
	 viewBox="0 0 200 200" style="enable-background:new 0 0 200 200;" xml:space="preserve">
<style type="text/css">
	.st0{fill:#FFE98A;}
	.st1{fill:#FDDD93;}
	.st2{fill:#FFECAE;}
	.st3{fill:#E2BC6F;}
	.st4{fill:#DADADA;}
	.st5{fill:#F4F4F4;}
	.st6{fill:#EBEAEA;}
	.st7{fill:#FFF9B6;}
	.st8{fill:#898E00;}
	.st9{fill:#FFFBDC;}
</style>
<g>
	<g>
		<path class="st0" d="M88-17.9l0.3-0.2c0,0,0.3-0.8,0.1-1.9C88.3-19.2,88.1-18.5,88-17.9z"/>
	</g>
	<path class="st0" d="M91.2-24.9c-0.1,0.2-1.3,4.5-2.8,6.1c0,0-0.1,0.1-0.2,0.2c0,0.1,0,0.2-0.1,0.3c0,0,0,0.1,0.1,0.1
		c0.2,0.2,1.4-0.4,1.4-0.4s1-1.3,1.9-3.4c0.9-2.2,0.5-2.8,0.1-2.9C91.6-25,91.3-25.1,91.2-24.9z"/>
</g>
<g>
	<g>
		<path class="st1" d="M88-17.9l0.3-0.2c0,0,0.3-0.8,0.1-1.9C88.3-19.2,88.1-18.5,88-17.9z"/>
	</g>
	<path class="st1" d="M91.2-24.9c-0.1,0.2-1.3,4.5-2.8,6.1c0,0-0.1,0.1-0.2,0.2c0,0.1,0,0.2-0.1,0.3c0,0,0,0.1,0.1,0.1
		c0.2,0.2,1.4-0.4,1.4-0.4s0.3-0.3,0.6-0.9c-0.2,0.2-0.5,0.4-0.7,0.4c-0.3,0.1-0.2-0.4-0.2-0.5c0.2-0.4,0.5-0.8,0.7-1.2
		c0.4-0.6,0.6-1.1,0.8-1.8c0.1-0.4,0.2-0.8,0.3-1.1c0.1-0.3,0.2-0.6,0.4-0.8c0.3-0.3,0.4,0,0.5,0.4c0-0.6-0.2-0.8-0.4-0.8
		C91.6-25,91.3-25.1,91.2-24.9z"/>
</g>
<g>
	<path class="st2" d="M88.2-18.7c-0.8,4.2-1.7,8.3-2.7,12.5c2.6-1.2,4.8-1.9,5.8-1.9c2.9-0.3,4.4-2.2,4.4-2.2s1.1-1.4-0.3-2.7
		c-1.5-1.4-5.2-1.3-5.2-1.3s0.6-0.3,1.8-0.3c1.2,0,1.9,0,1.6-0.8c0,0,0.6-0.4-0.2-1.3c-0.8-0.8-1.7-1.1-1.7-1.1s0.7-0.1,0.2-0.7
		c-0.5-0.6-1.9-0.6-2.4-0.6C89.4-19.1,88.9-19,88.2-18.7z"/>
	<path class="st1" d="M88.2-18.7c0,0.1,0,0.1,0,0.2c0.9-0.3,2.2-0.6,3,0c0,0,0,0.1,0,0.1c0,0,0,0,0,0c0,0,0,0.1-0.1,0.1
		c-0.3,0.1-0.6,0-0.9,0c-0.3,0-0.7,0-1,0.1c-0.4,0.1-0.8,0.1-1.1,0.2c-0.1,0.3-0.1,0.6-0.2,0.9c0.5-0.1,1-0.2,1.5-0.2
		c1-0.1,2.2-0.3,3.1,0.2c0.2,0.1,0.6,0.4,0.4,0.7c-0.2,0.2-0.7,0.1-1,0.1c-0.4,0-0.9-0.1-1.3-0.2c-1-0.1-1.9,0-2.9,0.1
		c-0.1,0.5-0.2,1-0.3,1.4c0.4-0.2,0.7-0.3,1.1-0.4c0.9-0.3,1.9-0.5,2.8-0.6c0.3,0,1-0.1,1.3,0.3c0,0,0,0,0,0c0.2,0.1,0.2,0.3,0,0.4
		c-0.3,0.2-0.8,0.1-1.2,0.1c-1.3,0.2-2.6,0.6-3.8,1.2c-0.2,0.1-0.3,0.1-0.5,0.2c0,0.2-0.1,0.4-0.1,0.6c0.3-0.2,0.7-0.3,1.1-0.4
		c0.5-0.1,1.2,0.1,0.7,0.7c-0.5,0.5-1.3,0.7-2,0.9c0,0.2-0.1,0.3-0.1,0.5c0.3-0.1,0.6-0.3,0.9-0.4c1.5-0.5,3.1-0.9,4.7-0.7
		c0.3,0,1.4,0.3,1.2,0.8c0,0,0,0,0,0c-0.2,0.4-1.7,0.2-2.1,0.2c-1.5,0-3.2,0-4.7,0.4c0,0-0.1,0-0.1,0c0,0.2-0.1,0.4-0.1,0.6
		c1.2-0.3,2.5-0.5,3.7-0.6c0.5,0,1.1,0,1.6,0c0.5,0.1,0.9,0.3,0.3,0.6c-0.6,0.3-1.4,0.5-2,0.5c-1.3,0.2-2.6,0.2-3.8,0.4
		C86.1-8.9,86-8.5,85.9-8c0.8-0.3,1.7-0.5,2.5-0.7C89.3-8.9,90.1-9,91-9.2c0.9-0.1,1.8-0.3,2.5-0.8c0.6-0.4,1.2-1.1,0.8-1.8
		c-0.3-0.7-1.2-0.8-1.6-1.4c1.2-0.4,2.8,0.5,2.9,1.9c0,1.6-2.1,2.5-3.4,2.8c-2.1,0.5-4,0.6-6.1,1.4C86-7.2,85.8-7.1,85.7-7
		c-0.1,0.3-0.1,0.5-0.2,0.8c2.6-1.2,4.8-1.9,5.8-1.9c2.9-0.3,4.4-2.2,4.4-2.2s1.1-1.4-0.3-2.7c-0.9-0.8-2.6-1.1-3.8-1.2c0,0,0,0,0,0
		c0,0,0,0,0,0c-0.3,0-0.6,0-0.8-0.1c0,0,0,0,0,0c0,0-0.1,0-0.1,0c0,0,0,0,0,0c0,0,0,0-0.1,0c0,0,0,0,0,0c0,0,0,0,0,0c0,0,0,0-0.1,0
		c0,0,0,0,0,0c-0.2,0-0.2,0-0.2,0s0.6-0.3,1.8-0.3c1.2,0,1.9,0,1.6-0.8c0,0,0.6-0.4-0.2-1.3c-0.8-0.8-1.7-1.1-1.7-1.1
		s0.7-0.1,0.2-0.7c-0.5-0.6-1.9-0.6-2.4-0.6C89.4-19.1,88.9-19,88.2-18.7z"/>
	<path class="st2" d="M87.2-10.3c0,0,0.1-1.6-0.5-2.2c-0.6-0.6-1.5-0.6-2.6,0.8c0,0,0.2-0.3,0.4-0.9c-0.2,0.3-0.5,0.7-0.8,1.2
		c0,0-3.1,6.3-8,9.9c-4.9,3.6-8.3,5.7-11.1,8.8c0,0-3.7-0.3-6.6,3.4c-0.1,0.2-0.2,0.3-0.4,0.5c-0.5,1.7-1,3.4-1.5,5.1
		c0.1,1.1,0.4,2.1,0.6,3.2C57,22,57,29.3,53,34c0,0,1.8,0.4,3.8-1.9c0,0,0.1,1.3,2.1,1.3c2.1,0,5.1-2.9,6-6.5c0,0,1.2,3.4-2,7.8
		c-3.2,4.4-4.7,4-4.6,5.2c0.1,1.2,2.4,0.8,4.3-1.8c2-2.6,5.4-9.4,4.4-15.8c0,0,5.3-1,9.9-8.5c0,0,8.4-2.3,12-5.7
		c3.6-3.4,2.9-4.8,1.9-4.6c0,0-0.3,0-1.1,1.2c-0.8,1.2-5.1,5.7-10.4,4.5c0,0,4-0.5,6-3.7c2-3.3,2.1-6.4,1.1-9.8c0,0,2.9-2.7,2.8-4.7
		C89.3-11.2,88-11.1,87.2-10.3z"/>
	<path class="st1" d="M87.2-10.3c0,0,0.1-1.6-0.5-2.2c-0.6-0.6-1.5-0.6-2.6,0.8c0,0,0.2-0.3,0.4-0.9c-0.2,0.3-0.5,0.7-0.8,1.2
		c0,0-3.1,6.3-8,9.9c-4.9,3.6-8.3,5.7-11.1,8.8c0,0-3.7-0.3-6.6,3.4c-0.1,0.2-0.2,0.3-0.4,0.5c-0.5,1.7-1,3.4-1.5,5.1
		c0.1,1.1,0.4,2.1,0.6,3.2C57,22,57,29.3,53,34c0,0,1.8,0.4,3.8-1.9c0,0,0.1,1.3,2.1,1.3c2.1,0,5.1-2.9,6-6.5c0,0,1.2,3.4-2,7.8
		c-3.2,4.4-4.7,4-4.6,5.2c0.1,0.8,1.1,0.8,2.3,0.1c-0.1,0-0.2-0.1-0.3-0.2c-0.7-0.6,0.4-1.3,0.8-1.7c1.3-1.4,2.6-2.9,3.4-4.6
		c1.3-2.9,1.2-5.9,1.5-8.9c0.1-0.7,0.1-1.6,0.6-2.1c0.2-0.2,0.3-0.2,0.4-0.1c0,0,0,0,0,0c0,0,5.3-1,9.9-8.5c0,0,4.7-1.3,8.6-3.4
		c-0.4,0.1-0.7,0.3-1.1,0.4c-1.7,0.6-3.4,0.8-5.2,1.2c-1.1,0.2-2.1,0.6-3.1,0.9c-0.6,0.2-1.2,0.5-1.9,0.5c-0.1,0-0.2-0.1-0.1-0.2
		c1.3-1.4,3.3-2,5.2-2.4c2.1-0.4,4.3-0.6,6.2-1.5c1.2-0.5,2.2-1.3,3.1-2.3c0.6-0.7,1.1-1.6,1.9-2.2C90.9,4.3,91.4,4,91.8,4
		c0-0.6-0.4-0.8-0.8-0.7c0,0-0.3,0-1.1,1.2c-0.8,1.2-5.1,5.7-10.4,4.5c0,0,4-0.5,6-3.7c2-3.3,2.1-6.4,1.1-9.8c0,0,2.9-2.7,2.8-4.7
		C89.3-11.2,88-11.1,87.2-10.3z M69.2,4.2c1.8-1.5,3.9-2.6,5.9-3.8c1.4-0.9,2.6-1.9,3.8-3c1.9-1.9,3.5-4,4.6-6.5
		c0.4-0.9,1-2.7,2.2-2.9c1.4-0.3,1.2,1.3,1,2.2c0,0,0,0.1-0.1,0.1c-0.4,2.2-2.2,4.2-3.7,5.8c-0.7,0.7-1.4,1.3-2.2,1.9
		c-3.3,3-7.3,4.9-11.4,6.5C69.2,4.6,69.1,4.3,69.2,4.2z M65.9,22.9c-0.3,1.5-0.7,3-1.2,4.4c-0.8,2-2.1,4.3-4.3,4.9
		c-0.2,0-0.3-0.2-0.1-0.3c2.9-2.1,3.7-5.7,4.3-9.1c0.3-1.4,0.2-4.8,2.3-4.6c0.1-0.1,0.3,0,0.2,0.2C66.2,19.8,66.1,21.4,65.9,22.9z
		 M67.7,10.3c-0.9,1.1-2.2,1.7-3.4,2.6c-0.7,0.6-1.2,1.3-2,1.9c-0.4,0.3-2.2,0.7-1.5-0.4c0.4-0.6,1.3-1.1,1.8-1.6
		c1.1-1.1,2.1-1.9,3.5-2.4c0.3-0.1,1.3-0.6,1.6-0.4C67.8,10.1,67.8,10.2,67.7,10.3z M71.5,10.1c0.1,0,0.1,0.2,0,0.2
		c0.2,0.5-1.9,1.7-2.1,1.8c-1.1,0.7-2.3,1.4-3.5,2.1c-0.6,0.3-1.4,0.9-2.1,0.8c-0.1,0-0.2-0.2-0.1-0.3c1.5-1.3,3-2.6,4.7-3.7
		C69.3,10.4,70.4,9.7,71.5,10.1z M64.1,10.3C64.1,10.4,64.1,10.4,64.1,10.3c-0.2,0.5-0.7,0.8-1.1,1c-0.5,0.3-1,0.8-1.4,1.3
		c-0.6,0.8-1.2,1.6-1.9,2.3c-0.1,0.1-0.3,0.1-0.3-0.1c0-1.9,1.5-3.4,3.1-4.1C62.6,10.7,64.2,10.1,64.1,10.3z M63,16.5
		c1.4,0.1,2.9,0.3,4.4,0.1c1.9-0.2,3.6-1.2,5.5-1.6c0.1,0,0.2,0.2,0.1,0.3c-1,0.5-1.8,1.3-2.8,1.7c-1.6,0.6-3.4,0.8-5.1,0.8
		c-0.6,0-7,0-6.3-1.2c0.3-0.6,1.1-0.5,1.7-0.4C61.3,16.3,62.2,16.5,63,16.5z M70.7,17.5c0.1,0.1,0.1,0.2,0,0.2
		c-0.5,0.4-1,0.8-1.6,1.2c-0.3,0.2-0.9,0.6-1.3,0.3c-0.4-0.3,0-0.8,0.3-1c0.6-0.5,1.6-0.7,2.4-0.8C70.6,17.4,70.7,17.4,70.7,17.5z
		 M62,18.4c0.3,0.2,0.1,1,0,1.3c-0.3,1.3-0.7,2.7-1.5,3.8c-0.1,0.1-0.2,0.1-0.2,0c-0.3-0.5-0.4-1.2-0.5-1.8
		c-0.1-0.8-0.5-1.9,0.2-2.6C60.4,18.7,61.5,17.8,62,18.4z M62,22.3c0.5-1.4,1.1-3,2.4-3.8c0.1-0.1,0.2,0,0.2,0.2
		c0,0.5-0.2,1-0.3,1.5c-0.1,0.6-0.2,1.1-0.3,1.7c-0.3,1.4-0.6,2.9-1,4.3c-0.5,1.7-1.7,5-4.1,4.3c-0.1,0-0.2-0.2-0.1-0.3
		c1.5-1.3,1.7-3.6,2.4-5.4c0-0.1,0.1-0.2,0.1-0.3C61.5,23.7,61.7,23,62,22.3z M74.6,16.3c-0.6,1.4-1.8,2.4-3.1,3.3
		c-1.2,0.8-2.4,1.7-3.8,2.1c-0.1,0-0.2,0-0.2-0.1c-0.5-1.1,0.8-2.1,1.7-2.6c1.7-1,3.4-1.8,5.1-2.9c0,0,0.1,0,0.1,0
		C74.5,16,74.7,16.1,74.6,16.3z M76.6,10.3c0.2,0.7-1.4,1.3-1.8,1.5c-1.1,0.6-2.1,1.2-3.2,1.9c-0.7,0.5-1.3,1-2,1.3
		c-0.4,0.2-0.8,0.3-1.2,0.3c-0.4,0-0.7-0.2-0.5-0.7c0.1-0.5,0.7-0.7,1.1-0.9c2-1.2,3.5-3.2,5.9-3.6c0.4-0.1,1.5-0.5,1.8-0.1
		C76.5,10.2,76.5,10.2,76.6,10.3z M76.1,9c-1.4,0.5-2.9,0.4-4.4,0.4c-1.7,0-3.3,0.1-4.9,0.3c-1.7,0.2-3.4,0.1-5,0.6
		c-1.1,0.3-1.9,0.9-2.6,1.7c-0.3,0.6-0.6,1.3-0.6,2c-0.1,1.1,0,2.2,0,3.4c0.2,2,0.6,4.1,0.6,6.1c0,1.7-0.2,3.5-0.8,5.1
		c-0.5,1.3-1.3,2.7-2.6,3.3c-0.1,0.1-0.2-0.1-0.2-0.2c0.8-1.8,1.8-3.7,2-5.7c0.2-2.2-0.2-4.4-0.4-6.6c-0.2-1.5-0.4-3-0.2-4.5
		c0.1-1.1,0.3-2.3,1.1-3.1C61.4,6.4,70.7,8.5,76,8.7c0,0,0,0,0,0c0,0,0,0,0,0C76.2,8.7,76.3,8.9,76.1,9z M72.7,5.7
		c-0.1,0-0.2-0.2-0.1-0.3c0.8-0.5,1.6-0.7,2.5-1C76,4.1,76.9,3.5,77.8,3c0.9-0.5,1.8-1.1,2.7-1.8c0.4-0.3,0.7-0.8,1.2-1.2
		c0,0,0.1,0,0.2,0c0.1,0,0.1,0,0.2,0.1c0,1.7-1.8,3.1-3.1,4C77,5.5,75,5.9,72.7,5.7z M83,0.8c0.2-0.9,0.3-2,1.3-2.5
		c0-0.2,0.3-0.2,0.3,0c0.6,3.1-1.9,5.7-4.4,7C80,5.5,79.9,5.3,80,5.1C81.4,4,82.7,2.6,83,0.8z M86.9-1.9c0.4,1.8-0.2,3.7-1,5.4
		c-1.2,2.3-4,5.4-6.9,4.8c-0.1,0-0.2-0.2-0.1-0.3c2.2-1.1,4.4-2.5,5.5-4.8c0.9-1.9,0.9-4,1.1-6.1c-0.1,0-0.1-0.1,0-0.2
		C86.3-4.2,86.8-2.5,86.9-1.9z M89.1-9.2c0.3,1.6-1.4,3.1-2.5,4.1C85-3.4,83.3-1.4,81-0.8c-0.1,0-0.3-0.1-0.2-0.2
		c1.9-2.4,4.5-4.5,5.7-7.4c0.3-0.7,0.8-1.9,1.7-1.8C88.8-10.3,89-9.7,89.1-9.2z"/>
</g>
<g>
	<path class="st2" d="M46.4,41.9c-2.5,3.4-5.1,6.8-7.7,10.1c2.9,0,5.2,0.4,6.1,0.7c2.7,1,4.9-0.1,4.9-0.1s1.6-0.8,0.9-2.6
		c-0.8-1.9-4.2-3.4-4.2-3.4s0.6,0,1.8,0.5c1.1,0.5,1.7,0.8,1.8,0c0,0,0.7-0.1,0.4-1.2c-0.4-1.1-1.1-1.7-1.1-1.7s0.7,0.2,0.5-0.5
		c-0.2-0.8-1.5-1.4-1.9-1.5C47.7,42.1,47.2,42,46.4,41.9z"/>
	<path class="st1" d="M46.4,41.9c0,0-0.1,0.1-0.1,0.1c1,0.1,2.3,0.4,2.7,1.3c0,0.1,0,0.1-0.1,0.1c0,0,0,0,0,0c0,0,0,0-0.1,0
		c-0.3-0.1-0.5-0.2-0.8-0.3c-0.3-0.1-0.6-0.3-0.9-0.3c-0.4-0.1-0.7-0.2-1.1-0.3c-0.2,0.2-0.4,0.5-0.5,0.7c0.5,0.1,1,0.3,1.4,0.4
		c1,0.3,2.1,0.7,2.7,1.6c0.1,0.2,0.4,0.7,0.1,0.8c-0.3,0.1-0.7-0.2-0.9-0.3c-0.4-0.2-0.7-0.5-1.1-0.7c-0.8-0.5-1.7-0.8-2.7-1.1
		c-0.3,0.4-0.6,0.8-0.9,1.2c0.4,0,0.8,0.1,1.2,0.1c0.9,0.1,1.9,0.3,2.8,0.7c0.3,0.1,1,0.4,1,0.8c0,0,0,0,0,0
		c0.1,0.2,0.1,0.4-0.2,0.4c-0.4,0-0.8-0.2-1.2-0.4c-1.3-0.3-2.6-0.5-3.9-0.6c-0.2,0-0.4,0-0.5,0c-0.1,0.2-0.3,0.3-0.4,0.5
		c0.4,0,0.8,0,1.1,0.1c0.5,0.1,1.1,0.6,0.3,0.9c-0.7,0.3-1.5,0.1-2.2,0c-0.1,0.1-0.2,0.3-0.3,0.4c0.3,0,0.6,0,1,0
		c1.6,0.2,3.2,0.5,4.5,1.4c0.2,0.2,1.1,0.9,0.8,1.2c0,0,0,0,0,0c-0.3,0.3-1.6-0.6-2-0.7c-1.4-0.7-2.9-1.3-4.4-1.6c0,0-0.1,0-0.1,0
		c-0.1,0.2-0.3,0.4-0.4,0.5c1.2,0.3,2.4,0.6,3.6,1.1c0.5,0.2,1,0.4,1.4,0.7c0.4,0.3,0.7,0.6,0,0.7c-0.7,0.1-1.4-0.2-2-0.4
		c-1.2-0.4-2.4-0.9-3.6-1.3c-0.3,0.4-0.6,0.7-0.9,1.1c0.9,0.1,1.7,0.3,2.5,0.5c0.9,0.2,1.7,0.4,2.5,0.7c0.9,0.2,1.8,0.5,2.7,0.3
		c0.7-0.1,1.5-0.5,1.5-1.3c0-0.8-0.8-1.2-0.8-1.9c1.2,0.2,2.4,1.6,1.8,2.9c-0.7,1.5-2.9,1.3-4.2,1.1c-2.1-0.5-3.9-1.2-6.1-1.3
		c-0.2,0-0.4,0-0.6,0c-0.2,0.2-0.3,0.4-0.5,0.6c2.9,0,5.2,0.4,6.1,0.7c2.7,1,4.9-0.1,4.9-0.1s1.6-0.8,0.9-2.6
		c-0.5-1.1-1.9-2.1-2.9-2.7c0,0,0,0,0,0c0,0,0,0,0,0c-0.3-0.2-0.5-0.3-0.7-0.4c0,0,0,0,0,0c0,0-0.1,0-0.1,0c0,0,0,0,0,0
		c0,0,0,0-0.1,0c0,0,0,0,0,0c0,0,0,0,0,0c0,0,0,0,0,0c0,0,0,0,0,0c-0.1-0.1-0.2-0.1-0.2-0.1s0.6,0,1.8,0.5c1.1,0.5,1.7,0.8,1.8,0
		c0,0,0.7-0.1,0.4-1.2c-0.4-1.1-1.1-1.7-1.1-1.7s0.7,0.2,0.5-0.5c-0.2-0.8-1.5-1.4-1.9-1.5C47.7,42.1,47.2,42,46.4,41.9z"/>
	<path class="st2" d="M42,49.1c0,0,0.8-1.4,0.5-2.2c-0.3-0.8-1.1-1.1-2.7-0.4c0,0,0.3-0.2,0.8-0.6c-0.4,0.2-0.8,0.5-1.2,0.8
		c0,0-5.5,4.4-11.5,5.6c-6,1.2-9.9,1.6-13.8,3.2c0,0-3.2-1.8-7.5,0.2c-0.2,0.1-0.3,0.2-0.5,0.3c-1.2,1.3-2.3,2.7-3.5,4
		c-0.4,1-0.5,2.1-0.9,3.1C0.8,65.4-2.3,72-7.9,74.6c0,0,1.5,1.1,4.3-0.1c0,0-0.5,1.2,1.4,2.1c1.9,0.9,5.8-0.5,8.3-3.3
		c0,0-0.4,3.6-5.1,6.2C-3.9,82-5,81-5.5,82.1c-0.4,1.1,1.8,1.7,4.7,0.2c2.9-1.5,8.9-6.2,10.7-12.5c0,0,5.2,1.3,12.6-3.5
		c0,0,8.6,1.5,13.3,0c4.7-1.5,4.7-3.1,3.7-3.4c0,0-0.3-0.1-1.5,0.6c-1.2,0.7-7.1,3-11.3-0.3c0,0,3.8,1.3,7-0.8
		c3.2-2.1,4.6-4.9,5.1-8.4c0,0,3.8-1.2,4.6-3.1C44.2,49.2,43,48.7,42,49.1z"/>
	<path class="st1" d="M42,49.1c0,0,0.8-1.4,0.5-2.2c-0.3-0.8-1.1-1.1-2.7-0.4c0,0,0.3-0.2,0.8-0.6c-0.4,0.2-0.8,0.5-1.2,0.8
		c0,0-5.5,4.4-11.5,5.6c-6,1.2-9.9,1.6-13.8,3.2c0,0-3.2-1.8-7.5,0.2c-0.2,0.1-0.3,0.2-0.5,0.3c-1.2,1.3-2.3,2.7-3.5,4
		c-0.4,1-0.5,2.1-0.9,3.1C0.8,65.4-2.3,72-7.9,74.6c0,0,1.5,1.1,4.3-0.1c0,0-0.5,1.2,1.4,2.1c1.9,0.9,5.8-0.5,8.3-3.3
		c0,0-0.4,3.6-5.1,6.2C-3.9,82-5,81-5.5,82.1c-0.3,0.7,0.6,1.2,2,1.1c-0.1-0.1-0.1-0.2-0.2-0.3c-0.3-0.8,0.9-1,1.4-1.2
		c1.8-0.7,3.6-1.5,5-2.7c2.4-2,3.6-4.8,5.2-7.4c0.3-0.6,0.8-1.5,1.4-1.7c0.2-0.1,0.3,0,0.4,0.1c0,0,0,0,0,0c0,0,5.2,1.3,12.6-3.5
		c0,0,4.8,0.8,9.2,0.6c-0.4,0-0.8-0.1-1.2-0.1c-1.8-0.2-3.5-0.7-5.2-1.1c-1.1-0.3-2.1-0.4-3.2-0.5c-0.6-0.1-1.3-0.1-1.9-0.3
		c-0.1,0-0.1-0.2,0-0.3c1.8-0.7,3.8-0.4,5.7,0.1c2.1,0.5,4.1,1.2,6.3,1.3c1.3,0,2.5-0.2,3.7-0.7c0.9-0.4,1.7-1,2.6-1.2
		c0.4-0.1,1-0.1,1.3,0c0.3-0.5,0-0.9-0.4-1c0,0-0.3-0.1-1.5,0.6c-1.2,0.7-7.1,3-11.3-0.3c0,0,3.8,1.3,7-0.8c3.2-2.1,4.6-4.9,5.1-8.4
		c0,0,3.8-1.2,4.6-3.1C44.2,49.2,43,48.7,42,49.1z M19.5,54.6c2.3-0.6,4.6-0.6,7-1c1.6-0.2,3.2-0.7,4.7-1.1c2.5-0.9,4.9-2.1,6.9-3.9
		c0.7-0.7,2.1-2,3.2-1.7c1.4,0.4,0.5,1.7,0,2.5c0,0-0.1,0-0.1,0c-1.3,1.8-3.8,2.8-5.8,3.6c-0.9,0.4-1.8,0.6-2.8,0.8
		c-4.2,1.3-8.7,1.3-13.1,1C19.3,54.8,19.3,54.6,19.5,54.6z M8.5,70c-0.9,1.2-1.9,2.4-3,3.5c-1.6,1.5-3.7,3-6,2.6
		c-0.2,0-0.2-0.3,0-0.3c3.5-0.7,5.8-3.6,7.8-6.3c0.8-1.1,2.2-4.2,4.1-3.2c0.1,0,0.3,0.2,0.1,0.3C10.1,67.3,9.4,68.7,8.5,70z
		 M15.5,59.4c-1.3,0.6-2.8,0.6-4.1,0.9c-0.9,0.2-1.7,0.7-2.6,0.8c-0.5,0.1-2.3-0.3-1.2-1c0.6-0.4,1.6-0.5,2.3-0.7
		c1.5-0.5,2.7-0.9,4.2-0.6c0.3,0,1.5,0,1.6,0.3C15.7,59.2,15.7,59.3,15.5,59.4z M19,60.8c0.1,0.1,0,0.2-0.1,0.2
		c0,0.6-2.5,0.7-2.7,0.7c-1.3,0.1-2.7,0.3-4,0.4c-0.7,0-1.6,0.2-2.3-0.2c-0.1-0.1-0.1-0.2,0.1-0.3c1.9-0.5,3.9-1.1,5.8-1.4
		C16.9,60.2,18.2,60,19,60.8z M12.2,57.9C12.2,57.9,12.2,57.9,12.2,57.9c-0.4,0.4-1,0.4-1.4,0.4c-0.6,0.1-1.2,0.3-1.8,0.6
		c-0.9,0.4-1.8,0.9-2.7,1.2c-0.1,0-0.3-0.1-0.2-0.2c0.8-1.7,2.8-2.4,4.6-2.4C10.7,57.6,12.4,57.7,12.2,57.9z M8.6,63
		c1.3,0.7,2.5,1.5,3.9,2c1.8,0.6,3.8,0.4,5.6,0.9c0.1,0,0.1,0.3,0,0.3c-1.1,0-2.2,0.4-3.2,0.3c-1.7-0.1-3.4-0.8-5-1.5
		c-0.6-0.2-6.3-3-5.2-3.8c0.5-0.4,1.2,0,1.7,0.3C7.2,62.1,7.9,62.6,8.6,63z M15.1,67.2c0,0.1,0,0.2-0.1,0.2
		c-0.6,0.1-1.3,0.3-1.9,0.4c-0.3,0-1.1,0.1-1.3-0.3c-0.2-0.4,0.3-0.7,0.7-0.8c0.8-0.2,1.7,0.1,2.5,0.2C15.1,67,15.1,67.1,15.1,67.2z
		 M6.9,64.2c0.2,0.3-0.4,0.9-0.5,1.2c-0.8,1.1-1.8,2.1-2.9,2.8c-0.1,0-0.2,0-0.2-0.1c-0.1-0.6,0.1-1.2,0.3-1.8
		c0.2-0.8,0.4-1.9,1.3-2.2C5.3,63.8,6.7,63.5,6.9,64.2z M5.2,67.8c1-1.1,2.3-2.2,3.8-2.4c0.1,0,0.2,0.1,0.1,0.2
		c-0.3,0.5-0.6,0.8-0.9,1.2c-0.3,0.5-0.6,0.9-1,1.4c-0.9,1.2-1.7,2.4-2.7,3.4C3.3,73,0.8,75.4-1,73.8c-0.1-0.1-0.1-0.2,0.1-0.3
		C1,73,2.2,71,3.5,69.7c0.1-0.1,0.2-0.2,0.3-0.2C4.2,68.8,4.7,68.3,5.2,67.8z M19.2,67.7c-1.2,1-2.7,1.4-4.2,1.7
		c-1.4,0.3-2.9,0.6-4.3,0.3c-0.1,0-0.1-0.1-0.1-0.2c0.1-1.2,1.6-1.5,2.6-1.7c1.9-0.2,3.9-0.2,5.8-0.4c0,0,0.1,0,0.1,0
		C19.3,67.5,19.3,67.6,19.2,67.7z M23.5,63.2c-0.1,0.7-1.8,0.6-2.3,0.6c-1.2,0.1-2.5,0.2-3.7,0.4c-0.8,0.1-1.6,0.3-2.4,0.3
		c-0.4,0-0.9-0.1-1.2-0.3c-0.3-0.2-0.5-0.4-0.2-0.8C14,63,14.6,63.1,15,63c2.3-0.2,4.5-1.4,6.9-0.8c0.4,0.1,1.5,0.2,1.6,0.7
		C23.5,63,23.5,63.1,23.5,63.2z M23.7,61.8c-1.5-0.2-2.8-0.9-4.2-1.5c-1.5-0.7-3-1.3-4.6-1.9c-1.6-0.6-3.1-1.4-4.8-1.6
		c-1.1-0.2-2.1,0-3,0.5c-0.5,0.5-1.1,0.9-1.4,1.6c-0.6,1-1,2-1.4,3c-0.7,1.9-1.2,3.9-2,5.8c-0.7,1.6-1.6,3.1-2.9,4.2
		c-1,0.9-2.3,1.9-3.7,1.9c-0.1,0-0.2-0.2-0.1-0.3c1.5-1.3,3.2-2.6,4.3-4.3c1.1-1.9,1.8-4.1,2.4-6.1c0.4-1.4,1-2.8,1.7-4.1
		c0.6-1,1.3-2,2.3-2.4c5.2-3.3,12.8,2.5,17.4,5c0,0,0,0,0,0c0,0,0,0,0,0C23.9,61.5,23.9,61.8,23.7,61.8z M22,57.4
		c-0.1-0.1-0.1-0.3,0-0.3c0.9-0.1,1.8,0.1,2.7,0.1c1,0.1,2.1,0,3.1-0.1c1.1-0.1,2.2-0.2,3.2-0.5c0.5-0.1,1-0.5,1.5-0.5
		c0.1,0,0.1,0,0.1,0.1c0.1,0,0.1,0.1,0.1,0.2c-0.7,1.5-3,2-4.4,2.3C26,59,24,58.5,22,57.4z M33.4,57.4c0.6-0.8,1.2-1.7,2.2-1.7
		c0.1-0.2,0.3-0.1,0.3,0.1c-0.8,3-4.1,4.4-7,4.4c-0.2,0-0.2-0.2,0-0.3C30.6,59.6,32.3,58.8,33.4,57.4z M38.1,56.6
		c-0.4,1.8-1.7,3.3-3.2,4.4c-2.1,1.6-5.9,3.2-8.3,1.4c-0.1-0.1-0.1-0.3,0.1-0.3c2.5-0.1,5.1-0.4,7.1-2c1.6-1.4,2.5-3.2,3.6-5
		c0-0.1,0-0.1,0-0.2C38.5,54.2,38.2,56,38.1,56.6z M43.2,50.9c-0.4,1.6-2.6,2.2-4,2.7c-2.1,0.8-4.6,2-6.9,1.4c-0.1,0-0.2-0.2,0-0.3
		c2.7-1.4,6-2.2,8.3-4.2c0.5-0.5,1.5-1.4,2.3-1C43.3,49.8,43.3,50.4,43.2,50.9z"/>
</g>
<g>
	<path class="st2" d="M71.1,70.2c3.1-2.9,6.3-5.8,9.5-8.5c-2.8-0.5-5-1.3-5.9-1.8c-2.5-1.5-4.8-0.8-4.8-0.8s-1.7,0.4-1.3,2.4
		c0.4,2,3.5,4.1,3.5,4.1s-0.6-0.1-1.6-0.8c-1-0.7-1.5-1.1-1.7-0.3c0,0-0.7,0-0.6,1.2c0.2,1.1,0.8,1.9,0.8,1.9s-0.6-0.4-0.6,0.4
		c0,0.8,1.2,1.6,1.6,1.8C69.8,69.8,70.3,70,71.1,70.2z"/>
	<path class="st1" d="M71.1,70.2c0,0,0.1-0.1,0.1-0.1c-0.9-0.3-2.2-0.8-2.4-1.8c0-0.1,0-0.1,0.1-0.1c0,0,0,0,0,0c0,0,0,0,0.1,0
		c0.3,0.1,0.5,0.3,0.7,0.5c0.3,0.2,0.6,0.4,0.9,0.5c0.3,0.2,0.7,0.3,1.1,0.5c0.2-0.2,0.4-0.4,0.7-0.6c-0.5-0.2-0.9-0.4-1.3-0.7
		c-0.9-0.5-1.9-1.1-2.4-2c-0.1-0.2-0.3-0.7,0.1-0.8c0.3-0.1,0.6,0.3,0.8,0.5c0.3,0.3,0.6,0.6,1,0.9c0.7,0.6,1.5,1.1,2.4,1.6
		c0.4-0.3,0.7-0.7,1.1-1c-0.4-0.1-0.8-0.2-1.1-0.3c-0.9-0.3-1.8-0.7-2.6-1.2c-0.3-0.2-0.9-0.5-0.9-1c0,0,0,0,0,0
		c-0.1-0.2,0-0.4,0.2-0.4c0.4,0,0.8,0.4,1.1,0.6c1.2,0.6,2.5,1,3.8,1.3c0.2,0,0.4,0.1,0.5,0.1c0.2-0.1,0.3-0.3,0.5-0.4
		c-0.4-0.1-0.8-0.1-1.1-0.3c-0.4-0.2-1-0.8-0.2-0.9c0.7-0.1,1.5,0.2,2.1,0.4c0.1-0.1,0.2-0.2,0.4-0.3c-0.3-0.1-0.6-0.1-0.9-0.2
		c-1.5-0.5-3.1-1.1-4.2-2.2c-0.2-0.2-0.9-1.1-0.5-1.4c0,0,0,0,0,0c0.4-0.3,1.5,0.8,1.8,1.1c1.2,0.9,2.6,1.8,4.1,2.4c0,0,0.1,0,0.1,0
		c0.2-0.1,0.3-0.3,0.5-0.4c-1.1-0.5-2.3-1.1-3.3-1.7c-0.5-0.3-0.9-0.6-1.3-1c-0.3-0.3-0.6-0.7,0.1-0.7c0.7,0.1,1.4,0.4,1.9,0.7
		c1.1,0.6,2.2,1.3,3.3,1.9c0.3-0.3,0.7-0.6,1-0.9c-0.8-0.3-1.6-0.6-2.4-0.9c-0.8-0.3-1.6-0.7-2.4-1.1c-0.8-0.4-1.6-0.8-2.5-0.8
		c-0.7,0-1.6,0.2-1.8,1c-0.2,0.8,0.5,1.3,0.5,2.1c-1.2-0.4-2-2-1.2-3.2c0.9-1.3,3.1-0.8,4.3-0.3c2,0.9,3.6,1.9,5.7,2.4
		c0.2,0.1,0.4,0.1,0.6,0.1c0.2-0.2,0.4-0.3,0.6-0.5c-2.8-0.5-5-1.3-5.9-1.8c-2.5-1.5-4.8-0.8-4.8-0.8s-1.7,0.4-1.3,2.4
		c0.2,1.2,1.4,2.4,2.4,3.2c0,0,0,0,0,0c0,0,0,0,0,0c0.2,0.2,0.4,0.4,0.6,0.5c0,0,0,0,0,0c0,0,0,0,0.1,0.1c0,0,0,0,0,0c0,0,0,0,0.1,0
		c0,0,0,0,0,0c0,0,0,0,0,0c0,0,0,0,0,0c0,0,0,0,0,0c0.1,0.1,0.2,0.1,0.2,0.1s-0.6-0.1-1.6-0.8c-1-0.7-1.5-1.1-1.7-0.3
		c0,0-0.7,0-0.6,1.2c0.2,1.1,0.8,1.9,0.8,1.9s-0.6-0.4-0.6,0.4c0,0.8,1.2,1.6,1.6,1.8C69.8,69.8,70.3,70,71.1,70.2z"/>
	<path class="st2" d="M76.8,63.9c0,0-1,1.2-0.9,2.1c0.1,0.9,0.8,1.3,2.6,0.9c0,0-0.3,0.2-0.9,0.5c0.4-0.1,0.8-0.3,1.3-0.5
		c0,0,6.2-3.3,12.3-3.4c6.1-0.1,10.1,0.3,14.2-0.6c0,0,2.8,2.4,7.4,1.2c0.2-0.1,0.4-0.1,0.6-0.2c1.4-1.1,2.8-2.2,4.2-3.3
		c0.6-1,0.9-2,1.4-2.9c1.2-2.3,5.5-8.2,11.5-9.7c0,0-1.2-1.4-4.2-0.7c0,0,0.7-1.1-1-2.3c-1.7-1.2-5.8-0.6-8.7,1.7c0,0,1-3.4,6.2-5.1
		c5.2-1.7,6.1-0.5,6.7-1.5c0.6-1-1.5-2-4.6-1.1c-3.1,1-9.9,4.5-12.8,10.3c0,0-4.9-2.3-13,1.1c0,0-8.1-3.1-13.1-2.4
		c-4.9,0.7-5.2,2.2-4.3,2.6c0,0,0.2,0.1,1.6-0.3c1.3-0.5,7.5-1.6,11.1,2.4c0,0-3.5-2-7.1-0.5c-3.5,1.4-5.5,4-6.6,7.3
		c0,0-3.9,0.5-5.1,2.2C74.5,63.5,75.7,64.1,76.8,63.9z"/>
	<path class="st1" d="M76.8,63.9c0,0-1,1.2-0.9,2.1c0.1,0.9,0.8,1.3,2.6,0.9c0,0-0.3,0.2-0.9,0.5c0.4-0.1,0.8-0.3,1.3-0.5
		c0,0,6.2-3.3,12.3-3.4c6.1-0.1,10.1,0.3,14.2-0.6c0,0,2.8,2.4,7.4,1.2c0.2-0.1,0.4-0.1,0.6-0.2c1.4-1.1,2.8-2.2,4.2-3.3
		c0.6-1,0.9-2,1.4-2.9c1.2-2.3,5.5-8.2,11.5-9.7c0,0-1.2-1.4-4.2-0.7c0,0,0.7-1.1-1-2.3c-1.7-1.2-5.8-0.6-8.7,1.7c0,0,1-3.4,6.2-5.1
		c5.2-1.7,6.1-0.5,6.7-1.5c0.4-0.6-0.4-1.3-1.8-1.4c0.1,0.1,0.1,0.2,0.1,0.3c0.2,0.9-1.1,0.9-1.6,0.9c-1.9,0.3-3.8,0.8-5.5,1.7
		c-2.7,1.5-4.4,4.1-6.5,6.3c-0.4,0.5-1,1.3-1.7,1.4c-0.2,0-0.3,0-0.4-0.2c0,0,0,0,0,0c0,0-4.9-2.3-13,1.1c0,0-4.6-1.7-8.9-2.3
		c0.4,0.1,0.8,0.2,1.2,0.3c1.7,0.5,3.3,1.3,4.9,2.1c1,0.5,2,0.7,3,1.1c0.6,0.2,1.3,0.3,1.8,0.7c0.1,0.1,0.1,0.2,0,0.3
		c-1.9,0.4-3.9-0.3-5.6-1.1c-1.9-0.9-3.8-2-6-2.4c-1.3-0.3-2.5-0.3-3.8,0c-0.9,0.2-1.9,0.7-2.8,0.7c-0.4,0-1,0-1.3-0.3
		c-0.4,0.5-0.2,0.9,0.2,1.1c0,0,0.2,0.1,1.6-0.3c1.3-0.5,7.5-1.6,11.1,2.4c0,0-3.5-2-7.1-0.5c-3.5,1.4-5.5,4-6.6,7.3
		c0,0-3.9,0.5-5.1,2.2C74.5,63.5,75.7,64.1,76.8,63.9z M99.9,62.7c-2.4,0.2-4.7-0.2-7-0.3c-1.6-0.1-3.2,0.1-4.8,0.2
		c-2.6,0.4-5.2,1.2-7.5,2.6c-0.9,0.5-2.4,1.6-3.5,1.1c-1.3-0.6-0.2-1.8,0.5-2.4c0,0,0.1,0,0.1,0c1.7-1.6,4.3-2.1,6.4-2.5
		c0.9-0.2,1.9-0.3,2.9-0.3c4.4-0.5,8.8,0.3,13,1.4C100.1,62.5,100,62.7,99.9,62.7z M113.5,49.6c1.1-1.1,2.3-2.1,3.6-2.9
		c1.8-1.2,4.2-2.2,6.4-1.4c0.2,0.1,0.1,0.3,0,0.3c-3.6,0-6.3,2.4-8.8,4.8c-1,1-3,3.8-4.6,2.4c-0.1,0-0.2-0.2-0.1-0.3
		C111.4,51.9,112.4,50.7,113.5,49.6z M104.6,58.7c1.4-0.4,2.8-0.1,4.2-0.1c0.9,0,1.8-0.4,2.7-0.4c0.5,0,2.2,0.7,1,1.2
		c-0.7,0.3-1.7,0.1-2.4,0.3c-1.5,0.3-2.8,0.3-4.3-0.2c-0.3-0.1-1.4-0.3-1.5-0.6C104.4,58.8,104.5,58.8,104.6,58.7z M101.5,56.7
		c-0.1-0.1,0-0.2,0.1-0.2c0.1-0.6,2.6-0.3,2.8-0.2c1.3,0.1,2.7,0.2,4,0.4c0.7,0.1,1.7,0.1,2.2,0.6c0.1,0.1,0,0.2-0.1,0.3
		c-2,0.1-4,0.3-6,0.3C103.4,57.7,102.1,57.6,101.5,56.7z M107.6,60.8C107.6,60.8,107.6,60.8,107.6,60.8c0.5-0.3,1-0.2,1.5-0.2
		c0.6,0,1.2-0.1,1.8-0.2c1-0.3,1.9-0.6,2.9-0.7c0.1,0,0.2,0.1,0.2,0.2c-1.1,1.6-3.2,1.9-4.9,1.5C109,61.4,107.4,60.9,107.6,60.8z
		 M112.1,56.4c-1.1-0.9-2.2-2-3.5-2.7c-1.7-0.9-3.6-1.1-5.4-1.9c-0.1-0.1-0.1-0.3,0.1-0.3c1.1,0.2,2.2,0,3.2,0.3
		c1.7,0.4,3.2,1.4,4.6,2.4c0.5,0.3,5.7,4.1,4.4,4.7c-0.6,0.3-1.2-0.2-1.6-0.6C113.3,57.6,112.8,57,112.1,56.4z M106.5,51.1
		c0-0.1,0-0.2,0.1-0.2c0.7,0,1.3-0.1,2,0c0.3,0,1.1,0,1.2,0.5c0.1,0.4-0.5,0.6-0.8,0.6c-0.8,0.1-1.7-0.4-2.4-0.7
		C106.5,51.3,106.4,51.2,106.5,51.1z M114,55.6c-0.1-0.3,0.5-0.9,0.7-1.1c1-0.9,2.2-1.8,3.4-2.2c0.1,0,0.2,0.1,0.2,0.1
		c0,0.6-0.3,1.2-0.6,1.7c-0.4,0.7-0.7,1.8-1.7,2C115.5,56.2,114.1,56.3,114,55.6z M116.3,52.4c-1.2,0.8-2.6,1.8-4.2,1.7
		c-0.1,0-0.2-0.2-0.1-0.3c0.3-0.4,0.7-0.7,1.1-1c0.4-0.4,0.8-0.8,1.2-1.2c1.1-1,2.2-2,3.3-2.9c1.4-1.1,4.3-3,5.8-1.1
		c0.1,0.1,0,0.2-0.1,0.3c-2,0.1-3.5,1.9-5.1,2.9c-0.1,0.1-0.2,0.1-0.3,0.2C117.5,51.5,116.9,52,116.3,52.4z M102.5,49.8
		c1.3-0.8,2.9-0.9,4.4-0.9c1.4,0,2.9,0,4.3,0.5c0.1,0,0.1,0.1,0.1,0.2c-0.3,1.2-1.9,1.2-2.9,1.1c-1.9-0.1-3.9-0.5-5.8-0.7
		c0,0-0.1,0-0.1,0C102.5,50.1,102.4,49.9,102.5,49.8z M97.5,53.6c0.3-0.6,1.9-0.2,2.4-0.2c1.2,0.1,2.4,0.3,3.7,0.3
		c0.8,0,1.6,0,2.4,0.1c0.4,0.1,0.8,0.2,1.2,0.5c0.3,0.2,0.4,0.5,0.1,0.8c-0.4,0.3-1,0.1-1.4,0.1c-2.3-0.2-4.7,0.5-6.9-0.5
		c-0.3-0.2-1.5-0.5-1.5-1C97.4,53.7,97.4,53.6,97.5,53.6z M97.1,54.8c1.5,0.4,2.6,1.4,3.8,2.3c1.3,1,2.7,1.8,4.1,2.7
		c1.4,0.8,2.8,1.9,4.4,2.5c1.1,0.4,2.1,0.4,3.1,0.1c0.6-0.3,1.2-0.7,1.7-1.3c0.7-0.8,1.4-1.8,1.9-2.7c1.1-1.7,1.9-3.6,3.1-5.3
		c1-1.4,2.2-2.7,3.6-3.6c1.2-0.7,2.6-1.4,4-1.2c0.1,0,0.1,0.2,0,0.3c-1.8,1-3.6,1.9-5,3.5c-1.4,1.6-2.5,3.7-3.5,5.6
		c-0.7,1.3-1.5,2.6-2.4,3.7c-0.7,0.8-1.6,1.7-2.7,1.9c-5.8,2.3-12.1-4.8-16.2-8.1c0,0,0,0,0,0c0,0,0,0,0,0
		C96.8,55.1,96.9,54.8,97.1,54.8z M97.9,59.5c0.1,0.1,0.1,0.3-0.1,0.3c-0.9-0.1-1.7-0.4-2.6-0.6c-1-0.3-2.1-0.4-3.1-0.5
		c-1.1-0.1-2.2-0.2-3.2-0.1c-0.5,0-1.1,0.3-1.6,0.2c-0.1,0-0.1,0-0.1-0.1c-0.1,0-0.1-0.1,0-0.2c0.9-1.4,3.3-1.4,4.8-1.4
		C94.3,57.1,96.1,58,97.9,59.5z M86.7,57.4c-0.7,0.6-1.4,1.5-2.5,1.2c-0.1,0.2-0.3,0-0.2-0.2c1.4-2.8,4.9-3.5,7.7-3.1
		c0.2,0,0.2,0.3,0,0.3C89.9,55.8,88,56.2,86.7,57.4z M81.9,57.3c0.8-1.7,2.3-2.9,4-3.7c2.3-1.2,6.4-2.1,8.4,0.2
		c0.1,0.1,0,0.3-0.1,0.3c-2.4-0.4-5.1-0.6-7.3,0.7c-1.9,1-3.1,2.7-4.4,4.3c0,0.1,0,0.1-0.1,0.2C81.1,59.6,81.7,57.9,81.9,57.3z
		 M75.9,62c0.7-1.5,3-1.6,4.4-1.9c2.3-0.4,4.9-1.1,7.1-0.1c0.1,0.1,0.1,0.2,0,0.3c-2.9,0.8-6.3,1-8.9,2.6c-0.6,0.4-1.7,1.1-2.4,0.5
		C75.5,63,75.6,62.5,75.9,62z"/>
</g>
<g>
	<path class="st2" d="M60.4,23.9c-2.5,3.4-5.1,6.8-7.7,10.1c2.9,0,5.2,0.4,6.1,0.7c2.7,1,4.9-0.1,4.9-0.1s1.6-0.8,0.9-2.6
		c-0.8-1.9-4.2-3.4-4.2-3.4s0.6,0,1.8,0.5c1.1,0.5,1.7,0.8,1.8,0c0,0,0.7-0.1,0.4-1.2c-0.4-1.1-1.1-1.7-1.1-1.7s0.7,0.2,0.5-0.5
		c-0.2-0.8-1.5-1.4-1.9-1.5C61.7,24.1,61.2,24,60.4,23.9z"/>
	<path class="st1" d="M60.4,23.9c0,0-0.1,0.1-0.1,0.1c1,0.1,2.3,0.4,2.7,1.3c0,0.1,0,0.1-0.1,0.1c0,0,0,0,0,0c0,0,0,0-0.1,0
		c-0.3-0.1-0.5-0.2-0.8-0.3c-0.3-0.1-0.6-0.3-0.9-0.3c-0.4-0.1-0.7-0.2-1.1-0.3c-0.2,0.2-0.4,0.5-0.5,0.7c0.5,0.1,1,0.3,1.4,0.4
		c1,0.3,2.1,0.7,2.7,1.6c0.1,0.2,0.4,0.7,0.1,0.8c-0.3,0.1-0.7-0.2-0.9-0.3c-0.4-0.2-0.7-0.5-1.1-0.7c-0.8-0.5-1.7-0.8-2.7-1.1
		c-0.3,0.4-0.6,0.8-0.9,1.2c0.4,0,0.8,0.1,1.2,0.1c0.9,0.1,1.9,0.3,2.8,0.7c0.3,0.1,1,0.4,1,0.8c0,0,0,0,0,0
		c0.1,0.2,0.1,0.4-0.2,0.4c-0.4,0-0.8-0.2-1.2-0.4c-1.3-0.3-2.6-0.5-3.9-0.6c-0.2,0-0.4,0-0.5,0c-0.1,0.2-0.3,0.3-0.4,0.5
		c0.4,0,0.8,0,1.1,0.1c0.5,0.1,1.1,0.6,0.3,0.9c-0.7,0.3-1.5,0.1-2.2,0c-0.1,0.1-0.2,0.3-0.3,0.4c0.3,0,0.6,0,1,0
		c1.6,0.2,3.2,0.5,4.5,1.4c0.2,0.2,1.1,0.9,0.8,1.2c0,0,0,0,0,0c-0.3,0.3-1.6-0.6-2-0.7c-1.4-0.7-2.9-1.3-4.4-1.6c0,0-0.1,0-0.1,0
		c-0.1,0.2-0.3,0.4-0.4,0.5c1.2,0.3,2.4,0.6,3.6,1.1c0.5,0.2,1,0.4,1.4,0.7c0.4,0.3,0.7,0.6,0,0.7c-0.7,0.1-1.4-0.2-2-0.4
		c-1.2-0.4-2.4-0.9-3.6-1.3c-0.3,0.4-0.6,0.7-0.9,1.1c0.9,0.1,1.7,0.3,2.5,0.5c0.9,0.2,1.7,0.4,2.5,0.7c0.9,0.2,1.8,0.5,2.7,0.3
		c0.7-0.1,1.5-0.5,1.5-1.3c0-0.8-0.8-1.2-0.8-1.9c1.2,0.2,2.4,1.6,1.8,2.9c-0.7,1.5-2.9,1.3-4.2,1.1c-2.1-0.5-3.9-1.2-6.1-1.3
		c-0.2,0-0.4,0-0.6,0c-0.2,0.2-0.3,0.4-0.5,0.6c2.9,0,5.2,0.4,6.1,0.7c2.7,1,4.9-0.1,4.9-0.1s1.6-0.8,0.9-2.6
		c-0.5-1.1-1.9-2.1-2.9-2.7c0,0,0,0,0,0c0,0,0,0,0,0c-0.3-0.2-0.5-0.3-0.7-0.4c0,0,0,0,0,0c0,0-0.1,0-0.1,0c0,0,0,0,0,0
		c0,0,0,0-0.1,0c0,0,0,0,0,0c0,0,0,0,0,0c0,0,0,0,0,0c0,0,0,0,0,0c-0.1-0.1-0.2-0.1-0.2-0.1s0.6,0,1.8,0.5c1.1,0.5,1.7,0.8,1.8,0
		c0,0,0.7-0.1,0.4-1.2c-0.4-1.1-1.1-1.7-1.1-1.7s0.7,0.2,0.5-0.5c-0.2-0.8-1.5-1.4-1.9-1.5C61.7,24.1,61.2,24,60.4,23.9z"/>
	<path class="st2" d="M56,31.1c0,0,0.8-1.4,0.5-2.2c-0.3-0.8-1.1-1.1-2.7-0.4c0,0,0.3-0.2,0.8-0.6c-0.4,0.2-0.8,0.5-1.2,0.8
		c0,0-5.5,4.4-11.5,5.6c-6,1.2-9.9,1.6-13.8,3.2c0,0-3.2-1.8-7.5,0.2c-0.2,0.1-0.3,0.2-0.5,0.3c-1.2,1.3-2.3,2.7-3.5,4
		c-0.4,1-0.5,2.1-0.9,3.1c-0.8,2.5-3.9,9.1-9.5,11.7c0,0,1.5,1.1,4.3-0.1c0,0-0.5,1.2,1.4,2.1c1.9,0.9,5.8-0.5,8.3-3.3
		c0,0-0.4,3.6-5.1,6.2C10.1,64,9,63,8.5,64.1c-0.4,1.1,1.8,1.7,4.7,0.2c2.9-1.5,8.9-6.2,10.7-12.5c0,0,5.2,1.3,12.6-3.5
		c0,0,8.6,1.5,13.3,0c4.7-1.5,4.7-3.1,3.7-3.4c0,0-0.3-0.1-1.5,0.6c-1.2,0.7-7.1,3-11.3-0.3c0,0,3.8,1.3,7-0.8
		c3.2-2.1,4.6-4.9,5.1-8.4c0,0,3.8-1.2,4.6-3.1C58.2,31.2,57,30.7,56,31.1z"/>
	<path class="st1" d="M56,31.1c0,0,0.8-1.4,0.5-2.2c-0.3-0.8-1.1-1.1-2.7-0.4c0,0,0.3-0.2,0.8-0.6c-0.4,0.2-0.8,0.5-1.2,0.8
		c0,0-5.5,4.4-11.5,5.6c-6,1.2-9.9,1.6-13.8,3.2c0,0-3.2-1.8-7.5,0.2c-0.2,0.1-0.3,0.2-0.5,0.3c-1.2,1.3-2.3,2.7-3.5,4
		c-0.4,1-0.5,2.1-0.9,3.1c-0.8,2.5-3.9,9.1-9.5,11.7c0,0,1.5,1.1,4.3-0.1c0,0-0.5,1.2,1.4,2.1c1.9,0.9,5.8-0.5,8.3-3.3
		c0,0-0.4,3.6-5.1,6.2C10.1,64,9,63,8.5,64.1c-0.3,0.7,0.6,1.2,2,1.1c-0.1-0.1-0.1-0.2-0.2-0.3c-0.3-0.8,0.9-1,1.4-1.2
		c1.8-0.7,3.6-1.5,5-2.7c2.4-2,3.6-4.8,5.2-7.4c0.3-0.6,0.8-1.5,1.4-1.7c0.2-0.1,0.3,0,0.4,0.1c0,0,0,0,0,0c0,0,5.2,1.3,12.6-3.5
		c0,0,4.8,0.8,9.2,0.6c-0.4,0-0.8-0.1-1.2-0.1c-1.8-0.2-3.5-0.7-5.2-1.1c-1.1-0.3-2.1-0.4-3.2-0.5c-0.6-0.1-1.3-0.1-1.9-0.3
		c-0.1,0-0.1-0.2,0-0.3c1.8-0.7,3.8-0.4,5.7,0.1c2.1,0.5,4.1,1.2,6.3,1.3c1.3,0,2.5-0.2,3.7-0.7c0.9-0.4,1.7-1,2.6-1.2
		c0.4-0.1,1-0.1,1.3,0c0.3-0.5,0-0.9-0.4-1c0,0-0.3-0.1-1.5,0.6c-1.2,0.7-7.1,3-11.3-0.3c0,0,3.8,1.3,7-0.8c3.2-2.1,4.6-4.9,5.1-8.4
		c0,0,3.8-1.2,4.6-3.1C58.2,31.2,57,30.7,56,31.1z M33.5,36.6c2.3-0.6,4.6-0.6,7-1c1.6-0.2,3.2-0.7,4.7-1.1c2.5-0.9,4.9-2.1,6.9-3.9
		c0.7-0.7,2.1-2,3.2-1.7c1.4,0.4,0.5,1.7,0,2.5c0,0-0.1,0-0.1,0c-1.3,1.8-3.8,2.8-5.8,3.6c-0.9,0.4-1.8,0.6-2.8,0.8
		c-4.2,1.3-8.7,1.3-13.1,1C33.3,36.8,33.3,36.6,33.5,36.6z M22.5,52c-0.9,1.2-1.9,2.4-3,3.5c-1.6,1.5-3.7,3-6,2.6
		c-0.2,0-0.2-0.3,0-0.3c3.5-0.7,5.8-3.6,7.8-6.3c0.8-1.1,2.2-4.2,4.1-3.2c0.1,0,0.3,0.2,0.1,0.3C24.1,49.3,23.4,50.7,22.5,52z
		 M29.5,41.4c-1.3,0.6-2.8,0.6-4.1,0.9c-0.9,0.2-1.7,0.7-2.6,0.8c-0.5,0.1-2.3-0.3-1.2-1c0.6-0.4,1.6-0.5,2.3-0.7
		c1.5-0.5,2.7-0.9,4.2-0.6c0.3,0,1.5,0,1.6,0.3C29.7,41.2,29.7,41.3,29.5,41.4z M33,42.8c0.1,0.1,0,0.2-0.1,0.2
		c0,0.6-2.5,0.7-2.7,0.7c-1.3,0.1-2.7,0.3-4,0.4c-0.7,0-1.6,0.2-2.3-0.2c-0.1-0.1-0.1-0.2,0.1-0.3c1.9-0.5,3.9-1.1,5.8-1.4
		C30.9,42.2,32.2,42,33,42.8z M26.2,39.9C26.2,39.9,26.2,39.9,26.2,39.9c-0.4,0.4-1,0.4-1.4,0.4c-0.6,0.1-1.2,0.3-1.8,0.6
		c-0.9,0.4-1.8,0.9-2.7,1.2c-0.1,0-0.3-0.1-0.2-0.2c0.8-1.7,2.8-2.4,4.6-2.4C24.7,39.6,26.4,39.7,26.2,39.9z M22.6,45
		c1.3,0.7,2.5,1.5,3.9,2c1.8,0.6,3.8,0.4,5.6,0.9c0.1,0,0.1,0.3,0,0.3c-1.1,0-2.2,0.4-3.2,0.3c-1.7-0.1-3.4-0.8-5-1.5
		c-0.6-0.2-6.3-3-5.2-3.8c0.5-0.4,1.2,0,1.7,0.3C21.2,44.1,21.9,44.6,22.6,45z M29.1,49.2c0,0.1,0,0.2-0.1,0.2
		c-0.6,0.1-1.3,0.3-1.9,0.4c-0.3,0-1.1,0.1-1.3-0.3c-0.2-0.4,0.3-0.7,0.7-0.8c0.8-0.2,1.7,0.1,2.5,0.2C29.1,49,29.1,49.1,29.1,49.2z
		 M20.9,46.2c0.2,0.3-0.4,0.9-0.5,1.2c-0.8,1.1-1.8,2.1-2.9,2.8c-0.1,0-0.2,0-0.2-0.1c-0.1-0.6,0.1-1.2,0.3-1.8
		c0.2-0.8,0.4-1.9,1.3-2.2C19.3,45.8,20.7,45.5,20.9,46.2z M19.2,49.8c1-1.1,2.3-2.2,3.8-2.4c0.1,0,0.2,0.1,0.1,0.2
		c-0.3,0.5-0.6,0.8-0.9,1.2c-0.3,0.5-0.6,0.9-1,1.4c-0.9,1.2-1.7,2.4-2.7,3.4c-1.2,1.3-3.6,3.8-5.5,2.1c-0.1-0.1-0.1-0.2,0.1-0.3
		c1.9-0.5,3.1-2.5,4.5-3.8c0.1-0.1,0.2-0.2,0.3-0.2C18.2,50.8,18.7,50.3,19.2,49.8z M33.2,49.7c-1.2,1-2.7,1.4-4.2,1.7
		c-1.4,0.3-2.9,0.6-4.3,0.3c-0.1,0-0.1-0.1-0.1-0.2c0.1-1.2,1.6-1.5,2.6-1.7c1.9-0.2,3.9-0.2,5.8-0.4c0,0,0.1,0,0.1,0
		C33.3,49.5,33.3,49.6,33.2,49.7z M37.5,45.2c-0.1,0.7-1.8,0.6-2.3,0.6c-1.2,0.1-2.5,0.2-3.7,0.4c-0.8,0.1-1.6,0.3-2.4,0.3
		c-0.4,0-0.9-0.1-1.2-0.3c-0.3-0.2-0.5-0.4-0.2-0.8C28,45,28.6,45.1,29,45c2.3-0.2,4.5-1.4,6.9-0.8c0.4,0.1,1.5,0.2,1.6,0.7
		C37.5,45,37.5,45.1,37.5,45.2z M37.7,43.8c-1.5-0.2-2.8-0.9-4.2-1.5c-1.5-0.7-3-1.3-4.6-1.9c-1.6-0.6-3.1-1.4-4.8-1.6
		c-1.1-0.2-2.1,0-3,0.5c-0.5,0.5-1.1,0.9-1.4,1.6c-0.6,1-1,2-1.4,3c-0.7,1.9-1.2,3.9-2,5.8c-0.7,1.6-1.6,3.1-2.9,4.2
		c-1,0.9-2.3,1.9-3.7,1.9c-0.1,0-0.2-0.2-0.1-0.3c1.5-1.3,3.2-2.6,4.3-4.3c1.1-1.9,1.8-4.1,2.4-6.1c0.4-1.4,1-2.8,1.7-4.1
		c0.6-1,1.3-2,2.3-2.4c5.2-3.3,12.8,2.5,17.4,5c0,0,0,0,0,0c0,0,0,0,0,0C37.9,43.5,37.9,43.8,37.7,43.8z M36,39.4
		c-0.1-0.1-0.1-0.3,0-0.3c0.9-0.1,1.8,0.1,2.7,0.1c1,0.1,2.1,0,3.1-0.1c1.1-0.1,2.2-0.2,3.2-0.5c0.5-0.1,1-0.5,1.5-0.5
		c0.1,0,0.1,0,0.1,0.1c0.1,0,0.1,0.1,0.1,0.2c-0.7,1.5-3,2-4.4,2.3C40,41,38,40.5,36,39.4z M47.4,39.4c0.6-0.8,1.2-1.7,2.2-1.7
		c0.1-0.2,0.3-0.1,0.3,0.1c-0.8,3-4.1,4.4-7,4.4c-0.2,0-0.2-0.2,0-0.3C44.6,41.6,46.3,40.8,47.4,39.4z M52.1,38.6
		c-0.4,1.8-1.7,3.3-3.2,4.4c-2.1,1.6-5.9,3.2-8.3,1.4c-0.1-0.1-0.1-0.3,0.1-0.3c2.5-0.1,5.1-0.4,7.1-2c1.6-1.4,2.5-3.2,3.6-5
		c0-0.1,0-0.1,0-0.2C52.5,36.2,52.2,38,52.1,38.6z M57.2,32.9c-0.4,1.6-2.6,2.2-4,2.7c-2.1,0.8-4.6,2-6.9,1.4c-0.1,0-0.2-0.2,0-0.3
		c2.7-1.4,6-2.2,8.3-4.2c0.5-0.5,1.5-1.4,2.3-1C57.3,31.8,57.3,32.4,57.2,32.9z"/>
</g>
<g>
	<path class="st2" d="M114.2,58.5c3.1-2.9,6.2-5.8,9.4-8.6c-2.8-0.5-5-1.3-5.9-1.8c-2.5-1.5-4.9-0.8-4.9-0.8s-1.7,0.5-1.3,2.4
		c0.4,2,3.5,4.1,3.5,4.1s-0.6-0.1-1.7-0.8c-1-0.7-1.5-1.1-1.8-0.3c0,0-0.7,0-0.6,1.2c0.2,1.1,0.8,1.9,0.8,1.9s-0.6-0.4-0.6,0.4
		c0,0.8,1.2,1.6,1.6,1.8C112.9,58.1,113.4,58.3,114.2,58.5z"/>
	<path class="st1" d="M114.2,58.5c0,0,0.1-0.1,0.1-0.1c-0.9-0.3-2.2-0.8-2.4-1.7c0-0.1,0-0.1,0.1-0.1c0,0,0,0,0,0c0,0,0,0,0.1,0
		c0.3,0.1,0.5,0.3,0.7,0.5c0.3,0.2,0.6,0.4,0.9,0.5c0.3,0.2,0.7,0.3,1.1,0.5c0.2-0.2,0.4-0.4,0.6-0.6c-0.5-0.2-0.9-0.4-1.3-0.7
		c-0.9-0.5-2-1-2.4-2c-0.1-0.2-0.3-0.7,0.1-0.8c0.3-0.1,0.6,0.3,0.8,0.5c0.3,0.3,0.6,0.6,1,0.9c0.7,0.6,1.6,1.1,2.4,1.6
		c0.4-0.3,0.7-0.7,1.1-1c-0.4-0.1-0.8-0.2-1.1-0.3c-0.9-0.3-1.8-0.6-2.6-1.1c-0.3-0.2-0.9-0.5-0.9-1c0,0,0,0,0,0
		c-0.1-0.2,0-0.4,0.2-0.4c0.4,0,0.8,0.4,1.1,0.6c1.2,0.6,2.5,1,3.8,1.3c0.2,0,0.4,0.1,0.5,0.1c0.2-0.1,0.3-0.3,0.5-0.4
		c-0.4-0.1-0.8-0.1-1.1-0.3c-0.4-0.2-1-0.8-0.2-0.9c0.7-0.1,1.5,0.1,2.1,0.4c0.1-0.1,0.2-0.2,0.4-0.3c-0.3-0.1-0.6-0.1-0.9-0.2
		c-1.5-0.4-3.1-1-4.2-2.2c-0.2-0.2-0.9-1-0.5-1.4c0,0,0,0,0,0c0.4-0.3,1.5,0.8,1.8,1c1.2,0.9,2.6,1.8,4.1,2.4c0,0,0.1,0,0.1,0
		c0.2-0.1,0.3-0.3,0.5-0.4c-1.2-0.5-2.3-1.1-3.3-1.7c-0.5-0.3-0.9-0.6-1.3-0.9c-0.3-0.3-0.6-0.7,0.1-0.7c0.7,0.1,1.4,0.4,2,0.7
		c1.1,0.6,2.2,1.3,3.3,1.9c0.3-0.3,0.7-0.6,1-0.9c-0.8-0.3-1.6-0.6-2.4-0.9c-0.8-0.3-1.6-0.7-2.4-1.1c-0.8-0.4-1.6-0.8-2.6-0.8
		c-0.7,0-1.6,0.2-1.8,1c-0.2,0.8,0.5,1.3,0.5,2.1c-1.2-0.4-2-2-1.3-3.2c0.9-1.4,3.1-0.8,4.3-0.3c2,0.8,3.7,1.8,5.7,2.4
		c0.2,0,0.4,0.1,0.6,0.1c0.2-0.2,0.4-0.3,0.6-0.5c-2.8-0.5-5-1.3-5.9-1.8c-2.5-1.5-4.9-0.8-4.9-0.8s-1.7,0.5-1.3,2.4
		c0.3,1.2,1.5,2.4,2.4,3.2c0,0,0,0,0,0c0,0,0,0,0,0c0.2,0.2,0.4,0.4,0.6,0.5c0,0,0,0,0,0c0,0,0,0,0.1,0.1c0,0,0,0,0,0c0,0,0,0,0.1,0
		c0,0,0,0,0,0c0,0,0,0,0,0c0,0,0,0,0,0c0,0,0,0,0,0c0.1,0.1,0.2,0.1,0.2,0.1s-0.6-0.1-1.7-0.8c-1-0.7-1.5-1.1-1.8-0.3
		c0,0-0.7,0-0.6,1.2c0.2,1.1,0.8,1.9,0.8,1.9s-0.6-0.4-0.6,0.4c0,0.8,1.2,1.6,1.6,1.8C112.9,58.1,113.4,58.3,114.2,58.5z"/>
	<path class="st2" d="M119.9,52.1c0,0-1,1.2-0.9,2.1c0.1,0.9,0.9,1.3,2.6,0.9c0,0-0.3,0.2-0.9,0.5c0.4-0.1,0.8-0.3,1.3-0.5
		c0,0,6.2-3.4,12.3-3.5c6.1-0.1,10.1,0.2,14.2-0.7c0,0,2.9,2.4,7.4,1.1c0.2-0.1,0.4-0.1,0.6-0.2c1.4-1.1,2.8-2.2,4.1-3.3
		c0.5-1,0.9-2,1.4-2.9c1.2-2.3,5.5-8.3,11.4-9.8c0,0-1.3-1.4-4.2-0.7c0,0,0.7-1.1-1-2.3c-1.7-1.2-5.8-0.6-8.7,1.8c0,0,1-3.5,6.1-5.2
		c5.2-1.7,6.1-0.6,6.7-1.6c0.6-1-1.5-2-4.6-1c-3.1,1-9.9,4.6-12.7,10.4c0,0-4.9-2.2-13,1.2c0,0-8.2-3-13.1-2.3
		c-4.9,0.7-5.1,2.3-4.2,2.7c0,0,0.2,0.1,1.6-0.3c1.3-0.5,7.5-1.7,11.1,2.3c0,0-3.5-2-7.1-0.5c-3.5,1.5-5.4,4-6.5,7.3
		c0,0-3.9,0.5-5,2.2C117.6,51.7,118.8,52.3,119.9,52.1z"/>
	<path class="st1" d="M119.9,52.1c0,0-1,1.2-0.9,2.1c0.1,0.9,0.9,1.3,2.6,0.9c0,0-0.3,0.2-0.9,0.5c0.4-0.1,0.8-0.3,1.3-0.5
		c0,0,6.2-3.4,12.3-3.5c6.1-0.1,10.1,0.2,14.2-0.7c0,0,2.9,2.4,7.4,1.1c0.2-0.1,0.4-0.1,0.6-0.2c1.4-1.1,2.8-2.2,4.1-3.3
		c0.5-1,0.9-2,1.4-2.9c1.2-2.3,5.5-8.3,11.4-9.8c0,0-1.3-1.4-4.2-0.7c0,0,0.7-1.1-1-2.3c-1.7-1.2-5.8-0.6-8.7,1.8c0,0,1-3.5,6.1-5.2
		c5.2-1.7,6.1-0.6,6.7-1.6c0.4-0.6-0.4-1.3-1.8-1.4c0.1,0.1,0.1,0.2,0.1,0.3c0.2,0.9-1.1,0.9-1.6,1c-1.9,0.3-3.8,0.8-5.4,1.8
		c-2.7,1.6-4.4,4.1-6.4,6.4c-0.4,0.5-1,1.3-1.7,1.4c-0.2,0-0.3,0-0.4-0.2c0,0,0,0,0,0c0,0-4.9-2.2-13,1.2c0,0-4.6-1.7-9-2.2
		c0.4,0.1,0.8,0.2,1.2,0.3c1.7,0.5,3.3,1.3,4.9,2c1,0.4,2,0.7,3,1.1c0.6,0.2,1.3,0.3,1.8,0.7c0.1,0.1,0.1,0.2,0,0.3
		c-1.9,0.4-3.9-0.3-5.6-1.1c-1.9-0.9-3.9-2-6-2.4c-1.3-0.2-2.5-0.2-3.8,0.1c-0.9,0.2-1.9,0.7-2.8,0.8c-0.4,0-1,0-1.3-0.3
		c-0.4,0.5-0.2,0.9,0.2,1.1c0,0,0.2,0.1,1.6-0.3c1.3-0.5,7.5-1.7,11.1,2.3c0,0-3.5-2-7.1-0.5c-3.5,1.5-5.4,4-6.5,7.3
		c0,0-3.9,0.5-5,2.2C117.6,51.7,118.8,52.3,119.9,52.1z M143,50.7c-2.4,0.2-4.7-0.2-7-0.3c-1.6-0.1-3.2,0.1-4.8,0.3
		c-2.6,0.5-5.2,1.2-7.5,2.6c-0.9,0.5-2.4,1.6-3.5,1.1c-1.3-0.6-0.2-1.8,0.5-2.4c0,0,0.1,0,0.1,0c1.6-1.6,4.2-2.1,6.4-2.5
		c0.9-0.2,1.9-0.3,2.9-0.3c4.4-0.5,8.8,0.2,13,1.3C143.2,50.5,143.1,50.7,143,50.7z M156.5,37.5c1.1-1.1,2.3-2.1,3.5-2.9
		c1.8-1.2,4.2-2.3,6.4-1.5c0.2,0.1,0.1,0.3,0,0.3c-3.6,0.1-6.3,2.5-8.8,4.9c-1,1-3,3.8-4.6,2.5c-0.1,0-0.2-0.2-0.1-0.3
		C154.4,39.8,155.4,38.6,156.5,37.5z M147.7,46.7c1.4-0.4,2.8-0.1,4.2-0.2c0.9,0,1.8-0.4,2.7-0.4c0.5,0,2.2,0.7,1,1.2
		c-0.7,0.3-1.7,0.2-2.4,0.3c-1.5,0.3-2.8,0.4-4.3-0.1c-0.3-0.1-1.4-0.3-1.5-0.6C147.4,46.8,147.5,46.7,147.7,46.7z M144.5,44.7
		c-0.1-0.1,0-0.2,0.1-0.2c0.1-0.6,2.6-0.3,2.8-0.3c1.3,0.1,2.7,0.2,4,0.4c0.7,0.1,1.7,0,2.2,0.6c0.1,0.1,0,0.2-0.1,0.3
		c-2,0.1-4,0.4-6,0.3C146.5,45.7,145.1,45.6,144.5,44.7z M150.6,48.7C150.7,48.7,150.7,48.7,150.6,48.7c0.5-0.3,1-0.2,1.5-0.2
		c0.6,0,1.2-0.1,1.8-0.3c1-0.3,1.9-0.6,2.9-0.7c0.1,0,0.2,0.1,0.2,0.2c-1.1,1.6-3.1,1.9-4.9,1.5C152.1,49.3,150.5,48.9,150.6,48.7z
		 M155.1,44.3c-1.1-0.9-2.2-1.9-3.5-2.6c-1.7-0.9-3.6-1.1-5.4-1.9c-0.1-0.1-0.1-0.3,0.1-0.3c1.1,0.1,2.2,0,3.2,0.3
		c1.7,0.4,3.2,1.4,4.6,2.3c0.5,0.3,5.7,4,4.4,4.6c-0.6,0.3-1.2-0.2-1.6-0.6C156.3,45.5,155.8,44.9,155.1,44.3z M149.4,39.1
		c0-0.1,0-0.2,0.1-0.2c0.7,0,1.3-0.1,2,0c0.3,0,1.1,0,1.2,0.5c0.1,0.4-0.5,0.6-0.8,0.6c-0.8,0.1-1.7-0.4-2.4-0.7
		C149.4,39.3,149.4,39.2,149.4,39.1z M157,43.4c-0.1-0.3,0.5-0.9,0.7-1.1c1-0.9,2.1-1.8,3.4-2.2c0.1,0,0.2,0.1,0.2,0.1
		c0,0.6-0.3,1.2-0.6,1.7c-0.4,0.7-0.7,1.8-1.7,2C158.5,44.1,157.1,44.2,157,43.4z M159.3,40.3c-1.2,0.9-2.6,1.8-4.1,1.7
		c-0.1,0-0.2-0.2-0.1-0.3c0.3-0.4,0.7-0.7,1.1-1c0.4-0.4,0.8-0.8,1.2-1.2c1.1-1,2.1-2,3.3-2.9c1.4-1.1,4.2-3.1,5.8-1.1
		c0.1,0.1,0,0.2-0.1,0.3c-2,0.1-3.5,1.9-5.1,3c-0.1,0.1-0.2,0.1-0.3,0.2C160.5,39.4,159.9,39.8,159.3,40.3z M145.5,37.8
		c1.3-0.8,2.9-0.9,4.4-0.9c1.4,0,2.9-0.1,4.3,0.5c0.1,0,0.1,0.1,0.1,0.2c-0.3,1.2-1.9,1.2-2.9,1.2c-1.9-0.1-3.9-0.5-5.8-0.6
		c0,0-0.1,0-0.1,0C145.4,38.1,145.4,37.9,145.5,37.8z M140.5,41.6c0.3-0.6,1.9-0.2,2.4-0.2c1.2,0.1,2.4,0.3,3.7,0.3
		c0.8,0,1.6-0.1,2.4,0.1c0.4,0.1,0.8,0.2,1.2,0.5c0.3,0.2,0.4,0.5,0.1,0.8c-0.4,0.3-1,0.1-1.4,0.1c-2.3-0.2-4.6,0.6-6.9-0.5
		c-0.3-0.2-1.5-0.4-1.5-1C140.4,41.7,140.4,41.6,140.5,41.6z M140.1,42.9c1.5,0.4,2.6,1.3,3.8,2.2c1.3,1,2.7,1.8,4.2,2.6
		c1.4,0.8,2.9,1.9,4.4,2.4c1.1,0.4,2.1,0.4,3.1,0.1c0.6-0.3,1.2-0.7,1.7-1.3c0.7-0.9,1.3-1.8,1.9-2.8c1-1.8,1.8-3.7,3-5.3
		c1-1.4,2.1-2.7,3.6-3.6c1.2-0.7,2.6-1.5,4-1.2c0.1,0,0.1,0.2,0,0.3c-1.8,1-3.6,2-5,3.5c-1.4,1.7-2.4,3.7-3.5,5.6
		c-0.7,1.3-1.4,2.6-2.4,3.8c-0.7,0.8-1.6,1.7-2.7,1.9c-5.8,2.4-12.1-4.7-16.3-7.9c0,0,0,0,0,0c0,0,0,0,0,0
		C139.8,43.1,139.9,42.8,140.1,42.9z M141,47.5c0.1,0.1,0.1,0.3-0.1,0.3c-0.9-0.1-1.7-0.4-2.6-0.6c-1-0.2-2.1-0.3-3.1-0.5
		c-1.1-0.1-2.2-0.1-3.2-0.1c-0.5,0-1.1,0.3-1.6,0.3c-0.1,0-0.1,0-0.1-0.1c-0.1,0-0.1-0.1,0-0.2c0.9-1.4,3.3-1.5,4.8-1.5
		C137.3,45.2,139.2,46.1,141,47.5z M129.7,45.5c-0.7,0.7-1.4,1.5-2.5,1.3c-0.1,0.2-0.3,0-0.2-0.2c1.3-2.8,4.8-3.6,7.7-3.1
		c0.2,0,0.2,0.3,0,0.3C132.9,43.9,131,44.3,129.7,45.5z M125,45.5c0.7-1.7,2.3-3,3.9-3.8c2.3-1.2,6.4-2.1,8.4,0.1
		c0.1,0.1,0,0.3-0.1,0.3c-2.4-0.4-5.1-0.5-7.3,0.7c-1.8,1.1-3.1,2.7-4.4,4.3c0,0.1,0,0.1-0.1,0.2C124.2,47.7,124.7,46,125,45.5z
		 M119,50.2c0.7-1.5,2.9-1.7,4.4-1.9c2.3-0.4,4.9-1.1,7.1-0.2c0.1,0.1,0.1,0.2,0,0.3c-2.9,0.9-6.3,1.1-8.9,2.7
		c-0.6,0.4-1.7,1.1-2.4,0.5C118.6,51.2,118.7,50.7,119,50.2z"/>
</g>
<g>
	<path class="st2" d="M34.2,84.5c3.1-2.9,6.2-5.8,9.4-8.6c-2.8-0.5-5-1.3-5.9-1.8c-2.5-1.5-4.9-0.8-4.9-0.8s-1.7,0.5-1.3,2.4
		c0.4,2,3.5,4.1,3.5,4.1s-0.6-0.1-1.7-0.8c-1-0.7-1.5-1.1-1.8-0.3c0,0-0.7,0-0.6,1.2c0.2,1.1,0.8,1.9,0.8,1.9s-0.6-0.4-0.6,0.4
		c0,0.8,1.2,1.6,1.6,1.8C32.9,84.1,33.4,84.3,34.2,84.5z"/>
	<path class="st1" d="M34.2,84.5c0,0,0.1-0.1,0.1-0.1c-0.9-0.3-2.2-0.8-2.4-1.7c0-0.1,0-0.1,0.1-0.1c0,0,0,0,0,0c0,0,0,0,0.1,0
		c0.3,0.1,0.5,0.3,0.7,0.5c0.3,0.2,0.6,0.4,0.9,0.5c0.3,0.2,0.7,0.3,1.1,0.5c0.2-0.2,0.4-0.4,0.6-0.6c-0.5-0.2-0.9-0.4-1.3-0.7
		c-0.9-0.5-2-1-2.4-2c-0.1-0.2-0.3-0.7,0.1-0.8c0.3-0.1,0.6,0.3,0.8,0.5c0.3,0.3,0.6,0.6,1,0.9c0.7,0.6,1.6,1.1,2.4,1.6
		c0.4-0.3,0.7-0.7,1.1-1c-0.4-0.1-0.8-0.2-1.1-0.3c-0.9-0.3-1.8-0.6-2.6-1.1c-0.3-0.2-0.9-0.5-0.9-1c0,0,0,0,0,0
		c-0.1-0.2,0-0.4,0.2-0.4c0.4,0,0.8,0.4,1.1,0.6c1.2,0.6,2.5,1,3.8,1.3c0.2,0,0.4,0.1,0.5,0.1c0.2-0.1,0.3-0.3,0.5-0.4
		c-0.4-0.1-0.8-0.1-1.1-0.3c-0.4-0.2-1-0.8-0.2-0.9c0.7-0.1,1.5,0.1,2.1,0.4c0.1-0.1,0.2-0.2,0.4-0.3c-0.3-0.1-0.6-0.1-0.9-0.2
		c-1.5-0.4-3.1-1-4.2-2.2c-0.2-0.2-0.9-1-0.5-1.4c0,0,0,0,0,0c0.4-0.3,1.5,0.8,1.8,1c1.2,0.9,2.6,1.8,4.1,2.4c0,0,0.1,0,0.1,0
		c0.2-0.1,0.3-0.3,0.5-0.4c-1.2-0.5-2.3-1.1-3.3-1.7c-0.5-0.3-0.9-0.6-1.3-0.9c-0.3-0.3-0.6-0.7,0.1-0.7c0.7,0.1,1.4,0.4,2,0.7
		c1.1,0.6,2.2,1.3,3.3,1.9c0.3-0.3,0.7-0.6,1-0.9c-0.8-0.3-1.6-0.6-2.4-0.9c-0.8-0.3-1.6-0.7-2.4-1.1c-0.8-0.4-1.6-0.8-2.6-0.8
		c-0.7,0-1.6,0.2-1.8,1c-0.2,0.8,0.5,1.3,0.5,2.1c-1.2-0.4-2-2-1.3-3.2c0.9-1.4,3.1-0.8,4.3-0.3c2,0.8,3.7,1.8,5.7,2.4
		c0.2,0,0.4,0.1,0.6,0.1c0.2-0.2,0.4-0.3,0.6-0.5c-2.8-0.5-5-1.3-5.9-1.8c-2.5-1.5-4.9-0.8-4.9-0.8s-1.7,0.5-1.3,2.4
		c0.3,1.2,1.5,2.4,2.4,3.2c0,0,0,0,0,0c0,0,0,0,0,0c0.2,0.2,0.4,0.4,0.6,0.5c0,0,0,0,0,0c0,0,0,0,0.1,0.1c0,0,0,0,0,0c0,0,0,0,0.1,0
		c0,0,0,0,0,0c0,0,0,0,0,0c0,0,0,0,0,0c0,0,0,0,0,0c0.1,0.1,0.2,0.1,0.2,0.1s-0.6-0.1-1.7-0.8c-1-0.7-1.5-1.1-1.8-0.3
		c0,0-0.7,0-0.6,1.2c0.2,1.1,0.8,1.9,0.8,1.9s-0.6-0.4-0.6,0.4c0,0.8,1.2,1.6,1.6,1.8C32.9,84.1,33.4,84.3,34.2,84.5z"/>
	<path class="st2" d="M39.9,78.1c0,0-1,1.2-0.9,2.1c0.1,0.9,0.9,1.3,2.6,0.9c0,0-0.3,0.2-0.9,0.5c0.4-0.1,0.8-0.3,1.3-0.5
		c0,0,6.2-3.4,12.3-3.5c6.1-0.1,10.1,0.2,14.2-0.7c0,0,2.9,2.4,7.4,1.1c0.2-0.1,0.4-0.1,0.6-0.2c1.4-1.1,2.8-2.2,4.1-3.3
		c0.5-1,0.9-2,1.4-2.9c1.2-2.3,5.5-8.3,11.4-9.8c0,0-1.3-1.4-4.2-0.7c0,0,0.7-1.1-1-2.3c-1.7-1.2-5.8-0.6-8.7,1.8c0,0,1-3.5,6.1-5.2
		c5.2-1.7,6.1-0.6,6.7-1.6c0.6-1-1.5-2-4.6-1c-3.1,1-9.9,4.6-12.7,10.4c0,0-4.9-2.2-13,1.2c0,0-8.2-3-13.1-2.3
		c-4.9,0.7-5.1,2.3-4.2,2.7c0,0,0.2,0.1,1.6-0.3c1.3-0.5,7.5-1.7,11.1,2.3c0,0-3.5-2-7.1-0.5c-3.5,1.5-5.4,4-6.5,7.3
		c0,0-3.9,0.5-5,2.2C37.6,77.7,38.8,78.3,39.9,78.1z"/>
	<path class="st1" d="M39.9,78.1c0,0-1,1.2-0.9,2.1c0.1,0.9,0.9,1.3,2.6,0.9c0,0-0.3,0.2-0.9,0.5c0.4-0.1,0.8-0.3,1.3-0.5
		c0,0,6.2-3.4,12.3-3.5c6.1-0.1,10.1,0.2,14.2-0.7c0,0,2.9,2.4,7.4,1.1c0.2-0.1,0.4-0.1,0.6-0.2c1.4-1.1,2.8-2.2,4.1-3.3
		c0.5-1,0.9-2,1.4-2.9c1.2-2.3,5.5-8.3,11.4-9.8c0,0-1.3-1.4-4.2-0.7c0,0,0.7-1.1-1-2.3c-1.7-1.2-5.8-0.6-8.7,1.8c0,0,1-3.5,6.1-5.2
		c5.2-1.7,6.1-0.6,6.7-1.6c0.4-0.6-0.4-1.3-1.8-1.4c0.1,0.1,0.1,0.2,0.1,0.3c0.2,0.9-1.1,0.9-1.6,1c-1.9,0.3-3.8,0.8-5.4,1.8
		c-2.7,1.6-4.4,4.1-6.4,6.4c-0.4,0.5-1,1.3-1.7,1.4c-0.2,0-0.3,0-0.4-0.2c0,0,0,0,0,0c0,0-4.9-2.2-13,1.2c0,0-4.6-1.7-9-2.2
		c0.4,0.1,0.8,0.2,1.2,0.3c1.7,0.5,3.3,1.3,4.9,2c1,0.4,2,0.7,3,1.1c0.6,0.2,1.3,0.3,1.8,0.7c0.1,0.1,0.1,0.2,0,0.3
		c-1.9,0.4-3.9-0.3-5.6-1.1c-1.9-0.9-3.9-2-6-2.4c-1.3-0.2-2.5-0.2-3.8,0.1c-0.9,0.2-1.9,0.7-2.8,0.8c-0.4,0-1,0-1.3-0.3
		c-0.4,0.5-0.2,0.9,0.2,1.1c0,0,0.2,0.1,1.6-0.3c1.3-0.5,7.5-1.7,11.1,2.3c0,0-3.5-2-7.1-0.5c-3.5,1.5-5.4,4-6.5,7.3
		c0,0-3.9,0.5-5,2.2C37.6,77.7,38.8,78.3,39.9,78.1z M63,76.7c-2.4,0.2-4.7-0.2-7-0.3c-1.6-0.1-3.2,0.1-4.8,0.3
		c-2.6,0.5-5.2,1.2-7.5,2.6c-0.9,0.5-2.4,1.6-3.5,1.1c-1.3-0.6-0.2-1.8,0.5-2.4c0,0,0.1,0,0.1,0c1.6-1.6,4.2-2.1,6.4-2.5
		c0.9-0.2,1.9-0.3,2.9-0.3c4.4-0.5,8.8,0.2,13,1.3C63.2,76.5,63.1,76.7,63,76.7z M76.5,63.5c1.1-1.1,2.3-2.1,3.5-2.9
		c1.8-1.2,4.2-2.3,6.4-1.5c0.2,0.1,0.1,0.3,0,0.3c-3.6,0.1-6.3,2.5-8.8,4.9c-1,1-3,3.8-4.6,2.5c-0.1,0-0.2-0.2-0.1-0.3
		C74.4,65.8,75.4,64.6,76.5,63.5z M67.7,72.7c1.4-0.4,2.8-0.1,4.2-0.2c0.9,0,1.8-0.4,2.7-0.4c0.5,0,2.2,0.7,1,1.2
		c-0.7,0.3-1.7,0.2-2.4,0.3c-1.5,0.3-2.8,0.4-4.3-0.1c-0.3-0.1-1.4-0.3-1.5-0.6C67.4,72.8,67.5,72.7,67.7,72.7z M64.5,70.7
		c-0.1-0.1,0-0.2,0.1-0.2c0.1-0.6,2.6-0.3,2.8-0.3c1.3,0.1,2.7,0.2,4,0.4c0.7,0.1,1.7,0,2.2,0.6c0.1,0.1,0,0.2-0.1,0.3
		c-2,0.1-4,0.4-6,0.3C66.5,71.7,65.1,71.6,64.5,70.7z M70.6,74.7C70.7,74.7,70.7,74.7,70.6,74.7c0.5-0.3,1-0.2,1.5-0.2
		c0.6,0,1.2-0.1,1.8-0.3c1-0.3,1.9-0.6,2.9-0.7c0.1,0,0.2,0.1,0.2,0.2c-1.1,1.6-3.1,1.9-4.9,1.5C72.1,75.3,70.5,74.9,70.6,74.7z
		 M75.1,70.3c-1.1-0.9-2.2-1.9-3.5-2.6c-1.7-0.9-3.6-1.1-5.4-1.9c-0.1-0.1-0.1-0.3,0.1-0.3c1.1,0.1,2.2,0,3.2,0.3
		c1.7,0.4,3.2,1.4,4.6,2.3c0.5,0.3,5.7,4,4.4,4.6C78,73,77.4,72.5,77,72.1C76.3,71.5,75.8,70.9,75.1,70.3z M69.4,65.1
		c0-0.1,0-0.2,0.1-0.2c0.7,0,1.3-0.1,2,0c0.3,0,1.1,0,1.2,0.5c0.1,0.4-0.5,0.6-0.8,0.6c-0.8,0.1-1.7-0.4-2.4-0.7
		C69.4,65.3,69.4,65.2,69.4,65.1z M77,69.4c-0.1-0.3,0.5-0.9,0.7-1.1c1-0.9,2.1-1.8,3.4-2.2c0.1,0,0.2,0.1,0.2,0.1
		c0,0.6-0.3,1.2-0.6,1.7c-0.4,0.7-0.7,1.8-1.7,2C78.5,70.1,77.1,70.2,77,69.4z M79.3,66.3c-1.2,0.9-2.6,1.8-4.1,1.7
		c-0.1,0-0.2-0.2-0.1-0.3c0.3-0.4,0.7-0.7,1.1-1c0.4-0.4,0.8-0.8,1.2-1.2c1.1-1,2.1-2,3.3-2.9c1.4-1.1,4.2-3.1,5.8-1.1
		c0.1,0.1,0,0.2-0.1,0.3c-2,0.1-3.5,1.9-5.1,3c-0.1,0.1-0.2,0.1-0.3,0.2C80.5,65.4,79.9,65.8,79.3,66.3z M65.5,63.8
		c1.3-0.8,2.9-0.9,4.4-0.9c1.4,0,2.9-0.1,4.3,0.5c0.1,0,0.1,0.1,0.1,0.2c-0.3,1.2-1.9,1.2-2.9,1.2c-1.9-0.1-3.9-0.5-5.8-0.6
		c0,0-0.1,0-0.1,0C65.4,64.1,65.4,63.9,65.5,63.8z M60.5,67.6c0.3-0.6,1.9-0.2,2.4-0.2c1.2,0.1,2.4,0.3,3.7,0.3
		c0.8,0,1.6-0.1,2.4,0.1c0.4,0.1,0.8,0.2,1.2,0.5c0.3,0.2,0.4,0.5,0.1,0.8c-0.4,0.3-1,0.1-1.4,0.1c-2.3-0.2-4.6,0.6-6.9-0.5
		c-0.3-0.2-1.5-0.4-1.5-1C60.4,67.7,60.4,67.6,60.5,67.6z M60.1,68.9c1.5,0.4,2.6,1.3,3.8,2.2c1.3,1,2.7,1.8,4.2,2.6
		c1.4,0.8,2.9,1.9,4.4,2.4c1.1,0.4,2.1,0.4,3.1,0.1c0.6-0.3,1.2-0.7,1.7-1.3c0.7-0.9,1.3-1.8,1.9-2.8c1-1.8,1.8-3.7,3-5.3
		c1-1.4,2.1-2.7,3.6-3.6c1.2-0.7,2.6-1.5,4-1.2c0.1,0,0.1,0.2,0,0.3c-1.8,1-3.6,2-5,3.5c-1.4,1.7-2.4,3.7-3.5,5.6
		c-0.7,1.3-1.4,2.6-2.4,3.8c-0.7,0.8-1.6,1.7-2.7,1.9c-5.8,2.4-12.1-4.7-16.3-7.9c0,0,0,0,0,0c0,0,0,0,0,0
		C59.8,69.1,59.9,68.8,60.1,68.9z M61,73.5c0.1,0.1,0.1,0.3-0.1,0.3c-0.9-0.1-1.7-0.4-2.6-0.6c-1-0.2-2.1-0.3-3.1-0.5
		c-1.1-0.1-2.2-0.1-3.2-0.1c-0.5,0-1.1,0.3-1.6,0.3c-0.1,0-0.1,0-0.1-0.1c-0.1,0-0.1-0.1,0-0.2c0.9-1.4,3.3-1.5,4.8-1.5
		C57.3,71.2,59.2,72.1,61,73.5z M49.7,71.5c-0.7,0.7-1.4,1.5-2.5,1.3c-0.1,0.2-0.3,0-0.2-0.2c1.3-2.8,4.8-3.6,7.7-3.1
		c0.2,0,0.2,0.3,0,0.3C52.9,69.9,51,70.3,49.7,71.5z M45,71.5c0.7-1.7,2.3-3,3.9-3.8c2.3-1.2,6.4-2.1,8.4,0.1c0.1,0.1,0,0.3-0.1,0.3
		c-2.4-0.4-5.1-0.5-7.3,0.7c-1.8,1.1-3.1,2.7-4.4,4.3c0,0.1,0,0.1-0.1,0.2C44.2,73.7,44.7,72,45,71.5z M39,76.2
		c0.7-1.5,2.9-1.7,4.4-1.9c2.3-0.4,4.9-1.1,7.1-0.2c0.1,0.1,0.1,0.2,0,0.3c-2.9,0.9-6.3,1.1-8.9,2.7c-0.6,0.4-1.7,1.1-2.4,0.5
		C38.6,77.2,38.7,76.7,39,76.2z"/>
</g>
<path class="st3" d="M37.3,26.6l54-58c0,0,0.8,2.1-2,16c-5,25-22.9,24.9-41,57c-5.4,9.6-36.7,20.8-30.9,27.9
	c5.9,7.1-32.3,12.2-23.7,0.1S37.3,26.6,37.3,26.6z"/>
<g>
	<g>
		<path class="st4" d="M191.9,174c-3.8,21.2-50.2,30.7-103.7,21.3c-53.5-9.5-93.9-34.4-90.1-55.6c3.8-21.2,50.2-30.7,103.7-21.3
			C155.3,127.9,195.7,152.8,191.9,174z"/>
		<path class="st5" d="M192.3,172c-3.8,21.2-50.2,30.7-103.7,21.3C35,183.8-5.4,158.9-1.6,137.7s50.2-30.7,103.7-21.3
			C155.7,125.9,196,150.8,192.3,172z"/>
		<path class="st6" d="M162.2,162.6c-2.6,14.5-34.2,21-70.8,14.5c-36.5-6.5-64-23.4-61.5-37.9c2.6-14.5,34.2-21,70.8-14.5
			C137.2,131.2,164.7,148.2,162.2,162.6z"/>
		<path class="st5" d="M159.8,162.7c-2.4,13.7-33,19.8-68.2,13.6c-35.2-6.2-61.8-22.4-59.4-36.2s33-19.8,68.2-13.6
			C135.6,132.8,162.2,149,159.8,162.7z"/>
	</g>
</g>
<g>
	<g>
		<path class="st0" d="M169.5,56.6c0,0,15.5,4.4,17.5,16c2,11.6,0.6,15.1,0.6,15.1s0.7,1.8,2.4,1.4c1.6-0.5,2-1.6,2.4-5.6
			c0.5-4.1,0.3-25.7-22.8-29.7L169.5,56.6z"/>
		<path class="st0" d="M159.8,51.6c0,0,17.3,0.6,25.6,9c8.3,8.4,9.1,12,9.1,12s1.6,1.1,2.7-0.2c1.1-1.3,0.7-2.4-1.2-6
			c-1.9-3.6-17.7-25.5-39-15.6L159.8,51.6z"/>
	</g>
	<g>
		<path class="st1" d="M192.5,83.4c0.5-4.1,0.3-25.7-22.8-29.7l-0.2,2.8c0,0,15.5,4.4,17.5,16c2,11.6,0.6,15.1,0.6,15.1
			s0.7,1.8,2.4,1.4C191.7,88.6,192,87.5,192.5,83.4z M190.2,86.5c-0.7,0.5-1.3-0.3-1.4-1c-0.4-2,0.1-4,0-6c0-1.5,0-3-0.2-4.5
			c-0.4-2.2-1.2-4.4-2.3-6.3c-2.5-4.3-6.3-7.4-10.6-9.9c-0.7-0.3-1.6-0.5-2.2-1c-0.5-0.5,0.4-1.1,0.8-1.1c1.3,0,2.6,0.5,3.8,1
			c1,0.4,2.1,0.8,2.9,1.4c1.8,1.3,3.3,2.8,4.6,4.5c4.2,5,5.8,12.6,5.7,18.9C191.4,83.8,191.3,85.7,190.2,86.5z"/>
		<path class="st1" d="M196.1,66.4c-1.9-3.6-17.7-25.5-39-15.6l2.7,0.9c0,0,17.3,0.6,25.6,9c8.3,8.4,9.1,12,9.1,12s1.6,1.1,2.7-0.2
			C198.4,71.1,198,70,196.1,66.4z M194.8,70.9c-0.8-1-1.3-2.2-1.9-3.2c-0.8-1.2-1.7-2.4-2.7-3.5c-2.2-2.3-4.5-4.7-7.1-6.6
			c-2-1.5-4.2-2.6-6.5-3.5c-0.7-0.3-1.5-0.6-2.1-1.1c-1-0.6-1.9-1.3-1.1-1.9c1-0.6,2.2,0.1,3.1,0.4c1.8,0.8,3.5,1.7,5.1,2.8
			c3.4,2.3,6.8,4.8,9.5,8c1.9,2.3,4.3,5.4,4.2,8.5C195.3,71,194.9,71,194.8,70.9z"/>
	</g>
	<g>
		<g>
			<path class="st0" d="M58.5,91.2c-9.7,0-17.3-4.1-15.4-10.4c0.5-1.8,1.5-3.2,2.5-4.3l-1.3-0.6c-0.6,0.2-1.1,0.4-1.7,0.6
				c-1.6,1.2-3.1,3.1-3.2,6.1c-0.2,6,6.6,10.8,18.1,10.8c6.5,0,12.8-1.5,17.2-2.8l-3.7-1.8C67.4,90,63,91.2,58.5,91.2z"/>
			<path class="st0" d="M105.1,109.5c-13.2-7.2-10.8-9-21.7-12.8c-10.9-3.8-24.5,1.4-34.8,1.3c-10.3-0.2-14.9-4.6-14.4-12.1
				c0.2-3.2,2.1-5.9,4.3-7.9c-2.4,0.9-4.8,1.8-7.2,2.7c-0.5,1-0.9,2.2-1.1,3.5c-1.3,8.7,5.2,15.4,16.8,16.8
				c11.7,1.4,24.9-5.8,35-1.6c10.1,4.3,14.9,14.6,38,19.5c23.1,4.9,43-1.5,45.6-6.6l-6.5-1C148.6,122.6,117.8,116.5,105.1,109.5z"/>
		</g>
	</g>
	<g>
		<g>
			<path class="st1" d="M58.5,91.2c-9.7,0-17.3-4.1-15.4-10.4c0.5-1.8,1.5-3.2,2.5-4.3l-1.3-0.6c-0.6,0.2-1.1,0.4-1.7,0.6
				c-1.6,1.2-3.1,3.1-3.2,6.1c-0.2,6,6.6,10.8,18.1,10.8c6.5,0,12.8-1.5,17.2-2.8l-3.7-1.8C67.4,90,63,91.2,58.5,91.2z M47.7,91.2
				c-2-0.3-3.8-1.5-5.1-3c-0.8-0.7-1.4-1.4-2-2.3c-1-1.8-1.2-4.8-0.1-6.6c0.4-0.6,0.9-0.5,1.3,0c0.5,0.7,0.3,2.1,0.3,2.8
				c0.2,3.7,3.3,6.3,5.8,8.6C48.1,90.9,48,91.3,47.7,91.2z"/>
			<path class="st1" d="M105.1,109.5c-13.2-7.2-10.8-9-21.7-12.8c-10.9-3.8-24.5,1.4-34.8,1.3c-10.3-0.2-14.9-4.6-14.4-12.1
				c0.2-3.2,2.1-5.9,4.3-7.9c-0.7,0.3-1.4,0.5-2.1,0.8c-1.9,2.1-3.1,5.6-3.1,8.4c0,3.4,1.7,6.6,4.6,8.5c1.6,1.1,3.6,1.8,5.4,2.4
				c2.5,0.7,5.2,0.8,7.8,0.7c1.4,0,2.7-0.1,4.1-0.1c0.6,0,1.5,0.1,1.3,0.6c0,0.1-0.1,0.2-0.2,0.3c-0.7,0.7-2.4,0.6-3.3,0.8
				c-3,0.5-6.1,0.3-9.1-0.4c-5.3-1.2-11.6-5.1-12.4-11c-0.2-1.7-0.2-3.8,0.2-5.4c0.3-1.1,0.7-2.3,1.2-3.4c-0.5,0.2-0.9,0.3-1.4,0.5
				c-0.5,1-0.9,2.2-1.1,3.5c-1.3,8.7,5.2,15.4,16.8,16.8c11.7,1.4,24.9-5.8,35-1.6c10.1,4.3,14.9,14.6,38,19.5
				c23.1,4.9,43-1.5,45.6-6.6l-6.5-1C148.6,122.6,117.8,116.5,105.1,109.5z M136.9,119.9c-1.5,0.7-3.3,0.4-4.9,0.2
				c-2.4-0.4-4.9-0.4-7.3-0.8c-5.9-0.9-11.7-2.4-17.1-4.8c-3.9-1.8-7.9-3.7-11.6-5.9c-1.3-0.8-4-2.1-5-3.9c-0.6-0.4-1.1-1-1.3-1.6
				c-0.4-1.1,1.4-1,1.9-0.8c2.2,0.7,4,2.5,5.8,3.9c2.7,2.2,6,3.9,9.2,5.4c3.4,1.6,7,3.1,10.7,4.1c3.6,1,7.3,1.5,11,2.1
				c2.8,0.5,6.1,0.3,8.7,1.6C137.1,119.5,137.1,119.8,136.9,119.9z"/>
		</g>
	</g>
	<path class="st2" d="M186.4,68.3c-0.2-4.2-6.6-9.9-20.2-5.9c0,0,0.2-0.1,0.5-0.3c-14.9,3.9-26.3,14.6-26.3,14.6
		c-21.9,5.3-44.2-3.8-59.5-13.4c-13.6,4.3-27.1,8.9-40.5,13.8c7.6,6.2,21.5,16,35.7,19.3c0,0,27.1,11.4,41.5,12.9c0,0,1,2.7,5,2.9
		c0,0-0.3,2.2,8,3c8.3,0.7,12.6-0.8,12.6-0.8s23.2,0.6,31.2-4c8-4.6,3.2-13.1,3.2-13.1s6.9-6.8,5-12.1c0,0,1.3-1.2,0.6-3.8
		c0,0,0.8-2.3,0.3-2.8c0,0,1-3,0-3.6C183.3,75.2,186.6,72.5,186.4,68.3z"/>
	<path class="st1" d="M186.4,68.3c-0.1-2.2-2-4.9-5.8-6.3c2.4,1.3,5.4,3.8,3.2,6.5c-0.2,0.2-0.5,0.1-0.5-0.1c-0.7-4-6.5-4.4-9.6-4.1
		c-3.4,0.3-6.9,1.2-10.2,2.3c-6.5,2.3-12.5,5.9-17.6,10.7c-1.5,1.4-2.7,3.2-4.1,4.6c-0.7,0.7-2,2.3-3,1.2c-0.9-1,0.1-3.3,0.6-4.3
		c0.5-0.9,1-1.8,1.7-2.6c-0.4,0.3-0.6,0.5-0.6,0.5c-4.6,1.1-9.3,1.6-13.9,1.5c-0.3,0-0.6,0-0.9,0c-0.2,0-0.4,0-0.5,0
		c-0.3,0-0.6,0-0.9,0c-0.2,0-0.4,0-0.6,0c-0.3,0-0.5,0-0.8,0c-0.2,0-0.4,0-0.7,0c-0.2,0-0.5,0-0.7-0.1c-0.2,0-0.5,0-0.7-0.1
		c-0.2,0-0.4,0-0.7-0.1c-0.3,0-0.5-0.1-0.8-0.1c-0.2,0-0.4,0-0.6-0.1c-0.3,0-0.6-0.1-0.8-0.1c-13.9-2-26.9-8-36.9-14.3
		c-0.9,0.3-1.8,0.6-2.7,0.8c1.9,1.3,3.8,2.5,5.9,3.6c1.8,1,3.6,2,5.3,3c1.1,0.6,4.3,2,4.5,3.2c0.1,0.4-6.9-1.3-7.5-1.5
		c-2.7-1-5.2-2.4-7.6-3.9c-1.5-1-2.9-2-4.3-3.2c-1.7,0.5-3.4,1.1-5,1.6c1.1,1.3,2.2,2.7,3.4,3.9c1.2,1.2,2.4,2.5,3.7,3.5
		c1.2,0.9,5.2,3.9,3.5,3.2c-0.4,0.3-1.4-0.4-2.1-0.7c-1-0.5-1.8-1.1-2.7-1.7c-3.1-2.1-5.9-4.6-8.7-7.2c-0.6,0.2-1.2,0.4-1.8,0.6
		c0.3,0.3,0.6,0.5,0.9,0.8c0.3,0.2-0.1,0.6-0.4,0.4c-0.5-0.3-0.9-0.6-1.4-0.9c-0.7,0.2-1.5,0.5-2.2,0.7c1.3,1.1,2.6,2,4,2.9
		c0.9,0.6,1.7,1.1,2.6,1.7c0.7,0.5,2.1,1.9,2.9,2c0,0,0.6,0.8,0.6,0.8c-1.9-0.3-5.1-1.9-6.8-2.7c-2.1-1-4.1-2.4-6.1-3.6
		c-0.7,0.2-1.3,0.5-2,0.7c3.2,1.8,6.5,3.4,9.8,5c5.4,2.5,10.7,5.1,16.5,6.7c5.2,1.5,10.5,2.6,15.8,3.5c0.4,0.1,0.3,0.6-0.1,0.6
		c-9.2,0.1-15.7-2.2-23.3-4.6c-1.3-0.4-2.6-0.9-3.8-1.4c0,0-0.1,0-0.1,0c-6.4-2.2-13.2-4.6-19.1-8.3c-1.8,0.6-3.7,1.3-5.5,2
		c1.8,2,3.7,3.9,5.8,5.6c2.1,1.4,4,3,6.2,4.4c6.1,3.8,12.5,6.7,18.9,9.9c0.9,0.5,3.5,1.3,4,2.3c0.1,0.2,0.1,0.3,0.1,0.3
		c-0.1,0.2-1-0.1-1.4-0.3c-3.8-1.1-7.4-3-11-4.8c-3.2-1.6-5.7-2.5-8.8-4.4c-5.5-3.3-9.3-6.6-13.5-10c-0.8-0.8-1.6-1.5-2.3-2.3
		c-0.9,0.3-1.8,0.6-2.7,1c0,0,0,0,0,0c2,2,4,3.9,6.3,5.6c1.6,1,3.3,2,5,2.9c0.3,0.2,0.1,0.7-0.2,0.5c-1.8-0.8-3.5-1.8-5-2.9
		c-2.7-1.7-5.3-3.4-7.7-5.5c-0.1,0.1-0.3,0.1-0.4,0.2c7.6,6.2,21.5,16,35.7,19.3c0,0,27.1,11.4,41.5,12.9c0,0,1,2.7,5,2.9
		c0,0-0.3,2.2,8,3c8.3,0.7,12.6-0.8,12.6-0.8s23.2,0.6,31.2-4c8-4.6,3.2-13.1,3.2-13.1s6.9-6.8,5-12.1c0,0,1.3-1.2,0.6-3.8
		c0,0,0.8-2.3,0.3-2.8c0,0,1-3,0-3.6C183.3,75.2,186.6,72.5,186.4,68.3z M169.3,68c3-1.7,13.6-1.5,10.5,4.2
		c-0.1,0.2-0.4,0.2-0.5,0.1c-2-2.7-5.1-3.1-8.1-3.5c-0.6-0.1-1.2-0.1-1.8-0.2C169.2,68.5,169.1,68.2,169.3,68z M152.9,78.2
		c4.1-4.5,9.6-8.7,15.9-8.6c0,0,0,0,0.1,0c2.2-0.2,4.4,0.2,6.3,1.3c2,1.2,2.9,4,1,5.7c-0.1,0.1-0.3,0.1-0.4-0.1
		c-2.6-3.6-7.3-3.9-11.4-3c-4,0.9-7.9,2.6-11.1,5.1C153,78.8,152.7,78.5,152.9,78.2z M152,81.9c2.3-3.4,6.9-6,10.9-6.6
		c0.1,0,0.1,0,0.2,0c1.6-0.4,3.2-0.6,4.8-0.3c1.7,0.3,4.2,0.8,4.7,2.8c0,0.2,0,0.4-0.2,0.4c-3.6,0.1-7.2-0.4-10.7,0.5
		c-3.3,0.8-6.4,2.1-9.3,3.7C152.1,82.5,151.9,82.1,152,81.9z M109.7,78.2c1.2-0.1,5.8,1.1,6.3,1.2c2.5,0.3,5,0.4,7.5,0.4
		c2.1,0,4.1-0.2,6.2-0.5c1.2-0.2,4.1-1.2,5,0.1c1,1.4-1.9,2.5-2.9,2.8c-3.6,1.1-7.3,1.2-10.9,0.7c-3.3-0.4-7.7-0.5-10.5-2.8
		C110.1,79.9,108.7,78.3,109.7,78.2z M97.8,79.2c2.5,0.5,4.8,1.7,7.2,2.5c2.9,0.9,5.8,1.8,8.7,2.2c5.6,0.8,13.4,1.2,19.8,1.1
		c0.3,0-2.4,0.9-2.7,0.9c-0.2,0-0.3,0-0.5,0.1c5.2-0.4,10.4-0.9,15.6-1.6c9.8-1.3,20-1.8,29-6.2c1.2-0.6,4.7-2.9,5.8-1.1
		c2.6,3.9-15.7,7.5-18.2,7.9c-4.3,0.8-8.7,1.5-13,2c-7,0.9-14,1.2-21,1.4c-3.4,0.1-6.8,0.1-10.3,0c-2.9,0-10.5-0.6-8.6-1.8
		c1.5-0.2,5.6,0.2,7.6,0.2c2.9,0,5.8-0.2,8.6-0.5c-8.4,0.1-19.5-0.3-26.7-5.2c-0.1-0.1-0.1-0.2-0.1-0.3c-0.5-0.3-1-0.6-1.4-1
		C97.3,79.5,97.5,79.2,97.8,79.2z M166.3,90c-1.9,1.4-4.6,1.9-6.8,2.5c-2.6,0.7-5.2,1.3-7.9,1.7c-5.7,0.8-11.3,1.3-17,1.3
		c-5.1,0-10.3,0.2-15.3-0.2c-4.6-0.3-9.2-1.1-13.3-3.3c-1-0.4-2-1-2.8-1.9c-0.2-0.2,0.1-0.5,0.3-0.4c2.5,0.2,4.9,0.8,7.4,1.2
		c2.7,0.4,5.4,0.5,8.1,0.7c5.7,0.3,11.4,0.6,17.1,0.5c5.5-0.1,11-0.4,16.5-0.9c4.6-0.5,9-1.9,13.7-1.6
		C166.4,89.5,166.4,89.9,166.3,90z M90.6,81.9c-2-0.9-3.9-2.1-5.6-3.4c-3.4-1.8-6.7-4.7-8.4-8.2c-0.1-0.3,0.2-0.5,0.4-0.3
		c7.6,7.4,18,10.3,27.4,14.6c0.2,0.1,0.2,0.5-0.1,0.5C99.8,85.1,94.8,83.8,90.6,81.9z M63.2,84.5c-2.8-1.5-5.7-3.1-8.1-5.2
		c-0.1,0-0.1,0-0.2-0.1c-1.4-1.2-3.4-2.7-3.1-4.7c0-0.2,0.2-0.3,0.4-0.2c1.9,1.1,3.2,2.9,4.8,4.4c2.1,1.9,4.4,3.5,6.5,5.3
		C63.8,84.2,63.5,84.7,63.2,84.5z M78.5,89.8c-2.9-1.2-5.7-2.5-8.4-4c-0.1,0.1-0.2,0.2-0.3,0.1c-3.5-2-7.1-4-10.1-6.7
		c-0.2-0.2,0-0.6,0.3-0.5c3.1,1.6,6,3.2,9.3,4.3c5.9,2,11.7,4.5,17.4,7.2c2.1,1,4.5,1.6,6.6,2.6c1,0.5,6.2,3.2,2.3,2.9
		c-2.5-0.2-4.8-1.2-7.1-2C84.9,92.5,81.7,91.1,78.5,89.8z M116.9,106.8c-1.9,0.1-3.8,0-5.7-0.3c-3.5-0.3-7-1.4-10.3-2.4
		c-3.1-0.9-6.2-2-9.1-3.5c-0.9-0.4-1.7-0.9-2.5-1.4c0,0,0,0,0,0c0,0-0.1-0.1-0.1-0.1c-0.2-0.2,0-0.5,0.2-0.5c4.7,0.9,9.1,3,13.7,4.3
		c4.6,1.3,9.3,2.1,13.9,3.4C117.2,106.3,117.3,106.8,116.9,106.8z M105.5,101.3c-3.7-0.8-7.8-1.6-10.9-4c-0.3-0.2,0-0.6,0.3-0.5
		c4.2,1.5,9,1.4,13.3,1.9c4.4,0.4,8.8,0.7,13.2,0.9c5.2,0.2,10.4,0.5,15.6,0.5c4.2-0.1,8.4-0.4,12.6-0.7c0.3,0,0.4,0.4,0.1,0.5
		c-4.4,1.6-8.9,2.9-13.6,3.5c-4.8,0.7-9.6,0.6-14.4,0.2C116.4,103.2,110.9,102.5,105.5,101.3z M139.9,112.2
		c-2.4,0.4-4.9,0.7-7.4,0.9c-0.9,0.1-2.1,0.2-3.1,0c-1.5,0.1-3-0.1-4.2-1.1c-0.2-0.2-0.1-0.5,0.1-0.5c9.3-1.2,18.7-3.1,27.5-6.5
		c4.2-1.6,8.2-3.6,12.2-5.7c2.8-1.5,5.7-3,8.3-4.9c0-0.1,0-0.2,0.1-0.2c1.3-1,2.4-2.1,3.7-3c0.3-0.2,0.6,0.1,0.4,0.4c0,0,0,0,0,0
		c0,0,0,0,0,0c0.4,1.4-0.7,2.8-1.5,3.8c-1.2,1.5-2.7,2.8-4.2,4c-4.4,3.5-9.6,6.2-14.8,8.3C151.5,109.9,145.7,111.4,139.9,112.2z
		 M171.1,109.6c-3.1,1.2-6.3,1.7-9.6,2.1c-2,0.2-4.8,1-6.6-0.2c-0.2-0.2-0.1-0.5,0.1-0.5c4.4-1,9-1.5,13.3-3.1c1.4-0.6,3-1,4.2-2
		c0.6-0.5,1.2-1.1,1.4-1.8c0.3-0.9,0-1.9,0.3-2.8c0.2-0.6,0.6-1,1.1-1.5c0.1-0.1,0.3-0.2,0.4,0C179.6,103.3,174.6,108.2,171.1,109.6
		z M180.3,87.1c-1.8,3.1-5.3,4.5-8.1,6.5c-1.9,1.4-4.8,2.7-6.9,3.9c-5.1,3.1-10.6,5.6-16.3,7.4c-5.9,2-11.9,3.7-18.1,4.6
		c-2.1,0.3-4.3,0.8-6.4,0.9c-1.7,0.1-3.5,0.2-4.9-0.8c-0.2-0.1-0.1-0.5,0.1-0.5c5.3-0.6,10.7-0.7,15.9-2c5-1.2,9.9-3.1,14.6-5
		c6.6-2.7,13.6-5.5,19.6-9.4c2.8-1.8,5.7-4.4,8.1-6.7c0.6-0.6,1.9-2.5,2.9-2.2c0.2,0,0.3,0.2,0.3,0.3
		C181,85.2,180.8,86.2,180.3,87.1z"/>
	<path class="st0" d="M168.4,38.2c0,0,0.5,0,1.1-0.6c-23.9,6.7-47.9,13.3-71.7,20.5c-5.6,1.7-11.2,3.4-16.8,5.2
		c15.3,9.6,37.6,18.7,59.5,13.4c0,0,11.4-10.7,26.3-14.6c1.6-1,6.2-4.2,5.3-8.2c-1-4.4-2.6-4.8-2.9-4.9c0.7,0.1,7.3,0.8,9.1-0.3
		c1.9-1.1,1.2-3.1,0.5-3.9c0,0,3.6-0.4,3-2.1C181.1,41.1,177.1,38.7,168.4,38.2z"/>
	<path class="st1" d="M168.4,38.2c0,0,0.5,0,1.1-0.6c-1,0.3-2.1,0.6-3.1,0.9c0.3,0,0.7,0,1,0c0.3,0,0.6,0,0.9,0c0.1,0,0.1,0,0.2,0.1
		c1.2,0.1,2.4,0.2,3.5,0.5c1.6,0.3,3.7,0.8,4.4,2.5c0.1,0.2,0,0.4-0.2,0.4c-3.1,0.2-6.1-0.4-9.2-0.5c-3.5-0.2-7.1-0.2-10.6,0
		c-0.1,0-0.2,0-0.3,0c-5.4,1.5-10.9,3.1-16.3,4.6c2.6-0.4,5.3-0.7,7.9-0.9c3-0.2,6.1-0.3,9.1-0.5c1.4-0.1,2.8-0.2,4.2-0.2
		c0,0,0.1,0,0.1,0c3.1,0,6.2-0.2,9.4,0c1.3,0.1,2.7,0.2,4,0.5c0.5,0.1,1.2,0.3,1.5,0.6c1.2,1.7-6.6,1.5-7.4,1.5
		c-3.1,0-6.2,0.3-9.2,0.4c-3,0.1-6,0.2-9,0.3c-3.2,0.1-6.4,0.1-9.6,0.3c-2.6,0.1-5.3,0.2-8-0.1c-5.1,1.5-10.3,2.9-15.4,4.4
		c0.9,0.7,1.8,1.2,2.8,1.7c1.4,0.7,2.6,1.6,4,2.3c4.2,2,8.8,3.1,13.3,4.1c4.1,0.9,8.2,1.5,12.5,1.1c3.4-0.3,6.7-1.1,10-2
		c0.5-0.3,1-0.5,1.4-0.8c1.7-1,3.4-2.3,4.6-3.9c0,0,0-0.1,0-0.1c0.6-1.1,0.9-2.4,1.7-3.5c0.1-0.1,0.3-0.1,0.4,0
		c1.3,1.3,1.1,3.5,0.3,5c-1,2.1-2.8,3.5-4.7,4.6c-2.3,1.3-4.6,2.2-7.1,2.8c-2.3,0.5-4.8,1.2-7.1,0.9c-0.3,0-0.7,0-1,0
		c-6.2,0.1-12.8-1.1-18.7-3.1c-5.2-1.8-11.4-3.6-15.4-7.6c-0.1-0.1-0.2-0.2-0.3-0.3c-2.4,0.7-4.7,1.4-7,2.1c2.4,1.9,4.7,3.9,7.1,5.6
		c2.1,1.6,4.3,3.1,6.5,4.6c1.5,0.8,3.1,1.7,4.7,2.3c1.8,0.7,3.5,1.4,5.2,2.4c0.2,0.1,0.2,0.5-0.1,0.5c-8.4-0.1-15.8-5.3-21.2-11.2
		c-1.2-1.3-2.4-2.7-3.8-3.8c0,0,0,0,0,0c-0.6,0.2-1.3,0.4-1.9,0.6c0.3,0.3,0.7,0.6,1,0.9c3.8,3.4,6.8,8.9,4.4,14.1
		c-0.6,1.2-0.5,2.4-2.1,2c-2.1-0.5-1.4-4.8-1.5-6.5c-0.4-4.5-2.1-7.2-5.2-9.5c-0.6,0.2-1.2,0.3-1.8,0.5c-0.8,0.2-1.5,0.5-2.3,0.7
		c3.3,3.1,6.2,7.7,2,11.1c-0.2,0.2-0.5,0-0.4-0.3c0.4-4.4-1.5-7.6-4.4-9.9c-0.6,0.2-1.3,0.4-1.9,0.6c0.6,0.7,1.2,1.5,1.5,2.3
		c0.1,0.2-0.2,0.5-0.4,0.4c-1.2-0.6-2.4-1.3-3.6-1.9c-0.8,0.3-1.7,0.5-2.5,0.8c2.4,1.5,5,2.8,7.4,4.3c0,0,0,0,0.1,0
		c0.3,0.2,0,0.6-0.3,0.5c-3-1-7.1-1.9-10.4-3.8c-0.5,0.2-1,0.3-1.5,0.5c15.3,9.6,37.6,18.7,59.5,13.4c0,0,11.4-10.7,26.3-14.6
		c1.6-1,6.2-4.2,5.3-8.2c-1-4.4-2.6-4.8-2.9-4.9c0.7,0.1,7.3,0.8,9.1-0.3c1.9-1.1,1.2-3.1,0.5-3.9c0,0,3.6-0.4,3-2.1
		C181.1,41.1,177.1,38.7,168.4,38.2z M136.4,51.8c0,0,0.1-0.1,0.1,0c3.8,1,7.3,0.7,11.3,0.3c2-0.2,4.2-1.1,6.6-1.9
		c0.6-0.2,1.5,0.1,1.2,1.3c-0.5,1.5-2.1,2.3-3,2.6c-1.6,0.7-3.2,1-4.9,1.1c-2.2,0.1-4.4-0.2-6.4-0.8c-1.6-0.5-3.4-0.8-4.9-2
		C136.1,52.2,136.2,51.8,136.4,51.8z M160.4,55.9c-2.5,2.5-6.7,2.9-10.1,3.1c-5.5,0.3-11-0.5-16.3-1.7c-2.6-0.6-5.3-1.2-7.8-2.2
		c-1.2-0.4-2.7-0.9-3.3-2.2c-0.1-0.3,0.2-0.4,0.4-0.4c2.2,0.7,4.4,1.6,6.6,2.2c1.9,0.5,4,0.8,5.9,1c3.4,0.4,6.8,0.8,10.1,0.9
		c5.1,0.2,11.2-0.4,14.6-4.6c0.4-1,1.1-1.7,1.7-0.4C162.9,53,161.2,55.1,160.4,55.9z M112.6,66c2.9,1.9,5.8,3.7,9,4.9
		c2.5,0.8,5.1,1.6,7.6,2.7c0.2,0.1,0.2,0.5-0.1,0.5c-5.8,0.1-14.8-1.4-16.9-7.7C112,66.1,112.3,65.9,112.6,66z M134.8,76.8
		c-1.1,1.2-4.6,0.8-6.1,0.8c-2.4,0-4.8-0.2-7.2-0.4c-3.6-0.3-8.4-0.4-11-3.3c-0.1-0.1-0.1-0.2,0-0.3c1.3-2.1,5.6-0.3,7.3,0.3
		c3.5,1.1,7.3,1.5,11,1.7c1.3,0.1,2.7,0.2,4,0.3c0.8,0,2.3-0.2,2.3,0.5C135.1,76.4,135,76.6,134.8,76.8z M152,66.5
		c-1.6,0.9-3.3,1.8-5,2.2c-1.7,0.4-3.3,0.4-5,0.3c-4.2-0.3-8.3-1-12.3-2.5c-4-1.5-7.8-3.4-11.4-5.6c-2.3-1.4-5.4-2.4-7-4.7
		c-0.2-0.2,0.1-0.5,0.3-0.4c2.3,0.9,4.3,2.1,6.5,3.2c0.2,0.1,0.2,0.3,0.1,0.4c4.5,2.2,9.2,3.9,14,5.3c6.3,1.7,13.1,2.7,19.6,1.2
		C152.2,65.9,152.3,66.3,152,66.5z"/>
	<path class="st7" d="M169,49.1C169,49,169,49,169,49.1C169,49,169,49,169,49.1z"/>
</g>
<g>
	<g>
		<g>
			<polygon class="st8" points="134.3,66.8 132.5,68.2 133.7,69.2 135.2,67.6 			"/>
			<polygon class="st8" points="112.3,73.1 110.3,73.4 110.3,74.5 112.2,74.2 			"/>
			<polygon class="st8" points="126.6,88.6 127,86.6 125.8,86.3 125.6,88.1 			"/>
		</g>
		<g>
			<polygon class="st8" points="95.4,76.9 93.5,78.4 94.7,79.3 96.3,77.8 			"/>
			<polygon class="st8" points="73.4,83.3 71.4,83.5 71.4,84.7 73.2,84.4 			"/>
			<polygon class="st8" points="87.6,98.7 88,96.7 86.9,96.4 86.6,98.2 			"/>
		</g>
		<g>
			<polygon class="st8" points="63.2,72.6 61.3,74 62.5,75 64.1,73.4 			"/>
			<polygon class="st8" points="41.2,78.9 39.2,79.1 39.2,80.3 41,80 			"/>
			<polygon class="st8" points="55.4,94.4 55.8,92.4 54.7,92 54.4,93.9 			"/>
		</g>
		<g>
			<polygon class="st8" points="150,93.8 148.2,95.2 149.3,96.1 150.9,94.6 			"/>
			<polygon class="st8" points="128,100.1 126,100.3 126,101.5 127.9,101.2 			"/>
			<polygon class="st8" points="142.3,115.6 142.7,113.5 141.5,113.2 141.3,115.1 			"/>
		</g>
		<g>
			<polygon class="st8" points="191.9,87.9 190.1,89.3 191.3,90.3 192.8,88.7 			"/>
			<polygon class="st8" points="170,94.2 167.9,94.4 167.9,95.6 169.8,95.3 			"/>
			<polygon class="st8" points="184.2,109.7 184.6,107.7 183.5,107.3 183.2,109.2 			"/>
		</g>
		<g>
			<polygon class="st8" points="175.2,53.6 173.5,54.9 174.6,55.7 176.1,54.3 			"/>
			<polygon class="st8" points="155.2,59.3 153.3,59.6 153.3,60.6 155,60.3 			"/>
			<polygon class="st8" points="168.2,73.5 168.5,71.6 167.5,71.3 167.3,73 			"/>
		</g>
		<g>
			<polygon class="st8" points="109.4,57.9 109.8,56.1 108.7,55.8 108.5,57.5 			"/>
		</g>
	</g>
</g>
<g>
	<g>
		<path class="st9" d="M127.6,73.7c-1.1-0.2-2.1,0.2-3,0.9c-0.1,0.1-0.1,0.1-0.1,0.2c-0.1,0.1-0.1,0.2-0.1,0.4
			c0,0.4,0.5,0.5,0.8,0.4c0.2-0.1,0.5-0.2,0.7-0.3c0.3-0.2,0.7-0.1,1-0.1c0.5,0,1,0,1.3-0.5C128.5,74.1,128,73.8,127.6,73.7z"/>
		<path class="st9" d="M133.9,81.5c1.1,0.1,2.1-0.5,2.9-1.3c0.1-0.1,0.1-0.2,0-0.2c0-0.1,0.1-0.2,0-0.4c-0.1-0.4-0.6-0.4-0.9-0.3
			c-0.2,0.1-0.4,0.2-0.6,0.4c-0.3,0.2-0.7,0.2-1,0.3c-0.5,0.1-1,0.1-1.2,0.7C133,81.2,133.5,81.4,133.9,81.5z"/>
		<path class="st9" d="M135.5,73.1c-0.2,0.9,0,1.7,0.5,2.4c0,0.1,0.1,0.1,0.2,0.1c0.1,0,0.2,0.1,0.3,0.1c0.3,0,0.4-0.4,0.4-0.6
			c0-0.2-0.1-0.4-0.2-0.5c-0.1-0.2-0.1-0.5-0.1-0.8c0-0.4,0.1-0.8-0.3-1C135.9,72.4,135.6,72.7,135.5,73.1z"/>
		<path class="st9" d="M127.2,84.1c0.9,0,1.6-0.4,2.2-1c0,0,0.1-0.1,0-0.2c0-0.1,0-0.2,0-0.3c0-0.3-0.5-0.3-0.7-0.2
			c-0.2,0.1-0.3,0.2-0.5,0.3c-0.2,0.2-0.5,0.2-0.8,0.2c-0.4,0.1-0.8,0.1-0.9,0.5C126.5,83.9,126.9,84.1,127.2,84.1z"/>
	</g>
	<g>
		<path class="st9" d="M95.8,81.3c-1.2-0.2-2.3,0.2-3.3,0.9c-0.1,0.1-0.1,0.2-0.1,0.2c-0.1,0.1-0.1,0.2-0.1,0.4
			c0,0.4,0.6,0.5,0.9,0.5c0.3-0.1,0.5-0.2,0.7-0.3c0.3-0.2,0.7-0.2,1.1-0.2c0.5,0,1.1,0,1.4-0.6C96.8,81.7,96.3,81.4,95.8,81.3z"/>
		<path class="st9" d="M102.8,89.7c1.2,0.1,2.3-0.6,3.1-1.4c0.1-0.1,0.1-0.2,0-0.2c0-0.1,0.1-0.3,0-0.4c-0.1-0.4-0.6-0.5-0.9-0.3
			c-0.3,0.1-0.5,0.3-0.7,0.4c-0.3,0.2-0.7,0.3-1.1,0.3c-0.5,0.1-1.1,0.1-1.3,0.7C101.7,89.4,102.3,89.7,102.8,89.7z"/>
		<path class="st9" d="M104.5,80.5c-0.3,0.9,0,1.8,0.5,2.6c0,0.1,0.1,0.1,0.2,0.1c0.1,0.1,0.2,0.1,0.3,0.1c0.3,0,0.5-0.4,0.4-0.7
			c0-0.2-0.1-0.4-0.2-0.6c-0.1-0.3-0.1-0.6-0.1-0.9c0-0.4,0.1-0.8-0.3-1.1C104.9,79.8,104.6,80.2,104.5,80.5z"/>
		<path class="st9" d="M95.5,92.6c1,0,1.8-0.4,2.4-1.1c0-0.1,0.1-0.1,0-0.2c0-0.1,0.1-0.2,0-0.3c0-0.3-0.5-0.4-0.7-0.3
			c-0.2,0.1-0.4,0.2-0.5,0.3c-0.2,0.2-0.5,0.2-0.8,0.2c-0.4,0.1-0.8,0.1-1,0.6C94.6,92.4,95.1,92.6,95.5,92.6z"/>
	</g>
	<g>
		<path class="st9" d="M62.6,83.4c-1.1-0.2-2.1,0.2-3,0.9c-0.1,0.1-0.1,0.1-0.1,0.2c-0.1,0.1-0.1,0.2-0.1,0.4c0,0.4,0.5,0.5,0.8,0.4
			c0.2-0.1,0.5-0.2,0.7-0.3c0.3-0.2,0.7-0.1,1-0.2c0.5,0,1,0,1.3-0.5C63.5,83.8,63,83.5,62.6,83.4z"/>
		<path class="st9" d="M68.9,91.1c1.1,0,2.1-0.5,2.9-1.3c0.1-0.1,0.1-0.2,0-0.2c0-0.1,0.1-0.2,0-0.4c-0.1-0.4-0.6-0.4-0.9-0.3
			c-0.2,0.1-0.4,0.2-0.6,0.4c-0.3,0.2-0.7,0.2-1,0.3c-0.5,0.1-1,0.1-1.2,0.7C68,90.8,68.5,91.1,68.9,91.1z"/>
		<path class="st9" d="M70.6,82.7c-0.2,0.9,0,1.7,0.5,2.4c0,0.1,0.1,0.1,0.2,0.1c0.1,0.1,0.2,0.1,0.3,0.1c0.3,0,0.4-0.4,0.4-0.6
			c0-0.2-0.1-0.4-0.2-0.5c-0.1-0.2-0.1-0.5-0.1-0.8c0-0.4,0.1-0.8-0.3-1C70.9,82,70.7,82.3,70.6,82.7z"/>
		<path class="st9" d="M62.2,93.8c0.9,0,1.6-0.4,2.2-1c0,0,0.1-0.1,0-0.2c0-0.1,0-0.2,0-0.3c0-0.3-0.5-0.3-0.7-0.2
			c-0.2,0.1-0.3,0.2-0.5,0.3c-0.2,0.2-0.5,0.2-0.8,0.2c-0.4,0.1-0.8,0.1-0.9,0.5C61.5,93.6,61.9,93.7,62.2,93.8z"/>
	</g>
	<g>
		<path class="st9" d="M147.9,47.9c-1-0.2-1.9,0.2-2.6,0.8c-0.1,0-0.1,0.1-0.1,0.2c-0.1,0.1-0.1,0.2-0.1,0.3c0,0.3,0.5,0.4,0.7,0.4
			c0.2-0.1,0.4-0.1,0.6-0.2c0.3-0.1,0.6-0.1,0.9-0.1c0.4,0,0.9,0,1.1-0.4C148.7,48.3,148.3,48,147.9,47.9z"/>
		<path class="st9" d="M153.5,54.6c1,0,1.8-0.4,2.5-1.1c0,0,0.1-0.1,0-0.2c0-0.1,0.1-0.2,0-0.3c0-0.3-0.5-0.4-0.8-0.3
			c-0.2,0.1-0.4,0.2-0.6,0.3c-0.2,0.2-0.6,0.2-0.9,0.3c-0.4,0.1-0.9,0.1-1,0.6C152.6,54.4,153.1,54.6,153.5,54.6z"/>
		<path class="st9" d="M154.9,47.4c-0.2,0.7,0,1.4,0.4,2.1c0,0,0.1,0.1,0.1,0.1c0.1,0,0.1,0.1,0.2,0.1c0.3,0,0.4-0.3,0.3-0.5
			c0-0.2-0.1-0.3-0.2-0.5c-0.1-0.2-0.1-0.5,0-0.7c0-0.3,0.1-0.7-0.3-0.9C155.2,46.8,154.9,47.1,154.9,47.4z"/>
		<path class="st9" d="M147.7,56.9c0.8,0,1.4-0.3,1.9-0.9c0,0,0-0.1,0-0.1c0-0.1,0-0.2,0-0.3c0-0.3-0.4-0.3-0.6-0.2
			c-0.2,0.1-0.3,0.2-0.4,0.3c-0.2,0.1-0.4,0.2-0.7,0.2c-0.3,0.1-0.7,0.1-0.8,0.5C147,56.8,147.3,56.9,147.7,56.9z"/>
	</g>
	<g>
		<path class="st9" d="M116.4,53.1c-1.1-0.2-2.1,0.2-3,0.9c-0.1,0.1-0.1,0.1-0.1,0.2c-0.1,0.1-0.1,0.2-0.1,0.4
			c0,0.4,0.5,0.5,0.8,0.4c0.2-0.1,0.5-0.2,0.7-0.3c0.3-0.2,0.7-0.1,1-0.1c0.5,0,1,0,1.3-0.5C117.3,53.5,116.8,53.2,116.4,53.1z"/>
		<path class="st9" d="M122.7,60.9c1.1,0.1,2.1-0.5,2.9-1.3c0.1-0.1,0.1-0.2,0-0.2c0-0.1,0.1-0.2,0-0.4c-0.1-0.4-0.6-0.4-0.9-0.3
			c-0.2,0.1-0.4,0.2-0.6,0.4c-0.3,0.2-0.7,0.2-1,0.3c-0.5,0.1-1,0.1-1.2,0.7C121.8,60.6,122.3,60.8,122.7,60.9z"/>
		<path class="st9" d="M124.4,52.5c-0.2,0.9,0,1.7,0.5,2.4c0,0.1,0.1,0.1,0.2,0.1c0.1,0.1,0.2,0.1,0.3,0.1c0.3,0,0.4-0.4,0.4-0.6
			c0-0.2-0.1-0.4-0.2-0.5c-0.1-0.2-0.1-0.5-0.1-0.8c0-0.4,0.1-0.8-0.3-1C124.7,51.8,124.4,52.1,124.4,52.5z"/>
		<path class="st9" d="M116,63.5c0.9,0,1.6-0.4,2.2-1c0,0,0.1-0.1,0-0.2c0-0.1,0-0.2,0-0.3c0-0.3-0.5-0.3-0.7-0.2
			c-0.2,0.1-0.3,0.2-0.5,0.3c-0.2,0.2-0.5,0.2-0.8,0.2c-0.4,0.1-0.8,0.1-0.9,0.5C115.3,63.3,115.7,63.5,116,63.5z"/>
	</g>
	<g>
		<path class="st9" d="M151,66c-1.1-0.2-2.1,0.2-3,0.9c-0.1,0-0.1,0.1-0.1,0.2c-0.1,0.1-0.1,0.2-0.1,0.4c0,0.4,0.5,0.5,0.8,0.4
			c0.2-0.1,0.5-0.2,0.7-0.3c0.3-0.2,0.7-0.1,1-0.2c0.5,0,1,0,1.3-0.5C151.9,66.4,151.4,66.1,151,66z"/>
		<path class="st9" d="M157.3,73.7c1.1,0.1,2.1-0.5,2.9-1.3c0.1-0.1,0.1-0.2,0-0.2c0-0.1,0.1-0.2,0-0.4c-0.1-0.4-0.6-0.4-0.9-0.3
			c-0.2,0.1-0.4,0.2-0.6,0.4c-0.3,0.2-0.7,0.2-1,0.3c-0.5,0.1-1,0.1-1.2,0.7C156.4,73.4,156.9,73.7,157.3,73.7z"/>
		<path class="st9" d="M158.9,65.3c-0.2,0.9,0,1.7,0.5,2.4c0,0.1,0.1,0.1,0.2,0.1c0.1,0.1,0.2,0.1,0.3,0.1c0.3,0,0.4-0.4,0.4-0.6
			c0-0.2-0.1-0.4-0.2-0.5c-0.1-0.2-0.1-0.5-0.1-0.8c0-0.4,0.1-0.8-0.3-1C159.3,64.6,159,64.9,158.9,65.3z"/>
		<path class="st9" d="M150.6,76.4c0.9,0,1.6-0.4,2.2-1c0,0,0.1-0.1,0-0.2c0-0.1,0-0.2,0-0.3c0-0.3-0.5-0.3-0.7-0.2
			c-0.2,0.1-0.3,0.2-0.5,0.3c-0.2,0.2-0.5,0.2-0.8,0.2c-0.4,0.1-0.8,0.1-0.9,0.5C149.9,76.2,150.3,76.3,150.6,76.4z"/>
	</g>
	<g>
		<path class="st9" d="M129.3,101.6c-1.1-0.2-2.1,0.2-3,0.9c-0.1,0-0.1,0.1-0.1,0.2c-0.1,0.1-0.1,0.2-0.1,0.4c0,0.4,0.5,0.5,0.8,0.4
			c0.2-0.1,0.5-0.2,0.7-0.3c0.3-0.2,0.7-0.1,1-0.2c0.5,0,1,0,1.3-0.5C130.3,102,129.8,101.7,129.3,101.6z"/>
		<path class="st9" d="M135.7,109.3c1.1,0,2.1-0.5,2.9-1.3c0.1-0.1,0.1-0.2,0-0.2c0-0.1,0.1-0.2,0-0.4c-0.1-0.4-0.6-0.4-0.9-0.3
			c-0.2,0.1-0.4,0.2-0.6,0.4c-0.3,0.2-0.7,0.2-1,0.3c-0.5,0.1-1,0.1-1.2,0.7C134.7,109,135.2,109.3,135.7,109.3z"/>
		<path class="st9" d="M137.3,100.9c-0.2,0.9,0,1.7,0.5,2.4c0,0.1,0.1,0.1,0.2,0.1c0.1,0.1,0.2,0.1,0.3,0.1c0.3,0,0.4-0.4,0.4-0.6
			c0-0.2-0.1-0.4-0.2-0.5c-0.1-0.2-0.1-0.5-0.1-0.8c0-0.4,0.1-0.8-0.3-1C137.7,100.2,137.4,100.6,137.3,100.9z"/>
		<path class="st9" d="M129,112c0.9,0,1.6-0.4,2.2-1c0,0,0.1-0.1,0-0.2c0-0.1,0-0.2,0-0.3c0-0.3-0.5-0.3-0.7-0.2
			c-0.2,0.1-0.3,0.2-0.5,0.3c-0.2,0.2-0.5,0.2-0.8,0.2c-0.4,0.1-0.8,0.1-0.9,0.5C128.2,111.8,128.6,111.9,129,112z"/>
	</g>
	<g>
		<path class="st9" d="M157.6,87c-1.1-0.2-2.1,0.2-3,0.9c-0.1,0-0.1,0.1-0.1,0.2c-0.1,0.1-0.1,0.2-0.1,0.4c0,0.4,0.5,0.5,0.8,0.4
			c0.2-0.1,0.5-0.2,0.7-0.3c0.3-0.2,0.7-0.1,1-0.2c0.5,0,1,0,1.3-0.5C158.6,87.4,158.1,87.1,157.6,87z"/>
		<path class="st9" d="M164,94.7c1.1,0.1,2.1-0.5,2.9-1.3c0.1-0.1,0.1-0.2,0-0.2c0-0.1,0.1-0.2,0-0.4c-0.1-0.4-0.6-0.4-0.9-0.3
			c-0.2,0.1-0.4,0.2-0.6,0.4c-0.3,0.2-0.7,0.2-1,0.3c-0.5,0.1-1,0.1-1.2,0.7C163,94.5,163.6,94.7,164,94.7z"/>
		<path class="st9" d="M165.6,86.3c-0.2,0.9,0,1.7,0.5,2.4c0,0.1,0.1,0.1,0.2,0.1c0.1,0.1,0.2,0.1,0.3,0.1c0.3,0,0.4-0.4,0.4-0.6
			c0-0.2-0.1-0.4-0.2-0.5c-0.1-0.2-0.1-0.5-0.1-0.8c0-0.4,0.1-0.8-0.3-1C166,85.6,165.7,86,165.6,86.3z"/>
		<path class="st9" d="M157.3,97.4c0.9,0,1.6-0.4,2.2-1c0,0,0.1-0.1,0-0.2c0-0.1,0-0.2,0-0.3c0-0.3-0.5-0.3-0.7-0.2
			c-0.2,0.1-0.3,0.2-0.5,0.3c-0.2,0.2-0.5,0.2-0.8,0.2c-0.4,0.1-0.8,0.1-0.9,0.5C156.6,97.2,156.9,97.4,157.3,97.4z"/>
	</g>
</g>
<g>
	<g>
		<path class="st0" d="M79.6-23.5c0,0,12.7-8.6,16.6-14.8c3.9-6.1,5-4.9,5.9-2.5c0.9,2.5-8.4,12.9-17.1,17
			C76.3-19.6,79.6-23.5,79.6-23.5z"/>
	</g>
	<g>
		<path class="st1" d="M100.8-42.7c0.5,0.8,0.2,2.1-0.6,3.2c-0.8,1.3-1.8,2.4-2.9,3.4c-1.7,1.7-3.4,3.4-5.2,5.1
			c-1.4,1.4-2.9,2.8-4.5,4c-0.7,0.5-1.8,1.3-2.6,0.6c-0.3-0.3-0.3-0.6-0.2-1.1c-3,2.3-5.3,3.9-5.3,3.9s-3.3,3.9,5.4-0.2
			c8.7-4.1,18-14.6,17.1-17C101.7-41.7,101.3-42.5,100.8-42.7z"/>
	</g>
	<g>
		<g>
			<path class="st0" d="M0.4,72.7l-1.2,0.1c0,0-2.1,2-3.3,5.3C-2.6,76.3-1.1,74.5,0.4,72.7z"/>
		</g>
		<path class="st0" d="M-20.1,88c0.7-0.4,11.1-10.8,18-12.9c0,0,0.4-0.1,0.8-0.3c0.2-0.2,0.4-0.5,0.6-0.7c0-0.1,0-0.2,0-0.3
			c-0.4-1-4.6-1-4.6-1s-5.1,2-11.1,6.8c-6,4.8-5.9,7.4-4.9,8.1C-21.4,87.6-20.8,88.4-20.1,88z"/>
	</g>
	<g>
		<g>
			<path class="st1" d="M0.4,72.7l-1.2,0.1c0,0-2.1,2-3.3,5.3C-2.6,76.3-1.1,74.5,0.4,72.7z"/>
		</g>
		<path class="st1" d="M-20.1,88c0.7-0.4,11.1-10.8,18-12.9c0,0,0.4-0.1,0.8-0.3c0.2-0.2,0.4-0.5,0.6-0.7c0-0.1,0-0.2,0-0.3
			c-0.4-1-4.6-1-4.6-1s-1.3,0.5-3.3,1.6c1-0.3,2-0.4,2.8-0.1c1,0.3,0,1.4-0.4,1.7c-1.2,0.9-2.6,1.6-4,2.3c-2,1-3.5,2.3-5,3.9
			c-0.9,0.9-1.8,1.9-2.7,2.8c-0.7,0.6-1.4,1.4-2.3,1.7c-1.2,0.4-1.2-0.8-0.8-2.1c-1,1.7-0.7,2.7-0.1,3.1
			C-21.4,87.6-20.8,88.4-20.1,88z"/>
	</g>
	<path class="st2" d="M-1.5,75c9-10.8,18.3-21.4,27.8-31.8c-9.5-0.7-17-2.4-20-3.7c-8.8-3.9-16.3-0.8-16.3-0.8s-5.5,2.1-3.4,8.4
		c2.1,6.3,13,12.1,13,12.1s-2.2-0.1-5.7-1.9c-3.6-1.8-5.3-3.1-5.9-0.3c0,0-2.4,0.3-1.5,4c1,3.7,3.3,5.8,3.3,5.8s-2.2-1-1.8,1.6
		c0.4,2.6,4.6,4.9,5.9,5.5C-5.8,74.1-4.1,74.5-1.5,75z"/>
	<path class="st1" d="M-1.5,75c0.1-0.1,0.2-0.3,0.3-0.4c-3.1-0.7-7.4-1.8-8.6-4.8c-0.1-0.2,0.1-0.3,0.2-0.4c0.1,0,0.1,0,0.1,0
		c0-0.1,0.1-0.1,0.3-0.1c1,0.2,1.7,0.8,2.6,1.3c1,0.5,2,1,3,1.3c1.2,0.4,2.4,0.8,3.7,1.2c0.6-0.7,1.3-1.5,1.9-2.2
		c-1.6-0.5-3.1-1.1-4.7-1.7c-3.2-1.2-6.8-2.7-8.7-5.7c-0.3-0.6-1.1-2.3-0.1-2.6c0.9-0.3,2.2,0.8,2.9,1.3C-7.4,63-6.2,64-5,64.7
		c2.7,1.7,5.5,3.2,8.5,4.3c1.1-1.2,2.1-2.5,3.2-3.7c-1.3-0.2-2.6-0.4-3.9-0.7c-3-0.7-6.2-1.5-9-2.8c-1-0.5-3.1-1.4-3.3-2.8
		c0,0-0.1-0.1-0.1-0.1c-0.4-0.5-0.1-1.3,0.6-1.3c1.2-0.1,2.6,0.9,3.8,1.6C-1,60.6,3.3,61.6,7.7,62c0.6,0.1,1.2,0.1,1.8,0.1
		c0.5-0.5,0.9-1.1,1.4-1.6c-1.3,0-2.5-0.2-3.7-0.6c-1.5-0.5-3.4-2.2-0.9-3c2.4-0.7,4.8-0.1,7.2,0.6c0.4-0.4,0.7-0.8,1.1-1.2
		c-1.1-0.1-2.1-0.2-3.2-0.4c-5.1-0.9-10.5-2.3-14.7-5.7c-0.7-0.6-3.5-3.1-2.3-4.3c0,0,0,0,0,0c1.2-1,5.3,2.2,6.3,2.8
		c4.4,2.6,9.2,5,14.3,6.4c0.1,0,0.3,0.1,0.4,0.1c0.5-0.5,1-1.1,1.5-1.6c-4-1.2-7.8-2.6-11.5-4.3c-1.6-0.7-3.2-1.6-4.6-2.7
		c-1.3-1-2.2-2.2,0-2.3c2.2-0.1,4.7,0.8,6.7,1.6c3.9,1.6,7.8,3.4,11.7,5.1c1-1.1,2.1-2.3,3.1-3.4c-2.8-0.6-5.6-1.3-8.3-2.2
		c-2.8-0.8-5.5-1.7-8.2-2.7c-2.8-1-5.7-2-8.7-1.7c-2.4,0.2-5.1,1.2-5.4,4c-0.3,2.5,2.3,4.2,2.3,6.6c-4-0.8-7.4-5.9-5.3-10
		c2.5-4.8,10-3.8,14.2-2.6c6.8,2.1,12.7,4.7,19.8,5.7c0.6,0.1,1.3,0.2,1.9,0.2c0.6-0.6,1.2-1.3,1.7-1.9c-9.5-0.7-17-2.4-20-3.7
		c-8.8-3.9-16.3-0.8-16.3-0.8s-5.5,2.1-3.4,8.4c1.3,3.8,5.7,7.4,9,9.7c0,0,0,0,0,0c0,0,0,0,0,0c0.8,0.6,1.6,1,2.2,1.4c0,0,0,0,0,0
		c0.1,0.1,0.2,0.1,0.2,0.2c0,0,0.1,0,0.1,0.1c0.1,0,0.1,0.1,0.2,0.1c0,0,0.1,0,0.1,0.1c0,0,0.1,0.1,0.1,0.1c0.1,0,0.1,0.1,0.2,0.1
		c0,0,0.1,0,0.1,0c0.5,0.3,0.7,0.4,0.7,0.4s-2.2-0.1-5.7-1.9c-3.6-1.8-5.3-3.1-5.9-0.3c0,0-2.4,0.3-1.5,4c1,3.7,3.3,5.8,3.3,5.8
		s-2.2-1-1.8,1.6c0.4,2.6,4.6,4.9,5.9,5.5C-5.8,74.1-4.1,74.5-1.5,75z"/>
	<path class="st0" d="M93.1-26.1c-1.4-1.7-4.5,0.8-6.8,1.4C75.5-20.4,68.9-8,67.2-3.4c-0.7,1.9-1.1,3.9-1.9,5.8
		C74.5-7.1,83.8-16.6,93.1-26.1z"/>
	<path class="st0" d="M-17.6,47.3c1.7-1.9,3.5-11.5,7-14c0,0-0.6,2.7,1.5,2.6c0,0-1.2,1.5-0.8,2.7c0,0,7.5-3.1,16.3,0.8
		c3,1.3,10.4,3.1,20,3.7c6.8-7.5,13.8-14.9,20.8-22.2c3.7-3.8,7.4-7.6,11.1-11.4c-0.3,0.2-0.7,0.3-1,0.5C49,13.5,43,9.8,43,9.8
		c-7.6,2.7-15.2,3.1-26.6,4.7C4.9,16.2-6,24-6,24c-0.9,0.5-1.6,1-2.3,1.3c-2.6,2.1-8,6.8-10.8,11.9C-22.8,44-19.3,49.2-17.6,47.3z"
		/>
	<path class="st1" d="M-17.6,47.3c1.7-1.9,3.5-11.5,7-14c0,0-0.6,2.7,1.5,2.6c0,0-1.2,1.5-0.8,2.7c0,0,7.5-3.1,16.3,0.8
		c3,1.3,10.4,3.1,20,3.7c0.4-0.5,0.9-0.9,1.3-1.4c-1.5-0.4-2.9-1.2-4-2.5c-0.2-0.2,0-0.5,0.3-0.4c2,0.2,3.9,0.5,5.9,0.6
		c0.4-0.5,0.9-0.9,1.3-1.4c-1,0-2,0.1-3,0.1c-0.3,0-0.4-0.3-0.2-0.5c1.4-1.4,3.5-2,5.5-2.1c0.4-0.4,0.8-0.8,1.1-1.2
		c-2.5,0.1-5,0.5-7.4,1.1c-3.9,1.2-7.5,3.3-11.5,4.3c-0.2,0.1-0.4-0.3-0.2-0.5c3-2.9,6.8-4.8,10.8-6c3.3-1,6.9-1.7,10.4-1.4
		c0.1,0,0.1,0,0.2,0c0.9-0.9,1.8-1.9,2.7-2.8c0,0-0.1,0-0.1,0c-5.9-0.1-12.3,1.2-18.1,2.8c-3.6,1-7.1,2.3-10.5,3.8
		c-0.7,0.3-8.8,3.7-6.9,1.4c1.9-2.2,4.4-3.2,7.7-4.5c3.7-1.4,7.5-2,11.3-3.2c3.5-1.1,7.1-2,10.8-2.7c2.7-0.5,5.5-0.6,8.4-0.3
		c0.4-0.5,0.9-0.9,1.3-1.4c-2.7-0.2-5.4-0.1-8.2,0.1c-4.2,0.3-8.4,1-12.5,1.8c-7.8,1.6-15.1,3.6-22.2,7.4c-2.5,1.4-5.2,2.8-8.1,2.4
		c-0.2,0-0.2-0.2-0.2-0.3c0,0,0-0.1,0-0.1c0-0.1,0-0.1,0-0.2c0.1-0.3,0.2-0.5,0.5-0.8C-7,35-6.9,35-6.7,35
		c4.7-4.9,11.3-7.3,17.9-8.6c3.9-0.8,7.8-1.3,11.8-1.8c2.7-0.4,5.4-1,8.1-1.1c4.6-0.7,9.2-0.6,13.8-0.1c0.8-0.8,1.6-1.6,2.4-2.5
		c1.2-1.2,2.4-2.5,3.6-3.7c-0.2-0.3-0.2-0.6,0.1-1c0.3-0.5,0.9-0.7,1.6-0.7c1.9-2,3.9-4,5.8-6c-0.3,0.2-0.7,0.3-1,0.5
		C49,13.5,43,9.8,43,9.8c-7.6,2.7-15.2,3.1-26.6,4.7C4.9,16.2-6,24-6,24c-0.7,0.4-1.3,0.8-1.8,1.1c0.6-0.3,1.2-0.4,1.8-0.4
		c0.2,0,0.3,0.3,0.2,0.5c-2.9,3.6-6.4,6.6-9,10.5c-2.4,3.6-4.2,7.6-4,12C-18.4,47.8-18,47.7-17.6,47.3z M45.5,14.6
		c0.9-0.5,1.8-1.1,2.8-1.5c1-0.5,2.2-1.1,3.3-0.8c0.2,0.1,0.3,0.3,0.1,0.5c-2.7,2.5-6,4-9,6c-2.2,1.4-4.8,3.1-7.6,2.4
		c-0.2-0.1-0.3-0.3-0.1-0.5C38,17.9,41.8,16.3,45.5,14.6z M35.2,13.1c2.2-0.7,8.9-2.5,8.5-0.9c-0.3,1.2-3.9,2.8-4.9,3.5
		c-1.8,1.1-3.6,2.4-5.4,3.4c-1.1,0.7-7.2,4.6-6.2,0.4c0.8-3.3,4.5-5.1,7.3-6.2C34.6,13.2,34.9,13.2,35.2,13.1z M1,21.9
		c0.6-1.7,2.5-2.6,4-3.4c2.4-1.3,5-2.3,7.7-2.9c4.7-1.1,9.9-1.4,14.6,0c0.3,0.1,0.3,0.4,0.1,0.5c-4.1,1.7-8.3,1.8-12.6,2.3
		c-4.4,0.6-8.7,1.9-12.8,3.6c0,0.1-0.1,0.2-0.2,0.2c-0.1,0-0.3,0-0.4,0C1.1,22.4,0.9,22.1,1,21.9z M-9.6,34.2c0-3.7,4.2-6.2,7.1-7.6
		c4.6-2.2,10.2-3.1,15.3-2.7c0.3,0,0.3,0.5,0.1,0.5c-7.6,2.3-16,3.4-21.5,9.6c0,0,0,0,0,0c0,0,0,0,0,0c-0.1,0.1-0.2,0.2-0.2,0.3
		c-0.1,0.1-0.2,0.1-0.3,0.1C-9.4,34.5-9.6,34.4-9.6,34.2z"/>
	<path class="st1" d="M90.5-23.3c0.9-0.9,1.8-1.8,2.7-2.8c-0.9-1.1-2.4-0.5-4,0.2c0,0.1-0.1,0.2-0.2,0.2c0,0,0,0-0.1,0
		c0.4,0,0.9,0.1,1.3,0.3C91.1-24.9,90.9-24,90.5-23.3z"/>
	<path class="st1" d="M72.5-5c-1,0.5-2.1,0.8-3.2,1c-0.2,0-0.4-0.2-0.3-0.4c2-3.7,6.1-5.8,9.5-7.9c0.9-0.6,1.8-1.2,2.8-1.7
		c2.9-2.9,5.8-5.9,8.7-8.8c-1.2,1.1-2.9,1.8-4.3,2.5c-3,1.6-6.1,2.8-8.9,4.7c-0.3,0.2-0.6-0.1-0.4-0.4c2.4-3.5,5.7-6.1,9.2-8.3
		C75.2-19.8,68.8-7.9,67.2-3.4c-0.7,1.9-1.1,3.9-1.9,5.8C67.6-0.1,70.1-2.5,72.5-5z M71.9-9.6c0.3-0.6,0.6-1.1,1-1.6
		c0,0,0-0.1,0-0.1c0.9-1.1,2.3-2.1,3.8-2c0.1,0,0.2,0.2,0.1,0.3c-1.2,1.6-3.1,2.6-4.6,3.7C72-9.3,71.8-9.4,71.9-9.6z"/>
	<path class="st2" d="M-10.8,18.9c0,0-1.6,2.6-1.1,4.2c0.5,1.6,1.9,2.3,5.1,1.1c0,0-0.6,0.4-1.5,1.2C-7.6,25-6.8,24.5-6,24
		c0,0,10.9-7.8,22.4-9.5c11.5-1.7,19-2,26.6-4.7c0,0,6,3.8,14.2,0.3c0.4-0.2,0.7-0.3,1-0.5c2.3-2.4,4.7-4.8,7-7.2
		c0.8-2,1.2-4,1.9-5.8c1.7-4.6,8.3-17,19.2-21.3c0,0-2.7-2.3-8.1-0.2c0,0,1-2.2-2.5-4.1c-3.4-1.9-11.1,0.3-16,5.5
		c0,0,1-6.8,10.4-11.2c9.3-4.5,11.4-2.6,12.3-4.6c0.9-2-3.3-3.4-8.9-0.8C67.9-37.4,56-29.1,52-17.4c0,0-9.8-3-24.2,5.3
		c0,0-16.1-3.7-25.3-1.2c-9.1,2.5-9.2,5.5-7.4,6c0,0,0.5,0.2,2.9-1c2.4-1.2,13.7-4.9,21.5,1.7c0,0-7.1-2.9-13.5,0.8
		C-0.3-2.1-3.2,3.1-4.5,9.7c0,0-7.3,1.9-9,5.4C-15.2,18.6-12.9,19.5-10.8,18.9z"/>
	<path class="st1" d="M-10.8,18.9c0,0-1.6,2.6-1.1,4.2c0.5,1.6,1.9,2.3,5.1,1.1c0,0-0.6,0.4-1.5,1.2C-7.6,25-6.8,24.5-6,24
		c0,0,10.9-7.8,22.4-9.5c11.5-1.7,19-2,26.6-4.7c0,0,6,3.8,14.2,0.3c0.4-0.2,0.7-0.3,1-0.5c2.3-2.4,4.7-4.8,7-7.2
		c0.8-2,1.2-4,1.9-5.8c1.7-4.6,8.3-17,19.2-21.3c0,0-2.7-2.3-8.1-0.2c0,0,1-2.2-2.5-4.1c-3.4-1.9-11.1,0.3-16,5.5
		c0,0,1-6.8,10.4-11.2c9.3-4.5,11.4-2.6,12.3-4.6c0.6-1.3-1-2.4-3.8-2.2c0.1,0.2,0.3,0.4,0.3,0.6c0.6,1.6-1.8,1.9-2.8,2.2
		c-3.5,1.1-6.9,2.5-9.8,4.7c-4.7,3.6-7.3,8.8-10.6,13.6c-0.7,1-1.6,2.7-2.9,3.1c-0.4,0.1-0.7,0-0.8-0.2c0,0,0,0.1,0,0.1
		c0,0-9.8-3-24.2,5.3c0,0-9.1-2.1-17.4-2.1c0.8,0.1,1.5,0.2,2.3,0.3c3.4,0.6,6.5,1.7,9.8,2.7c2,0.6,4,0.9,6,1.3
		C29.5-9.6,30.8-9.5,32-9c0.2,0.1,0.2,0.4,0,0.5c-3.5,1.2-7.4,0.3-10.8-0.7c-3.9-1.2-7.7-2.8-11.8-3c-2.5-0.2-4.9,0.2-7.2,1
		C0.4-10.5-1.3-9.4-3-9c-0.8,0.2-1.9,0.2-2.5-0.2c-0.6,1-0.2,1.7,0.7,2c0,0,0.5,0.2,2.9-1c2.4-1.2,13.7-4.9,21.5,1.7
		c0,0-7.1-2.9-13.5,0.8C-0.3-2.1-3.2,3.1-4.5,9.7c0,0-7.3,1.9-9,5.4C-15.2,18.6-12.9,19.5-10.8,18.9z M32.5,10.7
		c-4.4,0.9-8.9,0.8-13.3,1.2c-3.1,0.3-6.1,0.9-9.1,1.7C5.2,15,0.6,17.1-3.4,20.3c-1.5,1.2-4.2,3.6-6.3,2.9c-2.6-0.9-0.9-3.4,0.3-4.7
		c0-0.1,0.1-0.1,0.2-0.1c2.7-3.4,7.5-5,11.4-6.3c1.7-0.6,3.5-1,5.4-1.3c8.1-2.1,16.7-1.7,24.9-0.7C32.8,10.2,32.7,10.7,32.5,10.7z
		 M54.8-17.6c1.8-2.3,3.8-4.5,6-6.4c3.1-2.7,7.4-5.3,11.7-4.3c0.3,0.1,0.3,0.5,0,0.6c-6.8,1-11.3,6.2-15.4,11.3
		c-1.7,2.1-4.7,7.8-8,5.7c-0.3,0-0.5-0.3-0.2-0.5C51.5-12.7,53-15.3,54.8-17.6z M40.4,1.9c2.5-1.1,5.3-0.9,8-1.3
		c1.7-0.3,3.2-1.2,5-1.4c0.9-0.1,4.3,0.8,2.3,2C54.4,2,52.4,2,51.1,2.4c-2.8,0.9-5.2,1.4-8.1,0.8c-0.6-0.1-2.8-0.1-3-0.8
		C40,2.2,40.1,2,40.4,1.9z M33.9-1.1c-0.1-0.2,0-0.4,0.1-0.4c0.1-1.1,4.8-1.1,5.1-1.2C41.8-2.9,44.4-3,46.9-3c1.3,0,3.1-0.3,4.3,0.5
		C51.4-2.3,51.3-2,51.1-2c-3.7,0.7-7.5,1.7-11.3,2C37.9,0.3,35.4,0.5,33.9-1.1z M46.5,5.1C46.5,5.1,46.6,5,46.5,5.1
		c0.8-0.7,1.9-0.6,2.8-0.7c1.2-0.1,2.3-0.5,3.4-0.9c1.7-0.7,3.5-1.6,5.3-2.1c0.2-0.1,0.5,0.1,0.4,0.4c-1.7,3.2-5.5,4.3-8.9,4.1
		C49.4,5.8,46.2,5.4,46.5,5.1z M53.9-4.4c-2.3-1.5-4.7-3.1-7.3-4.1c-3.4-1.3-7.1-1.2-10.6-2.3c-0.3-0.1-0.2-0.5,0.1-0.5
		c2,0,4.1-0.5,6.2-0.3c3.3,0.4,6.4,1.8,9.3,3.3c1,0.5,11.7,6.2,9.5,7.7c-1.1,0.7-2.2-0.2-3.2-0.8C56.5-2.3,55.3-3.5,53.9-4.4z
		 M41.9-12.9c-0.1-0.2,0-0.4,0.2-0.4c1.2-0.2,2.5-0.4,3.7-0.5c0.7,0,2-0.2,2.4,0.6c0.3,0.8-0.7,1.3-1.3,1.4
		c-1.5,0.3-3.3-0.3-4.7-0.7C41.9-12.5,41.9-12.7,41.9-12.9z M57.3-6.5C57-7,58.1-8.2,58.4-8.6c1.6-1.9,3.6-3.9,5.9-5
		c0.2-0.1,0.4,0.1,0.4,0.2c0.1,1.2-0.3,2.3-0.7,3.4c-0.5,1.5-0.9,3.6-2.7,4.1C60.3-5.6,57.6-5.1,57.3-6.5z M60.8-13
		c-2,1.9-4.5,4-7.4,4.2c-0.3,0-0.4-0.3-0.2-0.5c0.5-0.8,1.2-1.6,1.9-2.2c0.7-0.8,1.3-1.7,2-2.5c1.7-2.2,3.5-4.3,5.5-6.3
		c2.4-2.4,7.3-6.8,10.6-3.5c0.2,0.2,0.1,0.5-0.1,0.5c-3.7,0.7-6.2,4.5-8.9,6.9c-0.2,0.1-0.3,0.3-0.5,0.4C62.8-15,61.8-13.9,60.8-13z
		 M34.2-14.3c2.3-1.8,5.3-2.4,8.1-2.8c2.7-0.4,5.5-0.8,8.2-0.1c0.2,0,0.3,0.2,0.2,0.3c-0.2,2.3-3.2,2.8-5.1,2.9
		c-3.7,0.2-7.4,0-11.1,0.2c-0.1,0-0.1,0-0.2,0C34.1-13.8,34-14.1,34.2-14.3z M25.6-6c0.3-1.3,3.5-0.9,4.5-0.9c2.4,0,4.7-0.1,7-0.4
		c1.5-0.2,3.1-0.5,4.6-0.4c0.8,0.1,1.6,0.2,2.3,0.6c0.6,0.4,1,0.9,0.3,1.6C43.6-4.8,42.5-5,41.7-5c-4.5,0.1-8.6,2.2-13.1,0.8
		c-0.7-0.2-2.9-0.5-3-1.5C25.5-5.8,25.5-5.9,25.6-6z M25.1-3.5C28-3,30.4-1.6,32.9-0.2c2.7,1.6,5.6,2.8,8.5,4c2.9,1.2,5.8,2.9,9,3.5
		c2.1,0.4,4.1,0.2,5.8-0.6c1.1-0.8,2.1-1.7,2.8-2.8c1.1-1.8,2.1-3.7,2.9-5.7c1.6-3.6,2.6-7.3,4.4-10.8c1.5-2.9,3.4-5.7,5.9-7.7
		c2-1.7,4.5-3.4,7.3-3.2c0.3,0,0.3,0.4,0.1,0.5c-3.1,2.3-6.4,4.6-8.5,7.8c-2.3,3.5-3.7,7.6-5.2,11.5c-1,2.6-2.1,5.3-3.6,7.7
		c-1.2,1.8-2.6,3.6-4.7,4.3c-10.3,5.9-24-6-32.6-11.1c0,0,0,0,0,0c0,0,0,0,0,0C24.7-3,24.8-3.5,25.1-3.5z M28,5.1
		c0.2,0.1,0.2,0.5-0.1,0.5c-1.7,0.1-3.3-0.3-5-0.5c-1.9-0.2-4-0.1-5.9-0.1c-2.1,0-4.1,0.2-6.1,0.6c-1,0.2-2,0.8-3,0.9
		c-0.1,0-0.2,0-0.3-0.1C7.4,6.3,7.3,6.1,7.4,6c1.4-2.8,5.9-3.5,8.7-3.9C20.5,1.6,24.2,2.8,28,5.1z M6.2,4C5,5.4,3.8,7.1,1.8,6.9
		C1.7,7.3,1.2,7,1.3,6.7C3.2,1,9.6-1.2,15.1-1.1c0.4,0,0.4,0.5,0.1,0.6C11.9,0.1,8.4,1.3,6.2,4z M-2.8,5c1-3.4,3.6-6.1,6.5-8.1
		c4.1-2.8,11.5-5.5,15.9-1.9c0.2,0.1,0.1,0.5-0.1,0.5C14.8-4.5,9.8-4.2,5.9-1.3C2.7,1.1,0.8,4.6-1.4,7.9c0.1,0.1,0.1,0.3-0.1,0.3
		C-3.8,9.5-3.1,6.2-2.8,5z M-13,15.4c0.9-3.1,5.2-3.9,7.8-4.7C-1,9.4,3.8,7.4,8.2,8.7c0.3,0.1,0.3,0.4,0.1,0.5
		c-5.3,2.3-11.6,3.5-16.2,7.3c-1.1,0.9-3,2.5-4.5,1.6C-13.4,17.4-13.3,16.4-13,15.4z"/>
</g>
<path class="st0" d="M58.6,15.1c-0.6,0.5-0.5,1.9-2.6,4c-8.6,4.7-20.2,3.7-21.5,4.7c0.1,0,0.2-0.1,0.3-0.1c2.6-0.8,4.2,0.6,4.2,0.6
	c2.4-0.6,4.7-0.4,8.2-0.5c3.5-0.1,7-2.1,7-2.1c0.3-0.1,0.5-0.2,0.7-0.3c0.9-0.5,2.6-1.8,3.6-3.2C60,16.2,59.2,14.6,58.6,15.1z"/>
<path class="st0" d="M55,15.7c-0.7,0.8-0.3,3.2-2.7,6.6c-10.2,7.1-24.9,3.8-26.3,5.4c0.1,0,0.2-0.1,0.4-0.1c3.1-1,5.4,1.6,5.4,1.6
	c2.9-0.7,5.8-0.1,10.2,0.2c4.4,0.3,8.6-2.7,8.6-2.7c0.3-0.2,0.6-0.3,0.9-0.5c1-0.8,3.1-2.7,4.1-5.1C57,17.9,55.7,14.9,55,15.7z"/>
<path class="st0" d="M70.2,1.6c0.6-0.9,0-3.2,2-6.8c9.4-8.1,24.4-6.4,25.6-8.1c-0.1,0.1-0.2,0.1-0.4,0.2c-3,1.3-5.5-1-5.5-1
	c-2.8,1-5.7,0.7-10.1,0.9c-4.4,0.2-8.2,3.6-8.2,3.6c-0.3,0.2-0.6,0.4-0.8,0.5c-0.9,0.9-2.8,3-3.6,5.5C68-0.4,69.6,2.5,70.2,1.6z"/>
<path class="st0" d="M27.7,39.4c0.9-0.4,1.7-2.7,5.3-4.7c12.3-1.8,19.6,5,21.4,2.9s-5-4.7-9.1-5.1c-4.1-0.4-8.8-1-8.8-1
	c-0.4,0-0.7,0-1,0c-1.3,0.3-4,1.1-6,2.7C26.9,36.6,26.7,39.9,27.7,39.4z"/>
<path class="st0" d="M77.5,55.8c1-0.2,2.4-2.2,6.4-3.1c12.3,1.5,17.5,10.1,19.9,8.5c2.4-1.5-3.6-5.8-7.4-7.3
	c-3.8-1.5-8.2-3.3-8.2-3.3c-0.4-0.1-0.7-0.2-1-0.3c-1.3-0.1-4.1,0-6.5,1C77.5,52.8,76.5,55.9,77.5,55.8z"/>
<path class="st0" d="M142.7,41.5c-1,0.4-1.9,2.6-5.7,4.3c-12.4,1-19.1-6.4-21.2-4.5c-2,1.9,4.7,5,8.7,5.7c4.1,0.7,8.7,1.6,8.7,1.6
	c0.4,0,0.7,0,1,0.1c1.3-0.2,4-0.8,6.1-2.3C143.3,44.4,143.7,41.1,142.7,41.5z"/>
<path class="st2" d="M17.8,67.2c-1,0.2-2.2,2.3-6.2,3.5C-0.7,70.1-6.6,62-8.8,63.6s4,5.6,7.9,6.8s8.4,2.7,8.4,2.7
	c0.4,0,0.7,0.1,1,0.2c1.3,0,4.1-0.3,6.4-1.5C18,70.2,18.8,67,17.8,67.2z"/>
<path class="st2" d="M20.1,53.3c-0.6,0.7-0.8,3.4-2.9,6.4c-7.9,4.8-13.7-1-14.6,1.7s4,4,6.8,3.5s6-0.9,6-0.9
	c0.2-0.1,0.5-0.2,0.7-0.2c0.8-0.6,2.5-2.1,3.6-4.4C21,56.3,20.7,52.7,20.1,53.3z"/>
<path class="st2" d="M4.7,58.4c0.9-0.4,1.7-2.7,5.3-4.7c12.3-1.8,19.6,5,21.4,2.9s-5-4.7-9.1-5.1c-4.1-0.4-8.8-1-8.8-1
	c-0.4,0-0.7,0-1,0c-1.3,0.3-4,1.1-6,2.7C3.9,55.6,3.7,58.9,4.7,58.4z"/>
<path class="st2" d="M41.8,37.8c-0.8,0.6-1.1,3-4.3,5.7c-11.6,4.3-20.2-0.9-21.6,1.5c-1.4,2.4,5.9,3.5,10,3.1s8.8-0.8,8.8-0.8
	c0.4-0.1,0.7-0.2,1-0.2c1.2-0.5,3.7-1.9,5.3-3.9C43.1,40.5,42.6,37.2,41.8,37.8z"/>
<path class="st2" d="M21.9,51.7c-0.5,0.6-0.4,2.5-2.5,5.2C17.3,59.6,7.7,56,6.9,58.3c-0.8,2.2,3.4,3.2,5.8,2.9
	c2.4-0.4,6.7,0.5,8.8-4.5C22.7,54.1,22.4,51.1,21.9,51.7z"/>
<path class="st0" d="M15,58.7c-0.4,0.7,0.2,1.9-1.1,4.6C7.3,70.6-4,73.5-4.8,74.8c0.1-0.1,0.2-0.1,0.3-0.2c2.2-1.6,4.2-0.9,4.2-0.9
	c2-1.3,4.3-1.9,7.5-3.2c3.3-1.3,6-4.3,6-4.3c0.2-0.2,0.4-0.4,0.6-0.5c0.6-0.8,1.9-2.5,2.4-4.2C16.7,59.3,15.4,58,15,58.7z"/>
<g>
	<g>
		<g>
			<polygon class="st8" points="7.9,30 7,32.2 8.5,32.4 9.1,30.3 			"/>
			<polygon class="st8" points="-8.1,46.4 -9.7,47.6 -9.1,48.6 -7.7,47.5 			"/>
			<polygon class="st8" points="12,52.8 11.3,50.8 10.2,51.1 10.9,52.8 			"/>
		</g>
		<g>
			<polygon class="st8" points="48.1,3.8 47.3,5.7 48.7,5.9 49.2,4 			"/>
			<polygon class="st8" points="33.6,18.7 32,19.8 32.6,20.8 33.9,19.7 			"/>
		</g>
		<g>
			<polygon class="st8" points="62.4,-21.7 61.6,-19.5 63.1,-19.3 63.6,-21.5 			"/>
			<polygon class="st8" points="46.5,-5.3 44.9,-4.1 45.5,-3.1 46.9,-4.3 			"/>
		</g>
		<g>
			<polygon class="st8" points="15.3,-7.3 14.4,-5.1 15.9,-4.9 16.5,-7 			"/>
			<polygon class="st8" points="-0.6,9.1 -2.3,10.3 -1.7,11.3 -0.2,10.2 			"/>
			<polygon class="st8" points="19.5,15.5 18.8,13.5 17.7,13.8 18.3,15.5 			"/>
		</g>
	</g>
</g>
<g>
	<g>
		<path class="st9" d="M8.2,21.2c-1.1,0.4-1.8,1.2-2.2,2.3c0,0.1,0,0.2,0,0.2c0,0.1,0,0.2,0.1,0.4c0.2,0.3,0.7,0.2,0.9,0
			c0.2-0.2,0.3-0.4,0.5-0.6c0.2-0.3,0.5-0.5,0.8-0.6c0.4-0.3,0.9-0.5,0.9-1.1C9.2,21.1,8.7,21.1,8.2,21.2z"/>
		<path class="st9" d="M17.6,24.7c1-0.5,1.6-1.5,1.8-2.5c0-0.1,0-0.2-0.1-0.2c0-0.1-0.1-0.2-0.2-0.4c-0.2-0.3-0.7-0.1-0.9,0.2
			c-0.2,0.2-0.3,0.4-0.4,0.7c-0.1,0.3-0.4,0.5-0.7,0.7c-0.4,0.3-0.8,0.6-0.7,1.2C16.6,25,17.2,25,17.6,24.7z"/>
		<path class="st9" d="M14.8,16.7c0.2,0.9,0.8,1.4,1.6,1.8c0.1,0,0.1,0,0.2,0c0.1,0,0.2,0,0.3-0.1c0.3-0.1,0.2-0.5,0-0.7
			c-0.1-0.2-0.3-0.3-0.4-0.4c-0.2-0.2-0.3-0.4-0.4-0.7c-0.2-0.3-0.3-0.7-0.8-0.7C14.8,15.9,14.7,16.3,14.8,16.7z"/>
		<path class="st9" d="M13.1,30.4c0.8-0.4,1.2-1.1,1.4-2c0-0.1,0-0.1-0.1-0.2c0-0.1-0.1-0.2-0.1-0.3c-0.2-0.2-0.6-0.1-0.7,0.1
			c-0.1,0.2-0.2,0.3-0.3,0.5c-0.1,0.2-0.3,0.4-0.5,0.6c-0.3,0.3-0.6,0.5-0.5,0.9C12.4,30.6,12.8,30.6,13.1,30.4z"/>
	</g>
	<g>
		<path class="st9" d="M-7.9,13.4c-1.1,0.4-1.8,1.2-2.2,2.3c0,0.1,0,0.2,0,0.2c0,0.1,0,0.2,0.1,0.4c0.2,0.3,0.7,0.2,0.9,0
			c0.2-0.2,0.3-0.4,0.5-0.6c0.2-0.3,0.5-0.5,0.8-0.6c0.4-0.3,0.9-0.5,0.9-1.1C-6.9,13.2-7.4,13.2-7.9,13.4z"/>
		<path class="st9" d="M1.5,16.9c1-0.5,1.6-1.5,1.8-2.5c0-0.1,0-0.2-0.1-0.2c0-0.1-0.1-0.2-0.2-0.4c-0.2-0.3-0.7-0.1-0.9,0.2
			c-0.2,0.2-0.3,0.4-0.4,0.6c-0.1,0.3-0.4,0.5-0.7,0.7c-0.4,0.3-0.8,0.6-0.7,1.2C0.5,17.1,1.1,17.1,1.5,16.9z"/>
		<path class="st9" d="M-1.3,8.8c0.2,0.9,0.8,1.4,1.6,1.8c0.1,0,0.1,0,0.2,0c0.1,0,0.2,0,0.3-0.1c0.3-0.1,0.2-0.5,0-0.7
			C0.7,9.7,0.6,9.6,0.4,9.5C0.2,9.3,0.1,9,0,8.8c-0.2-0.3-0.3-0.7-0.8-0.7C-1.3,8-1.4,8.5-1.3,8.8z"/>
		<path class="st9" d="M-3,22.5c0.8-0.4,1.2-1.1,1.4-2c0-0.1,0-0.1-0.1-0.2c0-0.1-0.1-0.2-0.1-0.3c-0.2-0.2-0.6-0.1-0.7,0.1
			c-0.1,0.2-0.2,0.3-0.3,0.5c-0.1,0.2-0.3,0.4-0.5,0.6c-0.3,0.3-0.6,0.5-0.5,0.9C-3.7,22.7-3.3,22.7-3,22.5z"/>
	</g>
	<g>
		<path class="st9" d="M-6.7,51.9c-1.1,0.4-1.8,1.2-2.2,2.3c0,0.1,0,0.2,0,0.2c0,0.1,0,0.2,0.1,0.4c0.2,0.3,0.7,0.2,0.9,0
			c0.2-0.2,0.3-0.4,0.5-0.6c0.2-0.3,0.5-0.5,0.8-0.6c0.4-0.3,0.9-0.5,0.9-1.1C-5.7,51.8-6.3,51.8-6.7,51.9z"/>
		<path class="st9" d="M2.7,55.5c1-0.5,1.6-1.5,1.8-2.5c0-0.1,0-0.2-0.1-0.2c0-0.1-0.1-0.2-0.2-0.4c-0.2-0.3-0.7-0.1-0.9,0.2
			C3.2,52.7,3.1,53,3,53.2c-0.1,0.3-0.5,0.5-0.7,0.7c-0.4,0.3-0.8,0.6-0.7,1.2C1.7,55.7,2.2,55.7,2.7,55.5z"/>
		<path class="st9" d="M-0.1,47.4c0.2,0.9,0.8,1.4,1.6,1.8c0.1,0,0.1,0,0.2,0c0.1,0,0.2,0,0.3-0.1c0.3-0.1,0.2-0.5,0-0.7
			c-0.1-0.2-0.3-0.3-0.4-0.4c-0.2-0.2-0.3-0.4-0.4-0.7c-0.2-0.3-0.3-0.7-0.8-0.7C-0.1,46.6-0.2,47-0.1,47.4z"/>
		<path class="st9" d="M-1.8,61.1c0.8-0.4,1.2-1.1,1.4-2c0-0.1,0-0.1-0.1-0.2c0-0.1-0.1-0.2-0.1-0.3c-0.2-0.2-0.6-0.1-0.7,0.1
			c-0.1,0.2-0.2,0.3-0.3,0.5c-0.1,0.2-0.3,0.4-0.5,0.6c-0.3,0.3-0.6,0.5-0.5,0.9C-2.6,61.3-2.1,61.3-1.8,61.1z"/>
	</g>
	<g>
		<path class="st9" d="M20.6,27.1c-0.7,0.3-1.2,0.8-1.5,1.5c0,0,0,0.1,0,0.1c0,0.1,0,0.2,0.1,0.3c0.1,0.2,0.5,0.1,0.6,0
			c0.1-0.1,0.2-0.3,0.3-0.4c0.1-0.2,0.4-0.3,0.5-0.4c0.3-0.2,0.6-0.3,0.6-0.7C21.3,27,20.9,27,20.6,27.1z"/>
		<path class="st9" d="M26.9,29.5c0.7-0.4,1.1-1,1.2-1.7c0-0.1,0-0.1-0.1-0.1c0-0.1,0-0.2-0.1-0.2c-0.2-0.2-0.5,0-0.6,0.1
			c-0.1,0.1-0.2,0.3-0.2,0.4c-0.1,0.2-0.3,0.4-0.5,0.5c-0.3,0.2-0.5,0.4-0.5,0.8C26.3,29.7,26.7,29.6,26.9,29.5z"/>
		<path class="st9" d="M25.1,24c0.1,0.6,0.6,1,1.1,1.2c0,0,0.1,0,0.1,0c0.1,0,0.1,0,0.2,0c0.2-0.1,0.1-0.4,0-0.5
			c-0.1-0.1-0.2-0.2-0.3-0.3C26,24.4,26,24.2,25.9,24c-0.1-0.2-0.2-0.5-0.5-0.5C25,23.5,25,23.8,25.1,24z"/>
		<path class="st9" d="M23.9,33.3c0.5-0.3,0.8-0.8,1-1.3c0,0,0-0.1,0-0.1c0-0.1,0-0.1-0.1-0.2c-0.1-0.2-0.4,0-0.5,0.1
			c-0.1,0.1-0.1,0.2-0.2,0.3c-0.1,0.2-0.2,0.3-0.4,0.4c-0.2,0.2-0.4,0.3-0.4,0.6C23.4,33.5,23.7,33.4,23.9,33.3z"/>
	</g>
	<g>
		<path class="st9" d="M35,13.9c-1.1,0.4-1.8,1.2-2.2,2.3c0,0.1,0,0.2,0,0.2c0,0.1,0,0.2,0.1,0.4c0.2,0.3,0.7,0.2,0.9,0
			c0.2-0.2,0.3-0.4,0.5-0.6c0.2-0.3,0.5-0.5,0.8-0.6c0.4-0.3,0.9-0.5,0.9-1.1C36,13.8,35.4,13.7,35,13.9z"/>
		<path class="st9" d="M44.4,17.4c1-0.5,1.6-1.5,1.8-2.5c0-0.1,0-0.2-0.1-0.2c0-0.1-0.1-0.2-0.2-0.4c-0.2-0.3-0.7-0.1-0.9,0.2
			c-0.2,0.2-0.3,0.4-0.4,0.7c-0.1,0.3-0.5,0.5-0.7,0.7c-0.4,0.3-0.8,0.6-0.7,1.2C43.4,17.7,43.9,17.6,44.4,17.4z"/>
		<path class="st9" d="M41.6,9.3c0.2,0.9,0.8,1.4,1.6,1.8c0.1,0,0.1,0,0.2,0c0.1,0,0.2,0,0.3-0.1c0.3-0.1,0.2-0.5,0-0.7
			c-0.1-0.2-0.3-0.3-0.4-0.4c-0.2-0.2-0.3-0.4-0.4-0.7C42.6,9,42.5,8.6,42,8.6C41.6,8.6,41.5,9,41.6,9.3z"/>
		<path class="st9" d="M39.9,23.1c0.8-0.4,1.2-1.1,1.4-2c0-0.1,0-0.1-0.1-0.2c0-0.1-0.1-0.2-0.1-0.3c-0.2-0.2-0.6-0.1-0.7,0.1
			c-0.1,0.2-0.2,0.3-0.3,0.5c-0.1,0.2-0.3,0.4-0.5,0.6c-0.3,0.3-0.6,0.5-0.5,0.9C39.1,23.3,39.5,23.2,39.9,23.1z"/>
	</g>
	<g>
		<path class="st9" d="M65.1-14.3C64-13.9,63.3-13,62.9-12c0,0.1,0,0.2,0,0.2c0,0.1,0,0.2,0.1,0.4c0.2,0.3,0.7,0.2,0.9,0
			c0.2-0.2,0.3-0.4,0.5-0.6c0.2-0.3,0.5-0.5,0.8-0.6c0.4-0.3,0.9-0.5,0.9-1.1C66.1-14.4,65.5-14.4,65.1-14.3z"/>
		<path class="st9" d="M74.4-10.7c1-0.5,1.6-1.5,1.8-2.5c0-0.1,0-0.2-0.1-0.2c0-0.1-0.1-0.2-0.2-0.4c-0.2-0.3-0.7-0.1-0.9,0.2
			c-0.2,0.2-0.3,0.4-0.4,0.6c-0.1,0.3-0.4,0.5-0.7,0.7c-0.4,0.3-0.8,0.6-0.7,1.2C73.5-10.5,74-10.5,74.4-10.7z"/>
		<path class="st9" d="M71.7-18.8c0.2,0.9,0.8,1.4,1.6,1.8c0.1,0,0.1,0,0.2,0c0.1,0,0.2,0,0.3-0.1c0.3-0.1,0.2-0.5,0-0.7
			c-0.1-0.2-0.3-0.3-0.4-0.4c-0.2-0.2-0.3-0.4-0.4-0.7c-0.2-0.3-0.3-0.7-0.8-0.7C71.6-19.6,71.6-19.2,71.7-18.8z"/>
		<path class="st9" d="M69.9-5.1c0.8-0.4,1.2-1.1,1.4-2c0-0.1,0-0.1-0.1-0.2c0-0.1-0.1-0.2-0.1-0.3c-0.2-0.2-0.6-0.1-0.7,0.1
			c-0.1,0.2-0.2,0.3-0.3,0.5c-0.1,0.2-0.3,0.4-0.5,0.6C69.3-6,69-5.8,69.1-5.3C69.2-4.9,69.6-4.9,69.9-5.1z"/>
	</g>
</g>
<path class="st0" d="M23.6,41.5c-0.4-1.9,9.2,6.7,18.4,4.7c9.2-2,14.4-13.8,14.8-11.9c0.4,1.9-5.2,11.9-14.4,13.8S24,43.4,23.6,41.5
	z"/>
<path class="st0" d="M43.1,14.8c-1.1-1.6,10.2,3.1,16.8-1.6s5.8-16.9,6.9-15.4s0.8,12.3-5.8,17S44.2,16.4,43.1,14.8z"/>
<path class="st0" d="M25.6,40c-0.4-1.1,7.2,4.4,12.5,0.9c12.2-8.2,21.2,15.8,19.2,13.8s-8-18-19-12C32.8,45.6,26,41,25.6,40z"/>
<path class="st0" d="M73.1,19.5c-0.4,1.2-6-0.9-3.7-9.7c2.3-8.8,13-9.4,13.7-16.2c0.7-7.4-5.5-6.5-4.8-7.7C79-15.4,85-13.7,84-6
	C83,1.7,74.4,4.2,71.6,9.6C67.8,16.7,73.5,18.3,73.1,19.5z"/>
<path class="st0" d="M168.3,37.1c0,0.8-5.5,4.5-11,4.5s-9-3.7-9-4.5c0-0.8,3.5,2.5,9,2.5S168.3,36.3,168.3,37.1z"/>
<g>
	<g>
		<path class="st0" d="M139.6,34.6c0.8-0.4,1.6-0.7,2.4-0.9c0.7-0.2,1.5-0.4,2.3-0.3c0.8,0.2,1.4,0.8,1.9,1.4c0.5,0.6,1,1.2,1.5,1.9
			c1.8,2.3,3.8,4.6,6.7,5.6c0.6,0.2,0.9-0.7,0.3-1c-3.2-1.2-5.2-4.1-7.2-6.6c-1-1.2-1.9-2.3-3.6-2.3c-1.6,0-3.2,0.7-4.7,1.4
			C138.6,34,139.1,34.9,139.6,34.6L139.6,34.6z"/>
	</g>
</g>
<g>
	<g>
		<path class="st0" d="M153.7,36c0.3-1,0.4-2.1,0.4-3.1c0-1.1,0-2.2-0.3-3.2c-0.4-1.6-1.6-3.1-3.2-3.5c-2.1-0.4-2.6,1.9-1.8,3.4
			c0.9,1.8,3,2.4,4.3,3.8c1.7,1.9,2.1,4.5,2.1,7c0,0.6,1,0.6,1,0c0-2.2-0.3-4.5-1.5-6.5c-0.5-0.8-1.2-1.5-2-2.1
			c-0.9-0.6-1.9-1.1-2.6-1.9c-0.4-0.4-0.7-0.9-0.7-1.5c-0.1-0.5,0.1-1.3,0.8-1.2c1,0,1.8,0.9,2.2,1.6c0.6,1,0.7,2.2,0.7,3.3
			c0,1.2-0.1,2.5-0.4,3.7C152.6,36.3,153.5,36.6,153.7,36L153.7,36z"/>
	</g>
</g>
<g>
	<g>
		<path class="st0" d="M108.5,48.7c-1.1-1.5-1-3.8-0.7-5.5c0.3-2,1.6-3.4,3-4.8c1.3-1.3,2.7-2.6,3.8-4.1c1-1.3,1.7-3.1,1-4.7
			c-0.8-1.9-3.1-2-4.9-1.9c-0.6,0-0.6,1,0,1c1.1-0.1,2.4-0.2,3.3,0.5c1,0.7,1,2.1,0.6,3.2c-0.9,2-2.8,3.6-4.4,5.2
			c-1.5,1.5-3,3.2-3.4,5.3c-0.3,2-0.4,4.6,0.8,6.3C108,49.7,108.9,49.2,108.5,48.7L108.5,48.7z"/>
	</g>
</g>
<g>
	<g>
		<path class="st0" d="M99.3,46.7c1.1-0.7,2.4-0.7,3.6-0.7c1.4,0,2.7,0.2,4.1,0.5c2.4,0.6,4.6,1.6,6.8,2.8c4,2.1,8.1,4.7,12.8,4.6
			c2.7,0,5.4-0.8,7.7-2.3c0.5-0.3,0-1.2-0.5-0.9c-2.1,1.4-4.6,2.1-7.1,2.1c-2.4,0-4.7-0.7-6.9-1.7c-4.3-1.9-8.1-4.8-12.8-5.8
			c-1.4-0.3-2.8-0.5-4.2-0.5c-1.4,0-2.8,0.1-3.9,0.8C98.3,46.1,98.8,47,99.3,46.7L99.3,46.7z"/>
	</g>
</g>
<g>
	<g>
		<path class="st0" d="M142.5,46c-3.6-0.6-6.9-2.4-9.2-5.2c-1.2-1.4-1.9-3.1-3.8-3.6c-0.8-0.2-1.7-0.2-2.6-0.2
			c-0.9,0-1.9,0.1-2.8,0.3c-1,0.2-2,0.5-2.9,1.1c-0.9,0.6-1.8,1.4-2.8,1.9c-0.6,0.3-0.1,1.1,0.5,0.9c1.7-0.8,2.9-2.3,4.8-2.8
			c0.9-0.2,1.9-0.3,2.9-0.3c0.9,0,1.8-0.1,2.6,0.2c1,0.3,1.6,1,2.1,1.8c0.5,0.7,1,1.4,1.5,2c1.1,1.3,2.5,2.3,4,3.2
			c1.7,0.9,3.5,1.6,5.3,1.9C142.8,47.1,143.1,46.1,142.5,46L142.5,46z"/>
	</g>
</g>
<g>
	<g>
		<path class="st0" d="M77.1,61.8c-0.1-0.8-0.6-1.4-1.1-2c-0.6-0.7-1.2-1.3-1.8-1.9c-1.3-1.2-2.6-2.4-3.9-3.6
			c-0.6-0.5-1.3-1.1-1.5-1.8c-0.2-0.6,0-1.6,0.8-1.5c0.7,0.1,1.3,0.9,1.6,1.5c0.3,0.6,0.5,1.3,0.7,2c0.4,1.5,0.8,3,1.9,4.2
			c0.4,0.5,1.1-0.2,0.7-0.7c-1.1-1.2-1.3-2.9-1.8-4.5c-0.4-1.4-1.2-3.3-2.8-3.5c-1.6-0.2-2.4,1.6-1.9,2.8c0.3,0.8,1,1.5,1.6,2.1
			c0.8,0.7,1.5,1.3,2.3,2c0.8,0.8,1.7,1.6,2.5,2.4c0.7,0.8,1.8,1.7,2,2.8C76.2,62.7,77.2,62.4,77.1,61.8L77.1,61.8z"/>
	</g>
</g>
<g>
	<g>
		<path class="st0" d="M78.9,59.3c-0.4-0.4-0.4-1.1-0.4-1.6c0-0.7-0.1-1.3,0-2c0.1-1.1,0.5-2.3,1.5-2.9c1-0.6,2.4-0.8,3.5-1
			c1.3-0.2,2.7-0.3,4-0.2c0.6,0,0.6-1,0-1c-1.6-0.1-3.1,0-4.6,0.3c-1.4,0.2-3,0.5-4,1.5c-1,0.9-1.3,2.3-1.4,3.6c0,0.7,0,1.5,0,2.3
			c0.1,0.7,0.2,1.3,0.7,1.8C78.6,60.5,79.3,59.8,78.9,59.3L78.9,59.3z"/>
	</g>
</g>
<g>
	<g>
		<path class="st0" d="M106.9,48.2c-4.4-2.5-9.2-4.2-14.2-4.8c-2.5-0.3-5.1-0.5-7.4,0.7c-1.1,0.6-2.1,1.4-3.1,2.2
			c-1,0.8-2,1.5-2.8,2.4c-1.9,2-3.4,4.3-5.6,6c-0.5,0.4,0.2,1.1,0.7,0.7c1.8-1.4,3.2-3.3,4.7-5c1.6-1.8,3.5-3.4,5.5-4.7
			c1-0.7,2.1-1.3,3.4-1.4c1.2-0.2,2.5-0.1,3.7,0c2.4,0.2,4.8,0.7,7.1,1.4c2.6,0.8,5.2,1.9,7.6,3.3C107,49.4,107.5,48.6,106.9,48.2
			L106.9,48.2z"/>
	</g>
</g>
<g>
	<g>
		<path class="st0" d="M60,66.8c-0.2-1.8-1.1-3.5-1.4-5.3c-0.2-0.9-0.3-1.9-0.2-2.8c0.1-1,1-1.4,1.8-1.7c3.7-1.2,7.9-0.3,11.6,0.6
			c0.6,0.2,0.9-0.8,0.3-1c-2.1-0.5-4.3-1-6.4-1.1c-2-0.1-4.3-0.1-6.2,0.8c-0.7,0.3-1.5,0.8-1.8,1.5c-0.4,0.8-0.2,2-0.1,2.8
			c0.1,1,0.3,2,0.6,3c0.3,1.1,0.8,2.1,0.9,3.2C59.1,67.4,60.1,67.4,60,66.8L60,66.8z"/>
	</g>
</g>
<g>
	<g>
		<path class="st0" d="M63.9,60.9c1.9-1.2,4-1.8,6.2-1.9c2.4,0,4.6,0.8,6.9,1c2.1,0.2,4.1-0.2,6-1.3c1.8-1,3.3-2.4,4.8-3.8
			c0.5-0.4-0.2-1.1-0.7-0.7c-1.5,1.4-3,2.8-4.8,3.8c-2,1.1-4.2,1.2-6.5,0.8c-2.2-0.4-4.3-1-6.5-0.8c-2.1,0.2-4.1,0.9-5.9,2
			C62.9,60.4,63.4,61.3,63.9,60.9L63.9,60.9z"/>
	</g>
</g>
<g>
	<g>
		<path class="st0" d="M57.9,26.5c0.9-0.2,1.8,0.2,2.8,0c0.9-0.1,1.5-0.8,2-1.5c1.1-1.6,1.6-3.6,1.9-5.5c0.3-2.2,0.3-4.3,0.4-6.5
			c0.1-2.1,0.2-4.3,2.1-5.5c1.9-1.3,4.4-1.3,6.6-2c0.6-0.2,0.3-1.2-0.3-1c-1.9,0.6-4,0.7-5.8,1.6c-1.6,0.7-2.8,2-3.2,3.8
			c-0.5,2.1-0.4,4.3-0.4,6.5c-0.1,2.1-0.3,4.2-1,6.1c-0.3,0.9-1,2.6-2,2.9c-1,0.3-2.1-0.2-3.1,0.1C57,25.6,57.2,26.6,57.9,26.5
			L57.9,26.5z"/>
	</g>
</g>
<g>
	<g>
		<path class="st0" d="M73.7,10.7c0.5,0,0.8,0.9,0.9,1.3c0.2,0.5,0.3,1,0.4,1.5c0.2,1.1,0.3,2.2,0.1,3.2C75,19,74,21,73.7,23.2
			c-0.3,1.9-0.2,4,1,5.6c1.1,1.5,2.7,2.4,4.3,3.3c0.6,0.3,1.1-0.6,0.5-0.9c-1.7-0.9-3.5-1.9-4.4-3.7c-1-2.1-0.3-4.5,0.3-6.6
			c0.6-2.2,1.2-4.3,1-6.6c-0.1-1.1-0.4-2.1-0.8-3.1c-0.3-0.7-0.8-1.4-1.7-1.5C73.1,9.7,73.1,10.7,73.7,10.7L73.7,10.7z"/>
	</g>
</g>
<g>
	<g>
		<path class="st0" d="M31.7,36.5c4.6-1.3,9.5-1.4,14.1-0.2c2.2,0.6,4.3,1.5,6.5,2.3c1.9,0.7,4.3,1.4,6.4,0.8c2-0.6,2.9-2.7,3.6-4.5
			c0.2-0.6-0.7-0.9-1-0.3c-0.6,1.6-1.4,3.7-3.4,3.9c-2.1,0.2-4.4-0.6-6.4-1.3c-2-0.8-4-1.6-6.2-2.1c-2.2-0.5-4.4-0.7-6.6-0.7
			c-2.5,0-5,0.4-7.4,1.1C30.8,35.7,31,36.6,31.7,36.5L31.7,36.5z"/>
	</g>
</g>
<g>
	<g>
		<path class="st0" d="M16.8,63.9c4.7-3.6,10.3-6.3,16.3-6.4c3.1-0.1,6,0.6,8.8,1.8c1.3,0.6,2.5,1.2,3.9,1.5
			c1.2,0.3,2.7,0.6,3.9,0.1c1.3-0.6,2-2.2,2.6-3.4c0.7-1.5,1.2-3.1,1.5-4.7c0.1-0.6-0.9-0.9-1-0.3c-0.3,1.5-0.7,2.9-1.3,4.3
			c-0.3,0.6-0.6,1.2-1,1.7c-0.4,0.6-0.8,1.3-1.5,1.6c-1.3,0.5-3.1-0.1-4.3-0.6c-1.3-0.5-2.5-1.1-3.8-1.6c-5.4-2.2-11.5-1.6-16.9,0.6
			c-2.9,1.2-5.6,2.9-8,4.8C15.6,63.6,16.3,64.3,16.8,63.9L16.8,63.9z"/>
	</g>
</g>
</svg>
