<?xml version="1.0" encoding="utf-8"?>
<!-- Generator: Adobe Illustrator 25.2.1, SVG Export Plug-In . SVG Version: 6.00 Build 0)  -->
<svg version="1.1" id="Layer_2" xmlns="http://www.w3.org/2000/svg" xmlns:xlink="http://www.w3.org/1999/xlink" x="0px" y="0px"
	 viewBox="0 0 200 200" style="enable-background:new 0 0 200 200;" xml:space="preserve">
<style type="text/css">
	.st0{fill:#3E0F09;}
	.st1{fill:#FF926C;}
	.st2{fill:#FFBE5F;}
	.st3{opacity:0.5;}
	.st4{fill:#E0DE9B;}
	.st5{opacity:0.3;fill:#F47D4A;enable-background:new    ;}
	.st6{fill:#5E3407;}
	.st7{fill:#994F0D;}
</style>
<g>
	<g>
		<path class="st0" d="M176.9,94.9c0.3-6.8,6.7-11.9,15.2-16.2c1.7-0.9,4-0.8,5.2,0.6c1.1,1.3,3,2.7,0,4.1
			c-4.7,2.1-8.8,4.7-12.3,7.6c-1.9,1.5-3.6,3.1-4.4,5c-0.3,0.7-0.2,1.9-2.1,1.7C176.7,97.4,176.3,96.4,176.9,94.9z"/>
	</g>
	<g>
		<path class="st1" d="M175.1,91.4c14.3,7.2,18,8.1,22.8,15c10.5,15.3,7.2,38.8-5,53c-11.3,13.1-25.9,19.7-42.8,20.6
			c-20.3,1.1-44.7-9-51.1-33.8c-1.4-5.4-2.2-13.4-0.9-19c1.6-7.3,3.1-12.1,6-19c9.2-19.5,19-21,21.2-22.2c-2,5.4-22.1,28.3-23,33.2
			c-1.5,8-2.2,15.9,2.1,23.5c2.1,3.7,5.3,5.9,9,7.3c2.5,0.9,3.6,2.7,5.1,4.7c5.6,6.9,10.8,10.5,18,11.8c20,2.8,37-3.6,50.5-18.5
			c10.2-11.2,14-24.3,9.4-39.2c-1.6-5.2-9.1-11.3-14.5-11.8C179.7,96.8,177.3,93.2,175.1,91.4z"/>
	</g>
	<g>
		<path class="st2" d="M101.1,127.6c-0.6-23.9,17.5-43.7,38.1-47.9c11.7-2.4,22.9-2.6,31.6,6.2c5.3,5.4,10.8,9.4,17.4,13
			c13.4,7.3,16.9,20.9,10.2,36.3c-8.6,20-24.1,30.6-45.5,33.4c-9.8,1.3-18.7,0-26.9-5.4c-2.2-1.5-4.6-3.3-5.9-5.6
			c-2.1-3.8-5.1-5.9-8.7-7.8C102.4,145.1,101.5,136.4,101.1,127.6z"/>
	</g>
	<g>
		<path class="st1" d="M-19.3,51.7c-0.3-15.3,5.3-28,17.1-37.8c4.5-3.8,9.8-4.9,15.5-3.5c3,0.7,5.9,1.9,8.7,3.2
			c2.8,1.3,5.3,1.6,8.5,0.8c8-1.9,15.1,1.3,21.3,6.1c14,10.8,20.9,25.6,23.5,42.7c1.7,11.4,0.7,22.3-3.6,33
			c-1.7,4.2-4.2,8.1-7.7,11.1c-4,3.5-8.8,5-13.8,3.8c-5.7-1.3-11-0.7-16.3,1c-8.6,2.6-15.8-1.3-22.8-5.3
			C-6.4,96.7-14.7,80.3-18.5,61C-19.2,57.9-19.2,54.8-19.3,51.7z M34.3,95c2,0.5,3.7,1.2,5.5,1.5c19.1,3.5,30.1-6.8,31-24.3
			c0.1-1.7-0.7-3.3-0.8-5c-0.7-9.9-5-18.6-9.2-27.3c-2.1-4.3-5.6-7.6-9.1-10.6c-3.1-2.7-4.6-7.5-10.3-7.3c-1.7,0-4-2.2-6.3-1.6
			c-5.4,1.4-10.1-0.8-15.1-2.3c-10.1-3.1-17.6-2-21.6,8.9c-3.4,9.2-3.9,18.9-1.8,28.5c2,9.2,7.2,16.8,13.3,23.7
			c6,6.8,13.1,12,22.1,15.1C33.5,94.4,33.5,94.4,34.3,95z"/>
	</g>
	<g>
		<path class="st2" d="M-7.9,42.3C-8.1,34.8-6.8,28.4-4,22.1c3.6-8.4,13-11.6,20.2-9.6c1.4,0.4,2.8,0.7,4.1,1.3
			c4,2.3,8.1,2.3,12.7,1.8C43.3,14.5,50.6,20.7,57,28c9.4,10.7,15.1,23.1,16.9,37.2c1.8,14.2,0.1,27.7-10.3,38.7
			c-3.9,4-8.4,5.7-13.9,3.5c-2.1-0.9-4.4-1.6-6.7-0.7c-8.1,3.2-15,0-21.1-4.6C8.2,91.8-0.4,77.7-5.2,61.4C-7,55-8.4,48.4-7.9,42.3z"
			/>
	</g>
	<g class="st3">
		<path class="st4" d="M180.2,143.6c20.1-22.7,17.4-34.8,8.1-44.7c13.4,7.3,16.9,20.9,10.2,36.3c-8.6,20-24.1,30.6-45.5,33.4
			c-9.8,1.3-18.7,0-26.9-5.4c-2.2-1.5-4.6-3.3-5.9-5.6c-2.1-3.8-5.1-5.9-8.7-7.8C126.7,157,160.1,166.3,180.2,143.6z"/>
	</g>
	<path class="st5" d="M164.3,105.6c0,0-8.7-5.4-18.5-1.1c-2.1,0.9-13.7,8.3-13.7,19c0,7.2,1.3,10.7,9.4,13.4
		c8,2.7,16.2,0.4,20.1-6.7C165.3,123.1,171.1,109.8,164.3,105.6z"/>
	<path class="st6" d="M136.1,113.1c-6.9,8.1-6.2,15.1-0.3,20.8c4,3.8,10.6,5.6,18.7,0c8.1-5.6,11.8-18.8,9.7-25
		C162,102.4,143.1,105.1,136.1,113.1z"/>
	<path class="st5" d="M31.2,37.1c-4,0.4-3.9,3.8-7.2,7.1c-1.5,1.5-6,19.3,2.4,26.9c5.6,5.1,12.5,5.8,19.7,2.1
		c7.2-3.7,3.1-19.3-1.2-26.5C40.3,39.1,35.2,36.7,31.2,37.1z"/>
</g>
<path class="st7" d="M135.8,133.9c4,3.8,10.6,5.6,18.7,0c8.1-5.6,11.8-18.8,9.7-25C162,102.4,166.4,138.3,135.8,133.9z"/>
</svg>
