<?xml version="1.0" encoding="utf-8"?>
<!-- Generator: Adobe Illustrator 25.2.1, SVG Export Plug-In . SVG Version: 6.00 Build 0)  -->
<svg version="1.1" id="Layer_3" xmlns="http://www.w3.org/2000/svg" xmlns:xlink="http://www.w3.org/1999/xlink" x="0px" y="0px"
	 viewBox="0 0 200 200" style="enable-background:new 0 0 200 200;" xml:space="preserve">
<style type="text/css">
	.st0{fill:#3E0F09;}
	.st1{fill:#FF926C;}
	.st2{clip-path:url(#SVGID_2_);fill:#FF926C;}
	.st3{opacity:0.37;clip-path:url(#SVGID_5_);}
	.st4{opacity:0.5;fill:#FFB5A1;enable-background:new    ;}
</style>
<g>
	<path class="st0" d="M103.7,66.3c2.5-6.2,3.9-11.4,1.8-18c-1.4-5-5.2-12.1-11.2-12.1c-1.6,0-2.5,1.6-2.3,3
		c0.7,4.1,4.6,7.8,6.2,11.6c2.1,4.1,3.6,10.3,2.7,14.8C100.8,67.5,103,67.9,103.7,66.3L103.7,66.3z"/>
</g>
<g>
	<g>
		<path id="SVGID_3_" class="st1" d="M69.7,57.2c-4.3,1.6-8,4.6-11.2,7.8c-10.5,10.9-15.3,26.9-13.7,42s9.1,29.2,20.3,39.7
			c3.9,3.6,8.4,6.8,13.2,9.1c7.5,3.2,15.7,3.6,24,4.1c11.4,0.7,23.3,1.1,33.5-3.9c10-4.8,17.1-14.4,20.8-24.9
			c3.6-10.5,6.4-24.6,5.7-35.6c-0.9-12.5-2.7-22.1-11.4-31.5c-4.8-5-14.8-9.4-21.9-9.8c-7.1-0.5-10.3,3-16,5
			C99.2,64.3,84.1,51.9,69.7,57.2z"/>
	</g>
	<g>
		<defs>
			<path id="SVGID_1_" d="M69.7,57.2c-4.3,1.6-8,4.6-11.2,7.8c-10.5,10.9-15.3,26.9-13.7,42s9.1,29.2,20.3,39.7
				c3.9,3.6,8.4,6.8,13.2,9.1c7.5,3.2,15.7,3.6,24,4.1c11.4,0.7,23.3,1.1,33.5-3.9c10-4.8,17.1-14.4,20.8-24.9
				c3.6-10.5,6.4-24.6,5.7-35.6c-0.9-12.5-2.7-22.1-11.4-31.5c-4.8-5-14.8-9.4-21.9-9.8c-7.1-0.5-10.3,3-16,5
				C99.2,64.3,84.1,51.9,69.7,57.2z"/>
		</defs>
		<clipPath id="SVGID_2_">
			<use xlink:href="#SVGID_1_"  style="overflow:visible;"/>
		</clipPath>
		<path class="st2" d="M69.7,57.2c-4.3,1.6-8,4.6-11.2,7.8c-10.5,10.9-15.3,26.9-13.7,42s9.1,29.2,20.3,39.7
			c3.9,3.6,8.4,6.8,13.2,9.1c7.5,3.2,15.7,3.6,24,4.1c11.4,0.7,23.3,1.1,33.5-3.9c10-4.8,17.1-14.4,20.8-24.9
			c3.6-10.5,6.4-24.6,5.7-35.6c-0.9-12.5-2.7-22.1-11.4-31.5c-4.8-5-14.8-9.4-21.9-9.8c-7.1-0.5-10.3,3-16,5
			C99.2,64.3,84.1,51.9,69.7,57.2z"/>
	</g>
	<g>
		<defs>
			<path id="SVGID_4_" d="M69.7,57.2c-4.3,1.6-8,4.6-11.2,7.8c-10.5,10.9-15.3,26.9-13.7,42s9.1,29.2,20.3,39.7
				c3.9,3.6,8.4,6.8,13.2,9.1c7.5,3.2,15.7,3.6,24,4.1c11.4,0.7,23.3,1.1,33.5-3.9c10-4.8,17.1-14.4,20.8-24.9
				c3.6-10.5,6.4-24.6,5.7-35.6c-0.9-12.5-2.7-22.1-11.4-31.5c-4.8-5-14.8-9.4-21.9-9.8c-7.1-0.5-10.3,3-16,5
				C99.2,64.3,84.1,51.9,69.7,57.2z"/>
		</defs>
		<clipPath id="SVGID_5_">
			<use xlink:href="#SVGID_4_"  style="overflow:visible;"/>
		</clipPath>
		<g class="st3">
			<g>
				<path class="st1" d="M86.9,53.3c-0.5-1.1-1.4-3.6-3.4-5c-2.7-1.8-6.2-2.5-9.4-2.5c-6.8,0-13,2.5-18.2,6.8
					c-10.5,8.7-15.1,23.5-16,36.5c-2.1,24.6,10,53.1,29.4,68.4c6.4,5,13.5,8.4,21.2,10.7c3.9,1.1,8,1.8,11.9,1.6
					c2.1,0,4.3-0.2,6.4-0.7c1.8-0.5,3.2-1.6,4.8-2.5c3-1.6,3.2-5.7,1.1-8.2c0.7,1.8,0.7,1.6-0.2-0.5c-0.5-0.9-1.1-1.6-2.1-2.3
					c-1.4-1.1-2.5-1.8-4.1-2.5c-3.4-1.6-6.8-3-10.3-4.1c-5.7-1.8-11.2-3.6-15.7-7.5c-9.4-7.8-16.2-19.6-19.6-31s-3.9-24,0.2-35.1
					c1.8-5,5-9.6,9.6-12.5c2.5-1.6,4.8-2.7,7.5-3.6c1.4-0.5,3-0.9,4.1-1.6c0.7-0.5,1.1-0.9,1.6-1.4c0.5-0.5,0.7-0.7,0.5,0
					C87.1,55.8,87.3,54.5,86.9,53.3L86.9,53.3z"/>
			</g>
		</g>
	</g>
</g>
<path class="st4" d="M123.8,64c-5.9,5.5-6.8,14.4-4.8,21.9c0.2,1.1,0.7,2.5,1.1,3.6c0.9,5.9,3,11.6,7.8,15.5
	c5.9,4.8,14.1,5.9,20.5,1.1c6.6-5.2,7.5-13.9,5.7-21.7C151.2,72.9,137.7,51,123.8,64z"/>
</svg>
