<?xml version="1.0" encoding="utf-8"?>
<!-- Generator: Adobe Illustrator 25.2.1, SVG Export Plug-In . SVG Version: 6.00 Build 0)  -->
<svg version="1.1" id="Layer_2" xmlns="http://www.w3.org/2000/svg" xmlns:xlink="http://www.w3.org/1999/xlink" x="0px" y="0px"
	 viewBox="0 0 200 200" style="enable-background:new 0 0 200 200;" xml:space="preserve">
<style type="text/css">
	.st0{fill:#E8C92E;}
	.st1{fill:#735233;}
	.st2{fill:#D1C024;}
	.st3{fill:#FAECAB;}
	.st4{fill:#63442A;}
	.st5{clip-path:url(#SVGID_4_);}
	.st6{fill:#FFF1B6;}
	.st7{fill:#F2DF8F;}
	.st8{fill:#EFD97D;}
	.st9{opacity:0.39;}
	.st10{fill:#FBE5B6;}
	.st11{opacity:0.26;}
	.st12{fill:#44260E;}
	.st13{fill:#6D3A17;}
	.st14{fill:#FFFFFF;}
	.st15{fill:#754118;}
	.st16{fill:#9E5421;}
	.st17{clip-path:url(#SVGID_8_);}
</style>
<path class="st0" d="M153.5,202.3c2.9,0.1,10.1,1.5,23.1-3.8c8.5-3.5,14.1-10.3,18-16.1c5.2-7.7,6.4-25.6,6.6-34.9
	c0.2-9.3-0.6-18.6,1.2-27.7c0.8-4.3,2.2-8.5,3.2-12.8c0.9-3.7,1.4-7.6,1.7-11.4c0.2-2.9,0.2-5.9-0.5-8.7c-1.2-5.1-4.4-9.5-7.7-13.6
	c-2.1-2.6-4.3-5.2-7.2-6.8c-5-2.7-16.8-4-23.7,1.6c-4.4,3.5-0.7,7.3-3.4,12.2c-9.1,16.2-11.7,35.1-17.9,52.7
	c-3.1,8.8-7.1,17.4-9.5,26.4c-2.4,9.1-3.1,18.9,0.5,27.6c1.2,2.9-2.5,9.5,0.2,11.2C141.1,200.1,150.1,202.2,153.5,202.3z"/>
<g>
	<path class="st1" d="M185.9,77.7c9.2-7.9,11.1-22.3,7.4-33.3c-1.8-5.5-4.9-10.5-9-14.6c-3-3-10.1-9.8-14.6-7.2
		c-1.1,0.6-1.6,1.9-1.4,3.1c0.6,2.6,2.7,3.2,4.8,4.4c2.2,1.3,4.2,2.8,6,4.5c3.3,3.3,6.1,7.3,7.7,11.7c3.8,10.2,1.2,20.5-2.8,30.1
		C183.6,77.7,185.1,78.4,185.9,77.7L185.9,77.7z"/>
</g>
<g>
	<defs>
		<path id="SVGID_1_" d="M153.5,202.3c2.9,0.1,10.1,1.5,23.1-3.8c8.5-3.5,14.1-10.3,18-16.1c5.2-7.7,6.4-25.6,6.6-34.9
			c0.2-9.3-0.6-18.6,1.2-27.7c0.8-4.3,2.2-8.5,3.2-12.8c0.9-3.7,1.4-7.6,1.7-11.4c0.2-2.9,0.2-5.9-0.5-8.7
			c-1.2-5.1-4.4-9.5-7.7-13.6c-2.1-2.6-4.3-5.2-7.2-6.8c-5-2.7-16.8-4-23.7,1.6c-4.4,3.5-0.7,7.3-3.4,12.2
			c-9.1,16.2-11.7,35.1-17.9,52.7c-3.1,8.8-7.1,17.4-9.5,26.4c-2.4,9.1-3.1,18.9,0.5,27.6c1.2,2.9-2.5,9.5,0.2,11.2
			C141.1,200.1,150.1,202.2,153.5,202.3z"/>
	</defs>
	<clipPath id="SVGID_2_">
		<use xlink:href="#SVGID_1_"  style="overflow:visible;"/>
	</clipPath>
</g>
<path class="st2" d="M153.1,76.5c-4.7,5-8.4,10.9-13.8,15.2c-4.4,3.6-9.6,5.9-14.4,8.9c-14.6,9.3-24.2,26.1-24.9,43.4
	c-0.3,7.8,1.3,16.1,6.5,21.9c3.2,3.6,7.7,6.1,10.3,10.2c2.3,3.4,3,7.6,4.7,11.4c3.1,6.7,9.4,11.7,16.5,13.9
	c7.1,2.2,14.8,1.7,21.9-0.6c9.2-3,17.5-9.3,22.2-17.8c3.8-6.8,5.2-14.6,6.4-22.2c3.5-22.6,8.8-45.4,6.8-68.2
	c-1.1-12.4-5.8-11.2-8.8-13.7c-3.4-2.8-5.8-6.3-8.9-9.4C171,62.7,158,71.2,153.1,76.5z"/>
<path class="st3" d="M152.9,78.1c-4.5,4.8-8.1,10.5-13.3,14.7c-4.2,3.4-9.3,5.6-13.9,8.6c-14.1,9-23.3,25.1-23.9,41.7
	c-0.3,7.5,1.3,15.5,6.3,21.1c3.1,3.5,7.4,5.9,9.9,9.8c2.2,3.3,2.9,7.3,4.5,10.9c3,6.5,9.1,11.3,15.9,13.4c6.8,2.1,14.3,1.7,21.1-0.6
	c8.9-2.9,16.9-8.9,21.4-17.1c3.6-6.5,5-14,6.1-21.4c3.4-21.7,8.5-43.7,6.6-65.6c-1-12-5.6-10.8-8.5-13.1c-3.3-2.7-5.6-6-8.6-9.1
	C170,64.9,157.6,73.1,152.9,78.1z"/>
<path class="st4" d="M169.7,22.7c-0.8,0.5-1.3,1.3-1.4,2.2c4.1,2.7,8.7,4.8,12.3,8.2c4.3,4,7.2,9.1,8.7,14.7
	c1.6,5.8,1.7,11.7,0.3,17.6c-0.7,3-1.7,5.9-2.7,8.8c-0.5,1.2-0.8,2.4-1.1,3.6c0,0,0,0,0,0c9.2-7.9,11.1-22.3,7.4-33.3
	c-1.8-5.5-4.9-10.5-9-14.6C181.3,26.8,174.3,20,169.7,22.7z"/>
<g>
	<defs>
		<path id="SVGID_3_" d="M152.9,78.1c-4.5,4.8-8.1,10.5-13.3,14.7c-4.2,3.4-9.3,5.6-13.9,8.6c-14.1,9-23.3,25.1-23.9,41.7
			c-0.3,7.5,1.3,15.5,6.3,21.1c3.1,3.5,7.4,5.9,9.9,9.8c2.2,3.3,2.9,7.3,4.5,10.9c3,6.5,9.1,11.3,15.9,13.4
			c6.8,2.1,14.3,1.7,21.1-0.6c8.9-2.9,16.9-8.9,21.4-17.1c3.6-6.5,5-14,6.1-21.4c3.4-21.7,8.5-43.7,6.6-65.6
			c-1-12-5.6-10.8-8.5-13.1c-3.3-2.7-5.6-6-8.6-9.1C170,64.9,157.6,73.1,152.9,78.1z"/>
	</defs>
	<clipPath id="SVGID_4_">
		<use xlink:href="#SVGID_3_"  style="overflow:visible;"/>
	</clipPath>
	<g class="st5">
		<path class="st6" d="M113.2,191.4c20.7-13.4,35.2-35,49.1-54.9c6.9-9.9,13.8-19.8,21.4-29.2c3.5-4.3,7.2-8.5,11.5-11.9
			c4.2-3.4,10.7-5.8,12-11.7c0.5-2.3-0.1-4.9-2.3-6.1c-6.3-3.6-12.8,0.6-17.8,4.4c-4.6,3.5-8.5,7.6-12.2,12.1
			c-8.1,9.9-15.4,20.4-22.6,31.1c-7,10.5-13.9,21.1-21,31.6c-7.2,10.6-14.5,20.9-20.1,32.5C110.6,190.5,111.8,192.3,113.2,191.4
			L113.2,191.4z"/>
	</g>
	<g class="st5">
		<path class="st7" d="M97.8,178.1c5-0.2,10.3,4.8,14.3,2c4.5-3.2,7.1-11.3,10.9-15.3c8.1-8.4,14-20.5,22.1-28.8
			c16.6-17.1,26.1-38.2,37.8-57.6c3.2-5.2,7.9-9.9,9.5-16c0.9-3.6,0.8-7,0.2-10.7c-0.4-2.7-1-6.7-2.5-8.9c-1-1.5-2.7-2.5-4.5-2
			c-5.7,1.5-7.1,8.7-8,13.7c-0.8,4.9,4.1,10.1,1.2,14c-6.6,8.9-13.3,17.8-20,26.5c-6.7,8.7-16,18.8-21.7,28.2
			c-5.8,9.5-13.9,19.9-20.1,29.2c-3.2,4.9-5.3,13.1-8.9,17.7c-3.5,4.3-9.7,1.3-11.1,6.8C96.8,177.4,97.2,178.1,97.8,178.1
			L97.8,178.1z"/>
	</g>
	<g class="st5">
		<path class="st8" d="M107.4,189.2c9-8.8,16.6-18.5,24.6-28.2c8-9.7,16.7-22.4,24.5-32.2c7.8-9.8,11.1-19.4,18.4-29.6
			c3.5-5,7.7-16.3,11-21.5c3.1-4.9,10.8-1.7,9.7-7.8c-0.4-2.3-3.1-2.9-5-2.1c-5.4,2.3-8,9.7-10.9,14.3c-3.4,5.4-6.9,10.7-10.5,15.9
			c-7,10-14,24-21.5,33.7c-14.9,19.2-33.7,45.8-41.4,56.9C105.8,189.1,106.9,189.7,107.4,189.2L107.4,189.2z"/>
	</g>
	<g class="st5">
		<path class="st6" d="M114.8,175.9c3.3-2.2,2.3-6.2,0.5-9.2c-1.1-1.9-2.8-3.3-3.9-5.2c-1.3-2.1-2.3-4.5-3-6.8
			c-2.8-9.8,0.4-20.2,5.2-28.8c2.3-4.2,5-7.8,9-10.6c3.8-2.7,8.1-4.7,12.3-6.9c4.4-2.3,8.7-4.7,12.6-7.9c4.1-3.3,7.2-7.7,10-12.1
			c2.9-4.6,5.5-9.5,10-12.8c1.8-1.3,3.3-2.1,5.6-1.8c2.8,0.4,5.5,1.7,8.3,1.6c1.6-0.1,2.4-1.3,2.2-2.8c-0.8-5.7-7-9.2-12.2-9.8
			c-6-0.6-11.6,1.3-16.2,5.2c-4.6,3.9-7.5,9.2-10.8,14.2c-2.6,4.1-5.7,7.3-9.8,9.9c-9.1,5.6-19.7,9-26.8,17.3
			c-7.9,9.3-13.3,22.5-12.8,34.9c0.3,6.4,1.9,13,5.5,18.3c1.7,2.6,3.9,4.7,6.3,6.6c2.1,1.7,5.8,3.3,6.8,6
			C113.7,175.9,114.3,176.3,114.8,175.9L114.8,175.9z"/>
	</g>
	<g class="st5">
		<path class="st7" d="M116.3,178.3c0.1,2.5,1.2,4.5,1.8,6.9c0.8,2.9,1.6,5.8,3.3,8.3c3.6,5.5,9.9,9.1,16.2,10.8
			c13.1,3.4,28.5-0.9,38.9-9.3c5.7-4.6,8.6-11.7,11.2-18.4c2.6-6.8,4.6-13.8,6-20.9c1.5-7.4,2.4-14.8,3.8-22.2
			c1.4-7.3,3.9-14.1,5.9-21.2c2.3-7.9,2.7-15.6-0.5-23.2c-2.7-6.5-8.3-13-15.2-15.1c-2.8-0.9-5.8,1.8-5,4.7c1.4,5,4.6,9.5,6.9,14.1
			c2.3,4.7,2.3,9.4,0.9,14.4c-1.6,6-3.9,11.8-5.3,18c-1.4,6.5-2.4,13-3.4,19.6c-1.9,12-4.8,24.6-10.3,35.5c-2.6,5-6.9,7.4-11.8,9.8
			c-5,2.4-10.2,4.1-15.9,3.7c-5.4-0.3-12-2.2-15-7.1c-2.4-3.9-4.9-10.9-10.4-10.5C117.5,176.2,116.2,177,116.3,178.3L116.3,178.3z"
			/>
	</g>
</g>
<g class="st9">
	<path class="st10" d="M131.7,174.4c2.5,2,5.1,2.9,8.2,3.4c0.6,0.1,1.2,0.2,1.8,0.3c-1.3-0.5-0.7-0.4,1.8,0.3
		c1.7,0.3,3.6,0.1,5.3-0.1c5.8-0.7,11.6-3.7,16-7.5c4.9-4.3,8.9-9.7,10.9-15.9c1.1-3.4,1.8-7,2.4-10.5c0.6-3.9,1.7-7.9,0.9-11.8
		c-1.1-5.8-6.3-10-12.3-9c-6.1,1-9.1,6.4-10.3,11.8c-0.7,3.3-1.1,6.8-1.7,10.1c-0.3,1.4-0.4,1.7-0.1,0.8c-0.2,0.7-0.5,1.4-0.7,2.1
		c-0.2,0.5-2.1,3.9-0.7,1.7c-0.7,1.1-1.4,2.2-2.2,3.2c-0.2,0.2-2.3,2.4-0.6,0.8c-1.8,1.8-3.9,3.3-6,4.7c2.6-1.9-3.8,2.4-1.8,1.2
		c-1,0.5-2,1.1-2.9,1.7c-0.9,0.5-1,0.7-0.3,0.4c-2.2,1.1-4.3,1.5-6.6,2.6C128.9,166.7,128.4,171.7,131.7,174.4L131.7,174.4z"/>
</g>
<g class="st11">
	<path class="st10" d="M117.5,144.3c3.6-2.9,3.9-9,6.5-12.8c1.2-1.7,2.8-3,4.5-4.4c0.8-0.6,1.6-1.3,2.3-2c0.7-0.7,1.3-1.5,1.9-2.3
		c0.7-2,0.9-2.5,0.8-1.5c2.2-3.4,0.4-8.4-3.6-9.5c-8.9-2.4-16.8,4.1-20.4,12c-2.9,6.4-4.4,18.3,3.8,21.5
		C114.9,145.8,116.4,145.2,117.5,144.3L117.5,144.3z"/>
</g>
<g>
	<path class="st12" d="M142.4,154.1c-0.3,2.9,1.8,5.4,4.7,5.7c2.9,0.3,5.4-1.8,5.7-4.7s-4.3-10.5-4.3-10.5S142.7,151.2,142.4,154.1z
		"/>
	<path class="st13" d="M144.6,153.2c-0.3,1.2,0.4,2.3,1.6,2.6c1.2,0.3,2.3-0.4,2.6-1.6c0.3-1.2-1.1-4.5-1.1-4.5
		S144.8,152,144.6,153.2z"/>
	<path class="st14" d="M145.1,155.2c-0.1,0.6,0.4,1.2,1,1.3c0.6,0.1,1.2-0.4,1.3-1c0.1-0.6-0.4-1.2-1-1.3
		C145.8,154.1,145.2,154.6,145.1,155.2z"/>
</g>
<g>
	<path class="st15" d="M131.8,139.3c-2.2,1.4-2.9,4.4-1.4,6.7c1.4,2.2,4.4,2.9,6.7,1.4c2.2-1.4,5.2-9.1,5.2-9.1
		S134.1,137.9,131.8,139.3z"/>
	<path class="st16" d="M133.7,140.4c-1,0.5-1.4,1.6-1,2.6c0.5,1,1.6,1.4,2.6,1c1-0.5,2.7-3.4,2.7-3.4S134.7,139.9,133.7,140.4z"/>
	<path class="st14" d="M132.6,142c-0.5,0.3-0.6,1-0.3,1.5c0.3,0.5,1,0.6,1.5,0.3c0.5-0.3,0.6-1,0.3-1.5
		C133.7,141.8,133,141.7,132.6,142z"/>
</g>
<path class="st0" d="M53.6,123.1c-2.9,0.1-10.1,1.5-23.1-3.8c-8.5-3.5-14.1-10.3-18-16.1c-5.2-7.7-6.4-25.6-6.6-34.9
	c-0.2-9.3,0.6-18.6-1.2-27.7c-0.8-4.3-2.2-8.5-3.2-12.8C0.6,24,0,20.2-0.3,16.4c-0.2-2.9-0.2-5.9,0.5-8.7C1.4,2.6,4.6-1.8,7.9-5.9
	c2.1-2.6,4.3-5.2,7.2-6.8c5-2.7,16.8-4,23.7,1.6c4.4,3.5,0.7,7.3,3.4,12.2C51.4,17.3,54,36.3,60.2,53.8c3.1,8.8,7.1,17.4,9.5,26.4
	c2.4,9.1,3.1,18.9-0.5,27.6c-1.2,2.9,2.5,9.5-0.2,11.2C66,120.9,57,123,53.6,123.1z"/>
<g>
	<defs>
		<path id="SVGID_5_" d="M53.6,123.1c-2.9,0.1-10.1,1.5-23.1-3.8c-8.5-3.5-14.1-10.3-18-16.1c-5.2-7.7-6.4-25.6-6.6-34.9
			c-0.2-9.3,0.6-18.6-1.2-27.7c-0.8-4.3-2.2-8.5-3.2-12.8C0.6,24,0,20.2-0.3,16.4c-0.2-2.9-0.2-5.9,0.5-8.7C1.4,2.6,4.6-1.8,7.9-5.9
			c2.1-2.6,4.3-5.2,7.2-6.8c5-2.7,16.8-4,23.7,1.6c4.4,3.5,0.7,7.3,3.4,12.2C51.4,17.3,54,36.3,60.2,53.8c3.1,8.8,7.1,17.4,9.5,26.4
			c2.4,9.1,3.1,18.9-0.5,27.6c-1.2,2.9,2.5,9.5-0.2,11.2C66,120.9,57,123,53.6,123.1z"/>
	</defs>
	<clipPath id="SVGID_6_">
		<use xlink:href="#SVGID_5_"  style="overflow:visible;"/>
	</clipPath>
</g>
<path class="st2" d="M54-2.7c4.7,5,8.4,10.9,13.8,15.2c4.4,3.6,9.6,5.9,14.4,8.9c14.6,9.3,24.2,26.1,24.9,43.4
	c0.3,7.8-1.3,16.1-6.5,21.9c-3.2,3.6-7.7,6.1-10.3,10.2c-2.3,3.4-3,7.6-4.7,11.4C82.3,115,76,120,69,122.2
	c-7.1,2.2-14.8,1.7-21.9-0.6c-9.2-3-17.5-9.3-22.2-17.8c-3.8-6.8-5.2-14.6-6.4-22.2C15,59,9.7,36.2,11.7,13.4
	c1.1-12.4,5.8-11.2,8.8-13.7c3.4-2.8,5.8-6.3,8.9-9.4C36.1-16.5,49.1-7.9,54-2.7z"/>
<path class="st3" d="M54.2-1c4.5,4.8,8.1,10.5,13.3,14.7c4.2,3.4,9.3,5.6,13.9,8.6c14.1,9,23.3,25.1,23.9,41.7
	c0.3,7.5-1.3,15.5-6.3,21.1c-3.1,3.5-7.4,5.9-9.9,9.8c-2.2,3.3-2.9,7.3-4.5,10.9c-3,6.5-9.1,11.3-15.9,13.4
	c-6.8,2.1-14.3,1.7-21.1-0.6c-8.9-2.9-16.9-8.9-21.4-17.1c-3.6-6.5-5-14-6.1-21.4c-3.4-21.7-8.5-43.7-6.6-65.6
	c1-12,5.6-10.8,8.5-13.1c3.3-2.7,5.6-6,8.6-9.1C37.1-14.3,49.5-6.1,54.2-1z"/>
<g>
	<defs>
		<path id="SVGID_7_" d="M54.2-1c4.5,4.8,8.1,10.5,13.3,14.7c4.2,3.4,9.3,5.6,13.9,8.6c14.1,9,23.3,25.1,23.9,41.7
			c0.3,7.5-1.3,15.5-6.3,21.1c-3.1,3.5-7.4,5.9-9.9,9.8c-2.2,3.3-2.9,7.3-4.5,10.9c-3,6.5-9.1,11.3-15.9,13.4
			c-6.8,2.1-14.3,1.7-21.1-0.6c-8.9-2.9-16.9-8.9-21.4-17.1c-3.6-6.5-5-14-6.1-21.4c-3.4-21.7-8.5-43.7-6.6-65.6
			c1-12,5.6-10.8,8.5-13.1c3.3-2.7,5.6-6,8.6-9.1C37.1-14.3,49.5-6.1,54.2-1z"/>
	</defs>
	<clipPath id="SVGID_8_">
		<use xlink:href="#SVGID_7_"  style="overflow:visible;"/>
	</clipPath>
	<g class="st17">
		<path class="st6" d="M93.9,112.2c-20.7-13.4-35.2-35-49.1-54.9C37.9,47.5,31,37.5,23.4,28.2c-3.5-4.3-7.2-8.5-11.5-11.9
			c-4.2-3.4-10.7-5.8-12-11.7C-0.6,2.3,0-0.3,2.2-1.5C8.5-5.1,15-0.9,20,2.9c4.6,3.5,8.5,7.6,12.2,12.1c8.1,9.9,15.4,20.4,22.6,31.1
			c7,10.5,13.9,21.1,21,31.6c7.2,10.6,14.5,20.9,20.1,32.5C96.5,111.4,95.3,113.1,93.9,112.2L93.9,112.2z"/>
	</g>
	<g class="st17">
		<path class="st7" d="M109.3,98.9c-5-0.2-10.3,4.8-14.3,2c-4.5-3.2-7.1-11.3-10.9-15.3c-8.1-8.4-14-20.5-22.1-28.8
			C45.4,39.6,35.9,18.6,24.2-0.8c-3.2-5.2-7.9-9.9-9.5-16c-0.9-3.6-0.8-7-0.2-10.7c0.4-2.7,1-6.7,2.5-8.9c1-1.5,2.7-2.5,4.5-2
			c5.7,1.5,7.1,8.7,8,13.7c0.8,4.9-4.1,10.1-1.2,14c6.6,8.9,13.3,17.8,20,26.5c6.7,8.7,16,18.8,21.7,28.2C75.9,53.6,84,64,90.1,73.3
			c3.2,4.9,5.3,13.1,8.9,17.7c3.5,4.3,9.7,1.3,11.1,6.8C110.3,98.3,109.9,98.9,109.3,98.9L109.3,98.9z"/>
	</g>
	<g class="st17">
		<path class="st8" d="M99.7,110c-9-8.8-16.6-18.5-24.6-28.2c-8-9.7-16.7-22.4-24.5-32.2C42.8,39.8,39.5,30.2,32.2,20
			c-3.5-5-7.7-16.3-11-21.5c-3.1-4.9-10.8-1.7-9.7-7.8c0.4-2.3,3.1-2.9,5-2.1c5.4,2.3,8,9.7,10.9,14.3c3.4,5.4,6.9,10.7,10.5,15.9
			c7,10,14,24,21.5,33.7c14.9,19.2,33.7,45.8,41.4,56.9C101.3,109.9,100.2,110.5,99.7,110L99.7,110z"/>
	</g>
	<g class="st17">
		<path class="st6" d="M92.3,96.8c-3.3-2.2-2.3-6.2-0.5-9.2c1.1-1.9,2.8-3.3,3.9-5.2c1.3-2.1,2.3-4.5,3-6.8
			c2.8-9.8-0.4-20.2-5.2-28.8c-2.3-4.2-5-7.8-9-10.6c-3.8-2.7-8.1-4.7-12.3-6.9c-4.4-2.3-8.7-4.7-12.6-7.9c-4.1-3.3-7.2-7.7-10-12.1
			c-2.9-4.6-5.5-9.5-10-12.8c-1.8-1.3-3.3-2.1-5.6-1.8c-2.8,0.4-5.5,1.7-8.3,1.6c-1.6-0.1-2.4-1.3-2.2-2.8c0.8-5.7,7-9.2,12.2-9.8
			c6-0.6,11.6,1.3,16.2,5.2c4.6,3.9,7.5,9.2,10.8,14.2c2.6,4.1,5.7,7.3,9.8,9.9c9.1,5.6,19.7,9,26.8,17.3
			c7.9,9.3,13.3,22.5,12.8,34.9c-0.3,6.4-1.9,13-5.5,18.3c-1.7,2.6-3.9,4.7-6.3,6.6c-2.1,1.7-5.8,3.3-6.8,6
			C93.4,96.7,92.9,97.1,92.3,96.8L92.3,96.8z"/>
	</g>
	<g class="st17">
		<path class="st7" d="M90.8,99.1c-0.1,2.5-1.2,4.5-1.8,6.9c-0.8,2.9-1.6,5.8-3.3,8.3c-3.6,5.5-9.9,9.1-16.2,10.8
			c-13.1,3.4-28.5-0.9-38.9-9.3c-5.7-4.6-8.6-11.7-11.2-18.4c-2.6-6.8-4.6-13.8-6-20.9c-1.5-7.4-2.4-14.8-3.8-22.2
			c-1.4-7.3-3.9-14.1-5.9-21.2C1.3,25.3,1,17.6,4.1,10C6.8,3.5,12.5-3,19.3-5.2c2.8-0.9,5.8,1.8,5,4.7c-1.4,5-4.6,9.5-6.9,14.1
			c-2.3,4.7-2.3,9.4-0.9,14.4c1.6,6,3.9,11.8,5.3,18c1.4,6.5,2.4,13,3.4,19.6c1.9,12,4.8,24.6,10.3,35.5c2.6,5,6.9,7.4,11.8,9.8
			c5,2.4,10.2,4.1,15.9,3.7c5.4-0.3,12-2.2,15-7.1c2.4-3.9,4.9-10.9,10.4-10.5C89.7,97,90.9,97.8,90.8,99.1L90.8,99.1z"/>
	</g>
</g>
<g class="st9">
	<path class="st10" d="M75.5,95.2c-2.5,2-5.1,2.9-8.2,3.4c-0.6,0.1-1.2,0.2-1.8,0.3c1.3-0.5,0.7-0.4-1.8,0.3
		c-1.7,0.3-3.6,0.1-5.3-0.1c-5.8-0.7-11.6-3.7-16-7.5c-4.9-4.3-8.9-9.7-10.9-15.9c-1.1-3.4-1.8-7-2.4-10.5
		c-0.6-3.9-1.7-7.9-0.9-11.8c1.1-5.8,6.3-10,12.3-9c6.1,1,9.1,6.4,10.3,11.8c0.7,3.3,1.1,6.8,1.7,10.1c0.3,1.4,0.4,1.7,0.1,0.8
		c0.2,0.7,0.5,1.4,0.7,2.1c0.2,0.5,2.1,3.9,0.7,1.7c0.7,1.1,1.4,2.2,2.2,3.2c0.2,0.2,2.3,2.4,0.6,0.8c1.8,1.8,3.9,3.3,6,4.7
		c-2.6-1.9,3.8,2.4,1.8,1.2c1,0.5,2,1.1,2.9,1.7c0.9,0.5,1,0.7,0.3,0.4c2.2,1.1,4.3,1.5,6.6,2.6C78.2,87.5,78.7,92.5,75.5,95.2
		L75.5,95.2z"/>
</g>
<g class="st11">
	<path class="st10" d="M89.6,65.1c-3.6-2.9-3.9-9-6.5-12.8c-1.2-1.7-2.8-3-4.5-4.4c-0.8-0.6-1.6-1.3-2.3-2c-0.7-0.7-1.3-1.5-1.9-2.3
		c-0.7-2-0.9-2.5-0.8-1.5c-2.2-3.4-0.4-8.4,3.6-9.5c8.9-2.4,16.8,4.1,20.4,12c2.9,6.4,4.4,18.3-3.8,21.5
		C92.2,66.7,90.7,66,89.6,65.1L89.6,65.1z"/>
</g>
<g>
	<path class="st12" d="M57.9,62.1c0.3,2.9-1.8,5.4-4.7,5.7c-2.9,0.3-5.4-1.8-5.7-4.7c-0.3-2.9,4.3-10.5,4.3-10.5
		S57.6,59.3,57.9,62.1z"/>
	<path class="st13" d="M55.7,61.3c0.3,1.2-0.4,2.3-1.6,2.6c-1.2,0.3-2.3-0.4-2.6-1.6c-0.3-1.2,1.1-4.5,1.1-4.5S55.5,60.1,55.7,61.3z
		"/>
	<path class="st14" d="M55.1,63.3c0.1,0.6-0.4,1.2-1,1.3c-0.6,0.1-1.2-0.4-1.3-1c-0.1-0.6,0.4-1.2,1-1.3
		C54.5,62.2,55.1,62.7,55.1,63.3z"/>
</g>
<g>
	<path class="st15" d="M72.7,55.9c2.2,1.4,2.9,4.4,1.4,6.7c-1.4,2.2-4.4,2.9-6.7,1.4c-2.2-1.4-5.2-9.1-5.2-9.1S70.5,54.5,72.7,55.9z
		"/>
	<path class="st16" d="M70.9,56.9c1,0.5,1.4,1.6,1,2.6s-1.6,1.4-2.6,1c-1-0.5-2.7-3.4-2.7-3.4S69.8,56.5,70.9,56.9z"/>
	<path class="st14" d="M72,58.6c0.5,0.3,0.6,1,0.3,1.5c-0.3,0.5-1,0.6-1.5,0.3c-0.5-0.3-0.6-1-0.3-1.5C70.8,58.4,71.5,58.2,72,58.6z
		"/>
</g>
<g>
	<path class="st15" d="M60.8,42.3c2.2,1.4,2.9,4.4,1.4,6.7c-1.4,2.2-4.4,2.9-6.7,1.4c-2.2-1.4-5.2-9.1-5.2-9.1S58.6,40.8,60.8,42.3z
		"/>
	<path class="st16" d="M58.9,43.3c1,0.5,1.4,1.6,1,2.6c-0.5,1-1.6,1.4-2.6,1c-1-0.5-2.7-3.4-2.7-3.4S57.9,42.9,58.9,43.3z"/>
	<path class="st14" d="M60.1,44.9c0.5,0.3,0.6,1,0.3,1.5c-0.3,0.5-1,0.6-1.5,0.3c-0.5-0.3-0.6-1-0.3-1.5
		C58.9,44.8,59.6,44.6,60.1,44.9z"/>
</g>
</svg>
