<?xml version="1.0" encoding="utf-8"?>
<!-- Generator: Adobe Illustrator 25.2.1, SVG Export Plug-In . SVG Version: 6.00 Build 0)  -->
<svg version="1.1" id="Layer_3" xmlns="http://www.w3.org/2000/svg" xmlns:xlink="http://www.w3.org/1999/xlink" x="0px" y="0px"
	 viewBox="0 0 200 200" style="enable-background:new 0 0 200 200;" xml:space="preserve">
<style type="text/css">
	.st0{fill:#E8C92E;}
	.st1{fill:none;}
	.st2{opacity:0.2;fill:#FFF2A4;}
	.st3{fill:#F9C850;}
	.st4{fill:#66462B;}
	.st5{fill:#D6B425;}
	.st6{fill:#735233;}
</style>
<path class="st0" d="M71.3,54.9c-2.4,3.4-3.8,7.3-5.4,11.1c-6.7,16.2-16.5,31-22.9,47.4s-9.1,35.3-1.4,51.1
	c3.5,7.3,9.1,13.4,15.2,18.6c4.6,4,9.7,7.6,15.3,9.9c6.8,2.8,14.4,3.7,21.8,3.5c17.9-0.6,39.2-5.2,51.2-18.5
	c5.4-6,11-12.7,13.9-20.3c4.4-11.5,5-16.5,5.6-23.4c0.8-10.7-2.1-15.8-6.5-23c-7-11.5-20-18.1-28-28.9c-4.8-6.4-7.7-14-11.8-20.8
	c-4.3-7-11.7-15.3-20.4-16.5C88.4,43.9,76.9,47.1,71.3,54.9z"/>
<path class="st1" d="M71.3,54.9c-2.4,3.4-3.8,7.3-5.4,11.1c-6.7,16.2-16.5,31-22.9,47.4s-9.1,35.3-1.4,51.1
	c3.5,7.3,9.1,13.4,15.2,18.6c4.6,4,9.7,7.6,15.3,9.9c6.8,2.8,14.4,3.7,21.8,3.5c17.9-0.6,39.2-5.2,51.2-18.5
	c5.4-6,11-12.7,13.9-20.3c4.4-11.5,5-16.5,5.6-23.4c0.8-10.7-2.1-15.8-6.5-23c-7-11.5-20-18.1-28-28.9c-4.8-6.4-7.7-14-11.8-20.8
	c-4.3-7-11.7-15.3-20.4-16.5C88.4,43.9,76.9,47.1,71.3,54.9z"/>
<path class="st1" d="M71.3,54.9c-2.4,3.4-3.8,7.3-5.4,11.1c-6.7,16.2-16.5,31-22.9,47.4s-9.1,35.3-1.4,51.1
	c3.5,7.3,9.1,13.4,15.2,18.6c4.6,4,9.7,7.6,15.3,9.9c6.8,2.8,14.4,3.7,21.8,3.5c17.9-0.6,39.2-5.2,51.2-18.5
	c5.4-6,11-12.7,13.9-20.3c4.4-11.5,5-16.5,5.6-23.4c0.8-10.7-2.1-15.8-6.5-23c-7-11.5-20-18.1-28-28.9c-4.8-6.4-7.7-14-11.8-20.8
	c-4.3-7-11.7-15.3-20.4-16.5C88.4,43.9,76.9,47.1,71.3,54.9z"/>
<path class="st2" d="M147,119.3c-3.2-6.1-8-11.2-13.1-16c-4.1-4.7-8.1-9.5-10.9-15.1c-2.6-5-3.7-10.5-6.2-15.5
	c-3.5-6.9-11.4-11.7-18.9-7.1C84.6,73.7,92.9,91,99,100.8c3.2,5.2,6.9,10,11.2,14.3c3.9,3.9,8,7.5,10.3,12.7
	c4.4,9.6,0.5,25.3,14,28.8c2.4,0.6,4.4,0.6,6.2,0.2c5.8-0.3,11.7-3.5,13.9-10C157.9,137.6,152.6,127.4,147,119.3z"/>
<ellipse class="st3" cx="52.1" cy="135.6" rx="2.5" ry="4"/>
<ellipse transform="matrix(0.9141 -0.4055 0.4055 0.9141 -46.1309 31.2508)" class="st3" cx="50.7" cy="124.5" rx="2.5" ry="4"/>
<ellipse class="st3" cx="114.6" cy="171.1" rx="1" ry="2.5"/>
<ellipse class="st3" cx="110.1" cy="167.1" rx="1.5" ry="2.5"/>
<ellipse transform="matrix(0.9972 -7.506784e-02 7.506784e-02 0.9972 -12.4453 5.1366)" class="st3" cx="62.1" cy="168.1" rx="3.5" ry="5.5"/>
<ellipse class="st3" cx="70.6" cy="179.1" rx="1" ry="2.5"/>
<ellipse class="st3" cx="86.1" cy="57.6" rx="1.5" ry="3"/>
<ellipse class="st3" cx="79.6" cy="64.6" rx="2" ry="4"/>
<ellipse class="st3" cx="85.1" cy="88.6" rx="1.5" ry="3"/>
<ellipse class="st3" cx="63.6" cy="100.6" rx="1" ry="2"/>
<path class="st4" d="M91.5,44c-1.8-5.8-4.3-11.5-7.5-16.7c-3.2-5.1-7-10-11.4-14.2c-2.8-2.7-7-6.5-11.2-7.2c-0.7,1.8-0.3,4,1.9,5.4
	c7.9,4.9,14.4,10.4,19.2,18.6c2.6,4.4,4.2,8.6,4.6,13.6c0.4,4.5,0.9,7.6,4,11c0.3,0.4,0.9,0.1,0.9-0.4c0.2-2,0.5-4,0.8-5.9
	C92.4,46.8,91.9,45.3,91.5,44z"/>
<ellipse class="st5" cx="91.1" cy="52.6" rx="8.5" ry="3"/>
<g>
	<path class="st6" d="M92,54.2c0.5-5.4,2-10.4,1.2-16c-0.6-4.8-2.7-9.5-5-13.7C83.7,16,76.7,7.6,67.9,3.3c-5.3-2.6-9.8,4.8-4.7,8
		c7.9,4.9,14.4,10.4,19.2,18.6c2.6,4.4,4.2,8.6,4.6,13.6c0.4,4.5,0.9,7.6,4,11C91.5,54.9,92,54.6,92,54.2L92,54.2z"/>
</g>
</svg>
