<?xml version="1.0" encoding="utf-8"?>
<!-- Generator: Adobe Illustrator 25.2.1, SVG Export Plug-In . SVG Version: 6.00 Build 0)  -->
<svg version="1.1" id="Layer_3" xmlns="http://www.w3.org/2000/svg" xmlns:xlink="http://www.w3.org/1999/xlink" x="0px" y="0px"
	 viewBox="0 0 200 200" style="enable-background:new 0 0 200 200;" xml:space="preserve">
<style type="text/css">
	.st0{fill:#004F24;}
	.st1{clip-path:url(#SVGID_2_);}
	.st2{opacity:0.46;fill:#FFFFFF;enable-background:new    ;}
	.st3{fill:#185130;}
	.st4{clip-path:url(#SVGID_5_);}
	.st5{fill:#003417;}
	.st6{opacity:0.46;clip-path:url(#SVGID_7_);}
	.st7{fill:#FFFFFF;}
	.st8{fill:#2A6A4D;}
	.st9{clip-path:url(#SVGID_9_);}
	.st10{fill:#E1923B;}
	.st11{fill:#E1B56E;}
	.st12{opacity:0.5;}
	.st13{fill:#926849;}
	.st14{fill:#2A7E51;}
	.st15{fill:#A1692A;}
	.st16{fill:#A18250;}
	.st17{fill:#3D2B1E;}
	.st18{fill:#B6782F;}
	.st19{fill:#B6945A;}
	.st20{fill:#533C2A;}
	.st21{fill:#A86D2C;}
	.st22{fill:#A88753;}
	.st23{fill:#443123;}
	.st24{fill:#BE7B32;}
	.st25{fill:#BE995E;}
	.st26{fill:#4F3728;}
	.st27{fill:#A66C2B;}
	.st28{fill:#A68552;}
	.st29{fill:#422F21;}
	.st30{fill:#D08737;}
	.st31{fill:#D0A767;}
	.st32{fill:#A27252;}
	.st33{fill:#BB7A30;}
	.st34{fill:#BB975D;}
	.st35{fill:#3F2D20;}
	.st36{fill:#815C41;}
	.st37{fill:#E3943C;}
	.st38{fill:#E3B770;}
	.st39{fill:#946A4B;}
	.st40{fill:#C48034;}
	.st41{fill:#C49F61;}
	.st42{fill:#875F43;}
	.st43{fill:#EB993E;}
	.st44{fill:#EBBD74;}
	.st45{fill:#9C6E4E;}
	.st46{fill:#DF923A;}
	.st47{fill:#DFB46D;}
	.st48{fill:#906648;}
	.st49{fill:#935918;}
	.st50{fill:#937139;}
	.st51{fill:#2D1E12;}
	.st52{fill:#CB8636;}
	.st53{fill:#CBA564;}
	.st54{fill:#7E593F;}
	.st55{fill:#106130;}
	.st56{fill:#327C59;}
	.st57{fill:#246A44;}
	.st58{fill:#257249;}
	.st59{fill:#31925F;}
	.st60{fill:#2A7F52;}
	.st61{fill:#237846;}
	.st62{fill:none;}
	.st63{clip-path:url(#SVGID_11_);}
	.st64{clip-path:url(#SVGID_13_);}
	.st65{fill:#1D5536;}
	.st66{clip-path:url(#SVGID_15_);}
	.st67{clip-path:url(#SVGID_17_);}
	.st68{clip-path:url(#SVGID_19_);}
	.st69{clip-path:url(#SVGID_21_);}
	.st70{clip-path:url(#SVGID_23_);}
	.st71{fill:#245A40;}
	.st72{fill:#125741;}
	.st73{clip-path:url(#SVGID_25_);}
	.st74{fill:#24734D;}
	.st75{clip-path:url(#SVGID_27_);}
	.st76{fill:#368962;}
	.st77{clip-path:url(#SVGID_29_);}
	.st78{clip-path:url(#SVGID_31_);}
	.st79{opacity:0.46;clip-path:url(#SVGID_33_);}
	.st80{opacity:0.46;clip-path:url(#SVGID_35_);}
	.st81{opacity:0.22;clip-path:url(#SVGID_37_);}
	.st82{opacity:0.38;clip-path:url(#SVGID_39_);}
	.st83{fill:#246D45;}
	.st84{fill:#1C6139;}
	.st85{opacity:0.38;clip-path:url(#SVGID_41_);}
	.st86{fill:#196A3B;}
	.st87{clip-path:url(#SVGID_43_);}
	.st88{clip-path:url(#SVGID_45_);}
	.st89{fill:#1D5838;}
	.st90{clip-path:url(#SVGID_47_);}
	.st91{fill:#2A8254;}
	.st92{clip-path:url(#SVGID_49_);}
	.st93{clip-path:url(#SVGID_51_);}
	.st94{fill:#2E8B59;}
	.st95{clip-path:url(#SVGID_53_);}
</style>
<g>
	<g>
		<path id="SVGID_4_" class="st0" d="M150.5-53.1c-3.4,0.3-4.7,2.2-7.3,4.2c-2.5,2.2-5.3,4.2-7.8,6.1c-5.3,4.5-10.1,8.9-14.2,14.2
			c-4.5,5.6-8.4,11.4-11.4,17.9c-3.4,7.3-8.4,18.1-1.1,24.6c3.4,3.1,8.4,3.6,12.6,1.1c4.2-2.5,5.6-7.5,7-11.7
			c2.2-6.4,4.5-12.8,6.7-19.3c2.2-6.4,5-12.8,8.1-19c1.4-2.8,2.2-7,4.2-9.5c2-2.8,2.2-4.7,4.2-7.5C152.2-52.9,151.6-53.1,150.5-53.1
			L150.5-53.1z"/>
	</g>
	<g>
		<defs>
			<path id="SVGID_1_" d="M150.5-53.1c-3.4,0.3-4.7,2.2-7.3,4.2c-2.5,2.2-5.3,4.2-7.8,6.1c-5.3,4.5-10.1,8.9-14.2,14.2
				c-4.5,5.6-8.4,11.4-11.4,17.9c-3.4,7.3-8.4,18.1-1.1,24.6c3.4,3.1,8.4,3.6,12.6,1.1c4.2-2.5,5.6-7.5,7-11.7
				c2.2-6.4,4.5-12.8,6.7-19.3c2.2-6.4,5-12.8,8.1-19c1.4-2.8,2.2-7,4.2-9.5c2-2.8,2.2-4.7,4.2-7.5
				C152.2-52.9,151.6-53.1,150.5-53.1L150.5-53.1z"/>
		</defs>
		<clipPath id="SVGID_2_">
			<use xlink:href="#SVGID_1_"  style="overflow:visible;"/>
		</clipPath>
		<g class="st1">
			<path class="st2" d="M153.6-55.4c-5,0.6-7.8,5.3-10.6,8.9c-3.4,4.7-6.4,10.1-9.2,15.1c-3.1,5.6-5.9,11.2-8.9,16.5
				c-1.4,2.2-5,7.5-2.2,10.1c6.7,5.9,15.9-16.2,17.6-19.8c2.8-5.6,5.9-11.2,8.9-16.5c2.2-4.2,6.4-8.9,5.6-14
				C154.7-55.1,154.1-55.4,153.6-55.4L153.6-55.4z"/>
		</g>
	</g>
</g>
<g>
	<g>
		<path id="SVGID_00000000930600436261056150000003984630455971472015_" class="st3" d="M118.1-55.9c1.4,4.2-0.6,10.9-2.2,14.5
			c-2,5-6.7,8.4-8.1,13.4c-1.1,4.2,3.1,9.5,7.8,7.8c7-2.8,10.9-11.4,12.3-18.7c0.6-3.6-0.3-4.7-1.4-8.4c-1.1-3.4-3.9-8.4-5.6-10.9
			C119.2-60.4,117-58.7,118.1-55.9L118.1-55.9z"/>
	</g>
	<g>
		<defs>
			<path id="SVGID_3_" d="M118.1-55.9c1.4,4.2-0.6,10.9-2.2,14.5c-2,5-6.7,8.4-8.1,13.4c-1.1,4.2,3.1,9.5,7.8,7.8
				c7-2.8,10.9-11.4,12.3-18.7c0.6-3.6-0.3-4.7-1.4-8.4c-1.1-3.4-3.9-8.4-5.6-10.9C119.2-60.4,117-58.7,118.1-55.9L118.1-55.9z"/>
		</defs>
		<clipPath id="SVGID_5_">
			<use xlink:href="#SVGID_3_"  style="overflow:visible;"/>
		</clipPath>
		<g class="st4">
			<path class="st2" d="M118.7-61c-2.2,2.8,0.3,5.6,1.7,8.7c2,5,2,10.6,0.8,15.9c-1.1,5.6-3.4,10.6-6.1,15.6c-2,3.9-5.9,9.5-4.2,14
				c0.6,1.1,1.4,1.7,2.5,1.4c5-1.1,8.1-8.1,10.3-12.3c2.8-5.6,5.6-11.7,6.4-18.1c0.8-5.3,0.3-10.6-2-15.6c-2-4.7-4.5-7.5-8.9-9.8
				C119.2-61.5,118.7-61.5,118.7-61L118.7-61z"/>
		</g>
	</g>
</g>
<g>
	<g>
		<path id="SVGID_00000070812453541421124880000009412054270722970537_" class="st5" d="M76.8-55.9c1.1,3.6,1.1,7.8,0.6,11.4
			c-0.6,3.6,0.6,9.2,1.4,12.6c2,8.1,2.5,16.2,10.3,20.7c4.5,2.5,12,0.6,13.1-5.3c1.1-6.1-1.1-10.9-4.5-15.9c-2.5-3.6-5.3-7-7.8-10.6
			c-3.4-4.5-6.7-12-12.3-13.7C77.3-57,76.8-56.5,76.8-55.9L76.8-55.9z"/>
	</g>
	<g>
		<defs>
			<path id="SVGID_6_" d="M76.8-55.9c1.1,3.6,1.1,7.8,0.6,11.4c-0.6,3.6,0.6,9.2,1.4,12.6c2,8.1,2.5,16.2,10.3,20.7
				c4.5,2.5,12,0.6,13.1-5.3c1.1-6.1-1.1-10.9-4.5-15.9c-2.5-3.6-5.3-7-7.8-10.6c-3.4-4.5-6.7-12-12.3-13.7
				C77.3-57,76.8-56.5,76.8-55.9L76.8-55.9z"/>
		</defs>
		<clipPath id="SVGID_7_">
			<use xlink:href="#SVGID_6_"  style="overflow:visible;"/>
		</clipPath>
		<g class="st6">
			<path class="st7" d="M75.7-60.4c-1.4,2.8,1.4,5.9,2.8,8.4c2.5,4.5,4.7,8.9,6.1,13.7c1.4,4.2,2.5,8.7,3.4,13.1
				c0.8,4.5,0.8,9.8,4.5,13.1c2,1.7,5.6,2,7-0.8c4.2-9.2-0.6-23.5-5.6-31.8c-2.8-5.3-6.7-9.5-11.2-13.1
				C82.1-58.4,76.8-62.9,75.7-60.4L75.7-60.4z"/>
		</g>
	</g>
</g>
<g>
	<g>
		<path id="SVGID_00000117648039157171724030000008101593880753521579_" class="st8" d="M177.8-12.1c-0.6-2-17,0-19.3,0.6
			c-4.5,0.8-8.7,1.7-12.6,3.4c-8.1,3.4-17,7.8-23.2,14.2c-9.8,10.1,7,23.7,15.4,12c4.5-6.1,8.1-11.4,14.5-15.6
			c3.1-2,6.4-3.9,9.8-5.3C164.2-3.4,178.1-11,177.8-12.1z"/>
	</g>
	<g>
		<defs>
			<path id="SVGID_8_" d="M177.8-12.1c-0.6-2-17,0-19.3,0.6c-4.5,0.8-8.7,1.7-12.6,3.4c-8.1,3.4-17,7.8-23.2,14.2
				c-9.8,10.1,7,23.7,15.4,12c4.5-6.1,8.1-11.4,14.5-15.6c3.1-2,6.4-3.9,9.8-5.3C164.2-3.4,178.1-11,177.8-12.1z"/>
		</defs>
		<clipPath id="SVGID_9_">
			<use xlink:href="#SVGID_8_"  style="overflow:visible;"/>
		</clipPath>
		<g class="st9">
			<path class="st2" d="M181.5-13.2c-2.5-1.4-4.2-0.8-6.7,0.3c-3.6,1.4-7,3.1-10.6,4.5c-6.4,2.8-13.4,5.6-19.5,9.5
				c-5,3.1-9.5,7-13.4,11.7c-3.1,3.6-7.5,8.7-5.3,13.4c0.3,0.8,1.4,1.4,2.5,1.4c5-0.6,7-6.4,9.8-9.8c3.6-4.2,7.8-7.5,12.6-10.3
				c5.6-3.1,11.7-5.6,17.6-8.4c4.5-2,12.8-4.2,14-9.5C182.9-11.5,182.3-12.7,181.5-13.2L181.5-13.2z"/>
		</g>
	</g>
</g>
<g>
	<path class="st10" d="M155.8,80.9c-0.6-2-1.4-3.6-2.5-4.7c-0.8-1.1-5.3-5.6-6.4-7c-1.7-2.2-4.2-2-5,0.6c-1.1,1.7-1.7,4.5-2.8,6.1
		c-1.7,2.8-1.4,4.7-0.3,8.9c0.8,3.1,2,8.4,4.2,10.6c1.1,1.1,2.2,1.4,3.4,2c1.4,0.8,2.8,2,3.9,3.4c2,2,3.9,0.3,4.5-2.2
		c0.6-3.1,1.7-5,3.1-7.5C158.9,88.7,155.8,81.7,155.8,80.9z"/>
	<path class="st11" d="M152.7,82.3c-0.3-1.1-0.8-2.2-1.4-3.1s-3.6-3.6-4.2-4.5c-1.1-1.4-2.8-1.4-3.4,0.3c-0.8,1.1-1.1,3.1-1.7,4.2
		c-1.1,2-1.1,3.1-0.3,5.9c0.6,2.2,1.4,5.3,2.8,7c0.6,0.8,1.4,0.8,2.2,1.4c0.8,0.6,1.7,1.4,2.5,2.2c1.4,1.4,2.5,0,2.8-1.4
		c0.3-2,1.1-3.4,2-5C154.7,87.3,152.7,82.8,152.7,82.3z"/>
	<g class="st12">
		<path class="st13" d="M148.5,89.8L148.5,89.8L148.5,89.8z"/>
		<path class="st13" d="M151.9,81.7c-1.1-1.1-2.5-1.1-3.6-0.3c-0.6-1.1-1.4-2.2-2-2.8c-0.3-0.3-0.8-0.3-0.8,0.6
			c-0.3,1.1,0,2.2,0,3.4c-0.3,0-0.6-0.3-0.6-0.3c-0.8-0.3-2.8-0.6-2.5,1.4c0,0.6,0.6,1.4,1.1,2s1.1,1.4,1.7,1.7l0.3,0.3
			c0,1.1,0,2.8,0.8,3.6c0.6,0.6,1.1,0.8,1.4,0.6c0.3-0.3,0.6-0.8,0.8-1.4l0.3-0.6l0,0c0.3,0,0.6,0,0.8,0s0.3,0.3,0.6,0.3
			c0.3,0.3,0.8,0.3,1.1,0.3c0.3,0,0.6,0,1.1,0s1.1-1.1,0.3-2c-0.3-0.3-0.6-1.1-1.1-1.4c0.3-0.6,0.6-1.1,0.6-1.4
			C152.7,84.5,153,82.5,151.9,81.7z"/>
	</g>
	<g class="st12">
		<path class="st13" d="M148,87.6L148,87.6C148,87.6,148.3,87.6,148,87.6z"/>
		<path class="st13" d="M149.6,83.9c-0.6-0.6-1.1-0.6-1.7,0c-0.3-0.6-0.6-1.1-0.8-1.1c-0.3,0-0.3,0-0.3,0.3c0,0.6,0,1.1,0,1.7h-0.3
			c-0.3,0-1.4-0.3-1.1,0.6c0,0.3,0.3,0.6,0.6,0.8c0.3,0.3,0.6,0.6,0.8,0.8l0,0c0,0.6,0,1.1,0.3,1.7c0.3,0.3,0.6,0.3,0.6,0.3
			c0.3,0,0.3-0.3,0.3-0.6c0,0,0-0.3,0.3-0.3l0,0h0.3c0,0,0.3,0,0.3,0.3c0.3,0,0.3,0.3,0.6,0.3c0.3,0,0.3,0,0.6,0
			c0.3,0,0.6-0.6,0.3-0.8c-0.3-0.3-0.3-0.6-0.6-0.6c0-0.3,0.3-0.6,0.3-0.6C149.9,85.3,150.2,84.5,149.6,83.9z"/>
	</g>
</g>
<g>
	<path class="st14" d="M145.5,51.6c-2-2.5-3.6-4.7-6.4-5.9c-3.9-1.7-7.3-1.7-11.2-3.4c-5.3-2.5-14-0.3-15.6,5.9
		c-1.4,5.3,2.8,12.3,8.9,11.7c8.9-0.8,25.4,6.1,32.7,12.6C154.7,73.1,154.1,61.6,145.5,51.6z"/>
</g>
<g>
	<path class="st15" d="M67.3,136.1c0-2.2-0.3-4.2-1.4-5.9c-0.8-1.4-5.3-7.5-6.1-9.5c-1.4-2.8-5.3-3.4-7-0.8
		c-2.2,1.7-3.9,4.5-5.9,6.1c-3.1,2.8-3.9,4.7-3.6,9.5c0.3,3.9-0.3,9.8,1.7,12.8c0.8,1.7,2.5,2.2,3.6,3.1c1.7,1.4,3.1,3.1,4.2,4.7
		c2,2.8,5.3,1.4,6.7-1.1c2-3.1,4.2-5.3,6.7-7.3C68.7,145.6,67.3,137,67.3,136.1z"/>
	<path class="st16" d="M62.8,136.7c0-1.4-0.3-2.8-0.8-3.9c-0.6-0.8-3.6-5-4.2-6.1c-0.8-2-3.4-2.2-4.5-0.6c-1.4,1.1-2.5,2.8-3.9,3.9
		c-2.2,1.7-2.5,3.1-2.2,6.4c0,2.5-0.3,6.4,1.1,8.4c0.6,1.1,1.7,1.4,2.5,2c1.1,0.8,2,2,2.8,3.1c1.4,2,3.4,0.8,4.5-0.6
		c1.1-2,2.8-3.4,4.5-4.7C63.7,142.8,62.5,137.3,62.8,136.7z"/>
	<g class="st12">
		<path class="st17" d="M54.4,143.7C54.4,143.7,54.4,144,54.4,143.7L54.4,143.7z"/>
		<path class="st17" d="M62,135.9c-1.1-1.7-3.1-2-5-1.4c-0.3-1.4-0.8-2.8-1.7-3.6c-0.6-0.6-1.1-0.3-1.4,0.3
			c-0.6,1.1-1.1,2.5-1.1,3.9c-0.3-0.3-0.6-0.3-0.8-0.6c-1.1-0.6-3.9-1.4-3.9,0.8c0,0.8,0.3,1.7,0.8,2.5c0.3,0.8,1.1,1.7,1.7,2.5
			l0.3,0.3c-0.6,1.1-0.8,3.1-0.3,4.2c0.6,0.8,1.1,1.1,2,0.8c0.6,0,1.1-0.6,1.4-1.1l0.6-0.6l0,0c0.3,0.3,0.8,0.3,1.1,0.3
			c0.3,0.3,0.6,0.3,0.8,0.6c0.6,0.3,0.8,0.6,1.4,0.8c0.6,0.3,0.8,0.3,1.4,0.3c0.8,0.3,2-1.1,1.1-2c-0.3-0.6-0.6-1.4-0.8-2
			c0.6-0.6,1.1-0.8,1.4-1.4C61.7,139.2,63.1,137.3,62,135.9z"/>
	</g>
	<g class="st12">
		<path class="st17" d="M54.4,141.2L54.4,141.2L54.4,141.2z"/>
		<path class="st17" d="M57.8,137.8c-0.6-0.8-1.4-0.8-2.2-0.6c0-0.6-0.3-1.4-0.8-1.7c-0.3-0.3-0.6-0.3-0.6,0
			c-0.3,0.6-0.6,1.1-0.6,1.7l-0.3-0.3c-0.6-0.3-1.7-0.6-1.7,0.3c0,0.3,0.3,0.8,0.3,1.1c0.3,0.3,0.6,0.8,0.6,1.1c0,0,0,0,0,0.3
			c-0.3,0.6-0.3,1.4,0,2c0.3,0.3,0.6,0.6,0.8,0.6c0.3,0,0.6-0.3,0.6-0.6l0.3-0.3l0,0c0.3,0,0.3,0,0.6,0l0.3,0.3
			c0.3,0.3,0.6,0.3,0.6,0.3c0.3,0,0.3,0,0.6,0s0.8-0.6,0.6-0.8c-0.3-0.3-0.3-0.6-0.3-0.8c0.3-0.3,0.6-0.6,0.6-0.6
			C57.8,139.2,58.4,138.4,57.8,137.8z"/>
	</g>
</g>
<g>
	<path class="st18" d="M53.9,111.3c0-2-0.3-3.9-0.8-5.6c-0.6-1.4-3.4-7.3-3.9-9.2c-0.8-2.8-3.1-3.4-4.2-0.8
		c-1.4,1.7-2.5,4.2-3.6,5.9c-2,2.8-2.2,4.7-2.2,9.2c0,3.6-0.3,9.2,1.1,12.3c0.6,1.4,1.4,2,2.2,3.1c1.1,1.1,1.7,2.8,2.5,4.5
		c1.1,2.8,3.4,1.4,4.2-1.1c1.1-3.1,2.5-5,4.2-7C54.7,120.8,53.9,112.4,53.9,111.3z"/>
	<path class="st19" d="M51.1,111.9c0-1.4,0-2.5-0.6-3.6c-0.3-0.8-2.2-4.7-2.5-6.1c-0.6-2-2.2-2.2-2.8-0.6c-0.8,1.1-1.7,2.8-2.5,3.9
		c-1.4,1.7-1.7,3.1-1.4,6.1c0,2.5,0,6.1,0.6,8.1c0.3,1.1,1.1,1.4,1.4,2c0.6,0.8,1.1,2,1.7,3.1c0.8,2,2.2,0.8,2.8-0.6
		c0.8-2,1.7-3.4,2.8-4.7C51.7,118,51.1,112.7,51.1,111.9z"/>
	<g class="st12">
		<path class="st20" d="M45.8,118.8L45.8,118.8L45.8,118.8z"/>
		<path class="st20" d="M50.5,111.3c-0.8-1.7-2-1.7-3.1-1.1c-0.3-1.4-0.6-2.8-1.1-3.6c-0.3-0.6-0.6-0.3-0.8,0.3
			c-0.3,1.1-0.6,2.5-0.8,3.6c-0.3-0.3-0.3-0.3-0.6-0.6c-0.6-0.6-2.2-1.4-2.5,0.8c0,0.8,0.3,1.7,0.6,2.2c0.3,0.8,0.6,1.7,0.8,2.2
			c0,0,0,0.3,0.3,0.3c-0.3,1.1-0.6,2.8-0.3,3.9c0.3,0.8,0.8,1.1,1.1,0.8c0.3,0,0.6-0.6,0.8-1.1c0,0,0.3-0.6,0.6-0.6l0,0
			c0.3,0.3,0.6,0.3,0.6,0.3c0.3,0.3,0.3,0.3,0.6,0.6s0.6,0.6,0.8,0.8c0.3,0.3,0.6,0,0.8,0.3c0.6,0.3,1.1-0.8,0.8-2
			c0.3-0.6,0-1.1,0-1.7c0.3-0.6,0.6-0.8,0.8-1.4C50.5,114.4,51.1,112.4,50.5,111.3z"/>
	</g>
	<g class="st12">
		<path class="st20" d="M46.1,116.3L46.1,116.3L46.1,116.3z"/>
		<path class="st20" d="M48,113c-0.3-0.8-0.8-0.8-1.4-0.6c0-0.6-0.3-1.4-0.6-1.7c0-0.3-0.3-0.3-0.3,0c-0.3,0.6-0.3,1.1-0.3,1.7
			l-0.3-0.3c-0.3-0.3-1.1-0.6-1.1,0.3c0,0.3,0,0.8,0.3,1.1c0,0.3,0.3,0.8,0.6,1.1c0,0,0,0,0,0.3c-0.3,0.6-0.3,1.4,0,1.7
			c0,0.3,0.3,0.6,0.6,0.3c0.3,0,0.3-0.3,0.6-0.6l0.3-0.3l0,0h0.3c0,0,0,0.3,0.3,0.3l0.3,0.3h0.3c0.3,0,0.6-0.6,0.3-0.8
			c0-0.3-0.3-0.6-0.3-0.8c0.3-0.3,0.3-0.3,0.3-0.6C48,114.4,48.3,113.5,48,113z"/>
	</g>
</g>
<g>
	<path class="st18" d="M97.2,138.4c0-2.2-0.6-4.2-1.7-5.9c-1.1-1.4-6.7-7.5-7.8-9.5c-1.7-2.8-6.4-3.4-8.7-0.8
		c-2.8,1.7-5,4.5-7.5,6.1c-3.9,2.8-4.7,4.7-4.5,9.5c0.3,3.9-0.3,9.8,2.2,12.8c1.1,1.7,3.1,2.2,4.7,3.1c2,1.4,3.6,3.1,5.3,4.7
		c2.5,2.8,6.7,1.4,8.7-1.1c2.5-3.1,5.3-5.3,8.4-7.3C99.1,148.2,97.2,139.5,97.2,138.4z"/>
	<path class="st19" d="M91.6,138.9c0-1.4-0.3-2.8-1.1-3.9c-0.8-0.8-4.5-5-5.3-6.1c-1.1-2-4.2-2.2-5.6-0.6c-1.7,1.1-3.4,2.8-5,3.9
		c-2.5,1.7-3.1,3.1-3.1,6.4c0.3,2.5-0.3,6.4,1.4,8.4c0.8,1.1,2,1.4,3.1,2c1.4,0.8,2.5,2,3.4,3.1c1.7,2,4.5,0.8,5.6-0.6
		c1.7-2,3.4-3.4,5.6-4.7C92.7,145.4,91.6,139.5,91.6,138.9z"/>
	<g class="st12">
		<path class="st20" d="M81,146.2L81,146.2L81,146.2z"/>
		<path class="st20" d="M90.5,138.4c-1.7-1.7-3.9-2-6.1-1.4c-0.3-1.4-1.1-2.8-2-3.6c-0.6-0.6-1.4-0.3-1.7,0.3
			c-0.8,1.1-1.1,2.5-1.7,3.9c-0.3-0.3-0.8-0.3-1.1-0.6c-1.4-0.6-4.7-1.4-5,0.8c0,0.8,0.6,1.7,0.8,2.5c0.6,0.8,1.4,1.7,2,2.5l0.3,0.3
			c-0.8,1.1-1.1,3.1-0.3,4.2c0.6,0.8,1.4,1.1,2.5,0.8c0.8,0,1.4-0.8,2-1.1l0.8-0.6l0,0c0.6,0.3,0.8,0.3,1.4,0.3
			c0.3,0.3,0.6,0.3,0.8,0.6c0.6,0.3,1.1,0.6,1.7,0.8c0.6,0.3,1.1,0.3,1.7,0.3c1.1,0.3,2.2-1.1,1.7-2c-0.6-0.6-0.8-1.4-1.1-2
			c0.6-0.6,1.4-0.8,1.7-1.4C90.5,141.5,91.9,139.5,90.5,138.4z"/>
	</g>
	<g class="st12">
		<path class="st20" d="M81.2,143.7L81.2,143.7L81.2,143.7z"/>
		<path class="st20" d="M85.4,140.1c-0.8-0.8-1.7-0.8-2.8-0.6c-0.3-0.6-0.6-1.4-0.8-1.7s-0.6-0.3-0.8,0c-0.3,0.6-0.6,1.1-0.8,1.7
			c-0.3,0-0.3-0.3-0.6-0.3c-0.6-0.3-2.2-0.6-2.2,0.3c0,0.3,0.3,0.8,0.3,1.1c0.3,0.3,0.6,0.8,0.8,1.1c0,0,0,0,0.3,0.3
			c-0.3,0.6-0.6,1.4-0.3,2c0.3,0.3,0.6,0.6,1.1,0.6c0.3,0,0.6-0.3,0.8-0.6l0.3-0.3l0,0c0.3,0,0.3,0,0.6,0l0.3,0.3
			c0.3,0.3,0.6,0.3,0.8,0.3c0.3,0,0.6,0,0.8,0c0.6,0,1.1-0.6,0.6-0.8c-0.3-0.3-0.3-0.6-0.6-0.8c0.3-0.3,0.6-0.6,0.8-0.6
			C85.4,141.5,86,140.6,85.4,140.1z"/>
	</g>
</g>
<g>
	<path class="st21" d="M111.1,162.1c0-1.7-0.6-3.1-2-4.5c-1.1-1.1-7.3-5.6-8.4-7c-1.7-2.2-7-2.5-9.2-0.6c-2.8,1.1-5.3,3.4-8.1,4.5
		c-4.2,2-5,3.6-4.7,7.3c0.3,2.8-0.3,7.3,2.2,9.5c1.4,1.1,3.4,1.7,5,2.2c2.2,0.8,3.9,2.2,5.6,3.6c2.5,2.2,7.3,1.1,9.2-0.8
		c2.5-2.2,5.6-3.9,8.9-5.6C113.1,169.4,111.1,163,111.1,162.1z"/>
	<path class="st22" d="M105,162.7c0-1.1-0.3-2-1.1-2.8c-0.8-0.8-4.7-3.6-5.6-4.7c-1.1-1.4-4.5-1.7-6.1-0.3c-2,0.8-3.6,2.2-5.3,3.1
		c-2.8,1.4-3.4,2.2-3.1,4.7c0.3,2-0.3,4.7,1.4,6.1c0.8,0.8,2.2,1.1,3.4,1.7c1.4,0.6,2.5,1.4,3.6,2.2c1.7,1.4,4.7,0.6,6.1-0.6
		c1.7-1.4,3.6-2.5,5.9-3.6C106.1,167.4,104.7,163,105,162.7z"/>
	<g class="st12">
		<path class="st23" d="M93.8,168C93.5,168,93.5,168,93.8,168C93.5,168,93.8,168,93.8,168z"/>
		<path class="st23" d="M103.9,162.1c-1.7-1.1-4.2-1.4-6.7-0.8c-0.3-1.1-1.1-2.2-2.2-2.8c-0.6-0.3-1.4-0.3-2,0.3
			c-0.8,0.8-1.4,2-1.7,2.8c-0.3-0.3-0.8-0.3-1.1-0.3c-1.4-0.6-5-1.1-5.3,0.6c0,0.6,0.6,1.4,0.8,1.7c0.6,0.6,1.4,1.4,2,1.7l0.3,0.3
			c-0.8,0.8-1.1,2.2-0.3,3.1c0.6,0.6,1.7,0.8,2.5,0.6c0.8,0,1.4-0.6,2-0.8l0.8-0.6c0,0,0,0,0.3,0c0.6,0,1.1,0.3,1.4,0.3
			c0.3,0.3,0.6,0.3,0.8,0.6c0.6,0.3,1.4,0.6,2,0.6s1.1,0,2,0.3c1.1,0.3,2.5-0.8,1.7-1.4c-0.6-0.6-0.8-0.8-1.1-1.4
			c0.6-0.3,1.4-0.8,2-1.1C103.6,164.6,105.3,163,103.9,162.1z"/>
	</g>
	<g class="st12">
		<path class="st23" d="M93.8,166L93.8,166L93.8,166z"/>
		<path class="st23" d="M98.6,163.5c-0.8-0.6-2-0.6-3.1-0.6c-0.3-0.6-0.6-0.8-0.8-1.1s-0.6,0-0.8,0c-0.3,0.3-0.6,0.8-0.8,1.4
			c-0.3,0-0.3,0-0.6-0.3c-0.6-0.3-2.2-0.6-2.5,0.3c0,0.3,0.3,0.6,0.6,0.8c0.3,0.3,0.6,0.6,0.8,0.8c0,0,0,0,0.3,0
			c-0.3,0.3-0.6,1.1-0.3,1.4c0.3,0.3,0.6,0.3,1.1,0.3c0.3,0,0.6-0.3,0.8-0.3l0.3-0.3l0,0c0.3,0,0.6,0,0.6,0c0.3,0,0.3,0,0.6,0.3
			c0.3,0,0.6,0.3,0.8,0.3s0.6,0,0.8,0c0.6,0,1.1-0.3,0.8-0.6c-0.3-0.3-0.3-0.6-0.6-0.6c0.3-0.3,0.6-0.3,0.8-0.6
			C98.3,164.6,99.1,163.8,98.6,163.5z"/>
	</g>
</g>
<g>
	<path class="st24" d="M142.7,165.7c0.3-1.7,0-3.1-1.1-4.7c-1.1-1.4-6.1-6.7-7.3-8.4c-1.4-2.5-6.4-3.6-8.9-2
		c-3.1,0.8-5.9,2.5-8.7,3.4c-4.5,1.4-5.6,2.8-5.9,6.4c-0.3,2.8-1.4,7.3,0.8,10.1c1.1,1.4,3.1,2,4.5,3.1c2,1.4,3.6,2.8,5,4.5
		c2.2,2.5,7,2,8.9,0.6c2.8-2,5.9-3.1,9.8-4.2C143.5,173.3,142.4,166.6,142.7,165.7z"/>
	<path class="st25" d="M136.5,165.2c0.3-1.1,0-2.2-0.8-3.1c-0.6-0.8-4.2-4.5-4.7-5.6c-0.8-1.7-4.2-2.2-5.9-1.4
		c-2,0.6-3.9,1.7-5.6,2.2c-3.1,0.8-3.6,2-3.9,4.2c0,2-0.8,4.7,0.6,6.4c0.8,0.8,2,1.4,3.1,2c1.4,0.8,2.2,2,3.4,2.8
		c1.4,1.7,4.5,1.4,5.9,0.3c2-1.4,3.9-2,6.4-2.8C137.1,170.2,136.5,165.7,136.5,165.2z"/>
	<g class="st12">
		<path class="st26" d="M124.8,169.1L124.8,169.1L124.8,169.1z"/>
		<path class="st26" d="M135.7,164.6c-1.4-1.4-3.9-2-6.4-2c-0.3-1.1-0.8-2.5-1.7-3.1c-0.6-0.6-1.4-0.6-2,0c-0.8,0.8-1.7,1.7-2,2.5
			c-0.3-0.3-0.8-0.3-1.1-0.6c-1.4-0.6-4.7-1.7-5.3-0.3c-0.3,0.6,0.3,1.4,0.6,2s1.1,1.4,1.7,2.2l0.3,0.3c-0.8,0.8-1.4,2.2-0.8,3.1
			c0.6,0.8,1.4,1.1,2.5,1.1c0.8,0,1.4-0.3,2.2-0.6l0.8-0.3c0,0,0,0,0.3,0c0.6,0.3,0.8,0.3,1.4,0.3c0.3,0.3,0.6,0.3,0.8,0.6
			c0.6,0.3,1.1,0.6,1.7,0.8c0.6,0.3,1.1,0.3,1.7,0.6c1.1,0.3,2.5-0.3,2-1.1c-0.3-0.6-0.6-1.1-0.8-1.7c0.8-0.3,1.4-0.6,2-0.8
			C135.1,167.1,136.8,165.7,135.7,164.6z"/>
	</g>
	<g class="st12">
		<path class="st26" d="M125.4,167.1C125.1,167.1,125.1,167.1,125.4,167.1C125.1,167.1,125.4,167.1,125.4,167.1z"/>
		<path class="st26" d="M130.1,165.2c-0.6-0.6-1.7-0.8-2.8-0.8c0-0.6-0.3-1.1-0.8-1.4c-0.3-0.3-0.6-0.3-0.8,0
			c-0.6,0.3-0.8,0.8-0.8,1.1c-0.3,0-0.3-0.3-0.6-0.3c-0.6-0.3-2.2-0.8-2.5,0c0,0.3,0.3,0.6,0.3,0.8c0.3,0.3,0.6,0.6,0.8,0.8
			c0,0,0,0,0.3,0.3c-0.3,0.3-0.6,0.8-0.3,1.4c0.3,0.3,0.6,0.6,1.1,0.6c0.3,0,0.6-0.3,0.8-0.3l0.6-0.3l0,0c0.3,0,0.6,0,0.6,0.3
			l0.3,0.3c0.3,0.3,0.6,0.3,0.8,0.3s0.6,0,0.8,0.3c0.6,0.3,1.1-0.3,0.8-0.6c-0.3-0.3-0.3-0.6-0.3-0.8c0.3,0,0.6-0.3,0.8-0.3
			C129.8,166.3,130.7,165.7,130.1,165.2z"/>
	</g>
</g>
<g>
	<path class="st18" d="M122.8,180.3c0.3-1.4,0-2.5-0.8-3.9c-0.8-1.1-4.5-5.3-5.3-6.7c-1.1-2-4.7-2.8-6.7-1.4
		c-2.2,0.6-4.5,2.2-6.4,2.8c-3.4,1.1-4.2,2.5-4.5,5.3c-0.3,2.2-1.1,5.9,0.6,8.1c0.8,1.1,2.2,1.7,3.4,2.5c1.4,1.1,2.5,2.2,3.6,3.6
		c1.7,2,5,1.7,6.7,0.3c2.2-1.7,4.5-2.5,7.3-3.6C123.4,186.4,122.6,180.8,122.8,180.3z"/>
	<path class="st19" d="M118.1,180c0.3-0.8,0-1.7-0.6-2.5c-0.6-0.6-3.1-3.6-3.4-4.5c-0.6-1.4-3.1-2-4.5-1.1c-1.4,0.6-2.8,1.4-4.2,2
		c-2.2,0.8-2.8,1.7-2.8,3.6c0,1.7-0.8,3.9,0.3,5.3c0.6,0.8,1.4,1.1,2.2,1.7s1.7,1.4,2.5,2.2c1.1,1.4,3.4,1.1,4.5,0.3
		c1.4-1.1,3.1-1.7,4.7-2.2C118.7,183.9,118.1,180.3,118.1,180z"/>
	<g class="st12">
		<path class="st20" d="M109.4,183.1L109.4,183.1L109.4,183.1z"/>
		<path class="st20" d="M117.5,179.4c-1.1-1.1-2.8-1.7-4.7-1.4c-0.3-0.8-0.6-2-1.1-2.5c-0.3-0.3-1.1-0.3-1.4,0
			c-0.8,0.6-1.1,1.4-1.7,2.2c-0.3-0.3-0.6-0.3-0.8-0.6c-1.1-0.6-3.6-1.4-3.9,0c-0.3,0.6,0.3,1.1,0.6,1.7c0.3,0.6,0.8,1.1,1.4,1.7
			l0.3,0.3c-0.6,0.6-1.1,1.7-0.6,2.5c0.3,0.6,1.1,0.8,1.7,0.8c0.6,0,1.1-0.3,1.7-0.6l0.8-0.3l0,0c0.3,0.3,0.8,0.3,1.1,0.3
			c0.3,0.3,0.6,0.3,0.6,0.6c0.3,0.3,0.8,0.6,1.4,0.6c0.6,0.3,0.8,0.3,1.4,0.3c0.8,0.3,2-0.3,1.4-1.1c-0.3-0.3-0.6-0.8-0.6-1.4
			c0.6-0.3,1.1-0.6,1.7-0.6C117,181.4,118.4,180.3,117.5,179.4z"/>
	</g>
	<g class="st12">
		<path class="st20" d="M109.7,181.7L109.7,181.7L109.7,181.7z"/>
		<path class="st20" d="M113.4,180c-0.6-0.6-1.4-0.8-2.2-0.6c0-0.6-0.3-0.8-0.6-1.1s-0.6-0.3-0.6,0c-0.3,0.3-0.6,0.6-0.8,0.8
			c0,0-0.3,0-0.3-0.3c-0.6-0.3-1.7-0.6-1.7,0c0,0.3,0,0.6,0.3,0.8c0,0.3,0.3,0.6,0.6,0.8l0,0c-0.3,0.3-0.3,0.6-0.3,1.1
			c0.3,0.3,0.6,0.3,0.8,0.3s0.6,0,0.8-0.3h0.3l0,0c0.3,0,0.3,0,0.6,0c0,0,0.3,0,0.3,0.3c0.3,0,0.3,0.3,0.6,0.3c0.3,0,0.3,0,0.6,0.3
			c0.3,0,0.8-0.3,0.6-0.6c0-0.3-0.3-0.3-0.3-0.6c0.3,0,0.6-0.3,0.6-0.3C113.1,180.8,113.9,180.3,113.4,180z"/>
	</g>
</g>
<g>
	<path class="st18" d="M103.9,185c0.6-1.1,0.6-2.2,0-3.4c-0.6-1.1-2.8-5.3-3.4-6.4c-0.6-1.7-3.4-3.1-5.3-2.2c-2,0.3-3.9,1.1-5.6,1.7
		c-3.1,0.6-3.9,1.4-4.5,3.9c-0.6,2-2,4.7-0.8,7c0.6,1.1,1.7,1.7,2.5,2.5c1.1,1.1,1.7,2.2,2.5,3.4c1.1,2,3.9,2,5.6,1.1
		c2-1.1,4.2-1.7,6.4-2C103.3,190.3,103.6,185.6,103.9,185z"/>
	<path class="st19" d="M100,184.2c0.3-0.8,0.3-1.4,0-2.2c-0.3-0.6-2-3.4-2.2-4.2c-0.3-1.1-2.2-2-3.4-1.4c-1.4,0.3-2.5,0.8-3.6,1.1
		c-2,0.3-2.5,0.8-2.8,2.5c-0.3,1.4-1.1,3.1-0.6,4.5c0.3,0.6,1.1,1.1,1.7,1.7c0.6,0.6,1.1,1.4,1.7,2.2c0.6,1.4,2.5,1.4,3.6,0.8
		c1.4-0.8,2.8-1.1,4.2-1.4C99.7,187.5,100,184.4,100,184.2z"/>
	<g class="st12">
		<path class="st20" d="M92.4,185.6L92.4,185.6L92.4,185.6z"/>
		<path class="st20" d="M99.7,183.6c-0.6-1.1-2.2-1.7-3.6-2c0-0.8-0.3-1.7-0.6-2.2c-0.3-0.3-0.8-0.6-1.1-0.3
			c-0.6,0.3-1.1,1.1-1.7,1.7c-0.3-0.3-0.3-0.3-0.6-0.6c-0.8-0.6-2.8-1.7-3.4-0.6c-0.3,0.3,0,1.1,0.3,1.4c0.3,0.6,0.6,1.1,0.8,1.7
			c0,0,0,0.3,0.3,0.3c-0.6,0.6-1.1,1.4-0.8,2c0.3,0.6,0.8,0.8,1.4,0.8c0.6,0,0.8,0,1.4-0.3l0.6-0.3l0,0c0.3,0.3,0.6,0.3,0.8,0.3
			c0.3,0.3,0.3,0.3,0.6,0.6s0.6,0.6,1.1,0.8c0.3,0.3,0.6,0.3,1.1,0.6s1.7,0,1.4-0.6c-0.3-0.3-0.3-0.8-0.3-1.1c0.6,0,0.8-0.3,1.4-0.3
			C98.8,185.3,100.2,184.4,99.7,183.6z"/>
	</g>
	<g class="st12">
		<path class="st20" d="M93,184.4L93,184.4L93,184.4z"/>
		<path class="st20" d="M96,183.3c-0.3-0.6-0.8-0.8-1.7-0.8c0-0.3,0-0.8-0.3-1.1c0-0.3-0.3-0.3-0.6,0c-0.3,0.3-0.6,0.6-0.8,0.8
			l-0.3-0.3c-0.3-0.3-1.1-0.8-1.4-0.3c0,0.3,0,0.6,0,0.6c0,0.3,0.3,0.6,0.3,0.8l0,0c-0.3,0.3-0.6,0.6-0.3,0.8c0,0.3,0.3,0.3,0.6,0.6
			c0.3,0,0.6,0,0.6,0h0.3l0,0c0,0,0.3,0,0.3,0.3c0,0,0,0.3,0.3,0.3c0,0,0.3,0.3,0.6,0.3c0.3,0,0.3,0,0.6,0.3c0.3,0.3,0.8,0,0.6-0.3
			c0-0.3,0-0.3,0-0.6c0.3,0,0.6,0,0.6-0.3C95.8,184.2,96.3,183.9,96,183.3z"/>
	</g>
</g>
<g>
	<path class="st18" d="M104.7,192c0,0.8,0.3,1.4,1.4,2c0.8,0.6,5.3,2.5,6.1,3.4c1.4,0.8,5,1.1,6.7,0.3c2.2-0.6,3.9-1.4,5.9-2
		c3.1-0.8,3.9-1.7,3.6-3.1c-0.3-1.4,0.3-3.4-1.7-4.2c-0.8-0.6-2.5-0.8-3.6-1.1c-1.7-0.6-2.8-1.1-4.2-1.7c-2-1.1-5.3-0.6-6.7,0.3
		c-2,1.1-4.2,1.7-6.7,2.5C103.3,188.6,104.7,191.4,104.7,192z"/>
	<path class="st19" d="M109.4,191.7c0,0.6,0.3,0.8,0.8,1.4c0.6,0.3,3.4,1.7,3.9,2.2c0.8,0.6,3.4,0.8,4.5,0.3
		c1.4-0.3,2.5-0.8,3.9-1.4c2-0.6,2.5-1.1,2.2-2c0-0.8,0.3-2.2-1.1-2.8c-0.6-0.3-1.7-0.6-2.5-0.8c-1.1-0.3-2-0.6-2.8-1.1
		c-1.1-0.6-3.4-0.3-4.5,0.3c-1.1,0.6-2.8,1.1-4.5,1.7C108.3,189.5,109.4,191.4,109.4,191.7z"/>
	<g class="st12">
		<path class="st20" d="M117.5,189.5L117.5,189.5L117.5,189.5z"/>
		<path class="st20" d="M110,192c1.1,0.6,3.1,0.6,4.7,0.6c0.3,0.6,0.8,1.1,1.7,1.1c0.6,0.3,1.1,0.3,1.4,0c0.6-0.3,1.1-0.8,1.1-1.1
			c0.3,0,0.6,0,0.8,0.3c1.1,0.3,3.6,0.6,3.9-0.3c0-0.3-0.3-0.6-0.8-0.8c-0.3-0.3-1.1-0.6-1.4-0.8h-0.3c0.6-0.3,0.8-1.1,0.3-1.4
			c-0.6-0.3-1.1-0.3-2-0.3c-0.6,0-1.1,0.3-1.4,0.3l-0.6,0.3l0,0c-0.3,0-0.8,0-1.1,0c-0.3,0-0.6,0-0.6-0.3c-0.3,0-0.8-0.3-1.4-0.3
			s-0.8,0-1.4,0c-0.8,0-1.7,0.3-1.1,0.6c0.3,0.3,0.6,0.6,0.8,0.6c-0.6,0.3-1.1,0.3-1.4,0.6C110.3,190.9,109.2,191.4,110,192z"/>
	</g>
	<g class="st12">
		<path class="st20" d="M117.5,190.3L117.5,190.3L117.5,190.3z"/>
		<path class="st20" d="M114.2,191.4c0.6,0.3,1.4,0.3,2.2,0.3c0,0.3,0.3,0.6,0.8,0.6c0.3,0,0.6,0,0.6,0c0.3-0.3,0.6-0.3,0.6-0.6h0.3
			c0.6,0,1.7,0.3,1.7,0l-0.3-0.3c-0.3,0-0.6-0.3-0.6-0.3l0,0c0.3-0.3,0.3-0.6,0-0.6c-0.3,0-0.6-0.3-0.8-0.3c-0.3,0-0.6,0-0.6,0.3
			h-0.3l0,0c-0.3,0-0.3,0-0.6,0H117c-0.3,0-0.6,0-0.6,0c-0.3,0-0.3,0-0.6,0s-0.8,0.3-0.6,0.3s0.3,0.3,0.3,0.3
			c-0.3,0-0.6,0.3-0.6,0.3C114.2,190.9,113.6,191.1,114.2,191.4z"/>
	</g>
</g>
<g>
	<path class="st18" d="M85.4,195.6c0,0.8,0.6,1.4,1.7,1.7c0.8,0.3,5.6,1.7,6.7,2.2c1.4,0.8,5.3,0.3,6.7-0.8c2-0.8,3.6-2,5.6-2.8
		c3.1-1.4,3.6-2.2,3.1-3.6c-0.3-1.1-0.3-3.4-2.2-3.9c-1.1-0.6-2.5-0.6-3.9-0.6c-1.7-0.3-3.1-0.6-4.2-0.8c-2-0.6-5.3,0.3-6.7,1.4
		c-1.7,1.4-3.6,2.2-6.1,3.4C83.8,192.5,85.4,195.3,85.4,195.6z"/>
	<path class="st19" d="M90.2,194.8c0,0.6,0.3,0.8,1.1,1.1c0.6,0.3,3.6,1.1,4.5,1.4c0.8,0.6,3.4,0.3,4.5-0.6c1.4-0.6,2.5-1.4,3.6-2
		c2-0.8,2.2-1.4,2-2.5c-0.3-0.8-0.3-2.2-1.4-2.5c-0.6-0.3-1.7-0.3-2.5-0.3c-1.1,0-2-0.3-2.8-0.6c-1.4-0.6-3.4,0.3-4.5,0.8
		c-1.1,0.8-2.5,1.4-4.2,2.2C88.8,192.8,90.2,194.5,90.2,194.8z"/>
	<g class="st12">
		<path class="st20" d="M97.7,191.1C97.7,191.1,98,191.1,97.7,191.1L97.7,191.1z"/>
		<path class="st20" d="M90.7,194.8c1.4,0.3,3.1,0.3,4.7-0.3c0.3,0.6,1.1,0.8,1.7,0.8c0.6,0,1.1,0,1.4-0.3c0.6-0.6,0.8-0.8,1.1-1.4
			c0.3,0,0.6,0,0.8,0c1.1,0,3.9,0,3.9-0.8c0-0.3-0.6-0.6-0.8-0.6c-0.3-0.3-1.1-0.6-1.7-0.6h-0.3c0.6-0.6,0.6-1.1,0-1.4s-1.1-0.3-2,0
			c-0.6,0-1.1,0.3-1.4,0.6l-0.6,0.3l0,0c-0.3,0-0.8,0-1.1,0s-0.6,0-0.8,0c-0.6,0-0.8,0-1.4,0s-0.8,0-1.4,0c-0.8,0-1.7,0.6-1.1,0.8
			c0.3,0,0.6,0.3,0.8,0.6c-0.6,0.3-0.8,0.6-1.4,0.8C90.7,193.7,89.6,194.5,90.7,194.8z"/>
	</g>
	<g class="st12">
		<path class="st20" d="M97.7,192L97.7,192L97.7,192z"/>
		<path class="st20" d="M94.6,193.7c0.6,0.3,1.4,0,2.2-0.3c0.3,0.3,0.6,0.3,0.8,0.6c0.3,0,0.6,0,0.6,0c0.3-0.3,0.3-0.6,0.6-0.6h0.3
			c0.6,0,1.7,0,1.7-0.3l-0.3-0.3c-0.3,0-0.6-0.3-0.8-0.3c0,0,0,0-0.3,0c0.3-0.3,0.3-0.6,0-0.6s-0.6,0-0.8,0s-0.6,0.3-0.6,0.3
			s-0.3,0-0.3,0.3l0,0c-0.3,0-0.3,0-0.6,0h-0.3c-0.3,0-0.6,0-0.6,0c-0.3,0-0.3,0-0.6,0c-0.3,0-0.8,0.3-0.6,0.3
			c0.3,0,0.3,0.3,0.3,0.3c-0.3,0-0.3,0.3-0.6,0.3C94.6,193.1,94.1,193.4,94.6,193.7z"/>
	</g>
</g>
<g>
	<path class="st18" d="M66.5,185.3c-0.3,0.6-0.3,1.4,0.6,2.5c0.6,0.8,3.9,4.5,4.5,5.6c0.8,1.4,4.2,3.1,6.1,2.8c2.2,0.3,4.2,0,6.4,0
		c3.4,0.3,4.2-0.3,4.7-2c0.3-1.4,1.7-3.1,0.3-5c-0.6-0.8-2-1.7-3.1-2.5c-1.4-1.1-2.2-2-3.1-3.1c-1.4-1.7-4.7-2.5-6.4-2.2
		c-2.2,0.3-4.5,0.3-7.3,0C66.5,181.4,66.7,184.7,66.5,185.3z"/>
	<path class="st19" d="M70.9,186.7c-0.3,0.6-0.3,1.1,0.3,1.7c0.3,0.6,2.5,3.1,3.1,3.6c0.6,0.8,2.8,2,4.2,2c1.4,0.3,2.8,0,4.2,0
		c2.2,0.3,2.8-0.3,3.1-1.4c0.3-0.8,1.1-2,0-3.4c-0.6-0.6-1.4-1.1-2-1.7c-0.8-0.6-1.4-1.4-2-2c-0.8-1.1-3.1-1.7-4.2-1.4
		c-1.4,0.3-3.1,0.3-4.7,0C70.9,184.2,70.9,186.4,70.9,186.7z"/>
	<g class="st12">
		<path class="st20" d="M79.6,187.2L79.6,187.2L79.6,187.2z"/>
		<path class="st20" d="M71.5,187.2c0.8,1.1,2.5,1.7,4.5,2.2c0,0.6,0.6,1.4,1.1,2c0.3,0.3,0.8,0.6,1.4,0.6c0.8-0.3,1.1-0.6,1.7-0.8
			c0.3,0.3,0.6,0.3,0.8,0.6c0.8,0.6,3.4,2,3.9,1.1c0.3-0.3-0.3-0.8-0.3-1.1c-0.3-0.3-0.6-0.8-1.1-1.4l-0.3-0.3
			c0.6-0.3,1.1-0.8,0.8-1.4c-0.3-0.6-0.8-0.8-1.7-1.1c-0.6-0.3-1.1-0.3-1.7-0.3c0,0-0.6,0-0.8,0l0,0c-0.3-0.3-0.6-0.3-1.1-0.6
			c-0.3-0.3-0.3-0.3-0.6-0.6s-0.8-0.6-1.1-0.8c-0.3-0.3-0.8-0.3-1.1-0.6c-0.8-0.3-1.7-0.3-1.4,0.3c0.3,0.3,0.3,0.6,0.6,0.8
			c-0.6,0-1.1,0-1.4,0C72,186.1,70.6,186.4,71.5,187.2z"/>
	</g>
	<g class="st12">
		<path class="st20" d="M79,188.1L79,188.1L79,188.1z"/>
		<path class="st20" d="M75.4,188.1c0.3,0.6,1.1,0.8,2,1.1c0,0.3,0.3,0.6,0.6,0.8s0.3,0.3,0.6,0.3s0.6-0.3,0.8-0.3l0.3,0.3
			c0.6,0.3,1.4,0.8,1.7,0.6c0,0,0-0.3-0.3-0.6c0-0.3-0.3-0.6-0.6-0.6l0,0c0.3,0,0.6-0.3,0.3-0.6c0-0.3-0.3-0.3-0.8-0.6
			c-0.3,0-0.6,0-0.8,0h-0.3l0,0c0,0-0.3-0.3-0.6-0.3c0,0-0.3,0-0.3-0.3c-0.3,0-0.3-0.3-0.6-0.3s-0.3-0.3-0.6-0.3
			c-0.3-0.3-0.8-0.3-0.6,0c0,0.3,0.3,0.3,0.3,0.6c-0.3,0-0.6,0-0.6,0C75.7,187.5,75.1,187.8,75.4,188.1z"/>
	</g>
</g>
<g>
	<path class="st27" d="M137.9,187.2c1.4-0.8,2.5-1.7,3.1-3.1c0.6-1.1,2.5-6.1,3.4-7.5c1.4-2,0.3-4.5-2.2-4.7
		c-1.7-0.8-4.2-0.8-6.1-1.4c-2.8-0.8-4.5-0.6-7.3,1.4c-2.2,1.4-6.1,3.4-7.3,5.9c-0.6,1.1-0.3,2.2-0.6,3.6c-0.3,1.4-0.8,3.1-1.4,4.5
		c-1.1,2.2,1.1,3.9,3.4,3.9c2.5,0,4.7,0.6,7,1.4C132.6,192,137.4,187.8,137.9,187.2z"/>
	<path class="st28" d="M136,184.7c0.8-0.6,1.7-1.1,2-2c0.3-0.8,1.7-4.2,2.2-5c0.8-1.1,0-3.1-1.4-3.1c-1.1-0.6-2.8-0.6-3.9-0.8
		c-2-0.6-2.8-0.3-4.7,0.8c-1.4,1.1-3.9,2.2-4.7,3.9c-0.3,0.8-0.3,1.4-0.3,2.2c0,0.8-0.6,2-0.8,2.8c-0.6,1.4,0.8,2.5,2.2,2.5
		c1.7,0,3.1,0.3,4.7,0.8C132.3,187.8,135.4,185,136,184.7z"/>
	<g class="st12">
		<path class="st29" d="M128.4,182.2C128.4,182.2,128.2,182.2,128.4,182.2L128.4,182.2z"/>
		<path class="st29" d="M136,183.9c0.6-1.4,0-2.5-1.1-3.6c0.8-0.8,1.4-1.7,1.7-2.2c0-0.6-0.3-0.8-0.6-0.8c-0.8,0-2,0.3-2.8,0.6
			c0-0.3,0-0.6,0-0.8c0-0.8-0.6-2.8-2-2.2c-0.6,0.3-0.8,0.8-1.1,1.4c-0.3,0.6-0.6,1.4-0.8,2v0.3c-0.8,0-2.2,0.6-2.8,1.4
			c-0.3,0.6-0.3,1.1,0.3,1.7c0.3,0.3,0.8,0.3,1.4,0.6l0.6,0.3l0,0c0,0.3,0.3,0.6,0.3,0.8c0,0.3,0,0.6,0,0.6c0,0.3,0,0.8,0,1.1
			s0.3,0.6,0.3,0.8c0,0.6,1.4,0.8,1.7,0c0.3-0.6,0.6-0.8,0.8-1.1c0.6,0.3,0.8,0.3,1.4,0.3C134,185,135.7,185,136,183.9z"/>
	</g>
	<g class="st12">
		<path class="st29" d="M129.8,181.4L129.8,181.4L129.8,181.4z"/>
		<path class="st29" d="M133.5,182.2c0.3-0.6,0-1.1-0.6-1.7c0.3-0.3,0.6-0.8,0.8-1.1c0-0.3,0-0.3-0.3-0.3s-0.8,0.3-1.4,0.3v-0.3
			c0-0.3-0.3-1.4-0.8-1.1c-0.3,0-0.3,0.3-0.6,0.6c-0.3,0.3-0.3,0.6-0.3,0.8c0,0,0,0,0,0.3c-0.6,0-1.1,0.3-1.1,0.6
			c-0.3,0.3,0,0.6,0,0.6c0.3,0.3,0.3,0.3,0.6,0.3h0.3l0,0v0.3v0.3c0,0.3,0,0.3,0,0.6s0,0.3,0.3,0.6c0,0.3,0.6,0.3,0.8,0
			c0-0.3,0.3-0.3,0.3-0.6c0.3,0,0.6,0,0.6,0.3C132.3,182.8,133.2,182.5,133.5,182.2z"/>
	</g>
</g>
<g>
	<path class="st30" d="M156.9,163.5c0.3-1.7,0.3-3.1-0.6-4.5c-0.6-1.1-3.6-6.4-4.2-7.8c-0.8-2.2-3.9-3.1-5.6-1.4
		c-2,0.8-3.9,2.8-5.6,3.9c-2.8,1.7-3.6,3.1-3.9,6.7c-0.3,2.8-1.4,7.3,0,9.8c0.6,1.4,1.7,2,2.8,2.8c1.1,1.1,2,2.5,2.8,4.2
		c1.4,2.5,4.2,1.7,5.6,0c2-2,3.9-3.4,6.4-4.7C156.9,171,156.6,164.3,156.9,163.5z"/>
	<path class="st31" d="M153,163.2c0.3-1.1,0-2-0.3-3.1c-0.3-0.8-2.2-4.2-2.8-5.3c-0.6-1.4-2.5-2.2-3.6-0.8c-1.4,0.6-2.5,2-3.6,2.5
		c-2,1.1-2.5,2-2.5,4.5c-0.3,2-0.8,4.7,0,6.4c0.3,0.8,1.1,1.1,1.7,2c0.8,0.8,1.4,1.7,2,2.8c0.8,1.7,2.8,1.1,3.6,0
		c1.1-1.4,2.5-2.2,4.2-3.1C153,168.3,153,163.8,153,163.2z"/>
	<g class="st12">
		<path class="st32" d="M145.5,167.7L145.5,167.7L145.5,167.7z"/>
		<path class="st32" d="M152.4,162.7c-0.8-1.4-2.2-1.7-3.9-1.7c0-1.1-0.3-2.2-0.8-2.8c-0.3-0.3-0.8-0.6-1.1,0
			c-0.6,0.8-1.1,1.7-1.4,2.8c-0.3-0.3-0.6-0.3-0.6-0.6c-0.8-0.6-3.1-1.4-3.4,0.3c-0.3,0.6,0.3,1.4,0.3,2c0.3,0.6,0.6,1.4,1.1,2
			l0.3,0.3c-0.6,0.8-1.1,2.2-0.6,3.1c0.3,0.6,0.8,0.8,1.4,0.8s0.8-0.3,1.4-0.8l0.6-0.3l0,0c0.3,0.3,0.6,0.3,0.8,0.3
			c0.3,0.3,0.3,0.3,0.6,0.6c0.3,0.3,0.8,0.6,1.1,0.8c0.3,0.3,0.8,0.3,1.1,0.3c0.6,0.3,1.7-0.6,1.1-1.4c-0.3-0.6-0.3-1.1-0.6-1.7
			c0.6-0.3,0.8-0.6,1.4-0.8C151.9,165.2,153.3,163.8,152.4,162.7z"/>
	</g>
	<g class="st12">
		<path class="st32" d="M145.7,165.7L145.7,165.7L145.7,165.7z"/>
		<path class="st32" d="M149.1,163.5c-0.3-0.6-1.1-0.8-1.7-0.8c0-0.6-0.3-1.1-0.3-1.4c-0.3-0.3-0.3-0.3-0.6,0
			c-0.3,0.3-0.6,0.8-0.6,1.1l-0.3-0.3c-0.3-0.3-1.4-0.6-1.4,0c0,0.3,0,0.6,0.3,0.8c0,0.3,0.3,0.6,0.6,0.8l0,0
			c-0.8,1.1-1.1,1.7-1.1,2.2c0,0.3,0.3,0.6,0.6,0.6c0.3,0,0.6-0.3,0.6-0.3l0.3-0.3l0,0h0.3l0.3,0.3c0,0,0.3,0.3,0.6,0.3
			c0.3,0,0.3,0,0.6,0.3c0.3,0.3,0.8-0.3,0.6-0.6c0-0.3-0.3-0.6-0.3-0.8c0.3,0,0.3-0.3,0.6-0.3C148.8,164.6,149.4,164.1,149.1,163.5z
			"/>
	</g>
</g>
<g>
	<path class="st33" d="M80.4,158.8c0-1.7-0.6-3.1-2-4.5c-1.1-1.1-6.7-5.3-8.1-6.7c-1.7-2.2-6.4-2.2-8.4-0.3c-2.5,1.4-4.7,3.6-7,5
		c-3.9,2.2-4.5,3.9-3.9,7.5c0.3,2.8,0,7.3,2.5,9.8c1.1,1.1,3.1,1.4,4.7,2.2c2,0.8,3.6,2,5.3,3.4c2.5,2,6.4,0.8,8.4-1.1
		c2.2-2.5,4.7-4.2,7.8-5.9C82.6,166,80.4,159.6,80.4,158.8z"/>
	<path class="st34" d="M74.8,159.3c0-1.1-0.3-2-1.4-2.8c-0.8-0.8-4.5-3.6-5.3-4.5c-1.1-1.4-4.2-1.4-5.6-0.3
		c-1.7,0.8-3.1,2.2-4.7,3.4c-2.5,1.4-3.1,2.5-2.8,5c0.3,2,0,4.7,1.7,6.4c0.8,0.8,2,0.8,3.1,1.4c1.4,0.6,2.5,1.4,3.4,2.2
		c1.7,1.4,4.2,0.6,5.3-0.8c1.4-1.7,3.1-2.8,5.3-3.9C76.2,164.1,74.8,159.9,74.8,159.3z"/>
	<g class="st12">
		<path class="st35" d="M65.1,165.5L65.1,165.5L65.1,165.5z"/>
		<path class="st35" d="M74,159c-1.7-1.1-3.9-1.1-6.1-0.6c-0.6-1.1-1.1-2.2-2.2-2.8c-0.6-0.3-1.4-0.3-1.7,0.3
			c-0.8,0.8-1.1,2-1.4,3.1c-0.3,0-0.8-0.3-1.1-0.3c-1.4-0.3-4.7-0.8-4.7,0.8c0,0.6,0.6,1.4,0.8,1.7c0.6,0.6,1.4,1.4,2,1.7l0.3,0.3
			c-0.6,0.8-0.8,2.2-0.3,3.1c0.6,0.6,1.4,0.8,2.2,0.6c0.8,0,1.4-0.6,2-1.1l0.8-0.6l0,0c0.6,0,0.8,0,1.4,0c0.3,0,0.6,0.3,0.8,0.3
			c0.6,0.3,1.1,0.3,1.7,0.6c0.6,0,1.1,0,1.7,0.3c1.1,0.3,2.2-0.8,1.4-1.4c-0.6-0.3-0.8-0.8-1.1-1.4c0.6-0.3,1.1-0.8,1.7-1.1
			C74,161.6,75.4,159.9,74,159z"/>
	</g>
	<g class="st12">
		<path class="st35" d="M65.1,163.5L65.1,163.5L65.1,163.5z"/>
		<path class="st35" d="M69.2,160.4c-0.8-0.6-1.7-0.6-2.8-0.3c-0.3-0.6-0.6-0.8-0.8-1.1c-0.3,0-0.6,0-0.8,0
			c-0.3,0.3-0.6,0.8-0.6,1.4c-0.3,0-0.3,0-0.6-0.3c-0.6-0.3-2.2-0.3-2.2,0.3c0,0.3,0.3,0.6,0.6,0.8s0.6,0.6,0.8,0.8c0,0,0,0,0.3,0
			c-0.3,0.6-0.6,1.1,0,1.4c0.3,0.3,0.6,0.3,1.1,0.3c0.3,0,0.6-0.3,0.8-0.6l0.3-0.3l0,0c0.3,0,0.3,0,0.6,0c0,0,0.3,0,0.3,0.3
			c0.3,0,0.6,0.3,0.8,0.3s0.6,0,0.8,0c0.6,0,1.1-0.3,0.6-0.6c-0.3-0.3-0.3-0.6-0.6-0.6c0.3-0.3,0.6-0.3,0.8-0.6
			C69,161.6,69.8,161,69.2,160.4z"/>
	</g>
</g>
<g>
	<path class="st18" d="M88.5,176.4c0-1.4-0.6-2.5-1.4-3.6c-0.8-0.8-5-4.5-5.9-5.6c-1.4-1.7-5-1.7-6.4,0c-2,1.1-3.6,2.8-5.3,3.9
		c-2.8,2-3.4,3.1-3.1,6.1c0.3,2.2,0,5.9,2,7.8c0.8,0.8,2.2,1.1,3.6,1.7c1.4,0.8,2.8,1.7,3.9,2.8c2,1.7,4.7,0.6,6.1-0.8
		c1.7-2,3.6-3.4,5.9-4.7C90.2,182.5,88.5,177.2,88.5,176.4z"/>
	<path class="st19" d="M84.3,176.9c0-0.8-0.3-1.7-0.8-2.2c-0.6-0.6-3.4-2.8-3.9-3.6c-0.8-1.1-3.1-1.1-4.2-0.3
		c-1.4,0.8-2.2,2-3.4,2.5c-2,1.1-2.2,2-2,3.9c0.3,1.7,0,3.9,1.4,5c0.6,0.6,1.4,0.8,2.2,1.1c1.1,0.6,2,1.1,2.5,1.7
		c1.1,1.1,3.1,0.3,3.9-0.6c1.1-1.4,2.2-2.2,3.9-3.1C85.4,180.8,84.3,177.5,84.3,176.9z"/>
	<g class="st12">
		<path class="st20" d="M77.1,181.9L77.1,181.9L77.1,181.9z"/>
		<path class="st20" d="M83.8,176.6c-1.1-0.8-2.8-1.1-4.5-0.6c-0.3-0.8-0.8-1.7-1.7-2.2c-0.6-0.3-0.8-0.3-1.1,0.3
			c-0.6,0.8-0.8,1.7-1.1,2.5c-0.3,0-0.6-0.3-0.8-0.3c-1.1-0.3-3.6-0.8-3.6,0.8c0,0.6,0.6,1.1,0.8,1.4c0.3,0.6,1.1,1.1,1.4,1.4
			c0,0,0.3,0,0.3,0.3c-0.6,0.8-0.6,2,0,2.5c0.3,0.6,1.1,0.6,1.7,0.6s0.8-0.6,1.4-0.8l0.6-0.6l0,0c0.3,0,0.6,0,1.1,0
			c0.3,0,0.6,0.3,0.6,0.3c0.3,0.3,0.8,0.3,1.4,0.3c0.3,0,0.8,0,1.4,0c0.8,0.3,1.7-0.6,1.1-1.1c-0.3-0.3-0.6-0.8-0.8-1.1
			c0.6-0.3,0.8-0.6,1.4-0.8C83.8,178.6,84.6,177.5,83.8,176.6z"/>
	</g>
	<g class="st12">
		<path class="st20" d="M77.1,180.3L77.1,180.3L77.1,180.3z"/>
		<path class="st20" d="M80.1,178c-0.6-0.6-1.4-0.6-2-0.3c-0.3-0.3-0.3-0.8-0.8-0.8c-0.3,0-0.6,0-0.6,0c-0.3,0.3-0.3,0.8-0.6,1.1
			h-0.3c-0.6-0.3-1.7-0.3-1.7,0.3c0,0.3,0.3,0.6,0.3,0.6c0.3,0.3,0.6,0.6,0.6,0.6l0,0c-0.3,0.3-0.3,0.8,0,1.1
			c0.3,0.3,0.6,0.3,0.8,0.3c0.3,0,0.6-0.3,0.6-0.3l0.3-0.3l0,0c0.3,0,0.3,0,0.6,0c0,0,0.3,0,0.3,0.3c0.3,0,0.3,0.3,0.6,0.3
			s0.3,0,0.6,0s0.8-0.3,0.6-0.6C79,180,79,180,79,179.7c0.3-0.3,0.3-0.3,0.6-0.6C80.1,178.9,80.4,178.3,80.1,178z"/>
	</g>
</g>
<g>
	<path class="st18" d="M66.5,172.7c-0.8-0.8-1.7-1.7-2.8-2.2c-0.8-0.3-5-1.4-6.1-2c-1.7-0.8-3.4,0.3-3.1,2c-0.3,1.4,0,3.4,0,4.7
		c-0.3,2.2,0.3,3.4,2.2,5.6c1.4,1.7,3.6,4.5,5.6,5c0.8,0.3,1.7,0,2.8,0s2.2,0.3,3.4,0.6c2,0.6,2.5-1.1,2.2-2.8c-0.3-2-0.3-3.6,0-5.6
		C70.6,176.4,66.7,173.3,66.5,172.7z"/>
	<path class="st19" d="M64.8,174.4c-0.6-0.6-1.1-1.1-2-1.4c-0.6-0.3-3.4-1.1-3.9-1.4c-1.1-0.6-2.2,0.3-2,1.4c-0.3,0.8,0,2.2,0,3.1
		c-0.3,1.4,0.3,2.2,1.4,3.6c1.1,1.1,2.2,2.8,3.6,3.4c0.6,0.3,1.1,0,1.7,0c0.8,0,1.4,0.3,2.2,0.6c1.1,0.3,1.7-0.8,1.7-2
		c-0.3-1.4-0.3-2.5,0-3.6C67.6,176.9,65.1,175,64.8,174.4z"/>
	<g class="st12">
		<path class="st20" d="M64.2,180.5L64.2,180.5L64.2,180.5z"/>
		<path class="st20" d="M64.2,174.4c-1.1-0.3-2,0.3-2.5,1.1c-0.6-0.6-1.4-1.1-2-1.1c-0.3,0-0.6,0.3-0.6,0.6c0.3,0.8,0.6,1.4,0.8,2.2
			c-0.3,0-0.3,0-0.6,0c-0.6,0-2,0.6-1.4,1.7c0.3,0.3,0.8,0.6,1.1,0.8c0.6,0.3,1.1,0.6,1.4,0.6h0.3c0.3,0.8,0.8,1.7,1.4,2
			c0.6,0.3,0.8,0,1.1-0.3c0.3-0.3,0.3-0.6,0.3-1.1v-0.6l0,0c0.3,0,0.3-0.3,0.6-0.3c0.3,0,0.3,0,0.6,0s0.6,0,0.8-0.3
			c0.3,0,0.6-0.3,0.6-0.3c0.6-0.3,0.3-1.1-0.3-1.4c-0.3,0-0.8-0.3-1.1-0.6c0-0.3,0-0.8,0-1.1C65.3,176.1,65.1,174.7,64.2,174.4z"/>
	</g>
	<g class="st12">
		<path class="st20" d="M63.1,179.4L63.1,179.4L63.1,179.4z"/>
		<path class="st20" d="M63.4,176.6c-0.6,0-0.8,0-1.1,0.6c-0.3-0.3-0.6-0.6-0.8-0.6c-0.3,0-0.3,0-0.3,0.3s0.3,0.6,0.3,0.8h-0.3
			c-0.3,0-0.8,0.3-0.6,0.8c0,0.3,0.3,0.3,0.6,0.3s0.6,0.3,0.6,0.3l0,0c0,0.3,0.3,0.8,0.6,0.8c0.3,0,0.3,0,0.6,0c0,0,0-0.3,0-0.6
			v-0.3l0,0h0.3h0.3h0.3c0,0,0.3,0,0.3-0.3c0.3,0,0.3-0.6,0-0.6c-0.3,0-0.3-0.3-0.6-0.3c0-0.3,0-0.3,0-0.6
			C63.7,177.5,63.7,176.9,63.4,176.6z"/>
	</g>
</g>
<g>
	<path class="st30" d="M112.8,113.5c0-2.2-0.6-4.2-1.7-5.9c-1.1-1.4-6.7-7.5-7.8-9.5c-1.7-2.8-6.4-3.4-8.7-0.8
		c-2.8,1.7-5,4.5-7.5,6.1c-3.9,2.8-4.7,4.7-4.5,9.5c0.3,3.9-0.3,9.8,2.2,12.8c1.1,1.7,3.1,2.2,4.7,3.1c2,1.4,3.6,3.1,5.3,4.7
		c2.5,2.8,6.7,1.4,8.7-1.1c2.5-3.1,5.3-5.3,8.4-7.3C114.8,123.3,112.8,114.7,112.8,113.5z"/>
	<path class="st31" d="M106.9,114.4c0-1.4-0.3-2.8-1.1-3.9c-0.8-0.8-4.5-5-5.3-6.1c-1.1-2-4.2-2.2-5.6-0.6c-1.7,1.1-3.4,2.8-5,3.9
		c-2.5,1.7-3.1,3.1-3.1,6.4c0.3,2.5-0.3,6.4,1.4,8.4c0.8,1.1,2,1.4,3.1,2c1.4,0.8,2.5,2,3.4,3.1c1.7,2,4.5,0.8,5.6-0.6
		c1.7-2,3.4-3.4,5.6-4.7C108.3,120.5,106.9,114.9,106.9,114.4z"/>
	<g class="st12">
		<path class="st36" d="M96.6,121.4L96.6,121.4L96.6,121.4z"/>
		<path class="st36" d="M106.1,113.5c-1.7-1.7-3.9-2-6.1-1.4c-0.3-1.4-1.1-2.8-2-3.6c-0.6-0.6-1.4-0.3-1.7,0.3
			c-0.8,1.1-1.1,2.5-1.7,3.9c-0.3-0.3-0.8-0.3-1.1-0.6c-1.4-0.6-4.7-1.4-5,0.8c0,0.8,0.6,1.7,0.8,2.5c0.6,0.8,1.4,1.7,2,2.5l0.3,0.3
			c-0.8,1.1-1.1,3.1-0.3,4.2c0.6,0.8,1.4,1.1,2.5,0.8c0.8,0,1.4-0.8,2-1.1l0.8-0.6l0,0c0.6,0.3,0.8,0.3,1.4,0.3
			c0.3,0.3,0.6,0.3,0.8,0.6c0.6,0.3,1.1,0.6,1.7,0.8c0.6,0.3,1.1,0.3,1.7,0.3c1.1,0.3,2.2-1.1,1.7-2c-0.6-0.6-0.8-1.4-1.1-2
			c0.6-0.6,1.4-0.8,1.7-1.4C105.8,116.9,107.5,114.9,106.1,113.5z"/>
	</g>
	<g class="st12">
		<path class="st36" d="M96.6,118.8L96.6,118.8L96.6,118.8z"/>
		<path class="st36" d="M101.1,115.5c-0.8-0.8-1.7-0.8-2.8-0.6c-0.3-0.6-0.6-1.4-0.8-1.7c-0.3-0.3-0.6-0.3-0.8,0
			c-0.3,0.6-0.6,1.1-0.8,1.7c-0.3,0-0.3-0.3-0.6-0.3c-0.6-0.3-2.2-0.6-2.2,0.3c0,0.3,0.3,0.8,0.3,1.1c0.3,0.3,0.6,0.8,0.8,1.1
			c0,0,0,0,0.3,0.3c-0.3,0.6-0.6,1.4-0.3,2c0.3,0.3,0.6,0.6,1.1,0.6c0.3,0,0.6-0.3,0.8-0.6l0.3-0.3l0,0c0.3,0,0.3,0,0.6,0l0.3,0.3
			c0.3,0.3,0.6,0.3,0.8,0.3s0.6,0,0.8,0c0.6,0,1.1-0.6,0.6-0.8c-0.3-0.3-0.3-0.6-0.6-0.8c0.3-0.3,0.6-0.6,0.8-0.6
			C100.8,116.9,101.6,116,101.1,115.5z"/>
	</g>
</g>
<g>
	<path class="st10" d="M136.8,114.1c0-2.2-0.3-4.2-1.4-5.9c-0.8-1.4-5.3-7.5-6.1-9.5c-1.4-2.8-5.3-3.4-7-0.8
		c-2.2,1.7-3.9,4.5-5.9,6.1c-3.1,2.8-3.9,4.7-3.6,9.5c0.3,3.9-3.1,8.9-1.1,12c0.8,1.7,5.3,3.1,6.7,3.9c1.7,1.4,3.1,3.1,4.2,4.7
		c2,2.8,5.3,1.4,6.7-1.1c2-3.1,4.2-5.3,6.7-7.3C138.2,123.9,136.8,114.9,136.8,114.1z"/>
	<path class="st11" d="M132.3,114.7c0-1.4-0.3-2.8-0.8-3.9c-0.6-0.8-3.6-5-4.2-6.1c-0.8-2-3.4-2.2-4.5-0.6c-1.4,1.1-2.5,2.8-3.9,3.9
		c-2.2,1.7-2.5,3.1-2.2,6.4c0,2.5-0.3,6.4,1.1,8.4c0.6,1.1,1.7,1.4,2.5,2c1.1,0.8,2,2,2.8,3.1c1.4,2,3.6,0.8,4.5-0.6
		c1.1-2,2.8-3.4,4.5-4.7C133.2,121.1,132.1,115.2,132.3,114.7z"/>
	<g class="st12">
		<path class="st13" d="M124,121.9L124,121.9C124,121.9,124,121.6,124,121.9z"/>
		<path class="st13" d="M131.5,113.8c-1.1-1.7-3.1-2-5-1.4c-0.3-1.4-0.8-2.8-1.7-3.6c-0.6-0.6-1.1-0.3-1.4,0.3
			c-0.6,1.1-1.1,2.5-1.1,3.9c-0.3-0.3-0.6-0.3-0.8-0.6c-1.1-0.6-3.9-1.4-3.9,0.8c0,0.8,0.3,1.7,0.8,2.5c0.3,0.8,1.1,1.7,1.7,2.5
			l0.3,0.3c-0.6,1.1-0.8,3.1-0.3,4.2c0.6,0.8,1.1,1.1,2,0.8c0.6,0,1.1-0.8,1.4-1.1l0.6-0.6l0,0c0.3,0.3,0.8,0.3,1.1,0.3
			c0.3,0.3,0.6,0.3,0.8,0.6c0.6,0.3,0.8,0.6,1.4,0.8c0.6,0.3,0.8,0.3,1.4,0.3c0.8,0.3,2-1.1,1.1-2c-0.3-0.6-0.6-1.4-0.8-2
			c0.6-0.6,1.1-0.8,1.4-1.4C131.2,117.2,132.6,115.2,131.5,113.8z"/>
	</g>
	<g class="st12">
		<path class="st13" d="M124,119.1C124,119.4,124,119.4,124,119.1C124,119.4,124,119.1,124,119.1z"/>
		<path class="st13" d="M127.3,115.8c-0.6-0.8-1.4-0.8-2.2-0.6c0-0.6-0.3-1.4-0.8-1.7c-0.3-0.3-0.6-0.3-0.6,0
			c-0.3,0.6-0.6,1.1-0.6,1.7l-0.3-0.3c-0.6-0.3-1.7-0.6-1.7,0.3c0,0.3,0.3,0.8,0.3,1.1c0.3,0.3,0.6,0.8,0.6,1.1c0,0,0,0,0,0.3
			c-0.3,0.6-0.3,1.4,0,2c0.3,0.3,0.6,0.6,0.8,0.6c0.3,0,0.6-0.3,0.6-0.6l0.3-0.3l0,0c0.3,0,0.3,0,0.6,0l0.3,0.3
			c0.3,0.3,0.6,0.3,0.6,0.3c0.3,0,0.3,0,0.6,0c0.3,0,0.8-0.6,0.6-0.8c-0.3-0.3-0.3-0.6-0.3-0.8c0.3-0.3,0.6-0.6,0.6-0.6
			C127.3,117.2,127.9,116.3,127.3,115.8z"/>
	</g>
</g>
<g>
	<path class="st37" d="M156.6,110.5c0-2.2-0.3-4.2-1.1-5.9c-0.8-1.4-4.5-7.5-5-9.5c-1.1-2.8-4.2-3.4-5.6-0.8
		c-2.2,1.4-3.6,4.2-5.3,5.9c-2.5,2.8-4.7,5.3-4.7,10.1c0.3,3.9,1.4,9.2,3.1,12.3c0.8,1.7,2,2.2,3.1,3.1c1.4,1.4,2.5,3.1,3.4,4.7
		c1.7,2.8,4.5,3.9,5.6,1.4c1.7-3.1,3.4-7.8,5.6-9.8S156.3,111.3,156.6,110.5z"/>
	<path class="st38" d="M152.7,111c0-1.4-0.3-2.8-0.8-3.9c-0.6-0.8-2.8-5-3.4-6.1c-0.8-2-2.8-2.2-3.6-0.6c-1.1,1.1-2.2,2.8-3.4,3.9
		c-1.7,1.7-2,3.1-2,6.4c0,2.5-0.3,6.4,0.8,8.4c0.6,1.1,1.4,1.4,2,2c0.8,0.8,1.7,2,2.2,3.1c1.1,2,2.8,0.8,3.6-0.6
		c1.1-2,2.2-3.4,3.6-4.7C153.6,117.4,152.7,111.6,152.7,111z"/>
	<g class="st12">
		<path class="st39" d="M145.7,118C145.7,118,145.7,118.3,145.7,118L145.7,118z"/>
		<path class="st39" d="M152.2,110.2c-1.1-1.7-2.5-2-4.2-1.4c-0.3-1.4-0.8-2.8-1.4-3.6c-0.3-0.6-0.8-0.3-1.1,0.3
			c-0.6,1.1-0.8,2.5-1.1,3.9c-0.3-0.3-0.6-0.3-0.8-0.6c-0.8-0.6-3.1-1.4-3.4,0.8c0,0.8,0.3,1.7,0.6,2.5c0.3,0.8,0.8,1.7,1.4,2.5
			l0.3,0.3c-0.6,1.1-0.8,3.1-0.3,4.2c0.3,0.8,0.8,1.1,1.7,0.8c0.6,0,0.8-0.6,1.4-1.1l0.6-0.6l0,0c0.3,0.3,0.6,0.3,0.8,0.3
			c0.3,0.3,0.3,0.3,0.6,0.6c0.3,0.3,0.8,0.6,1.1,0.8c0.3,0.3,0.8,0.3,1.1,0.3c0.6,0.3,1.4-1.1,1.1-2c-0.3-0.6-0.6-1.4-0.6-2
			c0.6-0.6,0.8-0.8,1.1-1.4C151.9,113.5,153,111.6,152.2,110.2z"/>
	</g>
	<g class="st12">
		<path class="st39" d="M146,115.5L146,115.5L146,115.5z"/>
		<path class="st39" d="M148.8,112.1c-0.6-0.8-1.1-0.8-2-0.6c0-0.6-0.3-1.4-0.6-1.7c-0.3-0.3-0.3-0.3-0.6,0
			c-0.3,0.6-0.3,1.1-0.6,1.7l-0.3-0.3c-0.3-0.3-1.4-0.6-1.4,0.3c0,0.3,0.3,0.8,0.3,1.1c0,0.3,0.3,0.8,0.6,1.1c0,0,0,0,0,0.3
			c-0.3,0.6-0.3,1.4,0,2c0.3,0.3,0.6,0.6,0.8,0.6s0.3-0.3,0.6-0.6l0.3-0.3l0,0h0.3l0.3,0.3c0.3,0.3,0.3,0.3,0.6,0.3
			c0.3,0,0.3,0,0.6,0c0.3,0,0.6-0.6,0.6-0.8c0-0.3-0.3-0.6-0.3-0.8c0.3-0.3,0.3-0.6,0.6-0.6C148.8,113.5,149.1,112.7,148.8,112.1z"
			/>
	</g>
</g>
<g>
	<path class="st10" d="M164.4,103.8c0-1.7-0.3-3.4-0.6-4.7c-0.3-1.1-2.5-6.1-2.8-7.8c-0.6-2.2-2.2-2.8-3.1-0.6
		c-0.8,1.4-1.7,3.6-2.8,5c-1.4,2.2-2.5,3.6-2.5,7.5c0,3.1,0.6,8.1,1.7,10.6c0.6,1.4,2,4.7,2.5,6.1c0.8,2.2,3.4,1.4,3.9-0.6
		c0.8-2.5,2-4.2,3.1-5.9C165,111.9,164.4,104.9,164.4,103.8z"/>
	<path class="st11" d="M162.2,104.3c0-1.1,0-2.2-0.3-3.1s-1.7-3.9-2-5c-0.3-1.4-1.4-2-2-0.6c-0.6,0.8-1.1,2.2-1.7,3.4
		c-0.8,1.4-1.1,2.5-1.1,5c0,2,0,5,0.6,7c0.3,0.8,0.8,1.1,1.1,1.7c0.6,0.6,0.8,1.7,1.1,2.5c0.6,1.4,1.7,0.8,2-0.6
		c0.6-1.7,1.1-2.8,2-3.9C162.8,109.6,162.2,104.9,162.2,104.3z"/>
	<g class="st12">
		<path class="st13" d="M158.6,110.2L158.6,110.2L158.6,110.2z"/>
		<path class="st13" d="M161.9,103.8c-0.6-1.4-1.4-1.4-2.2-1.1c0-1.1-0.3-2.5-0.8-3.1c-0.3-0.3-0.6-0.3-0.6,0.3
			c-0.3,0.8-0.6,2-0.6,3.1c0-0.3-0.3-0.3-0.3-0.3c-0.6-0.6-1.7-1.1-1.7,0.6c0,0.6,0.3,1.4,0.3,2c0.3,0.6,0.6,1.4,0.6,2v0.3
			c-0.3,1.1-0.3,2.5,0,3.4c0.3,0.6,0.6,0.8,0.8,0.8s0.6-0.6,0.6-0.8l0.3-0.6l0,0c0.3,0,0.3,0.3,0.6,0.3c0,0.3,0.3,0.3,0.3,0.6
			c0.3,0.3,0.6,0.6,0.6,0.6c0.3,0,0.3,0,0.6,0.3c0.3,0.3,0.8-0.8,0.6-1.7c-0.3-0.6-0.3-1.1-0.3-1.7c0.3-0.3,0.6-0.8,0.6-1.1
			C161.9,106.6,162.5,104.9,161.9,103.8z"/>
	</g>
	<g class="st12">
		<path class="st13" d="M158.6,108.2L158.6,108.2L158.6,108.2z"/>
		<path class="st13" d="M160.3,105.2c-0.3-0.6-0.6-0.6-1.1-0.6c0-0.6-0.3-1.1-0.3-1.4s-0.3-0.3-0.3,0s-0.3,0.8-0.3,1.4
			c0,0,0,0-0.3-0.3c-0.3-0.3-0.8-0.6-0.8,0.3c0,0.3,0,0.6,0.3,0.8c0,0.3,0.3,0.6,0.3,0.8l0,0c0,0.6-0.3,1.1,0,1.4
			c0,0.3,0.3,0.3,0.3,0.3s0.3-0.3,0.3-0.6v-0.3l0,0h0.3c0,0,0,0.3,0.3,0.3l0.3,0.3h0.3c0.3,0,0.3-0.3,0.3-0.8c0-0.3,0-0.6-0.3-0.8
			c0-0.3,0.3-0.3,0.3-0.6C160.3,106.6,160.5,105.7,160.3,105.2z"/>
	</g>
</g>
<g>
	<path class="st21" d="M82.6,111.3c0-2.2-0.6-4.2-1.7-5.9c-1.1-1.4-6.7-7.5-7.8-9.5c-1.7-2.8-6.4-3.4-8.7-0.8
		c-2.8,1.7-5,4.5-7.5,6.1c-3.9,2.8-4.7,4.7-4.5,9.5c0.3,3.9-0.3,9.8,2.2,12.8c1.1,1.7,3.1,2.2,4.7,3.1c2,1.4,3.6,3.1,5.3,4.7
		c2.5,2.8,6.7,1.4,8.7-1.1c2.5-3.1,5.3-5.3,8.4-7.3C84.6,121.1,82.6,112.4,82.6,111.3z"/>
	<path class="st22" d="M76.8,111.9c0-1.4-0.3-2.8-1.1-3.9c-0.8-0.8-4.5-5-5.3-6.1c-1.1-2-4.2-2.2-5.6-0.6c-1.7,1.1-3.4,2.8-5,3.9
		c-2.5,1.7-3.1,3.1-3.1,6.4c0.3,2.5-0.3,6.4,1.4,8.4c0.8,1.1,2,1.4,3.1,2c1.4,0.8,2.5,2,3.4,3.1c1.7,2,4.5,0.8,5.6-0.6
		c1.7-2,3.4-3.4,5.6-4.7C77.9,118.3,76.8,112.7,76.8,111.9z"/>
	<g class="st12">
		<path class="st23" d="M66.2,119.1L66.2,119.1C66.2,119.1,66.5,119.1,66.2,119.1z"/>
		<path class="st23" d="M75.9,111.3c-1.7-1.7-3.9-2-6.1-1.4c-0.3-1.4-1.1-2.8-2-3.6c-0.6-0.6-1.4-0.3-1.7,0.3
			c-0.8,1.1-1.1,2.5-1.7,3.9c-0.3-0.3-0.8-0.3-1.1-0.6c-1.4-0.6-4.7-1.4-5,0.8c0,0.8,0.6,1.7,0.8,2.5c0.6,0.8,1.4,1.7,2,2.5l0.3,0.3
			c-0.8,1.1-1.1,3.1-0.3,4.2c0.6,0.8,1.4,1.1,2.5,0.8c0.8,0,1.4-0.6,2-1.1l0.8-0.6l0,0c0.6,0.3,0.8,0.3,1.4,0.3
			c0.3,0.3,0.6,0.3,0.8,0.6c0.6,0.3,1.1,0.6,1.7,0.8c0.6,0.3,1.1,0.3,1.7,0.3c1.1,0.3,2.2-1.1,1.7-2c-0.6-0.6-0.8-1.4-1.1-2
			c0.6-0.6,1.4-0.8,1.7-1.4C75.7,114.7,77.1,112.4,75.9,111.3z"/>
	</g>
	<g class="st12">
		<path class="st23" d="M66.5,116.6L66.5,116.6L66.5,116.6z"/>
		<path class="st23" d="M70.6,113c-0.8-0.8-1.7-0.8-2.8-0.6c-0.3-0.6-0.6-1.4-0.8-1.7c-0.3-0.3-0.6-0.3-0.8,0
			c-0.3,0.6-0.6,1.1-0.8,1.7c-0.3,0-0.3-0.3-0.6-0.3c-0.6-0.3-2.2-0.6-2.2,0.3c0,0.3,0.3,0.8,0.3,1.1c0.3,0.3,0.6,0.8,0.8,1.1
			c0,0,0,0,0.3,0.3c-0.3,0.6-0.6,1.4-0.3,2c0.3,0.3,0.6,0.6,1.1,0.6c0.3,0,0.6-0.3,0.8-0.6l0.3-0.3l0,0c0.3,0,0.3,0,0.6,0l0.3,0.3
			c0.3,0.3,0.6,0.3,0.8,0.3c0.3,0,0.6,0,0.8,0c0.6,0,1.1-0.6,0.6-0.8c-0.3-0.3-0.3-0.6-0.6-0.8c0.3-0.3,0.6-0.6,0.8-0.6
			C70.6,114.7,71.2,113.5,70.6,113z"/>
	</g>
</g>
<g>
	<path class="st18" d="M95.8,92c0.3-2,0-3.6-1.1-5.3c-0.8-1.4-5.3-7.3-6.1-8.9c-1.4-2.5-5.6-3.6-7.5-1.4c-2.5,1.1-4.7,3.4-7.3,4.7
		c-3.9,2-4.7,3.9-4.7,8.1c0,3.4-1.1,8.4,0.8,11.4c0.8,1.4,2.5,2.2,3.9,3.1c1.7,1.4,3.1,2.8,4.2,4.5c2,2.8,5.9,1.7,7.8-0.3
		c2.5-2.5,5-4.2,8.1-5.6C96.6,100.7,95.5,92.9,95.8,92z"/>
	<path class="st19" d="M90.5,92c0.3-1.1,0-2.5-0.8-3.4c-0.6-0.8-3.6-4.7-4.2-5.9c-0.8-1.7-3.6-2.2-5-0.8c-1.7,0.8-3.1,2.2-4.7,3.1
		c-2.5,1.4-3.1,2.5-3.1,5.3c0,2.2-0.8,5.6,0.6,7.5c0.6,0.8,1.7,1.4,2.5,2c1.1,0.8,2,2,2.8,3.1c1.4,1.7,3.9,1.1,5,0
		c1.7-1.7,3.4-2.8,5.3-3.6C91,97.6,90.2,92.6,90.5,92z"/>
	<g class="st12">
		<path class="st20" d="M80.4,97.3C80.4,97.3,80.4,97.6,80.4,97.3L80.4,97.3z"/>
		<path class="st20" d="M89.6,91.2c-1.4-1.7-3.4-2-5.3-1.7c-0.3-1.4-0.8-2.8-1.4-3.4s-1.1-0.6-1.7,0c-0.8,0.8-1.4,2-1.7,3.1
			C79.3,89,79,89,78.7,88.7c-1.1-0.6-4.2-1.7-4.5,0.3c-0.3,0.6,0.3,1.7,0.6,2.2c0.3,0.8,1.1,1.7,1.7,2.2l0.3,0.3
			c-0.8,1.1-1.1,2.5-0.6,3.6c0.3,0.8,1.1,1.1,2,1.1c0.8,0,1.1-0.6,1.7-0.8l0.8-0.6l0,0c0.3,0.3,0.8,0.3,1.1,0.3
			c0.3,0.3,0.6,0.3,0.8,0.6c0.6,0.3,1.1,0.6,1.4,0.8c0.6,0.3,1.1,0.3,1.4,0.3c0.8,0.3,2.2-0.6,1.4-1.7c-0.3-0.6-0.6-1.1-0.8-1.7
			c0.6-0.3,1.1-0.8,1.7-1.1C89.1,94.3,90.7,92.6,89.6,91.2z"/>
	</g>
	<g class="st12">
		<path class="st20" d="M81,95.4C80.7,95.4,80.7,95.4,81,95.4L81,95.4z"/>
		<path class="st20" d="M84.9,92.6c-0.6-0.8-1.4-0.8-2.5-0.8c0-0.6-0.3-1.1-0.6-1.4c-0.3-0.3-0.6-0.3-0.8,0
			c-0.3,0.3-0.6,0.8-0.8,1.4l-0.3-0.3c-0.6-0.3-2-0.8-2,0.3c0,0.3,0.3,0.8,0.3,1.1c0.3,0.3,0.6,0.8,0.6,1.1c0,0,0,0,0.3,0.3
			c-0.3,0.6-0.6,1.1-0.3,1.7c0.3,0.3,0.6,0.6,0.8,0.6s0.6-0.3,0.8-0.3l0.3-0.3l0,0c0.3,0,0.3,0,0.6,0l0.3,0.3
			c0.3,0.3,0.6,0.3,0.6,0.3c0.3,0,0.6,0,0.6,0.3c0.3,0.3,0.8-0.3,0.6-0.6c-0.3-0.3-0.3-0.6-0.3-0.8c0.3-0.3,0.6-0.3,0.8-0.6
			C84.6,93.7,85.4,93.2,84.9,92.6z"/>
	</g>
</g>
<g>
	<path class="st18" d="M70.1,94.3c0.6-1.7-0.3-8.4-0.8-10.3c-0.3-1.4-2.5-7.8-2.8-9.8c-0.3-2.8-3.4-4.2-5.6-2.5
		c-2.2,0.8-4.7,2.5-6.7,3.4c-3.4,1.4-4.5,3.1-5.6,7c-0.8,3.4-2.8,8.1-2,11.2c0.3,1.7,1.4,2.5,2.2,3.6c1.1,1.4,1.7,3.4,2.2,5
		c1.7,5.6,4.2,3.1,6.1,1.1c2.2-2.5,5-3.1,7.8-4.2C67.6,97.9,69.8,95.1,70.1,94.3z"/>
	<path class="st19" d="M64.8,88.4c0.6-1.1,0.6-2.2,0.3-3.4c-0.3-0.8-1.7-5-1.7-6.4c-0.3-2-2.2-2.8-3.6-1.7c-1.4,0.6-3.1,1.7-4.5,2.2
		c-2.2,0.8-3.1,2-3.6,4.5c-0.6,2.2-2,5.3-1.4,7.3c0.3,1.1,1.1,1.7,1.4,2.5c0.6,1.1,1.1,2.2,1.4,3.4c0.6,2,2.8,1.7,3.9,0.6
		c1.7-1.4,3.4-2,5-2.8C63.9,94.3,64.5,89,64.8,88.4z"/>
	<g class="st12">
		<path class="st20" d="M55.8,92.3L55.8,92.3L55.8,92.3z"/>
		<path class="st20" d="M64.5,87.9c-0.6-1.7-2.2-2.5-3.9-2.5c0.3-1.4,0-2.8-0.3-3.4c-0.3-0.6-0.8-0.6-1.1-0.3
			c-0.8,0.8-1.4,1.7-2.2,2.8c-0.3-0.3-0.3-0.6-0.6-0.6c-0.8-0.8-2.8-2.2-3.6-0.3c-0.3,0.6,0,1.7,0,2.2c0,0.8,0.3,1.7,0.6,2.5
			c0,0,0,0.3,0.3,0.3c-0.8,0.8-1.7,2.2-1.4,3.4c0,0.8,0.6,1.1,1.4,1.4c0.6,0,1.1-0.3,1.7-0.6l0.8-0.3l0,0c0.3,0.3,0.6,0.3,0.8,0.6
			s0.3,0.6,0.6,0.6c0.3,0.3,0.6,0.8,1.1,1.1c0.3,0.3,0.8,0.3,1.1,0.6c0.6,0.6,2-0.3,1.7-1.4c-0.3-0.6,0-1.1,0-2
			c0.6-0.3,1.1-0.6,1.7-0.8C63.4,90.4,64.8,89.2,64.5,87.9z"/>
	</g>
	<g class="st12">
		<path class="st20" d="M56.7,90.1L56.7,90.1L56.7,90.1z"/>
		<path class="st20" d="M60.6,88.1c-0.3-0.8-0.8-1.1-1.7-1.1c0-0.6,0-1.1-0.3-1.7c0-0.3-0.3-0.3-0.6,0s-0.6,0.8-0.8,1.4L57,86.5
			c-0.3-0.3-1.4-1.1-1.7-0.3c0,0.3,0,0.8,0,1.1s0.3,0.8,0.3,1.1c0,0,0,0,0,0.3c-0.3,0.3-0.8,1.1-0.6,1.4c0,0.3,0.3,0.6,0.6,0.6
			s0.6,0,0.8-0.3l0.3-0.3l0,0l0.3,0.3c0,0,0,0.3,0.3,0.3c0,0.3,0.3,0.3,0.6,0.6c0.3,0,0.3,0.3,0.6,0.3c0.3,0.3,0.8-0.3,0.8-0.6
			c0-0.3,0-0.6,0-0.8c0.3,0,0.6-0.3,0.8-0.3C60,89.2,60.6,88.7,60.6,88.1z"/>
	</g>
</g>
<path class="st40" d="M124.2,88.4c-0.3-2-0.8-3.6-2.5-4.7c-1.4-1.1-7.5-5.6-8.9-7c-2-2.2-6.7-2-8.4,0.6c-2.5,1.7-4.2,4.5-6.4,6.4
	c-3.6,3.1-3.9,5-3.1,8.9c0.8,3.4,0.8,8.4,3.9,10.9c1.4,1.1,3.4,1.4,5,2c2.2,0.8,4.7,6.4,6.7,7.8c2.8,2.2,5.6-4.2,7.3-6.7
	c2-3.1,4.2-5.3,7.3-7.5C127.3,96.8,124.2,89.5,124.2,88.4z"/>
<path class="st41" d="M118.7,89.8c0-1.1-0.6-2.2-1.7-3.1c-0.8-0.8-5-3.6-5.9-4.7c-1.4-1.4-4.5-1.4-5.6,0.3c-1.7,1.1-2.8,3.1-4.2,4.2
	c-2.2,2-2.5,3.4-2,5.9c0.6,2.2,0.6,5.6,2.5,7c0.8,0.8,2.2,0.8,3.4,1.4c1.4,0.6,2.5,1.4,3.6,2.2c1.7,1.4,4.5,0,5.3-1.4
	c1.1-2,2.8-3.4,4.7-5C120.6,95.1,118.7,90.4,118.7,89.8z"/>
<g class="st12">
	<path class="st42" d="M109.4,95.4L109.4,95.4L109.4,95.4z"/>
	<path class="st42" d="M113.1,91.8c-0.8-0.6-1.7-0.6-2.8,0c-0.3-0.6-0.6-1.1-1.1-1.4c-0.3,0-0.6,0-0.8,0.3c-0.3,0.6-0.3,1.1-0.6,1.7
		c-0.3,0-0.3,0-0.6,0c-0.6,0-2.2-0.3-2.2,0.6c0,0.3,0.3,0.6,0.6,0.8c0.3,0.3,0.6,0.6,1.1,0.8c0,0,0,0,0.3,0c-0.3,0.6-0.3,1.1,0,1.7
		c0.3,0.3,0.6,0.3,1.1,0.3c0.3,0,0.6-0.3,0.8-0.6l0.3-0.3l0,0c0.3,0,0.3,0,0.6,0c0,0,0.3,0,0.3,0.3c0.3,0,0.6,0.3,0.8,0.3
		s0.6,0,0.8,0c0.6,0,0.8-0.6,0.6-0.8c-0.3-0.3-0.3-0.6-0.6-0.8c0.3-0.3,0.6-0.6,0.6-0.6C113.1,92.9,113.6,92,113.1,91.8z"/>
</g>
<g>
	<path class="st43" d="M141.8,88.1c-0.3-2-1.1-3.4-2.5-4.7c-1.1-1.1-6.1-5.3-7.3-6.7c-1.7-2.2-5-1.7-5.9,0.8c-1.4,2-2.2,4.5-3.4,6.4
		c-2,3.1-2,5-0.8,8.9c1.1,3.1,2,8.4,4.2,10.6c1.1,1.1,2.5,1.4,3.6,2c1.7,0.8,3.1,2,4.5,3.1c2.2,2,4.5,0,5.3-2.2
		c0.8-3.1,2.2-5.3,3.6-7.5C145.2,95.9,142.1,89,141.8,88.1z"/>
	<path class="st44" d="M138.2,89.5c-0.3-1.1-0.8-2.2-1.7-3.1c-0.6-0.6-3.9-3.4-4.7-4.5c-1.1-1.4-3.4-1.1-3.6,0.6
		c-0.8,1.1-1.4,3.1-2.2,4.2c-1.4,2-1.4,3.4-0.6,5.9c0.6,2,1.4,5.3,2.8,7c0.8,0.8,1.7,0.8,2.5,1.1c1.1,0.6,2,1.1,2.8,2
		c1.4,1.4,3.1,0,3.4-1.7c0.6-2,1.4-3.4,2.5-5C140.4,94.8,138.5,90.1,138.2,89.5z"/>
	<g class="st12">
		<path class="st45" d="M133.2,97.3L133.2,97.3L133.2,97.3z"/>
		<path class="st45" d="M137.6,89c-1.4-1.1-2.8-0.8-4.2,0c-0.6-1.1-1.4-2.2-2.2-2.8c-0.6-0.3-0.8,0-1.1,0.6
			c-0.3,1.1-0.3,2.2-0.3,3.6c-0.3,0-0.6-0.3-0.8-0.3c-1.1-0.3-3.4-0.3-3.1,1.7c0,0.6,0.8,1.4,1.1,2c0.6,0.6,1.1,1.4,1.7,1.7l0.3,0.3
			c-0.3,1.1,0,2.8,0.8,3.6c0.6,0.6,1.1,0.6,1.7,0.3c0.6-0.3,0.8-0.8,0.8-1.4c0,0,0.3-0.6,0.3-0.8l0,0c0.3,0,0.6,0,0.8,0
			c0.3,0,0.6,0.3,0.6,0.3c0.3,0.3,0.8,0.3,1.4,0.3c0.3,0,0.8,0,1.1,0c0.8,0,1.1-1.1,0.6-2c-0.6-0.3-0.8-1.1-1.1-1.4
			c0.3-0.6,0.6-1.1,0.8-1.7C138.2,91.8,138.5,90.1,137.6,89z"/>
	</g>
	<g class="st12">
		<path class="st45" d="M132.6,95.1L132.6,95.1L132.6,95.1z"/>
		<path class="st45" d="M134.6,91.5c-0.6-0.6-1.4-0.3-2,0c-0.3-0.6-0.6-1.1-0.8-1.1s-0.3,0-0.6,0.3c0,0.6,0,1.1,0,1.7h-0.3
			c-0.6,0-1.4-0.3-1.4,0.8c0,0.3,0.3,0.6,0.6,0.8c0.3,0.3,0.6,0.6,0.8,0.8c0,0,0,0,0.3,0c0,0.6,0,1.1,0.3,1.7
			c0.3,0.3,0.6,0.3,0.8,0.3c0.3,0,0.3-0.3,0.6-0.6l0.3-0.3l0,0c0.3,0,0.3,0,0.6,0c0,0,0.3,0,0.3,0.3c0.3,0,0.3,0.3,0.6,0.3
			c0.3,0,0.3,0,0.6,0c0.3,0,0.6-0.6,0.3-0.8c-0.3-0.3-0.3-0.6-0.6-0.6c0-0.3,0.3-0.6,0.3-0.6C134.9,92.9,135.1,91.8,134.6,91.5z"/>
	</g>
</g>
<g>
	<path class="st46" d="M143.8,62.4c-0.3-2-1.1-3.4-2.5-4.7c-1.1-1.1-6.1-5.3-7.3-6.7c-1.7-2.2-5-1.7-5.9,0.8c-1.4,2-2.2,4.5-3.4,6.4
		c-2,3.1-2,5-0.8,8.9c1.1,3.1,2,8.4,4.2,10.6c1.1,1.1,2.5,1.4,3.6,2c1.7,0.8,3.1,2,4.5,3.1c2.2,2,4.5,0,5.3-2.2
		c0.8-3.1,2.2-5.3,3.6-7.5C147.1,70.3,144.1,63.3,143.8,62.4z"/>
	<path class="st47" d="M140.2,63.8c-0.3-1.1-0.8-2.2-1.7-3.1c-0.6-0.6-3.9-3.4-4.7-4.5c-1.1-1.4-3.4-1.1-3.6,0.6
		c-0.8,1.1-1.4,3.1-2.2,4.2c-1.4,2-1.4,3.4-0.6,5.9c0.6,2,1.4,5.3,2.8,7c0.8,0.8,1.7,0.8,2.5,1.1c1.1,0.6,2,1.1,2.8,2
		c1.4,1.4,3.1,0,3.4-1.7c0.6-2,1.4-3.4,2.5-5C142.4,69.1,140.4,64.4,140.2,63.8z"/>
	<g class="st12">
		<path class="st48" d="M135.1,71.7C135.1,71.9,135.1,71.9,135.1,71.7L135.1,71.7z"/>
		<path class="st48" d="M139.6,63.6c-1.4-1.1-2.8-0.8-4.2,0c-0.6-1.1-1.4-2.2-2.2-2.8c-0.6-0.3-0.8,0-1.1,0.6
			c-0.3,1.1-0.3,2.2-0.3,3.6c-0.3,0-0.6-0.3-0.8-0.3c-1.1-0.3-3.4-0.3-3.1,1.7c0,0.6,0.8,1.4,1.1,2c0.6,0.6,1.1,1.4,1.7,1.7l0.3,0.3
			c-0.3,1.1,0,2.8,0.8,3.6c0.6,0.6,1.1,0.6,1.7,0.3c0.6-0.3,0.8-0.8,0.8-1.4c0,0,0.3-0.6,0.3-0.8l0,0c0.3,0,0.6,0,0.8,0
			s0.6,0.3,0.6,0.3c0.3,0.3,0.8,0.3,1.4,0.3c0.3,0,0.8,0,1.1,0c0.8,0,1.1-1.1,0.6-2c-0.6-0.3-0.8-1.1-1.1-1.4
			c0.3-0.6,0.6-1.1,0.8-1.7C140.2,66.4,140.7,64.4,139.6,63.6z"/>
	</g>
	<g class="st12">
		<path class="st48" d="M134.6,69.7L134.6,69.7L134.6,69.7z"/>
		<path class="st48" d="M136.5,65.8c-0.6-0.6-1.4-0.3-2,0c-0.3-0.6-0.6-1.1-0.8-1.1s-0.3,0-0.6,0.3c0,0.6,0,1.1,0,1.7h-0.3
			c-0.6,0-1.4-0.3-1.4,0.8c0,0.3,0.3,0.6,0.6,0.8c0.3,0.3,0.6,0.6,0.8,0.8c0,0,0,0,0.3,0c0,0.6,0,1.1,0.3,1.7
			c0.3,0.3,0.6,0.3,0.8,0.3c0.3,0,0.3-0.3,0.6-0.6l0.3-0.3l0,0c0.3,0,0.3,0,0.6,0c0,0,0.3,0,0.3,0.3c0.3,0,0.3,0.3,0.6,0.3
			c0.3,0,0.3,0,0.6,0s0.6-0.6,0.3-0.8c-0.3-0.3-0.3-0.6-0.6-0.6c0-0.3,0.3-0.6,0.3-0.6C136.8,67.2,137.1,66.4,136.5,65.8z"/>
	</g>
</g>
<g>
	<path class="st30" d="M127.9,67.2c-0.3-2-0.8-3.6-2-5c-0.8-1.1-5.3-5.9-6.4-7.5c-1.4-2.2-4.7-2.5-5.9,0c-1.7,1.7-2.8,4.2-4.2,5.9
		c-2.2,2.8-2.5,4.7-1.7,8.7c0.6,3.4,0.8,8.4,3.1,10.9c1.1,1.1,2.2,1.7,3.4,2.2c1.4,0.8,2.8,2.2,3.9,3.6c2,2.2,4.5,0.6,5.6-1.7
		c1.1-2.8,2.8-5,4.7-7.3C130.4,75.6,127.9,68,127.9,67.2z"/>
	<path class="st31" d="M124.2,68.3c0-1.1-0.6-2.2-1.1-3.4c-0.6-0.8-3.6-3.9-4.2-5c-0.8-1.7-3.1-1.7-3.9,0c-1.1,1.1-2,2.8-2.8,3.9
		c-1.4,2-1.7,3.1-1.1,5.9c0.3,2.2,0.6,5.6,2,7.3c0.6,0.8,1.4,1.1,2.2,1.4c0.8,0.6,2,1.4,2.5,2.5c1.4,1.4,3.1,0.3,3.6-1.1
		c0.8-2,1.7-3.4,3.1-4.7C125.6,73.6,124.2,68.9,124.2,68.3z"/>
	<g class="st12">
		<path class="st36" d="M118.1,75.6L118.1,75.6L118.1,75.6z"/>
		<path class="st36" d="M123.4,67.7c-1.1-1.4-2.8-1.1-4.2-0.6c-0.6-1.4-1.1-2.5-1.7-3.1c-0.6-0.3-0.8-0.3-1.1,0.3
			c-0.3,1.1-0.6,2.2-0.6,3.4c-0.3,0-0.6-0.3-0.8-0.3c-1.1-0.3-3.4-0.8-3.1,1.1c0,0.6,0.6,1.4,0.8,2c0.3,0.6,1.1,1.4,1.7,2l0.3,0.3
			c-0.3,1.1-0.3,2.8,0.3,3.6c0.6,0.6,1.1,0.8,1.7,0.6c0.6-0.3,0.8-0.8,1.1-1.1l0.6-0.6l0,0c0.3,0,0.6,0,0.8,0
			c0.3,0.3,0.6,0.3,0.6,0.3c0.3,0.3,0.8,0.6,1.4,0.6c0.3,0,0.8,0,1.1,0c0.8,0.3,1.4-1.1,0.8-2c-0.3-0.6-0.6-1.1-0.8-1.7
			c0.3-0.6,0.8-0.8,1.1-1.4S124.5,68.9,123.4,67.7z"/>
	</g>
	<g class="st12">
		<path class="st36" d="M118.1,73.3L118.1,73.3L118.1,73.3z"/>
		<path class="st36" d="M120.3,69.7c-0.6-0.6-1.1-0.6-2-0.3c-0.3-0.6-0.6-1.1-0.8-1.4c-0.3-0.3-0.3,0-0.6,0.3
			c-0.3,0.6-0.3,1.1-0.3,1.7c0,0-0.3,0-0.3-0.3c-0.6-0.3-1.4-0.3-1.4,0.6c0,0.3,0.3,0.6,0.3,0.8c0.3,0.3,0.6,0.6,0.8,0.8l0,0
			c-0.3,0.6-0.3,1.1,0,1.7c0.3,0.3,0.6,0.3,0.8,0.3c0.3,0,0.3-0.3,0.6-0.6l0.3-0.3l0,0c0.3,0,0.3,0,0.6,0c0,0,0.3,0,0.3,0.3
			c0.3,0,0.3,0.3,0.6,0.3s0.3,0,0.6,0c0.3,0,0.6-0.6,0.3-0.8c-0.3-0.3-0.3-0.6-0.3-0.8c0.3-0.3,0.3-0.6,0.6-0.6
			C120.3,71.1,120.9,70.3,120.3,69.7z"/>
	</g>
</g>
<g>
	<path class="st30" d="M117,46.5c-0.3-2-0.8-3.6-2-5c-0.8-1.1-5.3-5.9-6.4-7.5c-1.4-2.2-4.7-2.5-5.9,0c-1.7,1.7-2.8,4.2-4.2,5.9
		c-2.2,2.8-2.5,4.7-1.7,8.7c0.6,3.4,0.8,8.4,3.1,10.9c1.1,1.1,2.2,1.7,3.4,2.2c1.4,0.8,2.8,2.2,3.9,3.6c2,2.2,4.5,0.6,5.6-1.7
		c1.1-2.8,2.8-5,4.7-7.3C119.5,54.6,117.3,47.4,117,46.5z"/>
	<path class="st31" d="M113.4,47.4c0-1.1-0.6-2.2-1.1-3.4c-0.6-0.8-3.6-3.9-4.2-5c-0.8-1.7-3.1-1.7-3.9,0c-1.1,1.1-2,2.8-2.8,3.9
		c-1.4,2-1.7,3.1-1.1,5.9c0.3,2.2,0.6,5.6,2,7.3c0.6,0.8,1.4,1.1,2.2,1.4c0.8,0.6,2,1.4,2.5,2.5c1.4,1.4,3.1,0.3,3.6-1.1
		c0.8-2,1.7-3.4,3.1-4.7C114.8,53,113.4,48.2,113.4,47.4z"/>
	<g class="st12">
		<path class="st36" d="M107.2,54.6L107.2,54.6L107.2,54.6z"/>
		<path class="st36" d="M112.5,47.1c-1.1-1.4-2.8-1.1-4.2-0.6c-0.6-1.4-1.1-2.5-1.7-3.1c-0.6-0.3-0.8-0.3-1.1,0.3
			c-0.3,1.1-0.6,2.2-0.6,3.4c-0.3,0-0.6-0.3-0.8-0.3c-1.1-0.3-3.4-0.8-3.1,1.1c0,0.6,0.6,1.4,0.8,2c0.3,0.6,1.1,1.4,1.7,2l0.3,0.3
			c-0.3,1.1-0.3,2.8,0.3,3.6c0.6,0.6,1.1,0.8,1.7,0.6c0.6-0.3,0.8-0.8,1.1-1.1l0.6-0.6l0,0c0.3,0,0.6,0,0.8,0
			c0.3,0.3,0.6,0.3,0.6,0.3c0.3,0.3,0.8,0.6,1.4,0.6c0.3,0,0.8,0,1.1,0c0.8,0.3,1.4-1.1,0.8-2c-0.3-0.6-0.6-1.1-0.8-1.7
			c0.3-0.6,0.8-0.8,1.1-1.4S113.6,47.9,112.5,47.1z"/>
	</g>
	<g class="st12">
		<path class="st36" d="M107.2,52.4L107.2,52.4L107.2,52.4z"/>
		<path class="st36" d="M109.4,49c-0.6-0.6-1.1-0.6-2-0.3c-0.3-0.6-0.6-1.1-0.8-1.4s-0.3,0-0.6,0.3c-0.3,0.6-0.3,1.1-0.3,1.7
			c0,0-0.3,0-0.3-0.3c-0.6-0.3-1.4-0.3-1.4,0.6c0,0.3,0.3,0.6,0.3,0.8c0.3,0.3,0.6,0.6,0.8,0.8l0,0c-0.3,0.6-0.3,1.1,0,1.7
			c0.3,0.3,0.6,0.3,0.8,0.3s0.3-0.3,0.6-0.6l0.3-0.3l0,0c0.3,0,0.3,0,0.6,0c0,0,0.3,0,0.3,0.3c0.3,0,0.3,0.3,0.6,0.3
			c0.3,0,0.3,0,0.6,0c0.3,0,0.6-0.6,0.3-0.8c-0.3-0.3-0.3-0.6-0.3-0.8c0.3-0.3,0.3-0.6,0.6-0.6C109.7,50.4,110,49.6,109.4,49z"/>
	</g>
</g>
<g>
	<path class="st30" d="M132.1,47.6c-0.3-1.4-0.6-2.8-1.4-3.9c-0.8-0.8-4.2-4.7-5-6.1c-1.1-2-3.9-2-4.7,0c-1.4,1.4-2.2,3.4-3.4,4.7
		c-2,2.2-2,3.6-1.4,7.3c0.6,2.8,0.8,7,2.5,8.9c0.8,1.1,2,1.4,2.8,2c1.1,0.8,2.2,1.7,3.4,3.1c1.7,2,3.6,0.6,4.5-1.4
		c0.8-2.2,2.2-4.2,3.9-5.9C134,54.6,132.1,48.5,132.1,47.6z"/>
	<path class="st31" d="M129,48.5c0-1.1-0.6-2-1.1-2.5c-0.6-0.6-2.8-3.1-3.4-3.9c-0.8-1.1-2.5-1.4-3.1,0c-0.8,0.8-1.4,2.2-2.2,3.1
		c-1.1,1.4-1.4,2.5-0.8,4.7c0.3,1.7,0.6,4.5,1.7,5.9c0.6,0.6,1.1,0.8,2,1.1c0.8,0.6,1.4,1.1,2.2,2c1.1,1.1,2.5,0.3,2.8-0.8
		c0.6-1.7,1.4-2.8,2.5-3.9C130.1,53,129,49,129,48.5z"/>
	<g class="st12">
		<path class="st36" d="M124.2,54.3C124,54.3,124,54.6,124.2,54.3C124,54.3,124.2,54.3,124.2,54.3z"/>
		<path class="st36" d="M128.4,48.2c-1.1-1.1-2.2-1.1-3.4-0.6c-0.3-1.1-0.8-2-1.4-2.5c-0.3-0.3-0.8-0.3-0.8,0.3
			c-0.3,0.8-0.3,2-0.6,2.8c-0.3,0-0.6,0-0.8,0c-0.8-0.3-2.8-0.6-2.5,1.1c0,0.6,0.6,1.1,0.8,1.7c0.3,0.6,0.8,1.1,1.4,1.7l0.3,0.3
			c-0.3,0.8-0.3,2.2,0.3,3.1c0.3,0.6,0.8,0.6,1.4,0.6c0.3-0.3,0.6-0.6,0.8-1.1l0.3-0.6l0,0c0.3,0,0.6,0,0.8,0s0.3,0.3,0.6,0.3
			c0.3,0.3,0.6,0.3,1.1,0.3c0.3,0,0.6,0,0.8,0c0.6,0,1.1-0.8,0.6-1.4c-0.3-0.3-0.6-0.8-0.8-1.4c0.3-0.3,0.6-0.8,0.8-1.1
			C128.7,50.4,129.3,49,128.4,48.2z"/>
	</g>
	<g class="st12">
		<path class="st36" d="M124,52.7L124,52.7L124,52.7z"/>
		<path class="st36" d="M125.9,49.9c-0.6-0.6-1.1-0.6-1.4-0.3c-0.3-0.6-0.3-0.8-0.6-1.1c-0.3,0-0.3,0-0.3,0c0,0.3-0.3,0.8-0.3,1.4
			h-0.3c-0.3,0-1.1-0.3-1.1,0.6c0,0.3,0.3,0.6,0.3,0.8c0.3,0.3,0.3,0.6,0.6,0.6l0,0c0,0.3,0,1.1,0,1.4c0.3,0.3,0.3,0.3,0.6,0.3
			c0.3,0,0.3-0.3,0.3-0.6l0.3-0.3l0,0h0.3c0,0,0.3,0,0.3,0.3c0.3,0,0.3,0.3,0.6,0.3c0.3,0,0.3,0,0.6,0c0.3,0,0.6-0.3,0.3-0.6
			c0-0.3-0.3-0.3-0.3-0.6c0-0.3,0.3-0.3,0.3-0.6C125.9,51,126.2,50.2,125.9,49.9z"/>
	</g>
</g>
<g>
	<path class="st18" d="M109.4,72.2c0.6-1.7,0.6-3.6-0.3-5.3c-0.6-1.4-3.6-7.5-4.2-9.5c-0.8-2.8-4.2-4.2-6.4-2.2
		c-2.5,0.8-4.7,2.8-7,3.9c-3.6,1.7-4.5,3.4-5.3,7.5c-0.6,3.4-2.2,8.1-0.8,11.4c0.6,1.4,2,2.2,3.1,3.6c1.4,1.4,2.2,3.1,3.1,5
		c1.4,2.8,4.7,2.2,6.7,0.6c2.5-2.2,5-3.6,7.8-4.7C108.9,80.9,109.2,73.1,109.4,72.2z"/>
	<path class="st19" d="M104.7,71.7c0.3-1.1,0.3-2.5-0.3-3.6c-0.3-0.8-2.5-5-2.8-6.1c-0.6-1.7-2.8-2.8-4.2-1.4
		c-1.7,0.6-3.1,2-4.5,2.5c-2.2,1.1-3.1,2.2-3.4,5c-0.3,2.2-1.4,5.3-0.6,7.5c0.3,1.1,1.4,1.7,2,2.2c0.8,0.8,1.4,2,2,3.4
		c0.8,2,3.1,1.4,4.5,0.3c1.7-1.4,3.4-2.2,5.3-3.1C104.4,77.5,104.7,72.2,104.7,71.7z"/>
	<g class="st12">
		<path class="st20" d="M95.5,76.1L95.5,76.1L95.5,76.1z"/>
		<path class="st20" d="M104.1,71.1c-0.8-1.7-2.5-2.2-4.5-2.2c0-1.4-0.3-2.8-0.8-3.4c-0.3-0.6-0.8-0.6-1.4,0c-0.8,0.8-1.4,2-2,3.1
			c-0.3-0.3-0.6-0.6-0.8-0.6c-0.8-0.8-3.4-2-3.9,0c-0.3,0.6,0,1.7,0.3,2.2c0.3,0.8,0.6,1.7,1.1,2.5l0.3,0.3c-0.8,0.3-1.4,2-1.1,3.1
			c0.3,0.8,0.8,1.1,1.7,1.1c0.6,0,1.1-0.3,1.7-0.6l0.8-0.3l0,0c0.3,0.3,0.6,0.3,1.1,0.6c0.3,0.3,0.3,0.6,0.6,0.6
			c0.3,0.3,0.8,0.8,1.1,0.8c0.3,0.3,0.8,0.3,1.4,0.6c0.8,0.6,2-0.6,1.7-1.4c-0.3-0.6-0.3-1.1-0.3-2c0.6-0.3,1.1-0.6,1.7-0.8
			C103.6,73.9,105,72.2,104.1,71.1z"/>
	</g>
	<g class="st12">
		<path class="st20" d="M96,73.9L96,73.9L96,73.9z"/>
		<path class="st20" d="M100,71.7c-0.3-0.8-1.1-1.1-2-0.8c0-0.6,0-1.1-0.3-1.7c-0.3-0.3-0.3-0.3-0.6,0c-0.3,0.3-0.6,0.8-0.8,1.4
			L96,70.3c-0.6-0.3-1.4-0.8-1.7,0c0,0.3,0,0.8,0,1.1c0,0.3,0.3,0.8,0.6,1.1c0,0,0,0,0,0.3c-0.3,0.3-0.6,1.1-0.6,1.7
			c0,0.3,0.3,0.6,0.8,0.6c0.3,0,0.6-0.3,0.8-0.3l0.3-0.3l0,0c0.3,0,0.3,0.3,0.6,0.3l0.3,0.3c0.3,0.3,0.3,0.3,0.6,0.6
			c0.3,0,0.3,0.3,0.6,0.3c0.3,0.3,0.8-0.3,0.6-0.6c0-0.3,0-0.6-0.3-0.8c0.3,0,0.6-0.3,0.8-0.6C99.7,73.1,100.2,72.2,100,71.7z"/>
	</g>
</g>
<g>
	<path class="st27" d="M85.4,72.2c0.6-1.7,3.6-5.9,2.8-7.5c-0.6-1.4-0.3-1.7-0.6-3.4c-0.6-2.8-10.9-8.7-13.7-7.3
		c-2.8,0.3-5.6,1.7-8.4,2.2c-4.2,0.8-5.6,2.2-6.7,5.9c-0.8,3.1-3.1,7.3-1.7,10.6c0.6,1.7,2.2,2.5,3.4,3.9c1.4,1.7,2.5,3.4,3.4,5.3
		c1.4,3.1,5.6,3.1,7.8,2c3.1-1.7,5.9-2.2,9.5-2.8C84.3,80.3,85.2,73.1,85.4,72.2z"/>
	<path class="st28" d="M80.4,70.8c0.6-1.1,0.6-2.2,0-3.4c-0.3-1.1-2.5-5.3-2.8-6.4c-0.6-1.7-3.1-3.1-4.7-2.2c-2,0.3-3.6,1.1-5.3,1.4
		c-2.8,0.6-3.6,1.4-4.5,3.9c-0.6,2-2,4.7-1.1,7c0.3,1.1,1.4,1.7,2.2,2.5c0.8,1.1,1.7,2.2,2.2,3.4c0.8,2,3.6,2.2,5,1.4
		c2-1.1,3.9-1.4,6.1-2C79.6,76.1,80.1,71.4,80.4,70.8z"/>
	<g class="st12">
		<path class="st29" d="M69.2,72.8C69.2,72.8,69,72.8,69.2,72.8L69.2,72.8z"/>
		<path class="st29" d="M79.9,70c-0.8-1.7-2.8-2.8-5-3.1c0-1.4-0.3-2.5-0.8-3.4c-0.3-0.6-1.1-0.8-1.7-0.3c-1.1,0.6-1.7,1.4-2.5,2.5
			c-0.3-0.3-0.6-0.6-0.8-0.8c-1.1-0.8-3.9-2.5-4.7-1.1c-0.3,0.6,0,1.4,0,2.2c0.3,0.8,0.6,1.7,1.1,2.5l0.3,0.3
			c-0.8,0.8-1.7,2-1.4,3.1c0.3,0.8,0.8,1.4,2,1.4c0.8,0.3,1.4,0,2-0.3l0.8-0.3c0,0,0,0,0.3,0c0.3,0.3,0.8,0.6,1.1,0.6
			c0.3,0.3,0.3,0.6,0.6,0.8s0.8,0.8,1.4,1.1c0.6,0.3,0.8,0.6,1.4,0.8c0.8,0.6,2.2,0,2-0.8c-0.3-0.6-0.3-1.1-0.3-2
			c0.6-0.3,1.4-0.3,2-0.6C78.5,72.5,80.4,71.4,79.9,70z"/>
	</g>
	<g class="st12">
		<path class="st29" d="M70.1,71.1L70.1,71.1L70.1,71.1z"/>
		<path class="st29" d="M74.8,69.7c-0.3-0.8-1.4-1.1-2.2-1.4c0-0.6,0-1.1-0.3-1.7c-0.3-0.3-0.6-0.3-0.8-0.3
			c-0.6,0.3-0.8,0.6-1.1,1.1l-0.3-0.3c-0.6-0.3-1.7-1.1-2.2-0.6c-0.3,0.3,0,0.6,0,0.8s0.3,0.8,0.6,1.1c0,0,0,0,0,0.3
			c-0.6,0.3-0.8,0.8-0.6,1.4c0,0.3,0.6,0.6,0.8,0.6c0.3,0,0.6,0,0.8,0c0,0,0.3,0,0.6,0l0,0c0.3,0,0.3,0.3,0.6,0.3l0.3,0.3
			c0.3,0.3,0.3,0.3,0.6,0.6c0.3,0,0.6,0.3,0.6,0.3c0.3,0.3,1.1,0,0.8-0.6c0-0.3,0-0.6-0.3-0.8c0.3,0,0.6-0.3,0.8-0.3
			C74.3,70.8,75.1,70.3,74.8,69.7z"/>
	</g>
</g>
<g>
	<path class="st49" d="M98.8,52.1c0.6-1.4,0.8-2.8,0.3-4.2c-0.3-1.1-2.5-6.7-2.8-8.1C96,37.6,93,35.9,91,37.3
		c-2.2,0.6-4.2,1.7-6.1,2.2c-3.4,0.8-4.2,2-5.3,5.3c-0.8,2.5-2.5,6.4-1.7,8.9c0.3,1.4,1.4,2.2,2.2,3.1c0.8,1.4,1.7,2.8,2.2,4.5
		c0.8,2.5,3.9,2.5,5.6,1.4c2.2-1.4,4.5-2.2,7.3-2.8C97.7,58.8,98.6,52.7,98.8,52.1z"/>
	<path class="st50" d="M94.9,51c0.3-0.8,0.6-2,0.3-2.8c-0.3-0.8-1.7-4.5-1.7-5.3c-0.3-1.4-2.2-2.5-3.6-1.7c-1.4,0.3-2.8,1.1-4.2,1.4
		c-2.2,0.6-2.8,1.4-3.4,3.4c-0.6,1.7-1.7,4.2-1.1,5.9c0.3,0.8,0.8,1.4,1.4,2.2s1.1,2,1.4,2.8c0.6,1.7,2.5,1.7,3.6,0.8
		c1.4-0.8,3.1-1.4,4.7-2C94.4,55.5,94.9,51.6,94.9,51z"/>
	<g class="st12">
		<path class="st51" d="M86.6,53.2L86.6,53.2L86.6,53.2z"/>
		<path class="st51" d="M94.6,50.4c-0.6-1.4-2-2.2-3.6-2.2c0-1.1,0-2.2-0.3-2.8c-0.3-0.6-0.8-0.6-1.1-0.3c-0.8,0.6-1.4,1.4-2,2.2
			c-0.3-0.3-0.3-0.3-0.6-0.6c-0.8-0.8-2.8-2-3.4-0.6c-0.3,0.6,0,1.4,0,1.7c0,0.6,0.3,1.4,0.6,2c0,0,0,0.3,0.3,0.3
			c-0.8,0.6-1.4,1.7-1.1,2.8c0,0.6,0.6,1.1,1.4,1.1c0.6,0,1.1-0.3,1.4-0.3c0,0,0.6-0.3,0.8-0.3l0,0c0.3,0.3,0.6,0.3,0.8,0.6
			c0,0.3,0.3,0.3,0.6,0.6c0.3,0.3,0.6,0.6,0.8,0.8c0.3,0.3,0.8,0.3,1.1,0.6c0.6,0.6,1.7,0,1.4-0.8c-0.3-0.6,0-1.1-0.3-1.7
			c0.6-0.3,1.1-0.3,1.4-0.6C93.8,52.4,95.2,51.6,94.6,50.4z"/>
	</g>
	<g class="st12">
		<path class="st51" d="M87.4,51.8L87.4,51.8L87.4,51.8z"/>
		<path class="st51" d="M91,50.4c-0.3-0.6-0.8-0.8-1.7-1.1c0-0.6,0-1.1-0.3-1.4c0-0.3-0.3-0.3-0.6,0c-0.3,0.3-0.6,0.6-0.8,0.8
			l-0.3-0.3c-0.3-0.3-1.1-0.8-1.7-0.3c0,0.3,0,0.6,0,0.8c0,0.3,0.3,0.6,0.3,0.8c0,0,0,0,0,0.3c-0.3,0.3-0.6,0.8-0.6,1.1
			c0,0.3,0.3,0.6,0.6,0.6c0.3,0,0.6,0,0.6-0.3h0.3l0,0l0.3,0.3c0,0,0,0.3,0.3,0.3c0,0.3,0.3,0.3,0.6,0.6c0.3,0,0.3,0.3,0.6,0.3
			c0.3,0.3,0.8,0,0.6-0.3c0-0.3,0-0.6,0-0.6c0.3,0,0.6-0.3,0.6-0.3C90.5,51.3,91.3,51,91,50.4z"/>
	</g>
</g>
<g>
	<path class="st52" d="M127.6,141.7c0-2.2-0.6-4.2-1.7-5.9c-1.1-1.4-7-7.5-8.1-9.5c-1.7-2.8-6.7-3.4-8.9-0.8c-2.8,1.7-7,4.7-9.5,6.4
		c-4.2,2.8-3.1,4.5-2.8,9.2c0.3,3.9-0.3,9.8,2.2,12.8c1.1,1.7,3.1,2.2,4.7,3.1c2,1.4,3.9,3.1,5.3,4.7c2.5,2.8,7,1.4,8.9-1.1
		c2.5-3.1,5.3-5.3,8.7-7.3C129.5,151.5,127.6,142.8,127.6,141.7z"/>
	<path class="st53" d="M121.7,142.3c0-1.4-0.3-2.8-1.1-3.9c-0.8-0.8-4.5-5-5.3-6.1c-1.1-2-4.5-2.2-5.9-0.6c-2,1.1-3.4,2.8-5,3.9
		c-2.8,1.7-3.4,3.1-3.1,6.4c0.3,2.5-0.3,6.4,1.4,8.4c0.8,1.1,2,1.4,3.1,2c1.4,0.8,2.5,2,3.6,3.1c1.7,2,4.5,0.8,5.9-0.6
		c1.7-2,3.4-3.4,5.6-4.7C122.8,148.7,121.7,143.1,121.7,142.3z"/>
	<g class="st12">
		<path class="st54" d="M110.8,149.5L110.8,149.5L110.8,149.5z"/>
		<path class="st54" d="M120.9,141.7c-1.7-1.7-3.9-2-6.4-1.4c-0.3-1.4-1.1-2.8-2-3.6c-0.6-0.6-1.4-0.3-1.7,0.3
			c-0.8,1.1-1.4,2.5-1.7,3.9c-0.6-0.3-1.1-0.6-1.4-0.6c-1.4-0.6-5-1.4-5.3,0.8c0,0.8,0.6,1.7,0.8,2.5c0.6,0.8,1.4,1.7,2,2.5l0.3,0.3
			c-0.8,1.1-1.1,3.1-0.3,4.2c0.6,0.8,1.4,1.1,2.5,0.8c0.8,0,1.4-0.8,2-1.1l0.8-0.6l0,0c0.6,0.3,0.8,0.3,1.4,0.3
			c0.3,0.3,0.6,0.3,0.8,0.6c0.6,0.3,1.1,0.6,2,0.8c0.6,0.3,1.1,0.3,1.7,0.3c1.1,0.3,2.2-1.1,1.7-2c-0.6-0.6-0.8-1.4-1.1-2
			c0.6-0.6,1.4-0.8,2-1.4C120.6,145.1,122,142.8,120.9,141.7z"/>
	</g>
	<g class="st12">
		<path class="st54" d="M111.1,147L111.1,147L111.1,147z"/>
		<path class="st54" d="M115.6,143.4c-0.8-0.8-1.7-0.8-2.8-0.6c-0.3-0.6-0.6-1.4-0.8-1.7c-0.3-0.3-0.6-0.3-0.8,0
			c-0.3,0.6-0.6,1.1-0.8,1.7c-0.3,0-0.3-0.3-0.6-0.3c-0.6-0.3-2.2-0.6-2.2,0.3c0,0.3,0.3,0.8,0.3,1.1c0.3,0.3,0.6,0.8,0.8,1.1
			c0,0,0,0,0.3,0.3c-0.3,0.6-0.6,1.4-0.3,2c0.3,0.3,0.6,0.6,1.1,0.6c0.3,0,0.6-0.3,0.8-0.6l0.3-0.3l0,0c0.3,0,0.6,0,0.6,0l0.3,0.3
			c0.3,0.3,0.6,0.3,0.8,0.3s0.6,0,0.8,0c0.6,0,1.1-0.6,0.8-0.8c-0.3-0.3-0.3-0.6-0.6-0.8c0.3-0.3,0.6-0.6,0.8-0.6
			C115.3,145.1,116.1,144,115.6,143.4z"/>
	</g>
</g>
<g>
	<path class="st10" d="M150.8,138.4c0-2.2-0.3-4.2-1.4-5.9c-0.8-1.4-5.3-7.5-6.1-9.5c-1.4-2.8-5-3.4-6.7-0.8
		c-2.2,1.7-3.9,4.5-5.9,6.1c-3.1,2.8-5.6,2.8-5.3,7.5c0.3,3.9,1.7,11.7,3.6,14.8c0.8,1.7,2.5,2.2,3.6,3.1c1.7,1.4,2.8,3.1,4.2,4.7
		c2,2.8,5.3,1.4,6.7-1.1c2-3.1,4.2-5.3,6.7-7.3C152.2,148.2,150.8,139.5,150.8,138.4z"/>
	<path class="st11" d="M146.3,138.9c0-1.4-0.3-2.8-0.8-3.9c-0.6-0.8-3.4-5-4.2-6.1c-0.8-2-3.4-2.2-4.5-0.6c-1.4,1.1-2.5,2.8-3.9,3.9
		c-2,1.7-2.5,3.1-2.2,6.4c0,2.5-0.3,6.4,1.1,8.4c0.6,1.1,1.7,1.4,2.5,2c1.1,0.8,2,2,2.8,3.1c1.4,2,3.4,0.8,4.5-0.6
		c1.1-2,2.8-3.4,4.5-4.7C147.1,145.4,146.3,139.5,146.3,138.9z"/>
	<g class="st12">
		<path class="st13" d="M137.9,146.2L137.9,146.2L137.9,146.2z"/>
		<path class="st13" d="M145.5,138.1c-1.1-1.7-3.1-2-4.7-1.4c-0.3-1.4-0.8-2.8-1.7-3.6c-0.6-0.6-1.1-0.3-1.4,0.3
			c-0.6,1.1-0.8,2.5-1.1,3.9c-0.3-0.3-0.6-0.3-0.8-0.6c-1.1-0.6-3.6-1.4-3.9,0.8c0,0.8,0.3,1.7,0.8,2.5c0.3,0.8,1.1,1.7,1.4,2.5
			l0.3,0.3c-0.6,1.1-0.8,3.1-0.3,4.2c0.6,0.8,1.1,1.1,2,0.8c0.6,0,1.1-0.8,1.4-1.1l0.6-0.6l0,0c0.3,0.3,0.8,0.3,1.1,0.3
			c0.3,0.3,0.6,0.3,0.6,0.6c0.3,0.3,0.8,0.6,1.4,0.8s0.8,0.3,1.4,0.3c0.8,0.3,1.7-1.1,1.1-2c-0.3-0.6-0.6-1.4-0.8-2
			c0.6-0.6,1.1-0.8,1.4-1.4C145.2,141.5,146.6,139.5,145.5,138.1z"/>
	</g>
	<g class="st12">
		<path class="st13" d="M138.2,143.7L138.2,143.7L138.2,143.7z"/>
		<path class="st13" d="M141.6,140.1c-0.6-0.8-1.4-0.8-2.2-0.6c0-0.6-0.3-1.4-0.8-1.7c-0.3-0.3-0.6-0.3-0.6,0
			c-0.3,0.6-0.6,1.1-0.6,1.7l-0.3-0.3c-0.6-0.3-1.7-0.6-1.7,0.3c0,0.3,0.3,0.8,0.3,1.1c0.3,0.3,0.6,0.8,0.6,1.1c0,0,0,0,0,0.3
			c-0.3,0.6-0.3,1.4,0,2c0.3,0.3,0.6,0.6,0.8,0.6s0.6-0.3,0.6-0.6l0.3-0.3l0,0c0.3,0,0.3,0,0.6,0l0.3,0.3c0.3,0.3,0.6,0.3,0.6,0.3
			c0.3,0,0.3,0,0.6,0c0.3,0,0.8-0.6,0.6-0.8c-0.3-0.3-0.3-0.6-0.3-0.8c0.3-0.3,0.6-0.6,0.6-0.6C141.3,141.5,141.8,140.6,141.6,140.1
			z"/>
	</g>
</g>
<g>
	<path class="st10" d="M163.6,136.7c0-2.2-0.3-4.2-0.8-5.9c-0.6-1.4-3.1-7.5-3.6-9.5c-0.8-2.8-3.1-3.4-4.2-0.8
		c-1.4,1.7-2.5,4.5-3.6,6.1c-2,2.8-2.2,4.7-2.2,9.5c0,3.9-0.3,9.8,1.1,12.8c0.6,1.7,1.4,2.2,2.2,3.1c0.8,1.4,1.7,3.1,2.5,4.7
		c1.1,2.8,3.1,1.4,4.2-1.1c1.1-3.1,2.5-5.3,3.9-7.3C164.4,146.5,163.6,137.8,163.6,136.7z"/>
	<path class="st11" d="M160.8,137.3c0-1.4,0-2.8-0.6-3.9c-0.3-0.8-2.2-5-2.5-6.1c-0.6-2-2-2.2-2.8-0.6c-0.8,1.1-1.7,2.8-2.2,3.9
		c-1.1,1.7-1.4,3.1-1.4,6.4c0,2.5,0,6.4,0.6,8.4c0.3,1.1,0.8,1.4,1.4,2c0.6,0.8,1.1,2,1.7,3.1c0.8,2,2,0.8,2.8-0.6
		c0.8-2,1.7-3.4,2.5-4.7C161.4,143.7,160.8,138.1,160.8,137.3z"/>
	<g class="st12">
		<path class="st13" d="M155.8,144.5L155.8,144.5L155.8,144.5z"/>
		<path class="st13" d="M160.3,136.7c-0.8-1.7-2-2-3.1-1.4c-0.3-1.4-0.6-2.8-0.8-3.6c-0.3-0.6-0.6-0.3-0.8,0.3
			c-0.3,1.1-0.6,2.5-0.8,3.9c-0.3-0.3-0.3-0.3-0.6-0.6c-0.6-0.6-2.2-1.4-2.5,0.8c0,0.8,0.3,1.7,0.6,2.5c0.3,0.8,0.6,1.7,0.8,2.5
			c0,0,0,0.3,0.3,0.3c-0.3,1.1-0.6,3.1-0.3,4.2c0.3,0.8,0.6,1.1,1.1,0.8c0.3,0,0.6-0.8,0.8-1.1l0.3-0.6l0,0c0.3,0.3,0.6,0.3,0.6,0.3
			c0,0.3,0.3,0.3,0.6,0.6c0.3,0.3,0.6,0.6,0.8,0.8c0.3,0.3,0.6,0.3,0.8,0.3c0.6,0.3,1.1-1.1,0.8-2c-0.3-0.6-0.3-1.4-0.6-2
			c0.3-0.6,0.6-0.8,0.8-1.4C160.3,140.1,160.8,137.8,160.3,136.7z"/>
	</g>
	<g class="st12">
		<path class="st13" d="M155.8,142L155.8,142L155.8,142z"/>
		<path class="st13" d="M158,138.4c-0.3-0.8-0.8-0.8-1.4-0.6c0-0.6-0.3-1.4-0.6-1.7c0-0.3-0.3-0.3-0.3,0c-0.3,0.6-0.3,1.1-0.3,1.7
			l-0.3-0.3c-0.3-0.3-1.1-0.6-1.1,0.3c0,0.3,0,0.8,0.3,1.1c0,0.3,0.3,0.8,0.3,1.1c0,0,0,0,0,0.3c-0.3,0.6-0.3,1.4,0,2
			c0,0.3,0.3,0.6,0.6,0.6c0.3,0,0.3-0.3,0.3-0.6l0.3-0.3l0,0h0.3c0,0,0,0.3,0.3,0.3c0,0.3,0.3,0.3,0.3,0.3h0.3
			c0.3,0,0.6-0.6,0.3-0.8c0-0.3-0.3-0.6-0.3-0.8c0-0.3,0.3-0.6,0.3-0.6C157.7,140.1,158,138.9,158,138.4z"/>
	</g>
</g>
<g>
	<path class="st55" d="M107.2-62.1c-2.2,3.6-2.8,8.4-4.5,12.3c-1.7,4.5-3.4,8.9-4.7,13.4s-3.4,8.9-4.2,13.7c-1.1,5.6-0.6,9.8,2,15.1
		c2,3.9,7,3.6,9.8,1.4c8.7-7.3,7.8-19.3,8.7-29.6c0.8-7.8,0.8-23.5-5-29.9C108.3-67.7,108.1-63.5,107.2-62.1L107.2-62.1z"/>
</g>
<g>
	<path class="st5" d="M163.9-35.5c-4.7,0-8.7,4.2-12.6,6.4c-4.5,2.5-8.4,6.1-12.6,9.2c-3.9,3.1-7.3,7-10.6,10.9
		c-3.9,4.2-8.1,8.7-10.9,13.7c-6.1,10.6,9.2,19.3,16.2,9.5c2.8-3.9,4.7-8.4,7-12.6c2.5-4.2,5-8.1,7.5-12.3c2.5-3.9,4.2-7.5,6.7-11.2
		c2.8-3.9,7.5-7,9.8-10.9C165.8-35,166.1-35.5,163.9-35.5L163.9-35.5z"/>
</g>
<g>
	<path class="st56" d="M46.9-6.5c1.4,2.2,4.2,3.1,6.1,4.5c3.1,1.7,5.9,3.6,8.7,5.6c5.6,4.5,10.1,9.8,12.8,16.2
		c5,10.9,21.8-2.2,12.6-9.8C80.7,4.7,73.7,0.2,66.2-3.4c-4.7-2.2-14.5-7-19.3-3.6C46.6-6.8,46.6-6.8,46.9-6.5L46.9-6.5z"/>
</g>
<g>
	<path class="st57" d="M51.1,13c4.7,4.7,10.6,5.6,16.5,8.4c3.4,1.7,5.9,3.9,8.4,7c2.2,2.8,4.2,6.1,7.5,7.8c3.1,1.4,8.1-1.1,6.4-5
		c-2.5-6.4-11.2-12.3-17.3-15.4c-6.4-3.1-13.7-4.5-20.9-4.5C51.1,11.6,50.5,12.5,51.1,13L51.1,13z"/>
</g>
<g>
	<path class="st58" d="M83.5,11.9c-0.8,2.2,0,4.7,0.3,7.3c0.3,2.5-0.3,4.7-1.1,7.3c-1.7,4.5,2.2,9.2,6.7,9.8
		c4.7,0.6,8.7-3.1,8.9-7.8c0.3-6.4-3.1-19.5-11.7-19C85.2,9.7,84,10.5,83.5,11.9L83.5,11.9z"/>
</g>
<g>
	<path class="st59" d="M112.8,3.5c-5.6,1.7-9.2,3.4-13.4,7.5c-4.2,4.5-7,9.8-8.7,15.4c-3.1,10.1,13.7,14.2,15.4,4.2
		c0.8-4.5,1.7-8.9,3.4-13.1c1.4-3.9,2.8-8.7,4.7-12.6C114.5,4.4,113.6,3.3,112.8,3.5L112.8,3.5z"/>
</g>
<g>
	<path class="st60" d="M156.1,11.4c-6.7-1.4-12.6,2.2-18.1,5.6c-5.9,3.6-13.1,7.8-14.8,15.4c-2.2,9.8,12.8,12,13.7,2
		c0-1.7,3.1-3.9,4.2-5c2-2,3.9-3.9,6.1-5.6c3.6-3.1,7.5-5.6,9.8-10.1C157.5,12.5,157.2,11.4,156.1,11.4L156.1,11.4z"/>
</g>
<g>
	<path class="st61" d="M107.2,16.7c1.4,2.8-0.8,5.3-1.1,8.4c-0.3,3.4-2,6.1-2.2,9.5c-0.3,6.1,8.9,10.6,13.1,5.3
		c4.2-5,3.9-11.2,1.1-17c-2.2-4.7-5.6-7.5-9.5-10.6c-2.2-1.7-4.2-0.8-2.8,1.7L107.2,16.7z"/>
</g>
<path class="st62" d="M161.1,119.4c0.8-2.5,2-4.2,3.1-5.9c1.1-1.7,0.6-8.7,0.6-9.5c0-1.7-0.3-3.4-0.6-4.7c-0.3-1.1-2.5-6.1-2.8-7.8
	c-0.6-2.2-2.2-2.8-3.1-0.6c-0.6,0.8-1.4,2.2-2,3.6c0.6-1.1,1.1-2.2,1.7-3.4c1.1-2.2-1.7-9.2-2-10.1c-0.8-2.2-1.7-3.9-2.8-5
	c-0.8-1.1-5.3-5.6-6.4-7c-0.3-0.6-0.8-0.8-1.4-1.1c-0.6-2.5-1.7-5-2-5.6c-0.3-2-1.1-3.4-2.5-4.7c-1.1-1.1-6.1-5.3-7.3-6.7
	c-1.7-2.2-5-1.7-5.9,0.8c-1.4,2-2.2,4.5-3.4,6.4c-0.3,0.6-0.8,1.1-0.8,1.7c-1.7-2-3.6-4.2-4.5-5.3c-1.4-2.2-4.7-2.5-5.9,0
	c-1.7,1.7-2.8,4.2-4.2,5.9c-1.1,1.1-1.7,2.2-2,3.4c-1.1-2.5-2.5-5.6-2.8-6.7c-0.8-2.8-4.2-4.2-6.4-2.2c-2.5,0.8-4.7,2.8-7,3.9
	c-1.7,0.8-3.1,1.7-3.6,2.8c0-0.3,0-0.3-0.3-0.6c-0.6-2.8-10.9-8.7-13.7-7.3c-2.8,0.3-5.6,1.7-8.4,2.2c-4.2,0.8-5.6,2.2-6.7,5.9
	c-0.8,3.1-3.1,7.3-1.7,10.6c0,0.3,0.3,0.6,0.3,0.8c-1.1,0.8-2.5,1.4-3.6,2c-3.4,1.4-4.5,3.1-5.6,7c-0.8,3.4-2.8,8.1-2,11.2
	c0,0.3,0.3,0.6,0.3,0.8c-0.8,0-1.4,0.6-2,1.7c-1.4,1.7-2.5,4.2-3.6,5.9c-2,2.8-2.2,4.7-2.2,9.2c0,3.6-0.3,9.2,1.1,12.3
	c0.6,1.4,1.4,2,2.2,3.1c0.6,0.8,1.1,1.7,1.7,2.8c-0.8,1.7-1.1,3.6-0.8,6.4c0.3,3.9-0.3,9.8,1.7,12.8c0.8,1.7,2.5,2.2,3.6,3.1
	c1.1,0.8,2.2,2.2,3.4,3.4c-0.8,1.4-1.1,2.8-0.8,4.7c0.3,2.8,0,7.3,2.5,9.8c0.3,0.3,0.6,0.3,0.8,0.6c0,0.3,0,0.3,0,0.6
	c-0.3,1.4,0,3.4,0,4.7c-0.3,2.2,0.3,3.4,2.2,5.6c1.4,1.7,3.6,4.5,5.6,5c0.8,0.3,1.7,0,2.8,0c0.6,0,1.1,0,1.7,0.3
	c0,0.6,0.3,1.1,0.6,1.7c0.6,0.8,3.9,4.5,4.5,5.6c0.8,1.4,4.2,3.1,6.1,2.8c2.2,0.3,4.2,0,6.4,0c0.6,0,1.1,0,1.7,0
	c0.3,0.6,0.8,0.8,1.4,1.1c0.8,0.3,5.6,1.7,6.7,2.2c1.4,0.8,5.3,0.3,6.7-0.8c2-0.8,3.6-2,5.6-2.8c0.8-0.3,1.4-0.8,2-1.1
	c1.7,0.8,3.6,2,4.2,2.2c1.4,0.8,5,1.1,6.7,0.3c2.2-0.6,3.9-1.4,5.9-2c3.1-0.8,3.9-1.7,3.6-3.1c0-0.6,0-1.1,0-1.7
	c0.6,0.3,1.1,0.3,2,0.6c2.2,0.8,7-3.4,7.5-3.9c1.4-0.8,2.5-1.7,3.1-3.1c0.6-0.8,2-4.2,2.8-6.1c1.4,0.8,3.4,0,4.5-1.1
	c2-2,3.9-3.4,6.4-4.7c2.2-1.1,2-7.8,2.2-8.7c0.3-1.7,0.3-3.1-0.6-4.5c0,0-0.3-0.3-0.3-0.6c1.1,0.3,2.2-0.8,2.8-2.5
	c1.1-3.1,2.5-5.3,3.9-7.3c1.4-2,0.6-10.6,0.6-11.7c0-2.2-0.3-4.2-0.8-5.9c-0.6-1.4-3.1-7.5-3.6-9.5l0,0
	C159.7,121.4,160.5,120.5,161.1,119.4z M128.2,149.5C128.2,149.8,128.2,149.8,128.2,149.5C128.2,149.8,128.2,149.8,128.2,149.5
	C128.2,149.8,128.2,149.8,128.2,149.5z M137.4,121.4v-0.3C137.4,121.1,137.4,121.1,137.4,121.4C137.4,121.1,137.4,121.1,137.4,121.4
	z M82.6,109.6L82.6,109.6L82.6,109.6L82.6,109.6z M67.3,133.1c0,0.3,0,0.3,0,0.6C67,133.4,67,133.1,67.3,133.1
	C67,133.1,67.3,133.1,67.3,133.1z M69.5,84.5L69.5,84.5C69.5,84.2,69.5,84.2,69.5,84.5L69.5,84.5z M103.3,187.8c0-0.3,0-0.3,0-0.6
	c0.3,0.3,0.6,0.3,0.8,0.6C103.9,187.8,103.6,187.8,103.3,187.8z M84.9,75.3L84.9,75.3c0-0.3,0-0.3,0-0.6C84.9,75,84.9,75,84.9,75.3z
	 M52.8,105.2L52.8,105.2L52.8,105.2L52.8,105.2z"/>
<path class="st62" d="M161.1,119.4c0.8-2.5,2-4.2,3.1-5.9c1.1-1.7,0.6-8.7,0.6-9.5c0-1.7-0.3-3.4-0.6-4.7c-0.3-1.1-2.5-6.1-2.8-7.8
	c-0.6-2.2-2.2-2.8-3.1-0.6c-0.6,0.8-1.4,2.2-2,3.6c0.6-1.1,1.1-2.2,1.7-3.4c1.1-2.2-1.7-9.2-2-10.1c-0.8-2.2-1.7-3.9-2.8-5
	c-0.8-1.1-5.3-5.6-6.4-7c-0.3-0.6-0.8-0.8-1.4-1.1c-0.6-2.5-1.7-5-2-5.6c-0.3-2-1.1-3.4-2.5-4.7c-1.1-1.1-6.1-5.3-7.3-6.7
	c-1.7-2.2-5-1.7-5.9,0.8c-1.4,2-2.2,4.5-3.4,6.4c-0.3,0.6-0.8,1.1-0.8,1.7c-1.7-2-3.6-4.2-4.5-5.3c-1.4-2.2-4.7-2.5-5.9,0
	c-1.7,1.7-2.8,4.2-4.2,5.9c-1.1,1.1-1.7,2.2-2,3.4c-1.1-2.5-2.5-5.6-2.8-6.7c-0.8-2.8-4.2-4.2-6.4-2.2c-2.5,0.8-4.7,2.8-7,3.9
	c-1.7,0.8-3.1,1.7-3.6,2.8c0-0.3,0-0.3-0.3-0.6c-0.6-2.8-10.9-8.7-13.7-7.3c-2.8,0.3-5.6,1.7-8.4,2.2c-4.2,0.8-5.6,2.2-6.7,5.9
	c-0.8,3.1-3.1,7.3-1.7,10.6c0,0.3,0.3,0.6,0.3,0.8c-1.1,0.8-2.5,1.4-3.6,2c-3.4,1.4-4.5,3.1-5.6,7c-0.8,3.4-2.8,8.1-2,11.2
	c0,0.3,0.3,0.6,0.3,0.8c-0.8,0-1.4,0.6-2,1.7c-1.4,1.7-2.5,4.2-3.6,5.9c-2,2.8-2.2,4.7-2.2,9.2c0,3.6-0.3,9.2,1.1,12.3
	c0.6,1.4,1.4,2,2.2,3.1c0.6,0.8,1.1,1.7,1.7,2.8c-0.8,1.7-1.1,3.6-0.8,6.4c0.3,3.9-0.3,9.8,1.7,12.8c0.8,1.7,2.5,2.2,3.6,3.1
	c1.1,0.8,2.2,2.2,3.4,3.4c-0.8,1.4-1.1,2.8-0.8,4.7c0.3,2.8,0,7.3,2.5,9.8c0.3,0.3,0.6,0.3,0.8,0.6c0,0.3,0,0.3,0,0.6
	c-0.3,1.4,0,3.4,0,4.7c-0.3,2.2,0.3,3.4,2.2,5.6c1.4,1.7,3.6,4.5,5.6,5c0.8,0.3,1.7,0,2.8,0c0.6,0,1.1,0,1.7,0.3
	c0,0.6,0.3,1.1,0.6,1.7c0.6,0.8,3.9,4.5,4.5,5.6c0.8,1.4,4.2,3.1,6.1,2.8c2.2,0.3,4.2,0,6.4,0c0.6,0,1.1,0,1.7,0
	c0.3,0.6,0.8,0.8,1.4,1.1c0.8,0.3,5.6,1.7,6.7,2.2c1.4,0.8,5.3,0.3,6.7-0.8c2-0.8,3.6-2,5.6-2.8c0.8-0.3,1.4-0.8,2-1.1
	c1.7,0.8,3.6,2,4.2,2.2c1.4,0.8,5,1.1,6.7,0.3c2.2-0.6,3.9-1.4,5.9-2c3.1-0.8,3.9-1.7,3.6-3.1c0-0.6,0-1.1,0-1.7
	c0.6,0.3,1.1,0.3,2,0.6c2.2,0.8,7-3.4,7.5-3.9c1.4-0.8,2.5-1.7,3.1-3.1c0.6-0.8,2-4.2,2.8-6.1c1.4,0.8,3.4,0,4.5-1.1
	c2-2,3.9-3.4,6.4-4.7c2.2-1.1,2-7.8,2.2-8.7c0.3-1.7,0.3-3.1-0.6-4.5c0,0-0.3-0.3-0.3-0.6c1.1,0.3,2.2-0.8,2.8-2.5
	c1.1-3.1,2.5-5.3,3.9-7.3c1.4-2,0.6-10.6,0.6-11.7c0-2.2-0.3-4.2-0.8-5.9c-0.6-1.4-3.1-7.5-3.6-9.5l0,0
	C159.7,121.4,160.5,120.5,161.1,119.4z M128.2,149.5C128.2,149.8,128.2,149.8,128.2,149.5C128.2,149.8,128.2,149.8,128.2,149.5
	C128.2,149.8,128.2,149.8,128.2,149.5z M137.4,121.4v-0.3C137.4,121.1,137.4,121.1,137.4,121.4C137.4,121.1,137.4,121.1,137.4,121.4
	z M82.6,109.6L82.6,109.6L82.6,109.6L82.6,109.6z M67.3,133.1c0,0.3,0,0.3,0,0.6C67,133.4,67,133.1,67.3,133.1
	C67,133.1,67.3,133.1,67.3,133.1z M69.5,84.5L69.5,84.5C69.5,84.2,69.5,84.2,69.5,84.5L69.5,84.5z M103.3,187.8c0-0.3,0-0.3,0-0.6
	c0.3,0.3,0.6,0.3,0.8,0.6C103.9,187.8,103.6,187.8,103.3,187.8z M84.9,75.3L84.9,75.3c0-0.3,0-0.3,0-0.6C84.9,75,84.9,75,84.9,75.3z
	 M52.8,105.2L52.8,105.2L52.8,105.2L52.8,105.2z"/>
<g>
	<path class="st2" d="M107.2,4.1c-4.5,4.2-3.9,8.9-5,14.5c-1.1,4.7-5.6,8.9-3.9,14c0.3,0.8,1.1,1.4,2,1.4c5.6-0.3,8.4-6.4,9.8-10.9
		c2-6.7,0-12.3-1.1-18.7C108.6,3.8,107.8,3.5,107.2,4.1L107.2,4.1z"/>
</g>
<g>
	<path class="st2" d="M94.9,23.1c-0.6,3.1,0,5.9,0,8.9c0,3.4-1.1,6.1-2.2,9.5c-2,5.3,6.1,8.1,8.9,3.6c3.9-6.1,5.3-19.5-2.5-23.5
		C97.4,20.6,95.2,21.4,94.9,23.1L94.9,23.1z"/>
</g>
<g>
	<g>
		<defs>
			<path id="SVGID_10_" d="M145.5,51.6c-2-2.5-3.6-4.7-6.4-5.9c-3.9-1.7-7.3-1.7-11.2-3.4c-5.3-2.5-14-0.3-15.6,5.9
				c-1.4,5.3,2.8,12.3,8.9,11.7c8.9-0.8,25.4,6.1,32.7,12.6C154.7,73.1,154.1,61.6,145.5,51.6z"/>
		</defs>
		<clipPath id="SVGID_11_">
			<use xlink:href="#SVGID_10_"  style="overflow:visible;"/>
		</clipPath>
		<g class="st63">
			<path class="st2" d="M155.5,75.3c4.7-6.1,2.2-14.5-1.4-20.7c-3.1-5-9.5-14.5-16.2-13.7c-1.1,0-2,1.1-1.7,2.2
				c0.6,2.5,2.5,3.9,4.5,5.9c2.5,2.2,4.7,5,6.4,7.8c2,3.4,3.4,6.7,3.9,10.6c0.6,2.5,0.8,5,2.2,7.3C153.8,75.8,155,76.1,155.5,75.3
				L155.5,75.3z"/>
		</g>
	</g>
</g>
<g>
	<g>
		<defs>
			<path id="SVGID_12_" d="M163.9-35.5c-4.7,0-8.7,4.2-12.6,6.4c-4.5,2.5-8.4,6.1-12.6,9.2c-3.9,3.1-7.3,7-10.6,10.9
				c-3.9,4.2-8.1,8.7-10.9,13.7c-6.1,10.6,9.2,19.3,16.2,9.5c2.8-3.9,4.7-8.4,7-12.6c2.5-4.2,5-8.1,7.5-12.3
				c2.5-3.9,4.2-7.5,6.7-11.2c2.8-3.9,7.5-7,9.8-10.9C165.8-35,166.1-35.5,163.9-35.5L163.9-35.5z"/>
		</defs>
		<clipPath id="SVGID_13_">
			<use xlink:href="#SVGID_12_"  style="overflow:visible;"/>
		</clipPath>
		<g class="st64">
			<path class="st2" d="M166.1-38.1c-3.6,0.6-5.9,3.9-8.1,6.7c-3.1,3.6-6.1,7-9.2,10.6c-2.8,3.6-27.9,36.6-21.2,40.2
				c2.2,1.4,20.4-20.9,21.8-23.2c2.2-3.6,3.9-7.5,6.4-11.2c4.7-6.1,12.6-13.1,13.7-20.9C169.7-37.5,167.5-38.3,166.1-38.1
				L166.1-38.1z"/>
		</g>
	</g>
</g>
<g>
	<path class="st65" d="M128.7,7.7c-1.7,1.4-3.6,2.5-5.3,3.9c-1.7,1.4-3.4,3.6-4.7,5.3c-3.1,4.2-4.7,8.7-5,14
		c-0.8,10.9,16.8,11.2,17,0c0-3.6,1.1-7,2.2-10.3c0.8-3.4,0.6-6.4,1.1-9.8C134.3,7.7,131.2,5.8,128.7,7.7L128.7,7.7z"/>
</g>
<g>
	<g>
		<defs>
			<path id="SVGID_14_" d="M46.9-6.5c1.4,2.2,4.2,3.1,6.1,4.5c3.1,1.7,5.9,3.6,8.7,5.6c5.6,4.5,10.1,9.8,12.8,16.2
				c5,10.9,21.8-2.2,12.6-9.8C80.7,4.7,73.7,0.2,66.2-3.4c-4.7-2.2-14.5-7-19.3-3.6C46.6-6.8,46.6-6.8,46.9-6.5L46.9-6.5z"/>
		</defs>
		<clipPath id="SVGID_15_">
			<use xlink:href="#SVGID_14_"  style="overflow:visible;"/>
		</clipPath>
		<g class="st66">
			<path class="st2" d="M44.7-6c3.4,1.7,7.3,2.2,10.6,3.4c4.5,1.7,9.2,3.1,13.4,5.6c4.2,2.2,8.4,5,11.7,8.4c2.5,2.5,3.9,6.4,7,8.4
				c1.4,0.8,3.1,0,3.6-1.4C93.5,9.4,78.2,0.7,72-2.6C67.3-5.1,62.3-7.1,57-8.5c-3.9-0.8-9.2-2.5-12.3,0.8C44.1-7.1,44.1-6.2,44.7-6
				L44.7-6z"/>
		</g>
	</g>
</g>
<g>
	<g>
		<defs>
			<path id="SVGID_16_" d="M51.1,13c4.7,4.7,10.6,5.6,16.5,8.4c3.4,1.7,5.9,3.9,8.4,7c2.2,2.8,4.2,6.1,7.5,7.8
				c3.1,1.4,8.1-1.1,6.4-5c-2.5-6.4-11.2-12.3-17.3-15.4c-6.4-3.1-13.7-4.5-20.9-4.5C51.1,11.6,50.5,12.5,51.1,13L51.1,13z"/>
		</defs>
		<clipPath id="SVGID_17_">
			<use xlink:href="#SVGID_16_"  style="overflow:visible;"/>
		</clipPath>
		<g class="st67">
			<path class="st2" d="M49.4,11.6c7.3,2.2,14.8,4.5,22.1,7c3.4,1.1,6.7,2.5,9.2,4.7c2.2,2,3.4,4.5,6.4,5.6c1.1,0.3,2.8-0.6,2.8-1.7
				c1.1-7-8.1-12-14-14c-8.4-3.1-18.1-5.6-26.5-2.8C49.1,10.8,49.1,11.4,49.4,11.6L49.4,11.6z"/>
		</g>
	</g>
</g>
<g>
	<g>
		<defs>
			<path id="SVGID_18_" d="M107.2-62.1c-2.2,3.6-2.8,8.4-4.5,12.3c-1.7,4.5-3.4,8.9-4.7,13.4s-3.4,8.9-4.2,13.7
				c-1.1,5.6-0.6,9.8,2,15.1c2,3.9,7,3.6,9.8,1.4c8.7-7.3,7.8-19.3,8.7-29.6c0.8-7.8,0.8-23.5-5-29.9
				C108.3-67.7,108.1-63.5,107.2-62.1L107.2-62.1z"/>
		</defs>
		<clipPath id="SVGID_19_">
			<use xlink:href="#SVGID_18_"  style="overflow:visible;"/>
		</clipPath>
		<g class="st68">
			<path class="st2" d="M107.5-68.8c-1.7,4.5,1.4,9.5,1.7,14c0.6,5.3,0,11.4-1.4,16.8c-1.7,5.9-3.9,11.4-5.9,16.8
				c-2,5.3-5,10.9-3.4,16.5c0.6,1.7,2.5,2.5,3.9,1.7c5.6-3.1,7-10.1,8.9-15.6c2.2-6.4,5.3-13.4,6.1-20.1c0.8-5.9,0.6-12-0.8-17.9
				c-1.1-4.2-3.6-10.6-7.8-12.8C108.3-69.6,107.8-69.3,107.5-68.8L107.5-68.8z"/>
		</g>
	</g>
</g>
<g>
	<g>
		<defs>
			<path id="SVGID_20_" d="M83.5,11.9c-0.8,2.2,0,4.7,0.3,7.3c0.3,2.5-0.3,4.7-1.1,7.3c-1.7,4.5,2.2,9.2,6.7,9.8
				c4.7,0.6,8.7-3.1,8.9-7.8c0.3-6.4-3.1-19.5-11.7-19C85.2,9.7,84,10.5,83.5,11.9L83.5,11.9z"/>
		</defs>
		<clipPath id="SVGID_21_">
			<use xlink:href="#SVGID_20_"  style="overflow:visible;"/>
		</clipPath>
		<g class="st69">
			<path class="st2" d="M83.5,9.1c2,3.1,4.7,5,6.7,8.4c2.2,4.2,1.7,8.9,4.2,12.8c1.7,2.5,5.9,2.2,6.7-0.8c2-7.5-7-25.7-17-21.8
				C83.5,8,83.2,8.6,83.5,9.1L83.5,9.1z"/>
		</g>
	</g>
</g>
<g>
	<g>
		<defs>
			<path id="SVGID_22_" d="M156.1,11.4c-6.7-1.4-12.6,2.2-18.1,5.6c-5.9,3.6-13.1,7.8-14.8,15.4c-2.2,9.8,12.8,12,13.7,2
				c0-1.7,3.1-3.9,4.2-5c2-2,3.9-3.9,6.1-5.6c3.6-3.1,7.5-5.6,9.8-10.1C157.5,12.5,157.2,11.4,156.1,11.4L156.1,11.4z"/>
		</defs>
		<clipPath id="SVGID_23_">
			<use xlink:href="#SVGID_22_"  style="overflow:visible;"/>
		</clipPath>
		<g class="st70">
			<path class="st2" d="M124,44.3c3.6,0.6,5.9-2.2,8.4-4.5c3.9-3.4,7.8-7,11.7-10.3c3.6-3.4,7.3-6.1,11.4-8.7
				c3.9-2.2,9.2-2.8,11.4-7c1.1-2.2,0-4.5-2.2-5.3c-4.5-1.7-8.4,2.2-11.7,4.7c-3.9,2.8-7.3,6.1-10.9,9.5c-3.9,3.4-7.5,7-11.2,10.6
				c-2.8,2.5-8.1,5.9-7.8,10.1C123.1,43.7,123.4,44.3,124,44.3L124,44.3z"/>
		</g>
	</g>
</g>
<g>
	<path class="st71" d="M126.5-9.6c-5,0.8-7.5,5.9-10.3,9.8c-3.4,4.7-6.7,9.5-9.5,14.5c-3.1,5,0.3,11.2,5.9,12
		c6.1,0.8,9.8-4.5,8.9-10.1c-0.8-4.5,1.7-10.3,3.4-14.2c1.7-3.9,3.6-7,2.8-11.2C127.6-9.3,127-9.6,126.5-9.6L126.5-9.6z"/>
</g>
<g>
	<g>
		<path id="SVGID_00000102534812008871777310000018370267353203574182_" class="st72" d="M43-37.2c2.5,1.4,5.3,2.5,7.5,4.5
			c2,1.7,3.6,3.4,5.9,4.7c4.5,3.1,8.7,6.1,12.8,9.5c4.2,3.4,8.1,6.7,12.3,10.1c3.6,3.1,7,7.8,11.7,9.8c5.9,2.5,11.4-0.6,12-7
			c0.6-7.3-5.3-12.3-10.6-15.9c-5.3-3.6-10.6-7-16.2-9.8c-5.6-2.8-11.2-5.6-17.3-7c-5.3-1.4-12.3-0.6-17.6,0.6
			C43-37.8,42.7-37.5,43-37.2L43-37.2z"/>
	</g>
	<g>
		<defs>
			<path id="SVGID_24_" d="M43-37.2c2.5,1.4,5.3,2.5,7.5,4.5c2,1.7,3.6,3.4,5.9,4.7c4.5,3.1,8.7,6.1,12.8,9.5
				c4.2,3.4,8.1,6.7,12.3,10.1c3.6,3.1,7,7.8,11.7,9.8c5.9,2.5,11.4-0.6,12-7c0.6-7.3-5.3-12.3-10.6-15.9c-5.3-3.6-10.6-7-16.2-9.8
				c-5.6-2.8-11.2-5.6-17.3-7c-5.3-1.4-12.3-0.6-17.6,0.6C43-37.8,42.7-37.5,43-37.2L43-37.2z"/>
		</defs>
		<clipPath id="SVGID_25_">
			<use xlink:href="#SVGID_24_"  style="overflow:visible;"/>
		</clipPath>
		<g class="st73">
			<path class="st2" d="M39.9-37.2c6.4,2.8,14.2,2.5,20.9,4.2c7.3,2,13.4,5.6,19.8,9.5c6.1,3.9,11.4,8.1,14.8,14.5
				c2.2,4.5,2.8,12.6,8.4,14c1.1,0.3,2.2-0.3,3.1-1.1c3.4-5-1.7-14.2-4.5-18.7c-4.2-6.7-10.1-11.4-16.8-15.4
				c-12.8-7.8-30.2-15.1-45.5-10.3C38.3-39.7,38.3-37.8,39.9-37.2L39.9-37.2z"/>
		</g>
	</g>
</g>
<g>
	<g>
		<path id="SVGID_00000040561748444450470020000005512793921231291534_" class="st74" d="M119.5-36.1c-1.1,1.7-2,1.7-3.1,3.6
			c-0.8,2-2,3.9-2.8,5.6c-2,3.4-4.2,6.4-6.7,9.5c-5,6.7-8.1,13.7-10.1,21.8c-2.5,10.1,12.6,14.2,15.4,4.2c1.4-4.5,0.6-9.2,1.1-13.7
			c0.6-3.6,1.4-7.3,2.5-10.6c1.1-3.6,2.5-7,3.6-10.3c0.6-2,1.7-4.2,1.7-6.1c0-1.4-0.6-2-0.8-3.6C120.1-36.1,119.8-36.4,119.5-36.1
			L119.5-36.1z"/>
	</g>
	<g>
		<defs>
			<path id="SVGID_26_" d="M119.5-36.1c-1.1,1.7-2,1.7-3.1,3.6c-0.8,2-2,3.9-2.8,5.6c-2,3.4-4.2,6.4-6.7,9.5
				c-5,6.7-8.1,13.7-10.1,21.8c-2.5,10.1,12.6,14.2,15.4,4.2c1.4-4.5,0.6-9.2,1.1-13.7c0.6-3.6,1.4-7.3,2.5-10.6
				c1.1-3.6,2.5-7,3.6-10.3c0.6-2,1.7-4.2,1.7-6.1c0-1.4-0.6-2-0.8-3.6C120.1-36.1,119.8-36.4,119.5-36.1L119.5-36.1z"/>
		</defs>
		<clipPath id="SVGID_27_">
			<use xlink:href="#SVGID_26_"  style="overflow:visible;"/>
		</clipPath>
		<g class="st75">
			<path class="st2" d="M119.8-38.3L119.8-38.3c-1.1,0.3-1.7,1.1-2,1.7c-1.4,4.2-2,8.4-3.4,12.6c-1.4,4.5-3.4,8.7-4.7,12.8
				c-2.2,6.1-8.4,19-2.8,24.3c1.4,1.4,3.6,1.4,5.3,0c3.4-3.1,2.5-7.8,3.4-11.7c1.1-5,2.5-9.8,3.9-14.5c2.8-7.5,6.4-16.5,2.5-24.3
				c-0.3-0.8-1.4-1.4-2.2-1.1C120.1-38.3,120.1-38.3,119.8-38.3L119.8-38.3z"/>
		</g>
	</g>
</g>
<g>
	<g>
		<path id="SVGID_00000023995130783790399950000005453645484017930684_" class="st76" d="M53.1-16.8c3.1,1.7,5.9,4.2,8.7,5.9
			c3.1,2,6.4,4.2,8.9,6.7c5,4.7,8.7,9.8,10.1,16.8c2.2,12.6,23.5,6.7,19-5.3C96.3-2,87.7-8.5,79-12.4c-3.9-1.7-7.8-3.6-12-4.7
			c-5-1.4-8.7-1.1-13.7-0.8C52.8-18.2,52.5-17.1,53.1-16.8L53.1-16.8z"/>
	</g>
	<g>
		<defs>
			<path id="SVGID_28_" d="M53.1-16.8c3.1,1.7,5.9,4.2,8.7,5.9c3.1,2,6.4,4.2,8.9,6.7c5,4.7,8.7,9.8,10.1,16.8
				c2.2,12.6,23.5,6.7,19-5.3C96.3-2,87.7-8.5,79-12.4c-3.9-1.7-7.8-3.6-12-4.7c-5-1.4-8.7-1.1-13.7-0.8
				C52.8-18.2,52.5-17.1,53.1-16.8L53.1-16.8z"/>
		</defs>
		<clipPath id="SVGID_29_">
			<use xlink:href="#SVGID_28_"  style="overflow:visible;"/>
		</clipPath>
		<g class="st77">
			<path class="st2" d="M51.4-18.5c3.6,3.1,9.8,3.4,14.2,5c5.6,2,11.2,3.6,16.2,7c4.2,3.1,8.1,7,10.9,11.2c2.5,3.9,3.6,8.9,8.4,10.9
				c0.8,0.3,2.5-0.3,2.8-1.1c2.5-5.3-2-10.9-5-15.1c-3.6-4.7-7.8-8.9-12.6-12c-5.3-3.6-11.7-5.9-17.9-7.5c-4.7-1.1-13.1-3.9-17,0.3
				C51.1-19.6,51.1-18.8,51.4-18.5L51.4-18.5z"/>
		</g>
	</g>
</g>
<g>
	<path class="st59" d="M112.8,3.5c-5.6,1.7-9.2,3.4-13.4,7.5c-4.2,4.5-7,9.8-8.7,15.4c-3.1,10.1,13.7,14.2,15.4,4.2
		c0.8-4.5,1.7-8.9,3.4-13.1c1.4-3.9,2.8-8.7,4.7-12.6C114.5,4.4,113.6,3.3,112.8,3.5L112.8,3.5z"/>
</g>
<g>
	<path class="st58" d="M83.5,11.9c-0.8,2.2,0,4.7,0.3,7.3c0.3,2.5-0.3,4.7-1.1,7.3c-1.7,4.5,2.2,9.2,6.7,9.8
		c4.7,0.6,8.7-3.1,8.9-7.8c0.3-6.4-3.1-19.5-11.7-19C85.2,9.7,84,10.5,83.5,11.9L83.5,11.9z"/>
</g>
<g>
	<g>
		<path id="SVGID_00000034049600410967272730000009987877435962580146_" class="st61" d="M158.6,30.6c3.6-3.1-12.8,0-16.2,1.1
			c-3.9,1.4-10.3,4.5-14,6.4c-7,3.6-5.9,14.5,1.1,17.3c7,2.8,15.6-3.6,13.1-11.4c0,0.8,0,1.7,0,2.5c-0.3,0.6-0.3,0.6,0,0l0.8-0.8
			c1.1-1.1,5.3-6.4,7-7.5C153.3,36.5,157.5,31.5,158.6,30.6z"/>
	</g>
	<g>
		<defs>
			<path id="SVGID_30_" d="M158.6,30.6c3.6-3.1-12.8,0-16.2,1.1c-3.9,1.4-10.3,4.5-14,6.4c-7,3.6-5.9,14.5,1.1,17.3
				c7,2.8,15.6-3.6,13.1-11.4c0,0.8,0,1.7,0,2.5c-0.3,0.6-0.3,0.6,0,0l0.8-0.8c1.1-1.1,5.3-6.4,7-7.5
				C153.3,36.5,157.5,31.5,158.6,30.6z"/>
		</defs>
		<clipPath id="SVGID_31_">
			<use xlink:href="#SVGID_30_"  style="overflow:visible;"/>
		</clipPath>
		<g class="st78">
			<path class="st2" d="M123.4,48.8c0.3,9.8,12.8,9.8,19.3,5.3c4.5-3.1,7.8-7.8,11.7-11.7c2-2,3.9-3.9,6.1-5c2.2-1.4,4.2-2,5.3-4.5
				c0.8-1.7,0.6-3.6-1.1-4.7c-6.7-4.2-16.5,5.3-20.7,9.8c-2.8,3.1-5.6,7.3-9.8,8.7C130.9,47.6,126.8,47.9,123.4,48.8
				C123.4,48.5,123.4,48.8,123.4,48.8L123.4,48.8z"/>
		</g>
	</g>
</g>
<g>
	<g>
		<defs>
			<path id="SVGID_32_" d="M128.7,7.7c-1.7,1.4-3.6,2.5-5.3,3.9c-1.7,1.4-3.4,3.6-4.7,5.3c-3.1,4.2-4.7,8.7-5,14
				c-0.8,10.9,16.8,11.2,17,0c0-3.6,1.1-7,2.2-10.3c0.8-3.4,0.6-6.4,1.1-9.8C134.3,7.7,131.2,5.8,128.7,7.7L128.7,7.7z"/>
		</defs>
		<clipPath id="SVGID_33_">
			<use xlink:href="#SVGID_32_"  style="overflow:visible;"/>
		</clipPath>
		<g class="st79">
			<path class="st7" d="M120.9,39.6c7.5,2.2,13.7-2.8,15.1-10.3c0.8-4.2,0-8.4,0.8-12.6c1.1-4.5,4.5-7.8,3.4-12.3
				c-0.6-2.5-3.1-3.4-5.3-3.1c-8.1,1.1-7,12.6-6.7,18.1c0.3,3.6,0.3,7.5-1.4,10.9c-1.7,3.1-4.5,5.6-6.1,8.7
				C120.6,39.3,120.6,39.6,120.9,39.6L120.9,39.6z"/>
		</g>
	</g>
</g>
<g>
	<g>
		<defs>
			<path id="SVGID_34_" d="M112.8,3.5c-5.6,1.7-9.2,3.4-13.4,7.5c-4.2,4.5-7,9.8-8.7,15.4c-3.1,10.1,13.7,14.2,15.4,4.2
				c0.8-4.5,1.7-8.9,3.4-13.1c1.4-3.9,2.8-8.7,4.7-12.6C114.5,4.4,113.6,3.3,112.8,3.5L112.8,3.5z"/>
		</defs>
		<clipPath id="SVGID_35_">
			<use xlink:href="#SVGID_34_"  style="overflow:visible;"/>
		</clipPath>
		<g class="st80">
			<path class="st7" d="M101.9,39.3c7-5.3,9.2-15.9,14-23.2c2.5-3.9,13.7-12.6,6.4-16.8c-1.4-0.8-3.6-0.8-5,0
				c-5.6,3.6-9.2,10.3-11.7,16.5c-2.8,6.7-7,15.1-6.1,22.3C99.4,39.6,100.8,40.1,101.9,39.3L101.9,39.3z"/>
		</g>
	</g>
</g>
<g>
	<g>
		<defs>
			<path id="SVGID_36_" d="M83.5,11.9c-0.8,2.2,0,4.7,0.3,7.3c0.3,2.5-0.3,4.7-1.1,7.3c-1.7,4.5,2.2,9.2,6.7,9.8
				c4.7,0.6,8.7-3.1,8.9-7.8c0.3-6.4-3.1-19.5-11.7-19C85.2,9.7,84,10.5,83.5,11.9L83.5,11.9z"/>
		</defs>
		<clipPath id="SVGID_37_">
			<use xlink:href="#SVGID_36_"  style="overflow:visible;"/>
		</clipPath>
		<g class="st81">
			<path class="st7" d="M83.5,7.7C83.5,7.7,83.2,7.7,83.5,7.7c-0.6,1.1-0.6,2.2,0.3,2.8c3.1,3.4,5.9,4.7,6.7,9.5
				c0.8,4.7-0.3,8.9-1.4,13.7s5.9,8.1,8.1,3.4c3.4-7.3,2.8-16.2-1.1-23.2c-1.7-2.8-3.9-5-7-6.1C87.7,7.2,84.6,5.8,83.5,7.7L83.5,7.7
				z"/>
		</g>
	</g>
</g>
<g>
	<g>
		<path id="SVGID_00000106838215632018916390000001230869218625225659_" class="st61" d="M107.2,16.7c1.4,2.8-0.8,5.3-1.1,8.4
			c-0.3,3.4-2,6.1-2.2,9.5c-0.3,6.1,8.9,10.6,13.1,5.3c4.2-5,3.9-11.2,1.1-17c-2.2-4.7-5.6-7.5-9.5-10.6c-2.2-1.7-4.2-0.8-2.8,1.7
			L107.2,16.7z"/>
	</g>
	<g>
		<defs>
			<path id="SVGID_38_" d="M107.2,16.7c1.4,2.8-0.8,5.3-1.1,8.4c-0.3,3.4-2,6.1-2.2,9.5c-0.3,6.1,8.9,10.6,13.1,5.3
				c4.2-5,3.9-11.2,1.1-17c-2.2-4.7-5.6-7.5-9.5-10.6c-2.2-1.7-4.2-0.8-2.8,1.7L107.2,16.7z"/>
		</defs>
		<clipPath id="SVGID_39_">
			<use xlink:href="#SVGID_38_"  style="overflow:visible;"/>
		</clipPath>
		<g class="st82">
			<path class="st7" d="M104.4,12.8c7.8,3.4,13.1,12.8,11.4,21.5c-0.8,4.2,5.3,6.1,6.7,1.7c2-5.9-0.6-11.7-3.4-17
				c-3.1-5.6-6.4-9.2-12.8-10.6C103.6,7.7,101.6,11.6,104.4,12.8L104.4,12.8z"/>
		</g>
	</g>
</g>
<g>
	<path class="st83" d="M101.4,26.4c-1.4,2-0.6,4.2-0.6,6.1c0,2.5-0.6,4.7-1.1,7.3c-0.6,4.5,1.4,8.7,6.1,9.5c4.5,0.6,8.4-2.8,8.7-7.5
		c0-5-2.2-9.8-5.6-13.1C107.5,27.3,103.3,23.6,101.4,26.4L101.4,26.4z"/>
</g>
<g>
	<g>
		<path id="SVGID_00000144299336549653862680000015497964650186261156_" class="st84" d="M122.3,30.1c-4.2,3.6-7.8,7.3-9.2,12.8
			c-1.1,4.2,1.7,8.7,6.1,9.2c4.2,0.6,8.7-2.8,8.4-7.3c-0.6-6.4,3.9-12.6,7.5-17c1.1-1.7,0.8-2.5-1.7-3.1
			C133.5,24.8,125.6,27.3,122.3,30.1z"/>
	</g>
	<g>
		<defs>
			<path id="SVGID_40_" d="M122.3,30.1c-4.2,3.6-7.8,7.3-9.2,12.8c-1.1,4.2,1.7,8.7,6.1,9.2c4.2,0.6,8.7-2.8,8.4-7.3
				c-0.6-6.4,3.9-12.6,7.5-17c1.1-1.7,0.8-2.5-1.7-3.1C133.5,24.8,125.6,27.3,122.3,30.1z"/>
		</defs>
		<clipPath id="SVGID_41_">
			<use xlink:href="#SVGID_40_"  style="overflow:visible;"/>
		</clipPath>
		<g class="st85">
			<path class="st7" d="M134,25c-5,1.1-7.8,7.3-9.5,11.4c-1.1,2.2-1.7,4.7-2.8,7.3c-1.1,3.1-3.1,4.2-5,6.4c-2,2.5-0.8,6.1,2.5,6.1
				c6.4,0.3,9.5-5.9,11.4-10.9c1.4-3.4,2.5-6.7,4.2-9.8c1.4-3.1,2.8-5.3,2.2-8.9C136.8,25.3,135.1,24.8,134,25L134,25z"/>
		</g>
	</g>
</g>
<g>
	<g>
		<path id="SVGID_00000173857697037176057670000004737632095898224798_" class="st86" d="M68.7,36.2c12,3.6,10.6,14.5,14.2,13.4
			c7.5-2.5,8.7-13.1,1.1-16.2c-0.6-0.3-1.4-0.6-2.2-0.6c-1.4-0.3-1.4-0.3-0.8,0c-0.6,0-0.8-0.3-1.4-0.3c-1.4-0.6-3.1-0.8-4.5-0.8
			s-3.4,0.3-4.7,0.8c-1.4,0.3-2.2,1.4-3.4,2c-0.8,0.3-1.1,1.7-0.3,2L68.7,36.2z"/>
	</g>
	<g>
		<defs>
			<path id="SVGID_42_" d="M68.7,36.2c12,3.6,10.6,14.5,14.2,13.4c7.5-2.5,8.7-13.1,1.1-16.2c-0.6-0.3-1.4-0.6-2.2-0.6
				c-1.4-0.3-1.4-0.3-0.8,0c-0.6,0-0.8-0.3-1.4-0.3c-1.4-0.6-3.1-0.8-4.5-0.8s-3.4,0.3-4.7,0.8c-1.4,0.3-2.2,1.4-3.4,2
				c-0.8,0.3-1.1,1.7-0.3,2L68.7,36.2z"/>
		</defs>
		<clipPath id="SVGID_43_">
			<use xlink:href="#SVGID_42_"  style="overflow:visible;"/>
		</clipPath>
		<g class="st87">
			<path class="st2" d="M64.2,36.2c2,0,3.4-0.8,5-1.1c3.1-0.8,6.7-0.3,9.5,0.8c3.6,1.7,5.9,5.6,10.1,6.1c1.1,0,2-0.8,2.2-1.7
				c2.5-6.7-6.7-11.2-12-12.3c-4.7-0.8-15.4,0.3-16.2,6.1C62.8,35.4,63.4,36.2,64.2,36.2L64.2,36.2z"/>
		</g>
	</g>
</g>
<g>
	<g>
		<path id="SVGID_00000112622273257125803060000002263666805669988224_" class="st61" d="M95.5,23.1c-2.2,1.4-3.9,2.8-5.6,5
			c-1.4,1.7-2.5,4.2-3.6,5.3c-4.5,5.6-2.5,14.5,5.3,15.4c7.5,1.1,12.6-7,9.2-13.7c-1.1-2,0,2,0-0.6c0-1.1,0-2,0-3.1c0-2,0-3.9,0-5.6
			C100.5,23.4,97.7,21.7,95.5,23.1L95.5,23.1z"/>
	</g>
	<g>
		<defs>
			<path id="SVGID_44_" d="M95.5,23.1c-2.2,1.4-3.9,2.8-5.6,5c-1.4,1.7-2.5,4.2-3.6,5.3c-4.5,5.6-2.5,14.5,5.3,15.4
				c7.5,1.1,12.6-7,9.2-13.7c-1.1-2,0,2,0-0.6c0-1.1,0-2,0-3.1c0-2,0-3.9,0-5.6C100.5,23.4,97.7,21.7,95.5,23.1L95.5,23.1z"/>
		</defs>
		<clipPath id="SVGID_45_">
			<use xlink:href="#SVGID_44_"  style="overflow:visible;"/>
		</clipPath>
		<g class="st88">
			<path class="st2" d="M94.1,22.5c-0.6,3.1,0,5.9,0,8.9c0,3.4-1.1,6.1-2.2,9.5c-2,5.3,6.1,8.1,8.9,3.6c3.9-6.1,5.3-19.5-2.5-23.5
				C96.9,20.3,94.6,20.8,94.1,22.5L94.1,22.5z"/>
		</g>
	</g>
</g>
<g>
	<g>
		<path id="SVGID_00000168824038069358834870000006891807916016354963_" class="st89" d="M77.3,54.6c3.6-0.3,6.7,0.6,10.3,0.8
			c4.7,0.6,6.7-6.1,3.9-9.2c-3.9-3.9-10.1-2.8-14.8-1.4c-3.9,1.1-12.3,5.6-13.1,10.1c-0.3,0.8,3.4-0.3,4.2,0
			C67.6,54.9,74,54.9,77.3,54.6z"/>
	</g>
	<g>
		<defs>
			<path id="SVGID_46_" d="M77.3,54.6c3.6-0.3,6.7,0.6,10.3,0.8c4.7,0.6,6.7-6.1,3.9-9.2c-3.9-3.9-10.1-2.8-14.8-1.4
				c-3.9,1.1-12.3,5.6-13.1,10.1c-0.3,0.8,3.4-0.3,4.2,0C67.6,54.9,74,54.9,77.3,54.6z"/>
		</defs>
		<clipPath id="SVGID_47_">
			<use xlink:href="#SVGID_46_"  style="overflow:visible;"/>
		</clipPath>
		<g class="st90">
			<path class="st2" d="M61.7,54.3c3.6,0.8,7.3-3.4,10.6-4.5c5.3-2,9.8-0.8,15.1,0c3.4,0.6,5.3-3.6,2.2-5.6
				c-5-3.4-11.7-2.2-17.3-0.3c-3.6,1.4-11.4,4.7-11.2,9.5C61.1,54.1,61.4,54.3,61.7,54.3L61.7,54.3z"/>
		</g>
	</g>
</g>
<g>
	<g>
		<path id="SVGID_00000103950002035104784370000012069939571530295716_" class="st91" d="M99.1,52.4c0.6-0.6,1.1-1.1,1.4-1.7
			c0.3-0.6,0.6-1.4,0.8-2c1.4-3.4-2-7-5.3-7c-5,0.3-7.8,4.5-8.4,9.2c-0.3,3.9,4.2,9.8,7,12.3c1.4,1.4,0.8-0.8,2-2.5
			C96.6,60.8,98.8,52.7,99.1,52.4z"/>
	</g>
	<g>
		<defs>
			<path id="SVGID_48_" d="M99.1,52.4c0.6-0.6,1.1-1.1,1.4-1.7c0.3-0.6,0.6-1.4,0.8-2c1.4-3.4-2-7-5.3-7c-5,0.3-7.8,4.5-8.4,9.2
				c-0.3,3.9,4.2,9.8,7,12.3c1.4,1.4,0.8-0.8,2-2.5C96.6,60.8,98.8,52.7,99.1,52.4z"/>
		</defs>
		<clipPath id="SVGID_49_">
			<use xlink:href="#SVGID_48_"  style="overflow:visible;"/>
		</clipPath>
		<g class="st92">
			<path class="st2" d="M96.3,65.8c2-3.6,0.8-7.8,2.5-11.4c1.7-3.9,5.3-7,6.1-11.2c0.3-2-1.7-2.8-3.1-1.7c-3.4,2.5-6.1,8.4-7.3,12.3
				c-1.1,3.6-1.4,8.9,0.8,12.3C95.8,66.1,96,66.1,96.3,65.8L96.3,65.8z"/>
		</g>
	</g>
</g>
<g>
	<g>
		<defs>
			<path id="SVGID_50_" d="M101.4,26.4c-1.4,2-0.6,4.2-0.6,6.1c0,2.5-0.6,4.7-1.1,7.3c-0.6,4.5,1.4,8.7,6.1,9.5
				c4.5,0.6,8.4-2.8,8.7-7.5c0-5-2.2-9.8-5.6-13.1C107.5,27.3,103.3,23.6,101.4,26.4L101.4,26.4z"/>
		</defs>
		<clipPath id="SVGID_51_">
			<use xlink:href="#SVGID_50_"  style="overflow:visible;"/>
		</clipPath>
		<g class="st93">
			<path class="st14" d="M100,24.5c1.4,3.4,4.2,4.7,5.9,7.5c3.1,4.5,2,8.4,0,12.8s3.1,9.2,7,5.6c5-4.7,3.9-12,1.4-17.9
				c-2.5-5.9-6.7-9.8-13.4-9.5C100.2,23.1,99.7,23.9,100,24.5L100,24.5z"/>
		</g>
	</g>
</g>
<g>
	<g>
		<path id="SVGID_00000033344331124874050440000008446217616029889196_" class="st94" d="M123.7,60.5c0-2.2-1.1-4.7-2.2-6.7
			c-2.8-4.5-6.7-7-11.2-9.5c-3.6-2-8.1-0.6-9.8,3.4s0.6,7.8,4.5,9.2c2.8,1.1,5.9,2,8.7,3.6c1.1,0.8,2,1.7,3.1,2.5
			c0.8,0.8,6.1,4.2,6.7,5C123.4,68.9,123.7,62.4,123.7,60.5z"/>
	</g>
	<g>
		<defs>
			<path id="SVGID_52_" d="M123.7,60.5c0-2.2-1.1-4.7-2.2-6.7c-2.8-4.5-6.7-7-11.2-9.5c-3.6-2-8.1-0.6-9.8,3.4s0.6,7.8,4.5,9.2
				c2.8,1.1,5.9,2,8.7,3.6c1.1,0.8,2,1.7,3.1,2.5c0.8,0.8,6.1,4.2,6.7,5C123.4,68.9,123.7,62.4,123.7,60.5z"/>
		</defs>
		<clipPath id="SVGID_53_">
			<use xlink:href="#SVGID_52_"  style="overflow:visible;"/>
		</clipPath>
		<g class="st95">
			<path class="st2" d="M124,70c3.1-6.4,3.4-14-0.8-19.8c-3.9-5.6-10.9-10.9-17.9-9.5c-2.2,0.6-2.8,3.4-1.4,5
				c3.4,3.4,8.9,3.4,12.6,6.7c5,4.5,4.7,11.2,5.6,17.3C122,70.5,123.4,71.1,124,70L124,70z"/>
		</g>
	</g>
</g>
</svg>
