<?xml version="1.0" encoding="utf-8"?>
<!-- Generator: Adobe Illustrator 25.2.1, SVG Export Plug-In . SVG Version: 6.00 Build 0)  -->
<svg version="1.1" id="Layer_2" xmlns="http://www.w3.org/2000/svg" xmlns:xlink="http://www.w3.org/1999/xlink" x="0px" y="0px"
	 viewBox="0 0 200 200" style="enable-background:new 0 0 200 200;" xml:space="preserve">
<style type="text/css">
	.st0{fill:#EC9936;}
	.st1{fill:#FBDF6A;}
	.st2{fill:#766974;}
	.st3{opacity:0.65;fill:#6C5F66;enable-background:new    ;}
	.st4{fill:#AAA2A9;}
	.st5{fill:#D12424;}
	.st6{fill:#EA3333;}
	.st7{fill:#C91D1D;}
	.st8{fill:#FF3333;}
	.st9{fill:#FF7E70;}
	.st10{fill:#E7D1CA;}
	.st11{fill:#EAC086;}
	.st12{fill:#D59D63;}
	.st13{fill:#DA9F59;}
	.st14{fill:#F6E4CA;}
	.st15{fill:#F89945;}
	.st16{fill:#E2762E;}
	.st17{fill:#B15631;}
	.st18{fill:#E65126;}
	.st19{fill:#D93300;}
	.st20{fill:#EA8D70;}
</style>
<path class="st0" d="M110,42.5c0,0-1.8,4.4,0,11c1.5,5.8,45.5,43.9,55.8,52.7c1.4,1.2,3.1,1.8,4.9,1.9l12,0.1
	c0,0-6.7-19.5-22.7-33.6S110,42.5,110,42.5z"/>
<g>
	<path class="st0" d="M88.2,95.2c-4.2-1.5-8.3-2.9-12.5-4.2c-3.8,1.6-7.7,3-11.7,4.2c-10.2,3.1-20.8,5.5-31.5,7.1
		c-10.7,1.6-20.6,0.2-31.3-0.1c-10.1-0.2-11.1,0.9-21.4,1.2c-7.5,8.1-24.4,17-26,25.8c0,0,5.3,16.2,8.6,15.2
		c64.1-20.7,105.7-35.5,133.3-46.4C93.2,97,90.7,96.1,88.2,95.2z"/>
	<path class="st1" d="M22,78.1c-4.6-0.6-9.2-0.9-13.8-1.1c-25.4,22.2-50.8,45.2-53.4,48.9c-2.1,2.5-3.5,4.8,0.7,3.8
		c0,0,5.3,5.2,15.3-4.2c3.3-0.8,7.9,1.7,11.8,0.5c2.8-0.8,4.8-5,7.6-5.8c17.1-4.6,34.6-9.2,37.3-9.3c13.6-1.2,13.8,2.7,16.7,2.2
		c7.5-1.6,5.5-12.3,31-18.2c1.4-0.3,3.8-0.9,6.9-1.6C62.7,86.5,42.6,80.8,22,78.1z"/>
	<g>
		<path class="st2" d="M2.3,109.5c1.1-2.7,4.3-3.8,6.3-4.2c2.2-0.4,5.1,0,4.8,2.3c-0.2,1.6-2.2,3.2-3.4,3.9
			c-1.7,0.8-4.2,1.9-5.5,1.5C3.2,113,1.2,112.2,2.3,109.5z"/>
		<g>
			<path class="st3" d="M4.4,113.2c1.2,0.5,4-0.7,5.5-1.5s3.5-2.3,3.4-3.9c0-2.3-2.8-2.7-4.8-2.3s-5.2,1.7-6.3,4.2
				C1.2,112.2,3.2,113,4.4,113.2z M6.1,106.4c1.5-0.5,2.9-0.5,4.3-0.6c0.9,0.1,1.5,0.9,1.1,2.1c-0.5,1-1.7,1.9-2.8,2.1
				c-1.7,0.6-2.4,0.5-3.1,0.4C3.1,110.2,3.5,107.2,6.1,106.4z"/>
			<path class="st4" d="M5.9,107.6c0.2,0,0.4-0.3,0.6-0.3c0.4-0.1,0.9-0.2,1.2,0c0.2,0,0.5,0.1,0.5,0.4c0,0.2-0.1,0.5-0.3,0.7
				c-0.4,0.3-0.8,0.4-1.1,0.4s-0.7,0.1-0.9-0.1c-0.2,0-0.5-0.1-0.5-0.4C5.4,108.6,5.5,107.9,5.9,107.6z"/>
		</g>
	</g>
	<g>
		<path class="st2" d="M-38.6,121.9c1.1-2.7,4.3-3.8,6.3-4.2c2.2-0.4,5.1,0,4.8,2.3c-0.2,1.6-2.2,3.2-3.4,3.9
			c-1.7,0.8-4.2,1.9-5.5,1.5C-37.7,125.2-39.7,124.7-38.6,121.9z"/>
		<g>
			<path class="st3" d="M-36.5,125.7c1.2,0.5,4-0.7,5.5-1.5c1.5-0.7,3.5-2.3,3.4-3.9c0-2.3-2.8-2.7-4.8-2.3s-5.2,1.7-6.3,4.2
				C-39.7,124.7-37.7,125.2-36.5,125.7z M-34.8,118.9c1.5-0.5,2.9-0.5,4.3-0.6c0.9,0.1,1.5,0.9,1.1,2.1c-0.5,1-1.7,1.9-2.8,2.1
				c-1.7,0.6-2.4,0.5-3.1,0.4C-37.7,122.7-37.4,119.6-34.8,118.9z"/>
			<path class="st4" d="M-34.8,120.1c0.2,0,0.4-0.3,0.6-0.3c0.4-0.1,0.9-0.2,1.2,0c0.2,0,0.5,0.1,0.5,0.4c0,0.2-0.1,0.5-0.3,0.7
				c-0.4,0.3-0.8,0.4-1.1,0.4c-0.2,0-0.7,0.1-0.9-0.1c-0.2,0-0.5-0.1-0.5-0.4C-35.5,120.9-35.2,120.4-34.8,120.1z"/>
		</g>
	</g>
	<g>
		<path class="st5" d="M-17.6,105.1l3.5,4.2l34.1-19l-0.4-4.7c0,0-9.9-6.2-21.3-1.1S-18.6,98.4-17.6,105.1z"/>
		<path class="st6" d="M-17.6,105.1l37.3-19.4c0,0-9.9-6.2-21.3-1.1S-18.6,98.4-17.6,105.1z"/>
		<path class="st7" d="M-8.5,97.2c1.1-0.2,5.1,0.2,5.3,0.2c0.4-0.1-3.2-2.4-3.2-2.4s2.3-3.4,9.2-4.7c0,0-1.3,2.8,0.6,3.1
			c1.9,0.1,2.1-3.6,2-4.1s4.5-1.5,6.9,0.1l7.1-3.9c0,0-9.9-6.2-21.3-1.1c-11.4,5.4-17,13.7-15.7,20.4l7.3-3.9
			C-9.9,99.8-9.4,97.4-8.5,97.2z"/>
		<path class="st8" d="M-4.2,90.7c5.8-3.4,12.9-5.9,19.1-2.4l4.8-2.5c0,0-9.9-6.2-21.3-1.1c-11.4,5.4-17,13.7-15.7,20.4l3.6-1.8
			C-14,97.1-9.2,93.5-4.2,90.7z"/>
		<ellipse transform="matrix(0.9829 -0.1843 0.1843 0.9829 -18.3494 0.3111)" class="st9" cx="-7.5" cy="98.9" rx="0.9" ry="0.7"/>
		<path class="st9" d="M-2.4,94.5c0.1,0.4-0.3,0.7-0.8,0.8s-0.9-0.1-1-0.5c-0.1-0.4,0.3-0.7,0.8-0.8C-2.9,93.9-2.4,94-2.4,94.5z"/>
		<path class="st9" d="M0.8,93.9c0.1,0.4-0.3,0.7-0.8,0.8s-0.9-0.1-1-0.5c-0.1-0.4,0.3-0.7,0.8-0.8C0.2,93.3,0.7,93.7,0.8,93.9z"/>
		<ellipse transform="matrix(0.9829 -0.1843 0.1843 0.9829 -16.5187 2.9181)" class="st9" cx="7.4" cy="90.3" rx="0.7" ry="0.7"/>
	</g>
	<g>
		<path class="st10" d="M55.3,92.2c0-0.2,0.2-0.3,0.1-0.5c0,0,0,0,0-0.2c0-0.2-0.1-0.4-0.1-0.4s0,0,0-0.2c0-0.2,0-0.2-0.1-0.4l0-0.2
			c0-0.2,0-0.2-0.1-0.4c0-0.2,0-0.2-0.3-0.4c0,0,0-0.2-0.3-0.2l-0.3-0.2c0,0,0-0.2-0.3-0.2c-0.3-0.4-0.8-0.5-1.1-0.9c0,0,0,0-0.2,0
			s-0.3-0.2-0.5-0.1l0,0l0,0c-1.3-0.7-2.7-0.9-4.1-0.8c-4.7,0.4-5.8,3.2-5.8,4.8c0.3,1.6-1.9,4.7-3.6,3c-1.1-0.9-0.6-1.7,0.1-2.1
			c-0.1,0.5-0.1,0.9,1.1,0.7c1.6-0.3,2.2-2.9-0.7-3.6c-2.8-0.4-8.8,3.5-8.9,7.4c0,0.2,0.1,0.4-0.1,0.7c-1.7,3.3,1.1,5.8,10.3,5.9
			c2.7-0.1,5.3-1,7-2c0.4-0.3,1-0.7,1.4-1c0.6-0.6,1-0.9,1.3-1.4c0.3-0.7,0.7-1.3,0.6-1.9c0-0.2-0.1-0.4-0.1-0.7
			c-0.1-0.4-0.4-0.8-0.5-1.3c0.2,0,0.4-0.1,0.7-0.1c0.8-0.4,1.7-0.8,2.7-1.4c0.2-0.3,0.4-0.3,0.6-0.6c0,0,0,0,0.2,0
			c0.2-0.3,0.2-0.3,0.4-0.5l0,0C55,92.7,55.2,92.4,55.3,92.2C55.1,92.2,55.3,92.2,55.3,92.2z M46.1,96.9c0.4-0.5,1-0.7,1.7-0.8
			c0.3,0.2,0.1,0.7,0.2,0.9c-0.2,0-0.5-0.1-0.7-0.1l0,0l0,0l0,0l0,0l0,0C46.6,96.8,46.1,96.9,46.1,96.9z M35.5,92.7L35.5,92.7
			c-0.2,0-0.2,0.3-0.4,0.3l0,0c-0.2,0-0.2,0.3-0.4,0.3l0,0c-0.2,0-0.2,0.3-0.4,0.3c0,0,0,0-0.2,0l-0.2,0.3l0,0
			c0.7-1.1,1.7-1.7,2.8-2.1C36.3,92.1,35.9,92.4,35.5,92.7z"/>
		<g>
			<path class="st11" d="M40,89.8c0,0-2.8,1-0.9,2.7c1.7,1.7,3.8-1.6,3.5-3.2c-0.3-1.6,0.8-4.5,5.7-5c4.7-0.4,9.6,4.9,5.6,7.9
				s-6.4,1.2-7.7,3.1c0,0,3-0.1,2.8,0.4c0,1.2-3.1,3.1-6.7,3.3C40.8,99,38.3,99,35.1,98C27.7,95.3,37.3,86.8,40,89.8z"/>
			<path class="st12" d="M47.2,95.1L47.2,95.1c-2.2,2-5.7,2.5-8.1,1.1c-1.1-0.7-1.5-2-1.5-3.2c-0.1-1.6,1.1-2.7,2.3-3.4
				c-2.8-2.7-12.1,5.5-4.9,8c3.2,1.2,5.7,1,7.3,0.9c3-0.1,5.7-1.5,6.6-2.6C48.2,95.8,47.7,95.4,47.2,95.1z"/>
			<path class="st13" d="M52.2,85.2L52.2,85.2c0.6,0.8,0.9,2.4,0.4,3.1c-1,1.8-2.3,2.5-4.3,2.9c-3.3,0.6-2.7,2.8-3.4,5.2
				c0.8-0.4,1.2-1.1,1.2-1.1c1-1.8,3.5,0,7.7-3.1C56.5,89.9,55,86.7,52.2,85.2z"/>
			<path class="st14" d="M39.3,89.9c0,0-0.6,1.5,0.9,1.2c1.6-0.3,2.2-3.2-0.7-3.8c-2.9-0.6-10.2,3.3-9.8,8c0.7,4.7,4.7,7.9,11.3,7.3
				c6.6-0.5,10.9-4.1,10.2-6.7c-0.5-2.7-1.7-4.1-3.6-3.5c0,0-1,0.9,0,1.4c1,0.5,0.8,1.9-1.4,2.6c-2.1,0.9-8.3,3.6-12-0.5
				C30.5,92,37.3,87.9,39.3,89.9z"/>
			<path class="st14" d="M44.1,99.8c-3.7,0.9-7.1,1.3-10.5-0.8c-2.1-1.2-4.2-2.7-3.9-4.8c0,0.2-0.1,0.7-0.1,0.9
				c0.7,4.7,4.7,7.9,11.3,7.3c6.6-0.5,10.9-4.1,10.2-6.7c-0.1-0.4-0.2-0.9-0.5-1.3C50.4,97.5,47,99.2,44.1,99.8z"/>
		</g>
	</g>
</g>
<g>
	<path class="st0" d="M252.3,97.1c0.3-0.1-1.5-3.2-4-7.5c-5.2-2.1-10.4-3.8-15.9-4.6c-11.1-1.9-22.4-0.5-33.5,0.8
		c-10.2,1.1-20.1,3.7-30.3,4.6c-1.3,0.1-2.6,0.1-3.9,0.2c5.5,5.9,10.9,11.8,16.4,17.6c35.7,5.1,44.8,3.3,52.3,3.2
		C247.6,111.3,256.2,109.6,252.3,97.1z"/>
	<path class="st15" d="M252.6,97c0,0-17-30-17.7-34.6c-0.7-4.6-13.6-25.9-31.9-31.8c-3.5-1-6.2-2.2-8.2-3.2c-3.5-1.7-7.3-2.4-11-2.1
		c-5.2,0.5-11.8,2.2-15.1,7.2c2.1,2.2,4.2,4.4,6.9,6.1c4.1,2.5,8.5,5,12.6,7.7c6.6,4.3,12.6,8.9,17.9,14.9
		c5.5,6.1,11,11.5,13.8,19.5c2.1,5.6,2.8,11.6,2.3,17.4c9.5-3.7,19.7-8.7,29.4-1.5c0.6,0.4,0.9,0.8,1.3,1
		C252.7,97.3,252.5,97.2,252.6,97z"/>
	<path class="st16" d="M231.9,77.9c-3.6-2.7-7.4-5.4-9.5-9.5c-3.4-6.5-5.7-13.4-10.8-18.6c-5.1-5.2-12-6.8-18.5-9.2
		c-8.3-3-13.4-7.5-17.2-13.5c-2.8,1.1-5.4,2.9-7,5.4c2.1,2.2,4.2,4.4,6.9,6.1c4.1,2.5,8.5,5,12.6,7.7c6.6,4.3,12.6,8.9,17.9,14.9
		c5.5,6.1,11,11.5,13.8,19.5c2.1,5.6,2.8,11.6,2.3,17.4c4.5-1.7,9.3-3.8,14-4.8C235.3,87.8,236.3,81.2,231.9,77.9z"/>
	<path class="st17" d="M231.4,102.5c0.9,0.8,2.6,0.7,3.5,0.8c1.1,0.2,2.6,0.2,3.8,0.2c1.4,0,4.9-0.2,5.7-1.8c1-2-2.2-3.2-3.7-3.7
		c-2.1-0.8-4-1-6.3-0.6c-1.6,0.4-4.2,0.9-4.8,2.6c-0.7,1.9,2.1,2.7,3.6,2.7L231.4,102.5z"/>
	<path class="st1" d="M223.1,77.1c-30.2-36.5-49.4-43.2-53.2-44.6c-1.8-0.6-29.4,4-59.6,9.5c-0.4,0.1-0.5,0.6-0.2,0.8
		c7.7,5.9,15.3,12.2,22.8,18.4c5.3,4.4,10.7,8.7,15.8,13.3c4.8,4.4,9.4,9,13.8,13.7c3.4,3.6,6.8,7.3,10.2,11c13,3,27.7,5,33.4,0.8
		c5.6-4.2,13.4-0.6,13.4-0.6l2.8-1.1C222.4,98.2,231.4,87.3,223.1,77.1z"/>
	<g>
		<path class="st2" d="M169.3,59.2c0.3-3.5-3.6-5.2-6.1-5.6c-2.9-0.6-7.4-0.3-8.9,2.5c-1,2,0.7,4.1,2.2,5.1c1.8,1.1,4.8,2.7,7.1,2.3
			C165.7,63.2,169.1,62.5,169.3,59.2z"/>
		<g>
			<path class="st3" d="M169.3,59.2c0.3-3.5-3.6-5.2-6.1-5.6c-2.9-0.6-7.4-0.3-8.9,2.5c-1,2,0.7,4.1,2.2,5.1
				c1.8,1.1,4.8,2.7,7.1,2.3C165.7,63.2,169.1,62.5,169.3,59.2z M164,59.9c-1.2,0-2.4-0.1-4.3-0.6c-1.3-0.5-2.6-1.4-2.6-2.9
				c0-1.4,1.4-2.6,2.9-2.6c1.9,0,3.9,0.5,5.8,1.2C169.2,56.2,167.5,60,164,59.9z"/>
			<path class="st4" d="M165.2,56.5c-0.1-0.3-0.3-0.4-0.6-0.4c-0.4-0.2-1.1-0.2-1.6-0.1c-0.5,0.1-0.8,0.2-1.1,0.3
				c-0.4,0.3-0.2,0.6-0.1,0.9c0.3,0.4,1,0.6,1.4,0.8c0.4,0.2,0.9,0.1,1.2,0c0.3-0.1,0.8-0.2,0.9-0.4
				C165.5,57.8,165.6,56.9,165.2,56.5z"/>
		</g>
	</g>
	<g>
		<path class="st2" d="M128.2,57.3c0.2,0,0.5-0.1,0.7-0.1c1.7-0.6-0.3-2.5-1.3-3.6c-1.3-1.2-4.6-2.4-6.6-3.1
			c-0.5-0.2-1.2-0.4-1.8-0.5C122.2,52.4,125.2,54.9,128.2,57.3z"/>
		<g>
			<path class="st3" d="M123,53c1.2,0.6,1.8,1,2.6,1.5c0.9,0.6,1.3,1.2,1.3,1.6c0.6,0.5,1.1,0.9,1.7,1.4c0.1,0,0.3-0.1,0.4-0.1
				c1.7-0.8-0.2-2.7-1.3-3.6c-1.5-1.3-4.6-2.4-6.6-3.1c-0.4-0.1-0.9-0.3-1.4-0.4C120.7,51.2,121.8,52.1,123,53z"/>
		</g>
	</g>
	<g>
		<path class="st2" d="M209.2,82.2c2.3-1.8,5.7-1.1,7.6-0.4c2.1,0.8,4.4,2.6,2.9,4.4c-1,1.3-3.5,1.6-4.9,1.6
			c-1.9-0.2-4.6-0.5-5.5-1.5C208.3,85.4,206.9,83.9,209.2,82.2z"/>
		<g>
			<path class="st3" d="M209.2,86.2c0.8,1,3.8,1.4,5.5,1.5c1.6,0.1,4.1-0.2,4.9-1.6c1.2-2-1-3.7-2.9-4.4s-5.3-1.2-7.6,0.4
				C206.9,83.9,208.3,85.4,209.2,86.2z M214.2,81.6c1.6,0.3,2.8,1,4,1.7c0.8,0.5,0.9,1.5-0.1,2.4c-0.9,0.6-2.5,0.8-3.5,0.4
				c-1.8-0.4-2.3-0.9-2.9-1.3C209.8,83.3,211.6,80.9,214.2,81.6z"/>
			<path class="st4" d="M213.4,82.5c0.2,0.1,0.5-0.1,0.7,0c0.4,0.2,0.8,0.3,1,0.6c0.2,0.1,0.3,0.4,0.3,0.6s-0.4,0.3-0.7,0.5
				c-0.5,0.1-0.9-0.1-1.1-0.2c-0.2-0.1-0.6-0.2-0.8-0.5c-0.2-0.1-0.3-0.4-0.3-0.6C212.6,82.9,212.9,82.5,213.4,82.5z"/>
		</g>
	</g>
	<g>
		<path class="st5" d="M160,38.5l-1.1,3.7l23.5,12.2l2.4-2c0,0-0.2-8-7.2-12.5C170.5,35.4,163.3,35.4,160,38.5z"/>
		<path class="st6" d="M160,38.5l24.8,13.8c0,0-0.2-8-7.2-12.5C170.5,35.4,163.3,35.4,160,38.5z"/>
		<path class="st7" d="M167.7,40.6c0.5,0.7,1.9,2.8,2,3.1c0.2,0.1,0-2.6,0-2.6s2.9,0.1,6,3.4c0,0-2,0.2-1.5,1.4
			c0.5,1.2,2.7-0.2,3-0.3c0.3-0.1,2.6,2.1,2.6,4.1l4.8,2.7c0,0-0.2-8-7.2-12.5c-7.2-4.6-13.9-4.6-17.5-1.3l4.8,2.7
			C165.7,40.8,167.3,40.2,167.7,40.6z"/>
		<path class="st8" d="M172.9,40.6c4,2.2,8.2,5.2,8.4,9.8l3.2,1.9c0,0-0.2-8-7.2-12.5c-7.2-4.6-13.9-4.6-17.5-1.3l2.4,1.4
			C165.7,37.4,169.5,38.8,172.9,40.6z"/>
		<ellipse class="st9" cx="167.3" cy="41.8" rx="0.5" ry="0.5"/>
		<path class="st9" d="M171.5,43.2c-0.1,0.2-0.5,0.1-0.7,0c-0.1-0.3-0.2-0.8-0.1-1c0.1-0.2,0.5-0.1,0.7,0
			C171.7,42.5,171.6,43,171.5,43.2z"/>
		<path class="st9" d="M172.9,44.6c-0.3,0.1-0.5,0.1-0.7,0c-0.1-0.3-0.3-0.6,0-0.7s0.5-0.1,0.7,0C173.1,44.2,173.2,44.5,172.9,44.6z
			"/>
		<ellipse class="st9" cx="177.5" cy="47.1" rx="0.5" ry="0.5"/>
	</g>
	<path class="st10" d="M170.1,96.3c2.8,1.4,6.7,2.8,11.5,3.1c2.1,0.3,4.1,0,5.9-0.3c0.5-0.1,1.1-0.3,1.6-0.4c1.6-0.4,3-1.1,4.3-1.8
		c0.4-0.3,0.9-0.4,1.2-0.8c3.1-1.8,4.5-3.9,4.5-3.9l-0.9-4.2c0,0-9.1-2.6-12-3.9l12-3.3c0,0-12.4-7.4-20.5-6.3
		c-7.3,0.9-7.6,4.9-9.1,7.7c-0.2,0.4-0.4,1.1-0.3,1.6l-3.3,3.8c-0.5,0.5-0.8,1.2-0.9,1.9C166,92,168,94.1,170.1,96.3z"/>
	<g>
		<path class="st18" d="M165.4,83.7l0,5.3c0,1.2,0.5,2.6,1.7,3.3c2.4,1.9,7.5,5.1,15.5,5.6c11.4,1,17.5-7.1,17.5-7.1l-0.8-4.4
			c0,0-9.1-2.6-12-3.9l12-3.3c0,0-12.4-7.4-20.5-6.3c-7.3,0.9-11.2,6.3-12.6,8.9C165.5,82.8,165.5,83.3,165.4,83.7z"/>
		<path class="st19" d="M199.1,86.9c-1.4,2.4-3.3,4.3-6,5.3c-4.6,1.4-9.6,1.8-14.3,1c-5.8-1.2-12.2-4-13.1-9.6
			c-0.1,0.2-0.1,0.2-0.2,0.4l0,5.3c0,1.2,0.5,2.6,1.7,3.3c2.4,1.9,7.5,5.1,15.5,5.6c11.4,1,17.5-7.1,17.5-7.1L199.1,86.9z"/>
		<path class="st20" d="M174.9,81.4c0.1,1-0.8,2.1-2.3,2.3c-1.5,0.2-2.7-0.5-2.8-1.5c-0.1-1,0.8-2.1,2.3-2.3
			C173.6,79.7,174.8,80.4,174.9,81.4z"/>
		<path class="st20" d="M185.2,78.7c0.1,1-1,2-2.5,2.2c-1.5,0.2-2.7-0.5-2.7-1.7c-0.1-1,1-2,2.5-2.2
			C183.8,76.7,185.1,77.7,185.2,78.7z"/>
		<path class="st20" d="M184.6,87.8c-0.2,1.1-1.2,2-2.8,1.9c-1.4,0-2.5-0.9-2.6-2.1c0.2-1.1,1.2-2,2.8-1.9
			C183.6,85.8,184.7,86.7,184.6,87.8z"/>
		<path class="st20" d="M193.7,89c-0.2,1.1-1.2,2-2.8,1.9c-1.4,0-2.5-0.9-2.6-2.1c0.2-1.1,1.2-2,2.8-1.9
			C192.8,87,193.9,87.9,193.7,89z"/>
	</g>
	<g>
		<path class="st10" d="M182.6,65c0.2,0.1,0.2,0.1,0.3,0.4l0,0c0.2,0.1,0.2,0.1,0.4,0.2c0,0,0,0,0.2,0.1s0.4,0.2,0.4,0.2
			c0.9,0.1,1.6,0.1,2.1,0.1c0.2,0.1,0.3-0.1,0.5-0.1c-0.1,0.2,0,0.7,0.1,1c-0.1,0.2,0.1,0.3,0.1,0.5c0.1,0.5,0.4,0.9,0.8,1
			s0.8,0.3,1.3,0.5c0.4,0.2,0.7,0,1.1,0.2c1.4,0,3.4,0,5.1-0.8c5.9-2.9,6.7-5.2,4.9-6.9c-0.2-0.1-0.1-0.3-0.1-0.3
			c-1.5-2.5-6.3-3-7.9-1.9c-1.7,1.3-0.5,2.7,0.6,2.4c0.8-0.2,0.4-0.6,0.3-0.8c0.4,0.2,1.1,0.4,0.8,1.2c-0.5,1.5-2.9,0.1-3.3-0.9
			c-0.3-1.1-1.8-2.3-5.1-1.1c-0.9,0.4-1.8,1-2.3,1.8l0,0l0,0c-0.1,0.2-0.1,0.2-0.2,0.4c0,0,0,0-0.1,0.2c-0.1,0.2-0.4,0.6-0.5,0.8
			c0,0,0,0-0.1,0.2l-0.1,0.2l-0.1,0.2l-0.1,0.2l-0.1,0.2c0,0,0,0-0.1,0.2c0,0-0.1,0.2,0.1,0.3l0,0l0.1,0.3l0,0
			C182.4,64.7,182.6,65,182.6,65L182.6,65z M189.1,65.4L189.1,65.4L189.1,65.4L189.1,65.4L189.1,65.4L189.1,65.4
			c-0.3,0.1-0.3,0.1-0.6,0.3c-0.2-0.1-0.3-0.4-0.3-0.6c0.5-0.1,0.8-0.2,1.4,0C189.7,65.2,189.4,65.3,189.1,65.4z M194.3,59.2
			c0.8-0.2,1.7-0.1,2.5,0.4l0,0l-0.2-0.1l0,0l-0.2-0.1l0,0l-0.2-0.1l0,0c-0.2-0.1-0.2-0.1-0.4-0.2l0,0
			C195,59.2,194.7,59.3,194.3,59.2z"/>
		<g>
			<path class="st11" d="M191.6,58.7c0,0,2-0.2,1.4,1.5c-0.6,1.7-2.9,0.1-3.3-0.9c-0.3-1.1-1.9-2.6-5-1.4c-3.3,1.2-4.6,6-1.2,6.5
				c3.6,0.6,4.5-1.2,5.7-0.3c0,0-1.9,0.7-1.6,1.1c0.3,0.6,3,1.1,5.3,0c1.2-0.5,2.6-1.2,4.4-2.9C201,58.5,192.3,56,191.6,58.7z"/>
			<path class="st12" d="M188.6,64.3C188.6,64.3,188.8,64.4,188.6,64.3c2,0.5,4.4-0.3,5.5-1.8c0.5-0.8,0.3-1.6-0.1-2.4
				c-0.6-0.9-1.4-1.5-2.6-1.4c0.9-2.5,9.4-0.2,5.6,3.7c-1.8,1.7-3.3,2.4-4.4,2.9c-2,0.9-4.1,0.7-4.9,0.4
				C188.3,65.1,188.4,64.7,188.6,64.3z"/>
			<path class="st13" d="M182.3,59.6L182.3,59.6c0,0.7,0.1,1.7,0.7,2.2c1.1,0.9,2.1,0.8,3.4,0.5c2.4-0.6,2.5,0.9,3.7,2.3
				c-0.7,0-1.1-0.4-1.1-0.4c-1.2-0.7-2.3,1.1-5.7,0.3C181,63.9,180.9,61.5,182.3,59.6z"/>
			<path class="st14" d="M192.1,58.6c0,0,1,0.6-0.2,1.1c-1.1,0.3-2.4-1.4-0.7-2.7s7.4-1.2,8.6,2.2c1,3.2-0.7,6.5-4.9,8.1
				c-4.2,1.6-8.2,0.6-8.5-1.2c-0.5-1.9-0.1-2.9,1.2-3.4c0,0,0.9,0.1,0.4,0.9c-0.4,0.6,0,1.4,1.7,1.3c1.5-0.2,6.4-0.3,7.5-4
				C198.3,57.3,192.7,56.9,192.1,58.6z"/>
			<path class="st14" d="M192.1,66.5c2.6-0.5,5-1.3,6.4-3.7c1-1.3,1.8-3,1-4.2c0.1,0.3,0.3,0.4,0.3,0.6c1,3.2-0.7,6.5-4.9,8.1
				c-4.2,1.6-8.2,0.6-8.5-1.2c-0.1-0.3-0.1-0.5-0.1-1C187.1,66.9,190,67,192.1,66.5z"/>
		</g>
	</g>
	<g>
		<path class="st10" d="M133.5,45.2l0.1,0.3l0,0c0,0,0.1,0.3,0.3,0.4c0,0,0,0,0.2,0.1s0.2,0.1,0.3,0.4c0.8,0.5,1.4,0.8,2,1
			c0.2,0.1,0.2,0.1,0.4,0.2c-0.1,0.2-0.2,0.6-0.3,0.8c-0.1,0.2-0.1,0.2-0.2,0.4c-0.2,0.4,0.1,1,0.5,1.4c0.3,0.4,0.7,0.7,1.1,0.9
			c0.4,0.2,0.6,0.4,1,0.6c1.2,0.7,3.1,1.4,5.1,1.1c6.6-0.2,8.3-2.3,6.9-4.5c-0.2-0.1,0.1-0.2-0.1-0.5c-0.4-2.8-4.8-5.3-6.7-4.8
			c-2.1,0.4-1.4,2.4-0.4,2.5c0.7,0,0.8-0.2,0.7-0.5c0.3,0.4,0.9,0.8,0.2,1.5c-1.2,1.3-2.8-1-2.7-1.9c0.2-1.1-0.8-3-4.2-3
			c-0.9-0.1-2,0.2-2.9,0.6l0,0l0,0l-0.3,0.1l0,0c-0.3,0.1-0.7,0.5-0.7,0.7c0,0,0,0-0.1,0.2l-0.1,0.2l-0.1,0.2l-0.1,0.2l-0.1,0.2
			l-0.1,0.2l-0.1,0.2c0,0,0,0-0.1,0.2C133.4,44.9,133.4,44.9,133.5,45.2L133.5,45.2C133.4,44.9,133.4,44.9,133.5,45.2L133.5,45.2z
			 M139.4,48.1L139.4,48.1L139.4,48.1L139.4,48.1L139.4,48.1L139.4,48.1c-0.2-0.1-0.5,0.1-0.5,0.1c-0.1-0.3-0.1-0.5,0-0.7
			c0.5-0.1,0.9,0.1,1.3,0.5C139.9,48,139.7,47.9,139.4,48.1z M146.4,44.1c0.8,0.3,1.7,0.6,2.2,1.3l0,0l-0.2-0.1l0,0l-0.2-0.1l0,0
			l-0.2-0.1l0,0c-0.2-0.1-0.2-0.1-0.4-0.2l0,0C147.3,44.4,146.8,44.3,146.4,44.1z"/>
		<g>
			<path class="st11" d="M144,42.8c0,0,1.9,0.7,0.7,1.9c-1.2,1.3-2.8-1-2.6-2.1c0.2-1.1-0.8-3.2-4.1-3.2c-3.4,0-6.7,3.8-3.5,5.7
				c2.9,2,4.6,0.7,5.4,1.7c0,0-1.9,0-2.1,0.4c0,0.7,2.4,2.1,4.8,2c1.2,0,2.9-0.1,5.2-1C152.9,46,145.8,40.5,144,42.8z"/>
			<path class="st12" d="M139.4,46.8L139.4,46.8c1.5,1.3,4.2,1.5,5.8,0.4c0.7-0.5,1-1.3,0.9-2.3c0-1.2-0.8-1.7-1.8-2.3
				c1.7-2,8.8,3.5,3.8,5.5c-2.2,0.9-4,1-5.2,1c-2.2,0.2-4.1-0.8-4.7-1.5C138.7,47.5,139,47.2,139.4,46.8z"/>
			<path class="st13" d="M135.4,40.1L135.4,40.1c-0.4,0.6-0.4,1.8-0.1,2.4c0.8,1.2,1.6,1.5,3,1.8c2.3,0.3,2,1.7,2.6,3.4
				c-0.6-0.2-0.9-0.8-0.9-0.8c-0.8-1.2-2.4,0.1-5.4-1.7C132.4,43.6,133.3,41.2,135.4,40.1z"/>
			<path class="st14" d="M144.7,42.8c0,0,0.6,0.9-0.6,1c-1.1-0.2-1.7-2,0.3-2.8c2.1-0.4,7.3,1.7,7,5.2c-0.2,3.3-3,5.6-7.6,5.6
				s-7.8-2.4-7.6-4.2c0.2-1.9,1-2.8,2.4-2.7c0,0,0.8,0.5,0.1,1c-0.7,0.5-0.5,1.3,1,1.8s5.9,2.2,8.5-0.8
				C150.8,44,146,41.3,144.7,42.8z"/>
			<path class="st14" d="M141.6,50.1c2.7,0.5,5.1,0.6,7.3-0.9c1.3-1,2.7-2.1,2.5-3.6c-0.1,0.2,0.1,0.5,0,0.7c-0.2,3.3-3,5.6-7.6,5.6
				s-7.8-2.4-7.6-4.2c0.1-0.2,0.2-0.6,0.3-0.8C137.1,48.6,139.5,49.8,141.6,50.1z"/>
		</g>
	</g>
</g>
</svg>
