<?xml version="1.0" encoding="utf-8"?>
<!-- Generator: Adobe Illustrator 25.2.1, SVG Export Plug-In . SVG Version: 6.00 Build 0)  -->
<svg version="1.1" id="Layer_3" xmlns="http://www.w3.org/2000/svg" xmlns:xlink="http://www.w3.org/1999/xlink" x="0px" y="0px"
	 viewBox="0 0 200 200" style="enable-background:new 0 0 200 200;" xml:space="preserve">
<style type="text/css">
	.st0{fill:#EC9936;}
	.st1{fill:#F89945;}
	.st2{fill:#E2762E;}
	.st3{fill:#B15631;}
	.st4{fill:#FBDF6A;}
	.st5{fill:#766974;}
	.st6{opacity:0.65;fill:#6C5F66;enable-background:new    ;}
	.st7{fill:#AAA2A9;}
	.st8{fill:#D12424;}
	.st9{fill:#EA3333;}
	.st10{fill:#C91D1D;}
	.st11{fill:#FF3333;}
	.st12{fill:#FF7E70;}
	.st13{fill:#E7D1CA;}
	.st14{fill:#E65126;}
	.st15{fill:#D93300;}
	.st16{fill:#EA8D70;}
	.st17{fill:#EAC086;}
	.st18{fill:#D59D63;}
	.st19{fill:#DA9F59;}
	.st20{fill:#F6E4CA;}
</style>
<g>
	<path class="st0" d="M207.1,68.1c-5.6-0.2-11.1,0-16.5,1.1c-11.1,2-21.2,7.2-31.2,12.2c-9.3,4.5-17.6,10.4-26.9,14.7
		c-8.6,3.8-17.8,5.9-27.1,6.8C94.8,104,84,104.4,73.2,104s-20.3-3.6-30.7-5.9c-9.9-2-11.1-1.1-21.2-2.7
		c-8.8,6.5-27.1,12.2-30.3,20.6c0,0,2.3,16.9,5.6,16.5c175.5-22.4,191.3-33.9,203.9-38.8c13.3-5,20.8-9.5,12.9-19.9
		C213.6,73.5,210.9,71.2,207.1,68.1z"/>
	<path class="st1" d="M213.6,73.5c0,0-26.2-22.4-28.5-26.4c-2.3-4.1-21.7-19.6-40.9-19c-3.6,0.2-6.5,0-8.8-0.2
		c-3.8-0.5-7.7,0.2-11.1,1.8c-4.7,2.3-10.4,6.1-11.7,12c2.7,1.4,5.4,2.7,8.6,3.4c4.7,0.9,9.7,1.8,14.5,2.9
		c7.7,1.8,14.9,4.1,21.9,7.9c7.2,3.8,14.2,7,19.6,13.6c3.8,4.5,6.5,9.9,8.1,15.6c7.7-6.8,15.6-14.9,27.1-11.5
		c0.7,0.2,1.1,0.5,1.6,0.5C213.9,73.7,213.6,73.7,213.6,73.5z"/>
	<path class="st2" d="M187.7,62.6c-4.3-1.4-8.8-2.5-12.2-5.6c-5.4-5-9.9-10.6-16.5-13.8c-6.5-3.2-13.6-2.3-20.6-2.3
		c-8.8,0-15.1-2.5-20.8-6.8c-2.3,2-4.1,4.5-4.7,7.5c2.7,1.4,5.4,2.7,8.6,3.4c4.7,0.9,9.7,1.8,14.5,2.9c7.7,1.8,14.9,4.1,21.9,7.9
		c7.2,3.8,14.2,7,19.6,13.6c3.8,4.5,6.5,9.9,8.1,15.6c3.6-3.2,7.5-6.8,11.5-9.3C194.2,70.8,192.9,64.2,187.7,62.6z"/>
	<path class="st3" d="M195.6,85.9c1.1,0.5,2.7-0.2,3.6-0.5c1.1-0.2,2.5-0.7,3.6-1.1c1.4-0.5,4.5-1.8,4.7-3.6
		c0.2-2.3-3.2-2.3-4.7-2.3c-2.3,0-4.1,0.5-6.1,1.6c-1.4,0.9-3.6,2.3-3.6,4.1c0,2,2.9,1.8,4.3,1.4L195.6,85.9z"/>
	<path class="st4" d="M-7.5,116.9c0,0,4.3,6.1,15.8-1.4c3.4-0.2,7.5,3.2,11.5,2.7c2.9-0.2,5.6-4.1,8.6-4.3
		c17.6-1.4,35.7-2.7,38.4-2.3c13.6,1.4,13.1,5.2,16,5.2c7.7-0.2,7.7-11.1,33.9-12.2c7.7-0.2,47.4-2,54.2-12.4
		c3.8-5.9,12.4-5.2,12.4-5.2l2.3-2c0,0,4.7-13.3-6.5-20.1c-40.9-23.9-61.2-23.7-65.3-23.7c-4.1,0-115,65.5-121.3,71.8
		C-10,115-11.8,117.1-7.5,116.9z"/>
	<g>
		<path class="st5" d="M122.4,66.5c-0.9-3.4-5.2-3.6-7.7-3.2c-2.9,0.5-7,2.3-7.5,5.4c-0.2,2.3,2,3.6,3.8,4.1c2,0.5,5.4,0.9,7.5-0.2
			C120.4,71.5,123.3,69.7,122.4,66.5z"/>
		<g>
			<path class="st6" d="M122.4,66.5c-0.9-3.4-5.2-3.6-7.7-3.2c-2.9,0.5-7,2.3-7.5,5.4c-0.2,2.3,2,3.6,3.8,4.1c2,0.5,5.4,0.9,7.5-0.2
				C120.4,71.5,123.3,69.7,122.4,66.5z M117.6,69c-1.1,0.5-2.3,0.7-4.3,0.9c-1.4,0-2.9-0.5-3.4-1.8c-0.5-1.4,0.5-2.9,1.8-3.4
				c1.8-0.7,3.8-0.9,5.9-0.9C121.3,63.8,121,67.8,117.6,69z"/>
			<path class="st7" d="M117.6,65.4c-0.2-0.2-0.5-0.2-0.7-0.2c-0.5,0-1.1,0.2-1.6,0.5c-0.5,0.2-0.7,0.5-0.9,0.7
				c-0.2,0.5,0,0.7,0.2,0.9c0.5,0.2,1.1,0.2,1.6,0.2s0.9-0.2,1.1-0.5c0.2-0.2,0.7-0.5,0.7-0.7C118.3,66.5,118.1,65.6,117.6,65.4z"/>
		</g>
	</g>
	<g>
		<path class="st5" d="M83.8,78.5c-1.6,1.4-5.6,1.1-8.4,0.7c-2.7-0.5-6.3-1.6-6.1-2.9c0.2-0.9,2.9-1.4,4.7-1.4c2,0,5.6,0,7.2,0.7
			C82.6,76.2,85.1,77.3,83.8,78.5z"/>
		<g>
			<path class="st6" d="M81.3,75.7c-1.8-0.7-5.2-0.7-7.2-0.7c-1.8,0-4.5,0.5-4.7,1.4c-0.2,1.4,3.4,2.5,6.1,2.9
				c2.5,0.5,6.8,0.7,8.4-0.7C85.1,77.3,82.6,76.2,81.3,75.7z M78.6,79.4c-2-0.2-3.6-0.5-5.4-0.9c-1.4-0.2-1.8-0.9-1.1-1.6
				c0.7-0.5,2.3-0.7,3.6-0.5c2,0.2,2.9,0.5,4.1,0.7C82.4,77.8,82,79.6,78.6,79.4z"/>
			<path class="st7" d="M78.8,78.5c-0.2,0-0.5,0-0.7,0c-0.5,0-1.1-0.2-1.6-0.2c-0.2,0-0.7-0.2-0.7-0.5s0.2-0.2,0.5-0.2
				c0.5,0,1.1,0,1.6,0c0.5,0,0.9,0.2,1.1,0.2s0.5,0.2,0.7,0.2C79.5,78.2,79.3,78.5,78.8,78.5z"/>
		</g>
	</g>
	<g>
		<path class="st5" d="M42.2,105.6c1.6-2.5,5-2.9,7-2.9c2.3,0,5,0.9,4.3,3.2c-0.5,1.6-2.7,2.7-4.1,3.2c-1.8,0.5-4.5,1.1-5.6,0.5
			C42.4,109.2,40.6,108,42.2,105.6z"/>
		<g>
			<path class="st6" d="M43.6,109.6c1.1,0.7,4.1,0,5.6-0.5s3.8-1.6,4.1-3.2c0.5-2.3-2.3-3.2-4.3-3.2c-2,0-5.4,0.7-7,2.9
				C40.6,108,42.4,109.2,43.6,109.6z M46.5,103.3c1.6-0.2,2.9,0,4.3,0.2c0.9,0.2,1.4,1.1,0.7,2.3c-0.7,0.9-2,1.6-3.2,1.6
				c-1.8,0.2-2.5,0-3.2-0.2C42.9,106.5,43.8,103.5,46.5,103.3z"/>
			<path class="st7" d="M46.1,104.4c0.2,0,0.5-0.2,0.7-0.2c0.5,0,0.9,0,1.1,0.2c0.2,0,0.5,0.2,0.5,0.5c0,0.2-0.2,0.5-0.5,0.7
				c-0.5,0.2-0.9,0.2-1.1,0.2c-0.2,0-0.7,0-0.9-0.2c-0.2,0-0.5-0.2-0.5-0.5C45.4,105.3,45.6,104.7,46.1,104.4z"/>
		</g>
	</g>
	<g>
		<path class="st5" d="M167.8,74.4c1.6-2.5,5-2.9,7-2.9c2.3,0,5,0.9,4.3,3.2c-0.5,1.6-2.7,2.7-4.1,3.2c-1.8,0.5-4.5,1.1-5.6,0.5
			C168,77.8,166.2,76.9,167.8,74.4z"/>
		<g>
			<path class="st6" d="M169.1,78.2c1.1,0.7,4.1,0,5.6-0.5c1.6-0.5,3.8-1.6,4.1-3.2c0.5-2.3-2.3-3.2-4.3-3.2c-2,0-5.4,0.7-7,2.9
				C166.2,76.9,168,77.8,169.1,78.2z M172.3,72.1c1.6-0.2,2.9,0,4.3,0.2c0.9,0.2,1.4,1.1,0.7,2.3c-0.7,0.9-2,1.6-3.2,1.6
				c-1.8,0.2-2.5,0-3.2-0.2C168.7,75.3,169.6,72.4,172.3,72.1z"/>
			<path class="st7" d="M171.9,73.3c0.2,0,0.5-0.2,0.7-0.2c0.5,0,0.9,0,1.1,0.2c0.2,0,0.5,0.2,0.5,0.5c0,0.2-0.2,0.5-0.5,0.7
				c-0.5,0.2-0.9,0.2-1.1,0.2s-0.7,0-0.9-0.2c-0.2,0-0.5-0.2-0.5-0.5C171.2,73.9,171.4,73.5,171.9,73.3z"/>
		</g>
	</g>
	<g>
		<path class="st5" d="M-0.2,110.3c1.6-2.5,5-2.9,7-2.9c2.3,0,5,0.9,4.3,3.2c-0.5,1.6-2.7,2.7-4.1,3.2c-1.8,0.5-4.5,1.1-5.6,0.5
			C0,113.7-1.8,112.8-0.2,110.3z"/>
		<g>
			<path class="st6" d="M1.1,114.4c1.1,0.7,4.1,0,5.6-0.5s3.8-1.6,4.1-3.2c0.5-2.3-2.3-3.2-4.3-3.2s-5.4,0.7-7,2.9
				C-1.8,112.8,0,113.7,1.1,114.4z M4,108c1.6-0.2,2.9,0,4.3,0.2c0.9,0.2,1.4,1.1,0.7,2.3c-0.7,0.9-2,1.6-3.2,1.6
				c-1.8,0.2-2.5,0-3.2-0.2C0.4,111.2,1.3,108.3,4,108z"/>
			<path class="st7" d="M3.8,109.2c0.2,0,0.5-0.2,0.7-0.2c0.5,0,0.9,0,1.1,0.2c0.2,0,0.5,0.2,0.5,0.5c0,0.2-0.2,0.5-0.5,0.7
				c-0.5,0.2-0.9,0.2-1.1,0.2c-0.2,0-0.7,0-0.9-0.2c-0.2,0-0.5-0.2-0.5-0.5C2.9,109.9,3.4,109.4,3.8,109.2z"/>
		</g>
	</g>
	<g>
		<path class="st8" d="M23.5,97.7l2.7,4.7l37-12.4l0.5-4.7c0,0-8.6-7.9-20.8-5S23.7,90.9,23.5,97.7z"/>
		<path class="st9" d="M23.5,97.7l40.2-12.2c0,0-8.6-7.9-20.8-5S23.7,90.9,23.5,97.7z"/>
		<path class="st10" d="M33.9,91.6c1.1,0,5,1.1,5.2,1.1c0.5,0-2.7-2.9-2.7-2.9s2.9-2.9,9.9-2.9c0,0-1.8,2.5,0,3.2
			c1.8,0.5,2.7-3.2,2.7-3.6c0-0.5,4.7-0.7,6.8,1.4l7.7-2.5c0,0-8.6-7.9-20.8-5c-12.2,3.2-19.2,10.4-19.2,17.2l7.9-2.5
			C32.1,93.8,33,91.6,33.9,91.6z"/>
		<path class="st11" d="M39.3,85.9c6.3-2.3,13.8-3.4,19.2,1.1l5.2-1.6c0,0-8.6-7.9-20.8-5c-12.2,3.2-19.2,10.4-19.2,17.2l3.8-1.1
			C28.4,90.4,33.9,87.7,39.3,85.9z"/>
		<ellipse class="st12" cx="34.5" cy="93.4" rx="0.9" ry="0.7"/>
		<path class="st12" d="M40.4,90c0,0.5-0.5,0.7-0.9,0.7s-0.9-0.2-0.9-0.7c0-0.5,0.5-0.7,0.9-0.7C40,89.3,40.4,89.5,40.4,90z"/>
		<path class="st12" d="M43.6,90c0,0.5-0.5,0.7-0.9,0.7c-0.5,0-0.9-0.2-0.9-0.7c0-0.5,0.5-0.7,0.9-0.7C43.1,89.3,43.6,89.8,43.6,90z
			"/>
		<ellipse class="st12" cx="50.8" cy="87.7" rx="0.7" ry="0.7"/>
	</g>
	<g>
		<path class="st8" d="M106.6,50.2l0.2,3.8l26.2,3.4l1.6-2.7c0,0-2.9-7.5-11.1-9.3C115.4,43.7,108.6,46.2,106.6,50.2z"/>
		<path class="st9" d="M106.6,50.2l28,4.5c0,0-2.9-7.5-11.1-9.3C115.4,43.7,108.6,46.2,106.6,50.2z"/>
		<path class="st10" d="M114.5,49.6c0.7,0.5,2.7,2,2.9,2.3c0.2,0-0.9-2.5-0.9-2.5s2.7-0.9,6.8,1.1c0,0-1.8,0.9-0.9,1.8
			c0.9,0.9,2.5-1.1,2.7-1.4c0.2-0.2,3.2,1.1,3.8,2.9l5.4,0.9c0,0-2.9-7.5-11.1-9.3c-8.4-1.8-14.7,0.5-16.9,4.7l5.4,0.9
			C112.7,50.5,114,49.3,114.5,49.6z"/>
		<path class="st11" d="M119.5,47.7c4.5,0.7,9.5,2,11.3,6.3l3.6,0.7c0,0-2.9-7.5-11.1-9.3c-8.4-1.8-14.7,0.5-16.9,4.7l2.7,0.5
			C111.6,47.3,115.6,47.3,119.5,47.7z"/>
		<ellipse class="st12" cx="114.5" cy="50.8" rx="0.5" ry="0.5"/>
		<path class="st12" d="M119,50.7c0,0.2-0.5,0.2-0.7,0.2c-0.2-0.2-0.5-0.7-0.5-0.9s0.5-0.2,0.7-0.2C119,50,119,50.5,119,50.7z"/>
		<path class="st12" d="M120.8,51.6c-0.2,0.2-0.5,0.2-0.7,0.2c-0.2-0.2-0.5-0.5-0.2-0.7c0.2-0.2,0.5-0.2,0.7-0.2
			C120.8,51.1,121,51.4,120.8,51.6z"/>
		<ellipse class="st12" cx="126" cy="52.3" rx="0.5" ry="0.5"/>
	</g>
	<path class="st13" d="M161.7,87.5l-2.3-3.6l0,0l0,0c0,0-9.5,0.7-12.6,0.5l10.2-7.2c0,0-14.2-2.7-21.5,1.1
		c-6.5,3.4-5.4,7.2-5.9,10.4c0,0.5,0,1.1,0.2,1.6l-1.8,4.7c-0.7,1.6,0,3.6,1.6,4.5c0.7,0.2,1.1,0.7,1.6,0.7c0.7,0.2,1.6,0.5,2.7,0.7
		c3.2,0.7,8.1,0.9,13.8-0.7c2-0.5,3.8-1.4,5.4-2.3c0.5-0.2,0.9-0.7,1.4-0.9c1.4-0.9,2.5-2,3.4-3.2c0.2-0.5,0.7-0.7,0.9-1.1
		C161,90,161.7,87.5,161.7,87.5L161.7,87.5L161.7,87.5z"/>
	<g>
		<path class="st14" d="M127.1,90.9l1.8,5c0.5,1.1,1.4,2.3,2.7,2.5c2.9,0.9,8.8,2.3,16.5,0c11.1-2.9,14-12.6,14-12.6l-2.3-3.8
			c0,0-9.5,0.7-12.6,0.5l10.2-7.2c0,0-14.2-2.7-21.5,1.1c-6.5,3.4-8.4,9.7-8.8,12.6C126.9,90,127.1,90.4,127.1,90.9z"/>
		<path class="st15" d="M159.9,82.3c-0.5,2.7-1.6,5.2-3.8,7c-3.8,2.9-8.4,5-13.1,5.9c-5.9,0.9-12.9,0.5-15.6-4.5c0,0.2,0,0.2,0,0.5
			l1.8,5c0.5,1.1,1.4,2.3,2.7,2.5c2.9,0.9,8.8,2.3,16.5,0c11.1-2.9,14-12.6,14-12.6L159.9,82.3z"/>
		<path class="st16" d="M135.3,85.5c0.5,0.9,0,2.3-1.4,2.9c-1.4,0.7-2.7,0.5-3.2-0.5c-0.5-0.9,0-2.3,1.4-2.9
			C133.5,84.3,134.8,84.6,135.3,85.5z"/>
		<path class="st16" d="M144.1,79.4c0.5,0.9-0.2,2.3-1.6,2.9c-1.4,0.7-2.7,0.5-3.2-0.7c-0.5-0.9,0.2-2.3,1.6-2.9
			C142,78,143.6,78.5,144.1,79.4z"/>
		<path class="st16" d="M146.6,88.2c0.2,1.1-0.5,2.3-2,2.7c-1.4,0.5-2.7,0-3.2-1.1c-0.2-1.1,0.5-2.3,2-2.7
			C145,86.6,146.3,87,146.6,88.2z"/>
		<path class="st16" d="M155.6,86.1c0.2,1.1-0.5,2.3-2,2.7c-1.4,0.5-2.7,0-3.2-1.1c-0.2-1.1,0.5-2.3,2-2.7
			C154,84.6,155.4,85,155.6,86.1z"/>
	</g>
	<g>
		<path class="st13" d="M97.5,98.3c0-0.2,0.2-0.2,0.2-0.5c0,0,0,0,0-0.2c0-0.2,0-0.5,0-0.5s0,0,0-0.2s0-0.2,0-0.5v-0.2
			c0-0.2,0-0.2,0-0.5s0-0.2-0.2-0.5c0,0,0-0.2-0.2-0.2l-0.2-0.2c0,0,0-0.2-0.2-0.2c-0.2-0.5-0.7-0.7-0.9-1.1c0,0,0,0-0.2,0
			s-0.2-0.2-0.5-0.2l0,0l0,0c-1.1-0.9-2.5-1.4-3.8-1.6c-4.7-0.5-6.3,2-6.5,3.6c0,1.6-2.7,4.3-4.1,2.3c-0.9-1.1-0.2-1.8,0.5-2
			c-0.2,0.5-0.2,0.9,0.9,0.9c1.6,0,2.7-2.5,0-3.6c-2.7-0.9-9.3,1.8-10.2,5.6c0,0.2,0,0.5-0.2,0.7c-2.3,2.9,0,5.9,9,7.7
			c2.7,0.5,5.4,0,7.2-0.7c0.5-0.2,1.1-0.5,1.6-0.7c0.7-0.5,1.1-0.7,1.6-1.1c0.5-0.7,0.9-1.1,0.9-1.8c0-0.2,0-0.5,0-0.7
			c0-0.5-0.2-0.9-0.2-1.4c0.2,0,0.5,0,0.7,0c0.9-0.2,1.8-0.5,2.9-0.9c0.2-0.2,0.5-0.2,0.7-0.5c0,0,0,0,0.2,0
			c0.2-0.2,0.2-0.2,0.5-0.5l0,0C97.1,98.8,97.3,98.6,97.5,98.3C97.3,98.3,97.5,98.3,97.5,98.3z M87.6,101.3c0.5-0.5,1.1-0.5,1.8-0.5
			c0.2,0.2,0,0.7,0,0.9c-0.2,0-0.5-0.2-0.7-0.2l0,0l0,0l0,0l0,0l0,0C88.1,101.3,87.6,101.3,87.6,101.3z M77.9,95.2L77.9,95.2
			c-0.2,0-0.2,0.2-0.5,0.2l0,0c-0.2,0-0.2,0.2-0.5,0.2l0,0c-0.2,0-0.2,0.2-0.5,0.2c0,0,0,0-0.2,0l-0.2,0.2l0,0
			c0.9-0.9,2-1.4,3.2-1.6C78.8,94.7,78.4,94.9,77.9,95.2z"/>
		<g>
			<path class="st17" d="M82.9,93.1c0,0-2.9,0.5-1.4,2.5c1.4,2,4.1-0.9,4.1-2.5s1.6-4.3,6.5-3.8c4.7,0.5,8.6,6.5,4.1,8.8
				s-6.5,0-8.1,1.6c0,0,2.9,0.5,2.7,0.9c-0.2,1.1-3.6,2.5-7.2,2c-1.6-0.2-4.1-0.7-7-2.3C69.8,96.3,80.8,89.8,82.9,93.1z"/>
			<path class="st18" d="M89,99.7L89,99.7c-2.5,1.6-6.1,1.4-8.1-0.5c-0.9-0.9-1.1-2.3-0.9-3.4c0.2-1.6,1.6-2.5,2.9-2.9
				c-2.3-3.2-12.9,3.2-6.3,7c2.9,1.8,5.4,2,7,2.3c2.9,0.5,5.9-0.5,7-1.4C89.9,100.6,89.4,100.1,89,99.7z"/>
			<path class="st19" d="M95.7,90.9L95.7,90.9c0.5,0.9,0.5,2.5-0.2,3.2c-1.4,1.6-2.7,2-4.7,2c-3.4,0-3.2,2.3-4.3,4.5
				c0.9-0.2,1.4-0.9,1.4-0.9c1.4-1.6,3.4,0.7,8.1-1.6C99.1,96.3,98.2,92.9,95.7,90.9z"/>
			<path class="st20" d="M82.2,93.1c0,0-0.9,1.4,0.7,1.4c1.6,0,2.7-2.7,0-3.8c-2.7-1.1-10.6,1.4-11.1,6.1c-0.2,4.7,3.2,8.6,9.7,9.3
				c6.5,0.7,11.5-2,11.3-4.7c0-2.7-0.9-4.3-2.9-4.1c0,0-1.1,0.7-0.2,1.4c0.9,0.7,0.5,2-1.8,2.3c-2.3,0.5-8.8,2-11.7-2.7
				C73.2,93.6,80.6,90.9,82.2,93.1z"/>
			<path class="st20" d="M85.1,103.8c-3.8,0.2-7.2,0-10.2-2.7c-1.8-1.6-3.6-3.4-2.9-5.4c0,0.2-0.2,0.7-0.2,0.9
				c-0.2,4.7,3.2,8.6,9.7,9.3c6.5,0.7,11.5-2,11.3-4.7c0-0.5,0-0.9-0.2-1.4C91.7,102.6,88.1,103.8,85.1,103.8z"/>
		</g>
	</g>
	<g>
		<path class="st13" d="M136.8,67.4c0.2,0,0.2,0,0.5,0.2l0,0c0.2,0,0.2,0,0.5,0c0,0,0,0,0.2,0s0.5,0,0.5,0c0.9-0.2,1.6-0.5,2-0.7
			c0.2,0,0.2-0.2,0.5-0.2c0,0.2,0.2,0.7,0.5,0.9c0,0.2,0.2,0.2,0.2,0.5c0.2,0.5,0.7,0.7,1.1,0.7c0.5,0,0.9,0,1.4,0s0.7-0.2,1.1-0.2
			c1.4-0.5,3.2-1.1,4.5-2.5c4.5-4.7,4.5-7.2,2.3-8.1c-0.2,0-0.2-0.2-0.2-0.2c-2.3-1.8-7-0.7-8.1,0.9c-1.1,1.8,0.5,2.7,1.4,2
			c0.7-0.5,0.2-0.7,0-0.9c0.5,0,1.1,0,1.1,0.9c0,1.6-2.7,1.1-3.4,0.2c-0.7-0.9-2.5-1.6-5.2,0.7c-0.7,0.7-1.4,1.6-1.6,2.5l0,0l0,0
			c0,0.2,0,0.2,0,0.5c0,0,0,0,0,0.2s-0.2,0.7-0.2,0.9c0,0,0,0,0,0.2V66v0.2v0.2v0.2c0,0,0,0,0,0.2c0,0,0,0.2,0.2,0.2l0,0l0.2,0.2
			l0,0C136.6,67.2,136.8,67.4,136.8,67.4L136.8,67.4z M143.2,65.6L143.2,65.6L143.2,65.6L143.2,65.6L143.2,65.6L143.2,65.6
			c-0.2,0.2-0.2,0.2-0.5,0.5c-0.2,0-0.5-0.2-0.5-0.5c0.5-0.2,0.7-0.5,1.4-0.5C143.6,65.1,143.4,65.4,143.2,65.6z M145.9,57.9
			c0.7-0.5,1.6-0.7,2.5-0.5l0,0h-0.2l0,0h-0.2l0,0h-0.2l0,0c-0.2,0-0.2,0-0.5,0l0,0C146.6,57.7,146.3,57.9,145.9,57.9z"/>
		<g>
			<path class="st17" d="M143.2,58.4c0,0,1.8-0.9,1.8,0.9c0,1.8-2.7,1.1-3.4,0.2c-0.7-0.9-2.7-1.8-5.2,0.5c-2.7,2.3-2.3,7.2,1.1,6.5
				c3.6-0.7,3.8-2.7,5.2-2.3c0,0-1.6,1.4-1.1,1.6c0.5,0.5,3.2,0,5-1.8c0.9-0.9,2-2,3.2-4.3C152,55,142.9,55.6,143.2,58.4z"/>
			<path class="st18" d="M142.3,64.7C142.3,64.7,142.5,64.7,142.3,64.7c2-0.2,4.1-1.8,4.5-3.6c0.2-0.9-0.2-1.6-0.9-2.3
				c-0.9-0.7-1.8-0.9-2.9-0.5c0-2.7,8.8-3.4,6.5,1.6c-1.1,2.3-2.3,3.4-3.2,4.3c-1.6,1.6-3.6,2-4.5,2
				C142.3,65.6,142.3,65.1,142.3,64.7z"/>
			<path class="st19" d="M134.8,62.4L134.8,62.4c0.2,0.7,0.7,1.6,1.4,1.8c1.4,0.5,2.3,0,3.4-0.7c2-1.4,2.7,0,4.3,0.9
				c-0.7,0.2-1.1,0-1.1,0c-1.4-0.2-1.8,1.8-5.2,2.3C135,66.9,134.1,64.7,134.8,62.4z"/>
			<path class="st20" d="M143.6,58.1c0,0,1.1,0.2,0.2,1.1c-0.9,0.7-2.7-0.5-1.6-2.3c1.1-1.8,6.5-3.6,8.8-0.9c2,2.7,1.6,6.3-1.8,9.3
				c-3.4,2.9-7.5,3.4-8.4,1.8c-1.1-1.6-1.1-2.7,0-3.6c0,0,0.9-0.2,0.7,0.7c-0.2,0.7,0.5,1.4,2,0.7c1.4-0.7,5.9-2.5,5.6-6.3
				C149,54.7,143.6,56.3,143.6,58.1z"/>
			<path class="st20" d="M146.3,65.6c2.3-1.4,4.3-2.9,4.7-5.6c0.5-1.6,0.7-3.4-0.5-4.3c0.2,0.2,0.5,0.2,0.5,0.5
				c2,2.7,1.6,6.3-1.8,9.3c-3.4,2.9-7.5,3.4-8.4,1.8c-0.2-0.2-0.2-0.5-0.5-0.9C141.8,67.6,144.5,66.7,146.3,65.6z"/>
		</g>
	</g>
	<g>
		<path class="st13" d="M84,65.6l0.2,0.2l0,0c0,0,0.2,0.2,0.5,0.2c0,0,0,0,0.2,0s0.2,0,0.5,0.2c0.9,0.2,1.6,0.2,2.3,0.2
			c0.2,0,0.2,0,0.5,0c0,0.2,0,0.7,0,0.9s0,0.2,0,0.5c0,0.5,0.5,0.9,0.9,1.1c0.5,0.2,0.9,0.5,1.4,0.5c0.5,0,0.7,0.2,1.1,0.2
			c1.4,0.2,3.4,0.2,5.2-0.7c6.1-2.5,7-5,5-6.5c-0.2,0,0-0.2-0.2-0.5c-1.4-2.5-6.3-3.4-7.9-2.3c-1.8,1.1-0.5,2.7,0.5,2.5
			c0.7-0.2,0.7-0.5,0.5-0.7c0.5,0.2,1.1,0.5,0.7,1.4c-0.7,1.6-2.9,0-3.2-0.9c-0.2-1.1-1.8-2.5-5-1.4c-0.9,0.2-1.8,0.9-2.5,1.6l0,0
			l0,0l-0.2,0.2l0,0c-0.2,0.2-0.5,0.7-0.5,0.9c0,0,0,0,0,0.2v0.2V64v0.2v0.2v0.2v0.2c0,0,0,0,0,0.2S83.8,65.4,84,65.6L84,65.6
			C83.8,65.4,83.8,65.4,84,65.6L84,65.6z M90.5,66.3L90.5,66.3L90.5,66.3L90.5,66.3L90.5,66.3L90.5,66.3c-0.2,0-0.5,0.2-0.5,0.2
			c-0.2-0.2-0.2-0.5-0.2-0.7c0.5-0.2,0.9-0.2,1.4,0C91,66,90.8,66,90.5,66.3z M95.7,60.2c0.9,0,1.8,0,2.5,0.5l0,0H98l0,0h-0.2l0,0
			h-0.2l0,0c-0.2,0-0.2,0-0.5,0l0,0C96.6,60.2,96.2,60.2,95.7,60.2z"/>
		<g>
			<path class="st17" d="M93,59.7c0,0,2,0,1.4,1.6c-0.7,1.6-2.9,0-3.2-1.1c-0.2-1.1-1.8-2.7-5-1.6c-3.2,1.1-5,5.9-1.4,6.5
				c3.4,0.9,4.5-0.9,5.6-0.2c0,0-1.8,0.7-1.8,1.1c0.2,0.7,2.9,1.1,5.2,0.2c1.1-0.5,2.7-1.1,4.5-2.7C102.5,59.7,93.9,57,93,59.7z"/>
			<path class="st18" d="M90.1,65.1L90.1,65.1c1.8,0.7,4.5,0,5.6-1.6c0.5-0.7,0.5-1.6,0-2.5c-0.5-1.1-1.4-1.4-2.5-1.6
				c0.9-2.5,9.5,0.2,5.4,3.8c-1.8,1.6-3.4,2.3-4.5,2.7c-2,0.9-4.1,0.7-5,0.2C89.6,66,89.9,65.6,90.1,65.1z"/>
			<path class="st19" d="M84,60.2L84,60.2c-0.2,0.7,0.2,1.8,0.7,2.3c1.1,0.9,2,0.9,3.4,0.7c2.3-0.5,2.5,0.9,3.6,2.3
				c-0.7,0-1.1-0.5-1.1-0.5c-1.1-0.9-2.3,0.9-5.6,0.2C82.4,64.5,82.4,62,84,60.2z"/>
			<path class="st20" d="M93.7,59.5c0,0,0.9,0.7-0.2,1.1c-1.1,0.2-2.3-1.4-0.7-2.7c1.8-1.1,7.5-0.9,8.4,2.5c0.9,3.2-0.9,6.3-5.2,7.9
				c-4.3,1.6-8.1,0.5-8.6-1.4c-0.5-1.8,0-2.9,1.4-3.4c0,0,0.9,0.2,0.5,0.9c-0.5,0.7,0,1.4,1.6,1.4c1.6,0,6.3,0,7.7-3.6
				C99.8,58.6,94.4,57.7,93.7,59.5z"/>
			<path class="st20" d="M93.3,67.4c2.7-0.5,5-1.1,6.5-3.4c0.9-1.4,1.8-2.9,1.1-4.3c0,0.2,0.2,0.5,0.2,0.7c0.9,3.2-0.9,6.3-5.2,7.9
				c-4.3,1.6-8.1,0.5-8.6-1.4c0-0.2,0-0.7,0-0.9C88.5,67.6,91.2,67.8,93.3,67.4z"/>
		</g>
	</g>
</g>
</svg>
