<?xml version="1.0" encoding="utf-8"?>
<!-- Generator: Adobe Illustrator 25.2.1, SVG Export Plug-In . SVG Version: 6.00 Build 0)  -->
<svg version="1.1" id="Layer_3" xmlns="http://www.w3.org/2000/svg" xmlns:xlink="http://www.w3.org/1999/xlink" x="0px" y="0px"
	 viewBox="0 0 200 200" style="enable-background:new 0 0 200 200;" xml:space="preserve">
<style type="text/css">
	.st0{fill:#52412B;}
	.st1{fill:#8C964B;}
	.st2{opacity:0.49;}
	.st3{fill:#3B3452;}
	.st4{fill:#752F51;}
	.st5{fill:#99405C;}
	.st6{opacity:0.2;fill:#C67A98;}
	.st7{fill:#3C1937;}
</style>
<g>
	<path class="st0" d="M113.1,59.5c2.2-3.8,2.4-9,2-13.2c-0.4-4.7-1.3-9.4-2.4-14c-1-3.8-2.4-7.7-4.4-11.2c-1.3-2.3-4.4-7.3-7.6-7.1
		c-3.7,0.3-0.1,4.2,0.9,5.2c3,3,4.9,7,6.2,10.9c1.5,4.4,3,8.9,4,13.4c0.6,2.6,0.9,5.1,1.1,7.8c0.2,2.7-0.3,5.3-0.4,8
		C112.6,59.6,112.9,59.7,113.1,59.5L113.1,59.5z"/>
</g>
<g>
	<g>
		<path class="st1" d="M95.8,12.4c0.3,2.5,2.3,4.8,3.9,6.7c1.7,2.1,3,4.8,5,6.7c2.4,2.2,6.7,0.1,5.6-3.3c-0.9-3-3.5-5.6-5.6-7.9
			c-1.9-2-4.6-4.2-7.5-4.1C96.2,10.6,95.7,11.5,95.8,12.4L95.8,12.4z"/>
	</g>
</g>
<g class="st2">
	<path class="st1" d="M100.1,13.5c1.3,1.9,2.5,3.9,3.9,5.7c1,1.3,2,3.6,3.8,3.7c0.3,0,0.7-0.3,0.8-0.6c0.3-1.9-1.7-3.2-2.8-4.5
		c-1.5-1.7-3.2-3.3-4.8-5C100.5,12.5,99.8,13,100.1,13.5L100.1,13.5z"/>
</g>
<g>
	<g>
		<path class="st3" d="M116.6,83.5c0.6,2.9,1.3,5.9,1.6,8.9c0.7,6.6,0.8,13.2,0.9,19.8c0,7.4,0.1,14.9-0.4,22.3
			c-0.2,3.4-0.5,6.7-1,10.1c-0.3,1.9-0.6,3.7-1,5.6c-0.5,2.2-1.8,12.5-1.5,14.8c0.7,6.4,4.2,8.9,8.1,3.9c2.4-3.2,6.8-17.4,7.4-21.3
			c0.7-4.3,1.1-8.7,1.4-13.1c0.5-7.8,0.6-15.8,0.3-23.6c-0.2-7.3-0.9-14.7-3.1-21.7c-2-6.1-9.2-25.8-15.8-28.1
			c-1.1-0.4,1.6,12.5,1.6,13.6C115,74.6,116,80.6,116.6,83.5z"/>
	</g>
</g>
<path class="st4" d="M99.7,50c-8.2-0.9-18,2.4-24.8,7.1c-4.4,3-6.6,7-9.8,11.3c-7.2,9.7-8.4,22.5-9.1,34.6
	c-0.5,8.7-0.2,16.7,1.1,25.3c1.3,8.6,5.1,17,9.4,24.6c4.9,8.6,16.1,18,19.3,18.8c6.7,1.6,14.5,4.1,21.1,1.9c1.6-0.5,3.2-1.3,4.9-1.5
	c4.5-0.5,7.5,0.9,11.9,2.4c14.1,4.7,24.8-1.4,33.3-10c8.5-8.7,13.3-16.3,15-28.4c3.6-25.2,1.3-52-12.3-73.6
	c-2.3-3.7-5.6-6.5-9.4-8.7c-4.1-2.3-11.9-3.1-16.6-3c-5.7,0.1-11,1-16.5,1.7C111,53.2,105.7,50.6,99.7,50z"/>
<g>
	<g>
		<path class="st5" d="M138.5,57.1c-0.6,1.8,1.1,3.2,2,4.5c1.3,1.9,2.6,3.8,3.7,5.8c2.2,3.7,3.8,7.8,5.1,11.9
			c2.8,8.6,4.8,17.6,5.5,26.7c0.6,9.1,0,18.2-2.2,27.1c-1,4.2-2.3,8.4-4,12.4c-2,4.7-7.2,11.6-0.6,15.3c3.2,1.8,7.1,0.7,9.1-2.4
			c2.1-3.3,3.5-7.2,4.9-10.8c1.4-3.6,2.5-7.3,3.4-11c1.9-7.7,2.9-15.8,2.9-23.7c0-15.7-3.6-32.4-12.7-45.5c-2.4-3.5-5.1-7-8.7-9.3
			C145.3,57.1,139.5,53.9,138.5,57.1L138.5,57.1z"/>
	</g>
</g>
<path class="st6" d="M161.6,93.2c-1.7-6-3.1-12.3-5.5-18c-2.4-5.7-6.5-9.7-11.4-13.3c-6.6-4.8-15-1.3-15,5.8c0,4.3,6.2,7.8,8.1,11.7
	c3.3,6.9,6.2,12.1,6.7,17.2c0.5,5.9,0.8,22.5,5.3,26.7c2.6,2.4,4.7,2.7,8.1,1.4c3.3-1.3,5.3-9.1,5.8-12.5
	C165,103.1,163.1,98.8,161.6,93.2z"/>
<path class="st7" d="M88.5,113.9c-3,56,24.5,58,27,58s-21,2-20-57c0.5-30.6,20.5-61,18-61S90.1,83.3,88.5,113.9z"/>
</svg>
