<?xml version="1.0" encoding="utf-8"?>
<!-- Generator: Adobe Illustrator 25.2.1, SVG Export Plug-In . SVG Version: 6.00 Build 0)  -->
<svg version="1.1" id="Layer_2" xmlns="http://www.w3.org/2000/svg" xmlns:xlink="http://www.w3.org/1999/xlink" x="0px" y="0px"
	 viewBox="0 0 200 200" style="enable-background:new 0 0 200 200;" xml:space="preserve">
<style type="text/css">
	.st0{fill:#52412B;}
	.st1{fill:#8C964B;}
	.st2{opacity:0.49;}
	.st3{fill:#3B3452;}
	.st4{fill:#752F51;}
	.st5{fill:#99405C;}
	.st6{opacity:0.2;fill:#C67A98;}
	.st7{fill:#3C1937;}
	.st8{fill:#F7D05B;}
	.st9{fill:#F1BB37;}
	.st10{fill:#683C17;}
	.st11{fill:#8C4A19;}
</style>
<g>
	<path class="st0" d="M206.8,69.6c4-1.6,7.3-5.7,9.6-9.3c2.6-4,4.7-8.3,6.5-12.6c1.5-3.6,2.8-7.6,3.2-11.6c0.3-2.6,0.9-8.5-1.8-10.2
		c-3.1-2-2.6,3.3-2.4,4.7c0.6,4.2-0.3,8.5-1.6,12.5c-1.4,4.4-3,8.9-4.9,13.1c-1.1,2.4-2.4,4.7-3.8,6.9c-1.5,2.3-3.4,4.1-5.1,6.2
		C206.3,69.4,206.5,69.7,206.8,69.6L206.8,69.6z"/>
</g>
<g>
	<g>
		<path class="st1" d="M221.5,21.7c-1.3,2.2-1,5.2-1,7.7c0.1,2.7-0.5,5.7-0.1,8.3c0.6,3.2,5.3,4.1,6.5,0.8c1.1-2.9,0.7-6.6,0.3-9.6
			c-0.3-2.7-1.1-6.1-3.4-7.8C223,20.5,222,20.9,221.5,21.7L221.5,21.7z"/>
	</g>
</g>
<g class="st2">
	<path class="st1" d="M224.3,25.2c-0.1,2.3-0.3,4.6-0.4,6.9c0,1.6-0.6,4.1,0.8,5.2c0.2,0.2,0.7,0.2,0.9,0c1.4-1.3,0.6-3.6,0.5-5.3
		c-0.2-2.3-0.5-4.6-0.8-6.9C225.2,24.6,224.4,24.6,224.3,25.2L224.3,25.2z"/>
</g>
<g>
	<g>
		<path class="st3" d="M195.1,90.9c-1.3,2.7-2.5,5.5-4.1,8.1c-3.4,5.6-7.3,11-11.3,16.3c-4.5,5.9-8.9,11.9-13.8,17.5
			c-2.2,2.6-4.5,5.1-6.9,7.4c-1.4,1.3-2.8,2.6-4.2,3.8c-1.7,1.5-9,8.9-10.2,10.9c-3.3,5.5-2.1,9.6,4.1,8c3.8-1,15.9-9.8,18.7-12.5
			c3.1-3.1,6.2-6.2,9-9.6c5.1-5.9,10-12.2,14.6-18.6c4.2-6,8.2-12.2,10.6-19.1c2.1-6,8.3-26.2,4.5-31.9c-0.6-1-6.3,11-6.9,11.8
			C199.2,82.8,196.4,88.2,195.1,90.9z"/>
	</g>
</g>
<path class="st4" d="M206.4,58.1c-6-5.7-20-7-28-6s-27,7-42,24c-5.8,6.5-18.8,33.3-20,42c-1.3,9.8-6,32,13,43c1.5,0.8,7.5,2.1,9,3
	c4,2.3,3,2.6,6,6c8,9,21.8,11.3,33.8,9.6c12-1.8,20.5-5,29.1-13.5c18.1-17.9,32.5-40.6,34.7-66c0.4-4.4-0.5-8.6-2.2-12.6
	c-1.9-4.3-7.6-11.7-11.5-14.5c-4.6-3.3-10.2-2.2-15-5C208.2,65.1,210.8,62.2,206.4,58.1z"/>
<g>
	<g>
		<path class="st5" d="M228.5,83.1c-1.5,1.1-1.1,3.2-1.2,4.8c-0.1,2.3-0.2,4.6-0.5,6.8c-0.5,4.3-1.8,8.5-3.2,12.6
			c-2.9,8.6-6.8,17-11.8,24.5c-5,7.6-11,14.5-18.1,20.3c-3.4,2.7-6.9,5.3-10.7,7.5c-4.4,2.6-12.8,4.9-9.8,11.8
			c1.5,3.4,5.3,4.9,8.7,3.6c3.6-1.3,7.2-3.6,10.4-5.6c3.3-2,6.4-4.3,9.4-6.7c6.2-5,11.8-10.8,16.7-17.1c9.6-12.5,16.7-28,17.4-43.9
			c0.2-4.2,0.1-8.7-1.3-12.7C233.9,87.2,231.3,81.1,228.5,83.1L228.5,83.1z"/>
	</g>
</g>
<path class="st6" d="M225,125.9c2.3-5.8,5-11.6,6.5-17.6c1.6-6,0.6-11.6-1.1-17.5c-2.3-7.8-11.1-10.1-15.5-4.5
	c-2.6,3.4,0.2,10-0.6,14.2c-1.5,7.5-2.3,13.4-5.1,17.8c-3.2,5-13,18.4-11.9,24.5c0.6,3.5,2.1,5,5.6,6c3.4,1,9.8-4.1,12.2-6.4
	C221.8,135.8,222.9,131.2,225,125.9z"/>
<path class="st7" d="M154.3,98.1c-36.3,42.8-15.6,61-13.6,62.5c2,1.5-17.9-11.1,18.6-57.5c19-24.1,53.2-36.2,51.2-37.7
	C208.5,63.9,174.1,74.7,154.3,98.1z"/>
<path class="st8" d="M212.3,69.7c0,0,22.1,2.4,22.1,21.5c0,57-49,82-66,82c-15.1,0-25-3-27.7-12.5c-5.3,2.5-39.6-13.8-15.3-62.5
	c15-30,31.3-40.2,54-44C203.4,50.1,212.3,69.7,212.3,69.7z"/>
<ellipse transform="matrix(0.5 -0.866 0.866 0.5 -12.999 206.2142)" class="st9" cx="172.1" cy="114.4" rx="36.2" ry="22.8"/>
<g>
	
		<ellipse transform="matrix(0.5303 -0.8478 0.8478 0.5303 -13.2507 199.4006)" class="st10" cx="173.3" cy="111.7" rx="28" ry="14.1"/>
	<path class="st11" d="M158.5,135.4c6.6,4.1,18.6-3.2,26.8-16.3s9.5-27.1,2.9-31.2C196.5,104.7,167.8,134.1,158.5,135.4z"/>
</g>
<g>
	<g>
		<path class="st3" d="M15.1,23.6c0.8,2.9,1.5,5.9,2.5,8.7c2.3,6.2,5.1,12.2,8,18.1c3.3,6.7,6.6,13.3,10.3,19.8
			c1.7,2.9,3.4,5.8,5.4,8.6c1.1,1.5,2.2,3.1,3.4,4.5c1.4,1.8,7.2,10.4,8,12.6c2.2,6,0.2,9.9-5.5,7.1c-3.6-1.7-13.8-12.5-16.1-15.7
			c-2.5-3.6-4.9-7.3-7.1-11.1c-3.9-6.8-7.6-13.8-10.8-21c-3.1-6.7-5.8-13.5-6.9-20.8C5.4,27.9,3.1,7,7.9,2c0.8-0.8,4.1,12,4.6,12.9
			C12.5,14.9,14.3,20.7,15.1,23.6z"/>
	</g>
</g>
<path class="st4" d="M10-10.7c6.9-4.5,21-3.2,28.6-0.7S63.9,0.5,75.5,20c4.5,7.5,12.3,36.3,11.8,45c-0.5,9.9-0.1,32.6-20.8,39.8
	c-1.6,0.6-7.8,0.7-9.4,1.3c-4.3,1.5-3.4,2-7,4.8c-9.5,7.4-23.6,7.1-35,3.1C3.6,110-4.1,105.3-11,95.3c-14.5-21-24.4-46-21.8-71.3
	c0.4-4.4,2.1-8.3,4.5-11.9c2.7-3.9,9.7-10.1,14-12.1C-9.3-2.5-6-3-0.7-4.9C5.1-6.9,5-7.5,10-10.7z"/>
<g>
	<g>
		<path class="st5" d="M-16.3,9.7c1.3,1.3,0.5,3.3,0.2,4.9c-0.3,2.2-0.6,4.6-0.7,6.8c-0.3,4.3,0.1,8.7,0.8,13c1.3,9,3.6,17.9,7,26.3
			C-5.5,69.2-0.9,77,5,84c2.8,3.3,5.8,6.5,9.1,9.3c3.9,3.3,11.7,7.2,7.4,13.4c-2.1,3.1-6.1,3.8-9.2,1.9c-3.3-2-6.4-4.9-9.2-7.5
			c-2.8-2.6-5.5-5.4-8-8.3C-10,86.8-14.5,80.1-18,73c-7.1-14.1-11.2-30.6-8.9-46.4c0.6-4.2,1.5-8.6,3.6-12.2
			C-22.4,12.7-18.7,7.3-16.3,9.7L-16.3,9.7z"/>
	</g>
</g>
<path class="st6" d="M-20.8,52.4c-1.2-6.1-2.7-12.3-3.2-18.5c-0.4-6.2,1.5-11.6,4.3-17C-16,9.7-6.9,9-3.7,15.4
	c1.9,3.8-2.1,9.8-2,14.1c0.1,7.7-0.2,13.6,1.7,18.4c2.2,5.5,9.3,20.5,7.2,26.3c-1.3,3.3-3,4.5-6.6,4.8c-3.5,0.3-8.9-5.8-10.8-8.6
	C-19.5,62.8-19.7,58-20.8,52.4z"/>
<path class="st8" d="M7.6,2.1c0,0-22.4-1.2-24.5,17.7c-6,54.3,32.1,87.5,48.8,90.7c14.9,2.8,19.2,0.6,23.7-8.3
	c4.7,3.5,38.6-4.8,25.5-52.3c-8.9-32.3-26.1-50.7-42-56.9C16.4-15.9,7.6,2.1,7.6,2.1z"/>
<ellipse transform="matrix(0.9111 -0.4123 0.4123 0.9111 -18.6302 17.1072)" class="st9" cx="30.3" cy="51.7" rx="18.8" ry="36.2"/>
</svg>
