<?xml version="1.0" encoding="utf-8"?>
<!-- Generator: Adobe Illustrator 25.2.1, SVG Export Plug-In . SVG Version: 6.00 Build 0)  -->
<svg version="1.1" id="Layer_3" xmlns="http://www.w3.org/2000/svg" xmlns:xlink="http://www.w3.org/1999/xlink" x="0px" y="0px"
	 viewBox="0 0 256.7 271.1" style="enable-background:new 0 0 256.7 271.1;" xml:space="preserve">
<style type="text/css">
	.st0{opacity:0.6;}
	.st1{clip-path:url(#SVGID_2_);}
	.st2{fill:#1E1E1E;}
	.st3{fill:#070707;}
	.st4{fill:url(#SVGID_3_);}
	.st5{fill:none;stroke:url(#SVGID_4_);stroke-width:1.3225;stroke-miterlimit:10;}
	.st6{fill:#939393;}
	.st7{fill:#FFFFFF;}
	.st8{clip-path:url(#SVGID_6_);}
	.st9{fill:url(#SVGID_7_);}
	.st10{fill:none;stroke:url(#SVGID_8_);stroke-width:1.3893;stroke-miterlimit:10;}
</style>
<path id="XMLID_3_" class="st0" d="M185.6,84.1c16.8,40.7,26.5,75.3,26.5,75.3s-17.5-31.4-34.3-72.1C161.1,46.6,151.3,12,151.3,12
	S168.8,43.4,185.6,84.1z"/>
<g>
	<defs>
		
			<rect id="SVGID_1_" x="177.2" y="14.9" transform="matrix(0.9241 -0.3822 0.3822 0.9241 -11.1351 85.6017)" width="65.3" height="111.9"/>
	</defs>
	<clipPath id="SVGID_2_">
		<use xlink:href="#SVGID_1_"  style="overflow:visible;"/>
	</clipPath>
	<g class="st1">
		<path class="st2" d="M201.6,46.5c-0.1,0.1-0.1,0.3-0.2,0.5c-0.6,1.8-0.6,4,0.3,6.1l-9.2,5.3l-9.2,5.2c-0.9-2.1-2.4-3.5-4-4
			c-0.1-0.1-0.3-0.1-0.4-0.1l0.9-31l16,13.2L201.6,46.5z"/>
		<path class="st2" d="M236.5,56.6l-7.9,17.5l-3.7,8.2c-0.1-0.1-0.3-0.2-0.4-0.3c-1.5-1.1-3.3-1.3-4.8-0.4l-5.3-12.4l-5.3-12.4l0,0
			c1.5-0.9,2.5-2.7,2.7-4.7c0-0.2,0-0.4,0-0.5L236.5,56.6z"/>
		<path class="st2" d="M222.3,94.7l-0.9,31l-12.1-9.9l-9.9-8.1c0.1-0.1,0.1-0.3,0.2-0.5c0.6-1.8,0.6-4-0.3-6.1l9.2-5.3l9.2-5.2
			c0.9,2.1,2.4,3.5,4,4C222,94.6,222.1,94.7,222.3,94.7z"/>
		<path class="st2" d="M192,97.4L192,97.4c-1.6,0.9-2.5,2.7-2.7,4.7c0,0.2,0,0.4,0,0.6l-24.7-5l7.6-17l3.9-8.8
			c0.1,0.1,0.3,0.2,0.4,0.3c1.5,1.1,3.3,1.3,4.8,0.4l5.3,12.4L192,97.4z"/>
		<path class="st2" d="M183.3,63.6c0.7,1.8,0.9,3.6,0.6,5.3c-0.4,1.6-1.2,3-2.5,3.8l5.3,12.4l5.3,12.4c1.3-0.7,2.8-0.7,4.1,0
			l1.5-6.9l1.5-6.8l0.3-1.1l-0.4-0.2c-0.3-0.2-0.5-0.3-0.8-0.6c-0.6-0.5-1.1-1.1-1.5-1.9l0,0c-0.1-0.2-0.1-0.3-0.2-0.5l0,0
			c-0.6-1.3-0.7-2.8-0.6-4.1c0-0.2,0.1-0.3,0.1-0.5c0-0.2,0.1-0.3,0.1-0.5c0.1-0.5,0.3-0.9,0.6-1.3c0.4-0.6,0.9-1.1,1.5-1.5
			l-5.7-13.3L183.3,63.6z M183.3,63.6c0.7,1.8,0.9,3.6,0.6,5.3c-0.4,1.6-1.2,3-2.5,3.8l5.3,12.4l5.3,12.4c1.3-0.7,2.8-0.7,4.1,0
			l1.5-6.9l1.5-6.8l0.3-1.1l-0.4-0.2c-0.3-0.2-0.5-0.3-0.8-0.6c-0.6-0.5-1.1-1.1-1.5-1.9l0,0c-0.1-0.2-0.1-0.3-0.2-0.5l0,0
			c-0.6-1.3-0.7-2.8-0.6-4.1c0-0.2,0.1-0.3,0.1-0.5c0-0.2,0.1-0.3,0.1-0.5c0.1-0.5,0.3-0.9,0.6-1.3c0.4-0.6,0.9-1.1,1.5-1.5
			l-5.7-13.3L183.3,63.6z M183.3,63.6c0.7,1.8,0.9,3.6,0.6,5.3c-0.4,1.6-1.2,3-2.5,3.8l5.3,12.4l5.3,12.4c1.3-0.7,2.8-0.7,4.1,0
			l1.5-6.9l1.5-6.8l0.3-1.1l-0.4-0.2c-0.3-0.2-0.5-0.3-0.8-0.6c-0.6-0.5-1.1-1.1-1.5-1.9l0,0c-0.1-0.2-0.1-0.3-0.2-0.5l0,0
			c-0.6-1.3-0.7-2.8-0.6-4.1c0-0.2,0.1-0.3,0.1-0.5c0-0.2,0.1-0.3,0.1-0.5c0.1-0.5,0.3-0.9,0.6-1.3c0.4-0.6,0.9-1.1,1.5-1.5
			l-5.7-13.3L183.3,63.6z M198.9,82.4c-0.3-0.2-0.5-0.3-0.8-0.6c-0.6-0.5-1.1-1.1-1.5-1.9l0,0c-0.1-0.2-0.1-0.3-0.2-0.5l0,0
			l-9.8,5.6l5.3,12.4c1.3-0.7,2.8-0.7,4.1,0l1.5-6.9l1.5-6.8l0.3-1.1L198.9,82.4z M198.9,82.4c-0.3-0.2-0.5-0.3-0.8-0.6
			c-0.6-0.5-1.1-1.1-1.5-1.9l0,0c-0.1-0.2-0.1-0.3-0.2-0.5l0,0l-9.8,5.6l5.3,12.4c1.3-0.7,2.8-0.7,4.1,0l1.5-6.9l1.5-6.8l0.3-1.1
			L198.9,82.4z M211.8,52.1c-0.2,2-1.1,3.8-2.7,4.7l0,0c-1.3,0.7-2.8,0.7-4.1,0c-1.3-0.7-2.5-1.9-3.3-3.7l0,0
			c-0.9-2.1-0.9-4.3-0.3-6.1l-19.6-13.7l-2.5,26.3c1.6,0.5,3.2,1.9,4,4c0.7,1.8,0.9,3.6,0.6,5.3c-0.4,1.6-1.2,3-2.5,3.8
			c-1.5,0.9-3.3,0.7-4.8-0.4l-8.4,23.4l21.2,6.5c0.2-2,1.1-3.8,2.7-4.7l0,0c1.3-0.7,2.8-0.7,4.1,0c1.3,0.7,2.5,1.9,3.3,3.7l0,0
			c0.9,2.1,0.9,4.3,0.3,6.1l19.7,13.7l2.5-26.3c-1.6-0.5-3.2-1.9-4-4c-0.7-1.8-0.9-3.6-0.6-5.3c0.4-1.6,1.2-3,2.5-3.8
			c1.5-0.9,3.3-0.7,4.8,0.4l8.4-23.4L211.8,52.1z M204.6,74.8c0.1,0.2,0.1,0.3,0.2,0.5c0.3,0.8,0.4,1.7,0.4,2.6c0,0.3,0,0.7-0.1,1
			c0,0.2,0,0.3-0.1,0.5c0,0.1-0.1,0.3-0.1,0.5c-0.1,0.1-0.1,0.3-0.2,0.4c-0.4,1-1,1.8-1.9,2.3c-0.9,0.5-1.9,0.6-2.8,0.3
			c-0.1-0.1-0.2-0.1-0.4-0.1l-0.4-0.2l-0.4-0.2c-0.3-0.2-0.5-0.3-0.8-0.6c-0.6-0.5-1.1-1.1-1.5-1.9l0,0c-0.1-0.2-0.1-0.3-0.2-0.5
			l0,0c-0.6-1.3-0.7-2.8-0.6-4.1c0-0.2,0.1-0.3,0.1-0.5c0-0.2,0.1-0.3,0.1-0.5c0.1-0.5,0.3-0.9,0.6-1.3c0.4-0.6,0.9-1.1,1.5-1.5
			c0.6-0.3,1.3-0.5,1.9-0.5c0.4,0,0.8,0.1,1.3,0.3l0.4,0.2l0.4,0.2C203.1,72.4,204,73.4,204.6,74.8L204.6,74.8z M198.9,82.4
			c-0.3-0.2-0.5-0.3-0.8-0.6c-0.6-0.5-1.1-1.1-1.5-1.9l0,0c-0.1-0.2-0.1-0.3-0.2-0.5l0,0l-9.8,5.6l5.3,12.4c1.3-0.7,2.8-0.7,4.1,0
			l1.5-6.9l1.5-6.8l0.3-1.1L198.9,82.4z M198.9,82.4c-0.3-0.2-0.5-0.3-0.8-0.6c-0.6-0.5-1.1-1.1-1.5-1.9l0,0
			c-0.1-0.2-0.1-0.3-0.2-0.5l0,0l-9.8,5.6l5.3,12.4c1.3-0.7,2.8-0.7,4.1,0l1.5-6.9l1.5-6.8l0.3-1.1L198.9,82.4z M198.9,82.4
			c-0.3-0.2-0.5-0.3-0.8-0.6c-0.6-0.5-1.1-1.1-1.5-1.9l0,0c-0.1-0.2-0.1-0.3-0.2-0.5l0,0l-9.8,5.6l5.3,12.4c1.3-0.7,2.8-0.7,4.1,0
			l1.5-6.9l1.5-6.8l0.3-1.1L198.9,82.4z M183.3,63.6c0.7,1.8,0.9,3.6,0.6,5.3c-0.4,1.6-1.2,3-2.5,3.8l5.3,12.4l5.3,12.4
			c1.3-0.7,2.8-0.7,4.1,0l1.5-6.9l1.5-6.8l0.3-1.1l-0.4-0.2c-0.3-0.2-0.5-0.3-0.8-0.6c-0.6-0.5-1.1-1.1-1.5-1.9l0,0
			c-0.1-0.2-0.1-0.3-0.2-0.5l0,0c-0.6-1.3-0.7-2.8-0.6-4.1c0-0.2,0.1-0.3,0.1-0.5c0-0.2,0.1-0.3,0.1-0.5c0.1-0.5,0.3-0.9,0.6-1.3
			c0.4-0.6,0.9-1.1,1.5-1.5l-5.7-13.3L183.3,63.6z M183.3,63.6c0.7,1.8,0.9,3.6,0.6,5.3c-0.4,1.6-1.2,3-2.5,3.8l5.3,12.4l5.3,12.4
			c1.3-0.7,2.8-0.7,4.1,0l1.5-6.9l1.5-6.8l0.3-1.1l-0.4-0.2c-0.3-0.2-0.5-0.3-0.8-0.6c-0.6-0.5-1.1-1.1-1.5-1.9l0,0
			c-0.1-0.2-0.1-0.3-0.2-0.5l0,0c-0.6-1.3-0.7-2.8-0.6-4.1c0-0.2,0.1-0.3,0.1-0.5c0-0.2,0.1-0.3,0.1-0.5c0.1-0.5,0.3-0.9,0.6-1.3
			c0.4-0.6,0.9-1.1,1.5-1.5l-5.7-13.3L183.3,63.6z M183.3,63.6c0.7,1.8,0.9,3.6,0.6,5.3c-0.4,1.6-1.2,3-2.5,3.8l5.3,12.4l5.3,12.4
			c1.3-0.7,2.8-0.7,4.1,0l1.5-6.9l1.5-6.8l0.3-1.1l-0.4-0.2c-0.3-0.2-0.5-0.3-0.8-0.6c-0.6-0.5-1.1-1.1-1.5-1.9l0,0
			c-0.1-0.2-0.1-0.3-0.2-0.5l0,0c-0.6-1.3-0.7-2.8-0.6-4.1c0-0.2,0.1-0.3,0.1-0.5c0-0.2,0.1-0.3,0.1-0.5c0.1-0.5,0.3-0.9,0.6-1.3
			c0.4-0.6,0.9-1.1,1.5-1.5l-5.7-13.3L183.3,63.6z"/>
		<path class="st3" d="M201.6,46.5c-0.1,0.1-0.1,0.3-0.2,0.5c-0.6,1.8-0.6,4,0.3,6.1l0,0c0.7,1.8,1.9,3,3.3,3.7l-1.5,6.9l-1.5,6.8
			l-0.3,1.1l-0.4-0.2c-0.4-0.2-0.9-0.2-1.3-0.3c-0.7,0-1.3,0.1-1.9,0.5l-5.7-13.3l-10.7-25l14,8.3L201.6,46.5z"/>
		<path class="st3" d="M232.9,58.6l-4.3,15.5l-3.7,8.2c-0.1-0.1-0.3-0.2-0.4-0.3c-1.5-1.1-3.3-1.3-4.8-0.4c-1.3,0.7-2.2,2.1-2.5,3.8
			l-5.7-2.8l-5.6-2.8l-0.9-0.4c0-0.2,0.1-0.3,0.1-0.5c0-0.3,0.1-0.7,0.1-1c0-0.8-0.1-1.7-0.4-2.6c-0.1-0.2-0.1-0.3-0.2-0.5l0,0
			l9.8-5.6L232.9,58.6z"/>
		<path class="st3" d="M219.3,120.9l-10-5.1l-9.9-8.1c0.1-0.1,0.1-0.3,0.2-0.5c0.6-1.8,0.6-4-0.3-6.1l0,0c-0.7-1.8-1.9-3-3.3-3.7
			l1.5-6.9l1.5-6.8l0.3-1.1l0.4,0.2c0.1,0.1,0.3,0.1,0.4,0.1c0.9,0.3,1.9,0.2,2.8-0.3l5.7,13.3L219.3,120.9z"/>
		<path class="st3" d="M196,74.9c0,0.2-0.1,0.3-0.1,0.5c-0.2,1.3,0,2.7,0.6,4.1l-9.8,5.6l-18.5,10.6l4-14.9l3.9-8.8
			c0.1,0.1,0.3,0.2,0.4,0.3c1.5,1.1,3.3,1.3,4.8,0.4c1.3-0.7,2.2-2.1,2.5-3.8l5.7,2.8l5.6,2.8L196,74.9z"/>
		<path class="st2" d="M209.2,69.2c-1.5-2.5-3.6-4.4-5.8-5.5c-0.3-0.1-0.6-0.3-0.9-0.4c-2.6-1-5.3-0.9-7.7,0.5
			c-2.4,1.4-4.1,3.8-5,6.8c-0.1,0.4-0.2,0.7-0.3,1.1c-0.6,2.7-0.5,5.6,0.3,8.6c0.2,0.8,0.5,1.7,0.9,2.5c1,2.4,2.5,4.4,4.1,5.9
			c0.9,0.8,1.8,1.4,2.8,1.9c1.6,0.8,3.3,1.2,4.9,1c1.3-0.1,2.5-0.4,3.7-1.1c1.2-0.7,2.2-1.6,3-2.7c1.1-1.5,1.9-3.3,2.3-5.2
			c0.2-1.2,0.4-2.4,0.4-3.6c0-2.5-0.5-5-1.5-7.4C210.1,70.7,209.7,69.9,209.2,69.2z M205.1,79.3c0,0.2-0.1,0.3-0.1,0.5
			c0,0.2-0.1,0.3-0.1,0.4c-0.4,1-1,1.8-1.9,2.3c-0.9,0.5-1.9,0.6-2.8,0.3c-0.1,0-0.2-0.1-0.4-0.1l-0.4-0.2l-0.4-0.2
			c-0.3-0.2-0.5-0.3-0.8-0.6c-0.6-0.5-1.1-1.1-1.5-1.9l0,0c-0.1-0.1-0.2-0.3-0.2-0.5l0,0c-0.6-1.3-0.7-2.8-0.5-4.1
			c0-0.2,0.1-0.3,0.1-0.5c0-0.2,0.1-0.3,0.1-0.5c0.1-0.5,0.3-0.9,0.6-1.3c0.4-0.6,0.9-1.1,1.5-1.5c0.6-0.3,1.3-0.5,1.9-0.5
			c0.4,0,0.8,0.1,1.3,0.3l0.4,0.2l0.4,0.2c1,0.6,1.9,1.6,2.5,3l0,0c0.1,0.2,0.1,0.3,0.2,0.5c0.3,0.8,0.4,1.7,0.4,2.5
			c0,0.3,0,0.7-0.1,1C205.1,79,205.1,79.2,205.1,79.3z"/>
		
			<linearGradient id="SVGID_3_" gradientUnits="userSpaceOnUse" x1="184.22" y1="188.4244" x2="192.4436" y2="196.823" gradientTransform="matrix(0.9403 -0.3403 0.3403 0.9403 -42.1315 -39.9577)">
			<stop  offset="0" style="stop-color:#FFFFFF"/>
			<stop  offset="1" style="stop-color:#252525"/>
		</linearGradient>
		<path class="st4" d="M202,70.5c-0.5-0.2-1-0.4-1.5-0.5c-0.9-0.1-1.9,0-2.7,0.5c-0.9,0.5-1.5,1.3-2,2.2c-0.3,0.5-0.5,1.1-0.6,1.7
			c-0.4,1.7-0.2,3.6,0.6,5.4l0,0.1c0.5,1.2,1.2,2.1,2,2.8c0.4,0.4,0.9,0.7,1.4,0.9c0.4,0.2,0.9,0.4,1.4,0.5c1,0.2,2,0,2.9-0.5
			c0.9-0.5,1.6-1.3,2.1-2.3c0.2-0.5,0.4-1,0.5-1.5c0.1-0.6,0.2-1.2,0.2-1.8c0-1.2-0.2-2.4-0.7-3.6l-0.1-0.1
			C204.6,72.5,203.4,71.2,202,70.5z M204.6,74.8c0.1,0.2,0.1,0.3,0.2,0.5c0.3,0.8,0.4,1.7,0.4,2.5c0,0.3,0,0.7-0.1,1
			c0,0.2-0.1,0.3-0.1,0.5c0,0.2-0.1,0.3-0.1,0.5c0,0.2-0.1,0.3-0.1,0.4c-0.4,1-1,1.8-1.9,2.3c-0.9,0.5-1.9,0.6-2.8,0.3
			c-0.1,0-0.2-0.1-0.4-0.1l-0.4-0.2l-0.4-0.2c-0.3-0.2-0.5-0.3-0.8-0.6c-0.6-0.5-1.1-1.1-1.5-1.9l0,0c-0.1-0.1-0.2-0.3-0.2-0.5l0,0
			c-0.6-1.3-0.7-2.8-0.5-4.1c0-0.2,0.1-0.3,0.1-0.5c0-0.2,0.1-0.3,0.1-0.5c0.1-0.5,0.3-0.9,0.6-1.3c0.4-0.6,0.9-1.1,1.5-1.5
			c0.6-0.3,1.3-0.5,1.9-0.5c0.4,0,0.8,0.1,1.3,0.3l0.4,0.2l0.4,0.2C203.1,72.4,204,73.4,204.6,74.8L204.6,74.8z"/>
		
			<linearGradient id="SVGID_4_" gradientUnits="userSpaceOnUse" x1="176.8197" y1="166.5955" x2="195.6676" y2="185.8445" gradientTransform="matrix(0.9511 -0.3088 0.3088 0.9511 -31.0123 -32.9972)">
			<stop  offset="0" style="stop-color:#FFFFFF"/>
			<stop  offset="1" style="stop-color:#252525"/>
		</linearGradient>
		
			<ellipse transform="matrix(0.9716 -0.2367 0.2367 0.9716 -12.5498 49.6519)" class="st5" cx="200.5" cy="77.1" rx="11.2" ry="14.6"/>
		<polygon class="st6" points="221.4,125.7 219.3,120.9 199.5,107.7 		"/>
		<polygon class="st6" points="236.5,56.6 232.9,58.6 225,82.3 		"/>
		<polygon class="st6" points="164.5,97.6 168.1,95.6 176.1,71.9 		"/>
		<polygon class="st6" points="179.7,28.4 181.8,33.3 201.6,46.5 		"/>
		<polygon class="st7" points="168.1,95.6 164.5,97.6 189.3,102.7 		"/>
		<polygon class="st7" points="219.3,120.9 221.4,125.7 222.3,94.7 		"/>
		<polygon class="st7" points="211.8,51.5 232.9,58.6 236.5,56.6 		"/>
		<polygon class="st7" points="179.7,28.4 181.8,33.3 178.8,59.5 		"/>
	</g>
</g>
<path id="XMLID_1_" class="st0" d="M118.6,231.1c55.7,13,100.2,26.5,100.2,26.5s-45.9-7.5-101.6-20.5
	c-55.7-13-100.2-26.5-100.2-26.5S62.8,218.1,118.6,231.1z"/>
<g>
	<defs>
		<polygon id="SVGID_5_" points="167.2,247.1 184.2,171.5 83,147.1 66.1,222.7 		"/>
	</defs>
	<clipPath id="SVGID_6_">
		<use xlink:href="#SVGID_5_"  style="overflow:visible;"/>
	</clipPath>
	<g class="st8">
		<path class="st2" d="M102.4,189.6c0.1,0.2,0.2,0.3,0.2,0.5c0.9,1.8,2.6,3.2,4.7,3.6l-1.5,12.5l-1.5,12.5c-2.1-0.5-4,0.1-5.3,1.4
			c-0.1,0.1-0.2,0.2-0.3,0.4l-22.3-20.9l19.1-7.3L102.4,189.6z"/>
		<path class="st2" d="M130.2,161.6l8.3,19.1l3.9,8.9c-0.2,0-0.3,0.1-0.5,0.2c-1.7,0.8-2.9,2.4-3.1,4.5l-12.3-2.7l-12.2-2.8l0,0
			c0.3-2.1-0.5-4.2-1.9-5.6c-0.1-0.1-0.2-0.3-0.4-0.4L130.2,161.6z"/>
		<path class="st2" d="M150,200.3l22.3,20.9l-14.4,5.5l-11.7,4.5c-0.1-0.2-0.1-0.3-0.2-0.5c-0.9-1.8-2.6-3.2-4.7-3.7l1.5-12.5
			l1.5-12.5c2,0.5,4-0.1,5.3-1.4C149.7,200.5,149.9,200.4,150,200.3z"/>
		<path class="st2" d="M134.2,231.9L134.2,231.9c-0.3,2.1,0.5,4.2,1.9,5.7c0.1,0.1,0.2,0.3,0.4,0.4l-18.2,21.1l-8-18.5l-4.1-9.5
			c0.2,0,0.3-0.1,0.5-0.2c1.7-0.8,2.9-2.4,3.1-4.5l12.2,2.8L134.2,231.9z"/>
		<path class="st2" d="M104.3,218.7c1.7,0.4,3.2,1.4,4.2,2.8c1,1.4,1.5,3.1,1.3,4.9l12.2,2.8l12.3,2.7c0.2-1.8,1.1-3.2,2.4-4.1
			l-4.2-5.9l-4.1-5.9l-0.7-1l-0.4,0.3c-0.3,0.2-0.6,0.3-0.9,0.4c-0.7,0.3-1.5,0.3-2.3,0.2l0,0c-0.1,0-0.3-0.1-0.5-0.1l0,0
			c-1.3-0.3-2.5-1.1-3.3-2.1c-0.1-0.1-0.2-0.3-0.3-0.4c-0.1-0.1-0.2-0.3-0.3-0.4c-0.3-0.4-0.5-0.9-0.6-1.4c-0.2-0.8-0.3-1.6-0.2-2.4
			l-13.1-2.9L104.3,218.7z M104.3,218.7c1.7,0.4,3.2,1.4,4.2,2.8c1,1.4,1.5,3.1,1.3,4.9l12.2,2.8l12.3,2.7c0.2-1.8,1.1-3.2,2.4-4.1
			l-4.2-5.9l-4.1-5.9l-0.7-1l-0.4,0.3c-0.3,0.2-0.6,0.3-0.9,0.4c-0.7,0.3-1.5,0.3-2.3,0.2l0,0c-0.1,0-0.3-0.1-0.5-0.1l0,0
			c-1.3-0.3-2.5-1.1-3.3-2.1c-0.1-0.1-0.2-0.3-0.3-0.4c-0.1-0.1-0.2-0.3-0.3-0.4c-0.3-0.4-0.5-0.9-0.6-1.4c-0.2-0.8-0.3-1.6-0.2-2.4
			l-13.1-2.9L104.3,218.7z M104.3,218.7c1.7,0.4,3.2,1.4,4.2,2.8c1,1.4,1.5,3.1,1.3,4.9l12.2,2.8l12.3,2.7c0.2-1.8,1.1-3.2,2.4-4.1
			l-4.2-5.9l-4.1-5.9l-0.7-1l-0.4,0.3c-0.3,0.2-0.6,0.3-0.9,0.4c-0.7,0.3-1.5,0.3-2.3,0.2l0,0c-0.1,0-0.3-0.1-0.5-0.1l0,0
			c-1.3-0.3-2.5-1.1-3.3-2.1c-0.1-0.1-0.2-0.3-0.3-0.4c-0.1-0.1-0.2-0.3-0.3-0.4c-0.3-0.4-0.5-0.9-0.6-1.4c-0.2-0.8-0.3-1.6-0.2-2.4
			l-13.1-2.9L104.3,218.7z M127.3,215.3c-0.3,0.2-0.6,0.3-0.9,0.4c-0.7,0.3-1.5,0.3-2.3,0.2l0,0c-0.1,0-0.3-0.1-0.5-0.1l0,0
			l-1.6,13.3l12.3,2.7c0.2-1.8,1.1-3.2,2.4-4.1l-4.2-5.9l-4.1-5.9l-0.7-1L127.3,215.3z M127.3,215.3c-0.3,0.2-0.6,0.3-0.9,0.4
			c-0.7,0.3-1.5,0.3-2.3,0.2l0,0c-0.1,0-0.3-0.1-0.5-0.1l0,0l-1.6,13.3l12.3,2.7c0.2-1.8,1.1-3.2,2.4-4.1l-4.2-5.9l-4.1-5.9l-0.7-1
			L127.3,215.3z M112.4,183.1c1.4,1.5,2.1,3.6,1.9,5.6l0,0c-0.2,1.8-1.1,3.2-2.4,4.1c-1.3,0.9-2.9,1.2-4.6,0.8l0,0
			c-2-0.5-3.7-1.9-4.7-3.6l-21.6,10.6l17.9,19.4c1.3-1.3,3.3-1.9,5.3-1.4c1.7,0.4,3.2,1.4,4.2,2.8c1,1.4,1.5,3.1,1.3,4.9
			c-0.3,2.1-1.5,3.7-3.1,4.5l12.3,23.3l17.2-16.7c-1.4-1.5-2.1-3.6-1.9-5.6l0,0c0.2-1.8,1.1-3.2,2.4-4.1c1.3-0.9,2.9-1.2,4.6-0.8
			l0,0c2,0.5,3.7,1.9,4.7,3.7l21.6-10.6l-17.9-19.4c-1.3,1.3-3.3,1.9-5.3,1.4c-1.7-0.4-3.2-1.4-4.2-2.8c-1-1.4-1.5-3.1-1.3-4.9
			c0.3-2.1,1.5-3.7,3.1-4.5l-12.3-23.3L112.4,183.1z M125,204.9c0.2,0,0.3,0.1,0.5,0.1c0.8,0.3,1.5,0.7,2.1,1.2
			c0.2,0.2,0.5,0.5,0.7,0.7c0.1,0.1,0.2,0.3,0.3,0.4c0.1,0.1,0.2,0.3,0.3,0.4c0.1,0.1,0.2,0.3,0.2,0.4c0.5,1,0.7,2.2,0.6,3.4
			c-0.1,1.2-0.7,2.2-1.4,3c-0.1,0.1-0.2,0.2-0.3,0.3l-0.4,0.3l-0.4,0.3c-0.3,0.2-0.6,0.3-0.9,0.4c-0.7,0.3-1.5,0.3-2.3,0.2l0,0
			c-0.1,0-0.3-0.1-0.5-0.1l0,0c-1.3-0.3-2.5-1.1-3.3-2.1c-0.1-0.1-0.2-0.3-0.3-0.4c-0.1-0.1-0.2-0.3-0.3-0.4
			c-0.3-0.4-0.5-0.9-0.6-1.4c-0.2-0.8-0.3-1.6-0.2-2.4c0.1-0.8,0.4-1.6,0.8-2.2c0.2-0.4,0.6-0.8,0.9-1.1l0.4-0.2l0.4-0.3
			C122.4,204.8,123.6,204.6,125,204.9L125,204.9z M127.3,215.3c-0.3,0.2-0.6,0.3-0.9,0.4c-0.7,0.3-1.5,0.3-2.3,0.2l0,0
			c-0.1,0-0.3-0.1-0.5-0.1l0,0l-1.6,13.3l12.3,2.7c0.2-1.8,1.1-3.2,2.4-4.1l-4.2-5.9l-4.1-5.9l-0.7-1L127.3,215.3z M127.3,215.3
			c-0.3,0.2-0.6,0.3-0.9,0.4c-0.7,0.3-1.5,0.3-2.3,0.2l0,0c-0.1,0-0.3-0.1-0.5-0.1l0,0l-1.6,13.3l12.3,2.7c0.2-1.8,1.1-3.2,2.4-4.1
			l-4.2-5.9l-4.1-5.9l-0.7-1L127.3,215.3z M127.3,215.3c-0.3,0.2-0.6,0.3-0.9,0.4c-0.7,0.3-1.5,0.3-2.3,0.2l0,0
			c-0.1,0-0.3-0.1-0.5-0.1l0,0l-1.6,13.3l12.3,2.7c0.2-1.8,1.1-3.2,2.4-4.1l-4.2-5.9l-4.1-5.9l-0.7-1L127.3,215.3z M104.3,218.7
			c1.7,0.4,3.2,1.4,4.2,2.8c1,1.4,1.5,3.1,1.3,4.9l12.2,2.8l12.3,2.7c0.2-1.8,1.1-3.2,2.4-4.1l-4.2-5.9l-4.1-5.9l-0.7-1l-0.4,0.3
			c-0.3,0.2-0.6,0.3-0.9,0.4c-0.7,0.3-1.5,0.3-2.3,0.2l0,0c-0.1,0-0.3-0.1-0.5-0.1l0,0c-1.3-0.3-2.5-1.1-3.3-2.1
			c-0.1-0.1-0.2-0.3-0.3-0.4c-0.1-0.1-0.2-0.3-0.3-0.4c-0.3-0.4-0.5-0.9-0.6-1.4c-0.2-0.8-0.3-1.6-0.2-2.4l-13.1-2.9L104.3,218.7z
			 M104.3,218.7c1.7,0.4,3.2,1.4,4.2,2.8c1,1.4,1.5,3.1,1.3,4.9l12.2,2.8l12.3,2.7c0.2-1.8,1.1-3.2,2.4-4.1l-4.2-5.9l-4.1-5.9
			l-0.7-1l-0.4,0.3c-0.3,0.2-0.6,0.3-0.9,0.4c-0.7,0.3-1.5,0.3-2.3,0.2l0,0c-0.1,0-0.3-0.1-0.5-0.1l0,0c-1.3-0.3-2.5-1.1-3.3-2.1
			c-0.1-0.1-0.2-0.3-0.3-0.4c-0.1-0.1-0.2-0.3-0.3-0.4c-0.3-0.4-0.5-0.9-0.6-1.4c-0.2-0.8-0.3-1.6-0.2-2.4l-13.1-2.9L104.3,218.7z
			 M104.3,218.7c1.7,0.4,3.2,1.4,4.2,2.8c1,1.4,1.5,3.1,1.3,4.9l12.2,2.8l12.3,2.7c0.2-1.8,1.1-3.2,2.4-4.1l-4.2-5.9l-4.1-5.9
			l-0.7-1l-0.4,0.3c-0.3,0.2-0.6,0.3-0.9,0.4c-0.7,0.3-1.5,0.3-2.3,0.2l0,0c-0.1,0-0.3-0.1-0.5-0.1l0,0c-1.3-0.3-2.5-1.1-3.3-2.1
			c-0.1-0.1-0.2-0.3-0.3-0.4c-0.1-0.1-0.2-0.3-0.3-0.4c-0.3-0.4-0.5-0.9-0.6-1.4c-0.2-0.8-0.3-1.6-0.2-2.4l-13.1-2.9L104.3,218.7z"
			/>
		<path class="st3" d="M102.4,189.6c0.1,0.2,0.2,0.3,0.2,0.5c0.9,1.8,2.6,3.2,4.7,3.6l0,0c1.7,0.4,3.4,0,4.6-0.8l4.2,5.9l4.1,5.9
			l0.7,1l-0.4,0.2c-0.4,0.3-0.7,0.7-0.9,1.1c-0.4,0.6-0.7,1.4-0.8,2.2l-13.1-2.9l-24.7-5.5l14.3-8.4L102.4,189.6z"/>
		<path class="st3" d="M129.6,166.5l8.9,14.2l3.9,8.9c-0.2,0-0.3,0.1-0.5,0.2c-1.7,0.8-2.9,2.4-3.1,4.5c-0.2,1.8,0.3,3.5,1.3,4.9
			l-5.4,3.8l-5.3,3.7l-0.8,0.6c-0.1-0.1-0.2-0.3-0.3-0.4c-0.2-0.3-0.5-0.5-0.7-0.7c-0.6-0.6-1.3-1-2.1-1.2c-0.2,0-0.3-0.1-0.5-0.1
			l0,0l1.6-13.3L129.6,166.5z"/>
		<path class="st3" d="M167.5,220.1l-9.6,6.6l-11.7,4.5c-0.1-0.2-0.1-0.3-0.2-0.5c-0.9-1.8-2.6-3.2-4.7-3.7l0,0
			c-1.7-0.4-3.4,0-4.6,0.8l-4.2-5.9l-4.1-5.9l-0.7-1l0.4-0.3c0.1-0.1,0.2-0.2,0.3-0.3c0.7-0.8,1.3-1.8,1.4-3l13.1,2.9L167.5,220.1z"
			/>
		<path class="st3" d="M120,213.4c0.1,0.1,0.2,0.3,0.3,0.4c0.8,1,2,1.8,3.3,2.1l-1.6,13.3l-3,25.1l-8.6-13.6l-4.1-9.5
			c0.2,0,0.3-0.1,0.5-0.2c1.7-0.8,2.9-2.4,3.1-4.5c0.2-1.8-0.3-3.5-1.3-4.9l5.4-3.8l5.3-3.7L120,213.4z"/>
		<path class="st2" d="M123.6,196.7c-2.8-0.1-5.3,0.7-7.4,2.1c-0.3,0.2-0.6,0.4-0.8,0.6c-2.2,1.9-3.8,4.6-4.2,7.9
			c-0.4,3.3,0.4,6.6,2.1,9.3c0.2,0.3,0.4,0.7,0.6,1c1.6,2.3,3.9,4.1,6.5,5.2c0.7,0.3,1.5,0.6,2.4,0.8c2.4,0.5,4.7,0.4,6.8-0.3
			c1.1-0.4,2.1-0.9,3-1.5c1.5-1.1,2.8-2.5,3.7-4.2c0.7-1.3,1.2-2.8,1.3-4.4c0.2-1.6,0.1-3.2-0.2-4.7c-0.4-2-1.3-4-2.5-5.7
			c-0.7-1-1.5-1.9-2.4-2.7c-1.8-1.6-4-2.7-6.4-3.3C125.1,196.8,124.3,196.7,123.6,196.7z M128.6,207.3c0.1,0.1,0.2,0.3,0.3,0.4
			c0.1,0.1,0.2,0.3,0.2,0.4c0.5,1,0.7,2.2,0.6,3.4c-0.1,1.2-0.7,2.2-1.4,3c-0.1,0.1-0.2,0.2-0.3,0.3l-0.4,0.3l-0.4,0.3
			c-0.3,0.2-0.6,0.3-0.9,0.4c-0.7,0.2-1.5,0.3-2.3,0.2l0,0c-0.2,0-0.3,0-0.5-0.1l0,0c-1.3-0.3-2.5-1.1-3.3-2.1
			c-0.1-0.1-0.2-0.3-0.3-0.4c-0.1-0.1-0.2-0.3-0.3-0.4c-0.3-0.4-0.5-0.9-0.6-1.4c-0.2-0.8-0.3-1.6-0.2-2.4c0.1-0.8,0.4-1.6,0.8-2.2
			c0.3-0.4,0.6-0.8,0.9-1.1l0.4-0.3l0.4-0.3c1-0.6,2.3-0.8,3.6-0.5l0,0c0.2,0,0.3,0.1,0.5,0.1c0.8,0.3,1.5,0.7,2.1,1.2
			c0.2,0.2,0.5,0.5,0.7,0.7C128.4,207.1,128.5,207.2,128.6,207.3z"/>
		
			<linearGradient id="SVGID_7_" gradientUnits="userSpaceOnUse" x1="75.9644" y1="334.6548" x2="84.2625" y2="343.1294" gradientTransform="matrix(0.2693 -0.9631 0.9631 0.2693 -223.678 196.2723)">
			<stop  offset="0" style="stop-color:#FFFFFF"/>
			<stop  offset="1" style="stop-color:#252525"/>
		</linearGradient>
		<path class="st9" d="M120.3,204.7c-0.5,0.3-0.9,0.7-1.3,1.2c-0.6,0.8-1.1,1.9-1.2,3c-0.1,1.2,0,2.3,0.4,3.4
			c0.2,0.6,0.5,1.2,0.9,1.7c1,1.5,2.6,2.5,4.3,3l0.1,0c1.2,0.2,2.3,0.2,3.3-0.2c0.5-0.2,1-0.4,1.5-0.7c0.4-0.3,0.8-0.6,1.1-1
			c0.7-0.9,1.2-1.9,1.3-3.2c0.1-1.2,0-2.5-0.5-3.6c-0.2-0.5-0.5-1-0.8-1.5c-0.3-0.5-0.8-0.9-1.2-1.3c-0.9-0.8-1.9-1.3-3-1.6l-0.1,0
			C123.3,203.4,121.6,203.7,120.3,204.7z M125,204.9c0.2,0,0.3,0.1,0.5,0.1c0.8,0.3,1.5,0.7,2.1,1.2c0.2,0.2,0.5,0.5,0.7,0.7
			c0.1,0.1,0.2,0.3,0.3,0.4c0.1,0.1,0.2,0.3,0.3,0.4c0.1,0.1,0.2,0.3,0.2,0.4c0.5,1,0.7,2.2,0.6,3.4c-0.1,1.2-0.7,2.2-1.4,3
			c-0.1,0.1-0.2,0.2-0.3,0.3l-0.4,0.3l-0.4,0.3c-0.3,0.2-0.6,0.3-0.9,0.4c-0.7,0.2-1.5,0.3-2.3,0.2l0,0c-0.2,0-0.3,0-0.5-0.1l0,0
			c-1.3-0.3-2.5-1.1-3.3-2.1c-0.1-0.1-0.2-0.3-0.3-0.4c-0.1-0.1-0.2-0.3-0.3-0.4c-0.3-0.4-0.5-0.9-0.6-1.4c-0.2-0.8-0.3-1.6-0.2-2.4
			c0.1-0.8,0.4-1.6,0.8-2.2c0.3-0.4,0.6-0.8,0.9-1.1l0.4-0.3l0.4-0.3C122.4,204.8,123.6,204.6,125,204.9L125,204.9z"/>
		
			<linearGradient id="SVGID_8_" gradientUnits="userSpaceOnUse" x1="73.4925" y1="316.3592" x2="92.4064" y2="335.6756" gradientTransform="matrix(0.3012 -0.9535 0.9535 0.3012 -211.5531 191.2651)">
			<stop  offset="0" style="stop-color:#FFFFFF"/>
			<stop  offset="1" style="stop-color:#252525"/>
		</linearGradient>
		
			<ellipse transform="matrix(0.8118 -0.584 0.584 0.8118 -99.4508 112.1864)" class="st10" cx="124.3" cy="210.4" rx="12.8" ry="14.1"/>
		<polygon class="st6" points="172.3,221.1 167.5,220.1 146.2,231.1 		"/>
		<polygon class="st6" points="130.2,161.6 129.6,166.5 142.4,189.6 		"/>
		<polygon class="st6" points="118.3,259.1 118.9,254.2 106.2,231.1 		"/>
		<polygon class="st6" points="76.3,199.6 81.1,200.6 102.4,189.6 		"/>
		<polygon class="st7" points="118.9,254.2 118.3,259.1 136.5,238 		"/>
		<polygon class="st7" points="167.5,220.1 172.3,221.1 150,200.3 		"/>
		<polygon class="st7" points="112.1,182.8 129.6,166.5 130.2,161.6 		"/>
		<polygon class="st7" points="76.3,199.6 81.1,200.6 98.6,220.4 		"/>
	</g>
</g>
</svg>
