<?xml version="1.0" encoding="utf-8"?>
<!-- Generator: Adobe Illustrator 25.2.1, SVG Export Plug-In . SVG Version: 6.00 Build 0)  -->
<svg version="1.1" id="Layer_2_1_" xmlns="http://www.w3.org/2000/svg" xmlns:xlink="http://www.w3.org/1999/xlink" x="0px" y="0px"
	 viewBox="0 0 470.2 423.1" style="enable-background:new 0 0 470.2 423.1;" xml:space="preserve">
<style type="text/css">
	.st0{clip-path:url(#SVGID_2_);}
	.st1{fill:url(#SVGID_3_);}
	.st2{clip-path:url(#SVGID_5_);}
	.st3{fill:#5CD050;}
	.st4{clip-path:url(#SVGID_7_);}
	.st5{fill:url(#SVGID_8_);}
	.st6{fill:url(#SVGID_9_);}
	.st7{fill:url(#SVGID_10_);}
	.st8{clip-path:url(#SVGID_12_);}
	.st9{fill:url(#SVGID_13_);}
	.st10{clip-path:url(#SVGID_15_);}
	.st11{opacity:0.43;fill:#90A4C8;enable-background:new    ;}
	.st12{opacity:0.43;fill:#92A5C8;enable-background:new    ;}
	.st13{clip-path:url(#SVGID_17_);}
	.st14{fill:#92A5C8;}
	.st15{fill:#C1CFDA;}
	.st16{fill:#010101;}
	.st17{fill:#E5F1E2;}
	.st18{fill:#FFFFFF;}
	.st19{fill:#90A4C8;}
	.st20{fill:#E2EFDF;}
	.st21{clip-path:url(#SVGID_19_);}
	.st22{fill:#EEB195;}
	.st23{fill:#36090A;}
	.st24{fill:#C59B78;}
	.st25{clip-path:url(#SVGID_21_);}
	.st26{clip-path:url(#SVGID_23_);}
	.st27{clip-path:url(#SVGID_25_);}
	.st28{fill:#3B0D0D;}
	.st29{clip-path:url(#SVGID_27_);}
	.st30{clip-path:url(#SVGID_29_);}
	.st31{opacity:0.8;clip-path:url(#SVGID_31_);}
	.st32{fill:#222B3A;}
	.st33{opacity:0.8;clip-path:url(#SVGID_33_);}
	.st34{opacity:0.8;clip-path:url(#SVGID_35_);}
	.st35{opacity:0.8;clip-path:url(#SVGID_37_);}
	.st36{clip-path:url(#SVGID_39_);fill:#222B3A;}
	.st37{clip-path:url(#SVGID_41_);fill:#222B3A;}
	.st38{clip-path:url(#SVGID_43_);}
	.st39{opacity:0.8;fill:#222B3A;enable-background:new    ;}
</style>
<g>
	<g>
		<defs>
			<rect id="SVGID_1_" y="-2.5" width="470.2" height="425.6"/>
		</defs>
		<clipPath id="SVGID_2_">
			<use xlink:href="#SVGID_1_"  style="overflow:visible;"/>
		</clipPath>
		<g id="body_base" class="st0">
			
				<linearGradient id="SVGID_3_" gradientUnits="userSpaceOnUse" x1="314.9165" y1="-195.1104" x2="103.9548" y2="-666.6332" gradientTransform="matrix(1 0 0 1 0 650)">
				<stop  offset="0" style="stop-color:#319929"/>
				<stop  offset="1" style="stop-color:#61B93A"/>
			</linearGradient>
			<path class="st1" d="M67.6,31c0,0-5.5-12.4-13.9-11.4s-13.4,2.5-13.4,2.5s-4.5,7.9-5,13.9s-3.5,22.3,16.1,26.8s33.5,2,59.8,1
				s82.3-4,131.4,13.4s92.3,49.1,124.5,129c32.2,79.8,31.7,133.4-7.9,205.3c-39.7,71.9-74.8,79.7-125,80.3
				c-39.7,0.5-61.5-12.9-70.4-19.8c0,0-11.4-8.9-9.9-12.9c1.5-4,16.4,0,25.8-1.5c9.4-1.5,13.9-4,13.9-4s8.3-19.5,1.5-46.6
				c-11.9-47.6-23-66.3-64.5-112.1C87.5,247.3,67.1,222,67.1,222s16.4-4.5,28.8-10.9s24.8-19.3,24.8-19.3s-13.9,5.9-31.3,9.4
				s-29.8,1-29.8,1l-19.8-44.7c0,0,12.9,1,25.3-1.5s20.8-7.9,20.8-7.9s-27.8-0.5-45.1-10.9C23.4,126.8,10.5,98.5,13,68.3
				s13.4-61,32.7-62.5C65.1,4.2,74.5,13.1,67.6,31z"/>
		</g>
	</g>
	<g>
		<defs>
			<rect id="SVGID_4_" y="-2.5" width="470.2" height="425.6"/>
		</defs>
		<clipPath id="SVGID_5_">
			<use xlink:href="#SVGID_4_"  style="overflow:visible;"/>
		</clipPath>
		<g id="fold" class="st2">
			<path class="st3" d="M53.7,19.6c8.4-1,13.9,11.4,13.9,11.4c6.6-17-1.6-25.8-19-25.4l-8.3,16.5C40.3,22.1,45.3,20.6,53.7,19.6z"/>
		</g>
	</g>
	<g>
		<defs>
			<rect id="SVGID_6_" y="-2.5" width="470.2" height="425.6"/>
		</defs>
		<clipPath id="SVGID_7_">
			<use xlink:href="#SVGID_6_"  style="overflow:visible;"/>
		</clipPath>
		<g id="body_x5F_shadow" class="st4">
			
				<linearGradient id="SVGID_8_" gradientUnits="userSpaceOnUse" x1="12.6895" y1="-573.2" x2="62.6465" y2="-573.2" gradientTransform="matrix(1 0 0 1 0 650)">
				<stop  offset="0.1952" style="stop-color:#1B5916"/>
				<stop  offset="1" style="stop-color:#50AE37"/>
			</linearGradient>
			<path class="st5" d="M40.8,137.1c6.5,3.9,14.5,6.4,21.9,8c-3.1-2.6-7.2-5.8-12.1-8.5c-10.6-5.9-29.8-17.9-31.1-60.8
				c-0.8-27.4,9.8-52.6,17.7-67.3c-14,8.4-22.1,34.2-24.2,59.7C10.5,98.4,23.4,126.7,40.8,137.1z"/>
			
				<linearGradient id="SVGID_9_" gradientUnits="userSpaceOnUse" x1="39.8" y1="-469.75" x2="70.6" y2="-469.75" gradientTransform="matrix(1 0 0 1 0 650)">
				<stop  offset="0.1952" style="stop-color:#1B5916"/>
				<stop  offset="1" style="stop-color:#50AE37"/>
			</linearGradient>
			<path class="st6" d="M70.6,203l-25.2-45.3c-3.4,0-5.6-0.2-5.6-0.2l19.8,44.6C59.6,202.1,63.8,202.9,70.6,203z"/>
			
				<linearGradient id="SVGID_10_" gradientUnits="userSpaceOnUse" x1="248.77" y1="-221.0398" x2="-59.4063" y2="-418.7752" gradientTransform="matrix(1 0 0 1 0 650)">
				<stop  offset="0.1952" style="stop-color:#1B5916"/>
				<stop  offset="1" style="stop-color:#50AE37"/>
			</linearGradient>
			<path class="st7" d="M168.3,328.4c-17.2-24.5-42.3-48.3-61.5-68.1c-14.7-15.2-28.3-32.8-33.8-40.1c-3.6,1.1-5.9,1.8-5.9,1.8
				s20.3,25.3,63.5,72.9c41.5,45.8,52.6,64.5,64.5,112.1c6.8,27.1-1.5,46.6-1.5,46.6s-4.5,2.5-13.9,4s-24.3-2.5-25.8,1.5
				c-0.7,1.9,1.5,4.9,4.1,7.6c13.2-0.8,32.5-2.2,36.8-3.9c6.6-2.6,9.9-7.3,7.3-46.3C199.3,377.4,185.5,352.9,168.3,328.4z"/>
		</g>
	</g>
	<g>
		<defs>
			<rect id="SVGID_11_" y="-2.5" width="470.2" height="425.6"/>
		</defs>
		<clipPath id="SVGID_12_">
			<use xlink:href="#SVGID_11_"  style="overflow:visible;"/>
		</clipPath>
		<g id="body_x5F_light" class="st8">
			
				<linearGradient id="SVGID_13_" gradientUnits="userSpaceOnUse" x1="426.7556" y1="-58.3717" x2="178.2635" y2="-579.1631" gradientTransform="matrix(1 0 0 1 0 650)">
				<stop  offset="0" style="stop-color:#52B435"/>
				<stop  offset="1" style="stop-color:#9BDF4F"/>
			</linearGradient>
			<path class="st9" d="M242.7,77.1c-49.1-17.4-105.2-14.4-131.4-13.4c-26.3,1-40.2,3.5-59.8-1c-1-0.2-1.9-0.5-2.7-0.8
				c5.5,5.8,14.8,14.2,28.8,21.6c24.3,12.9,76.4,36.7,118.5,60.5c42.2,23.8,59,45.6,79.4,91.8c20.3,46.1,31.7,74.9,35.7,105.6
				c4,30.8,2.5,47.6-2,64.5s-16.9,51.6-31.7,68.9c-5.3,6.2-10.1,11.2-14,15.1c35.6-4.7,64.3-21.4,95.8-78.6
				c39.7-71.9,40.2-125.5,7.9-205.3C334.9,126.2,291.8,94.5,242.7,77.1z"/>
		</g>
	</g>
	<g>
		<defs>
			<rect id="SVGID_14_" y="-2.5" width="470.2" height="425.6"/>
		</defs>
		<clipPath id="SVGID_15_">
			<use xlink:href="#SVGID_14_"  style="overflow:visible;"/>
		</clipPath>
		<g id="eye_shadow" class="st10">
			<circle class="st11" cx="322.8" cy="236" r="41.2"/>
			<circle class="st12" cx="188.6" cy="252.6" r="53.1"/>
		</g>
	</g>
	<g>
		<defs>
			<rect id="SVGID_16_" y="-2.5" width="470.2" height="425.6"/>
		</defs>
		<clipPath id="SVGID_17_">
			<use xlink:href="#SVGID_16_"  style="overflow:visible;"/>
		</clipPath>
		<g id="eye_base" class="st13">
			<g>
				<ellipse class="st14" cx="192.8" cy="248.4" rx="48.9" ry="48.9"/>
				<circle class="st15" cx="194.8" cy="246.5" r="46.3"/>
				<circle class="st16" cx="194.6" cy="244.4" r="36.9"/>
				<ellipse class="st17" cx="194.4" cy="245.4" rx="36.1" ry="35.9"/>
				<path class="st18" d="M230.5,245.4c0-19.8-16.2-35.9-36.1-35.9c-7.6,0-14.7,2.4-20.5,6.4c-6.2,6.5-9.9,15.3-9.9,24.9
					c0,20.3,16.7,36.7,37.4,36.7c4.8,0,9.3-0.9,13.5-2.5C224.3,268.5,230.5,257.7,230.5,245.4z"/>
				<circle class="st19" cx="326.5" cy="232.4" r="37.6"/>
				<circle class="st15" cx="328.1" cy="232.2" r="35.8"/>
				<ellipse cx="328.3" cy="230.1" rx="28.4" ry="28"/>
				<ellipse class="st20" cx="328" cy="231.3" rx="27.3" ry="26.9"/>
				<path class="st18" d="M328,204.4c-4.4,0-8.5,1-12.1,2.8c-4.9,4.9-7.9,11.6-7.9,19c0,14.9,12.2,26.9,27.3,26.9
					c4.4,0,8.5-1,12.1-2.8c4.9-4.9,7.9-11.6,7.9-19C355.3,216.4,343.1,204.4,328,204.4z"/>
			</g>
		</g>
	</g>
	<g>
		<defs>
			<rect id="SVGID_18_" y="-2.5" width="470.2" height="425.6"/>
		</defs>
		<clipPath id="SVGID_19_">
			<use xlink:href="#SVGID_18_"  style="overflow:visible;"/>
		</clipPath>
		<g id="mouth" class="st21">
			<g>
				<path class="st22" d="M256.2,332.4c-13.2-1.1-16.5-5.9-19.5-10.9s-8.3-6.9-12.6-2.6c-4.3,4.3-7.6,13.9-1.7,22.8
					c5.9,8.9,20.5,19.2,37.7,17.9s30.8-8.6,36.4-20.2c4.9-10,0.3-21.8-6.6-21.8s-11.2,6.3-13.6,9.3
					C274.1,329.7,268.8,333.4,256.2,332.4z"/>
				<path class="st23" d="M259.2,348.9c-0.2,0-0.3,0-0.5,0c-20.2-0.2-29.2-16.8-29.3-17c-0.2-0.4-0.1-0.8,0.3-1
					c0.4-0.2,0.8-0.1,1,0.3c0.1,0.2,8.7,14.7,28,14.9c0.2,0,0.3,0,0.5,0c21.7,0,25.8-10.9,26.3-13.2c0.1-0.4,0.5-0.6,0.9-0.5
					s0.6,0.5,0.5,0.9C286.4,335.7,282,348.9,259.2,348.9z"/>
				<path class="st24" d="M252.7,358c-13.3-3-22.9-9.4-28.6-19.5c-2.1-3.8-2.8-13.1-1.8-17.3c-3.2,4.9-4.8,12.9,0.2,20.5
					c5.8,8.8,20,18.8,36.8,17.9C257.8,359,255.6,358.6,252.7,358z"/>
			</g>
		</g>
	</g>
	<g>
		<defs>
			<rect id="SVGID_20_" y="-2.5" width="470.2" height="425.6"/>
		</defs>
		<clipPath id="SVGID_21_">
			<use xlink:href="#SVGID_20_"  style="overflow:visible;"/>
		</clipPath>
		<g id="eye_x5F_L" class="st25">
			<circle cx="201.5" cy="230.5" r="22"/>
			<ellipse class="st18" cx="208.4" cy="226.9" rx="3.4" ry="3.5"/>
			<ellipse class="st18" cx="200.4" cy="228.3" rx="2.2" ry="2.2"/>
		</g>
	</g>
	<g>
		<defs>
			<rect id="SVGID_22_" y="-2.5" width="470.2" height="425.6"/>
		</defs>
		<clipPath id="SVGID_23_">
			<use xlink:href="#SVGID_22_"  style="overflow:visible;"/>
		</clipPath>
		<g id="eye_x5F_R" class="st26">
			<circle cx="330.6" cy="220.9" r="16.5"/>
			<circle class="st18" cx="335.5" cy="218.5" r="2.7"/>
		</g>
	</g>
	<g>
		<defs>
			<rect id="SVGID_24_" y="-2.5" width="470.2" height="425.6"/>
		</defs>
		<clipPath id="SVGID_25_">
			<use xlink:href="#SVGID_24_"  style="overflow:visible;"/>
		</clipPath>
		<g class="st27">
			<path class="st28" d="M180.7,352.1c0,0-27.6,5.7-32.4,6.8s-7.5,1.8-8.4-0.6c-0.9-2.4-15.3-34.8-15.3-34.8l0.7-1.5l18.7,34.2
				l29.9-10.8L180.7,352.1z"/>
			<path class="st28" d="M120.3,322.1c0,0-13.3-1.1-15.6-1.3c-2.4,0.1-2.4-1.7-1.1-1.7c1.4,0,9.2-0.2,9.2-0.2s-8.7-3.6-9.8-4.2
				c-1.5-0.8-1.7-2.4,1.6-1.5c3,0.8,5.2,2,10.5,3.4c0,0-6.7-5.7-9-7.2c-2.2-1.5-1.8-3.1,0.8-1.6c2.6,1.6,12.5,8.3,12.5,8.3l4.4,3
				l1.6,3.1l-0.8,1.3L120.3,322.1z"/>
		</g>
	</g>
	<g>
		<defs>
			<rect id="SVGID_26_" y="-2.5" width="470.2" height="425.6"/>
		</defs>
		<clipPath id="SVGID_27_">
			<use xlink:href="#SVGID_26_"  style="overflow:visible;"/>
		</clipPath>
		<g class="st29">
			<path class="st28" d="M381.1,302.4l32.3,4.4l28.2-30l1,1.3c0,0-23.5,27.2-25.6,29.7c-2.4,2.7-3.2,2.4-8.1,2.4
				c-4.9,0-33.1,0.3-33.1,0.3L381.1,302.4z"/>
			<path class="st28" d="M442.5,278.2l-1-1.2l2-3.1l4.6-2.8c0,0,10.1-6.4,12.8-7.8c2.7-1.5,3,0.2,0.7,1.6c-2.3,1.4-9.2,6.9-9.2,6.9
				c5.3-1.2,7.5-2.3,10.6-3c3.3-0.8,3.1,0.8,1.6,1.6c-1.2,0.6-10,3.9-10,3.9s7.8,0.5,9.1,0.6s1.2,1.9-1.1,1.7
				c-2.4,0.1-15.9,1.6-15.9,1.6H442.5z"/>
		</g>
	</g>
	<g>
		<defs>
			<rect id="SVGID_28_" y="-2.5" width="470.2" height="425.6"/>
		</defs>
		<clipPath id="SVGID_29_">
			<use xlink:href="#SVGID_28_"  style="overflow:visible;"/>
		</clipPath>
		<g id="body_base_1_" class="st30">
			<path d="M367.1,206.1c-32.2-79.8-75.4-111.6-124.5-129S137.4,62.7,111.2,63.7c-26.3,1-40.2,3.5-59.8-1
				c-19.6-4.5-16.6-20.8-16.1-26.8s5-13.9,5-13.9s5-1.5,13.4-2.5s13.9,11.4,13.9,11.4c7-17.9-2.5-26.8-21.9-25.3
				C26.4,7.1,15.4,37.8,13,68.1s10.4,58.5,27.8,68.9c17.3,10.4,45.1,10.9,45.1,10.9s-8.4,5.5-20.8,7.9c-12.4,2.5-25.3,1.5-25.3,1.5
				l19.8,44.6c0,0,12.4,2.5,29.8-1s31.3-9.4,31.3-9.4s-12.5,13.1-24.9,19.5C83.4,217.5,67,221.9,67,221.9s20.3,25.3,63.5,72.9
				c41.5,45.8,52.6,64.5,64.5,112.1c6.8,27.1-1.5,46.6-1.5,46.6s-4.5,2.5-13.9,4s-24.3-2.5-25.8,1.5s9.9,12.9,9.9,12.9
				c8.9,6.9,30.8,20.3,70.4,19.8c50.2-0.6,85.3-8.4,125-80.3C398.9,339.5,399.4,285.9,367.1,206.1z M364,274.5
				c-21.2,12.8-51.8-1-86.4,4.3c-36.5,5.6-57.4,40.7-111.9,21.6c-28.9-10.1-36.2-74.6-21.7-85.9c55.8-43.5,129.6-53.8,196.3-32
				C361.9,189.6,383.3,262.8,364,274.5z"/>
		</g>
	</g>
	<g>
		<defs>
			<rect id="SVGID_30_" y="-2.5" width="470.2" height="425.6"/>
		</defs>
		<clipPath id="SVGID_31_">
			<use xlink:href="#SVGID_30_"  style="overflow:visible;"/>
		</clipPath>
		<g id="eye_x5F_L_1_" class="st31">
			<path class="st32" d="M161.6,118.7c10.2-6.5,27-26.7,27-26.7s-9.1,21.2-27,31.2c-77.2,43.2-117.2,15.9-117.2,15.9
				S96.2,160.5,161.6,118.7z"/>
		</g>
	</g>
	<g>
		<defs>
			<rect id="SVGID_32_" y="-2.5" width="470.2" height="425.6"/>
		</defs>
		<clipPath id="SVGID_33_">
			<use xlink:href="#SVGID_32_"  style="overflow:visible;"/>
		</clipPath>
		<g id="eye_x5F_L_2_" class="st33">
			<path class="st32" d="M299.9,327.2c53.3-13.8,76.4-3.5,76.4-3.5s-23.2-6.2-69.2,4.8c-61.2,14.6-104.2,42.8-104.2,42.8
				S242.2,342.1,299.9,327.2z"/>
		</g>
	</g>
	<g>
		<defs>
			<rect id="SVGID_34_" y="-2.5" width="470.2" height="425.6"/>
		</defs>
		<clipPath id="SVGID_35_">
			<use xlink:href="#SVGID_34_"  style="overflow:visible;"/>
		</clipPath>
		<g id="eye_x5F_L_4_" class="st34">
			<path class="st32" d="M228.1,142.7c42.8-6.5,64.2,9.1,64.2,9.1s-20.7-11-57.8-6.4c-49.3,6-81,30.3-81,30.3
				S181.7,149.7,228.1,142.7z"/>
		</g>
	</g>
	<g>
		<defs>
			<rect id="SVGID_36_" y="-2.5" width="470.2" height="425.6"/>
		</defs>
		<clipPath id="SVGID_37_">
			<use xlink:href="#SVGID_36_"  style="overflow:visible;"/>
		</clipPath>
		<g id="eye_x5F_L_3_" class="st35">
			<path class="st32" d="M281.6,355.7c-53.7,12.2-85.4,32.2-85.4,32.2s30.6-21.5,76.7-32.6c52.8-12.7,80.3-3,80.3-3
				S313.8,348.3,281.6,355.7z"/>
		</g>
	</g>
	<g>
		<defs>
			<rect id="SVGID_38_" y="-2.5" width="470.2" height="425.6"/>
		</defs>
		<clipPath id="SVGID_39_">
			<use xlink:href="#SVGID_38_"  style="overflow:visible;"/>
		</clipPath>
		<path class="st36" d="M45.1,6.7c0,0-2.5,0.3-5.6,4.4c-4.2,5.6-0.6,12,0,11.3c0.2-0.2-3.3-5,1-11.6C42.5,7.7,45.1,6.7,45.1,6.7z"/>
	</g>
	<g>
		<defs>
			<rect id="SVGID_40_" y="-2.5" width="470.2" height="425.6"/>
		</defs>
		<clipPath id="SVGID_41_">
			<use xlink:href="#SVGID_40_"  style="overflow:visible;"/>
		</clipPath>
		<path class="st37" d="M67.7,30.7c0,0,6-13.8-2.4-20.7c-5.4-4.5-16-4.9-15.4-4.2c0.2,0.2,7-0.5,15,6.2
			C69.8,16.2,67.7,30.7,67.7,30.7z"/>
	</g>
	<g>
		<defs>
			<rect id="SVGID_42_" y="-2.5" width="470.2" height="425.6"/>
		</defs>
		<clipPath id="SVGID_43_">
			<use xlink:href="#SVGID_42_"  style="overflow:visible;"/>
		</clipPath>
		<g id="body_base_2_" class="st38">
			<path class="st39" d="M367.1,206.1c-32.2-79.8-75.4-111.6-124.5-129S137.4,62.7,111.2,63.7c63.7,2.3,128.5,6,175.2,42.8
				C335,144.7,346.9,169.9,367.1,206.1z"/>
		</g>
	</g>
</g>
</svg>
