<?xml version="1.0" encoding="utf-8"?>
<!-- Generator: Adobe Illustrator 25.2.1, SVG Export Plug-In . SVG Version: 6.00 Build 0)  -->
<svg version="1.1" id="Layer_2" xmlns="http://www.w3.org/2000/svg" xmlns:xlink="http://www.w3.org/1999/xlink" x="0px" y="0px"
	 viewBox="0 0 1047 850.4" style="enable-background:new 0 0 1047 850.4;" xml:space="preserve">
<style type="text/css">
	.st0{fill:#8E430C;}
	.st1{fill:#B76400;}
	.st2{fill:#A85C09;}
	.st3{fill:#9B520A;}
	.st4{fill:#934B0A;}
	.st5{fill:none;stroke:#8E430C;stroke-width:16;stroke-miterlimit:10;}
</style>
<g>
	<path class="st0" d="M1036.1,136.1v580.4c0,59.4-48.2,107.6-107.6,107.6H121.7c-59.4,0-107.6-48.2-107.6-107.6V136.1
		c0-59.4,48.2-107.6,107.6-107.6h806.8C987.9,28.5,1036.1,76.7,1036.1,136.1z"/>
	<path class="st1" d="M66.9,571.2c0-6.7,32.2-21.8,67.2-24s746.7-2.2,769-0.8s56,15.6,57.8,35.9c-5.6,4.1-77.7,5.2-77.7,5.2
		s74.9,0.7,78.9,3.5c7.5,5.2,5.1,33.5,0.3,34.7c-4.8,1.1-888.7-4.6-895.5-6.8c-6.8-2.3-6.5-40.7,0-41c6.5-0.4,86.8-4,86.8-4
		S66.9,573.8,66.9,571.2z"/>
	<path class="st1" d="M1026.1,562.5c7.2,2.4,8.4,36.1,5.1,38.8s-11.4,8.2-11.4,8.2s12,3.1,12.8,5s2.8,7-1.4,8.2
		c-4.2,1.2-54,3.4-54,3.4s52.6-0.7,54.8,1.3c2.2,1.9,3.7,28.7,1.5,31.8S929.8,660,927,661.6s101.8,4.7,104.9,6.2
		c3.1,1.6,3.4,61.4,0.3,64.5c-3,3.1-1006.3,2.7-1011.5-0.8c-5.2-3.5-4.2-29.1,0-31.1c4.2-1.9,88.5-5,88.5-5s-85.6,0.5-90.6-1.9
		c-4.9-2.3-3.2-18.3-0.4-20.2c1.7-1.2,223.2-4.3,223.2-4.3s-218.3-0.1-222.9-4.4c-4.6-4.3-2.6-58.2,1.6-62.1
		c4.2-3.9,67-10.8,67-10.8S23,595,19.7,592.3s-5.4-33.2,0-37.3S1014.4,558.6,1026.1,562.5z"/>
	<path class="st1" d="M21.7,735.8c3.9-5.4,980.3,1.8,988.4,4.5s16.4,28.1-6.4,52c-5.5,5.7-105.6,7.4-105.6,7.4s86.5,0.3,89.7,3.4
		c3.1,3.1-35.6,14.3-71,14.8c-35.4,0.6-776,5.2-799.7,3.4c-23.7-1.9-62-15.3-66.9-26.2s123.1-6,115-9.2c-8.1-3.1-116,0.1-122.1-2.7
		C23.4,774.1,19.1,739.5,21.7,735.8z"/>
	<path class="st0" d="M168.5,785.3c-12.7,0-11.1,7.5,1,9.5C181.7,796.8,189.5,785.3,168.5,785.3z"/>
	<path class="st0" d="M134.9,776.7c14.4,4.5,33.6,3.1,34.7-0.3C170.8,773,124.8,773.6,134.9,776.7z"/>
	<path class="st2" d="M55.4,540.9c-4.5-4.4,16-16.8,42.3-18.4c26.2-1.6,519.9,1,526.1,3.8c6.1,2.8,10.1,35.3,10.1,35.3
		s3.4-31.9,14.7-34.2s213.4,3.2,232.3,3.4c19,0.2,37.5,16,31.2,20.5c-6.2,4.6-263.6,4.6-263.6,4.6s258.6,8,264.8,12.5
		c6.3,4.6,3.8,22.7-11.2,26.8s-856.7-0.8-870.8-3.6c-14.1-2.8-16.5-31.2-9.3-33.9s373.7-8,373.7-8S60.4,545.8,55.4,540.9z"/>
	<path class="st2" d="M74,627c8.4-4,310.5-3.3,312.1,0s-65.4,23.8-79.7,26.1s-217.8,5.2-220.7,3C82.8,653.8,66.1,630.8,74,627z"/>
	<path class="st2" d="M22.5,604.7c6.7-8.6,124.1-14,138.7-15.2s816.4,10.9,823.6,11.4c13.9,0.9,47.6,14.8,41.9,19.5
		c-5.7,4.6-200.3,0.6-200.3,0.6s200.1,5,203.2,10.2s5.2,21.3-0.8,25.7s-992,11-1003.8,6.4C13.2,658.7,16.6,612.4,22.5,604.7z"/>
	<path class="st2" d="M893.2,665.8c18.4,0.7,124.9,2.9,130.9,5.2c6,2.3,8.8,53,0,55.9S31.9,731,26.6,728.1
		c-5.4-2.9-10-21.6-3.7-24.5S240,693.1,240,693.1s-220.5,3.1-221.6-1.7c-2.9-12.7-1.1-17,12.2-16.9
		C40.4,674.6,851,664.1,893.2,665.8z"/>
	<path class="st2" d="M29.2,737.4c7.9-2,603.8,4.9,610.2,6.5c6.3,1.6,18.1,29.5,17.2,31.5c-0.9,1.9-154,5.8-151.7,5.4
		c2.3-0.4,66.6,2.7,68.4,5c1.8,2.3,7.2,17.1-1.8,19s-433.3,0.4-454.1,0s-44.5-14.3-37.6-16.9c6.9-2.6,195.9-3.6,195.9-3.6
		s-226.5,0.4-233.5-5.4C35.2,773.2,16.8,740.5,29.2,737.4z"/>
	<path class="st2" d="M669.1,750c14.1-0.6,325.6,3.5,328.8,6.2s4.6,29.9-6.1,35.3c-10.7,5.4-104.8,3.9-104.8,3.9s71.3,4.3,74.7,9.3
		c3.3,5.1-32.5,8.1-52.7,6.8s-310,2.8-313.6-0.2c-3.5-3.1-5-23,12.4-22.7c17.4,0.2,61.3-3.6,61.3-3.6S658.5,750.5,669.1,750z"/>
	<path class="st3" d="M825.8,781.9c7.6,8.8,45.6,5,32.8-5.7C845.9,765.5,818.6,773.5,825.8,781.9z"/>
	<path class="st3" d="M441.1,782.7c7.7,13.2,42.9,2,34.1-4.5C466.2,771.7,434.3,771.2,441.1,782.7z"/>
	<path class="st3" d="M489.2,721.5c5.3,2.9,124.4,6.4,157.8,1.5c33.5-4.8,6.6-5.2,89.1-6.2s108.7-3.4,112.5-8.9
		s-151.6-11.1-163.4-9.4c-11.8,1.7,105,5.1,107.6,8.6c2.6,3.4-100.9,2.3-150,2.7s-28.4,7-62.1,7.6C547,718,482.5,717.9,489.2,721.5z
		"/>
	<path class="st3" d="M222.9,791.4c11.3,2,12.7-4.2,5.3-4.9C220.8,785.7,216.8,790.3,222.9,791.4z"/>
	<path class="st3" d="M797.3,789c-8.5,4.1-18.5-1.9-11.3-5.5C793.2,780,805.8,784.9,797.3,789z"/>
	<path class="st3" d="M883.2,763c1.3,2.7,14.6-0.4,9.2-2.4C886.9,758.6,881.4,759.4,883.2,763z"/>
	<path class="st3" d="M122.6,754.7c-14.2-1.9-18.2-13.1,5.1-11.4C151,745.1,150.6,758.5,122.6,754.7z"/>
	<path class="st3" d="M773.2,623.1c13.7-7.7,202.7-1.7,212.6,0.9C995.6,626.5,793.1,629.3,773.2,623.1z"/>
	<path class="st3" d="M212.8,608.2c10.8,1.6,71.1,2.5,85.4,1.4s13.8-5,37.1-6.5c23.3-1.5,91.3-0.6,97.4-4.5
		c6-3.9-127.2-3.7-150.4-4.3c-23.2-0.6-142.4-2.1-143.8,3c-1.3,5.1,30.4,2.8,47,4.9C202.1,604.3,202.7,606.7,212.8,608.2z"/>
	<path class="st4" d="M253.6,604c-8.2,3.7-65.2-0.1-62.6-4.1C193.7,595.8,272.1,595.5,253.6,604z"/>
	<path class="st3" d="M691,639.3c3.4,2.8,44.2,1.2,89.9,1.8s69,7.6,131.7,8.5c16.4,0.2,66.4-9.1,57.6-12.4
		c-16.8-6.4-105.6-2-156.7-2.3C762.2,634.5,685.7,634.9,691,639.3z"/>
	<path class="st4" d="M852.3,640.5c10.4,0.6,28.9,6.2,50.5,5.6c21.5-0.6,49.3-5,43.1-7.3c-7.6-2.8-69.1-0.8-102.5-0.6
		C810.1,638.4,808.2,638,852.3,640.5z"/>
	<path class="st3" d="M555.6,578.2c-21.8-2.3-12-16.3,15-12.5C597.7,569.5,594.5,582.2,555.6,578.2z"/>
	<path class="st3" d="M150.9,617.6c-13.9-2.5-6.6-10.3,5.7-7.5C168.9,612.9,164.9,620.1,150.9,617.6z"/>
	<path class="st3" d="M935.4,679.7c-20.9-1.3-18.4-9.5,0-8.4C953.8,672.5,956.3,681,935.4,679.7z"/>
	<path class="st3" d="M975.6,675.6c-9.5,0-11.4-6.4,0-5.5C987,670.9,985.1,675.6,975.6,675.6z"/>
	<path class="st3" d="M810.9,655.8c31.3,5.2,52.3-10.3,20-13.1C798.6,639.9,791.4,652.6,810.9,655.8z"/>
	<path class="st3" d="M153.7,649.4c-20.4-5.6,1.7-15.6,27.5-8.7S174,655.1,153.7,649.4z"/>
	<path class="st3" d="M209.5,644.4c-12.1-0.7-15.7-3.5-1.7-3.5C221.7,640.8,215.8,644.8,209.5,644.4z"/>
	<path class="st3" d="M76,622c-7.3-7-43.9-4-31.6,4.5S83,628.7,76,622z"/>
	<path class="st3" d="M748.7,606.5c-7.4-10.5-41.3-1.6-32.8,3.6C724.4,615.3,755.2,615.7,748.7,606.5z"/>
	<path class="st3" d="M708.5,581c10.3-1.4,56-2.8,69.8-1.9c13.8,0.8,13.6,4.2,36.2,5.3c22.5,1.1,102.6-0.3,108.7,3
		c6.1,3.3-136.7,4.4-159,5c-22.3,0.7-124.6,3-126.3-1.4s29-2.7,44.8-4.6S698.9,582.4,708.5,581z"/>
	<path class="st4" d="M786.2,586.2c-11.7,1.2-85.3-1.5-83.7,2C694.4,570.2,814.7,583.3,786.2,586.2z"/>
	<path class="st3" d="M405.5,641.5c-5.1-2.3-114.7-5.1-146.9-1.2c-32.2,3.8-37.1,4.1-116.5,4.9c-79.4,0.8-104.6,2.7-108.2,7.1
		c-3.7,4.3,145.9,8.9,157.3,7.5c11.4-1.4-101.1-4.1-103.6-6.8s97.2-1.8,144.4-2.2c47.2-0.3,67.9-5.6,100.3-6
		C364.7,644.4,412,644.4,405.5,641.5z"/>
	<path class="st3" d="M390.8,624.3c3.3-2.4,42.5-1.1,86.5-1.5c44-0.5,78.2-6.5,138.5-7.3c15.8-0.2,63.9,7.8,55.5,10.6
		c-16.2,5.5-101.6,1.7-150.9,2C471.2,628.5,385.7,628.1,390.8,624.3z"/>
	<path class="st4" d="M557.9,623.4c10-0.5,27.9-5.3,48.6-4.8c20.7,0.5,47.4,4.3,41.5,6.2c-7.3,2.4-66.6,0.7-98.6,0.5
		C517.3,625.1,515.4,625.4,557.9,623.4z"/>
	<path class="st3" d="M864.8,489.9c-10.9-1.6-12.2,3.3-5.1,3.9C866.8,494.4,870.7,490.8,864.8,489.9z"/>
	<path class="st3" d="M300.5,696.1c8.2-3.3,17.8,1.5,10.9,4.3C304.5,703.3,292.4,699.4,300.5,696.1z"/>
	<path class="st3" d="M941,526.5c13.7,1.5,17.6,10.4-4.9,9.1C913.6,534.2,914,523.5,941,526.5z"/>
	<path class="st1" d="M37.1,78.4c0-10.6,27.3-38.3,66-41.8c38.6-3.5,824.5-3.4,849.1-1.3c24.6,2.2,61.9,24.6,63.9,56.7
		c-6.2,6.5-85.8,8.2-85.8,8.2s92.4-1.5,96.8,3c8.3,8.2,9.2,56.8,4,58.6c-5.3,1.8-1002.4-8.8-1010-12.4c-7.5-3.6,0.6-64,7.8-64.6
		s95.8-6.3,95.8-6.3S37.1,82.5,37.1,78.4z"/>
	<path class="st1" d="M1030.3,168.8c5.3,3.6,6,55.7,2.7,59.9c-3.3,4.2-14.7,12.2-14.7,12.2s12.2,4.8,13,7.8s2.8,10.8-1.4,12.6
		c-4.2,1.8-35,5.3-35,5.3s32.8-1.1,35,1.9s3.7,44.4,1.5,49.2c-2.2,4.8-84.4,1.2-87.3,3.6c-2.8,2.4,82.7,4.8,85.8,7.2
		c3.1,2.4,6.5,97.3,3.4,102.1S27.3,434.5,22,429.1c-5.2-5.4-4.2-45.1,0-48.1s95-7.5,95-7.5s-89.4-1.2-94.4-4.8
		c-5-3.6-4.8-28.6-4.8-31.7s232.9-4.4,232.9-4.4s-228,0.2-232.6-6.4c-4.7-6.6-4.2-97.7,0-103.7s76.6-9.5,76.6-9.5s-73.4,4.2-76.8,0
		s-2.3-50.4,3.1-56.7C26.6,150.2,1019.2,161.4,1030.3,168.8z"/>
	<path class="st1" d="M16.5,433.1c4.1-8.3,1003,5.3,1011.5,9.5c8.4,4.2,5.4,72.8,0,82.2c-5.4,9.3-117.1,9.7-117.1,9.7
		s93.9,1.8,97.1,6.5c3.3,4.7-40.6,20.8-77.6,21.6c-37,0.9-811.6,8.1-836.3,5.2c-24.7-2.9-71.8-23.8-76.9-40.7
		c-5.2-16.9,135.7-9.2,127.2-14.1c-8.5-4.9-124.7,2.8-127.2-5.4C14.6,499.6,13.7,438.7,16.5,433.1z"/>
	<path class="st0" d="M147.8,512.2c-13.3,0-11.6,11.6,1.1,14.7C161.6,530,169.8,512.2,147.8,512.2z"/>
	<path class="st0" d="M112.6,499c15.1,6.9,35.1,4.9,36.3-0.4C150.1,493.2,102,494.1,112.6,499z"/>
	<path class="st2" d="M62,66.5c-5-7,17.7-26.5,46.7-29.1s574.2,1.5,580.9,6.1c6.8,4.5,11.2,55.9,11.2,55.9s3.8-50.5,16.2-54.1
		c12.5-3.6,235.6,5.1,256.6,5.4c21,0.3,41.4,25.2,34.5,32.4S717,90.3,717,90.3s302.3,10.6,309.2,17.8c6.9,7.2,12.6,44.3-4,50.8
		s-977.1-9.7-992.7-14.2c-15.5-4.5-6-51.6,2-55.9c7.9-4.3,406.4-8.5,406.4-8.5S67.5,74.2,62,66.5z"/>
	<path class="st2" d="M24.6,160.9c9.3-6.3,1002.8,4.2,1004.6,9.4c1.8,5.2,11.5,44.4-4.3,48s-996-4.5-999.3-8.1
		C22.4,206.5,16,166.7,24.6,160.9z"/>
	<path class="st2" d="M24.1,228.4c6.8-13.3,123.9-13.7,138.6-15.5s840.9,7.1,845.7,15.5s13.9,20.5,8.2,27.7s-182.4,5.4-182.4,5.4
		s189.2,4.7,192.3,12.8c3.1,8.1,8.2,33.7,2.2,40.4c-6,6.8-988.7,12.2-1000.6,5C16.1,312.6,18.1,240.3,24.1,228.4z"/>
	<path class="st2" d="M910.7,327.3c18.1,1.1,108.1,0,114,3.6c5.9,3.6,8.3,90.8-0.4,95.3c-8.6,4.5-991.3,4.6-996.5,0.1
		c-5.3-4.5-4-35.4,2.3-39.9c6.2-4.5,237.4-16.8,237.4-16.8s-241.3,2.1-239.6-5.1s2.5-23.4,12-26.1
		C49.3,335.7,869.1,324.7,910.7,327.3z"/>
	<path class="st2" d="M20.3,433.8c6.6-5.8,995.9,8.2,1002.5,10.6c6.6,2.4,13.2,45.7-0.1,77.9c-1.2,2.9-537-18.1-532.6-7.8
		c4.4,10.2,328.6,9.6,330.5,13.2c1.9,3.6,7.6,26.4-1.9,29.4s-709.3,2.8-731.1,2.2S25,528,32.1,524c7.2-4,227.6-13.1,227.6-13.1
		s-232.2,4.5-239.5-4.5C13,497.3,14.8,438.6,20.3,433.8z"/>
	<g>
		<path class="st3" d="M835.2,506.9c7.9,13.7,47.7,7.8,34.3-8.8C856.2,481.6,827.6,493.9,835.2,506.9z"/>
		<path class="st3" d="M432.8,508.2c8.1,20.4,44.9,3,35.6-7S425.7,490.3,432.8,508.2z"/>
		<path class="st3" d="M483.1,413.5c5.6,4.5,130.1,9.8,165.1,2.4c35-7.5,6.9-8,93.2-9.6S855,401,859,392.5
			c4-8.4-158.6-17.2-170.9-14.5c-12.3,2.7,109.9,7.9,112.5,13.2c2.7,5.3-105.6,3.6-156.9,4.2c-51.3,0.6-29.7,10.8-65,11.7
			C543.6,408,476.2,407.9,483.1,413.5z"/>
		<path class="st3" d="M204.7,521.6c11.8,3.1,13.3-6.5,5.5-7.6C202.5,512.8,198.3,519.9,204.7,521.6z"/>
		<path class="st3" d="M805.4,518c-8.9,6.3-19.3-2.9-11.8-8.4C801,504,814.2,511.6,805.4,518z"/>
		<path class="st3" d="M895.3,477.6c1.4,4.1,15.3-0.7,9.6-3.7C899.1,470.9,893.4,472.1,895.3,477.6z"/>
		<path class="st3" d="M99.7,464.9c-14.8-2.9-19.1-20.2,5.3-17.6C129.5,450,129.1,470.7,99.7,464.9z"/>
		<path class="st3" d="M780.2,261.2c14.3-11.9,212-2.6,222.3,1.4C1012.8,266.5,801,270.9,780.2,261.2z"/>
		<path class="st3" d="M194.1,238.2c11.3,2.4,74.4,3.9,89.3,2.2c14.9-1.7,14.4-7.7,38.8-10.1c24.4-2.4,95.5-0.9,101.8-7
			s-133-5.8-157.3-6.7s-148.9-3.2-150.4,4.7c-1.4,7.9,31.8,4.3,49.1,7.6C182.9,232.2,183.5,236,194.1,238.2z"/>
		<path class="st4" d="M236.8,231.7c-8.5,5.8-68.2-0.1-65.4-6.4C174.1,219,256.1,218.5,236.8,231.7z"/>
		<path class="st3" d="M694.2,286.3c3.6,4.4,46.2,1.9,94,2.8s72.2,11.7,137.7,13.2c17.2,0.4,69.4-14,60.3-19.2
			c-17.6-9.9-110.4-3-163.9-3.6C768.7,278.9,688.6,279.6,694.2,286.3z"/>
		<path class="st4" d="M862.9,288.1c10.9,0.9,30.3,9.5,52.8,8.7c22.5-0.9,51.5-7.7,45.1-11.2c-8-4.3-72.3-1.2-107.2-0.9
			C818.7,284.9,816.8,284.4,862.9,288.1z"/>
		<path class="st3" d="M552.6,191.8c-22.8-3.5-12.5-25.2,15.7-19.3C596.6,178.4,593.3,198.1,552.6,191.8z"/>
		<path class="st3" d="M129.4,252.7c-14.6-3.9-6.9-15.9,6-11.5C148.2,245.5,144,256.6,129.4,252.7z"/>
		<path class="st3" d="M949.8,348.9c-21.9-2-19.2-14.7,0-12.9C969.1,337.8,971.7,350.8,949.8,348.9z"/>
		<path class="st3" d="M991.8,342.4c-9.9,0-11.9-9.8,0-8.5C1003.8,335.2,1001.7,342.4,991.8,342.4z"/>
		<path class="st3" d="M819.6,311.9c32.7,8,54.7-15.9,21-20.3C806.8,287.2,799.2,307,819.6,311.9z"/>
		<path class="st3" d="M132.2,302c-21.3-8.7,1.8-24.1,28.8-13.5C188,299.2,153.5,310.7,132.2,302z"/>
		<path class="st3" d="M190.6,294.2c-12.7-1.1-16.4-5.4-1.8-5.4C203.4,288.7,197.3,294.8,190.6,294.2z"/>
		<path class="st3" d="M225.2,67c-7.6-10.9-45.9-6.2-33,7C205,87.1,232.5,77.3,225.2,67z"/>
		<path class="st3" d="M860.6,75.3c-7.8-16.2-43.2-2.4-34.3,5.6C835.3,88.9,867.4,89.5,860.6,75.3z"/>
		<path class="st3" d="M743.7,131.6c10.7-2.2,58.5-4.3,73-3c14.4,1.3,14.3,6.4,37.8,8.2c23.6,1.7,107.3-0.5,113.7,4.6
			s-143,6.7-166.3,7.8s-130.3,4.7-132.1-2.1s30.3-4.1,46.8-7.1C733.2,136.9,733.6,133.7,743.7,131.6z"/>
		<path class="st4" d="M824.9,139.6c-12.2,1.9-89.2-2.4-87.5,3.1C728.9,114.8,854.7,135.1,824.9,139.6z"/>
		<path class="st3" d="M456,98.7c-5.4-3.6-120-7.8-153.6-1.9c-33.7,6-38.8,6.4-121.9,7.6c-83.1,1.3-109.4,4.2-113.2,11
			c-3.8,6.7,152.6,13.7,164.5,11.6s-105.7-6.3-108.3-10.6c-2.6-4.2,101.6-2.9,151-3.3c49.4-0.5,71-8.6,104.9-9.3
			C413.3,103.1,462.7,103.2,456,98.7z"/>
		<path class="st3" d="M459,99.6c3.4-3.7,44.5-1.6,90.5-2.4c46-0.7,81.8-10.1,144.9-11.3c16.5-0.3,66.8,12,58,16.4
			c-16.9,8.5-106.3,2.6-157.8,3.1C543.1,105.9,453.7,105.4,459,99.6z"/>
		<path class="st4" d="M633.8,98c10.4-0.8,29.1-8.2,50.8-7.4c21.7,0.7,49.6,6.6,43.4,9.6c-7.7,3.7-69.6,1-103.2,0.8
			C591.3,100.8,589.4,101.3,633.8,98z"/>
		<path class="st3" d="M876,55.2c-11.4-2.5-12.8,5.1-5.3,6.1C878.1,62.2,882.1,56.5,876,55.2z"/>
		<path class="st3" d="M253.9,58.1c8.6-5,18.6,2.3,11.4,6.7C258.1,69.2,245.4,63.2,253.9,58.1z"/>
		<path class="st3" d="M167.4,90.2c-1.3-3.3-14.7,0.5-9.2,3C163.7,95.6,169.2,94.7,167.4,90.2z"/>
		<path class="st3" d="M955.6,111.9c14.3,2.3,18.4,16.1-5.1,14S927.4,107.2,955.6,111.9z"/>
	</g>
	<g>
		<path class="st5" d="M926.3,820H123.8c-59.3,0-107.3-48-107.3-107.3V138.9c0-59.3,48-107.3,107.3-107.3h802.5
			c59.3,0,107.3,48,107.3,107.3v573.9C1033.7,772,985.5,820,926.3,820z"/>
	</g>
</g>
</svg>
