<?xml version="1.0" encoding="utf-8"?>
<!-- Generator: Adobe Illustrator 25.2.1, SVG Export Plug-In . SVG Version: 6.00 Build 0)  -->
<svg version="1.1" id="Layer_2" xmlns="http://www.w3.org/2000/svg" xmlns:xlink="http://www.w3.org/1999/xlink" x="0px" y="0px"
	 viewBox="0 0 200 200" style="enable-background:new 0 0 200 200;" xml:space="preserve">
<style type="text/css">
	.st0{fill:#D4CAB1;}
	.st1{fill:#E7E8E0;}
	.st2{opacity:0.5;fill:#AFACA7;}
	.st3{opacity:0.5;fill:#C6C6C4;}
	.st4{fill:#C6C6C4;}
	.st5{fill:#D1C6B8;}
	.st6{fill:#E8E3AF;}
</style>
<g>
	<path class="st0" d="M28,94.8c-6.7-7.6-13.5-15.2-20.2-22.7c-40.4,29.5-71.1,61.9-41.2,90.4c20.1,19.1,62,25.5,112.5-9.1
		C62.3,133.5,45.2,114.1,28,94.8z"/>
	<path class="st1" d="M28,94.8C18.8,84.5,9.7,74.3,0.6,64c-37.3,30.7-55.5,68.8-41.1,89.7c15.6,22.7,63.8,16.9,109.2-12.5
		C55.3,125.5,41.6,110.2,28,94.8z"/>
	<path class="st2" d="M75.8,149.5c-32.7,22.8-73.2,34.1-109.3,12.9c20.1,19.1,62,25.5,112.5-9.1C78,152.1,76.9,150.8,75.8,149.5z"/>
	<path class="st3" d="M65.4,137.3c-30.9,24.5-69.1,38-106,16.3c15.6,22.7,63.8,16.9,109.2-12.5C67.6,139.9,66.5,138.6,65.4,137.3z"
		/>
	<g>
		<g>
			<path class="st4" d="M-24.1,121.8c1.1-1.7,2.8-2.9,4.7-3.3c0.3-0.1,0.4-0.4,0.3-0.6c-0.1-0.3-0.3-0.4-0.6-0.3
				c-2.2,0.5-4.1,1.8-5.3,3.7C-25.3,121.8-24.4,122.3-24.1,121.8L-24.1,121.8z"/>
		</g>
	</g>
	<g>
		<g>
			<path class="st4" d="M14.4,129.8c1.1-1.7,2.9-3,4.9-3.4c0.3-0.1,0.2-0.5-0.1-0.5c-2.1,0.4-4,1.8-5.2,3.6
				C13.8,129.9,14.2,130.1,14.4,129.8L14.4,129.8z"/>
		</g>
	</g>
	<g>
		<g>
			<path class="st4" d="M-17.3,146.7c1.1-1.7,2.8-2.9,4.7-3.3c0.3-0.1,0.4-0.4,0.3-0.6c-0.1-0.3-0.3-0.4-0.6-0.3
				c-2.2,0.5-4.1,1.8-5.3,3.7C-18.6,146.7-17.7,147.2-17.3,146.7L-17.3,146.7z"/>
		</g>
	</g>
	<g>
		<g>
			<path class="st4" d="M-7.8,158.7c1.1-1.7,2.9-3,4.9-3.4c0.3-0.1,0.2-0.5-0.1-0.5c-2.1,0.4-4,1.8-5.2,3.6
				C-8.4,158.7-8,158.9-7.8,158.7L-7.8,158.7z"/>
		</g>
	</g>
	<g>
		<g>
			<path class="st5" d="M1,144.6c1.1-1.7,2.8-2.9,4.7-3.3c0.3-0.1,0.4-0.4,0.3-0.6c-0.1-0.3-0.3-0.4-0.6-0.3
				c-2.2,0.5-4.1,1.8-5.3,3.7C-0.2,144.7,0.6,145.2,1,144.6L1,144.6z"/>
		</g>
	</g>
	<g>
		<g>
			<path class="st5" d="M-25.1,134.8c1.1-1.7,2.8-2.9,4.7-3.3c0.3-0.1,0.4-0.4,0.3-0.6c-0.1-0.3-0.3-0.4-0.6-0.3
				c-2.2,0.5-4.1,1.8-5.3,3.7C-26.3,134.8-25.5,135.3-25.1,134.8L-25.1,134.8z"/>
		</g>
	</g>
	<g>
		<g>
			<path class="st5" d="M18.6,111.3c1.1-1.7,2.8-2.9,4.7-3.3c0.3-0.1,0.4-0.4,0.3-0.6c-0.1-0.3-0.3-0.4-0.6-0.3
				c-2.2,0.5-4.1,1.8-5.3,3.7C17.4,111.3,18.2,111.8,18.6,111.3L18.6,111.3z"/>
		</g>
	</g>
	<g>
		<g>
			<path class="st5" d="M-12.4,116.9c1.1-1.7,2.9-3,4.9-3.4c0.3-0.1,0.2-0.5-0.1-0.5c-2.1,0.4-4,1.8-5.2,3.6
				C-13,117-12.6,117.2-12.4,116.9L-12.4,116.9z"/>
		</g>
	</g>
	<g>
		<g>
			<path class="st5" d="M0.3,94.3C1.4,92.6,3.1,91.4,5,91c0.3-0.1,0.4-0.4,0.3-0.6C5.3,90.1,5,90,4.8,90c-2.2,0.5-4.1,1.8-5.3,3.7
				C-0.9,94.3-0.1,94.8,0.3,94.3L0.3,94.3z"/>
		</g>
	</g>
	<g>
		<g>
			<path class="st5" d="M32.3,133.9c1.1-1.7,2.8-2.9,4.7-3.3c0.3-0.1,0.4-0.4,0.3-0.6c-0.1-0.3-0.3-0.4-0.6-0.3
				c-2.2,0.5-4.1,1.8-5.3,3.7C31.1,133.9,31.9,134.4,32.3,133.9L32.3,133.9z"/>
		</g>
	</g>
	<g>
		<g>
			<path class="st5" d="M23,155c1.1-1.7,2.8-2.9,4.7-3.3c0.3-0.1,0.4-0.4,0.3-0.6c-0.1-0.3-0.3-0.4-0.6-0.3
				c-2.2,0.5-4.1,1.8-5.3,3.7C21.8,155,22.7,155.5,23,155L23,155z"/>
		</g>
	</g>
	<g>
		<g>
			<path class="st6" d="M18.1,97.2c1.1-1.7,2.8-2.9,4.7-3.3c0.3-0.1,0.4-0.4,0.3-0.6c-0.1-0.3-0.3-0.4-0.6-0.3
				c-2.2,0.5-4.1,1.8-5.3,3.7C16.9,97.2,17.7,97.7,18.1,97.2L18.1,97.2z"/>
		</g>
	</g>
	<g>
		<g>
			<path class="st6" d="M-38.2,132.3c1.1-1.7,2.9-3,4.9-3.4c0.3-0.1,0.2-0.5-0.1-0.5c-2.1,0.4-4,1.8-5.2,3.6
				C-38.8,132.3-38.3,132.6-38.2,132.3L-38.2,132.3z"/>
		</g>
	</g>
	<g>
		<g>
			<path class="st6" d="M-32.1,153.2c1.1-1.7,2.8-2.9,4.7-3.3c0.3-0.1,0.4-0.4,0.3-0.6c-0.1-0.3-0.3-0.4-0.6-0.3
				c-2.2,0.5-4.1,1.8-5.3,3.7C-33.3,153.2-32.5,153.7-32.1,153.2L-32.1,153.2z"/>
		</g>
	</g>
	<g>
		<g>
			<path class="st6" d="M52.1,137c1.1-1.7,2.8-2.9,4.7-3.3c0.3-0.1,0.4-0.4,0.3-0.6c-0.1-0.3-0.3-0.4-0.6-0.3
				c-2.2,0.5-4.1,1.8-5.3,3.7C50.9,137,51.7,137.5,52.1,137L52.1,137z"/>
		</g>
	</g>
	<g>
		<g>
			<path class="st6" d="M-18.5,91.3c1.1-1.7,2.8-2.9,4.7-3.3c0.3-0.1,0.4-0.4,0.3-0.6c-0.1-0.3-0.3-0.4-0.6-0.3
				c-2.2,0.5-4.1,1.8-5.3,3.7C-19.7,91.3-18.9,91.8-18.5,91.3L-18.5,91.3z"/>
		</g>
	</g>
	<g>
		<g>
			<path class="st4" d="M3,104.5c1.1-1.7,2.9-3,4.9-3.4c0.3-0.1,0.2-0.5-0.1-0.5c-2.1,0.4-4,1.8-5.2,3.6
				C2.4,104.5,2.8,104.8,3,104.5L3,104.5z"/>
		</g>
	</g>
	<g>
		<g>
			<path class="st4" d="M48.2,127.5c0.9-1.4,2.2-2.4,3.7-3c0.3-0.1,0.4-0.3,0.3-0.6c-0.1-0.2-0.4-0.4-0.6-0.3
				c-1.8,0.6-3.3,1.8-4.3,3.4c-0.1,0.2,0,0.6,0.2,0.7C47.8,127.8,48,127.7,48.2,127.5L48.2,127.5z"/>
		</g>
	</g>
	<g>
		<g>
			<path class="st4" d="M-39.6,118.1c1.1-1.7,2.8-2.9,4.7-3.3c0.3-0.1,0.4-0.4,0.3-0.6c-0.1-0.3-0.3-0.4-0.6-0.3
				c-2.2,0.5-4.1,1.8-5.3,3.7C-40.8,118.2-40,118.7-39.6,118.1L-39.6,118.1z"/>
		</g>
	</g>
	<g>
		<g>
			<path class="st4" d="M-6.7,132.7c1.1-1.7,2.8-2.9,4.7-3.3c0.3-0.1,0.4-0.4,0.3-0.6c-0.1-0.3-0.3-0.4-0.6-0.3
				c-2.2,0.5-4.1,1.8-5.3,3.7C-7.9,132.8-7,133.3-6.7,132.7L-6.7,132.7z"/>
		</g>
	</g>
	<g>
		<g>
			<path class="st4" d="M10.9,147.7c1.1-1.7,2.8-2.9,4.7-3.3c0.3-0.1,0.4-0.4,0.3-0.6c-0.1-0.3-0.3-0.4-0.6-0.3
				c-2.2,0.5-4.1,1.8-5.3,3.7C9.6,147.7,10.5,148.2,10.9,147.7L10.9,147.7z"/>
		</g>
	</g>
	<g>
		<g>
			<path class="st4" d="M-6.7,83.4c1.1-1.7,2.9-3,4.9-3.4c0.3-0.1,0.2-0.5-0.1-0.5c-2.1,0.4-4,1.8-5.2,3.6
				C-7.3,83.4-6.9,83.6-6.7,83.4L-6.7,83.4z"/>
		</g>
	</g>
	<g>
		<g>
			<path class="st4" d="M-35.9,142.7c1.1-1.7,2.8-2.9,4.7-3.3c0.3-0.1,0.4-0.4,0.3-0.6c-0.1-0.3-0.3-0.4-0.6-0.3
				c-2.2,0.5-4.1,1.8-5.3,3.7C-37.1,142.8-36.2,143.3-35.9,142.7L-35.9,142.7z"/>
		</g>
	</g>
	<g>
		<g>
			<path class="st4" d="M29,118.4c1.1-1.7,2.8-2.9,4.7-3.3c0.3-0.1,0.4-0.4,0.3-0.6c-0.1-0.3-0.3-0.4-0.6-0.3
				c-2.2,0.5-4.1,1.8-5.3,3.7C27.8,118.5,28.7,119,29,118.4L29,118.4z"/>
		</g>
	</g>
	<g>
		<g>
			<path class="st4" d="M36.2,143.2c1.1-1.7,2.9-3,4.9-3.4c0.3-0.1,0.2-0.5-0.1-0.5c-2.1,0.4-4,1.8-5.2,3.6
				C35.6,143.2,36.1,143.5,36.2,143.2L36.2,143.2z"/>
		</g>
	</g>
	<g>
		<g>
			<path class="st4" d="M5.9,119c1.1-1.7,2.8-2.9,4.7-3.3c0.3-0.1,0.4-0.4,0.3-0.6c-0.1-0.3-0.3-0.4-0.6-0.3
				c-2.2,0.5-4.1,1.8-5.3,3.7C4.6,119,5.5,119.5,5.9,119L5.9,119z"/>
		</g>
	</g>
	<g>
		<g>
			<path class="st4" d="M-28.5,99.2c1.1-1.7,2.9-3,4.9-3.4c0.3-0.1,0.2-0.5-0.1-0.5c-2.1,0.4-4,1.8-5.2,3.6
				C-29.1,99.2-28.6,99.4-28.5,99.2L-28.5,99.2z"/>
		</g>
	</g>
	<g>
		<g>
			<path class="st4" d="M-16.5,102.5c1.1-1.7,2.8-2.9,4.7-3.3c0.3-0.1,0.4-0.4,0.3-0.6c-0.1-0.3-0.3-0.4-0.6-0.3
				c-2.2,0.5-4.1,1.8-5.3,3.7C-17.7,102.6-16.9,103.1-16.5,102.5L-16.5,102.5z"/>
		</g>
	</g>
</g>
<g>
	<path class="st0" d="M121.4,124.9c-3,8.2-6.1,16.5-9.3,24.6c0.6,0.3,1.2,0.6,1.8,0.9c60.8,28.9,101.7,20.3,116.6-3.9
		c23.8-38.7-17.8-66.6-68.3-92.1c-4.4-2.2-8.8-4.4-13.2-6.4C139.8,73.6,130.8,99.3,121.4,124.9z"/>
	<path class="st1" d="M152.5,38c-10.4,29-20.4,58-31.1,86.9c-1.2,3.2-2.4,6.5-3.6,9.7c0.8,0.4,1.5,0.8,2.3,1.2
		c50.5,25.5,101.9,25.6,114.7,0.2c12.8-25.4-17.8-66.6-68.3-92.1c-4.6-2.3-9.2-4.4-13.8-6.3C152.6,37.7,152.5,37.9,152.5,38z"/>
	<path class="st2" d="M113.8,144.9c-0.6,1.5-1.2,3.1-1.8,4.6c0.6,0.3,1.2,0.6,1.8,0.9c60.8,28.9,101.7,20.3,116.6-3.9
		C217.1,168.2,160.6,167.1,113.8,144.9z"/>
	<path class="st3" d="M119.6,129.7c-0.6,1.6-1.2,3.3-1.8,4.9c0.8,0.4,1.5,0.8,2.3,1.2c50.5,25.5,101.9,25.6,114.7,0.2
		C228.1,148.3,168.9,149.6,119.6,129.7z"/>
	<g>
		<g>
			<path class="st5" d="M149.8,92.7c2,0.1,4,1.1,5.3,2.7c0.2,0.2,0.6-0.1,0.4-0.4c-1.4-1.7-3.5-2.7-5.7-2.8
				C149.4,92.2,149.4,92.7,149.8,92.7L149.8,92.7z"/>
		</g>
	</g>
	<g>
		<g>
			<path class="st5" d="M135,119.5c2,0.1,4,1.1,5.3,2.7c0.2,0.2,0.6-0.1,0.4-0.4c-1.4-1.7-3.5-2.7-5.7-2.8
				C134.6,119,134.7,119.5,135,119.5L135,119.5z"/>
		</g>
	</g>
	<g>
		<g>
			<path class="st5" d="M151,67.2c2,0.1,4,1.1,5.3,2.7c0.2,0.2,0.6-0.1,0.4-0.4c-1.4-1.7-3.5-2.7-5.7-2.8
				C150.7,66.7,150.7,67.2,151,67.2L151,67.2z"/>
		</g>
	</g>
	<g>
		<g>
			<path class="st5" d="M167.4,90.7c2,0.1,4,1.1,5.3,2.7c0.2,0.2,0.6-0.1,0.4-0.4c-1.4-1.7-3.5-2.7-5.7-2.8
				C167,90.2,167,90.7,167.4,90.7L167.4,90.7z"/>
		</g>
	</g>
	<g>
		<g>
			<path class="st5" d="M163,129.4c2,0.1,4,1.1,5.3,2.7c0.2,0.2,0.6-0.1,0.4-0.4c-1.4-1.7-3.5-2.7-5.7-2.8
				C162.7,128.9,162.7,129.4,163,129.4L163,129.4z"/>
		</g>
	</g>
	<g>
		<g>
			<path class="st5" d="M196.3,113.3c2,0.1,4,1.1,5.3,2.7c0.2,0.2,0.6-0.1,0.4-0.4c-1.4-1.7-3.5-2.7-5.7-2.8
				C196,112.8,196,113.3,196.3,113.3L196.3,113.3z"/>
		</g>
	</g>
	<g>
		<g>
			<path class="st5" d="M184.3,125.9c2,0.1,4,1.1,5.3,2.7c0.2,0.2,0.6-0.1,0.4-0.4c-1.4-1.7-3.5-2.7-5.7-2.8
				C184,125.4,184,125.9,184.3,125.9L184.3,125.9z"/>
		</g>
	</g>
	<g>
		<g>
			<path class="st5" d="M186.9,80.6c2,0.1,3.8,1.1,5.1,2.6c0.2,0.2,0.5,0.2,0.7,0c0.2-0.2,0.2-0.5,0-0.7c-1.5-1.7-3.6-2.7-5.8-2.9
				C186.2,79.6,186.2,80.6,186.9,80.6L186.9,80.6z"/>
		</g>
	</g>
	<g>
		<g>
			<path class="st5" d="M208.5,98.7c2,0.1,3.8,1.1,5.1,2.6c0.2,0.2,0.5,0.2,0.7,0c0.2-0.2,0.2-0.5,0-0.7c-1.5-1.7-3.6-2.7-5.8-2.9
				C207.9,97.6,207.9,98.6,208.5,98.7L208.5,98.7z"/>
		</g>
	</g>
	<g>
		<g>
			<path class="st5" d="M210.1,123c2,0.1,3.8,1.1,5.1,2.6c0.2,0.2,0.5,0.2,0.7,0c0.2-0.2,0.2-0.5,0-0.7c-1.5-1.7-3.6-2.7-5.8-2.9
				C209.4,121.9,209.4,122.9,210.1,123L210.1,123z"/>
		</g>
	</g>
	<g>
		<g>
			<path class="st5" d="M166.9,71.7c2,0.1,3.8,1.1,5.1,2.6c0.2,0.2,0.5,0.2,0.7,0c0.2-0.2,0.2-0.5,0-0.7c-1.5-1.7-3.6-2.7-5.8-2.9
				C166.2,70.6,166.2,71.6,166.9,71.7L166.9,71.7z"/>
		</g>
	</g>
	<g>
		<g>
			<path class="st6" d="M145.8,112c2,0.1,3.8,1.1,5.1,2.6c0.2,0.2,0.5,0.2,0.7,0c0.2-0.2,0.2-0.5,0-0.7c-1.5-1.7-3.6-2.7-5.8-2.9
				C145.2,110.9,145.2,111.9,145.8,112L145.8,112z"/>
		</g>
	</g>
	<g>
		<g>
			<path class="st6" d="M179.4,99c2,0.1,3.8,1.1,5.1,2.6c0.2,0.2,0.5,0.2,0.7,0c0.2-0.2,0.2-0.5,0-0.7c-1.5-1.7-3.6-2.7-5.8-2.9
				C178.7,97.9,178.7,98.9,179.4,99L179.4,99z"/>
		</g>
	</g>
	<g>
		<g>
			<path class="st6" d="M173.8,121.9c2,0.1,3.8,1.1,5.1,2.6c0.2,0.2,0.5,0.2,0.7,0c0.2-0.2,0.2-0.5,0-0.7c-1.5-1.7-3.6-2.7-5.8-2.9
				C173.2,120.9,173.2,121.9,173.8,121.9L173.8,121.9z"/>
		</g>
	</g>
	<g>
		<g>
			<path class="st6" d="M197.8,91c2,0.1,4,1.1,5.3,2.7c0.2,0.2,0.6-0.1,0.4-0.4c-1.4-1.7-3.5-2.7-5.7-2.8
				C197.5,90.5,197.5,91,197.8,91L197.8,91z"/>
		</g>
	</g>
	<g>
		<g>
			<path class="st6" d="M213.2,135.7c2,0.1,3.8,1.1,5.1,2.6c0.2,0.2,0.5,0.2,0.7,0c0.2-0.2,0.2-0.5,0-0.7c-1.5-1.7-3.6-2.7-5.8-2.9
				C212.6,134.7,212.6,135.7,213.2,135.7L213.2,135.7z"/>
		</g>
	</g>
	<g>
		<g>
			<path class="st6" d="M190.5,66.1c2,0.1,3.8,1.1,5.1,2.6c0.2,0.2,0.5,0.2,0.7,0c0.2-0.2,0.2-0.5,0-0.7c-1.5-1.7-3.6-2.7-5.8-2.9
				C189.9,65.1,189.9,66.1,190.5,66.1L190.5,66.1z"/>
		</g>
	</g>
	<g>
		<g>
			<path class="st4" d="M153.3,80.6c2,0.1,3.8,1.1,5.1,2.6c0.2,0.2,0.5,0.2,0.7,0c0.2-0.2,0.2-0.5,0-0.7c-1.5-1.7-3.6-2.7-5.8-2.9
				C152.6,79.6,152.6,80.6,153.3,80.6L153.3,80.6z"/>
		</g>
	</g>
	<g>
		<g>
			<path class="st4" d="M158.8,57.5c2,0.1,3.8,1.1,5.1,2.6c0.2,0.2,0.5,0.2,0.7,0c0.2-0.2,0.2-0.5,0-0.7c-1.5-1.7-3.6-2.7-5.8-2.9
				C158.2,56.5,158.2,57.5,158.8,57.5L158.8,57.5z"/>
		</g>
	</g>
	<g>
		<g>
			<path class="st4" d="M164.2,99c2,0.1,3.8,1.1,5.1,2.6c0.2,0.2,0.5,0.2,0.7,0c0.2-0.2,0.2-0.5,0-0.7c-1.5-1.7-3.6-2.7-5.8-2.9
				C163.6,97.9,163.6,98.9,164.2,99L164.2,99z"/>
		</g>
	</g>
	<g>
		<g>
			<path class="st4" d="M201.1,83.5c2,0.1,3.8,1.1,5.1,2.6c0.2,0.2,0.5,0.2,0.7,0c0.2-0.2,0.2-0.5,0-0.7c-1.5-1.7-3.6-2.7-5.8-2.9
				C200.5,82.5,200.5,83.5,201.1,83.5L201.1,83.5z"/>
		</g>
	</g>
	<g>
		<g>
			<path class="st4" d="M212.7,110.9c2,0.1,4,1.1,5.3,2.7c0.2,0.2,0.6-0.1,0.4-0.4c-1.4-1.7-3.5-2.7-5.7-2.8
				C212.4,110.4,212.4,110.9,212.7,110.9L212.7,110.9z"/>
		</g>
	</g>
	<g>
		<g>
			<path class="st4" d="M177.3,83.7c2,0.1,3.8,1.1,5.1,2.6c0.2,0.2,0.5,0.2,0.7,0c0.2-0.2,0.2-0.5,0-0.7c-1.5-1.7-3.6-2.7-5.8-2.9
				C176.7,82.7,176.7,83.7,177.3,83.7L177.3,83.7z"/>
		</g>
	</g>
	<g>
		<g>
			<path class="st4" d="M134.8,101.2c2,0.1,3.8,1.1,5.1,2.6c0.2,0.2,0.5,0.2,0.7,0c0.2-0.2,0.2-0.5,0-0.7c-1.5-1.7-3.6-2.7-5.8-2.9
				C134.2,100.2,134.2,101.2,134.8,101.2L134.8,101.2z"/>
		</g>
	</g>
	<g>
		<g>
			<path class="st4" d="M147.4,128.8c2,0.1,3.8,1.1,5.1,2.6c0.2,0.2,0.5,0.2,0.7,0c0.2-0.2,0.2-0.5,0-0.7c-1.5-1.7-3.6-2.7-5.8-2.9
				C146.8,127.7,146.8,128.8,147.4,128.8L147.4,128.8z"/>
		</g>
	</g>
	<g>
		<g>
			<path class="st4" d="M184.3,113.3c2,0.1,3.8,1.1,5.1,2.6c0.2,0.2,0.5,0.2,0.7,0c0.2-0.2,0.2-0.5,0-0.7c-1.5-1.7-3.6-2.7-5.8-2.9
				C183.7,112.3,183.7,113.3,184.3,113.3L184.3,113.3z"/>
		</g>
	</g>
	<g>
		<g>
			<path class="st4" d="M195.9,141c2,0.1,3.8,1.1,5.1,2.6c0.2,0.2,0.5,0.2,0.7,0c0.2-0.2,0.2-0.5,0-0.7c-1.5-1.7-3.6-2.7-5.8-2.9
				C195.3,140,195.3,141,195.9,141L195.9,141z"/>
		</g>
	</g>
	<g>
		<g>
			<path class="st4" d="M160.6,113.5c2,0.1,3.8,1.1,5.1,2.6c0.2,0.2,0.5,0.2,0.7,0c0.2-0.2,0.2-0.5,0-0.7c-1.5-1.7-3.6-2.7-5.8-2.9
				C159.9,112.5,159.9,113.5,160.6,113.5L160.6,113.5z"/>
		</g>
	</g>
	<g>
		<g>
			<path class="st4" d="M177.6,133.5c2,0.1,3.8,1.1,5.1,2.6c0.2,0.2,0.5,0.2,0.7,0c0.2-0.2,0.2-0.5,0-0.7c-1.5-1.7-3.6-2.7-5.8-2.9
				C177,132.5,177,133.5,177.6,133.5L177.6,133.5z"/>
		</g>
	</g>
	<g>
		<g>
			<path class="st4" d="M219.5,130c2,0.1,3.8,1.1,5.1,2.6c0.2,0.2,0.5,0.2,0.7,0c0.2-0.2,0.2-0.5,0-0.7c-1.5-1.7-3.6-2.7-5.8-2.9
				C218.9,129,218.9,130,219.5,130L219.5,130z"/>
		</g>
	</g>
	<g>
		<g>
			<path class="st4" d="M227.9,118.9c2,0.1,3.8,1.1,5.1,2.6c0.2,0.2,0.5,0.2,0.7,0c0.2-0.2,0.2-0.5,0-0.7c-1.5-1.7-3.6-2.7-5.8-2.9
				C227.2,117.9,227.2,118.9,227.9,118.9L227.9,118.9z"/>
		</g>
	</g>
	<g>
		<g>
			<path class="st4" d="M173,55.2c2,0.1,3.8,1.1,5.1,2.6c0.2,0.2,0.5,0.2,0.7,0c0.2-0.2,0.2-0.5,0-0.7c-1.5-1.7-3.6-2.7-5.8-2.9
				C172.3,54.2,172.3,55.2,173,55.2L173,55.2z"/>
		</g>
	</g>
	<g>
		<g>
			<path class="st4" d="M180.2,67.1c2,0.1,4,1.1,5.3,2.7c0.2,0.2,0.6-0.1,0.4-0.4c-1.4-1.7-3.5-2.7-5.7-2.8
				C179.9,66.6,179.9,67.1,180.2,67.1L180.2,67.1z"/>
		</g>
	</g>
	<g>
		<g>
			<path class="st4" d="M200.9,126.7c2,0.1,4,1.1,5.3,2.7c0.2,0.2,0.6-0.1,0.4-0.4c-1.4-1.7-3.5-2.7-5.7-2.8
				C200.6,126.2,200.6,126.7,200.9,126.7L200.9,126.7z"/>
		</g>
	</g>
	<g>
		<g>
			<path class="st4" d="M193.8,99.6c2,0.1,3.8,1.1,5.1,2.6c0.2,0.2,0.5,0.2,0.7,0c0.2-0.2,0.2-0.5,0-0.7c-1.5-1.7-3.6-2.7-5.8-2.9
				C193.1,98.6,193.1,99.6,193.8,99.6L193.8,99.6z"/>
		</g>
	</g>
	<g>
		<g>
			<path class="st4" d="M220.5,101.4c2,0.1,3.8,1.1,5.1,2.6c0.2,0.2,0.5,0.2,0.7,0c0.2-0.2,0.2-0.5,0-0.7c-1.5-1.7-3.6-2.7-5.8-2.9
				C219.9,100.4,219.9,101.4,220.5,101.4L220.5,101.4z"/>
		</g>
	</g>
</g>
<ellipse transform="matrix(0.7458 -0.6662 0.6662 0.7458 -61.5936 54.9312)" class="st0" cx="41.2" cy="108.2" rx="9.9" ry="60.3"/>
<path class="st2" d="M81.3,153.1c-4.1,3.7-25.4-13.5-47.6-38.3c17.3,15.7,40.9,38.3,45,34.7c4.1-3.7-6.5-14.9-30.2-47.9
	C70.8,126.4,85.4,149.5,81.3,153.1z"/>
<g>
	<g>
		<ellipse transform="matrix(0.3557 -0.9346 0.9346 0.3557 -2.0443 183.8483)" class="st0" cx="132.3" cy="93.4" rx="60" ry="5"/>
	</g>
	<path class="st2" d="M153.7,37.3c2.6,1-4.8,26.9-16.6,57.9c7.1-22.1,17.4-52.9,14.8-53.8c-2.6-1-7.9,13.4-24.3,50.3
		C139.4,60.6,151.1,36.3,153.7,37.3z"/>
</g>
</svg>
