<?xml version="1.0" encoding="utf-8"?>
<!-- Generator: Adobe Illustrator 25.2.1, SVG Export Plug-In . SVG Version: 6.00 Build 0)  -->
<svg version="1.1" id="Layer_3" xmlns="http://www.w3.org/2000/svg" xmlns:xlink="http://www.w3.org/1999/xlink" x="0px" y="0px"
	 viewBox="0 0 200 200" style="enable-background:new 0 0 200 200;" xml:space="preserve">
<style type="text/css">
	.st0{fill:#D4CAB1;}
	.st1{fill:#E7E8E0;}
	.st2{opacity:0.5;fill:#AFACA7;}
	.st3{opacity:0.5;fill:#C6C6C4;}
	.st4{fill:#C6C6C4;}
	.st5{fill:#D1C6B8;}
	.st6{fill:#E8E3AF;}
</style>
<g>
	<path class="st0" d="M179.4,37.1c16.6,23.1,8.7,64.1-41.5,109.1c-48,43-91.9,41.4-114.5,24.1c-36.5-28.1,1.5-69,44.5-105.7
		S152.9,0.2,179.4,37.1z"/>
	
		<ellipse transform="matrix(0.7606 -0.6493 0.6493 0.7606 -39.7352 83.5618)" class="st1" cx="93.4" cy="95.7" rx="102.5" ry="51.5"/>
	<path class="st2" d="M179.4,37.1c16.6,23.1,8.7,64.1-41.5,109.1c-48,43-91.9,41.4-114.5,24.1C111.9,210.2,205.9,74.2,179.4,37.1z"
		/>
	<path class="st3" d="M171.4,29.1c18.5,21.6-1.5,69-44.5,105.7s-92.9,49-111.4,27.4C107.9,204.2,186.9,48.2,171.4,29.1z"/>
	<g>
		<g>
			<path class="st4" d="M28.5,128.8c0.9-1.8,2.5-3.2,4.4-3.8c0.6-0.2,0.3-1.2-0.3-1c-2.1,0.7-4,2.2-5,4.2c-0.1,0.2-0.1,0.5,0.2,0.7
				C28.1,129.1,28.4,129.1,28.5,128.8L28.5,128.8z"/>
		</g>
	</g>
	<g>
		<g>
			<path class="st4" d="M67.6,132.7c0.9-1.8,2.5-3.3,4.5-3.9c0.3-0.1,0.2-0.6-0.1-0.5c-2.1,0.7-3.8,2.2-4.8,4.1
				C67,132.8,67.5,133,67.6,132.7L67.6,132.7z"/>
		</g>
	</g>
	<g>
		<g>
			<path class="st4" d="M62.8,86.9c0.9-1.8,2.5-3.2,4.4-3.8c0.6-0.2,0.3-1.2-0.3-1c-2.1,0.7-4,2.2-5,4.2c-0.1,0.2-0.1,0.5,0.2,0.7
				C62.4,87.2,62.7,87.1,62.8,86.9L62.8,86.9z"/>
		</g>
	</g>
	<g>
		<g>
			<path class="st4" d="M37.8,152.9c0.9-1.8,2.5-3.2,4.4-3.8c0.6-0.2,0.3-1.2-0.3-1c-2.1,0.7-4,2.2-5,4.2c-0.1,0.2-0.1,0.5,0.2,0.7
				C37.4,153.2,37.7,153.1,37.8,152.9L37.8,152.9z"/>
		</g>
	</g>
	<g>
		<g>
			<path class="st4" d="M48.6,163.7c0.9-1.8,2.5-3.3,4.5-3.9c0.3-0.1,0.2-0.6-0.1-0.5c-2.1,0.7-3.8,2.2-4.8,4.1
				C48,163.8,48.5,164,48.6,163.7L48.6,163.7z"/>
		</g>
	</g>
	<g>
		<g>
			<path class="st5" d="M55.8,148.9c0.9-1.8,2.5-3.2,4.4-3.8c0.6-0.2,0.3-1.2-0.3-1c-2.1,0.7-4,2.2-5,4.2c-0.1,0.2-0.1,0.5,0.2,0.7
				C55.4,149.2,55.7,149.1,55.8,148.9L55.8,148.9z"/>
		</g>
	</g>
	<g>
		<g>
			<path class="st5" d="M28.8,141.9c0.9-1.8,2.5-3.2,4.4-3.8c0.6-0.2,0.3-1.2-0.3-1c-2.1,0.7-4,2.2-5,4.2c-0.1,0.2-0.1,0.5,0.2,0.7
				C28.4,142.2,28.7,142.1,28.8,141.9L28.8,141.9z"/>
		</g>
	</g>
	<g>
		<g>
			<path class="st5" d="M69.8,113.9c0.9-1.8,2.5-3.2,4.4-3.8c0.6-0.2,0.3-1.2-0.3-1c-2.1,0.7-4,2.2-5,4.2c-0.1,0.2-0.1,0.5,0.2,0.7
				C69.4,114.2,69.7,114.1,69.8,113.9L69.8,113.9z"/>
		</g>
	</g>
	<g>
		<g>
			<path class="st5" d="M39.6,122.7c0.9-1.8,2.5-3.3,4.5-3.9c0.3-0.1,0.2-0.6-0.1-0.5c-2.1,0.7-3.8,2.2-4.8,4.1
				C39,122.8,39.5,123,39.6,122.7L39.6,122.7z"/>
		</g>
	</g>
	<g>
		<g>
			<path class="st5" d="M49.8,98.9c0.9-1.8,2.5-3.2,4.4-3.8c0.6-0.2,0.3-1.2-0.3-1c-2.1,0.7-4,2.2-5,4.2c-0.1,0.2-0.1,0.5,0.2,0.7
				C49.4,99.2,49.7,99.1,49.8,98.9L49.8,98.9z"/>
		</g>
	</g>
	<g>
		<g>
			<path class="st5" d="M98.6,90.7c0.9-1.8,2.5-3.3,4.5-3.9c0.3-0.1,0.2-0.6-0.1-0.5c-2.1,0.7-3.8,2.2-4.8,4.1
				C98,90.8,98.5,91,98.6,90.7L98.6,90.7z"/>
		</g>
	</g>
	<g>
		<g>
			<path class="st5" d="M117.6,114.7c0.9-1.8,2.5-3.3,4.5-3.9c0.3-0.1,0.2-0.6-0.1-0.5c-2.1,0.7-3.8,2.2-4.8,4.1
				C117,114.8,117.5,115,117.6,114.7L117.6,114.7z"/>
		</g>
	</g>
	<g>
		<g>
			<path class="st5" d="M85.8,134.9c0.9-1.8,2.5-3.2,4.4-3.8c0.6-0.2,0.3-1.2-0.3-1c-2.1,0.7-4,2.2-5,4.2c-0.1,0.2-0.1,0.5,0.2,0.7
				C85.4,135.2,85.7,135.1,85.8,134.9L85.8,134.9z"/>
		</g>
	</g>
	<g>
		<g>
			<path class="st5" d="M75.6,79.7c0.9-1.8,2.5-3.3,4.5-3.9c0.3-0.1,0.2-0.6-0.1-0.5c-2.1,0.7-3.8,2.2-4.8,4.1
				C75,79.8,75.5,80,75.6,79.7L75.6,79.7z"/>
		</g>
	</g>
	<g>
		<g>
			<path class="st5" d="M53.8,75.9c0.9-1.8,2.5-3.2,4.4-3.8c0.6-0.2,0.3-1.2-0.3-1c-2.1,0.7-4,2.2-5,4.2c-0.1,0.2-0.1,0.5,0.2,0.7
				C53.4,76.2,53.7,76.1,53.8,75.9L53.8,75.9z"/>
		</g>
	</g>
	<g>
		<g>
			<path class="st5" d="M103.6,73.7c0.9-1.8,2.5-3.3,4.5-3.9c0.3-0.1,0.2-0.6-0.1-0.5c-2.1,0.7-3.8,2.2-4.8,4.1
				C103,73.8,103.5,74,103.6,73.7L103.6,73.7z"/>
		</g>
	</g>
	<g>
		<g>
			<path class="st5" d="M137.6,92.7c0.9-1.8,2.5-3.3,4.5-3.9c0.3-0.1,0.2-0.6-0.1-0.5c-2.1,0.7-3.8,2.2-4.8,4.1
				C137,92.8,137.5,93,137.6,92.7L137.6,92.7z"/>
		</g>
	</g>
	<g>
		<g>
			<path class="st5" d="M135.6,55.7c0.9-1.8,2.5-3.3,4.5-3.9c0.3-0.1,0.2-0.6-0.1-0.5c-2.1,0.7-3.8,2.2-4.8,4.1
				C135,55.8,135.5,56,135.6,55.7L135.6,55.7z"/>
		</g>
	</g>
	<g>
		<g>
			<path class="st5" d="M142.6,71.7c0.9-1.8,2.5-3.3,4.5-3.9c0.3-0.1,0.2-0.6-0.1-0.5c-2.1,0.7-3.8,2.2-4.8,4.1
				C142,71.8,142.5,72,142.6,71.7L142.6,71.7z"/>
		</g>
	</g>
	<g>
		<g>
			<path class="st5" d="M101.8,51.9c0.9-1.8,2.5-3.2,4.4-3.8c0.6-0.2,0.3-1.2-0.3-1c-2.1,0.7-4,2.2-5,4.2c-0.1,0.2-0.1,0.5,0.2,0.7
				C101.4,52.2,101.7,52.1,101.8,51.9L101.8,51.9z"/>
		</g>
	</g>
	<g>
		<g>
			<path class="st5" d="M126.8,38.9c0.9-1.8,2.5-3.2,4.4-3.8c0.6-0.2,0.3-1.2-0.3-1c-2.1,0.7-4,2.2-5,4.2c-0.1,0.2-0.1,0.5,0.2,0.7
				C126.4,39.2,126.7,39.1,126.8,38.9L126.8,38.9z"/>
		</g>
	</g>
	<g>
		<g>
			<path class="st5" d="M149.8,46.9c0.9-1.8,2.5-3.2,4.4-3.8c0.6-0.2,0.3-1.2-0.3-1c-2.1,0.7-4,2.2-5,4.2c-0.1,0.2-0.1,0.5,0.2,0.7
				C149.4,47.2,149.7,47.1,149.8,46.9L149.8,46.9z"/>
		</g>
	</g>
	<g>
		<g>
			<path class="st5" d="M85.8,66.9c0.9-1.8,2.5-3.2,4.4-3.8c0.6-0.2,0.3-1.2-0.3-1c-2.1,0.7-4,2.2-5,4.2c-0.1,0.2-0.1,0.5,0.2,0.7
				C85.4,67.2,85.7,67.1,85.8,66.9L85.8,66.9z"/>
		</g>
	</g>
	<g>
		<g>
			<path class="st5" d="M89.8,109.9c0.9-1.8,2.5-3.2,4.4-3.8c0.6-0.2,0.3-1.2-0.3-1c-2.1,0.7-4,2.2-5,4.2c-0.1,0.2-0.1,0.5,0.2,0.7
				C89.4,110.2,89.7,110.1,89.8,109.9L89.8,109.9z"/>
		</g>
	</g>
	<g>
		<g>
			<path class="st5" d="M78.8,156.9c0.9-1.8,2.5-3.2,4.4-3.8c0.6-0.2,0.3-1.2-0.3-1c-2.1,0.7-4,2.2-5,4.2c-0.1,0.2-0.1,0.5,0.2,0.7
				C78.4,157.2,78.7,157.1,78.8,156.9L78.8,156.9z"/>
		</g>
	</g>
	<g>
		<g>
			<path class="st6" d="M67.8,99.9c0.9-1.8,2.5-3.2,4.4-3.8c0.6-0.2,0.3-1.2-0.3-1c-2.1,0.7-4,2.2-5,4.2c-0.1,0.2-0.1,0.5,0.2,0.7
				C67.4,100.2,67.7,100.1,67.8,99.9L67.8,99.9z"/>
		</g>
	</g>
	<g>
		<g>
			<path class="st6" d="M15.6,140.7c0.9-1.8,2.5-3.3,4.5-3.9c0.3-0.1,0.2-0.6-0.1-0.5c-2.1,0.7-3.8,2.2-4.8,4.1
				C15,140.8,15.5,141,15.6,140.7L15.6,140.7z"/>
		</g>
	</g>
	<g>
		<g>
			<path class="st6" d="M23.8,160.9c0.9-1.8,2.5-3.2,4.4-3.8c0.6-0.2,0.3-1.2-0.3-1c-2.1,0.7-4,2.2-5,4.2c-0.1,0.2-0.1,0.5,0.2,0.7
				C23.4,161.2,23.7,161.1,23.8,160.9L23.8,160.9z"/>
		</g>
	</g>
	<g>
		<g>
			<path class="st6" d="M105.8,135.9c0.9-1.8,2.5-3.2,4.4-3.8c0.6-0.2,0.3-1.2-0.3-1c-2.1,0.7-4,2.2-5,4.2c-0.1,0.2-0.1,0.5,0.2,0.7
				C105.4,136.2,105.7,136.1,105.8,135.9L105.8,135.9z"/>
		</g>
	</g>
	<g>
		<g>
			<path class="st6" d="M114.8,101.9c0.9-1.8,2.5-3.2,4.4-3.8c0.6-0.2,0.3-1.2-0.3-1c-2.1,0.7-4,2.2-5,4.2c-0.1,0.2-0.1,0.5,0.2,0.7
				C114.4,102.2,114.7,102.1,114.8,101.9L114.8,101.9z"/>
		</g>
	</g>
	<g>
		<g>
			<path class="st6" d="M115.8,65.9c0.9-1.8,2.5-3.2,4.4-3.8c0.6-0.2,0.3-1.2-0.3-1c-2.1,0.7-4,2.2-5,4.2c-0.1,0.2-0.1,0.5,0.2,0.7
				C115.4,66.2,115.7,66.1,115.8,65.9L115.8,65.9z"/>
		</g>
	</g>
	<g>
		<g>
			<path class="st6" d="M134.8,79.9c0.9-1.8,2.5-3.2,4.4-3.8c0.6-0.2,0.3-1.2-0.3-1c-2.1,0.7-4,2.2-5,4.2c-0.1,0.2-0.1,0.5,0.2,0.7
				C134.4,80.2,134.7,80.1,134.8,79.9L134.8,79.9z"/>
		</g>
	</g>
	<g>
		<g>
			<path class="st6" d="M115.6,45.7c0.9-1.8,2.5-3.3,4.5-3.9c0.3-0.1,0.2-0.6-0.1-0.5c-2.1,0.7-3.8,2.2-4.8,4.1
				C115,45.8,115.5,46,115.6,45.7L115.6,45.7z"/>
		</g>
	</g>
	<g>
		<g>
			<path class="st6" d="M162.8,48.9c0.9-1.8,2.5-3.2,4.4-3.8c0.6-0.2,0.3-1.2-0.3-1c-2.1,0.7-4,2.2-5,4.2c-0.1,0.2-0.1,0.5,0.2,0.7
				C162.4,49.2,162.7,49.1,162.8,48.9L162.8,48.9z"/>
		</g>
	</g>
	<g>
		<g>
			<path class="st6" d="M89.8,42.9c0.9-1.8,2.5-3.2,4.4-3.8c0.6-0.2,0.3-1.2-0.3-1c-2.1,0.7-4,2.2-5,4.2c-0.1,0.2-0.1,0.5,0.2,0.7
				C89.4,43.2,89.7,43.1,89.8,42.9L89.8,42.9z"/>
		</g>
	</g>
	<g>
		<g>
			<path class="st6" d="M30.8,97.9c0.9-1.8,2.5-3.2,4.4-3.8c0.6-0.2,0.3-1.2-0.3-1c-2.1,0.7-4,2.2-5,4.2c-0.1,0.2-0.1,0.5,0.2,0.7
				C30.4,98.2,30.7,98.1,30.8,97.9L30.8,97.9z"/>
		</g>
	</g>
	<g>
		<g>
			<path class="st4" d="M88.8,82.9c0.9-1.8,2.5-3.2,4.4-3.8c0.6-0.2,0.3-1.2-0.3-1c-2.1,0.7-4,2.2-5,4.2c-0.1,0.2-0.1,0.5,0.2,0.7
				C88.4,83.2,88.7,83.1,88.8,82.9L88.8,82.9z"/>
		</g>
	</g>
	<g>
		<g>
			<path class="st4" d="M53.6,108.7c0.9-1.8,2.5-3.3,4.5-3.9c0.3-0.1,0.2-0.6-0.1-0.5c-2.1,0.7-3.8,2.2-4.8,4.1
				C53,108.8,53.5,109,53.6,108.7L53.6,108.7z"/>
		</g>
	</g>
	<g>
		<g>
			<path class="st4" d="M69.7,68.8c0.9-1.8,2.5-3.2,4.4-3.8c0.6-0.2,0.3-1.2-0.3-1c-2.1,0.7-4,2.2-5,4.2c-0.1,0.2-0.1,0.5,0.2,0.7
				C69.2,69.1,69.6,69.1,69.7,68.8L69.7,68.8z"/>
		</g>
	</g>
	<g>
		<g>
			<path class="st4" d="M110,79.9c0.9-1.8,2.5-3.2,4.4-3.8c0.6-0.2,0.3-1.2-0.3-1c-2.1,0.7-4,2.2-5,4.2c-0.1,0.2-0.1,0.5,0.2,0.7
				C109.5,80.2,109.9,80.1,110,79.9L110,79.9z"/>
		</g>
	</g>
	<g>
		<g>
			<path class="st4" d="M110,39.9c0.9-1.8,2.5-3.2,4.4-3.8c0.6-0.2,0.3-1.2-0.3-1c-2.1,0.7-4,2.2-5,4.2c-0.1,0.2-0.1,0.5,0.2,0.7
				C109.5,40.2,109.9,40.1,110,39.9L110,39.9z"/>
		</g>
	</g>
	<g>
		<g>
			<path class="st4" d="M79.8,99.7c0.9-1.8,2.5-3.3,4.5-3.9c0.3-0.1,0.2-0.6-0.1-0.5c-2.1,0.7-3.8,2.2-4.8,4.1
				C79.2,99.8,79.6,100,79.8,99.7L79.8,99.7z"/>
		</g>
	</g>
	<g>
		<g>
			<path class="st4" d="M139.8,39.7c0.9-1.8,2.5-3.3,4.5-3.9c0.3-0.1,0.2-0.6-0.1-0.5c-2.1,0.7-3.8,2.2-4.8,4.1
				C139.2,39.8,139.6,40,139.8,39.7L139.8,39.7z"/>
		</g>
	</g>
	<g>
		<g>
			<path class="st4" d="M101,61.9c0.9-1.8,2.5-3.2,4.4-3.8c0.6-0.2,0.3-1.2-0.3-1c-2.1,0.7-4,2.2-5,4.2c-0.1,0.2-0.1,0.5,0.2,0.7
				C100.5,62.2,100.9,62.1,101,61.9L101,61.9z"/>
		</g>
	</g>
	<g>
		<g>
			<path class="st4" d="M100.7,107.8c0.9-1.8,2.5-3.2,4.4-3.8c0.6-0.2,0.3-1.2-0.3-1c-2.1,0.7-4,2.2-5,4.2c-0.1,0.2-0.1,0.5,0.2,0.7
				C100.2,108.1,100.6,108.1,100.7,107.8L100.7,107.8z"/>
		</g>
	</g>
	<g>
		<g>
			<path class="st4" d="M131,106.9c0.9-1.8,2.5-3.2,4.4-3.8c0.6-0.2,0.3-1.2-0.3-1c-2.1,0.7-4,2.2-5,4.2c-0.1,0.2-0.1,0.5,0.2,0.7
				C130.5,107.2,130.9,107.1,131,106.9L131,106.9z"/>
		</g>
	</g>
	<g>
		<g>
			<path class="st4" d="M131,66.9c0.9-1.8,2.5-3.2,4.4-3.8c0.6-0.2,0.3-1.2-0.3-1c-2.1,0.7-4,2.2-5,4.2c-0.1,0.2-0.1,0.5,0.2,0.7
				C130.5,67.2,130.9,67.1,131,66.9L131,66.9z"/>
		</g>
	</g>
	<g>
		<g>
			<path class="st4" d="M101,126.9c0.9-1.8,2.5-3.2,4.4-3.8c0.6-0.2,0.3-1.2-0.3-1c-2.1,0.7-4,2.2-5,4.2c-0.1,0.2-0.1,0.5,0.2,0.7
				C100.5,127.2,100.9,127.1,101,126.9L101,126.9z"/>
		</g>
	</g>
	<g>
		<g>
			<path class="st4" d="M161,66.9c0.9-1.8,2.5-3.2,4.4-3.8c0.6-0.2,0.3-1.2-0.3-1c-2.1,0.7-4,2.2-5,4.2c-0.1,0.2-0.1,0.5,0.2,0.7
				C160.5,67.2,160.9,67.1,161,66.9L161,66.9z"/>
		</g>
	</g>
	<g>
		<g>
			<path class="st4" d="M122,88.9c0.9-1.8,2.5-3.2,4.4-3.8c0.6-0.2,0.3-1.2-0.3-1c-2.1,0.7-4,2.2-5,4.2c-0.1,0.2-0.1,0.5,0.2,0.7
				C121.5,89.2,121.9,89.1,122,88.9L122,88.9z"/>
		</g>
	</g>
	<g>
		<g>
			<path class="st4" d="M12.7,126.8c0.9-1.8,2.5-3.2,4.4-3.8c0.6-0.2,0.3-1.2-0.3-1c-2.1,0.7-4,2.2-5,4.2c-0.1,0.2-0.1,0.5,0.2,0.7
				C12.2,127.1,12.6,127.1,12.7,126.8L12.7,126.8z"/>
		</g>
	</g>
	<g>
		<g>
			<path class="st4" d="M47,137.9c0.9-1.8,2.5-3.2,4.4-3.8c0.6-0.2,0.3-1.2-0.3-1c-2.1,0.7-4,2.2-5,4.2c-0.1,0.2-0.1,0.5,0.2,0.7
				C46.5,138.2,46.9,138.1,47,137.9L47,137.9z"/>
		</g>
	</g>
	<g>
		<g>
			<path class="st4" d="M66,150.9c0.9-1.8,2.5-3.2,4.4-3.8c0.6-0.2,0.3-1.2-0.3-1c-2.1,0.7-4,2.2-5,4.2c-0.1,0.2-0.1,0.5,0.2,0.7
				C65.5,151.2,65.9,151.1,66,150.9L66,150.9z"/>
		</g>
	</g>
	<g>
		<g>
			<path class="st4" d="M41.8,88.7c0.9-1.8,2.5-3.3,4.5-3.9c0.3-0.1,0.2-0.6-0.1-0.5c-2.1,0.7-3.8,2.2-4.8,4.1
				C41.2,88.8,41.6,89,41.8,88.7L41.8,88.7z"/>
		</g>
	</g>
	<g>
		<g>
			<path class="st4" d="M19,150.9c0.9-1.8,2.5-3.2,4.4-3.8c0.6-0.2,0.3-1.2-0.3-1c-2.1,0.7-4,2.2-5,4.2c-0.1,0.2-0.1,0.5,0.2,0.7
				C18.5,151.2,18.9,151.1,19,150.9L19,150.9z"/>
		</g>
	</g>
	<g>
		<g>
			<path class="st4" d="M81,119.9c0.9-1.8,2.5-3.2,4.4-3.8c0.6-0.2,0.3-1.2-0.3-1c-2.1,0.7-4,2.2-5,4.2c-0.1,0.2-0.1,0.5,0.2,0.7
				C80.5,120.2,80.9,120.1,81,119.9L81,119.9z"/>
		</g>
	</g>
	<g>
		<g>
			<path class="st4" d="M90.8,143.7c0.9-1.8,2.5-3.3,4.5-3.9c0.3-0.1,0.2-0.6-0.1-0.5c-2.1,0.7-3.8,2.2-4.8,4.1
				C90.2,143.8,90.6,144,90.8,143.7L90.8,143.7z"/>
		</g>
	</g>
	<g>
		<g>
			<path class="st4" d="M58,122.9c0.9-1.8,2.5-3.2,4.4-3.8c0.6-0.2,0.3-1.2-0.3-1c-2.1,0.7-4,2.2-5,4.2c-0.1,0.2-0.1,0.5,0.2,0.7
				C57.5,123.2,57.9,123.1,58,122.9L58,122.9z"/>
		</g>
	</g>
	<g>
		<g>
			<path class="st4" d="M147,80.9c0.9-1.8,2.5-3.2,4.4-3.8c0.6-0.2,0.3-1.2-0.3-1c-2.1,0.7-4,2.2-5,4.2c-0.1,0.2-0.1,0.5,0.2,0.7
				C146.5,81.2,146.9,81.1,147,80.9L147,80.9z"/>
		</g>
	</g>
	<g>
		<g>
			<path class="st4" d="M160,40.9c0.9-1.8,2.5-3.2,4.4-3.8c0.6-0.2,0.3-1.2-0.3-1c-2.1,0.7-4,2.2-5,4.2c-0.1,0.2-0.1,0.5,0.2,0.7
				C159.5,41.2,159.9,41.1,160,40.9L160,40.9z"/>
		</g>
	</g>
	<g>
		<g>
			<path class="st4" d="M153,28.9c0.9-1.8,2.5-3.2,4.4-3.8c0.6-0.2,0.3-1.2-0.3-1c-2.1,0.7-4,2.2-5,4.2c-0.1,0.2-0.1,0.5,0.2,0.7
				C152.5,29.2,152.9,29.1,153,28.9L153,28.9z"/>
		</g>
	</g>
	<g>
		<g>
			<path class="st4" d="M73,54.9c0.9-1.8,2.5-3.2,4.4-3.8c0.6-0.2,0.3-1.2-0.3-1c-2.1,0.7-4,2.2-5,4.2C72,54.6,72,54.9,72.3,55
				C72.5,55.2,72.9,55.1,73,54.9L73,54.9z"/>
		</g>
	</g>
	<g>
		<g>
			<path class="st4" d="M21.8,106.7c0.9-1.8,2.5-3.3,4.5-3.9c0.3-0.1,0.2-0.6-0.1-0.5c-2.1,0.7-3.8,2.2-4.8,4.1
				C21.2,106.8,21.6,107,21.8,106.7L21.8,106.7z"/>
		</g>
	</g>
	<g>
		<g>
			<path class="st4" d="M86.8,52.7c0.9-1.8,2.5-3.3,4.5-3.9c0.3-0.1,0.2-0.6-0.1-0.5c-2.1,0.7-3.8,2.2-4.8,4.1
				C86.2,52.8,86.6,53,86.8,52.7L86.8,52.7z"/>
		</g>
	</g>
	<g>
		<g>
			<path class="st4" d="M149.8,56.7c0.9-1.8,2.5-3.3,4.5-3.9c0.3-0.1,0.2-0.6-0.1-0.5c-2.1,0.7-3.8,2.2-4.8,4.1
				C149.2,56.8,149.6,57,149.8,56.7L149.8,56.7z"/>
		</g>
	</g>
	<g>
		<g>
			<path class="st4" d="M122,52.9c0.9-1.8,2.5-3.2,4.4-3.8c0.6-0.2,0.3-1.2-0.3-1c-2.1,0.7-4,2.2-5,4.2c-0.1,0.2-0.1,0.5,0.2,0.7
				C121.5,53.2,121.9,53.1,122,52.9L122,52.9z"/>
		</g>
	</g>
	<g>
		<g>
			<path class="st4" d="M134,28.9c0.9-1.8,2.5-3.2,4.4-3.8c0.6-0.2,0.3-1.2-0.3-1c-2.1,0.7-4,2.2-5,4.2c-0.1,0.2-0.1,0.5,0.2,0.7
				C133.5,29.2,133.9,29.1,134,28.9L134,28.9z"/>
		</g>
	</g>
	<g>
		<g>
			<path class="st4" d="M34,108.9c0.9-1.8,2.5-3.2,4.4-3.8c0.6-0.2,0.3-1.2-0.3-1c-2.1,0.7-4,2.2-5,4.2c-0.1,0.2-0.1,0.5,0.2,0.7
				C33.5,109.2,33.9,109.1,34,108.9L34,108.9z"/>
		</g>
	</g>
</g>
</svg>
