<?xml version="1.0" encoding="utf-8"?>
<!-- Generator: Adobe Illustrator 25.2.1, SVG Export Plug-In . SVG Version: 6.00 Build 0)  -->
<svg version="1.1" id="Layer_3" xmlns="http://www.w3.org/2000/svg" xmlns:xlink="http://www.w3.org/1999/xlink" x="0px" y="0px"
	 viewBox="0 0 200 200" style="enable-background:new 0 0 200 200;" xml:space="preserve">
<style type="text/css">
	.st0{fill:#A09C99;}
	.st1{clip-path:url(#SVGID_3_);}
	.st2{fill:#C4B4A5;}
	.st3{fill:#828D93;}
	.st4{opacity:0.16;clip-path:url(#SVGID_5_);}
	.st5{fill:#EC7E65;}
	.st6{clip-path:url(#SVGID_7_);}
	.st7{clip-path:url(#SVGID_9_);}
	.st8{fill:#EB715C;}
	.st9{clip-path:url(#SVGID_11_);}
	.st10{clip-path:url(#SVGID_13_);}
	.st11{clip-path:url(#SVGID_15_);}
	.st12{fill:#F38564;}
	.st13{fill:#FEEBDA;}
	.st14{fill:#EBBEA7;}
	.st15{clip-path:url(#SVGID_17_);fill:#FDE8D7;}
	.st16{clip-path:url(#SVGID_19_);}
	.st17{fill:#FDE8D7;}
	.st18{clip-path:url(#SVGID_21_);}
	.st19{clip-path:url(#SVGID_23_);}
	.st20{clip-path:url(#SVGID_25_);}
	.st21{opacity:0.61;fill:#FDE8D7;enable-background:new    ;}
	.st22{opacity:0.32;clip-path:url(#SVGID_27_);}
	.st23{clip-path:url(#SVGID_29_);}
	.st24{opacity:0.61;}
</style>
<g>
	<g>
		<g>
			<path id="SVGID_2_" class="st0" d="M20.6,134.9c4,7.1,8.4,11.5,14.7,16.3c1,0.8,8,1.1,16.9-7.7c3.3-3.3,11.5-14.6,14.2-18.2
				c8.8-11.5,9.8-14.4,21.1-23.6c7.3-5.9,16.1-11.1,25.5-11.1c0.8-1.9-0.6-4.2-1-6.3c-0.8-3.6-1.1-7.7-3.6-10.1
				c-2.1-2.1-5.6-2.9-8.4-2.3c-3.1,0.4-5.7,1.9-8.4,3.3c-6.3,3.4-12.6,7.1-18.4,11.3c-4.4,3.3-8.6,6.9-12.6,10.7
				c-4.4,4-9,7.9-13.4,11.9C37.6,117.1,27.8,125.3,20.6,134.9z"/>
		</g>
		<g>
			<defs>
				<path id="SVGID_1_" d="M20.6,134.9c4,7.1,8.4,11.5,14.7,16.3c1,0.8,8,1.1,16.9-7.7c3.3-3.3,11.5-14.6,14.2-18.2
					c8.8-11.5,9.8-14.4,21.1-23.6c7.3-5.9,16.1-11.1,25.5-11.1c0.8-1.9-0.6-4.2-1-6.3c-0.8-3.6-1.1-7.7-3.6-10.1
					c-2.1-2.1-5.6-2.9-8.4-2.3c-3.1,0.4-5.7,1.9-8.4,3.3c-6.3,3.4-12.6,7.1-18.4,11.3c-4.4,3.3-8.6,6.9-12.6,10.7
					c-4.4,4-9,7.9-13.4,11.9C37.6,117.1,27.8,125.3,20.6,134.9z"/>
			</defs>
			<clipPath id="SVGID_3_">
				<use xlink:href="#SVGID_1_"  style="overflow:visible;"/>
			</clipPath>
			<g class="st1">
				<path class="st2" d="M78.8,104.4c0.8,4.6,6.5,6.3,10.1,4c1-0.2,1.7-0.6,2.5-1.1c0.4,0,0.8,0,1.1-0.2c3.1-0.6,4.8-2.7,5.4-5.2
					c1.7-0.4,3.4-1.3,4.4-2.9c0.6,0,1.1,0,1.9-0.2c0.4,0,0.8-0.2,1.1-0.4c0.4,0,0.8,0,1.1,0c7.1-0.8,8.4-8,5.4-13.4
					c-0.2-0.4-0.6-1-0.8-1.3c-0.2-0.6-0.4-1.1-0.6-1.7c-1.5-4.6-3.8-9.2-7.7-12.3c-2.5-2.1-6.5-4.8-9.6-1.9c-1,1-0.6,2.5,0.4,3.3
					c-0.8,0-1.5,0-2.1,0.2c-1.3-0.2-2.7,0-4,0.4c-3.1-0.8-6.5,1-8.2,3.6c-1.9,1-3.6,2.7-4,4.8c-0.6,0.8-1.1,1.7-1.3,2.9
					c0,0.4-0.2,0.8-0.2,1.1c-0.8,0.4-1.7,0.8-2.3,1.5c-3.1,2.9-2.7,7.3-0.2,10.5C73.6,99.5,76.1,102.1,78.8,104.4z M96.2,71.7
					c-0.4-0.2-0.6-0.2-1-0.4l0,0C95.6,71.3,96,71.5,96.2,71.7z"/>
				<path class="st3" d="M19.2,143.3c-2.5-3.3-2.9-7.5,0.2-10.5c0.4-0.4,1-0.8,1.5-1.1c0.2-0.2,0.4-0.6,0.8-0.8
					c2.1-1.9,5.2-2.5,7.9-1.5c0.2-0.2,0.4-0.4,0.6-0.4c1.1-0.8,2.7-1.3,4-1.3c0.6-0.6,1.1-1.1,1.9-1.5c1.7-1,3.6-1,5.2-0.6
					c0.6-0.4,1.1-0.8,1.9-1c0.4-1.9,2.9-2.3,4-0.6c0.2,0.2,0.4,0.6,0.6,0.8c1.1,0.6,2.1,1.3,2.9,2.7c2.1,3.6,4.2,7.5,6.3,11.1
					c0.4,0.6,0.8,1.1,1,1.9c0.8,1.1,1.5,2.5,2.3,3.6c0,0,0,0-0.2,0c1.1,2.3,1.1,5.2-1,7.1c-1,1-2.3,1.5-3.6,1.5
					c-1,1.3-2.3,2.5-3.6,3.1c-0.6,0.2-1,0.4-1.5,0.4c-1.5,1.5-3.8,2.5-5.9,2.3c-0.6,2.7-3.8,4.4-6.3,3.6
					C29.6,159.4,24.4,150,19.2,143.3z"/>
			</g>
		</g>
	</g>
	<g>
		<g>
			<defs>
				<path id="SVGID_4_" d="M20.6,134.9c4,7.1,8.4,11.5,14.7,16.3c1,0.8,8,1.1,16.9-7.7c3.3-3.3,11.5-14.6,14.2-18.2
					c8.8-11.5,9.8-14.4,21.1-23.6c7.3-5.9,16.1-11.1,25.5-11.1c0.8-1.9-0.6-4.2-1-6.3c-0.8-3.6-1.1-7.7-3.6-10.1
					c-2.1-2.1-5.6-2.9-8.4-2.3c-3.1,0.4-5.7,1.9-8.4,3.3c-6.3,3.4-12.6,7.1-18.4,11.3c-4.4,3.3-8.6,6.9-12.6,10.7
					c-4.4,4-9,7.9-13.4,11.9C37.6,117.1,27.8,125.3,20.6,134.9z"/>
			</defs>
			<clipPath id="SVGID_5_">
				<use xlink:href="#SVGID_4_"  style="overflow:visible;"/>
			</clipPath>
			<g class="st4">
				<path class="st0" d="M119.2,88.2c-1.9,1.3-3.6,3.1-5.7,4.4c-1.9,1.3-4,2.3-6.1,3.4c-3.8,2.1-7.9,4.4-11.3,7.1
					c-7.1,5.7-12.3,13.6-17.6,21.1c-5.7,8-11.1,16.7-17.6,24.3c-5.4,6.3-12.4,11.7-20.9,12.8c-3.8,0.6-7.7,0.4-11.1-1
					c-3.6-1.3-8.8-3.8-10.9-7.1s-0.4-7.1,3.1-8.6c5-2.5,8.2,1.3,12.4,3.1c6.1,2.5,13-2.5,17-6.7c6.3-6.5,11.5-14.6,17-22
					c6.3-8.4,12.3-17.6,20.7-24.1c4-3.1,8.4-5.4,13.2-7.5c2.5-1.1,5-2.1,7.7-2.9c2.7-1,5.4-1.1,8-1.9
					C120.5,81.6,121.7,86.2,119.2,88.2L119.2,88.2z"/>
			</g>
		</g>
	</g>
	<path class="st0" d="M65.6,157.9c-1.7,4-1.1,8.8,0.6,12.8c1.9,4,5,7.5,7.9,10.7c2.1,2.1,3.1,4.8,5.9,5.9c2.5,1,4.8,1,7.3,1
		c13.8-0.4,27.2-4.8,38.9-11.7c12.1-6.9,22.2-16.3,31.2-26.6c14.2-16.7,25.5-37.3,24.1-59.2c-0.6-9.6-3.4-18.8-4.8-28.2
		c-1.3-9.6,1.7-28.5,1.1-29.3c-3.8-3.6-7.5-8.6-9.4-13.6c-6.3,1.1-10.1,8-12.1,14.2c-4.8,14.2-5.9,29.3-11.1,43.3
		c-2.1,5.7-4.8,11.1-7.9,16.3C120.9,121.9,95.4,145,65.6,157.9z"/>
	<path class="st5" d="M20,135.6c2.1,4.2,7.5,5.9,12.1,5.4c4.6-0.8,8.6-3.4,12.1-6.7c7.1-6.5,12.4-14.7,17.8-22.8s10.7-16.3,18-22.6
		c7.3-6.3,17.2-11.7,26.8-11.1c0.6,0.6,0.8,1.5,0.8,2.3c0.6,4.8,1.1,10-0.2,14.6c-1.1,3.8-3.4,7.3-5.7,10.7
		c-2.3,3.3-4.2,6.7-6.9,9.8c-5.7,6.5-11.7,12.8-17.4,19.3c-6.1,6.9-12.6,14.2-14,23.2c-0.4,2.7-0.4,5.7,0.6,8.2
		c0.6,1.5,1.5,2.9,2.7,4.2c4,4.6,10.5,6.9,16.5,5.9c2.1-0.4,4-1,5.9-1.7c7.3-2.5,14.7-5.2,21.3-9.2c5.7-3.4,10.7-7.7,15.7-12.1
		c7.5-6.5,14.7-13.4,20.9-21.4c6.1-7.9,9.8-17.2,13.6-26.4c5.4-13,5.6-27.6,5-41.7c-0.2-5.9-0.6-12.1-1.1-18
		c-0.2-2.7-0.4-5.4-0.4-7.9c0.2-5.2,1.5-10.1,4-14.7c0.6-1,1-2.3,0.2-3.1c-0.4-0.2-0.8-0.4-1-0.4c-2.7-0.4-5.6,0-8.2,0.6
		c-11.1,2.1-22.6,3.8-33.1,0c-13-4.8-28.7-1.9-41.6,3.8C74.8,28,66.5,34.7,58.7,41.4c-10.3,9-20.7,18.2-28.3,29.7
		C18.3,89.3,10,116.1,20,135.6z"/>
	<g>
		<g>
			<defs>
				<path id="SVGID_6_" d="M65.6,157.9c-1.7,4-1.1,8.8,0.6,12.8c1.9,4,5,7.5,7.9,10.7c2.1,2.1,3.1,4.8,5.9,5.9c2.5,1,4.8,1,7.3,1
					c13.8-0.4,27.2-4.8,38.9-11.7c12.1-6.9,22.2-16.3,31.2-26.6c14.2-16.7,25.5-37.3,24.1-59.2c-0.6-9.6-3.4-18.8-4.8-28.2
					c-1.3-9.6,1.7-28.5,1.1-29.3c-3.8-3.6-7.5-8.6-9.4-13.6c-6.3,1.1-10.1,8-12.1,14.2c-4.8,14.2-5.9,29.3-11.1,43.3
					c-2.1,5.7-4.8,11.1-7.9,16.3C120.9,121.9,95.4,145,65.6,157.9z"/>
			</defs>
			<clipPath id="SVGID_7_">
				<use xlink:href="#SVGID_6_"  style="overflow:visible;"/>
			</clipPath>
			<g class="st6">
				<path class="st3" d="M76.5,197.3c-5.4-8.4-10.3-17.2-15.5-25.9c-4.2-7.1,6.7-15.3,11.9-8.6c0.2,0.2,0.4,0.6,0.6,0.8l0,0
					c1.5-0.6,3.1-0.6,4.4-0.2c0.8-0.2,1.5-0.4,2.3-0.4c1-0.8,2.1-1.3,3.4-1.5c0.4-0.4,0.6-0.6,1-1c2.3-1.5,5.9-1.9,8.4-0.4
					c0,0,0.2,0,0.2-0.2c1.5-0.8,3.1-1,4.4-0.8c1.1-0.8,2.5-1.1,3.8-1c0.6-1.9,2.9-3.1,4.6-1.1c3.6,4.2,6.1,9,9.2,13.6
					c3.1,4.6,6.1,9.4,9,14.2c3.6,5.9-5.2,12.8-10,8.2c-0.6,0.8-1.3,1.5-2.3,1.9c-1.3,4-6.7,6.5-10.9,4.4c-1.1,0.4-2.5,0.6-3.6,0.2
					c-2.9,1.9-6.7,2.1-9.2-1l0,0c-0.6,0.8-1.3,1.3-2.1,1.7C82.6,202.3,78.6,200.8,76.5,197.3z"/>
				<path class="st2" d="M154.6,102.9c-0.4-1.3,0-2.9,0.8-4.2c-0.2-0.8-0.4-1.3-0.6-2.1c-0.2-0.8-0.2-1.3-0.2-2.1
					c-0.6-1.5-0.8-3.3-1-5c0-1,0.2-1.9,0.6-2.7c0-0.6,0.2-1.1,0.2-1.7c0.4-1.5,1.1-2.9,2.1-3.8c-0.8-1.5-1.5-3.3-2.1-5
					c-0.8-1.9-0.2-4,1-5.7c-0.2-1.9,0.4-3.6,1.5-5.2c-0.6-1.7-1-3.4-1-5.4c0-0.8,0-1.3,0.4-2.1c-0.2-1.3,0-2.5,0.4-3.8
					c-0.4-0.8-0.6-1.7-0.6-2.5c-0.6-0.6-1-1.1-1.5-1.5c-5.6-5.9,1.9-16.1,9.2-11.5c4,2.7,7.9,5.7,10.9,9.6c0.4,0.6,0.8,1.1,1.1,1.7
					c2.7,2.5,5.2,4.8,7.7,7.5c0.8,0.8,1.1,1.5,1.5,2.5c1.5,1.5,3.1,2.9,4.6,4.4c2.1,2.1,2.5,5.4,1.5,7.9c0.6,1.7,0.6,3.8-0.2,5.6
					c1,1.7,1.1,3.6,0.6,5.6c1.1,1.7,1.1,3.8,0.6,5.6c1.9,3.1,1.3,6.1-0.4,8.2c0.2,2.3-0.6,4.2-1.9,5.7c0,1.7-0.8,3.6-2.1,5
					c0,0-0.2,0-0.2,0.2c0.2,0.2,0.4,0.4,0.6,0.8c1.7,2.5,0.8,6.7-1.3,8.6c-0.4,0.4-0.8,0.6-1.1,0.8c1.3,3.4,0,6.7-2.5,8.6
					c0.8,1.5,1.5,3.1,2.1,4.6c2.5,5.6-4.4,11.3-9,6.5c-9-9.2-16.3-19.5-22.4-30.8C153.5,105.2,153.7,103.9,154.6,102.9z"/>
			</g>
		</g>
	</g>
	<g>
		<g>
			<defs>
				<path id="SVGID_8_" d="M20,135.6c2.1,4.2,7.5,5.9,12.1,5.4c4.6-0.8,8.6-3.4,12.1-6.7c7.1-6.5,12.4-14.7,17.8-22.8
					s10.7-16.3,18-22.6c7.3-6.3,17.2-11.7,26.8-11.1c0.6,0.6,0.8,1.5,0.8,2.3c0.6,4.8,1.1,10-0.2,14.6c-1.1,3.8-3.4,7.3-5.7,10.7
					c-2.3,3.3-4.2,6.7-6.9,9.8c-5.7,6.5-11.7,12.8-17.4,19.3c-6.1,6.9-12.6,14.2-14,23.2c-0.4,2.7-0.4,5.7,0.6,8.2
					c0.6,1.5,1.5,2.9,2.7,4.2c4,4.6,10.5,6.9,16.5,5.9c2.1-0.4,4-1,5.9-1.7c7.3-2.5,14.7-5.2,21.3-9.2c5.7-3.4,10.7-7.7,15.7-12.1
					c7.5-6.5,14.7-13.4,20.9-21.4c6.1-7.9,9.8-17.2,13.6-26.4c5.4-13,5.6-27.6,5-41.7c-0.2-5.9-0.6-12.1-1.1-18
					c-0.2-2.7-0.4-5.4-0.4-7.9c0.2-5.2,1.5-10.1,4-14.7c0.6-1,1-2.3,0.2-3.1c-0.4-0.2-0.8-0.4-1-0.4c-2.7-0.4-5.6,0-8.2,0.6
					c-11.1,2.1-22.6,3.8-33.1,0c-13-4.8-28.7-1.9-41.6,3.8C74.8,28,66.5,34.7,58.7,41.4c-10.3,9-20.7,18.2-28.3,29.7
					C18.3,89.3,10,116.1,20,135.6z"/>
			</defs>
			<clipPath id="SVGID_9_">
				<use xlink:href="#SVGID_8_"  style="overflow:visible;"/>
			</clipPath>
			<g class="st7">
				<path class="st8" d="M176.3,10c-0.6,4-2.1,7.5-4.8,10.7c-2.9,3.8-6.5,6.9-10.3,9.8c-7.3,5.6-15.9,9.6-25.3,8.6
					c-4.4-0.4-8.6-1.5-12.8-2.7c-1.5-0.4-3.3-0.8-5-1.1c-1-0.2-1.9-0.4-3.1-0.6c1.9,0.4-1-0.2-1.3-0.2c-3.6-0.4-7.3-0.6-11.1-0.6
					c-1.9,0-4,0-5.9,0.2c-0.6,0-1.3,0.2-1.9,0.2c-1.1,0.2-1.3,0.2-0.4,0c-0.6,0-1.3,0.2-1.9,0.2c-3.6,0.6-7.3,1.1-10.9,2.1
					c-4.8,1.3-6.7,1.9-10.9,4c-1.7,0.8-3.3,1.7-4.8,2.7c-1,0.6-1.9,1.1-2.7,1.7c1.7-1.1-1.3,1.1-1.3,1.1c-3.3,2.7-5.9,5.6-7.7,8
					c-2.5,3.4-4.8,7.1-6.7,10.9c-1.1,2.3-2.1,4.4-3.1,6.5c-0.4,0.6-0.6,1.3-1,1.9c-0.6,1.1-0.6,1.3-0.2,0.4
					c-0.2,0.6-0.6,1.3-0.8,1.9c-3.1,7.7-5.6,15.5-7.1,23.7c-0.2,0.8-0.2,1.3-0.4,2.1c0.2-1,0.2-0.8,0,0.6c0,0.8-0.2,1.3-0.2,2.1
					c-0.2,2.1-0.4,4.2-0.4,6.3c0,2.3,0,4.8,0,7.1c0,0.8,0.2,1.7,0.2,2.5c0,0.8,0,0.6,0-0.2c0,0.6,0.2,1.3,0.2,1.9
					c0.6,4.4,1.7,8.4,3.1,12.6c1,3.1-0.4-1,0.2,0.8c0.6,1.5,1.3,3.3,1.9,4.8c1.1,3.1,1.5,6.1,0.8,9.4c-1.1,4.6-6.9,7.9-11.3,6.3
					c-9.6-3.6-12.6-16.1-14.4-25.1c-1.7-8.2-2.1-16.9-1.3-25.3c1.5-18.4,7.9-36.2,16.7-52.3c4.4-8.2,10.1-16.3,17.2-22.2
					c7.7-6.5,16.7-10.9,26.2-13.8c16.3-5,33.9-5.4,50.6-2.1c4.4,0.8,8.6,2.3,12.8,3.3c0,0,3.3,0.4,1.5,0.4c0.4,0,4,0,2.5,0.2
					c1.9-0.2,3.8-0.8,5.7-1.3c-1.7,0.6,1.3-0.6,1.3-0.6c0.8-0.4,2.1-1,3.3-1.5c2.1-1,4-2.1,6.1-3.3c4.6-2.5,9.4-5.2,14.4-5.7
					C174,6.4,176.6,7.5,176.3,10L176.3,10z"/>
			</g>
		</g>
		<g>
			<defs>
				<path id="SVGID_10_" d="M20,135.6c2.1,4.2,7.5,5.9,12.1,5.4c4.6-0.8,8.6-3.4,12.1-6.7c7.1-6.5,12.4-14.7,17.8-22.8
					s10.7-16.3,18-22.6c7.3-6.3,17.2-11.7,26.8-11.1c0.6,0.6,0.8,1.5,0.8,2.3c0.6,4.8,1.1,10-0.2,14.6c-1.1,3.8-3.4,7.3-5.7,10.7
					c-2.3,3.3-4.2,6.7-6.9,9.8c-5.7,6.5-11.7,12.8-17.4,19.3c-6.1,6.9-12.6,14.2-14,23.2c-0.4,2.7-0.4,5.7,0.6,8.2
					c0.6,1.5,1.5,2.9,2.7,4.2c4,4.6,10.5,6.9,16.5,5.9c2.1-0.4,4-1,5.9-1.7c7.3-2.5,14.7-5.2,21.3-9.2c5.7-3.4,10.7-7.7,15.7-12.1
					c7.5-6.5,14.7-13.4,20.9-21.4c6.1-7.9,9.8-17.2,13.6-26.4c5.4-13,5.6-27.6,5-41.7c-0.2-5.9-0.6-12.1-1.1-18
					c-0.2-2.7-0.4-5.4-0.4-7.9c0.2-5.2,1.5-10.1,4-14.7c0.6-1,1-2.3,0.2-3.1c-0.4-0.2-0.8-0.4-1-0.4c-2.7-0.4-5.6,0-8.2,0.6
					c-11.1,2.1-22.6,3.8-33.1,0c-13-4.8-28.7-1.9-41.6,3.8C74.8,28,66.5,34.7,58.7,41.4c-10.3,9-20.7,18.2-28.3,29.7
					C18.3,89.3,10,116.1,20,135.6z"/>
			</defs>
			<clipPath id="SVGID_11_">
				<use xlink:href="#SVGID_10_"  style="overflow:visible;"/>
			</clipPath>
			<g class="st9">
				<path class="st8" d="M41.6,138.5c1-3.3,3.1-6.5,4.4-9.8c1.5-4,3.3-8.2,5.2-12.1c3.6-7.1,7.9-13.8,12.6-20.1
					c5-6.5,10.3-13.4,16.7-18.8c3.8-3.1,7.9-5.4,12.6-6.3c4-0.8,8-1.1,12.3-1.7c4.8-0.6,8.8,1,11.5,5.2c1.3,2.3,1.5,5.2,0.8,7.7
					c-1,3.3-4,6.7-7.5,7.1c-3.6,0.6-7.5,0.8-11.1,1.5c-1,0.2-1.7,0.4-2.7,0.6c-0.8,0.2-0.8,0.2,0,0c-0.4,0.2-0.6,0.4-1,0.6
					c-0.4,0.2-0.6,0.4-1,0.6c0.6-0.4,0.6-0.4,0,0c-0.8,0.6-1.5,1.1-2.1,1.9c-2.9,2.5-5.4,5.4-8,8.2c-1.3,1.3-2.7,2.9-3.8,4.2
					c-0.6,0.8-1.3,1.5-1.9,2.1c-0.2,0.2-1.3,1.7-1,1.1c-4.8,5.9-8.6,12.3-12.6,18.8c-4,6.7-8.6,16.3-17.4,16.9
					C43.3,146.6,40.7,142.2,41.6,138.5L41.6,138.5z"/>
			</g>
		</g>
		<g>
			<defs>
				<path id="SVGID_12_" d="M20,135.6c2.1,4.2,7.5,5.9,12.1,5.4c4.6-0.8,8.6-3.4,12.1-6.7c7.1-6.5,12.4-14.7,17.8-22.8
					s10.7-16.3,18-22.6c7.3-6.3,17.2-11.7,26.8-11.1c0.6,0.6,0.8,1.5,0.8,2.3c0.6,4.8,1.1,10-0.2,14.6c-1.1,3.8-3.4,7.3-5.7,10.7
					c-2.3,3.3-4.2,6.7-6.9,9.8c-5.7,6.5-11.7,12.8-17.4,19.3c-6.1,6.9-12.6,14.2-14,23.2c-0.4,2.7-0.4,5.7,0.6,8.2
					c0.6,1.5,1.5,2.9,2.7,4.2c4,4.6,10.5,6.9,16.5,5.9c2.1-0.4,4-1,5.9-1.7c7.3-2.5,14.7-5.2,21.3-9.2c5.7-3.4,10.7-7.7,15.7-12.1
					c7.5-6.5,14.7-13.4,20.9-21.4c6.1-7.9,9.8-17.2,13.6-26.4c5.4-13,5.6-27.6,5-41.7c-0.2-5.9-0.6-12.1-1.1-18
					c-0.2-2.7-0.4-5.4-0.4-7.9c0.2-5.2,1.5-10.1,4-14.7c0.6-1,1-2.3,0.2-3.1c-0.4-0.2-0.8-0.4-1-0.4c-2.7-0.4-5.6,0-8.2,0.6
					c-11.1,2.1-22.6,3.8-33.1,0c-13-4.8-28.7-1.9-41.6,3.8C74.8,28,66.5,34.7,58.7,41.4c-10.3,9-20.7,18.2-28.3,29.7
					C18.3,89.3,10,116.1,20,135.6z"/>
			</defs>
			<clipPath id="SVGID_13_">
				<use xlink:href="#SVGID_12_"  style="overflow:visible;"/>
			</clipPath>
			<g class="st10">
				<path class="st8" d="M188.9,14.8c-3.1,1.3-5.6,4-8.2,6.1c-2.3,1.7-4.4,3.8-5.9,5.9c-3.8,5.6-5.9,12.3-6.5,18.4
					c-0.8,8-0.4,16.1-0.4,24.1c0.2,8,1.1,15.9,0.8,23.9c-0.6,17.8-9.4,34.1-20.7,47.7c-10.5,12.8-24.7,23.2-39.8,30.1
					c-9,4-18.6,7.5-28.5,6.7c-4.8-0.4-9.4-1.3-14-2.3c-5.9-1.3-12.4-3.1-15.3-9c-2.5-5-0.2-12.4,6.1-13.6c5.2-0.8,9.2,1,14,2.1
					c1.7,0.4,3.4,0.8,5.2,1.1c0.8,0.2,1.7,0.4,2.5,0.6c0.8,0.2,0.8,0.2,0,0c0.8,0,1.3,0.2,2.1,0.2c1,0,1.7,0,2.7,0
					c0.4,0,2.7-0.2,1,0c1.7-0.2,3.4-0.6,5.2-1c1-0.2,2.1-0.6,3.1-1c-0.2,0,3.1-1,1.7-0.6c-1.3,0.4,1.9-0.8,1.7-0.6
					c1.1-0.6,2.3-1,3.4-1.5c3.4-1.5,6.9-3.4,10.3-5.4c1.5-1,3.1-1.9,4.6-2.9c1-0.6,1.9-1.1,2.7-1.9c-1.5,1,1.1-0.8,1.3-1
					c3.1-2.3,5.9-5,8.8-7.7c1.5-1.3,2.9-2.9,4.2-4.4c0.6-0.6,1-1.1,1.5-1.7c0.6-0.6,1-1.1,1.3-1.7c-0.6,0.8-0.6,0.6,0.2-0.4
					c2.3-2.9,4.2-5.9,6.1-9.2c2.1-3.4,3.6-6.9,4.6-9.4c0.8-1.9,1.3-3.8,1.9-5.7c0.2-1,0.4-1.7,0.6-2.7c0.8-3.3,0,1.5,0.2-1.5
					c0.4-3.8,0.4-7.9,0.2-11.7C147,69,146,52.7,151,37.2c2.7-8.2,6.9-16.5,13.6-22.2c3.1-2.7,6.7-5,10.5-6.5c4.2-1.7,8.8-0.8,13,0.4
					C190.8,9.8,191.4,13.7,188.9,14.8L188.9,14.8z"/>
			</g>
		</g>
		<g>
			<defs>
				<path id="SVGID_14_" d="M20,135.6c2.1,4.2,7.5,5.9,12.1,5.4c4.6-0.8,8.6-3.4,12.1-6.7c7.1-6.5,12.4-14.7,17.8-22.8
					s10.7-16.3,18-22.6c7.3-6.3,17.2-11.7,26.8-11.1c0.6,0.6,0.8,1.5,0.8,2.3c0.6,4.8,1.1,10-0.2,14.6c-1.1,3.8-3.4,7.3-5.7,10.7
					c-2.3,3.3-4.2,6.7-6.9,9.8c-5.7,6.5-11.7,12.8-17.4,19.3c-6.1,6.9-12.6,14.2-14,23.2c-0.4,2.7-0.4,5.7,0.6,8.2
					c0.6,1.5,1.5,2.9,2.7,4.2c4,4.6,10.5,6.9,16.5,5.9c2.1-0.4,4-1,5.9-1.7c7.3-2.5,14.7-5.2,21.3-9.2c5.7-3.4,10.7-7.7,15.7-12.1
					c7.5-6.5,14.7-13.4,20.9-21.4c6.1-7.9,9.8-17.2,13.6-26.4c5.4-13,5.6-27.6,5-41.7c-0.2-5.9-0.6-12.1-1.1-18
					c-0.2-2.7-0.4-5.4-0.4-7.9c0.2-5.2,1.5-10.1,4-14.7c0.6-1,1-2.3,0.2-3.1c-0.4-0.2-0.8-0.4-1-0.4c-2.7-0.4-5.6,0-8.2,0.6
					c-11.1,2.1-22.6,3.8-33.1,0c-13-4.8-28.7-1.9-41.6,3.8C74.8,28,66.5,34.7,58.7,41.4c-10.3,9-20.7,18.2-28.3,29.7
					C18.3,89.3,10,116.1,20,135.6z"/>
			</defs>
			<clipPath id="SVGID_15_">
				<use xlink:href="#SVGID_14_"  style="overflow:visible;"/>
			</clipPath>
			<g class="st11">
				<path class="st8" d="M105.4,73.4c5.2-2.3,10.1,0.8,13.4,4.8c3.8,4.8,4.8,10.5,4.2,16.5c-1.1,11.1-6.7,21.3-13.4,30.3
					c-6.5,8.8-14.2,16.5-22.8,23.2c-4.6,3.4-9.2,6.7-14,9.6c-5.4,3.1-10.5,6.1-16.9,6.7c-4.4,0.4-9-3.8-10-8
					c-0.4-1.9-0.4-3.4,0.2-5.4c1-3.4,4-6.7,7.7-7.3c1-0.2,2.3-0.8,0.8,0c1-0.4,1.7-1,2.7-1.3c1.9-1,3.8-2.1,5.7-3.3
					c1.9-1.1,3.6-2.3,5.6-3.4c1-0.6,1.7-1.1,2.7-1.9c1.7-1.3-0.6,0.6,1.3-1c3.3-2.5,6.5-5.2,9.6-8c1.5-1.5,3.1-3.1,4.6-4.6
					c0.8-0.8,1.5-1.5,2.1-2.5c0.2-0.4,2.1-2.3,1.5-1.7c-0.8,0.8,1-1.3,1.1-1.5c0.6-0.8,1.3-1.7,1.9-2.7c1.1-1.7,2.5-3.6,3.4-5.4
					c2.1-3.6,4.2-7.5,5.9-11.5c1.3-3.1,2.5-5.6,2.7-9c0.4-3.6-1-6.3-1.3-10C103.9,75.3,104.2,74,105.4,73.4L105.4,73.4z"/>
			</g>
		</g>
	</g>
	<path class="st12" d="M47.9,100.8c-1.9-3.4,0.6-9,2.1-12.3c1.7-4.2,3.4-8.4,5-12.6c3.1-9.2,8.4-17.8,15.1-24.7
		c6.7-6.7,15.7-10.7,25.1-11.7c8.4-0.4,19.9,1.7,25.5,8.6c2.1,2.5,2.9,5.9,1,9c-4,6.7-10.9,7.7-18.2,7.5c-5.6,0-10.7,1-16.1,2.7
		c-5,1.7-9.6,4.4-14,7.3c-2.3,1.3-8.8,7.9-10.9,9.4c-4.4,3.3-10.9,17-13,17.4C48.9,101.6,48.3,101.6,47.9,100.8z"/>
	<g>
		<path class="st12" d="M122.1,126.3c-1-4,1.7-9,3.1-12.6c1.7-4.6,2.9-9.2,3.1-14c0.2-4.8-0.4-9.4-1.3-14c-0.6-2.3-1.1-4.8-2.1-7.1
			c-1-2.3-2.7-3.8-4-5.9c-3.4-5,2.7-11.7,8-10c7.5,2.3,9.8,11.1,10.5,18.2c0.8,6.3,0.6,12.4-0.6,18.6c-1,5.6-2.7,11.1-5.2,16.5
			c-1.9,4.2-5.6,10.5-10.7,10.9C122.4,127,122.1,126.6,122.1,126.3L122.1,126.3z"/>
	</g>
	<path class="st13" d="M132.4,60.2c1,1.3,1.5,2.9,1.5,4.4c0,2.7-1.7,5-3.4,7.1c-2.3,2.7-4.8,5.2-8,6.5s-7.3,1-9.8-1.5
		c-1.1-1.1-1.7-2.9-2.3-4.4c-0.8-2.3-1.3-4.8-0.4-6.9c0.4-1,1.1-1.7,1.7-2.5C117.5,56.4,126.1,51,132.4,60.2z"/>
	<path class="st14" d="M125.9,61.9c1.5,1,2.5,2.9,2.3,4.6c0,0.8-0.4,1.7-0.8,2.3c-1.1,2.3-9.4,7.1-11.7,3.4
		C112.1,66.7,121.5,58.9,125.9,61.9z"/>
	<g>
		<g>
			<defs>
				<path id="SVGID_16_" d="M20,135.6c2.1,4.2,7.5,5.9,12.1,5.4c4.6-0.8,8.6-3.4,12.1-6.7c7.1-6.5,12.4-14.7,17.8-22.8
					s10.7-16.3,18-22.6c7.3-6.3,17.2-11.7,26.8-11.1c0.6,0.6,0.8,1.5,0.8,2.3c0.6,4.8,1.1,10-0.2,14.6c-1.1,3.8-3.4,7.3-5.7,10.7
					c-2.3,3.3-4.2,6.7-6.9,9.8c-5.7,6.5-11.7,12.8-17.4,19.3c-6.1,6.9-12.6,14.2-14,23.2c-0.4,2.7-0.4,5.7,0.6,8.2
					c0.6,1.5,1.5,2.9,2.7,4.2c4,4.6,10.5,6.9,16.5,5.9c2.1-0.4,4-1,5.9-1.7c7.3-2.5,14.7-5.2,21.3-9.2c5.7-3.4,10.7-7.7,15.7-12.1
					c7.5-6.5,14.7-13.4,20.9-21.4c6.1-7.9,9.8-17.2,13.6-26.4c5.4-13,5.6-27.6,5-41.7c-0.2-5.9-0.6-12.1-1.1-18
					c-0.2-2.7-0.4-5.4-0.4-7.9c0.2-5.2,1.5-10.1,4-14.7c0.6-1,1-2.3,0.2-3.1c-0.4-0.2-0.8-0.4-1-0.4c-2.7-0.4-5.6,0-8.2,0.6
					c-11.1,2.1-22.6,3.8-33.1,0c-13-4.8-28.7-1.9-41.6,3.8C74.8,28,66.5,34.7,58.7,41.4c-10.3,9-20.7,18.2-28.3,29.7
					C18.3,89.3,10,116.1,20,135.6z"/>
			</defs>
			<clipPath id="SVGID_17_">
				<use xlink:href="#SVGID_16_"  style="overflow:visible;"/>
			</clipPath>
			<path class="st15" d="M162.3,22.7c0.4,0-0.2-0.8-0.8-0.8c-1.9,0-3.8,1-5.6,1.9c-2.3,1.3-4.4,3.1-6.1,5c-2.1,2.3-3.8,4.8-5.6,7.5
				c-3.8,5.7-12.6,13.2-12.1,17c0.4,3.1,3.4-0.2,6.1-1.7c3.4-2.1,6.9-5.7,10.9-10.5c1.7-2.1,8.2-8.4,10.3-10.5
				C161.5,28.4,162.7,25.5,162.3,22.7z"/>
		</g>
		<g>
			<defs>
				<path id="SVGID_18_" d="M20,135.6c2.1,4.2,7.5,5.9,12.1,5.4c4.6-0.8,8.6-3.4,12.1-6.7c7.1-6.5,12.4-14.7,17.8-22.8
					s10.7-16.3,18-22.6c7.3-6.3,17.2-11.7,26.8-11.1c0.6,0.6,0.8,1.5,0.8,2.3c0.6,4.8,1.1,10-0.2,14.6c-1.1,3.8-3.4,7.3-5.7,10.7
					c-2.3,3.3-4.2,6.7-6.9,9.8c-5.7,6.5-11.7,12.8-17.4,19.3c-6.1,6.9-12.6,14.2-14,23.2c-0.4,2.7-0.4,5.7,0.6,8.2
					c0.6,1.5,1.5,2.9,2.7,4.2c4,4.6,10.5,6.9,16.5,5.9c2.1-0.4,4-1,5.9-1.7c7.3-2.5,14.7-5.2,21.3-9.2c5.7-3.4,10.7-7.7,15.7-12.1
					c7.5-6.5,14.7-13.4,20.9-21.4c6.1-7.9,9.8-17.2,13.6-26.4c5.4-13,5.6-27.6,5-41.7c-0.2-5.9-0.6-12.1-1.1-18
					c-0.2-2.7-0.4-5.4-0.4-7.9c0.2-5.2,1.5-10.1,4-14.7c0.6-1,1-2.3,0.2-3.1c-0.4-0.2-0.8-0.4-1-0.4c-2.7-0.4-5.6,0-8.2,0.6
					c-11.1,2.1-22.6,3.8-33.1,0c-13-4.8-28.7-1.9-41.6,3.8C74.8,28,66.5,34.7,58.7,41.4c-10.3,9-20.7,18.2-28.3,29.7
					C18.3,89.3,10,116.1,20,135.6z"/>
			</defs>
			<clipPath id="SVGID_19_">
				<use xlink:href="#SVGID_18_"  style="overflow:visible;"/>
			</clipPath>
			<g class="st16">
				<path class="st17" d="M174.3,13.3c-3.8,6.7-11.7,10.3-19,12.3c-7.7,2.1-15.7,1.3-23.4-0.2c-8-1.7-15.9-4-24.3-3.8
					c-7.7,0.2-14.4,2.7-21.3,5.6c-16.7,6.7-28.7,16.7-40.8,29.9C34.3,68.8,23.8,83.6,21.3,100c-1.1,8.2-2.9,19,0.8,26.8
					c3.3,6.9,10.5,14,18.4,15.3c1.7,0.4,1.3,2.9,0,3.3c-19,5.2-29.9-13.8-31.6-29.9C7,97.9,13.5,80.3,23.2,65.9
					c10.9-16.1,26.2-30.3,42.5-40.8C80.7,16,98.7,9.8,116.5,12.3c9.8,1.3,19.3,5.2,29.3,5.4c4.8,0.2,9.6-0.4,14-1.7
					c4.4-1.3,8.6-3.4,12.8-5C174,10.6,174.9,12.3,174.3,13.3L174.3,13.3z"/>
			</g>
		</g>
		<g>
			<defs>
				<path id="SVGID_20_" d="M20,135.6c2.1,4.2,7.5,5.9,12.1,5.4c4.6-0.8,8.6-3.4,12.1-6.7c7.1-6.5,12.4-14.7,17.8-22.8
					s10.7-16.3,18-22.6c7.3-6.3,17.2-11.7,26.8-11.1c0.6,0.6,0.8,1.5,0.8,2.3c0.6,4.8,1.1,10-0.2,14.6c-1.1,3.8-3.4,7.3-5.7,10.7
					c-2.3,3.3-4.2,6.7-6.9,9.8c-5.7,6.5-11.7,12.8-17.4,19.3c-6.1,6.9-12.6,14.2-14,23.2c-0.4,2.7-0.4,5.7,0.6,8.2
					c0.6,1.5,1.5,2.9,2.7,4.2c4,4.6,10.5,6.9,16.5,5.9c2.1-0.4,4-1,5.9-1.7c7.3-2.5,14.7-5.2,21.3-9.2c5.7-3.4,10.7-7.7,15.7-12.1
					c7.5-6.5,14.7-13.4,20.9-21.4c6.1-7.9,9.8-17.2,13.6-26.4c5.4-13,5.6-27.6,5-41.7c-0.2-5.9-0.6-12.1-1.1-18
					c-0.2-2.7-0.4-5.4-0.4-7.9c0.2-5.2,1.5-10.1,4-14.7c0.6-1,1-2.3,0.2-3.1c-0.4-0.2-0.8-0.4-1-0.4c-2.7-0.4-5.6,0-8.2,0.6
					c-11.1,2.1-22.6,3.8-33.1,0c-13-4.8-28.7-1.9-41.6,3.8C74.8,28,66.5,34.7,58.7,41.4c-10.3,9-20.7,18.2-28.3,29.7
					C18.3,89.3,10,116.1,20,135.6z"/>
			</defs>
			<clipPath id="SVGID_21_">
				<use xlink:href="#SVGID_20_"  style="overflow:visible;"/>
			</clipPath>
			<g class="st18">
				<path class="st17" d="M107.9,79.9c-1.1,1.1-3.1,1-4.6,1.3c-2.1,0.4-4.4,0.8-6.3,1.3c-4.6,1.5-8.6,4.4-11.9,7.9
					c-7.3,7.5-11.9,17-17.2,26c-5.2,8.8-11.5,17.2-19.7,23.2c-6.7,4.8-15.9,8-23.6,3.6c-1-0.6,0.8-11.5,1.7-10.9
					c7.5,6.5,14,1.5,20.1-4c7.9-7.3,13.2-17,19.2-25.9c5.7-8.6,12.4-17,21.4-22.4c3.8-2.3,10.9-4.2,15.3-4.6c2.7-0.2,7.1,0.6,8,3.6
					C110,79.5,107.9,79.9,107.9,79.9L107.9,79.9z"/>
			</g>
		</g>
		<g>
			<defs>
				<path id="SVGID_22_" d="M20,135.6c2.1,4.2,7.5,5.9,12.1,5.4c4.6-0.8,8.6-3.4,12.1-6.7c7.1-6.5,12.4-14.7,17.8-22.8
					s10.7-16.3,18-22.6c7.3-6.3,17.2-11.7,26.8-11.1c0.6,0.6,0.8,1.5,0.8,2.3c0.6,4.8,1.1,10-0.2,14.6c-1.1,3.8-3.4,7.3-5.7,10.7
					c-2.3,3.3-4.2,6.7-6.9,9.8c-5.7,6.5-11.7,12.8-17.4,19.3c-6.1,6.9-12.6,14.2-14,23.2c-0.4,2.7-0.4,5.7,0.6,8.2
					c0.6,1.5,1.5,2.9,2.7,4.2c4,4.6,10.5,6.9,16.5,5.9c2.1-0.4,4-1,5.9-1.7c7.3-2.5,14.7-5.2,21.3-9.2c5.7-3.4,10.7-7.7,15.7-12.1
					c7.5-6.5,14.7-13.4,20.9-21.4c6.1-7.9,9.8-17.2,13.6-26.4c5.4-13,5.6-27.6,5-41.7c-0.2-5.9-0.6-12.1-1.1-18
					c-0.2-2.7-0.4-5.4-0.4-7.9c0.2-5.2,1.5-10.1,4-14.7c0.6-1,1-2.3,0.2-3.1c-0.4-0.2-0.8-0.4-1-0.4c-2.7-0.4-5.6,0-8.2,0.6
					c-11.1,2.1-22.6,3.8-33.1,0c-13-4.8-28.7-1.9-41.6,3.8C74.8,28,66.5,34.7,58.7,41.4c-10.3,9-20.7,18.2-28.3,29.7
					C18.3,89.3,10,116.1,20,135.6z"/>
			</defs>
			<clipPath id="SVGID_23_">
				<use xlink:href="#SVGID_22_"  style="overflow:visible;"/>
			</clipPath>
			<g class="st19">
				<path class="st17" d="M172.4,16c-0.6,1.9-0.4,3.6-1,5.6c-0.6,1.7-1.3,3.4-1.7,5.4c-1,3.6-1.5,7.3-1.9,11.1
					c-0.8,7.9-0.6,15.7-0.4,23.4c0.2,17,0,35.4-5.4,51.7c-2.9,8.8-8,16.9-13.4,24.3c-5.4,7.5-11.1,14.4-18,20.5
					c-12.4,11.1-28,18.8-44.8,19.7c-9.2,0.6-19.5-1-26.6-7.3c-5.7-5.2-9.8-15.3-3.4-21.4c1.5-1.5,5-1,5.4,1.5
					c0.8,6.1,1.7,11.5,7.5,14.7c6.1,3.4,14.4,3.4,21.3,2.5c14.9-2.3,28.2-10.1,38.7-20.9c6.1-6.1,11.3-13,16.1-20.3
					c4.4-6.9,8-14,10-21.8c3.4-15.1,3.4-31,3.4-46.5c0-7.9,0.2-15.7,1.5-23.6c0.6-3.8,1.5-7.5,2.9-10.9c0.8-1.7,1.3-3.6,2.3-5.2
					c1.1-1.9,3.1-2.9,4.6-4.6C170.3,12.5,173,14,172.4,16L172.4,16z"/>
			</g>
		</g>
		<g>
			<defs>
				<path id="SVGID_24_" d="M20,135.6c2.1,4.2,7.5,5.9,12.1,5.4c4.6-0.8,8.6-3.4,12.1-6.7c7.1-6.5,12.4-14.7,17.8-22.8
					s10.7-16.3,18-22.6c7.3-6.3,17.2-11.7,26.8-11.1c0.6,0.6,0.8,1.5,0.8,2.3c0.6,4.8,1.1,10-0.2,14.6c-1.1,3.8-3.4,7.3-5.7,10.7
					c-2.3,3.3-4.2,6.7-6.9,9.8c-5.7,6.5-11.7,12.8-17.4,19.3c-6.1,6.9-12.6,14.2-14,23.2c-0.4,2.7-0.4,5.7,0.6,8.2
					c0.6,1.5,1.5,2.9,2.7,4.2c4,4.6,10.5,6.9,16.5,5.9c2.1-0.4,4-1,5.9-1.7c7.3-2.5,14.7-5.2,21.3-9.2c5.7-3.4,10.7-7.7,15.7-12.1
					c7.5-6.5,14.7-13.4,20.9-21.4c6.1-7.9,9.8-17.2,13.6-26.4c5.4-13,5.6-27.6,5-41.7c-0.2-5.9-0.6-12.1-1.1-18
					c-0.2-2.7-0.4-5.4-0.4-7.9c0.2-5.2,1.5-10.1,4-14.7c0.6-1,1-2.3,0.2-3.1c-0.4-0.2-0.8-0.4-1-0.4c-2.7-0.4-5.6,0-8.2,0.6
					c-11.1,2.1-22.6,3.8-33.1,0c-13-4.8-28.7-1.9-41.6,3.8C74.8,28,66.5,34.7,58.7,41.4c-10.3,9-20.7,18.2-28.3,29.7
					C18.3,89.3,10,116.1,20,135.6z"/>
			</defs>
			<clipPath id="SVGID_25_">
				<use xlink:href="#SVGID_24_"  style="overflow:visible;"/>
			</clipPath>
			<g class="st20">
				<path class="st21" d="M105.2,77.6c4-1.5,6.9,4,7.5,7.1c1,4.8,0.2,10-1.5,14.6c-3.8,10-12.6,17.8-20.1,25.3
					c-7.5,7.5-17,13.6-22.2,23c-1.9,3.6-4,7.7-3.6,11.7c1,11.5,14.2,6.3,11.9,9.8c-0.4,0.8-14,3.3-14.7,3.1
					c-3.8-1.7-3.8-6.7-4.2-10.1c-0.4-4.2-0.6-7.9,0.4-12.1c2.1-10.1,8.6-17,16.3-23.7c8.2-7.1,15.9-14.9,23-23.2
					c3.1-3.4,5.6-7.5,6.9-12.1c0.8-2.5,1.1-4.6,0.8-7.1c-0.2-1.9-1-3.4-0.8-5.4C104.4,78,104.8,77.8,105.2,77.6L105.2,77.6z"/>
			</g>
		</g>
	</g>
	<g>
		<g>
			<defs>
				<path id="SVGID_26_" d="M65.6,157.9c-1.7,4-1.1,8.8,0.6,12.8c1.9,4,5,7.5,7.9,10.7c2.1,2.1,3.1,4.8,5.9,5.9c2.5,1,4.8,1,7.3,1
					c13.8-0.4,27.2-4.8,38.9-11.7c12.1-6.9,22.2-16.3,31.2-26.6c14.2-16.7,25.5-37.3,24.1-59.2c-0.6-9.6-3.4-18.8-4.8-28.2
					c-1.3-9.6,1.7-28.5,1.1-29.3c-3.8-3.6-7.5-8.6-9.4-13.6c-6.3,1.1-10.1,8-12.1,14.2c-4.8,14.2-5.9,29.3-11.1,43.3
					c-2.1,5.7-4.8,11.1-7.9,16.3C120.9,121.9,95.4,145,65.6,157.9z"/>
			</defs>
			<clipPath id="SVGID_27_">
				<use xlink:href="#SVGID_26_"  style="overflow:visible;"/>
			</clipPath>
			<g class="st22">
				<path class="st0" d="M184.9,25.3c-1.5,7.1-4,13.8-4.2,21.1c-0.2,7.5,1,14.7,2.7,22c3.6,16.3,6.9,32,0.6,48.1
					c-6.1,16.1-16.7,31-28.3,43.5c-11.7,12.4-26,23-42.1,29.3c-9.6,3.8-19.3,6.3-29.3,8.6c-4.8,1.1-9.6,1.9-14.4,0.6
					c-3.8-1-7.5-2.7-11.1-4c-2.3-1-4-2.9-4-5.6c0-2.3,1.9-5,4.4-5.4c4-0.6,7.1,0.4,10.9,1.7c3.8,1.5,6.3,1.7,10.5,0.8
					c8.2-1.9,16.7-3.8,24.7-6.7c15.7-5.6,29.5-15.1,41-27c5.6-5.7,10.7-12.1,15.1-18.8c4.6-6.9,9.2-14.2,12.1-21.8
					c5.4-14.4,2.5-29.1,0.2-43.9c-1.3-8-2.3-16.3-1.3-24.3c0.4-7.9,2.5-16.3,10-20.5C183.7,22.3,185.3,23.8,184.9,25.3L184.9,25.3z"
					/>
			</g>
		</g>
	</g>
	<g>
		<g>
			<defs>
				<path id="SVGID_28_" d="M20,135.6c2.1,4.2,7.5,5.9,12.1,5.4c4.6-0.8,8.6-3.4,12.1-6.7c7.1-6.5,12.4-14.7,17.8-22.8
					s10.7-16.3,18-22.6c7.3-6.3,17.2-11.7,26.8-11.1c0.6,0.6,0.8,1.5,0.8,2.3c0.6,4.8,1.1,10-0.2,14.6c-1.1,3.8-3.4,7.3-5.7,10.7
					c-2.3,3.3-4.2,6.7-6.9,9.8c-5.7,6.5-11.7,12.8-17.4,19.3c-6.1,6.9-12.6,14.2-14,23.2c-0.4,2.7-0.4,5.7,0.6,8.2
					c0.6,1.5,1.5,2.9,2.7,4.2c4,4.6,10.5,6.9,16.5,5.9c2.1-0.4,4-1,5.9-1.7c7.3-2.5,14.7-5.2,21.3-9.2c5.7-3.4,10.7-7.7,15.7-12.1
					c7.5-6.5,14.7-13.4,20.9-21.4c6.1-7.9,9.8-17.2,13.6-26.4c5.4-13,5.6-27.6,5-41.7c-0.2-5.9-0.6-12.1-1.1-18
					c-0.2-2.7-0.4-5.4-0.4-7.9c0.2-5.2,1.5-10.1,4-14.7c0.6-1,1-2.3,0.2-3.1c-0.4-0.2-0.8-0.4-1-0.4c-2.7-0.4-5.6,0-8.2,0.6
					c-11.1,2.1-22.6,3.8-33.1,0c-13-4.8-28.7-1.9-41.6,3.8C74.8,28,66.5,34.7,58.7,41.4c-10.3,9-20.7,18.2-28.3,29.7
					C18.3,89.3,10,116.1,20,135.6z"/>
			</defs>
			<clipPath id="SVGID_29_">
				<use xlink:href="#SVGID_28_"  style="overflow:visible;"/>
			</clipPath>
			<g class="st23">
				<g>
					<path class="st21" d="M148.9,35.9c-5.2,2.7-11.1,4.2-16.9,3.3c-6.5-1-11.5-5.2-16.7-8.8c-5.7-4-11.5-6.3-18.6-6.5
						c-3.4,0-6.9,0.4-10.1,0.8c-3.1,0.4-6.1,1.3-9.2,1.3c-0.4,0-0.4-0.6-0.2-0.6c4.8-2.7,11.7-3.3,17-3.4c5.7-0.2,11.3,0.8,16.5,3.3
						c5.7,2.9,10.3,7.7,16.3,10.3c7.1,3.3,14.4,1.3,21.6,0C148.9,35.7,149.1,35.9,148.9,35.9L148.9,35.9z"/>
				</g>
				<g>
					<path class="st21" d="M137.6,50.6c-3.4,3.6-8.6,2.9-13,2.5c-6.9-0.6-13,2.5-15.9,9c-2.5,5.7-1.3,11.3,0.6,16.9
						c0.8,2.5,1.1,7.5-2.9,7.1c-0.4,0-0.6-0.4-0.2-0.8c3.1-2.3,1.3-5.4,0.4-8.4c-0.8-2.1-1.1-4.2-1.1-6.5c-0.2-4.4,1-9,3.8-12.6
						c2.7-3.4,6.7-5.9,11.1-6.5c5.9-0.8,11.5,1.9,17-1.1C137.6,49.9,137.8,50.2,137.6,50.6L137.6,50.6z"/>
				</g>
				<g>
					<path class="st21" d="M145,39.5c2.9-1,5.4,1.5,5.7,4.4c0.4,2.1-0.4,4.4-0.8,6.5c-0.6,3.1-0.6,6.1,0.2,9c1.7,5.7,7.3,8.8,10,14
						c2.1,4,2.7,9,0.8,13.2c-0.2,0.6-1.1,0.2-1-0.4c0.4-4.6,0.2-9.2-2.5-13c-2.5-4-6.7-6.5-8.6-10.9c-1.5-3.3-1.9-6.7-1.3-10.1
						c0.6-3.4,4.2-13-2.7-12.4C144.8,39.9,144.8,39.5,145,39.5L145,39.5z"/>
				</g>
				<g>
					<path class="st21" d="M135.1,52.5c7.7,5.2,7.1,17.6,2.7,24.3c-2.5,3.8-5.9,6.3-10.7,6.9c-3.3,0.4-6.1,0.4-9.2,1.5
						c-2.3,1-4.4,2.7-6.9,2.9c-0.4,0-0.8-0.4-0.6-0.8c2.1-2.7,6.3-4.4,9.8-5.2c4.6-1.1,9.2,0,13.2-3.4c3.4-3.1,5.7-7.9,5.9-12.4
						c0.4-5.4-2.1-9.2-4.4-13.6C134.5,52.7,134.7,52.5,135.1,52.5L135.1,52.5z"/>
				</g>
				<g>
					<path class="st21" d="M138,45.8c-4.6,4.4-13.2,2.1-19,1.7c-7.7-0.6-16.7-0.2-22,6.3c-5.6,6.9-0.4,13.8,2.3,20.7
						c1.5,3.8,2.3,11.1-3.3,12.1c-0.8,0.2-1-0.8-0.4-1.1c6.9-5-1.1-14.4-2.7-20.1c-1.5-5.4,0-10.7,4.2-14.6
						c4.6-4.2,10.7-5.4,16.9-5.4c3.6,0,7.1,0.4,10.7,0.8c4,0.4,9.4,1.1,13-0.8C137.8,45.3,138.1,45.6,138,45.8L138,45.8z"/>
				</g>
				<g>
					<path class="st21" d="M84.3,93.1c3.3-3.8,3.6-9.8,0.2-13.8c-2.9-3.3-6.7-5.2-9.4-8.6c-3.8-5.2-5.6-11.9-4.4-18.2
						C73,38.9,86.4,31.3,99.5,33.4c6.5,1,12.6,3.6,18.8,5.7c3.1,1,6.3,1.9,9.6,2.5c3.1,0.4,6.3,0,9.4,0.6c6.5,1.1,7.1,7.1,6.9,12.6
						c-0.2,6.9,3.3,12.8,4,19.5c1,8-4,14.6-10.5,18.6c-3.8,2.5-8.2,3.8-12.8,4.2c-5.4,0.6-10.9,1.1-14.6,5.9
						c-0.6,0.8-1.9,0.4-1.5-0.6c2.5-6.9,10.3-6.9,16.5-7.9c7.9-1.1,16.9-5.7,19.7-13.6c2.5-6.5-1.3-13-2.7-19.3
						c-0.6-2.5-0.6-5.2-0.6-7.7c0.2-3.8,0-8-4.4-9.4c-2.9-0.8-5.9-0.2-8.8-0.6c-2.9-0.4-5.7-1.1-8.4-1.9c-5.9-1.9-11.7-4.4-17.8-5.9
						c-6.7-1.5-13.8-1.5-19.7,2.1c-6.5,4-10.7,11.3-10.5,19c0.2,4.2,1.5,8.2,3.8,11.7c2.5,3.8,6.7,5.9,9.6,9.4
						c3.6,4.6,3.1,11.1-1,15.1C84.5,93.7,84.1,93.3,84.3,93.1L84.3,93.1z"/>
				</g>
				<g>
					<path class="st21" d="M161.5,80.5c-0.8,13.4-9.6,24.3-23,26.8c-6.9,1.3-13.2-1-20.1-1c-7.5,0-14,2.5-20.9,5
						c-0.4,0.2-0.6-0.4-0.4-0.6c4.4-3.4,10.1-5.2,15.7-5.9c6.5-0.8,12.3,0.6,18.8,1c14.7,1,28.2-10.7,29.7-25.5
						C161.3,80.3,161.5,80.3,161.5,80.5L161.5,80.5z"/>
				</g>
				<g>
					<path class="st21" d="M70.4,33.8c-5.4,4-10,8.4-12.1,15.1c-2.1,6.3-1.1,13.4,1.9,19.3c1.5,2.9,3.6,5.2,5.9,7.3
						c2.7,2.3,5.7,4,7.9,6.9c2.5,3.4,4,9.2,1.5,13c-0.2,0.4-0.6,0.2-0.6-0.2c0-3.6,0.6-6.9-1.1-10.3c-1.9-3.6-5.6-5.7-8.6-8.4
						c-4.6-3.8-7.7-9.2-8.8-14.9c-2.3-10.7,3.1-24.3,14.2-28.2C70.4,33.6,70.4,33.8,70.4,33.8L70.4,33.8z"/>
				</g>
				<g>
					<path class="st21" d="M69.8,103.7c-1.5-11.9-13-15.7-22-20.7c-8-4.4-14.6-11.7-13.2-21.4c0.2-1,1.5-1,1.5,0
						c0,5.9,1.1,11.1,5.7,15.3c4.2,3.8,9.6,5.9,14.4,8.6c6.9,3.6,14.9,9.4,14.2,18.2C70.4,103.9,69.8,104,69.8,103.7L69.8,103.7z"/>
				</g>
				<g>
					<path class="st21" d="M64.4,110.6c0-7.1-7.3-10.5-13-12.3c-5.6-1.5-10.7-3.1-15.5-6.3c-4.4-2.7-8.6-6.3-10.7-11.1
						c-1.9-4.2-2.5-10-1.5-14.4c0.2-0.6,1-0.6,1.1,0c0.4,2.3,0,4.8,0.2,7.3c0.4,3.8,1.5,7.3,3.8,10.3c4,5.2,10.3,8.8,16.5,10.9
						c7.7,2.7,20.1,4.8,19.3,15.5C64.4,110.6,64.4,110.6,64.4,110.6L64.4,110.6z"/>
				</g>
				<g class="st24">
					<path class="st17" d="M58.3,122.4c-1.9-2.7-2.9-5.7-5.2-8.2c-1.9-2.3-4.4-4-7.1-5.4c-5-2.5-10.3-3.8-15.7-5
						C22.1,101.9,7,99.1,5,88.9c0-0.4,0.4-0.6,0.8-0.2c4,5.7,9.2,9,15.7,11.1c5.4,1.7,10.7,2.7,16.1,4.2c4.8,1.3,9.6,3.1,13.4,6.3
						C54.5,112.9,58.7,117.6,58.3,122.4C58.5,122.4,58.3,122.6,58.3,122.4L58.3,122.4z"/>
				</g>
				<g class="st24">
					<path class="st17" d="M48.7,133.5c1.5-10-12.6-12.6-19.3-15.1c-6.3-2.5-14.7-6.1-18.2-12.4c-0.4-0.8,0.6-1.7,1.1-1.1
						c3.8,2.9,6.9,6.1,11.3,8.4c4.6,2.5,9.6,4.2,14.4,6.1c6.1,2.5,12.8,6.9,11.1,14.4C49.1,134.1,48.5,133.9,48.7,133.5L48.7,133.5z
						"/>
				</g>
				<g>
					<path class="st21" d="M94.3,111.5c1.7,8.4,11.7,6.5,17.8,5.7c5-0.6,10-0.6,14.7,0.8c8.4,2.1,19.3,9.6,18.8,19.3
						c0,0.6-0.8,0.8-1,0.2c-2.5-5.6-4.8-10.3-10.1-13.8c-5-3.3-10.9-4.6-16.9-4.8c-7.3-0.2-21.6,3.3-23.6-7.5
						C94.1,111.3,94.3,111.1,94.3,111.5L94.3,111.5z"/>
				</g>
				<g>
					<path class="st21" d="M137.4,151.4c1.9-7.7-7.9-10.9-13.4-12.8c-5.6-1.9-11.3-3.6-16.9-6.1c-4.8-2.1-9.4-5-13-8.8
						c-3.1-3.1-6.5-7.7-6.5-12.1c0-0.6,0.8-0.8,1.1-0.2c1.3,2.5,2.3,5.4,4,7.7c1.9,2.7,4.2,5,6.7,6.7c5.4,4,11.7,6.3,18,8.4
						c7.1,2.5,24.3,6.1,20.3,17C137.6,151.7,137.2,151.5,137.4,151.4L137.4,151.4z"/>
				</g>
				<g>
					<path class="st21" d="M86.6,119.8c-4,6.1,1.9,12.4,6.7,15.7c5,3.3,10.1,5.9,14.2,10.3c5.6,6.1,9.6,16.9,3.3,23.9
						c-0.2,0.2-0.6,0-0.6-0.4c1.9-5.2,2.5-10.5,0.2-15.7c-2.7-6.1-8.2-10.5-13.8-14c-4.2-2.5-9-5.2-11.3-9.8
						c-1.5-3.4-1.5-7.1,0.8-10.1C86.6,119.6,86.8,119.6,86.6,119.8L86.6,119.8z"/>
				</g>
				<g>
					<path class="st21" d="M79.4,125.7c0,12.4,12.3,18.2,20.1,25.9c5,4.8,14.2,14.2,8.2,21.4c-0.2,0.2-0.8,0-0.6-0.4
						c3.8-11.5-9-20.7-16.9-27c-5.9-4.8-13.8-11.7-11.5-20.1C78.8,125.1,79.4,125.3,79.4,125.7L79.4,125.7z"/>
				</g>
				<g>
					<path class="st21" d="M99.3,175.3c-0.6-12.4-11.5-19.5-20.3-26.6c-6.1-5.2-13.6-13-12.1-21.8c0-0.6,1-0.6,1,0
						c0.6,5.2,2.1,9.8,5.6,14c3.6,4.6,8.6,7.9,13,11.5c7.1,5.7,14.6,13.2,13,23C99.7,175.5,99.3,175.5,99.3,175.3L99.3,175.3z"/>
				</g>
				<g>
					<path class="st21" d="M92.2,172.4c-6.9-1.5-12.8-7.1-17-12.6c-2.1-2.9-3.8-5.7-5.4-9c-1.3-2.9-3.1-6.3-3.3-9.6
						c0-0.6,0.8-0.8,1.1-0.2c1.7,2.7,2.5,6.1,3.8,9c1.5,3.3,3.3,6.3,5.4,9c4.2,5.6,9.8,9.2,15.5,12.8
						C92.8,172,92.6,172.6,92.2,172.4L92.2,172.4z"/>
				</g>
			</g>
		</g>
	</g>
</g>
</svg>
