<?xml version="1.0" encoding="utf-8"?>
<!-- Generator: Adobe Illustrator 25.2.1, SVG Export Plug-In . SVG Version: 6.00 Build 0)  -->
<svg version="1.1" id="Layer_2" xmlns="http://www.w3.org/2000/svg" xmlns:xlink="http://www.w3.org/1999/xlink" x="0px" y="0px"
	 viewBox="0 0 200 200" style="enable-background:new 0 0 200 200;" xml:space="preserve">
<style type="text/css">
	.st0{fill:#E26A5A;}
	.st1{fill:#A09C99;}
	.st2{clip-path:url(#SVGID_2_);}
	.st3{fill:#C4B4A5;}
	.st4{opacity:0.16;clip-path:url(#SVGID_4_);}
	.st5{fill:#EC7E65;}
	.st6{clip-path:url(#SVGID_6_);}
	.st7{clip-path:url(#SVGID_8_);}
	.st8{fill:#EB715C;}
	.st9{clip-path:url(#SVGID_10_);}
	.st10{clip-path:url(#SVGID_12_);}
	.st11{clip-path:url(#SVGID_14_);}
	.st12{fill:#F38564;}
	.st13{fill:#FEEBDA;}
	.st14{fill:#EBBEA7;}
	.st15{clip-path:url(#SVGID_16_);fill:#FDE8D7;}
	.st16{clip-path:url(#SVGID_18_);}
	.st17{fill:#FDE8D7;}
	.st18{clip-path:url(#SVGID_20_);}
	.st19{clip-path:url(#SVGID_22_);}
	.st20{clip-path:url(#SVGID_24_);}
	.st21{opacity:0.61;fill:#FDE8D7;enable-background:new    ;}
	.st22{opacity:0.32;clip-path:url(#SVGID_26_);}
	.st23{clip-path:url(#SVGID_28_);}
	.st24{clip-path:url(#SVGID_30_);}
	.st25{fill:#828D93;}
	.st26{opacity:0.16;clip-path:url(#SVGID_32_);}
	.st27{clip-path:url(#SVGID_34_);}
	.st28{clip-path:url(#SVGID_36_);}
	.st29{clip-path:url(#SVGID_38_);}
	.st30{clip-path:url(#SVGID_40_);}
	.st31{clip-path:url(#SVGID_42_);}
	.st32{clip-path:url(#SVGID_44_);fill:#FDE8D7;}
	.st33{clip-path:url(#SVGID_46_);}
	.st34{clip-path:url(#SVGID_48_);}
	.st35{clip-path:url(#SVGID_50_);}
	.st36{clip-path:url(#SVGID_52_);}
	.st37{opacity:0.32;clip-path:url(#SVGID_54_);}
	.st38{clip-path:url(#SVGID_56_);}
	.st39{opacity:0.61;}
	.st40{fill:#F4E1D3;}
	.st41{fill:#B5A69A;}
</style>
<path class="st0" d="M22,58.2L32.2,65c0.1,0,0.2,0.1,0.2,0.1l143.5-11.8c0.1,0,0.2-0.1,0.3-0.2l4.8-7.5c0.2-0.3,0-0.6-0.3-0.6
	L22.1,57.6C21.8,57.6,21.7,58,22,58.2z"/>
<g>
	<g>
		<g>
			<path class="st1" d="M97,51.8c5.2-0.4,10.5-0.8,15.7-1.2c0.4-1.9-1-4-1.5-6c-1-3.6-1.7-7.6-4.4-9.9c-2.3-1.9-5.8-2.5-8.6-1.7
				c-3,0.6-5.6,2.3-8.2,3.9c-6,3.9-12.1,8-17.5,12.6c-1.6,1.4-3.2,2.9-4.8,4.4C77.5,53.2,87.2,52.5,97,51.8z"/>
		</g>
		<g>
			<defs>
				<path id="SVGID_1_" d="M23.8,101.8c4.5,6.8,9.3,10.8,15.9,15.1c1,0.7,8.1,0.5,16.2-8.9c3-3.5,10.4-15.4,12.8-19.2
					c7.9-12.1,8.7-15,19.3-25.1c6.8-6.5,15.2-12.3,24.6-13c0.6-2-0.9-4.2-1.4-6.2c-1-3.6-1.7-7.6-4.4-9.9c-2.3-1.9-5.8-2.5-8.6-1.7
					c-3,0.6-5.6,2.3-8.2,3.9c-6,3.9-12.1,8-17.5,12.6c-4.2,3.6-8.1,7.5-11.8,11.6c-4.1,4.3-8.4,8.5-12.5,12.8
					C39.5,82.8,30.4,91.7,23.8,101.8z"/>
			</defs>
			<clipPath id="SVGID_2_">
				<use xlink:href="#SVGID_1_"  style="overflow:visible;"/>
			</clipPath>
			<g class="st2">
				<path class="st3" d="M97,51.8c5.4-0.4,10.8-0.8,16.2-1.2c-0.2-1.8-0.9-3.6-1.9-5.2c-0.2-0.4-0.6-0.9-0.9-1.3
					c-0.2-0.6-0.5-1.1-0.7-1.7c-1.9-4.5-4.5-8.9-8.5-11.7c-2.6-1.9-6.8-4.3-9.7-1.2c-0.9,1-0.4,2.5,0.6,3.2
					c-0.8,0.1-1.5,0.1-2.1,0.3c-1.4-0.1-2.7,0.2-4,0.7c-3.1-0.5-6.4,1.4-7.9,4.2c-1.8,1.1-3.4,2.9-3.7,5.1c-0.5,0.8-1,1.8-1.1,3
					c0,0.4-0.1,0.8-0.1,1.2c-0.7,0.4-1.7,0.9-2.2,1.7c-1.3,1.4-1.9,3.2-1.8,4.9C78.4,53.1,87.7,52.5,97,51.8z M94.6,33.2
					c-0.4-0.2-0.6-0.1-1-0.3C94,32.8,94.4,33,94.6,33.2z"/>
			</g>
		</g>
	</g>
	<g>
		<g>
			<defs>
				<path id="SVGID_3_" d="M23.8,101.8c4.5,6.8,9.3,10.8,15.9,15.1c1,0.7,8.1,0.5,16.2-8.9c3-3.5,10.4-15.4,12.8-19.2
					c7.9-12.1,8.7-15,19.3-25.1c6.8-6.5,15.2-12.3,24.6-13c0.6-2-0.9-4.2-1.4-6.2c-1-3.6-1.7-7.6-4.4-9.9c-2.3-1.9-5.8-2.5-8.6-1.7
					c-3,0.6-5.6,2.3-8.2,3.9c-6,3.9-12.1,8-17.5,12.6c-4.2,3.6-8.1,7.5-11.8,11.6c-4.1,4.3-8.4,8.5-12.5,12.8
					C39.5,82.8,30.4,91.7,23.8,101.8z"/>
			</defs>
			<clipPath id="SVGID_4_">
				<use xlink:href="#SVGID_3_"  style="overflow:visible;"/>
			</clipPath>
			<g class="st4">
				<path class="st1" d="M97,51.8c6.4-0.5,12.7-0.9,19.1-1.4c0.9-0.8,1.8-1.7,2.7-2.5c2.3-2.1,0.9-6.6-2.5-5.4
					c-2.6,1-5.3,1.4-7.9,2.5c-2.6,1-5,2.1-7.4,3.4c-2.1,1.1-4.1,2.2-6,3.5C95.6,51.9,96.3,51.8,97,51.8z"/>
			</g>
		</g>
	</g>
	<path class="st1" d="M169,46.4c4-0.3,8-0.5,11.9-0.8c-1.3-9.4-4.8-18.3-6.8-27.4c-2-9.4-0.4-28.6-1-29.3c-4.1-3.3-8.1-8-10.4-12.9
		c-6.2,1.6-9.5,8.8-11,15c-3.7,14.5-3.7,29.7-7.9,44c-1.3,4.7-3.1,9.2-5.1,13.6C148.9,47.9,158.9,47.2,169,46.4z"/>
	<path class="st5" d="M25.4,57.3c17.6-1.4,35.2-2.8,52.8-4.1c0.5-0.5,1-1.1,1.5-1.6c6.8-6.8,16.3-12.9,25.9-13.1
		c0.6,0.5,0.9,1.5,0.9,2.2c0.6,3.3,1.3,6.8,1.3,10.2c18.7-1.4,37.5-2.8,56.2-4.2c0.7-8.9,0-18-1-26.9c-0.6-5.9-1.5-12-2.5-17.9
		c-0.4-2.7-0.8-5.3-1-7.8c-0.2-5.2,0.8-10.2,2.9-15c0.5-1,0.8-2.4,0-3.1c-0.4-0.2-0.8-0.3-1-0.3c-2.7-0.2-5.5,0.4-8.2,1.2
		c-10.9,2.9-22.3,5.5-33,2.5c-13.3-3.8-28.8,0.2-41.2,6.9c-9,4.9-16.8,12.2-24.1,19.5c-9.6,9.7-19.3,19.7-26.1,31.7
		c-3.4,6.1-6.4,13-8.4,20.2C22.1,57.5,23.7,57.4,25.4,57.3z"/>
	<g>
		<g>
			<defs>
				<path id="SVGID_5_" d="M70.4,121.4c-1.4,4.1-0.5,8.9,1.5,12.8c2.2,3.9,5.5,7.1,8.6,10.1c2.3,1.9,3.4,4.5,6.4,5.5
					c2.6,0.8,4.8,0.6,7.3,0.4c13.7-1.4,26.8-6.8,37.9-14.5c11.5-7.8,20.9-17.9,29.2-28.9c12.9-17.7,22.6-39.1,19.7-60.8
					c-1.3-9.5-4.8-18.5-6.9-27.7c-2-9.4-0.4-28.6-1-29.3c-4.1-3.3-8.1-8-10.4-12.9c-6.2,1.6-9.5,8.8-11,15
					c-3.7,14.5-3.7,29.7-7.9,44c-1.7,5.9-4,11.4-6.6,16.8C122.9,81.4,99.3,106.4,70.4,121.4z"/>
			</defs>
			<clipPath id="SVGID_6_">
				<use xlink:href="#SVGID_5_"  style="overflow:visible;"/>
			</clipPath>
			<g class="st6">
				<path class="st3" d="M152.9,8.7c0.1,0.8,0.3,1.7,0.8,2.4c-0.3,1.4-0.4,2.5-0.1,3.8c-0.3,0.8-0.3,1.4-0.2,2.1
					c0.1,1.9,0.7,3.6,1.4,5.3c-1,1.6-1.5,3.4-1.1,5.3c-1,1.8-1.4,3.9-0.5,5.8c0.7,1.7,1.6,3.3,2.5,4.8c-0.9,1-1.5,2.4-1.8,4
					c0,0.6-0.1,1.2-0.1,1.7c-0.3,0.8-0.4,1.8-0.4,2.7c0.1,0.3,0.1,0.6,0.2,0.9c5.2-0.4,10.4-0.8,15.7-1.2c7.9-0.6,15.7-1,23.6-1.3
					c-0.2-0.7-0.6-1.4-1.1-2c0.4-1.8,0.3-3.9-1-5.5c0.4-2,0.1-3.8-1-5.5c0.6-1.8,0.5-3.9-0.2-5.6c0.8-2.6,0.1-5.8-2.1-7.7
					c-1.6-1.4-3.3-2.6-4.9-4.1c-0.5-0.9-0.9-1.7-1.7-2.4c-2.7-2.5-5.3-4.6-8.2-6.9c-0.4-0.5-0.8-1.1-1.3-1.6
					c-3.3-3.6-7.4-6.4-11.6-8.7c-7.6-4-14.3,6.6-8.3,12.1C151.8,7.6,152.2,8.1,152.9,8.7z"/>
			</g>
		</g>
	</g>
	<g>
		<g>
			<defs>
				<path id="SVGID_7_" d="M23.3,102.6c2.4,4,7.9,5.4,12.4,4.5c4.5-1.1,8.3-4.1,11.5-7.6c6.6-7,11.3-15.6,16.1-24s9.5-17,16.3-23.9
					c6.8-6.8,16.3-12.9,25.9-13.1c0.6,0.5,0.9,1.5,0.9,2.2c0.9,4.7,1.9,9.8,0.9,14.5c-0.9,3.9-2.9,7.5-4.9,11.1
					c-2.1,3.4-3.7,7-6.2,10.3C91,83.6,85.6,90.3,80.3,97.2c-5.6,7.3-11.6,15.1-12.2,24.1c-0.2,2.7,0,5.8,1.2,8.2
					c0.7,1.5,1.7,2.8,3,4c4.4,4.3,11,6.1,16.9,4.7c2.1-0.5,3.9-1.3,5.8-2.2c7.1-3,14.3-6.2,20.5-10.7c5.5-3.9,10.1-8.4,14.8-13.2
					c7-7,13.7-14.5,19.2-22.9c5.5-8.3,8.5-17.9,11.6-27.4c4.4-13.4,3.5-27.9,1.9-42c-0.6-5.9-1.5-12-2.5-17.9
					c-0.4-2.7-0.8-5.3-1-7.8c-0.2-5.2,0.8-10.2,2.9-15c0.5-1,0.8-2.4,0-3.1c-0.4-0.2-0.8-0.3-1-0.3c-2.7-0.2-5.5,0.4-8.2,1.2
					c-10.9,2.9-22.3,5.5-33,2.5c-13.3-3.8-28.8,0.2-41.2,6.9c-9,4.9-16.8,12.2-24.1,19.5c-9.6,9.7-19.3,19.7-26.1,31.7
					C18.2,56.5,11.9,83.9,23.3,102.6z"/>
			</defs>
			<clipPath id="SVGID_8_">
				<use xlink:href="#SVGID_7_"  style="overflow:visible;"/>
			</clipPath>
			<g class="st7">
				<path class="st8" d="M25.4,57.3c4-0.3,8-0.6,12-1c1-5.1,2.3-10,3.9-15c0.1-0.6,0.5-1.3,0.6-1.9c0-0.1,0.1-0.3,0.2-0.4
					c0.3-0.6,0.5-1.4,0.8-2c0.8-2.2,1.6-4.3,2.6-6.7c1.6-4,3.6-7.8,5.9-11.4c1.5-2.6,4-5.7,7-8.6c0,0,2.9-2.5,1.3-1.2
					c0.7-0.6,1.6-1.3,2.5-1.9c1.5-1.1,2.9-2.1,4.6-3c4-2.4,5.9-3.1,10.6-4.8c3.6-1.2,7.1-2.1,10.7-2.9c0.6,0,1.3-0.3,1.9-0.3
					c-0.9,0.3-0.7,0.2,0.4,0c0.6,0,1.3-0.3,1.9-0.3c1.9-0.3,4-0.5,5.9-0.6c3.8-0.3,7.5-0.4,11.1-0.3c0.4,0,3.3,0.3,1.4,0.1
					c1.2,0.1,2.1,0.2,3.1,0.3c1.7,0.3,3.5,0.5,5.1,0.8c4.3,0.8,8.6,1.7,13,1.7c9.4,0.3,17.7-4.4,24.6-10.5c3.6-3.1,7-6.5,9.6-10.5
					c2.4-3.4,3.7-7,4-11c0.2-2.5-2.6-3.5-4.5-3.1c-4.9,0.9-9.5,4-13.9,6.8c-2,1.3-3.8,2.6-5.9,3.7c-1.1,0.7-2.4,1.3-3.1,1.8
					c0,0-1.7,0.8-1.8,0.9c-1.7,0.6-3.4,1.3-5.1,1.6c1.5-0.3-2.1,0-2.5,0c1.7-0.1-1.6-0.3-1.6-0.3c-4.3-0.6-8.6-1.9-13-2.3
					c-16.9-2-34.4-0.3-50.3,5.9c-9.3,3.6-18,8.6-25.1,15.7c-6.6,6.4-11.8,14.9-15.5,23.4C22,31.9,17.9,44.8,16,58
					C19.1,57.8,22.2,57.5,25.4,57.3z M41.8,39.5C41.6,40.2,41.5,40.2,41.8,39.5L41.8,39.5z"/>
			</g>
		</g>
		<g>
			<defs>
				<path id="SVGID_9_" d="M23.3,102.6c2.4,4,7.9,5.4,12.4,4.5c4.5-1.1,8.3-4.1,11.5-7.6c6.6-7,11.3-15.6,16.1-24s9.5-17,16.3-23.9
					c6.8-6.8,16.3-12.9,25.9-13.1c0.6,0.5,0.9,1.5,0.9,2.2c0.9,4.7,1.9,9.8,0.9,14.5c-0.9,3.9-2.9,7.5-4.9,11.1
					c-2.1,3.4-3.7,7-6.2,10.3C91,83.6,85.6,90.3,80.3,97.2c-5.6,7.3-11.6,15.1-12.2,24.1c-0.2,2.7,0,5.8,1.2,8.2
					c0.7,1.5,1.7,2.8,3,4c4.4,4.3,11,6.1,16.9,4.7c2.1-0.5,3.9-1.3,5.8-2.2c7.1-3,14.3-6.2,20.5-10.7c5.5-3.9,10.1-8.4,14.8-13.2
					c7-7,13.7-14.5,19.2-22.9c5.5-8.3,8.5-17.9,11.6-27.4c4.4-13.4,3.5-27.9,1.9-42c-0.6-5.9-1.5-12-2.5-17.9
					c-0.4-2.7-0.8-5.3-1-7.8c-0.2-5.2,0.8-10.2,2.9-15c0.5-1,0.8-2.4,0-3.1c-0.4-0.2-0.8-0.3-1-0.3c-2.7-0.2-5.5,0.4-8.2,1.2
					c-10.9,2.9-22.3,5.5-33,2.5c-13.3-3.8-28.8,0.2-41.2,6.9c-9,4.9-16.8,12.2-24.1,19.5c-9.6,9.7-19.3,19.7-26.1,31.7
					C18.2,56.5,11.9,83.9,23.3,102.6z"/>
			</defs>
			<clipPath id="SVGID_10_">
				<use xlink:href="#SVGID_9_"  style="overflow:visible;"/>
			</clipPath>
			<g class="st9">
				<path class="st8" d="M97,51.8c2.4-0.2,4.8-0.4,7.2-0.5c1.9-0.4,3.8-0.7,5.7-1.1c3.4-0.6,6.2-4.3,6.9-7.6
					c0.6-2.5,0.2-5.4-1.3-7.6c-3-4-7.1-5.2-11.8-4.3c-4.2,0.9-8.1,1.6-12.1,2.6c-4.7,1.3-8.5,3.9-12.1,7.2c-4.1,4-7.6,8.7-10.9,13.5
					C78,53.2,87.5,52.5,97,51.8z"/>
			</g>
		</g>
		<g>
			<defs>
				<path id="SVGID_11_" d="M23.3,102.6c2.4,4,7.9,5.4,12.4,4.5c4.5-1.1,8.3-4.1,11.5-7.6c6.6-7,11.3-15.6,16.1-24s9.5-17,16.3-23.9
					c6.8-6.8,16.3-12.9,25.9-13.1c0.6,0.5,0.9,1.5,0.9,2.2c0.9,4.7,1.9,9.8,0.9,14.5c-0.9,3.9-2.9,7.5-4.9,11.1
					c-2.1,3.4-3.7,7-6.2,10.3C91,83.6,85.6,90.3,80.3,97.2c-5.6,7.3-11.6,15.1-12.2,24.1c-0.2,2.7,0,5.8,1.2,8.2
					c0.7,1.5,1.7,2.8,3,4c4.4,4.3,11,6.1,16.9,4.7c2.1-0.5,3.9-1.3,5.8-2.2c7.1-3,14.3-6.2,20.5-10.7c5.5-3.9,10.1-8.4,14.8-13.2
					c7-7,13.7-14.5,19.2-22.9c5.5-8.3,8.5-17.9,11.6-27.4c4.4-13.4,3.5-27.9,1.9-42c-0.6-5.9-1.5-12-2.5-17.9
					c-0.4-2.7-0.8-5.3-1-7.8c-0.2-5.2,0.8-10.2,2.9-15c0.5-1,0.8-2.4,0-3.1c-0.4-0.2-0.8-0.3-1-0.3c-2.7-0.2-5.5,0.4-8.2,1.2
					c-10.9,2.9-22.3,5.5-33,2.5c-13.3-3.8-28.8,0.2-41.2,6.9c-9,4.9-16.8,12.2-24.1,19.5c-9.6,9.7-19.3,19.7-26.1,31.7
					C18.2,56.5,11.9,83.9,23.3,102.6z"/>
			</defs>
			<clipPath id="SVGID_12_">
				<use xlink:href="#SVGID_11_"  style="overflow:visible;"/>
			</clipPath>
			<g class="st10">
				<path class="st8" d="M147.3,48c7-0.5,14-1,21-1.6c-0.4-7-1.7-13.9-2.4-20.9c-0.6-8-1.6-16-1.4-24.1c0.1-6.2,1.7-13,5.1-18.8
					c1.4-2.2,3.3-4.5,5.5-6.4c2.5-2.3,4.8-5.2,7.8-6.7c2.4-1.3,1.5-5.1-1.2-5.9c-4.3-0.8-8.9-1.4-13,0.6c-3.7,1.8-7.2,4.4-10,7.3
					c-6.3,6.2-9.8,14.8-11.9,23.2c-3.8,15.8-1.7,32,0.1,48C147,44.5,147.1,46.2,147.3,48z"/>
			</g>
		</g>
		<g>
			<defs>
				<path id="SVGID_13_" d="M23.3,102.6c2.4,4,7.9,5.4,12.4,4.5c4.5-1.1,8.3-4.1,11.5-7.6c6.6-7,11.3-15.6,16.1-24s9.5-17,16.3-23.9
					c6.8-6.8,16.3-12.9,25.9-13.1c0.6,0.5,0.9,1.5,0.9,2.2c0.9,4.7,1.9,9.8,0.9,14.5c-0.9,3.9-2.9,7.5-4.9,11.1
					c-2.1,3.4-3.7,7-6.2,10.3C91,83.6,85.6,90.3,80.3,97.2c-5.6,7.3-11.6,15.1-12.2,24.1c-0.2,2.7,0,5.8,1.2,8.2
					c0.7,1.5,1.7,2.8,3,4c4.4,4.3,11,6.1,16.9,4.7c2.1-0.5,3.9-1.3,5.8-2.2c7.1-3,14.3-6.2,20.5-10.7c5.5-3.9,10.1-8.4,14.8-13.2
					c7-7,13.7-14.5,19.2-22.9c5.5-8.3,8.5-17.9,11.6-27.4c4.4-13.4,3.5-27.9,1.9-42c-0.6-5.9-1.5-12-2.5-17.9
					c-0.4-2.7-0.8-5.3-1-7.8c-0.2-5.2,0.8-10.2,2.9-15c0.5-1,0.8-2.4,0-3.1c-0.4-0.2-0.8-0.3-1-0.3c-2.7-0.2-5.5,0.4-8.2,1.2
					c-10.9,2.9-22.3,5.5-33,2.5c-13.3-3.8-28.8,0.2-41.2,6.9c-9,4.9-16.8,12.2-24.1,19.5c-9.6,9.7-19.3,19.7-26.1,31.7
					C18.2,56.5,11.9,83.9,23.3,102.6z"/>
			</defs>
			<clipPath id="SVGID_14_">
				<use xlink:href="#SVGID_13_"  style="overflow:visible;"/>
			</clipPath>
			<g class="st11">
				<path class="st8" d="M105,46.6c0,1.7-0.2,3.2-0.5,4.6c6.1-0.5,12.3-0.9,18.4-1.4c-0.5-4.4-2.1-8.4-5.2-11.9
					c-3.5-3.8-8.7-6.5-13.7-3.8c-1.1,0.7-1.4,2-1,2.6C103.6,40.4,105.1,43,105,46.6z"/>
			</g>
		</g>
	</g>
	<path class="st12" d="M57.1,54.8c1.6-2.9,3.3-5.6,4.8-6.9c2-1.7,8-8.7,10.2-10.2c4.2-3.2,8.6-6.2,13.4-8.3
		c5.2-2.1,10.3-3.5,15.8-3.9c7.3-0.3,14.1-1.8,17.6-8.8c1.7-3.2,0.7-6.6-1.6-8.9c-6-6.5-17.7-7.7-26-6.7c-9.3,1.7-18,6.3-24.2,13.5
		C60.9,22,56.2,31,53.8,40.4c-1.2,4.3-2.6,8.6-4,13c-0.2,0.6-0.5,1.3-0.7,2C51.7,55.2,54.4,55,57.1,54.8z"/>
	<g>
		<path class="st12" d="M123.5,37.9c1.1,2.2,1.9,4.7,2.6,6.9c0.4,1.5,0.8,3.1,1.2,4.7c4-0.3,8-0.6,12-0.9c-0.1-3.1-0.5-6.3-1.1-9.5
			c-1.3-7-4.2-15.6-11.9-17.4c-5.5-1.3-11.1,5.8-7.3,10.5C120.6,34.3,122.4,35.7,123.5,37.9z"/>
	</g>
	<path class="st13" d="M129.8,19c1.1,1.3,1.7,2.8,1.9,4.3c0.2,2.7-1.3,5.1-2.9,7.3c-2.1,2.8-4.4,5.5-7.5,7.1s-7.2,1.5-9.9-0.8
		c-1.2-1.1-1.9-2.7-2.6-4.2c-0.9-2.2-1.7-4.7-0.9-6.8c0.3-1,1-1.8,1.5-2.6C114.6,16.3,122.8,10.3,129.8,19z"/>
	<path class="st14" d="M123.5,21.2c1.6,0.8,2.7,2.7,2.6,4.4c0.1,0.8-0.3,1.7-0.6,2.3c-1,2.4-8.8,7.8-11.4,4.3
		C110.1,27,118.8,18.5,123.5,21.2z"/>
	<g>
		<g>
			<defs>
				<path id="SVGID_15_" d="M23.3,102.6c2.4,4,7.9,5.4,12.4,4.5c4.5-1.1,8.3-4.1,11.5-7.6c6.6-7,11.3-15.6,16.1-24s9.5-17,16.3-23.9
					c6.8-6.8,16.3-12.9,25.9-13.1c0.6,0.5,0.9,1.5,0.9,2.2c0.9,4.7,1.9,9.8,0.9,14.5c-0.9,3.9-2.9,7.5-4.9,11.1
					c-2.1,3.4-3.7,7-6.2,10.3C91,83.6,85.6,90.3,80.3,97.2c-5.6,7.3-11.6,15.1-12.2,24.1c-0.2,2.7,0,5.8,1.2,8.2
					c0.7,1.5,1.7,2.8,3,4c4.4,4.3,11,6.1,16.9,4.7c2.1-0.5,3.9-1.3,5.8-2.2c7.1-3,14.3-6.2,20.5-10.7c5.5-3.9,10.1-8.4,14.8-13.2
					c7-7,13.7-14.5,19.2-22.9c5.5-8.3,8.5-17.9,11.6-27.4c4.4-13.4,3.5-27.9,1.9-42c-0.6-5.9-1.5-12-2.5-17.9
					c-0.4-2.7-0.8-5.3-1-7.8c-0.2-5.2,0.8-10.2,2.9-15c0.5-1,0.8-2.4,0-3.1c-0.4-0.2-0.8-0.3-1-0.3c-2.7-0.2-5.5,0.4-8.2,1.2
					c-10.9,2.9-22.3,5.5-33,2.5c-13.3-3.8-28.8,0.2-41.2,6.9c-9,4.9-16.8,12.2-24.1,19.5c-9.6,9.7-19.3,19.7-26.1,31.7
					C18.2,56.5,11.9,83.9,23.3,102.6z"/>
			</defs>
			<clipPath id="SVGID_16_">
				<use xlink:href="#SVGID_15_"  style="overflow:visible;"/>
			</clipPath>
			<path class="st15" d="M156.8-20.6c0.4,0-0.2-0.7-0.8-0.7c-1.9,0.1-3.7,1.2-5.4,2.3c-2.2,1.5-4.2,3.4-5.7,5.4
				c-1.9,2.4-3.5,5.1-5,7.9c-3.4,6-11.6,14.1-10.8,17.9c0.6,3,3.4-0.4,6-2.2c3.3-2.4,6.4-6.2,10.1-11.3c1.6-2.2,7.6-9,9.5-11.3
				C156.5-14.8,157.4-17.8,156.8-20.6z"/>
		</g>
		<g>
			<defs>
				<path id="SVGID_17_" d="M23.3,102.6c2.4,4,7.9,5.4,12.4,4.5c4.5-1.1,8.3-4.1,11.5-7.6c6.6-7,11.3-15.6,16.1-24s9.5-17,16.3-23.9
					c6.8-6.8,16.3-12.9,25.9-13.1c0.6,0.5,0.9,1.5,0.9,2.2c0.9,4.7,1.9,9.8,0.9,14.5c-0.9,3.9-2.9,7.5-4.9,11.1
					c-2.1,3.4-3.7,7-6.2,10.3C91,83.6,85.6,90.3,80.3,97.2c-5.6,7.3-11.6,15.1-12.2,24.1c-0.2,2.7,0,5.8,1.2,8.2
					c0.7,1.5,1.7,2.8,3,4c4.4,4.3,11,6.1,16.9,4.7c2.1-0.5,3.9-1.3,5.8-2.2c7.1-3,14.3-6.2,20.5-10.7c5.5-3.9,10.1-8.4,14.8-13.2
					c7-7,13.7-14.5,19.2-22.9c5.5-8.3,8.5-17.9,11.6-27.4c4.4-13.4,3.5-27.9,1.9-42c-0.6-5.9-1.5-12-2.5-17.9
					c-0.4-2.7-0.8-5.3-1-7.8c-0.2-5.2,0.8-10.2,2.9-15c0.5-1,0.8-2.4,0-3.1c-0.4-0.2-0.8-0.3-1-0.3c-2.7-0.2-5.5,0.4-8.2,1.2
					c-10.9,2.9-22.3,5.5-33,2.5c-13.3-3.8-28.8,0.2-41.2,6.9c-9,4.9-16.8,12.2-24.1,19.5c-9.6,9.7-19.3,19.7-26.1,31.7
					C18.2,56.5,11.9,83.9,23.3,102.6z"/>
			</defs>
			<clipPath id="SVGID_18_">
				<use xlink:href="#SVGID_17_"  style="overflow:visible;"/>
			</clipPath>
			<g class="st16">
				<path class="st17" d="M23.6,57.4c3.4-13,11.1-25,19.4-35.2C54.1,8.1,65.4-2.7,81.5-10.6c6.7-3.4,13.2-6.4,20.8-7.1
					c8.4-0.8,16.4,0.9,24.5,2c7.8,1,15.8,1.1,23.3-1.5c7.1-2.4,14.7-6.7,18-13.6c0.5-1-0.6-2.6-1.9-2.2c-4.1,1.8-8.1,4.3-12.4,5.9
					c-4.3,1.7-9,2.6-13.8,2.8c-9.9,0.5-19.8-2.6-29.6-3.2C92.5-28.7,75-21.3,60.8-11C45.3,0.7,31.1,16,21.4,32.9
					c-4.5,7.9-8.1,16.6-10,25.6C15.4,58.1,19.5,57.7,23.6,57.4z"/>
			</g>
		</g>
		<g>
			<defs>
				<path id="SVGID_19_" d="M23.3,102.6c2.4,4,7.9,5.4,12.4,4.5c4.5-1.1,8.3-4.1,11.5-7.6c6.6-7,11.3-15.6,16.1-24s9.5-17,16.3-23.9
					c6.8-6.8,16.3-12.9,25.9-13.1c0.6,0.5,0.9,1.5,0.9,2.2c0.9,4.7,1.9,9.8,0.9,14.5c-0.9,3.9-2.9,7.5-4.9,11.1
					c-2.1,3.4-3.7,7-6.2,10.3C91,83.6,85.6,90.3,80.3,97.2c-5.6,7.3-11.6,15.1-12.2,24.1c-0.2,2.7,0,5.8,1.2,8.2
					c0.7,1.5,1.7,2.8,3,4c4.4,4.3,11,6.1,16.9,4.7c2.1-0.5,3.9-1.3,5.8-2.2c7.1-3,14.3-6.2,20.5-10.7c5.5-3.9,10.1-8.4,14.8-13.2
					c7-7,13.7-14.5,19.2-22.9c5.5-8.3,8.5-17.9,11.6-27.4c4.4-13.4,3.5-27.9,1.9-42c-0.6-5.9-1.5-12-2.5-17.9
					c-0.4-2.7-0.8-5.3-1-7.8c-0.2-5.2,0.8-10.2,2.9-15c0.5-1,0.8-2.4,0-3.1c-0.4-0.2-0.8-0.3-1-0.3c-2.7-0.2-5.5,0.4-8.2,1.2
					c-10.9,2.9-22.3,5.5-33,2.5c-13.3-3.8-28.8,0.2-41.2,6.9c-9,4.9-16.8,12.2-24.1,19.5c-9.6,9.7-19.3,19.7-26.1,31.7
					C18.2,56.5,11.9,83.9,23.3,102.6z"/>
			</defs>
			<clipPath id="SVGID_20_">
				<use xlink:href="#SVGID_19_"  style="overflow:visible;"/>
			</clipPath>
			<g class="st18">
				<path class="st17" d="M84.9,52.7c3-3.7,6.8-6.8,11.2-8.7c1.9-0.7,4.1-1.3,6.2-1.8c1.5-0.5,3.4-0.4,4.5-1.7c0,0,2.1-0.5,2.4-0.9
					c-1.2-3-5.6-3.4-8.3-3c-4.4,0.7-11.3,3.1-14.9,5.7c-4.4,3.1-8.1,6.9-11.4,11.2C78,53.2,81.5,52.9,84.9,52.7z"/>
			</g>
		</g>
		<g>
			<defs>
				<path id="SVGID_21_" d="M23.3,102.6c2.4,4,7.9,5.4,12.4,4.5c4.5-1.1,8.3-4.1,11.5-7.6c6.6-7,11.3-15.6,16.1-24s9.5-17,16.3-23.9
					c6.8-6.8,16.3-12.9,25.9-13.1c0.6,0.5,0.9,1.5,0.9,2.2c0.9,4.7,1.9,9.8,0.9,14.5c-0.9,3.9-2.9,7.5-4.9,11.1
					c-2.1,3.4-3.7,7-6.2,10.3C91,83.6,85.6,90.3,80.3,97.2c-5.6,7.3-11.6,15.1-12.2,24.1c-0.2,2.7,0,5.8,1.2,8.2
					c0.7,1.5,1.7,2.8,3,4c4.4,4.3,11,6.1,16.9,4.7c2.1-0.5,3.9-1.3,5.8-2.2c7.1-3,14.3-6.2,20.5-10.7c5.5-3.9,10.1-8.4,14.8-13.2
					c7-7,13.7-14.5,19.2-22.9c5.5-8.3,8.5-17.9,11.6-27.4c4.4-13.4,3.5-27.9,1.9-42c-0.6-5.9-1.5-12-2.5-17.9
					c-0.4-2.7-0.8-5.3-1-7.8c-0.2-5.2,0.8-10.2,2.9-15c0.5-1,0.8-2.4,0-3.1c-0.4-0.2-0.8-0.3-1-0.3c-2.7-0.2-5.5,0.4-8.2,1.2
					c-10.9,2.9-22.3,5.5-33,2.5c-13.3-3.8-28.8,0.2-41.2,6.9c-9,4.9-16.8,12.2-24.1,19.5c-9.6,9.7-19.3,19.7-26.1,31.7
					C18.2,56.5,11.9,83.9,23.3,102.6z"/>
			</defs>
			<clipPath id="SVGID_22_">
				<use xlink:href="#SVGID_21_"  style="overflow:visible;"/>
			</clipPath>
			<g class="st19">
				<path class="st17" d="M166.2,46.6c0.2-9.7-0.5-19.6-1.3-29c-0.8-7.6-1.5-15.4-1.4-23.3c0.1-3.8,0.4-7.5,1.1-11.2
					c0.2-1.9,0.9-3.7,1.3-5.5c0.4-2,0.1-3.7,0.5-5.6c0.4-2-2.4-3.3-3.2-1.9c-1.4,1.8-3.2,2.9-4.2,4.9c-0.8,1.6-1.3,3.6-1.9,5.3
					c-1.1,3.5-1.8,7.2-2.1,11.1c-0.8,7.9-0.4,15.8,0.2,23.6c0.8,10.7,1.6,21.6,1.3,32.3C159.7,47.1,162.9,46.9,166.2,46.6z"/>
			</g>
		</g>
		<g>
			<defs>
				<path id="SVGID_23_" d="M23.3,102.6c2.4,4,7.9,5.4,12.4,4.5c4.5-1.1,8.3-4.1,11.5-7.6c6.6-7,11.3-15.6,16.1-24s9.5-17,16.3-23.9
					c6.8-6.8,16.3-12.9,25.9-13.1c0.6,0.5,0.9,1.5,0.9,2.2c0.9,4.7,1.9,9.8,0.9,14.5c-0.9,3.9-2.9,7.5-4.9,11.1
					c-2.1,3.4-3.7,7-6.2,10.3C91,83.6,85.6,90.3,80.3,97.2c-5.6,7.3-11.6,15.1-12.2,24.1c-0.2,2.7,0,5.8,1.2,8.2
					c0.7,1.5,1.7,2.8,3,4c4.4,4.3,11,6.1,16.9,4.7c2.1-0.5,3.9-1.3,5.8-2.2c7.1-3,14.3-6.2,20.5-10.7c5.5-3.9,10.1-8.4,14.8-13.2
					c7-7,13.7-14.5,19.2-22.9c5.5-8.3,8.5-17.9,11.6-27.4c4.4-13.4,3.5-27.9,1.9-42c-0.6-5.9-1.5-12-2.5-17.9
					c-0.4-2.7-0.8-5.3-1-7.8c-0.2-5.2,0.8-10.2,2.9-15c0.5-1,0.8-2.4,0-3.1c-0.4-0.2-0.8-0.3-1-0.3c-2.7-0.2-5.5,0.4-8.2,1.2
					c-10.9,2.9-22.3,5.5-33,2.5c-13.3-3.8-28.8,0.2-41.2,6.9c-9,4.9-16.8,12.2-24.1,19.5c-9.6,9.7-19.3,19.7-26.1,31.7
					C18.2,56.5,11.9,83.9,23.3,102.6z"/>
			</defs>
			<clipPath id="SVGID_24_">
				<use xlink:href="#SVGID_23_"  style="overflow:visible;"/>
			</clipPath>
			<g class="st20">
				<path class="st21" d="M104.6,44.5c0.5,2.3,0.4,4.3-0.1,6.7c2.8-0.2,5.5-0.4,8.3-0.6c0-1.9-0.3-3.8-0.8-5.7c-0.8-3-4.1-8.3-8-6.5
					c-0.4,0.2-0.7,0.4-0.5,0.8C103.4,41.2,104.3,42.6,104.6,44.5z"/>
			</g>
		</g>
	</g>
	<g>
		<g>
			<defs>
				<path id="SVGID_25_" d="M70.4,121.4c-1.4,4.1-0.5,8.9,1.5,12.8c2.2,3.9,5.5,7.1,8.6,10.1c2.3,1.9,3.4,4.5,6.4,5.5
					c2.6,0.8,4.8,0.6,7.3,0.4c13.7-1.4,26.8-6.8,37.9-14.5c11.5-7.8,20.9-17.9,29.2-28.9c12.9-17.7,22.6-39.1,19.7-60.8
					c-1.3-9.5-4.8-18.5-6.9-27.7c-2-9.4-0.4-28.6-1-29.3c-4.1-3.3-8.1-8-10.4-12.9c-6.2,1.6-9.5,8.8-11,15
					c-3.7,14.5-3.7,29.7-7.9,44c-1.7,5.9-4,11.4-6.6,16.8C122.9,81.4,99.3,106.4,70.4,121.4z"/>
			</defs>
			<clipPath id="SVGID_26_">
				<use xlink:href="#SVGID_25_"  style="overflow:visible;"/>
			</clipPath>
			<g class="st22">
				<path class="st1" d="M175.9,45.9c3.6-0.2,7.2-0.4,10.8-0.6c-1.2-7.3-3.3-14.5-5.5-21.9c-2.3-7.1-3.9-14.3-4.3-21.8
					c-0.3-7.3,1.6-14.1,2.6-21.3c0.3-1.6-1.4-3-2.8-2.1c-7.1,4.8-8.6,13.3-8.4,21.2c-0.4,8.1,1.2,16.2,3.1,24.2
					C173.2,31.1,175.1,38.5,175.9,45.9z"/>
			</g>
		</g>
	</g>
	<g>
		<g>
			<defs>
				<path id="SVGID_27_" d="M23.3,102.6c2.4,4,7.9,5.4,12.4,4.5c4.5-1.1,8.3-4.1,11.5-7.6c6.6-7,11.3-15.6,16.1-24s9.5-17,16.3-23.9
					c6.8-6.8,16.3-12.9,25.9-13.1c0.6,0.5,0.9,1.5,0.9,2.2c0.9,4.7,1.9,9.8,0.9,14.5c-0.9,3.9-2.9,7.5-4.9,11.1
					c-2.1,3.4-3.7,7-6.2,10.3C91,83.6,85.6,90.3,80.3,97.2c-5.6,7.3-11.6,15.1-12.2,24.1c-0.2,2.7,0,5.8,1.2,8.2
					c0.7,1.5,1.7,2.8,3,4c4.4,4.3,11,6.1,16.9,4.7c2.1-0.5,3.9-1.3,5.8-2.2c7.1-3,14.3-6.2,20.5-10.7c5.5-3.9,10.1-8.4,14.8-13.2
					c7-7,13.7-14.5,19.2-22.9c5.5-8.3,8.5-17.9,11.6-27.4c4.4-13.4,3.5-27.9,1.9-42c-0.6-5.9-1.5-12-2.5-17.9
					c-0.4-2.7-0.8-5.3-1-7.8c-0.2-5.2,0.8-10.2,2.9-15c0.5-1,0.8-2.4,0-3.1c-0.4-0.2-0.8-0.3-1-0.3c-2.7-0.2-5.5,0.4-8.2,1.2
					c-10.9,2.9-22.3,5.5-33,2.5c-13.3-3.8-28.8,0.2-41.2,6.9c-9,4.9-16.8,12.2-24.1,19.5c-9.6,9.7-19.3,19.7-26.1,31.7
					C18.2,56.5,11.9,83.9,23.3,102.6z"/>
			</defs>
			<clipPath id="SVGID_28_">
				<use xlink:href="#SVGID_27_"  style="overflow:visible;"/>
			</clipPath>
			<g class="st23">
				<g>
					<path class="st21" d="M144.4-6.4c-5,3.1-10.8,5-16.6,4.5c-6.6-0.5-11.8-4.3-17.3-7.5c-6-3.6-11.9-5.5-19-5.1
						c-3.4,0.3-6.8,0.9-10.1,1.5c-3,0.6-6,1.8-9.1,2c-0.4,0-0.4-0.5-0.2-0.6c4.6-3,11.4-4.1,16.7-4.7c5.7-0.6,11.3-0.1,16.7,2
						c5.9,2.4,10.9,6.9,17,9.1c7.3,2.7,14.4,0.3,21.6-1.6C144.4-6.6,144.6-6.5,144.4-6.4L144.4-6.4z"/>
				</g>
				<g>
					<path class="st21" d="M134.3,9.1c-3.2,3.9-8.4,3.5-12.8,3.4c-6.9-0.1-12.8,3.4-15.2,10.2c-2.1,5.9-0.5,11.4,1.8,16.8
						c0.9,2.4,1.7,7.4-2.3,7.3c-0.4,0-0.6-0.3-0.2-0.7c2.9-2.5,0.9-5.4-0.2-8.4c-0.9-2-1.5-4.1-1.6-6.4c-0.5-4.4,0.3-9,2.9-12.9
						c2.4-3.6,6.2-6.4,10.6-7.3C123,9.7,128.7,12,134,8.5C134.2,8.3,134.4,8.7,134.3,9.1L134.3,9.1z"/>
				</g>
				<g>
					<path class="st21" d="M140.9-2.5c2.8-1.2,5.5,1.1,6.1,4c0.5,2.1-0.1,4.4-0.3,6.6c-0.3,3.1-0.1,6.2,0.9,9
						c2.1,5.6,7.9,8.2,11,13.2c2.4,3.9,3.3,8.8,1.7,13.1c-0.1,0.6-1.1,0.3-1-0.3c0-4.6-0.5-9.2-3.4-12.8c-2.8-3.8-7.2-6-9.4-10.2
						c-1.8-3.1-2.4-6.5-2.1-10s3.2-13.3-3.6-12.2C140.7-2.1,140.7-2.5,140.9-2.5L140.9-2.5z"/>
				</g>
				<g>
					<path class="st21" d="M131.9,11.2c8,4.6,8.4,17,4.5,24.1c-2.2,4-5.5,6.7-10.2,7.7c-3.2,0.6-6.1,0.8-9.1,2.2
						c-2.2,1.1-4.2,3-6.7,3.4c-0.4,0-0.8-0.3-0.6-0.7c1.9-2.8,6-4.9,9.4-5.9c4.5-1.5,9.2-0.7,12.9-4.4c3.2-3.3,5.1-8.3,5-12.9
						c0-5.4-2.8-9-5.4-13.2C131.4,11.4,131.5,11.2,131.9,11.2L131.9,11.2z"/>
				</g>
				<g>
					<path class="st21" d="M134.3,4.3c-4.3,4.7-13,3.1-18.8,3.1c-7.7,0-16.6,1-21.5,7.9c-5,7.3,0.6,13.8,3.8,20.5
						c1.8,3.7,3.1,10.9-2.4,12.3c-0.7,0.2-1-0.7-0.5-1.1c6.5-5.5-2.2-14.2-4.2-19.9c-1.9-5.2-0.8-10.7,3.1-14.8
						c4.3-4.5,10.3-6.1,16.4-6.6c3.6-0.3,7.1-0.1,10.8,0c4,0.1,9.4,0.4,12.9-1.7C134.1,3.7,134.5,4.1,134.3,4.3L134.3,4.3z"/>
				</g>
				<g>
					<path class="st21" d="M83.5,41.7c2.9,2.9,3.6,7.2,2.3,10.9c0.2,0,0.3,0,0.5,0c1.6-3.9,0.9-8.6-2.1-11.9
						c-3.1-3.2-7.5-5-10.2-8.6c-2.5-3.3-4.2-7.2-4.7-11.4C68.5,13,72.2,5.5,78.4,1C84-3.1,91.1-3.6,97.9-2.6
						c6.2,1.1,12.1,3.1,18.2,4.6c2.7,0.6,5.7,1.1,8.5,1.3c2.9,0.2,5.9-0.6,8.8-0.1c4.5,1,5,5.2,5.1,9c0.2,2.5,0.4,5.2,1.1,7.6
						c1.8,6.2,6.1,12.4,4.1,19.1c-1.1,4-3.9,7.4-7.3,9.9c1.4-0.1,2.8-0.2,4.2-0.3c4.4-4.3,7.1-10.1,5.8-16.5
						c-1.3-6.6-5.1-12.3-5.5-19.2c-0.2-5.6-1.2-11.4-7.8-12.1c-3.1-0.3-6.3,0.3-9.4,0.1c-3.3-0.3-6.6-1-9.7-1.8
						c-6.3-1.6-12.6-3.9-19.1-4.3C81.8-6.4,69,2.2,67.8,16c-0.7,6.4,1.5,12.9,5.7,17.8C76.4,37,80.4,38.6,83.5,41.7z"/>
				</g>
				<g>
					<path class="st21" d="M158.9,47.2c1-3.1,1.5-6.5,1.5-10c0-0.2-0.2-0.2-0.2-0.2c-0.1,3.6-0.9,7.1-2.3,10.3L158.9,47.2z"/>
				</g>
				<g>
					<path class="st21" d="M64,40.2c3.3,2.4,7,4.3,9.2,7.8c1.1,1.8,1.5,3.6,1.6,5.4c0.6,0,1.2-0.1,1.7-0.1c-0.3-2.9-1.7-5.8-3.4-7.8
						c-2.3-2.7-5.5-4.2-8.3-6.3c-2.4-1.9-4.7-4.1-6.5-6.8c-3.5-5.7-5-12.7-3.3-19.1c1.6-6.8,5.9-11.6,10.9-16c0,0,0-0.2,0.2-0.4
						C55.4,1.5,51,15.5,54.1,26C55.7,31.6,59.1,36.8,64,40.2z"/>
				</g>
				<g>
					<path class="st21" d="M47.1,48c4.5,2.1,9.6,3.8,13.9,6.4c0.9-0.1,1.8-0.1,2.7-0.2c-2.5-1.8-5.3-3.2-8-4.4c-5-2.3-10.5-4-15-7.5
						c-4.9-3.9-6.4-8.9-6.9-14.9c-0.1-1-1.4-0.9-1.5,0.1C31.7,37.5,38.8,44.2,47.1,48z"/>
				</g>
				<g>
					<path class="st21" d="M33.6,56.6c0.7-0.1,1.5-0.1,2.2-0.2c-2.8-1.6-5.5-3.5-7.6-5.8c-2.5-2.9-3.9-6.2-4.6-10
						c-0.4-2.5-0.2-5-0.7-7.2c-0.2-0.6-1-0.5-1.1,0.1c-0.6,4.5,0.4,10.2,2.6,14.2C26.4,51.4,29.9,54.4,33.6,56.6z"/>
				</g>
			</g>
		</g>
	</g>
</g>
<g>
	<g>
		<g>
			<path class="st1" d="M84.7,97.8c-7.9-1.2-15.8-2.4-23.6-3.5c-1.8,1.2-3.7,2.4-5.4,3.6c-5,3.3-10.1,6.4-15,9.8
				c-10.5,6.6-21.4,13.3-30,21.6c2.9,7.6,6.6,12.6,12.2,18.3c0.8,0.9,7.8,2.3,17.8-5.1c3.7-2.7,13.5-12.7,16.7-15.9
				c10.4-10.1,11.8-12.8,24.3-20.2c4.9-2.9,10.4-5.5,16-6.7C93.4,99.1,89,98.4,84.7,97.8z"/>
		</g>
		<g>
			<defs>
				<path id="SVGID_29_" d="M10.7,129.3c2.9,7.6,6.6,12.6,12.2,18.3c0.8,0.9,7.8,2.3,17.8-5.1c3.7-2.7,13.5-12.7,16.7-15.9
					c10.4-10.1,11.8-12.8,24.3-20.2c8.1-4.8,17.6-8.6,26.8-7.2c1-1.8,0.1-4.3,0-6.4c-0.2-3.7,0-7.7-2.1-10.6c-1.8-2.4-5.1-3.7-8-3.5
					c-3.1-0.1-6,1-8.8,2c-6.8,2.5-13.6,5.1-19.9,8.4c-4.8,2.6-9.5,5.5-14.1,8.7c-5,3.3-10.1,6.4-15,9.8
					C30.2,114.2,19.3,120.9,10.7,129.3z"/>
			</defs>
			<clipPath id="SVGID_30_">
				<use xlink:href="#SVGID_29_"  style="overflow:visible;"/>
			</clipPath>
			<g class="st24">
				<path class="st3" d="M84.7,97.8c-6.4-1-12.9-1.9-19.3-2.9c0.1,1.2,0.5,2.5,1.2,3.7c1.8,3.6,3.9,6.6,6.2,9.3
					c0.1,4.7,5.5,7.2,9.4,5.5c1,0,1.8-0.3,2.6-0.8c0.4,0.1,0.8,0.1,1.2,0c3.1-0.1,5.1-1.9,6.1-4.3c1.8-0.1,3.6-0.8,4.8-2.2
					c0.6,0.1,1.1,0.2,1.9,0.1c0.4,0.1,0.8-0.1,1.2-0.2l1.1,0.2c3.9,0.2,6.4-1.9,7.5-4.7C100.6,100.1,92.7,98.9,84.7,97.8z"/>
				<path class="st25" d="M8.1,137.4c-2-3.6-1.7-7.8,1.8-10.4c0.4-0.3,1.1-0.6,1.7-0.9c0.2-0.2,0.5-0.5,0.9-0.6
					c2.4-1.6,5.5-1.7,8-0.3c0.2-0.2,0.4-0.3,0.6-0.3c1.2-0.6,2.9-0.9,4.2-0.7c0.7-0.5,1.3-1,2.1-1.2c1.8-0.7,3.7-0.4,5.2,0.2
					c0.6-0.3,1.2-0.6,2-0.7c0.7-1.8,3.2-1.8,4.1,0c0.2,0.2,0.3,0.6,0.5,0.8c1.1,0.7,1.9,1.6,2.4,3.1c1.5,3.9,3.1,8,4.6,11.9
					c0.3,0.6,0.6,1.2,0.7,2c0.6,1.2,1.1,2.7,1.7,3.9c0,0,0,0-0.2,0c0.8,2.4,0.4,5.3-2,6.9c-1.1,0.8-2.5,1.2-3.8,1
					c-1.1,1.2-2.6,2.1-4.1,2.5c-0.6,0.1-1,0.2-1.6,0.2c-1.7,1.3-4.2,1.9-6.2,1.4c-1,2.6-4.4,3.8-6.8,2.7
					C15.9,154.8,12.2,144.8,8.1,137.4z"/>
			</g>
		</g>
	</g>
	<g>
		<g>
			<defs>
				<path id="SVGID_31_" d="M10.7,129.3c2.9,7.6,6.6,12.6,12.2,18.3c0.8,0.9,7.8,2.3,17.8-5.1c3.7-2.7,13.5-12.7,16.7-15.9
					c10.4-10.1,11.8-12.8,24.3-20.2c8.1-4.8,17.6-8.6,26.8-7.2c1-1.8,0.1-4.3,0-6.4c-0.2-3.7,0-7.7-2.1-10.6c-1.8-2.4-5.1-3.7-8-3.5
					c-3.1-0.1-6,1-8.8,2c-6.8,2.5-13.6,5.1-19.9,8.4c-4.8,2.6-9.5,5.5-14.1,8.7c-5,3.3-10.1,6.4-15,9.8
					C30.2,114.2,19.3,120.9,10.7,129.3z"/>
			</defs>
			<clipPath id="SVGID_32_">
				<use xlink:href="#SVGID_31_"  style="overflow:visible;"/>
			</clipPath>
			<g class="st26">
				<path class="st1" d="M86.8,98.1c-1.1,0.5-2.2,1.1-3.3,1.7c-9.3,5.2-16.5,13.4-24,20.8c-6.6,6.6-12.9,13.7-20.1,19.2
					c-4.6,3.6-12.2,7.5-17.9,4.1c-3.9-2.3-6.6-6.6-11.9-4.9c-3.6,1-5.9,4.5-4.3,8.1c1.6,3.5,6.3,6.8,9.7,8.6c3.2,1.8,7,2.6,10.8,2.6
					c8.5,0.1,16.3-4.1,22.5-9.6c7.6-6.6,14.2-14.3,21-21.4c6.4-6.6,12.7-13.6,20.5-18.2c3.8-2.1,8.1-3.8,12.2-5.3
					c2.2-0.8,4.3-1.4,6.3-2.4C101.3,100.2,94,99.1,86.8,98.1z"/>
			</g>
		</g>
	</g>
	<path class="st1" d="M156.2,108.5c-7.8-1.2-15.5-2.3-23.3-3.5c-0.2,0.2-0.4,0.5-0.6,0.7c-20.5,25.6-49.1,44.7-80.6,53
		c-2.3,3.7-2.4,8.5-1.3,12.8c1.3,4.3,3.8,8.1,6.2,11.8c1.8,2.4,2.3,5.2,5,6.8c2.3,1.3,4.6,1.7,7.1,2c13.7,1.7,27.6-0.7,40.2-5.8
		c13-5,24.4-12.8,34.8-21.7c16-13.9,29.9-32,32.4-53C169.5,110.4,162.8,109.5,156.2,108.5z"/>
	<path class="st5" d="M156.2,108.5c-17.7-2.7-35.4-5.3-53-8c-0.2,0.6-0.4,1.3-0.7,1.9c-1.7,3.6-4.5,6.7-7.3,9.8
		c-2.8,2.9-5.2,6-8.3,8.6c-6.6,5.6-13.5,11-20.1,16.5c-7.1,5.9-14.6,12.1-17.3,20.8c-0.8,2.6-1.2,5.6-0.7,8.2c0.3,1.6,1.1,3.1,2,4.6
		c3.3,5.1,9.4,8.4,15.4,8.3c2.1-0.1,4.1-0.4,6.1-0.8c7.6-1.4,15.4-2.9,22.4-5.9c6.2-2.6,11.7-6,17.3-9.6
		c8.4-5.3,16.6-11.1,23.8-18.1c7.2-6.9,12.2-15.6,17.4-24.1c2.2-3.7,4-7.7,5.4-11.8C157.9,108.7,157,108.6,156.2,108.5z"/>
	<path class="st5" d="M15.9,87.7c-7,13.5-10.4,28.8-6,42.3c1.5,4.5,6.5,7,11.1,7.1c4.7-0.1,9-2.1,12.9-4.8c8-5.4,14.5-12.7,21-19.9
		c5.3-5.8,10.6-11.7,16.7-16.5C53.1,93,34.5,90.3,15.9,87.7z"/>
	<g>
		<g>
			<defs>
				<path id="SVGID_33_" d="M142.5,90.8c-2.9,5.4-6.4,10.3-10.2,14.9c-20.5,25.6-49.1,44.7-80.6,53c-2.3,3.7-2.4,8.5-1.3,12.8
					c1.3,4.3,3.8,8.1,6.2,11.8c1.8,2.4,2.3,5.2,5,6.8c2.3,1.3,4.6,1.7,7.1,2c13.7,1.7,27.6-0.7,40.2-5.8c13-5,24.4-12.8,34.8-21.7
					c16.5-14.4,30.7-33.2,32.6-54.9c0.9-9.6-0.6-19.1-0.6-28.6"/>
			</defs>
			<clipPath id="SVGID_34_">
				<use xlink:href="#SVGID_33_"  style="overflow:visible;"/>
			</clipPath>
			<g class="st27">
				<path class="st25" d="M56.7,199.3c-4.1-9.1-7.7-18.6-11.5-27.9c-3.1-7.6,8.9-14.2,13-6.8c0.2,0.2,0.3,0.6,0.5,0.8l0,0
					c1.6-0.3,3.1-0.1,4.4,0.5c0.8-0.1,1.6-0.2,2.3,0c1.1-0.6,2.3-1,3.6-1c0.4-0.3,0.7-0.5,1.1-0.8c2.5-1.2,6.2-1,8.4,0.9
					c0,0,0.2,0,0.2-0.2c1.6-0.5,3.2-0.5,4.5-0.1c1.2-0.6,2.6-0.8,3.9-0.4c0.9-1.8,3.3-2.6,4.7-0.5c3,4.7,4.7,9.8,7.1,14.8
					c2.3,5,4.7,10.2,6.8,15.4c2.7,6.4-7,11.9-11.1,6.7c-0.7,0.7-1.6,1.3-2.6,1.6c-1.9,3.8-7.6,5.4-11.4,2.7
					c-1.2,0.2-2.5,0.2-3.6-0.4c-3.1,1.5-6.9,1.1-8.9-2.3l0,0c-0.7,0.7-1.5,1.1-2.3,1.4C62,205.1,58.3,203,56.7,199.3z"/>
				<path class="st3" d="M187.7,113.6c-0.1,0-0.2,0-0.4-0.1c-10.3-2-20.8-3.5-31.2-5.1c-2.4-0.4-4.8-0.7-7.2-1.1
					c0,0.6,0.1,1.2,0.2,1.8c-0.1,0.8-0.2,1.3-0.1,2.1c0.1,0.8,0.2,1.4,0.3,2.2c-1,1.2-1.6,2.7-1.4,4.1c-1.1,0.8-1.5,2.1-1.4,3.9
					c4.4,12.1,10,23.4,17.6,33.8c3.8,5.4,11.5,0.8,9.9-5.1c-0.3-1.6-0.9-3.2-1.4-4.9c2.7-1.5,4.6-4.5,3.7-8.2
					c0.4-0.1,0.8-0.3,1.2-0.6c2.4-1.6,3.9-5.6,2.6-8.3c-0.1-0.4-0.3-0.6-0.5-0.8c0-0.2,0.2-0.2,0.2-0.2c1.5-1.1,2.6-2.9,2.8-4.6
					c1.6-1.3,2.6-3.1,2.7-5.4C186.6,116.2,187.4,115,187.7,113.6z"/>
			</g>
		</g>
	</g>
	<g>
		<g>
			<defs>
				<path id="SVGID_35_" d="M62.2,42.5c-11.6,7.4-23.2,14.9-32.4,25.1C15.1,83.9,3,109.1,10,129.9c1.5,4.5,6.5,7,11.1,7.1
					c4.7-0.1,9-2.1,12.9-4.8c8-5.4,14.5-12.7,21-19.9s13-14.5,21.2-19.7s18.8-9,28.2-7c0.5,0.7,0.5,1.6,0.4,2.4
					c-0.1,4.8-0.3,10-2.3,14.4c-1.7,3.6-4.5,6.7-7.3,9.8c-2.8,2.9-5.2,6-8.3,8.6c-6.6,5.6-13.5,11-20.1,16.5
					c-7.1,5.9-14.6,12.1-17.3,20.8c-0.8,2.6-1.2,5.6-0.7,8.2c0.3,1.6,1.1,3.1,2,4.6c3.3,5.1,9.4,8.4,15.4,8.3
					c2.1-0.1,4.1-0.4,6.1-0.8c7.6-1.4,15.4-2.9,22.4-5.9c6.2-2.6,11.7-6,17.3-9.6c8.4-5.3,16.6-11.1,23.8-18.1
					c7.2-6.9,12.2-15.6,17.4-24.1c7.2-12.1,9.6-26.4,11.1-40.5"/>
			</defs>
			<clipPath id="SVGID_36_">
				<use xlink:href="#SVGID_35_"  style="overflow:visible;"/>
			</clipPath>
			<g class="st28">
				<path class="st8" d="M27.9,132.9c0,0,0-0.3-0.2-1.2c-0.7-4.4-1.2-8.5-1.2-13c0.1-0.6,0-1.4,0.1-1.9l0,0.2
					c0.1-0.8,0.1-1.7,0.2-2.5l1.1-7c0.3-2.1,0.8-4.1,1.3-6.2c0.1-0.8,0.4-1.3,0.5-2.1c0.3-1.1,0.4-1.4,0.2-0.9
					c0.2-0.6,0.3-1.1,0.6-1.7c0.8-2.2,1.6-4.4,2.5-6.5c-6.5-0.9-13.1-1.9-19.6-2.8c-0.5-0.1-1-0.1-1.5-0.2c-1.4,4-2.7,8.1-3.7,12.2
					c-2,8.2-2.9,16.8-2.4,25.2c0.4,9.2,1.6,21.9,10.5,26.9c4.1,2.2,10.3-0.2,12.1-4.6c1.2-3.1,1.3-6.2,0.6-9.4
					C28.7,136,28.2,134.3,27.9,132.9z M27.8,132.6c0-0.1,0-0.1,0-0.2C27.6,131.5,27.8,132.2,27.8,132.6z"/>
			</g>
		</g>
		<g>
			<defs>
				<path id="SVGID_37_" d="M62.2,42.5c-11.6,7.4-23.2,14.9-32.4,25.1C15.1,83.9,3,109.1,10,129.9c1.5,4.5,6.5,7,11.1,7.1
					c4.7-0.1,9-2.1,12.9-4.8c8-5.4,14.5-12.7,21-19.9s13-14.5,21.2-19.7s18.8-9,28.2-7c0.5,0.7,0.5,1.6,0.4,2.4
					c-0.1,4.8-0.3,10-2.3,14.4c-1.7,3.6-4.5,6.7-7.3,9.8c-2.8,2.9-5.2,6-8.3,8.6c-6.6,5.6-13.5,11-20.1,16.5
					c-7.1,5.9-14.6,12.1-17.3,20.8c-0.8,2.6-1.2,5.6-0.7,8.2c0.3,1.6,1.1,3.1,2,4.6c3.3,5.1,9.4,8.4,15.4,8.3
					c2.1-0.1,4.1-0.4,6.1-0.8c7.6-1.4,15.4-2.9,22.4-5.9c6.2-2.6,11.7-6,17.3-9.6c8.4-5.3,16.6-11.1,23.8-18.1
					c7.2-6.9,12.2-15.6,17.4-24.1c7.2-12.1,9.6-26.4,11.1-40.5"/>
			</defs>
			<clipPath id="SVGID_38_">
				<use xlink:href="#SVGID_37_"  style="overflow:visible;"/>
			</clipPath>
			<g class="st29">
				<path class="st8" d="M84.7,97.8c-7.4-1.1-14.7-2.2-22.1-3.3c-1.2,1.1-2.4,2.2-3.5,3.3c-5.7,5.5-10.8,11.5-15.5,18
					c-2.5,3.5-4.8,7.4-6.9,11.2c-1.8,3-4.4,5.9-5.8,9c-1.5,3.5,0.5,8.2,4.7,8.5c8.8,0.7,14.8-8,19.7-14.1
					c4.9-5.8,9.7-11.5,15.3-16.7c-0.5,0.5,0.9-0.8,1.1-1c0.7-0.5,1.5-1.1,2.2-1.8c1.3-1.2,2.9-2.5,4.4-3.6c3.1-2.4,6-4.9,9.2-6.9
					c0.7-0.7,1.5-1.1,2.4-1.6c0.2,0,0.3-0.1,0.4-0.2C88.5,98.3,86.6,98,84.7,97.8z"/>
			</g>
		</g>
		<g>
			<defs>
				<path id="SVGID_39_" d="M62.2,42.5c-11.6,7.4-23.2,14.9-32.4,25.1C15.1,83.9,3,109.1,10,129.9c1.5,4.5,6.5,7,11.1,7.1
					c4.7-0.1,9-2.1,12.9-4.8c8-5.4,14.5-12.7,21-19.9s13-14.5,21.2-19.7s18.8-9,28.2-7c0.5,0.7,0.5,1.6,0.4,2.4
					c-0.1,4.8-0.3,10-2.3,14.4c-1.7,3.6-4.5,6.7-7.3,9.8c-2.8,2.9-5.2,6-8.3,8.6c-6.6,5.6-13.5,11-20.1,16.5
					c-7.1,5.9-14.6,12.1-17.3,20.8c-0.8,2.6-1.2,5.6-0.7,8.2c0.3,1.6,1.1,3.1,2,4.6c3.3,5.1,9.4,8.4,15.4,8.3
					c2.1-0.1,4.1-0.4,6.1-0.8c7.6-1.4,15.4-2.9,22.4-5.9c6.2-2.6,11.7-6,17.3-9.6c8.4-5.3,16.6-11.1,23.8-18.1
					c7.2-6.9,12.2-15.6,17.4-24.1c7.2-12.1,9.6-26.4,11.1-40.5"/>
			</defs>
			<clipPath id="SVGID_40_">
				<use xlink:href="#SVGID_39_"  style="overflow:visible;"/>
			</clipPath>
			<g class="st30">
				<path class="st8" d="M156.2,108.5c-4.5-0.7-9.1-1.4-13.6-2c-0.3,1.3-0.5,2.7-0.9,4c-0.1,0.4-0.1,0.7-0.2,0.9
					c-0.1,0.2-0.2,0.4-0.3,0.6c-0.3,0.9-0.6,1.6-1,2.6c-0.9,1.8-1.7,3.6-2.7,5.4c-1.3,2.3-3.3,5.5-5.9,8.6c-2.4,2.9-4.7,5.7-7.4,8.2
					c-0.9,0.8-0.9,1-0.2,0.4c-0.5,0.5-0.9,1-1.6,1.5c-0.7,0.5-1.1,1-1.8,1.5c-1.6,1.3-3.1,2.6-4.8,3.7c-3.2,2.2-6.5,4.5-9.8,6.3
					c-0.2,0.2-3.1,1.5-1.5,0.7c-0.9,0.6-1.9,1.1-2.9,1.5l-5,2.2c-3.7,1.4-7.4,2.8-11,3.8c-1.2,0.4-2.4,0.6-3.6,1
					c0.2-0.2-3.2,0.5-1.8,0.3c1.4-0.2-2,0.3-1.8,0.3c-1,0.2-2.2,0.4-3.2,0.5c-1.6,0.1-3.1,0.2-4.6,0.2c-0.1,0-1.3-0.1-1.6-0.2
					l-2.7-0.4c-0.8-0.1-1.3-0.4-2.1-0.5c-0.7-0.3-1.6-0.6-2.4-0.9c-1.6-0.6-3.3-1.3-4.9-1.9c-4.6-1.8-8.3-4.1-13.5-4.2
					c-6.4,0.2-9.8,7.2-8.1,12.5c2,6.3,8.1,9,13.8,11.2c4.4,1.6,8.8,3.3,13.5,4.3c9.7,2.2,19.7,0.2,29.2-2.4
					c16-4.6,31.5-12.7,43.9-23.8c13.2-11.8,24.3-26.6,27.5-44.1c0-0.2,0.1-0.4,0.1-0.6C160.9,109.2,158.6,108.8,156.2,108.5z"/>
				<path class="st8" d="M194.9,35.5c2.6-0.8,2.6-4.6,0.1-6c-4-1.8-8.4-3.4-12.8-2.3"/>
			</g>
		</g>
		<g>
			<defs>
				<path id="SVGID_41_" d="M62.2,42.5c-11.6,7.4-23.2,14.9-32.4,25.1C15.1,83.9,3,109.1,10,129.9c1.5,4.5,6.5,7,11.1,7.1
					c4.7-0.1,9-2.1,12.9-4.8c8-5.4,14.5-12.7,21-19.9s13-14.5,21.2-19.7s18.8-9,28.2-7c0.5,0.7,0.5,1.6,0.4,2.4
					c-0.1,4.8-0.3,10-2.3,14.4c-1.7,3.6-4.5,6.7-7.3,9.8c-2.8,2.9-5.2,6-8.3,8.6c-6.6,5.6-13.5,11-20.1,16.5
					c-7.1,5.9-14.6,12.1-17.3,20.8c-0.8,2.6-1.2,5.6-0.7,8.2c0.3,1.6,1.1,3.1,2,4.6c3.3,5.1,9.4,8.4,15.4,8.3
					c2.1-0.1,4.1-0.4,6.1-0.8c7.6-1.4,15.4-2.9,22.4-5.9c6.2-2.6,11.7-6,17.3-9.6c8.4-5.3,16.6-11.1,23.8-18.1
					c7.2-6.9,12.2-15.6,17.4-24.1c7.2-12.1,9.6-26.4,11.1-40.5"/>
			</defs>
			<clipPath id="SVGID_42_">
				<use xlink:href="#SVGID_41_"  style="overflow:visible;"/>
			</clipPath>
			<g class="st31">
				<path class="st8" d="M99.3,99.9c-0.4,0.6-0.8,1.3-1.2,2c-2.3,3.7-5,7.2-7.6,10.5c-1.2,1.6-2.8,3.3-4.2,4.8
					c-0.7,0.9-1.6,1.7-2.3,2.4c-0.2,0.2-2.2,2-1.4,1.3c0.7-0.5-1.5,1.1-1.8,1.5c-0.7,0.9-1.6,1.5-2.5,2.1c-1.7,1.3-3.5,2.6-5.2,3.9
					c-3.5,2.4-7.1,4.6-10.7,6.5c-2.1,1.2,0.4-0.3-1.5,0.7c-1.1,0.6-1.9,1.1-2.9,1.5c-2.1,0.9-3.9,1.7-6,2.6
					c-2.1,0.9-4.1,1.7-6.2,2.4c-1,0.2-1.8,0.7-2.9,0.9c1.6-0.5,0.2-0.2-0.8-0.1c-3.7,0-7.2,2.8-8.7,6.1c-0.9,1.8-1.1,3.3-1,5.3
					c0.3,4.3,4.2,9.2,8.7,9.4c6.3,0.4,11.9-1.9,17.7-4.1c5.2-2.1,10.2-4.7,15.2-7.4c9.5-5.3,18.2-11.8,26-19.5
					c8-7.9,15-17.1,17.7-27.9c0.2-0.6,0.3-1.3,0.4-1.9C112,101.8,105.6,100.9,99.3,99.9z"/>
			</g>
		</g>
	</g>
	<path class="st12" d="M44.3,91.8c-1.4,2.6-2.4,5.5-1.5,7.9c0.3,0.8,0.8,0.9,1.4,0.8c1.2,0,4.2-3.8,7.5-7.6
		C49.2,92.5,46.8,92.1,44.3,91.8z"/>
	<g>
		<path class="st12" d="M123.1,103.5c-0.1,2.3-0.4,4.6-0.8,6.9c-0.9,4.7-2.7,9.1-5.1,13.4c-1.9,3.4-5.3,7.9-4.9,12
			c-0.1,0.4,0.3,0.8,0.7,0.7c5.2,0.4,9.7-5.3,12.2-9.2c3.3-4.9,5.8-10.2,7.6-15.5c0.7-2.2,1.4-4.3,1.9-6.5
			C130.8,104.7,127,104.1,123.1,103.5z"/>
	</g>
	<g>
		<g>
			<defs>
				<path id="SVGID_43_" d="M62.2,42.5c-11.6,7.4-23.2,14.9-32.4,25.1C15.1,83.9,3,109.1,10,129.9c1.5,4.5,6.5,7,11.1,7.1
					c4.7-0.1,9-2.1,12.9-4.8c8-5.4,14.5-12.7,21-19.9s13-14.5,21.2-19.7s18.8-9,28.2-7c0.5,0.7,0.5,1.6,0.4,2.4
					c-0.1,4.8-0.3,10-2.3,14.4c-1.7,3.6-4.5,6.7-7.3,9.8c-2.8,2.9-5.2,6-8.3,8.6c-6.6,5.6-13.5,11-20.1,16.5
					c-7.1,5.9-14.6,12.1-17.3,20.8c-0.8,2.6-1.2,5.6-0.7,8.2c0.3,1.6,1.1,3.1,2,4.6c3.3,5.1,9.4,8.4,15.4,8.3
					c2.1-0.1,4.1-0.4,6.1-0.8c7.6-1.4,15.4-2.9,22.4-5.9c6.2-2.6,11.7-6,17.3-9.6c8.4-5.3,16.6-11.1,23.8-18.1
					c7.2-6.9,12.2-15.6,17.4-24.1c7.2-12.1,9.6-26.4,11.1-40.5"/>
			</defs>
			<clipPath id="SVGID_44_">
				<use xlink:href="#SVGID_43_"  style="overflow:visible;"/>
			</clipPath>
			<path class="st32" d="M133.2,65.2c-0.1,3.1,3.4,0.3,6.3-0.8"/>
		</g>
		<g>
			<defs>
				<path id="SVGID_45_" d="M62.2,42.5c-11.6,7.4-23.2,14.9-32.4,25.1C15.1,83.9,3,109.1,10,129.9c1.5,4.5,6.5,7,11.1,7.1
					c4.7-0.1,9-2.1,12.9-4.8c8-5.4,14.5-12.7,21-19.9s13-14.5,21.2-19.7s18.8-9,28.2-7c0.5,0.7,0.5,1.6,0.4,2.4
					c-0.1,4.8-0.3,10-2.3,14.4c-1.7,3.6-4.5,6.7-7.3,9.8c-2.8,2.9-5.2,6-8.3,8.6c-6.6,5.6-13.5,11-20.1,16.5
					c-7.1,5.9-14.6,12.1-17.3,20.8c-0.8,2.6-1.2,5.6-0.7,8.2c0.3,1.6,1.1,3.1,2,4.6c3.3,5.1,9.4,8.4,15.4,8.3
					c2.1-0.1,4.1-0.4,6.1-0.8c7.6-1.4,15.4-2.9,22.4-5.9c6.2-2.6,11.7-6,17.3-9.6c8.4-5.3,16.6-11.1,23.8-18.1
					c7.2-6.9,12.2-15.6,17.4-24.1c7.2-12.1,9.6-26.4,11.1-40.5"/>
			</defs>
			<clipPath id="SVGID_46_">
				<use xlink:href="#SVGID_45_"  style="overflow:visible;"/>
			</clipPath>
			<g class="st33">
				<path class="st17" d="M123.7,22.3"/>
				<path class="st17" d="M179.4,29.3"/>
				<path class="st17" d="M29.3,139.4c-7.6-2.5-13.7-10.6-15.9-17.9c-2.4-8.3,0.9-18.7,3.2-26.6c0.7-2.3,1.6-4.6,2.6-6.8
					c-1.9-0.3-3.9-0.6-5.8-0.8c-2.1-0.3-4.2-0.6-6.3-0.9c-3,7-4.8,14.4-5.1,22c-0.7,16.2,7.3,36.5,26.8,34.2
					C30.2,142.5,30.9,140.1,29.3,139.4z"/>
			</g>
		</g>
		<g>
			<defs>
				<path id="SVGID_47_" d="M62.2,42.5c-11.6,7.4-23.2,14.9-32.4,25.1C15.1,83.9,3,109.1,10,129.9c1.5,4.5,6.5,7,11.1,7.1
					c4.7-0.1,9-2.1,12.9-4.8c8-5.4,14.5-12.7,21-19.9s13-14.5,21.2-19.7s18.8-9,28.2-7c0.5,0.7,0.5,1.6,0.4,2.4
					c-0.1,4.8-0.3,10-2.3,14.4c-1.7,3.6-4.5,6.7-7.3,9.8c-2.8,2.9-5.2,6-8.3,8.6c-6.6,5.6-13.5,11-20.1,16.5
					c-7.1,5.9-14.6,12.1-17.3,20.8c-0.8,2.6-1.2,5.6-0.7,8.2c0.3,1.6,1.1,3.1,2,4.6c3.3,5.1,9.4,8.4,15.4,8.3
					c2.1-0.1,4.1-0.4,6.1-0.8c7.6-1.4,15.4-2.9,22.4-5.9c6.2-2.6,11.7-6,17.3-9.6c8.4-5.3,16.6-11.1,23.8-18.1
					c7.2-6.9,12.2-15.6,17.4-24.1c7.2-12.1,9.6-26.4,11.1-40.5"/>
			</defs>
			<clipPath id="SVGID_48_">
				<use xlink:href="#SVGID_47_"  style="overflow:visible;"/>
			</clipPath>
			<g class="st34">
				<path class="st17" d="M68.5,95.3c-3,2.7-5.9,5.6-8.6,8.6c-7.2,7.8-13.9,16.7-22.8,22.7c-6.9,4.6-14.1,8.5-20.5,1
					c-0.9-0.7-4.2,9.8-3.3,10.5c6.9,5.5,16.5,3.6,23.8-0.1c9-4.6,16.5-12,22.9-20c6-7.3,11.4-15.2,18.5-21.3
					C75.3,96.3,71.9,95.8,68.5,95.3z"/>
			</g>
		</g>
		<g>
			<defs>
				<path id="SVGID_49_" d="M62.2,42.5c-11.6,7.4-23.2,14.9-32.4,25.1C15.1,83.9,3,109.1,10,129.9c1.5,4.5,6.5,7,11.1,7.1
					c4.7-0.1,9-2.1,12.9-4.8c8-5.4,14.5-12.7,21-19.9s13-14.5,21.2-19.7s18.8-9,28.2-7c0.5,0.7,0.5,1.6,0.4,2.4
					c-0.1,4.8-0.3,10-2.3,14.4c-1.7,3.6-4.5,6.7-7.3,9.8c-2.8,2.9-5.2,6-8.3,8.6c-6.6,5.6-13.5,11-20.1,16.5
					c-7.1,5.9-14.6,12.1-17.3,20.8c-0.8,2.6-1.2,5.6-0.7,8.2c0.3,1.6,1.1,3.1,2,4.6c3.3,5.1,9.4,8.4,15.4,8.3
					c2.1-0.1,4.1-0.4,6.1-0.8c7.6-1.4,15.4-2.9,22.4-5.9c6.2-2.6,11.7-6,17.3-9.6c8.4-5.3,16.6-11.1,23.8-18.1
					c7.2-6.9,12.2-15.6,17.4-24.1c7.2-12.1,9.6-26.4,11.1-40.5"/>
			</defs>
			<clipPath id="SVGID_50_">
				<use xlink:href="#SVGID_49_"  style="overflow:visible;"/>
			</clipPath>
			<g class="st35">
				<path class="st17" d="M156.2,108.5c-1.6-0.2-3.1-0.5-4.7-0.7c-1.1,3.9-2.3,7.7-3.8,11.5c-3.1,7.5-7.7,13.9-13.1,20.1
					c-5.8,6.5-12,12.5-18.9,17.7c-12,9-26.2,14.8-41.4,14.9c-7-0.1-15.1-1.3-20.7-5.6c-5.2-4.1-5.3-9.5-5.2-15.7
					c0-2.5-3.3-3.6-5.1-2.3c-7.2,5.1-4.7,15.8,0.2,21.7c6.1,7.3,16.1,10.4,25.2,11.1c16.8,1.6,33.3-3.7,47.2-12.9
					c7.7-5,14.4-11,20.8-17.6c6.4-6.6,12.7-13.8,16.9-22.1c3.1-6.1,5.4-12.7,7.2-19.5C159.4,109,157.8,108.7,156.2,108.5z"/>
			</g>
		</g>
		<g>
			<defs>
				<path id="SVGID_51_" d="M62.2,42.5c-11.6,7.4-23.2,14.9-32.4,25.1C15.1,83.9,3,109.1,10,129.9c1.5,4.5,6.5,7,11.1,7.1
					c4.7-0.1,9-2.1,12.9-4.8c8-5.4,14.5-12.7,21-19.9s13-14.5,21.2-19.7s18.8-9,28.2-7c0.5,0.7,0.5,1.6,0.4,2.4
					c-0.1,4.8-0.3,10-2.3,14.4c-1.7,3.6-4.5,6.7-7.3,9.8c-2.8,2.9-5.2,6-8.3,8.6c-6.6,5.6-13.5,11-20.1,16.5
					c-7.1,5.9-14.6,12.1-17.3,20.8c-0.8,2.6-1.2,5.6-0.7,8.2c0.3,1.6,1.1,3.1,2,4.6c3.3,5.1,9.4,8.4,15.4,8.3
					c2.1-0.1,4.1-0.4,6.1-0.8c7.6-1.4,15.4-2.9,22.4-5.9c6.2-2.6,11.7-6,17.3-9.6c8.4-5.3,16.6-11.1,23.8-18.1
					c7.2-6.9,12.2-15.6,17.4-24.1c7.2-12.1,9.6-26.4,11.1-40.5"/>
			</defs>
			<clipPath id="SVGID_52_">
				<use xlink:href="#SVGID_51_"  style="overflow:visible;"/>
			</clipPath>
			<g class="st36">
				<path class="st21" d="M99.4,100c-2,3.6-4.7,6.6-7.7,9.1c-8.2,7.1-17,13.7-26.2,19.5c-8.6,5.5-16,11.3-19.6,21.1
					c-1.6,4-1.9,7.7-2.2,11.9c-0.1,3.5-0.9,8.4,2.7,10.7c0.7,0.3,14.5-0.1,15-0.8c2.8-3.1-11.1,0.1-10.3-11.4c0.2-4,2.9-7.7,5.3-11
					c6.5-8.5,16.9-13.2,25.4-19.4c8.5-6.3,18.4-12.7,23.6-22c1.1-1.9,2-4.1,2.6-6.2C105.2,100.8,102.3,100.4,99.4,100z"/>
			</g>
		</g>
	</g>
	<g>
		<g>
			<defs>
				<path id="SVGID_53_" d="M142.5,90.8c-2.9,5.4-6.4,10.3-10.2,14.9c-20.5,25.6-49.1,44.7-80.6,53c-2.3,3.7-2.4,8.5-1.3,12.8
					c1.3,4.3,3.8,8.1,6.2,11.8c1.8,2.4,2.3,5.2,5,6.8c2.3,1.3,4.6,1.7,7.1,2c13.7,1.7,27.6-0.7,40.2-5.8c13-5,24.4-12.8,34.8-21.7
					c16.5-14.4,30.7-33.2,32.6-54.9c0.9-9.6-0.6-19.1-0.6-28.6"/>
			</defs>
			<clipPath id="SVGID_54_">
				<use xlink:href="#SVGID_53_"  style="overflow:visible;"/>
			</clipPath>
			<g class="st37">
				<path class="st1" d="M189.4,45.3"/>
				<path class="st1" d="M171.1,110.7c-0.9,6.3-2.6,12.5-5.8,18.3c-4,7.1-9.6,13.7-15.2,19.8c-5.4,6-11.4,11.5-17.7,16.3
					c-13.1,10-28.2,17.5-44.5,20.6c-8.4,1.6-17,2.3-25.4,3c-4.3,0.3-6.7-0.2-10.3-2.3c-3.6-1.9-6.5-3.3-10.5-3.3
					c-2.5,0-4.8,2.4-5.2,4.6c-0.4,2.7,1,4.8,3.2,6.1c3.4,1.9,6.7,4.1,10.4,5.6c4.5,2,9.4,2,14.3,1.6c10.2-0.8,20.2-1.8,30.3-4.2
					c16.8-3.9,32.6-12.1,46-22.7c13.4-10.6,26-23.8,34.5-38.8c4.3-7.4,6.2-15,6.9-22.8C178.3,111.9,174.7,111.3,171.1,110.7z"/>
			</g>
		</g>
	</g>
	<g>
		<g>
			<defs>
				<path id="SVGID_55_" d="M62.2,42.5c-11.6,7.4-23.2,14.9-32.4,25.1C15.1,83.9,3,109.1,10,129.9c1.5,4.5,6.5,7,11.1,7.1
					c4.7-0.1,9-2.1,12.9-4.8c8-5.4,14.5-12.7,21-19.9s13-14.5,21.2-19.7s18.8-9,28.2-7c0.5,0.7,0.5,1.6,0.4,2.4
					c-0.1,4.8-0.3,10-2.3,14.4c-1.7,3.6-4.5,6.7-7.3,9.8c-2.8,2.9-5.2,6-8.3,8.6c-6.6,5.6-13.5,11-20.1,16.5
					c-7.1,5.9-14.6,12.1-17.3,20.8c-0.8,2.6-1.2,5.6-0.7,8.2c0.3,1.6,1.1,3.1,2,4.6c3.3,5.1,9.4,8.4,15.4,8.3
					c2.1-0.1,4.1-0.4,6.1-0.8c7.6-1.4,15.4-2.9,22.4-5.9c6.2-2.6,11.7-6,17.3-9.6c8.4-5.3,16.6-11.1,23.8-18.1
					c7.2-6.9,12.2-15.6,17.4-24.1c7.2-12.1,9.6-26.4,11.1-40.5"/>
			</defs>
			<clipPath id="SVGID_56_">
				<use xlink:href="#SVGID_55_"  style="overflow:visible;"/>
			</clipPath>
			<g class="st38">
				<g>
					<path class="st21" d="M127.4,104.1c-2.5,0.6-5,0.9-7.3,0.9c-6.2,0-14-1.1-17.5,5.3c-0.5,0.9,0.7,1.5,1.4,0.8
						c4.3-4.2,9.9-3.9,15.3-3.7c4.6,0.3,9.2-0.4,13.3-2.3c0.1-0.1,0.2-0.1,0.4-0.2C131.1,104.7,129.2,104.4,127.4,104.1z"/>
				</g>
				<g>
					<path class="st21" d="M151.7,107.8c-6.6,7.4-16.9,11.3-26.9,9.2c-6.4-1.3-11.9-3.5-18.4-3.7c-5.6-0.1-11.5,0.8-16.4,3.5
						c-0.2,0.2-0.1,0.8,0.3,0.6c7.2-1.4,14-2.9,21.4-1.8c6.8,1,12.7,4.2,19.7,3.9c9.1-0.3,16.8-4.7,21.7-11.5
						C152.6,107.9,152.2,107.9,151.7,107.8z"/>
				</g>
				<g>
					<path class="st21" d="M70.8,95.7c-0.1,0.8-0.3,1.6-0.4,2.5c-0.1,0.4,0.3,0.6,0.5,0.3c0.7-0.7,1.1-1.6,1.5-2.5
						C71.8,95.8,71.3,95.7,70.8,95.7z"/>
				</g>
				<g>
					<path class="st21" d="M59.9,94.1c2.5,3.2,4.2,6.9,4.1,11.6c-0.1,0.4,0.5,0.3,0.6,0.1c1-4.2-0.2-8.1-2.4-11.4
						C61.4,94.3,60.6,94.2,59.9,94.1z"/>
				</g>
				<g>
					<path class="st21" d="M41,93.5c-1.7-0.9-3.3-1.9-4.9-3c-0.9-0.1-1.8-0.3-2.7-0.4c4,3.3,8.4,5.4,13.2,7.5
						c5.4,2.6,12.1,7,11.1,14.1c0,0,0,0,0.2,0C60.2,101.3,48.2,97.3,41,93.5z"/>
				</g>
				<g class="st39">
					<path class="st17" d="M44.4,109.5c-3.3-3.8-7.8-6.2-12.3-8.2C27,99,21.9,97.3,16.8,94.8c-4.4-2.2-8-4.9-10.9-8.5
						C5,86.1,4.1,86,3.2,85.8c3.6,7.5,15,11.5,21.7,14.2c5.1,1.9,10.2,4.1,14.8,7.3c2.5,1.7,4.7,3.8,6.2,6.4c1.9,2.8,2.4,6,3.9,8.9
						C50.9,117.9,47.4,112.5,44.4,109.5z"/>
				</g>
				<g class="st39">
					<path class="st17" d="M38.7,132.1c3-9.6-10.6-14.4-16.9-17.8c-5.9-3.4-13.7-8.2-16.1-15c-0.3-0.8,0.8-1.6,1.3-1
						c3.4,3.4,5.9,7.1,9.9,10c4.2,3.1,8.8,5.6,13.3,8.2c5.7,3.4,11.7,8.7,8.9,15.9C39,132.7,38.4,132.5,38.7,132.1L38.7,132.1z"/>
				</g>
				<g>
					<path class="st21" d="M87,117.1c0.5,8.6,10.6,8.2,16.8,8.3c5,0.2,9.9,0.9,14.5,2.9c8,3.3,17.7,12.3,15.7,21.9
						c-0.1,0.6-0.9,0.6-1,0c-1.6-5.9-3.2-10.9-8-15.1c-4.4-4-10.1-6.2-16-7.2c-7.2-1.3-21.9,0-22.2-10.9
						C86.9,116.9,87.1,116.7,87,117.1L87,117.1z"/>
				</g>
				<g>
					<path class="st21" d="M123.7,162.9c3-7.3-6.1-12-11.4-14.7c-5.2-2.7-10.6-5.3-15.8-8.6c-4.4-2.8-8.5-6.3-11.6-10.6
						c-2.6-3.5-5.3-8.5-4.6-12.9c0.1-0.6,0.9-0.6,1.2,0c1,2.7,1.5,5.6,2.8,8.2c1.5,2.9,3.4,5.5,5.6,7.6c4.7,4.8,10.6,8,16.6,11
						c6.6,3.5,23.1,9.7,17.5,19.9C123.9,163.3,123.5,163.1,123.7,162.9L123.7,162.9z"/>
				</g>
				<g>
					<path class="st21" d="M78.2,124.1c-4.9,5.5,0,12.6,4.3,16.5c4.4,4,9.2,7.4,12.5,12.3c4.6,6.9,7,18.1-0.3,24.2
						c-0.2,0.2-0.6-0.1-0.5-0.5c2.7-4.8,4-10,2.5-15.5c-1.7-6.5-6.6-11.6-11.6-15.9c-3.8-3.1-8.1-6.4-9.7-11.3
						c-1-3.6-0.5-7.2,2.3-9.9C78.3,123.9,78.5,123.9,78.2,124.1L78.2,124.1z"/>
				</g>
				<g>
					<path class="st21" d="M70.2,128.9c-1.8,12.3,9.4,19.8,16,28.6c4.2,5.5,11.9,16.1,5,22.4c-0.2,0.2-0.8-0.1-0.5-0.5
						c5.5-10.8-5.8-21.8-12.7-29.2c-5.2-5.6-11.9-13.6-8.4-21.6C69.7,128.2,70.2,128.5,70.2,128.9L70.2,128.9z"/>
				</g>
				<g>
					<path class="st21" d="M82.5,180.9c1.3-12.4-8.5-21-16.1-29.3c-5.3-6-11.5-14.9-8.7-23.4c0.1-0.6,1-0.4,0.9,0.1
						c-0.2,5.2,0.6,10,3.4,14.6c2.9,5.1,7.4,9,11.2,13.3c6.2,6.7,12.4,15.2,9.5,24.7C82.8,181.2,82.5,181.1,82.5,180.9L82.5,180.9z"
						/>
				</g>
				<g>
					<path class="st21" d="M75.9,177c-6.6-2.5-11.6-8.9-15-15c-1.7-3.2-2.9-6.2-4-9.7c-0.9-3-2.1-6.7-1.8-10c0.1-0.6,0.9-0.6,1.2,0
						c1.3,2.9,1.6,6.4,2.5,9.5c1,3.4,2.3,6.7,4,9.7c3.3,6.1,8.3,10.5,13.4,15C76.5,176.7,76.3,177.3,75.9,177L75.9,177z"/>
				</g>
			</g>
		</g>
	</g>
</g>
<path class="st40" d="M156.8,47.5v7.6l8.5-0.8l-0.8-7.6C164.6,46.4,156.8,47.5,156.8,47.5z"/>
<path class="st41" d="M163.6,46.6l1.7,7.6l7.6-0.8c0.1,0-0.2-0.2-0.1-0.3l4.8-7.5c0.2-0.3-1,0.1-1.3,0.2l-3.2,0
	C173,45.8,163.6,46.5,163.6,46.6z"/>
<path class="st1" d="M176.2,45.9l-3.3,6.6c-0.2,0.3-0.3,0.9,0,0.8l3-0.2c0.1,0,0.2-0.1,0.2-0.2l4.7-7.4c0.2-0.3-0.1-0.7-0.4-0.6
	l-4,0.7C176.4,45.8,176.2,45.8,176.2,45.9z"/>
<polygon class="st17" points="20.2,57.6 30.4,65.3 33.4,64.9 23.5,57.4 "/>
</svg>
