<?xml version="1.0" encoding="utf-8"?>
<!-- Generator: Adobe Illustrator 25.2.1, SVG Export Plug-In . SVG Version: 6.00 Build 0)  -->
<svg version="1.1" id="Layer_2" xmlns="http://www.w3.org/2000/svg" xmlns:xlink="http://www.w3.org/1999/xlink" x="0px" y="0px"
	 viewBox="0 0 200 200" style="enable-background:new 0 0 200 200;" xml:space="preserve">
<style type="text/css">
	.st0{fill:#F8D5BA;}
	.st1{fill:#F4AB50;}
	.st2{opacity:0.5;fill:#FFC784;}
	.st3{fill:#EB8158;}
	.st4{fill:#EB7149;}
	.st5{fill:#FCA985;}
	.st6{fill:#35BE6D;}
	.st7{fill:#81C85D;}
	.st8{fill:#ACD357;}
	.st9{fill:#FA9485;}
	.st10{fill:#F98375;}
	.st11{fill:#FFED86;}
	.st12{fill:#F9EED5;}
	.st13{opacity:0.7;}
	.st14{filter:url(#Adobe_OpacityMaskFilter);}
	.st15{filter:url(#Adobe_OpacityMaskFilter_1_);}
	.st16{mask:url(#SVGID_1_);fill:url(#SVGID_2_);}
	.st17{fill:url(#SVGID_3_);}
	.st18{filter:url(#Adobe_OpacityMaskFilter_2_);}
	.st19{filter:url(#Adobe_OpacityMaskFilter_3_);}
	.st20{mask:url(#SVGID_4_);fill:url(#SVGID_5_);}
	.st21{fill:url(#SVGID_6_);}
</style>
<g>
	<path class="st0" d="M113,169.5c-11.4-12.8-23.1-25.2-35.3-37.3c-0.4-0.4-0.8-0.8-1.2-1.2c-44.8,13.2-112.4,33.7-113.8,35
		c-2.1,2-1.6,17.4,2.6,18c4.3,0.6,72.2,0.9,85.1,0.7c0,0,38.8-0.5,74.8-1.5C121.2,178.7,117.1,174.1,113,169.5z"/>
	<g>
		<path class="st1" d="M113,169.5c-0.6-0.7-1.3-1.4-1.9-2.1c-68.2,3-135.3-0.3-148.4-1.2c-2.1,2-1.6,17.4,2.6,18
			c4.3,0.6,72.2,0.9,85.1,0.7c0,0,38.8-0.5,74.8-1.5C121.2,178.7,117.1,174.1,113,169.5z"/>
		<path class="st2" d="M121,178.5c-10,0.4-20,0.7-30.1,0.9c-15.5,0.4-30.9,0.6-46.4,0.7c-5,0-9.9,0.1-14.9,0.1
			c-10.2,0-20.3-0.1-30.5-0.3c-2.7-0.1-5.3-0.1-8-0.2c-4.5-0.2-9-0.4-13.5-0.7c-4-0.2-8.8,0.1-12.5-1.7c-1.3-0.6-2.4-1.7-3.5-2.7
			c0.3,4.5,1.5,9.1,3.8,9.5c4.3,0.6,72.2,0.9,85.1,0.7c0,0,38.8-0.5,74.8-1.5C123.8,181.8,122.4,180.1,121,178.5z"/>
	</g>
</g>
<g>
	<path class="st3" d="M91.3,125.8L-22.2,136c0,0-0.1,15.2,0.7,15.8c0.5,0.4,74.7-0.6,135.4-2.2C106.6,141.5,99,133.6,91.3,125.8z"/>
	<path class="st4" d="M89.7,124.2l-111.8,10c0,0-0.1,8.4,0.2,12.9c4.3-3.1,9-1.9,15-1.1c5.8,0.8,10.9-1.8,16.5-2.9
		c5.2-1.1,9.8,3.2,14.9,3.4c5.9,0.2,10.4-2.5,15.9-3.5c4.1-0.7,6.6,0.5,10.3,2.1c3.3,1.4,6.9,2.3,10.4,1.3c2.1-0.6,4.2-1.3,6.4-1.3
		c5.2-0.1,10.3,1.3,15.5,1.4c5.6,0.2,10.5-2.5,16.1-2.7c3-0.1,6.1,0,9-0.7C102,136.8,95.9,130.5,89.7,124.2z"/>
	<g>
		<path class="st5" d="M111.4,146.8c-54.5,1.7-116.9,3.1-133,3.1c0.1,1.5,0.1,3,0.2,4.6c18.1-0.2,82.1-1.6,136.8-3.2
			C114.1,149.8,112.8,148.3,111.4,146.8z"/>
	</g>
</g>
<path class="st6" d="M100.7,114.2c-0.9-0.9-1.8-1.7-2.6-2.6c-10,0.4-20.1,0.6-30.2,0.4c-8.3-0.2-16.4-1.2-24.7-1.2
	c-7.5,0-14.9,0.6-22.3,1c-7.2,0.4-16,0.7-22.8,3.1c-2,0.7-3.6,2-5.3,3.3c-3.7,0.5-7,2.1-9.8,5c-3.5,3.5-3.6,10.3,1.3,12.8
	c6.1,3,11.7,0.1,15.1-4.7c2.6,3.8,7.5,6.3,12.7,5.5c3.2-0.5,6-2.7,7.5-5.4c2.2,2.7,6.4,3.5,9.5,0.5c0.5-0.5,0.9-1.1,1.2-1.7
	c2.4,5.5,9.5,9.7,15.5,6.1c2.6-1.6,4.1-3.7,4.7-6.1c1,0.7,2.3,1.2,3.7,1.2c2.8,0,5-1.4,6.3-3.3c0.5,4.4,5.3,7,9.8,7.7
	c4.6,0.7,9.9-2,11.9-6c1.4,2.6,4.5,4.5,7.3,5.2c4.2,1.1,8-0.7,10.5-3.8c0.4,0.6,0.9,1.2,1.5,1.7c3.6,3.2,8.3,3.9,12.7,1.8
	c1.5-0.7,2.7-1.8,3.5-3.2C112,125.6,106.4,119.8,100.7,114.2z"/>
<path class="st7" d="M98,110.6c-10,0.4-20.1,0.6-30.2,0.4c-8.3-0.2-16.4-1.2-24.7-1.2c-7.5,0-14.9,0.6-22.3,1
	c-7.2,0.4-16,0.7-22.8,3.1c-2,0.7-3.6,2-5.3,3.3c-3.7,0.5-7,2.1-9.8,5c-3.5,3.5-3.6,10.3,1.3,12.8c6.1,3,11.7,0.1,15.1-4.7
	c2.6,3.8,7.5,6.3,12.7,5.5c3.2-0.5,6-2.7,7.5-5.4c2.2,2.7,6.4,3.5,9.5,0.5c0.5-0.5,0.9-1.1,1.2-1.7c2.4,5.5,9.5,9.7,15.5,6.1
	c2.6-1.6,4.1-3.7,4.7-6.1c1,0.7,2.3,1.2,3.7,1.2c2.8,0,5-1.4,6.3-3.3c0.5,4.4,5.3,7,9.8,7.7c4.6,0.7,9.9-2,11.9-6
	c1.4,2.6,4.5,4.5,7.3,5.2c4.2,1.1,8-0.7,10.5-3.8c0.4,0.6,0.9,1.2,1.5,1.7c0.1,0.1,0.1,0.1,0.2,0.1c-0.2-6.2-0.4-12.7-1.1-19
	C99.6,112.1,98.8,111.4,98,110.6z"/>
<path class="st8" d="M100.7,113.2c-0.8-0.8-1.5-1.5-2.3-2.3c-10.1,0.4-20.3,0.6-30.5,0.4c-5.1,2.6-7.8,7.8-7.6,14.7
	c0,0.9,0.1,1.7,0.2,2.5c0,0.1,0,0.2,0.1,0.3c0,0,0,0,0,0c1,4.1,5.5,6.5,9.6,7.2c4.6,0.8,9.9-2.1,11.9-6.3c1.4,2.7,4.5,4.7,7.3,5.4
	c4.2,1.1,8-0.8,10.5-4c0.4,0.6,0.9,1.2,1.5,1.8c3.6,3.4,8.3,4,12.7,1.9c1.5-0.7,2.7-1.9,3.5-3.3c0.5,0.5,1.1,1,1.8,1.4
	c0.4,0.2,0.7,0.4,1.1,0.5C114,126.6,107.4,119.9,100.7,113.2z"/>
<g>
	<path class="st9" d="M75.9,95.8c-3-2.2-6-4.3-9-6.5c-0.3-0.2-0.7-0.3-1.1-0.2l-98.6,18.6c-0.7,0.1-1.2,0.7-1.2,1.4
		c0.1,2.6,0.7,8.4,3.9,10.2c2.2,1.3,57.6-7.4,111-16.8c1.2-0.2,1.6-1.8,0.6-2.5C79.7,98.6,77.8,97.2,75.9,95.8z"/>
	<path class="st10" d="M75.9,95.8c-5.1-3.8-10.3-7.5-15.5-11.2l-95.6,18.1c0,0-0.3,9,3.9,11.5c2.2,1.3,56.6-7.2,109.5-16.5
		C77.5,97,76.7,96.4,75.9,95.8z"/>
	<path class="st11" d="M75.3,73.1C30.8,81.4-11.4,89.5-18,90.8c-0.5,0.1-1,0.5-1.1,1.1c-0.6,3.1-1.8,13,6.4,11.3
		c5.2-1.1,54.4-10,100.9-18.4c1.2-0.2,1.5-1.7,0.6-2.4c-4.1-3-8.3-6-12.4-9C76,73.2,75.7,73.1,75.3,73.1z"/>
	<path class="st12" d="M44.1,56.4c-4.3-3.2-8.6-6.4-12.8-9.7C-1.9,63.6-33.3,80-34.1,81.1c-1.7,2.3,1.5,17.5,5.8,17.3
		c4.3-0.2,71.2-12,83.9-14.5c0,0,8.3-1.6,20.7-4.1C65.5,72,54.7,64.4,44.1,56.4z"/>
	<path class="st1" d="M58.3,66.8c-45.4,8.4-83,13.2-92.4,14.2c-1.7,2.3,1.5,17.5,5.8,17.3c4.3-0.2,71.2-12,83.9-14.5
		c0,0,8.3-1.6,20.7-4.1C70.3,75.5,64.3,71.2,58.3,66.8z"/>
	<path class="st2" d="M71.1,76c-7.4,1.5-14.8,2.9-22.2,4.3c-4.9,0.9-9.8,1.8-14.7,2.7c-10,1.8-20,3.5-30.1,5.1
		c-2.6,0.4-5.3,0.9-7.9,1.2c-4.5,0.6-9,1.2-13.5,1.8c-4,0.5-8.6,1.6-12.6,0.6c-1.4-0.4-2.7-1.2-3.9-2c1.1,4.4,3.1,8.7,5.4,8.6
		c4.3-0.2,71.2-12,83.9-14.5c0,0,8.3-1.6,20.7-4.1C74.5,78.6,72.8,77.3,71.1,76z"/>
</g>
<g class="st13">
	<path class="st12" d="M120.5,55.1c0-0.1-0.1-0.1-0.1-0.2c-0.6-0.8-1.8-0.4-1.9,0.6c-0.1,1.1,1.3,1.7,2,0.8c0,0,0.1-0.1,0.1-0.1
		C120.8,55.8,120.7,55.4,120.5,55.1z"/>
	<path class="st12" d="M152,76c-0.6-0.8-2.1-0.5-2.2,0.6c0,0.1,0,0.2,0,0.3c0,0.7,0.4,1.1,1.1,1.1c0.1,0,0.2,0,0.3,0
		C152.1,78,152.5,76.7,152,76z"/>
	<path class="st12" d="M100.6,68.6c-0.8,0-0.9,1.2-0.1,1.2C101.2,69.8,101.3,68.6,100.6,68.6z"/>
	<path class="st12" d="M-0.1,91.5c-0.1,0-0.2,0-0.3,0c-1.1-0.1-1.1,1.6,0,1.5l0.3,0C0.8,92.8,0.7,91.5-0.1,91.5z"/>
	<path class="st12" d="M68.9,85.8c-0.1,0-0.2,0-0.3,0c-0.7,0.1-0.7,1.2,0,1.3c0.1,0,0.2,0,0.3,0C69.9,87.3,69.9,85.6,68.9,85.8z"/>
	<path class="st12" d="M53.1,73.3c0-0.1,0-0.2-0.1-0.3c-0.3-1.1-1.6-1-1.8,0c0,0.1-0.1,0.2-0.1,0.3C50.8,74.8,53.5,74.8,53.1,73.3z"
		/>
	<path class="st12" d="M137.2,60.3c-1,0-1.2,1.5-0.2,1.5C138,61.8,138.2,60.3,137.2,60.3z"/>
	<path class="st12" d="M177.1,80.8c-1.1,0-1.3,1.6-0.2,1.6C177.9,82.4,178.2,80.8,177.1,80.8z"/>
	<path class="st12" d="M121.3,80c-2.1,0-2.5,3.3-0.4,3.3C123,83.3,123.4,80,121.3,80z"/>
	<path class="st12" d="M84.4,70.9c0.2-1.7-2.1-2.7-3.1-1.3h0c-0.5,0.6-0.4,1.5,0.1,2.1l0,0v0c0.2,0.2,0.4,0.4,0.6,0.5
		c0.5,0.3,1.2,0.3,1.7-0.1c0.1,0,0.1-0.1,0.2-0.1c0,0,0,0,0,0C84.1,71.8,84.3,71.4,84.4,70.9z"/>
	<path class="st12" d="M26.9,87.7C26.8,87.7,26.8,87.7,26.9,87.7c-1.1-0.4-2.2,0.2-2.3,1.3c-0.2,1.3,1.1,2.2,2.3,1.7l0.1,0
		C28.2,90.1,28.1,88.2,26.9,87.7z"/>
	<path class="st12" d="M73,97c-0.9,0.3-0.7,1.9,0.4,1.7c0.7-0.1,1.1-0.6,1-1.3C74.3,96.6,73.4,96.6,73,97z"/>
	<path class="st12" d="M103.9,55.2c-0.6,0-0.7,0.9-0.1,0.9C104.3,56,104.4,55.2,103.9,55.2z"/>
	<path class="st12" d="M117.5,67.8c-0.6,0-0.7,1-0.1,1C118,68.8,118.1,67.8,117.5,67.8z"/>
</g>
<defs>
	<filter id="Adobe_OpacityMaskFilter" filterUnits="userSpaceOnUse" x="-18.6" y="48.7" width="71.2" height="26.8">
		<feColorMatrix  type="matrix" values="1 0 0 0 0  0 1 0 0 0  0 0 1 0 0  0 0 0 1 0"/>
	</filter>
</defs>
<mask maskUnits="userSpaceOnUse" x="-18.6" y="48.7" width="71.2" height="26.8" id="SVGID_1_">
	<g class="st14">
		<defs>
			<filter id="Adobe_OpacityMaskFilter_1_" filterUnits="userSpaceOnUse" x="-18.6" y="11.9" width="191.2" height="63.6">
				<feFlood  style="flood-color:white;flood-opacity:1" result="back"/>
				<feBlend  in="SourceGraphic" in2="back" mode="normal"/>
			</filter>
		</defs>
		<mask maskUnits="userSpaceOnUse" x="-18.6" y="11.9" width="191.2" height="63.6" id="SVGID_1_">
			<g class="st15">
			</g>
		</mask>
		
			<linearGradient id="SVGID_2_" gradientUnits="userSpaceOnUse" x1="-170.8063" y1="107.6414" x2="-45.9832" y2="211.1354" gradientTransform="matrix(0.9891 -0.1472 0.1472 0.9891 145.9512 -127.1688)">
			<stop  offset="2.215490e-03" style="stop-color:#FFFFFF"/>
			<stop  offset="4.748109e-02" style="stop-color:#E6E6E6"/>
			<stop  offset="0.1523" style="stop-color:#B0B0B0"/>
			<stop  offset="0.2614" style="stop-color:#818181"/>
			<stop  offset="0.3724" style="stop-color:#595959"/>
			<stop  offset="0.4858" style="stop-color:#393939"/>
			<stop  offset="0.6023" style="stop-color:#202020"/>
			<stop  offset="0.7234" style="stop-color:#0E0E0E"/>
			<stop  offset="0.8518" style="stop-color:#030303"/>
			<stop  offset="1" style="stop-color:#000000"/>
		</linearGradient>
		<path class="st16" d="M-15.2,73.3c0,0,122.7-61.5,124.4-61.3c1.7,0.2,63.3,22.7,63.4,23.6C172.7,36.4-48.7,86.7-15.2,73.3z"/>
	</g>
</mask>
<linearGradient id="SVGID_3_" gradientUnits="userSpaceOnUse" x1="-197.358" y1="139.665" x2="-72.5348" y2="243.1591" gradientTransform="matrix(0.9891 -0.1472 0.1472 0.9891 145.9512 -127.1688)">
	<stop  offset="2.215490e-03" style="stop-color:#FFFFFF"/>
	<stop  offset="6.836376e-02" style="stop-color:#FFFFFF"/>
	<stop  offset="1" style="stop-color:#FFFFFF"/>
</linearGradient>
<path class="st17" d="M44.1,56.4c-3.4-2.5-6.8-5.1-10.2-7.7c-26.1,13-49,24.5-49,24.5c-15.2,6.1,22.3-1,67.7-10.6
	C49.7,60.6,46.9,58.5,44.1,56.4z"/>
<g>
	<path class="st0" d="M139.5,87.3c11.1,13.2,21.6,26.7,31.8,40.6c3,4,5.9,8,8.8,12c29.6,1.7,56.4,2.8,57.1,1.2
		c1.5-3.5,3.7-18.7,2.3-20.5c-1.4-1.8-62.9-44.8-67.3-44.9c-1.4,0-16.4,2.9-36.7,7C136.8,84.2,138.2,85.7,139.5,87.3z"/>
	<g>
		<path class="st1" d="M171.3,127.8c3,4,5.9,8,8.8,12c29.6,1.7,56.4,2.8,57.1,1.2c1.3-3,3.1-14.4,2.7-18.9
			c-22.6,1.4-47.7,1.3-72.6,0.3C168.6,124.3,170,126,171.3,127.8z"/>
		<path class="st2" d="M180.1,139.8c29.6,1.7,56.4,2.8,57.1,1.2c0.6-1.4,1.3-4.7,1.9-8.2c-5.5,3-14.1,2.3-20.2,2.4
			c-12,0.3-24.1,0-36.1-0.5c-2.2-0.1-4.4-0.2-6.6-0.3C177.5,136.2,178.8,138,180.1,139.8z"/>
	</g>
</g>
<g>
	<path class="st3" d="M146.5,105.5c40.7-1.1,74.5-2.5,74.4-4c-0.1-2.1-2.1-28.5-2.1-28.5l-95.1,8.5
		C131.6,89.3,139.1,97.3,146.5,105.5z"/>
	<path class="st4" d="M140,98.4c1.9-0.6,3.8-1.1,5.7-1.4c1.7-0.3,3.4-0.1,5,0.3c4.1,1,5.2-1,8.7-1.1c2.1-0.1,3.6,0.7,5.7,1
		c2.3,0.3,4.7-1.1,6.9-1.7c4.7-1.4,9,2.8,13.7,1.5c4-1.2,7.4-3.7,11.6-2.4c3.9,1.2,5.9-0.3,9.2-1.8c1.2-0.6,2.6-1.3,3.9-1.2
		c3.3,0.3,7,2.4,10.1,1.4c-0.6-8.5-1.6-21.6-1.6-21.6l-96.6,8.6C128.3,86,134.2,92.1,140,98.4z"/>
	<g>
		<path class="st5" d="M148.1,107.2c31.4-1,59.3-2,73-2.9c-0.1-1.6-0.1-3.2-0.2-4.8c-13.6,1-43.5,2.2-76.9,3.3
			C145.4,104.2,146.7,105.7,148.1,107.2z"/>
	</g>
</g>
<g>
	<path class="st6" d="M243.7,70.9c-2.9-3.2-8.8-3-12.9-2.7c-6-1.3-13-0.6-18.8-0.1c-9.9,0.9-19.8,0.7-29.8,1
		c-9.6,0.2-19.1,0.3-28.7,0.3c-2.1-0.2-4.1-0.3-6.2-0.3c-7-0.1-14-0.2-20.9-0.3c1.6,1.8,3.2,3.5,4.7,5.3
		c5.2,5.9,10.3,11.9,15.2,17.9c1.5-0.2,2.8-0.9,3.7-2.3c0.4-0.6,0.6-1.3,0.8-1.9c0.1,0.1,0.2,0.1,0.3,0.2c1.8,0.7,3.9,0,5.1-1.4
		c0.1-0.1,0.2-0.2,0.3-0.4c1.5,5.2,10.6,7.4,14.7,2.5c0.4-0.5,0.7-1,0.9-1.6c0.6,1.9,2.2,3.4,4.7,3.8c3.6,0.5,6.1-1.3,7.2-3.8
		c1.6,3.9,5.8,6,10.1,6.1c2.7,0,4.9-0.9,6.3-2.5c1.5,1.4,3.5,2.4,5.5,2.7c4.5,0.6,7.8-3.1,8.6-6.9c0-0.1,0-0.2,0-0.3
		c3.9,6.7,16.3,9.4,20.5,0.8c0.8-1.6,0.9-3.1,0.6-4.5c2.1-0.4,4.2-1.2,6.2-2.4C245.4,77.8,246.5,74,243.7,70.9z"/>
	<path class="st8" d="M131.1,74c5.5,6.2,10.9,12.6,16.1,19c1.1-0.4,2.1-1.1,2.7-2.2c0.4-0.7,0.6-1.3,0.8-2c0.1,0.1,0.2,0.1,0.3,0.2
		c1.8,0.8,3.9,0,5.1-1.4c0.1-0.1,0.2-0.3,0.3-0.4c1.3,4.8,8.7,7.2,13.2,3.9c2.4-3.2,3.1-7.4,1-12c-2.5-5.4-7.8-8-13.4-9.4
		c-1.3,0-2.6,0-3.9,0c-2.1-0.2-4.1-0.3-6.2-0.3c-6.9-0.1-13.7-0.2-20.6-0.3C128.1,70.7,129.6,72.4,131.1,74z"/>
</g>
<g>
	<path class="st9" d="M107.4,64.9c1.4,1.9,2.8,3.7,4.2,5.6c46.7,4.7,90.2,8.1,94.4,6.2c3.9-1.8,1.8-13.8,1.8-13.8L98.1,53
		C101.2,57,104.3,60.9,107.4,64.9z"/>
	<path class="st10" d="M107.2,64.7c48.4,4.9,94.8,8.6,99.1,6.7c3.9-1.8,1.8-13.8,1.8-13.8L93.6,47.3C98.1,53,102.7,58.8,107.2,64.7z
		"/>
	<path class="st11" d="M123.6,50.8c38.6,3.8,73.7,7.1,78.3,7.2c10.3,0.3,26.7,2.6,28.5-0.5c2.2-3.7,2-7.3-10.1-10.4
		c-6-1.5-58-6.6-108.5-11.3C115.8,40.8,119.7,45.8,123.6,50.8z"/>
	<path class="st12" d="M85.3,12.1c7.5,9.6,15.1,19.2,22.7,28.8c38.7,3.1,109.3,8.5,110.5,5.9c1.6-3.5,3.9-18.6,2.5-20.4
		c-1.4-1.8-62.4-45.5-66.8-45.7c-2.3-0.1-42.2,7.5-81.2,15.2C77,1.3,81.1,6.7,85.3,12.1z"/>
	<path class="st1" d="M108,40.8c38.7,3.1,109.3,8.5,110.5,5.9c1.4-3,3.2-14.4,2.9-18.8c-39.5,2-86.3-0.7-127.1-4.5
		C98.8,29.3,103.4,35.1,108,40.8z"/>
	<path class="st2" d="M108,40.8c38.7,3.1,109.3,8.5,110.5,5.9c0.6-1.4,1.4-4.7,2-8.2c-5.6,3-14.2,2.1-20.2,2.2
		c-12.1,0.1-24.1-0.3-36.1-0.9c-13.4-0.7-26.8-1.6-40.1-2.5c-6.7-0.5-13.3-1-20-1.5C105.3,37.5,106.6,39.2,108,40.8z"/>
</g>
<g class="st13">
	<path class="st12" d="M153.7-11.3c0-0.1-0.1-0.1-0.1-0.2c-0.5-0.9-1.8-0.6-2,0.3c-0.3,1,1.1,1.8,1.8,1c0,0,0.1-0.1,0.1-0.1
		C153.9-10.6,153.9-11,153.7-11.3z"/>
	<path class="st12" d="M182.2,13.5c-0.5-0.9-2.1-0.8-2.3,0.3c0,0.1,0,0.2-0.1,0.3c-0.1,0.7,0.3,1.1,0.9,1.2c0.1,0,0.2,0,0.3,0
		C182.1,15.4,182.6,14.2,182.2,13.5z"/>
	<path class="st12" d="M132.2-0.5c-0.8-0.1-1.1,1.1-0.3,1.2C132.6,0.8,132.9-0.4,132.2-0.5z"/>
	<path class="st12" d="M89.6,11.3c-0.1,0-0.2,0-0.3,0c-0.7,0-0.8,1.1-0.2,1.3c0.1,0,0.2,0.1,0.3,0.1C90.4,12.9,90.7,11.3,89.6,11.3z
		"/>
	<path class="st12" d="M84.5-1.9c0-0.1,0-0.2,0-0.3c-0.1-1.1-1.4-1.2-1.8-0.2c0,0.1-0.1,0.2-0.1,0.3C82-0.8,84.7-0.4,84.5-1.9z"/>
	<path class="st12" d="M169.6-4c-1-0.1-1.4,1.4-0.4,1.5C170.1-2.4,170.5-3.9,169.6-4z"/>
	<path class="st12" d="M206.5,21.5c-1-0.1-1.5,1.5-0.4,1.6C207.1,23.2,207.6,21.6,206.5,21.5z"/>
	<path class="st12" d="M151.2,13.4c-2.1-0.3-2.9,2.9-0.8,3.2C152.5,16.9,153.4,13.7,151.2,13.4z"/>
	<path class="st12" d="M115.9-0.3c0.4-1.7-1.7-2.9-2.9-1.7l0,0c-0.5,0.6-0.6,1.5-0.2,2.1l0,0l0,0c0.1,0.2,0.3,0.4,0.5,0.5
		c0.5,0.4,1.2,0.5,1.7,0.2c0.1,0,0.1-0.1,0.2-0.1c0,0,0,0,0,0C115.4,0.6,115.7,0.2,115.9-0.3z"/>
	<path class="st12" d="M112.2,16.5c-1,0.2-0.9,1.8,0.2,1.8c0.7,0,1.1-0.5,1.2-1.2C113.6,16.3,112.8,16.1,112.2,16.5z"/>
	<path class="st12" d="M137.2-13.4c-0.5-0.1-0.8,0.8-0.2,0.8C137.5-12.5,137.7-13.3,137.2-13.4z"/>
	<path class="st12" d="M149.1,0.9c-0.6-0.1-0.9,0.9-0.2,1C149.4,1.9,149.7,1,149.1,0.9z"/>
</g>
<defs>
	<filter id="Adobe_OpacityMaskFilter_2_" filterUnits="userSpaceOnUse" x="75" y="-15.8" width="134" height="40.1">
		<feColorMatrix  type="matrix" values="1 0 0 0 0  0 1 0 0 0  0 0 1 0 0  0 0 0 1 0"/>
	</filter>
</defs>
<mask maskUnits="userSpaceOnUse" x="75" y="-15.8" width="134" height="40.1" id="SVGID_4_">
	<g class="st18">
		<defs>
			<filter id="Adobe_OpacityMaskFilter_3_" filterUnits="userSpaceOnUse" x="14.2" y="-15.8" width="194.8" height="40.1">
				<feFlood  style="flood-color:white;flood-opacity:1" result="back"/>
				<feBlend  in="SourceGraphic" in2="back" mode="normal"/>
			</filter>
		</defs>
		<mask maskUnits="userSpaceOnUse" x="14.2" y="-15.8" width="194.8" height="40.1" id="SVGID_4_">
			<g class="st19">
			</g>
		</mask>
		
			<linearGradient id="SVGID_5_" gradientUnits="userSpaceOnUse" x1="173.9213" y1="-155.1909" x2="298.7444" y2="-51.6968" gradientTransform="matrix(0.9917 0.1288 -0.1288 0.9917 -147.8638 76.734)">
			<stop  offset="2.215490e-03" style="stop-color:#FFFFFF"/>
			<stop  offset="4.748109e-02" style="stop-color:#E6E6E6"/>
			<stop  offset="0.1523" style="stop-color:#B0B0B0"/>
			<stop  offset="0.2614" style="stop-color:#818181"/>
			<stop  offset="0.3724" style="stop-color:#595959"/>
			<stop  offset="0.4858" style="stop-color:#393939"/>
			<stop  offset="0.6023" style="stop-color:#202020"/>
			<stop  offset="0.7234" style="stop-color:#0E0E0E"/>
			<stop  offset="0.8518" style="stop-color:#030303"/>
			<stop  offset="1" style="stop-color:#000000"/>
		</linearGradient>
		<path class="st20" d="M18.1,9.2c0,0,134.8-25.6,136.4-25c1.6,0.6,54.6,39.1,54.5,40C208.9,25.2-17.8,13,18.1,9.2z"/>
	</g>
</mask>
<linearGradient id="SVGID_6_" gradientUnits="userSpaceOnUse" x1="189.9383" y1="-174.5087" x2="314.7614" y2="-71.0147" gradientTransform="matrix(0.9917 0.1288 -0.1288 0.9917 -147.8638 76.734)">
	<stop  offset="2.215490e-03" style="stop-color:#FFFFFF"/>
	<stop  offset="6.836376e-02" style="stop-color:#FFFFFF"/>
	<stop  offset="1" style="stop-color:#FFFFFF"/>
</linearGradient>
<path class="st21" d="M85.3,12.1c1.5,1.9,3,3.8,4.5,5.7c54.7,3.7,119.1,6.9,119.2,6.4c0.1-0.9-52.9-39.4-54.5-40
	C153.6-16.1,112-8.4,75-1.5C78.4,3.1,81.8,7.6,85.3,12.1z"/>
</svg>
