<?xml version="1.0" encoding="utf-8"?>
<!-- Generator: Adobe Illustrator 25.2.1, SVG Export Plug-In . SVG Version: 6.00 Build 0)  -->
<svg version="1.1" id="Layer_3" xmlns="http://www.w3.org/2000/svg" xmlns:xlink="http://www.w3.org/1999/xlink" x="0px" y="0px"
	 viewBox="0 0 200 200" style="enable-background:new 0 0 200 200;" xml:space="preserve">
<style type="text/css">
	.st0{fill:#F8D5BA;}
	.st1{fill:#F4AB50;}
	.st2{opacity:0.5;fill:#FFC784;}
	.st3{fill:#EB8158;}
	.st4{fill:#EB7149;}
	.st5{fill:#FCA985;}
	.st6{fill:#35BE6D;}
	.st7{fill:#81C85D;}
	.st8{fill:#ACD357;}
	.st9{fill:#FA9485;}
	.st10{fill:#F98375;}
	.st11{fill:#FFED86;}
	.st12{fill:#F9EED5;}
	.st13{opacity:0.7;}
	.st14{filter:url(#Adobe_OpacityMaskFilter);}
	.st15{filter:url(#Adobe_OpacityMaskFilter_1_);}
	.st16{mask:url(#SVGID_1_);fill:url(#SVGID_2_);}
	.st17{fill:url(#SVGID_3_);}
</style>
<g>
	<g>
		<path class="st0" d="M82.2,146.3c0,0,134.1-1.6,135.4-5.2c1.2-3.6,2.1-18.9,0.5-20.6c-1.5-1.7-66.5-39.2-70.9-38.9
			c-4.5,0.3-150.6,44.1-152.7,46c-2.1,2-1.6,17.4,2.6,18C1.4,146.2,69.3,146.5,82.2,146.3z"/>
		<g>
			<path class="st1" d="M-5.5,127.5c-2.1,2-1.6,17.4,2.6,18c4.3,0.6,72.2,0.9,85.1,0.7c0,0,134.1-1.6,135.4-5.2
				c1.1-3.1,1.8-14.6,1.1-19C133.8,134.7,12.5,128.9-5.5,127.5z"/>
			<path class="st2" d="M76.3,141.6c-5,0-9.9,0.1-14.9,0.1c-10.2,0-20.3-0.1-30.5-0.3c-2.7-0.1-5.3-0.1-8-0.2
				c-4.5-0.2-9-0.4-13.5-0.7c-4-0.2-8.8,0.1-12.5-1.7c-1.3-0.6-2.4-1.7-3.5-2.7c0.3,4.5,1.5,9.1,3.8,9.5c4.3,0.6,72.2,0.9,85.1,0.7
				c0,0,134.1-1.6,135.4-5.2c0.5-1.5,0.9-4.8,1.2-8.4c-5.3,3.5-13.9,3.5-19.9,4.2c-12,1.3-24,2-36.1,2.6c-13.4,0.6-26.8,1-40.2,1.4
				C107.2,141.3,91.7,141.5,76.3,141.6z"/>
		</g>
	</g>
	<g>
		<path class="st3" d="M0.6,108.4c0,0-0.1,15.2,0.7,15.8c0.8,0.6,213.6-2.6,213.5-6.3c-0.1-2.1-2.1-28.5-2.1-28.5L0.6,108.4z"/>
		<path class="st4" d="M15.9,118.6c5.8,0.8,10.9-1.8,16.5-2.9c5.2-1.1,9.8,3.2,14.9,3.4c5.9,0.2,10.4-2.5,15.9-3.5
			c4.1-0.7,6.6,0.5,10.3,2.1c3.3,1.4,6.9,2.3,10.4,1.3c2.1-0.6,4.2-1.3,6.4-1.3c5.2-0.1,10.3,1.3,15.5,1.4
			c5.6,0.2,10.5-2.5,16.1-2.7c3.2-0.1,6.4,0.1,9.5-0.8c2.7-0.8,5.4-1.7,8.2-2.1c1.7-0.3,3.4-0.1,5,0.3c4.1,1,5.2-1,8.7-1.1
			c2.1-0.1,3.6,0.7,5.7,1c2.3,0.3,4.7-1.1,6.9-1.7c4.7-1.4,9,2.8,13.7,1.5c4-1.2,7.4-3.7,11.6-2.4c3.9,1.2,5.9-0.3,9.2-1.8
			c1.2-0.6,2.6-1.3,3.9-1.2c3.3,0.3,7,2.4,10.1,1.4c-0.6-8.5-1.6-21.6-1.6-21.6L0.6,106.7c0,0-0.1,8.4,0.2,12.9
			C5.2,116.6,9.8,117.7,15.9,118.6z"/>
		<g>
			<path class="st5" d="M1.4,127c29-0.3,175.5-3.8,213.4-6.2c-0.1-1.6-0.1-3.2-0.2-4.8c-36.2,2.8-187.1,6.4-213.4,6.5
				C1.3,123.9,1.4,125.4,1.4,127z"/>
		</g>
	</g>
	<path class="st6" d="M227.8,85.7c-3.1-3-9-2.5-13.1-1.9c-6.1-0.9-13.1,0.2-18.8,1.1c-9.8,1.5-19.8,2-29.7,2.8
		c-9.5,0.8-19.1,1.5-28.6,2.1c-2.1,0-4.1,0-6.2,0.1c-18.4,0.9-36.4,1.9-54.8,1.5c-8.3-0.2-16.4-1.2-24.7-1.2c-7.5,0-14.9,0.6-22.3,1
		c-7.2,0.4-16,0.7-22.8,3.1c-2,0.7-3.6,2-5.3,3.3c-3.7,0.5-7,2.1-9.8,5c-3.5,3.5-3.6,10.3,1.3,12.8c6.1,3,11.7,0.1,15.1-4.7
		c2.6,3.8,7.5,6.3,12.7,5.5c3.2-0.5,6-2.7,7.5-5.4c2.2,2.7,6.4,3.5,9.5,0.5c0.5-0.5,0.9-1.1,1.2-1.7c2.4,5.5,9.5,9.7,15.5,6.1
		c2.6-1.6,4.1-3.7,4.7-6.1c1,0.7,2.3,1.2,3.7,1.2c2.8,0,5-1.4,6.3-3.3c0.5,4.4,5.3,7,9.8,7.7c4.6,0.7,9.9-2,11.9-6
		c1.4,2.6,4.5,4.5,7.3,5.2c4.2,1.1,8-0.7,10.5-3.8c0.4,0.6,0.9,1.2,1.5,1.7c3.6,3.2,8.3,3.9,12.7,1.8c1.5-0.7,2.7-1.8,3.5-3.2
		c0.5,0.5,1.1,1,1.8,1.4c2.6,1.5,6,0.8,7.3-1.9c0.3-0.6,0.5-1.3,0.7-2c0.1,0,0.2,0.1,0.3,0.1c1.9,0.6,3.8-0.2,5-1.7
		c0.1-0.1,0.2-0.3,0.3-0.4c1.8,5.1,11.1,6.7,14.8,1.5c0.4-0.5,0.6-1,0.8-1.6c0.8,1.8,2.4,3.3,4.9,3.5c3.6,0.3,6-1.7,6.9-4.3
		c1.8,3.8,6.2,5.6,10.4,5.4c2.7-0.1,4.9-1.2,6.2-2.9c1.6,1.3,3.6,2.2,5.6,2.3c4.5,0.3,7.6-3.6,8.1-7.4c0-0.1,0-0.2,0-0.3
		c4.3,6.4,16.8,8.4,20.5-0.5c0.7-1.6,0.7-3.1,0.4-4.6c2.1-0.6,4.1-1.4,6.1-2.8C229.9,92.5,230.8,88.6,227.8,85.7z"/>
	<path class="st7" d="M108.8,91c-10.7,0.4-21.4,0.7-32.2,0.5c-8.3-0.2-16.4-1.2-24.7-1.2c-7.5,0-14.9,0.6-22.3,1
		c-7.2,0.4-16,0.7-22.8,3.1c-2,0.7-3.6,2-5.3,3.3c-3.7,0.5-7,2.1-9.8,5c-3.5,3.5-3.6,10.3,1.3,12.8c6.1,3,11.7,0.1,15.1-4.7
		c2.6,3.8,7.5,6.3,12.7,5.5c3.2-0.5,6-2.7,7.5-5.4c2.2,2.7,6.4,3.5,9.5,0.5c0.5-0.5,0.9-1.1,1.2-1.7c2.4,5.5,9.5,9.7,15.5,6.1
		c2.6-1.6,4.1-3.7,4.7-6.1c1,0.7,2.3,1.2,3.7,1.2c2.8,0,5-1.4,6.3-3.3c0.5,4.4,5.3,7,9.8,7.7c4.6,0.7,9.9-2,11.9-6
		c1.4,2.6,4.5,4.5,7.3,5.2c4.2,1.1,8-0.7,10.5-3.8c0.4,0.6,0.9,1.2,1.5,1.7c0.1,0.1,0.1,0.1,0.2,0.1C110,105.3,109.8,98,108.8,91z"
		/>
	<path class="st8" d="M155.4,98.4c-2.8-5.2-8.3-7.5-13.9-8.5c-1.3,0.1-2.6,0.2-3.9,0.3c-2.1,0-4.1,0-6.2,0.1
		c-18.3,0.9-36.4,2-54.8,1.6c-5.1,2.6-7.8,7.8-7.6,14.7c0,0.9,0.1,1.7,0.2,2.5c0,0.1,0,0.2,0.1,0.3c0,0,0,0,0,0
		c1,4.1,5.5,6.5,9.6,7.2c4.6,0.8,9.9-2.1,11.9-6.3c1.4,2.7,4.5,4.7,7.3,5.4c4.2,1.1,8-0.8,10.5-4c0.4,0.6,0.9,1.2,1.5,1.8
		c3.6,3.4,8.3,4,12.7,1.9c1.5-0.7,2.7-1.9,3.5-3.3c0.5,0.5,1.1,1,1.8,1.4c2.6,1.5,6,0.8,7.3-2c0.3-0.7,0.5-1.4,0.7-2.1
		c0.1,0,0.2,0.1,0.3,0.1c1.9,0.6,3.8-0.2,5-1.7c0.1-0.1,0.2-0.3,0.3-0.4c1.6,4.7,9.2,6.6,13.4,3.1
		C157.4,107.1,157.8,102.8,155.4,98.4z"/>
	<g>
		<path class="st9" d="M1.2,101.4c3.9,3,205.2-1.1,213.7-6.5c3.6-2.3,0-13.9,0-13.9L-1,89.5C-1,89.5-2.6,98.4,1.2,101.4z"/>
		<path class="st10" d="M0.9,96.1c3.9,3,205.2-1.1,213.7-6.5c3.6-2.3,0-13.9,0-13.9L-1.4,84.1C-1.4,84.1-3,93,0.9,96.1z"/>
		<path class="st11" d="M-3.7,81c0,0-5.5,13.6,4.3,13c9.9-0.6,177.7-5.4,188-6.5c10.3-1.1,26.8-0.9,28.2-4.2c1.7-3.9,1.1-7.5-11.3-9
			C193.1,72.8-3.7,81-3.7,81z"/>
		<path class="st12" d="M79.8,86.3c0,0,134-5.8,135.1-9.5c1.1-3.7,1.5-19-0.1-20.6c-1.6-1.6-67.7-37.1-72.1-36.7
			C138.3,19.9-6.4,68.3-8.4,70.3c-2,2-1.1,17.5,3.2,17.9C-1,88.7,66.9,86.9,79.8,86.3z"/>
		<path class="st1" d="M-8.4,70.3c-2,2-1.1,17.5,3.2,17.9c4.3,0.5,72.2-1.4,85.1-2c0,0,134-5.8,135.1-9.5c1-3.1,1.3-14.7,0.5-19
			C131.1,73.1,9.6,71.1-8.4,70.3z"/>
		<path class="st2" d="M73.7,81.8c-5,0.2-9.9,0.4-14.9,0.5c-10.2,0.3-20.3,0.6-30.5,0.6c-2.7,0-5.3,0.1-8,0.1c-4.5,0-9-0.1-13.6-0.2
			c-4-0.1-8.8,0.3-12.5-1.3c-1.4-0.6-2.5-1.6-3.6-2.6c0.4,4.5,1.8,9.1,4.1,9.3c4.3,0.5,72.2-1.4,85.1-2c0,0,134-5.8,135.1-9.5
			c0.4-1.5,0.8-4.8,0.9-8.4c-5.1,3.7-13.8,3.9-19.7,4.8c-11.9,1.7-23.9,2.8-36,3.7c-13.4,1.1-26.7,1.9-40.1,2.7
			C104.7,80.5,89.2,81.2,73.7,81.8z"/>
	</g>
	<g class="st13">
		<path class="st12" d="M143.3,27.5c0-0.1-0.1-0.1-0.1-0.2c-0.6-0.8-1.8-0.4-1.9,0.6c-0.1,1.1,1.3,1.7,2,0.8c0,0,0.1-0.1,0.1-0.1
			C143.6,28.2,143.5,27.8,143.3,27.5z"/>
		<path class="st12" d="M174.8,48.5c-0.6-0.8-2.1-0.5-2.2,0.6c0,0.1,0,0.2,0,0.3c0,0.7,0.4,1.1,1.1,1.1c0.1,0,0.2,0,0.3,0
			C174.9,50.4,175.3,49.1,174.8,48.5z"/>
		<path class="st12" d="M123.4,41.1c-0.8,0-0.9,1.2-0.1,1.2C124,42.3,124.1,41.1,123.4,41.1z"/>
		<path class="st12" d="M22.7,63.9c-0.1,0-0.2,0-0.3,0c-1.1-0.1-1.1,1.6,0,1.5l0.3,0C23.6,65.3,23.5,64,22.7,63.9z"/>
		<path class="st12" d="M82.7,58.2c-0.1,0-0.2,0-0.3,0c-0.7,0.1-0.7,1.2,0,1.3c0.1,0,0.2,0,0.3,0C83.7,59.8,83.7,58,82.7,58.2z"/>
		<path class="st12" d="M75.9,45.7c0-0.1,0-0.2-0.1-0.3c-0.3-1.1-1.6-1-1.8,0c0,0.1-0.1,0.2-0.1,0.3C73.6,47.2,76.3,47.2,75.9,45.7z
			"/>
		<path class="st12" d="M160,32.7c-1,0-1.2,1.5-0.2,1.5C160.8,34.3,161,32.7,160,32.7z"/>
		<path class="st12" d="M199.9,53.2c-1.1,0-1.3,1.6-0.2,1.6C200.7,54.9,201,53.2,199.9,53.2z"/>
		<path class="st12" d="M144.1,52.4c-2.1,0-2.5,3.3-0.4,3.3C145.8,55.7,146.2,52.4,144.1,52.4z"/>
		<path class="st12" d="M107.2,43.4c0.2-1.7-2.1-2.7-3.1-1.3h0c-0.5,0.6-0.4,1.5,0.1,2.1l0,0v0c0.2,0.2,0.4,0.4,0.6,0.5
			c0.5,0.3,1.2,0.3,1.7-0.1c0.1,0,0.1-0.1,0.2-0.1c0,0,0,0,0,0C106.9,44.3,107.1,43.9,107.2,43.4z"/>
		<path class="st12" d="M49.7,60.1C49.6,60.1,49.6,60.1,49.7,60.1c-1.1-0.4-2.2,0.2-2.3,1.3c-0.2,1.3,1.1,2.2,2.3,1.7l0.1,0
			C51,62.6,50.9,60.6,49.7,60.1z"/>
		<path class="st12" d="M105.8,60.5c-0.9,0.3-0.7,1.9,0.4,1.7c0.7-0.1,1.1-0.6,1-1.3C107.1,60.1,106.2,60,105.8,60.5z"/>
		<path class="st12" d="M126.7,27.6c-0.6,0-0.7,0.9-0.1,0.9C127.1,28.5,127.2,27.6,126.7,27.6z"/>
		<path class="st12" d="M140.3,40.3c-0.6,0-0.7,1-0.1,1C140.8,41.2,140.9,40.3,140.3,40.3z"/>
	</g>
	<defs>
		<filter id="Adobe_OpacityMaskFilter" filterUnits="userSpaceOnUse" x="7.8" y="23" width="195" height="44.6">
			<feColorMatrix  type="matrix" values="1 0 0 0 0  0 1 0 0 0  0 0 1 0 0  0 0 0 1 0"/>
		</filter>
	</defs>
	<mask maskUnits="userSpaceOnUse" x="7.8" y="23" width="195" height="44.6" id="SVGID_1_">
		<g class="st14">
			<defs>
				<filter id="Adobe_OpacityMaskFilter_1_" filterUnits="userSpaceOnUse" x="7.8" y="23" width="195" height="44.6">
					<feFlood  style="flood-color:white;flood-opacity:1" result="back"/>
					<feBlend  in="SourceGraphic" in2="back" mode="normal"/>
				</filter>
			</defs>
			<mask maskUnits="userSpaceOnUse" x="7.8" y="23" width="195" height="44.6" id="SVGID_1_">
				<g class="st15">
				</g>
			</mask>
			<linearGradient id="SVGID_2_" gradientUnits="userSpaceOnUse" x1="29.5196" y1="-1.4916" x2="154.3427" y2="102.0024">
				<stop  offset="2.215490e-03" style="stop-color:#FFFFFF"/>
				<stop  offset="4.748109e-02" style="stop-color:#E6E6E6"/>
				<stop  offset="0.1523" style="stop-color:#B0B0B0"/>
				<stop  offset="0.2614" style="stop-color:#818181"/>
				<stop  offset="0.3724" style="stop-color:#595959"/>
				<stop  offset="0.4858" style="stop-color:#393939"/>
				<stop  offset="0.6023" style="stop-color:#202020"/>
				<stop  offset="0.7234" style="stop-color:#0E0E0E"/>
				<stop  offset="0.8518" style="stop-color:#030303"/>
				<stop  offset="1" style="stop-color:#000000"/>
			</linearGradient>
			<path class="st16" d="M11.5,65.4c0,0,130.4-42.8,132-42.4c1.7,0.4,59.2,31.7,59.2,32.7C202.7,56.6-23.7,73.7,11.5,65.4z"/>
		</g>
	</mask>
	<linearGradient id="SVGID_3_" gradientUnits="userSpaceOnUse" x1="29.5196" y1="-1.4916" x2="154.3427" y2="102.0024">
		<stop  offset="2.215490e-03" style="stop-color:#FFFFFF"/>
		<stop  offset="6.836376e-02" style="stop-color:#FFFFFF"/>
		<stop  offset="1" style="stop-color:#FFFFFF"/>
	</linearGradient>
	<path class="st17" d="M11.5,65.4c0,0,130.4-42.8,132-42.4c1.7,0.4,59.2,31.7,59.2,32.7C202.7,56.6-23.7,73.7,11.5,65.4z"/>
</g>
</svg>
