<?xml version="1.0" encoding="utf-8"?>
<!-- Generator: Adobe Illustrator 25.2.1, SVG Export Plug-In . SVG Version: 6.00 Build 0)  -->
<svg version="1.1" id="Layer_2" xmlns="http://www.w3.org/2000/svg" xmlns:xlink="http://www.w3.org/1999/xlink" x="0px" y="0px"
	 viewBox="0 0 200 200" style="enable-background:new 0 0 200 200;" xml:space="preserve">
<style type="text/css">
	.st0{fill:#7EC617;}
	.st1{fill:#9EA642;}
	.st2{opacity:0.38;fill:#3C6614;enable-background:new    ;}
	.st3{fill:#69753A;}
	.st4{fill:#80A833;}
</style>
<polygon class="st0" points="99.6,31.8 98.6,31.6 95.5,49.4 100.4,47.9 104.1,38.1 "/>
<g>
	<path class="st1" d="M82.3,112.9c-3.8-0.1-7.5-0.3-11.3-0.6c0,0,0,0,0,0c0.9,11.3,4.8,21.8,13.7,26.7c-0.3-1.6-0.4-3.1-0.7-4.7
		c-0.7-5.2-1.3-10.6-1.5-16C82.4,116.5,82.3,114.7,82.3,112.9z"/>
	<path class="st1" d="M83.2,113c0.1,1.7,0.2,3.4,0.3,5.2c0.4,5.4,1.1,10.6,2,15.8c0.3,1.6,0.7,3.1,1,4.7c4.6-2,7-12.9,7.5-25.6
		C90.8,113.1,83.7,113,83.2,113z"/>
	<path class="st0" d="M84.6,113c-0.4,0-0.8,0-1.1,0c0.1,1.8,0.2,3.6,0.3,5.4c0.1,3.3,0.5,7,1.1,10.4c2.3-4.6,3.7-10,4.4-15.7
		C87.7,113,86.1,113,84.6,113z"/>
	<path class="st0" d="M82.5,112.9c-3.8-0.1-7.5-0.3-11.3-0.6c0.7,9.1,3.3,17.7,8.9,23.3c1.4-1.1,2.6-2.8,3.6-4.4
		c-0.5-4.2-0.8-8.5-1.1-12.7C82.6,116.7,82.6,114.8,82.5,112.9z"/>
	<path class="st2" d="M89.3,113.1c-0.7,5.6-2.1,10.9-4.4,15.5c0.3,1.8,0.6,3.7,0.9,5.5c0.3,1.6,0.7,3.1,1,4.7
		c4.5-2,6.9-12.9,7.4-25.6C92.5,113.1,90.9,113.1,89.3,113.1z"/>
	<path class="st3" d="M82.3,112.9c0,1.8,0.1,3.5,0.2,5.3c0.1,5.4,0.8,10.8,1.5,16c0.3,1.6,0.4,3.1,0.7,4.7c0.6,3.7,1.4,7.3,2.5,11.3
		c0.2,0.5,0.9,0.9,1.5,0.7s0.8-0.7,0.7-1.5c-1.1-3.5-2-7.1-2.8-10.8l-1-4.7c-0.9-5.2-1.6-10.4-2-15.8c-0.1-1.7-0.2-3.4-0.3-5.2
		C82.9,113,82.6,112.9,82.3,112.9z"/>
</g>
<g>
	<g>
		<path class="st1" d="M109.2,119.8c1.6-3.8,1.4-6.3,2.7-10.2c0.2-0.8,0.5-1.6,0.7-2.4l-7.2-2.3c-1.4,9.8-1.1,18.6,1.9,20.8
			C107.9,124.4,108.7,120.9,109.2,119.8z"/>
		<path class="st1" d="M95.8,100.2c-4.3-2.3-8.8-4.4-13.4-6.2c4.6,1.8,9.2,3.7,13.6,5.9l4.7-7.5c-15.4-8.8-37.2-10.2-33.2-2.7
			c3.2,5.7,13.7,12.6,24.1,17.3L95.8,100.2z"/>
		<path class="st1" d="M113.1,107.3c-0.2,0.9-0.4,1.8-0.6,2.7c-1,4-2.7,8.2-4,12.1c-0.2,0.9-0.3,1.7-0.8,2.9c6.7-2,11-7.9,13.6-15.1
			L113.1,107.3z"/>
		<path class="st4" d="M95.8,100.2c-5.4-2.9-10.9-5.4-16.7-7.4c5.8,1.8,11.5,4.1,17,7l4.4-7.1c-11.7-6.5-26.9-8.8-31.6-6.1
			c1.2,1.9,2.8,3.7,4.6,5.1c4.4,4.5,11.7,9.6,19.7,12.8L95.8,100.2z"/>
		<path class="st4" d="M112.7,107.1l-4.3-1.4c-0.3,4,0,8,0.9,11.6c1-2.4,1.8-5.1,2.6-7.5C112.2,108.9,112.4,108,112.7,107.1z"/>
		<path class="st4" d="M113.3,107.3c-0.3,1-0.5,2-0.8,2.9c-0.8,3-1.7,6.1-2.9,9.3c0.4,1.3,1.1,2.7,1.8,4.1c4.5-3,7.7-8.1,9.7-13.9
			L113.3,107.3z"/>
		<path class="st2" d="M108.9,120.9c0.5-1.2,0-2.4,0.5-3.6c-1-3.6-1.2-7.5-0.9-11.6l-3-0.9c-1.4,9.8-1.1,18.6,1.9,20.8
			C107.9,124.4,108.3,122.1,108.9,120.9z"/>
		<path class="st2" d="M93.2,104.4C85.3,101.2,77.9,96,73,91.1c-1.7-1.5-3-3.4-4.6-5.1c-1.4,0.8-1.9,1.9-1,3.7
			c3.2,5.7,13.7,12.6,24.1,17.3L93.2,104.4z"/>
		<path class="st3" d="M96.1,99.7c-5.6-2.9-11.3-5.2-17.3-7.1c5.9,2.1,11.5,4.6,16.9,7.6L96.1,99.7z"/>
		<path class="st3" d="M113.2,107.3l-0.6-0.2c-0.2,0.8-0.4,1.6-0.7,2.4c-1.3,3.9-2.6,7.8-4,12c-0.5,1.2-1,2.1-1.5,3.2
			c-1.1,2.7-2.5,5.3-3.9,7.6c-0.1,0.3,0.1,1,0.5,1c0.3,0.1,1-0.1,1-0.5c1.4-2.6,2.5-5.3,3.6-8c0.5-0.9,0.7-2.1,1.2-3.3
			c1.3-3.9,2.6-7.8,3.6-11.8C112.8,109.1,113,108.2,113.2,107.3z"/>
		<path class="st3" d="M88.9,100.9c2.1,0.4,4.1,0.4,6.3,0.4l0.6-1c-2.1,0-4.3,0.2-6.6,0.1c-1.4,0.1-2.7-0.2-3.9-0.4
			c-1.3-0.2-2.5-0.4-3.7-1c1.1,0.5,2.3,1,3.6,1.2C86.4,100.4,87.6,100.6,88.9,100.9z"/>
		<path class="st3" d="M93.3,98.7c-0.6-1-1.5-2-2.4-3.1c-0.9-1.1-1.9-1.9-2.5-2.8c-1.9-1.9-3.9-3.5-6.2-4.5c2.3,1,4.7,2.4,6.6,4.3
			c1,0.8,1.9,1.9,2.9,2.7c0.9,1.1,1.9,1.9,2.4,3.1c0.3,0.1,0.2,0.4,0,0.7C93.7,99.2,93.5,99.1,93.3,98.7
			C93.5,99.1,93.6,98.8,93.3,98.7L93.3,98.7z"/>
	</g>
	<path class="st3" d="M117.6,108.7c-0.3,0.4-0.6,0.9-1,1.3c-0.8,1.1-1.7,2.3-2.7,3c-1.1,0.8-2.2,1.5-3.3,2.3
		c-0.4,0.3-0.4,0.6-0.4,0.6c-0.1,0.3,0.3,0.4,0.6,0.1c1.4-0.7,2.2-1.5,3.3-2.6c1.1-0.8,1.9-1.9,2.7-3c0.4-0.5,0.7-1,1.1-1.6
		L117.6,108.7z"/>
</g>
<g>
	<g>
		<path class="st1" d="M77.9,47.5c0.3,0.8,0.6,1.5,0.9,2.3c1.6,3.8,2.6,7.6,3.6,11.4c0.3,1.3,0.4,2.3,0.8,3.6
			c4.4-5.5,4.5-13,2.4-20.4C83,45.4,80.4,46.4,77.9,47.5z"/>
		<path class="st1" d="M77.7,50.1c-0.2-0.8-0.5-1.5-0.8-2.3c-2.4,1-4.8,1.9-7.2,2.6c3.8,8.2,8.4,14.5,11.9,14.5
			c-0.3-1-0.4-2.3-0.7-3.3C80.1,57.7,79,53.9,77.7,50.1z"/>
		<path class="st0" d="M78.3,47.3c0.3,0.8,0.7,1.6,1,2.5c1,3,2,5.8,3,8.9c1.1,1,2.5,1.6,3.8,2.1c2-4.9,1.7-10.7,0.1-16.5
			C83.4,45.2,80.9,46.2,78.3,47.3z"/>
		<path class="st0" d="M77.5,47.6c-1.4,0.5-2.7,1.1-4.1,1.6c2,3.3,4.3,6.3,7,8.5c-0.7-2.5-1.4-5.1-2.1-7.6
			C78,49.2,77.7,48.4,77.5,47.6z"/>
		<path class="st2" d="M69.8,50.4c3.9,8.2,8.5,14.6,12.1,14.7c-0.3-1.3-0.4-2.3-0.7-3.3c-0.3-1.3-0.7-2.5-1.1-4.1
			c-2.6-2.2-4.9-5.2-6.9-8.5C72,49.7,70.9,50.1,69.8,50.4z"/>
		<path class="st3" d="M77.2,47.7c0.3,0.8,0.5,1.6,0.8,2.4c1.3,3.8,2.3,7.6,3.4,11.7c0.3,1,0.4,2.1,0.7,3.3c0.5,2.8,0.9,5.4,1.1,8.2
			c0,0.5,0.3,0.8,0.8,0.7c0.5,0,0.8-0.3,0.7-0.8c-0.2-2.8-0.7-5.7-1.4-8.5c-0.1-1.3-0.4-2.3-0.8-3.6c-1-3.8-2.3-7.6-3.6-11.4
			c-0.3-0.8-0.6-1.6-1-2.4C77.8,47.5,77.5,47.6,77.2,47.7z"/>
	</g>
	<path class="st3" d="M82.4,45.6c0,0.7,0,1.4-0.1,2.1c0.1,1.3-0.1,2.6-0.5,3.9c-0.4,1.3-0.9,2.7-1.3,3.7c-0.2,0.3,0,0.5,0.3,0.5
		c0.3,0,0.5,0,0.5-0.3c0.4-1.3,0.9-2.7,1-4c0.4-1.3,0.6-2.6,0.5-3.9c0-0.7,0-1.5-0.1-2.2C82.6,45.5,82.5,45.6,82.4,45.6z"/>
</g>
<g>
	<g>
		<path class="st1" d="M71.7,37.6c-3.1-4.7-6.6-9.2-10.4-13.5c3.9,4,7.6,8.4,11,13.1c2.3-1.7,4.7-3.3,7-5
			C69.9,18.4,53.2,8.3,53.2,16.3c0.2,6.4,5.6,17.1,12,26C67.4,40.7,69.6,39.1,71.7,37.6z"/>
		<path class="st0" d="M72.1,37.3c-3.2-4.7-6.7-9.1-10.3-13.4c3.9,4.1,7.5,8.5,10.8,13c2.4-1.7,4.7-3.4,7.1-5
			C72.6,21.4,61.1,13,56.1,13.2c0.2,2.4,0.8,4.4,1.4,6.3C59.1,26,62.9,33.8,68,40.2C69.4,39.3,70.8,38.3,72.1,37.3z"/>
		<path class="st2" d="M67.9,40.4c-5.2-6.3-9.1-14.1-11-20.3c-0.6-2-1-4.3-1.4-6.3c-1.1-0.2-2.2,0.7-2.2,2.6c0.2,6.4,5.6,17.1,12,26
			C66.1,41.6,67,41,67.9,40.4z"/>
		<path class="st3" d="M72.5,37.1c-3.3-4.5-6.9-8.9-10.9-13.1c3.6,4.3,7.2,8.7,10.3,13.4C72.1,37.3,72.3,37.2,72.5,37.1z"/>
		<path class="st3" d="M71.2,38c-1.7-0.8-3.4-1.7-5.1-2.6c-1-0.5-2-1.3-3.1-2c1,0.8,2.1,1.5,3.1,2.3c1.4,1,2.9,1.9,4.4,2.8
			C70.8,38.2,71,38.1,71.2,38z"/>
		<path class="st3" d="M71.2,36c-0.1-1.3-0.3-2.6-0.6-3.6c-0.4-1.2-0.5-2.6-1.1-3.7c-0.8-2.5-2-4.8-3.4-6.8c1.7,1.9,2.9,4.3,3.9,6.7
			c0.4,1.2,1,2.4,1.1,3.7c0.4,1.2,0.8,2.5,0.9,3.8c0.1,0.2-0.1,0.6-0.4,0.4C71.3,36.5,71.3,36.2,71.2,36L71.2,36L71.2,36z"/>
	</g>
</g>
<g>
	<g>
		<path class="st1" d="M55.7,63.8c1-1.6,3.8-5.4,4.8-7c-1.8-2.3-6-6.4-6.1-6.8c-6.2,10.8-12.8,22.6-6.6,27.4c0.6-0.9,1.3-2,1.8-2.9
			C52,71.4,53.6,67.2,55.7,63.8z"/>
		<path class="st1" d="M59,55.9c-0.8,1.6-1.5,6.9-2.4,8.4c-1.9,3.6-4.1,6.9-6.4,10.2c-0.7,1.1-1.5,1.8-2.2,2.9
			C55.4,77.2,62.8,71,67.2,64C65.5,61.9,62.2,58.9,59,55.9z"/>
		<path class="st0" d="M60.5,56.8c-0.8,1.6-2.6,6.4-3.5,7.9c-1.7,2.7-3.2,5.3-4.9,8c0,1.5,0.3,2.9,0.9,4.2
			c5.4-1.8,10.8-7.4,14.3-12.9C65.5,61.9,62.4,59,60.5,56.8z"/>
		<path class="st0" d="M60.5,56.8c-1.2-1.5-3-3.3-3.5-4.2c-2.6,5.3-5.4,12.8-5.4,18.1c1.5-2.2,3-4.4,4.5-6.5
			C57.1,62.6,59.6,58.4,60.5,56.8z"/>
		<path class="st2" d="M54.6,51.1c-0.1-0.3-0.1-0.7-0.2-1c-6.2,10.8-11.6,22.3-6.9,26.2c0.7-1.1,1.5-0.8,2.1-1.8
			c0.7-1.1,0.9-1.7,1.8-2.9c0-5.3,1.7-12,4.3-17.5C55.3,53.1,54.9,52.1,54.6,51.1z"/>
		<path class="st3" d="M58.8,59.2c-0.9,1.6-1.9,3.2-2.9,4.8c-2.1,3.5-4.3,6.7-6.7,10.2c-0.6,0.9-1.3,1.6-2.1,2.7
			C45.2,79,43.5,81,41.5,83c-0.4,0.4-0.4,0.7,0,1.1c0.4,0.4,0.7,0.4,1.1,0c2-2,3.9-4.2,5.6-6.5c0.9-0.9,1.5-1.8,2.2-2.9
			c2.2-3.3,4.3-6.7,6.4-10.2c0.9-1.6,1.7-3.1,2.5-4.7C59.1,59.6,58.9,59.4,58.8,59.2z"/>
	</g>
	<path class="st3" d="M63.2,63.4c-0.8,0.8-1.8,1.6-2.8,2.3c-0.9,0.9-2,1.6-3.3,2.2c-1.3,0.5-2.6,1.1-3.7,1.4c-0.4,0-0.4,0.4-0.2,0.5
		c0.2,0.2,0.4,0.4,0.5,0.2c1.3-0.5,2.6-1.1,3.7-1.8c1.3-0.5,2.4-1.2,3.3-2.2c1-0.8,1.8-1.6,2.6-2.5C63.4,63.5,63.3,63.4,63.2,63.4z"
		/>
</g>
<g>
	<g>
		<path class="st1" d="M99.4,39.6c5.3,0,10.6-0.3,16-1c-5.3,1-10.6,1.5-16.1,1.7c-0.5,3-1.7,5.9-3.5,8.6
			c17.4,0.9,37.6-7.9,30.6-12.6c-5.2-3.3-16.7-4.9-27.3-4.7C99.7,34.3,99.8,37,99.4,39.6z"/>
		<path class="st0" d="M127.3,40.4c-2.1-1.2-4.1-1.8-6-2.4c-5.9-2.1-13.9-3.4-21.7-3c0.1,1.7,0.1,3.4-0.2,5.1c5.3,0,10.6-0.5,15.9-1
			c-5.3,0.9-10.7,1.4-16,1.6c-0.6,3.1-1.9,6-3.7,8.6C109.1,50.2,124.4,45,127.3,40.4z"/>
		<path class="st2" d="M126.4,36.3c-5.2-3.3-16.6-4.9-27.3-4.7c0.3,1,0.4,2.1,0.5,3.1c7.7-0.5,15.7,0.6,21.7,2.4
			c2,0.6,4.1,1.5,6,2.4C128.1,38.7,128,37.3,126.4,36.3z"/>
		<path class="st3" d="M99.4,39.9c0,0.2-0.1,0.4-0.1,0.6c5.3-0.3,10.7-0.8,16-1.6C110.1,39.4,104.7,39.8,99.4,39.9z"/>
		<path class="st3" d="M99.6,38.3c1.2-0.7,2.5-1.4,3.8-2c1-0.5,2.2-1,3.4-1.4l-3.7,1.3c-1.2,0.4-2.3,0.9-3.5,1.5
			C99.6,37.9,99.6,38.1,99.6,38.3z"/>
		<path class="st3" d="M105.8,42.8c-1.3-0.1-2.5-0.8-3.7-1.1c-1-0.3-2.2-0.9-3.3-1.6c-0.2-0.1-0.5-0.2-0.6,0.1
			c-0.1,0-0.1,0.1-0.1,0.1c0,0.1,0,0.1,0,0.2c0,0.1,0.1,0.2,0.3,0.2c1.2,0.6,2.4,1,3.6,1.4c1.2,0.6,2.5,0.8,3.7,1.1
			c2.6,0.5,5.2,0.8,7.7,0.5C110.9,43.8,108.3,43.6,105.8,42.8z"/>
	</g>
</g>
<g>
	<path class="st1" d="M110.1,79.1c6.2-4.8,12.7-9.2,19.4-13.1c-6.6,4.2-12.9,8.8-19,13.8c0.2,0.2,0.3,0.4,0.5,0.7
		c2,2.7,4.1,5.4,6.2,8c11.8-9.1,23.2-21.2,25.6-29.4c3.2-10.3-22-3.6-39.3,10.7C105.6,72.9,107.8,76,110.1,79.1z"/>
	<path class="st0" d="M110.2,79.3c6.1-4.8,12.5-9.1,19.2-12.9c-6.6,4-12.8,8.6-18.8,13.6c0.1,0.2,0.2,0.3,0.4,0.5
		c1.1,1.5,2.3,3,3.4,4.5c9.3-6.3,17.5-14.9,22.3-22.1c1.5-2.4,2.9-5,4.1-7.9c-6.4-2-24.1,4.3-37.2,15
		C105.8,73.1,108,76.2,110.2,79.3z"/>
	<path class="st2" d="M114.5,84.9c0.9,1.2,1.9,2.4,2.8,3.6c11.8-9.1,23.2-21.1,25.7-29.3c0.8-2.6-0.1-4.1-2-4.7
		c-1,2.7-2.4,5.3-4.1,7.9C132,70,123.8,78.7,114.5,84.9z"/>
	<path class="st3" d="M110.5,79.7c6-5,12.3-9.7,19-13.7c-6.8,3.9-13.2,8.3-19.4,13.1C110.2,79.3,110.4,79.5,110.5,79.7z"/>
	<path class="st3" d="M111,80.4c0.2,0.3,0.4,0.5,0.6,0.8c2.5-0.5,4.8-1.1,7.3-1.9c1.8-0.5,3.2-1.1,4.9-1.8c1.7-0.7,3-1.5,4.5-2.4
		c-1.5,0.9-2.8,1.7-4.6,2.2c-1.7,0.7-3.2,1.1-4.8,1.4c-2.7,0.7-5.3,1.1-7.9,1.5C111,80.3,111,80.4,111,80.4z"/>
	<path class="st3" d="M112.6,77.8c0.6-1.5,1.3-3.2,2-4.5c0.9-1.4,1.8-2.9,2.7-4.3c1.9-2.7,4.2-5.3,6.8-7.4c-2.7,1.9-5.3,4.4-7.3,7.1
		c-1,1.2-2.2,2.8-3.1,4.2c-0.9,1.4-1.8,2.9-2.6,4.5c-0.1,0.3,0,0.6,0.2,0.8C112,78.2,112.5,78.1,112.6,77.8L112.6,77.8L112.6,77.8z"
		/>
</g>
<g>
	<path class="st1" d="M46.7,108.5c-6.5-5.7-12.5-11.9-18-18.5c5.7,6.2,11.7,12.1,18.1,17.4c0.5-4.4,0.9-8.9,1.3-13.3
		c-10-8.3-21.2-15.2-28.6-16.1c-12.4-1.6,4.1,30.2,25.4,42.9C45.6,116.9,46.2,112.7,46.7,108.5z"/>
	<path class="st0" d="M46.7,108.3c-6.4-5.6-12.3-11.7-17.7-18.2c5.4,6.2,11.5,11.9,17.8,17.2c0.3-2.6,0.5-5.2,0.8-7.9
		c-7.4-7.1-16.2-12.8-23.4-16c-2.6-1.1-5.5-2-8.5-2.7c-1.1,8,12.5,29.9,29.2,40C45.7,116.6,46.2,112.5,46.7,108.3z"/>
	<path class="st2" d="M47.6,99.3c0.2-1.8,0.4-3.6,0.5-5.4c-9.9-8.3-21.1-15.1-28.4-16c-2.7-0.4-4,0.8-4.3,2.8
		c2.8,0.5,5.7,1.5,8.5,2.7C31.3,86.6,40.2,92.3,47.6,99.3z"/>
	<path class="st3" d="M46.8,107.5c-6.5-5.4-12.6-11.2-18.1-17.5c5.5,6.6,11.5,12.8,18,18.5C46.7,108.2,46.7,107.9,46.8,107.5z"/>
	<path class="st3" d="M47,105.7c-1-2.6-2.1-5-3.4-7.4c-0.8-1.7-1.6-3-2.6-4.5c-1-1.5-2-2.7-3.2-4c1.2,1.3,2.2,2.5,3,4.2
		c1,1.5,1.6,3,2.2,4.5c1.4,3.2,2.5,6.3,3.5,9.4c0,0.1,0.1,0.2,0.1,0.3C46.8,107.3,46.9,106.5,47,105.7z"/>
	<path class="st3" d="M43.2,104.7c-1.6-0.3-3.4-0.8-4.8-1.2c-1.6-0.6-3.2-1.3-4.7-1.9c-3-1.5-5.9-3.3-8.5-5.4
		c2.4,2.3,5.3,4.5,8.2,5.9c1.4,0.8,3.1,1.6,4.7,2.3c1.6,0.6,3.2,1.3,4.9,1.8c0.4,0,0.5-0.1,0.7-0.3
		C43.7,105.3,43.5,104.7,43.2,104.7L43.2,104.7L43.2,104.7z"/>
</g>
<g>
	<path class="st1" d="M151,116.9c-4.4-1.3-8.7-2.5-13-4c-5.5,5.2-9.1,11.5-9.2,18.6c1.2-1,2.6-1.8,3.8-2.9c4.3-3.1,8.7-6.2,13.4-8.9
		C147.6,118.8,149.3,117.8,151,116.9z"/>
	<path class="st1" d="M164.5,120.8c-4.1-1.2-8.2-2.4-12.3-3.6c-1.9,1.1-3.8,2.2-5.6,3.4c-4.6,2.9-8.8,6-13,9.3l-3.7,3.1
		c5.2,4.1,22.1-2.5,36.8-11.6C165.9,121.2,165.2,121,164.5,120.8z"/>
	<path class="st0" d="M152.4,117.3c-2,1.2-4,2.4-6,3.7c-2.9,1.7-5.9,3.7-8.6,5.9c7.6-0.2,15.8-3.1,23.3-7.1
		C158.2,118.9,155.3,118.1,152.4,117.3z"/>
	<path class="st0" d="M151.3,117c-4.4-1.3-8.8-2.6-13.1-4c-4.1,3.8-7.2,8.2-8.6,13c1.7,0.7,3.7,1,5.6,1c3.4-2.4,7.1-4.8,10.6-7
		C147.6,119,149.4,118,151.3,117z"/>
	<path class="st2" d="M164.5,120.8c-1.1-0.3-2.2-0.6-3.3-1c-7.5,4-15.7,6.8-23.2,6.9l-4.4,3.4c-1.2,1-2.5,2.1-3.7,3.1
		c5.1,3.9,22.2-2.6,36.9-11.7C166.1,121.3,165.3,121,164.5,120.8z"/>
	<path class="st3" d="M151,116.9c-1.7,0.9-3.4,1.9-5,2.9c-4.7,2.7-9.2,5.8-13.4,8.9c-1.2,1-2.6,1.8-3.8,2.9
		c-2.9,2.3-5.8,4.8-8.7,7.6c-0.4,0.4-0.3,1.2,0.1,1.6c0.4,0.4,1,0.4,1.6-0.1c2.5-2.6,5.3-5.1,8.2-7.6l3.7-3.1
		c4.2-3.3,8.4-6.4,13-9.3c1.8-1.2,3.7-2.3,5.6-3.4C151.7,117.1,151.4,117,151,116.9z"/>
</g>
</svg>
