<?xml version="1.0" encoding="utf-8"?>
<!-- Generator: Adobe Illustrator 25.2.1, SVG Export Plug-In . SVG Version: 6.00 Build 0)  -->
<svg version="1.1" id="Layer_3" xmlns="http://www.w3.org/2000/svg" xmlns:xlink="http://www.w3.org/1999/xlink" x="0px" y="0px"
	 viewBox="0 0 200 200" style="enable-background:new 0 0 200 200;" xml:space="preserve">
<style type="text/css">
	.st0{fill:#9EA642;}
	.st1{fill:#9FC44E;}
	.st2{opacity:0.38;fill:#3C6614;enable-background:new    ;}
	.st3{fill:#69753A;}
	.st4{fill:#7EC617;}
	.st5{fill:#7BB21B;}
	.st6{fill:#80A833;}
</style>
<g>
	<g>
		<path class="st0" d="M82,98.9c1-1.2,2.2-2.7,3.2-3.9c3.8-4.3,7-8.7,10.1-13.4c6.3-9.1,11.9-19.1,16.4-29.2
			c-5.1,10-10.6,19.5-17.4,28.5c-3.3,4.4-7,8.7-10.5,12.8c-1,1.2-2.5,2.4-3.4,3.6c-6.5-9.7,20.6-52.7,36.8-59.4S114.2,100.7,82,98.9
			z"/>
		<path class="st1" d="M87.2,89.6c2.2-2.7,4.7-5.5,6.7-8.5c6.5-8.8,12.3-18.5,17.4-28.5c-4.5,10.1-10.2,20.1-16.4,29.2
			c-2.4,3.7-5,7.1-8.1,10.5c0,1.9,0.3,4.1,0.8,6c23.8-5.4,38.5-48.5,34-58.7c-2.6,1.5-5.2,3.1-7.7,5.4
			C102.6,54.2,88.6,72.9,87.2,89.6z"/>
		<path class="st2" d="M117.1,37.9c-16.2,6.7-43.3,50.3-36.8,59.4c1-1.2,2.5-2.4,3.4-3.6c1.3-1.4,2.5-2.9,3.8-4.3
			c1.4-16.7,15.4-35.5,27.1-44.9c2.4-1.8,4.8-3.7,7.7-5.4C121.1,37.6,119.6,36.9,117.1,37.9z"/>
		<path class="st3" d="M94.3,80.9c6.5-8.8,12.3-18.5,17.4-28.5c-4.5,10.1-10.2,20.1-16.4,29.2c-3,4.7-6.8,9-10.1,13.4
			c-1,1.2-2.2,2.7-3.2,3.9c-2.5,2.9-5.6,5.7-8.3,8.3c-0.6,0.5-1.1,0.4-1.6-0.2c-0.5-0.6-0.4-1.1,0.2-1.6l0,0l0,0
			c3-2.3,5.8-5.4,8.6-8c1-1.2,2.5-2.4,3.4-3.6C87.4,89.9,90.7,85.5,94.3,80.9z"/>
		<path class="st3" d="M97.7,75.5c0.2-3.5,0.7-7.1,1.4-10.5c0.5-1.8,0.7-3.4,1.2-5.2s1.2-3.3,2-4.8c-0.7,1.5-1.2,3.3-2,4.8
			c-0.5,1.8-0.7,3.4-1.2,5.2C98.3,68.3,98.1,71.8,97.7,75.5L97.7,75.5C98.1,76.1,97.8,76.3,97.7,75.5C97.8,76.3,97.6,76,97.7,75.5
			L97.7,75.5z"/>
		<path class="st3" d="M101.1,71.4c1.4-0.6,2.9-1.8,4.6-2.6c1.5-1.1,2.7-2.1,4.2-3.2c2.5-2.4,5.2-4.9,7.2-7.9
			c-1.8,3.2-4,5.9-6.7,8.5c-1.3,1.4-2.8,2.6-3.9,3.5c-1.5,1.1-3,2.3-4.4,2.9c-0.3,0.2-0.8,0.2-0.8-0.4
			C100.8,72.1,100.8,71.6,101.1,71.4L101.1,71.4L101.1,71.4z"/>
	</g>
	<path class="st3" d="M90.1,87.9c1.6-0.3,3.6-0.9,5-1.5c1.7-0.8,3.1-1.5,4.9-2.3c3.2-2,5.9-4,8.4-6.9c-2,3-4.7,5.5-8,7.5
		c-1.5,1.1-3.2,2-4.9,2.8c-1.7,0.8-3.4,1.7-5.3,1.7c-0.3,0.2-0.5-0.1-0.8-0.4C89.5,88.3,89.8,88.1,90.1,87.9L90.1,87.9L90.1,87.9z"
		/>
</g>
<g>
	<path class="st0" d="M72.4,100.8c0.1-1.6,0.5-3.2,0.7-4.8c0.9-5.3,1.9-10.9,3.3-16.2C79,69,82.7,58.6,87.3,48.7
		c-4.1,10.2-7.5,20.6-9.8,31.3c-1.2,5.4-2.1,10.8-2.7,16.2c-0.1,1.6-0.3,3.3-0.4,4.9c11.4-1.3,25.5-49.8,20.1-66.1
		C89,18.4,50.1,78.1,72.4,100.8z"/>
	<path class="st4" d="M75.6,90.8c0.4-3.5,1.1-7.2,2-10.5C79.9,69.6,83,59.1,87.4,49c-4.6,10-8.2,20.3-10.9,31.1
		c-0.9,4.1-2,8.5-2.7,12.8c-1.4,1.4-3.1,2.6-4.8,3.3C57.4,75,79.7,36,90.2,32.6c0.6,3.1,1,6.1,1.2,9.1C91.8,56,87.1,78.7,75.6,90.8z
		"/>
	<path class="st2" d="M94.6,35c5.5,16.3-8.9,64.7-20.1,66.1c0.1-1.6,0.3-3.3,0.4-4.9c0.2-1.9,0.5-3.8,0.7-5.7
		C87.1,78.7,92,56.1,91.3,41.3c-0.1-3.2-0.5-6.2-1.2-9.1C92,31.7,93.7,32.4,94.6,35z"/>
	<path class="st3" d="M77.4,79.9c2.3-10.7,5.5-21.2,9.8-31.3C82.7,58.6,79,69,76.4,79.8c-1.5,5.3-2.4,10.9-3.3,16.2
		c-0.1,1.6-0.5,3.2-0.7,4.8c-0.5,3.8-0.7,7.6-0.9,11.9c0,0.6,0.6,1.1,1.2,1.1c0.6,0,1-0.4,1.1-1.2l0,0l0,0
		c-0.1-3.7,0.2-7.6,0.4-11.5c0.1-1.6,0.3-3.3,0.4-4.9C75.3,90.7,76.2,85.4,77.4,79.9z"/>
	<path class="st3" d="M79.4,74c2.5-2.6,4.7-5.1,6.8-7.9c1.2-1.5,2.1-2.8,3-4.4c1-1.6,1.6-3,2.3-4.7c-0.7,1.7-1.3,3.1-2.6,4.6
		c-1,1.6-2.1,2.8-3.2,4c-2.3,2.7-4.7,5.1-7.2,7.4l0,0c-0.3,0.1-0.3,0.7-0.1,0.8C78.7,74.3,79.1,74.1,79.4,74L79.4,74z"/>
	<path class="st3" d="M80.1,68.6c-0.4-1.6-0.8-3.5-1-5c-0.1-1.7-0.2-3.5-0.3-5.2c0-3.4,0.4-6.9,1.3-10.2c-1.1,3.2-1.8,6.9-1.9,10.3
		c-0.1,1.6-0.1,3.6-0.1,5.4c0.1,1.7,0.2,3.5,0.5,5.3c0.1,0.3,0.4,0.4,0.6,0.6C79.8,69.3,80.2,68.9,80.1,68.6L80.1,68.6L80.1,68.6z"
		/>
</g>
<path class="st3" d="M74.9,87.7c-0.8-1.5-1.6-3-2.2-4.7s-1.1-3.3-1.5-5.2c-0.8-3.5-0.6-7.1-0.2-10.6c-0.6,3.4-0.9,7.3-0.4,10.9
	c0.3,1.9,0.7,3.7,1.1,5.3c0.7,1.7,1.1,3.3,2,5.1c0.1,0.3,0.6,0.6,0.7,0.3C75.2,88.4,75.1,88,74.9,87.7L74.9,87.7L74.9,87.7z"/>
<g>
	<path class="st0" d="M64.3,118.1c1.1-1.2,2.4-2.2,3.5-3.4c4-3.6,8.2-7.3,12.7-10.6c8.8-6.8,18.1-12.6,27.9-17.6
		c-9.5,5.4-18.7,11.5-27.2,18.4c-4.3,3.5-8.3,7.1-12.2,11c-1.1,1.2-2.3,2.4-3.4,3.6c9.7,6,51-23.1,56.8-39.3
		C128.6,63.9,61,86.4,64.3,118.1z"/>
	<path class="st5" d="M73,112.3c2.5-2.5,5.4-4.9,8.1-7c8.5-6.9,17.5-13.2,27.2-18.4c-9.8,4.9-19.1,10.8-27.9,17.6
		c-3.3,2.7-6.9,5.4-10,8.3c-2,0.2-4.1,0.1-5.8-0.4c4.1-23.8,45.8-40.5,56.2-36.6c-1.4,2.8-3,5.5-4.7,7.8
		C107.4,95.1,89.5,109.9,73,112.3z"/>
	<path class="st2" d="M122.6,80.4c-5.9,16.2-47.2,45.1-56.8,39.3c1.1-1.2,2.3-2.4,3.4-3.6c1.4-1.3,2.7-2.6,4.1-4
		c16.3-2.2,34.2-16.8,42.9-28.9c1.9-2.5,3.5-5.1,4.7-7.8C122.7,76.2,123.6,77.8,122.6,80.4z"/>
	<path class="st3" d="M81.2,104.9c8.5-6.9,17.5-13.2,27.2-18.4c-9.8,4.9-19.1,10.8-27.9,17.6c-4.5,3.3-8.7,7-12.7,10.6
		c-1.1,1.2-2.4,2.2-3.5,3.4c-2.7,2.6-5.3,5.5-8,8.7c-0.3,0.5-0.2,1.3,0.3,1.6c0.5,0.3,1.1,0.3,1.6-0.3l0,0l0,0
		c2.3-3,4.9-5.9,7.5-8.7c1.1-1.2,2.3-2.4,3.4-3.6C72.9,112,76.9,108.4,81.2,104.9z"/>
	<path class="st3" d="M86.5,101.5c3.6-0.4,6.9-1,10.2-1.9c1.9-0.4,3.4-0.9,5.1-1.5s3.1-1.4,4.7-2.2c-1.6,0.9-3,1.6-4.8,2
		c-1.7,0.6-3.4,0.9-5,1.2c-3.5,0.7-6.9,1-10.2,1.3l0,0c-0.4-0.1-0.7,0.4-0.6,0.6C85.8,101.3,86.2,101.4,86.5,101.5L86.5,101.5z"/>
	<path class="st3" d="M90.4,97.7c0.7-1.5,1.5-3.2,2.3-4.5c1-1.4,2-2.9,3-4.3c2.1-2.6,4.6-5.1,7.4-7.2c-2.9,1.8-5.7,4.2-7.9,6.9
		c-1.1,1.2-2.4,2.8-3.4,4.2c-1,1.4-2,2.9-2.9,4.5c-0.1,0.4,0,0.6,0.1,0.8C89.7,98,90.3,98,90.4,97.7L90.4,97.7L90.4,97.7z"/>
</g>
<path class="st3" d="M74.5,109.4c0.3-1.6,0.6-3.3,1.1-5.1c0.5-1.8,1.2-3.3,2.1-5c1.5-3.2,3.9-5.9,6.4-8.5c-2.6,2.3-5.2,5.2-7.1,8.3
	c-0.9,1.7-1.8,3.3-2.4,4.9c-0.5,1.8-1.2,3.3-1.6,5.3c-0.1,0.4,0.1,0.8,0.4,0.7C74.3,110.1,74.4,109.8,74.5,109.4L74.5,109.4
	L74.5,109.4z"/>
<g>
	<g>
		<path class="st0" d="M63.7,120.9c0.1-1.3,0.3-2.6,0.1-3.6c0.1-4.2,0.1-8.5-0.1-12.6c-0.5-8.4-1.7-17-3.5-25.2
			C62,87.7,62.8,96,63,104.4c-0.1,4.2-0.1,8.5-0.5,12.7c-0.1,1.3-0.3,2.3-0.5,3.6C53.9,118,50.1,79.6,56.6,68
			C63.2,56.7,83.8,107,63.7,120.9z"/>
		<path class="st6" d="M62.9,112.9c0.3-2.6,0.2-5.5,0.2-8.1c-0.2-8.4-1-16.7-2.8-24.9c2.1,8.1,3.3,16.4,3.5,25.2
			c0.1,3.2,0.3,6.5,0.1,10c0.8,1.2,1.9,2.3,3.1,3.5c11.6-14.3,0.9-46.9-6.8-51c-1,2.1-1.7,4.5-2,6.8
			C55.7,84.3,55.9,102.2,62.9,112.9z"/>
		<path class="st2" d="M56.6,68c-6.5,11.6-2.7,50,5.4,52.8c0.1-1.3,0.3-2.3,0.5-3.6c0.1-1.3,0.2-3,0.4-4.3
			c-7-10.7-7.2-28.2-4.5-39.3c0.3-2.3,1.3-4.4,2-6.8C58.9,66,57.7,66.2,56.6,68z"/>
		<path class="st3" d="M63,104.4c-0.2-8.4-1-16.7-2.8-24.9c2.1,8.1,3.3,16.4,3.5,25.2c0.3,4.2,0.2,8.4,0.1,12.6
			c-0.1,1.3,0,2.6-0.1,3.6c-0.2,3-0.5,5.9-1,8.9c0,0.3-0.5,0.7-0.9,0.8s-0.7-0.5-0.8-0.9l0,0l0,0c0.6-2.7,1.2-5.7,1.4-8.6
			c0.1-1.3,0.3-2.3,0.5-3.6C62.9,112.9,63,108.6,63,104.4z"/>
		<path class="st3" d="M62.3,99.6c-1.6-2.4-2.9-4.5-3.9-6.9c-0.5-1.2-1-2.5-1.5-3.7c-0.5-1.2-0.7-2.5-0.9-3.8
			c0.2,1.3,0.7,2.5,1.2,3.7c0.5,1.2,1,2.5,1.8,3.6c1.3,2.4,2.9,4.5,4.2,6.6l0,0c0,0.3,0.1,0.6-0.2,0.7
			C62.7,99.9,62.4,99.9,62.3,99.6L62.3,99.6z"/>
		<path class="st3" d="M62.7,95.4c0.5-1,1-2.4,1.4-3.8c0.5-1.4,0.6-2.7,1.1-3.7c0.6-2.7,0.9-5.3,0.5-7.9c0.4,2.5,0.4,5.5-0.2,8.1
			c-0.1,1.3-0.6,2.7-0.7,4c-0.5,1.4-0.6,2.7-1.4,3.8c0,0.3-0.3,0.4-0.6,0.4C62.5,96,62.4,95.7,62.7,95.4
			C62.4,95.7,62.8,95.7,62.7,95.4L62.7,95.4z"/>
	</g>
	<path class="st3" d="M63.5,110.5c0.8-1.1,1.6-2.2,2.5-3.3c0.8-1.1,1.3-2.5,1.7-3.8c1-2.4,1.6-5.1,1.8-8c0,2.6-0.5,5.6-1.4,8.3
		c-0.5,1.4-0.9,2.7-1.7,3.8c-0.8,1.4-1.3,2.5-2.4,3.6c-0.3,0.4-0.6,0.4-0.6,0.1C63.3,111.2,63.3,110.9,63.5,110.5L63.5,110.5
		L63.5,110.5z"/>
</g>
<g>
	<g>
		<path class="st0" d="M51.5,131.9c0.8-1.1,1.5-1.9,2.3-3c2.3-3.3,4.7-6.7,6.6-10.4c4.1-7.3,7.7-14.7,10.3-22.4
			c-3,7.7-6.7,14.9-11.2,21.8c-2.1,3.5-4.5,6.9-7,10c-0.6,0.9-1.5,1.9-2.1,2.8c-5.3-6.3,12.3-39.5,23.7-45.6
			C85.6,79.3,75.4,131.5,51.5,131.9z"/>
		<path class="st4" d="M55.2,125c1.6-2.2,3.1-4.5,4.7-6.7c4.5-6.9,8-14.3,11.2-21.8c-2.8,7.8-6.3,15.3-10.3,22.4
			c-1.8,2.8-3.3,5.4-5.1,8.2c0,1.5,0.3,3,0.8,4.3c17.3-5.5,25.7-37.9,21.7-45.1c-2.1,1.3-3.6,2.7-5.2,4.2
			C64.6,97.9,55.3,112.4,55.2,125z"/>
		<path class="st2" d="M74.1,85.1c-11.4,6.2-29.1,39.3-23.8,46c0.8-1.1,1.5-1.9,2.1-2.8c0.8-1.1,1.6-2.2,2.5-3.5
			c0.1-12.2,9.2-26.9,17.3-34.7c1.5-1.5,3.5-2.9,5.2-4.2C77.2,84.8,75.8,84.2,74.1,85.1z"/>
		<path class="st3" d="M59.7,118.1c4.5-6.9,8-14.3,11.2-21.8c-2.8,7.8-6.3,15.3-10.3,22.4c-2.1,3.5-4.3,7.1-6.6,10.4
			c-0.8,1.1-1.4,2-2.3,3c-1.7,2.4-3.7,4.6-5.8,6.7c-0.4,0.4-0.8,0.4-1.1,0c-0.4-0.4-0.4-0.8,0-1.1l0,0l0,0c2.1-2,3.9-4.1,5.8-6.3
			c0.8-1.1,1.5-1.9,2.1-2.8C55.2,125,57.5,121.7,59.7,118.1z"/>
		<path class="st3" d="M61.9,113.9c0.1-2.6,0.1-5.3,0.5-7.9c0.2-1.3,0.4-2.6,0.6-3.9s0.6-2.4,1.2-3.7c-0.4,1.1-1,2.4-1.2,3.7
			c-0.2,1.3-0.4,2.6-0.5,3.8c-0.1,2.6-0.1,5.3,0,7.7l0,0C62.6,113.9,62.4,114.1,61.9,113.9C62,114.4,61.8,114.2,61.9,113.9
			L61.9,113.9z"/>
		<path class="st3" d="M64.4,110.7c1.1-0.7,2.3-1.5,3.1-2.2c1-0.9,2.1-1.7,2.9-2.8c1.9-1.8,3.5-4.1,4.7-6.3c-1,2.4-2.5,4.7-4.3,6.7
			c-1,0.9-1.7,2-2.9,2.8c-1,0.9-1.9,1.8-3.1,2.6c-0.2,0.2-0.6,0.2-0.6-0.2C64,111.1,64.2,110.9,64.4,110.7L64.4,110.7L64.4,110.7z"
			/>
	</g>
	<path class="st3" d="M57.1,123.6c1.1-0.4,2.5-0.9,3.8-1.4c1.3-0.5,2.5-1.3,3.4-2.2c2.3-1.5,4-3.5,5.8-5.5c-1.6,2.2-3.3,4.3-5.4,5.9
		c-1,0.9-2.1,1.7-3.4,2.2c-1.1,0.7-2.5,1.3-3.8,1.8c-0.2,0.2-0.4,0-0.6-0.2C56.7,123.9,56.8,123.5,57.1,123.6L57.1,123.6L57.1,123.6
		z"/>
</g>
<g>
	<g>
		<path class="st0" d="M82,98.9c1-1.2,2.2-2.7,3.2-3.9c3.8-4.3,7-8.7,10.1-13.4c6.3-9.1,11.9-19.1,16.4-29.2
			c-5.1,10-10.6,19.5-17.4,28.5c-3.3,4.4-7,8.7-10.5,12.8c-1,1.2-2.5,2.4-3.4,3.6c-6.5-9.7,20.6-52.7,36.8-59.4S114.2,100.7,82,98.9
			z"/>
		<path class="st1" d="M87.2,89.6c2.2-2.7,4.7-5.5,6.7-8.5c6.5-8.8,12.3-18.5,17.4-28.5c-4.5,10.1-10.2,20.1-16.4,29.2
			c-2.4,3.7-5,7.1-8.1,10.5c0,1.9,0.3,4.1,0.8,6c23.8-5.4,38.5-48.5,34-58.7c-2.6,1.5-5.2,3.1-7.7,5.4
			C102.6,54.2,88.6,72.9,87.2,89.6z"/>
		<path class="st2" d="M117.1,37.9c-16.2,6.7-43.3,50.3-36.8,59.4c1-1.2,2.5-2.4,3.4-3.6c1.3-1.4,2.5-2.9,3.8-4.3
			c1.4-16.7,15.4-35.5,27.1-44.9c2.4-1.8,4.8-3.7,7.7-5.4C121.1,37.6,119.6,36.9,117.1,37.9z"/>
		<path class="st3" d="M94.3,80.9c6.5-8.8,12.3-18.5,17.4-28.5c-4.5,10.1-10.2,20.1-16.4,29.2c-3,4.7-6.8,9-10.1,13.4
			c-1,1.2-2.2,2.7-3.2,3.9c-2.5,2.9-5.6,5.7-8.3,8.3c-0.6,0.5-1.1,0.4-1.6-0.2c-0.5-0.6-0.4-1.1,0.2-1.6l0,0l0,0
			c3-2.3,5.8-5.4,8.6-8c1-1.2,2.5-2.4,3.4-3.6C87.4,89.9,90.7,85.5,94.3,80.9z"/>
		<path class="st3" d="M97.7,75.5c0.2-3.5,0.7-7.1,1.4-10.5c0.5-1.8,0.7-3.4,1.2-5.2s1.2-3.3,2-4.8c-0.7,1.5-1.2,3.3-2,4.8
			c-0.5,1.8-0.7,3.4-1.2,5.2C98.3,68.3,98.1,71.8,97.7,75.5L97.7,75.5C98.1,76.1,97.8,76.3,97.7,75.5C97.8,76.3,97.6,76,97.7,75.5
			L97.7,75.5z"/>
		<path class="st3" d="M101.1,71.4c1.4-0.6,2.9-1.8,4.6-2.6c1.5-1.1,2.7-2.1,4.2-3.2c2.5-2.4,5.2-4.9,7.2-7.9
			c-1.8,3.2-4,5.9-6.7,8.5c-1.3,1.4-2.8,2.6-3.9,3.5c-1.5,1.1-3,2.3-4.4,2.9c-0.3,0.2-0.8,0.2-0.8-0.4
			C100.8,72.1,100.8,71.6,101.1,71.4L101.1,71.4L101.1,71.4z"/>
	</g>
	<path class="st3" d="M90.1,87.9c1.6-0.3,3.6-0.9,5-1.5c1.7-0.8,3.1-1.5,4.9-2.3c3.2-2,5.9-4,8.4-6.9c-2,3-4.7,5.5-8,7.5
		c-1.5,1.1-3.2,2-4.9,2.8c-1.7,0.8-3.4,1.7-5.3,1.7c-0.3,0.2-0.5-0.1-0.8-0.4C89.5,88.3,89.8,88.1,90.1,87.9L90.1,87.9L90.1,87.9z"
		/>
</g>
<path class="st3" d="M74.9,87.7c-0.8-1.5-1.6-3-2.2-4.7s-1.1-3.3-1.5-5.2c-0.8-3.5-0.6-7.1-0.2-10.6c-0.6,3.4-0.9,7.3-0.4,10.9
	c0.3,1.9,0.7,3.7,1.1,5.3c0.7,1.7,1.1,3.3,2,5.1c0.1,0.3,0.6,0.6,0.7,0.3C75.2,88.4,75.1,88,74.9,87.7L74.9,87.7L74.9,87.7z"/>
<g>
	<path class="st0" d="M64.3,118.1c1.1-1.2,2.4-2.2,3.5-3.4c4-3.6,8.2-7.3,12.7-10.6c8.8-6.8,18.1-12.6,27.9-17.6
		c-9.5,5.4-18.7,11.5-27.2,18.4c-4.3,3.5-8.3,7.1-12.2,11c-1.1,1.2-2.3,2.4-3.4,3.6c9.7,6,51-23.1,56.8-39.3
		C128.6,63.9,61,86.4,64.3,118.1z"/>
	<path class="st5" d="M73,112.3c2.5-2.5,5.4-4.9,8.1-7c8.5-6.9,17.5-13.2,27.2-18.4c-9.8,4.9-19.1,10.8-27.9,17.6
		c-3.3,2.7-6.9,5.4-10,8.3c-2,0.2-4.1,0.1-5.8-0.4c4.1-23.8,45.8-40.5,56.2-36.6c-1.4,2.8-3,5.5-4.7,7.8
		C107.4,95.1,89.5,109.9,73,112.3z"/>
	<path class="st2" d="M122.6,80.4c-5.9,16.2-47.2,45.1-56.8,39.3c1.1-1.2,2.3-2.4,3.4-3.6c1.4-1.3,2.7-2.6,4.1-4
		c16.3-2.2,34.2-16.8,42.9-28.9c1.9-2.5,3.5-5.1,4.7-7.8C122.7,76.2,123.6,77.8,122.6,80.4z"/>
	<path class="st3" d="M81.2,104.9c8.5-6.9,17.5-13.2,27.2-18.4c-9.8,4.9-19.1,10.8-27.9,17.6c-4.5,3.3-8.7,7-12.7,10.6
		c-1.1,1.2-2.4,2.2-3.5,3.4c-2.7,2.6-5.3,5.5-8,8.7c-0.3,0.5-0.2,1.3,0.3,1.6c0.5,0.3,1.1,0.3,1.6-0.3l0,0l0,0
		c2.3-3,4.9-5.9,7.5-8.7c1.1-1.2,2.3-2.4,3.4-3.6C72.9,112,76.9,108.4,81.2,104.9z"/>
	<path class="st3" d="M86.5,101.5c3.6-0.4,6.9-1,10.2-1.9c1.9-0.4,3.4-0.9,5.1-1.5s3.1-1.4,4.7-2.2c-1.6,0.9-3,1.6-4.8,2
		c-1.7,0.6-3.4,0.9-5,1.2c-3.5,0.7-6.9,1-10.2,1.3l0,0c-0.4-0.1-0.7,0.4-0.6,0.6C85.8,101.3,86.2,101.4,86.5,101.5L86.5,101.5z"/>
	<path class="st3" d="M90.4,97.7c0.7-1.5,1.5-3.2,2.3-4.5c1-1.4,2-2.9,3-4.3c2.1-2.6,4.6-5.1,7.4-7.2c-2.9,1.8-5.7,4.2-7.9,6.9
		c-1.1,1.2-2.4,2.8-3.4,4.2c-1,1.4-2,2.9-2.9,4.5c-0.1,0.4,0,0.6,0.1,0.8C89.7,98,90.3,98,90.4,97.7L90.4,97.7L90.4,97.7z"/>
</g>
<path class="st3" d="M74.5,109.4c0.3-1.6,0.6-3.3,1.1-5.1c0.5-1.8,1.2-3.3,2.1-5c1.5-3.2,3.9-5.9,6.4-8.5c-2.6,2.3-5.2,5.2-7.1,8.3
	c-0.9,1.7-1.8,3.3-2.4,4.9c-0.5,1.8-1.2,3.3-1.6,5.3c-0.1,0.4,0.1,0.8,0.4,0.7C74.3,110.1,74.4,109.8,74.5,109.4L74.5,109.4
	L74.5,109.4z"/>
<g>
	<g>
		<path class="st0" d="M63.7,120.9c0.1-1.3,0.3-2.6,0.1-3.6c0.1-4.2,0.1-8.5-0.1-12.6c-0.5-8.4-1.7-17-3.5-25.2
			C62,87.7,62.8,96,63,104.4c-0.1,4.2-0.1,8.5-0.5,12.7c-0.1,1.3-0.3,2.3-0.5,3.6C53.9,118,50.1,79.6,56.6,68
			C63.2,56.7,83.8,107,63.7,120.9z"/>
		<path class="st6" d="M62.9,112.9c0.3-2.6,0.2-5.5,0.2-8.1c-0.2-8.4-1-16.7-2.8-24.9c2.1,8.1,3.3,16.4,3.5,25.2
			c0.1,3.2,0.3,6.5,0.1,10c0.8,1.2,1.9,2.3,3.1,3.5c11.6-14.3,0.9-46.9-6.8-51c-1,2.1-1.7,4.5-2,6.8
			C55.7,84.3,55.9,102.2,62.9,112.9z"/>
		<path class="st2" d="M56.6,68c-6.5,11.6-2.7,50,5.4,52.8c0.1-1.3,0.3-2.3,0.5-3.6c0.1-1.3,0.2-3,0.4-4.3
			c-7-10.7-7.2-28.2-4.5-39.3c0.3-2.3,1.3-4.4,2-6.8C58.9,66,57.7,66.2,56.6,68z"/>
		<path class="st3" d="M63,104.4c-0.2-8.4-1-16.7-2.8-24.9c2.1,8.1,3.3,16.4,3.5,25.2c0.3,4.2,0.2,8.4,0.1,12.6
			c-0.1,1.3,0,2.6-0.1,3.6c-0.2,3-0.5,5.9-1,8.9c0,0.3-0.5,0.7-0.9,0.8s-0.7-0.5-0.8-0.9l0,0l0,0c0.6-2.7,1.2-5.7,1.4-8.6
			c0.1-1.3,0.3-2.3,0.5-3.6C62.9,112.9,63,108.6,63,104.4z"/>
		<path class="st3" d="M62.3,99.6c-1.6-2.4-2.9-4.5-3.9-6.9c-0.5-1.2-1-2.5-1.5-3.7c-0.5-1.2-0.7-2.5-0.9-3.8
			c0.2,1.3,0.7,2.5,1.2,3.7c0.5,1.2,1,2.5,1.8,3.6c1.3,2.4,2.9,4.5,4.2,6.6l0,0c0,0.3,0.1,0.6-0.2,0.7
			C62.7,99.9,62.4,99.9,62.3,99.6L62.3,99.6z"/>
		<path class="st3" d="M62.7,95.4c0.5-1,1-2.4,1.4-3.8c0.5-1.4,0.6-2.7,1.1-3.7c0.6-2.7,0.9-5.3,0.5-7.9c0.4,2.5,0.4,5.5-0.2,8.1
			c-0.1,1.3-0.6,2.7-0.7,4c-0.5,1.4-0.6,2.7-1.4,3.8c0,0.3-0.3,0.4-0.6,0.4C62.5,96,62.4,95.7,62.7,95.4
			C62.4,95.7,62.8,95.7,62.7,95.4L62.7,95.4z"/>
	</g>
	<path class="st3" d="M63.5,110.5c0.8-1.1,1.6-2.2,2.5-3.3c0.8-1.1,1.3-2.5,1.7-3.8c1-2.4,1.6-5.1,1.8-8c0,2.6-0.5,5.6-1.4,8.3
		c-0.5,1.4-0.9,2.7-1.7,3.8c-0.8,1.4-1.3,2.5-2.4,3.6c-0.3,0.4-0.6,0.4-0.6,0.1C63.3,111.2,63.3,110.9,63.5,110.5L63.5,110.5
		L63.5,110.5z"/>
</g>
</svg>
