<?xml version="1.0" encoding="utf-8"?>
<!-- Generator: Adobe Illustrator 25.2.1, SVG Export Plug-In . SVG Version: 6.00 Build 0)  -->
<svg version="1.1" id="Layer_3" xmlns="http://www.w3.org/2000/svg" xmlns:xlink="http://www.w3.org/1999/xlink" x="0px" y="0px"
	 viewBox="0 0 200 200" style="enable-background:new 0 0 200 200;" xml:space="preserve">
<style type="text/css">
	.st0{fill:#CD0005;}
	.st1{fill:#C43D0E;}
	.st2{opacity:0.15;fill:#FFFFFF;}
	.st3{opacity:0.46;fill:#CD0005;}
	.st4{opacity:0.52;fill:#CD0005;}
	.st5{clip-path:url(#SVGID_2_);}
	.st6{fill:#488C14;}
	.st7{fill:#326D05;}
	.st8{clip-path:url(#SVGID_4_);}
</style>
<path class="st0" d="M92.2,100.3c-0.7-8.9-1.6-24.4,0.3-33c2.2-9.9,3.7-17.8,10.6-25.2c9.8-10.6,29.1-12.2,42.1-6
	c3.6,1.7,6.8,4,10,6.4c2.4,1.8,5.7,4.5,7.5,6.9c2,2.6,4.5,9.1,4.7,12.4c0.7,11.9-1,13.8-5,22c-3.9,8.1-10.2,15-17.5,20.3
	c-4.8,3.5-6.2,4.2-12,8.5c-3.7,2.8-9.3,6.9-13.5,9c-5.6,2.7-9.9,3.6-13.6,3.4c-4.5-0.3-8.2-2.4-9.9-6.8
	C93.6,111.7,92.7,107,92.2,100.3z"/>
<g>
	<path class="st1" d="M114.1,108.2c0.2-0.7,0.9-1.2,1.6-1c0.7,0.2,1.2,0.9,1,1.6c-0.2,0.7-1.8,1.9-1.8,1.9S113.9,109,114.1,108.2z"
		/>
	<path class="st2" d="M115.3,108.7c0.1-0.3,0.3-0.4,0.6-0.4c0.3,0.1,0.4,0.3,0.4,0.6s-0.7,0.7-0.7,0.7S115.2,108.9,115.3,108.7z"/>
</g>
<g>
	<path class="st1" d="M104.3,89.4c0.2-0.7,0.9-1.2,1.6-1c0.7,0.2,1.2,0.9,1,1.6c-0.2,0.7-1.8,1.9-1.8,1.9S104.1,90.2,104.3,89.4z"/>
	<path class="st2" d="M105.4,89.9c0.1-0.3,0.3-0.4,0.6-0.4c0.3,0.1,0.4,0.3,0.4,0.6c-0.1,0.3-0.7,0.7-0.7,0.7S105.4,90.1,105.4,89.9
		z"/>
</g>
<g>
	<path class="st1" d="M122,93.7c0.2-0.7,0.9-1.2,1.6-1c0.7,0.2,1.2,0.9,1,1.6c-0.2,0.7-1.8,1.9-1.8,1.9S121.8,94.4,122,93.7z"/>
	<path class="st2" d="M123.2,94.1c0.1-0.3,0.3-0.4,0.6-0.4c0.3,0.1,0.4,0.3,0.4,0.6c-0.1,0.3-0.7,0.7-0.7,0.7S123.1,94.4,123.2,94.1
		z"/>
</g>
<g>
	<path class="st1" d="M97.4,80.6c0.2-0.7,0.9-1.2,1.6-1c0.7,0.2,1.2,0.9,1,1.6c-0.2,0.7-1.8,1.9-1.8,1.9S97.3,81.4,97.4,80.6z"/>
	<path class="st2" d="M98.6,81.1c0.1-0.3,0.3-0.4,0.6-0.4c0.3,0.1,0.4,0.3,0.4,0.6c-0.1,0.3-0.7,0.7-0.7,0.7S98.5,81.3,98.6,81.1z"
		/>
</g>
<g>
	<path class="st1" d="M113.7,89.7c0.2-0.7,0.9-1.2,1.6-1c0.7,0.2,1.2,0.9,1,1.6c-0.2,0.7-1.8,1.9-1.8,1.9S113.5,90.4,113.7,89.7z"/>
	<path class="st2" d="M114.9,90.1c0.1-0.3,0.3-0.4,0.6-0.4c0.3,0.1,0.4,0.3,0.4,0.6c-0.1,0.3-0.7,0.7-0.7,0.7S114.8,90.4,114.9,90.1
		z"/>
</g>
<g>
	<path class="st1" d="M110.3,77c0.2-0.7,0.9-1.2,1.6-1c0.7,0.2,1.2,0.9,1,1.6c-0.2,0.7-1.8,1.9-1.8,1.9S110.2,77.7,110.3,77z"/>
	<path class="st2" d="M111.5,77.4c0.1-0.3,0.3-0.4,0.6-0.4c0.3,0.1,0.4,0.3,0.4,0.6c-0.1,0.3-0.7,0.7-0.7,0.7S111.4,77.7,111.5,77.4
		z"/>
</g>
<g>
	<path class="st1" d="M104,67c0.2-0.7,0.9-1.2,1.6-1c0.7,0.2,1.2,0.9,1,1.6c-0.2,0.7-1.8,1.9-1.8,1.9S103.8,67.7,104,67z"/>
	<path class="st2" d="M105.1,67.4c0.1-0.3,0.3-0.4,0.6-0.4c0.3,0.1,0.4,0.3,0.4,0.6s-0.7,0.7-0.7,0.7S105.1,67.6,105.1,67.4z"/>
</g>
<g>
	<path class="st1" d="M114.9,62.4c0.2-0.7,0.9-1.2,1.6-1c0.7,0.2,1.2,0.9,1,1.6c-0.2,0.7-1.8,1.9-1.8,1.9S114.7,63.1,114.9,62.4z"/>
	<path class="st2" d="M116.1,62.8c0.1-0.3,0.3-0.4,0.6-0.4c0.3,0.1,0.4,0.3,0.4,0.6c-0.1,0.3-0.7,0.7-0.7,0.7S116,63.1,116.1,62.8z"
		/>
</g>
<g>
	<path class="st1" d="M110.6,49.9c0.2-0.7,0.9-1.2,1.6-1c0.7,0.2,1.2,0.9,1,1.6c-0.2,0.7-1.8,1.9-1.8,1.9S110.5,50.7,110.6,49.9z"/>
	<path class="st2" d="M111.8,50.4c0.1-0.3,0.3-0.4,0.6-0.4c0.3,0.1,0.4,0.3,0.4,0.6c-0.1,0.3-0.7,0.7-0.7,0.7S111.7,50.6,111.8,50.4
		z"/>
</g>
<g>
	<path class="st1" d="M99.1,55.9c0.2-0.7,0.9-1.2,1.6-1c0.7,0.2,1.2,0.9,1,1.6c-0.2,0.7-1.8,1.9-1.8,1.9S98.9,56.6,99.1,55.9z"/>
	<path class="st2" d="M100.2,56.3c0.1-0.3,0.3-0.4,0.6-0.4c0.3,0.1,0.4,0.3,0.4,0.6s-0.7,0.7-0.7,0.7S100.2,56.5,100.2,56.3z"/>
</g>
<g>
	<path class="st1" d="M94.8,96.1c0.2-0.7,0.9-1.2,1.6-1c0.7,0.2,1.2,0.9,1,1.6c-0.2,0.7-1.8,1.9-1.8,1.9S94.6,96.9,94.8,96.1z"/>
	<path class="st2" d="M95.9,96.6c0.1-0.3,0.3-0.4,0.6-0.4c0.3,0.1,0.4,0.3,0.4,0.6c-0.1,0.3-0.7,0.7-0.7,0.7S95.8,96.8,95.9,96.6z"
		/>
</g>
<g>
	<path class="st1" d="M103.4,110.3c0.2-0.7,0.9-1.2,1.6-1c0.7,0.2,1.2,0.9,1,1.6c-0.2,0.7-1.8,1.9-1.8,1.9S103.2,111,103.4,110.3z"
		/>
	<path class="st2" d="M104.6,110.7c0.1-0.3,0.3-0.4,0.6-0.4c0.3,0.1,0.4,0.3,0.4,0.6c-0.1,0.3-0.7,0.7-0.7,0.7
		S104.5,111,104.6,110.7z"/>
</g>
<g>
	<path class="st1" d="M147.1,71.7c0.2-0.7,0.9-1.2,1.6-1c0.7,0.2,1.2,0.9,1,1.6c-0.2,0.7-1.8,1.9-1.8,1.9S146.9,72.4,147.1,71.7z"/>
	<path class="st2" d="M148.3,72.1c0.1-0.3,0.3-0.4,0.6-0.4c0.3,0.1,0.4,0.3,0.4,0.6c-0.1,0.3-0.7,0.7-0.7,0.7S148.2,72.4,148.3,72.1
		z"/>
</g>
<g>
	<path class="st1" d="M147.1,58.9c0.2-0.7,0.9-1.2,1.6-1c0.7,0.2,1.2,0.9,1,1.6c-0.2,0.7-1.8,1.9-1.8,1.9S146.9,59.6,147.1,58.9z"/>
	<path class="st2" d="M148.3,59.3c0.1-0.3,0.3-0.4,0.6-0.4c0.3,0.1,0.4,0.3,0.4,0.6c-0.1,0.3-0.7,0.7-0.7,0.7S148.2,59.5,148.3,59.3
		z"/>
</g>
<g>
	<path class="st1" d="M135.3,54.7c0.2-0.7,0.9-1.2,1.6-1c0.7,0.2,1.2,0.9,1,1.6c-0.2,0.7-1.8,1.9-1.8,1.9S135.2,55.4,135.3,54.7z"/>
	<path class="st2" d="M136.5,55.1c0.1-0.3,0.3-0.4,0.6-0.4c0.3,0.1,0.4,0.3,0.4,0.6c-0.1,0.3-0.7,0.7-0.7,0.7S136.4,55.4,136.5,55.1
		z"/>
</g>
<g>
	<path class="st1" d="M124.7,58.2c0.2-0.7,0.9-1.2,1.6-1c0.7,0.2,1.2,0.9,1,1.6c-0.2,0.7-1.8,1.9-1.8,1.9S124.5,58.9,124.7,58.2z"/>
	<path class="st2" d="M125.9,58.6c0.1-0.3,0.3-0.4,0.6-0.4c0.3,0.1,0.4,0.3,0.4,0.6c-0.1,0.3-0.7,0.7-0.7,0.7S125.8,58.9,125.9,58.6
		z"/>
</g>
<g>
	<path class="st1" d="M121.8,77.9c0.2-0.7,0.9-1.2,1.6-1c0.7,0.2,1.2,0.9,1,1.6c-0.2,0.7-1.8,1.9-1.8,1.9S121.7,78.6,121.8,77.9z"/>
	<path class="st2" d="M123,78.3c0.1-0.3,0.3-0.4,0.6-0.4c0.3,0.1,0.4,0.3,0.4,0.6s-0.7,0.7-0.7,0.7S122.9,78.6,123,78.3z"/>
</g>
<g>
	<path class="st1" d="M136.1,69.2c0.2-0.7,0.9-1.2,1.6-1s1.2,0.9,1,1.6c-0.2,0.7-1.8,1.9-1.8,1.9S135.9,70,136.1,69.2z"/>
	<path class="st2" d="M137.3,69.7c0.1-0.3,0.3-0.4,0.6-0.4c0.3,0.1,0.4,0.3,0.4,0.6s-0.7,0.7-0.7,0.7S137.2,69.9,137.3,69.7z"/>
</g>
<g>
	<path class="st1" d="M132.8,87.2c0.2-0.7,0.9-1.2,1.6-1c0.7,0.2,1.2,0.9,1,1.6c-0.2,0.7-1.8,1.9-1.8,1.9S132.7,87.9,132.8,87.2z"/>
	<path class="st2" d="M134,87.6c0.1-0.3,0.3-0.4,0.6-0.4c0.3,0.1,0.4,0.3,0.4,0.6c-0.1,0.3-0.7,0.7-0.7,0.7S133.9,87.9,134,87.6z"/>
</g>
<g>
	<path class="st1" d="M141,83.1c0.2-0.7,0.9-1.2,1.6-1c0.7,0.2,1.2,0.9,1,1.6c-0.2,0.7-1.8,1.9-1.8,1.9S140.9,83.9,141,83.1z"/>
	<path class="st2" d="M142.2,83.6c0.1-0.3,0.3-0.4,0.6-0.4c0.3,0.1,0.4,0.3,0.4,0.6s-0.7,0.7-0.7,0.7S142.1,83.8,142.2,83.6z"/>
</g>
<g>
	<path class="st1" d="M124.7,65.7c0.2-0.7,0.9-1.2,1.6-1c0.7,0.2,1.2,0.9,1,1.6c-0.2,0.7-1.8,1.9-1.8,1.9S124.5,66.4,124.7,65.7z"/>
	<path class="st2" d="M125.9,66.1c0.1-0.3,0.3-0.4,0.6-0.4c0.3,0.1,0.4,0.3,0.4,0.6c-0.1,0.3-0.7,0.7-0.7,0.7S125.8,66.4,125.9,66.1
		z"/>
</g>
<g>
	<path class="st1" d="M132.1,99.8c0.2-0.7,0.9-1.2,1.6-1s1.2,0.9,1,1.6c-0.2,0.7-1.8,1.9-1.8,1.9S131.9,100.5,132.1,99.8z"/>
	<path class="st2" d="M133.2,100.2c0.1-0.3,0.3-0.4,0.6-0.4c0.3,0.1,0.4,0.3,0.4,0.6s-0.7,0.7-0.7,0.7S133.1,100.5,133.2,100.2z"/>
</g>
<g>
	<path class="st1" d="M114.4,98.5c0.2-0.7,0.9-1.2,1.6-1s1.2,0.9,1,1.6c-0.2,0.7-1.8,1.9-1.8,1.9S114.2,99.2,114.4,98.5z"/>
	<path class="st2" d="M115.6,98.9c0.1-0.3,0.3-0.4,0.6-0.4c0.3,0.1,0.4,0.3,0.4,0.6s-0.7,0.7-0.7,0.7S115.5,99.2,115.6,98.9z"/>
</g>
<g>
	<path class="st1" d="M122.8,105.7c0.2-0.7,0.9-1.2,1.6-1s1.2,0.9,1,1.6c-0.2,0.7-1.8,1.9-1.8,1.9S122.6,106.5,122.8,105.7z"/>
	<path class="st2" d="M124,106.2c0.1-0.3,0.3-0.4,0.6-0.4c0.3,0.1,0.4,0.3,0.4,0.6s-0.7,0.7-0.7,0.7S123.9,106.4,124,106.2z"/>
</g>
<g>
	<path class="st1" d="M106.3,118.8c0.2-0.7,0.9-1.2,1.6-1c0.7,0.2,1.2,0.9,1,1.6c-0.2,0.7-1.8,1.9-1.8,1.9S106.2,119.5,106.3,118.8z
		"/>
	<path class="st2" d="M107.5,119.2c0.1-0.3,0.3-0.4,0.6-0.4c0.3,0.1,0.4,0.3,0.4,0.6c-0.1,0.3-0.7,0.7-0.7,0.7
		S107.4,119.5,107.5,119.2z"/>
</g>
<g>
	<path class="st1" d="M96.1,106.3c0.2-0.7,0.9-1.2,1.6-1c0.7,0.2,1.2,0.9,1,1.6c-0.2,0.7-1.8,1.9-1.8,1.9S95.9,107.1,96.1,106.3z"/>
	<path class="st2" d="M97.3,106.8c0.1-0.3,0.3-0.4,0.6-0.4c0.3,0.1,0.4,0.3,0.4,0.6c-0.1,0.3-0.7,0.7-0.7,0.7S97.2,107,97.3,106.8z"
		/>
</g>
<g>
	<path class="st1" d="M155,64.2c0.2-0.7,0.9-1.2,1.6-1c0.7,0.2,1.2,0.9,1,1.6c-0.2,0.7-1.8,1.9-1.8,1.9S154.8,64.9,155,64.2z"/>
	<path class="st2" d="M156.2,64.6c0.1-0.3,0.3-0.4,0.6-0.4c0.3,0.1,0.4,0.3,0.4,0.6c-0.1,0.3-0.7,0.7-0.7,0.7S156.1,64.9,156.2,64.6
		z"/>
</g>
<g>
	<path class="st1" d="M134.8,78.5c0.2-0.7,0.9-1.2,1.6-1s1.2,0.9,1,1.6c-0.2,0.7-1.8,1.9-1.8,1.9S134.6,79.2,134.8,78.5z"/>
	<path class="st2" d="M135.9,78.9c0.1-0.3,0.3-0.4,0.6-0.4c0.3,0.1,0.4,0.3,0.4,0.6s-0.7,0.7-0.7,0.7S135.9,79.2,135.9,78.9z"/>
</g>
<g>
	<path class="st1" d="M114.9,71.7c0.2-0.7,0.9-1.2,1.6-1c0.7,0.2,1.2,0.9,1,1.6c-0.2,0.7-1.8,1.9-1.8,1.9S114.7,72.4,114.9,71.7z"/>
	<path class="st2" d="M116.1,72.1c0.1-0.3,0.3-0.4,0.6-0.4c0.3,0.1,0.4,0.3,0.4,0.6c-0.1,0.3-0.7,0.7-0.7,0.7S116,72.4,116.1,72.1z"
		/>
</g>
<g>
	<path class="st1" d="M95.1,70.1c0.2-0.7,0.9-1.2,1.6-1c0.7,0.2,1.2,0.9,1,1.6c-0.2,0.7-1.8,1.9-1.8,1.9S94.9,70.9,95.1,70.1z"/>
	<path class="st2" d="M96.2,70.6c0.1-0.3,0.3-0.4,0.6-0.4c0.3,0.1,0.4,0.3,0.4,0.6s-0.7,0.7-0.7,0.7S96.2,70.8,96.2,70.6z"/>
</g>
<g>
	<path class="st1" d="M105.3,100.2c0.2-0.7,0.9-1.2,1.6-1c0.7,0.2,1.2,0.9,1,1.6c-0.2,0.7-1.8,1.9-1.8,1.9S105.1,101,105.3,100.2z"
		/>
	<path class="st2" d="M106.5,100.7c0.1-0.3,0.3-0.4,0.6-0.4c0.3,0.1,0.4,0.3,0.4,0.6s-0.7,0.7-0.7,0.7S106.4,100.9,106.5,100.7z"/>
</g>
<g>
	<path class="st1" d="M113.1,117.8c0.2-0.7,0.9-1.2,1.6-1c0.7,0.2,1.2,0.9,1,1.6c-0.2,0.7-1.8,1.9-1.8,1.9S112.9,118.5,113.1,117.8z
		"/>
	<path class="st2" d="M114.2,118.2c0.1-0.3,0.3-0.4,0.6-0.4c0.3,0.1,0.4,0.3,0.4,0.6s-0.7,0.7-0.7,0.7S114.2,118.5,114.2,118.2z"/>
</g>
<g>
	<path class="st1" d="M152.3,78c0.2-0.7,0.9-1.2,1.6-1c0.7,0.2,1.2,0.9,1,1.6c-0.2,0.7-1.8,1.9-1.8,1.9S152.2,78.7,152.3,78z"/>
	<path class="st2" d="M153.5,78.4c0.1-0.3,0.3-0.4,0.6-0.4c0.3,0.1,0.4,0.3,0.4,0.6c-0.1,0.3-0.7,0.7-0.7,0.7S153.4,78.7,153.5,78.4
		z"/>
</g>
<path class="st3" d="M92.2,100.3c10.6,26.6,21.8,23.6,34.7,13.2s13.8-12.2,27.5-27.1c13.7-14.9,9.3-24.3-9.1-50.3
	c3.6,1.7,6.8,4,10,6.4c2.4,1.8,5.7,4.5,7.5,6.9c2,2.6,4.5,9.1,4.7,12.4c0.7,11.9-1,13.8-5,22c-3.9,8.1-10.2,15-17.5,20.3
	c-4.8,3.5-6.2,4.2-12,8.5c-3.7,2.8-9.3,6.9-13.5,9c-5.6,2.7-9.9,3.6-13.6,3.4c-4.5-0.3-8.2-2.4-9.9-6.8
	C93.6,111.7,92.7,107,92.2,100.3z"/>
<ellipse transform="matrix(0.2936 -0.9559 0.9559 0.2936 58.2942 167.3314)" class="st4" cx="142.4" cy="44.2" rx="6.5" ry="17"/>
<g>
	<defs>
		<path id="SVGID_1_" d="M163.3,28.2c-0.1,0.1,0.2,0.1,0.2,0c0-0.1-0.1-0.2-0.2-0.2c-2.8-1-6-0.9-9.1,0c-4.3,1.2-8.3,2.9-11.2,6.3
			c-0.1,0.4-0.1,0.8-0.2,1.3c0.9-6.3,5.8-12.4,11.9-15.1c-0.6-0.8-1.1-1.9-1.7-2.7c-7.3,3.3-12.6,10.9-13,18.5
			c0.4-2.9-0.9-5-2.5-7.3c-2.5-3.6-7-5.4-11.2-7c0.7,2.3,0.8,5.3,1.6,7.6c1.2,3.4,4.2,5.8,7,8c-2.7-1.7-6.2-2.5-9.6-2.4
			c-3.8,0-10.4,2.9-10.1,2.8c0.9,0.3,0.9,1.9,3.3,3c4.8,2.3,7.2,1.3,10.9,1c-0.8-0.1-1.2,0.7-1.9,1.1c-1.1,0.8-2.3,1.6-3.4,2.4
			c-1.5,1.1-3.1,2.3-4.2,3.8c-1.1,1.5-1.8,3.4-1.5,5.1c2.2,0.7,4.6-0.4,6.9-1.2c3-1,5.9-2.2,8.5-3.9c2.6-1.8,4.9-4.2,6-7
			c0.7,0.9,0.9,1.9,1.9,2.6c2,1.3,4.1,2.6,6.6,2.9c1.5,0.2,3,0,4.5-0.2c1.8-0.2,3.7-0.5,5.5-0.7c0.3,0,0.6-0.1,0.7-0.3
			c-0.1,0.4,0.2,0.2,0.5,0c-0.5-0.8-1.1-1.4-1.7-2.1c-0.8-0.8-1.5-1.6-2.3-2.3c-0.7-0.8-1.5-1.5-2.3-2.2c-2.1-1.6-4.9-2.2-7.5-2.8
			c2.5-0.1,4.5-0.1,6.9-0.9c1.4-0.5,2.8-1.2,4.1-2C159.5,32.6,161.8,30.6,163.3,28.2z"/>
	</defs>
	<use xlink:href="#SVGID_1_"  style="overflow:visible;fill:#3C7F0E;"/>
	<clipPath id="SVGID_2_">
		<use xlink:href="#SVGID_1_"  style="overflow:visible;"/>
	</clipPath>
	<g class="st5">
		<g>
			<path class="st6" d="M148.1,26.7c1.2-1.2,2.6-2.3,4.1-3.2c1.3-0.8,2.7-1.2,3.6-2.3c0.4-0.4,0.1-1.1-0.5-1.1c-3.7,0-8,4-10.1,6.8
				c-1.6,2-4.5,5.8-2.4,8.2C143,35.2,145.6,29.2,148.1,26.7z"/>
		</g>
	</g>
	<g class="st5">
		<g>
			<path class="st7" d="M140.2,34.9c0.7-1.3,0.7-2.3,1.1-3.8c0.7-2.1,1.7-4,3.1-5.8c2.6-3.4,6-5.5,10-6.8c1.3-0.4,0.8-2.5-0.6-2.1
				c-4,1.3-7.8,3.8-10.4,7.2c-2.2,2.8-2.9,4.5-3.3,9c0,0.3-0.2,2.9,0,2.7L140.2,34.9z"/>
		</g>
	</g>
	<g class="st5">
		<g>
			<path class="st6" d="M143.6,37.2c4,1.1,8.1,0.2,11.8-1.4c3.2-1.4,8.1-4.2,9.2-7.7c0.2-0.7-0.6-1.3-1.3-1
				c-1.5,0.8-2.5,2.4-3.8,3.4c-1.5,1.2-3.2,2.3-4.9,3.1c-3.5,1.6-6.8,2.6-10.5,3.3C143.7,37,143.2,37.1,143.6,37.2L143.6,37.2z"/>
		</g>
	</g>
	<g class="st5">
		<g>
			<path class="st7" d="M143.4,35.1c2.5-2.7,6.3-4.8,9.8-5.8c1.8-0.5,3.7-0.8,5.6-0.9c1.6-0.1,3.4,0.4,4.9-0.1
				c0.5-0.2,0.8-0.9,0.3-1.3c-3-2.4-9.3-0.7-12.6,0.6c-3.3,1.2-8,3.4-8.5,7.3C142.9,35.1,143.2,35.2,143.4,35.1L143.4,35.1z"/>
		</g>
	</g>
	<g class="st5">
		<g>
			<path class="st6" d="M124.8,22.2c2.5,2.1,5.9,3.1,8.6,5c1.6,1.1,3.1,2.6,4.2,4.2c0.7,1.1,1.4,3.2,2.5,3.8c0.3,0.1,0-1,0-1.3
				c0.1-4-1.8-6.2-3.9-7.9c-3-2.4-7.2-4.5-11.1-4.6C124.8,21.5,124.5,22,124.8,22.2L124.8,22.2z"/>
		</g>
	</g>
	<g class="st5">
		<g>
			<path class="st6" d="M136.4,37.6c-2.8-2.7-7.5-3.1-11.2-3.1c-3.5,0-8.1,0.1-11,2.5c-1,0.9,0.1,2.7,1.3,2.3
				c3.3-1.2,6.5-1.7,10.1-1.7c3.5,0.1,7,1.1,10.5,0.7C136.4,38.3,136.7,37.9,136.4,37.6L136.4,37.6z"/>
		</g>
	</g>
	<g class="st5">
		<g>
			<path class="st7" d="M125.9,21.7c-0.8,2.9,1,7,2.1,9.6c0.9,2.2,3.7,3.4,5.5,5.1c0.9,0.8,3.1,2.4,3,1.7c-0.3-1.4-2.9-3.8-3.8-4.8
				c-1.2-1.3-2.2-2.6-2.9-4.3C128.9,26.6,128.2,23.3,125.9,21.7C126,21.6,126,21.6,125.9,21.7L125.9,21.7z"/>
		</g>
	</g>
	<g class="st5">
		<g>
			<path class="st7" d="M115.4,37.5c-0.4,2.6,3,3.8,4.9,4.7c2.8,1.3,6.7,2.1,9.3-0.1c0.3-0.3,0.1-0.8-0.2-0.9
				c-2.2-0.9-4.7-0.2-7-0.9c-2.1-0.7-4.8-1.4-6.5-2.8C115.8,37.3,115.5,37.3,115.4,37.5L115.4,37.5z"/>
		</g>
	</g>
</g>
<path class="st0" d="M98.5,146c-8.4-2.8-23-8.1-30.2-13.3c-8.2-6-14.9-10.4-19-19.7c-5.9-13.2,0.2-31.5,11.1-41.1
	c3-2.6,6.4-4.7,9.8-6.7c2.6-1.5,6.4-3.5,9.3-4.2c3.2-0.8,10.1-0.5,13.2,0.6C104,65.7,105,68,110.9,74.8c5.9,6.8,9.7,15.3,11.8,24
	c1.4,5.9,1.4,7.3,3.1,14.4c1.1,4.5,2.7,11.3,2.9,15.9c0.3,6.2-0.6,10.5-2.3,13.9c-2,4-5.4,6.6-10.2,6.4
	C109.5,149.2,104.9,148.1,98.5,146z"/>
<g>
	<path class="st1" d="M114.4,129c-0.6-0.4-0.7-1.3-0.3-1.9s1.3-0.7,1.9-0.3c0.6,0.4,1,2.4,1,2.4S115,129.4,114.4,129z"/>
	<path class="st2" d="M115.3,128.1c-0.2-0.2-0.3-0.5-0.1-0.7c0.2-0.2,0.5-0.3,0.7-0.1s0.4,0.9,0.4,0.9S115.5,128.2,115.3,128.1z"/>
</g>
<g>
	<path class="st1" d="M93.3,130.6c-0.6-0.4-0.7-1.3-0.3-1.9c0.4-0.6,1.3-0.7,1.9-0.3c0.6,0.4,1,2.4,1,2.4S93.9,131.1,93.3,130.6z"/>
	<path class="st2" d="M94.1,129.7c-0.2-0.2-0.3-0.5-0.1-0.7c0.2-0.2,0.5-0.3,0.7-0.1s0.4,0.9,0.4,0.9S94.3,129.9,94.1,129.7z"/>
</g>
<g>
	<path class="st1" d="M104.2,116c-0.6-0.4-0.7-1.3-0.3-1.9s1.3-0.7,1.9-0.3c0.6,0.4,1,2.4,1,2.4S104.8,116.4,104.2,116z"/>
	<path class="st2" d="M105,115.1c-0.2-0.2-0.3-0.5-0.1-0.7c0.2-0.2,0.5-0.3,0.7-0.1s0.4,0.9,0.4,0.9S105.2,115.2,105,115.1z"/>
</g>
<g>
	<path class="st1" d="M82.5,133.4c-0.6-0.4-0.7-1.3-0.3-1.9c0.4-0.6,1.3-0.7,1.9-0.3c0.6,0.4,1,2.4,1,2.4S83.1,133.9,82.5,133.4z"/>
	<path class="st2" d="M83.3,132.5c-0.2-0.2-0.3-0.5-0.1-0.7c0.2-0.2,0.5-0.3,0.7-0.1s0.4,0.9,0.4,0.9S83.6,132.7,83.3,132.5z"/>
</g>
<g>
	<path class="st1" d="M97.2,122c-0.6-0.4-0.7-1.3-0.3-1.9c0.4-0.6,1.3-0.7,1.9-0.3c0.6,0.4,1,2.4,1,2.4S97.8,122.5,97.2,122z"/>
	<path class="st2" d="M98,121.1c-0.2-0.2-0.3-0.5-0.1-0.7c0.2-0.2,0.5-0.3,0.7-0.1s0.4,0.9,0.4,0.9S98.3,121.3,98,121.1z"/>
</g>
<g>
	<path class="st1" d="M84.2,120.1c-0.6-0.4-0.7-1.3-0.3-1.9s1.3-0.7,1.9-0.3c0.6,0.4,1,2.4,1,2.4S84.8,120.6,84.2,120.1z"/>
	<path class="st2" d="M85,119.2c-0.2-0.2-0.3-0.5-0.1-0.7c0.2-0.2,0.5-0.3,0.7-0.1s0.4,0.9,0.4,0.9S85.3,119.4,85,119.2z"/>
</g>
<g>
	<path class="st1" d="M72.5,122c-0.6-0.4-0.7-1.3-0.3-1.9c0.4-0.6,1.3-0.7,1.9-0.3c0.6,0.4,1,2.4,1,2.4S73.1,122.5,72.5,122z"/>
	<path class="st2" d="M73.3,121.1c-0.2-0.2-0.3-0.5-0.1-0.7c0.2-0.2,0.5-0.3,0.7-0.1s0.4,0.9,0.4,0.9S73.6,121.3,73.3,121.1z"/>
</g>
<g>
	<path class="st1" d="M72.6,110.2c-0.6-0.4-0.7-1.3-0.3-1.9s1.3-0.7,1.9-0.3c0.6,0.4,1,2.4,1,2.4S73.2,110.6,72.6,110.2z"/>
	<path class="st2" d="M73.4,109.3c-0.2-0.2-0.3-0.5-0.1-0.7c0.2-0.2,0.5-0.3,0.7-0.1s0.4,0.9,0.4,0.9S73.7,109.4,73.4,109.3z"/>
</g>
<g>
	<path class="st1" d="M59.5,109.2c-0.6-0.4-0.7-1.3-0.3-1.9c0.4-0.6,1.3-0.7,1.9-0.3c0.6,0.4,1,2.4,1,2.4S60.1,109.6,59.5,109.2z"/>
	<path class="st2" d="M60.3,108.3c-0.2-0.2-0.3-0.5-0.1-0.7c0.2-0.2,0.5-0.3,0.7-0.1c0.2,0.2,0.4,0.9,0.4,0.9S60.5,108.5,60.3,108.3
		z"/>
</g>
<g>
	<path class="st1" d="M60.4,122.1c-0.6-0.4-0.7-1.3-0.3-1.9c0.4-0.6,1.3-0.7,1.9-0.3c0.6,0.4,1,2.4,1,2.4S61,122.6,60.4,122.1z"/>
	<path class="st2" d="M61.2,121.2c-0.2-0.2-0.3-0.5-0.1-0.7c0.2-0.2,0.5-0.3,0.7-0.1s0.4,0.9,0.4,0.9S61.4,121.4,61.2,121.2z"/>
</g>
<g>
	<path class="st1" d="M95.7,142c-0.6-0.4-0.7-1.3-0.3-1.9c0.4-0.6,1.3-0.7,1.9-0.3c0.6,0.4,1,2.4,1,2.4S96.3,142.4,95.7,142z"/>
	<path class="st2" d="M96.5,141.1c-0.2-0.2-0.3-0.5-0.1-0.7c0.2-0.2,0.5-0.3,0.7-0.1c0.2,0.2,0.4,0.9,0.4,0.9S96.7,141.3,96.5,141.1
		z"/>
</g>
<g>
	<path class="st1" d="M112.1,139.6c-0.6-0.4-0.7-1.3-0.3-1.9c0.4-0.6,1.3-0.7,1.9-0.3c0.6,0.4,1,2.4,1,2.4S112.7,140,112.1,139.6z"
		/>
	<path class="st2" d="M112.9,138.7c-0.2-0.2-0.3-0.5-0.1-0.7c0.2-0.2,0.5-0.3,0.7-0.1c0.2,0.2,0.4,0.9,0.4,0.9
		S113.2,138.9,112.9,138.7z"/>
</g>
<g>
	<path class="st1" d="M93.9,84.2c-0.6-0.4-0.7-1.3-0.3-1.9c0.4-0.6,1.3-0.7,1.9-0.3c0.6,0.4,1,2.4,1,2.4S94.5,84.7,93.9,84.2z"/>
	<path class="st2" d="M94.7,83.4c-0.2-0.2-0.3-0.5-0.1-0.7c0.2-0.2,0.5-0.3,0.7-0.1c0.2,0.2,0.4,0.9,0.4,0.9S94.9,83.5,94.7,83.4z"
		/>
</g>
<g>
	<path class="st1" d="M82,79.2c-0.6-0.4-0.7-1.3-0.3-1.9s1.3-0.7,1.9-0.3c0.6,0.4,1,2.4,1,2.4S82.6,79.6,82,79.2z"/>
	<path class="st2" d="M82.9,78.3c-0.2-0.2-0.3-0.5-0.1-0.7c0.2-0.2,0.5-0.3,0.7-0.1s0.4,0.9,0.4,0.9S83.1,78.5,82.9,78.3z"/>
</g>
<g>
	<path class="st1" d="M73.6,88.4c-0.6-0.4-0.7-1.3-0.3-1.9c0.4-0.6,1.3-0.7,1.9-0.3c0.6,0.4,1,2.4,1,2.4S74.2,88.8,73.6,88.4z"/>
	<path class="st2" d="M74.4,87.5c-0.2-0.2-0.3-0.5-0.1-0.7c0.2-0.2,0.5-0.3,0.7-0.1s0.4,0.9,0.4,0.9S74.6,87.6,74.4,87.5z"/>
</g>
<g>
	<path class="st1" d="M72.6,99.5c-0.6-0.4-0.7-1.3-0.3-1.9c0.4-0.6,1.3-0.7,1.9-0.3c0.6,0.4,1,2.4,1,2.4S73.2,99.9,72.6,99.5z"/>
	<path class="st2" d="M73.4,98.6c-0.2-0.2-0.3-0.5-0.1-0.7c0.2-0.2,0.5-0.3,0.7-0.1c0.2,0.2,0.4,0.9,0.4,0.9S73.7,98.8,73.4,98.6z"
		/>
</g>
<g>
	<path class="st1" d="M89.6,109.9c-0.6-0.4-0.7-1.3-0.3-1.9c0.4-0.6,1.3-0.7,1.9-0.3c0.6,0.4,1,2.4,1,2.4S90.2,110.3,89.6,109.9z"/>
	<path class="st2" d="M90.4,109c-0.2-0.2-0.3-0.5-0.1-0.7c0.2-0.2,0.5-0.3,0.7-0.1s0.4,0.9,0.4,0.9S90.6,109.2,90.4,109z"/>
</g>
<g>
	<path class="st1" d="M87.3,93.4c-0.6-0.4-0.7-1.3-0.3-1.9c0.4-0.6,1.3-0.7,1.9-0.3c0.6,0.4,1,2.4,1,2.4S87.9,93.8,87.3,93.4z"/>
	<path class="st2" d="M88.1,92.5c-0.2-0.2-0.3-0.5-0.1-0.7c0.2-0.2,0.5-0.3,0.7-0.1s0.4,0.9,0.4,0.9S88.3,92.6,88.1,92.5z"/>
</g>
<g>
	<path class="st1" d="M102.5,103.5c-0.6-0.4-0.7-1.3-0.3-1.9c0.4-0.6,1.3-0.7,1.9-0.3c0.6,0.4,1,2.4,1,2.4S103.1,103.9,102.5,103.5z
		"/>
	<path class="st2" d="M103.3,102.6c-0.2-0.2-0.3-0.5-0.1-0.7c0.2-0.2,0.5-0.3,0.7-0.1c0.2,0.2,0.4,0.9,0.4,0.9
		S103.5,102.7,103.3,102.6z"/>
</g>
<g>
	<path class="st1" d="M102,94.3c-0.6-0.4-0.7-1.3-0.3-1.9c0.4-0.6,1.3-0.7,1.9-0.3c0.6,0.4,1,2.4,1,2.4S102.6,94.8,102,94.3z"/>
	<path class="st2" d="M102.8,93.4c-0.2-0.2-0.3-0.5-0.1-0.7c0.2-0.2,0.5-0.3,0.7-0.1s0.4,0.9,0.4,0.9S103,93.6,102.8,93.4z"/>
</g>
<g>
	<path class="st1" d="M79.5,102.5c-0.6-0.4-0.7-1.3-0.3-1.9c0.4-0.6,1.3-0.7,1.9-0.3c0.6,0.4,1,2.4,1,2.4S80.1,102.9,79.5,102.5z"/>
	<path class="st2" d="M80.4,101.6c-0.2-0.2-0.3-0.5-0.1-0.7c0.2-0.2,0.5-0.3,0.7-0.1s0.4,0.9,0.4,0.9S80.6,101.7,80.4,101.6z"/>
</g>
<g>
	<path class="st1" d="M113.7,109.2c-0.6-0.4-0.7-1.3-0.3-1.9c0.4-0.6,1.3-0.7,1.9-0.3c0.6,0.4,1,2.4,1,2.4S114.3,109.6,113.7,109.2z
		"/>
	<path class="st2" d="M114.6,108.3c-0.2-0.2-0.3-0.5-0.1-0.7c0.2-0.2,0.5-0.3,0.7-0.1s0.4,0.9,0.4,0.9S114.8,108.4,114.6,108.3z"/>
</g>
<g>
	<path class="st1" d="M105.6,124.8c-0.6-0.4-0.7-1.3-0.3-1.9c0.4-0.6,1.3-0.7,1.9-0.3c0.6,0.4,1,2.4,1,2.4S106.2,125.3,105.6,124.8z
		"/>
	<path class="st2" d="M106.4,123.9c-0.2-0.2-0.3-0.5-0.1-0.7c0.2-0.2,0.5-0.3,0.7-0.1s0.4,0.9,0.4,0.9S106.6,124.1,106.4,123.9z"/>
</g>
<g>
	<path class="st1" d="M115.6,120c-0.6-0.4-0.7-1.3-0.3-1.9s1.3-0.7,1.9-0.3c0.6,0.4,1,2.4,1,2.4S116.2,120.4,115.6,120z"/>
	<path class="st2" d="M116.4,119.1c-0.2-0.2-0.3-0.5-0.1-0.7c0.2-0.2,0.5-0.3,0.7-0.1s0.4,0.9,0.4,0.9S116.6,119.3,116.4,119.1z"/>
</g>
<g>
	<path class="st1" d="M121.1,140.3c-0.6-0.4-0.7-1.3-0.3-1.9c0.4-0.6,1.3-0.7,1.9-0.3c0.6,0.4,1,2.4,1,2.4S121.7,140.7,121.1,140.3z
		"/>
	<path class="st2" d="M121.9,139.4c-0.2-0.2-0.3-0.5-0.1-0.7c0.2-0.2,0.5-0.3,0.7-0.1c0.2,0.2,0.4,0.9,0.4,0.9
		S122.1,139.6,121.9,139.4z"/>
</g>
<g>
	<path class="st1" d="M105.6,144.8c-0.6-0.4-0.7-1.3-0.3-1.9c0.4-0.6,1.3-0.7,1.9-0.3c0.6,0.4,1,2.4,1,2.4S106.2,145.2,105.6,144.8z
		"/>
	<path class="st2" d="M106.4,143.9c-0.2-0.2-0.3-0.5-0.1-0.7c0.2-0.2,0.5-0.3,0.7-0.1s0.4,0.9,0.4,0.9S106.7,144,106.4,143.9z"/>
</g>
<g>
	<path class="st1" d="M90.1,74c-0.6-0.4-0.7-1.3-0.3-1.9c0.4-0.6,1.3-0.7,1.9-0.3c0.6,0.4,1,2.4,1,2.4S90.7,74.5,90.1,74z"/>
	<path class="st2" d="M90.9,73.1c-0.2-0.2-0.3-0.5-0.1-0.7c0.2-0.2,0.5-0.3,0.7-0.1s0.4,0.9,0.4,0.9S91.1,73.3,90.9,73.1z"/>
</g>
<g>
	<path class="st1" d="M95.2,98.2c-0.6-0.4-0.7-1.3-0.3-1.9c0.4-0.6,1.3-0.7,1.9-0.3c0.6,0.4,1,2.4,1,2.4S95.8,98.7,95.2,98.2z"/>
	<path class="st2" d="M96.1,97.4c-0.2-0.2-0.3-0.5-0.1-0.7c0.2-0.2,0.5-0.3,0.7-0.1s0.4,0.9,0.4,0.9S96.3,97.5,96.1,97.4z"/>
</g>
<g>
	<path class="st1" d="M81.1,113.8c-0.6-0.4-0.7-1.3-0.3-1.9s1.3-0.7,1.9-0.3c0.6,0.4,1,2.4,1,2.4S81.7,114.3,81.1,113.8z"/>
	<path class="st2" d="M82,112.9c-0.2-0.2-0.3-0.5-0.1-0.7c0.2-0.2,0.5-0.3,0.7-0.1s0.4,0.9,0.4,0.9S82.2,113.1,82,112.9z"/>
</g>
<g>
	<path class="st1" d="M71.9,131.5c-0.6-0.4-0.7-1.3-0.3-1.9c0.4-0.6,1.3-0.7,1.9-0.3c0.6,0.4,1,2.4,1,2.4S72.5,131.9,71.9,131.5z"/>
	<path class="st2" d="M72.8,130.6c-0.2-0.2-0.3-0.5-0.1-0.7c0.2-0.2,0.5-0.3,0.7-0.1s0.4,0.9,0.4,0.9S73,130.7,72.8,130.6z"/>
</g>
<g>
	<path class="st1" d="M103.6,133.9c-0.6-0.4-0.7-1.3-0.3-1.9c0.4-0.6,1.3-0.7,1.9-0.3c0.6,0.4,1,2.4,1,2.4S104.2,134.4,103.6,133.9z
		"/>
	<path class="st2" d="M104.4,133c-0.2-0.2-0.3-0.5-0.1-0.7c0.2-0.2,0.5-0.3,0.7-0.1s0.4,0.9,0.4,0.9S104.7,133.2,104.4,133z"/>
</g>
<g>
	<path class="st1" d="M122.8,133.7c-0.6-0.4-0.7-1.3-0.3-1.9c0.4-0.6,1.3-0.7,1.9-0.3c0.6,0.4,1,2.4,1,2.4S123.4,134.1,122.8,133.7z
		"/>
	<path class="st2" d="M123.6,132.8c-0.2-0.2-0.3-0.5-0.1-0.7c0.2-0.2,0.5-0.3,0.7-0.1s0.4,0.9,0.4,0.9S123.8,132.9,123.6,132.8z"/>
</g>
<g>
	<path class="st1" d="M101.7,81.9c-0.6-0.4-0.7-1.3-0.3-1.9c0.4-0.6,1.3-0.7,1.9-0.3c0.6,0.4,1,2.4,1,2.4S102.3,82.4,101.7,81.9z"/>
	<path class="st2" d="M102.5,81c-0.2-0.2-0.3-0.5-0.1-0.7c0.2-0.2,0.5-0.3,0.7-0.1s0.4,0.9,0.4,0.9S102.8,81.2,102.5,81z"/>
</g>
<path class="st3" d="M98.5,146c28.6,0.7,30.3-10.7,25.8-26.7c-4.5-16-5.8-17.5-14.1-36S91.6,65.2,60.4,71.9c3-2.6,6.4-4.7,9.8-6.7
	c2.6-1.5,6.4-3.5,9.3-4.2c3.2-0.8,10.1-0.5,13.2,0.6C104,65.7,105,68,110.9,74.8c5.9,6.8,9.7,15.3,11.8,24c1.4,5.9,1.4,7.3,3.1,14.4
	c1.1,4.5,2.7,11.3,2.9,15.9c0.3,6.2-0.6,10.5-2.3,13.9c-2,4-5.4,6.6-10.2,6.4C109.5,149.2,104.9,148.1,98.5,146z"/>
<ellipse transform="matrix(0.6465 -0.7629 0.7629 0.6465 -35.7481 78.3944)" class="st4" cx="66.7" cy="77.8" rx="17" ry="6.5"/>
<g>
	<defs>
		<path id="SVGID_3_" d="M60.2,52.2c0.1,0.1,0.2-0.1,0.1-0.2c-0.1,0-0.2,0-0.3,0.1c-2.1,2.2-3.2,5.2-3.6,8.3
			c-0.6,4.4-0.6,8.7,1.3,12.8c0.4,0.2,0.7,0.5,1.1,0.7c-5.5-3.3-9.1-10.2-9.2-16.9c-1,0.2-2.1,0.3-3.1,0.5c0.2,8,5,15.9,11.9,19.2
			c-2.5-1.5-4.9-1.2-7.7-0.6c-4.3,0.9-7.7,4.3-10.8,7.5c2.4,0.2,5.2,1.3,7.6,1.5c3.6,0.2,6.9-1.6,10.1-3.3c-2.7,1.8-4.7,4.7-6,7.8
			c-1.5,3.5-1.4,10.7-1.4,10.3c0.6-0.7,2.1-0.1,4-1.8c4.1-3.5,4-6.1,5.3-9.7c-0.3,0.7,0.1,1.4,0.3,2.2c0.3,1.3,0.6,2.7,0.9,4
			c0.4,1.8,0.9,3.7,1.9,5.3c0.9,1.6,2.4,3,4.1,3.4c1.5-1.7,1.4-4.4,1.6-6.8c0.3-3.1,0.4-6.3-0.2-9.4c-0.6-3.1-1.9-6.1-4-8.3
			c1.1-0.2,2.1-0.1,3.1-0.7c2-1.4,4-2.8,5.2-4.9c0.7-1.3,1.2-2.7,1.6-4.2c0.5-1.8,1-3.5,1.5-5.3c0.1-0.3,0.1-0.6,0-0.8
			c0.3,0.3,0.3-0.1,0.2-0.5c-0.9,0.1-1.7,0.5-2.6,0.8c-1,0.4-2,0.8-3,1.1c-1,0.4-2,0.7-2.9,1.3c-2.3,1.3-3.9,3.6-5.5,5.8
			c0.9-2.3,1.7-4.2,1.9-6.7c0.1-1.5,0-3.1-0.2-4.6C62.8,57.4,61.9,54.6,60.2,52.2z"/>
	</defs>
	<use xlink:href="#SVGID_3_"  style="overflow:visible;fill:#3C7F0E;"/>
	<clipPath id="SVGID_4_">
		<use xlink:href="#SVGID_3_"  style="overflow:visible;"/>
	</clipPath>
	<g class="st8">
		<g>
			<path class="st6" d="M52.9,65.6c-0.6-1.6-1.1-3.3-1.3-5c-0.2-1.5,0-2.9-0.7-4.3c-0.2-0.5-1-0.6-1.2,0c-1.4,3.4,0.6,8.9,2.2,12
				c1.2,2.2,3.6,6.4,6.6,5.5C58.7,73.7,54.2,68.8,52.9,65.6z"/>
		</g>
	</g>
	<g class="st8">
		<g>
			<path class="st7" d="M57.3,76c-0.9-1.2-1.9-1.5-3-2.5c-1.6-1.5-3-3.2-4.1-5.1c-2.1-3.7-2.7-7.7-2.4-11.9c0.1-1.4-2-1.7-2.1-0.3
				c-0.4,4.2,0.4,8.7,2.5,12.4c1.7,3.1,2.9,4.5,7,6.6c0.3,0.1,2.6,1.3,2.4,1.1L57.3,76z"/>
		</g>
	</g>
	<g class="st8">
		<g>
			<path class="st6" d="M60.7,73.9c2.6-3.2,3.4-7.3,3.3-11.4C64,59,63.4,53.4,60.6,51c-0.6-0.5-1.5,0.1-1.4,0.8
				c0.2,1.7,1.2,3.2,1.7,4.8c0.6,1.9,0.8,3.8,0.9,5.8c0.1,3.8-0.2,7.3-1.1,11C60.6,73.7,60.5,74.2,60.7,73.9L60.7,73.9z"/>
		</g>
	</g>
	<g class="st8">
		<g>
			<path class="st7" d="M58.7,73.2c-1.6-3.4-1.9-7.6-1.5-11.3c0.2-1.9,0.7-3.7,1.4-5.5c0.6-1.5,1.7-2.9,1.8-4.6c0-0.5-0.5-1.1-1-0.8
				c-3.4,1.9-4.3,8.3-4.5,11.8c-0.2,3.5,0,8.7,3.4,10.7C58.5,73.7,58.8,73.4,58.7,73.2L58.7,73.2z"/>
		</g>
	</g>
	<g class="st8">
		<g>
			<path class="st6" d="M39.6,85.2c3-1.5,5.2-4.2,8-5.9c1.7-1,3.6-1.8,5.5-2.2c1.3-0.2,3.4,0,4.5-0.8c0.2-0.2-0.9-0.4-1.2-0.5
				c-3.7-1.6-6.4-0.8-8.8,0.5c-3.3,1.8-7,4.9-8.6,8.4C38.9,85,39.3,85.4,39.6,85.2L39.6,85.2z"/>
		</g>
	</g>
	<g class="st8">
		<g>
			<path class="st6" d="M58.3,80.7c-3.6,1.5-5.8,5.7-7.3,9.1c-1.4,3.2-3.1,7.5-2,11c0.4,1.3,2.5,1,2.6-0.3c0.3-3.5,1-6.7,2.4-9.9
				c1.4-3.2,3.8-6,4.8-9.3C59,80.9,58.7,80.5,58.3,80.7L58.3,80.7z"/>
		</g>
	</g>
	<g class="st8">
		<g>
			<path class="st7" d="M39.5,84c2.3,1.9,6.8,1.9,9.7,1.8c2.4,0,4.6-2.1,6.8-3.1c1.1-0.5,3.5-1.9,2.8-2.1c-1.4-0.3-4.6,1.1-5.9,1.6
				c-1.7,0.6-3.2,1-5,1C45.2,83.2,41.9,82.5,39.5,84C39.5,83.9,39.5,84,39.5,84L39.5,84z"/>
		</g>
	</g>
	<g class="st8">
		<g>
			<path class="st7" d="M49.9,99.9c2.2,1.4,4.7-1.2,6.2-2.6c2.3-2.1,4.6-5.4,3.5-8.6c-0.1-0.4-0.7-0.4-0.9-0.1c-1.7,1.7-2,4.2-3.6,6
				c-1.4,1.6-3.2,3.8-5.2,4.8C49.8,99.5,49.7,99.8,49.9,99.9L49.9,99.9z"/>
		</g>
	</g>
</g>
</svg>
