<?xml version="1.0" encoding="utf-8"?>
<!-- Generator: Adobe Illustrator 25.2.1, SVG Export Plug-In . SVG Version: 6.00 Build 0)  -->
<svg version="1.1" id="Layer_2" xmlns="http://www.w3.org/2000/svg" xmlns:xlink="http://www.w3.org/1999/xlink" x="0px" y="0px"
	 viewBox="0 0 200 200" style="enable-background:new 0 0 200 200;" xml:space="preserve">
<style type="text/css">
	.st0{fill:#CD0005;}
	.st1{fill:#C43D0E;}
	.st2{opacity:0.15;fill:#FFFFFF;}
	.st3{opacity:0.46;fill:#CD0005;}
	.st4{opacity:0.52;fill:#CD0005;}
	.st5{clip-path:url(#SVGID_2_);}
	.st6{fill:#488C14;}
	.st7{fill:#326D05;}
	.st8{clip-path:url(#SVGID_4_);}
	.st9{fill:#E52020;}
	.st10{fill:#F44B2F;}
	.st11{opacity:0.5;fill:#FF6B57;}
</style>
<g>
	<path class="st0" d="M166.4,133.3c0.7,0.9,1.3,1.9,2,2.8c5-2,9.8-4.7,13.9-8.1c6.9-5.8,9.3-6.8,13.6-17.9c1.2-3.1,1.6-10,0.9-13.2
		c-0.7-2.9-2.5-6.8-4-9.4c-1.9-3.5-3.9-6.9-6.4-9.9c-9.3-11.1-27.5-17.6-40.8-12.1c-9,3.8-13.6,9.9-19.4,17.5
		C140,99.5,153.9,115.8,166.4,133.3z"/>
	<g>
		<path class="st1" d="M136,88.4c0.5-0.6,1.3-0.7,1.9-0.2c0.6,0.5,0.7,1.3,0.2,1.9c-0.5,0.6-2.5,0.9-2.5,0.9S135.5,89,136,88.4z"/>
		<path class="st2" d="M136.9,89.3c0.2-0.2,0.5-0.2,0.7-0.1c0.2,0.2,0.2,0.5,0.1,0.7s-0.9,0.3-0.9,0.3S136.7,89.5,136.9,89.3z"/>
	</g>
	<g>
		<path class="st1" d="M147.8,88.8c0.5-0.6,1.3-0.7,1.9-0.2s0.7,1.3,0.2,1.9c-0.5,0.6-2.5,0.9-2.5,0.9S147.4,89.4,147.8,88.8z"/>
		<path class="st2" d="M148.7,89.7c0.2-0.2,0.5-0.2,0.7-0.1c0.2,0.2,0.2,0.5,0.1,0.7c-0.2,0.2-0.9,0.3-0.9,0.3
			S148.5,89.9,148.7,89.7z"/>
	</g>
	<g>
		<path class="st1" d="M149.1,75.7c0.5-0.6,1.3-0.7,1.9-0.2c0.6,0.5,0.7,1.3,0.2,1.9c-0.5,0.6-2.5,0.9-2.5,0.9
			S148.7,76.3,149.1,75.7z"/>
		<path class="st2" d="M150,76.6c0.2-0.2,0.5-0.2,0.7-0.1c0.2,0.2,0.2,0.5,0.1,0.7c-0.2,0.2-0.9,0.3-0.9,0.3S149.8,76.8,150,76.6z"
			/>
	</g>
	<g>
		<path class="st1" d="M136.2,76.3c0.5-0.6,1.3-0.7,1.9-0.2s0.7,1.3,0.2,1.9c-0.5,0.6-2.5,0.9-2.5,0.9S135.7,76.9,136.2,76.3z"/>
		<path class="st2" d="M137,77.2c0.2-0.2,0.5-0.2,0.7-0.1c0.2,0.2,0.2,0.5,0.1,0.7c-0.2,0.2-0.9,0.3-0.9,0.3S136.9,77.4,137,77.2z"
			/>
	</g>
	<g>
		<path class="st1" d="M173.3,110.7c0.5-0.6,1.3-0.7,1.9-0.2s0.7,1.3,0.2,1.9c-0.5,0.6-2.5,0.9-2.5,0.9S172.8,111.3,173.3,110.7z"/>
		<path class="st2" d="M174.1,111.5c0.2-0.2,0.5-0.2,0.7-0.1c0.2,0.2,0.2,0.5,0.1,0.7c-0.2,0.2-0.9,0.3-0.9,0.3
			S174,111.8,174.1,111.5z"/>
	</g>
	<g>
		<path class="st1" d="M178.6,99c0.5-0.6,1.3-0.7,1.9-0.2c0.6,0.5,0.7,1.3,0.2,1.9c-0.5,0.6-2.5,0.9-2.5,0.9S178.1,99.6,178.6,99z"
			/>
		<path class="st2" d="M179.5,99.9c0.2-0.2,0.5-0.2,0.7-0.1c0.2,0.2,0.2,0.5,0.1,0.7c-0.2,0.2-0.9,0.3-0.9,0.3
			S179.3,100.1,179.5,99.9z"/>
	</g>
	<g>
		<path class="st1" d="M169.6,90.3c0.5-0.6,1.3-0.7,1.9-0.2s0.7,1.3,0.2,1.9c-0.5,0.6-2.5,0.9-2.5,0.9S169.1,90.9,169.6,90.3z"/>
		<path class="st2" d="M170.5,91.2c0.2-0.2,0.5-0.2,0.7-0.1c0.2,0.2,0.2,0.5,0.1,0.7c-0.2,0.2-0.9,0.3-0.9,0.3
			S170.3,91.4,170.5,91.2z"/>
	</g>
	<g>
		<path class="st1" d="M158.5,89.1c0.5-0.6,1.3-0.7,1.9-0.2s0.7,1.3,0.2,1.9c-0.5,0.6-2.5,0.9-2.5,0.9S158,89.7,158.5,89.1z"/>
		<path class="st2" d="M159.4,89.9c0.2-0.2,0.5-0.2,0.7-0.1c0.2,0.2,0.2,0.5,0.1,0.7c-0.2,0.2-0.9,0.3-0.9,0.3
			S159.2,90.1,159.4,89.9z"/>
	</g>
	<g>
		<path class="st1" d="M147.7,105.8c0.5-0.6,1.3-0.7,1.9-0.2s0.7,1.3,0.2,1.9c-0.5,0.6-2.5,0.9-2.5,0.9S147.3,106.4,147.7,105.8z"/>
		<path class="st2" d="M148.6,106.7c0.2-0.2,0.5-0.2,0.7-0.1c0.2,0.2,0.2,0.5,0.1,0.7c-0.2,0.2-0.9,0.3-0.9,0.3
			S148.4,106.9,148.6,106.7z"/>
	</g>
	<g>
		<path class="st1" d="M164.3,103.9c0.5-0.6,1.3-0.7,1.9-0.2s0.7,1.3,0.2,1.9c-0.5,0.6-2.5,0.9-2.5,0.9S163.8,104.5,164.3,103.9z"/>
		<path class="st2" d="M165.2,104.7c0.2-0.2,0.5-0.2,0.7-0.1c0.2,0.2,0.2,0.5,0.1,0.7c-0.2,0.2-0.9,0.3-0.9,0.3
			S165,104.9,165.2,104.7z"/>
	</g>
	<g>
		<path class="st1" d="M163,118.6c0.5-0.6,1.3-0.7,1.9-0.2s0.7,1.3,0.2,1.9c-0.5,0.6-2.5,0.9-2.5,0.9S162.5,119.2,163,118.6z"/>
		<path class="st2" d="M163.9,119.4c0.2-0.2,0.5-0.2,0.7-0.1c0.2,0.2,0.2,0.5,0.1,0.7c-0.2,0.2-0.9,0.3-0.9,0.3
			S163.7,119.6,163.9,119.4z"/>
	</g>
	<g>
		<path class="st1" d="M155.4,95.9c0.5-0.6,1.3-0.7,1.9-0.2s0.7,1.3,0.2,1.9c-0.5,0.6-2.5,0.9-2.5,0.9S154.9,96.5,155.4,95.9z"/>
		<path class="st2" d="M156.2,96.8c0.2-0.2,0.5-0.2,0.7-0.1c0.2,0.2,0.2,0.5,0.1,0.7c-0.2,0.2-0.9,0.3-0.9,0.3S156.1,97,156.2,96.8z
			"/>
	</g>
	<g>
		<path class="st1" d="M183.6,107.1c0.5-0.6,1.3-0.7,1.9-0.2s0.7,1.3,0.2,1.9c-0.5,0.6-2.5,0.9-2.5,0.9S183.1,107.7,183.6,107.1z"/>
		<path class="st2" d="M184.4,108c0.2-0.2,0.5-0.2,0.7-0.1c0.2,0.2,0.2,0.5,0.1,0.7c-0.2,0.2-0.9,0.3-0.9,0.3S184.3,108.2,184.4,108
			z"/>
	</g>
	<g>
		<path class="st1" d="M159.2,111.7c0.5-0.6,1.3-0.7,1.9-0.2s0.7,1.3,0.2,1.9c-0.5,0.6-2.5,0.9-2.5,0.9S158.8,112.3,159.2,111.7z"/>
		<path class="st2" d="M160.1,112.6c0.2-0.2,0.5-0.2,0.7-0.1c0.2,0.2,0.2,0.5,0.1,0.7c-0.2,0.2-0.9,0.3-0.9,0.3
			S159.9,112.8,160.1,112.6z"/>
	</g>
	<g>
		<path class="st1" d="M144,97.3c0.5-0.6,1.3-0.7,1.9-0.2s0.7,1.3,0.2,1.9c-0.5,0.6-2.5,0.9-2.5,0.9S143.5,97.9,144,97.3z"/>
		<path class="st2" d="M144.8,98.1c0.2-0.2,0.5-0.2,0.7-0.1c0.2,0.2,0.2,0.5,0.1,0.7c-0.2,0.2-0.9,0.3-0.9,0.3
			S144.7,98.3,144.8,98.1z"/>
	</g>
	<g>
		<path class="st1" d="M175.4,118.6c0.5-0.6,1.3-0.7,1.9-0.2s0.7,1.3,0.2,1.9c-0.5,0.6-2.5,0.9-2.5,0.9S174.9,119.2,175.4,118.6z"/>
		<path class="st2" d="M176.3,119.4c0.2-0.2,0.5-0.2,0.7-0.1c0.2,0.2,0.2,0.5,0.1,0.7c-0.2,0.2-0.9,0.3-0.9,0.3
			S176.1,119.7,176.3,119.4z"/>
	</g>
	<path class="st3" d="M173.8,127.1c-3.6,1.5-6.6,2.8-9.1,3.9c0.6,0.8,1.1,1.5,1.7,2.3c0.7,0.9,1.3,1.9,2,2.8c5-2,9.8-4.7,13.9-8.1
		c6.9-5.8,9.3-6.8,13.6-17.9c1.2-3.1,1.6-10,0.9-13.2c-0.7-2.9-2.5-6.8-4-9.4c-1.9-3.5-3.9-6.9-6.4-9.9
		C192.3,108.8,192.5,119.2,173.8,127.1z"/>
	<ellipse transform="matrix(0.664 -0.7478 0.7478 0.664 -1.9845 162.9886)" class="st4" cx="180.4" cy="83.7" rx="6.5" ry="17"/>
	<g>
		<defs>
			<path id="SVGID_1_" d="M206.1,77.8c-0.1,0.1,0.1,0.2,0.2,0.1c0.1-0.1,0-0.2-0.1-0.3c-2.1-2.1-5.2-3.3-8.3-3.8
				c-4.4-0.7-8.7-0.8-12.8,1c-0.2,0.4-0.5,0.7-0.7,1.1c3.4-5.4,10.4-8.8,17.1-8.8c-0.2-1-0.2-2.2-0.4-3.1c-8,0-16,4.7-19.5,11.5
				c1.6-2.5,1.3-4.9,0.8-7.7c-0.8-4.3-4.1-7.8-7.3-11c-0.3,2.4-1.5,5.2-1.7,7.6c-0.3,3.6,1.4,7,3.1,10.2c-1.8-2.7-4.6-4.8-7.7-6.2
				c-3.4-1.5-10.6-1.6-10.3-1.6c0.7,0.6,0.1,2.1,1.7,4.1c3.4,4.1,6,4.2,9.5,5.5c-0.7-0.4-1.4,0.1-2.2,0.2c-1.4,0.2-2.7,0.5-4.1,0.8
				c-1.9,0.4-3.7,0.8-5.4,1.7c-1.6,0.9-3.1,2.3-3.5,4c1.7,1.6,4.4,1.5,6.7,1.8c3.1,0.3,6.3,0.5,9.4,0c3.1-0.5,6.1-1.8,8.4-3.8
				c0.2,1.1,0,2.1,0.6,3.1c1.3,2,2.7,4,4.8,5.3c1.3,0.8,2.7,1.2,4.2,1.7c1.8,0.6,3.5,1.1,5.3,1.7c0.3,0.1,0.6,0.2,0.8,0
				c-0.3,0.3,0.1,0.3,0.5,0.2c-0.1-0.9-0.4-1.8-0.7-2.6c-0.4-1-0.7-2-1.1-3.1c-0.3-1-0.7-2-1.2-2.9c-1.3-2.3-3.5-4-5.7-5.6
				c2.3,0.9,4.1,1.8,6.6,2c1.5,0.2,3.1,0.1,4.6-0.1C200.8,80.3,203.6,79.4,206.1,77.8z"/>
		</defs>
		<use xlink:href="#SVGID_1_"  style="overflow:visible;fill:#3C7F0E;"/>
		<clipPath id="SVGID_2_">
			<use xlink:href="#SVGID_1_"  style="overflow:visible;"/>
		</clipPath>
		<g class="st5">
			<g>
				<path class="st6" d="M192.8,70.2c1.6-0.6,3.3-1,5.1-1.2c1.5-0.2,2.9,0,4.3-0.6c0.5-0.2,0.6-1,0-1.2c-3.3-1.5-8.9,0.4-12,1.9
					c-2.2,1.2-6.5,3.4-5.6,6.5C184.6,75.8,189.6,71.4,192.8,70.2z"/>
			</g>
		</g>
		<g class="st5">
			<g>
				<path class="st7" d="M182.3,74.3c1.2-0.9,1.6-1.9,2.6-2.9c1.5-1.6,3.2-3,5.2-4c3.7-2,7.7-2.6,11.9-2.1c1.4,0.2,1.7-2,0.3-2.1
					c-4.2-0.5-8.7,0.2-12.5,2.2c-3.1,1.7-4.5,2.8-6.8,6.8c-0.1,0.3-1.4,2.6-1.1,2.4L182.3,74.3z"/>
			</g>
		</g>
		<g class="st5">
			<g>
				<path class="st6" d="M184.4,77.8c3.2,2.7,7.3,3.6,11.3,3.6c3.5,0,9.1-0.5,11.6-3.2c0.5-0.6,0-1.5-0.7-1.4
					c-1.7,0.2-3.2,1.1-4.9,1.6c-1.9,0.5-3.8,0.8-5.8,0.8c-3.8,0-7.3-0.4-11-1.4C184.6,77.7,184.1,77.6,184.4,77.8L184.4,77.8z"/>
			</g>
		</g>
		<g class="st5">
			<g>
				<path class="st7" d="M185.1,75.8c3.4-1.5,7.7-1.7,11.3-1.2c1.9,0.3,3.7,0.8,5.5,1.5c1.5,0.6,2.9,1.8,4.5,1.9
					c0.5,0,1.1-0.5,0.8-1c-1.8-3.4-8.2-4.5-11.7-4.7c-3.5-0.2-8.7-0.2-10.7,3.2C184.6,75.6,184.9,75.9,185.1,75.8L185.1,75.8z"/>
			</g>
		</g>
		<g class="st5">
			<g>
				<path class="st6" d="M173.5,56.4c1.4,3,4.1,5.3,5.7,8.1c1,1.7,1.8,3.6,2,5.6c0.2,1.3-0.1,3.4,0.7,4.5c0.2,0.2,0.4-0.9,0.5-1.2
					c1.7-3.6,0.9-6.4-0.3-8.8c-1.7-3.4-4.7-7.1-8.2-8.8C173.8,55.8,173.4,56.1,173.5,56.4L173.5,56.4z"/>
			</g>
		</g>
		<g class="st5">
			<g>
				<path class="st6" d="M177.7,75.2c-1.5-3.6-5.6-5.9-8.9-7.5c-3.2-1.5-7.4-3.3-11-2.3c-1.3,0.4-1.1,2.5,0.3,2.6
					c3.5,0.3,6.7,1.1,9.9,2.7c3.1,1.5,5.9,4,9.2,5C177.4,75.9,177.8,75.6,177.7,75.2L177.7,75.2z"/>
			</g>
		</g>
		<g class="st5">
			<g>
				<path class="st7" d="M174.8,56.4c-1.9,2.3-2,6.8-2.1,9.6c0,2.4,1.9,4.7,2.9,6.9c0.5,1.2,1.8,3.5,2,2.8c0.3-1.4-1-4.6-1.5-5.9
					c-0.6-1.7-0.9-3.3-0.8-5.1C175.4,62.1,176.2,58.8,174.8,56.4C174.8,56.3,174.8,56.3,174.8,56.4L174.8,56.4z"/>
			</g>
		</g>
		<g class="st5">
			<g>
				<path class="st7" d="M158.6,66.4c-1.4,2.2,1.1,4.7,2.5,6.3c2.1,2.3,5.3,4.7,8.5,3.7c0.4-0.1,0.4-0.6,0.2-0.9
					c-1.6-1.7-4.2-2.1-5.9-3.7c-1.6-1.5-3.7-3.3-4.7-5.3C159.1,66.3,158.8,66.2,158.6,66.4L158.6,66.4z"/>
			</g>
		</g>
	</g>
</g>
<g>
	<path class="st0" d="M124.8,125.5c-7.9-3.9-15.9-7.7-23.9-11.5c-1.6,8.9-0.7,23.2,0,31.5c0.5,6.7,1.3,11.4,3.8,17.7
		c1.7,4.4,5.5,6.5,9.9,6.8c3.8,0.2,8-0.6,13.6-3.4c4.2-2,9.7-6.2,13.5-9c5.8-4.3,7.2-4.9,12-8.5c2.1-1.6,4.2-3.3,6.1-5.1
		C148.4,137.5,136.7,131.3,124.8,125.5z"/>
	<g>
		<path class="st1" d="M122.8,153.5c0.2-0.7,0.9-1.2,1.6-1c0.7,0.2,1.2,0.9,1,1.6c-0.2,0.7-1.8,1.9-1.8,1.9S122.6,154.2,122.8,153.5
			z"/>
		<path class="st2" d="M123.9,153.9c0.1-0.3,0.3-0.4,0.6-0.4c0.3,0.1,0.4,0.3,0.4,0.6s-0.7,0.7-0.7,0.7S123.9,154.2,123.9,153.9z"/>
	</g>
	<g>
		<path class="st1" d="M112.9,134.7c0.2-0.7,0.9-1.2,1.6-1c0.7,0.2,1.2,0.9,1,1.6c-0.2,0.7-1.8,1.9-1.8,1.9S112.8,135.4,112.9,134.7
			z"/>
		<path class="st2" d="M114.1,135.1c0.1-0.3,0.3-0.4,0.6-0.4c0.3,0.1,0.4,0.3,0.4,0.6s-0.7,0.7-0.7,0.7S114,135.4,114.1,135.1z"/>
	</g>
	<g>
		<path class="st1" d="M130.7,138.9c0.2-0.7,0.9-1.2,1.6-1s1.2,0.9,1,1.6c-0.2,0.7-1.8,1.9-1.8,1.9S130.5,139.7,130.7,138.9z"/>
		<path class="st2" d="M131.8,139.4c0.1-0.3,0.3-0.4,0.6-0.4c0.3,0.1,0.4,0.3,0.4,0.6s-0.7,0.7-0.7,0.7S131.8,139.6,131.8,139.4z"/>
	</g>
	<g>
		<path class="st1" d="M106.1,125.9c0.2-0.7,0.9-1.2,1.6-1c0.7,0.2,1.2,0.9,1,1.6c-0.2,0.7-1.8,1.9-1.8,1.9S105.9,126.6,106.1,125.9
			z"/>
		<path class="st2" d="M107.3,126.3c0.1-0.3,0.3-0.4,0.6-0.4c0.3,0.1,0.4,0.3,0.4,0.6c-0.1,0.3-0.7,0.7-0.7,0.7
			S107.2,126.6,107.3,126.3z"/>
	</g>
	<g>
		<path class="st1" d="M122.4,134.9c0.2-0.7,0.9-1.2,1.6-1c0.7,0.2,1.2,0.9,1,1.6c-0.2,0.7-1.8,1.9-1.8,1.9S122.2,135.6,122.4,134.9
			z"/>
		<path class="st2" d="M123.5,135.4c0.1-0.3,0.3-0.4,0.6-0.4c0.3,0.1,0.4,0.3,0.4,0.6s-0.7,0.7-0.7,0.7S123.5,135.6,123.5,135.4z"/>
	</g>
	<g>
		<path class="st1" d="M103.4,141.4c0.2-0.7,0.9-1.2,1.6-1c0.7,0.2,1.2,0.9,1,1.6c-0.2,0.7-1.8,1.9-1.8,1.9S103.3,142.1,103.4,141.4
			z"/>
		<path class="st2" d="M104.6,141.8c0.1-0.3,0.3-0.4,0.6-0.4c0.3,0.1,0.4,0.3,0.4,0.6s-0.7,0.7-0.7,0.7S104.5,142.1,104.6,141.8z"/>
	</g>
	<g>
		<path class="st1" d="M112.1,155.5c0.2-0.7,0.9-1.2,1.6-1c0.7,0.2,1.2,0.9,1,1.6c-0.2,0.7-1.8,1.9-1.8,1.9S111.9,156.3,112.1,155.5
			z"/>
		<path class="st2" d="M113.2,156c0.1-0.3,0.3-0.4,0.6-0.4c0.3,0.1,0.4,0.3,0.4,0.6s-0.7,0.7-0.7,0.7S113.2,156.2,113.2,156z"/>
	</g>
	<g>
		<path class="st1" d="M140.7,145.1c0.2-0.7,0.9-1.2,1.6-1s1.2,0.9,1,1.6c-0.2,0.7-1.8,1.9-1.8,1.9S140.5,145.8,140.7,145.1z"/>
		<path class="st2" d="M141.9,145.5c0.1-0.3,0.3-0.4,0.6-0.4c0.3,0.1,0.4,0.3,0.4,0.6s-0.7,0.7-0.7,0.7S141.8,145.8,141.9,145.5z"/>
	</g>
	<g>
		<path class="st1" d="M123.1,143.7c0.2-0.7,0.9-1.2,1.6-1s1.2,0.9,1,1.6c-0.2,0.7-1.8,1.9-1.8,1.9S122.9,144.5,123.1,143.7z"/>
		<path class="st2" d="M124.2,144.2c0.1-0.3,0.3-0.4,0.6-0.4c0.3,0.1,0.4,0.3,0.4,0.6s-0.7,0.7-0.7,0.7S124.2,144.4,124.2,144.2z"/>
	</g>
	<g>
		<path class="st1" d="M131.5,151c0.2-0.7,0.9-1.2,1.6-1c0.7,0.2,1.2,0.9,1,1.6c-0.2,0.7-1.8,1.9-1.8,1.9S131.3,151.7,131.5,151z"/>
		<path class="st2" d="M132.6,151.4c0.1-0.3,0.3-0.4,0.6-0.4c0.3,0.1,0.4,0.3,0.4,0.6s-0.7,0.7-0.7,0.7S132.6,151.7,132.6,151.4z"/>
	</g>
	<g>
		<path class="st1" d="M115,164.1c0.2-0.7,0.9-1.2,1.6-1c0.7,0.2,1.2,0.9,1,1.6c-0.2,0.7-1.8,1.9-1.8,1.9S114.8,164.8,115,164.1z"/>
		<path class="st2" d="M116.2,164.5c0.1-0.3,0.3-0.4,0.6-0.4c0.3,0.1,0.4,0.3,0.4,0.6c-0.1,0.3-0.7,0.7-0.7,0.7
			S116.1,164.8,116.2,164.5z"/>
	</g>
	<g>
		<path class="st1" d="M104.8,151.6c0.2-0.7,0.9-1.2,1.6-1c0.7,0.2,1.2,0.9,1,1.6c-0.2,0.7-1.8,1.9-1.8,1.9S104.6,152.3,104.8,151.6
			z"/>
		<path class="st2" d="M105.9,152c0.1-0.3,0.3-0.4,0.6-0.4c0.3,0.1,0.4,0.3,0.4,0.6s-0.7,0.7-0.7,0.7S105.9,152.3,105.9,152z"/>
	</g>
	<g>
		<path class="st1" d="M114,145.5c0.2-0.7,0.9-1.2,1.6-1s1.2,0.9,1,1.6c-0.2,0.7-1.8,1.9-1.8,1.9S113.8,146.2,114,145.5z"/>
		<path class="st2" d="M115.1,145.9c0.1-0.3,0.3-0.4,0.6-0.4c0.3,0.1,0.4,0.3,0.4,0.6s-0.7,0.7-0.7,0.7S115.1,146.2,115.1,145.9z"/>
	</g>
	<g>
		<path class="st1" d="M121.7,163c0.2-0.7,0.9-1.2,1.6-1s1.2,0.9,1,1.6c-0.2,0.7-1.8,1.9-1.8,1.9S121.6,163.8,121.7,163z"/>
		<path class="st2" d="M122.9,163.5c0.1-0.3,0.3-0.4,0.6-0.4c0.3,0.1,0.4,0.3,0.4,0.6s-0.7,0.7-0.7,0.7S122.8,163.7,122.9,163.5z"/>
	</g>
	<path class="st3" d="M154.5,141.1c-6.4,7-9.4,10-18.9,17.7c-12.9,10.4-24.1,13.4-34.7-13.2c0.5,6.7,1.3,11.4,3.8,17.7
		c1.7,4.4,5.5,6.5,9.9,6.8c3.8,0.2,8-0.6,13.6-3.4c4.2-2,9.7-6.2,13.5-9c5.8-4.3,7.2-4.9,12-8.5c2.1-1.6,4.2-3.3,6.1-5.1
		C158.1,143.1,156.3,142.1,154.5,141.1z"/>
</g>
<g>
	<path class="st0" d="M92.4,100.9c3.1-6.6,3.9-7.8,6.5-13.2c2-4.2,3.5-8.7,4.5-13.3c-3.4,0.9-6.9,1.9-10.3,2.8
		c-16.4,4.3-32.8,8.3-49.3,12.3c-1.5,0.4-3,0.7-4.5,1c3.5,6.9,8.2,14.4,11.4,19.3c3.6,5.6,6.6,9.4,11.8,13.7c3.6,3.1,7.9,3.1,12,1.2
		c3.4-1.6,6.7-4.4,10.4-9.5C87.6,111.5,90.5,105.1,92.4,100.9z"/>
	<g>
		<path class="st1" d="M73.8,106.3c-0.2-0.7,0.2-1.5,1-1.7c0.7-0.2,1.5,0.2,1.7,1c0.2,0.7-0.7,2.5-0.7,2.5S74,107,73.8,106.3z"/>
		<path class="st2" d="M75,106.1c-0.1-0.3,0.1-0.5,0.3-0.6c0.3-0.1,0.5,0.1,0.6,0.3c0.1,0.3-0.3,0.9-0.3,0.9S75.1,106.4,75,106.1z"
			/>
	</g>
	<g>
		<path class="st1" d="M56.2,94.5c-0.2-0.7,0.2-1.5,1-1.7c0.7-0.2,1.5,0.2,1.7,1c0.2,0.7-0.7,2.5-0.7,2.5S56.4,95.2,56.2,94.5z"/>
		<path class="st2" d="M57.4,94.3c-0.1-0.3,0.1-0.5,0.3-0.6c0.3-0.1,0.5,0.1,0.6,0.3c0.1,0.3-0.3,0.9-0.3,0.9S57.4,94.6,57.4,94.3z"
			/>
	</g>
	<g>
		<path class="st1" d="M73.8,89.7c-0.2-0.7,0.2-1.5,1-1.7c0.7-0.2,1.5,0.2,1.7,1c0.2,0.7-0.7,2.5-0.7,2.5S74,90.4,73.8,89.7z"/>
		<path class="st2" d="M75,89.5c-0.1-0.3,0.1-0.5,0.3-0.6c0.3-0.1,0.5,0.1,0.6,0.3c0.1,0.3-0.3,0.9-0.3,0.9S75.1,89.8,75,89.5z"/>
	</g>
	<g>
		<path class="st1" d="M47.9,88.5c-0.6,0.1-1.2,0.3-1.7,0.4c-0.2,0.3-0.3,0.7-0.2,1.1c0.2,0.7,1.9,1.8,1.9,1.8s0.9-1.8,0.7-2.5
			C48.5,89,48.2,88.7,47.9,88.5z"/>
		<path class="st2" d="M47.2,89.9c-0.1-0.3,0.1-0.5,0.3-0.6c0.3-0.1,0.5,0.1,0.6,0.3c0.1,0.3-0.3,0.9-0.3,0.9S47.2,90.1,47.2,89.9z"
			/>
	</g>
	<g>
		<path class="st1" d="M64.6,90.2c-0.2-0.7,0.2-1.5,1-1.7c0.7-0.2,1.5,0.2,1.7,1c0.2,0.7-0.7,2.5-0.7,2.5S64.8,90.9,64.6,90.2z"/>
		<path class="st2" d="M65.8,90c-0.1-0.3,0.1-0.5,0.3-0.6c0.3-0.1,0.5,0.1,0.6,0.3c0.1,0.3-0.3,0.9-0.3,0.9S65.8,90.3,65.8,90z"/>
	</g>
	<g>
		<path class="st1" d="M51,104.9c-0.2-0.7,0.2-1.5,1-1.7s1.5,0.2,1.7,1c0.2,0.7-0.7,2.5-0.7,2.5S51.2,105.6,51,104.9z"/>
		<path class="st2" d="M52.2,104.7c-0.1-0.3,0.1-0.5,0.3-0.6c0.3-0.1,0.5,0.1,0.6,0.3c0.1,0.3-0.3,0.9-0.3,0.9S52.3,105,52.2,104.7z
			"/>
	</g>
	<g>
		<path class="st1" d="M65.4,113.2c-0.2-0.7,0.2-1.5,1-1.7c0.7-0.2,1.5,0.2,1.7,1c0.2,0.7-0.7,2.5-0.7,2.5S65.6,113.9,65.4,113.2z"
			/>
		<path class="st2" d="M66.6,113c-0.1-0.3,0.1-0.5,0.3-0.6c0.3-0.1,0.5,0.1,0.6,0.3c0.1,0.3-0.3,0.9-0.3,0.9S66.7,113.3,66.6,113z"
			/>
	</g>
	<g>
		<path class="st1" d="M67.9,77.8"/>
	</g>
	<g>
		<path class="st1" d="M85.5,90.3c-0.2-0.7,0.2-1.5,1-1.7c0.7-0.2,1.5,0.2,1.7,1c0.2,0.7-0.7,2.5-0.7,2.5S85.7,91,85.5,90.3z"/>
		<path class="st2" d="M86.7,90.1c-0.1-0.3,0.1-0.5,0.3-0.6c0.3-0.1,0.5,0.1,0.6,0.3c0.1,0.3-0.3,0.9-0.3,0.9S86.8,90.4,86.7,90.1z"
			/>
	</g>
	<g>
		<path class="st1" d="M69.4,97.6c-0.2-0.7,0.2-1.5,1-1.7c0.7-0.2,1.5,0.2,1.7,1c0.2,0.7-0.7,2.5-0.7,2.5S69.6,98.3,69.4,97.6z"/>
		<path class="st2" d="M70.6,97.4c-0.1-0.3,0.1-0.5,0.3-0.6c0.3-0.1,0.5,0.1,0.6,0.3c0.1,0.3-0.3,0.9-0.3,0.9S70.7,97.7,70.6,97.4z"
			/>
	</g>
	<g>
		<path class="st1" d="M80.2,99.9c-0.2-0.7,0.2-1.5,1-1.7s1.5,0.2,1.7,1c0.2,0.7-0.7,2.5-0.7,2.5S80.4,100.6,80.2,99.9z"/>
		<path class="st2" d="M81.5,99.8c-0.1-0.3,0.1-0.5,0.3-0.6c0.3-0.1,0.5,0.1,0.6,0.3c0.1,0.3-0.3,0.9-0.3,0.9S81.5,100,81.5,99.8z"
			/>
	</g>
	<g>
		<path class="st1" d="M72,119.3c-0.2-0.7,0.2-1.5,1-1.7c0.7-0.2,1.5,0.2,1.7,1c0.2,0.7-0.7,2.5-0.7,2.5S72.2,120,72,119.3z"/>
		<path class="st2" d="M73.2,119.1c-0.1-0.3,0.1-0.5,0.3-0.6c0.3-0.1,0.5,0.1,0.6,0.3c0.1,0.3-0.3,0.9-0.3,0.9
			S73.3,119.4,73.2,119.1z"/>
	</g>
	<g>
		<path class="st1" d="M57.1,113.3c-0.2-0.7,0.2-1.5,1-1.7s1.5,0.2,1.7,1c0.2,0.7-0.7,2.5-0.7,2.5S57.3,114,57.1,113.3z"/>
		<path class="st2" d="M58.3,113.1c-0.1-0.3,0.1-0.5,0.3-0.6c0.3-0.1,0.5,0.1,0.6,0.3c0.1,0.3-0.3,0.9-0.3,0.9
			S58.4,113.3,58.3,113.1z"/>
	</g>
	<g>
		<path class="st1" d="M62.2,103.5c-0.2-0.7,0.2-1.5,1-1.7c0.7-0.2,1.5,0.2,1.7,1c0.2,0.7-0.7,2.5-0.7,2.5S62.4,104.2,62.2,103.5z"
			/>
		<path class="st2" d="M63.4,103.3c-0.1-0.3,0.1-0.5,0.3-0.6c0.3-0.1,0.5,0.1,0.6,0.3c0.1,0.3-0.3,0.9-0.3,0.9
			S63.5,103.6,63.4,103.3z"/>
	</g>
	<g>
		<path class="st1" d="M77.4,115.2c-0.2-0.7,0.2-1.5,1-1.7c0.7-0.2,1.5,0.2,1.7,1c0.2,0.7-0.7,2.5-0.7,2.5S77.6,115.9,77.4,115.2z"
			/>
		<path class="st2" d="M78.7,115c-0.1-0.3,0.1-0.5,0.3-0.6c0.3-0.1,0.5,0.1,0.6,0.3c0.1,0.3-0.3,0.9-0.3,0.9S78.7,115.2,78.7,115z"
			/>
	</g>
	<path class="st3" d="M92.4,100.9c3.1-6.6,3.9-7.8,6.5-13.2c2-4.2,3.5-8.7,4.5-13.3c-2.3,0.6-4.5,1.2-6.8,1.8
		c-3,12.1-3.8,15.7-9.1,28.5c-6.3,15.4-14.7,23.3-36.8,5.1c3.6,5.6,6.6,9.4,11.8,13.7c3.6,3.1,7.9,3.1,12,1.2
		c3.4-1.6,6.7-4.4,10.4-9.5C87.6,111.5,90.5,105.1,92.4,100.9z"/>
</g>
<g>
	<path class="st0" d="M11.3,74.2c1.3,1.9,3,4,5,6.1c2.2-1.3,4.4-2.6,6.6-3.9c7.2-4.5,14.4-8.9,21.6-13.4
		c9.8-6.1,19.6-12.3,29.3-18.7c-0.5-3.3-1.4-6.5-2.5-9.6c-3.2-8.4-3.4-11-12.6-18.7c-2.5-2.1-9-4.8-12.2-5.1
		c-3-0.3-7.3,0.2-10.2,0.7c-3.9,0.7-7.8,1.5-11.5,2.9C11.4,19.6-0.7,34.7,0.3,49.1C0.9,59.3,5.6,65.7,11.3,74.2z"/>
	<g>
		<path class="st1" d="M30.6,67.9c-0.4-0.6-0.2-1.5,0.4-1.9c0.6-0.4,1.5-0.2,1.9,0.4c0.4,0.6,0.1,2.6,0.1,2.6S31,68.5,30.6,67.9z"/>
		<path class="st2" d="M31.7,67.3c-0.1-0.2-0.1-0.5,0.1-0.7c0.2-0.1,0.5-0.1,0.7,0.1c0.1,0.2,0,0.9,0,0.9S31.8,67.6,31.7,67.3z"/>
	</g>
	<g>
		<path class="st1" d="M18.9,65.6c-0.4-0.6-0.2-1.5,0.4-1.9s1.5-0.2,1.9,0.4c0.4,0.6,0.1,2.6,0.1,2.6S19.3,66.3,18.9,65.6z"/>
		<path class="st2" d="M20,65.1c-0.1-0.2-0.1-0.5,0.1-0.7c0.2-0.1,0.5-0.1,0.7,0.1c0.1,0.2,0,0.9,0,0.9S20.2,65.3,20,65.1z"/>
	</g>
	<g>
		<path class="st1" d="M23.1,54.5c-0.4-0.6-0.2-1.5,0.4-1.9c0.6-0.4,1.5-0.2,1.9,0.4c0.4,0.6,0.1,2.6,0.1,2.6S23.5,55.2,23.1,54.5z"
			/>
		<path class="st2" d="M24.2,54c-0.1-0.2-0.1-0.5,0.1-0.7c0.2-0.1,0.5-0.1,0.7,0.1c0.1,0.2,0,0.9,0,0.9S24.3,54.2,24.2,54z"/>
	</g>
	<g>
		<path class="st1" d="M11.1,49.1c-0.4-0.6-0.2-1.5,0.4-1.9c0.6-0.4,1.5-0.2,1.9,0.4c0.4,0.6,0.1,2.6,0.1,2.6S11.5,49.7,11.1,49.1z"
			/>
		<path class="st2" d="M12.2,48.5c-0.1-0.2-0.1-0.5,0.1-0.7c0.2-0.1,0.5-0.1,0.7,0.1c0.1,0.2,0,0.9,0,0.9S12.4,48.8,12.2,48.5z"/>
	</g>
	<g>
		<path class="st1" d="M7.5,61.5c-0.4-0.6-0.2-1.5,0.4-1.9c0.6-0.4,1.5-0.2,1.9,0.4c0.4,0.6,0.1,2.6,0.1,2.6S7.9,62.2,7.5,61.5z"/>
		<path class="st2" d="M8.6,61c-0.1-0.2-0.1-0.5,0.1-0.7c0.2-0.1,0.5-0.1,0.7,0.1s0,0.9,0,0.9S8.7,61.2,8.6,61z"/>
	</g>
	<g>
		<path class="st1" d="M52,37.5c-0.4-0.6-0.2-1.5,0.4-1.9c0.6-0.4,1.5-0.2,1.9,0.4c0.4,0.6,0.1,2.6,0.1,2.6S52.4,38.2,52,37.5z"/>
		<path class="st2" d="M53.1,37c-0.1-0.2-0.1-0.5,0.1-0.7c0.2-0.1,0.5-0.1,0.7,0.1s0,0.9,0,0.9S53.2,37.2,53.1,37z"/>
	</g>
	<g>
		<path class="st1" d="M42.7,28.7c-0.4-0.6-0.2-1.5,0.4-1.9s1.5-0.2,1.9,0.4c0.4,0.6,0.1,2.6,0.1,2.6S43.1,29.3,42.7,28.7z"/>
		<path class="st2" d="M43.8,28.2c-0.1-0.2-0.1-0.5,0.1-0.7c0.2-0.1,0.5-0.1,0.7,0.1c0.1,0.2,0,0.9,0,0.9S43.9,28.4,43.8,28.2z"/>
	</g>
	<g>
		<path class="st1" d="M31.5,34.4c-0.4-0.6-0.2-1.5,0.4-1.9s1.5-0.2,1.9,0.4c0.4,0.6,0.1,2.6,0.1,2.6S31.9,35,31.5,34.4z"/>
		<path class="st2" d="M32.6,33.9c-0.1-0.2-0.1-0.5,0.1-0.7c0.2-0.1,0.5-0.1,0.7,0.1c0.1,0.2,0,0.9,0,0.9S32.8,34.1,32.6,33.9z"/>
	</g>
	<g>
		<path class="st1" d="M26.8,44.5c-0.4-0.6-0.2-1.5,0.4-1.9c0.6-0.4,1.5-0.2,1.9,0.4c0.4,0.6,0.1,2.6,0.1,2.6S27.2,45.2,26.8,44.5z"
			/>
		<path class="st2" d="M27.9,44c-0.1-0.2-0.1-0.5,0.1-0.7c0.2-0.1,0.5-0.1,0.7,0.1c0.1,0.2,0,0.9,0,0.9S28,44.2,27.9,44z"/>
	</g>
	<g>
		<path class="st1" d="M39.1,60.1c-0.4-0.6-0.2-1.5,0.4-1.9s1.5-0.2,1.9,0.4c0.4,0.6,0.1,2.6,0.1,2.6S39.5,60.8,39.1,60.1z"/>
		<path class="st2" d="M40.2,59.6c-0.1-0.2-0.1-0.5,0.1-0.7c0.2-0.1,0.5-0.1,0.7,0.1c0.1,0.2,0,0.9,0,0.9S40.4,59.8,40.2,59.6z"/>
	</g>
	<g>
		<path class="st1" d="M42.7,43.8c-0.4-0.6-0.2-1.5,0.4-1.9c0.6-0.4,1.5-0.2,1.9,0.4C45.3,43,45,45,45,45S43.1,44.5,42.7,43.8z"/>
		<path class="st2" d="M43.8,43.3c-0.1-0.2-0.1-0.5,0.1-0.7c0.2-0.1,0.5-0.1,0.7,0.1c0.1,0.2,0,0.9,0,0.9S43.9,43.5,43.8,43.3z"/>
	</g>
	<g>
		<path class="st1" d="M56.1,49.8c-0.4-0.6-0.2-1.5,0.4-1.9c0.6-0.4,1.5-0.2,1.9,0.4c0.4,0.6,0.1,2.6,0.1,2.6S56.6,50.4,56.1,49.8z"
			/>
		<path class="st2" d="M57.2,49.3c-0.1-0.2-0.1-0.5,0.1-0.7c0.2-0.1,0.5-0.1,0.7,0.1c0.1,0.2,0,0.9,0,0.9S57.4,49.5,57.2,49.3z"/>
	</g>
	<g>
		<path class="st1" d="M32.2,49.7c-0.4-0.6-0.2-1.5,0.4-1.9c0.6-0.4,1.5-0.2,1.9,0.4c0.4,0.6,0.1,2.6,0.1,2.6S32.7,50.3,32.2,49.7z"
			/>
		<path class="st2" d="M33.3,49.2c-0.1-0.2-0.1-0.5,0.1-0.7c0.2-0.1,0.5-0.1,0.7,0.1c0.1,0.2,0,0.9,0,0.9S33.5,49.4,33.3,49.2z"/>
	</g>
	<g>
		<path class="st1" d="M52,26.6c-0.4-0.6-0.2-1.5,0.4-1.9s1.5-0.2,1.9,0.4c0.4,0.6,0.1,2.6,0.1,2.6S52.4,27.3,52,26.6z"/>
		<path class="st2" d="M53.1,26.1c-0.1-0.2-0.1-0.5,0.1-0.7c0.2-0.1,0.5-0.1,0.7,0.1c0.1,0.2,0,0.9,0,0.9S53.2,26.3,53.1,26.1z"/>
	</g>
	<g>
		<path class="st1" d="M48.4,51.2c-0.4-0.6-0.2-1.5,0.4-1.9c0.6-0.4,1.5-0.2,1.9,0.4c0.4,0.6,0.1,2.6,0.1,2.6S48.8,51.8,48.4,51.2z"
			/>
		<path class="st2" d="M49.5,50.6c-0.1-0.2-0.1-0.5,0.1-0.7c0.2-0.1,0.5-0.1,0.7,0.1c0.1,0.2,0,0.9,0,0.9S49.7,50.8,49.5,50.6z"/>
	</g>
	<g>
		<path class="st1" d="M29.8,60.9c-0.4-0.6-0.2-1.5,0.4-1.9c0.6-0.4,1.5-0.2,1.9,0.4c0.4,0.6,0.1,2.6,0.1,2.6S30.2,61.5,29.8,60.9z"
			/>
		<path class="st2" d="M30.9,60.4c-0.1-0.2-0.1-0.5,0.1-0.7c0.2-0.1,0.5-0.1,0.7,0.1c0.1,0.2,0,0.9,0,0.9S31.1,60.6,30.9,60.4z"/>
	</g>
	<g>
		<path class="st1" d="M15.1,74.3c-0.4-0.6-0.2-1.5,0.4-1.9c0.6-0.4,1.5-0.2,1.9,0.4c0.4,0.6,0.1,2.6,0.1,2.6S15.5,74.9,15.1,74.3z"
			/>
		<path class="st2" d="M16.2,73.7c-0.1-0.2-0.1-0.5,0.1-0.7c0.2-0.1,0.5-0.1,0.7,0.1c0.1,0.2,0,0.9,0,0.9S16.4,74,16.2,73.7z"/>
	</g>
	<g>
		<path class="st1" d="M60.2,38.1c-0.4-0.6-0.2-1.5,0.4-1.9c0.6-0.4,1.5-0.2,1.9,0.4c0.4,0.6,0.1,2.6,0.1,2.6S60.6,38.7,60.2,38.1z"
			/>
		<path class="st2" d="M61.3,37.5c-0.1-0.2-0.1-0.5,0.1-0.7c0.2-0.1,0.5-0.1,0.7,0.1c0.1,0.2,0,0.9,0,0.9S61.4,37.8,61.3,37.5z"/>
	</g>
	<ellipse transform="matrix(0.87 -0.493 0.493 0.87 -7.1623 17.0545)" class="st4" cx="28.8" cy="22.1" rx="17" ry="6.5"/>
	<path class="st3" d="M67.7,42.3c0.1,2.1,0.3,3.9,0.4,5.7c1.9-1.2,3.8-2.5,5.7-3.8c-0.5-3.3-1.4-6.5-2.5-9.6
		c-3.2-8.4-3.4-11-12.6-18.7c-2.5-2.1-9-4.8-12.2-5.1c-3-0.3-7.3,0.2-10.2,0.7c-3.9,0.7-7.8,1.5-11.5,2.9
		C56.4,18.9,66.3,22.1,67.7,42.3z"/>
	<g>
		<defs>
			<path id="SVGID_3_" d="M31.5-4.1c0,0.1,0.2,0,0.1-0.1c-0.1-0.1-0.2,0-0.3,0c-2.7,1.3-4.8,3.8-6.2,6.6c-2.1,3.9-3.6,8-3.1,12.4
				c0.3,0.3,0.5,0.7,0.8,1c-4-5-5-12.7-2.8-19c-1-0.1-2.1-0.5-3.1-0.6c-2.6,7.6-0.7,16.7,4.6,22.1c-1.8-2.3-4.2-2.8-7-3.2
				c-4.3-0.6-8.7,1.4-12.7,3.3c2.2,1.1,4.4,3,6.6,4c3.3,1.5,7,0.9,10.6,0.4c-3.1,0.8-6,2.8-8.3,5.3c-2.6,2.8-5,9.5-4.9,9.2
				c0.8-0.5,2,0.6,4.4-0.3c5-1.9,5.9-4.4,8.3-7.2c-0.6,0.5-0.4,1.4-0.5,2.1c-0.2,1.4-0.4,2.7-0.6,4.1c-0.2,1.9-0.4,3.8-0.1,5.7
				c0.3,1.9,1.2,3.7,2.7,4.6c2-1.1,2.8-3.6,3.9-5.8c1.3-2.8,2.5-5.8,3-8.9c0.5-3.1,0.3-6.4-0.9-9.2c1.1,0.2,2,0.7,3.1,0.4
				c2.3-0.6,4.7-1.2,6.6-2.8c1.1-0.9,2-2.2,2.9-3.4c1.1-1.5,2.2-3,3.3-4.5c0.2-0.2,0.3-0.5,0.3-0.8c0.2,0.4,0.3,0,0.4-0.4
				c-0.9-0.2-1.8-0.2-2.7-0.2c-1.1,0-2.2,0-3.3,0c-1.1,0-2.1,0-3.2,0.2c-2.6,0.5-4.9,2-7.2,3.6c1.6-1.9,3-3.3,4.1-5.6
				c0.6-1.4,1.1-2.9,1.4-4.4C32.1,1.7,32.2-1.3,31.5-4.1z"/>
		</defs>
		<use xlink:href="#SVGID_3_"  style="overflow:visible;fill:#3C7F0E;"/>
		<clipPath id="SVGID_4_">
			<use xlink:href="#SVGID_3_"  style="overflow:visible;"/>
		</clipPath>
		<g class="st8">
			<g>
				<path class="st6" d="M20,5.9c-0.1-1.7,0.2-3.5,0.5-5.2c0.3-1.4,1-2.7,0.8-4.2c0-0.6-0.7-0.9-1.2-0.4c-2.5,2.6-2.5,8.6-2,12
					c0.4,2.5,1.1,7.3,4.3,7.4C22.7,15.5,20.1,9.4,20,5.9z"/>
			</g>
		</g>
		<g class="st8">
			<g>
				<path class="st7" d="M20.5,17.2c-0.4-1.4-1.2-2.1-1.9-3.4c-1-1.9-1.7-4-2.1-6.2c-0.7-4.2,0.1-8.1,1.9-11.9
					c0.6-1.3-1.3-2.3-1.9-1C14.6-1.5,13.9,3,14.5,7.2c0.6,3.5,1.2,5.2,4.3,8.6c0.2,0.2,2,2.1,1.9,1.8L20.5,17.2z"/>
			</g>
		</g>
		<g class="st8">
			<g>
				<path class="st6" d="M24.5,16.4c3.5-2.1,5.7-5.7,7.1-9.6c1.1-3.3,2.5-8.7,0.7-12c-0.4-0.7-1.4-0.5-1.6,0.2
					c-0.4,1.6,0,3.4-0.1,5.1c-0.1,1.9-0.5,3.9-1.1,5.7c-1.2,3.7-2.7,6.7-4.8,9.9C24.4,16.2,24.2,16.6,24.5,16.4L24.5,16.4z"/>
			</g>
		</g>
		<g class="st8">
			<g>
				<path class="st7" d="M22.8,15.1c-0.3-3.7,0.9-7.8,2.5-11.1c0.9-1.7,1.9-3.3,3.2-4.7c1.1-1.2,2.6-2.2,3.2-3.7
					c0.2-0.5-0.1-1.2-0.7-1.1c-3.8,0.6-6.9,6.3-8.3,9.6c-1.4,3.2-3,8.2-0.5,11.2C22.5,15.5,22.8,15.3,22.8,15.1L22.8,15.1z"/>
			</g>
		</g>
		<g class="st8">
			<g>
				<path class="st6" d="M0.7,19.8C4,19.4,7,17.6,10.3,17c1.9-0.4,4-0.5,5.9-0.1c1.3,0.3,3.2,1.2,4.5,0.8c0.3-0.1-0.7-0.6-0.9-0.9
					c-2.9-2.8-5.8-2.9-8.4-2.6c-3.7,0.5-8.2,2.1-10.9,4.9C0.2,19.3,0.4,19.8,0.7,19.8L0.7,19.8z"/>
			</g>
		</g>
		<g class="st8">
			<g>
				<path class="st6" d="M19.9,21.9c-3.9,0.2-7.4,3.4-10,6c-2.4,2.5-5.5,6-5.7,9.7c-0.1,1.4,2,1.8,2.6,0.6c1.5-3.2,3.2-5.9,5.7-8.5
					c2.4-2.5,5.7-4.3,7.7-7.1C20.4,22.4,20.3,21.9,19.9,21.9L19.9,21.9z"/>
			</g>
		</g>
		<g class="st8">
			<g>
				<path class="st7" d="M1.1,18.5c1.6,2.6,5.7,4.1,8.5,5.1c2.2,0.8,5-0.3,7.5-0.5c1.3-0.1,3.9-0.6,3.3-1c-1.2-0.8-4.7-0.5-6.1-0.5
					c-1.8,0-3.4-0.2-5.1-0.8C6.7,19.8,3.8,18,1.1,18.5C1.1,18.5,1.1,18.5,1.1,18.5L1.1,18.5z"/>
			</g>
		</g>
		<g class="st8">
			<g>
				<path class="st7" d="M5.4,37.1c1.6,2,4.8,0.5,6.7-0.3c2.9-1.2,6.1-3.5,6.3-6.8c0-0.4-0.5-0.6-0.8-0.4c-2.2,1-3.4,3.2-5.5,4.4
					c-1.9,1.1-4.3,2.5-6.5,2.7C5.4,36.7,5.2,36.9,5.4,37.1L5.4,37.1z"/>
			</g>
		</g>
	</g>
</g>
<ellipse transform="matrix(0.9644 -0.2643 0.2643 0.9644 -19.4406 21.8194)" class="st9" cx="71.4" cy="83.1" rx="33.1" ry="8"/>
<ellipse transform="matrix(0.9644 -0.2643 0.2643 0.9644 -19.6175 21.321)" class="st10" cx="69.4" cy="83.6" rx="26" ry="5.9"/>
<ellipse transform="matrix(0.9644 -0.2643 0.2643 0.9644 -19.4555 21.6612)" class="st11" cx="70.8" cy="83.1" rx="20.6" ry="3.9"/>
<ellipse transform="matrix(0.434 -0.9009 0.9009 0.434 -42.1706 191.0444)" class="st9" cx="131" cy="129.1" rx="5.5" ry="33.5"/>
<ellipse transform="matrix(0.434 -0.9009 0.9009 0.434 -42.3227 188.9187)" class="st10" cx="129.2" cy="128.1" rx="4.1" ry="26.3"/>
<ellipse transform="matrix(0.434 -0.9009 0.9009 0.434 -42.1089 190.4226)" class="st11" cx="130.5" cy="128.7" rx="2.6" ry="20.8"/>
<ellipse transform="matrix(0.7854 -0.6189 0.6189 0.7854 -35.721 114.8176)" class="st9" cx="147.7" cy="108.9" rx="5.5" ry="34.6"/>
<ellipse transform="matrix(0.7854 -0.6189 0.6189 0.7854 -34.9445 113.7041)" class="st10" cx="146.5" cy="107.3" rx="4.1" ry="27.2"/>
<ellipse transform="matrix(0.7854 -0.6189 0.6189 0.7854 -35.4433 114.5333)" class="st11" cx="147.5" cy="108.4" rx="2.6" ry="21.6"/>
<ellipse transform="matrix(0.8571 -0.5151 0.5151 0.8571 -25.5518 31.822)" class="st9" cx="44.6" cy="62" rx="34.8" ry="5.3"/>
<ellipse transform="matrix(0.8571 -0.5151 0.5151 0.8571 -26.3289 31.0267)" class="st10" cx="42.8" cy="63" rx="27.3" ry="3.9"/>
<ellipse transform="matrix(0.8571 -0.5151 0.5151 0.8571 -25.7393 31.5564)" class="st11" cx="44" cy="62.2" rx="21.6" ry="2.5"/>
</svg>
