<?xml version="1.0" encoding="utf-8"?>
<!-- Generator: Adobe Illustrator 25.2.1, SVG Export Plug-In . SVG Version: 6.00 Build 0)  -->
<svg version="1.1" id="Layer_3" xmlns="http://www.w3.org/2000/svg" xmlns:xlink="http://www.w3.org/1999/xlink" x="0px" y="0px"
	 viewBox="0 0 200 200" style="enable-background:new 0 0 200 200;" xml:space="preserve">
<style type="text/css">
	.st0{fill:#B35B5A;}
	.st1{opacity:0.5;fill:#964242;}
	.st2{opacity:0.2;fill:#964242;}
</style>
<g>
	<path class="st0" d="M-55.9,149.3c0,0,11-10,17-23s11-31,21-39s16-9,30-25s25-31,46-36s28,3,53-5s29-15,50-16s51,15,67,21
		s30,3,32,9s-11,24-20,38s-40,44-58,48s-63.8,4.8-79.9,9.4c-16.1,4.6-58.1,12.6-65.1,15.6s-19,9-42,10S-63.9,161.3-55.9,149.3z"/>
	<path class="st1" d="M-55.9,149.3c0,0,18.8,5.8,44,2c40-6,95-51,188-43c26.2,2.2,95-70,52-82c16,6,30,3,32,9s-11,24-20,38
		s-40,44-58,48s-63.8,4.8-79.9,9.4c-16.1,4.6-58.1,12.6-65.1,15.6s-19,9-42,10S-63.9,161.3-55.9,149.3z"/>
	<path class="st1" d="M74.1,38.3c5.4,10.9,9.5,32.3,6,34c-3.5,1.7-6.6-20.1-12-31s-19.3-11-15.8-12.7S68.6,27.4,74.1,38.3z"/>
	<path class="st1" d="M147.1,102.3c-3.2-19-9.2-28.7-13-28.4c-3.9,0.3,7,5.4,9,30.4c1,12.1-15.9,22.3-12,22
		C134.9,126,150.1,120.3,147.1,102.3z"/>
	<path class="st1" d="M25.1,129.3c1-25-9.1-39.3-13-39s11,8,6,43c-1.7,12-15.9,22.3-12,22C9.9,155,24.3,147.5,25.1,129.3z"/>
	<path class="st1" d="M176.1,15.3c5.4,10.9,13.5,49.3,10,51c-3.5,1.7-6-36-15-48c-7.3-9.7-10-11-17.8-11.7
		C156.7,4.9,170.6,4.4,176.1,15.3z"/>
	<path class="st1" d="M58.1,79.3c7,14-2,23.2-4,24c-2,0.8,6-12,0-23c-3.8-7-17-13.2-15-14C41.1,65.5,54.5,72.1,58.1,79.3z"/>
	<path class="st1" d="M141.1,31.3c8,15,3.5,22.8,1,24c-2.5,1.2,4-7-5-23c-6.1-10.9-16.5-11.8-14-13
		C125.5,18.1,138.1,25.7,141.1,31.3z"/>
	<path class="st1" d="M-22.9,124.3c6,9,3.5,21,1,21s0-12-4-18s-10-5-10-6S-28.9,115.3-22.9,124.3z"/>
	<path class="st2" d="M-55.9,149.3c0,0,18.8-3.2,44-7c40-6,86-56,179-48c26.2,2.2,82-57,61-68c16,6,30,3,32,9s-11,24-20,38
		s-40,44-58,48s-63.8,4.8-79.9,9.4c-16.1,4.6-58.1,12.6-65.1,15.6s-19,9-42,10S-63.9,161.3-55.9,149.3z"/>
	<ellipse transform="matrix(0.9483 -0.3173 0.3173 0.9483 -11.9883 50.9948)" class="st1" cx="150.6" cy="62.3" rx="4.5" ry="3"/>
	<ellipse transform="matrix(0.9483 -0.3173 0.3173 0.9483 -12.0811 47.3825)" class="st1" cx="139.4" cy="60.8" rx="2.6" ry="1.6"/>
	<ellipse transform="matrix(0.9483 -0.3173 0.3173 0.9483 -6.3559 28.5339)" class="st1" cx="84.4" cy="33.8" rx="2.6" ry="1.6"/>
	<ellipse transform="matrix(0.9483 -0.3173 0.3173 0.9483 3.6136 62.7865)" class="st1" cx="194.6" cy="20.3" rx="4.5" ry="3"/>
	<ellipse transform="matrix(0.9483 -0.3173 0.3173 0.9483 3.5208 59.1742)" class="st1" cx="183.4" cy="18.8" rx="2.6" ry="1.6"/>
	<ellipse transform="matrix(0.9483 -0.3173 0.3173 0.9483 0.8644 62.8644)" class="st1" cx="193.4" cy="28.8" rx="1.4" ry="0.9"/>
	<ellipse transform="matrix(0.9483 -0.3173 0.3173 0.9483 -25.7102 16.746)" class="st1" cx="38.6" cy="87.3" rx="4.5" ry="3"/>
	<ellipse transform="matrix(0.9483 -0.3173 0.3173 0.9483 -31.0426 14.9644)" class="st1" cx="30.4" cy="102.8" rx="2.6" ry="1.6"/>
	<ellipse transform="matrix(0.8414 -0.5404 0.5404 0.8414 -73.7013 15.2699)" class="st1" cx="-10.8" cy="133.2" rx="4.5" ry="3"/>
</g>
</svg>
