<?xml version="1.0" encoding="utf-8"?>
<!-- Generator: Adobe Illustrator 25.2.1, SVG Export Plug-In . SVG Version: 6.00 Build 0)  -->
<svg version="1.1" id="Layer_2" xmlns="http://www.w3.org/2000/svg" xmlns:xlink="http://www.w3.org/1999/xlink" x="0px" y="0px"
	 viewBox="0 0 200 200" style="enable-background:new 0 0 200 200;" xml:space="preserve">
<style type="text/css">
	.st0{fill:#B35B5A;}
	.st1{opacity:0.5;fill:#964242;}
	.st2{opacity:0.2;fill:#964242;}
	.st3{fill:#FFD79A;}
	.st4{fill:#F9BC3D;}
	.st5{fill:#FDD04F;}
	.st6{fill:#FAE162;}
</style>
<g>
	<g>
		<path class="st0" d="M54.4-30.5C70-13.4,85.1,4.2,100,21.8c15,17.7,30,35.3,45.1,52.8c6.5,7.5,13,15.1,19.4,22.6
			c19.6,1.3,55.3-10.9,68.3-18.9c14.2-8.7,33.7-19.4,34.4-25.6s-13.1-9.6-25-21.9c-11.8-12.3-32-39.7-51.4-47.9s-26-3.6-52-7.1
			S110.1-38,89-42.6c-14.9-3.2-27.5,0.2-40.5,5.5C50.5-34.9,52.4-32.7,54.4-30.5z"/>
		<path class="st1" d="M244.7,33.1c-0.7-0.8-1.5-1.5-2.4-2.3C243.1,31.6,243.9,32.3,244.7,33.1z"/>
		<path class="st1" d="M145.2,74.6c6.5,7.5,13,15.1,19.4,22.6c19.6,1.3,55.3-10.9,68.3-18.9c14.2-8.7,33.7-19.4,34.4-25.6
			c0.7-5.9-11.4-9.2-22.6-19.6C271.1,62,182.1,95.3,160,82.3c-5.2-3.1-10.4-5.9-15.6-8.4C144.7,74.1,144.9,74.4,145.2,74.6z"/>
		<path class="st1" d="M91.5-24.7c0.2,11.1-5.3,29.5-3.4,32.7c0.1,0.1,0.2,0.2,0.2,0.3c0.2,0.1,0.3,0.2,0.6,0.2
			c3.9-0.1,9.5-21.1,9.3-33.3S86.6-43.1,82.8-43C78.9-43,91.3-36.9,91.5-24.7z"/>
		<path class="st1" d="M136.4,64.5c0,0,0-0.1,0-0.1c5.3-18.5,4.1-29.9,0.5-31.2c-3.4-1.3,3.2,6.9-3.7,27.7
			C134.3,62,135.4,63.3,136.4,64.5z"/>
		<path class="st1" d="M200.2-1.6c0.2,12.1-9.1,50.3-13,50.3c-3.9,0.1,10.1-35.1,7.2-49.8c-2.4-11.9-4.3-14.2-11-18.2
			C187.2-19.3,200-13.7,200.2-1.6z"/>
		<path class="st1" d="M161.7-2.3c0.7,17-6.7,22.1-9.5,22.1c-2.8,0,6.6-4.6,5.4-22.9c-0.8-12.5-9.8-17.7-7-17.8
			C153.4-20.9,161.4-8.6,161.7-2.3z"/>
		<path class="st2" d="M145.2,74.6c6.5,7.5,13,15.1,19.4,22.6c19.6,1.3,55.3-10.9,68.3-18.9c14.2-8.7,33.7-19.4,34.4-25.6
			s-13.1-9.6-25-21.9c14.2,19-61.8,48.3-84.4,35c-12-7-23.6-12.5-34.7-16.7C130.5,57.6,137.8,66.1,145.2,74.6z"/>
		<ellipse transform="matrix(0.123 -0.9924 0.9924 0.123 108.0291 181.839)" class="st1" cx="156.9" cy="29.8" rx="3" ry="4.5"/>
		<ellipse transform="matrix(0.123 -0.9924 0.9924 0.123 105.926 167.1033)" class="st1" cx="147.5" cy="23.6" rx="1.6" ry="2.6"/>
		<ellipse transform="matrix(0.123 -0.9924 0.9924 0.123 120.3579 87.2511)" class="st1" cx="109.5" cy="-24.5" rx="1.6" ry="2.6"/>
		<ellipse transform="matrix(0.123 -0.9924 0.9924 0.123 177.492 222.6415)" class="st1" cx="214.7" cy="10.9" rx="3" ry="4.5"/>
		<ellipse transform="matrix(0.123 -0.9924 0.9924 0.123 175.3888 207.9058)" class="st1" cx="205.3" cy="4.7" rx="1.6" ry="2.6"/>
		<ellipse transform="matrix(0.123 -0.9924 0.9924 0.123 166.2805 224.2718)" class="st1" cx="210" cy="18.1" rx="0.9" ry="1.4"/>
	</g>
	<path class="st3" d="M165.7,98.3c-6.7,2.4-48-30.4-71.2-57.4C62.3,3.6,40.1-30.5,48.8-37.4c2.6-3.2,41.3,19.7,72,58.3
		S176.2,94.6,165.7,98.3z"/>
	<path class="st4" d="M162.3,96.1C156,98.3,117.1,65.9,94.9,40C64,4.2,43.2-26.6,51-33.4c6.3-5.5,37.7,21.7,67.9,55.5
		C150.5,57.4,172.1,92.8,162.3,96.1z"/>
	<path class="st5" d="M158.3,91.4c-5.8,2-41.9-28-62.5-52C67.2,6.1,47.8-22.4,55-28.7c5.9-5.1,34.9,20.1,63,51.5
		C147.3,55.5,167.4,88.3,158.3,91.4z"/>
	<path class="st6" d="M147.6,82.7c-4.3,1.2-34.1-25.5-51.7-46.2C71.6,7.8,54.7-16.5,59.8-21c4.1-3.7,28.2,18.6,52,45.8
		C136.6,53.1,154.4,80.8,147.6,82.7z"/>
</g>
<g>
	<g>
		<path class="st0" d="M129.5,147.6c-22.3-5.9-44.5-12.1-66.7-18.2c-22.4-6.2-44.8-12.2-67.4-17.4c-0.7-0.2-1.4-0.3-2.1-0.5
			c-2.6,4.1-5.2,8.3-8,12.7C-26.2,142-32,143.9-40.7,153.3s-10.9,28-14.9,41.7c-4,13.8-13.3,25.3-13.3,25.3
			c-6.1,13.1,28.9,3.7,51.5-0.8s33.5-12.2,40-16.2s46.8-18.3,62-25.2c15.2-7,60.4-14.6,77.6-21.3c0.2-0.1,0.4-0.2,0.7-0.3
			C151.7,153.5,140.6,150.5,129.5,147.6z"/>
		<path class="st1" d="M129.9,147.7c-77.4,12.6-119.9,57.2-155,68c-24.4,7.5-43.8,4.6-43.8,4.6c-6.1,13.1,28.9,3.7,51.5-0.8
			s33.5-12.2,40-16.2s46.8-18.3,62-25.2c15.2-7,60.4-14.6,77.6-21.3c0.2-0.1,0.4-0.2,0.7-0.3C151.9,153.5,140.9,150.6,129.9,147.7z"
			/>
		<path class="st1" d="M120.9,145.2c0.1,0.2,0.1,0.4,0.2,0.7c2.8,11.8-12.3,24.4-8.6,23.6c3.5-0.8,16.1-7.8,13-23
			C124,146.1,122.4,145.7,120.9,145.2z"/>
		<path class="st1" d="M8.1,188.4c-2.8-24.9-15-37.5-18.7-36.6S1.5,158,1.8,193.4c0.1,12.1-12.3,24.4-8.6,23.6
			C-3,216.1,10.2,206.5,8.1,188.4z"/>
		<path class="st1" d="M33.2,134c9,12.8,1.6,23.2-0.3,24.3c-1.9,1.1,4.1-12.8-3.5-22.7c-4.8-6.4-18.8-10.4-16.9-11.6
			S28.6,127.4,33.2,134z"/>
		<path class="st1" d="M-40.1,190.7c7.3,8,6.6,20.2,4.1,20.6c-2.5,0.4-1.8-11.9-6.7-17.2s-10.6-3.4-10.8-4.4S-47.3,182.7-40.1,190.7
			z"/>
		<path class="st2" d="M129.5,147.6c-9.9-2.6-19.8-5.3-29.7-8c-62.8,17-94.3,57.4-126.3,67.3c-24.4,7.5-42.4,13.5-42.4,13.5
			c-6.1,13.1,28.9,3.7,51.5-0.8s33.5-12.2,40-16.2s46.8-18.3,62-25.2c15.2-7,60.4-14.6,77.6-21.3c0.2-0.1,0.4-0.2,0.7-0.3
			C151.7,153.5,140.6,150.5,129.5,147.6z"/>
		<ellipse transform="matrix(0.8897 -0.4565 0.4565 0.8897 -64.4362 22.8942)" class="st1" cx="15.2" cy="144.8" rx="4.5" ry="3"/>
		<ellipse transform="matrix(0.8897 -0.4565 0.4565 0.8897 -72.6099 22.1087)" class="st1" cx="9.5" cy="161.4" rx="2.6" ry="1.6"/>
		<ellipse transform="matrix(0.7505 -0.6609 0.6609 0.7505 -137.2959 31.643)" class="st1" cx="-26.7" cy="197.6" rx="4.5" ry="3"/>
	</g>
	<path class="st4" d="M162.2,157.3c-4,5.3-55.6,0-89.4-9.2C26,135.5-9.5,121.5-6.9,111.5c2.1-8.1,44.3-3,89.5,8.3
		C129.7,131.6,168.6,149,162.2,157.3z"/>
	<path class="st5" d="M156.8,155.1c-3.7,4.7-51.4-0.5-82.8-9C30.6,134.2-2.4,121.3,0,112.3c1.9-7.3,41-2.3,82.9,8.3
		C126.5,131.6,162.6,147.7,156.8,155.1z"/>
	<path class="st6" d="M144.7,151.8c-2.9,3.4-43.6-2.2-70.4-9.6c-37.2-10.3-65.6-21.1-63.9-27.7c1.3-5.4,34.6-0.2,70.5,9.1
		C118.3,133.3,149.4,146.5,144.7,151.8z"/>
</g>
</svg>
