<?xml version="1.0" encoding="utf-8"?>
<!-- Generator: Adobe Illustrator 25.2.1, SVG Export Plug-In . SVG Version: 6.00 Build 0)  -->
<svg version="1.1" id="Layer_2" xmlns="http://www.w3.org/2000/svg" xmlns:xlink="http://www.w3.org/1999/xlink" x="0px" y="0px"
	 viewBox="0 0 200 200" style="enable-background:new 0 0 200 200;" xml:space="preserve">
<style type="text/css">
	.st0{fill:#F2EBCF;}
	.st1{fill:#EDDDBB;}
	.st2{fill:#DCD1BB;}
	.st3{fill:#D3C2A5;}
</style>
<g>
	<path class="st0" d="M125.3,21.1L90.6,20c2.7,5.9,5.4,11.7,8,17.6c4.8,10.6,9.6,21.3,14.5,31.9c4.9,10.6,10.1,21,15.2,31.5
		c2.4,5.1,4.9,10.1,7.3,15.2l52.6,1.7l14.4-55.1L125.3,21.1z"/>
	<path class="st1" d="M108.4,59.2c1.6,3.4,3.2,6.9,4.8,10.3c4.9,10.6,10.1,21,15.2,31.5c2.4,5.1,4.9,10.1,7.3,15.2l52.6,1.7
		l14.4-55.1L108.4,59.2z"/>
	<ellipse transform="matrix(0.2536 -0.9673 0.9673 0.2536 52.0589 127.5939)" class="st2" cx="108.7" cy="30.1" rx="1.6" ry="3.8"/>
	<ellipse transform="matrix(0.2536 -0.9673 0.9673 0.2536 41.4554 151.6267)" class="st2" cx="119" cy="49" rx="0.9" ry="2.8"/>
	<path class="st2" d="M117.3,29.4c0,0-0.7-0.2-1.5-0.4c-0.8-0.2-1.5-0.4-1.5-0.4s0.7,0.2,1.5,0.4C116.6,29.2,117.3,29.4,117.3,29.4z
		"/>
	<ellipse transform="matrix(0.2536 -0.9673 0.9673 0.2536 53.7734 138.5081)" class="st2" cx="116.6" cy="34.4" rx="0.6" ry="1.9"/>
	<ellipse transform="matrix(0.2536 -0.9673 0.9673 0.2536 61.1631 187.3443)" class="st2" cx="152" cy="54" rx="1.3" ry="2.2"/>
	<ellipse transform="matrix(0.2536 -0.9673 0.9673 0.2536 66.886 189.0767)" class="st2" cx="156" cy="51.2" rx="0.6" ry="1.6"/>
	<path class="st2" d="M111.9,66.8c0.2-0.2,0.3-0.5,0.4-0.8c0.2-0.8,0-1.6-0.5-1.8c-0.3-0.1-0.6,0.1-0.9,0.4
		C111.2,65.3,111.5,66.1,111.9,66.8z"/>
	<ellipse transform="matrix(0.2536 -0.9673 0.9673 0.2536 15.057 178.6105)" class="st2" cx="123.3" cy="79.5" rx="2.5" ry="0.9"/>
	
		<ellipse transform="matrix(0.2536 -0.9673 0.9673 0.2536 19.5613 232.4109)" class="st2" cx="160.4" cy="103.5" rx="2.5" ry="1.6"/>
	<ellipse transform="matrix(0.2536 -0.9673 0.9673 0.2536 26.7896 234.7526)" class="st2" cx="165.5" cy="100" rx="1.6" ry="0.6"/>
	<ellipse transform="matrix(0.193 -0.9812 0.9812 0.193 76.1954 238.3579)" class="st2" cx="183" cy="72.9" rx="2.8" ry="1.9"/>
	<ellipse transform="matrix(0.2536 -0.9673 0.9673 0.2536 53.4927 219.2804)" class="st2" cx="168.8" cy="75" rx="1.6" ry="0.6"/>
</g>
<g>
	<path class="st0" d="M76.5,98.2c-13-11-25.9-22.2-38.9-33.1l-51.5,22l9.5,55.6l83.4,7.6l40-17.2C104.9,121.5,90.6,110.1,76.5,98.2z
		"/>
	<polygon class="st3" points="-13.8,87.1 68.9,93.6 79.1,150.3 -4.3,142.7 	"/>
	<path class="st1" d="M76.5,98.2c-2-1.7-4.1-3.5-6.1-5.2l-1.5,0.6l10.2,56.7l40-17.2C104.9,121.5,90.6,110.1,76.5,98.2z"/>
	<ellipse transform="matrix(0.9837 -0.1798 0.1798 0.9837 -15.0691 2.2854)" class="st2" cx="5.1" cy="84.3" rx="2.8" ry="0.9"/>
	<ellipse transform="matrix(0.9837 -0.1798 0.1798 0.9837 -14.9293 3.6579)" class="st2" cx="12.7" cy="84.2" rx="1.6" ry="0.6"/>
	<path class="st2" d="M89.8,109.2c0,0.4,0,0.8,0.1,1.3c0.2,1.2,0.8,2.1,1.3,2c0.4-0.1,0.6-0.8,0.6-1.7
		C91.1,110.3,90.4,109.8,89.8,109.2z"/>
	<ellipse transform="matrix(0.9837 -0.1798 0.1798 0.9837 -23.6984 17.3116)" class="st2" cx="83.6" cy="139.4" rx="1.3" ry="2.5"/>
	<ellipse transform="matrix(0.9837 -0.1798 0.1798 0.9837 -21.48 12.4083)" class="st2" cx="57.7" cy="124.7" rx="0.9" ry="2.8"/>
	<ellipse transform="matrix(0.9837 -0.1798 0.1798 0.9837 -19.526 4.2315)" class="st2" cx="13.6" cy="109.8" rx="0.9" ry="1.6"/>
	<ellipse transform="matrix(0.9837 -0.1798 0.1798 0.9837 -18.6828 9.1642)" class="st2" cx="41.2" cy="107.6" rx="0.9" ry="2.5"/>
	<ellipse transform="matrix(0.9837 -0.1798 0.1798 0.9837 -23.9417 2.2885)" class="st2" cx="0.7" cy="133.2" rx="0.9" ry="2.8"/>
	<ellipse transform="matrix(0.9837 -0.1798 0.1798 0.9837 -23.1664 2.5427)" class="st2" cx="2.4" cy="129" rx="0.3" ry="1.6"/>
	<ellipse transform="matrix(0.9837 -0.1798 0.1798 0.9837 -18.9393 1.4847)" class="st2" cx="-1.3" cy="105.2" rx="0.9" ry="1.9"/>
	<ellipse transform="matrix(0.9837 -0.1798 0.1798 0.9837 -24.4378 15.2859)" class="st2" cx="72.1" cy="142.4" rx="1.3" ry="2.2"/>
	<ellipse transform="matrix(0.9837 -0.1798 0.1798 0.9837 -23.9202 14.6135)" class="st2" cx="68.6" cy="139.2" rx="0.9" ry="1.6"/>
	<ellipse transform="matrix(0.9837 -0.1798 0.1798 0.9837 -18.062 9.2852)" class="st2" cx="42.2" cy="104.3" rx="0.6" ry="1.3"/>
	<ellipse transform="matrix(0.9837 -0.1798 0.1798 0.9837 -21.7872 7.5026)" class="st2" cx="30.5" cy="123.9" rx="1.3" ry="2.2"/>
	<ellipse transform="matrix(0.9837 -0.1798 0.1798 0.9837 -14.9243 10.644)" class="st2" cx="51.2" cy="87.6" rx="2.5" ry="1.6"/>
</g>
</svg>
