<?xml version="1.0" encoding="utf-8"?>
<!-- Generator: Adobe Illustrator 25.2.1, SVG Export Plug-In . SVG Version: 6.00 Build 0)  -->
<svg version="1.1" id="Layer_3" xmlns="http://www.w3.org/2000/svg" xmlns:xlink="http://www.w3.org/1999/xlink" x="0px" y="0px"
	 viewBox="0 0 200 200" style="enable-background:new 0 0 200 200;" xml:space="preserve">
<style type="text/css">
	.st0{fill:#F2EBCF;}
	.st1{fill:#D3C2A5;}
	.st2{fill:#EDDDBB;}
	.st3{fill:#DCD1BB;}
</style>
<g>
	<polygon class="st0" points="2.5,77.7 100.7,55.4 193,77.7 193,139.2 89,162.9 1.8,138.6 	"/>
	<polygon class="st1" points="2.5,77.7 89.2,100.7 89,162.9 1.8,138.6 	"/>
	<polygon class="st2" points="193,77.7 193,139.2 89,162.9 89.2,100.7 	"/>
	<ellipse class="st3" cx="85.8" cy="69.2" rx="4.1" ry="1.7"/>
	<ellipse class="st3" cx="101.7" cy="86.2" rx="3" ry="1"/>
	<ellipse class="st3" cx="23.2" cy="78.3" rx="3" ry="1"/>
	<ellipse class="st3" cx="31.3" cy="79.7" rx="1.7" ry="0.7"/>
	<path class="st3" d="M94.6,66.2c0,0-0.8,0-1.7,0s-1.7,0-1.7,0s0.8,0,1.7,0S94.6,66.2,94.6,66.2z"/>
	<ellipse class="st3" cx="95.3" cy="71.6" rx="2" ry="0.7"/>
	<ellipse class="st3" cx="137.6" cy="82.4" rx="2.4" ry="1.4"/>
	<ellipse class="st3" cx="141" cy="78.4" rx="1.7" ry="0.7"/>
	<ellipse class="st3" cx="98.3" cy="105.8" rx="1" ry="1.7"/>
	<ellipse class="st3" cx="114.6" cy="117" rx="1" ry="2.7"/>
	<ellipse class="st3" cx="109.2" cy="122.7" rx="1" ry="2.4"/>
	<ellipse class="st3" cx="160" cy="131.9" rx="1.7" ry="2.7"/>
	<ellipse class="st3" cx="164.4" cy="126.8" rx="0.7" ry="1.7"/>
	
		<ellipse transform="matrix(0.9981 -6.219243e-02 6.219243e-02 0.9981 -5.4833 11.0768)" class="st3" cx="175.2" cy="93.6" rx="2" ry="3"/>
	<ellipse class="st3" cx="161" cy="99.7" rx="0.7" ry="1.7"/>
	<ellipse class="st3" cx="96" cy="152.2" rx="1.4" ry="2.7"/>
	<ellipse class="st3" cx="71.3" cy="131.5" rx="1" ry="3"/>
	<ellipse class="st3" cx="27.2" cy="107.2" rx="1" ry="1.7"/>
	<ellipse class="st3" cx="57" cy="110.2" rx="1" ry="2.7"/>
	<ellipse class="st3" cx="9" cy="129.5" rx="1" ry="3"/>
	<ellipse class="st3" cx="11.7" cy="125.4" rx="0.3" ry="1.7"/>
	<ellipse class="st3" cx="12.3" cy="99.4" rx="1" ry="2"/>
	<ellipse class="st3" cx="83.1" cy="153.2" rx="1.4" ry="2.4"/>
	<ellipse class="st3" cx="80.1" cy="149.1" rx="1" ry="1.7"/>
	<ellipse class="st3" cx="58.7" cy="106.8" rx="0.7" ry="1.4"/>
	<ellipse class="st3" cx="42.5" cy="125.4" rx="1.4" ry="2.4"/>
	<ellipse class="st3" cx="71.6" cy="90.9" rx="2.7" ry="1.7"/>
</g>
</svg>
