<?xml version="1.0" encoding="utf-8"?>
<!-- Generator: Adobe Illustrator 25.2.1, SVG Export Plug-In . SVG Version: 6.00 Build 0)  -->
<svg version="1.1" id="Layer_2" xmlns="http://www.w3.org/2000/svg" xmlns:xlink="http://www.w3.org/1999/xlink" x="0px" y="0px"
	 viewBox="0 0 200 200" style="enable-background:new 0 0 200 200;" xml:space="preserve">
<style type="text/css">
	.st0{fill:#D3862A;}
	.st1{fill:#F7CA86;}
	.st2{opacity:0.5;fill:#E0A65A;}
	.st3{fill:#EFBB6F;}
	.st4{fill:#E0A65A;}
	.st5{fill:#D68F30;}
	.st6{fill:#C68220;}
	.st7{fill:#9B5F18;}
	.st8{fill:#7A4909;}
	.st9{fill:#5B2E02;}
	.st10{fill:#A56416;}
	.st11{fill:#DDA862;}
	.st12{fill:#DB8F2A;}
</style>
<path class="st0" d="M153.3,36c0,0,2.5-1.4,5-2.5c2.5-1,4.2-0.5,5.6,0.8s4,2.5,6,2.6c2,0,6.7-0.5,9.4,0.9s5.5,5.3,6.9,5.1
	c1.4-0.2,3.5-1.2,5-1c3.1,0.3,1.7,1.1,5.2,2.4c3.5,1.3,11.5,3,12.4,4.2c1,1.2,2.6,4.5,0.6,4.8c-2,0.3-26.5-5.2-29.8-7
	s-29-7.3-29.3-8S153.3,36,153.3,36z"/>
<path class="st1" d="M153.6,36.7c0,0,2.5-1.4,5-2.5c2.5-1,4.2-0.5,5.6,0.8s4,2.5,6,2.6c2,0,6.7-0.5,9.4,0.9s5.5,5.3,6.9,5.1
	c1.4-0.2,3.5-1.2,5-1c3.1,0.3,1.7,1.1,5.2,2.4s11.5,3,12.4,4.2s2.6,4.5,0.6,4.8c-2,0.3-22.6-3.4-28.9-8.3
	c-1.8-1.4-13.3-1.3-20.7-3.4c-4.7-1.4-10.2-3.9-9.9-4.1C151.2,37.8,153.6,36.7,153.6,36.7z"/>
<path class="st2" d="M154.9,37c1.7-0.8,3.4-0.8,5.7-1.7c2.3-0.9,2.9,0.3,4.2,1.5s4.6,1.6,6.4,1.6c1.8,0,6.1-0.5,8.6,0.8
	c2.4,1.3,5,4.8,6.3,4.6c1.2-0.2,4.5-0.6,5.8-0.5c2.9,0.3,0.3,0.5,3.5,1.8c3.2,1.2,12.5,3.2,13.3,4.3s2.6,3.6,0.8,3.9
	c-1.8,0.3-22.4-4.2-28.1-8.7c-1.6-1.3-12.8-1.2-19.5-3.1c-4.3-1.3-8.2-1.9-8.9-2.6C152.4,38.1,153.2,37.7,154.9,37z"/>
<path class="st2" d="M159.5,38.4c1.4-0.6,2.9-0.7,4.8-1.4s2.4,0.3,3.5,1.2s3.8,1.3,5.3,1.3c1.5,0,5.1-0.4,7.1,0.7
	c2,1.1,4.2,4,5.2,3.8c1-0.2,3.7-0.5,4.8-0.4c2.4,0.2,0.2,0.5,2.9,1.5s10.3,2.6,11.1,3.6s2.1,3,0.7,3.3s-18.5-3.5-23.3-7.2
	c-1.4-1.1-10.6-1-16.2-2.6c-3.6-1-6.8-1.6-7.3-2.2C157.4,39.4,158.1,39,159.5,38.4z"/>
<path class="st0" d="M76,173c0,0,2.8,1.6,5.5,2.6c2.8,1,4.7,0.2,6.3-1.5c1.6-1.7,4.7-3.5,6.9-3.7c2.2-0.2,7.6,0,10.6-2
	c3.1-2,6.4-7.1,8-6.9c1.5,0.2,3.9,1.2,5.6,0.9c3.5-0.6,2-1.5,6-3.5s13-4.7,14.2-6.3c1.2-1.6,3.1-5.8,0.9-6.1
	c-2.2-0.2-30.1,8.8-33.9,11.4c-3.9,2.6-33,11.7-33.4,12.6C72.4,171.4,76,173,76,173z"/>
<path class="st1" d="M76.4,172.1c0,0,2.8,1.6,5.5,2.6s4.7,0.2,6.3-1.5c1.6-1.7,4.7-3.5,6.9-3.7c2.2-0.2,7.6,0,10.6-2
	c3.1-2,6.4-7.1,8-6.9s3.9,1.2,5.6,0.9c3.5-0.6,2-1.5,6-3.5c4-2,13-4.7,14.2-6.3c1.2-1.6,3.1-5.8,0.9-6.1
	c-2.2-0.2-25.7,6.2-32.9,12.9c-2.1,1.9-15.1,2.8-23.4,6.1c-5.4,2.1-11.7,5.8-11.3,6C73.8,170.9,76.4,172.1,76.4,172.1z"/>
<path class="st2" d="M77.8,171.6c1.8,0.8,3.8,0.7,6.4,1.7c2.5,0.9,3.3-0.7,4.8-2.2c1.5-1.6,5.3-2.4,7.3-2.6c2-0.2,6.9,0,9.7-1.8
	s5.9-6.5,7.3-6.3c1.4,0.2,5,0.4,6.6,0.1c3.2-0.6,0.3-0.7,4-2.5c3.7-1.8,14.2-5.1,15.2-6.5c1.1-1.5,3.1-4.8,1.1-5
	c-2-0.2-25.4,7.2-32,13.3c-1.9,1.7-14.5,2.6-22.1,5.6c-4.9,1.9-9.3,3.1-10.1,4.1C75.1,170.4,76,170.8,77.8,171.6z"/>
<path class="st0" d="M56.3,168.3c0,0,3.2,0.3,6.1,0.2c3-0.2,4.4-1.7,5.2-3.9c0.8-2.2,2.9-5.1,4.8-6.2s6.9-3,9-6.1s3.1-9.1,4.5-9.5
	s4-0.5,5.5-1.5c3-2,1.2-2.2,4.1-5.6c2.9-3.4,10.1-9.6,10.5-11.5c0.4-1.9,0.5-6.6-1.6-5.9c-2.1,0.6-24,20.1-26.5,24.1
	s-25.5,23.9-25.5,24.9S56.3,168.3,56.3,168.3z"/>
<g>
	<path class="st3" d="M90.2,46c-0.9-2-2.6-1.7-3-4.1c-0.4-2.1,0.7-4,0.6-6.2c-0.2-4.3-3.2-7.9-6.9-9.8c-1.7-0.9-4.3-0.6-5.8-1.7
		c-1.6-1.2-1.9-4-3.4-5.5c-1.5-1.6-3.9-3-6.2-2.8c-2.3,0.2-2.8,1.3-4.7,2.7c-2.1-4.8-9.3-7-14-6.1c-2.8,0.5-6.6,2.2-8.8,4
		C37.6,17,33.8,22.8,35,23c-3.2-0.7-5.2-3.5-8.9-3.5c-0.9,0-1.7,0.2-2.5,0.5c0.8,0.6,1.7,1.3,2.5,2c4.6,3.8,8.8,8,13,12.2
		c4.3,4.4,8.7,8.8,12.8,13.4c4.7,5.3,9.1,10.8,13.6,16.2c1.2,1.4,2.3,2.8,3.5,4.1c0.4-0.7,0.8-1.5,1.8-2.1c2.1-1.2,4.9-0.1,7.2-0.9
		c2.6-0.9,4.8-3.3,6.4-5.4C86.8,56.4,92.2,50.4,90.2,46z"/>
	<path class="st4" d="M90.2,46c-0.9-2-2.6-1.7-3-4.1c-0.4-2.1,0.7-4,0.6-6.2c-0.1-2.4-1-4.5-2.5-6.3c-0.2,0.2-0.4,0.4-0.6,0.6
		c-3.4,2.7-8.3,2.6-11.5-0.5c-3.2-3-2.9-7.1-1.5-10.8c-1.5-1.6-3.9-3-6.2-2.8c-2.3,0.2-2.8,1.3-4.7,2.7c-0.9-2.1-2.8-3.7-5.1-4.8
		c0,0,0,0,0,0c1.4,2.4,2.8,5.7,1.5,8.4c-1.6,3.2-4.9,3-7.9,3.5c-3.6,0.7-7-1.3-8.3-4.8c-0.7-2-0.3-4.4,0.3-6.5
		c-1.2,0.6-2.4,1.3-3.3,2.1C37.6,17,33.8,22.8,35,23c-2.6-0.6-4.4-2.6-7.1-3.2c0.5,1.2,0.9,2.4,1,3.7c0,0.3,0,0.6-0.1,0.9
		c3.5,3.1,6.9,6.4,10.2,9.8c4.3,4.4,8.7,8.8,12.8,13.4c1,1.1,1.9,2.2,2.9,3.3c-0.2-0.9-0.4-1.9-0.5-2.7c-0.6-5.7,7.8,1.7,8.9,3
		c1.4,1.7,5.3,8.4,2.8,10.3c-0.6,0.5-1.6,0.3-2.6-0.2c0.7,0.8,1.4,1.6,2,2.5c1.2,1.4,2.3,2.8,3.5,4.1c0.4-0.7,0.8-1.5,1.8-2.1
		c2.1-1.2,4.9-0.1,7.2-0.9c2.6-0.9,4.8-3.3,6.4-5.4C86.8,56.4,92.2,50.4,90.2,46z M66.5,30.3c-0.7,3.5-8.8,4.3-9,0.5
		C57.2,25.8,67.4,25.4,66.5,30.3z M77.4,52c-0.1,0-0.3,0-0.4,0.1c-2.6,0.3-8-0.8-6.5-4.4c0.5-1.3,2.5-1.8,3.6-2.6
		c2.2-1.5,3.4-2.4,5.9-1.1c1.5,0.8,3.7,1.8,3.9,3.8C84.3,50.9,79.7,51.6,77.4,52z"/>
	<g>
		<path class="st5" d="M90.2,46c-0.8-1.7-2.1-1.8-2.8-3.2c0-0.1-0.1-0.2-0.1-0.3c0,0,0,0,0-0.1c0-0.1-0.1-0.3-0.1-0.5
			c0-0.1,0-0.3-0.1-0.4c0,0,0-0.1,0-0.1c0-0.1,0-0.2,0-0.2v-0.4c0-0.1,0-0.1,0-0.2c0,0,0-0.1,0-0.1c0-0.1,0-0.2,0-0.2
			c0,0,0-0.1,0-0.1c0-0.1,0-0.2,0-0.3c0-0.2,0.1-0.4,0.1-0.7c0.2-1.1,0.6-2.3,0.5-3.5c0-1.2-0.3-2.4-0.8-3.5c-0.2,0.4-0.4,0.7-0.7,1
			c-2.3,2.3-7,2.7-10.1,2.2c-2.9-0.4-5.4-2.7-8.5-1.9C66,34.1,65.3,35.2,63,35c-1.6-0.1-3.4-0.4-4.8-1c-1.9-0.7-2.2-1.5-3.6-2.9
			c-1.7-1.6-1.1-1.4-3.8-1.3c-6.9,0.3-12.3-4.2-14.8-10.1c-0.2,0.4-0.5,0.8-0.7,1.2v0c0,0,0,0.1,0,0.1c0,0.1-0.1,0.2-0.1,0.2
			c0,0,0,0.1,0,0.1c-0.1,0.1-0.1,0.2-0.1,0.3c0,0,0,0,0,0.1c0,0.1-0.1,0.2-0.1,0.2c0,0,0,0.1,0,0.1c0,0.1-0.1,0.2-0.1,0.3
			c0,0,0,0,0,0c0,0.1,0,0.1,0,0.2v0.1c0,0.1,0,0.1,0,0.2c0,0,0,0,0,0c0,0,0,0.1,0,0.1c0,0,0,0,0,0c0,0,0.1,0.1,0.1,0.1
			c-0.2,0-0.3-0.1-0.5-0.1c0,0-0.1,0-0.1,0c-0.1,0-0.3-0.1-0.4-0.1c0,0,0,0-0.1,0c-0.2-0.1-0.3-0.1-0.4-0.2c0,0,0,0,0,0
			c-0.2-0.1-0.3-0.1-0.5-0.2c0,0,0,0,0,0c-0.4-0.2-0.9-0.5-1.3-0.7c-0.1,1.7-0.1,3.4-0.5,4.9c2.2,2,4.3,4.1,6.4,6.2
			c0.3,0,0.7,0.1,1,0.1c2,1.6,3.9,3.6,4,4.4c0,0.2,0,0.4,0,0.6c1.9,2,3.8,4,5.7,6c0.6-0.1,1.1-0.1,1.8-0.2c3.3-0.1,6.5,1.4,9.6,1.9
			c2.9,0.5,6.6,1.5,9.6,0.3c2-0.8,3.5-2.4,5.5-3.2c0.5-0.2,1-0.3,1.4-0.3c0.8-0.3,1.6-0.5,2.4-0.6c1,0.2,2,0.4,2.9,0.8
			c7.2,2.7,3.3,11.7-3.5,11.6c-3,0-3.5-1.2-5.9-2.6c-2.4-1.4-4.5-1.3-7.3-1.1c1.7,2.1,3.6,2.9,4.1,5.9c0.3,1.6,0.6,6.9-0.7,8.2
			c-0.5,0.5-1.2,0.6-1.9,0.5c0.8,1,1.7,2,2.5,3c0.4-0.7,0.8-1.5,1.8-2.1c2.1-1.2,4.9-0.1,7.2-0.9c2.6-0.9,4.8-3.3,6.4-5.4
			C86.8,56.4,92.2,50.4,90.2,46z"/>
		<path class="st6" d="M69.9,30.9c1.4,0.1,2.5,0.8,3.9,0.7c-0.7-2-3.5-3.2-4.4-5.5c-1.4-3.4-0.8-6,0.2-8.6c0.1-0.1,0.1-0.3,0.2-0.4
			c-1.3-0.8-2.8-1.3-4.2-1.2c-2.3,0.2-2.8,1.3-4.7,2.7c-0.1-0.2-0.2-0.4-0.3-0.5c-0.2,2.4-0.7,5-2.4,6.6c-1.2,1.1-2.9,1.3-3.8,2.7
			c0.7-0.9,4.9-1.2,6.2-1.7c4.3-1.5,8.2,1.4,5.7,5.9C67.5,31.5,68.5,30.9,69.9,30.9z"/>
	</g>
	<path class="st7" d="M34.5,29.7c0.5,0.5,0.9,0.9,1.4,1.4c3.7-0.3,7.4-0.8,10.5,2.1c3.5,3.2,1.7,5.6-1,7.6c0.3,0.3,0.6,0.6,0.9,0.9
		c0.7-0.5,1.4-0.9,2-1.2c2.7-1.3,5-0.2,7.6,0.2c2.7,0.4,5.8,0,8.5,0c3.9,0,7.8,0.6,11.8,0.5c3.5-0.1,5-1.4,8.1-3.3
		c-2.9,1-7.2,1.1-10.3,0.8c-1.9-0.2-3.3-1.1-5.2-0.9c-4.5,0.5-6.4,3.1-11.4,1.7c-3.3-0.9-7.4-3-7.1-7c-3.9,0.2-10-2.8-12.9-5.2
		c-1.6-1.4-2.3-3.2-2.5-5.2c-0.2,0.5-0.2,0.9,0.1,1c-0.3-0.1-0.7-0.2-1-0.3C34.6,25.1,35.1,27.6,34.5,29.7z"/>
	<path class="st7" d="M68.5,28.5c-0.9-2.9-3.4-5-4.1-8.1c-0.4-1.5-0.3-2.9,0.1-4.3c-1.1,0.3-1.7,1-2.7,1.8c0,2.8,0.2,5.7-1.8,5.9
		C64.1,23.3,65.9,25.8,68.5,28.5z"/>
	<path class="st7" d="M75.6,60.8c1.1,0.5,2.3,0.8,3.3,0.8c3.7,0.2,6-4.3,7.9-6.9c1.9-2.7,3-7.2,0.6-9.8c0,1.7,0.2,3.6-0.4,5.2
		c-0.6,1.5-1.7,2.9-2.6,4.2c-1,1.4-1.4,2.8-2.9,3.7c-1.6,0.9-3.5,1-5.1,0.4c-0.6-0.3-4.2-2.5-3.9-3.4C71.4,57.8,73.3,59.8,75.6,60.8
		z"/>
	<path class="st8" d="M84.8,41c0.6,0.2,1.5,0.6,2.4,1c0,0,0-0.1,0-0.1c-0.4-2.1,0.7-4,0.6-6.2c0-1.1-0.3-2.2-0.7-3.2
		c-0.7,1.5-1.8,2.8-3.4,3.8c-2.7,1.7-5.5,3.1-8.3,4.4C78.9,40.7,81.2,39.9,84.8,41z"/>
	<path class="st9" d="M87.8,35.8c-1.9,1.8-4.9,3-7,3.8c-0.8,0.3-1.7,0.7-2.5,1c2.1-0.2,4-0.4,6.5,0.5c0.6,0.2,1.5,0.6,2.4,1
		c0,0,0-0.1,0-0.1C86.7,39.8,87.8,38,87.8,35.8z"/>
	<path class="st1" d="M44.1,22.8c1.9,1.8,5.7,2.8,7.9,1.3c2.2-1.5,2.8-4.7,1.6-7c-1.3-2.5-5.6-3.3-8.1-2.9
		C40.9,14.9,41.1,20,44.1,22.8z"/>
	<path class="st1" d="M62.3,31.7c3.3-0.5,2.9-2.9,0-3.8C58.4,26.8,58,32.3,62.3,31.7z"/>
	<path class="st1" d="M81,29.6c0.1-0.5-0.3-1.1-1.3-1.5c-1.5-0.7-2.6-0.6-3.9-1.7c-0.7-0.5-2.1-2.1-3.1-1.2c-1,0.9,1,3.2,1.6,3.8
		c1.2,1.3,3.1,2.3,4.9,1.8C80.2,30.6,80.8,30.1,81,29.6z"/>
	<path class="st1" d="M58.2,55.1c1.1,1.3,2.2,2.6,3.3,3.9c1.2,0.8,2.2,0.8,2.8,0.3c1-0.7,1.1-2.5-0.2-4.5c-1-1.5-2.6-2.6-3.8-3.9
		c-2.6-2.9-5.6-1.8-3.5,1.8C57.4,53.5,57.8,54.3,58.2,55.1z"/>
	<path class="st1" d="M81.3,48.3c0.1-3.9-7.9-4-8.3-0.5C72.5,51.8,81.3,51.8,81.3,48.3z"/>
</g>
<g>
	<path class="st3" d="M53.4,73.8c-5.7-3.8-11.4-7.7-17.3-11.3c-5-3.1-10.1-5.9-15.2-8.7C15.7,51,10.5,48.2,5,46
		c-0.9-0.4-1.8-0.7-2.7-1c-0.9,1-1.8,2.1-2.7,3.1c-2.1,2.2-3,2.6-6.2,2.9c-6.4,0.7-14.3,5.5-14.2,12.9c0,2.3,0.8,3.5-0.6,5.7
		c-1.2,1.8-3.4,2.5-4,4.7c-0.5,1.9-0.1,4,1,5.9c1.6,2.8,4,4.8,7.2,5.2c1,0.1,9.4-0.5,9.5-0.5c-2.1,6.3,0.6,9.6,6.4,11.8
		C4,98.6,10.2,99,15.5,98c5.5-1.1,7.3-6.4,12.8-6.4c5,0,9.3-0.8,14.3-2.5c2.9-1,4.7-2.8,7.1-4.7c2.2-1.7,2.5-3.4,4.1-5.2
		c2-2.1,3.6,0.1,5.9-0.7c0.2-0.1-0.4-2-0.3-2.1C57.1,74.9,55.6,75.3,53.4,73.8z"/>
	<path class="st4" d="M53.4,73.8c-3.2-2.1-6.4-4.3-9.6-6.4c1.1,2.6,2.9,8.3,1.8,9.6c-1.1,1.4-3.7,0.1-5,0.9
		c-1.2,0.7-1.7,2.2-3.2,2.9c-8,3.9-7.2-6.6-7.4-11.3c-0.1-3.1,0.1-5.4,3.6-6.4c0.9-0.2,1.8-0.3,2.8-0.3c-0.1-0.1-0.2-0.1-0.3-0.2
		c-4-2.4-8.1-4.7-12.1-7c0.6,2.3-1.3,5.7-3.3,6.9c-0.8,0.5-1.6,1-2.3,1.7c-1.6,1.4-2.9,3.1-4,5c-0.8,1.4-1,3.2-1.7,4.6
		c-0.9,1.7-2.1,4.9-3.9,5.7c-1.8,0.7-3.3-0.8-5.1-0.1C1.2,80.1-0.5,92.4-3.9,86c-1.7-3.3-0.5-9.4,2.4-11.6c2.5-1.9,2-1.6,2.6-4.7
		c0.3-1.5,1.1-3.9,2.2-5.1c2.2-2.3,5.8-0.5,8.4-1.4c3.3-1.1,1.7-4.3,3.3-6.9c1.1-1.7,2.7-3,4.6-3.1c-2.9-1.6-5.9-3.1-8.8-4.6
		c-0.3,1.8-1.2,3.6-2.9,4.2c-3,1.2-4.6-2.3-4.9-4.8C3,47.1,3,46.1,3,45.2c-0.2-0.1-0.4-0.2-0.6-0.2c-0.9,1-1.8,2.1-2.7,3.1
		c-2.1,2.2-3,2.6-6.2,2.9c-3.3,0.4-6.9,1.8-9.7,4.1c6.1-2.1,14.2-1.4,10.6,6.9c-1.2,2.9-5,6.3-8.1,6.8c-2.8,0.4-4.4-1.5-6.1-3.3
		c-0.1-0.1-0.4-0.6-0.8-1.2c0.1,2,0.7,3.2-0.6,5.3c-0.3,0.4-0.6,0.8-0.9,1.1c0.6,0.2,1.1,0.5,1.5,0.9c1.3,1.1,2.7,4.1,0,4.4
		c-1.3,0.2-3.1-0.7-4-1.7c-0.2-0.2-0.3-0.4-0.4-0.7c-0.1,0.2-0.2,0.4-0.3,0.7c-0.5,1.9-0.1,4,1,5.9c1.6,2.8,4,4.8,7.2,5.2
		c1,0.1,9.4-0.5,9.5-0.5c-2.1,6.3,0.6,9.6,6.4,11.8C4,98.6,10.2,99,15.5,98c5.5-1.1,7.3-6.4,12.8-6.4c5,0,9.3-0.8,14.3-2.5
		c2.9-1,4.7-2.8,7.1-4.7c2.2-1.7,2.5-3.4,4.1-5.2c2-2.1,3.6,0.1,5.9-0.7c0.2-0.1-0.4-2-0.3-2.1C57.1,74.9,55.6,75.3,53.4,73.8z
		 M22.7,84.5c-0.2,4.4-8,6.7-11.5,7.5c-3.4,0.8-8.3,1-6-3.9c1-2.1,3.4-3,5.4-4C13.4,82.7,23,77.9,22.7,84.5z"/>
	<g>
		<path class="st5" d="M-7.6,79.9c1.7-5,5.1-9.9,8.2-14.2c1.5-2,1.9-3.7,4.3-4.7c1.6-0.7,4.8-0.3,6-1.1c1.3-0.9,0.7-3,1.3-4.4
			c0.9-1.9,3-2.9,5.2-3.6c-1.4-0.7-2.8-1.5-4.1-2.2c-0.4,1.3-1.3,2.6-3,3.6c-6.6,4-10-0.2-9.9-6.3c-0.3,0.3-0.5,0.6-0.8,0.9
			c-1.4,1.4-2.2,2.1-3.6,2.5c2.3,2.6,4,5.6,3.5,9.3c-0.6,4.7-4.7,5.1-7.4,8.2c-1.3,1.5-1.4,3.4-3.6,3.8c-1.4,0.3-2.8-0.6-4.1-1.3
			c-2-1-3.5-2.9-5-4.5c0.1,0.9,0.1,1.7-0.3,2.6c0.3,0.3,0.7,0.5,1.1,0.8c1.9,1.2,4.6,3.6,3.4,6.2c-1.3,2.8-5.3,1.9-7.5,0.8
			c-0.6-0.3-1.1-0.6-1.7-1c-0.1,1.6,0.4,3.2,1.2,4.7c1.6,2.8,4,4.8,7.2,5.2c0.8,0.1,6.2-0.2,8.4-0.4C-8.2,83.1-8,81.3-7.6,79.9z"/>
		<path class="st5" d="M23.2,63.2c-2.8,2.2-6,5.2-7.8,8.5c-2.4,4.5-2.6,6.4-7,9.3c-2.9,2-6.5,5.2-6.7,9c4.6-5.8,8.9-8.3,15.9-10.7
			c4.1-1.4,8.2-2.6,9.4-7.2c1.2-4.7,2-9,5.4-11.9c-1.6-0.9-3.2-1.8-4.8-2.7C26.8,59.8,24.8,62,23.2,63.2z"/>
		<path class="st5" d="M53.4,73.8c-2.1-1.4-4.2-2.8-6.3-4.2c-0.5-0.1-1-0.2-1.4-0.1c2,2,4,7.7,1.8,10.2c-1.2,1.4-3.6,1.1-5.1,2
			c-1.7,1-1.7,2.2-2.8,3.7c-5.5,7.5-12.1-2.2-14.8-7c-1.2,9.2-5.6,14.8-14.9,15.1C5.5,93.7-1,94.4-4.1,91c-1.8-2-3-4.9-3.5-7.8
			c0,0.1-0.1,0.2-0.1,0.4c0,0.4-0.1,0.7-0.2,1.1c0,0.1-0.1,0.1-0.1,0.2c0.3,0,0.4,0,0.4,0c-2.1,6.3,0.6,9.6,6.4,11.8
			C4,98.6,10.2,99,15.5,98c5.5-1.1,7.3-6.4,12.8-6.4c5,0,9.3-0.8,14.3-2.5c2.9-1,4.7-2.8,7.1-4.7c2.2-1.7,2.5-3.4,4.1-5.2
			c2-2.1,3.6,0.1,5.9-0.7c0.2-0.1-0.4-2-0.3-2.1C57.1,74.9,55.6,75.3,53.4,73.8z"/>
	</g>
	<path class="st7" d="M29.6,58.7c-0.1,0.2-0.3,0.3-0.4,0.5c-2.7,3.1-6.7,6.5-8.6,10.2c-1,2-0.3,4-1.6,5.7c-1.4,1.9-4.4,2.3-5,4.8
		c2.1-2,4.2-3.1,6.5-4.6c2.9-2,0.6-3,2-5.8c1.3-2.6,4.4-5.3,6.3-7.6c0.6-0.8,1.3-1.6,1.9-2.5C30.4,59.1,30,58.9,29.6,58.7z"/>
	<path class="st7" d="M9.9,55.8c-1.7,1.6-4.4,2.7-6.7,1.9c-2.6-0.9-2.9-4.2-4.5-6.2c0.8,2.5,2.4,5.3,2,8c-0.3,2-1.9,3.6-2.4,5.5
		c2-1.3,3.3-3.3,5.2-4.7c0.9-0.6,1.8-1.1,2.9-1.4c0.3-0.1,3.3-0.5,3.3-0.8C9.7,57.4,9.6,56.6,9.9,55.8z"/>
	<path class="st7" d="M-16.4,71.3c0.1,0.4,1.7,1.5,2.1,2c0.6,0.7,0.9,1.1,0.9,2.1c-0.1,1.9-1.6,3.4-3,4.5c-2.3,1.8-7.7,1.3-8.2-2.2
		c0.1,0.8,3.7,1.6,4.3,1.8c1.5,0.3,2.4,0.3,3.6-0.9C-14.4,76.3-15.6,73.8-16.4,71.3z"/>
	<path class="st7" d="M55.1,74.9c-0.5-0.1-0.9-0.2-1-0.2c-2-0.8-3.7-2.4-5.7-3.1c1.1,1.2,1.8,2.6,3.2,3.5c1.2,0.8,2.6,1.5,3.9,2
		c0.8,0.3,2.1,0.5,3.3,0.3C57.5,76.6,56.3,75.7,55.1,74.9z"/>
	<path class="st7" d="M44.4,85.7c-1.6,1.6-3,3.8-5.3,4.4c-2.5,0.6-5.7,0.4-8.1-0.2c-1-0.3-2-0.3-2.7-1.2c-1.2-1.4-1.7-4.2-2.3-6
		c2.2,2.3,4.7,4.8,7.8,5.8c3.1,1,6.9-0.3,8.8-2.9c0.4-0.6,0.5-1.9,1.1-2.1c1.4-0.5,1.6,1.2,3.2,0c1.1-0.8,2.1-2,2.6-3.3
		c0.3,1,0.3,2.8-0.6,3.6C47.9,84.8,45.7,84.4,44.4,85.7z"/>
	<path class="st7" d="M15.5,94.3c1.8-0.5,3.4-1.3,4.5-2.6c1.2-1.4,1.8-2.9,2.7-4.4c0.6,3-1.9,6.1-4.2,7.5c-2.1,1.3-3.9,2.6-6.5,2.7
		c-3.2,0.2-6.8,0-9.9-0.9c-1.4-0.4-1.9-1.2-3-2c3.6,1.1,7.4,1.1,11.1,0.5C11.9,95,13.8,94.8,15.5,94.3z"/>
	<path class="st10" d="M-6.9,80.2c0.9-4.7,4.7-8.4,6.2-13.1c-2.1,2.2-5.9,2.2-8.2,4c-2.3,1.7-3,5.1-4.9,7.1
		c-2.1,2.1-5.6,4.1-8.7,4.1c1.5,1.6,3.4,2.7,5.6,2.9c1,0.1,9.4-0.5,9.5-0.5C-7.5,84.8-7.4,82.5-6.9,80.2z"/>
	<path class="st8" d="M-1.7,68c-0.3,0.3-0.6,0.5-1,0.7c-2.8,1-5.1,4.8-6.7,7.1c-1.9,2.8-3.9,6.5-7,8.2c-0.8,0.4-1.6,0.7-2.3,0.9
		c0.6,0.2,1.2,0.4,1.9,0.4c1,0.1,9.4-0.5,9.5-0.5c0,0,0.1-2.3,0.6-4.5c0.9-4.7,4.7-8.4,6.2-13.1C-1,67.5-1.4,67.7-1.7,68z"/>
	<path class="st9" d="M-4.4,70.4c-0.4,0.6-0.7,1.1-1,1.5c-1.1,1.9-1.6,4-2.3,6c-1.3,3.6-6.1,8.2-10.3,7.2c0.3,0.1,0.6,0.1,1,0.2
		c1,0.1,9.4-0.5,9.5-0.5c0,0,0.1-2.3,0.6-4.5c0.9-4.7,4.7-8.4,6.2-13.1c-0.5,0.5-1.1,1-1.8,1.3C-3.2,68.8-3.8,69.6-4.4,70.4z"/>
	<path class="st1" d="M-8.2,59.1c-2.6-5.3-13-1.8-10.4,3.9C-16,68.9-5.2,65.2-8.2,59.1z"/>
	<path class="st1" d="M5,46c0,0-0.1,0-0.1,0c-0.3,0.6-0.5,1.2-0.5,1.8c-0.3,4.6,4.8,3.9,5.8,0.6C8.6,47.5,6.8,46.7,5,46z"/>
	<path class="st1" d="M5.2,76.8c0.7,0.3,0.4,1.1,1.3,1.8c2.2,1.5,4.4-2,5.1-3.7c0.7-1.7,0.4-3.4-0.2-5.1c-1.3-3.7-6.8-6.8-8.6-1.6
		c-0.7,2.1,1.6,6.6-1.2,7.9c-0.9,0.4-1.2-0.8-2-0.5c-2,0.5-3.4,4.3-1.6,5.8c1,0.8,2.1,0.4,2.9-0.6c1.2-1.5,0.5-3.7,3.3-4
		C4.6,76.7,5,76.8,5.2,76.8z"/>
	<path class="st1" d="M18.9,61.9c2-1,3.8-2.9,3.3-4.6c-0.5-1.7-1.4-2.4-3.1-2c-1.8,0.5-4.1,3.7-4.4,5.5C14.4,63.1,16.7,63,18.9,61.9
		z"/>
	<path class="st1" d="M37.6,74.5c0.4-0.7,1-1,2.8-0.4c0.8,0.3,2.3,1.3,3.1,0.7c3-2.3-3.9-12.1-7.5-10.9c-4.5,1.5-4.4,5.8-4.1,9.9
		c0.2,2.3,0.1,5.9,3.3,4.3C36.9,77.1,37,75.5,37.6,74.5z"/>
	<path class="st1" d="M15.7,88.4c0.5-0.2,1-0.5,1.4-0.9c2.3-1.8,1.1-4.2-1.7-4c-1.8,0.1-6.9,2.3-6.8,4.5c0,1.9,1.3,1.9,2.9,1.6
		C12.9,89.4,14.4,89.1,15.7,88.4z"/>
</g>
<g>
	<path class="st11" d="M161.4,171.1c-0.7-2.2-2.9-2.8-4.1-4.7c-1.4-2.1-0.7-3.4-0.6-5.6c0-7.4-7.9-12.1-14.4-12.7
		c-1.5-0.1-2.5-0.3-3.3-0.6c-4.2,1.4-8.3,2.9-12.5,4.4c-15.7,5.6-31.2,11.7-46.7,17.8c-2.1,0.8-4.1,1.6-6.2,2.4
		c1.4,1.7,0.4,3.7,3,4.7c2.2,0.8,3.9-1.4,5.9,0.7c1.7,1.8,2,3.4,4.2,5.1c2.4,1.8,4.3,3.6,7.2,4.6c5,1.7,9.4,2.4,14.4,2.3
		c5.4,0,7.4,5.2,12.9,6.2c5.3,1,11.5,0.4,16.5-1.6c5.8-2.4,8.4-5.7,6.2-11.9c0,0.1,8.5,0.5,9.5,0.4c3.2-0.5,5.6-2.5,7.2-5.3
		C161.5,175.1,162,173,161.4,171.1z"/>
	<path class="st2" d="M161.4,171.1c-0.1-0.2-0.2-0.5-0.3-0.7c-0.1,0.2-0.2,0.5-0.4,0.7c-0.8,1-2.7,1.9-4,1.7c-2.6-0.3-1.3-3.3,0-4.4
		c0.4-0.4,1-0.7,1.5-0.9c-0.3-0.3-0.7-0.7-0.9-1.1c-1.3-2-0.7-3.2-0.7-5.3c-0.4,0.6-0.7,1.1-0.8,1.2c-1.7,1.9-3.3,3.7-6.1,3.4
		c-3.1-0.4-7-3.8-8.2-6.7c-3.7-8.3,4.4-9.1,10.5-7.1c-2.8-2.2-6.5-3.6-9.8-3.9c-1.5-0.1-2.5-0.3-3.3-0.6c-4.2,1.4-8.3,2.9-12.5,4.4
		c-1.9,0.7-3.8,1.4-5.6,2.1c1.6,2.5,0.1,5.7,3.4,6.7c2.7,0.9,6.2-1,8.5,1.3c1.1,1.2,1.9,3.5,2.3,5c0.7,3.1,0.2,2.8,2.7,4.6
		c2.9,2.2,4.2,8.2,2.6,11.6c-3.3,6.5-5.2-5.7-7.6-6.6c-1.8-0.6-3.3,0.9-5.1,0.2c-1.9-0.8-3.1-3.9-4-5.6c-0.8-1.4-0.9-3.2-1.8-4.6
		c-1.2-1.9-2.5-3.5-4.1-4.9c-0.7-0.6-1.5-1.1-2.3-1.6c-1-0.6-2.1-1.8-2.8-3.1c-3.4,1.3-6.8,2.6-10.2,3.9c3.4,0.9,3.7,3.2,3.6,6.3
		c-0.1,4.7,0.9,15.2-7.2,11.4c-1.5-0.7-2-2.1-3.2-2.8c-1.3-0.7-3.9,0.6-5-0.8c-1.2-1.4,1-8.3,2-10.3c-1,0.4-1.9,0.7-2.9,1.1
		c-0.6,0.5-1.3,1-2.1,1.3c-0.5,0.2-1.4,0.6-2.4,1.1c-1.7,0.8-3.7,1.5-5,1.4c-0.1,0.1-0.3,0.1-0.4,0.2c-2.1,0.8-4.1,1.6-6.2,2.4
		c1.4,1.7,0.4,3.7,3,4.7c2.2,0.8,3.9-1.4,5.9,0.7c1.7,1.8,2,3.4,4.2,5.1c2.4,1.8,4.3,3.6,7.2,4.6c5,1.7,9.4,2.4,14.4,2.3
		c5.4,0,7.4,5.2,12.9,6.2c5.3,1,11.5,0.4,16.5-1.6c5.8-2.4,8.4-5.7,6.2-11.9c0,0.1,8.5,0.5,9.5,0.4c3.2-0.5,5.6-2.5,7.2-5.3
		C161.5,175.1,162,173,161.4,171.1z M125.2,189.5c-3.5-0.8-11.3-2.9-11.6-7.3c-0.4-6.5,9.3-1.9,12.1-0.6c2,0.9,4.4,1.9,5.5,3.9
		C133.5,190.3,128.6,190.2,125.2,189.5z"/>
	<g>
		<path class="st0" d="M109.1,169.9c1.3,4.6,5.4,5.7,9.5,7c7.1,2.3,11.5,4.7,16.1,10.4c-0.2-3.7-3.9-7-6.8-8.9
			c-4.4-2.9-4.6-4.7-7.2-9.2c-1.8-3.3-5.1-6.2-7.9-8.4c-0.9-0.7-2-1.7-3-2.9c-1.6,0.6-3.2,1.2-4.7,1.8
			C107.3,162.5,108,166,109.1,169.9z"/>
		<path class="st0" d="M161.6,172.3c-0.5,0.4-1.1,0.7-1.6,1c-2.2,1.1-6.1,2-7.5-0.7c-1.3-2.6,1.4-4.9,3.3-6.2
			c0.4-0.3,0.7-0.5,1.1-0.8c-0.4-0.9-0.4-1.7-0.3-2.6c-1.5,1.7-2.9,3.5-4.9,4.6c-1.3,0.7-2.6,1.6-4.1,1.3c-2.2-0.4-2.4-2.3-3.6-3.7
			c-2.7-3.1-6.8-3.5-7.5-8.1c-0.6-3.7,1.1-6.7,3.3-9.3c-0.3-0.1-0.5-0.2-0.8-0.3c-1.5,0.5-2.9,1-4.4,1.5c-1.1,2.9-3.7,4.4-7.6,2.7
			c-0.2,0.1-0.3,0.1-0.5,0.2c-1,0.4-2,0.7-3,1.1c0,0,0.1,0.1,0.1,0.1c0.7,1.4,0.1,3.6,1.4,4.4c1.2,0.8,4.4,0.3,6,1
			c2.4,1,2.8,2.7,4.4,4.7c3.2,4.2,6.7,9,8.5,14c0.5,1.4,0.6,3.2,1,4.9c2.3,0.1,7.7,0.4,8.5,0.3c3.2-0.5,5.6-2.5,7.2-5.3
			C161.3,175.5,161.8,173.8,161.6,172.3z"/>
		<path class="st0" d="M144.3,182c0-0.1-0.1-0.1-0.1-0.2c-0.1-0.4-0.2-0.7-0.2-1.1c0-0.1-0.1-0.2-0.1-0.4c-0.5,2.9-1.6,5.9-3.4,7.9
			c-3,3.5-9.6,2.9-13.9,2.8c-9.3-0.2-13.8-5.7-15.2-14.9c-2.6,4.9-9.1,14.6-14.7,7.2c-1.2-1.6-1.2-2.7-2.9-3.7
			c-1.6-0.9-4-0.6-5.2-1.9c-2.3-2.5-0.3-8.2,1.7-10.2c-3.4-0.5-12.2,7.2-14.2,3.6c0,0,0,0,0,0c-0.8,0.3-1.6,0.6-2.4,0.9
			c1.4,1.7,0.4,3.7,3,4.7c2.2,0.8,3.9-1.4,5.9,0.7c1.7,1.8,2,3.4,4.2,5.1c2.4,1.8,4.3,3.6,7.2,4.6c5,1.7,9.4,2.4,14.4,2.3
			c5.4,0,7.4,5.2,12.9,6.2c5.3,1,11.5,0.4,16.5-1.6c5.8-2.4,8.4-5.7,6.2-11.9C143.9,182,144,182,144.3,182z"/>
	</g>
	<path class="st7" d="M117.1,172.6c-1.3-1.7-0.6-3.7-1.7-5.7c-1.6-3-4.6-5.7-7.2-8.3c-0.5,0.2-1,0.4-1.5,0.6
		c0.1,0.1,0.2,0.3,0.3,0.4c1.9,2.2,5.1,4.9,6.4,7.5c1.4,2.8-0.9,3.8,2,5.7c2.3,1.5,4.5,2.6,6.6,4.5
		C121.5,174.8,118.5,174.5,117.1,172.6z"/>
	<path class="st7" d="M126,153.3c1.7,1.6,4.5,2.6,6.7,1.8c2.6-0.9,2.8-4.2,4.4-6.2c-0.7,2.5-2.3,5.3-1.9,8c0.3,2,1.9,3.6,2.4,5.5
		c-2-1.3-3.3-3.3-5.3-4.6c-0.9-0.6-1.8-1.1-2.9-1.4c-0.3-0.1-3.3-0.5-3.3-0.8C126.2,154.8,126.3,154.1,126,153.3z"/>
	<path class="st7" d="M152.5,168.3c-0.1,0.4-1.7,1.5-2.1,2c-0.6,0.7-0.9,1.1-0.9,2.1c0.1,1.9,1.6,3.4,3,4.4c2.3,1.7,7.7,1.2,8.2-2.3
		c-0.1,0.8-3.6,1.7-4.3,1.8c-1.5,0.3-2.4,0.3-3.6-0.8C150.6,173.4,151.7,170.9,152.5,168.3z"/>
	<path class="st7" d="M75.6,173.3c-0.2,1.1,6-0.3,6.5-0.5c2-0.9,3.7-2.4,5.6-3.2c-1.1,1.2-1.8,2.6-3.1,3.5c-1.2,0.8-2.6,1.5-3.9,2
		C79,175.9,75,176.1,75.6,173.3z"/>
	<path class="st7" d="M91.9,183.7c1.6,1.5,3.1,3.7,5.3,4.3c2.5,0.6,5.7,0.3,8.1-0.3c1-0.3,2-0.4,2.7-1.2c1.2-1.4,1.6-4.2,2.2-6
		c-2.1,2.3-4.6,4.9-7.7,5.9c-3.1,1-6.9-0.2-8.9-2.8c-0.4-0.5-0.5-1.9-1.2-2.1c-1.4-0.4-1.6,1.2-3.2,0.1c-1.1-0.8-2.1-2-2.7-3.3
		c-0.3,1-0.3,2.8,0.6,3.6C88.5,182.8,90.7,182.5,91.9,183.7z"/>
	<path class="st7" d="M121,191.9c-1.8-0.5-3.4-1.2-4.6-2.5c-1.2-1.4-1.8-2.9-2.8-4.3c-0.6,3,2,6,4.4,7.5c2.1,1.3,4,2.5,6.5,2.6
		c3.2,0.1,6.8-0.1,9.8-1.1c1.4-0.4,1.9-1.2,3-2c-3.6,1.2-7.4,1.2-11.1,0.7C124.6,192.5,122.7,192.3,121,191.9z"/>
	<path class="st10" d="M143.2,177.4c-1-4.7-4.8-8.3-6.4-13c2.2,2.2,5.9,2.1,8.3,3.8c2.3,1.7,3.1,5,5,7c2.1,2.1,5.7,4,8.8,4
		c-1.4,1.6-3.3,2.7-5.6,3c-1,0.1-9.5-0.3-9.5-0.4C143.8,181.9,143.7,179.7,143.2,177.4z"/>
	<path class="st8" d="M137.8,165.3c0.3,0.3,0.6,0.5,1.1,0.7c2.9,0.9,5.2,4.7,6.8,7c2,2.7,4,6.5,7.1,8.1c0.8,0.4,1.6,0.7,2.3,0.8
		c-0.6,0.2-1.2,0.4-1.8,0.5c-1,0.1-9.5-0.3-9.5-0.4c0,0-0.2-2.2-0.6-4.5c-1-4.7-4.8-8.3-6.4-13C137.1,164.8,137.4,165,137.8,165.3z"
		/>
	<path class="st9" d="M140.5,167.6c0.4,0.6,0.7,1.1,1,1.5c1.1,1.8,1.7,4,2.4,6c1.4,3.6,6.3,8.1,10.4,7c-0.3,0.1-0.6,0.2-1,0.2
		c-1,0.1-9.5-0.3-9.5-0.4c0,0-0.2-2.2-0.6-4.5c-1-4.7-4.8-8.3-6.4-13c0.5,0.5,1.2,0.9,1.8,1.3C139.3,166,139.9,166.8,140.5,167.6z"
		/>
	<path class="st1" d="M144.1,156.3c2.6-5.3,13-2,10.5,3.8C152.1,166,141.2,162.4,144.1,156.3z"/>
	<path class="st1" d="M131.1,174.2c-0.7,0.3-0.3,1.1-1.3,1.8c-2.2,1.5-4.5-1.9-5.2-3.6c-0.8-1.7-0.4-3.4,0.1-5.1
		c1.2-3.8,6.7-6.9,8.6-1.8c0.8,2.1-1.5,6.6,1.4,7.9c0.9,0.4,1.1-0.8,2-0.6c2,0.5,3.4,4.2,1.7,5.7c-1,0.8-2.1,0.4-2.9-0.5
		c-1.3-1.5-0.6-3.7-3.3-3.9C131.6,174.1,131.3,174.1,131.1,174.2z"/>
	<path class="st1" d="M119.1,154.5c-1.7,0.6-3.5,1.3-5.2,1.9c0.5,1.2,1.8,2.3,3.2,3c2.1,1.1,4.5,1.1,4.1-1.1
		C121.1,157.3,120.2,155.7,119.1,154.5z"/>
	<path class="st1" d="M100.1,161.7c-1.2,0.5-2.5,1-3.7,1.4c-3,2.7-5.7,8-3.6,9.6c0.8,0.6,2.3-0.5,3.1-0.7c1.7-0.6,2.4-0.3,2.8,0.4
		c0.5,0.9,0.7,2.5,2.5,3.4c3.2,1.6,3.1-2,3.2-4.3C104.6,167.5,104.6,163.1,100.1,161.7z"/>
	<path class="st1" d="M120.8,186c-0.5-0.2-1-0.5-1.4-0.8c-2.3-1.8-1.2-4.2,1.6-4c1.8,0.1,6.9,2.2,6.9,4.4c0,1.9-1.3,1.9-2.9,1.6
		C123.6,186.9,122.1,186.6,120.8,186z"/>
</g>
<g>
	<path class="st11" d="M51.1,167.2c1.3,0.2,2.7-0.1,4-0.3c8.8-8.9,17.5-17.8,26.3-26.7c2.4-2.4,3.6-5.5,6-7.9
		c5.3-5.3,12-9.9,17.5-15c-0.1,0-0.2-0.1-0.2-0.1c-2.9-1.1-5.9-3.1-9.1-2.7c-3.7,0.6-5.2,3.6-8.3,4.8c1.1-0.4-3.5-5.6-4-6
		c-2.5-1.5-6.5-2.5-9.3-2.6c-4.7-0.2-11.6,3.1-12.9,8.2c-2-1-2.7-2.1-5-1.9c-2.2,0.2-4.4,1.9-5.7,3.7c-1.2,1.7-1.2,4.5-2.5,5.9
		c-1.3,1.3-3.9,1.4-5.5,2.6c-3.4,2.4-5.8,6.5-5.3,10.7c0.3,2.2,1.6,3.8,1.6,6c-0.1,2.4-1.8,2.4-2.4,4.5c-1.3,4.6,4.9,9.7,7.8,12.4
		C45.9,164.7,48.3,166.7,51.1,167.2z"/>
	<path class="st2" d="M101.9,120.1c1-0.9,2-1.9,3-2.8c-0.1,0-0.2-0.1-0.2-0.1c-1.5-0.6-3.1-1.4-4.7-2c0.6,1.1,1.2,2.3,1.6,3.5
		C101.7,119.1,101.8,119.6,101.9,120.1z"/>
	<path class="st2" d="M51.1,167.2c1.3,0.2,2.7-0.1,4-0.3c2.1-2.1,4.2-4.2,6.3-6.4c-0.6-2.7,1.3-7.6,2.2-9.1
		c0.9-1.5,8.1-10.1,8.4-4.3c0,0.8,0,1.8,0,2.7c3.1-3.2,6.3-6.4,9.5-9.6c1.6-1.6,3.2-3.2,4.8-4.8c-0.8-1.5-0.6-3.1,1.4-4.5
		c1.2-0.8,2.6-1,3.9-0.8c1.9-1.8,3.7-3.7,5.6-5.5c-2.1-1-3.5-3.7-3.8-5.8c-0.2-1.3,0.1-2.5,0.4-3.8c-2.5,1.1-4,3.3-6.5,4.3
		c1.1-0.4-3.5-5.6-4-6c-1-0.6-2.3-1.1-3.6-1.6c0.9,2,1.7,4.3,1.3,6.4c-0.7,3.7-3.8,6.1-7.5,6c-3-0.1-6.3,0.7-8.3-2.3
		c-1.7-2.5-0.8-6,0.2-8.6c0,0,0,0,0,0c-2.1,1.4-3.7,3.3-4.3,5.5c-2-1-2.7-2.1-5-1.9c-2.2,0.2-4.4,1.9-5.7,3.7
		c2,3.5,2.9,7.4,0.2,10.9c-2.7,3.5-7.6,4.3-11.3,2.2c-0.2-0.1-0.5-0.3-0.7-0.5c-1.2,2-1.8,4.3-1.5,6.6c0.3,2.2,1.6,3.8,1.6,6
		c-0.1,2.4-1.8,2.4-2.4,4.5c-1.3,4.6,4.9,9.7,7.8,12.4C45.9,164.7,48.3,166.7,51.1,167.2z M66.2,130.4c0.4,3.9-7.8,4.3-9,0.9
		C55.5,126.6,65.7,125.4,66.2,130.4z M42.6,151.1c-0.1-2,1.9-3.3,3.3-4.3c2.2-1.6,3.6-1,6,0.2c1.2,0.6,3.2,0.8,3.9,2
		c2,3.4-3.1,5.2-5.8,5.4c-0.1,0-0.3,0-0.4,0C47.4,154.3,42.7,154.4,42.6,151.1z"/>
	<g>
		<path class="st0" d="M51.1,167c1.3,0.2,2.7-0.1,4-0.3c1.4-1.4,2.7-2.8,4.1-4.2c-0.5-2-0.7-4.4-0.6-5.4c0.1-3.1,1.9-4.2,3.2-6.5
			c-2.8,0.3-4.9,0.5-7,2.2c-2.2,1.8-2.5,3-5.4,3.5c-6.7,1.1-11.9-7.2-5.2-11c0.8-0.5,1.8-0.9,2.8-1.2c0.8,0,1.7,0,2.5,0.2
			c0.4,0,0.9,0,1.5,0.1c2.1,0.4,3.9,1.8,5.9,2.3c3.1,0.7,6.6-0.9,9.4-1.8c3-1,6-2.9,9.2-3.3c1.6-0.2,2.9-0.1,4.2,0.1
			c0.6-0.6,1.2-1.3,1.9-1.9c0.7-0.7,1.5-1.5,2.2-2.2c-1-0.9-1.8-2.1-1.8-3.4c0-0.9,1.6-3.2,3.3-5c2.4-0.5,5.6-1.6,8.3-1.3
			c0.7-0.7,1.4-1.3,2-2c-3.8-1.3-4.5-5.1-5.2-8.9c-0.4,0.3-0.7,0.6-1.2,0.9c0,0,0,0,0,0c-0.2,0.1-0.3,0.2-0.4,0.3c0,0,0,0,0,0
			c-0.1,0.1-0.3,0.2-0.4,0.3c0,0-0.1,0-0.1,0c-0.1,0.1-0.2,0.1-0.4,0.2c0,0-0.1,0-0.1,0.1c-0.2,0.1-0.3,0.1-0.5,0.2
			c0.1,0,0.1,0,0.1-0.1c0,0,0,0,0,0c0,0,0-0.1,0-0.1c0,0,0,0,0,0c0-0.1,0-0.1,0-0.2l0-0.1c0-0.1,0-0.1-0.1-0.2c0,0,0,0,0,0
			c0-0.1-0.1-0.2-0.1-0.2c0,0,0-0.1,0-0.1c0-0.1-0.1-0.1-0.1-0.2c0,0,0,0,0-0.1c0-0.1-0.1-0.2-0.2-0.3c0,0,0-0.1-0.1-0.1
			c0-0.1-0.1-0.1-0.1-0.2c0,0,0-0.1-0.1-0.1l0,0c-0.2-0.4-0.5-0.7-0.8-1.1c-1.6,6.2-6.2,11.4-13.1,12.2c-2.7,0.3-2.1,0-3.5,1.8
			c-1.2,1.6-1.4,2.4-3.1,3.4c-1.3,0.8-3,1.3-4.6,1.7c-2.2,0.5-3.1-0.4-4.9-0.6c-3.2-0.3-5.3,2.3-8.1,3.1c-3,0.9-7.7,1.2-10.3-0.7
			c-0.3-0.2-0.6-0.5-0.8-0.9c-0.3,1.1-0.4,2.3-0.3,3.6c0.1,1.2,0.6,2.3,1,3.4c0.1,0.2,0.2,0.4,0.2,0.6c0,0.1,0,0.2,0.1,0.3
			c0,0,0,0.1,0,0.1c0,0.1,0,0.1,0,0.2c0,0,0,0.1,0,0.1c0,0.1,0,0.1,0,0.2l0.1,0.4c0,0.1,0,0.2,0,0.2c0,0,0,0.1,0,0.1
			c0,0.1,0,0.3,0,0.4c0,0.2,0,0.3,0,0.5c0,0,0,0,0,0.1c0,0.1,0,0.2-0.1,0.4c-0.4,1.5-1.7,1.8-2.2,3.6c-1.3,4.6,4.9,9.7,7.8,12.4
			C45.9,164.4,48.3,166.5,51.1,167z"/>
		<path class="st6" d="M53.9,132.5c-1.4,0.3-2.3,1.2-3.8,1.3c0.4-2.1,3-3.7,3.6-6.1c0.8-3.5-0.1-6.1-1.5-8.5
			c-0.1-0.1-0.2-0.3-0.2-0.4c1.1-1,2.5-1.7,3.9-1.8c2.3-0.2,3,0.9,5,1.9c0-0.2,0.1-0.4,0.2-0.6c0.5,2.4,1.4,4.9,3.4,6.2
			c1.3,0.9,3.1,0.9,4.2,2.1c-0.9-0.8-5.1-0.5-6.4-0.7c-4.5-0.8-7.9,2.6-4.7,6.7C56.3,132.7,55.3,132.2,53.9,132.5z"/>
	</g>
	<path class="st7" d="M60.8,141.2c2.7-0.4,5.8-0.5,8.4-1.3c2.4-0.8,4.6-2.3,7.4-1.4c1.4,0.4,2.9,1.2,4.4,2c0.1-0.1,0.2-0.2,0.4-0.4
		c0.2-0.2,0.4-0.4,0.6-0.6c-3.9-1.8-8.4-3.9-4.6-8.6c3.1-3.9,7.8-3.3,12.2-3.9c-1.9-1.9-1.8-5.2-1.4-8.3c-0.3,0.2-0.6,0.3-0.9,0.4
		c0.3-0.1,0.2-0.5,0-1c0.1,2-0.3,3.9-1.7,5.5c-2.5,2.8-8.1,6.7-12,7.1c0.9,3.9-2.8,6.6-5.9,8c-4.7,2.1-7-0.2-11.5,0
		c-1.9,0.1-3.1,1.2-5,1.7c-3.1,0.8-7.3,1.3-10.3,0.8c3.3,1.4,5,2.4,8.5,2C53.2,143,56.9,141.8,60.8,141.2z"/>
	<path class="st7" d="M54.9,129.9c0.4-3,2.6-5.5,2.8-8.6c0.1-1.6-0.2-2.9-0.7-4.2c1.2,0.1,1.9,0.7,2.9,1.4c0.5,2.8,0.6,5.6,2.7,5.6
		C58.4,124,57,126.8,54.9,129.9z"/>
	<path class="st7" d="M52.8,162.9c-1,0.6-2.1,1.1-3.1,1.3c-3.6,0.7-6.6-3.3-8.8-5.6c-2.3-2.3-4.1-6.6-2.1-9.6
		c0.2,1.7,0.4,3.6,1.2,5.1c0.8,1.4,2.1,2.6,3.3,3.7c1.2,1.2,1.8,2.6,3.4,3.2c1.7,0.6,3.6,0.5,5.1-0.4c0.6-0.3,3.8-3.1,3.3-3.9
		C56.5,159.2,54.9,161.5,52.8,162.9z"/>
	<path class="st8" d="M40.7,144.7c-0.6,0.3-1.4,0.8-2.2,1.4c0,0,0-0.1,0-0.1c0.1-2.2-1.3-3.9-1.6-6c-0.1-1.1-0.1-2.2,0.2-3.3
		c0.9,1.4,2.2,2.5,4,3.3c2.9,1.2,5.9,2.2,8.9,3.1C46.5,143.5,44,143,40.7,144.7z"/>
	<path class="st9" d="M36.9,140c2.1,1.5,5.3,2.2,7.5,2.7c0.9,0.2,1.8,0.4,2.7,0.6c-2.1,0.1-4,0.3-6.4,1.5c-0.6,0.3-1.4,0.8-2.2,1.4
		c0,0,0-0.1,0-0.1C38.6,143.8,37.2,142.1,36.9,140z"/>
	<path class="st1" d="M98.7,123.2c0.7-0.7,1.4-1.3,2.1-2c0.1-0.6-0.1-1.4-0.6-2.2c-1.7-3-7-4.1-6.1,0.7
		C94.5,122.5,96.9,123.5,98.7,123.2z"/>
	<path class="st1" d="M78.2,120.5c-1.6,2.1-5.2,3.7-7.6,2.5c-2.4-1.1-3.5-4.2-2.6-6.7c0.9-2.6,5-4.1,7.6-4.1
		C80.1,112.2,80.6,117.2,78.2,120.5z"/>
	<path class="st1" d="M61.6,132.1c-3.3,0.1-3.3-2.5-0.6-3.7C64.7,126.6,65.8,132,61.6,132.1z"/>
	<path class="st1" d="M42.8,132.8c-0.2-0.5,0.1-1.1,1-1.7c1.4-0.9,2.4-1,3.6-2.2c0.6-0.6,1.7-2.4,2.8-1.6c1.1,0.8-0.5,3.3-1,4
		c-1,1.5-2.7,2.7-4.5,2.5C43.6,133.7,42.9,133.3,42.8,132.8z"/>
	<path class="st1" d="M70.2,151.6c1.2-3.5-1.8-3.9-3.9-0.8c-1,1.5-2.4,2.8-3.1,4.5c-0.7,1.5-0.7,2.9-0.2,3.7
		C65.4,156.5,67.8,154,70.2,151.6z"/>
	<path class="st1" d="M45.2,151.3c-0.7-3.9,7.2-5.2,8.2-1.8C54.5,153.5,45.8,154.8,45.2,151.3z"/>
</g>
<g>
	<path class="st3" d="M217.2,23.4c-1.7-1.1-2.9-0.1-4.4-1.8c-1.4-1.5-1.4-3.5-2.5-5.2c-2.2-3.3-6.4-4.7-10.2-4.4
		c-1.8,0.1-3.7,1.7-5.4,1.5c-1.8-0.2-3.4-2.2-5.4-2.7c-2-0.5-4.6-0.4-6.2,0.8c-1.7,1.3-1.6,2.4-2.4,4.4c-4-2.8-10.8-1-14,2
		c-2,1.8-4.2,4.9-5,7.5c-0.2,0.6-0.3,7,0.7,6.7c-2.9,1-5.8-0.2-8.8,1.6c-1.4,0.9-2.4,2.3-3.1,3.9c0.4,0.1,0.7,0.2,1.1,0.3
		c13,3.8,26.2,6.9,39.3,10.1c6.1,1.5,12.3,3,18.4,4.7c0.4,0.1,0.9,0.3,1.3,0.4c1.1-1.4,0-2.8,0.9-4.6c1.1-2,3.8-2.5,5.3-4.3
		c1.6-2,2.2-4.9,2.5-7.4C219.7,33.3,220.9,25.9,217.2,23.4z"/>
	<path class="st4" d="M217.2,23.4c-1.7-1.1-2.9-0.1-4.4-1.8c-1.4-1.5-1.4-3.5-2.5-5.2c-1.2-1.8-3-3.1-5.1-3.8
		c-0.1,0.3-0.1,0.5-0.2,0.8c-1.4,3.7-5.3,6.1-9.3,5.3c-4-0.8-5.8-4.1-6.4-7.8c-2-0.5-4.6-0.4-6.2,0.8c-1.7,1.3-1.6,2.4-2.4,4.4
		c-1.8-1.2-4.1-1.6-6.4-1.3c0,0,0,0,0,0c2.3,1.2,5,3.1,5.3,5.9c0.3,3.3-2.4,4.7-4.5,6.6c-2.5,2.3-6.2,2.4-8.9,0.2
		c-1.6-1.2-2.4-3.3-3-5.3c-0.7,1.1-1.3,2.2-1.6,3.3c-0.2,0.6-0.3,7,0.7,6.7c-2.4,0.8-4.7,0.1-7.2,0.9c0.9,0.7,1.9,1.5,2.6,2.5
		c0.7,1.2,1.3,2.9,1.2,4.5c2.4,0.7,4.8,1.3,7.3,1.9c0.7-0.7,1.7-1.2,2.8-1.3c2.6-0.3,3.7,1.2,3.8,3c3.4,0.8,6.8,1.7,10.2,2.5
		c2.7-1.5,7-1.6,9.3,0.7c0.3,0.3,0.9,1,1.5,1.9c5.1,1.3,10.3,2.5,15.3,3.9c0.4,0.1,0.9,0.3,1.3,0.4c1.1-1.4,0-2.8,0.9-4.6
		c1.1-2,3.8-2.5,5.3-4.3c1.6-2,2.2-4.9,2.5-7.4C219.7,33.3,220.9,25.9,217.2,23.4z M190.9,22.6c1.2,3.1-4.8,7.7-6.9,4.8
		C181.3,23.6,189.2,18.3,190.9,22.6z M205.7,47.5c-0.5,1.4-3.4,1.2-5.6,0.9c-1-0.1-1.9-0.3-2.4-0.3c-3.2-0.3-5.9-3-7.8-5.3
		c-3.3-4.2,7-2.5,8.5-2C200.4,41.4,206.7,44.8,205.7,47.5z M210,34.4c-0.1,0.1-0.2,0.2-0.3,0.2c-2,1.5-6.7,3.3-7.3-0.3
		c-0.2-1.3,1.1-2.6,1.6-3.8c1-2.3,1.5-3.6,4.1-3.7c1.6-0.1,3.8-0.4,4.9,1.1C214.9,30.2,211.6,33,210,34.4z"/>
	<g>
		<path class="st12" d="M217.2,23.4c-1.4-1-2.5-0.4-3.7-1.2c-0.1-0.1-0.2-0.1-0.3-0.2c0,0,0,0,0,0c-0.1-0.1-0.2-0.2-0.3-0.3
			c-0.1-0.1-0.2-0.2-0.2-0.3c0,0-0.1-0.1-0.1-0.1c0-0.1-0.1-0.1-0.1-0.2c0,0-0.1-0.1-0.1-0.1c0,0-0.1-0.1-0.1-0.1
			c0-0.1-0.1-0.1-0.1-0.2c0,0,0-0.1-0.1-0.1c0-0.1-0.1-0.1-0.1-0.2c0,0,0-0.1,0-0.1c0-0.1-0.1-0.2-0.1-0.2c-0.1-0.2-0.2-0.4-0.2-0.6
			c-0.4-1-0.7-2.1-1.3-3c-0.6-0.9-1.4-1.7-2.3-2.4c0,0.4,0,0.8-0.1,1.1c-0.7,2.9-4.2,5.5-6.9,6.7c-2.5,1.1-5.6,0.5-7.6,2.7
			c-1.2,1.2-1.2,2.4-3.2,3.4c-1.4,0.7-2.9,1.3-4.3,1.6c-1.9,0.4-2.4-0.1-4.3-0.5c-2.1-0.5-1.5-0.6-3.6,0.8
			c-5.4,3.6-11.8,2.7-16.6-0.8c0,0.5,0,0.9,0.1,1.3l0,0c0,0,0,0.1,0,0.1c0,0.1,0,0.2,0,0.2c0,0,0,0.1,0,0.1c0,0.1,0,0.2,0.1,0.3
			c0,0,0,0,0,0.1c0,0.1,0,0.2,0,0.2c0,0,0,0.1,0,0.1c0,0.1,0,0.2,0.1,0.2c0,0,0,0,0,0c0,0.1,0,0.1,0.1,0.2c0,0,0,0,0,0
			c0,0.1,0.1,0.1,0.1,0.1c0,0,0,0,0,0c0,0,0.1,0.1,0.1,0.1c0,0,0,0,0,0c0,0,0.1,0,0.1,0c-0.2,0.1-0.3,0.1-0.5,0.1c0,0-0.1,0-0.1,0
			c-0.1,0-0.3,0.1-0.4,0.1c0,0,0,0-0.1,0c-0.2,0-0.3,0-0.4,0.1c0,0,0,0,0,0c-0.2,0-0.3,0-0.5,0.1c0,0,0,0,0,0
			c-0.5,0-0.9,0.1-1.4,0.1c1.5,2.6,3,5.3,2.3,8c1,0.3,1.9,0.5,2.9,0.7c1.7-1.4,4.1-2.4,5.8-3.3c2.3,0.3,4.8,0.9,5.4,1.5
			c1,1.3,1,3,0.5,4.7c1.5,0.4,3,0.7,4.5,1.1c0.8-1.6,2-3.1,4-4.5c2.5-1.7,5.8-2.1,8.5-3.2c2.5-1.1,6-2.1,7.7-4.4
			c1.2-1.6,1.6-3.6,2.8-5.2c0.3-0.4,0.6-0.7,1-1c0.5-0.6,1-1.1,1.6-1.6c0.9-0.3,1.8-0.6,2.7-0.8c7-1.4,8.3,7.7,2.9,10.9
			c-2.4,1.4-3.3,0.8-5.9,0.8c-2.5,0-4.2,1.2-6.3,2.7c2.3,0.8,4.2,0.5,6.1,2.7c1,1.1,3.8,5.1,3.4,6.8c-0.9,3.8-10.7-0.8-13.6,0.5
			c0,0,0.1,0.1,0.2,0.1c4.6,1.1,9.2,2.3,13.8,3.5c0.4,0.1,0.9,0.3,1.3,0.4c1.1-1.4,0-2.8,0.9-4.6c1.1-2,3.8-2.5,5.3-4.3
			c1.6-2,2.2-4.9,2.5-7.4C219.7,33.3,220.9,25.9,217.2,23.4z"/>
		<path class="st6" d="M193.8,21.4c1.1-0.6,2.4-0.5,3.5-1.3c-1.5-1.3-4.3-0.8-6.2-2.2c-2.7-2-3.6-4.3-4.1-6.9c0-0.1,0-0.3-0.1-0.4
			c-1.4,0-2.8,0.3-3.9,1.1c-1.7,1.3-1.6,2.4-2.4,4.4c-0.1-0.1-0.3-0.2-0.5-0.3c1.1,2,1.9,4.3,1.4,6.4c-0.4,1.4-1.7,2.5-1.7,4
			c0.1-1.1,3.3-3.4,4.1-4.4c2.7-3.3,7.2-2.9,7.4,1.9C192.2,23,192.7,22.1,193.8,21.4z"/>
	</g>
	<path class="st7" d="M165.5,39.2c3.4-2.2,6.4-5.5,10.9-4.6c5.7,1.1,3.4,5.6,1.6,9.4c-0.1,0.3-0.3,0.6-0.5,0.9
		c0.4,0.1,0.9,0.2,1.3,0.3c0.8-1.9,1.5-4.1,2.5-5.8c1.5-2.3,3.9-2.6,6.1-3.5c2.3-1,4.5-2.8,6.7-4.1c3.1-1.9,6.5-3.3,9.6-5.4
		c2.7-1.8,3.3-3.6,4.8-6.6c-1.8,2.2-5.1,4.4-7.8,5.6c-1.6,0.8-3.2,0.8-4.5,1.8c-3.3,2.6-3.6,5.6-8.2,6.9c-3,0.9-7.3,1.3-9-2.1
		c-3,2.1-9.3,2.6-12.7,2.2c-2-0.3-3.4-1.4-4.5-2.9c0.1,0.5,0.3,0.8,0.6,0.7c-0.3,0.1-0.6,0.2-0.9,0.2
		C163.6,34.4,165.6,36.7,165.5,39.2z"/>
	<path class="st7" d="M191.6,20.2c-2.1-1.8-5.1-2.3-7.2-4.4c-1.1-1-1.6-2.2-2-3.4c-0.7,0.8-0.9,1.6-1.2,2.7c1.4,2.3,2.9,4.4,1.5,5.6
		C185.6,18.2,188.2,19.3,191.6,20.2z"/>
	<path class="st7" d="M212.9,42.2c1.1-0.1,2.2-0.5,3-1c3-1.7,2.6-6.3,2.8-9.3c0.2-3-1.1-7.1-4.3-8.1c0.8,1.3,1.9,2.7,2.2,4.3
		c0.3,1.5,0,3.1,0,4.6c-0.1,1.5,0.3,2.9-0.5,4.3c-0.8,1.4-2.2,2.5-3.8,2.8c-0.6,0.1-4.5,0.1-4.7-0.8
		C208.1,41.9,210.6,42.6,212.9,42.2z"/>
	<path class="st7" d="M209.3,52.8c0,0,0.1,0,0.1,0c0.8-0.5,1.2-1.2,0.6-2.3c0.4,0.7-2.9,1.1-4.8,1.2
		C206.6,52.1,207.9,52.4,209.3,52.8z"/>
	<path class="st8" d="M210.5,22.2c0.6-0.1,1.5-0.2,2.4-0.4c0,0-0.1-0.1-0.1-0.1c-1.4-1.5-1.4-3.5-2.5-5.2c-0.6-0.9-1.3-1.6-2.1-2.2
		c0.2,1.5-0.1,3.1-0.8,4.7c-1.3,2.6-2.8,5.1-4.4,7.6C205.7,24.8,207.2,22.9,210.5,22.2z"/>
	<path class="st9" d="M210.4,16.6c-0.6,2.4-2.4,4.7-3.7,6.4c-0.5,0.7-1,1.3-1.5,2c1.6-1.2,3-2.2,5.4-2.8c0.6-0.1,1.5-0.2,2.4-0.4
		c0,0-0.1-0.1-0.1-0.1C211.5,20.2,211.5,18.2,210.4,16.6z"/>
	<path class="st1" d="M158.2,39.8c0.3-0.9,0.3-2.1-0.4-3.3c-2-3.3-4.5-0.9-4.8,1.8C154.7,38.9,156.5,39.4,158.2,39.8z"/>
	<path class="st1" d="M169.5,27.6c2.3,0.5,5.9-0.5,6.9-2.8c1-2.3-0.1-5.1-2.2-6.3c-2.3-1.3-6,0.1-7.8,1.7
		C163.1,22.9,165.8,26.8,169.5,27.6z"/>
	<path class="st1" d="M188.2,25.8c2.4-2,0.9-3.7-1.8-3C182.7,23.8,185.2,28.3,188.2,25.8z"/>
	<path class="st1" d="M201.9,15c-0.2-0.5-0.8-0.7-1.8-0.6c-1.5,0.2-2.3,0.7-3.9,0.6c-0.8-0.1-2.6-0.6-3,0.6c-0.4,1.2,2.3,2,3.1,2.2
		c1.6,0.5,3.5,0.3,4.7-0.9C201.8,16.1,202.1,15.4,201.9,15z"/>
	<path class="st1" d="M190.9,48.1c0,0,0.1,0,0.1,0c-2.1-1.6-4.5-2.5-5.8-1.6c-0.1,0-0.1,0.1-0.2,0.1C187,47.2,188.9,47.6,190.9,48.1
		z"/>
	<path class="st1" d="M203.3,46.6c0.4-1-0.3-2.5-2.3-3.5c-1.5-0.7-3.3-0.8-4.9-1.3c-3.5-1-5.4,1.3-1.9,3.1c1.8,1,3.6,2.2,5.7,2.6
		C201.8,48,203,47.5,203.3,46.6z"/>
	<path class="st1" d="M211.3,29.5c-1.9-3.1-8.2,0.7-6.8,3.7C206.1,36.7,213,32.4,211.3,29.5z"/>
</g>
<g>
	<path class="st3" d="M202.1,78.3c-11-5.9-22.2-11.6-33.2-17.5c-5.8-3.1-11.5-6.2-17.2-9.5c-0.3-0.2-0.7-0.4-1-0.6
		c-0.2,0.3-0.5,0.6-0.7,0.9c-1.9,2-2.7,2.4-5.6,2.8c-6,0.8-13.1,5.4-12.8,12.3c0.1,2.1,0.9,3.2-0.4,5.3c-1.1,1.7-3.1,2.4-3.6,4.5
		c-0.5,1.8,0,3.7,1.1,5.4c1.5,2.5,3.9,4.3,6.9,4.6c0.9,0.1,8.8-0.6,8.8-0.7c-1.8,5.9,0.8,8.9,6.3,10.8c4.7,1.7,10.5,2,15.4,0.9
		c5-1.1,6.6-6.1,11.7-6.3c4.6-0.2,8.6-0.9,13.2-2.7c2.7-1,4.3-2.7,6.5-4.5c2-1.6,2.2-3.2,3.7-4.9c0.4-0.5,0.9-0.8,1.3-0.9
		C202.2,78.3,202.1,78.3,202.1,78.3z"/>
	<path class="st4" d="M202.1,78.3c-3-1.6-5.9-3.2-8.9-4.8c0.4,1.7,0.6,3.2,0.2,3.8c-1,1.3-3.5,0.2-4.6,0.9c-1.1,0.7-1.5,2-2.9,2.7
		c-7.4,3.8-6.8-6-7.1-10.3c-0.1-1.8-0.1-3.3,0.7-4.4c-2.5-1.3-5.1-2.7-7.6-4c-0.6,0.9-1.3,1.7-2,2.2c-0.8,0.5-1.4,1-2.1,1.6
		c-1.4,1.3-2.6,2.9-3.6,4.7c-0.8,1.3-0.8,3-1.5,4.3c-0.8,1.6-1.8,4.6-3.5,5.3c-1.6,0.7-3.1-0.6-4.7,0c-2.2,0.9-3.6,12.3-6.8,6.4
		c-1.7-3-0.7-8.7,1.9-10.8c2.2-1.8,1.8-1.5,2.3-4.4c0.3-1.4,0.9-3.6,1.9-4.8c2-2.2,5.3-0.6,7.8-1.5c3-1.1,1.5-4,2.9-6.5
		c0.1-0.1,0.2-0.2,0.2-0.4c-2-1.1-4-2.1-6-3.2c-0.3,0.2-0.6,0.4-1,0.6c-2.5,1.1-4.1-1.5-4.5-3.7c-0.5-0.3-1.1-0.6-1.6-0.9
		c-0.3-0.2-0.6-0.4-1-0.6c-0.2,0.3-0.5,0.6-0.7,0.9c-1.9,2-2.7,2.4-5.6,2.8c-3,0.4-6.4,1.8-8.9,4c5.6-2,13.1-1.6,10,6.2
		c-1.1,2.7-4.5,6-7.4,6.5c-2.6,0.5-4.1-1.2-5.8-2.9c-0.1-0.1-0.4-0.5-0.8-1.1c0.1,1.9,0.7,3-0.4,4.9c-0.2,0.4-0.5,0.7-0.8,1
		c0.5,0.2,1,0.5,1.4,0.8c1.2,1,2.6,3.7,0.1,4.1c-1.2,0.2-2.9-0.5-3.7-1.5c-0.2-0.2-0.3-0.4-0.4-0.6c-0.1,0.2-0.2,0.4-0.2,0.6
		c-0.5,1.8,0,3.7,1.1,5.4c1.5,2.5,3.9,4.3,6.9,4.6c0.9,0.1,8.8-0.6,8.8-0.7c-1.8,5.9,0.8,8.9,6.3,10.8c4.7,1.7,10.5,2,15.4,0.9
		c5-1.1,6.6-6.1,11.7-6.3c4.6-0.2,8.6-0.9,13.2-2.7c2.7-1,4.3-2.7,6.5-4.5c2-1.6,2.2-3.2,3.7-4.9c0.4-0.5,0.9-0.8,1.3-0.9
		C202.2,78.3,202.1,78.3,202.1,78.3z M172.2,84.9c-0.1,4.1-7.2,6.4-10.5,7.2c-3.1,0.8-7.7,1.1-5.7-3.5c0.9-1.9,3.1-2.9,4.9-3.8
		C163.5,83.5,172.3,78.8,172.2,84.9z"/>
	<g>
		<path class="st12" d="M165.1,73.2c-2.2,4.3-2.3,6-6.3,8.8c-2.6,1.9-5.9,5-6,8.5c4.1-5.5,8.1-7.9,14.5-10.3
			c3.8-1.4,7.6-2.6,8.6-6.9c0.6-2.8,1.1-5.4,2.2-7.7c-1.4-0.7-2.8-1.5-4.3-2.2c-0.6,0.7-1.2,1.3-1.8,1.7
			C169.6,67.3,166.7,70.1,165.1,73.2z"/>
		<path class="st12" d="M144,81.4c1.4-4.7,4.5-9.4,7.3-13.3c1.3-1.9,1.7-3.5,3.9-4.5c1.5-0.7,4.5-0.4,5.6-1.1
			c1.2-0.8,0.5-2.8,1.1-4.1c0.2-0.4,0.4-0.7,0.6-1c-0.7-0.4-1.4-0.8-2.2-1.2c-0.1,0.1-0.2,0.1-0.3,0.2c-6.1,3.9-9.3,0.1-9.4-5.6
			c-0.2,0.3-0.5,0.6-0.7,0.8c-1.2,1.4-2,2-3.3,2.4c2.2,2.4,3.8,5.1,3.5,8.5c-0.5,4.3-4.3,4.8-6.6,7.8c-1.1,1.4-1.2,3.2-3.2,3.6
			c-1.3,0.3-2.6-0.5-3.8-1.1c-1.9-0.9-3.3-2.6-4.7-4.1c0.1,0.8,0.1,1.5-0.2,2.4c0.3,0.2,0.6,0.5,1,0.7c1.8,1.1,4.4,3.2,3.3,5.6
			c-1.1,2.6-4.9,1.9-6.9,1c-0.5-0.2-1.1-0.5-1.6-0.9c-0.1,1.4,0.4,2.9,1.3,4.4c1.5,2.5,3.9,4.3,6.9,4.6c0.7,0.1,5.7-0.4,7.8-0.6
			C143.5,84.4,143.6,82.7,144,81.4z"/>
		<path class="st12" d="M202.1,78.3c-2.1-1.1-4.3-2.3-6.4-3.4c0.5,1.8,0.5,3.8-0.5,5c-1.1,1.3-3.3,1.1-4.7,2c-1.6,1-1.5,2-2.5,3.5
			c-4.9,7.1-11.3-1.7-13.9-6.1c-0.9,8.6-4.8,13.8-13.5,14.4c-4,0.3-10,1-13-2.1c-1.7-1.8-2.9-4.5-3.4-7.2c0,0.1-0.1,0.2-0.1,0.3
			c0,0.3-0.1,0.7-0.2,1c0,0.1,0,0.1-0.1,0.2c0.3,0,0.4-0.1,0.4-0.1c-1.8,5.9,0.8,8.9,6.3,10.8c4.7,1.7,10.5,2,15.4,0.9
			c5-1.1,6.6-6.1,11.7-6.3c4.6-0.2,8.6-0.9,13.2-2.7c2.7-1,4.3-2.7,6.5-4.5c2-1.6,2.2-3.2,3.7-4.9c0.4-0.5,0.9-0.8,1.3-0.9
			C202.2,78.3,202.1,78.3,202.1,78.3z"/>
	</g>
	<path class="st7" d="M175.1,64.1c-2,2.1-4.1,4.4-5.2,6.8c-0.9,1.9-0.2,3.7-1.3,5.4c-1.2,1.8-4,2.2-4.5,4.6c1.9-1.9,3.9-3,5.9-4.5
		c2.6-1.9,0.5-2.8,1.7-5.4c0.9-2,3.1-4.2,4.8-6.1C176,64.6,175.6,64.3,175.1,64.1z"/>
	<path class="st7" d="M159.6,58.6c-1.5,1.5-4.1,2.6-6.2,1.9c-2.5-0.8-2.8-3.8-4.3-5.6c0.8,2.3,2.4,4.8,2.1,7.4
		c-0.2,1.9-1.6,3.4-2.1,5.2c1.8-1.3,3-3.2,4.7-4.5c0.8-0.6,1.7-1.1,2.6-1.4c0.3-0.1,3-0.6,3-0.8C159.5,60.1,159.4,59.4,159.6,58.6z"
		/>
	<path class="st7" d="M135.6,73.6c0.1,0.4,1.7,1.4,2,1.8c0.6,0.7,0.9,1,0.9,1.9c0,1.7-1.4,3.2-2.7,4.2c-2.1,1.7-7.1,1.4-7.7-1.8
		c0.1,0.7,3.5,1.4,4.1,1.5c1.4,0.3,2.3,0.2,3.3-0.9C137.6,78.2,136.4,76,135.6,73.6z"/>
	<path class="st7" d="M192.4,85.5c-1.4,1.5-2.7,3.6-4.8,4.2c-2.3,0.7-5.3,0.5-7.5,0c-1-0.2-1.8-0.2-2.5-1c-1.1-1.3-1.7-3.9-2.2-5.5
		c2.1,2.1,4.5,4.4,7.4,5.2c2.9,0.8,6.4-0.4,8.1-2.9c0.4-0.5,0.4-1.8,1-2c1.3-0.5,1.6,1,3-0.1c1-0.8,1.9-1.9,2.3-3.1
		c0.3,0.9,0.4,2.6-0.4,3.3C195.5,84.6,193.5,84.3,192.4,85.5z"/>
	<path class="st7" d="M165.7,94.2c1.6-0.5,3.1-1.2,4.1-2.5c1.1-1.3,1.6-2.7,2.4-4.1c0.7,2.8-1.6,5.7-3.7,7.1
		c-1.9,1.3-3.6,2.5-5.9,2.7c-3,0.2-6.3,0.2-9.2-0.6c-1.3-0.4-1.8-1.1-2.8-1.7c3.4,1,6.9,0.8,10.3,0.2
		C162.4,95,164.1,94.7,165.7,94.2z"/>
	<path class="st10" d="M144.6,81.7c0.7-4.4,4.2-7.9,5.5-12.3c-1.9,2.1-5.4,2.2-7.6,3.9c-2.1,1.7-2.6,4.8-4.4,6.7c-1.9,2-5.1,4-8,4
		c1.4,1.4,3.2,2.4,5.3,2.6c0.9,0.1,8.8-0.6,8.8-0.7C144.1,85.9,144.2,83.8,144.6,81.7z"/>
	<path class="st8" d="M149.1,70.2c-0.2,0.3-0.5,0.5-1,0.6c-2.6,1-4.6,4.5-6.1,6.8c-1.7,2.6-3.5,6.2-6.3,7.8
		c-0.7,0.4-1.4,0.7-2.1,0.8c0.5,0.2,1.1,0.3,1.7,0.4c0.9,0.1,8.8-0.6,8.8-0.7c0,0,0.1-2.1,0.4-4.2c0.7-4.4,4.2-7.9,5.5-12.3
		C149.7,69.7,149.4,70,149.1,70.2z"/>
	<path class="st9" d="M146.7,72.5c-0.3,0.5-0.6,1.1-0.9,1.5c-1,1.8-1.4,3.7-2,5.6c-1.1,3.4-5.5,7.7-9.4,6.9c0.3,0.1,0.6,0.1,0.9,0.2
		c0.9,0.1,8.8-0.6,8.8-0.7c0,0,0.1-2.1,0.4-4.2c0.7-4.4,4.2-7.9,5.5-12.3c-0.5,0.5-1,0.9-1.7,1.2C147.8,70.9,147.2,71.7,146.7,72.5z
		"/>
	<path class="st1" d="M142.9,62.1c-2.6-4.8-12.1-1.3-9.6,3.9C135.9,71.4,145.8,67.7,142.9,62.1z"/>
	<path class="st1" d="M155.7,78.3c0.6,0.2,0.4,1,1.3,1.6c2.1,1.3,4.1-2,4.7-3.5c0.6-1.6,0.3-3.1-0.3-4.8c-1.3-3.4-6.5-6.2-8-1.3
		c-0.6,2,1.7,6.1-1,7.3c-0.8,0.4-1.1-0.7-1.9-0.4c-1.8,0.5-3,4-1.4,5.4c0.9,0.8,1.9,0.3,2.6-0.6c1.1-1.5,0.4-3.5,2.9-3.8
		C155.2,78.2,155.5,78.2,155.7,78.3z"/>
	<path class="st1" d="M168.8,60.8c-0.9-0.5-1.8-1-2.7-1.4c-1,1.2-1.9,2.7-2,3.8c-0.2,2.1,1.9,2,3.9,0.9c1-0.6,2-1.4,2.6-2.3
		C170,61.4,169.4,61.1,168.8,60.8z"/>
	<path class="st1" d="M181.3,67.4c-1.4,1.9-1.2,4.7-0.9,7.4c0.2,2.2,0.2,5.5,3.2,3.9c1.6-0.9,1.7-2.4,2.2-3.3c0.3-0.7,0.9-1,2.6-0.5
		c0.7,0.2,2.2,1.2,2.9,0.6c0.7-0.5,0.8-1.5,0.5-2.7C188.2,71,184.8,69.2,181.3,67.4z"/>
	<path class="st1" d="M165.7,88.8c0.5-0.2,0.9-0.5,1.3-0.8c2.1-1.7,0.9-3.9-1.7-3.7c-1.7,0.2-6.3,2.3-6.2,4.3
		c0.1,1.8,1.3,1.7,2.7,1.4C163.2,89.7,164.5,89.4,165.7,88.8z"/>
</g>
<path class="st1" d="M56.3,167.3c0,0,3.2,0.3,6.1,0.2c3-0.2,4.4-1.7,5.2-3.9c0.8-2.2,2.9-5.1,4.8-6.2s6.9-3,9-6.1s3.1-9.1,4.5-9.5
	s4-0.5,5.5-1.5c3-2,1.2-2.2,4.1-5.6c2.9-3.4,10.1-9.6,10.5-11.5c0.4-1.9,0.5-6.6-1.6-5.9c-2.1,0.6-21,16-25,25
	c-1.2,2.6-12.7,8.6-19,15c-4.1,4.1-8.4,10-8,10C53.4,167.3,56.3,167.3,56.3,167.3z"/>
<path class="st2" d="M57.4,166.3c2,0,3.8-0.9,6.5-1c2.7-0.2,2.8-1.9,3.5-4s3.9-4.3,5.7-5.3c1.8-1,6.3-2.7,8.2-5.5
	c1.8-2.8,2.8-8.3,4.1-8.7c1.3-0.4,4.7-1.6,6.1-2.5c2.7-1.8,0-0.8,2.7-3.9c2.6-3.1,10.9-10.3,11.3-12.1c0.4-1.8,0.9-5.6-1-5
	c-1.9,0.6-20.4,16.8-24,25c-1.1,2.4-12.2,8.2-18,14c-3.7,3.7-7.2,6.6-7.6,7.8C54.4,166.3,55.4,166.3,57.4,166.3z"/>
<path class="st2" d="M61.3,162.2c1.7,0,3.2-0.7,5.4-0.9s2.3-1.6,2.9-3.3s3.2-3.6,4.7-4.4c1.5-0.8,5.2-2.3,6.8-4.6
	c1.5-2.3,2.3-6.9,3.4-7.2c1.1-0.3,3.9-1.4,5-2.1c2.3-1.5,0-0.6,2.2-3.2c2.2-2.6,9.1-8.6,9.4-10c0.3-1.5,0.8-4.6-0.8-4.1
	c-1.6,0.5-16.9,13.9-19.9,20.7c-0.9,2-10.1,6.8-14.9,11.6c-3.1,3.1-6,5.5-6.3,6.5C58.8,162.2,59.6,162.2,61.3,162.2z"/>
<path class="st0" d="M58.8,73.8c0,0-0.9-3-2.1-5.6c-1.2-2.6-2.9-3.5-4.9-3.5c-2,0-5-1-6.5-2.5c-1.5-1.4-4.8-5.4-7.9-6.2
	s-8.1,0-9-1.2c-0.9-1.2-1.8-3.5-3.1-4.5c-2.6-2.1-2.1-0.4-5.8-2s-11-6.2-12.7-6s-5.3,1.6-4,3.3S27,61.2,31,62.2S58.7,78,59.4,77.7
	C60.2,77.4,58.8,73.8,58.8,73.8z"/>
<path class="st1" d="M58,74.1c0,0-0.9-3-2.1-5.6C54.7,65.9,53,65.1,51,65c-2,0-5-1-6.5-2.5c-1.5-1.4-4.8-5.4-7.9-6.2s-8.1,0-9-1.2
	c-0.9-1.2-1.8-3.5-3.1-4.5c-2.6-2.1-2.1-0.4-5.8-2s-11-6.2-12.7-6s-5.3,1.6-4,3.3S22,60,30.4,60.9c2.4,0.2,11.2,8.8,18.4,12.6
	c4.6,2.4,10.7,4.5,10.6,4.2C59.1,76.8,58,74.1,58,74.1z"/>
<path class="st2" d="M56.8,73.4c-0.7-1.8-2.1-3.2-3.2-5.6c-1.1-2.4-2.5-1.9-4.3-1.9c-1.8,0-4.7-2.2-6.1-3.5
	c-1.4-1.3-4.4-4.9-7.2-5.7c-2.8-0.8-7.4,0-8.2-1.1c-0.8-1.1-3-3.8-4.1-4.7c-2.4-1.9-0.6,0.2-4-1.2C16.4,48.3,7.8,43,6.3,43.2
	s-4.6,0.9-3.5,2.4s20.3,13.3,27.9,14c2.2,0.2,10.7,8.6,17.3,12c4.2,2.2,7.7,4.5,8.8,4.5S57.6,75.3,56.8,73.4z"/>
<path class="st2" d="M52.3,71.2c-0.6-1.5-1.7-2.6-2.6-4.6c-0.9-2-2.1-1.6-3.6-1.6S42.2,63.1,41,62c-1.1-1.1-3.6-4.1-6-4.7
	c-2.3-0.7-6.1,0-6.8-0.9c-0.7-0.9-2.5-3.1-3.4-3.9c-2-1.6-0.5,0.2-3.3-1s-9.9-5.6-11.1-5.4s-3.8,0.7-2.9,2c1,1.3,16.8,11,23.2,11.6
	c1.8,0.2,8.9,7.1,14.3,9.9c3.5,1.8,6.4,3.8,7.3,3.7S52.9,72.7,52.3,71.2z"/>
<path class="st0" d="M153.7,49.8c0,0,2.6-0.8,5.1-1.2s4,0.5,5,2c1,1.5,3.2,3.2,5,3.7s6.3,0.9,8.4,2.8c2.2,1.9,4,6.1,5.3,6.2
	c1.3,0.1,3.4-0.4,4.8,0.1c2.8,0.9,1.3,1.4,4.3,3.4s9.9,5.2,10.6,6.6c0.7,1.3,1.5,4.7-0.4,4.6c-1.8-0.1-23.2-10.5-25.9-12.9
	c-2.7-2.4-25-13-25.2-13.7C150.4,50.5,153.7,49.8,153.7,49.8z"/>
<path class="st1" d="M153.8,50.5c0,0,2.6-0.8,5.1-1.2c2.5-0.4,4,0.5,5,2c1,1.5,3.2,3.2,5,3.7s6.3,0.9,8.4,2.8c2.2,1.9,4,6.1,5.3,6.2
	c1.3,0.1,3.4-0.4,4.8,0.1c2.8,0.9,1.3,1.4,4.3,3.4c3,2,9.9,5.2,10.6,6.6c0.7,1.3,1.5,4.7-0.4,4.6c-1.8-0.1-20-8-24.8-13.9
	c-1.4-1.7-11.9-4-18.2-7.6c-4-2.3-8.6-5.8-8.3-5.9C151.4,51,153.8,50.5,153.8,50.5z"/>
<path class="st2" d="M154.9,51c1.7-0.4,3.3,0,5.6-0.4c2.3-0.4,2.6,0.9,3.5,2.3c0.9,1.4,3.9,2.5,5.5,2.9c1.6,0.4,5.7,0.9,7.7,2.6
	s3.6,5.6,4.8,5.7c1.2,0.1,4.2,0.3,5.4,0.8c2.6,0.8,0.1,0.6,2.8,2.4s10.8,5.6,11.4,6.9c0.6,1.2,1.7,3.9,0,3.9
	c-1.7-0.1-19.6-8.7-24-14.1c-1.3-1.6-11.5-3.8-17.2-7c-3.7-2.1-7.1-3.5-7.6-4.4C152.4,51.6,153.3,51.4,154.9,51z"/>
<path class="st2" d="M158.8,53.4c1.4-0.3,2.7,0,4.6-0.3c1.9-0.3,2.2,0.8,2.9,1.9c0.8,1.1,3.2,2,4.6,2.4c1.4,0.3,4.7,0.7,6.4,2.1
	c1.6,1.4,3,4.6,4,4.7s3.5,0.3,4.5,0.6c2.1,0.7,0.1,0.5,2.4,2c2.2,1.5,8.9,4.7,9.4,5.7c0.5,1,1.4,3.3,0,3.2
	c-1.4-0.1-16.3-7.2-19.9-11.7c-1-1.3-9.5-3.1-14.3-5.8c-3-1.7-5.9-2.9-6.3-3.6S157.4,53.7,158.8,53.4z"/>
<path class="st0" d="M28.3,22.2c0,0,3.3,1.7,6.3,3.5c3,1.8,4.1,3.2,4.5,4.4c0.3,1.2,1.9,3.5,3.7,5c1.8,1.5,6.4,5.1,7.9,7.3
	s1.3,5,2.7,6s4,2.5,5.3,3.7c2.6,2.4,0.8,1.5,3,4.3c2.3,2.9,8.3,9.2,8.3,10.1c0,0.9-0.8,2.6-2.8,1.2S46.7,46.7,45,43.9
	c-1.7-2.8-21.1-23.2-20.9-23.6C24.3,19.9,28.3,22.2,28.3,22.2z"/>
<path class="st1" d="M28.1,22.6c0,0,3.3,1.7,6.3,3.5c3,1.8,4.1,3.2,4.5,4.4c0.3,1.2,1.9,3.5,3.7,5c1.8,1.5,6.4,5.1,7.9,7.3
	s1.3,5,2.7,6c1.4,1,4,2.5,5.3,3.7c2.6,2.4,0.8,1.5,3,4.3c2.3,2.9,8.3,9.2,8.3,10.1c0,0.9-0.8,2.6-2.8,1.2
	c-2-1.4-18.1-17.8-20.3-23.3c-0.6-1.6-11.1-10.4-16.3-16.3c-3.3-3.8-6.5-8.4-6.1-8.2C25.1,20.9,28.1,22.6,28.1,22.6z"/>
<path class="st2" d="M29,23.6c2,1.2,3.7,2.5,6.4,4.2c2.7,1.6,2.4,2.3,2.7,3.4s3.1,3.8,4.7,5.1c1.6,1.4,5.9,4.6,7.2,6.7
	c1.3,2,1.2,4.5,2.4,5.5c1.3,0.9,4.5,3.3,5.6,4.4c2.4,2.2-0.1,0.3,1.9,2.9s9,10,9.1,10.8s-0.2,2.5-2,1.2C65.2,66.4,49.8,50,47.7,45
	c-0.6-1.4-10.8-10-15.5-15.4c-3-3.5-6-6.5-6.2-7.2C25.9,21.8,27,22.4,29,23.6z"/>
<path class="st2" d="M32.1,27.3c1.7,1,3.1,2.1,5.3,3.4c2.3,1.4,2,1.9,2.3,2.8c0.3,0.9,2.5,3.1,3.9,4.3s4.9,3.8,5.9,5.5s1,3.8,2,4.5
	s3.7,2.8,4.7,3.6c2,1.8-0.1,0.2,1.6,2.4c1.7,2.2,7.5,8.3,7.5,9c0,0.7-0.2,2.1-1.7,1c-1.5-1.1-14.3-14.7-16-18.9
	c-0.5-1.2-8.9-8.3-12.8-12.8c-2.5-2.9-5-5.4-5.1-5.9S30.4,26.3,32.1,27.3z"/>
</svg>
