<?xml version="1.0" encoding="utf-8"?>
<!-- Generator: Adobe Illustrator 25.2.1, SVG Export Plug-In . SVG Version: 6.00 Build 0)  -->
<svg version="1.1" id="Layer_3" xmlns="http://www.w3.org/2000/svg" xmlns:xlink="http://www.w3.org/1999/xlink" x="0px" y="0px"
	 viewBox="0 0 200 200" style="enable-background:new 0 0 200 200;" xml:space="preserve">
<style type="text/css">
	.st0{fill:#EFBB6F;}
	.st1{fill:#E0A65A;}
	.st2{fill:#D68F30;}
	.st3{fill:#C68220;}
	.st4{fill:#9B5F18;}
	.st5{fill:#7A4909;}
	.st6{fill:#5B2E02;}
	.st7{fill:#A56416;}
	.st8{fill:#F7CA86;}
	.st9{fill:#DDA862;}
	.st10{opacity:0.5;fill:#E0A65A;}
	.st11{fill:#D3862A;}
	.st12{fill:#DB8F2A;}
</style>
<g>
	<path class="st0" d="M-2.8,93c0.7,3.1,2.5,5.7,5.5,7c0.9,0.4,9.2,2.2,9.2,2.2c-3.8,5.4-2.1,9.3,2.8,13.2c4.3,3.3,10.1,5.5,15.5,6
		c5.5,0.5,8.8-4.1,14.1-2.6c4.8,1.4,9.2,1.9,14.5,1.6c3.1-0.2,5.3-1.3,8.1-2.5c2.6-1,3.3-2.5,5.4-3.8c2.5-1.5,3.4,1.1,5.8,0.9
		c2.9-0.2,2.2-2.6,4.4-3.9c2.1-1.2,4.9-0.1,7.2-0.9c2.6-0.9,4.8-3.3,6.4-5.4c2.5-3.1,7.8-9.1,5.8-13.5c-0.9-2-2.6-1.7-3-4.1
		c-0.4-2.1,0.7-4,0.6-6.2c-0.2-4.3-3.2-7.9-6.9-9.8c-1.7-0.9-4.3-0.6-5.8-1.7c-1.6-1.2-1.9-4-3.4-5.5c-1.5-1.6-3.9-3-6.2-2.8
		c-2.3,0.2-2.8,1.3-4.7,2.7c-2.1-4.8-9.3-7-14-6.1c-2.8,0.5-6.6,2.2-8.8,4c-0.5,0.4-4.2,6.3-3.1,6.5c-3.2-0.7-5.2-3.5-8.9-3.5
		c-3.2,0-6,2.5-8.6,4c-2.6,1.5-3.6,1.6-6.7,1c-6.4-1.2-15.3,1.2-17.3,8.4c-0.6,2.2-0.2,3.6-2.1,5.3c-1.7,1.4-4,1.5-5.2,3.4
		C-3.1,88.7-3.3,90.8-2.8,93z"/>
	<path class="st1" d="M99,87.4c-0.4-2.1,0.7-4,0.6-6.2c-0.1-2.4-1-4.5-2.5-6.3c-0.2,0.2-0.4,0.4-0.6,0.6C93.1,78.1,88.2,78,85,75
		c-3.2-3-2.9-7.1-1.5-10.8c-1.5-1.6-3.9-3-6.2-2.8c-2.3,0.2-2.8,1.3-4.7,2.7c-0.9-2.1-2.8-3.7-5.1-4.8c0,0,0,0,0,0
		c1.4,2.4,2.8,5.7,1.5,8.4c-1.6,3.2-4.9,3-7.9,3.5c-3.6,0.7-7-1.3-8.3-4.8c-0.7-2-0.3-4.4,0.3-6.5c-1.2,0.6-2.4,1.3-3.3,2.1
		c-0.5,0.4-4.2,6.3-3.1,6.5c-2.6-0.6-4.4-2.6-7.1-3.2c0.5,1.2,0.9,2.4,1,3.7c0,2.7-1.7,6.8-4.8,7.1c-3.2,0.3-3.8-3.5-3.3-6
		c0.2-1.2,0.6-2.5,1-3.7c-1.5,0.8-2.9,1.9-4.3,2.7c-2.6,1.5-3.6,1.6-6.7,1c-3.3-0.6-7.2-0.3-10.5,1.1c6.4-0.2,14,2.7,8.2,9.7
		c-2,2.4-6.6,4.6-9.7,4.2c-2.8-0.4-3.8-2.6-5-4.9c-0.1-0.1-0.2-0.7-0.4-1.4c-0.5,2-0.2,3.3-2.1,4.9c-0.4,0.3-0.8,0.6-1.2,0.8
		c0.5,0.4,0.9,0.8,1.2,1.3C4,87.2,4.5,90.4,1.9,90c-1.3-0.2-2.8-1.5-3.3-2.7c-0.1-0.2-0.2-0.5-0.2-0.8c-0.2,0.2-0.3,0.4-0.4,0.6
		c-1.1,1.7-1.2,3.8-0.7,5.9c0.7,3.1,2.5,5.7,5.5,7c0.9,0.4,9.2,2.2,9.2,2.2c-3.8,5.4-2.1,9.3,2.8,13.2c4.3,3.3,10.1,5.5,15.5,6
		c5.5,0.5,8.8-4.1,14.1-2.6c4.8,1.4,9.2,1.9,14.5,1.6c3.1-0.2,5.3-1.3,8.1-2.5c2.6-1,3.3-2.5,5.4-3.8c2.5-1.5,3.4,1.1,5.8,0.9
		c2.9-0.2,2.2-2.6,4.4-3.9c2.1-1.2,4.9-0.1,7.2-0.9c2.6-0.9,4.8-3.3,6.4-5.4c2.5-3.1,7.8-9.1,5.8-13.5C101.1,89.5,99.4,89.7,99,87.4
		z M41,110.5c-1.4,4.2-9.5,4.1-13.1,4c-3.5-0.2-8.3-1.4-4.7-5.4c1.5-1.7,4.1-1.9,6.3-2.3C32.6,106.2,43.1,104.3,41,110.5z
		 M42.6,89.7c-1.9,0.9-3.6,2.1-5.2,3.6c-1.2,1.1-1.8,2.8-3,3.9c-1.4,1.4-3.4,4.1-5.4,4.3c-1.9,0.2-3-1.7-4.8-1.5
		c-2.6,0.2-7.7,11.5-9.1,4.3c-0.7-3.7,2.2-9.1,5.6-10.5c2.9-1.1,2.3-1,3.9-3.7c0.7-1.3,2.1-3.4,3.5-4.2c2.8-1.6,5.7,1.1,8.5,1
		c3.5-0.1,2.8-3.6,5.1-5.6c1.8-1.6,4.2-2.4,6.4-1.3c5.2,2.4,0.5,7.9-2.8,8.8C44.3,89,43.5,89.3,42.6,89.7z M78.3,75.8
		c-0.7,3.5-8.8,4.3-9,0.5C69,71.2,79.2,70.9,78.3,75.8z M65.1,109.8c-1.5,1-3.6-1-5.1-0.6c-1.3,0.3-2.3,1.6-3.9,1.8
		c-8.8,1.4-5-8.4-3.9-12.9c0.8-3,1.7-5.2,5.2-5.1c3.4,0.1,7.5,2.5,8.3,6C66.3,100.7,66.7,108.7,65.1,109.8z M77.8,107
		c-1.2,1-3.8-0.8-5.6-2.4c-0.8-0.7-1.6-1.3-2-1.7c-2.7-2.1-3.7-6.1-4.1-9.3c-0.6-5.7,7.8,1.7,8.9,3C76.4,98.3,80.2,105,77.8,107z
		 M89.2,97.4c-0.1,0-0.3,0-0.4,0.1c-2.6,0.3-8-0.8-6.5-4.4c0.5-1.3,2.5-1.8,3.6-2.6c2.2-1.5,3.4-2.4,5.9-1.1
		c1.5,0.8,3.7,1.8,3.9,3.8C96,96.3,91.4,97,89.2,97.4z"/>
	<g>
		<path class="st2" d="M102,91.5c-0.8-1.7-2.1-1.8-2.8-3.2c0-0.1-0.1-0.2-0.1-0.3c0,0,0,0,0-0.1c0-0.1-0.1-0.3-0.1-0.5
			c0-0.1,0-0.3-0.1-0.4c0,0,0-0.1,0-0.1c0-0.1,0-0.2,0-0.2c0-0.1,0-0.1,0-0.2c0-0.1,0-0.1,0-0.2c0-0.1,0-0.1,0-0.2c0,0,0-0.1,0-0.1
			c0-0.1,0-0.2,0-0.2c0,0,0-0.1,0-0.1c0-0.1,0-0.2,0-0.3l0,0c0-0.2,0.1-0.4,0.1-0.7l0,0c0.2-1.1,0.6-2.3,0.5-3.5
			c0-1.2-0.3-2.4-0.8-3.5c-0.2,0.4-0.4,0.7-0.7,1c-2.3,2.3-7,2.7-10.1,2.2c-2.9-0.4-5.4-2.7-8.5-1.9c-1.8,0.5-2.5,1.5-4.8,1.3
			c-1.6-0.1-3.4-0.4-4.8-1c-1.9-0.7-2.2-1.5-3.6-2.9c-1.7-1.6-1.1-1.4-3.8-1.3c-6.9,0.3-12.3-4.2-14.8-10.1
			c-0.2,0.4-0.5,0.8-0.7,1.2v0c0,0,0,0.1,0,0.1c0,0.1-0.1,0.2-0.1,0.2c0,0,0,0.1,0,0.1c-0.1,0.1-0.1,0.2-0.1,0.3c0,0,0,0,0,0.1
			c0,0.1-0.1,0.2-0.1,0.2c0,0,0,0.1,0,0.1c0,0.1-0.1,0.2-0.1,0.3c0,0,0,0,0,0c0,0.1,0,0.1,0,0.2c0,0,0,0,0,0.1c0,0.1,0,0.1,0,0.2
			c0,0,0,0,0,0c0,0,0,0.1,0,0.1c0,0,0,0,0,0c0,0,0.1,0.1,0.1,0.1c-0.2,0-0.3-0.1-0.5-0.1c0,0-0.1,0-0.1,0c-0.1,0-0.3-0.1-0.4-0.1
			c0,0,0,0-0.1,0c-0.2-0.1-0.3-0.1-0.4-0.2c0,0,0,0,0,0c-0.2-0.1-0.3-0.1-0.5-0.2c0,0,0,0,0,0c-0.4-0.2-0.9-0.5-1.3-0.7
			c-0.1,4.4-0.3,8.8-5.5,10.2c-7.5,2-9.5-3-7.8-8.8c-0.3,0.2-0.7,0.4-1,0.6c-1.7,1-2.7,1.4-4.1,1.3c1.4,3.2,2.2,6.5,0.7,9.9
			c-1.9,4.3-6,3.5-9.4,5.8c-1.6,1.1-2.3,2.9-4.5,2.6c-1.5-0.2-2.5-1.4-3.6-2.4c-1.7-1.6-2.5-3.7-3.5-5.7c-0.1,0.9-0.4,1.6-1,2.4
			c0.2,0.3,0.5,0.7,0.8,1c1.5,1.7,3.4,4.7,1.5,6.9c-2,2.3-5.6,0.3-7.4-1.3c-0.5-0.4-0.9-0.9-1.3-1.4c-0.6,1.5-0.6,3.2-0.2,4.9
			c0.7,3.1,2.5,5.7,5.5,7c0.7,0.3,6,1.5,8.2,2c0.8-1.5,1.5-3.3,2.3-4.5c3-4.3,7.7-8.1,11.9-11.2c2-1.5,2.9-3,5.4-3.3
			c1.7-0.2,4.7,1.1,6.1,0.7c1.5-0.4,1.5-2.7,2.5-3.9C41.8,77,47,78,50.4,78.2c2,1.6,3.9,3.6,4,4.4c0.4,3.6-4.1,6.4-6.9,7.6
			c-3.3,1.3-7.2,3.3-9.9,5.9c-3.6,3.7-4.3,5.3-9.4,7c-3.3,1.1-7.7,3.2-8.9,6.7c6-4.3,10.9-5.4,18.3-5.7c4.3-0.2,8.6-0.1,11.1-4.2
			C52,94.3,54.4,89.3,61.9,89c3.3-0.1,6.5,1.4,9.6,1.9c2.9,0.5,6.6,1.5,9.6,0.3c2-0.8,3.5-2.4,5.5-3.2c0.5-0.2,1-0.3,1.4-0.3
			c0.8-0.3,1.6-0.5,2.4-0.6c1,0.2,2,0.4,2.9,0.8c7.2,2.7,3.3,11.7-3.5,11.6c-3,0-3.5-1.2-5.9-2.6c-2.4-1.4-4.5-1.3-7.3-1.1
			c1.7,2.1,3.6,2.9,4.1,5.9c0.3,1.6,0.6,6.9-0.7,8.2c-3,2.9-9.4-6.9-12.8-7.3c1.3,2.5,1.7,8.5-1.1,10.3c-1.5,1-3.8,0-5.5,0.5
			c-1.9,0.5-2.2,1.6-3.8,2.8c-7.4,5.6-11-5.5-12.2-10.9c-3.8,8.5-9.6,12.6-18.6,10.3c-4.2-1.1-10.6-2.2-12.6-6.4
			c-1.2-2.4-1.5-5.5-1.1-8.5c-0.1,0.1-0.1,0.2-0.2,0.3c-0.1,0.3-0.3,0.7-0.5,1c0,0.1-0.1,0.1-0.2,0.2c0.3,0.1,0.4,0.1,0.4,0.1
			c-3.8,5.4-2.1,9.3,2.8,13.2c4.3,3.3,10.1,5.5,15.5,6c5.5,0.5,8.8-4.1,14.1-2.6c4.8,1.4,9.2,1.9,14.5,1.6c3.1-0.2,5.3-1.3,8.1-2.5
			c2.6-1,3.3-2.5,5.4-3.8c2.5-1.5,3.4,1.1,5.8,0.9c2.9-0.2,2.2-2.6,4.4-3.9c2.1-1.2,4.9-0.1,7.2-0.9c2.6-0.9,4.8-3.3,6.4-5.4
			C98.6,101.8,104,95.8,102,91.5z"/>
		<path class="st3" d="M81.7,76.4c1.4,0.1,2.5,0.8,3.9,0.7c-0.7-2-3.5-3.2-4.4-5.5c-1.4-3.4-0.8-6,0.2-8.6c0.1-0.1,0.1-0.3,0.2-0.4
			c-1.3-0.8-2.8-1.3-4.2-1.2c-2.3,0.2-2.8,1.3-4.7,2.7c-0.1-0.2-0.2-0.4-0.3-0.5c-0.2,2.4-0.7,5-2.4,6.6c-1.2,1.1-2.9,1.3-3.8,2.7
			c0.7-0.9,4.9-1.2,6.2-1.7c4.3-1.5,8.2,1.4,5.7,5.9C79.3,76.9,80.3,76.3,81.7,76.4z"/>
	</g>
	<path class="st4" d="M88,86.6c3.5-0.1,5-1.4,8.1-3.3c-2.9,1-7.2,1.1-10.3,0.8c-1.9-0.2-3.3-1.1-5.2-0.9c-4.5,0.5-6.4,3.1-11.4,1.7
		c-3.3-0.9-7.4-3-7.1-7c-3.9,0.2-10-2.8-12.9-5.2c-1.6-1.4-2.3-3.2-2.5-5.2c-0.2,0.5-0.2,0.9,0.1,1c-0.3-0.1-0.7-0.2-1-0.3
		c0.8,3,1.4,6.2-0.2,8.4c4.4-0.1,9-1.4,12.6,2c4.6,4.2-0.1,7.1-3.8,9.5c-3.5,2.3-8.3,4.3-11.1,7.3c-1.5,1.6-1.4,3.7-3.1,5
		c-1.9,1.4-4.8,0.9-6.1,3.2c2.5-1.3,4.9-1.8,7.6-2.6c3.3-1.1,1.4-2.7,3.5-5c2-2.1,5.7-3.8,8.2-5.5c2.1-1.4,4.5-3.6,6.8-4.7
		c2.7-1.3,5-0.2,7.6,0.2c2.7,0.4,5.8,0,8.5,0C80.1,86.1,84,86.7,88,86.6z"/>
	<path class="st4" d="M80.3,74c-0.9-2.9-3.4-5-4.1-8.1c-0.4-1.5-0.3-2.9,0.1-4.3c-1.1,0.3-1.7,1-2.7,1.8c0,2.8,0.2,5.7-1.8,5.9
		C75.9,68.7,77.7,71.2,80.3,74z"/>
	<path class="st4" d="M36.8,79.4c-2.1,1-5,1.3-7-0.1c-2.3-1.6-1.6-4.8-2.6-7.2c0,2.6,0.8,5.7-0.3,8.3c-0.8,1.9-2.8,2.9-3.8,4.6
		c2.3-0.7,4.1-2.3,6.3-3c1-0.3,2.1-0.6,3.2-0.5c0.3,0,3.3,0.4,3.4,0.2C36.2,80.8,36.4,80.1,36.8,79.4z"/>
	<path class="st4" d="M7.2,86.8c0,0.4,1.2,1.9,1.5,2.5c0.4,0.9,0.6,1.3,0.3,2.3c-0.6,1.8-2.5,2.8-4.1,3.4c-2.7,1-7.8-1-7.3-4.4
		c-0.1,0.8,3.1,2.6,3.6,2.9c1.3,0.7,2.3,1,3.7,0.2C7.8,92.1,7.3,89.4,7.2,86.8z"/>
	<path class="st4" d="M87.4,106.3c1.1,0.5,2.3,0.8,3.3,0.8c3.7,0.2,6-4.3,7.9-6.9c1.9-2.7,3-7.2,0.6-9.8c0,1.7,0.2,3.6-0.4,5.2
		c-0.6,1.5-1.7,2.9-2.6,4.2c-1,1.4-1.4,2.8-2.9,3.7c-1.6,0.9-3.5,1-5.1,0.4c-0.6-0.3-4.2-2.5-3.9-3.4
		C83.2,103.2,85.1,105.2,87.4,106.3z"/>
	<path class="st4" d="M80,112.2c-0.1,1.1-5.7-1.9-6.1-2.2c-1.7-1.4-2.9-3.3-4.6-4.6c0.7,1.4,1,3,2,4.2c0.9,1.1,2,2.1,3.2,3
		C76,113.7,79.8,115.1,80,112.2z"/>
	<path class="st4" d="M61.5,117.8c-1.9,1.1-4,2.8-6.3,2.7c-2.6-0.1-5.6-1.2-7.7-2.5c-0.9-0.5-1.8-0.9-2.3-1.9
		c-0.7-1.7-0.4-4.5-0.5-6.4c1.4,2.8,3.1,6,5.8,7.8c2.7,1.8,6.7,1.7,9.3-0.3c0.6-0.4,1-1.7,1.7-1.7c1.4-0.1,1.2,1.6,3.1,0.9
		c1.3-0.5,2.6-1.3,3.4-2.4c0,1.1-0.5,2.8-1.5,3.3C65,117.9,63,117,61.5,117.8z"/>
	<path class="st4" d="M31.3,117.9c1.8,0,3.6-0.2,5.1-1.2c1.6-1,2.5-2.3,3.8-3.4c-0.2,3-3.5,5.3-6.2,6c-2.4,0.7-4.5,1.4-7,0.8
		c-3.1-0.7-6.5-1.9-9.2-3.7c-1.2-0.8-1.5-1.7-2.3-2.7c3.1,2.1,6.8,3.2,10.5,3.6C27.7,117.6,29.5,117.9,31.3,117.9z"/>
	<path class="st5" d="M96.6,86.5c0.6,0.2,1.5,0.6,2.4,1c0,0,0-0.1,0-0.1c-0.4-2.1,0.7-4,0.6-6.2c0-1.1-0.3-2.2-0.7-3.2
		c-0.7,1.5-1.8,2.8-3.4,3.8c-2.7,1.7-5.5,3.1-8.3,4.4C90.7,86.1,93,85.3,96.6,86.5z"/>
	<path class="st6" d="M99.6,81.3c-1.9,1.8-4.9,3-7,3.8c-0.8,0.3-1.7,0.7-2.5,1c2.1-0.2,4-0.4,6.5,0.5c0.6,0.2,1.5,0.6,2.4,1
		c0,0,0-0.1,0-0.1C98.5,85.3,99.6,83.4,99.6,81.3z"/>
	<path class="st7" d="M13.8,98c2.2-4.3,6.9-6.7,9.7-10.8c-2.7,1.5-6.2,0.4-9,1.5c-2.7,1-4.3,4-6.7,5.4c-2.6,1.5-6.5,2.4-9.5,1.5
		c1,1.9,2.5,3.5,4.5,4.4c0.9,0.4,9.2,2.2,9.2,2.2C11.9,102.2,12.7,100.1,13.8,98z"/>
	<path class="st5" d="M22.2,87.8c-0.3,0.2-0.7,0.3-1.2,0.3c-3,0.1-6.2,3.1-8.5,4.9c-2.6,2.1-5.6,5.2-9,5.9c-0.9,0.2-1.7,0.2-2.5,0.2
		c0.5,0.4,1.1,0.7,1.7,0.9c0.9,0.4,9.2,2.2,9.2,2.2c0,0,0.8-2.1,1.8-4.2c2.2-4.3,6.9-6.7,9.7-10.8C23.1,87.5,22.7,87.6,22.2,87.8z"
		/>
	<path class="st6" d="M19,89.3c-0.5,0.4-1,0.9-1.4,1.2c-1.6,1.5-2.7,3.4-3.9,5.1c-2.3,3.1-8.2,6.1-11.9,4c0.3,0.2,0.6,0.3,0.9,0.5
		c0.9,0.4,9.2,2.2,9.2,2.2c0,0,0.8-2.1,1.8-4.2c2.2-4.3,6.9-6.7,9.7-10.8c-0.7,0.4-1.4,0.6-2.1,0.7C20.6,88.1,19.8,88.7,19,89.3z"/>
	<path class="st8" d="M18.5,77.5c-1-5.8-12-5.4-11.1,0.8C8.3,84.6,19.7,84.1,18.5,77.5z"/>
	<path class="st8" d="M40.1,69.8c0.1-4.9-5-2.9-6.2,0.2C31.9,75.4,40,75.3,40.1,69.8z"/>
	<path class="st8" d="M26.3,98.2c0.6,0.5,0,1.2,0.8,2.1c1.7,2,4.8-0.7,6-2.1c1.2-1.4,1.3-3.1,1.3-5c-0.2-4-4.6-8.5-7.8-4
		c-1.3,1.8-0.3,6.8-3.4,7.2c-1,0.1-0.9-1.1-1.8-1.1c-2,0-4.4,3.1-3.2,5.1c0.7,1.1,1.9,1,2.9,0.3c1.6-1.1,1.5-3.4,4.3-2.9
		C25.8,97.9,26.2,98.1,26.3,98.2z"/>
	<path class="st8" d="M43.7,87.7c2.2-0.4,4.5-1.7,4.5-3.5c0-1.8-0.7-2.7-2.5-2.8c-1.9,0-5,2.4-5.8,4.1
		C39.1,87.6,41.4,88.2,43.7,87.7z"/>
	<path class="st8" d="M55.9,68.3c1.9,1.8,5.7,2.8,7.9,1.3c2.2-1.5,2.8-4.7,1.6-7c-1.3-2.5-5.6-3.3-8.1-2.9
		C52.7,60.3,52.9,65.4,55.9,68.3z"/>
	<path class="st8" d="M74,77.2c3.3-0.5,2.9-2.9,0-3.8C70.2,72.2,69.8,77.7,74,77.2z"/>
	<path class="st8" d="M92.7,75c0.1-0.5-0.3-1.1-1.3-1.5c-1.5-0.7-2.6-0.6-3.9-1.7c-0.7-0.5-2.1-2.1-3.1-1.2c-1,0.9,1,3.2,1.6,3.8
		c1.2,1.3,3.1,2.3,4.9,1.8C92,76,92.6,75.5,92.7,75z"/>
	<path class="st8" d="M58,105.2c0.6-0.6,1.3-0.7,2.8,0.4c0.7,0.5,1.9,1.9,2.8,1.6c3.5-1.3-0.3-12.7-4.1-12.6
		c-4.7,0.1-5.9,4.3-6.7,8.3c-0.5,2.3-1.6,5.7,2,5C56.7,107.4,57.3,105.9,58,105.2z"/>
	<path class="st8" d="M33.1,112.3c0.5-0.1,1.1-0.2,1.6-0.4c2.7-1.1,2.3-3.7-0.5-4.3c-1.8-0.4-7.2,0.3-7.8,2.4
		c-0.5,1.8,0.8,2.2,2.3,2.3C30.2,112.4,31.7,112.5,33.1,112.3z"/>
	<path class="st8" d="M76.1,104.8c1-0.7,1.1-2.5-0.2-4.5c-1-1.5-2.6-2.6-3.8-3.9c-2.6-2.9-5.6-1.8-3.5,1.8c1.1,1.9,2.1,4.1,3.7,5.6
		C74,105.2,75.3,105.4,76.1,104.8z"/>
	<path class="st8" d="M93.1,93.7c0.1-3.9-7.9-4-8.3-0.5C84.3,97.3,93,97.2,93.1,93.7z"/>
</g>
<g>
	<path class="st9" d="M138.1,132c-0.7,3.1-2.5,5.7-5.5,7c-0.9,0.4-9.2,2.2-9.2,2.2c3.8,5.4,2.1,9.3-2.8,13.2
		c-4.3,3.3-10.1,5.5-15.5,6c-5.5,0.5-8.8-4.1-14.1-2.6c-4.8,1.4-9.2,1.9-14.5,1.6c-3.1-0.2-5.3-1.3-8.1-2.5c-2.6-1-3.3-2.5-5.4-3.8
		c-2.5-1.5-3.4,1.1-5.8,0.9c-2.9-0.2-2.2-2.6-4.4-3.9c-2.1-1.2-4.9-0.1-7.2-0.9c-2.6-0.9-4.8-3.3-6.4-5.4c-2.5-3.1-7.8-9.1-5.8-13.5
		c0.9-2,2.6-1.7,3-4.1c0.4-2.1-0.7-4-0.6-6.2c0.2-4.3,3.2-7.9,6.9-9.8c1.7-0.9,4.3-0.6,5.8-1.7c1.6-1.2,1.9-4,3.4-5.5
		c1.5-1.6,3.9-3,6.2-2.8c2.3,0.2,2.8,1.3,4.7,2.7c2.1-4.8,9.3-7,14-6.1c2.8,0.5,6.6,2.2,8.8,4c0.5,0.4,4.2,6.3,3.1,6.5
		c3.2-0.7,5.2-3.5,8.9-3.5c3.2,0,6,2.5,8.6,4c2.6,1.5,3.6,1.6,6.7,1c6.4-1.2,15.3,1.2,17.3,8.4c0.6,2.2,0.2,3.6,2.1,5.3
		c1.7,1.4,4,1.5,5.2,3.4C138.5,127.7,138.6,129.8,138.1,132z"/>
	<path class="st10" d="M33.4,130.5c-2,4.3,3.3,10.4,5.8,13.5c1.7,2.1,3.8,4.5,6.4,5.4c2.3,0.8,5.1-0.3,7.2,0.9
		c2.2,1.3,1.5,3.6,4.4,3.9c2.4,0.2,3.4-2.4,5.8-0.9c2.1,1.2,2.8,2.8,5.4,3.8c2.9,1.1,5.1,2.3,8.1,2.5c5.3,0.3,9.7-0.2,14.5-1.6
		c5.2-1.5,8.5,3.1,14.1,2.6c5.4-0.5,11.2-2.7,15.5-6c4.9-3.8,6.6-7.8,2.8-13.2c0,0,8.3-1.8,9.2-2.2c3-1.3,4.8-3.9,5.5-7
		c0.5-2.2,0.4-4.3-0.7-5.9c-0.1-0.2-0.3-0.4-0.4-0.6c-0.1,0.3-0.1,0.5-0.2,0.8c-0.5,1.2-2.1,2.5-3.3,2.7c-2.6,0.4-2.1-2.8-1.2-4.2
		c0.3-0.5,0.7-0.9,1.2-1.3c-0.4-0.2-0.8-0.5-1.2-0.8c-1.8-1.6-1.6-2.9-2.1-4.9c-0.2,0.7-0.4,1.2-0.4,1.4c-1.1,2.2-2.2,4.5-5,4.9
		c-3.1,0.4-7.7-1.8-9.7-4.2c-5.7-7,1.8-9.9,8.2-9.7c-3.3-1.4-7.2-1.7-10.5-1.1c-3.1,0.6-4.1,0.5-6.7-1c-1.4-0.8-2.8-1.9-4.3-2.7
		c0.4,1.2,0.8,2.4,1,3.7c0.5,2.5-0.1,6.2-3.3,6c-3.2-0.3-4.9-4.3-4.8-7.1c0-1.3,0.5-2.5,1-3.7c-2.6,0.7-4.4,2.6-7.1,3.2
		c1.1-0.3-2.6-6.1-3.1-6.5c-0.9-0.7-2.1-1.5-3.3-2.1c0.6,2.1,1,4.5,0.3,6.5c-1.3,3.6-4.7,5.5-8.3,4.8c-3-0.5-6.3-0.3-7.9-3.5
		c-1.3-2.7,0.1-6,1.5-8.4c0,0,0,0,0,0c-2.3,1.1-4.2,2.7-5.1,4.8c-1.8-1.3-2.3-2.5-4.7-2.7c-2.2-0.2-4.7,1.2-6.2,2.8
		c1.5,3.7,1.7,7.8-1.5,10.8c-3.2,3-8.1,3.1-11.5,0.5c-0.2-0.2-0.4-0.4-0.6-0.6c-1.5,1.8-2.4,4-2.5,6.3c-0.1,2.2,1,4,0.6,6.2
		C35.9,128.7,34.3,128.5,33.4,130.5z M105.8,145.7c2.2,0.4,4.8,0.6,6.3,2.3c3.6,4-1.2,5.3-4.7,5.4c-3.6,0.2-11.7,0.3-13.1-4
		C92.2,143.3,102.8,145.2,105.8,145.7z M90.1,127.8c-3.4-0.9-8-6.4-2.8-8.8c2.3-1.1,4.6-0.3,6.4,1.3c2.3,2,1.6,5.5,5.1,5.6
		c2.8,0.1,5.7-2.6,8.5-1c1.4,0.8,2.8,2.9,3.5,4.2c1.5,2.8,1,2.6,3.9,3.7c3.4,1.3,6.3,6.8,5.6,10.5c-1.4,7.1-6.6-4.1-9.1-4.3
		c-1.9-0.1-2.9,1.7-4.8,1.5c-2-0.2-4-2.9-5.4-4.3c-1.1-1.2-1.8-2.8-3-3.9c-1.6-1.5-3.3-2.7-5.2-3.6C91.9,128.3,91,128,90.1,127.8z
		 M66.1,115.2c-0.2,3.9-8.4,3.1-9-0.5C56.2,109.9,66.4,110.2,66.1,115.2z M69.4,137.9c0.8-3.5,4.9-5.9,8.3-6
		c3.5-0.1,4.5,2.1,5.2,5.1c1.1,4.6,4.9,14.4-3.9,12.9c-1.6-0.3-2.5-1.5-3.9-1.8c-1.4-0.4-3.6,1.7-5.1,0.6
		C68.7,147.7,69,139.7,69.4,137.9z M60.4,135.6c1.1-1.3,9.5-8.7,8.9-3c-0.4,3.2-1.4,7.2-4.1,9.3c-0.4,0.3-1.1,1-2,1.7
		c-1.9,1.6-4.4,3.4-5.6,2.4C55.2,144,59,137.3,60.4,135.6z M39.7,132.1c0.2-2,2.4-2.9,3.9-3.8c2.4-1.3,3.7-0.4,5.9,1.1
		c1.1,0.8,3.1,1.2,3.6,2.6c1.5,3.6-3.8,4.7-6.5,4.4c-0.1,0-0.3,0-0.4-0.1C43.9,136,39.3,135.3,39.7,132.1z"/>
	<g>
		<path class="st11" d="M33.4,130.5c0.8-1.7,2.1-1.8,2.8-3.2c0-0.1,0.1-0.2,0.1-0.3c0,0,0,0,0-0.1c0-0.1,0.1-0.3,0.1-0.5
			c0-0.1,0-0.3,0.1-0.4c0,0,0-0.1,0-0.1c0-0.1,0-0.2,0-0.2c0-0.1,0-0.1,0-0.2c0-0.1,0-0.1,0-0.2c0-0.1,0-0.1,0-0.2c0,0,0-0.1,0-0.1
			c0-0.1,0-0.2,0-0.2c0,0,0-0.1,0-0.1c0-0.1,0-0.2,0-0.3l0,0c0-0.2-0.1-0.4-0.1-0.7l0,0c-0.2-1.1-0.6-2.3-0.5-3.5
			c0-1.2,0.3-2.4,0.8-3.5c0.2,0.4,0.4,0.7,0.7,1c2.3,2.3,7,2.7,10.1,2.2c2.9-0.4,5.4-2.7,8.5-1.9c1.8,0.5,2.5,1.5,4.8,1.3
			c1.6-0.1,3.4-0.4,4.8-1c1.9-0.7,2.2-1.5,3.6-2.9c1.7-1.6,1.1-1.4,3.8-1.3c6.9,0.3,12.3-4.2,14.8-10.1c0.2,0.4,0.5,0.8,0.7,1.2v0
			c0,0,0,0.1,0,0.1c0,0.1,0.1,0.2,0.1,0.2c0,0,0,0.1,0,0.1c0.1,0.1,0.1,0.2,0.1,0.3c0,0,0,0,0,0.1c0,0.1,0.1,0.2,0.1,0.2
			c0,0,0,0.1,0,0.1c0,0.1,0.1,0.2,0.1,0.3c0,0,0,0,0,0c0,0.1,0,0.1,0,0.2c0,0,0,0,0,0.1c0,0.1,0,0.1,0,0.2c0,0,0,0,0,0
			c0,0,0,0.1,0,0.1c0,0,0,0,0,0c0,0-0.1,0.1-0.1,0.1c0.2,0,0.3-0.1,0.5-0.1c0,0,0.1,0,0.1,0c0.1,0,0.3-0.1,0.4-0.1c0,0,0,0,0.1,0
			c0.2-0.1,0.3-0.1,0.4-0.2c0,0,0,0,0,0c0.2-0.1,0.3-0.1,0.5-0.2c0,0,0,0,0,0c0.4-0.2,0.9-0.5,1.3-0.7c0.1,4.4,0.3,8.8,5.5,10.2
			c7.5,2,9.5-3,7.8-8.8c0.3,0.2,0.7,0.4,1,0.6c1.7,1,2.7,1.4,4.1,1.3c-1.4,3.2-2.2,6.5-0.7,9.9c1.9,4.3,6,3.5,9.4,5.8
			c1.6,1.1,2.3,2.9,4.5,2.6c1.5-0.2,2.5-1.4,3.6-2.4c1.7-1.6,2.5-3.7,3.5-5.7c0.1,0.9,0.4,1.6,1,2.4c-0.2,0.3-0.5,0.7-0.8,1
			c-1.5,1.7-3.4,4.7-1.5,6.9c2,2.3,5.6,0.3,7.4-1.3c0.5-0.4,0.9-0.9,1.3-1.4c0.6,1.5,0.6,3.2,0.2,4.9c-0.7,3.1-2.5,5.7-5.5,7
			c-0.7,0.3-6,1.5-8.2,2c-0.8-1.5-1.5-3.3-2.3-4.5c-3-4.3-7.7-8.1-11.9-11.2c-2-1.5-2.9-3-5.4-3.3c-1.7-0.2-4.7,1.1-6.1,0.7
			c-1.5-0.4-1.5-2.7-2.5-3.9c-2.6-2.8-7.8-1.8-11.2-1.6c-2,1.6-3.9,3.6-4,4.4c-0.4,3.6,4.1,6.4,6.9,7.6c3.3,1.3,7.2,3.3,9.9,5.9
			c3.6,3.7,4.3,5.3,9.4,7c3.3,1.1,7.7,3.2,8.9,6.7c-6-4.3-10.9-5.4-18.3-5.7c-4.3-0.2-8.6-0.1-11.1-4.2c-3.3-5.6-5.8-10.6-13.2-10.9
			c-3.3-0.1-6.5,1.4-9.6,1.9c-2.9,0.5-6.6,1.5-9.6,0.3c-2-0.8-3.5-2.4-5.5-3.2c-0.5-0.2-1-0.3-1.4-0.3c-0.8-0.3-1.6-0.5-2.4-0.6
			c-1,0.2-2,0.4-2.9,0.8c-7.2,2.7-3.3,11.7,3.5,11.6c3,0,3.5-1.2,5.9-2.6c2.4-1.4,4.5-1.3,7.3-1.1c-1.7,2.1-3.6,2.9-4.1,5.9
			c-0.3,1.6-0.6,6.9,0.7,8.2c3,2.9,9.4-6.9,12.8-7.3c-1.3,2.5-1.7,8.5,1.1,10.3c1.5,1,3.8,0,5.5,0.5c1.9,0.5,2.2,1.6,3.8,2.8
			c7.4,5.6,11-5.5,12.2-10.9c3.8,8.5,9.6,12.6,18.6,10.3c4.2-1.1,10.6-2.2,12.6-6.4c1.2-2.4,1.5-5.5,1.1-8.5
			c0.1,0.1,0.1,0.2,0.2,0.3c0.1,0.3,0.3,0.7,0.5,1c0,0.1,0.1,0.1,0.2,0.2c-0.3,0.1-0.4,0.1-0.4,0.1c3.8,5.4,2.1,9.3-2.8,13.2
			c-4.3,3.3-10.1,5.5-15.5,6c-5.5,0.5-8.8-4.1-14.1-2.6c-4.8,1.4-9.2,1.9-14.5,1.6c-3.1-0.2-5.3-1.3-8.1-2.5c-2.6-1-3.3-2.5-5.4-3.8
			c-2.5-1.5-3.4,1.1-5.8,0.9c-2.9-0.2-2.2-2.6-4.4-3.9c-2.1-1.2-4.9-0.1-7.2-0.9c-2.6-0.9-4.8-3.3-6.4-5.4
			C36.7,140.8,31.4,134.8,33.4,130.5z"/>
		<path class="st3" d="M53.7,115.4c-1.4,0.1-2.5,0.8-3.9,0.7c0.7-2,3.5-3.2,4.4-5.5c1.4-3.4,0.8-6-0.2-8.6c-0.1-0.1-0.1-0.3-0.2-0.4
			c1.3-0.8,2.8-1.3,4.2-1.2c2.3,0.2,2.8,1.3,4.7,2.7c0.1-0.2,0.2-0.4,0.3-0.5c0.2,2.4,0.7,5,2.4,6.6c1.2,1.1,2.9,1.3,3.8,2.7
			c-0.7-0.9-4.9-1.2-6.2-1.7c-4.3-1.5-8.2,1.4-5.7,5.9C56.1,115.9,55.1,115.3,53.7,115.4z"/>
	</g>
	<path class="st4" d="M47.4,125.6c-3.5-0.1-5-1.4-8.1-3.3c2.9,1,7.2,1.1,10.3,0.8c1.9-0.2,3.3-1.1,5.2-0.9c4.5,0.5,6.4,3.1,11.4,1.7
		c3.3-0.9,7.4-3,7.1-7c3.9,0.2,10-2.8,12.9-5.2c1.6-1.4,2.3-3.2,2.5-5.2c0.2,0.5,0.2,0.9-0.1,1c0.3-0.1,0.7-0.2,1-0.3
		c-0.8,3-1.4,6.2,0.2,8.4c-4.4-0.1-9-1.4-12.6,2c-4.6,4.2,0.1,7.1,3.8,9.5c3.5,2.3,8.3,4.3,11.1,7.3c1.5,1.6,1.4,3.7,3.1,5
		c1.9,1.4,4.8,0.9,6.1,3.2c-2.5-1.3-4.9-1.8-7.6-2.6c-3.3-1.1-1.4-2.7-3.5-5c-2-2.1-5.7-3.8-8.2-5.5c-2.1-1.4-4.5-3.6-6.8-4.7
		c-2.7-1.3-5-0.2-7.6,0.2c-2.7,0.4-5.8,0-8.5,0C55.3,125.1,51.4,125.7,47.4,125.6z"/>
	<path class="st4" d="M55.1,113c0.9-2.9,3.4-5,4.1-8.1c0.4-1.5,0.3-2.9-0.1-4.3c1.1,0.3,1.7,1,2.7,1.8c0,2.8-0.2,5.7,1.8,5.9
		C59.4,107.7,57.6,110.2,55.1,113z"/>
	<path class="st4" d="M98.6,118.4c2.1,1,5,1.3,7-0.1c2.3-1.6,1.6-4.8,2.6-7.2c0,2.6-0.8,5.7,0.3,8.3c0.8,1.9,2.8,2.9,3.8,4.6
		c-2.3-0.7-4.1-2.3-6.3-3c-1-0.3-2.1-0.6-3.2-0.5c-0.3,0-3.3,0.4-3.4,0.2C99.1,119.8,99,119.1,98.6,118.4z"/>
	<path class="st4" d="M128.1,125.8c0,0.4-1.2,1.9-1.5,2.5c-0.4,0.9-0.6,1.3-0.3,2.3c0.6,1.8,2.5,2.8,4.1,3.4c2.7,1,7.8-1,7.3-4.4
		c0.1,0.8-3.1,2.6-3.6,2.9c-1.3,0.7-2.3,1-3.7,0.2C127.6,131.1,128.1,128.4,128.1,125.8z"/>
	<path class="st4" d="M48,145.3c-1.1,0.5-2.3,0.8-3.3,0.8c-3.7,0.2-6-4.3-7.9-6.9c-1.9-2.7-3-7.2-0.6-9.8c0,1.7-0.2,3.6,0.4,5.2
		c0.6,1.5,1.7,2.9,2.6,4.2c1,1.4,1.4,2.8,2.9,3.7c1.6,0.9,3.5,1,5.1,0.4c0.6-0.3,4.2-2.5,3.9-3.4C52.2,142.2,50.3,144.2,48,145.3z"
		/>
	<path class="st4" d="M55.4,151.2c0.1,1.1,5.7-1.9,6.1-2.2c1.7-1.4,2.9-3.3,4.6-4.6c-0.7,1.4-1,3-2,4.2c-0.9,1.1-2,2.1-3.2,3
		C59.4,152.7,55.6,154.1,55.4,151.2z"/>
	<path class="st4" d="M73.9,156.8c1.9,1.1,4,2.8,6.3,2.7c2.6-0.1,5.6-1.2,7.7-2.5c0.9-0.5,1.8-0.9,2.3-1.9c0.7-1.7,0.4-4.5,0.5-6.4
		c-1.4,2.8-3.1,6-5.8,7.8c-2.7,1.8-6.7,1.7-9.3-0.3c-0.6-0.4-1-1.7-1.7-1.7c-1.4-0.1-1.2,1.6-3.1,0.9c-1.3-0.5-2.6-1.3-3.4-2.4
		c0,1.1,0.5,2.8,1.5,3.3C70.3,156.9,72.4,156,73.9,156.8z"/>
	<path class="st4" d="M104.1,156.9c-1.8,0-3.6-0.2-5.1-1.2c-1.6-1-2.5-2.3-3.8-3.4c0.2,3,3.5,5.3,6.2,6c2.4,0.7,4.5,1.4,7,0.8
		c3.1-0.7,6.5-1.9,9.2-3.7c1.2-0.8,1.5-1.7,2.3-2.7c-3.1,2.1-6.8,3.2-10.5,3.6C107.7,156.6,105.9,156.9,104.1,156.9z"/>
	<path class="st5" d="M38.8,125.5c-0.6,0.2-1.5,0.6-2.4,1c0,0,0-0.1,0-0.1c0.4-2.1-0.7-4-0.6-6.2c0-1.1,0.3-2.2,0.7-3.2
		c0.7,1.5,1.8,2.8,3.4,3.8c2.7,1.7,5.5,3.1,8.3,4.4C44.7,125.1,42.4,124.3,38.8,125.5z"/>
	<path class="st6" d="M35.8,120.3c1.9,1.8,4.9,3,7,3.8c0.8,0.3,1.7,0.7,2.5,1c-2.1-0.2-4-0.4-6.5,0.5c-0.6,0.2-1.5,0.6-2.4,1
		c0,0,0-0.1,0-0.1C36.8,124.3,35.7,122.4,35.8,120.3z"/>
	<path class="st7" d="M121.6,137c-2.2-4.3-6.9-6.7-9.7-10.8c2.7,1.5,6.2,0.4,9,1.5c2.7,1,4.3,4,6.7,5.4c2.6,1.5,6.5,2.4,9.5,1.5
		c-1,1.9-2.5,3.5-4.5,4.4c-0.9,0.4-9.2,2.2-9.2,2.2C123.4,141.2,122.7,139.1,121.6,137z"/>
	<path class="st5" d="M113.1,126.8c0.3,0.2,0.7,0.3,1.2,0.3c3,0.1,6.2,3.1,8.5,4.9c2.6,2.1,5.6,5.2,9,5.9c0.9,0.2,1.7,0.2,2.5,0.2
		c-0.5,0.4-1.1,0.7-1.7,0.9c-0.9,0.4-9.2,2.2-9.2,2.2c0,0-0.8-2.1-1.8-4.2c-2.2-4.3-6.9-6.7-9.7-10.8
		C112.3,126.5,112.7,126.6,113.1,126.8z"/>
	<path class="st6" d="M116.4,128.3c0.5,0.4,1,0.9,1.4,1.2c1.6,1.5,2.7,3.4,3.9,5.1c2.3,3.1,8.2,6.1,11.9,4c-0.3,0.2-0.6,0.3-0.9,0.5
		c-0.9,0.4-9.2,2.2-9.2,2.2c0,0-0.8-2.1-1.8-4.2c-2.2-4.3-6.9-6.7-9.7-10.8c0.7,0.4,1.4,0.6,2.1,0.7
		C114.7,127.1,115.6,127.7,116.4,128.3z"/>
	<path class="st8" d="M116.8,116.5c1-5.8,12-5.4,11.1,0.8C127.1,123.6,115.6,123.1,116.8,116.5z"/>
	<path class="st8" d="M95.3,108.8c-0.1-4.9,5-2.9,6.2,0.2C103.5,114.4,95.4,114.3,95.3,108.8z"/>
	<path class="st8" d="M109,137.2c-0.6,0.5,0,1.2-0.8,2.1c-1.7,2-4.8-0.7-6-2.1c-1.2-1.4-1.3-3.1-1.3-5c0.2-4,4.6-8.5,7.8-4
		c1.3,1.8,0.3,6.8,3.4,7.2c1,0.1,0.9-1.1,1.8-1.1c2,0,4.4,3.1,3.2,5.1c-0.7,1.1-1.9,1-2.9,0.3c-1.6-1.1-1.5-3.4-4.3-2.9
		C109.5,136.9,109.2,137.1,109,137.2z"/>
	<path class="st8" d="M91.7,126.7c-2.2-0.4-4.5-1.7-4.5-3.5c0-1.8,0.7-2.7,2.5-2.8c1.9,0,5,2.4,5.8,4.1
		C96.3,126.6,94,127.2,91.7,126.7z"/>
	<path class="st8" d="M79.5,107.3c-1.9,1.8-5.7,2.8-7.9,1.3c-2.2-1.5-2.8-4.7-1.6-7c1.3-2.5,5.6-3.3,8.1-2.9
		C82.7,99.3,82.4,104.4,79.5,107.3z"/>
	<path class="st8" d="M61.3,116.2c-3.3-0.5-2.9-2.9,0-3.8C65.2,111.2,65.5,116.7,61.3,116.2z"/>
	<path class="st8" d="M42.6,114c-0.1-0.5,0.3-1.1,1.3-1.5c1.5-0.7,2.6-0.6,3.9-1.7c0.7-0.5,2.1-2.1,3.1-1.2c1,0.9-1,3.2-1.6,3.8
		c-1.2,1.3-3.1,2.3-4.9,1.8C43.4,115,42.7,114.5,42.6,114z"/>
	<path class="st8" d="M77.3,144.2c-0.6-0.6-1.3-0.7-2.8,0.4c-0.7,0.5-1.9,1.9-2.8,1.6c-3.5-1.3,0.3-12.7,4.1-12.6
		c4.7,0.1,5.9,4.3,6.7,8.3c0.5,2.3,1.6,5.7-2,5C78.7,146.4,78.1,144.9,77.3,144.2z"/>
	<path class="st8" d="M102.3,151.3c-0.5-0.1-1.1-0.2-1.6-0.4c-2.7-1.1-2.3-3.7,0.5-4.3c1.8-0.4,7.2,0.3,7.8,2.4
		c0.5,1.8-0.8,2.2-2.3,2.3C105.2,151.4,103.7,151.5,102.3,151.3z"/>
	<path class="st8" d="M59.2,143.8c-1-0.7-1.1-2.5,0.2-4.5c1-1.5,2.6-2.6,3.8-3.9c2.6-2.9,5.6-1.8,3.5,1.8c-1.1,1.9-2.1,4.1-3.7,5.6
		C61.4,144.2,60,144.4,59.2,143.8z"/>
	<path class="st8" d="M42.3,132.7c-0.1-3.9,7.9-4,8.3-0.5C51.1,136.3,42.3,136.2,42.3,132.7z"/>
</g>
<g>
	<path class="st0" d="M109.8,92.9c1,2.8,3,5,5.9,5.8c0.9,0.3,8.7,1,8.8,0.9c-2.8,5.4-0.8,8.9,4.1,11.8c4.3,2.6,9.9,3.9,15,3.7
		c5.2-0.2,7.7-4.8,12.7-4c4.6,0.7,8.7,0.7,13.5-0.2c2.8-0.5,4.7-1.9,7.2-3.2c2.2-1.2,2.8-2.7,4.5-4.1c2.1-1.7,3.3,0.7,5.5,0.2
		c2.6-0.6,1.7-2.7,3.6-4.1c1.8-1.4,4.5-0.7,6.6-1.7c2.3-1.1,4-3.6,5.3-5.7c1.9-3.1,6.1-9.3,3.8-13.1c-1.1-1.7-2.6-1.3-3.3-3.4
		c-0.6-1.9,0.2-3.8-0.2-5.8c-0.6-3.9-3.8-6.9-7.5-8.2c-1.7-0.6-4,0-5.5-0.9c-1.6-0.9-2.2-3.4-3.8-4.6c-1.6-1.3-4-2.3-6-1.9
		c-2.1,0.4-2.5,1.6-4,3c-2.5-4.2-9.4-5.4-13.6-4c-2.6,0.8-5.8,2.8-7.7,4.7c-0.4,0.5-3.2,6.3-2.1,6.4c-3.1-0.3-5.2-2.6-8.6-2.2
		c-3,0.4-5.2,3-7.5,4.7c-2.2,1.7-3.1,1.9-6.1,1.7c-6-0.3-13.9,2.9-14.9,9.7c-0.3,2.1,0.2,3.3-1.4,5.1c-1.4,1.5-3.5,1.8-4.4,3.7
		C108.9,88.9,109.1,90.9,109.8,92.9z"/>
	<path class="st1" d="M202.8,75.8c-0.6-1.9,0.2-3.8-0.2-5.8c-0.4-2.2-1.5-4-3-5.5c-0.2,0.2-0.3,0.4-0.5,0.6
		c-2.8,2.8-7.3,3.3-10.6,0.9c-3.3-2.4-3.5-6.2-2.6-9.8c-1.6-1.3-4-2.3-6-1.9c-2.1,0.4-2.5,1.6-4,3c-1.1-1.8-3-3.1-5.3-3.8
		c0,0,0,0,0,0c1.6,2.1,3.3,4.9,2.4,7.6c-1.1,3.2-4.2,3.3-6.9,4.2c-3.2,1-6.6-0.3-8.2-3.5c-0.9-1.8-0.8-4-0.5-6
		c-1.1,0.7-2.1,1.5-2.8,2.3c-0.4,0.5-3.2,6.3-2.1,6.4c-2.5-0.2-4.4-1.8-6.9-2.2c0.6,1.1,1.1,2.1,1.3,3.3c0.3,2.5-0.7,6.4-3.6,7.1
		c-3,0.6-3.9-2.8-3.8-5.1c0.1-1.2,0.2-2.3,0.5-3.5c-1.3,0.9-2.5,2.1-3.6,3c-2.2,1.7-3.1,1.9-6.1,1.7c-3.1-0.2-6.6,0.6-9.5,2.3
		c5.9-1,13.2,0.8,8.7,7.9c-1.6,2.5-5.5,5-8.5,5c-2.6,0-3.8-2-5.1-3.9c-0.1-0.1-0.3-0.6-0.6-1.2c-0.2,1.9,0.2,3.1-1.3,4.7
		c-0.3,0.3-0.6,0.6-1,0.9c0.5,0.3,0.9,0.6,1.3,1.1c1,1.2,1.8,4.1-0.6,4.1c-1.2,0-2.8-1.1-3.4-2.1c-0.1-0.2-0.2-0.4-0.3-0.7
		c-0.1,0.2-0.2,0.4-0.3,0.6c-0.8,1.6-0.6,3.6,0.1,5.5c1,2.8,3,5,5.9,5.8c0.9,0.3,8.7,1,8.8,0.9c-2.8,5.4-0.8,8.9,4.1,11.8
		c4.3,2.6,9.9,3.9,15,3.7c5.2-0.2,7.7-4.8,12.7-4c4.6,0.7,8.7,0.7,13.5-0.2c2.8-0.5,4.7-1.9,7.2-3.2c2.2-1.2,2.8-2.7,4.5-4.1
		c2.1-1.7,3.3,0.7,5.5,0.2c2.6-0.6,1.7-2.7,3.6-4.1c1.8-1.4,4.5-0.7,6.6-1.7c2.3-1.1,4-3.6,5.3-5.7c1.9-3.1,6.1-9.3,3.8-13.1
		C205,77.5,203.5,77.9,202.8,75.8z M152.1,103.9c-0.8,4-8.3,4.9-11.6,5.2c-3.2,0.2-7.8-0.3-4.9-4.5c1.2-1.7,3.6-2.3,5.5-2.9
		C143.9,100.9,153.4,97.9,152.1,103.9z M151.2,84.5c-1.7,1-3.1,2.4-4.4,3.9c-1,1.2-1.4,2.8-2.3,4c-1.1,1.5-2.6,4.2-4.5,4.6
		c-1.7,0.4-2.9-1.2-4.6-0.9c-2.4,0.5-5.8,11.5-7.9,5.1c-1.1-3.3,0.9-8.7,3.9-10.3c2.5-1.4,2-1.2,3.1-3.9c0.5-1.3,1.6-3.4,2.8-4.3
		c2.4-1.8,5.4,0.4,7.9-0.1c3.2-0.5,2.2-3.7,4.1-5.8c1.5-1.7,3.6-2.7,5.8-2c5.1,1.6,1.4,7.2-1.6,8.4
		C152.7,83.7,151.9,84.1,151.2,84.5z M182.4,67.5c-0.2,3.3-7.6,5-8.3,1.5C173.3,64.4,182.7,62.9,182.4,67.5z M174.3,100.4
		c-1.2,1.1-3.4-0.5-4.7,0c-1.2,0.5-1.9,1.7-3.3,2.1c-7.9,2.4-5.6-7.1-5.1-11.5c0.3-2.9,0.9-5,4.2-5.3c3.2-0.3,7.2,1.4,8.4,4.5
		C174.3,91.9,175.6,99.2,174.3,100.4z M185.6,96.3c-1,1.1-3.6-0.3-5.5-1.5c-0.9-0.5-1.6-1.1-2-1.3c-2.8-1.6-4.1-5.1-4.8-8.1
		c-1.2-5.2,7.4,0.6,8.6,1.7C183.3,88.5,187.6,94.2,185.6,96.3z M195,86.2c-0.1,0-0.2,0.1-0.4,0.1c-2.4,0.6-7.4,0.2-6.5-3.3
		c0.3-1.3,2.1-1.9,3-2.8c1.9-1.7,2.9-2.6,5.3-1.7c1.5,0.6,3.6,1.2,4,3C201.2,84.4,197,85.6,195,86.2z"/>
	<g>
		<path class="st12" d="M206.1,79.2c-0.9-1.5-2.1-1.4-2.9-2.6c-0.1-0.1-0.1-0.2-0.2-0.3c0,0,0,0,0-0.1c-0.1-0.1-0.1-0.3-0.2-0.4
			c0-0.1-0.1-0.2-0.1-0.3c0,0,0-0.1,0-0.1c0-0.1,0-0.1,0-0.2c0-0.1,0-0.1,0-0.2c0-0.1,0-0.1,0-0.2c0-0.1,0-0.1,0-0.2
			c0,0,0-0.1,0-0.1c0-0.1,0-0.1,0-0.2c0,0,0-0.1,0-0.1c0-0.1,0-0.2,0-0.3l0,0c0-0.2,0-0.4,0-0.6l0,0c0.1-1.1,0.2-2.1,0.1-3.3
			c-0.2-1.1-0.6-2.2-1.1-3.1c-0.1,0.4-0.3,0.7-0.5,1c-1.8,2.4-6.1,3.3-9,3.2c-2.7,0-5.3-1.8-8-0.7c-1.6,0.6-2.1,1.7-4.3,1.8
			c-1.5,0.1-3.1,0-4.5-0.3c-1.8-0.4-2.2-1.1-3.7-2.2c-1.7-1.3-1.1-1.2-3.6-0.7c-6.4,1.1-11.8-2.4-14.8-7.6c-0.2,0.4-0.3,0.8-0.5,1.2
			l0,0c0,0,0,0.1,0,0.1c0,0.1,0,0.2-0.1,0.2c0,0,0,0.1,0,0.1c0,0.1-0.1,0.2-0.1,0.3c0,0,0,0,0,0.1c0,0.1,0,0.2-0.1,0.2
			c0,0,0,0.1,0,0.1c0,0.1,0,0.2,0,0.2c0,0,0,0,0,0c0,0.1,0,0.1,0,0.2c0,0,0,0,0,0.1c0,0.1,0,0.1,0,0.2c0,0,0,0,0,0
			c0,0,0,0.1,0.1,0.1c0,0,0,0,0,0c0,0,0.1,0,0.1,0c-0.2,0-0.3,0-0.5-0.1c0,0-0.1,0-0.1,0c-0.1,0-0.3,0-0.4-0.1c0,0,0,0-0.1,0
			c-0.1,0-0.3-0.1-0.4-0.1c0,0,0,0,0,0c-0.2,0-0.3-0.1-0.5-0.2c0,0,0,0,0,0c-0.4-0.2-0.8-0.3-1.3-0.5c0.4,4,0.7,8.2-3.8,10
			c-6.7,2.7-9.1-1.7-8.2-7.2c-0.3,0.2-0.6,0.5-0.9,0.7c-1.5,1.1-2.4,1.6-3.7,1.7c1.7,2.7,2.8,5.7,1.8,9c-1.3,4.2-5.1,4-8,6.4
			c-1.4,1.2-1.8,2.9-3.8,2.9c-1.4,0-2.5-1-3.6-1.8c-1.7-1.3-2.8-3.1-3.9-4.9c0,0.8-0.1,1.5-0.7,2.3c0.3,0.3,0.5,0.6,0.9,0.9
			c1.6,1.4,3.7,4,2.2,6.1c-1.6,2.3-5.1,1-7-0.3c-0.5-0.3-1-0.7-1.4-1.2c-0.3,1.4-0.1,3,0.4,4.5c1,2.8,3,5,5.9,5.8
			c0.7,0.2,5.7,0.7,7.8,0.9c0.6-1.5,1-3.2,1.6-4.4c2.3-4.4,6.1-8.4,9.7-11.7c1.7-1.6,2.3-3.1,4.6-3.7c1.5-0.4,4.5,0.5,5.7-0.1
			c1.3-0.6,1.1-2.7,1.9-3.8c2-2.9,6.9-2.6,10.1-2.7c2,1.2,4,2.8,4.2,3.6c0.8,3.2-3,6.4-5.5,7.8c-2.9,1.6-6.3,3.9-8.4,6.6
			c-2.9,3.8-3.4,5.4-7.8,7.5c-3,1.4-6.8,3.8-7.5,7.2c5-4.6,9.4-6.2,16.2-7.4c4-0.7,7.9-1.1,9.7-5.2c2.4-5.5,4.1-10.5,10.9-11.5
			c3-0.5,6.1,0.5,9.1,0.6c2.7,0.1,6.3,0.6,8.8-0.8c1.7-1,3-2.7,4.7-3.6c0.5-0.2,0.9-0.4,1.3-0.5c0.7-0.3,1.4-0.6,2.1-0.8
			c1,0.1,1.9,0.2,2.8,0.4c6.9,1.6,4.4,10.4-1.8,11.1c-2.8,0.3-3.3-0.7-5.7-1.7c-2.3-1-4.3-0.7-6.8-0.2c1.8,1.7,3.6,2.2,4.5,5
			c0.4,1.4,1.4,6.3,0.3,7.6c-2.4,3-9.4-5.2-12.6-5.2c1.5,2.1,2.6,7.6,0.2,9.6c-1.3,1.1-3.5,0.4-5,1.1c-1.7,0.7-1.9,1.7-3.2,3
			c-6.1,6-10.8-3.8-12.5-8.6c-2.5,8.3-7.3,12.7-16,11.6c-4-0.5-10-0.8-12.4-4.5c-1.3-2.1-2-4.9-2-7.7c0,0.1-0.1,0.2-0.1,0.3
			c-0.1,0.3-0.2,0.7-0.4,1c0,0.1-0.1,0.1-0.1,0.2c0.3,0,0.4,0,0.4,0c-2.8,5.4-0.8,8.9,4.1,11.8c4.3,2.6,9.9,3.9,15,3.7
			c5.2-0.2,7.7-4.8,12.7-4c4.6,0.7,8.7,0.7,13.5-0.2c2.8-0.5,4.7-1.9,7.2-3.2c2.2-1.2,2.8-2.7,4.5-4.1c2.1-1.7,3.3,0.7,5.5,0.2
			c2.6-0.6,1.7-2.7,3.6-4.1c1.8-1.4,4.5-0.7,6.6-1.7c2.3-1.1,4-3.6,5.3-5.7C204.2,89.2,208.4,83,206.1,79.2z"/>
		<path class="st3" d="M185.6,67.7c1.3-0.1,2.4,0.5,3.7,0.2c-0.9-1.8-3.6-2.5-4.7-4.5c-1.7-2.9-1.5-5.4-0.8-8c0-0.1,0.1-0.3,0.1-0.4
			c-1.3-0.6-2.7-0.9-4-0.6c-2.1,0.4-2.5,1.6-4,3c-0.1-0.2-0.2-0.3-0.3-0.5c0.1,2.3,0,4.7-1.4,6.4c-0.9,1.1-2.5,1.6-3.2,3
			c0.6-0.9,4.4-1.7,5.5-2.3c3.8-1.9,7.8,0.3,5.9,4.8C183.5,68.5,184.3,67.8,185.6,67.7z"/>
	</g>
	<path class="st4" d="M192.6,76.3c3.2-0.5,4.5-1.9,7.1-4c-2.6,1.2-6.5,1.9-9.4,1.9c-1.8,0-3.2-0.6-4.9-0.2c-4.1,1-5.6,3.6-10.3,2.9
		c-3.1-0.4-7.2-1.9-7.3-5.6c-3.6,0.6-9.6-1.4-12.5-3.3c-1.7-1.1-2.5-2.7-2.9-4.5c-0.1,0.5-0.1,0.9,0.2,0.9c-0.3,0-0.6-0.1-0.9-0.2
		c1.1,2.6,2,5.6,0.8,7.8c4.1-0.6,8.1-2.3,11.9,0.3c4.7,3.3,0.7,6.5-2.4,9.2c-2.9,2.5-7.1,4.9-9.4,8c-1.2,1.7-0.9,3.6-2.3,5
		c-1.5,1.5-4.3,1.4-5.3,3.6c2.2-1.5,4.4-2.2,6.7-3.3c3-1.4,1-2.6,2.6-5c1.6-2.2,4.8-4.2,6.9-6c1.8-1.6,3.7-3.8,5.7-5.1
		c2.3-1.5,4.6-0.7,7-0.7c2.5,0.1,5.3-0.7,7.8-1C185.3,76.8,189,76.9,192.6,76.3z"/>
	<path class="st4" d="M184,65.6c-1.1-2.5-3.7-4.2-4.7-7c-0.5-1.4-0.6-2.7-0.4-4c-1,0.4-1.5,1.1-2.3,1.9c0.3,2.6,0.9,5.2-1,5.7
		C179.4,61.3,181.4,63.4,184,65.6z"/>
	<path class="st4" d="M144.6,75.7c-1.8,1.2-4.5,1.8-6.4,0.7c-2.3-1.2-2-4.3-3.2-6.3c0.3,2.4,1.4,5.2,0.7,7.6c-0.5,1.8-2.2,3-3,4.7
		c2-0.9,3.5-2.6,5.5-3.5c0.9-0.4,1.8-0.8,2.9-0.9c0.3,0,3.1,0,3.1-0.3C144.3,77.1,144.3,76.4,144.6,75.7z"/>
	<path class="st4" d="M118.3,85.9c0.1,0.4,1.4,1.6,1.7,2.1c0.5,0.8,0.7,1.1,0.5,2.1c-0.3,1.7-2,2.9-3.4,3.6c-2.4,1.3-7.3,0-7.2-3.2
		c0,0.7,3.1,2,3.7,2.3c1.3,0.5,2.2,0.6,3.4-0.3C119.4,90.8,118.6,88.4,118.3,85.9z"/>
	<path class="st4" d="M194.4,94.5c1.1,0.3,2.2,0.4,3.1,0.4c3.4-0.3,5-4.6,6.4-7.3c1.4-2.7,2-6.9-0.6-9.1c0.2,1.5,0.6,3.3,0.2,4.8
		c-0.3,1.5-1.3,2.9-1.9,4.2c-0.7,1.4-0.9,2.7-2.2,3.7c-1.3,1-3.1,1.4-4.7,1c-0.6-0.2-4.2-1.8-4-2.6
		C190.1,92.3,192.1,93.9,194.4,94.5z"/>
	<path class="st4" d="M188.3,100.9c0.1,1.1-5.5-1.1-5.9-1.3c-1.7-1.1-3-2.7-4.8-3.7c0.8,1.2,1.3,2.7,2.4,3.7c1,0.9,2.1,1.7,3.3,2.4
		C184.8,102.8,188.4,103.6,188.3,100.9z"/>
	<path class="st4" d="M171.8,108.2c-1.7,1.2-3.3,3-5.5,3.2c-2.4,0.2-5.3-0.5-7.4-1.4c-0.9-0.4-1.8-0.6-2.3-1.5
		c-0.9-1.5-0.9-4.1-1.2-5.8c1.7,2.4,3.6,5.1,6.3,6.5c2.7,1.3,6.3,0.7,8.5-1.4c0.5-0.4,0.7-1.7,1.3-1.8c1.3-0.2,1.3,1.3,3,0.5
		c1.2-0.6,2.2-1.5,2.9-2.6c0.1,1-0.1,2.6-1,3.2C175.1,107.9,173.2,107.3,171.8,108.2z"/>
	<path class="st4" d="M144,111.8c1.7-0.2,3.3-0.6,4.5-1.7c1.3-1.1,2-2.4,3.1-3.6c0.1,2.8-2.6,5.3-5,6.3c-2.1,0.9-4,1.8-6.3,1.5
		c-3-0.3-6.2-1-8.9-2.3c-1.2-0.6-1.6-1.4-2.4-2.2c3.1,1.6,6.6,2.1,10.1,2.1C140.7,111.9,142.4,112,144,111.8z"/>
	<path class="st5" d="M200.5,75.3c0.6,0.1,1.4,0.4,2.3,0.7c0,0,0-0.1,0-0.1c-0.6-1.9,0.2-3.8-0.2-5.8c-0.2-1-0.5-2-1-2.9
		c-0.5,1.5-1.3,2.8-2.7,3.9c-2.3,1.8-4.7,3.5-7.2,5C195,75.6,197.1,74.6,200.5,75.3z"/>
	<path class="st6" d="M202.7,70.1c-1.5,1.9-4.2,3.3-6,4.3c-0.7,0.4-1.5,0.8-2.2,1.2c1.9-0.4,3.7-0.8,6-0.3c0.6,0.1,1.4,0.4,2.3,0.7
		c0,0,0-0.1,0-0.1C202.2,73.9,203,72.1,202.7,70.1z"/>
	<path class="st7" d="M125.6,95.6c1.5-4.2,5.6-7,7.6-11.1c-2.3,1.7-5.7,1.1-8.1,2.4c-2.4,1.2-3.5,4.2-5.6,5.8
		c-2.2,1.7-5.7,2.9-8.6,2.5c1.1,1.7,2.7,2.9,4.7,3.5c0.9,0.3,8.7,1,8.8,0.9C124.4,99.6,124.9,97.6,125.6,95.6z"/>
	<path class="st5" d="M132.2,85.1c-0.3,0.2-0.6,0.4-1.1,0.5c-2.8,0.4-5.4,3.6-7.2,5.5c-2.2,2.2-4.6,5.4-7.6,6.5
		c-0.8,0.3-1.5,0.4-2.2,0.4c0.5,0.3,1.1,0.5,1.6,0.7c0.9,0.3,8.7,1,8.8,0.9c0,0,0.5-2,1.2-4.1c1.5-4.2,5.6-7,7.6-11.1
		C132.9,84.7,132.6,84.9,132.2,85.1z"/>
	<path class="st6" d="M129.4,86.9c-0.4,0.5-0.8,0.9-1.1,1.3c-1.3,1.5-2.1,3.4-3,5.1c-1.7,3.1-6.8,6.6-10.5,5
		c0.3,0.1,0.6,0.2,0.9,0.3c0.9,0.3,8.7,1,8.8,0.9c0,0,0.5-2,1.2-4.1c1.5-4.2,5.6-7,7.6-11.1c-0.6,0.4-1.2,0.7-1.9,0.9
		C130.8,85.6,130,86.2,129.4,86.9z"/>
	<path class="st8" d="M127.6,76c-1.6-5.2-11.7-3.6-10.2,2C119,83.9,129.5,82,127.6,76z"/>
	<path class="st8" d="M146.5,66.5c-0.5-4.5-4.9-2.1-5.7,0.9C139.6,72.6,147.1,71.6,146.5,66.5z"/>
	<path class="st8" d="M137.2,94.3c0.6,0.4,0.2,1.1,1,1.8c1.8,1.7,4.4-1.2,5.3-2.6c0.9-1.5,0.9-3,0.6-4.7c-0.6-3.6-5.2-7.3-7.6-2.8
		c-1,1.8,0.5,6.3-2.3,7c-0.9,0.2-1-0.9-1.8-0.8c-1.9,0.2-3.7,3.4-2.3,5.1c0.8,0.9,1.9,0.7,2.7-0.1c1.4-1.2,1-3.3,3.6-3.1
		C136.7,94.1,137,94.1,137.2,94.3z"/>
	<path class="st8" d="M152,82.6c2-0.6,3.9-2.1,3.8-3.7c-0.2-1.7-0.9-2.4-2.6-2.3c-1.7,0.2-4.3,2.8-4.8,4.4
		C147.7,83,149.8,83.3,152,82.6z"/>
	<path class="st8" d="M160.9,63.2c1.9,1.4,5.5,2,7.4,0.3c1.9-1.6,2.1-4.7,0.7-6.7c-1.5-2.1-5.5-2.4-7.8-1.7
		C157,56.3,157.9,60.9,160.9,63.2z"/>
	<path class="st8" d="M178.7,69.3c3-0.8,2.3-3-0.4-3.5C174.5,65.2,174.9,70.3,178.7,69.3z"/>
	<path class="st8" d="M195.7,65.1c0-0.5-0.4-1-1.4-1.3c-1.5-0.4-2.4-0.3-3.8-1.1c-0.7-0.4-2.1-1.7-3-0.7c-0.8,1,1.3,2.8,1.9,3.3
		c1.2,1.1,3.1,1.7,4.7,1.1C195.1,66.1,195.6,65.6,195.7,65.1z"/>
	<path class="st8" d="M167.2,97c0.5-0.6,1.1-0.8,2.6,0c0.7,0.4,1.9,1.5,2.8,1.1c3.1-1.6-1.7-11.7-5.2-11.1c-4.3,0.7-4.9,4.7-5.2,8.4
		c-0.2,2.2-0.8,5.4,2.4,4.4C166.2,99.2,166.6,97.8,167.2,97z"/>
	<path class="st8" d="M145.1,106.4c0.5-0.1,1-0.3,1.4-0.6c2.4-1.3,1.6-3.7-0.9-3.9c-1.7-0.2-6.6,1.1-6.9,3.1c-0.3,1.8,1,1.9,2.4,1.9
		C142.4,106.9,143.8,106.8,145.1,106.4z"/>
	<path class="st8" d="M183.8,94.5c0.8-0.8,0.8-2.4-0.7-4.1c-1.1-1.3-2.7-2.1-3.9-3.2c-2.7-2.3-5.4-1-3,2.1c1.3,1.6,2.4,3.5,4.1,4.7
		C181.9,95.2,183.1,95.2,183.8,94.5z"/>
	<path class="st8" d="M198.2,82.3c-0.4-3.6-7.8-2.8-7.7,0.5C190.5,86.6,198.5,85.6,198.2,82.3z"/>
</g>
</svg>
