<?xml version="1.0" encoding="utf-8"?>
<!-- Generator: Adobe Illustrator 25.2.1, SVG Export Plug-In . SVG Version: 6.00 Build 0)  -->
<svg version="1.1" id="Layer_2" xmlns="http://www.w3.org/2000/svg" xmlns:xlink="http://www.w3.org/1999/xlink" x="0px" y="0px"
	 viewBox="0 0 200 200" style="enable-background:new 0 0 200 200;" xml:space="preserve">
<style type="text/css">
	.st0{clip-path:url(#SVGID_2_);fill:#88AE1A;}
	.st1{clip-path:url(#SVGID_2_);}
	.st2{fill:#97B723;}
	.st3{fill:#458750;}
	.st4{fill:#47654D;}
	.st5{fill:#1C652E;}
	.st6{fill:#1D5B27;}
	.st7{opacity:0.29;clip-path:url(#SVGID_2_);fill:#334A04;}
	.st8{fill:#EA2E25;}
	.st9{opacity:0.34;fill:#D8A8A7;}
	.st10{opacity:0.3;fill:#EFFFE9;}
	.st11{fill:#4C0000;}
	.st12{opacity:0.16;}
	.st13{fill:#FFFFFF;}
	.st14{clip-path:url(#SVGID_4_);fill:#88AE1A;}
	.st15{clip-path:url(#SVGID_4_);}
	.st16{opacity:0.29;clip-path:url(#SVGID_4_);fill:#334A04;}
</style>
<g>
	<g>
		<defs>
			<path id="SVGID_1_" d="M169.7,87.5c2.2,8.6-0.1,28.3-1.9,36.9c-3.3,15.3-13.6,27.7-24.5,38.6c-12.3,12.4-25.7,23.8-40,34
				c-11.9,8.5-24.7,16.2-39.1,19.7c-29,7-75.2-7.7-90.4-36.7c-18.3-34.9-13.3-76.4,4.5-108.3C-1.3,35.4,38.4,7.7,81,12.9"/>
		</defs>
		<clipPath id="SVGID_2_">
			<use xlink:href="#SVGID_1_"  style="overflow:visible;"/>
		</clipPath>
		<path class="st0" d="M115.6,149.2c-16.7-10.5-33.9-20.1-51.4-29.2c-8.6-4.5-17.3-8.8-26.1-13c-9.9-4.7-19.6-9.8-29.3-15.1
			C-1,86.7-10.7,81.3-20.7,76.2c-0.9-0.5-1.8-0.9-2.7-1.4c-16.4,31.4-20.5,71.4-2.8,105.2c15.2,28.9,61.4,43.6,90.4,36.7
			c14.4-3.5,27.2-11.2,39.1-19.7c13.2-9.4,25.6-19.9,37.2-31.2C132.4,160,124,154.5,115.6,149.2z"/>
		<g class="st1">
			<path class="st2" d="M-7.3,87.8c0.6-1.2,1.3-2.3,1.9-3.5c-2.6-1.4-5.3-2.9-8-4.3c-4.4,7.9-8.2,16.1-11,24.7
				c-2.8,8.6-5,18.5-4,27.5c0.6,4.9,2.2,9.5,2.8,14.4c0.7,5,0.4,10.2-0.1,15.2c-0.7,8.4-1.4,16.3,0.2,24.4c-0.2,1.3,0.1,2.7,1,4
				c1.1,1.4,3.9,1.3,3.8-1c-1-16.3,5.3-32.1,1.9-48.4c-0.9-4.2-2.1-8.3-2-12.6c0.1-4.8,1.4-9.6,2.8-14.2
				C-15.3,104.9-11.9,96.2-7.3,87.8z"/>
		</g>
		<g class="st1">
			<g>
				<path class="st3" d="M-14.3,85.7c0.9-1.6,1.9-3.1,2.8-4.7c-3-1.6-6.1-3.2-9.2-4.8c-2.7-1.4-5.3-2.7-7.9-4.1c0,0,0,0.1-0.1,0.1
					c-12.8,21.4-18.7,46.2-20.5,70.9c-0.9,11.9-0.5,24.3,3.6,35.7c2.1,5.9,4.8,11.4,8,16.7c1.4,2.5,3,4.6,4.7,6.9
					c1.9,2.6,4.1,4.6,6.1,7.1c2.1,2.6,6.4-0.1,5.5-3.1c-1.3-4.8-2-9.7-3.6-14.5c-1.8-5.2-3.4-10.5-4.6-15.8c-2.5-10.6-3-20.7-2-31.5
					C-29.7,124.3-24.6,103.6-14.3,85.7z"/>
			</g>
			<g>
				<path class="st4" d="M8.8,92c-2.7-1.5-5.3-2.9-8-4.4c-2.8,3.9-5.3,8-7.4,12.3c-8.3,17-11.8,35.8-13.5,54.5
					c-1,11-1.6,21.9-1.9,33c-0.1,5.8-0.6,11.9,0.5,17.6c1,5.5,1.6,11,4.2,16c1.1,2,4,1.9,5.1,0c2.3-4-2.8-0.9-1.5-5.3
					c1.5-5.2,3.1-13.1,3.6-18.5c1-9.6,0-23.1,1.1-32.7c1.9-16.8,8.6-32.1,14.8-47.9c2.7-6.9,6.6-13.8,11.3-20.2
					C14.4,95,11.6,93.5,8.8,92z"/>
			</g>
			<g>
				<path class="st5" d="M38.1,107.1c-0.4-0.2-0.8-0.4-1.2-0.6c-1.3,1.4-2.5,2.7-3.7,4.2c-12.4,14.9-20.9,32-27.8,50
					c-3.9,10-6.9,20.6-9.5,31c-1.2,5-2.1,10.1-3.1,15.2c-1,5-3,10.7-1.5,15.7c0.6,2.1,3.1,3.4,5.1,2.2c3.8-2.3,1.6-5.2,3.6-9.1
					c2.1-4.1,4.9-11.1,6.8-15.3c3.9-8.4,7-19.4,10.3-28c6.5-16.6,15.8-28.7,26.3-43.3c3.6-5,7.6-9.5,12-13.5
					C49.6,112.7,43.9,109.8,38.1,107.1z"/>
			</g>
			<g>
				<path class="st6" d="M72.9,124.6c-5.1,4.3-10,8.7-14.7,13.4c-11.6,11.8-20.6,25.5-29.2,39.5c-4.7,7.7-9.2,15.4-14.2,22.9
					c-4.6,6.8-10.3,13.5-13,21.3c-0.5,1.5,0.9,3.3,2.4,3.2c7.7-0.5,8.6-5.8,14.2-10.9c6.2-5.6,16.9-11.9,21.7-18.8
					c9.2-13.2,17.1-27.4,28-39.3c6.8-7.4,14.3-14.7,22-21.9C84.4,130.8,78.7,127.7,72.9,124.6z"/>
			</g>
			<g>
				<path class="st4" d="M115.6,149.2c-3.6-2.2-7.2-4.4-10.8-6.6c-7.7,8.3-15.7,16.3-23.9,24.1C70.3,177,59.5,187.1,48,196.5
					c-6.5,5.4-13.3,10.3-20,15.6c-4.6,3.6-12.3,8.9-11.1,15.6c0,0.1,0.2,0.3,0.3,0.3c5.8,1.1,12.6-2.5,18-4.6
					c7.3-2.8,14.2-6.9,20.7-11.1c13.1-8.4,25-18.9,36.3-29.6c10-9.5,20-19.3,29.3-29.7C119.6,151.7,117.6,150.5,115.6,149.2z"/>
			</g>
			<g>
				<path class="st4" d="M129.7,158.4c-0.2,0.2-0.3,0.4-0.5,0.6c-5.4,6.3-10.7,12.7-16.7,18.4c-12.1,11.4-25.7,21.1-39.9,29.3
					c-8.2,4.7-13.2,10.2-21.2,15.2c-3.9,2.4-12.9,1-16.5,3.7c-3.4,2.5-7,5-8.3,9.2c-0.3,0.8,0.2,2.1,1,2.5c7,3,16.3-1.2,23-3.7
					c8.3-3.1,16.4-6.8,24.4-10.6c16-7.7,32.6-16.2,46.3-27.5c6.9-5.6,12.7-12.4,18.5-19.1c2-2.3,3.9-4.6,5.8-6.9
					C140.5,165.7,135.1,162,129.7,158.4z"/>
			</g>
		</g>
		<path class="st7" d="M115.6,149.2c-13.8-8.7-28-16.7-42.3-24.4c-17,9.3-36.8,14-56.1,12.6c-6.3-1.7-12.5-4-18.4-6.6
			c-8.5-3.7-16.8-7.8-25-12c-1.7-0.9-3.2-1.7-4.8-2.7c-6.1-7-9.9-15.6-9.9-25.9c0-4.3-6.2-4.2-6.6-0.1c-0.4,4.1-0.2,8.2,0.5,12.2
			c-1.2-0.6-2.6-1.1-4.1-1.3c-5-0.8-10.3,2.1-10.3,7.8c0,4,0.9,7.7,2.3,11.2c0,0,0,0-0.1,0.1c-2.3,2.3-3,6.8-0.8,9.4
			c-4.4,1.5-7.9,5.6-6,10.6c11,29.7,29.1,58.1,60.2,69.5c1.5,0.5,2.9,1,4.4,1.4c7.6,4.4,15.7,8.2,24.1,10.3
			c12.8,3.2,27.1,2,40.1,0.5c14.6-1.7,27.5-6.4,38.7-16.1c6.3-5.5,11.8-12,16.8-18.9c3.2-2,6.3-4.2,9.3-6.5c5.1-4,9.8-8.5,14.1-13.5
			C133.2,160.6,124.5,154.8,115.6,149.2z"/>
	</g>
	<ellipse transform="matrix(0.5 -0.866 0.866 0.5 -73.2322 110.3303)" class="st8" cx="58.9" cy="118.6" rx="16.8" ry="94"/>
	<path class="st9" d="M133,159.4c-3.9,6.7-29-27.1-69.2-50.4s-80.4-27.1-76.5-33.8s39.6,6.7,79.9,30S136.9,152.7,133,159.4z"/>
	<ellipse transform="matrix(0.5 -0.866 0.866 0.5 -73.2322 110.3303)" class="st10" cx="58.9" cy="118.6" rx="12.3" ry="68.5"/>
	<g>
		<g>
			<path class="st11" d="M16.7,93.2c-0.3-0.7-0.7-1.4-1.3-1.8c-0.8-0.6-1.8-1.2-2.8-0.8c-0.8,0.4-1.3,1.3-1,2.2
				c0.6,1.4,2.5,1.7,3.8,2C16.2,95,17,94,16.7,93.2L16.7,93.2z"/>
		</g>
		<g class="st12">
			<path class="st13" d="M14.5,92.9c-0.1-0.2-0.2-0.4-0.4-0.5c-0.2-0.2-0.5-0.3-0.7-0.2c-0.2,0.1-0.3,0.3-0.3,0.6
				c0.2,0.4,0.7,0.4,1,0.5C14.4,93.4,14.6,93.1,14.5,92.9L14.5,92.9z"/>
		</g>
	</g>
	<g>
		<g>
			<path class="st11" d="M4.7,93.2c-0.3-0.7-0.7-1.4-1.3-1.8c-0.8-0.6-1.8-1.2-2.8-0.8c-0.8,0.4-1.3,1.3-1,2.2
				c0.6,1.4,2.5,1.7,3.8,2C4.2,95,5,94,4.7,93.2L4.7,93.2z"/>
		</g>
		<g class="st12">
			<path class="st13" d="M2.5,92.9c-0.1-0.2-0.2-0.4-0.4-0.5c-0.2-0.2-0.5-0.3-0.7-0.2c-0.2,0.1-0.3,0.3-0.3,0.6
				c0.2,0.4,0.7,0.4,1,0.5C2.4,93.4,2.6,93.1,2.5,92.9L2.5,92.9z"/>
		</g>
	</g>
	<g>
		<g>
			<path class="st11" d="M34.9,95.2c-0.1-0.8-0.3-1.5-0.8-2.1c-0.6-0.8-1.4-1.6-2.5-1.4c-0.9,0.1-1.6,0.9-1.4,1.8
				c0.2,1.5,2,2.2,3.1,2.9C34.1,96.8,35.1,96,34.9,95.2L34.9,95.2z"/>
		</g>
		<g class="st12">
			<path class="st13" d="M32.9,94.4c0-0.2-0.1-0.4-0.2-0.6c-0.2-0.2-0.4-0.4-0.7-0.4c-0.2,0-0.4,0.2-0.4,0.5
				c0.1,0.4,0.5,0.6,0.8,0.8C32.7,94.8,32.9,94.6,32.9,94.4L32.9,94.4z"/>
		</g>
	</g>
	<g>
		<g>
			<path class="st11" d="M9.7,82.9c-0.5-0.8-1-1.4-1.7-1.9c-1-0.6-2.2-1.1-3.3-0.5c-0.9,0.5-1.3,1.6-0.8,2.6c0.8,1.5,3,1.6,4.6,1.8
				C9.4,85,10.2,83.7,9.7,82.9L9.7,82.9z"/>
		</g>
		<g class="st12">
			<path class="st13" d="M7.2,82.9c-0.1-0.2-0.3-0.4-0.5-0.5c-0.3-0.2-0.6-0.3-0.9-0.1c-0.2,0.1-0.3,0.4-0.2,0.7
				c0.2,0.4,0.8,0.4,1.2,0.5C7.1,83.4,7.3,83.1,7.2,82.9L7.2,82.9z"/>
		</g>
	</g>
	<g>
		<g>
			<path class="st11" d="M-7.3,80.9c-0.5-0.8-1-1.4-1.7-1.9c-1-0.6-2.2-1.1-3.3-0.5c-0.9,0.5-1.3,1.6-0.8,2.6c0.8,1.5,3,1.6,4.6,1.8
				C-7.6,83-6.8,81.7-7.3,80.9L-7.3,80.9z"/>
		</g>
		<g class="st12">
			<path class="st13" d="M-9.8,80.9c-0.1-0.2-0.3-0.4-0.5-0.5c-0.3-0.2-0.6-0.3-0.9-0.1c-0.2,0.1-0.3,0.4-0.2,0.7
				c0.2,0.4,0.8,0.4,1.2,0.5C-9.9,81.4-9.7,81.1-9.8,80.9L-9.8,80.9z"/>
		</g>
	</g>
	<g>
		<g>
			<path class="st11" d="M22.4,102.3c-0.8-0.4-1.6-0.7-2.5-0.7c-1.2,0-2.4,0.2-3,1.3c-0.5,0.9-0.2,2.1,0.7,2.6
				c1.5,0.9,3.4-0.3,4.8-0.9C23.3,104.2,23.3,102.7,22.4,102.3L22.4,102.3z"/>
		</g>
		<g class="st12">
			<path class="st13" d="M20.3,103.6c-0.2-0.1-0.4-0.2-0.7-0.2c-0.3,0-0.6,0.1-0.8,0.4c-0.1,0.2-0.1,0.6,0.2,0.7
				c0.4,0.2,0.9-0.1,1.3-0.2C20.6,104.1,20.5,103.7,20.3,103.6L20.3,103.6z"/>
		</g>
	</g>
	<g>
		<g>
			<path class="st11" d="M109.1,154.2c0.2,0.9,0.4,1.7,1,2.4c0.7,0.9,1.7,1.8,2.9,1.5c1-0.2,1.8-1.1,1.6-2.2
				c-0.3-1.7-2.3-2.5-3.7-3.2C110.1,152.3,108.9,153.2,109.1,154.2L109.1,154.2z"/>
		</g>
		<g class="st12">
			<path class="st13" d="M111.5,155c0,0.2,0.1,0.4,0.3,0.6c0.2,0.2,0.4,0.5,0.8,0.4c0.3,0,0.5-0.3,0.4-0.6c-0.1-0.5-0.6-0.7-1-0.9
				C111.8,154.5,111.5,154.8,111.5,155L111.5,155z"/>
		</g>
	</g>
	<g>
		<g>
			<path class="st11" d="M110,144.4c0.4,0.6,0.8,1.2,1.4,1.6c0.8,0.5,1.8,1,2.7,0.5c0.7-0.4,1.1-1.3,0.7-2.1
				c-0.7-1.3-2.5-1.4-3.8-1.6C110.2,142.7,109.5,143.7,110,144.4L110,144.4z"/>
		</g>
		<g class="st12">
			<path class="st13" d="M112,144.5c0.1,0.2,0.2,0.3,0.4,0.4c0.2,0.1,0.5,0.3,0.7,0.1c0.2-0.1,0.3-0.4,0.2-0.6
				c-0.2-0.3-0.7-0.4-1-0.4C112.1,144,111.9,144.3,112,144.5L112,144.5z"/>
		</g>
	</g>
	<g>
		<g>
			<path class="st11" d="M124.4,157.3c0.5,0.8,1,1.5,1.8,2c1,0.6,2.2,1.2,3.4,0.6c0.9-0.5,1.4-1.7,0.9-2.6c-0.8-1.6-3.1-1.7-4.7-1.9
				C124.7,155.2,123.9,156.5,124.4,157.3L124.4,157.3z"/>
		</g>
		<g class="st12">
			<path class="st13" d="M127,157.4c0.1,0.2,0.3,0.4,0.5,0.5c0.3,0.2,0.6,0.3,0.9,0.1c0.2-0.1,0.4-0.4,0.2-0.7
				c-0.2-0.4-0.8-0.4-1.2-0.5C127,156.8,126.8,157.2,127,157.4L127,157.4z"/>
		</g>
	</g>
	<g>
		<g>
			<path class="st11" d="M83.4,143.3c0.5,0.8,1,1.5,1.8,2c1,0.6,2.2,1.2,3.4,0.6c0.9-0.5,1.4-1.7,0.9-2.6c-0.8-1.6-3.1-1.7-4.7-1.9
				C83.7,141.2,82.9,142.5,83.4,143.3L83.4,143.3z"/>
		</g>
		<g class="st12">
			<path class="st13" d="M86,143.4c0.1,0.2,0.3,0.4,0.5,0.5c0.3,0.2,0.6,0.3,0.9,0.1c0.2-0.1,0.4-0.4,0.2-0.7
				c-0.2-0.4-0.8-0.4-1.2-0.5C86,142.8,85.8,143.2,86,143.4L86,143.4z"/>
		</g>
	</g>
	<g>
		<g>
			<path class="st11" d="M92.7,129.3c0.6,0.5,1.3,1,2.1,1.2c1.1,0.2,2.3,0.4,3-0.6c0.6-0.7,0.7-1.8-0.1-2.5
				c-1.2-1.1-3.2-0.5-4.6-0.2C92.3,127.4,92,128.7,92.7,129.3L92.7,129.3z"/>
		</g>
		<g class="st12">
			<path class="st13" d="M94.9,128.6c0.2,0.1,0.3,0.3,0.6,0.3c0.3,0.1,0.6,0.1,0.8-0.1c0.2-0.2,0.2-0.5,0-0.7
				c-0.3-0.3-0.8-0.1-1.2-0.1C94.8,128.1,94.7,128.4,94.9,128.6L94.9,128.6z"/>
		</g>
	</g>
	<g>
		<g>
			<path class="st11" d="M36.3,107.7c-0.8-0.5-1.6-0.9-2.6-0.9c-1.2-0.1-2.6,0-3.3,1.1c-0.6,0.9-0.4,2.2,0.5,2.8
				c1.5,1,3.6,0,5.2-0.6C37.1,109.8,37.2,108.2,36.3,107.7L36.3,107.7z"/>
		</g>
		<g class="st12">
			<path class="st13" d="M33.9,108.9c-0.2-0.1-0.4-0.2-0.7-0.3c-0.3,0-0.7,0-0.9,0.3c-0.2,0.2-0.1,0.6,0.1,0.7c0.4,0.3,1,0,1.4-0.1
				C34.2,109.5,34.2,109.1,33.9,108.9L33.9,108.9z"/>
		</g>
	</g>
	<g>
		<g>
			<path class="st11" d="M69.7,131.8c0,0.7,0,1.4,0.3,2.1c0.4,0.9,0.9,1.8,2,2c0.9,0.1,1.7-0.4,1.8-1.2c0.2-1.4-1.3-2.6-2.3-3.5
				C70.9,130.5,69.8,131,69.7,131.8L69.7,131.8z"/>
		</g>
		<g class="st12">
			<path class="st13" d="M71.5,133.1c0,0.2,0,0.4,0.1,0.6c0.1,0.2,0.3,0.5,0.5,0.5c0.2,0,0.4-0.1,0.5-0.3c0-0.4-0.4-0.7-0.6-0.9
				C71.8,132.7,71.5,132.8,71.5,133.1L71.5,133.1z"/>
		</g>
	</g>
	<g>
		<g>
			<path class="st11" d="M65.6,118.1c0.7,0.1,1.4,0.2,2.2,0c0.9-0.3,2-0.7,2.3-1.7c0.2-0.8-0.1-1.7-1-1.9c-1.4-0.4-2.7,0.9-3.8,1.8
				C64.5,116.7,64.8,117.9,65.6,118.1L65.6,118.1z"/>
		</g>
		<g class="st12">
			<path class="st13" d="M67.1,116.6c0.2,0,0.4,0.1,0.6,0c0.3-0.1,0.5-0.2,0.6-0.5c0.1-0.2,0-0.5-0.3-0.5c-0.4-0.1-0.7,0.3-1,0.5
				C66.8,116.2,66.9,116.5,67.1,116.6L67.1,116.6z"/>
		</g>
	</g>
	<g>
		<g>
			<path class="st11" d="M56.6,126.8c-0.4,1-0.7,1.9-0.5,3c0.2,1.4,0.5,2.8,1.9,3.4c1.1,0.5,2.5,0.1,3-1.1c0.8-1.9-0.7-4-1.6-5.6
				C58.8,125.5,57.1,125.7,56.6,126.8L56.6,126.8z"/>
		</g>
		<g class="st12">
			<path class="st13" d="M58.4,129.1c-0.1,0.3-0.2,0.5-0.1,0.8c0,0.4,0.1,0.8,0.5,0.9c0.3,0.1,0.7,0,0.8-0.3
				c0.2-0.5-0.2-1.1-0.4-1.5C59,128.8,58.5,128.9,58.4,129.1L58.4,129.1z"/>
		</g>
	</g>
	<g>
		<g>
			<path class="st11" d="M93.7,138c0.3,0.7,0.7,1.3,1.3,1.8c0.8,0.6,1.8,1.2,2.8,0.8c0.8-0.3,1.3-1.2,1-2.1c-0.6-1.4-2.5-1.7-3.8-2
				C94.1,136.3,93.3,137.3,93.7,138L93.7,138z"/>
		</g>
		<g class="st12">
			<path class="st13" d="M95.9,138.3c0.1,0.2,0.2,0.4,0.4,0.5c0.2,0.2,0.5,0.3,0.7,0.2c0.2-0.1,0.3-0.3,0.3-0.6
				c-0.2-0.4-0.7-0.4-1-0.5C96,137.8,95.8,138.1,95.9,138.3L95.9,138.3z"/>
		</g>
	</g>
	<g>
		<g>
			<path class="st11" d="M75.7,119.2c0.6,0.4,1.2,0.8,2,0.9c1,0.1,2.1,0.2,2.8-0.7c0.5-0.7,0.5-1.7-0.2-2.3
				c-1.2-0.9-2.9-0.2-4.3,0.1C75.2,117.5,75,118.7,75.7,119.2L75.7,119.2z"/>
		</g>
		<g class="st12">
			<path class="st13" d="M77.7,118.4c0.2,0.1,0.3,0.2,0.5,0.2c0.3,0,0.6,0,0.7-0.2c0.1-0.2,0.1-0.5,0-0.6c-0.3-0.2-0.8-0.1-1.1,0
				C77.6,117.9,77.5,118.3,77.7,118.4L77.7,118.4z"/>
		</g>
	</g>
	<g>
		<g>
			<path class="st11" d="M53.5,108.1c0.3-0.7,0.4-1.4,0.3-2.2c-0.1-1-0.4-2.1-1.5-2.5c-0.8-0.3-1.8,0-2.1,0.8
				c-0.6,1.4,0.6,2.9,1.3,4.1C52,109,53.2,108.9,53.5,108.1L53.5,108.1z"/>
		</g>
		<g class="st12">
			<path class="st13" d="M52.1,106.3c0.1-0.2,0.1-0.4,0.1-0.6c0-0.3-0.1-0.6-0.4-0.7c-0.2-0.1-0.5,0-0.6,0.2
				c-0.2,0.4,0.2,0.8,0.3,1.1C51.7,106.6,52.1,106.5,52.1,106.3L52.1,106.3z"/>
		</g>
	</g>
	<g>
		<g>
			<path class="st11" d="M42.2,116.6c-0.9-0.2-1.8-0.3-2.8,0c-1.2,0.4-2.5,0.9-2.8,2.2c-0.3,1.1,0.2,2.2,1.3,2.5
				c1.8,0.5,3.5-1.2,4.8-2.3C43.6,118.3,43.2,116.8,42.2,116.6L42.2,116.6z"/>
		</g>
		<g class="st12">
			<path class="st13" d="M40.2,118.6c-0.2,0-0.5-0.1-0.7,0c-0.3,0.1-0.7,0.2-0.8,0.6c-0.1,0.3,0.1,0.6,0.4,0.7
				c0.5,0.1,0.9-0.3,1.3-0.6C40.6,119,40.5,118.6,40.2,118.6L40.2,118.6z"/>
		</g>
	</g>
	<ellipse transform="matrix(0.5 -0.866 0.866 0.5 -73.2322 110.3303)" class="st10" cx="58.9" cy="118.6" rx="5.5" ry="30.7"/>
</g>
<g>
	<g>
		<defs>
			<path id="SVGID_3_" d="M85.8-46.9c35.2-22.3,83.3-27.7,118.3-2.8c17,12.1,26.1,20.8,34.2,40.5c10,24.5,14.8,41.1,8.3,67.3
				c-2.2,8.7-13.6,24.9-19.2,31.5c-10.2,11.9-25.2,17.9-39.9,22.3c-16.8,5.1-34,8.7-51.4,10.8c-14.5,1.8-29.4,2.5-43.7-1.3
				c-28.8-7.7-62.4-42.6-62-75.3C30.8,6.7,54.9-27.4,85.8-46.9z"/>
		</defs>
		<clipPath id="SVGID_4_">
			<use xlink:href="#SVGID_3_"  style="overflow:visible;"/>
		</clipPath>
		<path class="st14" d="M90.5-38.6c6.3,9.3,12.3,18.8,18.4,28.2c11.3,17.3,23.9,33.7,35.4,50.9c11.1,16.5,21.5,33.5,31.1,50.9
			c3.8,6.9,7.4,13.8,10.9,20.9c0.4-0.1,0.8-0.2,1.1-0.3c14.7-4.5,29.7-10.4,39.9-22.3c5.7-6.6,17-22.9,19.2-31.5
			c6.6-26.2,1.8-42.8-8.3-67.3c-8.1-19.7-17.2-28.4-34.2-40.5c-34.9-24.9-83-19.5-118.3,2.8c-0.2,0.2-0.5,0.3-0.7,0.5
			C86.9-43.9,88.7-41.3,90.5-38.6z"/>
		<g class="st15">
			<path class="st2" d="M96.4-29.6c6.8-4.2,13.8-8.1,21.3-10.8c9.4-3.4,19.3-4.8,29.2-5c9.2-0.2,18.8-0.2,27.9,1.6
				c8.5,1.6,16,6.1,24.6,7c4.7,0.5,9.7,0.2,14.2,1.7c4.4,1.5,7.7,4.9,11.2,7.7c7.2,6,16.3,12.3,26.1,11.6c4.2-0.3,5-5.1,1.9-7.4
				c-3.7-2.7-7.6-4.3-11.6-6.3c-4.3-2.2-8.1-5-11.9-8.1c-2.9-2.4-5.9-4.8-9.4-6.4c-4.5-2.1-9.2-2.6-14-2.9c-4.5-0.3-8.7-0.7-13-2.1
				c-4.3-1.4-8.4-3.3-12.8-4.4c-9.8-2.4-20.3-2.5-30.3-2.3c-10,0.3-20.1,1.5-29.7,4.5c-9.8,3.1-18.9,8.2-27.7,13.5
				c-0.3,0.2-0.7,0.4-1,0.6C93.1-34.7,94.8-32.2,96.4-29.6z"/>
		</g>
		<g class="st15">
			<g>
				<path class="st3" d="M90.5-38.6c0.7,1.1,1.5,2.2,2.2,3.3c7.1-3.7,14.6-6.6,22.4-8.6c10.9-2.7,21.8-2.8,33-2.1
					c19.2,1.2,39.3,2.2,55.2,14.5c8.8,6.8,16.9,14.5,26.2,20.7c4.3,2.9,8.9,5.7,13.6,7.8c6,2.7,15.5,1,15.5-7.1
					c0-7.2-5.8-9.6-11.2-12.6c-4.7-2.6-9.3-5.4-13.5-8.7c-8.8-6.8-16.7-14.6-26.1-20.6c-18.2-11.4-40.8-12.5-61.6-13.7
					c-22.9-1.4-44.6,3.1-64.5,14.3C84.6-47,87.6-42.9,90.5-38.6z"/>
			</g>
			<g>
				<path class="st4" d="M108.9-10.4c0.6,0.9,1.1,1.7,1.7,2.6c9.4-4.2,19.5-6.7,29-6.8C213.4-15,246.7,8.8,257,6.5
					c7.9-1.7,2.5-9.3-3.2-13.1c-4.4-2.9-9.5-3.4-14.5-4.8c-4.7-1.2-9.3-2.7-13.9-4.2c-8.8-2.9-17.4-6.1-26.1-9.3
					c-9.1-3.3-12.7-4.2-22.1-6.5c-10.3-2.5-25.9-5.2-36.3-3.4c-13.6,2.4-27.6,5.5-40.4,11.3C103.3-19.1,106.1-14.8,108.9-10.4z"/>
			</g>
			<g>
				<path class="st5" d="M135.5,27.6c8.8-1.9,17.9-2.5,27.2-2.3c16.2,0.4,36.5-1.9,52.8-2.1c9.4-0.1,25.3-2.4,34.4-4.8
					c4.3-1.2-2.1,3,2.3,1.8c4.7-1.3,9.5-0.9,14.1-2.4c5.5-1.8,8.8-10,3.5-14.2c-4.4-3.4-8.7-4.5-14.2-3.9c-4.9,0.6-9.6,1.8-14.2,3.3
					c-7.7,2.5-15.3,4.3-23.4,4.9c-16.9,1.1-33.7-1.2-50.5-2c-14.8-0.6-29.7,0.4-43.8,4.6C127.4,16.3,131.5,21.9,135.5,27.6z"/>
			</g>
			<g>
				<path class="st6" d="M157.1,60.3c22.7-5.8,46.2-10.7,67.4-17.2c8.6-2.6,23.8-11.4,31.7-15.5c3.8-2-2.3,7.2,1.2,4.7
					c4.1-2.9,8.9-6,10.9-10.8c2.8-6.6-2.2-14.8-10-12.6c-4.2,1.2-7,3.9-10.5,6.3c-3.1,2.2-6.3,4.2-9.6,6c-6.2,3.4-12.6,6-19.3,8.2
					c-14.9,4.9-30.3,7.5-45.7,9.9c-8.9,1.4-17.8,2.8-26.6,4.5C150.2,49.4,153.7,54.8,157.1,60.3z"/>
			</g>
			<g>
				<path class="st4" d="M175.3,91.3c0.1,0.2,0.2,0.3,0.3,0.5c13.9-5.1,27.4-11.2,39.9-19.2c7.4-4.7,14.4-10.2,20.8-16.1
					c3.3-3,5.9-6.4,8.4-10.1c1.3-1.9,2.9-3.7,3.8-5.9c0.8-2,0.7-4.2,1.5-6.2c1.5-4,1.1-5.3-1.8-4c-1.6,0.7-4.4,0.6-6,1.3
					c-1.7,0.8,1.9,1.8,0.4,2.9c-3.4,2.5-8.5,6.9-11.7,9.8c-5.2,4.7-46.5,23.5-59.2,28.2c-1.9,0.7-3.9,1.4-5.9,2.1
					C169.1,80.2,172.3,85.7,175.3,91.3z"/>
			</g>
			<g>
				<path class="st4" d="M188.9,117.7c4.5-1.8,9-3.7,13.4-5.7c14.8-6.8,27.8-16.3,38.9-28.2c6.3-6.7,11.8-14,17.2-21.4
					c4.9-6.8,12.1-15.8,9.8-24.7c-0.6-2.2-3.3-4.6-5.7-4.3c-8.3,1.2-13.4,8.6-17.9,15c-4.1,5.8-8.3,11.4-12.9,16.8
					c-9.5,11.2-20.3,20.5-33.4,27.2c-5.9,3-12,5.5-18.1,7.9C183.2,106.1,186.1,111.8,188.9,117.7z"/>
			</g>
		</g>
		<path class="st16" d="M175.3,91.3c4,7.3,7.8,14.6,11.4,22c4.6-1.9,9-4,13.3-6.4c11.1-6.3,20.8-15,30.2-23.5
			c17.8-16.1,35.9-35.4,39.6-60.1c0.5-3.4-0.3-6.9-2.7-9.1c0.8-2.1,1.5-4.2,2.2-6.3c1.3-3.9,2.3-8,2.9-12.1c0.8-5.1-1.6-10.3-7-11.7
			c-1.7-0.4-3.5-0.3-5.2,0.2c-0.3-1.6-0.7-3.1-1.1-4.7c-2.1-7.6-13.3-7.3-15.3,0.2c-4,15.5-14.6,28.3-27.1,37.8
			c-14.4,11.1-31.6,20-49.3,24.3c-6.6,1.6-13.4,2.5-20.2,2.8C157.2,60,166.6,75.4,175.3,91.3z"/>
	</g>
	<g>
		
			<ellipse transform="matrix(0.8431 -0.5378 0.5378 0.8431 3.9558 78.6994)" class="st8" cx="136.8" cy="32.6" rx="16.9" ry="94.8"/>
		<path class="st9" d="M89.5-38.3c6.5-4.2,13.4,37.8,38.6,77.3s59.2,61.5,52.7,65.8c-6.5,4.2-32.2-24.4-57.4-63.9S83-34.1,89.5-38.3
			z"/>
		
			<ellipse transform="matrix(0.8431 -0.5378 0.5378 0.8431 3.9558 78.6994)" class="st10" cx="136.8" cy="32.6" rx="12.3" ry="69.1"/>
		<g>
			<g>
				<path class="st11" d="M162.9,74.9c0,0.8,0,1.5,0.3,2.3c0.4,0.9,1,1.9,2.1,2c0.9,0.1,1.8-0.6,1.8-1.5c0.1-1.5-1.4-2.6-2.4-3.6
					C164.1,73.5,162.9,74.1,162.9,74.9L162.9,74.9z"/>
			</g>
			<g class="st12">
				<path class="st13" d="M164.7,76.2c0,0.2,0,0.4,0.1,0.6c0.1,0.2,0.3,0.5,0.6,0.5c0.2,0,0.5-0.1,0.5-0.4c0-0.4-0.4-0.7-0.7-0.9
					C165,75.8,164.7,76,164.7,76.2L164.7,76.2z"/>
			</g>
		</g>
		<g>
			<g>
				<path class="st11" d="M173.5,80.5c0,0.8,0,1.5,0.3,2.3c0.4,0.9,1,1.9,2.1,2c0.9,0.1,1.8-0.6,1.8-1.5c0.1-1.5-1.4-2.6-2.4-3.6
					C174.8,79.1,173.6,79.6,173.5,80.5L173.5,80.5z"/>
			</g>
			<g class="st12">
				<path class="st13" d="M175.4,81.7c0,0.2,0,0.4,0.1,0.6c0.1,0.2,0.3,0.5,0.6,0.5c0.2,0,0.5-0.1,0.5-0.4c0-0.4-0.4-0.7-0.7-0.9
					C175.7,81.4,175.4,81.5,175.4,81.7L175.4,81.7z"/>
			</g>
		</g>
		<g>
			<g>
				<path class="st11" d="M164.3,87.4c0.1,0.9,0.2,1.7,0.7,2.5c0.6,1,1.4,2,2.7,1.9c1-0.1,1.9-0.9,1.9-1.9c0-1.8-2-2.8-3.2-3.7
					C165.5,85.7,164.3,86.5,164.3,87.4L164.3,87.4z"/>
			</g>
			<g class="st12">
				<path class="st13" d="M166.6,88.6c0,0.2,0.1,0.5,0.2,0.7c0.2,0.3,0.4,0.5,0.7,0.5c0.3,0,0.5-0.2,0.5-0.5c0-0.5-0.5-0.7-0.9-1
					C166.9,88.1,166.5,88.3,166.6,88.6L166.6,88.6z"/>
			</g>
		</g>
		<g>
			<g>
				<path class="st11" d="M178.6,97.1c0.1,0.9,0.2,1.7,0.7,2.5c0.6,1,1.4,2,2.7,1.9c1-0.1,1.9-0.9,1.9-1.9c0-1.8-2-2.8-3.2-3.7
					C179.8,95.3,178.5,96.1,178.6,97.1L178.6,97.1z"/>
			</g>
			<g class="st12">
				<path class="st13" d="M180.8,98.3c0,0.2,0.1,0.5,0.2,0.7c0.2,0.3,0.4,0.5,0.7,0.5c0.3,0,0.5-0.2,0.5-0.5c0-0.5-0.5-0.7-0.9-1
					C181.1,97.8,180.8,98,180.8,98.3L180.8,98.3z"/>
			</g>
		</g>
		<g>
			<g>
				<path class="st11" d="M161.9,64.1c0.5,0.7,1.1,1.4,1.9,1.8c1,0.5,2.2,0.9,3.3,0.2c0.8-0.6,1.2-1.8,0.6-2.7
					c-1-1.5-3.1-1.3-4.7-1.4C161.9,62,161.3,63.3,161.9,64.1L161.9,64.1z"/>
			</g>
			<g class="st12">
				<path class="st13" d="M164.4,63.9c0.1,0.2,0.3,0.4,0.5,0.5c0.3,0.1,0.6,0.3,0.9,0.1c0.2-0.2,0.3-0.5,0.2-0.7
					c-0.3-0.4-0.8-0.3-1.2-0.4C164.4,63.3,164.2,63.7,164.4,63.9L164.4,63.9z"/>
			</g>
		</g>
		<g>
			<g>
				<path class="st11" d="M98.4-22.4c0-0.7-0.1-1.5-0.5-2.1c-0.5-0.8-1.1-1.7-2.2-1.7c-0.9,0-1.6,0.7-1.6,1.6c0,1.5,1.6,2.4,2.6,3.1
					C97.4-21,98.4-21.6,98.4-22.4L98.4-22.4z"/>
			</g>
			<g class="st12">
				<path class="st13" d="M96.5-23.4c0-0.2,0-0.4-0.1-0.6c-0.1-0.2-0.3-0.5-0.6-0.4c-0.2,0-0.4,0.2-0.4,0.4c0,0.4,0.4,0.6,0.7,0.8
					C96.3-23.1,96.5-23.2,96.5-23.4L96.5-23.4z"/>
			</g>
		</g>
		<g>
			<g>
				<path class="st11" d="M96.3-32.5c-0.1-0.9-0.2-1.8-0.7-2.6c-0.6-1-1.4-2.1-2.7-2.1c-1.1,0-2,0.9-2,2c0,1.8,2,2.9,3.3,3.9
					C95-30.7,96.3-31.5,96.3-32.5L96.3-32.5z"/>
			</g>
			<g class="st12">
				<path class="st13" d="M94-33.8c0-0.2,0-0.5-0.2-0.7c-0.2-0.3-0.4-0.6-0.7-0.5c-0.3,0-0.5,0.2-0.5,0.5c0,0.5,0.5,0.8,0.9,1
					C93.7-33.3,94-33.5,94-33.8L94-33.8z"/>
			</g>
		</g>
		<g>
			<g>
				<path class="st11" d="M121.6-9.2c-0.1-0.9-0.2-1.8-0.7-2.6c-0.6-1-1.4-2.1-2.7-2.1c-1.1,0-2,0.9-2,2c0,1.8,2,2.9,3.3,3.9
					C120.3-7.4,121.6-8.2,121.6-9.2L121.6-9.2z"/>
			</g>
			<g class="st12">
				<path class="st13" d="M119.3-10.4c0-0.2,0-0.5-0.2-0.7c-0.2-0.3-0.4-0.6-0.7-0.5c-0.3,0-0.5,0.2-0.5,0.5c0,0.5,0.5,0.8,0.9,1
					C118.9-9.9,119.3-10.2,119.3-10.4L119.3-10.4z"/>
			</g>
		</g>
		<g>
			<g>
				<path class="st11" d="M106.8-0.9c-0.3-0.8-0.7-1.5-1.4-2c-0.8-0.7-1.8-1.4-3-0.9c-0.9,0.4-1.4,1.3-1.1,2.3
					c0.6,1.6,2.6,1.9,4,2.3C106.3,1.1,107.2,0,106.8-0.9L106.8-0.9z"/>
			</g>
			<g class="st12">
				<path class="st13" d="M104.5-1.2c-0.1-0.2-0.2-0.4-0.4-0.5c-0.2-0.2-0.5-0.4-0.8-0.2c-0.2,0.1-0.4,0.4-0.3,0.6
					c0.1,0.4,0.7,0.5,1.1,0.6C104.4-0.7,104.6-1,104.5-1.2L104.5-1.2z"/>
			</g>
		</g>
		<g>
			<g>
				<path class="st11" d="M152,52.8c0.5,0.8,1,1.5,1.9,2c1.1,0.6,2.3,1.2,3.5,0.5c0.9-0.6,1.4-1.8,0.8-2.8c-0.9-1.6-3.2-1.7-4.9-1.9
					C152.3,50.6,151.5,51.9,152,52.8L152,52.8z"/>
			</g>
			<g class="st12">
				<path class="st13" d="M154.7,52.8c0.1,0.2,0.3,0.4,0.5,0.5c0.3,0.2,0.6,0.3,0.9,0.1c0.2-0.1,0.4-0.5,0.2-0.7
					c-0.2-0.4-0.9-0.4-1.3-0.5C154.7,52.2,154.5,52.6,154.7,52.8L154.7,52.8z"/>
			</g>
		</g>
		<g>
			<g>
				<path class="st11" d="M128.4,7.5c0.4-0.6,0.7-1.3,0.7-2.1c0.1-1,0-2.1-0.9-2.7c-0.7-0.5-1.7-0.4-2.2,0.3c-0.8,1.2,0,2.9,0.4,4.2
					C126.8,8.1,128,8.2,128.4,7.5L128.4,7.5z"/>
			</g>
			<g class="st12">
				<path class="st13" d="M127.5,5.6c0.1-0.2,0.2-0.3,0.2-0.5c0-0.3,0-0.6-0.2-0.7c-0.2-0.1-0.4-0.1-0.6,0.1c-0.2,0.3,0,0.8,0.1,1.1
					C127,5.7,127.4,5.8,127.5,5.6L127.5,5.6z"/>
			</g>
		</g>
		<g>
			<g>
				<path class="st11" d="M137.8,18.1c0.8-0.7,1.5-1.4,1.9-2.5c0.5-1.3,0.9-2.8-0.1-3.9c-0.8-0.9-2.2-1.2-3.2-0.4
					c-1.6,1.3-1.2,3.9-1.1,5.7C135.3,18.2,136.9,18.9,137.8,18.1L137.8,18.1z"/>
			</g>
			<g class="st12">
				<path class="st13" d="M137.3,15.1c0.2-0.2,0.4-0.4,0.5-0.7c0.1-0.3,0.2-0.7,0-1c-0.2-0.2-0.6-0.3-0.8-0.1
					c-0.4,0.3-0.3,1-0.3,1.5C136.6,15.2,137.1,15.3,137.3,15.1L137.3,15.1z"/>
			</g>
		</g>
		<g>
			<g>
				<path class="st11" d="M109.9-9.2c0-0.8,0-1.5-0.4-2.2c-0.4-0.9-1-1.9-2.1-2c-0.9-0.1-1.7,0.5-1.8,1.4c-0.1,1.5,1.5,2.6,2.5,3.6
					C108.7-7.8,109.9-8.3,109.9-9.2L109.9-9.2z"/>
			</g>
			<g class="st12">
				<path class="st13" d="M108.1-10.4c0-0.2,0-0.4-0.1-0.6c-0.1-0.2-0.3-0.5-0.6-0.5c-0.2,0-0.5,0.1-0.5,0.4c0,0.4,0.4,0.7,0.7,0.9
					C107.8-10.1,108.1-10.2,108.1-10.4L108.1-10.4z"/>
			</g>
		</g>
		<g>
			<g>
				<path class="st11" d="M136.8,44.5c-0.6,0.5-1,1.1-1.3,1.8c-0.3,1-0.6,2.1,0.1,2.9c0.6,0.7,1.6,0.9,2.3,0.3
					c1.1-1,0.8-2.9,0.7-4.3C138.6,44.4,137.4,44,136.8,44.5L136.8,44.5z"/>
			</g>
			<g class="st12">
				<path class="st13" d="M137.3,46.7c-0.1,0.1-0.3,0.3-0.3,0.5c-0.1,0.3-0.2,0.6,0,0.8c0.2,0.2,0.4,0.2,0.6,0.1
					c0.3-0.3,0.2-0.8,0.2-1.1C137.7,46.7,137.4,46.6,137.3,46.7L137.3,46.7z"/>
			</g>
		</g>
		<g>
			<g>
				<path class="st11" d="M150.9,42.1c0.7,0.6,1.5,1.1,2.5,1.3c1.2,0.2,2.6,0.4,3.6-0.7c0.7-0.8,0.8-2.1-0.1-2.9
					c-1.4-1.2-3.7-0.5-5.3-0.2C150.4,39.9,150.1,41.5,150.9,42.1L150.9,42.1z"/>
			</g>
			<g class="st12">
				<path class="st13" d="M153.5,41.2c0.2,0.2,0.4,0.3,0.7,0.3c0.3,0.1,0.7,0.1,0.9-0.2c0.2-0.2,0.2-0.6,0-0.8c-0.4-0.3-1-0.1-1.4,0
					C153.3,40.6,153.3,41.1,153.5,41.2L153.5,41.2z"/>
			</g>
		</g>
		
			<ellipse transform="matrix(0.8431 -0.5378 0.5378 0.8431 3.9558 78.6994)" class="st10" cx="136.8" cy="32.6" rx="5.5" ry="30.9"/>
		<g>
			<g>
				<path class="st11" d="M147.3,66.7c-0.2,0.7-0.4,1.5-0.2,2.3c0.2,1,0.5,2.1,1.6,2.4c0.8,0.3,1.8-0.1,2.1-1c0.5-1.4-0.7-2.9-1.5-4
					C148.8,65.7,147.5,65.9,147.3,66.7L147.3,66.7z"/>
			</g>
			<g class="st12">
				<path class="st13" d="M148.7,68.4c-0.1,0.2-0.1,0.4-0.1,0.6c0.1,0.3,0.1,0.6,0.4,0.6c0.2,0.1,0.5,0,0.6-0.3
					c0.1-0.4-0.2-0.8-0.4-1.1C149.1,68.1,148.8,68.2,148.7,68.4L148.7,68.4z"/>
			</g>
		</g>
		<g>
			<g>
				<path class="st11" d="M117.4,13.7c-0.5-0.6-1-1.1-1.7-1.4c-0.9-0.4-2-0.7-2.9,0c-0.7,0.6-0.9,1.6-0.4,2.3c0.9,1.2,2.8,1,4.2,1
					C117.4,15.6,117.9,14.4,117.4,13.7L117.4,13.7z"/>
			</g>
			<g class="st12">
				<path class="st13" d="M115.2,14c-0.1-0.2-0.3-0.3-0.5-0.4c-0.2-0.1-0.5-0.2-0.8,0c-0.2,0.1-0.2,0.4-0.1,0.6
					c0.2,0.3,0.7,0.3,1.1,0.3C115.3,14.5,115.4,14.2,115.2,14L115.2,14z"/>
			</g>
		</g>
		<g>
			<g>
				<path class="st11" d="M124.3,23.9c-0.8-0.1-1.5-0.2-2.2,0c-1,0.3-2,0.8-2.2,1.9c-0.2,0.9,0.3,1.8,1.2,2c1.5,0.3,2.8-1.1,3.8-2
					C125.5,25.3,125.1,24.1,124.3,23.9L124.3,23.9z"/>
			</g>
			<g class="st12">
				<path class="st13" d="M122.8,25.6c-0.2,0-0.4-0.1-0.6,0c-0.3,0.1-0.5,0.2-0.6,0.5c0,0.2,0.1,0.5,0.3,0.5c0.4,0.1,0.7-0.3,1-0.5
					C123.1,25.9,123,25.6,122.8,25.6L122.8,25.6z"/>
			</g>
		</g>
	</g>
</g>
<g>
	<path class="st8" d="M-22.5,74.4c-1.1-2.4-1.5-5.2-1.3-7.8c0.1-1.2,0.4-2.5,1.3-3.4s2.5-1.1,3.3-0.2c0.6,0.6,0.7,1.5,1,2.3
		c1,2.4,4.1,3.2,6.7,3c4-0.3,7.7-2.2,11.6-2.7s8.7,0.8,10,4.6c0.4,1.3,0.4,2.7,0.8,4.1c1,3.1,4.7,5.1,7.8,4.1s5-4.7,4-7.8
		c-0.3-0.8-0.7-1.6-0.8-2.5c-0.2-2.4,2.8-4.1,5.1-3.2s3.4,3.4,3.4,5.8c0,2.6-1,5.1-0.9,7.8s2.2,5.5,4.8,4.9c2.1-0.5,2.9-3.1,4.5-4.7
		c1.8-1.7,4.7-2,6.8-0.7c2.1,1.3,3.1,4.1,2.3,6.4c-0.3,0.9-0.9,1.8-0.9,2.8c-0.1,1.5,1,2.7,2,3.8c3.8,3.8,8.1,6.9,12.9,9.4
		c1.5,0.8,3.4,1.4,4.7,0.3c1.2-1.1,1-3,1.4-4.5c0.8-2.8,4.3-4.3,7.1-3.4s4.6,3.8,4.9,6.7c0.3,2.9-0.8,5.8-2.5,8.2
		c4.3-0.2,8.7-0.5,13-0.7c3.2-0.2,7.4,0.4,8,3.6c0.1,0.7,0,1.4-0.5,1.8c-0.4,0.3-1,0.3-1.5,0.4c-2.7,0.6-4,4.4-2.4,6.7
		s5.2,2.7,7.5,1.1s3.4-4.6,2.9-7.4c2.7,0.4,5.6,0.9,7.8,2.6c2.2,1.6,3.6,4.7,2.4,7.2c-0.9,2-3.1,3.1-3.8,5.2
		c-0.9,2.8,2.1,4.2,4.9,5.1c2.9,0.9,5.5,1.9,8.5,2.1c6.8,0.5,12.7,4.4,18.3,8.3c3,2.1,6.4,5,5.7,8.5c-2.8,0.7-5.9,0.6-8.6-0.5
		c-0.6,2.8,1.9,5.1,3.8,7.2c1.9,2.1,3.3,5.8,1,7.5c-1.5,1.1-3.8,0.5-5.1-0.9c-1.3-1.4-1.9-3.2-2.6-5c-2-5.4-6.2-7.9-10-12.3
		c-4.9-5.6-10.6-11.1-17-15c-18.2-11-37.8-19.4-56.2-30.3c-11.8-7-22.7-15.5-35.1-21.2c-12.6-5.8-26.7-8.6-40.6-8.1"/>
</g>
<g>
	<path class="st8" d="M-21.5,75.1c-1.4-1.8-3-4.9-5.4-4s-1.7,2.1-2,3.3c-0.3,1.3,0.2,2.8,1.4,3.3c0.8,0.3,1.6,0.2,2.5,0.3
		c2.6,0.3,4.4,2.8,4.9,5.4c0.6,2.5,0.2,5.2,0.5,7.8c0.6,5.3,2.2,13.3,8.8,12.6s0.2-4-0.5-5.8C-9,96.6-6,97-3.8,98.4
		c2.2,1.4,3.8,3.6,5.1,5.9c0.4,0.8,0.8,1.6,0.8,2.4c-0.1,1.3-1.2,2.3-2,3.4c-3.4,4.4-0.7,12.1,4.8,13.3c1.2,0.3,2.4,0.3,3.5-0.3
		c1.1-0.6,1.8-1.6,2.7-2.5c4.2-4.3,11.5-4.1,16.9-1.5c5.4,2.7,9.6,7.3,14.2,11.2c3.4,3,7.2,5.8,9.3,9.8c2,3.8,2.2,8.2,4.4,11.9
		c2.2,3.7,7.7,6,10.5,2.8c2.6-2.9,0.5-7.5-1.6-10.8c7.2,0.7,14.3,2.7,20.9,5.9c4.9,2.4,10,6.2,10.6,11.6c0.1,0.8,0.1,1.6-0.4,2.2
		c-1.5,1.9-4.4-0.6-6.8-0.7c-2.5-0.1-4.3,2.8-3.8,5.3c0.4,2.5,2.3,4.4,4.3,5.8c3.8,2.8,9.7,4.4,12.9,0.9c2.5-2.6,2-6.8,1.9-10.4
		c0-0.7,0-1.4,0.3-1.9c0.7-1.1,2.3-0.9,3.6-0.5c7.7,2.4,14.3,8,22.2,9.5c2.8,0.5,5.8,0.5,8.1-1.1c2.3-1.6,3.4-5.1,1.6-7.3
		c-6.1,3.6-13.9,1-20.5-1.6c-48.3-19.4-98-39.8-135.1-76.3c-2.6-2.5-0.8-4.4-2.8-7.5c-0.8-1.2-3.4-0.7-4-2"/>
</g>
<g>
	<path class="st8" d="M17,67.8c-0.9-1.1-1.5-2.5-1.9-3.8c-0.2-0.8-0.4-1.6-0.2-2.4s0.7-1.6,1.4-1.9c0.2-0.1,0.5-0.1,0.7-0.1
		c0.5,0.1,0.7,0.7,0.9,1.1c0.6,2.3,0.2,4.7-0.2,7"/>
</g>
<g>
	<path class="st8" d="M37.2,69.2c0.1-1.4,0.3-2.9,0.9-4.2c0.6-1.3,1.6-2.5,3-2.9c0.6-0.2,1.2-0.2,1.8,0.1c0.5,0.3,0.8,1,0.9,1.6
		c0.1,0.4,0.2,0.9,0.1,1.4c-0.1,0.6-0.6,1.1-1.1,1.5c-1.3,0.9-3,1.3-4.3,2.2c-0.4,0.3-0.8,0.7-1.3,0.8"/>
</g>
<g>
	<path class="st8" d="M36.5,58.2c0.1-0.8-0.1-1.6-0.4-2.4c-0.5-1.2-1.1-2.2-1.9-3.2c-0.2-0.2-0.3-0.4-0.6-0.5
		c-0.4-0.1-0.8,0.1-1.1,0.3c-0.6,0.5-0.8,1.3-0.8,2.1c0,0.8,0.3,1.5,0.7,2.2c0.1,0.2,0.3,0.5,0.5,0.6c0.4,0.3,1,0.3,1.5,0.4
		c0.7,0.2,1.3,0.7,1.9,1.2"/>
</g>
<g>
	<path class="st8" d="M119.5,126.1c0.9-2.1,1.9-4.1,3-6c0.4-0.7,0.8-1.5,1.4-2c0.9-0.8,2.1-1.2,3.2-1.3c1-0.1,2,0,2.9,0.6
		c0.8,0.5,1.4,1.6,1.2,2.5c-0.3,1.3-1.8,2-3.1,2.4c-1.6,0.5-3.2,0.9-4.8,1.6c-1.5,0.7-3,1.6-4,3"/>
</g>
<g>
	<path class="st8" d="M-14.5,63.1c0.9-2.1,1.9-4.1,3-6c0.4-0.7,0.8-1.5,1.4-2c0.9-0.8,2.1-1.2,3.2-1.3c1-0.1,2,0,2.9,0.6
		s1.4,1.6,1.2,2.5c-0.3,1.3-1.8,2-3.1,2.4c-1.6,0.5-3.2,0.9-4.8,1.6c-1.5,0.7-3,1.6-4,3"/>
</g>
<g>
	<path class="st8" d="M122.7,112.9c-0.8-2.3-1.3-4.8-1.2-7.2c0-2,0.4-4.2,1.9-5.6c0.6-0.5,1.4-0.9,2.1-0.5c0.3,0.2,0.5,0.5,0.6,0.8
		c0.5,1.1,0.7,2.3,0.5,3.5c-0.4,3.2-3.1,5.7-3.3,8.9"/>
</g>
<g>
	<path class="st8" d="M83.9-46.3c-2.2,1.4-4.5,2.9-5.9,5.2c-1.4,2.2-1.8,5.3-0.2,7.4c1.8,2.3,5.3,2.5,7.4,4.5
		c2.7,2.5,2.2,7,0.5,10.2s-4.4,5.9-5.9,9.3c-2.3,5-1.6,11.3,1.8,15.6c2.1,2.8,7,4.5,8.8,1.4c0.9-1.6,0.6-3.9,2-5
		c1.9-1.4,4.3,0.6,5.8,2.4c2,2.5,4.1,5.5,3.7,8.7s-4.8,5.7-7,3.2c-1.4,0.6-0.7,2.8,0.2,4c1.3,1.9,2.7,3.9,4.7,5.1
		c2,1.2,4.7,1.5,6.5,0c0.6-0.5,1.1-1.2,1.9-1.4c1.2-0.2,2.1,0.9,2.8,1.8c5.1,7.1,10.3,14.6,11.2,23.3c0.3,2.7,0.1,5.6,0.8,8.2
		c1.5,6.3,8.1,11.1,14.6,10.5c1-0.1,1.9-0.3,2.9,0c0.8,0.3,1.5,0.8,2.1,1.4c4.1,4.2,6.4,10.1,6.3,15.9c-0.1,3.6-1,7.3,0.4,10.6
		c1.4,3.4,5.4,5.6,9.1,5c2.7-0.5,5.6-2.4,8.1-1.1c2.7,1.4,2.6,5.2,3.9,7.9c2.3,4.9,8.7,5.9,14.2,6.2c3.1,0.2,7.3-0.7,7.1-3.8
		c-0.1-1.8-1.9-3-3.6-3.3c-1.7-0.3-3.5,0-5.3-0.2c-4.1-0.3-7.5-3-10.7-5.6c-5.5-4.5-9.4-10.2-14.3-15.3c-4.7-4.9-8.8-11.6-13-17
		c-5.8-7.5-11.6-13.3-17-21c-6.1-8.6-10.9-16.8-16-26C104.6,9.1,98-4.6,91.8-18c-3-6.5-6.3-11.9-7-19c-0.1-1.1,0.4-3,1-4
		c0.6-1-0.9-1.9,0-2.6c2.4-1.8,4.1-4.7,4.4-7.7c-1.9-1.1-4.1-2.3-6.1-1.6s-2.8,4.3-0.7,4.9c0.4,0.1,0.8,0.1,1,0.5s-0.4,0.8-0.5,0.4"
		/>
</g>
<g>
	<path class="st8" d="M88.8-48c-2.1-3.1,1.3-8.4,5-9c3.7-0.6,11.5,6.2,10.1,9.7c-0.9,2.2-3.2,4.5-2,6.5c0.4,0.7,1.2,1.1,1.9,1.5
		c9.6,4.7,21.6,6.6,27.3,15.7c1.2,1.9,2,4.2,1.4,6.4c-0.4,1.2-1.2,2.2-1.5,3.4c-0.6,2.3,0.8,4.7,2.8,5.9c1.9,1.3,4.3,1.7,6.5,2
		c-1.3-3.5,1.7-7.9,5.3-7.9c3.6,0,6.4,3.2,8.1,6.5c0.9,1.6,1.6,3.4,1.5,5.3s-1.5,3.7-3.3,3.9c-1.1,0.1-2.2-0.4-3.3-0.1
		c-2.4,0.7-1.8,4.5-0.5,6.7c8.4,14,23.5,22.6,32.5,36.2c1.4,2,2.5,4.9,1,6.8c-0.6,0.8-1.5,1.2-2.3,1.8c-1.9,1.7-2.2,5-0.6,7
		c2.9,3.6,9.1,1.7,12.7,4.6c3.1,2.5,2.9,7.3,2.5,11.3c-0.4,3.7-0.9,7.4-1.3,11.1c-0.4,3.3-0.2,7.5,2.8,8.7c2.6,1.1,6-1.1,8.3,0.6
		c0.8,0.5,1.2,1.4,1.6,2.3c1.3,3.5,0.8,7.6-1.5,10.5c-2.3,2.9-6.3,4.3-9.8,3.3c-4-1.1-6.8-4.7-8.2-8.7s-1.2-8.3-2.1-12.4
		C177.8,66,159,37.2,141.8,12c-13-19-21.8-34.9-39-50c-2.3-2-4-3.4-7-4"/>
</g>
<g>
	<path class="st8" d="M137.8,74c-1.3,0.5-0.7,0.2-2.1,0.8c-1.1,0.5-2.2,1.1-3,1.9c-0.9,0.9-1.5,2.2-1.8,3.5c-0.1,0.6-0.2,1.3,0,1.9
		c0.2,0.6,0.7,1.2,1.4,1.3c0.7,0.1,1.3-0.3,1.8-0.8c2.4-2.3,3.3-5.8,4.6-8.9"/>
</g>
<g>
	<path class="st8" d="M162.6,103.8c0.2,1.6-0.2,3.2-0.4,4.9c-0.1,0.6-0.1,1.3,0.1,1.9c0.2,0.6,0.5,1.2,1,1.5
		c0.3,0.2,0.6,0.3,0.9,0.1c0.3-0.2,0.4-0.5,0.5-0.8c0.4-1.7,0.2-3.5-0.6-5c-0.4-0.9-1.1-1.7-1.3-2.7"/>
</g>
<g>
	<path class="st8" d="M169.7,113.8c-0.2,1.4-0.1,2.8,0.3,4.1c0.4,1.3,1.2,2.5,2.4,3.3c0.4,0.2,0.8,0.4,1.2,0.3
		c0.5-0.1,0.9-0.5,1.1-1c0.5-1.1,0.4-2.4-0.3-3.3c-0.4-0.5-0.8-0.9-1.3-1.2c-1-0.8-2-1.6-3-2.4"/>
</g>
<g>
	<path class="st8" d="M196.4,88.9c-0.1-2.8,0.9-5.7,2.8-7.9c0.4-0.5,1-1,1.7-0.9c0.5,0.1,0.9,0.4,1.2,0.8c0.5,0.5,0.9,1.2,0.7,1.9
		c-0.1,0.3-0.3,0.6-0.5,0.8c-0.8,1-1.8,1.7-2.8,2.5c-1.1,0.9-2.1,2-2.9,3.2"/>
</g>
<g>
	<path class="st8" d="M81.5-27.5c-2.6-2-6-3-9.3-2.6c-0.7,0.1-1.5,0.3-2.1,0.7c-0.6,0.4-1,1.1-0.9,1.9c0.1,0.8,0.8,1.4,1.6,1.7
		c1.3,0.6,2.8,0.8,4.3,0.4c2.1-0.5,3.9-2.2,6.1-2.1"/>
</g>
<g>
	<path class="st8" d="M72-40.2c-1.6-0.5-3.2-1.4-4.3-2.7S66-46,66.5-47.6c0.1-0.4,0.4-0.9,0.9-1c0.5-0.1,1,0.4,1.3,0.8
		c1.4,2.1,1.9,4.8,3.7,6.6c0.2,0.2,0.4,0.5,0.2,0.7c-0.2,0.2-0.5-0.1-0.8,0.1"/>
</g>
<g>
	<path class="st8" d="M74.5-43.6c-0.4-1-0.5-2-0.6-3c-0.1-0.4-0.1-0.8,0.1-1.2c0.2-0.4,0.8-0.7,1.2-0.6c0.5,0.1,0.9,0.4,1.2,0.8
		c0.2,0.3,0.3,0.6,0.3,1c0,0.4-0.2,0.8-0.4,1.1c-0.3,0.6-0.6,1.1-0.9,1.7c-0.1,0.2-0.3,0.5-0.5,0.5C74.7-43.2,74.4-43.4,74.5-43.6"
		/>
</g>
<g>
	<path class="st8" d="M88.8,11.6c-1.4,0-2.8,0-4.2,0c-0.3,0-0.7,0-1,0.1c-0.5,0.2-0.9,0.6-1.1,1.1c-0.4,0.7-0.6,1.4-0.5,2.2
		c0.2,1,1.1,1.8,2.1,2c1,0.2,2.1-0.3,2.7-1.1c0.9-1.1,1-2.7,2-3.6"/>
</g>
</svg>
