<?xml version="1.0" encoding="utf-8"?>
<!-- Generator: Adobe Illustrator 25.2.1, SVG Export Plug-In . SVG Version: 6.00 Build 0)  -->
<svg version="1.1" id="Layer_3" xmlns="http://www.w3.org/2000/svg" xmlns:xlink="http://www.w3.org/1999/xlink" x="0px" y="0px"
	 viewBox="0 0 200 200" style="enable-background:new 0 0 200 200;" xml:space="preserve">
<style type="text/css">
	.st0{clip-path:url(#SVGID_2_);fill:#88AE1A;}
	.st1{clip-path:url(#SVGID_2_);}
	.st2{fill:#97B723;}
	.st3{fill:#458750;}
	.st4{fill:#47654D;}
	.st5{fill:#1C652E;}
	.st6{fill:#1D5B27;}
	.st7{opacity:0.29;clip-path:url(#SVGID_2_);fill:#334A04;}
</style>
<g>
	<defs>
		<path id="SVGID_1_" d="M23.2,31c20.3-36.4,60.1-64,102.7-58.8c20.7,2.5,32.9,5.9,49.3,19.3c20.5,16.8,32.6,29.1,39.3,55.2
			c2.2,8.6-0.1,28.3-1.9,36.9c-3.3,15.3-13.6,27.7-24.5,38.6c-12.3,12.4-25.7,23.8-40,34c-11.9,8.5-24.7,16.2-39.1,19.7
			c-29,7-75.2-7.7-90.4-36.7C0.4,104.4,5.4,62.9,23.2,31z"/>
	</defs>
	<clipPath id="SVGID_2_">
		<use xlink:href="#SVGID_1_"  style="overflow:visible;"/>
	</clipPath>
	<path class="st0" d="M23.2,31c20.3-36.4,60.1-64,102.7-58.8c20.7,2.5,32.9,5.9,49.3,19.3c20.5,16.8,32.6,29.1,39.3,55.2
		c2.2,8.6-0.1,28.3-1.9,36.9c-3.3,15.3-13.6,27.7-24.5,38.6c-12.3,12.4-25.7,23.8-40,34c-11.9,8.5-24.7,16.2-39.1,19.7
		c-29,7-75.2-7.7-90.4-36.7C0.4,104.4,5.4,62.9,23.2,31z"/>
	<g class="st1">
		<path class="st2" d="M21.2,142c-2,2.1-2.5,4.9-0.8,7.4c1.1,1.4,3.9,1.3,3.8-1c-1-16.3,5.3-32.1,1.9-48.4c-0.9-4.2-2.1-8.3-2-12.6
			c0.1-4.8,1.4-9.6,2.8-14.2c2.7-9.2,6.1-17.9,10.7-26.3c4.9-8.9,10.1-17.9,16.8-25.5C61,14,69,8.1,77.7,3.1
			c8-4.6,16.5-9.1,25.2-11.9c8.2-2.6,17-2.3,25-5.5c4.4-1.8,8.6-4.5,13.3-5.3c4.5-0.8,9.1,0.6,13.5,1.5c9.2,1.8,20.2,3.1,28.5-2.2
			c3.5-2.3,2-6.9-1.9-7.4c-4.5-0.6-8.7-0.1-13.2,0c-4.8,0.1-9.5-0.5-14.3-1.4c-3.7-0.7-7.5-1.4-11.3-1.2c-4.9,0.3-9.3,2.1-13.7,4.1
			c-4.1,1.9-7.9,3.5-12.4,4.3c-4.5,0.8-9,1.1-13.3,2.2c-9.7,2.5-19,7.4-27.7,12.4c-8.7,5-17,10.9-24,18.1
			c-7.2,7.4-12.8,16.2-17.9,25.1c-5.2,9-9.8,18.3-13,28.1c-2.8,8.6-5,18.5-4,27.5c0.6,4.9,2.2,9.5,2.8,14.4c0.7,5,0.4,10.2-0.1,15.2
			c-0.8,9.5-1.6,18.5,1,27.9c1.1-0.6,2.3-1.3,3.4-1.9c-1.4-1.1-2-2.6-1.8-4.6C21.8,142.1,21.4,141.8,21.2,142L21.2,142z"/>
	</g>
	<g class="st1">
		<g>
			<path class="st3" d="M23.6,165.8c-1.3-4.8-2-9.7-3.6-14.5c-1.8-5.2-3.4-10.5-4.6-15.8c-2.5-10.6-3-20.7-2-31.5
				c1.8-20.5,7-41.1,17.2-59.1c5.4-9.4,12-17.8,20-25.2c8.2-7.6,17.9-12.8,28-17.5c17.5-8.1,35.6-16.8,55.4-13.6
				c11,1.8,21.8,4.7,32.9,5.7c5.2,0.5,10.5,0.7,15.7,0.3c6.5-0.5,14.1-6.5,10.3-13.7c-3.4-6.4-9.7-5.7-15.8-5.7
				c-5.3,0-10.7-0.3-16-1.2c-10.9-1.8-21.6-4.9-32.7-5.7c-21.5-1.4-41.8,8.5-60.7,17.3C46-4.1,28.5,10.9,16.2,31.5
				C3.4,52.9-2.5,77.7-4.3,102.4c-0.9,11.9-0.5,24.3,3.6,35.7c2.1,5.9,4.8,11.4,8,16.7c1.4,2.5,3,4.6,4.7,6.9
				c1.9,2.6,4.1,4.6,6.1,7.1C20.1,171.5,24.4,168.8,23.6,165.8L23.6,165.8z"/>
		</g>
		<g>
			<path class="st4" d="M32.7,180.3c2.3-4-2.8-0.9-1.5-5.3c1.5-5.2,3.1-13.1,3.6-18.5c1-9.6,0-23.1,1.1-32.7
				c1.9-16.8,8.6-32.1,14.8-47.9c6.6-16.7,19.7-33.8,35.2-42.2C150.6-1.7,191.3,3.3,199.2-3.6c6.1-5.3-2.2-9.3-9.1-9.9
				c-5.2-0.5-10,1.5-15.1,2.7c-4.7,1.1-9.5,2.1-14.2,3c-9.1,1.6-18.2,2.9-27.4,4.2c-9.6,1.4-13.2,2.3-22.5,4.8
				c-10.3,2.7-25.2,7.7-33.5,14.3c-15.3,12.1-30.6,26-39.2,43.7C30,76.2,26.4,95,24.7,113.7c-1,11-1.6,21.9-1.9,33
				c-0.1,5.8-0.6,11.9,0.5,17.6c1,5.5,1.6,11,4.2,16C28.6,182.3,31.6,182.2,32.7,180.3L32.7,180.3z"/>
		</g>
		<g>
			<path class="st5" d="M41.1,183.9c3.8-2.3,1.6-5.2,3.6-9.1c2.1-4.1,4.9-11.1,6.8-15.3c3.9-8.4,7-19.4,10.3-28
				c6.5-16.6,15.8-28.7,26.3-43.3c9.6-13.4,22.5-22.9,37-30.4c14.4-7.4,31.2-19,45.4-27c8.2-4.6,21.1-14.1,27.9-20.6
				c3.3-3.1-0.4,3.6,2.9,0.5c3.5-3.3,7.9-5.3,11.2-8.8c4-4.2,3-13-3.7-14.1c-5.4-0.9-9.8,0.2-14.3,3.3c-4,2.8-7.5,6.2-10.9,9.7
				c-5.6,5.9-11.4,11.1-18.3,15.4c-14.3,9-30.2,15-45.4,22.4c-15.9,7.7-30.6,17.5-42,31.2c-12.4,14.9-20.9,32-27.8,50
				c-3.9,10-6.9,20.6-9.5,31c-1.2,5-2.1,10.1-3.1,15.2c-1,5-3,10.7-1.5,15.7C36.7,183.8,39.1,185.1,41.1,183.9L41.1,183.9z"/>
		</g>
		<g>
			<path class="st6" d="M49.1,184.1c7.7-0.5,8.6-5.8,14.2-10.9c6.2-5.6,16.9-11.9,21.7-18.8c9.2-13.2,17.1-27.4,28-39.3
				c22.4-24.5,52-47.4,75.2-71.1c6.3-6.4,15.5-21.3,20.5-28.8c2.4-3.5,1.4,7.4,3.3,3.6c2.3-4.5,4.9-9.5,4.4-14.7
				c-0.7-7.2-9-12-14.8-6.3c-3.1,3.1-4.3,6.7-6.2,10.5c-1.7,3.4-3.5,6.7-5.6,9.9c-3.8,5.9-8.3,11.3-13.1,16.4
				c-10.7,11.4-23.1,21-35.5,30.5c-13.2,10.1-26.6,20.1-38.2,32c-11.6,11.8-20.6,25.5-29.2,39.5c-4.7,7.7-9.2,15.4-14.2,22.9
				c-4.6,6.8-10.3,13.5-13,21.3C46.2,182.4,47.6,184.2,49.1,184.1L49.1,184.1z"/>
		</g>
		<g>
			<path class="st4" d="M62.1,187.2c5.8,1.1,12.6-2.5,18-4.6c7.3-2.8,14.2-6.9,20.7-11.1c13.1-8.4,25-18.9,36.3-29.6
				c21.3-20.3,42.7-41.7,57.1-67.6c4.3-7.7,7.8-15.8,10.7-24.1c1.5-4.2,2.1-8.4,2.6-12.9c0.2-2.3,0.7-4.6,0.5-7
				c-0.2-2.2-1.4-4-1.7-6.2c-0.6-4.2-1.5-5.2-3.5-2.6c-1,1.4-3.6,2.6-4.7,4c-1.1,1.5,2.5,0.6,1.7,2.3c-1.8,3.8-4.2,10.2-5.6,14.1
				c-2.3,6.6-29.7,42.8-38.6,53c-9.4,10.8-19.6,20.9-29.9,30.8c-10.7,10.3-21.5,20.4-32.9,29.8c-6.5,5.4-13.3,10.3-20,15.6
				c-4.6,3.6-12.3,8.9-11.1,15.6C61.8,187,61.9,187.2,62.1,187.2L62.1,187.2z"/>
		</g>
		<g>
			<path class="st4" d="M72.4,196.5c7,3,16.3-1.2,23-3.7c8.3-3.1,16.4-6.8,24.4-10.6c16-7.7,32.6-16.2,46.3-27.5
				c6.9-5.6,12.7-12.4,18.5-19.1c5.7-6.7,11.4-13.4,16.7-20.4c9.8-13,16.7-27.6,20.7-43.3c2.3-8.9,3.7-18,4.9-27
				c1.1-8.3,3.1-19.7-3.2-26.4c-1.6-1.7-5.1-2.5-7.1-1c-6.7,5-7.7,13.9-8.6,21.7c-0.8,7-1.9,14-3.3,20.9
				c-3.1,14.4-8.1,27.7-16.4,39.8c-4.4,6.4-9.4,12.4-14.4,18.3c-5.4,6.3-10.7,12.7-16.7,18.4c-12.1,11.4-25.7,21.1-39.9,29.3
				c-8.2,4.7-13.2,10.2-21.2,15.2c-3.9,2.4-12.9,1-16.5,3.7c-3.4,2.5-7,5-8.3,9.2C71.2,194.8,71.6,196.1,72.4,196.5L72.4,196.5z"/>
		</g>
	</g>
	<path class="st7" d="M207.6-20.3c-1.8-4.9-6.3-8.3-11.7-7c-1.7,0.4-3.2,1.4-4.5,2.7c-1-1.2-2.1-2.4-3.2-3.6
		c-5.5-5.6-15.2-0.1-13.3,7.5c3.9,15.5,0.7,31.8-5.8,46.2c-7.4,16.6-18.3,32.6-31.8,44.9C117.4,88.5,89.1,98.6,62,96.6
		c-6.3-1.7-12.5-4-18.4-6.6c-8.5-3.7-16.8-7.8-25-12c-1.7-0.9-3.2-1.7-4.8-2.7c-6.1-7-9.9-15.6-9.9-25.9c0-4.3-6.2-4.2-6.6-0.1
		c-0.4,4.1-0.2,8.2,0.5,12.2c-1.2-0.6-2.6-1.1-4.1-1.3c-5-0.8-10.3,2.1-10.3,7.8c0,4,0.9,7.7,2.3,11.2c0,0,0,0-0.1,0.1
		c-2.3,2.3-3,6.8-0.8,9.4c-4.4,1.5-7.9,5.6-6,10.6C-10.1,129,8,157.3,39,168.7c1.5,0.5,2.9,1,4.4,1.4c7.6,4.4,15.7,8.2,24.1,10.3
		c12.8,3.2,27.1,2,40.1,0.5c14.6-1.7,27.5-6.4,38.7-16.1c6.3-5.5,11.8-12,16.8-18.9c3.2-2,6.3-4.2,9.3-6.5
		c9.7-7.6,18-17.1,24.5-27.5c6.8-10.9,11.1-23.1,15.4-35.1c8-22.7,14.7-48.2,6.2-71.7c-1.2-3.3-3.5-5.9-6.7-6.7
		c-0.3-2.2-0.6-4.4-1.1-6.6C210.1-12.4,209-16.4,207.6-20.3z"/>
</g>
</svg>
