<?xml version="1.0" encoding="utf-8"?>
<!-- Generator: Adobe Illustrator 25.2.1, SVG Export Plug-In . SVG Version: 6.00 Build 0)  -->
<svg version="1.1" id="Layer_2" xmlns="http://www.w3.org/2000/svg" xmlns:xlink="http://www.w3.org/1999/xlink" x="0px" y="0px"
	 viewBox="0 0 200 200" style="enable-background:new 0 0 200 200;" xml:space="preserve">
<style type="text/css">
	.st0{fill:url(#SVGID_1_);}
	.st1{fill:#FFFFFF;}
	.st2{opacity:0.5;fill:url(#SVGID_2_);}
	.st3{fill:url(#SVGID_3_);}
	.st4{fill:url(#SVGID_4_);}
	.st5{fill:url(#SVGID_5_);}
	.st6{fill:url(#SVGID_6_);}
	.st7{fill:#B8EDFF;}
	.st8{fill:#DCF4FF;}
	.st9{fill:#044656;}
</style>
<g>
	<g>
		
			<radialGradient id="SVGID_1_" cx="406.5548" cy="-744.6242" r="78.955" gradientTransform="matrix(0.7499 0.6616 -0.5445 0.6172 -616.7132 202.3181)" gradientUnits="userSpaceOnUse">
			<stop  offset="0" style="stop-color:#FFFFFF"/>
			<stop  offset="0.5486" style="stop-color:#FDFDFE"/>
			<stop  offset="0.8302" style="stop-color:#F5F5F9"/>
			<stop  offset="0.852" style="stop-color:#F4F4F8"/>
			<stop  offset="0.9635" style="stop-color:#E2E2EB"/>
			<stop  offset="1" style="stop-color:#DBDBE6"/>
		</radialGradient>
		<path class="st0" d="M13,73.6c2.4-0.4,3.9,1.2,6,0.6c1.1-0.1,2.3-0.4,3.6-0.9c1.2-0.5,2.5-1,3.7-1.6c3-1.5,5.1-3.6,7.8-5.7
			c1.8-1.4,3.7-2.5,5.6-3.5c5-2.6,7.5-6.2,9-10.3c0.5-1.4,0.9-2.8,1.2-4.2c-1.9-6.7,7.5-9.9,8.2-16.1c-0.7-3.3-5.9-4.7-4.7-8.9
			c1.3-2.9,5.8-2.1,8.9-2.5C60.1,11.8,52.7,6.6,49-1c-0.5-1.1-1-2.2-1.3-3.3c-0.7-2.1-0.8-4.1-0.1-5.8c4.1-12.2,26.2,3.2,34.8,0.5
			c19.2-5.9-4.2-21.4-22.7-23.3c0.5-0.7,1.6-2.2,2.1-3c12.7,2.1,21.5,15.4,34.7,15.1c1,0.2,1.9,0.6,2.9,0.8c2.2,0.5,4.3,0.8,6.2,1.9
			c3.5,2.1,5.1,4.8,6.1,8.1c1.2,3.9,1.5,8.3,1.2,12.5c-0.1,1.4-0.3,2.8-0.5,4.1c-2.4,4.4-1.8,9.5,0.3,11.8c6.2,11,3.1,23.8-8.2,30
			c3.2,4.2-3.3,7.7-6.8,10.3c-1.1,0.8-2.2,1.4-3.4,1.9s-2.4,1-3.7,1.4c-2.5,0.8-5.1,1.8-7.2,3.4c-1.1,0.8-2.1,1.6-3,2.5
			c-1.6,1.6-4,3.2-6,4.4c-2.6,1.7-5.2,3.1-8,4.4c-4.4,2.1-8.9,4.1-13.5,5.1c-3,0.6-6.2,1.2-9,1.3c-1.8,0.1-3.7,0.1-5.2-0.3
			c-0.7-0.2-1.6-0.2-2.3-0.5c-0.7-0.2-1.2-0.5-2.1-0.6c-3.6-0.2-8.1,2-11.8,2.8c-1.4,0.3-2.4-0.2-3.6-0.4c-1.4-0.3-3.2-0.6-4.1-1.7
			c-0.6-2.7-1.3,1.7-2.7,0.1C12.1,82.5-0.1,75.7,13,73.6z"/>
		<path class="st1" d="M112,17.9c-5.1-1.2-2.1-7.1-1.1-10.3c0.5-1.7,0.3-3.8-0.7-5.4c-0.6-1.1-0.5-1.6-0.5-2.7c0-0.7-0.1-1.5-0.6-2
			c-0.6-0.6-1.2-1.3-1.9-1.8c-1-0.8-2.1-1.3-3.1-2c-1-0.7-2.5-1.6-2.5-2.8c0-1.3,1.7-2.1,1-3.5c-0.8-1.5-1.7-2.3-3.6-2.6
			c-0.9-0.2-1.9,0-2.8-0.1c-11.1,2.8-7.3,16.9-18.8,10C71.8-7.6,68.8-9.2,62-9.4c-3.2,0.5-0.8-2.5-1.8-3c-3.2,0.6-9.6-1.3-9.1,2.9
			c0.4,3.1,3.3,5.3,5.4,7.7c0.7,0.8,1.3,1.6,1.7,2.6c-3.4,7,2.6,11.3,6.2,17.3c1.5,2.5-5.8,4.8-5.8,4.8c4.3,9.7-4.8,14.9-6.4,23
			c-0.6,1.3-1,2.7-1.5,4.1c-0.4,1.4-0.8,2.8-1,4.2c-0.2,1.3-3.1,3-4.7,4.5c0.9-1.6,1.6-3.2,2.3-4.9c0.6-1.6,1.2-3.3,1.7-4.9
			c2.1-6,3.2-13.6,8.3-19c-5.2,0-10.4-5.4-6.4-10c3.5-2.5,8.6,3.6,10.4-1.4c2.6-7-10.5-7.4-12.3-15.1c0.4-2.1-0.2-3.8-1.2-5.3
			c-0.9-1.6-2.3-3-3-4.4c-4.2-8.4,8.5-14.7,15.6-12C67.8-15.6,75-8,82.4-9.6c2.7,0.4,6.6-5.6,4.1-8.1c-4.6-9.9-16.8-12.8-26.7-13.4
			c-2.4-0.8-3.1-1.8-1.6-2.7c0.6-1.5,2.5-2.5,5-2.5c2.7-0.1,5,0.1,7.2,1.3c6.7,5.6,15.9,12.4,24.2,13.4c0.7,0.1,1.2,0.2,2,0.1
			c0.7-0.1,1.2,0,1.8,0c0.8,0,1.9-0.3,2.7-0.6c0.9-0.3,1.2-0.9,1-1.6c-0.1-0.5-0.5-1.1,0-1.4c0.4-0.4,1.6-0.5,2.2-0.5
			c0.9,0,2,0.2,2.9,0.5c0.5,0.2,1.1,0.3,1.5,0.6c0.6,0.5,1.2,1.2,1.7,1.8c0.5,0.6,1.1,1.3,1,2c0,0.4,0.1,0.6,0.1,1
			c0,0.2-0.1,0.4-0.1,0.6c0,0.5,0.4,0.7,0.6,1.2c0.7,1.4,1.7,2.6,2.8,3.8c0.3,0.3,0.8,0.8,1,1.1c0.2,0.4,0,1.2,0,1.7
			c0,1.5-0.4,2.9-0.7,4.4c-0.4,1.9-0.5,3.9-1,5.8c-0.3,1.1-0.5,2.3-0.8,3.4c-0.1,0.5-0.3,0.9-0.4,1.4c-0.1,0.5-0.2,1.1-0.3,1.6
			c-0.1,0.9,0,2,0,2.9c-0.1,3.4-0.4,5-0.5,8C112,16.8,112.1,17.5,112,17.9z"/>
		<path class="st1" d="M115,24.5c3.8,11.9-5.4,20.7-16,23.7c3.6,2.8,0.4,7.3-2.3,9.4c-0.8,0.6-1.6,1.1-2.4,1.7
			c-0.4,0.3-0.9,0.6-1.3,0.9c-0.5,0.3-0.9,0.5-1.4,0.7c-1,0.6-1.9,1.1-2.9,1.5c-0.7,0.3-1.3,0.5-1.9,0.8c-0.6,0.3-1.5,0.5-2.1,0.8
			c-0.7,0.3-1.4,1.1-2,1.5c1.4-1,3.2-1.3,4.7-1.9c1.4-0.6,2.8-1.3,4.2-1.8c1.4-0.6,2.7-1.2,4.1-1.5c0.6-0.1,1-0.1,1.5-0.3
			c0.9-0.3,1.6-0.9,2.2-1.6c6.8-8.1,19.5-17.7,17.9-28.3C117,28.7,116.1,26.7,115,24.5z"/>
		<path class="st1" d="M84.3-10.2c-8.7-0.2-16.1-7-21-10C54.5-23,44.3-16.9,42.6-8.5c-0.4,2.1,2,3.9,4.1,5.8c1.1,0.9,2.1,2,2.7,3.1
			c0.6,1.2,0.7,2.5,0,4.1c0.4-1.3,0.5-2.8,0.4-4.4c-0.1-1.6-0.5-3.3-0.8-5c-1.4-6.6-3.4-12.5,7.7-10.3c8.2,1.6,16.6,4.5,24.3,7.8
			C82.5-7.2,85.4-7.8,84.3-10.2z"/>
		<path class="st1" d="M115.5-12.2c0.3,0.5,0.7,1.1,0.7,1.6c0,0.3,0,0.7,0,1c0.1,0.7,0,1.3,0,2c-0.1,1.2-0.4,2.3-0.7,3.5
			c-0.2,1-0.3,2.3,0.2,3.3c0.3,0.6,0.5,1.2,0.6,1.8c0.2,0.6,0.5,1.3,0.6,1.9c0.2,1.6-0.5,2.9-1.5,4.1c-0.7,0.8-1.8,0.8-2.4,1.6
			c1,1.7,0.9,3.2-1.5,3.9c0.1-1.5,0-1.5,0.3-3.4c0.1-0.6,0.2-1.1,0.3-1.6c0.1-0.5,0-0.9,0-1.4c0-1.1-0.1-2.1,0-3.2
			c0.1-0.6,0-1.2,0.1-1.8c0.1-0.9,0.4-1.7,0.7-2.6c0.3-1.3,0.6-2.7,0.9-4.1c0.3-1.2,0.2-2.5,0.6-3.7c0.2-0.5,0.3-0.9,0.7-1.3
			C115.2-10.7,115.2-10.9,115.5-12.2z"/>
	</g>
	<path class="st1" d="M16.7,94.5c0.8-0.5,1.4-1.2,2.2-1.8c0.6-0.4,1.2-0.4,1.8-0.1c0.5,0.2,0.9,0.8,1,1.4c0.1,0.6-0.2,1.2-0.4,1.7
		c-0.2,0.5-0.5,1.1-0.9,1.5c-0.5,0.5-1.3,0.5-2,0.3c-0.6-0.2-1.1-0.4-1.5-0.9C16.4,95.9,16.7,95,16.7,94.5z"/>
	<path class="st1" d="M24.3,91.9c0.3-0.4,0.6-1.1,1.2-1.1c0.3,0,0.4,0.2,0.4,0.5c0,0.3-0.3,0.4-0.4,0.6c-0.1,0.2-0.1,0.2-0.3,0.2
		c-0.1,0-0.3-0.1-0.4-0.2L24.3,91.9z"/>
	<path class="st1" d="M62.4,80.8c1.4-1,3.1-2.4,5-2.2c0.6,0.1,3,0,2.3,1.3c-0.2,0.4-0.5,0.3-0.9,0.3c-0.7,0-1.5,0-2.2,0.2
		c-0.5,0.1-0.9,0.4-1.3,0.5c-0.3,0-0.7-0.1-1-0.1C63.9,80.7,63.1,80.6,62.4,80.8z"/>
	<path class="st1" d="M74.3,75.5c0.5,0.7,0.6,1,1.4,1.1c0.5,0,0.8,0,1.3-0.1c0.5-0.1,0.9-0.2,0.9-0.7c0-0.4-0.4-0.6-0.7-0.9
		c-0.1-0.1-0.3-0.3-0.4-0.4c-0.2-0.1-0.5,0.1-0.8,0.1L74.3,75.5z"/>
	<path class="st1" d="M94.7,60.3c1-0.7,2-1.1,3-1.7c0.4-0.3,0.7-0.5,1-0.9c0.4-0.4,0.8-0.7,1.2-1.1c0.4-0.5,0.9-0.8,1.3-1.2
		c0.5-0.6,1.1-1.1,1.6-1.6c0.9-0.8,1.5-1.9,2.1-2.9c0.7-1.1,1.6-1.9,2.5-2.8c0.5-0.4,0.9-0.7,1.3-1.2c0.4-0.4,0.8-0.7,1.2-1.1
		c0.4-0.3,0.8-0.6,1.1-1c0.1-0.1,0.2-0.3,0.4-0.5c0.1-0.1,0.2-0.1,0.3-0.1c0.5-0.4,0.8-1.1,1.3-1.4c0.3,0.5-1.2,1.9-1.6,2.2
		c-0.4,0.5-0.9,1-1.3,1.5c-0.5,0.6-0.9,1.3-1.3,2c-0.3,0.5-0.7,0.9-0.9,1.5c-0.2,0.6-0.1,1.1-0.2,1.8c-0.1,1.6-0.6,3.1-2.3,3.4
		c-0.6,0.1-1.3,0.1-1.9,0.3c-0.6,0.2-1,0.9-1.5,1.3c-0.5,0.5-1,1.1-1.4,1.6c-0.5,0.5-1,0.9-1.6,1.3c-0.9,0.7-1.7,1.2-2.8,1.2
		c-0.2,0-0.5,0-0.7-0.1c-0.2-0.1-0.3-0.2-0.5-0.2C94.5,60.5,93.6,61.1,94.7,60.3z"/>
	
		<linearGradient id="SVGID_2_" gradientUnits="userSpaceOnUse" x1="369.955" y1="-703.0197" x2="415.8172" y2="-728.4415" gradientTransform="matrix(0.7499 0.6616 -0.6616 0.7499 -703.8893 301.1276)">
		<stop  offset="0" style="stop-color:#E0DDE3"/>
		<stop  offset="0.2676" style="stop-color:#E2E0E5"/>
		<stop  offset="0.4268" style="stop-color:#EAE8EC"/>
		<stop  offset="0.5573" style="stop-color:#F7F6F8"/>
		<stop  offset="0.6145" style="stop-color:#FFFFFF"/>
	</linearGradient>
	<path class="st2" d="M46.8,58.4c6.3-6.5,6.7-18.7,11.9-24.1c5.1-5.4-0.3-6.9,3-10.6c3.3-3.8,5.8-6.4,1.1-12.3S53.3,7.4,52.5-0.1
		c-0.8-7.5-8.7-4.7-7.2-11.6c1.5-6.9,10.6-10.5,18.7-6.5s12.4,15,22.9,18c10.5,2.9,9.2,19.3-7.3,41.3C63.1,63,55.6,58.4,47.3,61.9
		S46.8,58.4,46.8,58.4z"/>
	
		<linearGradient id="SVGID_3_" gradientUnits="userSpaceOnUse" x1="370.0623" y1="-716.0479" x2="370.0623" y2="-733.3627" gradientTransform="matrix(0.7499 0.6616 -0.6616 0.7499 -703.8893 301.1276)">
		<stop  offset="0" style="stop-color:#D7D6E2"/>
		<stop  offset="0.3348" style="stop-color:#DDDBE3"/>
		<stop  offset="1" style="stop-color:#E0DDE3"/>
	</linearGradient>
	<path class="st3" d="M46.1-15.2c-3.6,5-4.9,6.6-0.1,11.2c4.8,4.6,3.2,7,5.5,10.1c2.3,3,5.7,3.9,8.6,8c2.9,4.1-0.1,6.1-0.1,6.1
		s2.2-4.2-1.1-6.7c-3.2-2.5-8-5.3-9.7-8.3c-1.8-3,0.6-3.3-1.1-5.7c-1.7-2.4-4.4-3.8-5.8-6.7C40.8-10.2,46.1-15.2,46.1-15.2z"/>
	
		<linearGradient id="SVGID_4_" gradientUnits="userSpaceOnUse" x1="389.4932" y1="-685.1255" x2="389.4932" y2="-708.2656" gradientTransform="matrix(0.7499 0.6616 -0.6616 0.7499 -703.8893 301.1276)">
		<stop  offset="0" style="stop-color:#D7D6E2"/>
		<stop  offset="0.3348" style="stop-color:#DDDBE3"/>
		<stop  offset="1" style="stop-color:#E0DDE3"/>
	</linearGradient>
	<path class="st4" d="M49.9,21.6c-2,4.9,6.3,7.5,8.1,7.8c1.7,0.2-4.8,6.6-6.3,11.9c-1.5,5.3-3.3,9.8-3.3,9.8s1.3-3.5,2.1-8.8
		c0.8-5.4,5.7-10.6,6-11.6C56.7,29.7,47.1,28.3,49.9,21.6z"/>
	
		<linearGradient id="SVGID_5_" gradientUnits="userSpaceOnUse" x1="367.3916" y1="-753.0908" x2="367.3916" y2="-764.2236" gradientTransform="matrix(0.7499 0.6616 -0.6616 0.7499 -703.8893 301.1276)">
		<stop  offset="0" style="stop-color:#D7D6E2"/>
		<stop  offset="0.3348" style="stop-color:#DDDBE3"/>
		<stop  offset="1" style="stop-color:#E0DDE3"/>
	</linearGradient>
	<path class="st5" d="M59.5-35.3c-2.2,1.7-0.8,3.7,8.6,4.8c9.4,1.1,15.6,6.4,18.1,10.9c2.5,4.5-0.2,7.5-0.2,7.5s2.8-4.1-1.4-8.8
		c-4.3-4.7-9.7-8.2-17.8-9C58.6-30.6,53.7-30.9,59.5-35.3z"/>
	
		<linearGradient id="SVGID_6_" gradientUnits="userSpaceOnUse" x1="438.2449" y1="-693.8096" x2="438.2449" y2="-716.611" gradientTransform="matrix(0.7499 0.6616 -0.6616 0.7499 -703.8893 301.1276)">
		<stop  offset="0" style="stop-color:#D7D6E2"/>
		<stop  offset="0.3348" style="stop-color:#DDDBE3"/>
		<stop  offset="1" style="stop-color:#E0DDE3"/>
	</linearGradient>
	<path class="st6" d="M80.9,67.3c-2.2,2,2.5-3.5,5.1-4.4c2.6-0.9,6.3-1.2,8.3-2.3c1.9-1.1,2.4-0.1,4.1-0.8c1.7-0.7,3.9-3,3.9-3
		s-0.7,1.3-3,2.9c-2.3,1.6-3.4,1.6-4.4,1.3c-1-0.4-2.5,1.3-5.9,2.3C85.7,64.3,83.7,64.8,80.9,67.3z"/>
</g>
<g id="Group_717_1_" transform="translate(-90.385 -42.511)">
	<g id="Layer_3_7_" transform="translate(90.385 85.628)">
		<g id="Group_784_1_">
			<path id="Path_14642_1_" class="st7" d="M174.7,120.8l-59.6,34.3c-2.4,1.4-7.2-2.3-9.5-5.2l-2.1-0.5c-3-3.8-2.1-7.7,1.1-9.5
				l62.8-36.1c3.2-1.8,7-0.6,8.8,3.9l-1,2.3C176.3,113.5,177.1,119.5,174.7,120.8z"/>
			<path id="Path_14643_1_" class="st8" d="M170.1,116.9l-56.1,32.3c-6.1,3.5-13.9,2.2-18.5-3.1L18.5,58c-5.4-6.2-4.7-15.5,1.4-20.9
				c0.7-0.6,1.5-1.2,2.3-1.7l96.5-55.6c7.1-4.1,16.1-1.6,20.2,5.4c0.5,0.9,0.9,1.8,1.2,2.8l36.6,111.4
				C178.9,106.2,176.1,113.4,170.1,116.9z"/>
			<path id="Rectangle_1214_1_" class="st7" d="M12.6,41l113.6-65.4c4.3-2.5,9.7-1,12.2,3.3l0,0c2.5,4.3,1,9.7-3.3,12.2L21.5,56.5
				c-4.3,2.5-9.7,1-12.2-3.3l0,0C6.9,48.9,8.3,43.4,12.6,41z"/>
			<path id="Path_14644_1_" class="st1" d="M147.1,64.2c0,0-24.2,10.7-35.6,17.1c-11.4,6.4-32.7,22.2-32.7,22.2
				c-5.4,3.1-12.3,1.2-15.4-4.1l-9.7-16.9c-3.1-5.4-0.5-11.3,4.1-15.4c0,0,18.9-16.3,31.8-23.8s36.5-15.5,36.5-15.5
				c5.9-2.1,12.3-1.2,15.4,4.1l9.7,16.9C154.3,54.2,152.5,61.1,147.1,64.2C147.1,64.2,147.1,64.2,147.1,64.2z"/>
			<g id="Group_783_1_" transform="translate(30.117 45.9)">
				<g id="Group_782_1_">
					<path id="Path_14645_1_" class="st9" d="M47.2,35.2c-0.7-2-1.4-4.1-2-6.2c0.8-0.8,1.6-1.5,2.4-2.3c0.7,3.1,1.4,6.1,2.3,9.1
						l3.3,3.3c-0.6,0.6-1.3,1.3-1.9,2c-1.1-1.1-2.2-2.1-3.4-3.2c-3-0.8-6.1-1.5-9.2-2c0.7-0.8,1.5-1.7,2.2-2.5
						C43,33.9,45.1,34.5,47.2,35.2z"/>
					<path id="Path_14646_1_" class="st9" d="M61.6,23.8c0.7,0.9,1.2,2,1.4,3.1c0.2,1,0.1,2-0.2,2.9c-0.4,1-1,1.8-1.8,2.4
						c-0.8,0.7-1.7,1.1-2.7,1.3c-1,0.2-2,0.1-3-0.3c-1.1-0.4-2-1.1-2.7-1.9l-0.4-0.5c-0.8-0.8-1.4-1.9-1.7-3c-0.3-1-0.2-2.1,0.2-3.1
						c0.9-2.1,2.7-3.7,5-4.1c1-0.2,2.1,0,3.1,0.4c1,0.5,1.9,1.3,2.6,2.2L61.6,23.8z M59,25c-0.6-0.9-1.5-1.6-2.5-1.9
						c-1.6-0.3-3.2,0.8-3.5,2.4c0,0.2,0,0.3-0.1,0.5c0.1,1.1,0.6,2.1,1.4,2.8l0.4,0.5c0.7,0.8,1.6,1.5,2.6,1.8
						c1.5,0.3,3-0.6,3.3-2.1c0-0.2,0.1-0.4,0.1-0.6c-0.1-1.1-0.6-2.1-1.3-2.9L59,25z"/>
					<path id="Path_14647_1_" class="st9" d="M74.7,20.6c-0.2,0.8-0.6,1.6-1.1,2.2c-0.6,0.8-1.4,1.4-2.2,1.9c-0.9,0.6-1.8,0.9-2.9,1
						c-1,0.1-2-0.1-2.8-0.6c-1-0.5-1.8-1.3-2.5-2.2l-0.5-0.7c-0.7-0.9-1.2-2-1.4-3.1c-0.2-1,0-2,0.5-3c0.5-1,1.3-1.8,2.3-2.4
						c1.2-0.8,2.6-1.3,4-1.2c1.2,0.2,2.4,0.8,3.1,1.9c-0.8,0.5-1.6,0.9-2.4,1.4c-0.4-0.5-1-0.8-1.6-0.9c-0.7,0-1.3,0.2-1.8,0.6
						c-0.8,0.4-1.3,1.2-1.4,2.1c0,1.1,0.4,2.1,1,2.9l0.5,0.7c0.5,0.9,1.4,1.7,2.4,2.1c0.9,0.3,1.8,0.1,2.5-0.4
						c0.7-0.4,1.2-1,1.5-1.7c-0.4-0.6-0.8-1.3-1.2-1.9c-0.7,0.4-1.4,0.9-2.2,1.4L67.5,19c1.5-1,3.1-1.9,4.6-2.8
						C73,17.6,73.8,19.1,74.7,20.6z"/>
					<path id="Path_14648_1_" class="st9" d="M81.1,4.8c1.1,2.6,2.2,5.2,3.4,7.7c0.6,1.1,0.6,2.4,0.1,3.6c-1.3,2.3-3.9,3.7-6.6,3.3
						c-1.2-0.3-2.2-1.1-2.8-2.2l-4.1-7.5c0.9-0.5,1.8-1,2.6-1.4c1.3,2.5,2.6,5,3.9,7.5c0.3,0.6,0.8,1.1,1.4,1.3
						c0.6,0.1,1.3,0,1.8-0.3c1.1-0.4,1.7-1.6,1.3-2.7c-0.1-0.2-0.1-0.3-0.2-0.4L78.3,6C79.3,5.6,80.2,5.2,81.1,4.8z"/>
					<path id="Path_14649_1_" class="st9" d="M91.2,9.5c-0.7,0.3-1.4,0.5-2.1,0.8c0.6,1.5,1.1,2.9,1.7,4.4c-0.8,0.3-1.7,0.7-2.5,1
						c-1.6-3.9-3.2-7.9-4.9-11.8c1.7-0.7,3.4-1.3,5.1-2c1.3-0.6,2.7-0.7,4.1-0.3c1.1,0.3,1.9,1.2,2.2,2.3C95,4.6,95,5.4,94.8,6.2
						c-0.3,0.7-0.7,1.4-1.3,1.9c1.5,1.3,2.9,2.7,4.4,4.1l0,0.1c-0.9,0.3-1.8,0.6-2.8,0.9C93.8,11.9,92.5,10.7,91.2,9.5z M88.3,8.3
						C89,8,89.7,7.8,90.5,7.5c0.6-0.2,1.1-0.5,1.4-1C92.1,6,92.2,5.5,92,5c-0.1-0.5-0.5-0.9-1-1.2c-0.6-0.2-1.3-0.2-1.8,0.1
						c-0.7,0.3-1.5,0.5-2.2,0.8L88.3,8.3z"/>
					<path id="Path_14650_1_" class="st9" d="M106.4-0.9c-1.5,0.3-2.9,0.6-4.3,0.9l2.4,10.4c-0.9,0.2-1.8,0.4-2.6,0.7L99.2,0.8
						C97.8,1.2,96.4,1.5,95,2c-0.2-0.7-0.4-1.4-0.6-2c3.8-1.1,7.7-2.1,11.6-2.9L106.4-0.9z"/>
				</g>
			</g>
		</g>
	</g>
</g>
<path class="st1" d="M18.1,61.5c4.5-3.7,7.9,5,7.9,6s-9,3-13.9,0s-6-9-3.9-11C9.8,54.9,11.1,67.4,18.1,61.5z"/>
<path class="st1" d="M90.1-27.5c1-1-4-10-10-10c-3.6,0-6,5-3,7s6-1,8-1C89.4-31.5,89.1-26.5,90.1-27.5z"/>
<path class="st1" d="M94.1-25.2c1.4,0.4,3.6-9.2,2.2-13.4c-1.1-3.4-3.2-4.3-3.5-0.7c-0.3,3.6,0.5,4.8,1.5,6.5
	C96.3-29.1,92.8-25.6,94.1-25.2z"/>
<g>
	<path class="st1" d="M45,42.2c-3.7,2.2-7.7,4-11.8,5.3c-1.7,0.5-3.4,1-5.1,1c-1.7,0-3.5-0.4-4.9-1.5c-0.3-0.3-0.6-0.6-0.6-1
		c0-0.3,0.1-0.5,0.2-0.7c0.6-1,1.5-1.8,2.5-2.3c2.5-1.2,5.1-1.8,7.8-2.1c1.2-0.2,1.3-1.8,0.1-2.1c-1.9-0.5-3.9-0.7-5.8-1.1
		c-3.4-0.5-8.8-1.4-9.3-3.8c-0.5-2.4,5.2-4.7,7.8-4.3c3.2,0.5,6.4,3.4,9.1,5.2c0.8,0.6,1.9-0.1,1.8-1.1l-0.7-4.8
		c0-0.3-0.1-0.7,0.1-1c0.3-0.6,1-0.7,1.6-0.6c1.9,0.2,3.7,1.2,5,2.6s2.4,2.9,3.5,4.6c0.5-0.9,0.9-1.8,1.4-2.6
		c0.3-0.5,0.6-1.1,1.2-1.3c1.1-0.4,2.1,1,1.9,2.1c-0.2,1.1-1.1,2-2,2.8c-0.9,0.9-1.8,2-2.6,3c-0.6,0.8-1.1,2.1-0.4,2.8L45,42.2z"/>
</g>
</svg>
