<?xml version="1.0" encoding="utf-8"?>
<!-- Generator: Adobe Illustrator 25.2.1, SVG Export Plug-In . SVG Version: 6.00 Build 0)  -->
<svg version="1.1" id="Layer_3" xmlns="http://www.w3.org/2000/svg" xmlns:xlink="http://www.w3.org/1999/xlink" x="0px" y="0px"
	 viewBox="0 0 200 200" style="enable-background:new 0 0 200 200;" xml:space="preserve">
<style type="text/css">
	.st0{fill:#B8EDFF;}
	.st1{fill:#DCF4FF;}
	.st2{fill:#FFFFFF;}
	.st3{fill:#044656;}
</style>
<g id="Group_717" transform="translate(-90.385 -42.511)">
	<g id="Layer_3_5_" transform="translate(90.385 85.628)">
		<g id="Group_784">
			<path id="Path_14642" class="st0" d="M137.5,134.1H68.6c-2.8,0-5.1-5.6-5.7-9.2l-1.6-1.5c-0.7-4.8,2-7.7,5.7-7.7h72.4
				c3.7,0,6.4,3,5.6,7.8l-2,1.5C142.5,128.5,140.2,134.1,137.5,134.1z"/>
			<path id="Path_14643" class="st1" d="M135.4,128.4H70.6c-7.1,0-13.2-5-14.5-11.9L33.4,1.7c-1.6-8,3.6-15.8,11.7-17.4
				C46-15.9,47-16,47.9-16h111.3c8.2,0,14.8,6.6,14.8,14.8c0,1-0.1,2-0.3,3l-23.9,114.8C148.5,123.5,142.4,128.4,135.4,128.4z"/>
			<path id="Rectangle_1214" class="st0" d="M36.9-16H168c4.9,0,8.9,4,8.9,8.9v0c0,4.9-4,8.9-8.9,8.9H36.9c-4.9,0-8.9-4-8.9-8.9v0
				C27.9-12,31.9-16,36.9-16z"/>
			<path id="Path_14644" class="st2" d="M141.8,71.2c0,0-26.4-2.8-39.4-2.9S63,71.2,63,71.2c-6.2,0-11.2-5-11.2-11.2V40.5
				c0-6.2,5.2-10,11.2-11.2c0,0,24.5-4.8,39.4-4.8s39.4,4.8,39.4,4.8c6.1,1.1,11.2,5,11.2,11.2V60C153.1,66.2,148,71.2,141.8,71.2
				C141.8,71.2,141.8,71.2,141.8,71.2z"/>
			<g id="Group_783" transform="translate(30.117 45.9)">
				<g id="Group_782">
					<path id="Path_14645" class="st3" d="M42.8,5.1c0.4-2.1,0.9-4.2,1.4-6.4c1.1-0.3,2.1-0.5,3.2-0.8c-1,3-1.8,6-2.5,9l1.2,4.5
						c-0.9,0.2-1.8,0.5-2.6,0.8c-0.4-1.5-0.9-3-1.3-4.5c-2.2-2.2-4.5-4.3-6.9-6.4c1.1-0.4,2.1-0.7,3.2-1C39.8,1.9,41.3,3.5,42.8,5.1
						z"/>
					<path id="Path_14646" class="st3" d="M61,2.4c0.2,1.1,0,2.3-0.3,3.4c-0.3,1-0.9,1.8-1.7,2.4c-0.8,0.6-1.7,1.1-2.8,1.2
						c-1,0.2-2,0.1-3-0.2c-0.9-0.3-1.8-0.9-2.4-1.7c-0.7-0.9-1.2-1.9-1.4-3l-0.1-0.6c-0.3-1.1-0.3-2.3,0-3.4c0.3-1,0.9-1.9,1.7-2.6
						c1.8-1.4,4.2-1.8,6.4-1.1c1,0.4,1.8,1,2.4,1.9c0.6,1,1,2.1,1.1,3.2L61,2.4z M58.1,2.2c-0.1-1.1-0.5-2.1-1.2-2.9
						c-1.3-1.1-3.1-0.9-4.2,0.3c-0.1,0.1-0.2,0.3-0.3,0.4c-0.4,1-0.5,2.1-0.2,3.1l0.1,0.6c0.1,1.1,0.6,2.1,1.3,2.8
						c1.1,1,2.9,1,3.9-0.2c0.1-0.2,0.3-0.3,0.4-0.5c0.4-1,0.5-2.1,0.3-3.1L58.1,2.2z"/>
					<path id="Path_14647" class="st3" d="M73.9,6.2c-0.6,0.6-1.3,1.1-2.1,1.3c-0.9,0.3-1.9,0.5-2.9,0.6c-1,0.1-2.1-0.1-3-0.5
						c-0.9-0.4-1.6-1.1-2.2-1.9c-0.6-1-0.9-2-1-3.2l-0.1-0.9c-0.1-1.1,0-2.3,0.4-3.4c0.4-1,1-1.8,1.9-2.3c1-0.6,2.1-0.9,3.2-0.9
						c1.4-0.2,2.9,0.2,4.1,1c1,0.8,1.6,1.9,1.7,3.1c-0.9,0-1.9,0-2.8,0c-0.1-0.6-0.4-1.2-0.9-1.6C69.6-2.9,69-3,68.3-2.9
						c-0.9,0-1.7,0.4-2.2,1.1c-0.5,0.9-0.7,2-0.6,3.1l0.1,0.8c0,1.1,0.4,2.1,1,3c0.6,0.7,1.5,1,2.4,0.9c0.8,0,1.6-0.2,2.2-0.7
						c0-0.7,0-1.5-0.1-2.2c-0.8,0-1.7,0.1-2.5,0.1l-0.1-1.9c1.8-0.1,3.6-0.1,5.4-0.1C73.9,2.8,73.9,4.5,73.9,6.2z"/>
					<path id="Path_14648" class="st3" d="M87.3-4.3c-0.3,2.8-0.6,5.6-0.9,8.4c-0.1,1.3-0.7,2.4-1.7,3.2c-2.3,1.4-5.2,1.2-7.3-0.4
						C76.5,6,76,4.8,76,3.5L76.2-5c1,0,2,0,3,0.1c-0.1,2.8-0.2,5.6-0.4,8.4c-0.1,0.7,0.1,1.3,0.5,1.9c0.5,0.4,1.1,0.7,1.7,0.7
						c1.1,0.2,2.3-0.5,2.5-1.7c0-0.2,0-0.3,0-0.5l0.7-8.5C85.3-4.5,86.3-4.4,87.3-4.3z"/>
					<path id="Path_14649" class="st3" d="M93.7,4.8c-0.7-0.1-1.5-0.3-2.2-0.4C91.2,6,91,7.6,90.8,9.1C89.9,9,89,8.8,88.1,8.7
						c0.6-4.2,1.1-8.5,1.7-12.7c1.8,0.2,3.6,0.5,5.4,0.8c1.4,0.2,2.7,0.8,3.7,1.8c0.8,0.8,1,2,0.7,3.1c-0.1,0.8-0.5,1.5-1.1,2
						c-0.6,0.5-1.3,0.9-2.1,1c0.6,1.9,1.2,3.8,1.7,5.7l0,0.1c-0.9-0.2-1.9-0.4-2.8-0.6C94.8,8.2,94.3,6.5,93.7,4.8z M91.8,2.4
						c0.8,0.1,1.5,0.2,2.3,0.4c0.6,0.1,1.2,0.1,1.7-0.2c0.5-0.3,0.8-0.7,0.9-1.3c0.1-0.5,0-1.1-0.3-1.5C96-0.7,95.4-1,94.8-1
						c-0.8-0.1-1.6-0.3-2.3-0.4L91.8,2.4z"/>
					<path id="Path_14650" class="st3" d="M112.1,3.5c-1.4-0.5-2.8-0.9-4.2-1.4l-3.1,10.2c-0.9-0.3-1.7-0.5-2.6-0.7L105,1.3
						c-1.4-0.4-2.8-0.7-4.2-1.1c0.2-0.7,0.3-1.4,0.5-2.1c3.9,0.9,7.7,2,11.5,3.3L112.1,3.5z"/>
				</g>
			</g>
		</g>
	</g>
</g>
</svg>
