<?xml version="1.0" encoding="utf-8"?>
<!-- Generator: Adobe Illustrator 25.2.1, SVG Export Plug-In . SVG Version: 6.00 Build 0)  -->
<svg version="1.1" id="Layer_3" xmlns="http://www.w3.org/2000/svg" xmlns:xlink="http://www.w3.org/1999/xlink" x="0px" y="0px"
	 viewBox="0 0 200 200" style="enable-background:new 0 0 200 200;" xml:space="preserve">
<style type="text/css">
	.st0{fill:#93AE2D;}
	.st1{fill:#829836;}
	.st2{opacity:0.4;}
	.st3{fill:#FFFFFF;}
	.st4{opacity:0.19;}
	.st5{clip-path:url(#SVGID_2_);fill:#6F960E;}
	.st6{opacity:0.19;clip-path:url(#SVGID_2_);}
	.st7{opacity:0.58;clip-path:url(#SVGID_2_);}
	.st8{opacity:0.29;fill:#AEB647;}
	.st9{opacity:0.72;clip-path:url(#SVGID_2_);}
	.st10{opacity:0.85;clip-path:url(#SVGID_2_);}
</style>
<path class="st0" d="M34.9,32.2c0.4-4.5-2.4-8.6-5.6-11.7s-7-5.7-9.8-9.2c-2.7-3.4-4.3-7.6-6.4-11.4C11-4,8.1-7.7,4-9.3
	C2.6-9.8,1.1-10-0.3-9.6c-3.3,1-4.5,5-4.6,8.4c-0.2,5.5,1.1,11,2.5,16.3c1.6,6.7,3.3,13.4,6.5,19.5c3.2,6.1,8,11.6,14.4,14.1
	c0.9,0.4,1.9,0.6,2.8,0.4c0.7-0.2,1.3-0.7,1.8-1.3c1.4-1.3,2.8-2.6,4.2-4C30.8,40.7,34.5,37,34.9,32.2z"/>
<g>
	<path class="st1" d="M2-3.8c0.4,15.4,7.2,31,19.1,41c0.9,0.8,2.3-0.5,1.5-1.4C12.7,24.3,5.6,11.2,3.4-3.9C3.3-4.9,2-4.7,2-3.8
		L2-3.8z"/>
</g>
<g>
	<path class="st1" d="M0.9,8.9c1.6,10.3,7.3,21.9,16,27.9c0.8,0.6,1.7-0.5,1-1.2C10.3,28.3,4,19.3,2,8.8C1.9,8,0.8,8.1,0.9,8.9
		L0.9,8.9z"/>
</g>
<g>
	<path class="st1" d="M-2.8-3.7c0,0.6,0,1.2,0.1,1.8c0.1,0.6,0.2,1.2,0.4,1.9c0.3,1.2,0.7,2.4,1.1,3.6C-1,4.3,0.5,4.2,0.5,3.3
		c0.1-1.2,0-2.4-0.4-3.6c-0.4-1.4-1-2.5-1.7-3.8C-1.9-4.8-2.9-4.6-2.8-3.7L-2.8-3.7z"/>
</g>
<g>
	<path class="st1" d="M1.6,19.4c2.2,7.7,6,14.9,11.7,20.5c0.5,0.5,1.3-0.3,0.9-0.8c-5-6-9.1-12.6-11.7-20
		C2.3,18.4,1.4,18.8,1.6,19.4L1.6,19.4z"/>
</g>
<g>
	<path class="st1" d="M20.8,16.8c5.7,3.5,7.7,9.4,10.2,15.2c0.4,0.9,1.5,0.5,1.5-0.4c-0.1-6-6.5-12.6-11.6-15.1
		C20.8,16.4,20.6,16.7,20.8,16.8L20.8,16.8z"/>
</g>
<g class="st2">
	<path class="st3" d="M8.2,0.4c4.7,4.2,5.1,10.6,8.4,15.7c3.6,5.4,8,8.6,10,15.1c0.2,0.8,1.4,0.4,1.4-0.3c-0.2-6.6-6-11-9.7-15.9
		c-3.7-4.8-3.5-12.6-9.6-15.3C8.2-0.6,7.8,0.1,8.2,0.4L8.2,0.4z"/>
</g>
<g class="st2">
	<path class="st3" d="M23.3,29.4c-0.7-2.2-2.1-4.2-3.3-6.2c-1.5-2.4-3-4.4-5.3-6.1c-0.7-0.5-1.7,0.3-1.1,1c1.7,2,3.3,4,4.9,6.2
		c1.4,1.9,2.5,4,4.3,5.5C23.1,29.9,23.4,29.7,23.3,29.4L23.3,29.4z"/>
</g>
<g class="st2">
	<path class="st3" d="M11.5,10.2c-0.7-2.4-1.8-4.6-2.7-6.9C8.6,2.6,7.5,2.8,7.6,3.6c0.2,1.1,0.5,2.3,1,3.4c0.5,1.3,1.2,2.5,1.7,3.7
		C10.6,11.4,11.7,10.9,11.5,10.2L11.5,10.2z"/>
</g>
<g class="st4">
	<path class="st3" d="M108.3,79.3c-12.7,0.6-22.1-5.8-31.9-13.2C63.8,56.4,52,49.5,36.4,45.8c-4.5-1.1-7.1-3.9-8-8.3
		c-0.5-2.9,0.3-4.9,2.1-7.1c2.9-3.5,7.1-4,11.2-2.6c13.3,4.4,25.5,10.6,36.2,19.7c10.6,9.1,19.1,19.8,31.3,27
		C111.1,75.6,111.2,79.2,108.3,79.3L108.3,79.3z"/>
</g>
<g>
	<defs>
		<path id="SVGID_1_" d="M44.1,25.7c33.3,8.7,58.7,35,88.3,52.5c15.8,9.3,33.2,16.3,46.9,28.4c7.6,6.7,13.9,14.8,19.7,23
			c2.9,4.1,5.6,8.2,7.4,12.9c3.4,8.7,3,18.8-1,27.2c-4,8.4-11.6,15-20.5,17.8c-10,3.2-21,1.6-30.6-2.5c-9.7-4-18.2-10.3-26.4-16.7
			c-7.3-5.7-14.4-11.5-20.8-18c-7.9-8-14.7-17.1-22.2-25.5c-17.1-19.3-37.6-35.4-57.3-52C20,66.3,12,58.5,12.2,48.6
			C12.3,41.4,17,35,22.4,30.1c2-1.8,4.2-3.6,6.7-4.6C33.8,23.6,39.2,24.4,44.1,25.7z"/>
	</defs>
	<clipPath id="SVGID_2_">
		<use xlink:href="#SVGID_1_"  style="overflow:visible;"/>
	</clipPath>
	<path class="st5" d="M44.1,25.7c33.3,8.7,58.7,35,88.3,52.5c15.8,9.3,33.2,16.3,46.9,28.4c7.6,6.7,13.9,14.8,19.7,23
		c2.9,4.1,5.6,8.2,7.4,12.9c3.4,8.7,3,18.8-1,27.2c-4,8.4-11.6,15-20.5,17.8c-10,3.2-21,1.6-30.6-2.5c-9.7-4-18.2-10.3-26.4-16.7
		c-7.3-5.7-14.4-11.5-20.8-18c-7.9-8-14.7-17.1-22.2-25.5c-17.1-19.3-37.6-35.4-57.3-52C20,66.3,12,58.5,12.2,48.6
		C12.3,41.4,17,35,22.4,30.1c2-1.8,4.2-3.6,6.7-4.6C33.8,23.6,39.2,24.4,44.1,25.7z"/>
	<g class="st6">
		<path class="st3" d="M32.8,32.6c9.5-8.2,26.6,1.1,35.8,5.7c18.8,9.5,33.5,25,50.5,37.2c17.3,12.4,37.3,20.3,53.5,34.4
			c10.8,9.4,31,31.8,17,46.4c-7,7.2-17.2,5.3-21.6-3.5c-2.8-5.6-1.5-8.1-5.2-13.1c-3.3-4.5-7.6-8.1-11.8-11.7
			c-15-12.5-33-20.7-48.8-32C79.6,79.8,61.3,53.3,34,44.1C28.8,42.3,29.4,35.6,32.8,32.6L32.8,32.6z"/>
	</g>
	<g class="st7">
		<path class="st8" d="M16.4,16.7c10.7,4.2,18.4,15.1,26.3,23c8.8,8.8,17.7,17.5,27,25.7c19.1,16.8,39.4,32.2,58.1,49.3
			c17.5,16,36.1,37.5,60.8,40.9c10,1.4,16.8-0.9,24-6.9c9.1-7.6,17.1-13.1,28.8-15.6c9.3-2,15.2,9.1,12.1,16.6
			c-11,27-35.5,51-65.3,50.1c-31.2-1-64.4-15.9-86-36.3C81.6,144.1,64.3,117.8,44,97.9C33.5,87.7,13.3,74.4,5.4,62.1
			c-6.9-10.7,0.4-27.7,3-41C9.1,17.3,12.9,15.3,16.4,16.7L16.4,16.7z"/>
	</g>
	<g class="st9">
		<path class="st8" d="M11,31.9c10.7,4.2,18.4,15.1,26.3,23c8.8,8.8,17.7,17.5,27,25.7c19.1,16.8,39.4,32.2,58.1,49.3
			c17.5,16,36.1,37.5,60.8,40.9c10,1.4,16.8-0.9,24-6.9c9.1-7.6,17.1-13.1,28.8-15.6c9.3-2,15.2,9.1,12.1,16.6
			c-11,27-35.5,51-65.3,50.1c-31.2-1-64.4-15.9-86-36.3c-20.7-19.5-37.9-45.9-58.3-65.7C28,102.8,7.9,89.6-0.1,77.3
			c-6.9-10.7,0.4-27.7,3-41C3.7,32.5,7.4,30.5,11,31.9L11,31.9z"/>
	</g>
	<g class="st10">
		<path class="st8" d="M4.4,43.5c10.7,4.2,18.4,15.1,26.3,23c8.8,8.8,17.7,17.5,27,25.7c19.1,16.8,39.4,32.2,58.1,49.3
			c17.5,16,36.1,37.5,60.8,40.9c10,1.4,16.8-0.9,24-6.9c9.1-7.6,17.1-13.1,28.8-15.6c9.3-2,15.2,9.1,12.1,16.6
			c-11,27-35.5,51-65.3,50.1c-31.2-1-64.4-15.9-86-36.3c-20.7-19.5-37.9-45.9-58.3-65.7C21.5,114.5,1.4,101.2-6.6,88.9
			c-6.9-10.7,0.4-27.7,3-41C-2.8,44.1,0.9,42.1,4.4,43.5L4.4,43.5z"/>
	</g>
</g>
</svg>
