<?xml version="1.0" encoding="utf-8"?>
<!-- Generator: Adobe Illustrator 25.2.1, SVG Export Plug-In . SVG Version: 6.00 Build 0)  -->
<svg version="1.1" id="Layer_2" xmlns="http://www.w3.org/2000/svg" xmlns:xlink="http://www.w3.org/1999/xlink" x="0px" y="0px"
	 viewBox="0 0 200 200" style="enable-background:new 0 0 200 200;" xml:space="preserve">
<style type="text/css">
	.st0{fill:#93AE2D;}
	.st1{fill:#829836;}
	.st2{opacity:0.4;}
	.st3{fill:#FFFFFF;}
	.st4{opacity:0.19;}
	.st5{clip-path:url(#SVGID_2_);fill:#6F960E;}
	.st6{opacity:0.19;clip-path:url(#SVGID_2_);}
	.st7{opacity:0.58;clip-path:url(#SVGID_2_);}
	.st8{opacity:0.29;fill:#AEB647;}
	.st9{opacity:0.72;clip-path:url(#SVGID_2_);}
	.st10{opacity:0.85;clip-path:url(#SVGID_2_);}
	.st11{clip-path:url(#SVGID_4_);fill:#6F960E;}
	.st12{opacity:0.19;clip-path:url(#SVGID_4_);}
	.st13{opacity:0.58;clip-path:url(#SVGID_4_);}
	.st14{opacity:0.72;clip-path:url(#SVGID_4_);}
	.st15{opacity:0.85;clip-path:url(#SVGID_4_);}
	.st16{fill:none;}
	.st17{fill:#FCF6D4;}
	.st18{fill:#EDEBBA;}
	.st19{fill:#FFFCEB;}
	.st20{clip-path:url(#SVGID_6_);}
	.st21{fill:#CAE246;}
	.st22{clip-path:url(#SVGID_8_);}
</style>
<g>
	<path class="st0" d="M-35.6,80.4c-3.7-2.6-8.6-2.3-12.9-1.1c-4.3,1.2-8.4,3.2-12.9,3.8c-4.3,0.6-8.7-0.1-13.1-0.2
		c-4.4-0.1-9.1,0.4-12.5,3.2c-1.1,0.9-2.1,2.1-2.5,3.5c-0.8,3.3,2,6.4,4.9,8.3c4.7,2.9,10,4.5,15.3,6.1c6.6,2,13.3,3.9,20.1,4.3
		c6.9,0.3,14.1-1.1,19.5-5.3c0.8-0.6,1.5-1.3,1.7-2.2c0.2-0.7,0-1.5-0.2-2.2c-0.4-1.9-0.9-3.7-1.3-5.6
		C-30.3,88.2-31.7,83.1-35.6,80.4z"/>
	<g>
		<path class="st1" d="M-83.3,90.6c13.5,7.4,30.4,9.4,45,4.2c1.1-0.4,0.7-2.3-0.5-2c-14.9,2.7-29.8,2.2-43.9-3.5
			C-83.5,88.9-84.1,90.1-83.3,90.6L-83.3,90.6z"/>
	</g>
	<g>
		<path class="st1" d="M-72.9,97.9c9.6,3.8,22.6,4.8,32.2,0.3c0.9-0.4,0.4-1.7-0.5-1.5c-10.1,2.9-21.1,3.7-31.2,0.1
			C-73.1,96.6-73.6,97.6-72.9,97.9L-72.9,97.9z"/>
	</g>
	<g>
		<path class="st1" d="M-85.7,94.7c0.6,0.3,1,0.6,1.6,0.8c0.6,0.2,1.2,0.4,1.8,0.6c1.2,0.4,2.4,0.6,3.6,0.9c0.9,0.2,1.5-1.1,0.7-1.7
			c-1-0.7-2.1-1.2-3.3-1.5c-1.4-0.4-2.7-0.4-4.1-0.5C-86,93.4-86.4,94.4-85.7,94.7L-85.7,94.7z"/>
	</g>
	<g>
		<path class="st1" d="M-63.4,102.6c7.7,2,15.9,2.3,23.6,0.2c0.7-0.2,0.4-1.3-0.3-1.2c-7.7,1.3-15.5,1.5-23.2,0
			C-63.9,101.5-64.1,102.4-63.4,102.6L-63.4,102.6z"/>
	</g>
	<g>
		<path class="st1" d="M-56,84.7c5.9-3.2,12-2,18.2-1.2c0.9,0.1,1.2-1.1,0.5-1.5c-5.2-2.9-14.2-0.8-18.9,2.4
			C-56.4,84.5-56.2,84.8-56,84.7L-56,84.7z"/>
	</g>
	<g class="st2">
		<path class="st3" d="M-76.5,87.3c6-1.9,11.8,1,17.8,0.7c6.5-0.3,11.4-2.6,18-1c0.8,0.2,1.1-1,0.4-1.4c-5.8-3.2-12.5-0.4-18.6,0.4
			c-6,0.7-12.6-3.3-18.1,0.5C-77.4,86.8-77,87.5-76.5,87.3L-76.5,87.3z"/>
	</g>
	<g class="st2">
		<path class="st3" d="M-43.9,88.9c-2.3-0.5-4.7-0.3-7-0.3c-2.8,0-5.3,0.4-7.9,1.5c-0.8,0.3-0.5,1.6,0.3,1.5
			c2.6-0.5,5.2-0.8,7.8-1.1c2.3-0.2,4.8-0.1,6.9-0.9C-43.5,89.4-43.6,88.9-43.9,88.9L-43.9,88.9z"/>
	</g>
	<g class="st2">
		<path class="st3" d="M-66.4,89.4c-2.4-0.6-4.9-0.7-7.3-1.2c-0.7-0.1-1,1-0.4,1.2c1.1,0.4,2.2,0.7,3.4,0.9c1.3,0.2,2.7,0.2,4,0.4
			C-65.8,90.8-65.6,89.6-66.4,89.4L-66.4,89.4z"/>
	</g>
	<g class="st4">
		<path class="st3" d="M42.2,40.7C36.3,52,26,56.9,14.6,61.6c-14.7,6-26.6,12.7-37.7,24.3c-3.2,3.3-6.9,4.2-11.2,2.7
			c-2.7-1-4.1-2.7-5-5.4c-1.5-4.3,0.1-8.1,3.4-11C-25.5,63-14,55.6-0.7,51c13.2-4.6,26.7-6.5,39.1-13.4
			C40.4,36.5,43.5,38.2,42.2,40.7L42.2,40.7z"/>
	</g>
	<g>
		<defs>
			<path id="SVGID_1_" d="M-36.5,69.1c24.3-24.4,59.9-32.9,89.9-49.7c16-8.9,30.8-20.4,48.2-26.1c9.6-3.2,19.7-4.5,29.8-5.3
				c5-0.4,10-0.7,14.9,0.1c9.2,1.5,17.7,6.9,22.9,14.6c5.2,7.7,7.1,17.6,5,26.7c-2.3,10.2-9.3,18.9-17.6,25.2
				c-8.3,6.3-18.1,10.5-27.8,14.4c-8.5,3.4-17.2,6.6-26.1,8.9c-10.9,2.8-22.2,4.1-33.2,6.2c-25.3,5-49.5,14.5-73.8,23.1
				c-9.3,3.3-20.1,6.3-28.6,1.2c-6.2-3.8-9.3-11.1-10.8-18.2c-0.6-2.7-1-5.4-0.6-8.1C-43.6,76.9-40.1,72.7-36.5,69.1z"/>
		</defs>
		<clipPath id="SVGID_2_">
			<use xlink:href="#SVGID_1_"  style="overflow:visible;"/>
		</clipPath>
		<path class="st5" d="M-4.4,107.1c23.9-8.4,74.3-20.7,76.3-24.7c-0.2-8.7-4.3-15.5-4.5-24.2c-0.4-15.4,1.5-29.4,0.5-44.8
			c-3-2-10.4,3.7-14.5,6C23.3,36.1-12.2,44.7-36.5,69.1c-3.6,3.6-7,7.8-7.8,12.9c-0.4,2.7,0,5.5,0.6,8.1c1.5,7.1,4.6,14.4,10.8,18.2
			C-24.5,113.4-13.7,110.4-4.4,107.1z"/>
		<g class="st6">
			<path class="st3" d="M-25.8,87.1c21.7-18.9,53.9-21.3,79.3-32.7c4.6-2.1,9.1-4.4,13.6-6.7c-0.3-9.9-0.6-19.7-1.1-29.6
				c-7.1,4.1-14.1,8.1-21.6,11.4C25.3,38,4.5,42.9-13.3,54.3c-8.6,5.5-25.2,15.7-23,28C-35.5,86.7-29.9,90.7-25.8,87.1z"/>
		</g>
		<g class="st7">
			<path class="st8" d="M25.7,105.7c13.5-3.7,28.1-6,42.6-8.3c-0.3-13.1-0.6-26.1-0.9-39.2c-0.1-3.7-0.2-7.5-0.3-11.2
				c-18.8,6.5-37.4,13.8-56.3,20.1C-1.1,71-13.1,74.3-25.1,77.4c-10.8,2.8-24.1,3.9-33.2,11c-3,2.4-3.2,6.6-0.3,9.1
				c10.2,9,21.2,23.9,33.9,23.4C-10.1,120.2,11.6,109.5,25.7,105.7z"/>
		</g>
		<g class="st9">
			<path class="st8" d="M36,118c10.4-2.9,21.4-4.9,32.5-6.7c-0.3-16.2-0.7-32.4-1.1-48.5C52,68.4,36.6,74.3,21.1,79.4
				C9.2,83.4-2.7,86.7-14.8,89.8c-10.8,2.8-24.1,3.9-33.2,11c-3,2.4-3.2,6.6-0.3,9.1c10.2,9,21.2,23.9,33.9,23.4
				C0.3,132.6,21.9,121.9,36,118z"/>
		</g>
		<g class="st10">
			<path class="st8" d="M42.8,129.5c8.4-2.3,17.1-4,26-5.6c0-3-0.1-6.1-0.1-9.1c-0.2-12.7,3.3-38.4,2.3-41.4
				c-13.3,4.9-29.7,13.1-43.1,17.6C16,94.9,4,98.2-8.1,101.3c-10.8,2.8-24.1,3.9-33.2,11c-3,2.4-3.2,6.6-0.3,9.1
				c10.2,9,21.2,23.9,33.9,23.4C7,144.1,28.7,133.4,42.8,129.5z"/>
		</g>
	</g>
</g>
<g>
	<g>
		<defs>
			<path id="SVGID_3_" d="M68.4-1.9c34.3,3,63.7,24.8,95.9,37c17.1,6.5,35.4,10.5,51,20.2c8.6,5.3,16.1,12.2,23.2,19.4
				c3.5,3.5,6.9,7.2,9.5,11.4c4.8,8,6.1,18,3.5,26.9c-2.6,9-9,16.7-17.2,21c-9.3,4.8-20.4,5-30.6,2.7c-10.2-2.4-19.6-7.1-28.9-12.1
				c-8.1-4.4-16.1-8.9-23.6-14.3c-9.1-6.6-17.3-14.4-26.1-21.5C105,72.7,82.1,60.3,59.9,47.2c-8.5-5-17.8-11.4-19.2-21.2
				c-1.1-7.2,2.5-14.3,7-20c1.7-2.2,3.5-4.2,5.9-5.7C57.9-2.3,63.3-2.4,68.4-1.9z"/>
		</defs>
		<clipPath id="SVGID_4_">
			<use xlink:href="#SVGID_3_"  style="overflow:visible;"/>
		</clipPath>
		<path class="st11" d="M247.9,86.2c-2.5-4.3-6-7.9-9.5-11.4c-7.1-7.2-14.6-14.1-23.2-19.4c-10.7-6.6-22.6-10.6-34.6-14.5
			c-12.7,12-25.8,23.6-38.9,35.2c-5.2,4.6-10.4,9.2-15.7,13.8c8.4,6.9,16.4,14.3,25.1,20.7c7.5,5.4,15.5,10,23.6,14.3
			c9.2,5,18.7,9.7,28.9,12.1c10.2,2.4,21.3,2.1,30.6-2.7c8.3-4.3,14.7-12,17.2-21C254,104.2,252.7,94.2,247.9,86.2z"/>
		<g class="st12">
			<path class="st3" d="M209.1,59.7c-10.4-6.4-21.7-10.6-33-14.7c-7.2,6.8-14.6,13.4-22,20c12.5,4.9,25.1,9.5,36.7,16.2
				c4.8,2.8,9.6,5.6,13.6,9.5c4.4,4.3,3.6,7,7.3,12c5.8,8,16.2,8.2,21.9-0.1C245,85.9,221.3,67.2,209.1,59.7z"/>
		</g>
		<g class="st13">
			<path class="st8" d="M280.9,71.2c-11.2,4.5-18.1,11.2-25.8,20.2c-6.1,7.1-12.4,10.5-22.5,10.8c-24.9,0.7-46.8-17.4-66.7-30.3
				c-3.8-2.4-7.6-4.8-11.5-7.1c-4.2,3.7-8.4,7.4-12.6,11.1c-8.5,7.5-17.1,15-25.6,22.5c10.7,9.3,21.4,18.4,32.6,25.9
				c24.7,16.5,59.9,25.6,90.8,21.4c29.6-4,49.8-31.8,56.1-60.3C297.3,77.6,289.7,67.7,280.9,71.2z"/>
		</g>
		<g class="st14">
			<path class="st8" d="M278,87c-11.2,4.5-18.1,11.2-25.8,20.2c-6.1,7.1-12.4,10.5-22.5,10.8c-24.9,0.7-46.8-17.4-66.7-30.3
				c-6.7-4.3-13.6-8.5-20.5-12.5c-0.2,0.2-0.5,0.4-0.7,0.7c-12,10.6-24.1,21.2-36.2,31.7c13.2,11.5,26.4,23.3,40.3,32.6
				c24.7,16.5,59.9,25.6,90.8,21.4c29.6-4,49.8-31.8,56.1-60.3C294.5,93.4,286.8,83.5,278,87z"/>
		</g>
		<g class="st15">
			<path class="st8" d="M273.5,99.6c-11.2,4.5-18.1,11.2-25.8,20.2c-6.1,7.1-12.4,10.5-22.5,10.8c-24.9,0.7-46.8-17.4-66.7-30.3
				c-8.6-5.6-17.5-10.8-26.4-16c-11.2,9.8-22.4,19.6-33.6,29.4c-0.8,0.7-1.6,1.4-2.4,2.1c14.9,12.8,29.6,26.4,45.3,36.9
				c24.7,16.5,59.9,25.6,90.8,21.4c29.6-4,49.8-31.8,56.1-60.3C290,106,282.4,96.1,273.5,99.6z"/>
		</g>
	</g>
</g>
<path class="st16" d="M78.2,43.3c-0.7-8.6-2.6-17-5.7-22.8c-3.1-5.8-4-9.7-11.5-6.7c-3.7,1.5-6.7,7.8-8.3,14.9
	c-1.6,7.2-2,15.5-1.3,23.4c0.8,10.2,3.3,22.8,7.5,28.1c4.2,5.3,5.9,6.6,12.7,1.7c1.8-1.3,2.9-13.8,3.7-17.5c0.8-3.5,1.5-7,2.2-10.5
	c0.3-1.6,0.6-3.2,0.8-4.9C78.4,47.1,78.3,45.2,78.2,43.3z"/>
<path class="st17" d="M58,61.9c-1.1-6-2.1-16.3-1.6-22.7c0.5-6.2,1.4-11.5,2.8-17c1.5-5.5,4.7-8.7,7.7-8.9c2.2-0.2,4.4,2.1,6,5.3
	c1.6,3.2,2.9,7.3,4,11.4c1.5,5.4,2.4,14.5,1.8,27.9c-0.3,6.8-1.4,13.7-3.5,18.9c-2.1,5.2-6,7.9-9,5.8c-1.2-0.9-2.2-2.5-3.1-4.3
	C60.7,73.5,59.2,68.4,58,61.9z"/>
<g>
	<path class="st18" d="M67.8,47.6c1,3,2.4,5.1,3.9,6.9c1.5,1.8,3.3,3.7,5,1.6c0.6-0.8,0.6-2.9,0.2-4c-0.9-2.4-2.7-3-4-4
		c-1.5-1.2-2.9-2.6-4.5-2.9C67.9,45.1,67.5,46.6,67.8,47.6L67.8,47.6z"/>
</g>
<g>
	<path class="st18" d="M66.6,47.3c-1.2,5.3-3,9.9-4,15.5c-0.4,2,0.8,3.9,1.6,2.5c2.3-4.1,3.5-10.3,4.4-16.3
		C69,46.2,67.2,44.7,66.6,47.3L66.6,47.3z"/>
</g>
<g>
	<path class="st18" d="M68.5,46.5c0.6-4,0.1-8.4-0.3-12.4c-0.4-4.4-1.1-9-3.2-10.6c-0.9-0.7-1.6,0.8-1.6,2.6c0.1,3.7,1,6.8,1.4,10.4
		c0.4,3.6,0.5,7.8,1.8,10.6C67.1,48.3,68.2,48.4,68.5,46.5L68.5,46.5z"/>
</g>
<g>
	<path class="st19" d="M70.5,59.3c0-0.1-0.1-0.1-0.1-0.2c-0.5-1-1.5-0.6-1.9,0.6c-0.4,1.3-0.3,3,0.3,4c0,0.1,0.1,0.1,0.1,0.2
		c0.6,1,1.4,0.6,1.9-0.6C71.2,61.9,71,60.3,70.5,59.3L70.5,59.3z"/>
</g>
<g>
	<path class="st19" d="M72.5,58.5C72.5,58.5,72.5,58.5,72.5,58.5c-0.9,0.7-0.3,3.4,0.4,2.6c0,0,0-0.1,0.1-0.1
		C73.8,60.3,73.3,57.9,72.5,58.5L72.5,58.5z"/>
</g>
<g>
	<path class="st19" d="M69.4,57.2c0.3,1.7,1.6,0.6,1.3-1.1C70.3,54.3,69,55.4,69.4,57.2L69.4,57.2z"/>
</g>
<g>
	<path class="st19" d="M68.6,67.7c-0.1-0.8-0.3-1.4-0.6-1.9c-0.5-0.8-1.2-0.1-1.3,1.2c0,0.9,0,1.5,0.2,2.3
		C67.4,71.6,69,70.2,68.6,67.7L68.6,67.7z"/>
</g>
<g>
	<path class="st19" d="M72.1,62.6c0,0,0,0.1-0.1,0.1c-0.5,1-0.2,2.7,0.5,2.6c0,0,0.1,0,0.1,0c0.5-0.1,0.7-1.3,0.6-2.1
		C73,62.4,72.4,61.9,72.1,62.6L72.1,62.6z"/>
</g>
<g>
	<path class="st19" d="M73.4,40.7C73.4,40.7,73.3,40.7,73.4,40.7c-0.5-0.4-0.9,0-1.1,0.9c0,0,0,0.1,0,0.1c-0.3,1.5,0.5,3,1.1,2.4
		C74.1,43.5,74.1,41.3,73.4,40.7L73.4,40.7z"/>
</g>
<g>
	<path class="st19" d="M70.1,38.5c0,0,0,0.1-0.1,0.1c0.2-0.1,0.4-0.3,0.6-0.4c-0.1,0-0.2,0-0.3,0c-0.8,0.3-1,2.2-0.4,3.3
		c0,0,0,0,0,0.1c0.3,0.6,0.8,0.4,1.1,0c0.3-0.6,0.4-1.4,0.3-2.2c0-0.1,0-0.1,0-0.2C71.1,38.1,70.5,37.9,70.1,38.5L70.1,38.5z"/>
</g>
<g>
	<path class="st19" d="M71.5,45c-0.1-0.2-0.1-0.4-0.1-0.6c-0.1-1.1-0.8-1.4-1-0.3c-0.1,0.7-0.2,1.3-0.1,2.1c0.1,1,0.5,1.6,1,1.2
		C71.6,46.9,71.7,45.8,71.5,45L71.5,45z"/>
</g>
<g>
	<path class="st19" d="M71.1,34c0.5,2.4,2.2,0.8,1.8-1.6C72.3,30,70.6,31.6,71.1,34L71.1,34z"/>
</g>
<g>
	<path class="st19" d="M65.1,48.3c0-0.1,0-0.1,0-0.2c-0.1-1.3-0.7-1.8-1.2-1.1c0,0-0.1,0.1-0.1,0.1c-0.5,0.8-0.3,2.6,0.2,3.1
		C64.5,50.6,65.2,49.6,65.1,48.3L65.1,48.3z"/>
</g>
<g>
	<path class="st19" d="M63.4,44.1c0-0.1-0.1-0.1-0.1-0.2c-0.3-0.4-0.7-0.1-0.7,0.6c0,0.1,0,0.2,0,0.3c-0.1,0.9,0.4,1.5,0.7,1.2
		C63.6,45.8,63.7,44.7,63.4,44.1L63.4,44.1z"/>
</g>
<g>
	<path class="st19" d="M62,54.2c0-0.1,0-0.1-0.1-0.2c-0.1-0.4-0.4-0.5-0.6-0.5c0,0-0.1,0-0.1,0c-0.8,0.3-1,2.7-0.2,3.3
		C61.8,57.6,62.5,55.6,62,54.2L62,54.2z"/>
</g>
<g>
	<path class="st19" d="M61.3,36.8c0.5,2.7,2.5,0.9,2-1.8C62.7,32.2,60.8,34,61.3,36.8L61.3,36.8z"/>
</g>
<g>
	<path class="st19" d="M76.2,44.8c0.1-1.2-0.1-2.2-0.5-3c-0.3-0.7-0.8,0.3-0.7,1.1c0.1,0.5,0.1,1,0.1,1.5C75.1,46,76,46.2,76.2,44.8
		L76.2,44.8z"/>
</g>
<g>
	<defs>
		<path id="SVGID_5_" d="M58,61.9c-1.1-6-2.1-16.3-1.6-22.7c0.5-6.2,1.4-11.5,2.8-17c1.5-5.5,4.7-8.7,7.7-8.9c2.2-0.2,4.4,2.1,6,5.3
			c1.6,3.2,2.9,7.3,4,11.4c1.5,5.4,2.4,14.5,1.8,27.9c-0.3,6.8-1.4,13.7-3.5,18.9c-2.1,5.2-6,7.9-9,5.8c-1.2-0.9-2.2-2.5-3.1-4.3
			C60.7,73.5,59.2,68.4,58,61.9z"/>
	</defs>
	<clipPath id="SVGID_6_">
		<use xlink:href="#SVGID_5_"  style="overflow:visible;"/>
	</clipPath>
	<g class="st20">
		<path class="st21" d="M77.2,67.7c-1.7,8.2-5.1,13.8-9.5,13.2c-4.1-0.5-6.7-9.1-8.3-16.1c-2.7-11.3-2.5-25.9-0.6-37.6
			c1-6.1,2.9-11.1,6-12.2c5.1-1.7,7.6,4.2,10.3,12.4c2.3,6.8,2.9,15.3,3.1,23.4c0.2,9-1.3,16.1-2.4,24.5c-0.2,1.5,0.6,3.1,1.2,1.9
			c3.3-5.8,3.7-18,3.8-26.4c0-11.8-1.7-21.8-5-31.1C72.8,11,69.6,8.4,64.5,9.3c-3.9,0.7-6.5,7.2-8,14.2c-3.5,16.1-2,36.4,2.4,50.7
			c2.6,8.6,6.6,13.3,11.5,11.5c4.1-1.5,7.2-9.1,7.8-17.6C78.2,67,77.4,66.6,77.2,67.7L77.2,67.7z"/>
	</g>
</g>
<g>
	<path class="st17" d="M134.4,74.6c3.6-4.5,10.6-12.1,16-16.6c5.2-4.5,10.1-8.2,15.7-12c5.6-3.8,11-5.7,13.9-5.5
		c2.2,0.1,2.4,2.1,1.4,4.6c-1,2.5-3,5.6-5.1,8.7c-2.8,4.1-9,10.8-19.8,20.5c-5.5,4.9-11.8,9.8-17.7,13.3c-5.9,3.5-11.6,5.1-12.7,3.1
		c-0.4-0.8-0.1-2.1,0.5-3.5C128.1,83.2,130.6,79.4,134.4,74.6z"/>
	<g>
		<path class="st18" d="M154.5,65.3c-1.3,2.3-1.7,4-1.8,5.5c0,1.5,0.2,3.1,3.3,1.8c1.2-0.5,2.8-2,3.2-2.8c1-1.8-0.2-2.5-0.5-3.4
			c-0.4-1.1-0.7-2.2-1.9-2.6C156.4,63.5,155,64.5,154.5,65.3L154.5,65.3z"/>
	</g>
	<g>
		<path class="st18" d="M153.6,65c-5.2,3.7-10.4,6.9-15.5,10.7c-1.8,1.4-2.3,2.9-0.5,2c5.3-2.7,11.1-7,16.5-11.3
			C156.6,64.5,156.1,63.2,153.6,65L153.6,65z"/>
	</g>
	<g>
		<path class="st18" d="M155.9,64.6c3.6-2.8,6.5-6.1,9.2-9c3-3.2,5.9-6.6,5.2-8.1c-0.3-0.6-2.1,0.3-3.5,1.7
			c-2.7,2.7-4.4,5.1-6.7,7.7c-2.3,2.7-5.5,5.7-6.5,7.9C153.3,65.8,154.2,66,155.9,64.6L155.9,64.6z"/>
	</g>
	<g>
		<path class="st19" d="M147.9,74.1c0,0,0-0.1,0-0.1c0.3-0.8-0.9-0.6-2.1,0.2c-1.4,0.9-2.5,2.1-2.8,2.9c0,0,0,0.1,0,0.1
			c-0.2,0.8,0.9,0.6,2.1-0.2C146.6,76.1,147.7,74.9,147.9,74.1L147.9,74.1z"/>
	</g>
	<g>
		<path class="st19" d="M150.4,73.8c0,0-0.1,0-0.1,0c-1.2,0.4-2.8,2.4-1.5,1.9c0,0,0.1,0,0.1,0C150.2,75.2,151.6,73.4,150.4,73.8
			L150.4,73.8z"/>
	</g>
	<g>
		<path class="st19" d="M148.6,72.4c-1,1.3,1,0.6,2-0.7C151.6,70.5,149.6,71.1,148.6,72.4L148.6,72.4z"/>
	</g>
	<g>
		<path class="st19" d="M139.8,80c0.5-0.6,0.8-1,0.9-1.4c0.2-0.6-1.1-0.2-2.1,0.7c-0.7,0.6-1.2,1.1-1.6,1.7
			C135.7,82.7,138.2,81.8,139.8,80L139.8,80z"/>
	</g>
	<g>
		<path class="st19" d="M163.6,59c0,0-0.1,0-0.1,0.1c0.3-0.1,0.6-0.1,0.9-0.2c-0.1,0-0.2,0-0.3,0c-1,0.1-2.6,1.5-2.9,2.4
			c0,0,0,0,0,0c-0.2,0.5,0.4,0.4,1,0.1c0.7-0.4,1.4-1,2-1.6c0-0.1,0.1-0.1,0.1-0.2C164.8,58.8,164.4,58.6,163.6,59L163.6,59z"/>
	</g>
	<g>
		<path class="st19" d="M167.9,55.9c-1.4,1.8,1.4,0.9,2.8-0.9C172.1,53.1,169.3,54.1,167.9,55.9L167.9,55.9z"/>
	</g>
	<g>
		<path class="st19" d="M151.5,65.5c0-0.1,0.1-0.1,0.1-0.2c0.9-0.9,0.7-1.4-0.3-0.9c-0.1,0-0.1,0.1-0.2,0.1
			c-1.1,0.5-2.3,1.8-2.2,2.2C149.1,67.1,150.6,66.5,151.5,65.5L151.5,65.5z"/>
	</g>
	<g>
		<path class="st19" d="M153.1,62.3c0,0,0-0.1,0-0.1c0.1-0.3-0.6-0.1-1.1,0.4c-0.1,0.1-0.2,0.1-0.2,0.2c-0.7,0.6-0.8,1.1-0.2,0.9
			C152.1,63.5,153,62.7,153.1,62.3L153.1,62.3z"/>
	</g>
	<g>
		<path class="st19" d="M144.1,69.4c0,0,0.1-0.1,0.1-0.1c0.2-0.3,0.1-0.4-0.1-0.4c0,0-0.1,0-0.1,0c-0.9,0.1-2.9,1.8-2.7,2.4
			C141.3,71.9,143.5,70.5,144.1,69.4L144.1,69.4z"/>
	</g>
	<g>
		<path class="st19" d="M156.8,56.7c-1.6,2,1.6,1,3.2-1.1C161.6,53.6,158.4,54.7,156.8,56.7L156.8,56.7z"/>
	</g>
	<g>
		<path class="st19" d="M164.3,64.3c1-0.8,1.6-1.6,1.8-2.2c0.2-0.5-1,0.1-1.5,0.7c-0.3,0.4-0.7,0.8-1.1,1.1
			C162.3,65,163,65.3,164.3,64.3L164.3,64.3z"/>
	</g>
	<g>
		<defs>
			<path id="SVGID_7_" d="M134.4,74.6c3.6-4.5,10.6-12.1,16-16.6c5.2-4.5,10.1-8.2,15.7-12c5.6-3.8,11-5.7,13.9-5.5
				c2.2,0.1,2.4,2.1,1.4,4.6c-1,2.5-3,5.6-5.1,8.7c-2.8,4.1-9,10.8-19.8,20.5c-5.5,4.9-11.8,9.8-17.7,13.3
				c-5.9,3.5-11.6,5.1-12.7,3.1c-0.4-0.8-0.1-2.1,0.5-3.5C128.1,83.2,130.6,79.4,134.4,74.6z"/>
		</defs>
		<clipPath id="SVGID_8_">
			<use xlink:href="#SVGID_7_"  style="overflow:visible;"/>
		</clipPath>
		<g class="st22">
			<path class="st21" d="M147.6,81c-7.9,5.8-15.2,9.4-18.8,8.5c-3.4-0.9,0.9-7.4,4.7-12.7c6.2-8.5,17.5-19,28.3-27.3
				c5.6-4.3,11.2-7.7,14.9-8.1c6-0.7,3.8,3.9-0.1,10.2c-3.2,5.2-9.1,11.4-15.1,17.3c-6.7,6.6-13.6,11.5-21,17.5
				c-1.3,1-1.9,2.3-0.4,1.5c7.5-3.9,17.3-12.6,23.7-18.7c9.1-8.5,15.2-16,19.3-23.1c3.9-6.7,3-9-2.4-8.9c-4.1,0.1-11.4,4.4-18.3,9.4
				c-15.6,11.3-29.8,26.1-36.8,37.1c-4.2,6.5-4.1,10.4,1.6,9.7c4.8-0.6,13.6-5.7,20.6-11.8C149.1,80.6,148.6,80.2,147.6,81L147.6,81
				z"/>
		</g>
	</g>
</g>
</svg>
